<?xml version="1.0" encoding="utf-8" standalone="no"?>
<!DOCTYPE svg PUBLIC "-//W3C//DTD SVG 1.1//EN"
  "http://www.w3.org/Graphics/SVG/1.1/DTD/svg11.dtd">
<svg xmlns:xlink="http://www.w3.org/1999/xlink" width="453.115625pt" height="337.354375pt" viewBox="0 0 453.115625 337.354375" xmlns="http://www.w3.org/2000/svg" version="1.1">
 <metadata>
  <rdf:RDF xmlns:dc="http://purl.org/dc/elements/1.1/" xmlns:cc="http://creativecommons.org/ns#" xmlns:rdf="http://www.w3.org/1999/02/22-rdf-syntax-ns#">
   <cc:Work>
    <dc:type rdf:resource="http://purl.org/dc/dcmitype/StillImage"/>
    <dc:date>2025-10-29T16:08:44.889141</dc:date>
    <dc:format>image/svg+xml</dc:format>
    <dc:creator>
     <cc:Agent>
      <dc:title>Matplotlib v3.10.6, https://matplotlib.org/</dc:title>
     </cc:Agent>
    </dc:creator>
   </cc:Work>
  </rdf:RDF>
 </metadata>
 <defs>
  <style type="text/css">*{stroke-linejoin: round; stroke-linecap: butt}</style>
 </defs>
 <g id="figure_1">
  <g id="patch_1">
   <path d="M 0 337.354375 
L 453.115625 337.354375 
L 453.115625 0 
L 0 0 
z
" style="fill: #ffffff"/>
  </g>
  <g id="axes_1">
   <g id="patch_2">
    <path d="M 46.965625 299.798125 
L 445.915625 299.798125 
L 445.915625 22.318125 
L 46.965625 22.318125 
z
" style="fill: #ffffff"/>
   </g>
   <g id="matplotlib.axis_1">
    <g id="xtick_1">
     <g id="line2d_1">
      <defs>
       <path id="med4f08fd0c" d="M 0 0 
L 0 3.5 
" style="stroke: #000000; stroke-width: 0.8"/>
      </defs>
      <g>
       <use xlink:href="#med4f08fd0c" x="64.908622" y="299.798125" style="stroke: #000000; stroke-width: 0.8"/>
      </g>
     </g>
     <g id="text_1">
      <!-- 0.00 -->
      <g transform="translate(53.77581 314.396563) scale(0.1 -0.1)">
       <defs>
        <path id="DejaVuSans-30" d="M 2034 4250 
Q 1547 4250 1301 3770 
Q 1056 3291 1056 2328 
Q 1056 1369 1301 889 
Q 1547 409 2034 409 
Q 2525 409 2770 889 
Q 3016 1369 3016 2328 
Q 3016 3291 2770 3770 
Q 2525 4250 2034 4250 
z
M 2034 4750 
Q 2819 4750 3233 4129 
Q 3647 3509 3647 2328 
Q 3647 1150 3233 529 
Q 2819 -91 2034 -91 
Q 1250 -91 836 529 
Q 422 1150 422 2328 
Q 422 3509 836 4129 
Q 1250 4750 2034 4750 
z
" transform="scale(0.015625)"/>
        <path id="DejaVuSans-2e" d="M 684 794 
L 1344 794 
L 1344 0 
L 684 0 
L 684 794 
z
" transform="scale(0.015625)"/>
       </defs>
       <use xlink:href="#DejaVuSans-30"/>
       <use xlink:href="#DejaVuSans-2e" transform="translate(63.623047 0)"/>
       <use xlink:href="#DejaVuSans-30" transform="translate(95.410156 0)"/>
       <use xlink:href="#DejaVuSans-30" transform="translate(159.033203 0)"/>
      </g>
     </g>
    </g>
    <g id="xtick_2">
     <g id="line2d_2">
      <g>
       <use xlink:href="#med4f08fd0c" x="110.277513" y="299.798125" style="stroke: #000000; stroke-width: 0.8"/>
      </g>
     </g>
     <g id="text_2">
      <!-- 0.25 -->
      <g transform="translate(99.144701 314.396563) scale(0.1 -0.1)">
       <defs>
        <path id="DejaVuSans-32" d="M 1228 531 
L 3431 531 
L 3431 0 
L 469 0 
L 469 531 
Q 828 903 1448 1529 
Q 2069 2156 2228 2338 
Q 2531 2678 2651 2914 
Q 2772 3150 2772 3378 
Q 2772 3750 2511 3984 
Q 2250 4219 1831 4219 
Q 1534 4219 1204 4116 
Q 875 4013 500 3803 
L 500 4441 
Q 881 4594 1212 4672 
Q 1544 4750 1819 4750 
Q 2544 4750 2975 4387 
Q 3406 4025 3406 3419 
Q 3406 3131 3298 2873 
Q 3191 2616 2906 2266 
Q 2828 2175 2409 1742 
Q 1991 1309 1228 531 
z
" transform="scale(0.015625)"/>
        <path id="DejaVuSans-35" d="M 691 4666 
L 3169 4666 
L 3169 4134 
L 1269 4134 
L 1269 2991 
Q 1406 3038 1543 3061 
Q 1681 3084 1819 3084 
Q 2600 3084 3056 2656 
Q 3513 2228 3513 1497 
Q 3513 744 3044 326 
Q 2575 -91 1722 -91 
Q 1428 -91 1123 -41 
Q 819 9 494 109 
L 494 744 
Q 775 591 1075 516 
Q 1375 441 1709 441 
Q 2250 441 2565 725 
Q 2881 1009 2881 1497 
Q 2881 1984 2565 2268 
Q 2250 2553 1709 2553 
Q 1456 2553 1204 2497 
Q 953 2441 691 2322 
L 691 4666 
z
" transform="scale(0.015625)"/>
       </defs>
       <use xlink:href="#DejaVuSans-30"/>
       <use xlink:href="#DejaVuSans-2e" transform="translate(63.623047 0)"/>
       <use xlink:href="#DejaVuSans-32" transform="translate(95.410156 0)"/>
       <use xlink:href="#DejaVuSans-35" transform="translate(159.033203 0)"/>
      </g>
     </g>
    </g>
    <g id="xtick_3">
     <g id="line2d_3">
      <g>
       <use xlink:href="#med4f08fd0c" x="155.646404" y="299.798125" style="stroke: #000000; stroke-width: 0.8"/>
      </g>
     </g>
     <g id="text_3">
      <!-- 0.50 -->
      <g transform="translate(144.513592 314.396563) scale(0.1 -0.1)">
       <use xlink:href="#DejaVuSans-30"/>
       <use xlink:href="#DejaVuSans-2e" transform="translate(63.623047 0)"/>
       <use xlink:href="#DejaVuSans-35" transform="translate(95.410156 0)"/>
       <use xlink:href="#DejaVuSans-30" transform="translate(159.033203 0)"/>
      </g>
     </g>
    </g>
    <g id="xtick_4">
     <g id="line2d_4">
      <g>
       <use xlink:href="#med4f08fd0c" x="201.015295" y="299.798125" style="stroke: #000000; stroke-width: 0.8"/>
      </g>
     </g>
     <g id="text_4">
      <!-- 0.75 -->
      <g transform="translate(189.882483 314.396563) scale(0.1 -0.1)">
       <defs>
        <path id="DejaVuSans-37" d="M 525 4666 
L 3525 4666 
L 3525 4397 
L 1831 0 
L 1172 0 
L 2766 4134 
L 525 4134 
L 525 4666 
z
" transform="scale(0.015625)"/>
       </defs>
       <use xlink:href="#DejaVuSans-30"/>
       <use xlink:href="#DejaVuSans-2e" transform="translate(63.623047 0)"/>
       <use xlink:href="#DejaVuSans-37" transform="translate(95.410156 0)"/>
       <use xlink:href="#DejaVuSans-35" transform="translate(159.033203 0)"/>
      </g>
     </g>
    </g>
    <g id="xtick_5">
     <g id="line2d_5">
      <g>
       <use xlink:href="#med4f08fd0c" x="246.384186" y="299.798125" style="stroke: #000000; stroke-width: 0.8"/>
      </g>
     </g>
     <g id="text_5">
      <!-- 1.00 -->
      <g transform="translate(235.251374 314.396563) scale(0.1 -0.1)">
       <defs>
        <path id="DejaVuSans-31" d="M 794 531 
L 1825 531 
L 1825 4091 
L 703 3866 
L 703 4441 
L 1819 4666 
L 2450 4666 
L 2450 531 
L 3481 531 
L 3481 0 
L 794 0 
L 794 531 
z
" transform="scale(0.015625)"/>
       </defs>
       <use xlink:href="#DejaVuSans-31"/>
       <use xlink:href="#DejaVuSans-2e" transform="translate(63.623047 0)"/>
       <use xlink:href="#DejaVuSans-30" transform="translate(95.410156 0)"/>
       <use xlink:href="#DejaVuSans-30" transform="translate(159.033203 0)"/>
      </g>
     </g>
    </g>
    <g id="xtick_6">
     <g id="line2d_6">
      <g>
       <use xlink:href="#med4f08fd0c" x="291.753077" y="299.798125" style="stroke: #000000; stroke-width: 0.8"/>
      </g>
     </g>
     <g id="text_6">
      <!-- 1.25 -->
      <g transform="translate(280.620265 314.396563) scale(0.1 -0.1)">
       <use xlink:href="#DejaVuSans-31"/>
       <use xlink:href="#DejaVuSans-2e" transform="translate(63.623047 0)"/>
       <use xlink:href="#DejaVuSans-32" transform="translate(95.410156 0)"/>
       <use xlink:href="#DejaVuSans-35" transform="translate(159.033203 0)"/>
      </g>
     </g>
    </g>
    <g id="xtick_7">
     <g id="line2d_7">
      <g>
       <use xlink:href="#med4f08fd0c" x="337.121968" y="299.798125" style="stroke: #000000; stroke-width: 0.8"/>
      </g>
     </g>
     <g id="text_7">
      <!-- 1.50 -->
      <g transform="translate(325.989156 314.396563) scale(0.1 -0.1)">
       <use xlink:href="#DejaVuSans-31"/>
       <use xlink:href="#DejaVuSans-2e" transform="translate(63.623047 0)"/>
       <use xlink:href="#DejaVuSans-35" transform="translate(95.410156 0)"/>
       <use xlink:href="#DejaVuSans-30" transform="translate(159.033203 0)"/>
      </g>
     </g>
    </g>
    <g id="xtick_8">
     <g id="line2d_8">
      <g>
       <use xlink:href="#med4f08fd0c" x="382.490859" y="299.798125" style="stroke: #000000; stroke-width: 0.8"/>
      </g>
     </g>
     <g id="text_8">
      <!-- 1.75 -->
      <g transform="translate(371.358047 314.396563) scale(0.1 -0.1)">
       <use xlink:href="#DejaVuSans-31"/>
       <use xlink:href="#DejaVuSans-2e" transform="translate(63.623047 0)"/>
       <use xlink:href="#DejaVuSans-37" transform="translate(95.410156 0)"/>
       <use xlink:href="#DejaVuSans-35" transform="translate(159.033203 0)"/>
      </g>
     </g>
    </g>
    <g id="xtick_9">
     <g id="line2d_9">
      <g>
       <use xlink:href="#med4f08fd0c" x="427.85975" y="299.798125" style="stroke: #000000; stroke-width: 0.8"/>
      </g>
     </g>
     <g id="text_9">
      <!-- 2.00 -->
      <g transform="translate(416.726938 314.396563) scale(0.1 -0.1)">
       <use xlink:href="#DejaVuSans-32"/>
       <use xlink:href="#DejaVuSans-2e" transform="translate(63.623047 0)"/>
       <use xlink:href="#DejaVuSans-30" transform="translate(95.410156 0)"/>
       <use xlink:href="#DejaVuSans-30" transform="translate(159.033203 0)"/>
      </g>
     </g>
    </g>
    <g id="text_10">
     <!-- time, t (us) -->
     <g transform="translate(218.742187 328.074688) scale(0.1 -0.1)">
      <defs>
       <path id="DejaVuSans-74" d="M 1172 4494 
L 1172 3500 
L 2356 3500 
L 2356 3053 
L 1172 3053 
L 1172 1153 
Q 1172 725 1289 603 
Q 1406 481 1766 481 
L 2356 481 
L 2356 0 
L 1766 0 
Q 1100 0 847 248 
Q 594 497 594 1153 
L 594 3053 
L 172 3053 
L 172 3500 
L 594 3500 
L 594 4494 
L 1172 4494 
z
" transform="scale(0.015625)"/>
       <path id="DejaVuSans-69" d="M 603 3500 
L 1178 3500 
L 1178 0 
L 603 0 
L 603 3500 
z
M 603 4863 
L 1178 4863 
L 1178 4134 
L 603 4134 
L 603 4863 
z
" transform="scale(0.015625)"/>
       <path id="DejaVuSans-6d" d="M 3328 2828 
Q 3544 3216 3844 3400 
Q 4144 3584 4550 3584 
Q 5097 3584 5394 3201 
Q 5691 2819 5691 2113 
L 5691 0 
L 5113 0 
L 5113 2094 
Q 5113 2597 4934 2840 
Q 4756 3084 4391 3084 
Q 3944 3084 3684 2787 
Q 3425 2491 3425 1978 
L 3425 0 
L 2847 0 
L 2847 2094 
Q 2847 2600 2669 2842 
Q 2491 3084 2119 3084 
Q 1678 3084 1418 2786 
Q 1159 2488 1159 1978 
L 1159 0 
L 581 0 
L 581 3500 
L 1159 3500 
L 1159 2956 
Q 1356 3278 1631 3431 
Q 1906 3584 2284 3584 
Q 2666 3584 2933 3390 
Q 3200 3197 3328 2828 
z
" transform="scale(0.015625)"/>
       <path id="DejaVuSans-65" d="M 3597 1894 
L 3597 1613 
L 953 1613 
Q 991 1019 1311 708 
Q 1631 397 2203 397 
Q 2534 397 2845 478 
Q 3156 559 3463 722 
L 3463 178 
Q 3153 47 2828 -22 
Q 2503 -91 2169 -91 
Q 1331 -91 842 396 
Q 353 884 353 1716 
Q 353 2575 817 3079 
Q 1281 3584 2069 3584 
Q 2775 3584 3186 3129 
Q 3597 2675 3597 1894 
z
M 3022 2063 
Q 3016 2534 2758 2815 
Q 2500 3097 2075 3097 
Q 1594 3097 1305 2825 
Q 1016 2553 972 2059 
L 3022 2063 
z
" transform="scale(0.015625)"/>
       <path id="DejaVuSans-2c" d="M 750 794 
L 1409 794 
L 1409 256 
L 897 -744 
L 494 -744 
L 750 256 
L 750 794 
z
" transform="scale(0.015625)"/>
       <path id="DejaVuSans-20" transform="scale(0.015625)"/>
       <path id="DejaVuSans-28" d="M 1984 4856 
Q 1566 4138 1362 3434 
Q 1159 2731 1159 2009 
Q 1159 1288 1364 580 
Q 1569 -128 1984 -844 
L 1484 -844 
Q 1016 -109 783 600 
Q 550 1309 550 2009 
Q 550 2706 781 3412 
Q 1013 4119 1484 4856 
L 1984 4856 
z
" transform="scale(0.015625)"/>
       <path id="DejaVuSans-75" d="M 544 1381 
L 544 3500 
L 1119 3500 
L 1119 1403 
Q 1119 906 1312 657 
Q 1506 409 1894 409 
Q 2359 409 2629 706 
Q 2900 1003 2900 1516 
L 2900 3500 
L 3475 3500 
L 3475 0 
L 2900 0 
L 2900 538 
Q 2691 219 2414 64 
Q 2138 -91 1772 -91 
Q 1169 -91 856 284 
Q 544 659 544 1381 
z
M 1991 3584 
L 1991 3584 
z
" transform="scale(0.015625)"/>
       <path id="DejaVuSans-73" d="M 2834 3397 
L 2834 2853 
Q 2591 2978 2328 3040 
Q 2066 3103 1784 3103 
Q 1356 3103 1142 2972 
Q 928 2841 928 2578 
Q 928 2378 1081 2264 
Q 1234 2150 1697 2047 
L 1894 2003 
Q 2506 1872 2764 1633 
Q 3022 1394 3022 966 
Q 3022 478 2636 193 
Q 2250 -91 1575 -91 
Q 1294 -91 989 -36 
Q 684 19 347 128 
L 347 722 
Q 666 556 975 473 
Q 1284 391 1588 391 
Q 1994 391 2212 530 
Q 2431 669 2431 922 
Q 2431 1156 2273 1281 
Q 2116 1406 1581 1522 
L 1381 1569 
Q 847 1681 609 1914 
Q 372 2147 372 2553 
Q 372 3047 722 3315 
Q 1072 3584 1716 3584 
Q 2034 3584 2315 3537 
Q 2597 3491 2834 3397 
z
" transform="scale(0.015625)"/>
       <path id="DejaVuSans-29" d="M 513 4856 
L 1013 4856 
Q 1481 4119 1714 3412 
Q 1947 2706 1947 2009 
Q 1947 1309 1714 600 
Q 1481 -109 1013 -844 
L 513 -844 
Q 928 -128 1133 580 
Q 1338 1288 1338 2009 
Q 1338 2731 1133 3434 
Q 928 4138 513 4856 
z
" transform="scale(0.015625)"/>
      </defs>
      <use xlink:href="#DejaVuSans-74"/>
      <use xlink:href="#DejaVuSans-69" transform="translate(39.208984 0)"/>
      <use xlink:href="#DejaVuSans-6d" transform="translate(66.992188 0)"/>
      <use xlink:href="#DejaVuSans-65" transform="translate(164.404297 0)"/>
      <use xlink:href="#DejaVuSans-2c" transform="translate(225.927734 0)"/>
      <use xlink:href="#DejaVuSans-20" transform="translate(257.714844 0)"/>
      <use xlink:href="#DejaVuSans-74" transform="translate(289.501953 0)"/>
      <use xlink:href="#DejaVuSans-20" transform="translate(328.710938 0)"/>
      <use xlink:href="#DejaVuSans-28" transform="translate(360.498047 0)"/>
      <use xlink:href="#DejaVuSans-75" transform="translate(399.511719 0)"/>
      <use xlink:href="#DejaVuSans-73" transform="translate(462.890625 0)"/>
      <use xlink:href="#DejaVuSans-29" transform="translate(514.990234 0)"/>
     </g>
    </g>
    <g id="text_11">
     <!-- 1e6 -->
     <g transform="translate(427.0375 327.074688) scale(0.1 -0.1)">
      <defs>
       <path id="DejaVuSans-36" d="M 2113 2584 
Q 1688 2584 1439 2293 
Q 1191 2003 1191 1497 
Q 1191 994 1439 701 
Q 1688 409 2113 409 
Q 2538 409 2786 701 
Q 3034 994 3034 1497 
Q 3034 2003 2786 2293 
Q 2538 2584 2113 2584 
z
M 3366 4563 
L 3366 3988 
Q 3128 4100 2886 4159 
Q 2644 4219 2406 4219 
Q 1781 4219 1451 3797 
Q 1122 3375 1075 2522 
Q 1259 2794 1537 2939 
Q 1816 3084 2150 3084 
Q 2853 3084 3261 2657 
Q 3669 2231 3669 1497 
Q 3669 778 3244 343 
Q 2819 -91 2113 -91 
Q 1303 -91 875 529 
Q 447 1150 447 2328 
Q 447 3434 972 4092 
Q 1497 4750 2381 4750 
Q 2619 4750 2861 4703 
Q 3103 4656 3366 4563 
z
" transform="scale(0.015625)"/>
      </defs>
      <use xlink:href="#DejaVuSans-31"/>
      <use xlink:href="#DejaVuSans-65" transform="translate(63.623047 0)"/>
      <use xlink:href="#DejaVuSans-36" transform="translate(125.146484 0)"/>
     </g>
    </g>
   </g>
   <g id="matplotlib.axis_2">
    <g id="ytick_1">
     <g id="line2d_10">
      <defs>
       <path id="m32cf9c2da4" d="M 0 0 
L -3.5 0 
" style="stroke: #000000; stroke-width: 0.8"/>
      </defs>
      <g>
       <use xlink:href="#m32cf9c2da4" x="46.965625" y="287.185398" style="stroke: #000000; stroke-width: 0.8"/>
      </g>
     </g>
     <g id="text_12">
      <!-- 0 -->
      <g transform="translate(33.603125 290.984616) scale(0.1 -0.1)">
       <use xlink:href="#DejaVuSans-30"/>
      </g>
     </g>
    </g>
    <g id="ytick_2">
     <g id="line2d_11">
      <g>
       <use xlink:href="#m32cf9c2da4" x="46.965625" y="252.771408" style="stroke: #000000; stroke-width: 0.8"/>
      </g>
     </g>
     <g id="text_13">
      <!-- 100 -->
      <g transform="translate(20.878125 256.570627) scale(0.1 -0.1)">
       <use xlink:href="#DejaVuSans-31"/>
       <use xlink:href="#DejaVuSans-30" transform="translate(63.623047 0)"/>
       <use xlink:href="#DejaVuSans-30" transform="translate(127.246094 0)"/>
      </g>
     </g>
    </g>
    <g id="ytick_3">
     <g id="line2d_12">
      <g>
       <use xlink:href="#m32cf9c2da4" x="46.965625" y="218.357418" style="stroke: #000000; stroke-width: 0.8"/>
      </g>
     </g>
     <g id="text_14">
      <!-- 200 -->
      <g transform="translate(20.878125 222.156637) scale(0.1 -0.1)">
       <use xlink:href="#DejaVuSans-32"/>
       <use xlink:href="#DejaVuSans-30" transform="translate(63.623047 0)"/>
       <use xlink:href="#DejaVuSans-30" transform="translate(127.246094 0)"/>
      </g>
     </g>
    </g>
    <g id="ytick_4">
     <g id="line2d_13">
      <g>
       <use xlink:href="#m32cf9c2da4" x="46.965625" y="183.943428" style="stroke: #000000; stroke-width: 0.8"/>
      </g>
     </g>
     <g id="text_15">
      <!-- 300 -->
      <g transform="translate(20.878125 187.742647) scale(0.1 -0.1)">
       <defs>
        <path id="DejaVuSans-33" d="M 2597 2516 
Q 3050 2419 3304 2112 
Q 3559 1806 3559 1356 
Q 3559 666 3084 287 
Q 2609 -91 1734 -91 
Q 1441 -91 1130 -33 
Q 819 25 488 141 
L 488 750 
Q 750 597 1062 519 
Q 1375 441 1716 441 
Q 2309 441 2620 675 
Q 2931 909 2931 1356 
Q 2931 1769 2642 2001 
Q 2353 2234 1838 2234 
L 1294 2234 
L 1294 2753 
L 1863 2753 
Q 2328 2753 2575 2939 
Q 2822 3125 2822 3475 
Q 2822 3834 2567 4026 
Q 2313 4219 1838 4219 
Q 1578 4219 1281 4162 
Q 984 4106 628 3988 
L 628 4550 
Q 988 4650 1302 4700 
Q 1616 4750 1894 4750 
Q 2613 4750 3031 4423 
Q 3450 4097 3450 3541 
Q 3450 3153 3228 2886 
Q 3006 2619 2597 2516 
z
" transform="scale(0.015625)"/>
       </defs>
       <use xlink:href="#DejaVuSans-33"/>
       <use xlink:href="#DejaVuSans-30" transform="translate(63.623047 0)"/>
       <use xlink:href="#DejaVuSans-30" transform="translate(127.246094 0)"/>
      </g>
     </g>
    </g>
    <g id="ytick_5">
     <g id="line2d_14">
      <g>
       <use xlink:href="#m32cf9c2da4" x="46.965625" y="149.529438" style="stroke: #000000; stroke-width: 0.8"/>
      </g>
     </g>
     <g id="text_16">
      <!-- 400 -->
      <g transform="translate(20.878125 153.328657) scale(0.1 -0.1)">
       <defs>
        <path id="DejaVuSans-34" d="M 2419 4116 
L 825 1625 
L 2419 1625 
L 2419 4116 
z
M 2253 4666 
L 3047 4666 
L 3047 1625 
L 3713 1625 
L 3713 1100 
L 3047 1100 
L 3047 0 
L 2419 0 
L 2419 1100 
L 313 1100 
L 313 1709 
L 2253 4666 
z
" transform="scale(0.015625)"/>
       </defs>
       <use xlink:href="#DejaVuSans-34"/>
       <use xlink:href="#DejaVuSans-30" transform="translate(63.623047 0)"/>
       <use xlink:href="#DejaVuSans-30" transform="translate(127.246094 0)"/>
      </g>
     </g>
    </g>
    <g id="ytick_6">
     <g id="line2d_15">
      <g>
       <use xlink:href="#m32cf9c2da4" x="46.965625" y="115.115449" style="stroke: #000000; stroke-width: 0.8"/>
      </g>
     </g>
     <g id="text_17">
      <!-- 500 -->
      <g transform="translate(20.878125 118.914667) scale(0.1 -0.1)">
       <use xlink:href="#DejaVuSans-35"/>
       <use xlink:href="#DejaVuSans-30" transform="translate(63.623047 0)"/>
       <use xlink:href="#DejaVuSans-30" transform="translate(127.246094 0)"/>
      </g>
     </g>
    </g>
    <g id="ytick_7">
     <g id="line2d_16">
      <g>
       <use xlink:href="#m32cf9c2da4" x="46.965625" y="80.701459" style="stroke: #000000; stroke-width: 0.8"/>
      </g>
     </g>
     <g id="text_18">
      <!-- 600 -->
      <g transform="translate(20.878125 84.500677) scale(0.1 -0.1)">
       <use xlink:href="#DejaVuSans-36"/>
       <use xlink:href="#DejaVuSans-30" transform="translate(63.623047 0)"/>
       <use xlink:href="#DejaVuSans-30" transform="translate(127.246094 0)"/>
      </g>
     </g>
    </g>
    <g id="ytick_8">
     <g id="line2d_17">
      <g>
       <use xlink:href="#m32cf9c2da4" x="46.965625" y="46.287469" style="stroke: #000000; stroke-width: 0.8"/>
      </g>
     </g>
     <g id="text_19">
      <!-- 700 -->
      <g transform="translate(20.878125 50.086688) scale(0.1 -0.1)">
       <use xlink:href="#DejaVuSans-37"/>
       <use xlink:href="#DejaVuSans-30" transform="translate(63.623047 0)"/>
       <use xlink:href="#DejaVuSans-30" transform="translate(127.246094 0)"/>
      </g>
     </g>
    </g>
    <g id="text_20">
     <!-- right wheel velocity, rv (mm/s) -->
     <g transform="translate(14.798438 238.039375) rotate(-90) scale(0.1 -0.1)">
      <defs>
       <path id="DejaVuSans-72" d="M 2631 2963 
Q 2534 3019 2420 3045 
Q 2306 3072 2169 3072 
Q 1681 3072 1420 2755 
Q 1159 2438 1159 1844 
L 1159 0 
L 581 0 
L 581 3500 
L 1159 3500 
L 1159 2956 
Q 1341 3275 1631 3429 
Q 1922 3584 2338 3584 
Q 2397 3584 2469 3576 
Q 2541 3569 2628 3553 
L 2631 2963 
z
" transform="scale(0.015625)"/>
       <path id="DejaVuSans-67" d="M 2906 1791 
Q 2906 2416 2648 2759 
Q 2391 3103 1925 3103 
Q 1463 3103 1205 2759 
Q 947 2416 947 1791 
Q 947 1169 1205 825 
Q 1463 481 1925 481 
Q 2391 481 2648 825 
Q 2906 1169 2906 1791 
z
M 3481 434 
Q 3481 -459 3084 -895 
Q 2688 -1331 1869 -1331 
Q 1566 -1331 1297 -1286 
Q 1028 -1241 775 -1147 
L 775 -588 
Q 1028 -725 1275 -790 
Q 1522 -856 1778 -856 
Q 2344 -856 2625 -561 
Q 2906 -266 2906 331 
L 2906 616 
Q 2728 306 2450 153 
Q 2172 0 1784 0 
Q 1141 0 747 490 
Q 353 981 353 1791 
Q 353 2603 747 3093 
Q 1141 3584 1784 3584 
Q 2172 3584 2450 3431 
Q 2728 3278 2906 2969 
L 2906 3500 
L 3481 3500 
L 3481 434 
z
" transform="scale(0.015625)"/>
       <path id="DejaVuSans-68" d="M 3513 2113 
L 3513 0 
L 2938 0 
L 2938 2094 
Q 2938 2591 2744 2837 
Q 2550 3084 2163 3084 
Q 1697 3084 1428 2787 
Q 1159 2491 1159 1978 
L 1159 0 
L 581 0 
L 581 4863 
L 1159 4863 
L 1159 2956 
Q 1366 3272 1645 3428 
Q 1925 3584 2291 3584 
Q 2894 3584 3203 3211 
Q 3513 2838 3513 2113 
z
" transform="scale(0.015625)"/>
       <path id="DejaVuSans-77" d="M 269 3500 
L 844 3500 
L 1563 769 
L 2278 3500 
L 2956 3500 
L 3675 769 
L 4391 3500 
L 4966 3500 
L 4050 0 
L 3372 0 
L 2619 2869 
L 1863 0 
L 1184 0 
L 269 3500 
z
" transform="scale(0.015625)"/>
       <path id="DejaVuSans-6c" d="M 603 4863 
L 1178 4863 
L 1178 0 
L 603 0 
L 603 4863 
z
" transform="scale(0.015625)"/>
       <path id="DejaVuSans-76" d="M 191 3500 
L 800 3500 
L 1894 563 
L 2988 3500 
L 3597 3500 
L 2284 0 
L 1503 0 
L 191 3500 
z
" transform="scale(0.015625)"/>
       <path id="DejaVuSans-6f" d="M 1959 3097 
Q 1497 3097 1228 2736 
Q 959 2375 959 1747 
Q 959 1119 1226 758 
Q 1494 397 1959 397 
Q 2419 397 2687 759 
Q 2956 1122 2956 1747 
Q 2956 2369 2687 2733 
Q 2419 3097 1959 3097 
z
M 1959 3584 
Q 2709 3584 3137 3096 
Q 3566 2609 3566 1747 
Q 3566 888 3137 398 
Q 2709 -91 1959 -91 
Q 1206 -91 779 398 
Q 353 888 353 1747 
Q 353 2609 779 3096 
Q 1206 3584 1959 3584 
z
" transform="scale(0.015625)"/>
       <path id="DejaVuSans-63" d="M 3122 3366 
L 3122 2828 
Q 2878 2963 2633 3030 
Q 2388 3097 2138 3097 
Q 1578 3097 1268 2742 
Q 959 2388 959 1747 
Q 959 1106 1268 751 
Q 1578 397 2138 397 
Q 2388 397 2633 464 
Q 2878 531 3122 666 
L 3122 134 
Q 2881 22 2623 -34 
Q 2366 -91 2075 -91 
Q 1284 -91 818 406 
Q 353 903 353 1747 
Q 353 2603 823 3093 
Q 1294 3584 2113 3584 
Q 2378 3584 2631 3529 
Q 2884 3475 3122 3366 
z
" transform="scale(0.015625)"/>
       <path id="DejaVuSans-79" d="M 2059 -325 
Q 1816 -950 1584 -1140 
Q 1353 -1331 966 -1331 
L 506 -1331 
L 506 -850 
L 844 -850 
Q 1081 -850 1212 -737 
Q 1344 -625 1503 -206 
L 1606 56 
L 191 3500 
L 800 3500 
L 1894 763 
L 2988 3500 
L 3597 3500 
L 2059 -325 
z
" transform="scale(0.015625)"/>
       <path id="DejaVuSans-2f" d="M 1625 4666 
L 2156 4666 
L 531 -594 
L 0 -594 
L 1625 4666 
z
" transform="scale(0.015625)"/>
      </defs>
      <use xlink:href="#DejaVuSans-72"/>
      <use xlink:href="#DejaVuSans-69" transform="translate(41.113281 0)"/>
      <use xlink:href="#DejaVuSans-67" transform="translate(68.896484 0)"/>
      <use xlink:href="#DejaVuSans-68" transform="translate(132.373047 0)"/>
      <use xlink:href="#DejaVuSans-74" transform="translate(195.751953 0)"/>
      <use xlink:href="#DejaVuSans-20" transform="translate(234.960938 0)"/>
      <use xlink:href="#DejaVuSans-77" transform="translate(266.748047 0)"/>
      <use xlink:href="#DejaVuSans-68" transform="translate(348.535156 0)"/>
      <use xlink:href="#DejaVuSans-65" transform="translate(411.914062 0)"/>
      <use xlink:href="#DejaVuSans-65" transform="translate(473.4375 0)"/>
      <use xlink:href="#DejaVuSans-6c" transform="translate(534.960938 0)"/>
      <use xlink:href="#DejaVuSans-20" transform="translate(562.744141 0)"/>
      <use xlink:href="#DejaVuSans-76" transform="translate(594.53125 0)"/>
      <use xlink:href="#DejaVuSans-65" transform="translate(653.710938 0)"/>
      <use xlink:href="#DejaVuSans-6c" transform="translate(715.234375 0)"/>
      <use xlink:href="#DejaVuSans-6f" transform="translate(743.017578 0)"/>
      <use xlink:href="#DejaVuSans-63" transform="translate(804.199219 0)"/>
      <use xlink:href="#DejaVuSans-69" transform="translate(859.179688 0)"/>
      <use xlink:href="#DejaVuSans-74" transform="translate(886.962891 0)"/>
      <use xlink:href="#DejaVuSans-79" transform="translate(926.171875 0)"/>
      <use xlink:href="#DejaVuSans-2c" transform="translate(985.351562 0)"/>
      <use xlink:href="#DejaVuSans-20" transform="translate(1017.138672 0)"/>
      <use xlink:href="#DejaVuSans-72" transform="translate(1048.925781 0)"/>
      <use xlink:href="#DejaVuSans-76" transform="translate(1090.039062 0)"/>
      <use xlink:href="#DejaVuSans-20" transform="translate(1149.21875 0)"/>
      <use xlink:href="#DejaVuSans-28" transform="translate(1181.005859 0)"/>
      <use xlink:href="#DejaVuSans-6d" transform="translate(1220.019531 0)"/>
      <use xlink:href="#DejaVuSans-6d" transform="translate(1317.431641 0)"/>
      <use xlink:href="#DejaVuSans-2f" transform="translate(1414.84375 0)"/>
      <use xlink:href="#DejaVuSans-73" transform="translate(1448.535156 0)"/>
      <use xlink:href="#DejaVuSans-29" transform="translate(1500.634766 0)"/>
     </g>
    </g>
   </g>
   <g id="line2d_18">
    <path d="M 65.099897 287.185398 
L 68.842468 225.928496 
L 72.794824 130.257604 
L 75.711318 80.701459 
L 79.566403 44.566769 
L 83.468491 34.930852 
L 87.325391 49.384728 
L 90.342059 59.364785 
L 94.213841 55.235106 
L 98.086892 57.988225 
L 102.03816 52.826127 
L 104.969716 52.481987 
L 108.926609 53.170267 
L 112.783872 51.793707 
L 115.715973 52.481987 
L 119.649093 51.793707 
L 123.522326 45.599189 
L 126.523569 48.352308 
L 130.394261 48.008168 
L 134.251887 49.384728 
L 138.202791 52.826127 
L 141.135074 52.826127 
L 145.091967 50.761288 
L 148.9652 52.826127 
L 152.838614 52.826127 
L 155.848205 55.579246 
L 159.720531 52.826127 
L 163.679057 50.761288 
L 166.611884 52.826127 
L 170.483302 52.826127 
L 174.434388 52.826127 
L 177.366851 55.923386 
L 181.323926 53.170267 
L 185.198066 55.579246 
L 189.071118 52.826127 
L 192.081435 55.579246 
L 195.953942 55.579246 
L 199.91265 53.170267 
L 202.845658 52.826127 
L 206.717983 55.235106 
L 210.668343 57.644086 
L 214.542121 55.579246 
L 217.559152 49.728868 
L 221.43184 55.235106 
L 225.304892 55.235106 
L 228.315027 52.481987 
L 232.186627 52.826127 
L 236.145335 53.170267 
L 239.077617 55.923386 
L 242.94958 55.235106 
L 246.900847 52.826127 
L 250.803479 52.137847 
L 253.850998 52.137847 
L 257.751815 54.546826 
L 261.653722 54.546826 
L 264.692893 54.546826 
L 268.593347 52.137847 
L 272.580547 54.890966 
L 275.541865 54.890966 
L 279.442319 52.137847 
L 283.422441 52.137847 
L 286.384123 51.793707 
L 290.354263 51.449567 
L 294.256895 52.137847 
L 297.186818 52.481987 
L 301.165126 54.546826 
L 305.067758 54.546826 
L 308.113462 52.137847 
L 312.014824 52.137847 
L 315.904208 51.449567 
L 318.943198 54.546826 
L 322.830949 51.449567 
L 329.780737 54.890966 
L 333.665766 53.858547 
L 337.658773 50.417148 
L 341.532369 52.826127 
L 344.578073 55.235106 
L 348.479253 54.546826 
L 352.381522 54.546826 
L 355.404905 53.514407 
L 359.305541 54.546826 
L 363.293104 52.481987 
L 366.254422 51.793707 
L 370.155239 52.137847 
L 374.135361 54.546826 
L 377.096861 54.890966 
L 381.082609 52.481987 
L 384.984878 54.546826 
L 387.933674 53.858547 
L 391.912344 54.546826 
L 395.814795 52.137847 
L 398.861044 49.040588 
L 402.761135 54.546826 
L 406.664312 54.890966 
L 409.687513 53.514407 
L 413.587967 52.137847 
L 417.575893 54.890966 
L 420.537393 54.890966 
L 424.424962 53.858547 
" clip-path="url(#pd95245c6cf)" style="fill: none; stroke: #1f77b4; stroke-width: 1.5; stroke-linecap: square"/>
   </g>
   <g id="line2d_19">
    <path d="M 65.099716 287.185398 
L 68.884752 224.207796 
L 72.884836 124.751366 
L 75.807137 77.94834 
L 79.673474 79.669039 
L 83.63436 94.467055 
L 86.57136 92.058075 
L 90.554204 85.863557 
L 94.469721 87.240117 
L 97.423055 89.993236 
L 101.414428 86.207697 
L 105.314156 81.389739 
L 108.336269 75.53936 
L 112.248338 74.85108 
L 116.162947 77.26006 
L 119.176712 77.94834 
L 123.058474 75.53936 
L 127.057107 79.324899 
L 130.97099 82.078018 
L 133.923598 80.357319 
L 137.898094 83.110438 
L 141.811615 82.078018 
L 144.849152 82.766298 
L 148.74507 78.980759 
L 152.642439 83.798718 
L 155.673081 85.519417 
L 159.584787 84.486998 
L 163.582875 81.733878 
L 166.519875 78.980759 
L 170.431218 84.486998 
L 174.421866 86.207697 
L 177.374836 80.357319 
L 181.371473 81.733878 
L 185.28463 82.078018 
L 188.237419 80.013179 
L 192.225889 83.798718 
L 196.137958 86.895977 
L 199.159345 84.831138 
L 203.070687 82.078018 
L 206.967149 81.389739 
L 209.996702 82.422158 
L 213.907682 82.078018 
L 217.904863 81.733878 
L 220.856926 83.454578 
L 224.767361 82.078018 
L 228.740587 82.766298 
L 231.692287 83.454578 
L 235.686928 84.142858 
L 239.597907 84.486998 
L 243.477311 82.766298 
L 246.505956 82.078018 
L 250.44452 78.636619 
L 253.509461 81.389739 
L 257.448388 83.454578 
L 261.388404 83.454578 
L 264.446086 84.142858 
L 268.38338 83.454578 
L 272.407963 80.701459 
L 275.356578 80.013179 
L 279.292965 83.454578 
L 283.309201 87.584257 
L 286.288666 82.078018 
L 290.309983 80.701459 
L 294.248366 83.454578 
L 297.212951 84.142858 
L 301.226646 82.766298 
L 305.165029 83.454578 
L 308.228699 81.389739 
L 312.164541 83.454578 
L 315.143281 85.175277 
L 319.157158 80.357319 
L 323.094996 83.454578 
L 326.158485 81.389739 
L 330.094327 83.454578 
L 334.031439 83.454578 
L 337.087488 81.045599 
L 341.009538 85.175277 
L 345.032306 83.110438 
L 348.010683 82.078018 
L 351.946888 81.045599 
L 355.960583 84.831138 
L 358.938779 82.078018 
L 362.959007 83.110438 
L 365.937384 85.175277 
L 369.872682 83.454578 
L 373.874399 82.078018 
L 376.839166 84.142858 
L 380.858668 82.766298 
L 384.794873 83.454578 
L 387.757461 81.045599 
L 391.768434 82.422158 
L 395.703913 83.454578 
L 398.753247 83.454578 
L 402.686549 80.701459 
L 406.605876 84.831138 
L 409.661381 84.142858 
L 413.594319 83.454578 
L 417.614729 82.766298 
L 420.592198 85.175277 
L 424.5255 83.454578 
" clip-path="url(#pd95245c6cf)" style="fill: none; stroke: #ff7f0e; stroke-width: 1.5; stroke-linecap: square"/>
   </g>
   <g id="line2d_20">
    <path d="M 65.099716 287.185398 
L 67.931279 236.596833 
L 71.857866 146.088039 
L 75.862669 98.940873 
L 78.78987 94.811195 
L 82.767995 119.245127 
L 86.662461 127.848625 
L 89.621239 119.245127 
L 93.623319 110.64163 
L 97.549543 107.200231 
L 100.593251 108.232651 
L 104.501327 106.511951 
L 108.4114 106.511951 
L 111.432061 106.856091 
L 115.33923 108.92093 
L 119.349658 108.576791 
L 122.307891 109.60921 
L 126.231211 109.60921 
L 130.234018 108.232651 
L 133.192251 109.60921 
L 137.200683 108.576791 
L 141.126181 109.60921 
L 144.084052 112.706469 
L 148.083954 110.64163 
L 152.008182 112.018189 
L 155.050801 111.32991 
L 158.973396 116.836148 
L 162.897623 114.427169 
L 165.932439 107.888511 
L 169.855396 112.018189 
L 173.848948 110.29749 
L 176.774515 110.98577 
L 180.696384 109.60921 
L 184.697738 110.64163 
L 187.655246 112.706469 
L 191.646982 112.706469 
L 195.570484 112.018189 
L 198.527628 112.706469 
L 202.510654 112.362329 
L 206.433792 114.427169 
L 209.476049 111.32991 
L 213.397736 114.427169 
L 217.319967 112.018189 
L 220.354964 110.98577 
L 224.276107 112.018189 
L 228.284176 110.98577 
L 231.225714 112.018189 
L 235.146675 114.427169 
L 239.131152 112.362329 
L 242.088115 112.706469 
L 246.093644 110.98577 
L 250.016057 112.018189 
L 252.986267 113.738889 
L 256.998147 108.576791 
L 260.93653 112.706469 
L 263.99149 112.018189 
L 267.92715 109.95335 
L 271.864807 112.706469 
L 274.92757 109.60921 
L 278.87539 113.050609 
L 281.931801 115.459588 
L 285.881072 110.64163 
L 289.830706 110.64163 
L 292.893107 112.706469 
L 296.841289 110.64163 
L 300.875854 109.60921 
L 303.860582 111.32991 
L 307.80822 113.050609 
L 310.855376 114.771309 
L 314.802288 113.050609 
L 318.835946 112.018189 
L 321.819949 111.32991 
L 325.766861 110.64163 
L 329.791989 114.083029 
L 332.762925 113.738889 
L 336.794223 109.60921 
L 340.742224 110.64163 
L 343.725682 110.98577 
L 347.749359 111.67405 
L 351.681027 112.362329 
L 354.736712 112.362329 
L 358.681628 110.64163 
L 362.613659 109.95335 
L 365.67497 112.362329 
L 369.620249 113.050609 
L 372.67285 112.018189 
L 376.619036 113.050609 
L 380.565585 110.64163 
L 383.62617 112.362329 
L 387.571267 113.050609 
L 391.602566 114.427169 
L 394.585661 114.427169 
L 398.515151 109.95335 
L 402.538465 109.26507 
L 405.521378 110.98577 
L 409.551043 114.083029 
L 412.533413 110.98577 
L 416.477421 110.64163 
L 420.500916 109.26507 
L 423.470219 110.29749 
L 427.486455 116.147868 
" clip-path="url(#pd95245c6cf)" style="fill: none; stroke: #2ca02c; stroke-width: 1.5; stroke-linecap: square"/>
   </g>
   <g id="line2d_21">
    <path d="M 65.099716 287.185398 
L 67.939083 240.038232 
L 71.877465 141.614221 
L 75.87755 119.933407 
L 78.810195 153.659117 
L 82.784328 171.898532 
L 86.67462 154.691537 
L 89.623416 138.172822 
L 93.637293 144.36734 
L 97.574587 141.614221 
L 100.623921 136.796262 
L 104.544156 136.107982 
L 108.481268 139.205241 
L 111.521891 142.64664 
L 115.457007 141.614221 
L 119.478687 139.893521 
L 122.443272 142.302501 
L 126.377662 141.614221 
L 130.390994 139.549381 
L 133.355398 138.861102 
L 137.3749 139.893521 
L 141.310923 141.614221 
L 144.258087 144.71148 
L 148.269604 141.958361 
L 152.205446 139.205241 
L 155.252965 139.893521 
L 159.186992 144.0232 
L 163.122471 141.614221 
L 166.147488 141.958361 
L 170.08097 141.614221 
L 173.128853 142.99078 
L 177.06288 139.205241 
L 180.997996 139.205241 
L 184.023557 141.958361 
L 187.956314 141.614221 
L 191.975271 139.893521 
L 194.938041 138.861102 
L 198.870435 141.614221 
L 202.866527 141.614221 
L 205.828934 142.302501 
L 209.84644 139.893521 
L 213.780649 141.614221 
L 216.710935 143.67906 
L 220.721001 141.958361 
L 224.655028 139.205241 
L 227.703092 142.99078 
L 231.635123 139.205241 
L 235.552999 140.925941 
L 238.593622 139.549381 
L 242.509501 143.33492 
L 246.528096 142.302501 
L 249.519721 140.237661 
L 253.467722 139.893521 
L 257.507368 142.99078 
L 260.49863 143.67906 
L 264.544083 140.925941 
L 267.535345 140.237661 
L 271.495867 142.64664 
L 275.534787 140.581801 
L 278.526412 140.237661 
L 282.571502 140.925941 
L 286.532751 140.237661 
L 293.560392 138.172822 
L 296.537862 139.549381 
L 300.583134 140.925941 
L 304.544019 142.64664 
L 307.534192 143.67906 
L 311.570572 142.99078 
L 315.531276 137.828682 
L 318.606561 141.270081 
L 322.56545 140.237661 
L 325.555623 143.33492 
L 329.576033 139.893521 
L 333.536374 140.237661 
L 336.611659 141.270081 
L 340.569459 142.64664 
L 344.513831 141.958361 
L 347.581131 144.0232 
L 351.538387 140.237661 
L 354.600061 140.581801 
L 358.558043 145.05562 
L 362.516933 142.64664 
L 365.582599 137.828682 
L 369.539492 139.893521 
L 373.583312 143.33492 
L 376.572578 137.140402 
L 380.528745 142.302501 
L 384.563673 140.581801 
L 387.552757 143.33492 
L 391.594036 138.516962 
L 394.582757 140.237661 
L 398.523681 144.36734 
L 402.558608 138.172822 
L 405.532448 142.64664 
L 409.572457 140.581801 
L 413.529169 142.302501 
L 416.503917 139.549381 
L 420.537211 140.581801 
L 424.493378 139.893521 
L 427.566667 141.270081 
" clip-path="url(#pd95245c6cf)" style="fill: none; stroke: #d62728; stroke-width: 1.5; stroke-linecap: square"/>
   </g>
   <g id="line2d_22">
    <path d="M 65.099716 287.185398 
L 68.925402 222.142957 
L 72.875218 147.120459 
L 75.924007 155.723957 
L 79.87219 202.526983 
L 82.927694 202.871123 
L 86.843574 170.177832 
L 90.792482 163.983314 
L 93.840364 180.846169 
L 97.772576 173.275091 
L 101.80696 164.327454 
L 104.776626 165.015734 
L 108.723356 173.619231 
L 112.74921 173.275091 
L 115.703088 167.768853 
L 119.734749 168.801273 
L 123.683476 173.619231 
L 126.653142 171.554392 
L 130.677363 170.866112 
L 134.625545 168.801273 
L 137.680142 174.651651 
L 141.61054 172.930951 
L 144.580206 165.015734 
L 148.6037 173.275091 
L 152.550794 171.210252 
L 155.604846 171.554392 
L 159.550488 168.801273 
L 163.481975 168.112993 
L 166.528949 171.210252 
L 170.473684 171.210252 
L 174.506071 168.801273 
L 177.475374 171.554392 
L 181.420653 168.801273 
L 185.44451 173.275091 
L 188.413269 168.112993 
L 192.442934 171.210252 
L 195.380479 173.619231 
L 199.325032 168.801273 
L 203.348163 173.275091 
L 206.316196 171.554392 
L 210.346043 168.801273 
L 214.291503 171.210252 
L 217.259717 171.554392 
L 221.281397 168.457133 
L 225.22722 168.801273 
L 228.280184 171.554392 
L 232.223829 171.210252 
L 236.15332 170.521972 
L 239.199024 168.112993 
L 243.142125 168.457133 
L 246.19527 171.554392 
L 250.139278 171.210252 
L 254.112686 169.489553 
L 257.187426 169.145413 
L 261.159382 171.898532 
L 265.217539 169.489553 
L 268.214608 169.489553 
L 272.185474 171.898532 
L 275.259489 172.242672 
L 279.231263 169.489553 
L 283.289238 169.489553 
L 286.286307 172.586812 
L 290.257174 167.080573 
L 294.294098 171.210252 
L 297.290804 172.586812 
L 301.333172 169.145413 
L 304.33006 169.489553 
L 308.301289 171.898532 
L 312.350735 169.489553 
L 315.347441 169.489553 
L 319.402694 171.898532 
L 323.374287 174.307511 
L 326.370085 169.145413 
L 330.417535 169.145413 
L 333.398271 171.898532 
L 337.439006 169.145413 
L 341.394629 168.801273 
L 344.390972 172.586812 
L 348.43824 169.145413 
L 352.408925 167.080573 
L 355.488928 172.586812 
L 359.458525 169.489553 
L 362.454324 169.145413 
L 366.501047 171.554392 
L 370.471007 169.489553 
L 373.536492 171.898532 
L 377.504999 169.489553 
L 380.484647 171.898532 
L 384.5154 171.210252 
L 388.484634 171.898532 
L 391.549575 168.801273 
L 395.517357 169.489553 
L 399.487134 171.898532 
L 402.559153 169.145413 
L 406.526572 169.489553 
L 409.606212 169.489553 
L 413.574175 171.898532 
L 417.542683 171.898532 
L 420.614701 169.145413 
L 424.581394 171.898532 
L 427.661034 169.489553 
" clip-path="url(#pd95245c6cf)" style="fill: none; stroke: #9467bd; stroke-width: 1.5; stroke-linecap: square"/>
   </g>
   <g id="line2d_23">
    <path d="M 65.102075 287.185398 
L 67.955234 243.479631 
L 72.001232 181.190309 
L 75.963025 200.462143 
L 78.938679 229.714035 
L 82.976329 211.47462 
L 85.951803 194.267625 
L 90.027925 207.689081 
L 93.988448 205.280102 
L 96.96374 194.267625 
L 101.000482 197.364884 
L 104.960824 202.871123 
L 108.021046 202.871123 
L 111.979209 195.644185 
L 115.939188 198.053164 
L 118.990881 202.871123 
L 122.948318 202.871123 
L 125.992208 199.429724 
L 129.918069 197.364884 
L 133.861533 202.526983 
L 136.913952 202.871123 
L 140.871208 193.235205 
L 144.915391 199.773864 
L 147.889776 200.462143 
L 151.846669 202.871123 
L 155.882322 199.773864 
L 158.840918 197.020744 
L 162.883105 202.182843 
L 165.85749 200.462143 
L 169.814564 198.053164 
L 173.849855 194.955905 
L 176.80827 203.215263 
L 180.850093 199.773864 
L 184.807168 195.644185 
L 187.781916 203.903542 
L 191.81521 199.773864 
L 195.772285 198.053164 
L 198.830874 199.773864 
L 202.786497 200.462143 
L 205.759792 200.462143 
L 209.776572 199.429724 
L 213.717859 200.118003 
L 216.776266 196.676604 
L 220.714649 202.526983 
L 224.670998 200.462143 
L 227.722509 199.773864 
L 231.676862 200.462143 
L 235.717778 202.182843 
L 238.676012 197.020744 
L 242.614394 200.118003 
L 245.664998 202.871123 
L 249.619714 198.053164 
L 253.689485 198.053164 
L 256.691998 198.053164 
L 260.675387 201.150423 
L 264.73681 200.118003 
L 267.73896 194.955905 
L 271.807098 200.462143 
L 274.796182 204.247682 
L 278.779389 196.332465 
L 282.841175 198.053164 
L 285.843688 198.053164 
L 289.911645 202.871123 
L 292.912887 198.053164 
L 296.895187 200.806283 
L 300.955884 200.118003 
L 303.957309 201.494563 
L 308.009114 200.118003 
L 311.011082 198.053164 
L 314.977049 200.462143 
L 319.037747 198.053164 
L 322.039352 201.494563 
L 326.104768 202.871123 
L 330.071642 195.644185 
L 333.073067 194.955905 
L 337.131405 202.526983 
L 340.133011 204.591822 
L 344.199515 193.235205 
L 348.166571 198.053164 
L 351.167451 207.689081 
L 355.225426 197.709024 
L 358.226306 194.955905 
L 362.276296 202.526983 
L 366.242807 200.462143 
L 369.214833 197.364884 
L 373.2719 200.118003 
L 377.253111 200.806283 
L 380.33874 200.806283 
L 384.318137 200.806283 
L 387.303047 197.709024 
L 391.360296 200.118003 
L 395.340418 198.397304 
L 398.425865 200.462143 
L 402.404899 200.806283 
L 405.40469 198.053164 
L 409.445969 197.364884 
L 413.42591 200.806283 
L 416.511176 197.364884 
L 420.48912 200.806283 
L 424.469242 200.806283 
L 427.547431 200.462143 
" clip-path="url(#pd95245c6cf)" style="fill: none; stroke: #8c564b; stroke-width: 1.5; stroke-linecap: square"/>
   </g>
   <g id="line2d_24">
    <path d="M 65.102075 287.185398 
L 68.987104 245.54447 
L 71.968747 213.539459 
L 76.018012 242.447211 
L 78.999292 258.621786 
L 83.019702 220.766397 
L 86.991839 217.669138 
L 90.005785 243.135491 
L 94.086082 238.317532 
L 98.074007 215.604299 
L 101.173429 222.487097 
L 105.175872 242.103071 
L 108.156608 235.908553 
L 112.156693 220.422257 
L 116.127559 227.305055 
L 119.193045 240.726511 
L 123.16246 229.714035 
L 127.133689 220.078118 
L 130.192097 234.187853 
L 134.160786 232.123014 
L 137.22609 227.993335 
L 141.195142 224.896076 
L 145.165283 232.123014 
L 148.222783 234.187853 
L 152.191291 224.896076 
L 155.255687 224.896076 
L 159.22365 234.531993 
L 163.17764 231.778874 
L 166.23514 224.896076 
L 170.202559 227.305055 
L 174.257086 233.155434 
L 177.236733 229.714035 
L 181.188727 226.960916 
L 185.23545 225.928496 
L 188.200217 229.369895 
L 192.252748 233.155434 
L 195.232576 229.714035 
L 199.199632 227.305055 
L 203.246174 228.337475 
L 206.210578 232.467154 
L 210.262927 225.928496 
L 214.231979 227.305055 
L 217.211989 226.272636 
L 221.255809 233.155434 
L 224.235094 229.714035 
L 228.286898 228.337475 
L 232.239073 229.369895 
L 235.219265 226.272636 
L 239.262722 230.746454 
L 243.229596 226.960916 
L 246.293993 227.993335 
L 250.259597 229.369895 
L 253.268099 230.058175 
L 257.34041 226.272636 
L 261.321077 227.305055 
L 264.41342 231.778874 
L 268.407335 230.058175 
L 271.415474 230.058175 
L 275.487422 228.681615 
L 279.469359 227.305055 
L 282.562066 225.584356 
L 286.555617 232.467154 
L 289.563393 233.155434 
L 293.61919 223.863656 
L 297.614012 227.649195 
L 300.706356 231.778874 
L 304.698455 230.058175 
L 307.706594 226.960916 
L 311.777454 228.681615 
L 315.772275 230.058175 
L 318.865526 231.778874 
L 322.85817 227.649195 
L 325.86522 230.058175 
L 329.93608 228.681615 
L 333.929813 227.649195 
L 337.021612 228.681615 
L 341.012986 230.058175 
L 344.006425 229.714035 
L 348.060952 225.928496 
L 352.054685 230.058175 
L 366.186006 230.746454 
L 370.178286 227.649195 
L 384.336284 226.272636 
L 388.328928 230.058175 
L 406.476666 230.058175 
L 409.567558 222.487097 
L 413.558024 232.123014 
L 416.563804 233.155434 
L 409.567558 222.487097 
L 413.558024 232.123014 
L 416.563804 233.155434 
L 420.631397 226.272636 
L 424.607526 224.896076 
L 420.631397 226.272636 
L 424.607526 224.896076 
L 427.698781 231.778874 
" clip-path="url(#pd95245c6cf)" style="fill: none; stroke: #e377c2; stroke-width: 1.5; stroke-linecap: square"/>
   </g>
   <g id="line2d_25">
    <path d="M 65.10262 287.185398 
L 68.04325 271.010823 
L 72.150223 250.018289 
L 76.153574 270.666683 
L 79.123059 274.452221 
L 83.146553 249.330009 
L 86.149248 245.88861 
L 90.232993 268.601843 
L 94.212207 263.439745 
L 97.196029 252.083128 
L 101.269974 256.901087 
L 105.249733 268.257703 
L 108.318484 259.310066 
L 112.29534 253.803828 
L 115.277891 261.719045 
L 119.332962 258.965926 
L 123.311996 253.803828 
L 126.380566 259.310066 
L 130.375024 258.621786 
L 133.357938 255.180387 
L 137.412284 258.965926 
L 141.391136 261.030765 
L 144.458799 256.212807 
L 148.419321 255.868667 
L 152.349538 263.095605 
L 155.378183 262.063185 
L 159.321829 255.868667 
L 162.341401 255.868667 
L 166.285046 258.277646 
L 170.230325 258.277646 
L 173.242456 255.524527 
L 177.185194 258.277646 
L 181.214859 261.374905 
L 184.164563 258.277646 
L 188.09115 253.459688 
L 192.113011 258.965926 
L 195.062715 264.816304 
L 199.090565 254.147967 
L 203.0353 255.868667 
L 205.953971 264.472164 
L 209.973836 256.556947 
L 213.918389 253.459688 
L 216.952842 262.063185 
L 220.878884 260.686626 
L 224.822348 253.459688 
L 227.849179 258.965926 
L 231.790103 260.686626 
L 235.818679 258.965926 
L 238.767475 254.836247 
L 242.708399 260.686626 
L 246.728264 258.965926 
L 249.706822 255.180387 
L 253.76262 258.965926 
L 256.740634 261.719045 
L 260.7115 253.803828 
L 264.760946 258.965926 
L 267.739686 264.816304 
L 271.778606 254.147967 
L 275.733866 255.868667 
L 278.712243 261.719045 
L 282.75933 256.556947 
L 285.737525 255.180387 
L 289.792778 258.965926 
L 293.763826 261.030765 
L 296.741477 255.180387 
L 300.78802 258.965926 
L 304.75816 258.621786 
L 307.820924 259.310066 
L 311.775276 255.868667 
L 315.74578 261.030765 
L 318.801465 256.212807 
L 322.769429 258.621786 
L 325.831466 259.310066 
L 329.799611 258.621786 
L 333.769207 256.212807 
L 336.794586 258.965926 
L 340.762549 258.621786 
L 343.824405 256.212807 
L 347.792368 261.030765 
L 351.74545 258.277646 
L 354.80041 256.212807 
L 358.753674 258.277646 
L 362.807293 258.965926 
L 365.784763 258.621786 
L 369.751637 256.212807 
L 373.797454 258.965926 
L 376.774016 258.621786 
L 380.826002 256.556947 
L 383.786595 258.277646 
L 387.72407 258.277646 
L 391.769523 258.965926 
L 394.745541 258.621786 
L 398.796801 256.556947 
L 402.764583 258.621786 
L 405.741145 258.621786 
L 409.784058 258.965926 
L 413.73587 255.868667 
L 416.796637 259.310066 
L 420.762422 258.277646 
L 423.73844 255.180387 
L 427.781534 261.374905 
" clip-path="url(#pd95245c6cf)" style="fill: none; stroke: #7f7f7f; stroke-width: 1.5; stroke-linecap: square"/>
   </g>
   <g id="patch_3">
    <path d="M 46.965625 299.798125 
L 46.965625 22.318125 
" style="fill: none; stroke: #000000; stroke-width: 0.8; stroke-linejoin: miter; stroke-linecap: square"/>
   </g>
   <g id="patch_4">
    <path d="M 445.915625 299.798125 
L 445.915625 22.318125 
" style="fill: none; stroke: #000000; stroke-width: 0.8; stroke-linejoin: miter; stroke-linecap: square"/>
   </g>
   <g id="patch_5">
    <path d="M 46.965625 299.798125 
L 445.915625 299.798125 
" style="fill: none; stroke: #000000; stroke-width: 0.8; stroke-linejoin: miter; stroke-linecap: square"/>
   </g>
   <g id="patch_6">
    <path d="M 46.965625 22.318125 
L 445.915625 22.318125 
" style="fill: none; stroke: #000000; stroke-width: 0.8; stroke-linejoin: miter; stroke-linecap: square"/>
   </g>
   <g id="text_21">
    <!-- right velocity vs. time -->
    <g transform="translate(181.033125 16.318125) scale(0.12 -0.12)">
     <use xlink:href="#DejaVuSans-72"/>
     <use xlink:href="#DejaVuSans-69" transform="translate(41.113281 0)"/>
     <use xlink:href="#DejaVuSans-67" transform="translate(68.896484 0)"/>
     <use xlink:href="#DejaVuSans-68" transform="translate(132.373047 0)"/>
     <use xlink:href="#DejaVuSans-74" transform="translate(195.751953 0)"/>
     <use xlink:href="#DejaVuSans-20" transform="translate(234.960938 0)"/>
     <use xlink:href="#DejaVuSans-76" transform="translate(266.748047 0)"/>
     <use xlink:href="#DejaVuSans-65" transform="translate(325.927734 0)"/>
     <use xlink:href="#DejaVuSans-6c" transform="translate(387.451172 0)"/>
     <use xlink:href="#DejaVuSans-6f" transform="translate(415.234375 0)"/>
     <use xlink:href="#DejaVuSans-63" transform="translate(476.416016 0)"/>
     <use xlink:href="#DejaVuSans-69" transform="translate(531.396484 0)"/>
     <use xlink:href="#DejaVuSans-74" transform="translate(559.179688 0)"/>
     <use xlink:href="#DejaVuSans-79" transform="translate(598.388672 0)"/>
     <use xlink:href="#DejaVuSans-20" transform="translate(657.568359 0)"/>
     <use xlink:href="#DejaVuSans-76" transform="translate(689.355469 0)"/>
     <use xlink:href="#DejaVuSans-73" transform="translate(748.535156 0)"/>
     <use xlink:href="#DejaVuSans-2e" transform="translate(800.634766 0)"/>
     <use xlink:href="#DejaVuSans-20" transform="translate(832.421875 0)"/>
     <use xlink:href="#DejaVuSans-74" transform="translate(864.208984 0)"/>
     <use xlink:href="#DejaVuSans-69" transform="translate(903.417969 0)"/>
     <use xlink:href="#DejaVuSans-6d" transform="translate(931.201172 0)"/>
     <use xlink:href="#DejaVuSans-65" transform="translate(1028.613281 0)"/>
    </g>
   </g>
   <g id="legend_1">
    <g id="patch_7">
     <path d="M 322.390625 294.798125 
L 438.915625 294.798125 
Q 440.915625 294.798125 440.915625 292.798125 
L 440.915625 176.373125 
Q 440.915625 174.373125 438.915625 174.373125 
L 322.390625 174.373125 
Q 320.390625 174.373125 320.390625 176.373125 
L 320.390625 292.798125 
Q 320.390625 294.798125 322.390625 294.798125 
z
" style="fill: #ffffff; opacity: 0.8; stroke: #cccccc; stroke-linejoin: miter"/>
    </g>
    <g id="line2d_26">
     <path d="M 324.390625 182.471563 
L 334.390625 182.471563 
L 344.390625 182.471563 
" style="fill: none; stroke: #1f77b4; stroke-width: 1.5; stroke-linecap: square"/>
    </g>
    <g id="text_22">
     <!-- Ref Speed = 680 -->
     <g transform="translate(352.390625 185.971563) scale(0.1 -0.1)">
      <defs>
       <path id="DejaVuSans-52" d="M 2841 2188 
Q 3044 2119 3236 1894 
Q 3428 1669 3622 1275 
L 4263 0 
L 3584 0 
L 2988 1197 
Q 2756 1666 2539 1819 
Q 2322 1972 1947 1972 
L 1259 1972 
L 1259 0 
L 628 0 
L 628 4666 
L 2053 4666 
Q 2853 4666 3247 4331 
Q 3641 3997 3641 3322 
Q 3641 2881 3436 2590 
Q 3231 2300 2841 2188 
z
M 1259 4147 
L 1259 2491 
L 2053 2491 
Q 2509 2491 2742 2702 
Q 2975 2913 2975 3322 
Q 2975 3731 2742 3939 
Q 2509 4147 2053 4147 
L 1259 4147 
z
" transform="scale(0.015625)"/>
       <path id="DejaVuSans-66" d="M 2375 4863 
L 2375 4384 
L 1825 4384 
Q 1516 4384 1395 4259 
Q 1275 4134 1275 3809 
L 1275 3500 
L 2222 3500 
L 2222 3053 
L 1275 3053 
L 1275 0 
L 697 0 
L 697 3053 
L 147 3053 
L 147 3500 
L 697 3500 
L 697 3744 
Q 697 4328 969 4595 
Q 1241 4863 1831 4863 
L 2375 4863 
z
" transform="scale(0.015625)"/>
       <path id="DejaVuSans-53" d="M 3425 4513 
L 3425 3897 
Q 3066 4069 2747 4153 
Q 2428 4238 2131 4238 
Q 1616 4238 1336 4038 
Q 1056 3838 1056 3469 
Q 1056 3159 1242 3001 
Q 1428 2844 1947 2747 
L 2328 2669 
Q 3034 2534 3370 2195 
Q 3706 1856 3706 1288 
Q 3706 609 3251 259 
Q 2797 -91 1919 -91 
Q 1588 -91 1214 -16 
Q 841 59 441 206 
L 441 856 
Q 825 641 1194 531 
Q 1563 422 1919 422 
Q 2459 422 2753 634 
Q 3047 847 3047 1241 
Q 3047 1584 2836 1778 
Q 2625 1972 2144 2069 
L 1759 2144 
Q 1053 2284 737 2584 
Q 422 2884 422 3419 
Q 422 4038 858 4394 
Q 1294 4750 2059 4750 
Q 2388 4750 2728 4690 
Q 3069 4631 3425 4513 
z
" transform="scale(0.015625)"/>
       <path id="DejaVuSans-70" d="M 1159 525 
L 1159 -1331 
L 581 -1331 
L 581 3500 
L 1159 3500 
L 1159 2969 
Q 1341 3281 1617 3432 
Q 1894 3584 2278 3584 
Q 2916 3584 3314 3078 
Q 3713 2572 3713 1747 
Q 3713 922 3314 415 
Q 2916 -91 2278 -91 
Q 1894 -91 1617 61 
Q 1341 213 1159 525 
z
M 3116 1747 
Q 3116 2381 2855 2742 
Q 2594 3103 2138 3103 
Q 1681 3103 1420 2742 
Q 1159 2381 1159 1747 
Q 1159 1113 1420 752 
Q 1681 391 2138 391 
Q 2594 391 2855 752 
Q 3116 1113 3116 1747 
z
" transform="scale(0.015625)"/>
       <path id="DejaVuSans-64" d="M 2906 2969 
L 2906 4863 
L 3481 4863 
L 3481 0 
L 2906 0 
L 2906 525 
Q 2725 213 2448 61 
Q 2172 -91 1784 -91 
Q 1150 -91 751 415 
Q 353 922 353 1747 
Q 353 2572 751 3078 
Q 1150 3584 1784 3584 
Q 2172 3584 2448 3432 
Q 2725 3281 2906 2969 
z
M 947 1747 
Q 947 1113 1208 752 
Q 1469 391 1925 391 
Q 2381 391 2643 752 
Q 2906 1113 2906 1747 
Q 2906 2381 2643 2742 
Q 2381 3103 1925 3103 
Q 1469 3103 1208 2742 
Q 947 2381 947 1747 
z
" transform="scale(0.015625)"/>
       <path id="DejaVuSans-3d" d="M 678 2906 
L 4684 2906 
L 4684 2381 
L 678 2381 
L 678 2906 
z
M 678 1631 
L 4684 1631 
L 4684 1100 
L 678 1100 
L 678 1631 
z
" transform="scale(0.015625)"/>
       <path id="DejaVuSans-38" d="M 2034 2216 
Q 1584 2216 1326 1975 
Q 1069 1734 1069 1313 
Q 1069 891 1326 650 
Q 1584 409 2034 409 
Q 2484 409 2743 651 
Q 3003 894 3003 1313 
Q 3003 1734 2745 1975 
Q 2488 2216 2034 2216 
z
M 1403 2484 
Q 997 2584 770 2862 
Q 544 3141 544 3541 
Q 544 4100 942 4425 
Q 1341 4750 2034 4750 
Q 2731 4750 3128 4425 
Q 3525 4100 3525 3541 
Q 3525 3141 3298 2862 
Q 3072 2584 2669 2484 
Q 3125 2378 3379 2068 
Q 3634 1759 3634 1313 
Q 3634 634 3220 271 
Q 2806 -91 2034 -91 
Q 1263 -91 848 271 
Q 434 634 434 1313 
Q 434 1759 690 2068 
Q 947 2378 1403 2484 
z
M 1172 3481 
Q 1172 3119 1398 2916 
Q 1625 2713 2034 2713 
Q 2441 2713 2670 2916 
Q 2900 3119 2900 3481 
Q 2900 3844 2670 4047 
Q 2441 4250 2034 4250 
Q 1625 4250 1398 4047 
Q 1172 3844 1172 3481 
z
" transform="scale(0.015625)"/>
      </defs>
      <use xlink:href="#DejaVuSans-52"/>
      <use xlink:href="#DejaVuSans-65" transform="translate(64.982422 0)"/>
      <use xlink:href="#DejaVuSans-66" transform="translate(126.505859 0)"/>
      <use xlink:href="#DejaVuSans-20" transform="translate(161.710938 0)"/>
      <use xlink:href="#DejaVuSans-53" transform="translate(193.498047 0)"/>
      <use xlink:href="#DejaVuSans-70" transform="translate(256.974609 0)"/>
      <use xlink:href="#DejaVuSans-65" transform="translate(320.451172 0)"/>
      <use xlink:href="#DejaVuSans-65" transform="translate(381.974609 0)"/>
      <use xlink:href="#DejaVuSans-64" transform="translate(443.498047 0)"/>
      <use xlink:href="#DejaVuSans-20" transform="translate(506.974609 0)"/>
      <use xlink:href="#DejaVuSans-3d" transform="translate(538.761719 0)"/>
      <use xlink:href="#DejaVuSans-20" transform="translate(622.550781 0)"/>
      <use xlink:href="#DejaVuSans-36" transform="translate(654.337891 0)"/>
      <use xlink:href="#DejaVuSans-38" transform="translate(717.960938 0)"/>
      <use xlink:href="#DejaVuSans-30" transform="translate(781.583984 0)"/>
     </g>
    </g>
    <g id="line2d_27">
     <path d="M 324.390625 197.149688 
L 334.390625 197.149688 
L 344.390625 197.149688 
" style="fill: none; stroke: #ff7f0e; stroke-width: 1.5; stroke-linecap: square"/>
    </g>
    <g id="text_23">
     <!-- Ref Speed = 595 -->
     <g transform="translate(352.390625 200.649688) scale(0.1 -0.1)">
      <defs>
       <path id="DejaVuSans-39" d="M 703 97 
L 703 672 
Q 941 559 1184 500 
Q 1428 441 1663 441 
Q 2288 441 2617 861 
Q 2947 1281 2994 2138 
Q 2813 1869 2534 1725 
Q 2256 1581 1919 1581 
Q 1219 1581 811 2004 
Q 403 2428 403 3163 
Q 403 3881 828 4315 
Q 1253 4750 1959 4750 
Q 2769 4750 3195 4129 
Q 3622 3509 3622 2328 
Q 3622 1225 3098 567 
Q 2575 -91 1691 -91 
Q 1453 -91 1209 -44 
Q 966 3 703 97 
z
M 1959 2075 
Q 2384 2075 2632 2365 
Q 2881 2656 2881 3163 
Q 2881 3666 2632 3958 
Q 2384 4250 1959 4250 
Q 1534 4250 1286 3958 
Q 1038 3666 1038 3163 
Q 1038 2656 1286 2365 
Q 1534 2075 1959 2075 
z
" transform="scale(0.015625)"/>
      </defs>
      <use xlink:href="#DejaVuSans-52"/>
      <use xlink:href="#DejaVuSans-65" transform="translate(64.982422 0)"/>
      <use xlink:href="#DejaVuSans-66" transform="translate(126.505859 0)"/>
      <use xlink:href="#DejaVuSans-20" transform="translate(161.710938 0)"/>
      <use xlink:href="#DejaVuSans-53" transform="translate(193.498047 0)"/>
      <use xlink:href="#DejaVuSans-70" transform="translate(256.974609 0)"/>
      <use xlink:href="#DejaVuSans-65" transform="translate(320.451172 0)"/>
      <use xlink:href="#DejaVuSans-65" transform="translate(381.974609 0)"/>
      <use xlink:href="#DejaVuSans-64" transform="translate(443.498047 0)"/>
      <use xlink:href="#DejaVuSans-20" transform="translate(506.974609 0)"/>
      <use xlink:href="#DejaVuSans-3d" transform="translate(538.761719 0)"/>
      <use xlink:href="#DejaVuSans-20" transform="translate(622.550781 0)"/>
      <use xlink:href="#DejaVuSans-35" transform="translate(654.337891 0)"/>
      <use xlink:href="#DejaVuSans-39" transform="translate(717.960938 0)"/>
      <use xlink:href="#DejaVuSans-35" transform="translate(781.583984 0)"/>
     </g>
    </g>
    <g id="line2d_28">
     <path d="M 324.390625 211.827813 
L 334.390625 211.827813 
L 344.390625 211.827813 
" style="fill: none; stroke: #2ca02c; stroke-width: 1.5; stroke-linecap: square"/>
    </g>
    <g id="text_24">
     <!-- Ref Speed = 510 -->
     <g transform="translate(352.390625 215.327813) scale(0.1 -0.1)">
      <use xlink:href="#DejaVuSans-52"/>
      <use xlink:href="#DejaVuSans-65" transform="translate(64.982422 0)"/>
      <use xlink:href="#DejaVuSans-66" transform="translate(126.505859 0)"/>
      <use xlink:href="#DejaVuSans-20" transform="translate(161.710938 0)"/>
      <use xlink:href="#DejaVuSans-53" transform="translate(193.498047 0)"/>
      <use xlink:href="#DejaVuSans-70" transform="translate(256.974609 0)"/>
      <use xlink:href="#DejaVuSans-65" transform="translate(320.451172 0)"/>
      <use xlink:href="#DejaVuSans-65" transform="translate(381.974609 0)"/>
      <use xlink:href="#DejaVuSans-64" transform="translate(443.498047 0)"/>
      <use xlink:href="#DejaVuSans-20" transform="translate(506.974609 0)"/>
      <use xlink:href="#DejaVuSans-3d" transform="translate(538.761719 0)"/>
      <use xlink:href="#DejaVuSans-20" transform="translate(622.550781 0)"/>
      <use xlink:href="#DejaVuSans-35" transform="translate(654.337891 0)"/>
      <use xlink:href="#DejaVuSans-31" transform="translate(717.960938 0)"/>
      <use xlink:href="#DejaVuSans-30" transform="translate(781.583984 0)"/>
     </g>
    </g>
    <g id="line2d_29">
     <path d="M 324.390625 226.505938 
L 334.390625 226.505938 
L 344.390625 226.505938 
" style="fill: none; stroke: #d62728; stroke-width: 1.5; stroke-linecap: square"/>
    </g>
    <g id="text_25">
     <!-- Ref Speed = 425 -->
     <g transform="translate(352.390625 230.005938) scale(0.1 -0.1)">
      <use xlink:href="#DejaVuSans-52"/>
      <use xlink:href="#DejaVuSans-65" transform="translate(64.982422 0)"/>
      <use xlink:href="#DejaVuSans-66" transform="translate(126.505859 0)"/>
      <use xlink:href="#DejaVuSans-20" transform="translate(161.710938 0)"/>
      <use xlink:href="#DejaVuSans-53" transform="translate(193.498047 0)"/>
      <use xlink:href="#DejaVuSans-70" transform="translate(256.974609 0)"/>
      <use xlink:href="#DejaVuSans-65" transform="translate(320.451172 0)"/>
      <use xlink:href="#DejaVuSans-65" transform="translate(381.974609 0)"/>
      <use xlink:href="#DejaVuSans-64" transform="translate(443.498047 0)"/>
      <use xlink:href="#DejaVuSans-20" transform="translate(506.974609 0)"/>
      <use xlink:href="#DejaVuSans-3d" transform="translate(538.761719 0)"/>
      <use xlink:href="#DejaVuSans-20" transform="translate(622.550781 0)"/>
      <use xlink:href="#DejaVuSans-34" transform="translate(654.337891 0)"/>
      <use xlink:href="#DejaVuSans-32" transform="translate(717.960938 0)"/>
      <use xlink:href="#DejaVuSans-35" transform="translate(781.583984 0)"/>
     </g>
    </g>
    <g id="line2d_30">
     <path d="M 324.390625 241.184063 
L 334.390625 241.184063 
L 344.390625 241.184063 
" style="fill: none; stroke: #9467bd; stroke-width: 1.5; stroke-linecap: square"/>
    </g>
    <g id="text_26">
     <!-- Ref Speed = 340 -->
     <g transform="translate(352.390625 244.684063) scale(0.1 -0.1)">
      <use xlink:href="#DejaVuSans-52"/>
      <use xlink:href="#DejaVuSans-65" transform="translate(64.982422 0)"/>
      <use xlink:href="#DejaVuSans-66" transform="translate(126.505859 0)"/>
      <use xlink:href="#DejaVuSans-20" transform="translate(161.710938 0)"/>
      <use xlink:href="#DejaVuSans-53" transform="translate(193.498047 0)"/>
      <use xlink:href="#DejaVuSans-70" transform="translate(256.974609 0)"/>
      <use xlink:href="#DejaVuSans-65" transform="translate(320.451172 0)"/>
      <use xlink:href="#DejaVuSans-65" transform="translate(381.974609 0)"/>
      <use xlink:href="#DejaVuSans-64" transform="translate(443.498047 0)"/>
      <use xlink:href="#DejaVuSans-20" transform="translate(506.974609 0)"/>
      <use xlink:href="#DejaVuSans-3d" transform="translate(538.761719 0)"/>
      <use xlink:href="#DejaVuSans-20" transform="translate(622.550781 0)"/>
      <use xlink:href="#DejaVuSans-33" transform="translate(654.337891 0)"/>
      <use xlink:href="#DejaVuSans-34" transform="translate(717.960938 0)"/>
      <use xlink:href="#DejaVuSans-30" transform="translate(781.583984 0)"/>
     </g>
    </g>
    <g id="line2d_31">
     <path d="M 324.390625 255.862188 
L 334.390625 255.862188 
L 344.390625 255.862188 
" style="fill: none; stroke: #8c564b; stroke-width: 1.5; stroke-linecap: square"/>
    </g>
    <g id="text_27">
     <!-- Ref Speed = 255 -->
     <g transform="translate(352.390625 259.362188) scale(0.1 -0.1)">
      <use xlink:href="#DejaVuSans-52"/>
      <use xlink:href="#DejaVuSans-65" transform="translate(64.982422 0)"/>
      <use xlink:href="#DejaVuSans-66" transform="translate(126.505859 0)"/>
      <use xlink:href="#DejaVuSans-20" transform="translate(161.710938 0)"/>
      <use xlink:href="#DejaVuSans-53" transform="translate(193.498047 0)"/>
      <use xlink:href="#DejaVuSans-70" transform="translate(256.974609 0)"/>
      <use xlink:href="#DejaVuSans-65" transform="translate(320.451172 0)"/>
      <use xlink:href="#DejaVuSans-65" transform="translate(381.974609 0)"/>
      <use xlink:href="#DejaVuSans-64" transform="translate(443.498047 0)"/>
      <use xlink:href="#DejaVuSans-20" transform="translate(506.974609 0)"/>
      <use xlink:href="#DejaVuSans-3d" transform="translate(538.761719 0)"/>
      <use xlink:href="#DejaVuSans-20" transform="translate(622.550781 0)"/>
      <use xlink:href="#DejaVuSans-32" transform="translate(654.337891 0)"/>
      <use xlink:href="#DejaVuSans-35" transform="translate(717.960938 0)"/>
      <use xlink:href="#DejaVuSans-35" transform="translate(781.583984 0)"/>
     </g>
    </g>
    <g id="line2d_32">
     <path d="M 324.390625 270.540313 
L 334.390625 270.540313 
L 344.390625 270.540313 
" style="fill: none; stroke: #e377c2; stroke-width: 1.5; stroke-linecap: square"/>
    </g>
    <g id="text_28">
     <!-- Ref Speed = 170 -->
     <g transform="translate(352.390625 274.040313) scale(0.1 -0.1)">
      <use xlink:href="#DejaVuSans-52"/>
      <use xlink:href="#DejaVuSans-65" transform="translate(64.982422 0)"/>
      <use xlink:href="#DejaVuSans-66" transform="translate(126.505859 0)"/>
      <use xlink:href="#DejaVuSans-20" transform="translate(161.710938 0)"/>
      <use xlink:href="#DejaVuSans-53" transform="translate(193.498047 0)"/>
      <use xlink:href="#DejaVuSans-70" transform="translate(256.974609 0)"/>
      <use xlink:href="#DejaVuSans-65" transform="translate(320.451172 0)"/>
      <use xlink:href="#DejaVuSans-65" transform="translate(381.974609 0)"/>
      <use xlink:href="#DejaVuSans-64" transform="translate(443.498047 0)"/>
      <use xlink:href="#DejaVuSans-20" transform="translate(506.974609 0)"/>
      <use xlink:href="#DejaVuSans-3d" transform="translate(538.761719 0)"/>
      <use xlink:href="#DejaVuSans-20" transform="translate(622.550781 0)"/>
      <use xlink:href="#DejaVuSans-31" transform="translate(654.337891 0)"/>
      <use xlink:href="#DejaVuSans-37" transform="translate(717.960938 0)"/>
      <use xlink:href="#DejaVuSans-30" transform="translate(781.583984 0)"/>
     </g>
    </g>
    <g id="line2d_33">
     <path d="M 324.390625 285.218438 
L 334.390625 285.218438 
L 344.390625 285.218438 
" style="fill: none; stroke: #7f7f7f; stroke-width: 1.5; stroke-linecap: square"/>
    </g>
    <g id="text_29">
     <!-- Ref Speed = 85 -->
     <g transform="translate(352.390625 288.718438) scale(0.1 -0.1)">
      <use xlink:href="#DejaVuSans-52"/>
      <use xlink:href="#DejaVuSans-65" transform="translate(64.982422 0)"/>
      <use xlink:href="#DejaVuSans-66" transform="translate(126.505859 0)"/>
      <use xlink:href="#DejaVuSans-20" transform="translate(161.710938 0)"/>
      <use xlink:href="#DejaVuSans-53" transform="translate(193.498047 0)"/>
      <use xlink:href="#DejaVuSans-70" transform="translate(256.974609 0)"/>
      <use xlink:href="#DejaVuSans-65" transform="translate(320.451172 0)"/>
      <use xlink:href="#DejaVuSans-65" transform="translate(381.974609 0)"/>
      <use xlink:href="#DejaVuSans-64" transform="translate(443.498047 0)"/>
      <use xlink:href="#DejaVuSans-20" transform="translate(506.974609 0)"/>
      <use xlink:href="#DejaVuSans-3d" transform="translate(538.761719 0)"/>
      <use xlink:href="#DejaVuSans-20" transform="translate(622.550781 0)"/>
      <use xlink:href="#DejaVuSans-38" transform="translate(654.337891 0)"/>
      <use xlink:href="#DejaVuSans-35" transform="translate(717.960938 0)"/>
     </g>
    </g>
   </g>
  </g>
 </g>
 <defs>
  <clipPath id="pd95245c6cf">
   <rect x="46.965625" y="22.318125" width="398.95" height="277.48"/>
  </clipPath>
 </defs>
</svg>
