<svg width="1920" height="1920" xmlns="http://www.w3.org/2000/svg" xmlns:xlink="http://www.w3.org/1999/xlink" overflow="hidden"><g><rect x="0" y="0" width="1920" height="1920" fill="#D9D9D9"/><path d="M918 819.5 959.6 773 1084.4 773 1126 819.5 1084.4 866 959.6 866Z" stroke="#000000" stroke-width="2" stroke-miterlimit="8" fill="#FFFFFF" fill-rule="evenodd"/><text font-family="Times New Roman,Times New Roman_MSFontService,sans-serif" font-weight="400" font-size="24" transform="translate(1000.86 800)">Path</text><text font-family="Times New Roman,Times New Roman_MSFontService,sans-serif" font-weight="400" font-size="24" transform="translate(982.19 826)">Director</text><text font-family="Times New Roman,Times New Roman_MSFontService,sans-serif" font-weight="400" font-size="24" transform="translate(999.69 852)">Task</text><path d="M1023 866 1023 929.897 1021 929.897 1021 866ZM1027.53 922.401 1022 931.882 1016.47 922.401C1016.19 921.924 1016.35 921.312 1016.83 921.034 1017.31 920.755 1017.92 920.916 1018.2 921.393L1022.86 929.393 1021.14 929.393 1025.8 921.393C1026.08 920.916 1026.69 920.755 1027.17 921.034 1027.65 921.312 1027.81 921.924 1027.53 922.401Z"/><rect x="918" y="931" width="208" height="93" stroke="#000000" stroke-width="2" stroke-miterlimit="8" fill="#FFFFFF"/><text font-family="Times New Roman,Times New Roman_MSFontService,sans-serif" font-weight="400" font-size="24" transform="translate(940.524 986)">Change Segment</text><path d="M0-1 664.318-1 664.318 387.584 662.318 387.584 662.318 0 663.318 1 0 1ZM668.848 380.087 663.318 389.568 657.787 380.087C657.509 379.61 657.67 378.998 658.147 378.72 658.624 378.441 659.237 378.603 659.515 379.08L664.182 387.08 662.454 387.08 667.121 379.08C667.399 378.603 668.011 378.441 668.488 378.72 668.966 378.998 669.127 379.61 668.848 380.087Z" transform="matrix(-1.83697e-16 -1 -1 1.83697e-16 1515.56 1482.32)"/><rect x="595" y="1174" width="208" height="93" stroke="#000000" stroke-width="2" stroke-miterlimit="8" fill="#FFFFFF"/><text font-family="Times New Roman,Times New Roman_MSFontService,sans-serif" font-weight="400" font-size="24" transform="translate(644.762 1215)">Calibration</text><text font-family="Times New Roman,Times New Roman_MSFontService,sans-serif" font-weight="400" font-size="24" transform="translate(656.762 1244)">Segment</text><rect x="1249" y="931" width="209" height="93" stroke="#000000" stroke-width="2" stroke-miterlimit="8" fill="#FFFFFF"/><text font-family="Times New Roman,Times New Roman_MSFontService,sans-serif" font-weight="400" font-size="24" transform="translate(1283.25 972)">Wait For Input</text><text font-family="Times New Roman,Times New Roman_MSFontService,sans-serif" font-weight="400" font-size="24" transform="translate(1311.62 1001)">Segment</text><path d="M1126 977 1247.15 977 1247.15 979 1126 979ZM1239.65 972.47 1249.13 978 1239.65 983.531C1239.17 983.809 1238.56 983.648 1238.28 983.171 1238 982.694 1238.17 982.081 1238.64 981.803L1246.64 977.136 1246.64 978.864 1238.64 974.197C1238.17 973.919 1238 973.307 1238.28 972.83 1238.56 972.352 1239.17 972.191 1239.65 972.47Z"/><text font-family="Times New Roman,Times New Roman_MSFontService,sans-serif" font-weight="400" font-size="24" transform="translate(1153.15 967)">seg = 0</text><rect x="918" y="1174" width="208" height="93" stroke="#000000" stroke-width="2" stroke-miterlimit="8" fill="#FFFFFF"/><text font-family="Times New Roman,Times New Roman_MSFontService,sans-serif" font-weight="400" font-size="24" transform="translate(947.857 1215)">Line Following</text><text font-family="Times New Roman,Times New Roman_MSFontService,sans-serif" font-weight="400" font-size="24" transform="translate(980.19 1244)">Segment</text><rect x="1240" y="1174" width="208" height="93" stroke="#000000" stroke-width="2" stroke-miterlimit="8" fill="#FFFFFF"/><text font-family="Times New Roman,Times New Roman_MSFontService,sans-serif" font-weight="400" font-size="24" transform="translate(1273.14 1215)">Fixed Forward</text><text font-family="Times New Roman,Times New Roman_MSFontService,sans-serif" font-weight="400" font-size="24" transform="translate(1257.14 1244)">Distance Segment</text><path d="M1023.43 1024 1023.43 1100.23 699 1100.23 700 1099.23 700 1172.48 698 1172.48 698 1098.23 1022.43 1098.23 1021.43 1099.23 1021.43 1024ZM704.53 1164.98 699 1174.46 693.469 1164.98C693.191 1164.5 693.352 1163.89 693.829 1163.61 694.306 1163.33 694.919 1163.49 695.197 1163.97L699.864 1171.97 698.136 1171.97 702.803 1163.97C703.081 1163.49 703.693 1163.33 704.17 1163.61 704.648 1163.89 704.809 1164.5 704.53 1164.98Z"/><path d="M1023 1024 1023 1100.23 1022 1100.23 1023 1099.23 1023 1172.48 1021 1172.48 1021 1098.23 1022 1098.23 1021 1099.23 1021 1024ZM1027.53 1164.98 1022 1174.46 1016.47 1164.98C1016.19 1164.5 1016.35 1163.89 1016.83 1163.61 1017.31 1163.33 1017.92 1163.49 1018.2 1163.97L1022.86 1171.97 1021.14 1171.97 1025.8 1163.97C1026.08 1163.49 1026.69 1163.33 1027.17 1163.61 1027.65 1163.89 1027.81 1164.5 1027.53 1164.98Z"/><path d="M0-1 76.2278-1 76.2278 321.949 75.2278 320.949 148.475 320.949 148.475 322.949 74.2278 322.949 74.2278 0 75.2278 1 0 1ZM140.979 316.418 150.46 321.949 140.979 327.479C140.502 327.757 139.89 327.596 139.612 327.119 139.333 326.642 139.495 326.03 139.972 325.751L147.972 321.085 147.972 322.812 139.972 318.146C139.495 317.867 139.333 317.255 139.612 316.778 139.89 316.301 140.502 316.14 140.979 316.418Z" transform="matrix(1.83697e-16 1 1 -1.83697e-16 1022 1024)"/><text font-family="Times New Roman,Times New Roman_MSFontService,sans-serif" font-weight="400" font-size="24" transform="translate(666.794 1084)">seg = 1</text><text font-family="Times New Roman,Times New Roman_MSFontService,sans-serif" font-weight="400" font-size="24" transform="translate(1308.4 1088)">seg = 3</text><text font-family="Times New Roman,Times New Roman_MSFontService,sans-serif" font-weight="400" font-size="24" transform="translate(1034.1 1140)">seg = 2</text><rect x="595" y="1325" width="208" height="92" stroke="#000000" stroke-width="2" stroke-miterlimit="8" fill="#FFFFFF"/><text font-family="Times New Roman,Times New Roman_MSFontService,sans-serif" font-weight="400" font-size="24" transform="translate(620.762 1365)">Line Sensor and</text><text font-family="Times New Roman,Times New Roman_MSFontService,sans-serif" font-weight="400" font-size="24" transform="translate(622.429 1394)">IMU Calibrated</text><path d="M700 1267 700 1323.1 698 1323.1 698 1267ZM704.531 1315.6 699 1325.08 693.47 1315.6C693.191 1315.12 693.352 1314.51 693.83 1314.23 694.307 1313.96 694.919 1314.12 695.197 1314.59L699.864 1322.59 698.136 1322.59 702.803 1314.59C703.081 1314.12 703.694 1313.96 704.171 1314.23 704.648 1314.51 704.809 1315.12 704.531 1315.6Z"/><path d="M0-1 41.7619-1 41.7619 151.456 3.31333 151.456 3.31333 149.456 40.7619 149.456 39.7619 150.456 39.7619 0 40.7619 1 0 1ZM10.8095 155.986 1.3287 150.456 10.8095 144.925C11.2865 144.647 11.8988 144.808 12.1771 145.285 12.4554 145.762 12.2943 146.374 11.8172 146.653L3.8172 151.319 3.8172 149.592 11.8172 154.258C12.2943 154.537 12.4554 155.149 12.1771 155.626 11.8988 156.103 11.2865 156.264 10.8095 155.986Z" transform="matrix(1 0 0 -1 803 1370.46)"/><text font-family="Times New Roman,Times New Roman_MSFontService,sans-serif" font-weight="400" font-size="24" transform="translate(818.206 1360)">F</text><text font-family="Times New Roman,Times New Roman_MSFontService,sans-serif" font-weight="400" font-size="24" transform="translate(712.161 1470)">T</text><text font-family="Times New Roman,Times New Roman_MSFontService,sans-serif" font-weight="700" font-size="24" transform="translate(732.395 1470)">/</text><text font-family="Times New Roman,Times New Roman_MSFontService,sans-serif" font-weight="400" font-size="24" transform="translate(745.061 1470)">seg = 0</text><path d="M1458 978 1516.13 978" stroke="#000000" stroke-width="2" stroke-miterlimit="8" fill="none" fill-rule="evenodd"/><path d="M699 1483 1516.14 1483" stroke="#000000" stroke-width="2" stroke-miterlimit="8" fill="none" fill-rule="evenodd"/><path d="M699 1417 699 1482.58" stroke="#000000" stroke-width="2" stroke-miterlimit="8" fill="none" fill-rule="evenodd"/><rect x="906" y="1300" width="232" height="92" stroke="#000000" stroke-width="2" stroke-miterlimit="8" fill="#FFFFFF"/><text font-family="Times New Roman,Times New Roman_MSFontService,sans-serif" font-weight="400" font-size="24" transform="translate(919.544 1355)">| IMU Heading | ≥ 2</text><text font-family="Times New Roman,Times New Roman_MSFontService,sans-serif" font-weight="400" font-size="24" transform="translate(1112.38 1355)">π</text><path d="M0 0 0.0952231 90.5025" stroke="#000000" stroke-width="2" stroke-miterlimit="8" fill="none" fill-rule="evenodd" transform="matrix(-1 0 0 1 948.095 1392)"/><path d="M0 0 0.0952231 90.5025" stroke="#000000" stroke-width="2" stroke-miterlimit="8" fill="none" fill-rule="evenodd" transform="matrix(-1 0 0 1 1095.1 1392)"/><text font-family="Times New Roman,Times New Roman_MSFontService,sans-serif" font-weight="400" font-size="24" transform="translate(891.627 1429)">T</text><text font-family="Times New Roman,Times New Roman_MSFontService,sans-serif" font-weight="700" font-size="24" transform="translate(911.86 1429)">/</text><text font-family="Times New Roman,Times New Roman_MSFontService,sans-serif" font-weight="400" font-size="24" transform="translate(870.327 1458)">seg = 0</text><text font-family="Times New Roman,Times New Roman_MSFontService,sans-serif" font-weight="400" font-size="24" transform="translate(1037.65 1429)">F</text><text font-family="Times New Roman,Times New Roman_MSFontService,sans-serif" font-weight="700" font-size="24" transform="translate(1056.98 1429)">/</text><text font-family="Times New Roman,Times New Roman_MSFontService,sans-serif" font-weight="400" font-size="24" transform="translate(1015.9 1458)">seg = 2</text><path d="M0.99999-0.00441453 1.1376 31.1675-0.862379 31.1764-0.99999 0.00441453ZM5.63491 23.6515 0.146372 33.1566-5.42587 23.7003C-5.70626 23.2245-5.54782 22.6115-5.07201 22.3311-4.59619 22.0507-3.98316 22.2091-3.70278 22.6849L0.999157 30.6643-0.728384 30.6719 3.90292 22.6514C4.17909 22.1731 4.79069 22.0092 5.26897 22.2854 5.74724 22.5616 5.91108 23.1732 5.63491 23.6515Z" transform="matrix(-1 0 0 1 1022.15 1267)"/><rect x="1187" y="1300" width="314" height="92" stroke="#000000" stroke-width="2" stroke-miterlimit="8" fill="#FFFFFF"/><text font-family="Times New Roman,Times New Roman_MSFontService,sans-serif" font-weight="400" font-size="24" transform="translate(1202.58 1355)">Observer Position ≥ 1000mm</text><path d="M0 0 0.0952231 90.5025" stroke="#000000" stroke-width="2" stroke-miterlimit="8" fill="none" fill-rule="evenodd" transform="matrix(-1 0 0 1 1270.1 1392)"/><path d="M0 0 0.0952231 90.5025" stroke="#000000" stroke-width="2" stroke-miterlimit="8" fill="none" fill-rule="evenodd" transform="matrix(-1 0 0 1 1417.1 1392)"/><text font-family="Times New Roman,Times New Roman_MSFontService,sans-serif" font-weight="400" font-size="24" transform="translate(1213.59 1429)">T</text><text font-family="Times New Roman,Times New Roman_MSFontService,sans-serif" font-weight="700" font-size="24" transform="translate(1233.83 1429)">/</text><text font-family="Times New Roman,Times New Roman_MSFontService,sans-serif" font-weight="400" font-size="24" transform="translate(1192.29 1458)">seg = 0</text><text font-family="Times New Roman,Times New Roman_MSFontService,sans-serif" font-weight="400" font-size="24" transform="translate(1359.62 1429)">F</text><text font-family="Times New Roman,Times New Roman_MSFontService,sans-serif" font-weight="700" font-size="24" transform="translate(1378.95 1429)">/</text><text font-family="Times New Roman,Times New Roman_MSFontService,sans-serif" font-weight="400" font-size="24" transform="translate(1337.87 1458)">seg = 3</text><path d="M1345 1267 1345.02 1298.17 1343.02 1298.17 1343 1267ZM1349.54 1290.67 1344.02 1300.16 1338.48 1290.68C1338.21 1290.2 1338.37 1289.59 1338.84 1289.31 1339.32 1289.03 1339.93 1289.19 1340.21 1289.67L1344.88 1297.67 1343.15 1297.67 1347.82 1289.67C1348.09 1289.19 1348.71 1289.03 1349.18 1289.31 1349.66 1289.58 1349.82 1290.2 1349.54 1290.67Z"/></g></svg>