<?xml version="1.0" encoding="utf-8" standalone="no"?>
<!DOCTYPE svg PUBLIC "-//W3C//DTD SVG 1.1//EN"
  "http://www.w3.org/Graphics/SVG/1.1/DTD/svg11.dtd">
<svg xmlns:xlink="http://www.w3.org/1999/xlink" width="453.188125pt" height="337.354375pt" viewBox="0 0 453.188125 337.354375" xmlns="http://www.w3.org/2000/svg" version="1.1">
 <metadata>
  <rdf:RDF xmlns:dc="http://purl.org/dc/elements/1.1/" xmlns:cc="http://creativecommons.org/ns#" xmlns:rdf="http://www.w3.org/1999/02/22-rdf-syntax-ns#">
   <cc:Work>
    <dc:type rdf:resource="http://purl.org/dc/dcmitype/StillImage"/>
    <dc:date>2025-10-28T18:46:58.711571</dc:date>
    <dc:format>image/svg+xml</dc:format>
    <dc:creator>
     <cc:Agent>
      <dc:title>Matplotlib v3.10.6, https://matplotlib.org/</dc:title>
     </cc:Agent>
    </dc:creator>
   </cc:Work>
  </rdf:RDF>
 </metadata>
 <defs>
  <style type="text/css">*{stroke-linejoin: round; stroke-linecap: butt}</style>
 </defs>
 <g id="figure_1">
  <g id="patch_1">
   <path d="M 0 337.354375 
L 453.188125 337.354375 
L 453.188125 0 
L 0 0 
z
" style="fill: #ffffff"/>
  </g>
  <g id="axes_1">
   <g id="patch_2">
    <path d="M 40.603125 299.798125 
L 445.988125 299.798125 
L 445.988125 22.318125 
L 40.603125 22.318125 
z
" style="fill: #ffffff"/>
   </g>
   <g id="matplotlib.axis_1">
    <g id="xtick_1">
     <g id="line2d_1">
      <defs>
       <path id="m15e23c91d3" d="M 0 0 
L 0 3.5 
" style="stroke: #000000; stroke-width: 0.8"/>
      </defs>
      <g>
       <use xlink:href="#m15e23c91d3" x="58.836949" y="299.798125" style="stroke: #000000; stroke-width: 0.8"/>
      </g>
     </g>
     <g id="text_1">
      <!-- 0.00 -->
      <g transform="translate(47.704137 314.396563) scale(0.1 -0.1)">
       <defs>
        <path id="DejaVuSans-30" d="M 2034 4250 
Q 1547 4250 1301 3770 
Q 1056 3291 1056 2328 
Q 1056 1369 1301 889 
Q 1547 409 2034 409 
Q 2525 409 2770 889 
Q 3016 1369 3016 2328 
Q 3016 3291 2770 3770 
Q 2525 4250 2034 4250 
z
M 2034 4750 
Q 2819 4750 3233 4129 
Q 3647 3509 3647 2328 
Q 3647 1150 3233 529 
Q 2819 -91 2034 -91 
Q 1250 -91 836 529 
Q 422 1150 422 2328 
Q 422 3509 836 4129 
Q 1250 4750 2034 4750 
z
" transform="scale(0.015625)"/>
        <path id="DejaVuSans-2e" d="M 684 794 
L 1344 794 
L 1344 0 
L 684 0 
L 684 794 
z
" transform="scale(0.015625)"/>
       </defs>
       <use xlink:href="#DejaVuSans-30"/>
       <use xlink:href="#DejaVuSans-2e" transform="translate(63.623047 0)"/>
       <use xlink:href="#DejaVuSans-30" transform="translate(95.410156 0)"/>
       <use xlink:href="#DejaVuSans-30" transform="translate(159.033203 0)"/>
      </g>
     </g>
    </g>
    <g id="xtick_2">
     <g id="line2d_2">
      <g>
       <use xlink:href="#m15e23c91d3" x="104.997548" y="299.798125" style="stroke: #000000; stroke-width: 0.8"/>
      </g>
     </g>
     <g id="text_2">
      <!-- 0.25 -->
      <g transform="translate(93.864735 314.396563) scale(0.1 -0.1)">
       <defs>
        <path id="DejaVuSans-32" d="M 1228 531 
L 3431 531 
L 3431 0 
L 469 0 
L 469 531 
Q 828 903 1448 1529 
Q 2069 2156 2228 2338 
Q 2531 2678 2651 2914 
Q 2772 3150 2772 3378 
Q 2772 3750 2511 3984 
Q 2250 4219 1831 4219 
Q 1534 4219 1204 4116 
Q 875 4013 500 3803 
L 500 4441 
Q 881 4594 1212 4672 
Q 1544 4750 1819 4750 
Q 2544 4750 2975 4387 
Q 3406 4025 3406 3419 
Q 3406 3131 3298 2873 
Q 3191 2616 2906 2266 
Q 2828 2175 2409 1742 
Q 1991 1309 1228 531 
z
" transform="scale(0.015625)"/>
        <path id="DejaVuSans-35" d="M 691 4666 
L 3169 4666 
L 3169 4134 
L 1269 4134 
L 1269 2991 
Q 1406 3038 1543 3061 
Q 1681 3084 1819 3084 
Q 2600 3084 3056 2656 
Q 3513 2228 3513 1497 
Q 3513 744 3044 326 
Q 2575 -91 1722 -91 
Q 1428 -91 1123 -41 
Q 819 9 494 109 
L 494 744 
Q 775 591 1075 516 
Q 1375 441 1709 441 
Q 2250 441 2565 725 
Q 2881 1009 2881 1497 
Q 2881 1984 2565 2268 
Q 2250 2553 1709 2553 
Q 1456 2553 1204 2497 
Q 953 2441 691 2322 
L 691 4666 
z
" transform="scale(0.015625)"/>
       </defs>
       <use xlink:href="#DejaVuSans-30"/>
       <use xlink:href="#DejaVuSans-2e" transform="translate(63.623047 0)"/>
       <use xlink:href="#DejaVuSans-32" transform="translate(95.410156 0)"/>
       <use xlink:href="#DejaVuSans-35" transform="translate(159.033203 0)"/>
      </g>
     </g>
    </g>
    <g id="xtick_3">
     <g id="line2d_3">
      <g>
       <use xlink:href="#m15e23c91d3" x="151.158147" y="299.798125" style="stroke: #000000; stroke-width: 0.8"/>
      </g>
     </g>
     <g id="text_3">
      <!-- 0.50 -->
      <g transform="translate(140.025334 314.396563) scale(0.1 -0.1)">
       <use xlink:href="#DejaVuSans-30"/>
       <use xlink:href="#DejaVuSans-2e" transform="translate(63.623047 0)"/>
       <use xlink:href="#DejaVuSans-35" transform="translate(95.410156 0)"/>
       <use xlink:href="#DejaVuSans-30" transform="translate(159.033203 0)"/>
      </g>
     </g>
    </g>
    <g id="xtick_4">
     <g id="line2d_4">
      <g>
       <use xlink:href="#m15e23c91d3" x="197.318745" y="299.798125" style="stroke: #000000; stroke-width: 0.8"/>
      </g>
     </g>
     <g id="text_4">
      <!-- 0.75 -->
      <g transform="translate(186.185933 314.396563) scale(0.1 -0.1)">
       <defs>
        <path id="DejaVuSans-37" d="M 525 4666 
L 3525 4666 
L 3525 4397 
L 1831 0 
L 1172 0 
L 2766 4134 
L 525 4134 
L 525 4666 
z
" transform="scale(0.015625)"/>
       </defs>
       <use xlink:href="#DejaVuSans-30"/>
       <use xlink:href="#DejaVuSans-2e" transform="translate(63.623047 0)"/>
       <use xlink:href="#DejaVuSans-37" transform="translate(95.410156 0)"/>
       <use xlink:href="#DejaVuSans-35" transform="translate(159.033203 0)"/>
      </g>
     </g>
    </g>
    <g id="xtick_5">
     <g id="line2d_5">
      <g>
       <use xlink:href="#m15e23c91d3" x="243.479344" y="299.798125" style="stroke: #000000; stroke-width: 0.8"/>
      </g>
     </g>
     <g id="text_5">
      <!-- 1.00 -->
      <g transform="translate(232.346532 314.396563) scale(0.1 -0.1)">
       <defs>
        <path id="DejaVuSans-31" d="M 794 531 
L 1825 531 
L 1825 4091 
L 703 3866 
L 703 4441 
L 1819 4666 
L 2450 4666 
L 2450 531 
L 3481 531 
L 3481 0 
L 794 0 
L 794 531 
z
" transform="scale(0.015625)"/>
       </defs>
       <use xlink:href="#DejaVuSans-31"/>
       <use xlink:href="#DejaVuSans-2e" transform="translate(63.623047 0)"/>
       <use xlink:href="#DejaVuSans-30" transform="translate(95.410156 0)"/>
       <use xlink:href="#DejaVuSans-30" transform="translate(159.033203 0)"/>
      </g>
     </g>
    </g>
    <g id="xtick_6">
     <g id="line2d_6">
      <g>
       <use xlink:href="#m15e23c91d3" x="289.639943" y="299.798125" style="stroke: #000000; stroke-width: 0.8"/>
      </g>
     </g>
     <g id="text_6">
      <!-- 1.25 -->
      <g transform="translate(278.50713 314.396563) scale(0.1 -0.1)">
       <use xlink:href="#DejaVuSans-31"/>
       <use xlink:href="#DejaVuSans-2e" transform="translate(63.623047 0)"/>
       <use xlink:href="#DejaVuSans-32" transform="translate(95.410156 0)"/>
       <use xlink:href="#DejaVuSans-35" transform="translate(159.033203 0)"/>
      </g>
     </g>
    </g>
    <g id="xtick_7">
     <g id="line2d_7">
      <g>
       <use xlink:href="#m15e23c91d3" x="335.800542" y="299.798125" style="stroke: #000000; stroke-width: 0.8"/>
      </g>
     </g>
     <g id="text_7">
      <!-- 1.50 -->
      <g transform="translate(324.667729 314.396563) scale(0.1 -0.1)">
       <use xlink:href="#DejaVuSans-31"/>
       <use xlink:href="#DejaVuSans-2e" transform="translate(63.623047 0)"/>
       <use xlink:href="#DejaVuSans-35" transform="translate(95.410156 0)"/>
       <use xlink:href="#DejaVuSans-30" transform="translate(159.033203 0)"/>
      </g>
     </g>
    </g>
    <g id="xtick_8">
     <g id="line2d_8">
      <g>
       <use xlink:href="#m15e23c91d3" x="381.96114" y="299.798125" style="stroke: #000000; stroke-width: 0.8"/>
      </g>
     </g>
     <g id="text_8">
      <!-- 1.75 -->
      <g transform="translate(370.828328 314.396563) scale(0.1 -0.1)">
       <use xlink:href="#DejaVuSans-31"/>
       <use xlink:href="#DejaVuSans-2e" transform="translate(63.623047 0)"/>
       <use xlink:href="#DejaVuSans-37" transform="translate(95.410156 0)"/>
       <use xlink:href="#DejaVuSans-35" transform="translate(159.033203 0)"/>
      </g>
     </g>
    </g>
    <g id="xtick_9">
     <g id="line2d_9">
      <g>
       <use xlink:href="#m15e23c91d3" x="428.121739" y="299.798125" style="stroke: #000000; stroke-width: 0.8"/>
      </g>
     </g>
     <g id="text_9">
      <!-- 2.00 -->
      <g transform="translate(416.988927 314.396563) scale(0.1 -0.1)">
       <use xlink:href="#DejaVuSans-32"/>
       <use xlink:href="#DejaVuSans-2e" transform="translate(63.623047 0)"/>
       <use xlink:href="#DejaVuSans-30" transform="translate(95.410156 0)"/>
       <use xlink:href="#DejaVuSans-30" transform="translate(159.033203 0)"/>
      </g>
     </g>
    </g>
    <g id="text_10">
     <!-- time, t (us) -->
     <g transform="translate(215.597187 328.074688) scale(0.1 -0.1)">
      <defs>
       <path id="DejaVuSans-74" d="M 1172 4494 
L 1172 3500 
L 2356 3500 
L 2356 3053 
L 1172 3053 
L 1172 1153 
Q 1172 725 1289 603 
Q 1406 481 1766 481 
L 2356 481 
L 2356 0 
L 1766 0 
Q 1100 0 847 248 
Q 594 497 594 1153 
L 594 3053 
L 172 3053 
L 172 3500 
L 594 3500 
L 594 4494 
L 1172 4494 
z
" transform="scale(0.015625)"/>
       <path id="DejaVuSans-69" d="M 603 3500 
L 1178 3500 
L 1178 0 
L 603 0 
L 603 3500 
z
M 603 4863 
L 1178 4863 
L 1178 4134 
L 603 4134 
L 603 4863 
z
" transform="scale(0.015625)"/>
       <path id="DejaVuSans-6d" d="M 3328 2828 
Q 3544 3216 3844 3400 
Q 4144 3584 4550 3584 
Q 5097 3584 5394 3201 
Q 5691 2819 5691 2113 
L 5691 0 
L 5113 0 
L 5113 2094 
Q 5113 2597 4934 2840 
Q 4756 3084 4391 3084 
Q 3944 3084 3684 2787 
Q 3425 2491 3425 1978 
L 3425 0 
L 2847 0 
L 2847 2094 
Q 2847 2600 2669 2842 
Q 2491 3084 2119 3084 
Q 1678 3084 1418 2786 
Q 1159 2488 1159 1978 
L 1159 0 
L 581 0 
L 581 3500 
L 1159 3500 
L 1159 2956 
Q 1356 3278 1631 3431 
Q 1906 3584 2284 3584 
Q 2666 3584 2933 3390 
Q 3200 3197 3328 2828 
z
" transform="scale(0.015625)"/>
       <path id="DejaVuSans-65" d="M 3597 1894 
L 3597 1613 
L 953 1613 
Q 991 1019 1311 708 
Q 1631 397 2203 397 
Q 2534 397 2845 478 
Q 3156 559 3463 722 
L 3463 178 
Q 3153 47 2828 -22 
Q 2503 -91 2169 -91 
Q 1331 -91 842 396 
Q 353 884 353 1716 
Q 353 2575 817 3079 
Q 1281 3584 2069 3584 
Q 2775 3584 3186 3129 
Q 3597 2675 3597 1894 
z
M 3022 2063 
Q 3016 2534 2758 2815 
Q 2500 3097 2075 3097 
Q 1594 3097 1305 2825 
Q 1016 2553 972 2059 
L 3022 2063 
z
" transform="scale(0.015625)"/>
       <path id="DejaVuSans-2c" d="M 750 794 
L 1409 794 
L 1409 256 
L 897 -744 
L 494 -744 
L 750 256 
L 750 794 
z
" transform="scale(0.015625)"/>
       <path id="DejaVuSans-20" transform="scale(0.015625)"/>
       <path id="DejaVuSans-28" d="M 1984 4856 
Q 1566 4138 1362 3434 
Q 1159 2731 1159 2009 
Q 1159 1288 1364 580 
Q 1569 -128 1984 -844 
L 1484 -844 
Q 1016 -109 783 600 
Q 550 1309 550 2009 
Q 550 2706 781 3412 
Q 1013 4119 1484 4856 
L 1984 4856 
z
" transform="scale(0.015625)"/>
       <path id="DejaVuSans-75" d="M 544 1381 
L 544 3500 
L 1119 3500 
L 1119 1403 
Q 1119 906 1312 657 
Q 1506 409 1894 409 
Q 2359 409 2629 706 
Q 2900 1003 2900 1516 
L 2900 3500 
L 3475 3500 
L 3475 0 
L 2900 0 
L 2900 538 
Q 2691 219 2414 64 
Q 2138 -91 1772 -91 
Q 1169 -91 856 284 
Q 544 659 544 1381 
z
M 1991 3584 
L 1991 3584 
z
" transform="scale(0.015625)"/>
       <path id="DejaVuSans-73" d="M 2834 3397 
L 2834 2853 
Q 2591 2978 2328 3040 
Q 2066 3103 1784 3103 
Q 1356 3103 1142 2972 
Q 928 2841 928 2578 
Q 928 2378 1081 2264 
Q 1234 2150 1697 2047 
L 1894 2003 
Q 2506 1872 2764 1633 
Q 3022 1394 3022 966 
Q 3022 478 2636 193 
Q 2250 -91 1575 -91 
Q 1294 -91 989 -36 
Q 684 19 347 128 
L 347 722 
Q 666 556 975 473 
Q 1284 391 1588 391 
Q 1994 391 2212 530 
Q 2431 669 2431 922 
Q 2431 1156 2273 1281 
Q 2116 1406 1581 1522 
L 1381 1569 
Q 847 1681 609 1914 
Q 372 2147 372 2553 
Q 372 3047 722 3315 
Q 1072 3584 1716 3584 
Q 2034 3584 2315 3537 
Q 2597 3491 2834 3397 
z
" transform="scale(0.015625)"/>
       <path id="DejaVuSans-29" d="M 513 4856 
L 1013 4856 
Q 1481 4119 1714 3412 
Q 1947 2706 1947 2009 
Q 1947 1309 1714 600 
Q 1481 -109 1013 -844 
L 513 -844 
Q 928 -128 1133 580 
Q 1338 1288 1338 2009 
Q 1338 2731 1133 3434 
Q 928 4138 513 4856 
z
" transform="scale(0.015625)"/>
      </defs>
      <use xlink:href="#DejaVuSans-74"/>
      <use xlink:href="#DejaVuSans-69" transform="translate(39.208984 0)"/>
      <use xlink:href="#DejaVuSans-6d" transform="translate(66.992188 0)"/>
      <use xlink:href="#DejaVuSans-65" transform="translate(164.404297 0)"/>
      <use xlink:href="#DejaVuSans-2c" transform="translate(225.927734 0)"/>
      <use xlink:href="#DejaVuSans-20" transform="translate(257.714844 0)"/>
      <use xlink:href="#DejaVuSans-74" transform="translate(289.501953 0)"/>
      <use xlink:href="#DejaVuSans-20" transform="translate(328.710938 0)"/>
      <use xlink:href="#DejaVuSans-28" transform="translate(360.498047 0)"/>
      <use xlink:href="#DejaVuSans-75" transform="translate(399.511719 0)"/>
      <use xlink:href="#DejaVuSans-73" transform="translate(462.890625 0)"/>
      <use xlink:href="#DejaVuSans-29" transform="translate(514.990234 0)"/>
     </g>
    </g>
    <g id="text_11">
     <!-- 1e6 -->
     <g transform="translate(427.11 327.074688) scale(0.1 -0.1)">
      <defs>
       <path id="DejaVuSans-36" d="M 2113 2584 
Q 1688 2584 1439 2293 
Q 1191 2003 1191 1497 
Q 1191 994 1439 701 
Q 1688 409 2113 409 
Q 2538 409 2786 701 
Q 3034 994 3034 1497 
Q 3034 2003 2786 2293 
Q 2538 2584 2113 2584 
z
M 3366 4563 
L 3366 3988 
Q 3128 4100 2886 4159 
Q 2644 4219 2406 4219 
Q 1781 4219 1451 3797 
Q 1122 3375 1075 2522 
Q 1259 2794 1537 2939 
Q 1816 3084 2150 3084 
Q 2853 3084 3261 2657 
Q 3669 2231 3669 1497 
Q 3669 778 3244 343 
Q 2819 -91 2113 -91 
Q 1303 -91 875 529 
Q 447 1150 447 2328 
Q 447 3434 972 4092 
Q 1497 4750 2381 4750 
Q 2619 4750 2861 4703 
Q 3103 4656 3366 4563 
z
" transform="scale(0.015625)"/>
      </defs>
      <use xlink:href="#DejaVuSans-31"/>
      <use xlink:href="#DejaVuSans-65" transform="translate(63.623047 0)"/>
      <use xlink:href="#DejaVuSans-36" transform="translate(125.146484 0)"/>
     </g>
    </g>
   </g>
   <g id="matplotlib.axis_2">
    <g id="ytick_1">
     <g id="line2d_10">
      <defs>
       <path id="m92bcc247f7" d="M 0 0 
L -3.5 0 
" style="stroke: #000000; stroke-width: 0.8"/>
      </defs>
      <g>
       <use xlink:href="#m92bcc247f7" x="40.603125" y="287.185398" style="stroke: #000000; stroke-width: 0.8"/>
      </g>
     </g>
     <g id="text_12">
      <!-- 0 -->
      <g transform="translate(27.240625 290.984616) scale(0.1 -0.1)">
       <use xlink:href="#DejaVuSans-30"/>
      </g>
     </g>
    </g>
    <g id="ytick_2">
     <g id="line2d_11">
      <g>
       <use xlink:href="#m92bcc247f7" x="40.603125" y="235.680555" style="stroke: #000000; stroke-width: 0.8"/>
      </g>
     </g>
     <g id="text_13">
      <!-- 5 -->
      <g transform="translate(27.240625 239.479774) scale(0.1 -0.1)">
       <use xlink:href="#DejaVuSans-35"/>
      </g>
     </g>
    </g>
    <g id="ytick_3">
     <g id="line2d_12">
      <g>
       <use xlink:href="#m92bcc247f7" x="40.603125" y="184.175713" style="stroke: #000000; stroke-width: 0.8"/>
      </g>
     </g>
     <g id="text_14">
      <!-- 10 -->
      <g transform="translate(20.878125 187.974932) scale(0.1 -0.1)">
       <use xlink:href="#DejaVuSans-31"/>
       <use xlink:href="#DejaVuSans-30" transform="translate(63.623047 0)"/>
      </g>
     </g>
    </g>
    <g id="ytick_4">
     <g id="line2d_13">
      <g>
       <use xlink:href="#m92bcc247f7" x="40.603125" y="132.670871" style="stroke: #000000; stroke-width: 0.8"/>
      </g>
     </g>
     <g id="text_15">
      <!-- 15 -->
      <g transform="translate(20.878125 136.470089) scale(0.1 -0.1)">
       <use xlink:href="#DejaVuSans-31"/>
       <use xlink:href="#DejaVuSans-35" transform="translate(63.623047 0)"/>
      </g>
     </g>
    </g>
    <g id="ytick_5">
     <g id="line2d_14">
      <g>
       <use xlink:href="#m92bcc247f7" x="40.603125" y="81.166028" style="stroke: #000000; stroke-width: 0.8"/>
      </g>
     </g>
     <g id="text_16">
      <!-- 20 -->
      <g transform="translate(20.878125 84.965247) scale(0.1 -0.1)">
       <use xlink:href="#DejaVuSans-32"/>
       <use xlink:href="#DejaVuSans-30" transform="translate(63.623047 0)"/>
      </g>
     </g>
    </g>
    <g id="ytick_6">
     <g id="line2d_15">
      <g>
       <use xlink:href="#m92bcc247f7" x="40.603125" y="29.661186" style="stroke: #000000; stroke-width: 0.8"/>
      </g>
     </g>
     <g id="text_17">
      <!-- 25 -->
      <g transform="translate(20.878125 33.460405) scale(0.1 -0.1)">
       <use xlink:href="#DejaVuSans-32"/>
       <use xlink:href="#DejaVuSans-35" transform="translate(63.623047 0)"/>
      </g>
     </g>
    </g>
    <g id="text_18">
     <!-- left wheel theta, ltheta (rad) -->
     <g transform="translate(14.798438 231.945625) rotate(-90) scale(0.1 -0.1)">
      <defs>
       <path id="DejaVuSans-6c" d="M 603 4863 
L 1178 4863 
L 1178 0 
L 603 0 
L 603 4863 
z
" transform="scale(0.015625)"/>
       <path id="DejaVuSans-66" d="M 2375 4863 
L 2375 4384 
L 1825 4384 
Q 1516 4384 1395 4259 
Q 1275 4134 1275 3809 
L 1275 3500 
L 2222 3500 
L 2222 3053 
L 1275 3053 
L 1275 0 
L 697 0 
L 697 3053 
L 147 3053 
L 147 3500 
L 697 3500 
L 697 3744 
Q 697 4328 969 4595 
Q 1241 4863 1831 4863 
L 2375 4863 
z
" transform="scale(0.015625)"/>
       <path id="DejaVuSans-77" d="M 269 3500 
L 844 3500 
L 1563 769 
L 2278 3500 
L 2956 3500 
L 3675 769 
L 4391 3500 
L 4966 3500 
L 4050 0 
L 3372 0 
L 2619 2869 
L 1863 0 
L 1184 0 
L 269 3500 
z
" transform="scale(0.015625)"/>
       <path id="DejaVuSans-68" d="M 3513 2113 
L 3513 0 
L 2938 0 
L 2938 2094 
Q 2938 2591 2744 2837 
Q 2550 3084 2163 3084 
Q 1697 3084 1428 2787 
Q 1159 2491 1159 1978 
L 1159 0 
L 581 0 
L 581 4863 
L 1159 4863 
L 1159 2956 
Q 1366 3272 1645 3428 
Q 1925 3584 2291 3584 
Q 2894 3584 3203 3211 
Q 3513 2838 3513 2113 
z
" transform="scale(0.015625)"/>
       <path id="DejaVuSans-61" d="M 2194 1759 
Q 1497 1759 1228 1600 
Q 959 1441 959 1056 
Q 959 750 1161 570 
Q 1363 391 1709 391 
Q 2188 391 2477 730 
Q 2766 1069 2766 1631 
L 2766 1759 
L 2194 1759 
z
M 3341 1997 
L 3341 0 
L 2766 0 
L 2766 531 
Q 2569 213 2275 61 
Q 1981 -91 1556 -91 
Q 1019 -91 701 211 
Q 384 513 384 1019 
Q 384 1609 779 1909 
Q 1175 2209 1959 2209 
L 2766 2209 
L 2766 2266 
Q 2766 2663 2505 2880 
Q 2244 3097 1772 3097 
Q 1472 3097 1187 3025 
Q 903 2953 641 2809 
L 641 3341 
Q 956 3463 1253 3523 
Q 1550 3584 1831 3584 
Q 2591 3584 2966 3190 
Q 3341 2797 3341 1997 
z
" transform="scale(0.015625)"/>
       <path id="DejaVuSans-72" d="M 2631 2963 
Q 2534 3019 2420 3045 
Q 2306 3072 2169 3072 
Q 1681 3072 1420 2755 
Q 1159 2438 1159 1844 
L 1159 0 
L 581 0 
L 581 3500 
L 1159 3500 
L 1159 2956 
Q 1341 3275 1631 3429 
Q 1922 3584 2338 3584 
Q 2397 3584 2469 3576 
Q 2541 3569 2628 3553 
L 2631 2963 
z
" transform="scale(0.015625)"/>
       <path id="DejaVuSans-64" d="M 2906 2969 
L 2906 4863 
L 3481 4863 
L 3481 0 
L 2906 0 
L 2906 525 
Q 2725 213 2448 61 
Q 2172 -91 1784 -91 
Q 1150 -91 751 415 
Q 353 922 353 1747 
Q 353 2572 751 3078 
Q 1150 3584 1784 3584 
Q 2172 3584 2448 3432 
Q 2725 3281 2906 2969 
z
M 947 1747 
Q 947 1113 1208 752 
Q 1469 391 1925 391 
Q 2381 391 2643 752 
Q 2906 1113 2906 1747 
Q 2906 2381 2643 2742 
Q 2381 3103 1925 3103 
Q 1469 3103 1208 2742 
Q 947 2381 947 1747 
z
" transform="scale(0.015625)"/>
      </defs>
      <use xlink:href="#DejaVuSans-6c"/>
      <use xlink:href="#DejaVuSans-65" transform="translate(27.783203 0)"/>
      <use xlink:href="#DejaVuSans-66" transform="translate(89.306641 0)"/>
      <use xlink:href="#DejaVuSans-74" transform="translate(122.761719 0)"/>
      <use xlink:href="#DejaVuSans-20" transform="translate(161.970703 0)"/>
      <use xlink:href="#DejaVuSans-77" transform="translate(193.757812 0)"/>
      <use xlink:href="#DejaVuSans-68" transform="translate(275.544922 0)"/>
      <use xlink:href="#DejaVuSans-65" transform="translate(338.923828 0)"/>
      <use xlink:href="#DejaVuSans-65" transform="translate(400.447266 0)"/>
      <use xlink:href="#DejaVuSans-6c" transform="translate(461.970703 0)"/>
      <use xlink:href="#DejaVuSans-20" transform="translate(489.753906 0)"/>
      <use xlink:href="#DejaVuSans-74" transform="translate(521.541016 0)"/>
      <use xlink:href="#DejaVuSans-68" transform="translate(560.75 0)"/>
      <use xlink:href="#DejaVuSans-65" transform="translate(624.128906 0)"/>
      <use xlink:href="#DejaVuSans-74" transform="translate(685.652344 0)"/>
      <use xlink:href="#DejaVuSans-61" transform="translate(724.861328 0)"/>
      <use xlink:href="#DejaVuSans-2c" transform="translate(786.140625 0)"/>
      <use xlink:href="#DejaVuSans-20" transform="translate(817.927734 0)"/>
      <use xlink:href="#DejaVuSans-6c" transform="translate(849.714844 0)"/>
      <use xlink:href="#DejaVuSans-74" transform="translate(877.498047 0)"/>
      <use xlink:href="#DejaVuSans-68" transform="translate(916.707031 0)"/>
      <use xlink:href="#DejaVuSans-65" transform="translate(980.085938 0)"/>
      <use xlink:href="#DejaVuSans-74" transform="translate(1041.609375 0)"/>
      <use xlink:href="#DejaVuSans-61" transform="translate(1080.818359 0)"/>
      <use xlink:href="#DejaVuSans-20" transform="translate(1142.097656 0)"/>
      <use xlink:href="#DejaVuSans-28" transform="translate(1173.884766 0)"/>
      <use xlink:href="#DejaVuSans-72" transform="translate(1212.898438 0)"/>
      <use xlink:href="#DejaVuSans-61" transform="translate(1254.011719 0)"/>
      <use xlink:href="#DejaVuSans-64" transform="translate(1315.291016 0)"/>
      <use xlink:href="#DejaVuSans-29" transform="translate(1378.767578 0)"/>
     </g>
    </g>
   </g>
   <g id="line2d_16">
    <path d="M 59.030824 282.096168 
L 62.844797 281.240457 
L 65.893797 279.709185 
L 69.814678 277.097013 
L 73.739252 274.124542 
L 77.708879 271.016956 
L 80.677375 268.810128 
L 84.686885 265.972768 
L 88.593733 263.315561 
L 92.517199 260.613318 
L 95.563983 258.40648 
L 99.486157 255.569119 
L 103.495113 252.686723 
L 107.416733 249.939444 
L 110.368057 247.91276 
L 114.368519 245.120435 
L 125.265374 237.644229 
L 129.1713 234.987022 
L 133.171577 232.284779 
L 136.138596 230.393202 
L 140.146628 227.690959 
L 144.067509 224.988717 
L 147.988945 222.286474 
L 151.03536 220.259789 
L 154.955318 217.602582 
L 158.962981 214.855304 
L 161.929999 212.828619 
L 165.849773 210.216448 
L 169.848389 207.514205 
L 173.752467 204.856998 
L 176.805529 202.785278 
L 180.725118 200.128071 
L 184.64563 197.5159 
L 188.644246 194.768611 
L 191.594647 192.741937 
L 195.599909 190.039683 
L 199.518944 187.382477 
L 202.485594 185.355792 
L 206.467776 182.653539 
L 210.371301 180.041419 
L 214.377302 177.339166 
L 217.342844 175.312451 
L 221.262248 172.700331 
L 225.259756 169.998078 
L 229.178421 167.34084 
L 232.214866 165.269109 
L 236.132608 162.611872 
L 240.051827 159.954634 
L 244.048966 157.297499 
L 247.044235 155.270783 
L 251.078487 152.4785 
L 255.02688 149.776247 
L 258.023072 147.749531 
L 262.048276 145.047278 
L 265.995746 142.345025 
L 269.077797 140.318413 
L 273.023974 137.61616 
L 276.971997 134.958922 
L 280.045739 132.887191 
L 283.962374 130.184938 
L 287.996072 127.43767 
L 291.942434 124.780432 
L 294.922562 122.753716 
L 298.947212 120.006448 
L 302.893574 117.349313 
L 305.974148 115.277582 
L 309.918479 112.620344 
L 313.864471 109.963107 
L 317.889121 107.260854 
L 320.883098 105.189123 
L 324.915319 102.441855 
L 328.860757 99.78472 
L 331.854918 97.758004 
L 335.878461 95.010736 
L 339.82353 92.353498 
L 342.904104 90.281767 
L 346.847511 87.579514 
L 350.777256 84.922379 
L 354.800798 82.220126 
L 357.79459 80.238426 
L 361.824225 77.491158 
L 365.768372 74.788905 
L 368.762163 72.762292 
L 372.784229 70.060039 
L 376.727082 67.312771 
L 379.806548 65.24104 
L 383.748663 62.538787 
L 387.678223 59.881549 
L 391.700104 57.224311 
L 394.692603 55.197699 
L 398.721315 52.45043 
L 402.6638 49.793193 
L 405.656853 47.766477 
L 409.677441 45.064224 
L 413.607 42.406986 
L 416.685912 40.335358 
L 420.62692 37.633105 
L 424.555187 34.930852 
" clip-path="url(#p69557ec63f)" style="fill: none; stroke: #1f77b4; stroke-width: 1.5; stroke-linecap: square"/>
   </g>
   <g id="line2d_17">
    <path d="M 59.029716 283.717516 
L 62.85606 282.861805 
L 66.788389 280.654971 
L 70.802884 278.132874 
L 73.760486 276.376416 
L 77.748393 274.349732 
L 81.682014 272.232975 
L 85.61582 270.161255 
L 88.668513 268.584939 
L 92.570007 266.423147 
L 96.590226 264.081201 
L 99.563153 262.369778 
L 103.495667 260.117903 
L 107.508131 257.911065 
L 111.440644 255.749273 
L 114.500169 254.082885 
L 118.432313 251.921093 
L 122.365935 249.759301 
L 125.369328 248.092913 
L 129.285593 245.976157 
L 133.30452 243.814365 
L 137.236664 241.697609 
L 140.209961 240.076257 
L 144.220393 237.914465 
L 148.152722 235.842744 
L 151.211508 234.221392 
L 155.142176 232.104636 
L 159.074505 229.897798 
L 163.069797 227.736006 
L 166.04217 226.15969 
L 170.060173 223.952851 
L 173.991579 221.791059 
L 177.907106 219.629267 
L 180.958875 218.007915 
L 184.889727 215.891159 
L 188.891297 213.684321 
L 191.863671 212.108005 
L 195.793784 209.991248 
L 199.803847 207.78442 
L 203.735069 205.667664 
L 206.777606 204.046312 
L 210.69184 201.929556 
L 214.622507 199.812799 
L 217.673354 198.146412 
L 221.602913 196.029655 
L 225.603191 193.822817 
L 229.533489 191.706061 
L 232.489429 190.084719 
L 236.497646 187.922917 
L 240.427575 185.806161 
L 243.485437 184.139763 
L 247.430691 182.023017 
L 251.390348 179.861255 
L 255.428477 177.654376 
L 258.4291 175.987988 
L 262.474984 173.826227 
L 266.433717 171.709481 
L 269.421047 170.088108 
L 273.443851 167.926347 
L 277.402584 165.764483 
L 280.490543 164.098095 
L 284.434874 161.981349 
L 288.392868 159.774573 
L 292.430074 157.612709 
L 295.415372 155.991439 
L 299.444085 153.78456 
L 303.402448 151.667814 
L 306.403072 150.046441 
L 310.438801 147.839665 
L 314.396241 145.722919 
L 317.483462 144.011413 
L 321.440164 141.849652 
L 325.397604 139.777921 
L 328.47707 138.111533 
L 332.433034 135.949772 
L 336.476702 133.787908 
L 340.433035 131.626146 
L 343.433289 129.959759 
L 347.467356 127.797997 
L 351.423689 125.636133 
L 354.510356 123.969746 
L 358.450994 121.807984 
L 362.406588 119.691238 
L 365.48513 117.979835 
L 369.439432 115.862986 
L 373.482177 113.701225 
L 376.481693 112.079853 
L 380.437287 109.873076 
L 384.471169 107.711212 
L 388.426209 105.594466 
L 391.512322 103.928078 
L 395.453883 101.811332 
L 399.393783 99.649571 
L 402.471772 97.983183 
L 406.425888 95.821319 
L 410.4522 93.614543 
L 413.451532 91.99317 
L 417.405833 89.831409 
L 421.438977 87.669545 
L 424.437569 86.048172 
" clip-path="url(#p69557ec63f)" style="fill: none; stroke: #ff7f0e; stroke-width: 1.5; stroke-linecap: square"/>
   </g>
   <g id="line2d_18">
    <path d="M 59.033039 285.203751 
L 61.909768 284.708339 
L 65.943835 282.861805 
L 69.890566 280.925195 
L 73.837667 279.348884 
L 76.864694 278.267987 
L 80.810133 276.691678 
L 84.858971 274.935218 
L 87.821928 273.674174 
L 91.751118 272.052822 
L 95.776137 270.341398 
L 98.754973 269.080354 
L 102.786271 267.36893 
L 106.73134 265.702543 
L 110.676225 264.126237 
L 113.73298 262.910228 
L 117.676941 261.288876 
L 121.708793 259.577453 
L 124.670826 258.361444 
L 128.615157 256.830174 
L 132.638699 255.298904 
L 136.582661 253.677552 
L 139.648094 252.416508 
L 143.591686 250.795156 
L 147.536201 249.173815 
L 150.594249 247.91276 
L 154.520854 246.336454 
L 158.551413 244.715112 
L 161.528771 243.499093 
L 165.456115 241.922788 
L 169.478365 240.301436 
L 173.421403 238.680084 
L 176.486098 237.419039 
L 180.428582 235.842723 
L 184.372359 234.176336 
L 187.412681 232.960327 
L 191.354427 231.338975 
L 195.383878 229.717634 
L 199.310483 228.141318 
L 202.288396 226.925309 
L 206.309722 225.303957 
L 210.251837 223.682605 
L 213.300283 222.421561 
L 217.225596 220.845245 
L 221.167157 219.268939 
L 225.18793 217.602551 
L 228.165104 216.386543 
L 232.193078 214.765191 
L 236.134085 213.143839 
L 239.111444 211.92783 
L 243.131293 210.351514 
L 247.07267 208.730173 
L 250.166169 207.469118 
L 254.104222 205.892812 
L 258.075141 204.27146 
L 262.110685 202.605073 
L 265.103369 201.389064 
L 269.159962 199.767722 
L 273.130512 198.101335 
L 276.13686 196.885336 
L 280.185329 195.263984 
L 284.141662 193.642643 
L 287.234422 192.381598 
L 291.203125 190.805282 
L 295.172568 189.138895 
L 298.257203 187.87785 
L 302.224984 186.256509 
L 306.235417 184.635157 
L 310.203751 183.058882 
L 313.210099 181.842853 
L 317.256906 180.22148 
L 321.225056 178.600108 
L 324.317262 177.339063 
L 328.285227 175.717794 
L 332.254115 174.096421 
L 335.33912 172.835377 
L 339.292868 171.214004 
L 343.334136 169.547617 
L 346.339191 168.331587 
L 350.306602 166.755333 
L 354.35304 165.088945 
L 357.342955 163.872916 
L 361.396778 162.251544 
L 365.363636 160.630274 
L 368.368875 159.36923 
L 372.41439 157.747857 
L 376.381247 156.126485 
L 379.473084 154.86544 
L 383.438833 153.289186 
L 387.406245 151.667814 
L 390.489403 150.406769 
L 394.454783 148.830412 
L 398.507684 147.164024 
L 402.473618 145.542755 
L 405.478304 144.326725 
L 409.522895 142.705353 
L 413.48846 141.083981 
L 416.579558 139.822936 
L 420.544569 138.201667 
L 424.509949 136.580294 
L 427.561534 135.31925 
" clip-path="url(#p69557ec63f)" style="fill: none; stroke: #2ca02c; stroke-width: 1.5; stroke-linecap: square"/>
   </g>
   <g id="line2d_19">
    <path d="M 59.032116 286.599911 
L 62.923824 285.969387 
L 65.908938 285.023601 
L 69.945036 283.852629 
L 73.902845 282.996917 
L 76.974187 282.231281 
L 80.91501 281.105345 
L 84.888329 279.979409 
L 88.957848 278.898511 
L 91.976012 278.0428 
L 96.053286 276.871831 
L 100.00888 275.745894 
L 102.99307 274.935218 
L 107.027506 273.854317 
L 110.968144 272.773426 
L 114.038747 271.917714 
L 117.977908 270.881849 
L 121.917992 269.800948 
L 124.981394 268.945236 
L 128.936804 267.954417 
L 132.962747 266.963597 
L 136.917602 265.792625 
L 139.902162 264.936913 
L 143.936044 263.856012 
L 147.891453 262.865182 
L 150.962056 261.964434 
L 154.915989 260.883533 
L 158.87066 259.802642 
L 161.917074 258.991966 
L 165.870822 257.911065 
L 169.911536 256.830164 
L 173.865468 255.749273 
L 176.849105 254.983633 
L 180.881695 253.902732 
L 184.835627 252.776795 
L 187.905307 251.921083 
L 191.842437 250.840192 
L 195.780305 249.804327 
L 198.842968 248.993651 
L 202.779914 247.912749 
L 206.787761 246.831858 
L 210.74077 245.795993 
L 213.723668 244.985317 
L 217.723761 243.85938 
L 221.676401 242.778479 
L 224.745896 242.012849 
L 228.697428 240.931948 
L 232.650622 239.806011 
L 236.682473 238.72511 
L 239.649122 237.95948 
L 243.68799 236.833543 
L 250.668765 234.89693 
L 254.729236 233.816029 
L 258.711234 232.735138 
L 261.810272 231.924462 
L 265.791162 230.84356 
L 269.774083 229.762659 
L 272.865366 228.951994 
L 276.846071 227.826057 
L 280.913374 226.70012 
L 283.924892 225.889444 
L 287.906151 224.853578 
L 291.965883 223.772687 
L 294.977401 222.916976 
L 299.04378 221.791038 
L 302.994204 220.800209 
L 305.99095 219.989543 
L 310.049575 218.81857 
L 314.029357 217.737669 
L 317.127287 216.926993 
L 321.106515 215.846092 
L 325.086851 214.720155 
L 328.177765 213.909489 
L 332.156439 212.873624 
L 336.222265 211.747687 
L 339.232859 210.937011 
L 343.198055 209.901156 
L 347.255571 208.775219 
L 350.266165 207.919507 
L 354.332176 206.79357 
L 358.311589 205.757705 
L 361.322737 204.992075 
L 365.380438 203.866138 
L 369.343418 202.740211 
L 372.440609 201.929535 
L 376.404881 200.89368 
L 380.383186 199.767743 
L 383.472254 198.912031 
L 387.450005 197.876176 
L 391.515092 196.750249 
L 394.525132 195.939573 
L 398.503437 194.903708 
L 402.5604 193.822807 
L 406.537228 192.69688 
L 409.62094 191.886204 
L 413.597399 190.760267 
L 417.574966 189.724412 
L 420.664587 188.913736 
L 424.640491 187.787809 
" clip-path="url(#p69557ec63f)" style="fill: none; stroke: #d62728; stroke-width: 1.5; stroke-linecap: square"/>
   </g>
   <g id="line2d_20">
    <path d="M 59.038209 287.185398 
L 62.75543 286.870136 
L 66.818671 286.149536 
L 70.789775 285.789237 
L 74.724504 285.473975 
L 77.759102 285.068638 
L 81.743131 284.34804 
L 84.854171 283.852628 
L 88.819181 283.357216 
L 92.784377 282.906842 
L 96.82823 282.276318 
L 99.815559 281.825943 
L 103.866429 281.285494 
L 107.83107 280.745045 
L 110.818399 280.384746 
L 114.86096 279.799259 
L 118.825232 279.303848 
L 121.899159 278.943549 
L 125.861954 278.403099 
L 129.826595 277.817611 
L 132.893321 277.412276 
L 136.858332 276.871821 
L 140.87615 276.331381 
L 144.806633 275.79093 
L 147.760911 275.385587 
L 151.788147 274.845136 
L 155.718999 274.304686 
L 158.759505 273.899353 
L 162.689434 273.358902 
L 166.619916 272.818452 
L 170.62998 272.323047 
L 173.58315 271.917704 
L 177.599676 271.332218 
L 181.529605 270.791767 
L 185.460088 270.296362 
L 188.493208 269.845984 
L 192.406335 269.305533 
L 196.406797 268.855164 
L 199.359782 268.404785 
L 203.289157 267.864335 
L 207.297928 267.323884 
L 211.226934 266.828469 
L 214.251007 266.378101 
L 218.17872 265.882686 
L 222.092216 265.342235 
L 226.099509 264.756749 
L 229.051941 264.351416 
L 233.066621 263.856001 
L 236.995257 263.315551 
L 239.947874 262.865182 
L 243.954244 262.324731 
L 247.897837 261.829317 
L 251.942059 261.24383 
L 254.92348 260.838497 
L 258.881105 260.343083 
L 262.917572 259.757596 
L 265.899178 259.352253 
L 269.942292 258.811813 
L 273.883669 258.271362 
L 276.866382 257.866019 
L 280.901372 257.280533 
L 284.858259 256.785128 
L 288.901558 256.289713 
L 291.883533 255.839334 
L 295.839496 255.298884 
L 299.859161 254.803479 
L 302.826733 254.3531 
L 306.868556 253.81265 
L 310.824703 253.272199 
L 313.806678 252.866866 
L 317.84093 252.371451 
L 321.797632 251.785965 
L 325.840192 251.245514 
L 328.822536 250.885217 
L 332.777946 250.299731 
L 336.796872 249.714245 
L 339.777554 249.353948 
L 343.818638 248.813497 
L 347.773308 248.228011 
L 350.754729 247.822678 
L 354.788242 247.327263 
L 358.743282 246.786812 
L 361.810747 246.336433 
L 365.764679 245.841029 
L 369.71898 245.300578 
L 373.752493 244.715092 
L 376.732806 244.309749 
L 380.772782 243.814334 
L 384.709912 243.273883 
L 387.690779 242.868551 
L 391.722076 242.283064 
L 395.661606 241.787649 
L 398.727778 241.33727 
L 402.680233 240.79682 
L 406.63398 240.346451 
L 410.666201 239.760965 
L 413.645591 239.310586 
L 417.684643 238.815171 
L 421.637467 238.27472 
L 424.617596 237.869388 
" clip-path="url(#p69557ec63f)" style="fill: none; stroke: #9467bd; stroke-width: 1.5; stroke-linecap: square"/>
   </g>
   <g id="patch_3">
    <path d="M 40.603125 299.798125 
L 40.603125 22.318125 
" style="fill: none; stroke: #000000; stroke-width: 0.8; stroke-linejoin: miter; stroke-linecap: square"/>
   </g>
   <g id="patch_4">
    <path d="M 445.988125 299.798125 
L 445.988125 22.318125 
" style="fill: none; stroke: #000000; stroke-width: 0.8; stroke-linejoin: miter; stroke-linecap: square"/>
   </g>
   <g id="patch_5">
    <path d="M 40.603125 299.798125 
L 445.988125 299.798125 
" style="fill: none; stroke: #000000; stroke-width: 0.8; stroke-linejoin: miter; stroke-linecap: square"/>
   </g>
   <g id="patch_6">
    <path d="M 40.603125 22.318125 
L 445.988125 22.318125 
" style="fill: none; stroke: #000000; stroke-width: 0.8; stroke-linejoin: miter; stroke-linecap: square"/>
   </g>
   <g id="text_19">
    <!-- left theta vs. time -->
    <g transform="translate(189.842187 16.318125) scale(0.12 -0.12)">
     <defs>
      <path id="DejaVuSans-76" d="M 191 3500 
L 800 3500 
L 1894 563 
L 2988 3500 
L 3597 3500 
L 2284 0 
L 1503 0 
L 191 3500 
z
" transform="scale(0.015625)"/>
     </defs>
     <use xlink:href="#DejaVuSans-6c"/>
     <use xlink:href="#DejaVuSans-65" transform="translate(27.783203 0)"/>
     <use xlink:href="#DejaVuSans-66" transform="translate(89.306641 0)"/>
     <use xlink:href="#DejaVuSans-74" transform="translate(122.761719 0)"/>
     <use xlink:href="#DejaVuSans-20" transform="translate(161.970703 0)"/>
     <use xlink:href="#DejaVuSans-74" transform="translate(193.757812 0)"/>
     <use xlink:href="#DejaVuSans-68" transform="translate(232.966797 0)"/>
     <use xlink:href="#DejaVuSans-65" transform="translate(296.345703 0)"/>
     <use xlink:href="#DejaVuSans-74" transform="translate(357.869141 0)"/>
     <use xlink:href="#DejaVuSans-61" transform="translate(397.078125 0)"/>
     <use xlink:href="#DejaVuSans-20" transform="translate(458.357422 0)"/>
     <use xlink:href="#DejaVuSans-76" transform="translate(490.144531 0)"/>
     <use xlink:href="#DejaVuSans-73" transform="translate(549.324219 0)"/>
     <use xlink:href="#DejaVuSans-2e" transform="translate(601.423828 0)"/>
     <use xlink:href="#DejaVuSans-20" transform="translate(633.210938 0)"/>
     <use xlink:href="#DejaVuSans-74" transform="translate(664.998047 0)"/>
     <use xlink:href="#DejaVuSans-69" transform="translate(704.207031 0)"/>
     <use xlink:href="#DejaVuSans-6d" transform="translate(731.990234 0)"/>
     <use xlink:href="#DejaVuSans-65" transform="translate(829.402344 0)"/>
    </g>
   </g>
   <g id="legend_1">
    <g id="patch_7">
     <path d="M 47.603125 103.70875 
L 164.128125 103.70875 
Q 166.128125 103.70875 166.128125 101.70875 
L 166.128125 29.318125 
Q 166.128125 27.318125 164.128125 27.318125 
L 47.603125 27.318125 
Q 45.603125 27.318125 45.603125 29.318125 
L 45.603125 101.70875 
Q 45.603125 103.70875 47.603125 103.70875 
z
" style="fill: #ffffff; opacity: 0.8; stroke: #cccccc; stroke-linejoin: miter"/>
    </g>
    <g id="line2d_21">
     <path d="M 49.603125 35.416563 
L 59.603125 35.416563 
L 69.603125 35.416563 
" style="fill: none; stroke: #1f77b4; stroke-width: 1.5; stroke-linecap: square"/>
    </g>
    <g id="text_20">
     <!-- Ref Speed = 425 -->
     <g transform="translate(77.603125 38.916563) scale(0.1 -0.1)">
      <defs>
       <path id="DejaVuSans-52" d="M 2841 2188 
Q 3044 2119 3236 1894 
Q 3428 1669 3622 1275 
L 4263 0 
L 3584 0 
L 2988 1197 
Q 2756 1666 2539 1819 
Q 2322 1972 1947 1972 
L 1259 1972 
L 1259 0 
L 628 0 
L 628 4666 
L 2053 4666 
Q 2853 4666 3247 4331 
Q 3641 3997 3641 3322 
Q 3641 2881 3436 2590 
Q 3231 2300 2841 2188 
z
M 1259 4147 
L 1259 2491 
L 2053 2491 
Q 2509 2491 2742 2702 
Q 2975 2913 2975 3322 
Q 2975 3731 2742 3939 
Q 2509 4147 2053 4147 
L 1259 4147 
z
" transform="scale(0.015625)"/>
       <path id="DejaVuSans-53" d="M 3425 4513 
L 3425 3897 
Q 3066 4069 2747 4153 
Q 2428 4238 2131 4238 
Q 1616 4238 1336 4038 
Q 1056 3838 1056 3469 
Q 1056 3159 1242 3001 
Q 1428 2844 1947 2747 
L 2328 2669 
Q 3034 2534 3370 2195 
Q 3706 1856 3706 1288 
Q 3706 609 3251 259 
Q 2797 -91 1919 -91 
Q 1588 -91 1214 -16 
Q 841 59 441 206 
L 441 856 
Q 825 641 1194 531 
Q 1563 422 1919 422 
Q 2459 422 2753 634 
Q 3047 847 3047 1241 
Q 3047 1584 2836 1778 
Q 2625 1972 2144 2069 
L 1759 2144 
Q 1053 2284 737 2584 
Q 422 2884 422 3419 
Q 422 4038 858 4394 
Q 1294 4750 2059 4750 
Q 2388 4750 2728 4690 
Q 3069 4631 3425 4513 
z
" transform="scale(0.015625)"/>
       <path id="DejaVuSans-70" d="M 1159 525 
L 1159 -1331 
L 581 -1331 
L 581 3500 
L 1159 3500 
L 1159 2969 
Q 1341 3281 1617 3432 
Q 1894 3584 2278 3584 
Q 2916 3584 3314 3078 
Q 3713 2572 3713 1747 
Q 3713 922 3314 415 
Q 2916 -91 2278 -91 
Q 1894 -91 1617 61 
Q 1341 213 1159 525 
z
M 3116 1747 
Q 3116 2381 2855 2742 
Q 2594 3103 2138 3103 
Q 1681 3103 1420 2742 
Q 1159 2381 1159 1747 
Q 1159 1113 1420 752 
Q 1681 391 2138 391 
Q 2594 391 2855 752 
Q 3116 1113 3116 1747 
z
" transform="scale(0.015625)"/>
       <path id="DejaVuSans-3d" d="M 678 2906 
L 4684 2906 
L 4684 2381 
L 678 2381 
L 678 2906 
z
M 678 1631 
L 4684 1631 
L 4684 1100 
L 678 1100 
L 678 1631 
z
" transform="scale(0.015625)"/>
       <path id="DejaVuSans-34" d="M 2419 4116 
L 825 1625 
L 2419 1625 
L 2419 4116 
z
M 2253 4666 
L 3047 4666 
L 3047 1625 
L 3713 1625 
L 3713 1100 
L 3047 1100 
L 3047 0 
L 2419 0 
L 2419 1100 
L 313 1100 
L 313 1709 
L 2253 4666 
z
" transform="scale(0.015625)"/>
      </defs>
      <use xlink:href="#DejaVuSans-52"/>
      <use xlink:href="#DejaVuSans-65" transform="translate(64.982422 0)"/>
      <use xlink:href="#DejaVuSans-66" transform="translate(126.505859 0)"/>
      <use xlink:href="#DejaVuSans-20" transform="translate(161.710938 0)"/>
      <use xlink:href="#DejaVuSans-53" transform="translate(193.498047 0)"/>
      <use xlink:href="#DejaVuSans-70" transform="translate(256.974609 0)"/>
      <use xlink:href="#DejaVuSans-65" transform="translate(320.451172 0)"/>
      <use xlink:href="#DejaVuSans-65" transform="translate(381.974609 0)"/>
      <use xlink:href="#DejaVuSans-64" transform="translate(443.498047 0)"/>
      <use xlink:href="#DejaVuSans-20" transform="translate(506.974609 0)"/>
      <use xlink:href="#DejaVuSans-3d" transform="translate(538.761719 0)"/>
      <use xlink:href="#DejaVuSans-20" transform="translate(622.550781 0)"/>
      <use xlink:href="#DejaVuSans-34" transform="translate(654.337891 0)"/>
      <use xlink:href="#DejaVuSans-32" transform="translate(717.960938 0)"/>
      <use xlink:href="#DejaVuSans-35" transform="translate(781.583984 0)"/>
     </g>
    </g>
    <g id="line2d_22">
     <path d="M 49.603125 50.094688 
L 59.603125 50.094688 
L 69.603125 50.094688 
" style="fill: none; stroke: #ff7f0e; stroke-width: 1.5; stroke-linecap: square"/>
    </g>
    <g id="text_21">
     <!-- Ref Speed = 340 -->
     <g transform="translate(77.603125 53.594688) scale(0.1 -0.1)">
      <defs>
       <path id="DejaVuSans-33" d="M 2597 2516 
Q 3050 2419 3304 2112 
Q 3559 1806 3559 1356 
Q 3559 666 3084 287 
Q 2609 -91 1734 -91 
Q 1441 -91 1130 -33 
Q 819 25 488 141 
L 488 750 
Q 750 597 1062 519 
Q 1375 441 1716 441 
Q 2309 441 2620 675 
Q 2931 909 2931 1356 
Q 2931 1769 2642 2001 
Q 2353 2234 1838 2234 
L 1294 2234 
L 1294 2753 
L 1863 2753 
Q 2328 2753 2575 2939 
Q 2822 3125 2822 3475 
Q 2822 3834 2567 4026 
Q 2313 4219 1838 4219 
Q 1578 4219 1281 4162 
Q 984 4106 628 3988 
L 628 4550 
Q 988 4650 1302 4700 
Q 1616 4750 1894 4750 
Q 2613 4750 3031 4423 
Q 3450 4097 3450 3541 
Q 3450 3153 3228 2886 
Q 3006 2619 2597 2516 
z
" transform="scale(0.015625)"/>
      </defs>
      <use xlink:href="#DejaVuSans-52"/>
      <use xlink:href="#DejaVuSans-65" transform="translate(64.982422 0)"/>
      <use xlink:href="#DejaVuSans-66" transform="translate(126.505859 0)"/>
      <use xlink:href="#DejaVuSans-20" transform="translate(161.710938 0)"/>
      <use xlink:href="#DejaVuSans-53" transform="translate(193.498047 0)"/>
      <use xlink:href="#DejaVuSans-70" transform="translate(256.974609 0)"/>
      <use xlink:href="#DejaVuSans-65" transform="translate(320.451172 0)"/>
      <use xlink:href="#DejaVuSans-65" transform="translate(381.974609 0)"/>
      <use xlink:href="#DejaVuSans-64" transform="translate(443.498047 0)"/>
      <use xlink:href="#DejaVuSans-20" transform="translate(506.974609 0)"/>
      <use xlink:href="#DejaVuSans-3d" transform="translate(538.761719 0)"/>
      <use xlink:href="#DejaVuSans-20" transform="translate(622.550781 0)"/>
      <use xlink:href="#DejaVuSans-33" transform="translate(654.337891 0)"/>
      <use xlink:href="#DejaVuSans-34" transform="translate(717.960938 0)"/>
      <use xlink:href="#DejaVuSans-30" transform="translate(781.583984 0)"/>
     </g>
    </g>
    <g id="line2d_23">
     <path d="M 49.603125 64.772813 
L 59.603125 64.772813 
L 69.603125 64.772813 
" style="fill: none; stroke: #2ca02c; stroke-width: 1.5; stroke-linecap: square"/>
    </g>
    <g id="text_22">
     <!-- Ref Speed = 255 -->
     <g transform="translate(77.603125 68.272813) scale(0.1 -0.1)">
      <use xlink:href="#DejaVuSans-52"/>
      <use xlink:href="#DejaVuSans-65" transform="translate(64.982422 0)"/>
      <use xlink:href="#DejaVuSans-66" transform="translate(126.505859 0)"/>
      <use xlink:href="#DejaVuSans-20" transform="translate(161.710938 0)"/>
      <use xlink:href="#DejaVuSans-53" transform="translate(193.498047 0)"/>
      <use xlink:href="#DejaVuSans-70" transform="translate(256.974609 0)"/>
      <use xlink:href="#DejaVuSans-65" transform="translate(320.451172 0)"/>
      <use xlink:href="#DejaVuSans-65" transform="translate(381.974609 0)"/>
      <use xlink:href="#DejaVuSans-64" transform="translate(443.498047 0)"/>
      <use xlink:href="#DejaVuSans-20" transform="translate(506.974609 0)"/>
      <use xlink:href="#DejaVuSans-3d" transform="translate(538.761719 0)"/>
      <use xlink:href="#DejaVuSans-20" transform="translate(622.550781 0)"/>
      <use xlink:href="#DejaVuSans-32" transform="translate(654.337891 0)"/>
      <use xlink:href="#DejaVuSans-35" transform="translate(717.960938 0)"/>
      <use xlink:href="#DejaVuSans-35" transform="translate(781.583984 0)"/>
     </g>
    </g>
    <g id="line2d_24">
     <path d="M 49.603125 79.450938 
L 59.603125 79.450938 
L 69.603125 79.450938 
" style="fill: none; stroke: #d62728; stroke-width: 1.5; stroke-linecap: square"/>
    </g>
    <g id="text_23">
     <!-- Ref Speed = 170 -->
     <g transform="translate(77.603125 82.950938) scale(0.1 -0.1)">
      <use xlink:href="#DejaVuSans-52"/>
      <use xlink:href="#DejaVuSans-65" transform="translate(64.982422 0)"/>
      <use xlink:href="#DejaVuSans-66" transform="translate(126.505859 0)"/>
      <use xlink:href="#DejaVuSans-20" transform="translate(161.710938 0)"/>
      <use xlink:href="#DejaVuSans-53" transform="translate(193.498047 0)"/>
      <use xlink:href="#DejaVuSans-70" transform="translate(256.974609 0)"/>
      <use xlink:href="#DejaVuSans-65" transform="translate(320.451172 0)"/>
      <use xlink:href="#DejaVuSans-65" transform="translate(381.974609 0)"/>
      <use xlink:href="#DejaVuSans-64" transform="translate(443.498047 0)"/>
      <use xlink:href="#DejaVuSans-20" transform="translate(506.974609 0)"/>
      <use xlink:href="#DejaVuSans-3d" transform="translate(538.761719 0)"/>
      <use xlink:href="#DejaVuSans-20" transform="translate(622.550781 0)"/>
      <use xlink:href="#DejaVuSans-31" transform="translate(654.337891 0)"/>
      <use xlink:href="#DejaVuSans-37" transform="translate(717.960938 0)"/>
      <use xlink:href="#DejaVuSans-30" transform="translate(781.583984 0)"/>
     </g>
    </g>
    <g id="line2d_25">
     <path d="M 49.603125 94.129063 
L 59.603125 94.129063 
L 69.603125 94.129063 
" style="fill: none; stroke: #9467bd; stroke-width: 1.5; stroke-linecap: square"/>
    </g>
    <g id="text_24">
     <!-- Ref Speed = 85 -->
     <g transform="translate(77.603125 97.629063) scale(0.1 -0.1)">
      <defs>
       <path id="DejaVuSans-38" d="M 2034 2216 
Q 1584 2216 1326 1975 
Q 1069 1734 1069 1313 
Q 1069 891 1326 650 
Q 1584 409 2034 409 
Q 2484 409 2743 651 
Q 3003 894 3003 1313 
Q 3003 1734 2745 1975 
Q 2488 2216 2034 2216 
z
M 1403 2484 
Q 997 2584 770 2862 
Q 544 3141 544 3541 
Q 544 4100 942 4425 
Q 1341 4750 2034 4750 
Q 2731 4750 3128 4425 
Q 3525 4100 3525 3541 
Q 3525 3141 3298 2862 
Q 3072 2584 2669 2484 
Q 3125 2378 3379 2068 
Q 3634 1759 3634 1313 
Q 3634 634 3220 271 
Q 2806 -91 2034 -91 
Q 1263 -91 848 271 
Q 434 634 434 1313 
Q 434 1759 690 2068 
Q 947 2378 1403 2484 
z
M 1172 3481 
Q 1172 3119 1398 2916 
Q 1625 2713 2034 2713 
Q 2441 2713 2670 2916 
Q 2900 3119 2900 3481 
Q 2900 3844 2670 4047 
Q 2441 4250 2034 4250 
Q 1625 4250 1398 4047 
Q 1172 3844 1172 3481 
z
" transform="scale(0.015625)"/>
      </defs>
      <use xlink:href="#DejaVuSans-52"/>
      <use xlink:href="#DejaVuSans-65" transform="translate(64.982422 0)"/>
      <use xlink:href="#DejaVuSans-66" transform="translate(126.505859 0)"/>
      <use xlink:href="#DejaVuSans-20" transform="translate(161.710938 0)"/>
      <use xlink:href="#DejaVuSans-53" transform="translate(193.498047 0)"/>
      <use xlink:href="#DejaVuSans-70" transform="translate(256.974609 0)"/>
      <use xlink:href="#DejaVuSans-65" transform="translate(320.451172 0)"/>
      <use xlink:href="#DejaVuSans-65" transform="translate(381.974609 0)"/>
      <use xlink:href="#DejaVuSans-64" transform="translate(443.498047 0)"/>
      <use xlink:href="#DejaVuSans-20" transform="translate(506.974609 0)"/>
      <use xlink:href="#DejaVuSans-3d" transform="translate(538.761719 0)"/>
      <use xlink:href="#DejaVuSans-20" transform="translate(622.550781 0)"/>
      <use xlink:href="#DejaVuSans-38" transform="translate(654.337891 0)"/>
      <use xlink:href="#DejaVuSans-35" transform="translate(717.960938 0)"/>
     </g>
    </g>
   </g>
  </g>
 </g>
 <defs>
  <clipPath id="p69557ec63f">
   <rect x="40.603125" y="22.318125" width="405.385" height="277.48"/>
  </clipPath>
 </defs>
</svg>
