<?xml version="1.0" encoding="utf-8" standalone="no"?>
<!DOCTYPE svg PUBLIC "-//W3C//DTD SVG 1.1//EN"
  "http://www.w3.org/Graphics/SVG/1.1/DTD/svg11.dtd">
<svg xmlns:xlink="http://www.w3.org/1999/xlink" width="453.115625pt" height="337.354375pt" viewBox="0 0 453.115625 337.354375" xmlns="http://www.w3.org/2000/svg" version="1.1">
 <metadata>
  <rdf:RDF xmlns:dc="http://purl.org/dc/elements/1.1/" xmlns:cc="http://creativecommons.org/ns#" xmlns:rdf="http://www.w3.org/1999/02/22-rdf-syntax-ns#">
   <cc:Work>
    <dc:type rdf:resource="http://purl.org/dc/dcmitype/StillImage"/>
    <dc:date>2025-10-29T21:28:20.709645</dc:date>
    <dc:format>image/svg+xml</dc:format>
    <dc:creator>
     <cc:Agent>
      <dc:title>Matplotlib v3.10.6, https://matplotlib.org/</dc:title>
     </cc:Agent>
    </dc:creator>
   </cc:Work>
  </rdf:RDF>
 </metadata>
 <defs>
  <style type="text/css">*{stroke-linejoin: round; stroke-linecap: butt}</style>
 </defs>
 <g id="figure_1">
  <g id="patch_1">
   <path d="M 0 337.354375 
L 453.115625 337.354375 
L 453.115625 0 
L 0 0 
z
" style="fill: #ffffff"/>
  </g>
  <g id="axes_1">
   <g id="patch_2">
    <path d="M 46.965625 299.798125 
L 445.915625 299.798125 
L 445.915625 22.318125 
L 46.965625 22.318125 
z
" style="fill: #ffffff"/>
   </g>
   <g id="matplotlib.axis_1">
    <g id="xtick_1">
     <g id="line2d_1">
      <defs>
       <path id="m13767c00de" d="M 0 0 
L 0 3.5 
" style="stroke: #000000; stroke-width: 0.8"/>
      </defs>
      <g>
       <use xlink:href="#m13767c00de" x="64.895015" y="299.798125" style="stroke: #000000; stroke-width: 0.8"/>
      </g>
     </g>
     <g id="text_1">
      <!-- 0.00 -->
      <g transform="translate(53.762202 314.396563) scale(0.1 -0.1)">
       <defs>
        <path id="DejaVuSans-30" d="M 2034 4250 
Q 1547 4250 1301 3770 
Q 1056 3291 1056 2328 
Q 1056 1369 1301 889 
Q 1547 409 2034 409 
Q 2525 409 2770 889 
Q 3016 1369 3016 2328 
Q 3016 3291 2770 3770 
Q 2525 4250 2034 4250 
z
M 2034 4750 
Q 2819 4750 3233 4129 
Q 3647 3509 3647 2328 
Q 3647 1150 3233 529 
Q 2819 -91 2034 -91 
Q 1250 -91 836 529 
Q 422 1150 422 2328 
Q 422 3509 836 4129 
Q 1250 4750 2034 4750 
z
" transform="scale(0.015625)"/>
        <path id="DejaVuSans-2e" d="M 684 794 
L 1344 794 
L 1344 0 
L 684 0 
L 684 794 
z
" transform="scale(0.015625)"/>
       </defs>
       <use xlink:href="#DejaVuSans-30"/>
       <use xlink:href="#DejaVuSans-2e" transform="translate(63.623047 0)"/>
       <use xlink:href="#DejaVuSans-30" transform="translate(95.410156 0)"/>
       <use xlink:href="#DejaVuSans-30" transform="translate(159.033203 0)"/>
      </g>
     </g>
    </g>
    <g id="xtick_2">
     <g id="line2d_2">
      <g>
       <use xlink:href="#m13767c00de" x="110.263134" y="299.798125" style="stroke: #000000; stroke-width: 0.8"/>
      </g>
     </g>
     <g id="text_2">
      <!-- 0.25 -->
      <g transform="translate(99.130322 314.396563) scale(0.1 -0.1)">
       <defs>
        <path id="DejaVuSans-32" d="M 1228 531 
L 3431 531 
L 3431 0 
L 469 0 
L 469 531 
Q 828 903 1448 1529 
Q 2069 2156 2228 2338 
Q 2531 2678 2651 2914 
Q 2772 3150 2772 3378 
Q 2772 3750 2511 3984 
Q 2250 4219 1831 4219 
Q 1534 4219 1204 4116 
Q 875 4013 500 3803 
L 500 4441 
Q 881 4594 1212 4672 
Q 1544 4750 1819 4750 
Q 2544 4750 2975 4387 
Q 3406 4025 3406 3419 
Q 3406 3131 3298 2873 
Q 3191 2616 2906 2266 
Q 2828 2175 2409 1742 
Q 1991 1309 1228 531 
z
" transform="scale(0.015625)"/>
        <path id="DejaVuSans-35" d="M 691 4666 
L 3169 4666 
L 3169 4134 
L 1269 4134 
L 1269 2991 
Q 1406 3038 1543 3061 
Q 1681 3084 1819 3084 
Q 2600 3084 3056 2656 
Q 3513 2228 3513 1497 
Q 3513 744 3044 326 
Q 2575 -91 1722 -91 
Q 1428 -91 1123 -41 
Q 819 9 494 109 
L 494 744 
Q 775 591 1075 516 
Q 1375 441 1709 441 
Q 2250 441 2565 725 
Q 2881 1009 2881 1497 
Q 2881 1984 2565 2268 
Q 2250 2553 1709 2553 
Q 1456 2553 1204 2497 
Q 953 2441 691 2322 
L 691 4666 
z
" transform="scale(0.015625)"/>
       </defs>
       <use xlink:href="#DejaVuSans-30"/>
       <use xlink:href="#DejaVuSans-2e" transform="translate(63.623047 0)"/>
       <use xlink:href="#DejaVuSans-32" transform="translate(95.410156 0)"/>
       <use xlink:href="#DejaVuSans-35" transform="translate(159.033203 0)"/>
      </g>
     </g>
    </g>
    <g id="xtick_3">
     <g id="line2d_3">
      <g>
       <use xlink:href="#m13767c00de" x="155.631253" y="299.798125" style="stroke: #000000; stroke-width: 0.8"/>
      </g>
     </g>
     <g id="text_3">
      <!-- 0.50 -->
      <g transform="translate(144.498441 314.396563) scale(0.1 -0.1)">
       <use xlink:href="#DejaVuSans-30"/>
       <use xlink:href="#DejaVuSans-2e" transform="translate(63.623047 0)"/>
       <use xlink:href="#DejaVuSans-35" transform="translate(95.410156 0)"/>
       <use xlink:href="#DejaVuSans-30" transform="translate(159.033203 0)"/>
      </g>
     </g>
    </g>
    <g id="xtick_4">
     <g id="line2d_4">
      <g>
       <use xlink:href="#m13767c00de" x="200.999372" y="299.798125" style="stroke: #000000; stroke-width: 0.8"/>
      </g>
     </g>
     <g id="text_4">
      <!-- 0.75 -->
      <g transform="translate(189.86656 314.396563) scale(0.1 -0.1)">
       <defs>
        <path id="DejaVuSans-37" d="M 525 4666 
L 3525 4666 
L 3525 4397 
L 1831 0 
L 1172 0 
L 2766 4134 
L 525 4134 
L 525 4666 
z
" transform="scale(0.015625)"/>
       </defs>
       <use xlink:href="#DejaVuSans-30"/>
       <use xlink:href="#DejaVuSans-2e" transform="translate(63.623047 0)"/>
       <use xlink:href="#DejaVuSans-37" transform="translate(95.410156 0)"/>
       <use xlink:href="#DejaVuSans-35" transform="translate(159.033203 0)"/>
      </g>
     </g>
    </g>
    <g id="xtick_5">
     <g id="line2d_5">
      <g>
       <use xlink:href="#m13767c00de" x="246.367492" y="299.798125" style="stroke: #000000; stroke-width: 0.8"/>
      </g>
     </g>
     <g id="text_5">
      <!-- 1.00 -->
      <g transform="translate(235.234679 314.396563) scale(0.1 -0.1)">
       <defs>
        <path id="DejaVuSans-31" d="M 794 531 
L 1825 531 
L 1825 4091 
L 703 3866 
L 703 4441 
L 1819 4666 
L 2450 4666 
L 2450 531 
L 3481 531 
L 3481 0 
L 794 0 
L 794 531 
z
" transform="scale(0.015625)"/>
       </defs>
       <use xlink:href="#DejaVuSans-31"/>
       <use xlink:href="#DejaVuSans-2e" transform="translate(63.623047 0)"/>
       <use xlink:href="#DejaVuSans-30" transform="translate(95.410156 0)"/>
       <use xlink:href="#DejaVuSans-30" transform="translate(159.033203 0)"/>
      </g>
     </g>
    </g>
    <g id="xtick_6">
     <g id="line2d_6">
      <g>
       <use xlink:href="#m13767c00de" x="291.735611" y="299.798125" style="stroke: #000000; stroke-width: 0.8"/>
      </g>
     </g>
     <g id="text_6">
      <!-- 1.25 -->
      <g transform="translate(280.602798 314.396563) scale(0.1 -0.1)">
       <use xlink:href="#DejaVuSans-31"/>
       <use xlink:href="#DejaVuSans-2e" transform="translate(63.623047 0)"/>
       <use xlink:href="#DejaVuSans-32" transform="translate(95.410156 0)"/>
       <use xlink:href="#DejaVuSans-35" transform="translate(159.033203 0)"/>
      </g>
     </g>
    </g>
    <g id="xtick_7">
     <g id="line2d_7">
      <g>
       <use xlink:href="#m13767c00de" x="337.10373" y="299.798125" style="stroke: #000000; stroke-width: 0.8"/>
      </g>
     </g>
     <g id="text_7">
      <!-- 1.50 -->
      <g transform="translate(325.970917 314.396563) scale(0.1 -0.1)">
       <use xlink:href="#DejaVuSans-31"/>
       <use xlink:href="#DejaVuSans-2e" transform="translate(63.623047 0)"/>
       <use xlink:href="#DejaVuSans-35" transform="translate(95.410156 0)"/>
       <use xlink:href="#DejaVuSans-30" transform="translate(159.033203 0)"/>
      </g>
     </g>
    </g>
    <g id="xtick_8">
     <g id="line2d_8">
      <g>
       <use xlink:href="#m13767c00de" x="382.471849" y="299.798125" style="stroke: #000000; stroke-width: 0.8"/>
      </g>
     </g>
     <g id="text_8">
      <!-- 1.75 -->
      <g transform="translate(371.339037 314.396563) scale(0.1 -0.1)">
       <use xlink:href="#DejaVuSans-31"/>
       <use xlink:href="#DejaVuSans-2e" transform="translate(63.623047 0)"/>
       <use xlink:href="#DejaVuSans-37" transform="translate(95.410156 0)"/>
       <use xlink:href="#DejaVuSans-35" transform="translate(159.033203 0)"/>
      </g>
     </g>
    </g>
    <g id="xtick_9">
     <g id="line2d_9">
      <g>
       <use xlink:href="#m13767c00de" x="427.839968" y="299.798125" style="stroke: #000000; stroke-width: 0.8"/>
      </g>
     </g>
     <g id="text_9">
      <!-- 2.00 -->
      <g transform="translate(416.707156 314.396563) scale(0.1 -0.1)">
       <use xlink:href="#DejaVuSans-32"/>
       <use xlink:href="#DejaVuSans-2e" transform="translate(63.623047 0)"/>
       <use xlink:href="#DejaVuSans-30" transform="translate(95.410156 0)"/>
       <use xlink:href="#DejaVuSans-30" transform="translate(159.033203 0)"/>
      </g>
     </g>
    </g>
    <g id="text_10">
     <!-- time, t (us) -->
     <g transform="translate(218.742188 328.074688) scale(0.1 -0.1)">
      <defs>
       <path id="DejaVuSans-74" d="M 1172 4494 
L 1172 3500 
L 2356 3500 
L 2356 3053 
L 1172 3053 
L 1172 1153 
Q 1172 725 1289 603 
Q 1406 481 1766 481 
L 2356 481 
L 2356 0 
L 1766 0 
Q 1100 0 847 248 
Q 594 497 594 1153 
L 594 3053 
L 172 3053 
L 172 3500 
L 594 3500 
L 594 4494 
L 1172 4494 
z
" transform="scale(0.015625)"/>
       <path id="DejaVuSans-69" d="M 603 3500 
L 1178 3500 
L 1178 0 
L 603 0 
L 603 3500 
z
M 603 4863 
L 1178 4863 
L 1178 4134 
L 603 4134 
L 603 4863 
z
" transform="scale(0.015625)"/>
       <path id="DejaVuSans-6d" d="M 3328 2828 
Q 3544 3216 3844 3400 
Q 4144 3584 4550 3584 
Q 5097 3584 5394 3201 
Q 5691 2819 5691 2113 
L 5691 0 
L 5113 0 
L 5113 2094 
Q 5113 2597 4934 2840 
Q 4756 3084 4391 3084 
Q 3944 3084 3684 2787 
Q 3425 2491 3425 1978 
L 3425 0 
L 2847 0 
L 2847 2094 
Q 2847 2600 2669 2842 
Q 2491 3084 2119 3084 
Q 1678 3084 1418 2786 
Q 1159 2488 1159 1978 
L 1159 0 
L 581 0 
L 581 3500 
L 1159 3500 
L 1159 2956 
Q 1356 3278 1631 3431 
Q 1906 3584 2284 3584 
Q 2666 3584 2933 3390 
Q 3200 3197 3328 2828 
z
" transform="scale(0.015625)"/>
       <path id="DejaVuSans-65" d="M 3597 1894 
L 3597 1613 
L 953 1613 
Q 991 1019 1311 708 
Q 1631 397 2203 397 
Q 2534 397 2845 478 
Q 3156 559 3463 722 
L 3463 178 
Q 3153 47 2828 -22 
Q 2503 -91 2169 -91 
Q 1331 -91 842 396 
Q 353 884 353 1716 
Q 353 2575 817 3079 
Q 1281 3584 2069 3584 
Q 2775 3584 3186 3129 
Q 3597 2675 3597 1894 
z
M 3022 2063 
Q 3016 2534 2758 2815 
Q 2500 3097 2075 3097 
Q 1594 3097 1305 2825 
Q 1016 2553 972 2059 
L 3022 2063 
z
" transform="scale(0.015625)"/>
       <path id="DejaVuSans-2c" d="M 750 794 
L 1409 794 
L 1409 256 
L 897 -744 
L 494 -744 
L 750 256 
L 750 794 
z
" transform="scale(0.015625)"/>
       <path id="DejaVuSans-20" transform="scale(0.015625)"/>
       <path id="DejaVuSans-28" d="M 1984 4856 
Q 1566 4138 1362 3434 
Q 1159 2731 1159 2009 
Q 1159 1288 1364 580 
Q 1569 -128 1984 -844 
L 1484 -844 
Q 1016 -109 783 600 
Q 550 1309 550 2009 
Q 550 2706 781 3412 
Q 1013 4119 1484 4856 
L 1984 4856 
z
" transform="scale(0.015625)"/>
       <path id="DejaVuSans-75" d="M 544 1381 
L 544 3500 
L 1119 3500 
L 1119 1403 
Q 1119 906 1312 657 
Q 1506 409 1894 409 
Q 2359 409 2629 706 
Q 2900 1003 2900 1516 
L 2900 3500 
L 3475 3500 
L 3475 0 
L 2900 0 
L 2900 538 
Q 2691 219 2414 64 
Q 2138 -91 1772 -91 
Q 1169 -91 856 284 
Q 544 659 544 1381 
z
M 1991 3584 
L 1991 3584 
z
" transform="scale(0.015625)"/>
       <path id="DejaVuSans-73" d="M 2834 3397 
L 2834 2853 
Q 2591 2978 2328 3040 
Q 2066 3103 1784 3103 
Q 1356 3103 1142 2972 
Q 928 2841 928 2578 
Q 928 2378 1081 2264 
Q 1234 2150 1697 2047 
L 1894 2003 
Q 2506 1872 2764 1633 
Q 3022 1394 3022 966 
Q 3022 478 2636 193 
Q 2250 -91 1575 -91 
Q 1294 -91 989 -36 
Q 684 19 347 128 
L 347 722 
Q 666 556 975 473 
Q 1284 391 1588 391 
Q 1994 391 2212 530 
Q 2431 669 2431 922 
Q 2431 1156 2273 1281 
Q 2116 1406 1581 1522 
L 1381 1569 
Q 847 1681 609 1914 
Q 372 2147 372 2553 
Q 372 3047 722 3315 
Q 1072 3584 1716 3584 
Q 2034 3584 2315 3537 
Q 2597 3491 2834 3397 
z
" transform="scale(0.015625)"/>
       <path id="DejaVuSans-29" d="M 513 4856 
L 1013 4856 
Q 1481 4119 1714 3412 
Q 1947 2706 1947 2009 
Q 1947 1309 1714 600 
Q 1481 -109 1013 -844 
L 513 -844 
Q 928 -128 1133 580 
Q 1338 1288 1338 2009 
Q 1338 2731 1133 3434 
Q 928 4138 513 4856 
z
" transform="scale(0.015625)"/>
      </defs>
      <use xlink:href="#DejaVuSans-74"/>
      <use xlink:href="#DejaVuSans-69" transform="translate(39.208984 0)"/>
      <use xlink:href="#DejaVuSans-6d" transform="translate(66.992188 0)"/>
      <use xlink:href="#DejaVuSans-65" transform="translate(164.404297 0)"/>
      <use xlink:href="#DejaVuSans-2c" transform="translate(225.927734 0)"/>
      <use xlink:href="#DejaVuSans-20" transform="translate(257.714844 0)"/>
      <use xlink:href="#DejaVuSans-74" transform="translate(289.501953 0)"/>
      <use xlink:href="#DejaVuSans-20" transform="translate(328.710938 0)"/>
      <use xlink:href="#DejaVuSans-28" transform="translate(360.498047 0)"/>
      <use xlink:href="#DejaVuSans-75" transform="translate(399.511719 0)"/>
      <use xlink:href="#DejaVuSans-73" transform="translate(462.890625 0)"/>
      <use xlink:href="#DejaVuSans-29" transform="translate(514.990234 0)"/>
     </g>
    </g>
    <g id="text_11">
     <!-- 1e6 -->
     <g transform="translate(427.0375 327.074688) scale(0.1 -0.1)">
      <defs>
       <path id="DejaVuSans-36" d="M 2113 2584 
Q 1688 2584 1439 2293 
Q 1191 2003 1191 1497 
Q 1191 994 1439 701 
Q 1688 409 2113 409 
Q 2538 409 2786 701 
Q 3034 994 3034 1497 
Q 3034 2003 2786 2293 
Q 2538 2584 2113 2584 
z
M 3366 4563 
L 3366 3988 
Q 3128 4100 2886 4159 
Q 2644 4219 2406 4219 
Q 1781 4219 1451 3797 
Q 1122 3375 1075 2522 
Q 1259 2794 1537 2939 
Q 1816 3084 2150 3084 
Q 2853 3084 3261 2657 
Q 3669 2231 3669 1497 
Q 3669 778 3244 343 
Q 2819 -91 2113 -91 
Q 1303 -91 875 529 
Q 447 1150 447 2328 
Q 447 3434 972 4092 
Q 1497 4750 2381 4750 
Q 2619 4750 2861 4703 
Q 3103 4656 3366 4563 
z
" transform="scale(0.015625)"/>
      </defs>
      <use xlink:href="#DejaVuSans-31"/>
      <use xlink:href="#DejaVuSans-65" transform="translate(63.623047 0)"/>
      <use xlink:href="#DejaVuSans-36" transform="translate(125.146484 0)"/>
     </g>
    </g>
   </g>
   <g id="matplotlib.axis_2">
    <g id="ytick_1">
     <g id="line2d_10">
      <defs>
       <path id="m3fa0fe338e" d="M 0 0 
L -3.5 0 
" style="stroke: #000000; stroke-width: 0.8"/>
      </defs>
      <g>
       <use xlink:href="#m3fa0fe338e" x="46.965625" y="287.185398" style="stroke: #000000; stroke-width: 0.8"/>
      </g>
     </g>
     <g id="text_12">
      <!-- 0 -->
      <g transform="translate(33.603125 290.984616) scale(0.1 -0.1)">
       <use xlink:href="#DejaVuSans-30"/>
      </g>
     </g>
    </g>
    <g id="ytick_2">
     <g id="line2d_11">
      <g>
       <use xlink:href="#m3fa0fe338e" x="46.965625" y="245.832194" style="stroke: #000000; stroke-width: 0.8"/>
      </g>
     </g>
     <g id="text_13">
      <!-- 100 -->
      <g transform="translate(20.878125 249.631412) scale(0.1 -0.1)">
       <use xlink:href="#DejaVuSans-31"/>
       <use xlink:href="#DejaVuSans-30" transform="translate(63.623047 0)"/>
       <use xlink:href="#DejaVuSans-30" transform="translate(127.246094 0)"/>
      </g>
     </g>
    </g>
    <g id="ytick_3">
     <g id="line2d_12">
      <g>
       <use xlink:href="#m3fa0fe338e" x="46.965625" y="204.478989" style="stroke: #000000; stroke-width: 0.8"/>
      </g>
     </g>
     <g id="text_14">
      <!-- 200 -->
      <g transform="translate(20.878125 208.278208) scale(0.1 -0.1)">
       <use xlink:href="#DejaVuSans-32"/>
       <use xlink:href="#DejaVuSans-30" transform="translate(63.623047 0)"/>
       <use xlink:href="#DejaVuSans-30" transform="translate(127.246094 0)"/>
      </g>
     </g>
    </g>
    <g id="ytick_4">
     <g id="line2d_13">
      <g>
       <use xlink:href="#m3fa0fe338e" x="46.965625" y="163.125785" style="stroke: #000000; stroke-width: 0.8"/>
      </g>
     </g>
     <g id="text_15">
      <!-- 300 -->
      <g transform="translate(20.878125 166.925004) scale(0.1 -0.1)">
       <defs>
        <path id="DejaVuSans-33" d="M 2597 2516 
Q 3050 2419 3304 2112 
Q 3559 1806 3559 1356 
Q 3559 666 3084 287 
Q 2609 -91 1734 -91 
Q 1441 -91 1130 -33 
Q 819 25 488 141 
L 488 750 
Q 750 597 1062 519 
Q 1375 441 1716 441 
Q 2309 441 2620 675 
Q 2931 909 2931 1356 
Q 2931 1769 2642 2001 
Q 2353 2234 1838 2234 
L 1294 2234 
L 1294 2753 
L 1863 2753 
Q 2328 2753 2575 2939 
Q 2822 3125 2822 3475 
Q 2822 3834 2567 4026 
Q 2313 4219 1838 4219 
Q 1578 4219 1281 4162 
Q 984 4106 628 3988 
L 628 4550 
Q 988 4650 1302 4700 
Q 1616 4750 1894 4750 
Q 2613 4750 3031 4423 
Q 3450 4097 3450 3541 
Q 3450 3153 3228 2886 
Q 3006 2619 2597 2516 
z
" transform="scale(0.015625)"/>
       </defs>
       <use xlink:href="#DejaVuSans-33"/>
       <use xlink:href="#DejaVuSans-30" transform="translate(63.623047 0)"/>
       <use xlink:href="#DejaVuSans-30" transform="translate(127.246094 0)"/>
      </g>
     </g>
    </g>
    <g id="ytick_5">
     <g id="line2d_14">
      <g>
       <use xlink:href="#m3fa0fe338e" x="46.965625" y="121.772581" style="stroke: #000000; stroke-width: 0.8"/>
      </g>
     </g>
     <g id="text_16">
      <!-- 400 -->
      <g transform="translate(20.878125 125.5718) scale(0.1 -0.1)">
       <defs>
        <path id="DejaVuSans-34" d="M 2419 4116 
L 825 1625 
L 2419 1625 
L 2419 4116 
z
M 2253 4666 
L 3047 4666 
L 3047 1625 
L 3713 1625 
L 3713 1100 
L 3047 1100 
L 3047 0 
L 2419 0 
L 2419 1100 
L 313 1100 
L 313 1709 
L 2253 4666 
z
" transform="scale(0.015625)"/>
       </defs>
       <use xlink:href="#DejaVuSans-34"/>
       <use xlink:href="#DejaVuSans-30" transform="translate(63.623047 0)"/>
       <use xlink:href="#DejaVuSans-30" transform="translate(127.246094 0)"/>
      </g>
     </g>
    </g>
    <g id="ytick_6">
     <g id="line2d_15">
      <g>
       <use xlink:href="#m3fa0fe338e" x="46.965625" y="80.419377" style="stroke: #000000; stroke-width: 0.8"/>
      </g>
     </g>
     <g id="text_17">
      <!-- 500 -->
      <g transform="translate(20.878125 84.218596) scale(0.1 -0.1)">
       <use xlink:href="#DejaVuSans-35"/>
       <use xlink:href="#DejaVuSans-30" transform="translate(63.623047 0)"/>
       <use xlink:href="#DejaVuSans-30" transform="translate(127.246094 0)"/>
      </g>
     </g>
    </g>
    <g id="ytick_7">
     <g id="line2d_16">
      <g>
       <use xlink:href="#m3fa0fe338e" x="46.965625" y="39.066173" style="stroke: #000000; stroke-width: 0.8"/>
      </g>
     </g>
     <g id="text_18">
      <!-- 600 -->
      <g transform="translate(20.878125 42.865391) scale(0.1 -0.1)">
       <use xlink:href="#DejaVuSans-36"/>
       <use xlink:href="#DejaVuSans-30" transform="translate(63.623047 0)"/>
       <use xlink:href="#DejaVuSans-30" transform="translate(127.246094 0)"/>
      </g>
     </g>
    </g>
    <g id="text_19">
     <!-- right wheel velocity, rv (mm/s) -->
     <g transform="translate(14.798438 238.039375) rotate(-90) scale(0.1 -0.1)">
      <defs>
       <path id="DejaVuSans-72" d="M 2631 2963 
Q 2534 3019 2420 3045 
Q 2306 3072 2169 3072 
Q 1681 3072 1420 2755 
Q 1159 2438 1159 1844 
L 1159 0 
L 581 0 
L 581 3500 
L 1159 3500 
L 1159 2956 
Q 1341 3275 1631 3429 
Q 1922 3584 2338 3584 
Q 2397 3584 2469 3576 
Q 2541 3569 2628 3553 
L 2631 2963 
z
" transform="scale(0.015625)"/>
       <path id="DejaVuSans-67" d="M 2906 1791 
Q 2906 2416 2648 2759 
Q 2391 3103 1925 3103 
Q 1463 3103 1205 2759 
Q 947 2416 947 1791 
Q 947 1169 1205 825 
Q 1463 481 1925 481 
Q 2391 481 2648 825 
Q 2906 1169 2906 1791 
z
M 3481 434 
Q 3481 -459 3084 -895 
Q 2688 -1331 1869 -1331 
Q 1566 -1331 1297 -1286 
Q 1028 -1241 775 -1147 
L 775 -588 
Q 1028 -725 1275 -790 
Q 1522 -856 1778 -856 
Q 2344 -856 2625 -561 
Q 2906 -266 2906 331 
L 2906 616 
Q 2728 306 2450 153 
Q 2172 0 1784 0 
Q 1141 0 747 490 
Q 353 981 353 1791 
Q 353 2603 747 3093 
Q 1141 3584 1784 3584 
Q 2172 3584 2450 3431 
Q 2728 3278 2906 2969 
L 2906 3500 
L 3481 3500 
L 3481 434 
z
" transform="scale(0.015625)"/>
       <path id="DejaVuSans-68" d="M 3513 2113 
L 3513 0 
L 2938 0 
L 2938 2094 
Q 2938 2591 2744 2837 
Q 2550 3084 2163 3084 
Q 1697 3084 1428 2787 
Q 1159 2491 1159 1978 
L 1159 0 
L 581 0 
L 581 4863 
L 1159 4863 
L 1159 2956 
Q 1366 3272 1645 3428 
Q 1925 3584 2291 3584 
Q 2894 3584 3203 3211 
Q 3513 2838 3513 2113 
z
" transform="scale(0.015625)"/>
       <path id="DejaVuSans-77" d="M 269 3500 
L 844 3500 
L 1563 769 
L 2278 3500 
L 2956 3500 
L 3675 769 
L 4391 3500 
L 4966 3500 
L 4050 0 
L 3372 0 
L 2619 2869 
L 1863 0 
L 1184 0 
L 269 3500 
z
" transform="scale(0.015625)"/>
       <path id="DejaVuSans-6c" d="M 603 4863 
L 1178 4863 
L 1178 0 
L 603 0 
L 603 4863 
z
" transform="scale(0.015625)"/>
       <path id="DejaVuSans-76" d="M 191 3500 
L 800 3500 
L 1894 563 
L 2988 3500 
L 3597 3500 
L 2284 0 
L 1503 0 
L 191 3500 
z
" transform="scale(0.015625)"/>
       <path id="DejaVuSans-6f" d="M 1959 3097 
Q 1497 3097 1228 2736 
Q 959 2375 959 1747 
Q 959 1119 1226 758 
Q 1494 397 1959 397 
Q 2419 397 2687 759 
Q 2956 1122 2956 1747 
Q 2956 2369 2687 2733 
Q 2419 3097 1959 3097 
z
M 1959 3584 
Q 2709 3584 3137 3096 
Q 3566 2609 3566 1747 
Q 3566 888 3137 398 
Q 2709 -91 1959 -91 
Q 1206 -91 779 398 
Q 353 888 353 1747 
Q 353 2609 779 3096 
Q 1206 3584 1959 3584 
z
" transform="scale(0.015625)"/>
       <path id="DejaVuSans-63" d="M 3122 3366 
L 3122 2828 
Q 2878 2963 2633 3030 
Q 2388 3097 2138 3097 
Q 1578 3097 1268 2742 
Q 959 2388 959 1747 
Q 959 1106 1268 751 
Q 1578 397 2138 397 
Q 2388 397 2633 464 
Q 2878 531 3122 666 
L 3122 134 
Q 2881 22 2623 -34 
Q 2366 -91 2075 -91 
Q 1284 -91 818 406 
Q 353 903 353 1747 
Q 353 2603 823 3093 
Q 1294 3584 2113 3584 
Q 2378 3584 2631 3529 
Q 2884 3475 3122 3366 
z
" transform="scale(0.015625)"/>
       <path id="DejaVuSans-79" d="M 2059 -325 
Q 1816 -950 1584 -1140 
Q 1353 -1331 966 -1331 
L 506 -1331 
L 506 -850 
L 844 -850 
Q 1081 -850 1212 -737 
Q 1344 -625 1503 -206 
L 1606 56 
L 191 3500 
L 800 3500 
L 1894 763 
L 2988 3500 
L 3597 3500 
L 2059 -325 
z
" transform="scale(0.015625)"/>
       <path id="DejaVuSans-2f" d="M 1625 4666 
L 2156 4666 
L 531 -594 
L 0 -594 
L 1625 4666 
z
" transform="scale(0.015625)"/>
      </defs>
      <use xlink:href="#DejaVuSans-72"/>
      <use xlink:href="#DejaVuSans-69" transform="translate(41.113281 0)"/>
      <use xlink:href="#DejaVuSans-67" transform="translate(68.896484 0)"/>
      <use xlink:href="#DejaVuSans-68" transform="translate(132.373047 0)"/>
      <use xlink:href="#DejaVuSans-74" transform="translate(195.751953 0)"/>
      <use xlink:href="#DejaVuSans-20" transform="translate(234.960938 0)"/>
      <use xlink:href="#DejaVuSans-77" transform="translate(266.748047 0)"/>
      <use xlink:href="#DejaVuSans-68" transform="translate(348.535156 0)"/>
      <use xlink:href="#DejaVuSans-65" transform="translate(411.914062 0)"/>
      <use xlink:href="#DejaVuSans-65" transform="translate(473.4375 0)"/>
      <use xlink:href="#DejaVuSans-6c" transform="translate(534.960938 0)"/>
      <use xlink:href="#DejaVuSans-20" transform="translate(562.744141 0)"/>
      <use xlink:href="#DejaVuSans-76" transform="translate(594.53125 0)"/>
      <use xlink:href="#DejaVuSans-65" transform="translate(653.710938 0)"/>
      <use xlink:href="#DejaVuSans-6c" transform="translate(715.234375 0)"/>
      <use xlink:href="#DejaVuSans-6f" transform="translate(743.017578 0)"/>
      <use xlink:href="#DejaVuSans-63" transform="translate(804.199219 0)"/>
      <use xlink:href="#DejaVuSans-69" transform="translate(859.179688 0)"/>
      <use xlink:href="#DejaVuSans-74" transform="translate(886.962891 0)"/>
      <use xlink:href="#DejaVuSans-79" transform="translate(926.171875 0)"/>
      <use xlink:href="#DejaVuSans-2c" transform="translate(985.351562 0)"/>
      <use xlink:href="#DejaVuSans-20" transform="translate(1017.138672 0)"/>
      <use xlink:href="#DejaVuSans-72" transform="translate(1048.925781 0)"/>
      <use xlink:href="#DejaVuSans-76" transform="translate(1090.039062 0)"/>
      <use xlink:href="#DejaVuSans-20" transform="translate(1149.21875 0)"/>
      <use xlink:href="#DejaVuSans-28" transform="translate(1181.005859 0)"/>
      <use xlink:href="#DejaVuSans-6d" transform="translate(1220.019531 0)"/>
      <use xlink:href="#DejaVuSans-6d" transform="translate(1317.431641 0)"/>
      <use xlink:href="#DejaVuSans-2f" transform="translate(1414.84375 0)"/>
      <use xlink:href="#DejaVuSans-73" transform="translate(1448.535156 0)"/>
      <use xlink:href="#DejaVuSans-29" transform="translate(1500.634766 0)"/>
     </g>
    </g>
   </g>
   <g id="line2d_17">
    <path d="M 65.099897 287.185398 
L 68.888317 223.501463 
L 71.941773 129.62969 
L 75.824195 71.321672 
L 79.707161 41.960897 
L 83.666528 37.825577 
L 86.639592 40.306769 
L 90.6387 48.990942 
L 94.553606 46.923281 
L 97.526851 44.028557 
L 101.517794 45.682685 
L 105.416549 45.682685 
L 108.473634 39.479705 
L 112.386907 34.930852 
L 116.301449 34.930852 
L 119.350913 38.652641 
L 123.264548 34.930852 
L 126.322359 35.757916 
L 130.219844 36.998512 
L 134.134205 41.133833 
L 137.184757 42.787961 
L 141.097667 37.825577 
L 145.081532 39.479705 
L 148.99662 38.239109 
L 151.96805 39.893237 
L 155.95863 42.787961 
L 159.857203 36.998512 
L 162.914833 35.757916 
L 166.828287 40.720301 
L 170.743011 38.239109 
L 173.793382 39.066173 
L 177.706654 40.720301 
L 180.764828 39.479705 
L 184.66322 36.998512 
L 188.562701 39.893237 
L 192.539489 39.066173 
L 195.495857 34.930852 
L 199.47954 42.374429 
L 203.395172 41.133833 
L 206.369143 40.306769 
L 210.360267 39.893237 
L 214.259748 39.893237 
L 217.318285 39.479705 
L 221.232102 37.825577 
L 225.147733 38.239109 
L 228.182316 37.825577 
L 232.095589 40.720301 
L 236.095242 37.825577 
L 239.052336 38.652641 
L 242.965064 40.720301 
L 246.958003 36.998512 
L 249.960465 38.652641 
L 253.987521 39.479705 
L 256.990527 38.652641 
L 260.932654 39.893237 
L 264.954447 41.960897 
L 267.956909 42.787961 
L 271.984691 39.479705 
L 275.928995 36.998512 
L 278.93055 38.652641 
L 282.936736 40.720301 
L 286.880678 39.893237 
L 289.967706 38.239109 
L 293.909651 39.893237 
L 296.912476 38.652641 
L 300.932273 41.547365 
L 304.876577 39.893237 
L 307.963243 38.239109 
L 311.905006 39.893237 
L 315.849129 39.893237 
L 318.929261 37.412045 
L 322.857778 39.066173 
L 325.944443 41.960897 
L 329.888021 39.893237 
L 333.83287 39.893237 
L 336.912639 41.133833 
L 340.855492 39.893237 
L 344.884544 39.479705 
L 347.886643 38.652641 
L 351.815885 41.960897 
L 355.822797 38.239109 
L 358.825259 38.652641 
L 362.852315 39.479705 
L 365.841893 41.547365 
L 369.784927 39.893237 
L 373.806901 39.066173 
L 376.809545 38.652641 
L 380.836964 39.479705 
L 384.781994 39.893237 
L 387.784093 42.374429 
L 391.804253 38.652641 
L 395.748557 39.893237 
L 398.791306 38.239109 
L 402.733796 39.893237 
L 406.678463 42.787961 
L 409.757869 41.133833 
L 413.699814 39.893237 
L 416.787387 38.239109 
L 420.731147 39.893237 
L 424.675814 39.893237 
L 427.755584 37.412045 
" clip-path="url(#pa484b31f0c)" style="fill: none; stroke: #1f77b4; stroke-width: 1.5; stroke-linecap: square"/>
   </g>
   <g id="line2d_18">
    <path d="M 65.100079 287.185398 
L 68.87271 223.087931 
L 72.873089 123.840241 
L 76.773477 66.772819 
L 79.71315 60.983371 
L 83.673061 87.449422 
L 87.588511 90.757678 
L 90.645959 80.832909 
L 94.55905 72.9758 
L 98.473956 79.178781 
L 101.523964 80.419377 
L 105.436874 67.186352 
L 109.436346 66.359287 
L 112.408683 70.90814 
L 116.32123 70.081076 
L 120.312898 68.84048 
L 123.269811 65.945755 
L 127.267831 72.148736 
L 131.183463 70.494608 
L 134.156345 70.90814 
L 138.146743 71.735204 
L 142.062193 70.494608 
L 145.119823 69.667544 
L 149.033095 70.081076 
L 152.932758 69.667544 
L 155.982947 68.84048 
L 159.896219 70.081076 
L 163.896236 72.148736 
L 166.868936 75.04346 
L 170.781846 70.081076 
L 174.774785 68.84048 
L 177.747485 70.90814 
L 181.744961 71.735204 
L 185.66023 73.389332 
L 188.633293 67.186352 
L 192.624599 71.735204 
L 196.524987 72.562268 
L 199.583524 73.389332 
L 203.496615 72.9758 
L 207.412065 73.389332 
L 210.462255 72.9758 
L 214.375527 70.081076 
L 218.376451 72.148736 
L 221.35024 75.04346 
L 225.263694 70.081076 
L 229.257541 68.84048 
L 232.231149 71.321672 
L 236.229169 71.735204 
L 240.144074 73.389332 
L 243.117682 75.04346 
L 247.108444 71.735204 
L 251.053111 68.84048 
L 254.140684 71.735204 
L 258.083536 74.629928 
L 261.085454 73.389332 
L 265.107065 70.494608 
L 269.051733 72.148736 
L 272.123154 74.216396 
L 276.065281 74.629928 
L 280.009948 72.148736 
L 283.089718 75.04346 
L 287.0313 71.735204 
L 290.118872 71.735204 
L 294.062269 71.735204 
L 297.991148 70.90814 
L 301.058033 77.524653 
L 304.999978 71.735204 
L 309.029212 68.013416 
L 312.030585 72.9758 
L 315.97253 74.629928 
L 319.993416 73.389332 
L 322.982268 72.148736 
L 327.008779 73.389332 
L 330.011241 73.389332 
L 333.953368 71.735204 
L 337.961913 72.562268 
L 340.963831 72.9758 
L 344.991431 73.389332 
L 348.935917 72.148736 
L 351.937835 72.9758 
L 355.957631 78.765249 
L 359.901754 72.148736 
L 362.988601 71.735204 
L 366.930909 71.735204 
L 370.859244 74.216396 
L 373.939195 75.04346 
L 377.88114 74.629928 
L 380.967624 75.456992 
L 384.897592 71.321672 
L 388.825926 74.216396 
L 391.905333 74.629928 
L 395.847278 74.629928 
L 399.876148 73.802864 
L 402.879336 73.389332 
L 406.805675 70.90814 
L 409.885626 75.04346 
L 413.828841 71.735204 
L 417.844464 72.9758 
L 420.846745 73.389332 
L 424.788871 74.629928 
" clip-path="url(#pa484b31f0c)" style="fill: none; stroke: #ff7f0e; stroke-width: 1.5; stroke-linecap: square"/>
   </g>
   <g id="line2d_19">
    <path d="M 65.099716 287.185398 
L 68.887591 223.501463 
L 71.945947 125.907901 
L 75.860308 105.644831 
L 79.759244 113.50194 
L 82.776587 120.118453 
L 86.657013 121.772581 
L 90.656666 112.261344 
L 93.629367 113.50194 
L 97.509611 109.780152 
L 101.502006 108.953088 
L 104.473799 105.644831 
L 108.471638 103.577171 
L 112.370574 107.712492 
L 115.343093 105.644831 
L 119.333128 106.058363 
L 123.24876 108.539556 
L 126.305664 107.29896 
L 130.218755 111.43428 
L 134.134205 108.539556 
L 137.184213 110.607216 
L 141.097486 105.231299 
L 145.096776 106.471895 
L 148.06984 109.780152 
L 151.983475 102.336575 
L 155.975144 106.058363 
L 158.948026 105.644831 
L 162.930258 108.539556 
L 166.845163 105.644831 
L 169.818046 109.780152 
L 173.808988 106.058363 
L 177.724438 108.539556 
L 180.781524 111.020748 
L 184.694615 108.539556 
L 188.609339 108.539556 
L 191.659891 106.885428 
L 195.573527 108.539556 
L 199.572999 106.471895 
L 202.546244 109.780152 
L 206.460061 105.644831 
L 210.452818 108.953088 
L 213.425882 109.780152 
L 217.424083 103.577171 
L 221.339171 111.43428 
L 224.312234 109.780152 
L 228.303177 108.953088 
L 232.202113 107.712492 
L 235.260287 111.020748 
L 239.157772 107.712492 
L 243.057434 104.817767 
L 246.107986 106.885428 
L 250.021077 108.539556 
L 254.036881 107.29896 
L 257.039525 107.712492 
L 260.981107 109.780152 
L 264.061784 108.539556 
L 268.004455 106.885428 
L 272.03387 110.607216 
L 275.036695 111.43428 
L 278.963759 106.058363 
L 282.985552 107.712492 
L 285.988377 107.712492 
L 290.016159 107.712492 
L 293.960826 109.780152 
L 296.963833 107.712492 
L 300.983085 107.29896 
L 303.939272 112.674876 
L 307.966872 104.817767 
L 311.910632 106.885428 
L 314.913638 115.156068 
L 318.933617 107.29896 
L 322.878102 106.885428 
L 325.964949 108.953088 
L 329.906713 106.885428 
L 333.851199 109.780152 
L 336.931513 108.539556 
L 340.874184 103.990703 
L 343.961575 108.953088 
L 347.904246 109.780152 
L 351.84855 106.885428 
L 354.927775 108.539556 
L 358.855928 111.847812 
L 362.88498 107.712492 
L 365.886898 107.712492 
L 369.828299 109.780152 
L 372.907524 108.539556 
L 376.850558 106.885428 
L 380.879065 110.607216 
L 383.868098 110.607216 
L 387.809862 106.885428 
L 391.831655 110.193684 
L 394.817966 110.607216 
L 398.844477 107.712492 
L 402.775534 109.36662 
L 405.777996 111.43428 
L 409.797612 113.088408 
L 413.742097 109.780152 
L 416.829489 105.231299 
L 420.771434 109.780152 
L 423.773896 111.43428 
L 427.781534 106.885428 
" clip-path="url(#pa484b31f0c)" style="fill: none; stroke: #2ca02c; stroke-width: 1.5; stroke-linecap: square"/>
   </g>
   <g id="line2d_20">
    <path d="M 65.099716 287.185398 
L 68.89358 220.606739 
L 72.894322 129.62969 
L 75.869382 121.359049 
L 79.782654 155.268676 
L 83.743654 168.501702 
L 86.716173 152.373952 
L 90.698949 143.276247 
L 94.614762 146.584504 
L 97.587645 140.795055 
L 101.577861 143.689779 
L 105.477705 143.276247 
L 108.535153 140.795055 
L 112.447518 143.689779 
L 116.362606 143.689779 
L 119.412976 140.381523 
L 123.326793 143.689779 
L 127.32681 146.584504 
L 130.300236 144.516843 
L 134.214053 140.795055 
L 138.206992 143.689779 
L 141.180237 144.516843 
L 145.178439 143.689779 
L 149.078282 143.276247 
L 152.052072 140.795055 
L 156.042833 146.584504 
L 159.95792 146.584504 
L 163.015731 140.795055 
L 166.912853 142.862715 
L 170.828484 146.584504 
L 173.863067 143.689779 
L 177.775977 143.689779 
L 181.761475 146.170971 
L 184.735446 140.795055 
L 188.6489 146.584504 
L 192.642202 140.795055 
L 195.615266 144.516843 
L 199.614193 140.795055 
L 203.529462 143.689779 
L 206.503251 148.238632 
L 210.494012 140.795055 
L 214.409826 143.689779 
L 217.452393 147.8251 
L 221.366028 140.795055 
L 225.281842 143.689779 
L 228.316969 143.689779 
L 232.230241 146.584504 
L 236.230439 143.689779 
L 239.204047 140.795055 
L 243.117682 146.584504 
L 247.110621 146.584504 
L 250.112902 142.035651 
L 254.126892 144.516843 
L 258.071559 142.035651 
L 261.07384 145.757439 
L 265.093999 144.516843 
L 269.038667 144.930375 
L 272.125876 142.449183 
L 276.068547 144.516843 
L 279.982546 146.584504 
L 283.062678 145.757439 
L 287.005531 144.516843 
L 290.092377 146.170971 
L 294.036682 141.622119 
L 297.982075 144.930375 
L 301.062389 142.035651 
L 305.00506 144.516843 
L 308.092995 142.449183 
L 312.036211 144.516843 
L 315.968175 144.103311 
L 319.048126 145.757439 
L 322.97519 146.998036 
L 327.005875 144.930375 
L 330.008519 142.035651 
L 333.951553 141.622119 
L 337.945944 146.584504 
L 340.948406 145.757439 
L 344.976187 142.035651 
L 348.921399 147.8251 
L 351.924587 145.757439 
L 355.944747 144.516843 
L 358.947572 142.035651 
L 362.975535 144.930375 
L 366.90514 146.998036 
L 369.908328 142.035651 
L 373.928125 144.516843 
L 377.872429 144.930375 
L 380.960002 146.170971 
L 384.902491 147.411568 
L 388.846796 142.035651 
L 391.927472 145.757439 
L 395.854174 144.103311 
L 398.941928 146.170971 
L 402.884781 147.411568 
L 406.815837 141.208587 
L 409.896151 142.035651 
L 413.838641 147.411568 
L 417.868056 144.930375 
L 420.870699 142.035651 
L 424.813189 144.516843 
" clip-path="url(#pa484b31f0c)" style="fill: none; stroke: #d62728; stroke-width: 1.5; stroke-linecap: square"/>
   </g>
   <g id="line2d_21">
    <path d="M 65.102257 287.185398 
L 68.905738 226.80972 
L 72.885793 154.855144 
L 75.865752 168.08817 
L 79.789368 199.516605 
L 83.792288 192.900092 
L 86.801828 176.772343 
L 90.82598 181.734727 
L 93.80358 183.388855 
L 97.728286 182.148259 
L 101.730117 178.426471 
L 104.707536 175.531746 
L 108.714992 181.321195 
L 112.639698 182.148259 
L 115.616754 179.253535 
L 119.600256 178.012939 
L 123.524235 182.148259 
L 126.586402 182.561791 
L 130.508204 182.148259 
L 134.432183 179.253535 
L 137.486183 178.426471 
L 141.407803 178.840003 
L 145.415986 181.321195 
L 148.376891 182.561791 
L 152.29833 178.840003 
L 156.298709 178.426471 
L 159.259614 182.561791 
L 163.249105 180.907663 
L 167.171088 179.253535 
L 170.131993 182.561791 
L 174.113499 180.494131 
L 178.004088 181.321195 
L 181.049196 178.012939 
L 184.953395 181.321195 
L 188.859771 181.734727 
L 191.897439 181.734727 
L 195.801275 178.426471 
L 199.807824 178.426471 
L 202.768366 182.561791 
L 206.671839 181.321195 
L 210.654978 180.907663 
L 213.615339 178.840003 
L 217.603378 183.802387 
L 221.508303 181.321195 
L 224.4683 174.704682 
L 228.464687 183.802387 
L 232.353643 180.907663 
L 235.414357 178.426471 
L 239.332893 181.734727 
L 243.253968 185.042983 
L 246.291273 177.599407 
L 250.209627 181.734727 
L 254.230513 181.734727 
L 257.221542 183.802387 
L 261.16875 179.667067 
L 265.19508 178.840003 
L 268.199356 184.215919 
L 272.218609 178.840003 
L 276.166724 179.667067 
L 279.171545 180.494131 
L 283.195879 181.734727 
L 286.186727 180.080599 
L 290.218138 179.253535 
L 294.166435 182.561791 
L 297.17053 180.494131 
L 301.194319 181.734727 
L 305.142253 179.667067 
L 308.231277 183.388855 
L 312.176489 179.667067 
L 315.180403 176.358811 
L 319.204374 184.629451 
L 323.151763 182.561791 
L 326.240606 183.388855 
L 330.185999 176.772343 
L 334.133388 179.667067 
L 337.214428 182.975323 
L 341.158732 182.561791 
L 344.247212 179.667067 
L 348.177906 182.148259 
L 352.109326 182.148259 
L 355.175485 178.840003 
L 359.119789 179.667067 
L 363.151745 182.148259 
L 366.15457 180.494131 
L 370.099419 182.561791 
L 374.123026 181.734727 
L 377.126033 176.358811 
L 381.154903 184.629451 
L 384.144844 179.667067 
L 388.088604 182.561791 
L 392.111304 181.734727 
L 395.114492 184.215919 
L 399.143 181.734727 
L 403.088574 179.667067 
L 406.091036 180.494131 
L 410.095589 184.215919 
L 414.026828 182.148259 
L 417.105145 179.253535 
L 421.03475 182.148259 
L 424.96617 182.148259 
" clip-path="url(#pa484b31f0c)" style="fill: none; stroke: #9467bd; stroke-width: 1.5; stroke-linecap: square"/>
   </g>
   <g id="line2d_22">
    <path d="M 65.102438 287.185398 
L 68.939855 239.215681 
L 72.008373 201.170733 
L 75.944693 217.298483 
L 82.943179 219.779675 
L 86.878046 214.403758 
L 90.915809 224.742059 
L 93.9317 222.674399 
L 97.898507 211.922566 
L 100.992068 213.163162 
L 104.944539 217.712015 
L 108.965424 218.952611 
L 111.93377 213.990226 
L 115.867549 217.298483 
L 119.864843 221.433803 
L 122.848069 214.403758 
L 126.867321 218.952611 
L 130.803278 220.193207 
L 133.786141 214.403758 
L 137.797046 218.539079 
L 141.732276 217.298483 
L 144.800431 216.471419 
L 148.71697 216.884951 
L 152.636594 216.884951 
L 155.696039 216.057887 
L 159.628003 220.193207 
L 162.695432 216.471419 
L 166.627941 214.403758 
L 170.562446 220.193207 
L 173.622072 219.779675 
L 177.554217 214.403758 
L 181.57347 216.057887 
L 184.55597 218.125547 
L 188.488115 217.298483 
L 192.499746 218.539079 
L 195.482246 214.403758 
L 199.482988 218.539079 
L 203.400798 216.884951 
L 206.382753 218.125547 
L 210.392025 215.644355 
L 214.30929 216.884951 
L 217.375812 219.779675 
L 221.306506 217.298483 
L 225.239558 217.298483 
L 228.299366 219.779675 
L 232.229878 217.298483 
L 235.296582 216.057887 
L 239.212758 216.884951 
L 243.145448 220.193207 
L 246.188923 215.644355 
L 250.102377 219.779675 
L 254.148124 213.576694 
L 257.158752 218.539079 
L 261.117574 217.712015 
L 265.156244 216.471419 
L 268.166147 218.539079 
L 272.209535 216.471419 
L 275.219801 218.539079 
L 279.17826 214.81729 
L 283.215478 218.952611 
L 286.225925 214.81729 
L 290.252981 218.952611 
L 294.21271 217.712015 
L 297.222613 214.81729 
L 301.25729 218.952611 
L 304.266648 214.81729 
L 308.310218 219.366143 
L 312.269766 217.712015 
L 315.27985 214.81729 
L 319.314164 218.952611 
L 323.273531 217.712015 
L 326.368 216.884951 
L 330.324463 217.712015 
L 333.334365 218.539079 
L 337.369587 216.057887 
L 341.312077 217.298483 
L 344.406364 216.884951 
L 348.362101 220.606739 
L 352.320197 214.81729 
L 355.393252 216.471419 
L 359.348808 220.606739 
L 362.44255 216.884951 
L 366.399558 217.712015 
L 370.342047 217.298483 
L 373.42835 213.163162 
L 377.382998 220.606739 
L 380.476559 220.606739 
L 384.43157 214.81729 
L 388.388578 214.81729 
L 391.459092 220.193207 
L 395.401037 217.298483 
L 399.442429 216.471419 
L 402.450154 218.539079 
L 406.404802 214.81729 
L 410.424962 218.952611 
L 413.433231 218.539079 
L 417.458835 216.057887 
L 420.467104 214.81729 
L 424.420845 217.712015 
" clip-path="url(#pa484b31f0c)" style="fill: none; stroke: #8c564b; stroke-width: 1.5; stroke-linecap: square"/>
   </g>
   <g id="line2d_23">
    <path d="M 65.102619 287.185398 
L 67.974603 271.47118 
L 71.972986 247.07279 
L 75.888255 258.238155 
L 79.783561 269.817052 
L 82.79909 256.997559 
L 86.677338 245.832194 
L 89.751663 253.689302 
L 93.663847 254.929898 
L 97.576212 252.035174 
L 101.565703 258.651687 
L 104.518623 252.448706 
L 108.514647 255.756963 
L 112.410679 254.929898 
L 115.363962 252.448706 
L 119.351094 255.756963 
L 123.263278 254.929898 
L 126.301853 253.27577 
L 130.195708 254.929898 
L 134.106984 258.238155 
L 137.121968 253.27577 
L 141.031067 254.929898 
L 145.026909 255.756963 
L 147.948072 252.035174 
L 151.856807 254.929898 
L 155.845391 255.756963 
L 158.798492 252.448706 
L 162.791976 255.756963 
L 166.686194 254.929898 
L 169.639114 252.448706 
L 173.624431 255.756963 
L 177.533711 254.929898 
L 180.555228 253.27577 
L 184.446905 252.035174 
L 188.356729 257.824623 
L 191.386049 256.997559 
L 195.293696 249.14045 
L 199.287543 255.756963 
L 203.195915 254.929898 
L 206.132866 252.035174 
L 210.118909 255.756963 
L 214.028007 252.035174 
L 217.065312 256.997559 
L 220.971326 252.035174 
L 224.880606 252.035174 
L 227.910107 256.997559 
L 231.81594 254.929898 
L 235.809786 249.967514 
L 238.761617 256.170495 
L 242.652206 254.929898 
L 246.637886 252.862238 
L 249.618934 252.862238 
L 253.638912 256.170495 
L 257.576502 255.343431 
L 260.55755 252.862238 
L 264.522543 255.343431 
L 268.459588 255.343431 
L 271.525928 249.967514 
L 275.460433 258.238155 
L 279.381146 255.343431 
L 282.439865 253.689302 
L 286.374006 255.343431 
L 289.439984 257.411091 
L 293.374489 252.448706 
L 297.310445 255.343431 
L 300.368075 253.689302 
L 304.302035 252.448706 
L 308.292978 255.756963 
L 311.272938 256.584027 
L 315.206898 252.448706 
L 319.220162 252.862238 
L 322.199758 252.862238 
L 326.217559 253.27577 
L 330.152608 255.343431 
L 333.132205 252.862238 
L 337.142746 252.862238 
L 341.077614 252.448706 
L 344.143047 257.411091 
L 348.030006 252.035174 
L 351.964692 255.343431 
L 355.00599 249.553982 
L 358.938317 255.343431 
L 362.003024 257.411091 
L 365.936621 249.553982 
L 369.870763 255.343431 
L 372.927486 253.689302 
L 376.858905 252.448706 
L 380.861825 255.756963 
L 383.841422 252.862238 
L 387.77266 252.448706 
L 391.783746 252.862238 
L 394.748825 256.584027 
L 398.751382 252.862238 
L 402.684435 252.448706 
L 405.663124 252.862238 
L 409.671307 252.862238 
L 413.588027 255.343431 
L 416.652372 249.967514 
L 420.583247 255.343431 
L 424.516118 255.343431 
L 427.572478 249.967514 
" clip-path="url(#pa484b31f0c)" style="fill: none; stroke: #e377c2; stroke-width: 1.5; stroke-linecap: square"/>
   </g>
   <g id="patch_3">
    <path d="M 46.965625 299.798125 
L 46.965625 22.318125 
" style="fill: none; stroke: #000000; stroke-width: 0.8; stroke-linejoin: miter; stroke-linecap: square"/>
   </g>
   <g id="patch_4">
    <path d="M 445.915625 299.798125 
L 445.915625 22.318125 
" style="fill: none; stroke: #000000; stroke-width: 0.8; stroke-linejoin: miter; stroke-linecap: square"/>
   </g>
   <g id="patch_5">
    <path d="M 46.965625 299.798125 
L 445.915625 299.798125 
" style="fill: none; stroke: #000000; stroke-width: 0.8; stroke-linejoin: miter; stroke-linecap: square"/>
   </g>
   <g id="patch_6">
    <path d="M 46.965625 22.318125 
L 445.915625 22.318125 
" style="fill: none; stroke: #000000; stroke-width: 0.8; stroke-linejoin: miter; stroke-linecap: square"/>
   </g>
   <g id="text_20">
    <!-- right velocity vs. time -->
    <g transform="translate(181.033125 16.318125) scale(0.12 -0.12)">
     <use xlink:href="#DejaVuSans-72"/>
     <use xlink:href="#DejaVuSans-69" transform="translate(41.113281 0)"/>
     <use xlink:href="#DejaVuSans-67" transform="translate(68.896484 0)"/>
     <use xlink:href="#DejaVuSans-68" transform="translate(132.373047 0)"/>
     <use xlink:href="#DejaVuSans-74" transform="translate(195.751953 0)"/>
     <use xlink:href="#DejaVuSans-20" transform="translate(234.960938 0)"/>
     <use xlink:href="#DejaVuSans-76" transform="translate(266.748047 0)"/>
     <use xlink:href="#DejaVuSans-65" transform="translate(325.927734 0)"/>
     <use xlink:href="#DejaVuSans-6c" transform="translate(387.451172 0)"/>
     <use xlink:href="#DejaVuSans-6f" transform="translate(415.234375 0)"/>
     <use xlink:href="#DejaVuSans-63" transform="translate(476.416016 0)"/>
     <use xlink:href="#DejaVuSans-69" transform="translate(531.396484 0)"/>
     <use xlink:href="#DejaVuSans-74" transform="translate(559.179688 0)"/>
     <use xlink:href="#DejaVuSans-79" transform="translate(598.388672 0)"/>
     <use xlink:href="#DejaVuSans-20" transform="translate(657.568359 0)"/>
     <use xlink:href="#DejaVuSans-76" transform="translate(689.355469 0)"/>
     <use xlink:href="#DejaVuSans-73" transform="translate(748.535156 0)"/>
     <use xlink:href="#DejaVuSans-2e" transform="translate(800.634766 0)"/>
     <use xlink:href="#DejaVuSans-20" transform="translate(832.421875 0)"/>
     <use xlink:href="#DejaVuSans-74" transform="translate(864.208984 0)"/>
     <use xlink:href="#DejaVuSans-69" transform="translate(903.417969 0)"/>
     <use xlink:href="#DejaVuSans-6d" transform="translate(931.201172 0)"/>
     <use xlink:href="#DejaVuSans-65" transform="translate(1028.613281 0)"/>
    </g>
   </g>
   <g id="legend_1">
    <g id="patch_7">
     <path d="M 322.390625 294.798125 
L 438.915625 294.798125 
Q 440.915625 294.798125 440.915625 292.798125 
L 440.915625 191.05125 
Q 440.915625 189.05125 438.915625 189.05125 
L 322.390625 189.05125 
Q 320.390625 189.05125 320.390625 191.05125 
L 320.390625 292.798125 
Q 320.390625 294.798125 322.390625 294.798125 
z
" style="fill: #ffffff; opacity: 0.8; stroke: #cccccc; stroke-linejoin: miter"/>
    </g>
    <g id="line2d_24">
     <path d="M 324.390625 197.149688 
L 334.390625 197.149688 
L 344.390625 197.149688 
" style="fill: none; stroke: #1f77b4; stroke-width: 1.5; stroke-linecap: square"/>
    </g>
    <g id="text_21">
     <!-- Ref Speed = 595 -->
     <g transform="translate(352.390625 200.649688) scale(0.1 -0.1)">
      <defs>
       <path id="DejaVuSans-52" d="M 2841 2188 
Q 3044 2119 3236 1894 
Q 3428 1669 3622 1275 
L 4263 0 
L 3584 0 
L 2988 1197 
Q 2756 1666 2539 1819 
Q 2322 1972 1947 1972 
L 1259 1972 
L 1259 0 
L 628 0 
L 628 4666 
L 2053 4666 
Q 2853 4666 3247 4331 
Q 3641 3997 3641 3322 
Q 3641 2881 3436 2590 
Q 3231 2300 2841 2188 
z
M 1259 4147 
L 1259 2491 
L 2053 2491 
Q 2509 2491 2742 2702 
Q 2975 2913 2975 3322 
Q 2975 3731 2742 3939 
Q 2509 4147 2053 4147 
L 1259 4147 
z
" transform="scale(0.015625)"/>
       <path id="DejaVuSans-66" d="M 2375 4863 
L 2375 4384 
L 1825 4384 
Q 1516 4384 1395 4259 
Q 1275 4134 1275 3809 
L 1275 3500 
L 2222 3500 
L 2222 3053 
L 1275 3053 
L 1275 0 
L 697 0 
L 697 3053 
L 147 3053 
L 147 3500 
L 697 3500 
L 697 3744 
Q 697 4328 969 4595 
Q 1241 4863 1831 4863 
L 2375 4863 
z
" transform="scale(0.015625)"/>
       <path id="DejaVuSans-53" d="M 3425 4513 
L 3425 3897 
Q 3066 4069 2747 4153 
Q 2428 4238 2131 4238 
Q 1616 4238 1336 4038 
Q 1056 3838 1056 3469 
Q 1056 3159 1242 3001 
Q 1428 2844 1947 2747 
L 2328 2669 
Q 3034 2534 3370 2195 
Q 3706 1856 3706 1288 
Q 3706 609 3251 259 
Q 2797 -91 1919 -91 
Q 1588 -91 1214 -16 
Q 841 59 441 206 
L 441 856 
Q 825 641 1194 531 
Q 1563 422 1919 422 
Q 2459 422 2753 634 
Q 3047 847 3047 1241 
Q 3047 1584 2836 1778 
Q 2625 1972 2144 2069 
L 1759 2144 
Q 1053 2284 737 2584 
Q 422 2884 422 3419 
Q 422 4038 858 4394 
Q 1294 4750 2059 4750 
Q 2388 4750 2728 4690 
Q 3069 4631 3425 4513 
z
" transform="scale(0.015625)"/>
       <path id="DejaVuSans-70" d="M 1159 525 
L 1159 -1331 
L 581 -1331 
L 581 3500 
L 1159 3500 
L 1159 2969 
Q 1341 3281 1617 3432 
Q 1894 3584 2278 3584 
Q 2916 3584 3314 3078 
Q 3713 2572 3713 1747 
Q 3713 922 3314 415 
Q 2916 -91 2278 -91 
Q 1894 -91 1617 61 
Q 1341 213 1159 525 
z
M 3116 1747 
Q 3116 2381 2855 2742 
Q 2594 3103 2138 3103 
Q 1681 3103 1420 2742 
Q 1159 2381 1159 1747 
Q 1159 1113 1420 752 
Q 1681 391 2138 391 
Q 2594 391 2855 752 
Q 3116 1113 3116 1747 
z
" transform="scale(0.015625)"/>
       <path id="DejaVuSans-64" d="M 2906 2969 
L 2906 4863 
L 3481 4863 
L 3481 0 
L 2906 0 
L 2906 525 
Q 2725 213 2448 61 
Q 2172 -91 1784 -91 
Q 1150 -91 751 415 
Q 353 922 353 1747 
Q 353 2572 751 3078 
Q 1150 3584 1784 3584 
Q 2172 3584 2448 3432 
Q 2725 3281 2906 2969 
z
M 947 1747 
Q 947 1113 1208 752 
Q 1469 391 1925 391 
Q 2381 391 2643 752 
Q 2906 1113 2906 1747 
Q 2906 2381 2643 2742 
Q 2381 3103 1925 3103 
Q 1469 3103 1208 2742 
Q 947 2381 947 1747 
z
" transform="scale(0.015625)"/>
       <path id="DejaVuSans-3d" d="M 678 2906 
L 4684 2906 
L 4684 2381 
L 678 2381 
L 678 2906 
z
M 678 1631 
L 4684 1631 
L 4684 1100 
L 678 1100 
L 678 1631 
z
" transform="scale(0.015625)"/>
       <path id="DejaVuSans-39" d="M 703 97 
L 703 672 
Q 941 559 1184 500 
Q 1428 441 1663 441 
Q 2288 441 2617 861 
Q 2947 1281 2994 2138 
Q 2813 1869 2534 1725 
Q 2256 1581 1919 1581 
Q 1219 1581 811 2004 
Q 403 2428 403 3163 
Q 403 3881 828 4315 
Q 1253 4750 1959 4750 
Q 2769 4750 3195 4129 
Q 3622 3509 3622 2328 
Q 3622 1225 3098 567 
Q 2575 -91 1691 -91 
Q 1453 -91 1209 -44 
Q 966 3 703 97 
z
M 1959 2075 
Q 2384 2075 2632 2365 
Q 2881 2656 2881 3163 
Q 2881 3666 2632 3958 
Q 2384 4250 1959 4250 
Q 1534 4250 1286 3958 
Q 1038 3666 1038 3163 
Q 1038 2656 1286 2365 
Q 1534 2075 1959 2075 
z
" transform="scale(0.015625)"/>
      </defs>
      <use xlink:href="#DejaVuSans-52"/>
      <use xlink:href="#DejaVuSans-65" transform="translate(64.982422 0)"/>
      <use xlink:href="#DejaVuSans-66" transform="translate(126.505859 0)"/>
      <use xlink:href="#DejaVuSans-20" transform="translate(161.710938 0)"/>
      <use xlink:href="#DejaVuSans-53" transform="translate(193.498047 0)"/>
      <use xlink:href="#DejaVuSans-70" transform="translate(256.974609 0)"/>
      <use xlink:href="#DejaVuSans-65" transform="translate(320.451172 0)"/>
      <use xlink:href="#DejaVuSans-65" transform="translate(381.974609 0)"/>
      <use xlink:href="#DejaVuSans-64" transform="translate(443.498047 0)"/>
      <use xlink:href="#DejaVuSans-20" transform="translate(506.974609 0)"/>
      <use xlink:href="#DejaVuSans-3d" transform="translate(538.761719 0)"/>
      <use xlink:href="#DejaVuSans-20" transform="translate(622.550781 0)"/>
      <use xlink:href="#DejaVuSans-35" transform="translate(654.337891 0)"/>
      <use xlink:href="#DejaVuSans-39" transform="translate(717.960938 0)"/>
      <use xlink:href="#DejaVuSans-35" transform="translate(781.583984 0)"/>
     </g>
    </g>
    <g id="line2d_25">
     <path d="M 324.390625 211.827813 
L 334.390625 211.827813 
L 344.390625 211.827813 
" style="fill: none; stroke: #ff7f0e; stroke-width: 1.5; stroke-linecap: square"/>
    </g>
    <g id="text_22">
     <!-- Ref Speed = 510 -->
     <g transform="translate(352.390625 215.327813) scale(0.1 -0.1)">
      <use xlink:href="#DejaVuSans-52"/>
      <use xlink:href="#DejaVuSans-65" transform="translate(64.982422 0)"/>
      <use xlink:href="#DejaVuSans-66" transform="translate(126.505859 0)"/>
      <use xlink:href="#DejaVuSans-20" transform="translate(161.710938 0)"/>
      <use xlink:href="#DejaVuSans-53" transform="translate(193.498047 0)"/>
      <use xlink:href="#DejaVuSans-70" transform="translate(256.974609 0)"/>
      <use xlink:href="#DejaVuSans-65" transform="translate(320.451172 0)"/>
      <use xlink:href="#DejaVuSans-65" transform="translate(381.974609 0)"/>
      <use xlink:href="#DejaVuSans-64" transform="translate(443.498047 0)"/>
      <use xlink:href="#DejaVuSans-20" transform="translate(506.974609 0)"/>
      <use xlink:href="#DejaVuSans-3d" transform="translate(538.761719 0)"/>
      <use xlink:href="#DejaVuSans-20" transform="translate(622.550781 0)"/>
      <use xlink:href="#DejaVuSans-35" transform="translate(654.337891 0)"/>
      <use xlink:href="#DejaVuSans-31" transform="translate(717.960938 0)"/>
      <use xlink:href="#DejaVuSans-30" transform="translate(781.583984 0)"/>
     </g>
    </g>
    <g id="line2d_26">
     <path d="M 324.390625 226.505938 
L 334.390625 226.505938 
L 344.390625 226.505938 
" style="fill: none; stroke: #2ca02c; stroke-width: 1.5; stroke-linecap: square"/>
    </g>
    <g id="text_23">
     <!-- Ref Speed = 425 -->
     <g transform="translate(352.390625 230.005938) scale(0.1 -0.1)">
      <use xlink:href="#DejaVuSans-52"/>
      <use xlink:href="#DejaVuSans-65" transform="translate(64.982422 0)"/>
      <use xlink:href="#DejaVuSans-66" transform="translate(126.505859 0)"/>
      <use xlink:href="#DejaVuSans-20" transform="translate(161.710938 0)"/>
      <use xlink:href="#DejaVuSans-53" transform="translate(193.498047 0)"/>
      <use xlink:href="#DejaVuSans-70" transform="translate(256.974609 0)"/>
      <use xlink:href="#DejaVuSans-65" transform="translate(320.451172 0)"/>
      <use xlink:href="#DejaVuSans-65" transform="translate(381.974609 0)"/>
      <use xlink:href="#DejaVuSans-64" transform="translate(443.498047 0)"/>
      <use xlink:href="#DejaVuSans-20" transform="translate(506.974609 0)"/>
      <use xlink:href="#DejaVuSans-3d" transform="translate(538.761719 0)"/>
      <use xlink:href="#DejaVuSans-20" transform="translate(622.550781 0)"/>
      <use xlink:href="#DejaVuSans-34" transform="translate(654.337891 0)"/>
      <use xlink:href="#DejaVuSans-32" transform="translate(717.960938 0)"/>
      <use xlink:href="#DejaVuSans-35" transform="translate(781.583984 0)"/>
     </g>
    </g>
    <g id="line2d_27">
     <path d="M 324.390625 241.184063 
L 334.390625 241.184063 
L 344.390625 241.184063 
" style="fill: none; stroke: #d62728; stroke-width: 1.5; stroke-linecap: square"/>
    </g>
    <g id="text_24">
     <!-- Ref Speed = 340 -->
     <g transform="translate(352.390625 244.684063) scale(0.1 -0.1)">
      <use xlink:href="#DejaVuSans-52"/>
      <use xlink:href="#DejaVuSans-65" transform="translate(64.982422 0)"/>
      <use xlink:href="#DejaVuSans-66" transform="translate(126.505859 0)"/>
      <use xlink:href="#DejaVuSans-20" transform="translate(161.710938 0)"/>
      <use xlink:href="#DejaVuSans-53" transform="translate(193.498047 0)"/>
      <use xlink:href="#DejaVuSans-70" transform="translate(256.974609 0)"/>
      <use xlink:href="#DejaVuSans-65" transform="translate(320.451172 0)"/>
      <use xlink:href="#DejaVuSans-65" transform="translate(381.974609 0)"/>
      <use xlink:href="#DejaVuSans-64" transform="translate(443.498047 0)"/>
      <use xlink:href="#DejaVuSans-20" transform="translate(506.974609 0)"/>
      <use xlink:href="#DejaVuSans-3d" transform="translate(538.761719 0)"/>
      <use xlink:href="#DejaVuSans-20" transform="translate(622.550781 0)"/>
      <use xlink:href="#DejaVuSans-33" transform="translate(654.337891 0)"/>
      <use xlink:href="#DejaVuSans-34" transform="translate(717.960938 0)"/>
      <use xlink:href="#DejaVuSans-30" transform="translate(781.583984 0)"/>
     </g>
    </g>
    <g id="line2d_28">
     <path d="M 324.390625 255.862188 
L 334.390625 255.862188 
L 344.390625 255.862188 
" style="fill: none; stroke: #9467bd; stroke-width: 1.5; stroke-linecap: square"/>
    </g>
    <g id="text_25">
     <!-- Ref Speed = 255 -->
     <g transform="translate(352.390625 259.362188) scale(0.1 -0.1)">
      <use xlink:href="#DejaVuSans-52"/>
      <use xlink:href="#DejaVuSans-65" transform="translate(64.982422 0)"/>
      <use xlink:href="#DejaVuSans-66" transform="translate(126.505859 0)"/>
      <use xlink:href="#DejaVuSans-20" transform="translate(161.710938 0)"/>
      <use xlink:href="#DejaVuSans-53" transform="translate(193.498047 0)"/>
      <use xlink:href="#DejaVuSans-70" transform="translate(256.974609 0)"/>
      <use xlink:href="#DejaVuSans-65" transform="translate(320.451172 0)"/>
      <use xlink:href="#DejaVuSans-65" transform="translate(381.974609 0)"/>
      <use xlink:href="#DejaVuSans-64" transform="translate(443.498047 0)"/>
      <use xlink:href="#DejaVuSans-20" transform="translate(506.974609 0)"/>
      <use xlink:href="#DejaVuSans-3d" transform="translate(538.761719 0)"/>
      <use xlink:href="#DejaVuSans-20" transform="translate(622.550781 0)"/>
      <use xlink:href="#DejaVuSans-32" transform="translate(654.337891 0)"/>
      <use xlink:href="#DejaVuSans-35" transform="translate(717.960938 0)"/>
      <use xlink:href="#DejaVuSans-35" transform="translate(781.583984 0)"/>
     </g>
    </g>
    <g id="line2d_29">
     <path d="M 324.390625 270.540313 
L 334.390625 270.540313 
L 344.390625 270.540313 
" style="fill: none; stroke: #8c564b; stroke-width: 1.5; stroke-linecap: square"/>
    </g>
    <g id="text_26">
     <!-- Ref Speed = 170 -->
     <g transform="translate(352.390625 274.040313) scale(0.1 -0.1)">
      <use xlink:href="#DejaVuSans-52"/>
      <use xlink:href="#DejaVuSans-65" transform="translate(64.982422 0)"/>
      <use xlink:href="#DejaVuSans-66" transform="translate(126.505859 0)"/>
      <use xlink:href="#DejaVuSans-20" transform="translate(161.710938 0)"/>
      <use xlink:href="#DejaVuSans-53" transform="translate(193.498047 0)"/>
      <use xlink:href="#DejaVuSans-70" transform="translate(256.974609 0)"/>
      <use xlink:href="#DejaVuSans-65" transform="translate(320.451172 0)"/>
      <use xlink:href="#DejaVuSans-65" transform="translate(381.974609 0)"/>
      <use xlink:href="#DejaVuSans-64" transform="translate(443.498047 0)"/>
      <use xlink:href="#DejaVuSans-20" transform="translate(506.974609 0)"/>
      <use xlink:href="#DejaVuSans-3d" transform="translate(538.761719 0)"/>
      <use xlink:href="#DejaVuSans-20" transform="translate(622.550781 0)"/>
      <use xlink:href="#DejaVuSans-31" transform="translate(654.337891 0)"/>
      <use xlink:href="#DejaVuSans-37" transform="translate(717.960938 0)"/>
      <use xlink:href="#DejaVuSans-30" transform="translate(781.583984 0)"/>
     </g>
    </g>
    <g id="line2d_30">
     <path d="M 324.390625 285.218438 
L 334.390625 285.218438 
L 344.390625 285.218438 
" style="fill: none; stroke: #e377c2; stroke-width: 1.5; stroke-linecap: square"/>
    </g>
    <g id="text_27">
     <!-- Ref Speed = 85 -->
     <g transform="translate(352.390625 288.718438) scale(0.1 -0.1)">
      <defs>
       <path id="DejaVuSans-38" d="M 2034 2216 
Q 1584 2216 1326 1975 
Q 1069 1734 1069 1313 
Q 1069 891 1326 650 
Q 1584 409 2034 409 
Q 2484 409 2743 651 
Q 3003 894 3003 1313 
Q 3003 1734 2745 1975 
Q 2488 2216 2034 2216 
z
M 1403 2484 
Q 997 2584 770 2862 
Q 544 3141 544 3541 
Q 544 4100 942 4425 
Q 1341 4750 2034 4750 
Q 2731 4750 3128 4425 
Q 3525 4100 3525 3541 
Q 3525 3141 3298 2862 
Q 3072 2584 2669 2484 
Q 3125 2378 3379 2068 
Q 3634 1759 3634 1313 
Q 3634 634 3220 271 
Q 2806 -91 2034 -91 
Q 1263 -91 848 271 
Q 434 634 434 1313 
Q 434 1759 690 2068 
Q 947 2378 1403 2484 
z
M 1172 3481 
Q 1172 3119 1398 2916 
Q 1625 2713 2034 2713 
Q 2441 2713 2670 2916 
Q 2900 3119 2900 3481 
Q 2900 3844 2670 4047 
Q 2441 4250 2034 4250 
Q 1625 4250 1398 4047 
Q 1172 3844 1172 3481 
z
" transform="scale(0.015625)"/>
      </defs>
      <use xlink:href="#DejaVuSans-52"/>
      <use xlink:href="#DejaVuSans-65" transform="translate(64.982422 0)"/>
      <use xlink:href="#DejaVuSans-66" transform="translate(126.505859 0)"/>
      <use xlink:href="#DejaVuSans-20" transform="translate(161.710938 0)"/>
      <use xlink:href="#DejaVuSans-53" transform="translate(193.498047 0)"/>
      <use xlink:href="#DejaVuSans-70" transform="translate(256.974609 0)"/>
      <use xlink:href="#DejaVuSans-65" transform="translate(320.451172 0)"/>
      <use xlink:href="#DejaVuSans-65" transform="translate(381.974609 0)"/>
      <use xlink:href="#DejaVuSans-64" transform="translate(443.498047 0)"/>
      <use xlink:href="#DejaVuSans-20" transform="translate(506.974609 0)"/>
      <use xlink:href="#DejaVuSans-3d" transform="translate(538.761719 0)"/>
      <use xlink:href="#DejaVuSans-20" transform="translate(622.550781 0)"/>
      <use xlink:href="#DejaVuSans-38" transform="translate(654.337891 0)"/>
      <use xlink:href="#DejaVuSans-35" transform="translate(717.960938 0)"/>
     </g>
    </g>
   </g>
  </g>
 </g>
 <defs>
  <clipPath id="pa484b31f0c">
   <rect x="46.965625" y="22.318125" width="398.95" height="277.48"/>
  </clipPath>
 </defs>
</svg>
