<?xml version="1.0" encoding="utf-8" standalone="no"?>
<!DOCTYPE svg PUBLIC "-//W3C//DTD SVG 1.1//EN"
  "http://www.w3.org/Graphics/SVG/1.1/DTD/svg11.dtd">
<svg xmlns:xlink="http://www.w3.org/1999/xlink" width="450.3125pt" height="334.991875pt" viewBox="0 0 450.3125 334.991875" xmlns="http://www.w3.org/2000/svg" version="1.1">
 <metadata>
  <rdf:RDF xmlns:dc="http://purl.org/dc/elements/1.1/" xmlns:cc="http://creativecommons.org/ns#" xmlns:rdf="http://www.w3.org/1999/02/22-rdf-syntax-ns#">
   <cc:Work>
    <dc:type rdf:resource="http://purl.org/dc/dcmitype/StillImage"/>
    <dc:date>2025-11-29T02:54:17.034612</dc:date>
    <dc:format>image/svg+xml</dc:format>
    <dc:creator>
     <cc:Agent>
      <dc:title>Matplotlib v3.10.6, https://matplotlib.org/</dc:title>
     </cc:Agent>
    </dc:creator>
   </cc:Work>
  </rdf:RDF>
 </metadata>
 <defs>
  <style type="text/css">*{stroke-linejoin: round; stroke-linecap: butt}</style>
 </defs>
 <g id="figure_1">
  <g id="patch_1">
   <path d="M 0 334.991875 
L 450.3125 334.991875 
L 450.3125 0 
L 0 0 
z
" style="fill: #ffffff"/>
  </g>
  <g id="axes_1">
   <g id="patch_2">
    <path d="M 34.2625 297.435625 
L 443.1125 297.435625 
L 443.1125 22.318125 
L 34.2625 22.318125 
z
" style="fill: #ffffff"/>
   </g>
   <g id="matplotlib.axis_1">
    <g id="xtick_1">
     <g id="line2d_1">
      <path d="M 52.846591 297.435625 
L 52.846591 22.318125 
" clip-path="url(#pff3a3d7f3d)" style="fill: none; stroke: #b0b0b0; stroke-width: 0.8; stroke-linecap: square"/>
     </g>
     <g id="line2d_2">
      <defs>
       <path id="m14222464fc" d="M 0 0 
L 0 3.5 
" style="stroke: #000000; stroke-width: 0.8"/>
      </defs>
      <g>
       <use xlink:href="#m14222464fc" x="52.846591" y="297.435625" style="stroke: #000000; stroke-width: 0.8"/>
      </g>
     </g>
     <g id="text_1">
      <!-- 0 -->
      <g transform="translate(49.665341 312.034062) scale(0.1 -0.1)">
       <defs>
        <path id="DejaVuSans-30" d="M 2034 4250 
Q 1547 4250 1301 3770 
Q 1056 3291 1056 2328 
Q 1056 1369 1301 889 
Q 1547 409 2034 409 
Q 2525 409 2770 889 
Q 3016 1369 3016 2328 
Q 3016 3291 2770 3770 
Q 2525 4250 2034 4250 
z
M 2034 4750 
Q 2819 4750 3233 4129 
Q 3647 3509 3647 2328 
Q 3647 1150 3233 529 
Q 2819 -91 2034 -91 
Q 1250 -91 836 529 
Q 422 1150 422 2328 
Q 422 3509 836 4129 
Q 1250 4750 2034 4750 
z
" transform="scale(0.015625)"/>
       </defs>
       <use xlink:href="#DejaVuSans-30"/>
      </g>
     </g>
    </g>
    <g id="xtick_2">
     <g id="line2d_3">
      <path d="M 109.333189 297.435625 
L 109.333189 22.318125 
" clip-path="url(#pff3a3d7f3d)" style="fill: none; stroke: #b0b0b0; stroke-width: 0.8; stroke-linecap: square"/>
     </g>
     <g id="line2d_4">
      <g>
       <use xlink:href="#m14222464fc" x="109.333189" y="297.435625" style="stroke: #000000; stroke-width: 0.8"/>
      </g>
     </g>
     <g id="text_2">
      <!-- 50 -->
      <g transform="translate(102.970689 312.034062) scale(0.1 -0.1)">
       <defs>
        <path id="DejaVuSans-35" d="M 691 4666 
L 3169 4666 
L 3169 4134 
L 1269 4134 
L 1269 2991 
Q 1406 3038 1543 3061 
Q 1681 3084 1819 3084 
Q 2600 3084 3056 2656 
Q 3513 2228 3513 1497 
Q 3513 744 3044 326 
Q 2575 -91 1722 -91 
Q 1428 -91 1123 -41 
Q 819 9 494 109 
L 494 744 
Q 775 591 1075 516 
Q 1375 441 1709 441 
Q 2250 441 2565 725 
Q 2881 1009 2881 1497 
Q 2881 1984 2565 2268 
Q 2250 2553 1709 2553 
Q 1456 2553 1204 2497 
Q 953 2441 691 2322 
L 691 4666 
z
" transform="scale(0.015625)"/>
       </defs>
       <use xlink:href="#DejaVuSans-35"/>
       <use xlink:href="#DejaVuSans-30" transform="translate(63.623047 0)"/>
      </g>
     </g>
    </g>
    <g id="xtick_3">
     <g id="line2d_5">
      <path d="M 165.819788 297.435625 
L 165.819788 22.318125 
" clip-path="url(#pff3a3d7f3d)" style="fill: none; stroke: #b0b0b0; stroke-width: 0.8; stroke-linecap: square"/>
     </g>
     <g id="line2d_6">
      <g>
       <use xlink:href="#m14222464fc" x="165.819788" y="297.435625" style="stroke: #000000; stroke-width: 0.8"/>
      </g>
     </g>
     <g id="text_3">
      <!-- 100 -->
      <g transform="translate(156.276038 312.034062) scale(0.1 -0.1)">
       <defs>
        <path id="DejaVuSans-31" d="M 794 531 
L 1825 531 
L 1825 4091 
L 703 3866 
L 703 4441 
L 1819 4666 
L 2450 4666 
L 2450 531 
L 3481 531 
L 3481 0 
L 794 0 
L 794 531 
z
" transform="scale(0.015625)"/>
       </defs>
       <use xlink:href="#DejaVuSans-31"/>
       <use xlink:href="#DejaVuSans-30" transform="translate(63.623047 0)"/>
       <use xlink:href="#DejaVuSans-30" transform="translate(127.246094 0)"/>
      </g>
     </g>
    </g>
    <g id="xtick_4">
     <g id="line2d_7">
      <path d="M 222.306386 297.435625 
L 222.306386 22.318125 
" clip-path="url(#pff3a3d7f3d)" style="fill: none; stroke: #b0b0b0; stroke-width: 0.8; stroke-linecap: square"/>
     </g>
     <g id="line2d_8">
      <g>
       <use xlink:href="#m14222464fc" x="222.306386" y="297.435625" style="stroke: #000000; stroke-width: 0.8"/>
      </g>
     </g>
     <g id="text_4">
      <!-- 150 -->
      <g transform="translate(212.762636 312.034062) scale(0.1 -0.1)">
       <use xlink:href="#DejaVuSans-31"/>
       <use xlink:href="#DejaVuSans-35" transform="translate(63.623047 0)"/>
       <use xlink:href="#DejaVuSans-30" transform="translate(127.246094 0)"/>
      </g>
     </g>
    </g>
    <g id="xtick_5">
     <g id="line2d_9">
      <path d="M 278.792985 297.435625 
L 278.792985 22.318125 
" clip-path="url(#pff3a3d7f3d)" style="fill: none; stroke: #b0b0b0; stroke-width: 0.8; stroke-linecap: square"/>
     </g>
     <g id="line2d_10">
      <g>
       <use xlink:href="#m14222464fc" x="278.792985" y="297.435625" style="stroke: #000000; stroke-width: 0.8"/>
      </g>
     </g>
     <g id="text_5">
      <!-- 200 -->
      <g transform="translate(269.249235 312.034062) scale(0.1 -0.1)">
       <defs>
        <path id="DejaVuSans-32" d="M 1228 531 
L 3431 531 
L 3431 0 
L 469 0 
L 469 531 
Q 828 903 1448 1529 
Q 2069 2156 2228 2338 
Q 2531 2678 2651 2914 
Q 2772 3150 2772 3378 
Q 2772 3750 2511 3984 
Q 2250 4219 1831 4219 
Q 1534 4219 1204 4116 
Q 875 4013 500 3803 
L 500 4441 
Q 881 4594 1212 4672 
Q 1544 4750 1819 4750 
Q 2544 4750 2975 4387 
Q 3406 4025 3406 3419 
Q 3406 3131 3298 2873 
Q 3191 2616 2906 2266 
Q 2828 2175 2409 1742 
Q 1991 1309 1228 531 
z
" transform="scale(0.015625)"/>
       </defs>
       <use xlink:href="#DejaVuSans-32"/>
       <use xlink:href="#DejaVuSans-30" transform="translate(63.623047 0)"/>
       <use xlink:href="#DejaVuSans-30" transform="translate(127.246094 0)"/>
      </g>
     </g>
    </g>
    <g id="xtick_6">
     <g id="line2d_11">
      <path d="M 335.279583 297.435625 
L 335.279583 22.318125 
" clip-path="url(#pff3a3d7f3d)" style="fill: none; stroke: #b0b0b0; stroke-width: 0.8; stroke-linecap: square"/>
     </g>
     <g id="line2d_12">
      <g>
       <use xlink:href="#m14222464fc" x="335.279583" y="297.435625" style="stroke: #000000; stroke-width: 0.8"/>
      </g>
     </g>
     <g id="text_6">
      <!-- 250 -->
      <g transform="translate(325.735833 312.034062) scale(0.1 -0.1)">
       <use xlink:href="#DejaVuSans-32"/>
       <use xlink:href="#DejaVuSans-35" transform="translate(63.623047 0)"/>
       <use xlink:href="#DejaVuSans-30" transform="translate(127.246094 0)"/>
      </g>
     </g>
    </g>
    <g id="xtick_7">
     <g id="line2d_13">
      <path d="M 391.766182 297.435625 
L 391.766182 22.318125 
" clip-path="url(#pff3a3d7f3d)" style="fill: none; stroke: #b0b0b0; stroke-width: 0.8; stroke-linecap: square"/>
     </g>
     <g id="line2d_14">
      <g>
       <use xlink:href="#m14222464fc" x="391.766182" y="297.435625" style="stroke: #000000; stroke-width: 0.8"/>
      </g>
     </g>
     <g id="text_7">
      <!-- 300 -->
      <g transform="translate(382.222432 312.034062) scale(0.1 -0.1)">
       <defs>
        <path id="DejaVuSans-33" d="M 2597 2516 
Q 3050 2419 3304 2112 
Q 3559 1806 3559 1356 
Q 3559 666 3084 287 
Q 2609 -91 1734 -91 
Q 1441 -91 1130 -33 
Q 819 25 488 141 
L 488 750 
Q 750 597 1062 519 
Q 1375 441 1716 441 
Q 2309 441 2620 675 
Q 2931 909 2931 1356 
Q 2931 1769 2642 2001 
Q 2353 2234 1838 2234 
L 1294 2234 
L 1294 2753 
L 1863 2753 
Q 2328 2753 2575 2939 
Q 2822 3125 2822 3475 
Q 2822 3834 2567 4026 
Q 2313 4219 1838 4219 
Q 1578 4219 1281 4162 
Q 984 4106 628 3988 
L 628 4550 
Q 988 4650 1302 4700 
Q 1616 4750 1894 4750 
Q 2613 4750 3031 4423 
Q 3450 4097 3450 3541 
Q 3450 3153 3228 2886 
Q 3006 2619 2597 2516 
z
" transform="scale(0.015625)"/>
       </defs>
       <use xlink:href="#DejaVuSans-33"/>
       <use xlink:href="#DejaVuSans-30" transform="translate(63.623047 0)"/>
       <use xlink:href="#DejaVuSans-30" transform="translate(127.246094 0)"/>
      </g>
     </g>
    </g>
    <g id="text_8">
     <!-- index, $i$, [-] -->
     <g transform="translate(211.4375 325.712187) scale(0.1 -0.1)">
      <defs>
       <path id="DejaVuSans-69" d="M 603 3500 
L 1178 3500 
L 1178 0 
L 603 0 
L 603 3500 
z
M 603 4863 
L 1178 4863 
L 1178 4134 
L 603 4134 
L 603 4863 
z
" transform="scale(0.015625)"/>
       <path id="DejaVuSans-6e" d="M 3513 2113 
L 3513 0 
L 2938 0 
L 2938 2094 
Q 2938 2591 2744 2837 
Q 2550 3084 2163 3084 
Q 1697 3084 1428 2787 
Q 1159 2491 1159 1978 
L 1159 0 
L 581 0 
L 581 3500 
L 1159 3500 
L 1159 2956 
Q 1366 3272 1645 3428 
Q 1925 3584 2291 3584 
Q 2894 3584 3203 3211 
Q 3513 2838 3513 2113 
z
" transform="scale(0.015625)"/>
       <path id="DejaVuSans-64" d="M 2906 2969 
L 2906 4863 
L 3481 4863 
L 3481 0 
L 2906 0 
L 2906 525 
Q 2725 213 2448 61 
Q 2172 -91 1784 -91 
Q 1150 -91 751 415 
Q 353 922 353 1747 
Q 353 2572 751 3078 
Q 1150 3584 1784 3584 
Q 2172 3584 2448 3432 
Q 2725 3281 2906 2969 
z
M 947 1747 
Q 947 1113 1208 752 
Q 1469 391 1925 391 
Q 2381 391 2643 752 
Q 2906 1113 2906 1747 
Q 2906 2381 2643 2742 
Q 2381 3103 1925 3103 
Q 1469 3103 1208 2742 
Q 947 2381 947 1747 
z
" transform="scale(0.015625)"/>
       <path id="DejaVuSans-65" d="M 3597 1894 
L 3597 1613 
L 953 1613 
Q 991 1019 1311 708 
Q 1631 397 2203 397 
Q 2534 397 2845 478 
Q 3156 559 3463 722 
L 3463 178 
Q 3153 47 2828 -22 
Q 2503 -91 2169 -91 
Q 1331 -91 842 396 
Q 353 884 353 1716 
Q 353 2575 817 3079 
Q 1281 3584 2069 3584 
Q 2775 3584 3186 3129 
Q 3597 2675 3597 1894 
z
M 3022 2063 
Q 3016 2534 2758 2815 
Q 2500 3097 2075 3097 
Q 1594 3097 1305 2825 
Q 1016 2553 972 2059 
L 3022 2063 
z
" transform="scale(0.015625)"/>
       <path id="DejaVuSans-78" d="M 3513 3500 
L 2247 1797 
L 3578 0 
L 2900 0 
L 1881 1375 
L 863 0 
L 184 0 
L 1544 1831 
L 300 3500 
L 978 3500 
L 1906 2253 
L 2834 3500 
L 3513 3500 
z
" transform="scale(0.015625)"/>
       <path id="DejaVuSans-2c" d="M 750 794 
L 1409 794 
L 1409 256 
L 897 -744 
L 494 -744 
L 750 256 
L 750 794 
z
" transform="scale(0.015625)"/>
       <path id="DejaVuSans-20" transform="scale(0.015625)"/>
       <path id="DejaVuSans-Oblique-69" d="M 1172 4863 
L 1747 4863 
L 1606 4134 
L 1031 4134 
L 1172 4863 
z
M 909 3500 
L 1484 3500 
L 800 0 
L 225 0 
L 909 3500 
z
" transform="scale(0.015625)"/>
       <path id="DejaVuSans-5b" d="M 550 4863 
L 1875 4863 
L 1875 4416 
L 1125 4416 
L 1125 -397 
L 1875 -397 
L 1875 -844 
L 550 -844 
L 550 4863 
z
" transform="scale(0.015625)"/>
       <path id="DejaVuSans-2d" d="M 313 2009 
L 1997 2009 
L 1997 1497 
L 313 1497 
L 313 2009 
z
" transform="scale(0.015625)"/>
       <path id="DejaVuSans-5d" d="M 1947 4863 
L 1947 -844 
L 622 -844 
L 622 -397 
L 1369 -397 
L 1369 4416 
L 622 4416 
L 622 4863 
L 1947 4863 
z
" transform="scale(0.015625)"/>
      </defs>
      <use xlink:href="#DejaVuSans-69" transform="translate(0 0.015625)"/>
      <use xlink:href="#DejaVuSans-6e" transform="translate(27.783203 0.015625)"/>
      <use xlink:href="#DejaVuSans-64" transform="translate(91.162109 0.015625)"/>
      <use xlink:href="#DejaVuSans-65" transform="translate(154.638672 0.015625)"/>
      <use xlink:href="#DejaVuSans-78" transform="translate(216.162109 0.015625)"/>
      <use xlink:href="#DejaVuSans-2c" transform="translate(275.341797 0.015625)"/>
      <use xlink:href="#DejaVuSans-20" transform="translate(307.128906 0.015625)"/>
      <use xlink:href="#DejaVuSans-Oblique-69" transform="translate(338.916016 0.015625)"/>
      <use xlink:href="#DejaVuSans-2c" transform="translate(366.699219 0.015625)"/>
      <use xlink:href="#DejaVuSans-20" transform="translate(398.486328 0.015625)"/>
      <use xlink:href="#DejaVuSans-5b" transform="translate(430.273438 0.015625)"/>
      <use xlink:href="#DejaVuSans-2d" transform="translate(469.287109 0.015625)"/>
      <use xlink:href="#DejaVuSans-5d" transform="translate(505.371094 0.015625)"/>
     </g>
    </g>
   </g>
   <g id="matplotlib.axis_2">
    <g id="ytick_1">
     <g id="line2d_15">
      <path d="M 34.2625 283.961685 
L 443.1125 283.961685 
" clip-path="url(#pff3a3d7f3d)" style="fill: none; stroke: #b0b0b0; stroke-width: 0.8; stroke-linecap: square"/>
     </g>
     <g id="line2d_16">
      <defs>
       <path id="m39dbd1bc77" d="M 0 0 
L -3.5 0 
" style="stroke: #000000; stroke-width: 0.8"/>
      </defs>
      <g>
       <use xlink:href="#m39dbd1bc77" x="34.2625" y="283.961685" style="stroke: #000000; stroke-width: 0.8"/>
      </g>
     </g>
     <g id="text_9">
      <!-- 0 -->
      <g transform="translate(20.9 287.760904) scale(0.1 -0.1)">
       <use xlink:href="#DejaVuSans-30"/>
      </g>
     </g>
    </g>
    <g id="ytick_2">
     <g id="line2d_17">
      <path d="M 34.2625 244.337203 
L 443.1125 244.337203 
" clip-path="url(#pff3a3d7f3d)" style="fill: none; stroke: #b0b0b0; stroke-width: 0.8; stroke-linecap: square"/>
     </g>
     <g id="line2d_18">
      <g>
       <use xlink:href="#m39dbd1bc77" x="34.2625" y="244.337203" style="stroke: #000000; stroke-width: 0.8"/>
      </g>
     </g>
     <g id="text_10">
      <!-- 1 -->
      <g transform="translate(20.9 248.136422) scale(0.1 -0.1)">
       <use xlink:href="#DejaVuSans-31"/>
      </g>
     </g>
    </g>
    <g id="ytick_3">
     <g id="line2d_19">
      <path d="M 34.2625 204.712721 
L 443.1125 204.712721 
" clip-path="url(#pff3a3d7f3d)" style="fill: none; stroke: #b0b0b0; stroke-width: 0.8; stroke-linecap: square"/>
     </g>
     <g id="line2d_20">
      <g>
       <use xlink:href="#m39dbd1bc77" x="34.2625" y="204.712721" style="stroke: #000000; stroke-width: 0.8"/>
      </g>
     </g>
     <g id="text_11">
      <!-- 2 -->
      <g transform="translate(20.9 208.511939) scale(0.1 -0.1)">
       <use xlink:href="#DejaVuSans-32"/>
      </g>
     </g>
    </g>
    <g id="ytick_4">
     <g id="line2d_21">
      <path d="M 34.2625 165.088238 
L 443.1125 165.088238 
" clip-path="url(#pff3a3d7f3d)" style="fill: none; stroke: #b0b0b0; stroke-width: 0.8; stroke-linecap: square"/>
     </g>
     <g id="line2d_22">
      <g>
       <use xlink:href="#m39dbd1bc77" x="34.2625" y="165.088238" style="stroke: #000000; stroke-width: 0.8"/>
      </g>
     </g>
     <g id="text_12">
      <!-- 3 -->
      <g transform="translate(20.9 168.887457) scale(0.1 -0.1)">
       <use xlink:href="#DejaVuSans-33"/>
      </g>
     </g>
    </g>
    <g id="ytick_5">
     <g id="line2d_23">
      <path d="M 34.2625 125.463756 
L 443.1125 125.463756 
" clip-path="url(#pff3a3d7f3d)" style="fill: none; stroke: #b0b0b0; stroke-width: 0.8; stroke-linecap: square"/>
     </g>
     <g id="line2d_24">
      <g>
       <use xlink:href="#m39dbd1bc77" x="34.2625" y="125.463756" style="stroke: #000000; stroke-width: 0.8"/>
      </g>
     </g>
     <g id="text_13">
      <!-- 4 -->
      <g transform="translate(20.9 129.262975) scale(0.1 -0.1)">
       <defs>
        <path id="DejaVuSans-34" d="M 2419 4116 
L 825 1625 
L 2419 1625 
L 2419 4116 
z
M 2253 4666 
L 3047 4666 
L 3047 1625 
L 3713 1625 
L 3713 1100 
L 3047 1100 
L 3047 0 
L 2419 0 
L 2419 1100 
L 313 1100 
L 313 1709 
L 2253 4666 
z
" transform="scale(0.015625)"/>
       </defs>
       <use xlink:href="#DejaVuSans-34"/>
      </g>
     </g>
    </g>
    <g id="ytick_6">
     <g id="line2d_25">
      <path d="M 34.2625 85.839274 
L 443.1125 85.839274 
" clip-path="url(#pff3a3d7f3d)" style="fill: none; stroke: #b0b0b0; stroke-width: 0.8; stroke-linecap: square"/>
     </g>
     <g id="line2d_26">
      <g>
       <use xlink:href="#m39dbd1bc77" x="34.2625" y="85.839274" style="stroke: #000000; stroke-width: 0.8"/>
      </g>
     </g>
     <g id="text_14">
      <!-- 5 -->
      <g transform="translate(20.9 89.638492) scale(0.1 -0.1)">
       <use xlink:href="#DejaVuSans-35"/>
      </g>
     </g>
    </g>
    <g id="ytick_7">
     <g id="line2d_27">
      <path d="M 34.2625 46.214791 
L 443.1125 46.214791 
" clip-path="url(#pff3a3d7f3d)" style="fill: none; stroke: #b0b0b0; stroke-width: 0.8; stroke-linecap: square"/>
     </g>
     <g id="line2d_28">
      <g>
       <use xlink:href="#m39dbd1bc77" x="34.2625" y="46.214791" style="stroke: #000000; stroke-width: 0.8"/>
      </g>
     </g>
     <g id="text_15">
      <!-- 6 -->
      <g transform="translate(20.9 50.01401) scale(0.1 -0.1)">
       <defs>
        <path id="DejaVuSans-36" d="M 2113 2584 
Q 1688 2584 1439 2293 
Q 1191 2003 1191 1497 
Q 1191 994 1439 701 
Q 1688 409 2113 409 
Q 2538 409 2786 701 
Q 3034 994 3034 1497 
Q 3034 2003 2786 2293 
Q 2538 2584 2113 2584 
z
M 3366 4563 
L 3366 3988 
Q 3128 4100 2886 4159 
Q 2644 4219 2406 4219 
Q 1781 4219 1451 3797 
Q 1122 3375 1075 2522 
Q 1259 2794 1537 2939 
Q 1816 3084 2150 3084 
Q 2853 3084 3261 2657 
Q 3669 2231 3669 1497 
Q 3669 778 3244 343 
Q 2819 -91 2113 -91 
Q 1303 -91 875 529 
Q 447 1150 447 2328 
Q 447 3434 972 4092 
Q 1497 4750 2381 4750 
Q 2619 4750 2861 4703 
Q 3103 4656 3366 4563 
z
" transform="scale(0.015625)"/>
       </defs>
       <use xlink:href="#DejaVuSans-36"/>
      </g>
     </g>
    </g>
    <g id="text_16">
     <!-- IMU heading, $\psi$, [rad] -->
     <g transform="translate(14.8 213.026875) rotate(-90) scale(0.1 -0.1)">
      <defs>
       <path id="DejaVuSans-49" d="M 628 4666 
L 1259 4666 
L 1259 0 
L 628 0 
L 628 4666 
z
" transform="scale(0.015625)"/>
       <path id="DejaVuSans-4d" d="M 628 4666 
L 1569 4666 
L 2759 1491 
L 3956 4666 
L 4897 4666 
L 4897 0 
L 4281 0 
L 4281 4097 
L 3078 897 
L 2444 897 
L 1241 4097 
L 1241 0 
L 628 0 
L 628 4666 
z
" transform="scale(0.015625)"/>
       <path id="DejaVuSans-55" d="M 556 4666 
L 1191 4666 
L 1191 1831 
Q 1191 1081 1462 751 
Q 1734 422 2344 422 
Q 2950 422 3222 751 
Q 3494 1081 3494 1831 
L 3494 4666 
L 4128 4666 
L 4128 1753 
Q 4128 841 3676 375 
Q 3225 -91 2344 -91 
Q 1459 -91 1007 375 
Q 556 841 556 1753 
L 556 4666 
z
" transform="scale(0.015625)"/>
       <path id="DejaVuSans-68" d="M 3513 2113 
L 3513 0 
L 2938 0 
L 2938 2094 
Q 2938 2591 2744 2837 
Q 2550 3084 2163 3084 
Q 1697 3084 1428 2787 
Q 1159 2491 1159 1978 
L 1159 0 
L 581 0 
L 581 4863 
L 1159 4863 
L 1159 2956 
Q 1366 3272 1645 3428 
Q 1925 3584 2291 3584 
Q 2894 3584 3203 3211 
Q 3513 2838 3513 2113 
z
" transform="scale(0.015625)"/>
       <path id="DejaVuSans-61" d="M 2194 1759 
Q 1497 1759 1228 1600 
Q 959 1441 959 1056 
Q 959 750 1161 570 
Q 1363 391 1709 391 
Q 2188 391 2477 730 
Q 2766 1069 2766 1631 
L 2766 1759 
L 2194 1759 
z
M 3341 1997 
L 3341 0 
L 2766 0 
L 2766 531 
Q 2569 213 2275 61 
Q 1981 -91 1556 -91 
Q 1019 -91 701 211 
Q 384 513 384 1019 
Q 384 1609 779 1909 
Q 1175 2209 1959 2209 
L 2766 2209 
L 2766 2266 
Q 2766 2663 2505 2880 
Q 2244 3097 1772 3097 
Q 1472 3097 1187 3025 
Q 903 2953 641 2809 
L 641 3341 
Q 956 3463 1253 3523 
Q 1550 3584 1831 3584 
Q 2591 3584 2966 3190 
Q 3341 2797 3341 1997 
z
" transform="scale(0.015625)"/>
       <path id="DejaVuSans-67" d="M 2906 1791 
Q 2906 2416 2648 2759 
Q 2391 3103 1925 3103 
Q 1463 3103 1205 2759 
Q 947 2416 947 1791 
Q 947 1169 1205 825 
Q 1463 481 1925 481 
Q 2391 481 2648 825 
Q 2906 1169 2906 1791 
z
M 3481 434 
Q 3481 -459 3084 -895 
Q 2688 -1331 1869 -1331 
Q 1566 -1331 1297 -1286 
Q 1028 -1241 775 -1147 
L 775 -588 
Q 1028 -725 1275 -790 
Q 1522 -856 1778 -856 
Q 2344 -856 2625 -561 
Q 2906 -266 2906 331 
L 2906 616 
Q 2728 306 2450 153 
Q 2172 0 1784 0 
Q 1141 0 747 490 
Q 353 981 353 1791 
Q 353 2603 747 3093 
Q 1141 3584 1784 3584 
Q 2172 3584 2450 3431 
Q 2728 3278 2906 2969 
L 2906 3500 
L 3481 3500 
L 3481 434 
z
" transform="scale(0.015625)"/>
       <path id="DejaVuSans-Oblique-3c8" d="M 1591 -78 
Q 891 38 616 341 
Q 278 713 425 1472 
L 819 3500 
L 1400 3500 
L 1009 1494 
Q 900 922 1119 684 
Q 1313 478 1691 434 
L 2284 3500 
L 2856 3500 
L 2263 438 
Q 2681 481 2928 688 
Q 3247 950 3353 1497 
L 3741 3500 
L 4322 3500 
L 3928 1475 
Q 3775 688 3300 344 
Q 2872 34 2163 -75 
L 1919 -1331 
L 1347 -1331 
L 1591 -78 
z
" transform="scale(0.015625)"/>
       <path id="DejaVuSans-72" d="M 2631 2963 
Q 2534 3019 2420 3045 
Q 2306 3072 2169 3072 
Q 1681 3072 1420 2755 
Q 1159 2438 1159 1844 
L 1159 0 
L 581 0 
L 581 3500 
L 1159 3500 
L 1159 2956 
Q 1341 3275 1631 3429 
Q 1922 3584 2338 3584 
Q 2397 3584 2469 3576 
Q 2541 3569 2628 3553 
L 2631 2963 
z
" transform="scale(0.015625)"/>
      </defs>
      <use xlink:href="#DejaVuSans-49" transform="translate(0 0.015625)"/>
      <use xlink:href="#DejaVuSans-4d" transform="translate(29.492188 0.015625)"/>
      <use xlink:href="#DejaVuSans-55" transform="translate(115.771484 0.015625)"/>
      <use xlink:href="#DejaVuSans-20" transform="translate(188.964844 0.015625)"/>
      <use xlink:href="#DejaVuSans-68" transform="translate(220.751953 0.015625)"/>
      <use xlink:href="#DejaVuSans-65" transform="translate(284.130859 0.015625)"/>
      <use xlink:href="#DejaVuSans-61" transform="translate(345.654297 0.015625)"/>
      <use xlink:href="#DejaVuSans-64" transform="translate(406.933594 0.015625)"/>
      <use xlink:href="#DejaVuSans-69" transform="translate(470.410156 0.015625)"/>
      <use xlink:href="#DejaVuSans-6e" transform="translate(498.193359 0.015625)"/>
      <use xlink:href="#DejaVuSans-67" transform="translate(561.572266 0.015625)"/>
      <use xlink:href="#DejaVuSans-2c" transform="translate(625.048828 0.015625)"/>
      <use xlink:href="#DejaVuSans-20" transform="translate(656.835938 0.015625)"/>
      <use xlink:href="#DejaVuSans-Oblique-3c8" transform="translate(688.623047 0.015625)"/>
      <use xlink:href="#DejaVuSans-2c" transform="translate(754.589844 0.015625)"/>
      <use xlink:href="#DejaVuSans-20" transform="translate(786.376953 0.015625)"/>
      <use xlink:href="#DejaVuSans-5b" transform="translate(818.164062 0.015625)"/>
      <use xlink:href="#DejaVuSans-72" transform="translate(857.177734 0.015625)"/>
      <use xlink:href="#DejaVuSans-61" transform="translate(898.291016 0.015625)"/>
      <use xlink:href="#DejaVuSans-64" transform="translate(959.570312 0.015625)"/>
      <use xlink:href="#DejaVuSans-5d" transform="translate(1023.046875 0.015625)"/>
     </g>
    </g>
   </g>
   <g id="line2d_29">
    <path d="M 52.846591 283.961685 
L 55.106055 283.961685 
L 56.235787 284.093767 
L 59.624983 284.930284 
L 61.884447 284.842229 
L 63.014179 284.798202 
L 65.273643 284.401957 
L 66.403375 283.74742 
L 67.533107 282.82284 
L 70.922302 278.199981 
L 72.052034 277.363464 
L 73.181766 275.514324 
L 74.311498 274.985999 
L 75.44123 273.136859 
L 76.570962 272.520485 
L 77.700694 271.683952 
L 79.960158 270.319115 
L 81.08989 269.526625 
L 82.219622 267.765535 
L 83.349354 266.840973 
L 84.479086 265.476115 
L 85.608818 264.639583 
L 86.73855 263.230719 
L 87.868282 262.966558 
L 88.998014 261.909904 
L 90.127746 261.689766 
L 91.257478 261.029369 
L 92.38721 260.501044 
L 93.516942 259.576462 
L 94.646674 258.916065 
L 95.776406 257.59525 
L 96.906138 256.978855 
L 98.03587 256.230392 
L 99.165602 255.834155 
L 100.295334 254.909578 
L 101.425066 254.68944 
L 103.68453 253.19251 
L 104.814262 252.135856 
L 105.943994 251.519461 
L 107.073725 250.110597 
L 108.203457 249.318111 
L 109.333189 247.865205 
L 110.462921 247.204807 
L 111.592653 246.19218 
L 112.722385 245.972038 
L 117.241313 244.475128 
L 118.371045 243.594601 
L 119.500777 243.11031 
L 120.630509 242.097667 
L 121.760241 241.481308 
L 122.889973 240.424642 
L 124.019705 240.116443 
L 125.149437 239.676175 
L 126.279169 239.411999 
L 127.408901 238.839663 
L 128.538633 238.443418 
L 129.668365 237.606905 
L 130.798097 237.210661 
L 131.927829 236.682347 
L 133.057561 236.374148 
L 134.187293 235.75775 
L 135.317025 235.449551 
L 136.446757 234.657061 
L 137.576489 234.260856 
L 138.706221 233.556412 
L 139.835953 233.160167 
L 140.965685 232.4117 
L 142.095417 232.015455 
L 143.225149 231.44308 
L 144.35488 231.002812 
L 145.484612 230.078254 
L 146.614344 229.637986 
L 147.744076 228.713428 
L 148.873808 228.273161 
L 150.00354 227.480671 
L 151.133272 226.864272 
L 152.263004 225.587492 
L 153.392736 224.927071 
L 154.522468 223.562245 
L 155.6522 222.945847 
L 156.781932 221.845158 
L 157.911664 221.316845 
L 159.041396 220.12811 
L 160.171128 219.511712 
L 161.30086 218.058841 
L 162.430592 217.354397 
L 163.560324 215.989571 
L 164.690056 215.285127 
L 165.819788 213.788193 
L 166.94952 213.039726 
L 168.079252 211.674901 
L 169.208984 211.01448 
L 170.338716 210.001876 
L 171.468448 209.297432 
L 172.59818 208.020652 
L 173.727912 207.448276 
L 174.857644 206.347587 
L 175.987376 205.819274 
L 177.117108 204.674562 
L 178.24684 204.058204 
L 179.376572 203.177629 
L 180.506304 202.693338 
L 181.636036 201.76878 
L 182.765767 201.328513 
L 183.895499 200.580046 
L 185.025231 200.315869 
L 186.154963 199.875602 
L 187.284695 199.611425 
L 188.414427 198.995066 
L 189.544159 198.642844 
L 190.673891 197.674224 
L 191.803623 197.145911 
L 192.933355 196.133267 
L 194.063087 195.560931 
L 195.192819 194.460243 
L 196.322551 193.931929 
L 197.452283 192.787218 
L 198.582015 192.302927 
L 199.711747 191.37833 
L 200.841479 190.982085 
L 201.971211 190.233658 
L 203.100943 189.881435 
L 204.230675 189.088946 
L 205.360407 188.736724 
L 206.490139 187.768103 
L 207.619871 187.371859 
L 208.749603 186.403278 
L 209.879335 185.830902 
L 211.009067 184.862321 
L 212.138799 184.422054 
L 213.268531 183.673587 
L 214.398263 183.365387 
L 215.527995 182.92512 
L 216.657727 182.704966 
L 218.917191 181.604317 
L 220.046922 180.547651 
L 221.176654 179.931292 
L 222.306386 178.478381 
L 223.436118 177.773937 
L 224.56585 176.321026 
L 225.695582 175.660645 
L 226.825314 174.648001 
L 227.955046 174.163711 
L 229.084778 173.018999 
L 230.21451 172.358578 
L 231.344242 170.993752 
L 232.473974 170.509462 
L 233.603706 169.408773 
L 234.733438 168.88046 
L 235.86317 167.779771 
L 236.992902 167.207395 
L 238.122634 166.018661 
L 239.252366 165.446325 
L 240.382098 164.697858 
L 241.51183 164.433682 
L 242.641562 163.817323 
L 243.771294 163.377055 
L 244.901026 162.276366 
L 246.030758 161.527899 
L 247.16049 159.810852 
L 248.290222 158.842231 
L 249.419954 156.816984 
L 250.549686 155.804381 
L 251.679418 153.999248 
L 252.80915 153.426912 
L 253.938882 152.502314 
L 255.068614 151.974001 
L 256.198346 150.741244 
L 257.328078 150.21293 
L 258.457809 149.200287 
L 259.587541 148.627951 
L 260.717273 147.439217 
L 261.847005 146.734773 
L 262.976737 145.41393 
L 264.106469 144.753548 
L 265.236201 143.34466 
L 266.365933 142.772324 
L 267.495665 141.671635 
L 268.625397 141.187345 
L 269.755129 140.30681 
L 270.884861 139.910565 
L 272.014593 139.250144 
L 273.144325 139.02999 
L 274.274057 138.589722 
L 275.403789 138.325586 
L 276.533521 137.621142 
L 277.663253 137.26892 
L 278.792985 136.432407 
L 279.922717 135.948117 
L 281.052449 134.847428 
L 282.182181 134.275052 
L 283.311913 133.042295 
L 284.441645 132.425936 
L 285.571377 131.633446 
L 286.701109 131.149116 
L 287.830841 130.268581 
L 288.960573 129.828314 
L 290.090305 128.903755 
L 291.220037 128.463488 
L 292.349769 127.450845 
L 293.479501 126.966554 
L 294.609233 125.953911 
L 295.738964 125.425598 
L 296.868696 124.324909 
L 297.998428 123.840618 
L 299.12816 122.960043 
L 300.257892 122.563799 
L 301.387624 121.771349 
L 302.517356 121.15495 
L 303.647088 120.054301 
L 304.77682 119.569971 
L 305.906552 118.60139 
L 307.036284 118.161083 
L 308.166016 117.368633 
L 309.295748 116.928365 
L 310.42548 116.003767 
L 311.555212 115.519477 
L 312.684944 114.550857 
L 313.814676 114.066566 
L 314.944408 113.053923 
L 316.07414 112.52561 
L 317.203872 111.380898 
L 318.333604 110.852585 
L 319.463336 109.751896 
L 320.593068 109.223583 
L 321.7228 108.166917 
L 322.852532 107.682626 
L 323.982264 106.537915 
L 325.111996 105.921556 
L 326.241728 104.688798 
L 327.37146 104.028417 
L 328.501192 102.707574 
L 329.630924 102.047193 
L 330.760656 100.770373 
L 331.890388 100.065929 
L 333.02012 98.701103 
L 334.149851 97.996659 
L 335.279583 96.587771 
L 336.409315 95.92739 
L 337.539047 94.826701 
L 338.668779 94.298387 
L 339.798511 93.461835 
L 340.928243 93.065591 
L 342.057975 92.361146 
L 343.187707 92.09701 
L 344.317439 91.568657 
L 345.447171 91.216435 
L 346.576903 90.379922 
L 347.706635 89.85157 
L 348.836367 88.75092 
L 349.966099 88.26659 
L 351.095831 87.033873 
L 352.225563 86.373451 
L 353.355295 84.964563 
L 354.485027 84.260119 
L 355.614759 82.983339 
L 356.744491 82.411003 
L 357.874223 81.134223 
L 359.003955 80.473802 
L 360.133687 79.285067 
L 361.263419 78.668708 
L 362.393151 77.391928 
L 363.522883 76.731507 
L 364.652615 75.454727 
L 365.782347 74.882351 
L 366.912079 73.693617 
L 368.041811 73.165304 
L 369.171543 72.196723 
L 370.301275 71.800438 
L 371.431006 71.272125 
L 372.560738 70.963926 
L 373.69047 70.347567 
L 374.820202 69.951322 
L 375.949934 68.938719 
L 377.079666 68.32232 
L 378.209398 66.957495 
L 379.33913 66.253051 
L 380.468862 64.888185 
L 381.598594 64.139718 
L 382.728326 62.774893 
L 383.858058 62.202517 
L 384.98779 61.366005 
L 386.117522 60.96976 
L 387.247254 60.265316 
L 388.376986 59.913094 
L 389.506718 59.20865 
L 390.63645 58.768382 
L 391.766182 57.93187 
L 392.895914 57.359534 
L 394.025646 56.302868 
L 395.155378 55.774554 
L 396.28511 54.673865 
L 397.414842 54.101529 
L 398.544574 53.132909 
L 399.674306 52.472527 
L 400.804038 51.019616 
L 401.93377 50.227127 
L 403.063502 49.126438 
L 404.193234 48.642148 
L 405.322966 47.761573 
L 406.452698 47.40939 
L 407.58243 46.748969 
L 410.971625 45.119967 
L 412.101357 44.063301 
L 413.231089 43.755102 
L 414.360821 42.61043 
L 415.490553 41.994031 
L 416.620285 40.63507 
L 417.750017 39.974649 
L 418.879749 38.653846 
L 421.139213 36.760667 
L 422.268945 36.232354 
L 423.398677 35.131665 
L 424.528409 34.823466 
L 424.528409 34.823466 
" clip-path="url(#pff3a3d7f3d)" style="fill: none; stroke: #1f77b4; stroke-width: 1.5; stroke-linecap: square"/>
   </g>
   <g id="patch_3">
    <path d="M 34.2625 297.435625 
L 34.2625 22.318125 
" style="fill: none; stroke: #000000; stroke-width: 0.8; stroke-linejoin: miter; stroke-linecap: square"/>
   </g>
   <g id="patch_4">
    <path d="M 443.1125 297.435625 
L 443.1125 22.318125 
" style="fill: none; stroke: #000000; stroke-width: 0.8; stroke-linejoin: miter; stroke-linecap: square"/>
   </g>
   <g id="patch_5">
    <path d="M 34.2625 297.435625 
L 443.1125 297.435625 
" style="fill: none; stroke: #000000; stroke-width: 0.8; stroke-linejoin: miter; stroke-linecap: square"/>
   </g>
   <g id="patch_6">
    <path d="M 34.2625 22.318125 
L 443.1125 22.318125 
" style="fill: none; stroke: #000000; stroke-width: 0.8; stroke-linejoin: miter; stroke-linecap: square"/>
   </g>
   <g id="text_17">
    <!-- IMU heading vs index -->
    <g transform="translate(174.276563 16.318125) scale(0.12 -0.12)">
     <defs>
      <path id="DejaVuSans-76" d="M 191 3500 
L 800 3500 
L 1894 563 
L 2988 3500 
L 3597 3500 
L 2284 0 
L 1503 0 
L 191 3500 
z
" transform="scale(0.015625)"/>
      <path id="DejaVuSans-73" d="M 2834 3397 
L 2834 2853 
Q 2591 2978 2328 3040 
Q 2066 3103 1784 3103 
Q 1356 3103 1142 2972 
Q 928 2841 928 2578 
Q 928 2378 1081 2264 
Q 1234 2150 1697 2047 
L 1894 2003 
Q 2506 1872 2764 1633 
Q 3022 1394 3022 966 
Q 3022 478 2636 193 
Q 2250 -91 1575 -91 
Q 1294 -91 989 -36 
Q 684 19 347 128 
L 347 722 
Q 666 556 975 473 
Q 1284 391 1588 391 
Q 1994 391 2212 530 
Q 2431 669 2431 922 
Q 2431 1156 2273 1281 
Q 2116 1406 1581 1522 
L 1381 1569 
Q 847 1681 609 1914 
Q 372 2147 372 2553 
Q 372 3047 722 3315 
Q 1072 3584 1716 3584 
Q 2034 3584 2315 3537 
Q 2597 3491 2834 3397 
z
" transform="scale(0.015625)"/>
     </defs>
     <use xlink:href="#DejaVuSans-49"/>
     <use xlink:href="#DejaVuSans-4d" transform="translate(29.492188 0)"/>
     <use xlink:href="#DejaVuSans-55" transform="translate(115.771484 0)"/>
     <use xlink:href="#DejaVuSans-20" transform="translate(188.964844 0)"/>
     <use xlink:href="#DejaVuSans-68" transform="translate(220.751953 0)"/>
     <use xlink:href="#DejaVuSans-65" transform="translate(284.130859 0)"/>
     <use xlink:href="#DejaVuSans-61" transform="translate(345.654297 0)"/>
     <use xlink:href="#DejaVuSans-64" transform="translate(406.933594 0)"/>
     <use xlink:href="#DejaVuSans-69" transform="translate(470.410156 0)"/>
     <use xlink:href="#DejaVuSans-6e" transform="translate(498.193359 0)"/>
     <use xlink:href="#DejaVuSans-67" transform="translate(561.572266 0)"/>
     <use xlink:href="#DejaVuSans-20" transform="translate(625.048828 0)"/>
     <use xlink:href="#DejaVuSans-76" transform="translate(656.835938 0)"/>
     <use xlink:href="#DejaVuSans-73" transform="translate(716.015625 0)"/>
     <use xlink:href="#DejaVuSans-20" transform="translate(768.115234 0)"/>
     <use xlink:href="#DejaVuSans-69" transform="translate(799.902344 0)"/>
     <use xlink:href="#DejaVuSans-6e" transform="translate(827.685547 0)"/>
     <use xlink:href="#DejaVuSans-64" transform="translate(891.064453 0)"/>
     <use xlink:href="#DejaVuSans-65" transform="translate(954.541016 0)"/>
     <use xlink:href="#DejaVuSans-78" transform="translate(1014.314453 0)"/>
    </g>
   </g>
   <g id="legend_1">
    <g id="patch_7">
     <path d="M 41.2625 44.99625 
L 180.614062 44.99625 
Q 182.614062 44.99625 182.614062 42.99625 
L 182.614062 29.318125 
Q 182.614062 27.318125 180.614062 27.318125 
L 41.2625 27.318125 
Q 39.2625 27.318125 39.2625 29.318125 
L 39.2625 42.99625 
Q 39.2625 44.99625 41.2625 44.99625 
z
" style="fill: #ffffff; opacity: 0.8; stroke: #cccccc; stroke-linejoin: miter"/>
    </g>
    <g id="line2d_30">
     <path d="M 43.2625 35.416562 
L 53.2625 35.416562 
L 63.2625 35.416562 
" style="fill: none; stroke: #1f77b4; stroke-width: 1.5; stroke-linecap: square"/>
    </g>
    <g id="text_18">
     <!-- IMU heading vs index -->
     <g transform="translate(71.2625 38.916562) scale(0.1 -0.1)">
      <use xlink:href="#DejaVuSans-49"/>
      <use xlink:href="#DejaVuSans-4d" transform="translate(29.492188 0)"/>
      <use xlink:href="#DejaVuSans-55" transform="translate(115.771484 0)"/>
      <use xlink:href="#DejaVuSans-20" transform="translate(188.964844 0)"/>
      <use xlink:href="#DejaVuSans-68" transform="translate(220.751953 0)"/>
      <use xlink:href="#DejaVuSans-65" transform="translate(284.130859 0)"/>
      <use xlink:href="#DejaVuSans-61" transform="translate(345.654297 0)"/>
      <use xlink:href="#DejaVuSans-64" transform="translate(406.933594 0)"/>
      <use xlink:href="#DejaVuSans-69" transform="translate(470.410156 0)"/>
      <use xlink:href="#DejaVuSans-6e" transform="translate(498.193359 0)"/>
      <use xlink:href="#DejaVuSans-67" transform="translate(561.572266 0)"/>
      <use xlink:href="#DejaVuSans-20" transform="translate(625.048828 0)"/>
      <use xlink:href="#DejaVuSans-76" transform="translate(656.835938 0)"/>
      <use xlink:href="#DejaVuSans-73" transform="translate(716.015625 0)"/>
      <use xlink:href="#DejaVuSans-20" transform="translate(768.115234 0)"/>
      <use xlink:href="#DejaVuSans-69" transform="translate(799.902344 0)"/>
      <use xlink:href="#DejaVuSans-6e" transform="translate(827.685547 0)"/>
      <use xlink:href="#DejaVuSans-64" transform="translate(891.064453 0)"/>
      <use xlink:href="#DejaVuSans-65" transform="translate(954.541016 0)"/>
      <use xlink:href="#DejaVuSans-78" transform="translate(1014.314453 0)"/>
     </g>
    </g>
   </g>
  </g>
 </g>
 <defs>
  <clipPath id="pff3a3d7f3d">
   <rect x="34.2625" y="22.318125" width="408.85" height="275.1175"/>
  </clipPath>
 </defs>
</svg>
