<?xml version="1.0" encoding="utf-8" standalone="no"?>
<!DOCTYPE svg PUBLIC "-//W3C//DTD SVG 1.1//EN"
  "http://www.w3.org/Graphics/SVG/1.1/DTD/svg11.dtd">
<svg xmlns:xlink="http://www.w3.org/1999/xlink" width="452.62021pt" height="337.354375pt" viewBox="0 0 452.62021 337.354375" xmlns="http://www.w3.org/2000/svg" version="1.1">
 <metadata>
  <rdf:RDF xmlns:dc="http://purl.org/dc/elements/1.1/" xmlns:cc="http://creativecommons.org/ns#" xmlns:rdf="http://www.w3.org/1999/02/22-rdf-syntax-ns#">
   <cc:Work>
    <dc:type rdf:resource="http://purl.org/dc/dcmitype/StillImage"/>
    <dc:date>2025-10-29T23:05:45.298302</dc:date>
    <dc:format>image/svg+xml</dc:format>
    <dc:creator>
     <cc:Agent>
      <dc:title>Matplotlib v3.10.6, https://matplotlib.org/</dc:title>
     </cc:Agent>
    </dc:creator>
   </cc:Work>
  </rdf:RDF>
 </metadata>
 <defs>
  <style type="text/css">*{stroke-linejoin: round; stroke-linecap: butt}</style>
 </defs>
 <g id="figure_1">
  <g id="patch_1">
   <path d="M 0 337.354375 
L 452.62021 337.354375 
L 452.62021 0 
L 0 0 
z
" style="fill: #ffffff"/>
  </g>
  <g id="axes_1">
   <g id="patch_2">
    <path d="M 40.603125 299.798125 
L 445.42021 299.798125 
L 445.42021 22.318125 
L 40.603125 22.318125 
z
" style="fill: #ffffff"/>
   </g>
   <g id="matplotlib.axis_1">
    <g id="xtick_1">
     <g id="line2d_1">
      <defs>
       <path id="m2f3926a88d" d="M 0 0 
L 0 3.5 
" style="stroke: #000000; stroke-width: 0.8"/>
      </defs>
      <g>
       <use xlink:href="#m2f3926a88d" x="59.003902" y="299.798125" style="stroke: #000000; stroke-width: 0.8"/>
      </g>
     </g>
     <g id="text_1">
      <!-- 0 -->
      <g transform="translate(55.822652 314.396563) scale(0.1 -0.1)">
       <defs>
        <path id="DejaVuSans-30" d="M 2034 4250 
Q 1547 4250 1301 3770 
Q 1056 3291 1056 2328 
Q 1056 1369 1301 889 
Q 1547 409 2034 409 
Q 2525 409 2770 889 
Q 3016 1369 3016 2328 
Q 3016 3291 2770 3770 
Q 2525 4250 2034 4250 
z
M 2034 4750 
Q 2819 4750 3233 4129 
Q 3647 3509 3647 2328 
Q 3647 1150 3233 529 
Q 2819 -91 2034 -91 
Q 1250 -91 836 529 
Q 422 1150 422 2328 
Q 422 3509 836 4129 
Q 1250 4750 2034 4750 
z
" transform="scale(0.015625)"/>
       </defs>
       <use xlink:href="#DejaVuSans-30"/>
      </g>
     </g>
    </g>
    <g id="xtick_2">
     <g id="line2d_2">
      <g>
       <use xlink:href="#m2f3926a88d" x="113.259776" y="299.798125" style="stroke: #000000; stroke-width: 0.8"/>
      </g>
     </g>
     <g id="text_2">
      <!-- 5 -->
      <g transform="translate(110.078526 314.396563) scale(0.1 -0.1)">
       <defs>
        <path id="DejaVuSans-35" d="M 691 4666 
L 3169 4666 
L 3169 4134 
L 1269 4134 
L 1269 2991 
Q 1406 3038 1543 3061 
Q 1681 3084 1819 3084 
Q 2600 3084 3056 2656 
Q 3513 2228 3513 1497 
Q 3513 744 3044 326 
Q 2575 -91 1722 -91 
Q 1428 -91 1123 -41 
Q 819 9 494 109 
L 494 744 
Q 775 591 1075 516 
Q 1375 441 1709 441 
Q 2250 441 2565 725 
Q 2881 1009 2881 1497 
Q 2881 1984 2565 2268 
Q 2250 2553 1709 2553 
Q 1456 2553 1204 2497 
Q 953 2441 691 2322 
L 691 4666 
z
" transform="scale(0.015625)"/>
       </defs>
       <use xlink:href="#DejaVuSans-35"/>
      </g>
     </g>
    </g>
    <g id="xtick_3">
     <g id="line2d_3">
      <g>
       <use xlink:href="#m2f3926a88d" x="167.51565" y="299.798125" style="stroke: #000000; stroke-width: 0.8"/>
      </g>
     </g>
     <g id="text_3">
      <!-- 10 -->
      <g transform="translate(161.15315 314.396563) scale(0.1 -0.1)">
       <defs>
        <path id="DejaVuSans-31" d="M 794 531 
L 1825 531 
L 1825 4091 
L 703 3866 
L 703 4441 
L 1819 4666 
L 2450 4666 
L 2450 531 
L 3481 531 
L 3481 0 
L 794 0 
L 794 531 
z
" transform="scale(0.015625)"/>
       </defs>
       <use xlink:href="#DejaVuSans-31"/>
       <use xlink:href="#DejaVuSans-30" transform="translate(63.623047 0)"/>
      </g>
     </g>
    </g>
    <g id="xtick_4">
     <g id="line2d_4">
      <g>
       <use xlink:href="#m2f3926a88d" x="221.771524" y="299.798125" style="stroke: #000000; stroke-width: 0.8"/>
      </g>
     </g>
     <g id="text_4">
      <!-- 15 -->
      <g transform="translate(215.409024 314.396563) scale(0.1 -0.1)">
       <use xlink:href="#DejaVuSans-31"/>
       <use xlink:href="#DejaVuSans-35" transform="translate(63.623047 0)"/>
      </g>
     </g>
    </g>
    <g id="xtick_5">
     <g id="line2d_5">
      <g>
       <use xlink:href="#m2f3926a88d" x="276.027398" y="299.798125" style="stroke: #000000; stroke-width: 0.8"/>
      </g>
     </g>
     <g id="text_5">
      <!-- 20 -->
      <g transform="translate(269.664898 314.396563) scale(0.1 -0.1)">
       <defs>
        <path id="DejaVuSans-32" d="M 1228 531 
L 3431 531 
L 3431 0 
L 469 0 
L 469 531 
Q 828 903 1448 1529 
Q 2069 2156 2228 2338 
Q 2531 2678 2651 2914 
Q 2772 3150 2772 3378 
Q 2772 3750 2511 3984 
Q 2250 4219 1831 4219 
Q 1534 4219 1204 4116 
Q 875 4013 500 3803 
L 500 4441 
Q 881 4594 1212 4672 
Q 1544 4750 1819 4750 
Q 2544 4750 2975 4387 
Q 3406 4025 3406 3419 
Q 3406 3131 3298 2873 
Q 3191 2616 2906 2266 
Q 2828 2175 2409 1742 
Q 1991 1309 1228 531 
z
" transform="scale(0.015625)"/>
       </defs>
       <use xlink:href="#DejaVuSans-32"/>
       <use xlink:href="#DejaVuSans-30" transform="translate(63.623047 0)"/>
      </g>
     </g>
    </g>
    <g id="xtick_6">
     <g id="line2d_6">
      <g>
       <use xlink:href="#m2f3926a88d" x="330.283272" y="299.798125" style="stroke: #000000; stroke-width: 0.8"/>
      </g>
     </g>
     <g id="text_6">
      <!-- 25 -->
      <g transform="translate(323.920772 314.396563) scale(0.1 -0.1)">
       <use xlink:href="#DejaVuSans-32"/>
       <use xlink:href="#DejaVuSans-35" transform="translate(63.623047 0)"/>
      </g>
     </g>
    </g>
    <g id="xtick_7">
     <g id="line2d_7">
      <g>
       <use xlink:href="#m2f3926a88d" x="384.539146" y="299.798125" style="stroke: #000000; stroke-width: 0.8"/>
      </g>
     </g>
     <g id="text_7">
      <!-- 30 -->
      <g transform="translate(378.176646 314.396563) scale(0.1 -0.1)">
       <defs>
        <path id="DejaVuSans-33" d="M 2597 2516 
Q 3050 2419 3304 2112 
Q 3559 1806 3559 1356 
Q 3559 666 3084 287 
Q 2609 -91 1734 -91 
Q 1441 -91 1130 -33 
Q 819 25 488 141 
L 488 750 
Q 750 597 1062 519 
Q 1375 441 1716 441 
Q 2309 441 2620 675 
Q 2931 909 2931 1356 
Q 2931 1769 2642 2001 
Q 2353 2234 1838 2234 
L 1294 2234 
L 1294 2753 
L 1863 2753 
Q 2328 2753 2575 2939 
Q 2822 3125 2822 3475 
Q 2822 3834 2567 4026 
Q 2313 4219 1838 4219 
Q 1578 4219 1281 4162 
Q 984 4106 628 3988 
L 628 4550 
Q 988 4650 1302 4700 
Q 1616 4750 1894 4750 
Q 2613 4750 3031 4423 
Q 3450 4097 3450 3541 
Q 3450 3153 3228 2886 
Q 3006 2619 2597 2516 
z
" transform="scale(0.015625)"/>
       </defs>
       <use xlink:href="#DejaVuSans-33"/>
       <use xlink:href="#DejaVuSans-30" transform="translate(63.623047 0)"/>
      </g>
     </g>
    </g>
    <g id="xtick_8">
     <g id="line2d_8">
      <g>
       <use xlink:href="#m2f3926a88d" x="438.79502" y="299.798125" style="stroke: #000000; stroke-width: 0.8"/>
      </g>
     </g>
     <g id="text_8">
      <!-- 35 -->
      <g transform="translate(432.43252 314.396563) scale(0.1 -0.1)">
       <use xlink:href="#DejaVuSans-33"/>
       <use xlink:href="#DejaVuSans-35" transform="translate(63.623047 0)"/>
      </g>
     </g>
    </g>
    <g id="text_9">
     <!-- Left Position, (rad) -->
     <g transform="translate(197.177293 328.074688) scale(0.1 -0.1)">
      <defs>
       <path id="DejaVuSans-4c" d="M 628 4666 
L 1259 4666 
L 1259 531 
L 3531 531 
L 3531 0 
L 628 0 
L 628 4666 
z
" transform="scale(0.015625)"/>
       <path id="DejaVuSans-65" d="M 3597 1894 
L 3597 1613 
L 953 1613 
Q 991 1019 1311 708 
Q 1631 397 2203 397 
Q 2534 397 2845 478 
Q 3156 559 3463 722 
L 3463 178 
Q 3153 47 2828 -22 
Q 2503 -91 2169 -91 
Q 1331 -91 842 396 
Q 353 884 353 1716 
Q 353 2575 817 3079 
Q 1281 3584 2069 3584 
Q 2775 3584 3186 3129 
Q 3597 2675 3597 1894 
z
M 3022 2063 
Q 3016 2534 2758 2815 
Q 2500 3097 2075 3097 
Q 1594 3097 1305 2825 
Q 1016 2553 972 2059 
L 3022 2063 
z
" transform="scale(0.015625)"/>
       <path id="DejaVuSans-66" d="M 2375 4863 
L 2375 4384 
L 1825 4384 
Q 1516 4384 1395 4259 
Q 1275 4134 1275 3809 
L 1275 3500 
L 2222 3500 
L 2222 3053 
L 1275 3053 
L 1275 0 
L 697 0 
L 697 3053 
L 147 3053 
L 147 3500 
L 697 3500 
L 697 3744 
Q 697 4328 969 4595 
Q 1241 4863 1831 4863 
L 2375 4863 
z
" transform="scale(0.015625)"/>
       <path id="DejaVuSans-74" d="M 1172 4494 
L 1172 3500 
L 2356 3500 
L 2356 3053 
L 1172 3053 
L 1172 1153 
Q 1172 725 1289 603 
Q 1406 481 1766 481 
L 2356 481 
L 2356 0 
L 1766 0 
Q 1100 0 847 248 
Q 594 497 594 1153 
L 594 3053 
L 172 3053 
L 172 3500 
L 594 3500 
L 594 4494 
L 1172 4494 
z
" transform="scale(0.015625)"/>
       <path id="DejaVuSans-20" transform="scale(0.015625)"/>
       <path id="DejaVuSans-50" d="M 1259 4147 
L 1259 2394 
L 2053 2394 
Q 2494 2394 2734 2622 
Q 2975 2850 2975 3272 
Q 2975 3691 2734 3919 
Q 2494 4147 2053 4147 
L 1259 4147 
z
M 628 4666 
L 2053 4666 
Q 2838 4666 3239 4311 
Q 3641 3956 3641 3272 
Q 3641 2581 3239 2228 
Q 2838 1875 2053 1875 
L 1259 1875 
L 1259 0 
L 628 0 
L 628 4666 
z
" transform="scale(0.015625)"/>
       <path id="DejaVuSans-6f" d="M 1959 3097 
Q 1497 3097 1228 2736 
Q 959 2375 959 1747 
Q 959 1119 1226 758 
Q 1494 397 1959 397 
Q 2419 397 2687 759 
Q 2956 1122 2956 1747 
Q 2956 2369 2687 2733 
Q 2419 3097 1959 3097 
z
M 1959 3584 
Q 2709 3584 3137 3096 
Q 3566 2609 3566 1747 
Q 3566 888 3137 398 
Q 2709 -91 1959 -91 
Q 1206 -91 779 398 
Q 353 888 353 1747 
Q 353 2609 779 3096 
Q 1206 3584 1959 3584 
z
" transform="scale(0.015625)"/>
       <path id="DejaVuSans-73" d="M 2834 3397 
L 2834 2853 
Q 2591 2978 2328 3040 
Q 2066 3103 1784 3103 
Q 1356 3103 1142 2972 
Q 928 2841 928 2578 
Q 928 2378 1081 2264 
Q 1234 2150 1697 2047 
L 1894 2003 
Q 2506 1872 2764 1633 
Q 3022 1394 3022 966 
Q 3022 478 2636 193 
Q 2250 -91 1575 -91 
Q 1294 -91 989 -36 
Q 684 19 347 128 
L 347 722 
Q 666 556 975 473 
Q 1284 391 1588 391 
Q 1994 391 2212 530 
Q 2431 669 2431 922 
Q 2431 1156 2273 1281 
Q 2116 1406 1581 1522 
L 1381 1569 
Q 847 1681 609 1914 
Q 372 2147 372 2553 
Q 372 3047 722 3315 
Q 1072 3584 1716 3584 
Q 2034 3584 2315 3537 
Q 2597 3491 2834 3397 
z
" transform="scale(0.015625)"/>
       <path id="DejaVuSans-69" d="M 603 3500 
L 1178 3500 
L 1178 0 
L 603 0 
L 603 3500 
z
M 603 4863 
L 1178 4863 
L 1178 4134 
L 603 4134 
L 603 4863 
z
" transform="scale(0.015625)"/>
       <path id="DejaVuSans-6e" d="M 3513 2113 
L 3513 0 
L 2938 0 
L 2938 2094 
Q 2938 2591 2744 2837 
Q 2550 3084 2163 3084 
Q 1697 3084 1428 2787 
Q 1159 2491 1159 1978 
L 1159 0 
L 581 0 
L 581 3500 
L 1159 3500 
L 1159 2956 
Q 1366 3272 1645 3428 
Q 1925 3584 2291 3584 
Q 2894 3584 3203 3211 
Q 3513 2838 3513 2113 
z
" transform="scale(0.015625)"/>
       <path id="DejaVuSans-2c" d="M 750 794 
L 1409 794 
L 1409 256 
L 897 -744 
L 494 -744 
L 750 256 
L 750 794 
z
" transform="scale(0.015625)"/>
       <path id="DejaVuSans-28" d="M 1984 4856 
Q 1566 4138 1362 3434 
Q 1159 2731 1159 2009 
Q 1159 1288 1364 580 
Q 1569 -128 1984 -844 
L 1484 -844 
Q 1016 -109 783 600 
Q 550 1309 550 2009 
Q 550 2706 781 3412 
Q 1013 4119 1484 4856 
L 1984 4856 
z
" transform="scale(0.015625)"/>
       <path id="DejaVuSans-72" d="M 2631 2963 
Q 2534 3019 2420 3045 
Q 2306 3072 2169 3072 
Q 1681 3072 1420 2755 
Q 1159 2438 1159 1844 
L 1159 0 
L 581 0 
L 581 3500 
L 1159 3500 
L 1159 2956 
Q 1341 3275 1631 3429 
Q 1922 3584 2338 3584 
Q 2397 3584 2469 3576 
Q 2541 3569 2628 3553 
L 2631 2963 
z
" transform="scale(0.015625)"/>
       <path id="DejaVuSans-61" d="M 2194 1759 
Q 1497 1759 1228 1600 
Q 959 1441 959 1056 
Q 959 750 1161 570 
Q 1363 391 1709 391 
Q 2188 391 2477 730 
Q 2766 1069 2766 1631 
L 2766 1759 
L 2194 1759 
z
M 3341 1997 
L 3341 0 
L 2766 0 
L 2766 531 
Q 2569 213 2275 61 
Q 1981 -91 1556 -91 
Q 1019 -91 701 211 
Q 384 513 384 1019 
Q 384 1609 779 1909 
Q 1175 2209 1959 2209 
L 2766 2209 
L 2766 2266 
Q 2766 2663 2505 2880 
Q 2244 3097 1772 3097 
Q 1472 3097 1187 3025 
Q 903 2953 641 2809 
L 641 3341 
Q 956 3463 1253 3523 
Q 1550 3584 1831 3584 
Q 2591 3584 2966 3190 
Q 3341 2797 3341 1997 
z
" transform="scale(0.015625)"/>
       <path id="DejaVuSans-64" d="M 2906 2969 
L 2906 4863 
L 3481 4863 
L 3481 0 
L 2906 0 
L 2906 525 
Q 2725 213 2448 61 
Q 2172 -91 1784 -91 
Q 1150 -91 751 415 
Q 353 922 353 1747 
Q 353 2572 751 3078 
Q 1150 3584 1784 3584 
Q 2172 3584 2448 3432 
Q 2725 3281 2906 2969 
z
M 947 1747 
Q 947 1113 1208 752 
Q 1469 391 1925 391 
Q 2381 391 2643 752 
Q 2906 1113 2906 1747 
Q 2906 2381 2643 2742 
Q 2381 3103 1925 3103 
Q 1469 3103 1208 2742 
Q 947 2381 947 1747 
z
" transform="scale(0.015625)"/>
       <path id="DejaVuSans-29" d="M 513 4856 
L 1013 4856 
Q 1481 4119 1714 3412 
Q 1947 2706 1947 2009 
Q 1947 1309 1714 600 
Q 1481 -109 1013 -844 
L 513 -844 
Q 928 -128 1133 580 
Q 1338 1288 1338 2009 
Q 1338 2731 1133 3434 
Q 928 4138 513 4856 
z
" transform="scale(0.015625)"/>
      </defs>
      <use xlink:href="#DejaVuSans-4c"/>
      <use xlink:href="#DejaVuSans-65" transform="translate(53.962891 0)"/>
      <use xlink:href="#DejaVuSans-66" transform="translate(115.486328 0)"/>
      <use xlink:href="#DejaVuSans-74" transform="translate(148.941406 0)"/>
      <use xlink:href="#DejaVuSans-20" transform="translate(188.150391 0)"/>
      <use xlink:href="#DejaVuSans-50" transform="translate(219.9375 0)"/>
      <use xlink:href="#DejaVuSans-6f" transform="translate(276.615234 0)"/>
      <use xlink:href="#DejaVuSans-73" transform="translate(337.796875 0)"/>
      <use xlink:href="#DejaVuSans-69" transform="translate(389.896484 0)"/>
      <use xlink:href="#DejaVuSans-74" transform="translate(417.679688 0)"/>
      <use xlink:href="#DejaVuSans-69" transform="translate(456.888672 0)"/>
      <use xlink:href="#DejaVuSans-6f" transform="translate(484.671875 0)"/>
      <use xlink:href="#DejaVuSans-6e" transform="translate(545.853516 0)"/>
      <use xlink:href="#DejaVuSans-2c" transform="translate(609.232422 0)"/>
      <use xlink:href="#DejaVuSans-20" transform="translate(641.019531 0)"/>
      <use xlink:href="#DejaVuSans-28" transform="translate(672.806641 0)"/>
      <use xlink:href="#DejaVuSans-72" transform="translate(711.820312 0)"/>
      <use xlink:href="#DejaVuSans-61" transform="translate(752.933594 0)"/>
      <use xlink:href="#DejaVuSans-64" transform="translate(814.212891 0)"/>
      <use xlink:href="#DejaVuSans-29" transform="translate(877.689453 0)"/>
     </g>
    </g>
   </g>
   <g id="matplotlib.axis_2">
    <g id="ytick_1">
     <g id="line2d_9">
      <defs>
       <path id="m592970d1ca" d="M 0 0 
L -3.5 0 
" style="stroke: #000000; stroke-width: 0.8"/>
      </defs>
      <g>
       <use xlink:href="#m592970d1ca" x="40.603125" y="287.185398" style="stroke: #000000; stroke-width: 0.8"/>
      </g>
     </g>
     <g id="text_10">
      <!-- 0 -->
      <g transform="translate(27.240625 290.984616) scale(0.1 -0.1)">
       <use xlink:href="#DejaVuSans-30"/>
      </g>
     </g>
    </g>
    <g id="ytick_2">
     <g id="line2d_10">
      <g>
       <use xlink:href="#m592970d1ca" x="40.603125" y="249.783812" style="stroke: #000000; stroke-width: 0.8"/>
      </g>
     </g>
     <g id="text_11">
      <!-- 5 -->
      <g transform="translate(27.240625 253.583031) scale(0.1 -0.1)">
       <use xlink:href="#DejaVuSans-35"/>
      </g>
     </g>
    </g>
    <g id="ytick_3">
     <g id="line2d_11">
      <g>
       <use xlink:href="#m592970d1ca" x="40.603125" y="212.382226" style="stroke: #000000; stroke-width: 0.8"/>
      </g>
     </g>
     <g id="text_12">
      <!-- 10 -->
      <g transform="translate(20.878125 216.181445) scale(0.1 -0.1)">
       <use xlink:href="#DejaVuSans-31"/>
       <use xlink:href="#DejaVuSans-30" transform="translate(63.623047 0)"/>
      </g>
     </g>
    </g>
    <g id="ytick_4">
     <g id="line2d_12">
      <g>
       <use xlink:href="#m592970d1ca" x="40.603125" y="174.980641" style="stroke: #000000; stroke-width: 0.8"/>
      </g>
     </g>
     <g id="text_13">
      <!-- 15 -->
      <g transform="translate(20.878125 178.77986) scale(0.1 -0.1)">
       <use xlink:href="#DejaVuSans-31"/>
       <use xlink:href="#DejaVuSans-35" transform="translate(63.623047 0)"/>
      </g>
     </g>
    </g>
    <g id="ytick_5">
     <g id="line2d_13">
      <g>
       <use xlink:href="#m592970d1ca" x="40.603125" y="137.579055" style="stroke: #000000; stroke-width: 0.8"/>
      </g>
     </g>
     <g id="text_14">
      <!-- 20 -->
      <g transform="translate(20.878125 141.378274) scale(0.1 -0.1)">
       <use xlink:href="#DejaVuSans-32"/>
       <use xlink:href="#DejaVuSans-30" transform="translate(63.623047 0)"/>
      </g>
     </g>
    </g>
    <g id="ytick_6">
     <g id="line2d_14">
      <g>
       <use xlink:href="#m592970d1ca" x="40.603125" y="100.17747" style="stroke: #000000; stroke-width: 0.8"/>
      </g>
     </g>
     <g id="text_15">
      <!-- 25 -->
      <g transform="translate(20.878125 103.976688) scale(0.1 -0.1)">
       <use xlink:href="#DejaVuSans-32"/>
       <use xlink:href="#DejaVuSans-35" transform="translate(63.623047 0)"/>
      </g>
     </g>
    </g>
    <g id="ytick_7">
     <g id="line2d_15">
      <g>
       <use xlink:href="#m592970d1ca" x="40.603125" y="62.775884" style="stroke: #000000; stroke-width: 0.8"/>
      </g>
     </g>
     <g id="text_16">
      <!-- 30 -->
      <g transform="translate(20.878125 66.575103) scale(0.1 -0.1)">
       <use xlink:href="#DejaVuSans-33"/>
       <use xlink:href="#DejaVuSans-30" transform="translate(63.623047 0)"/>
      </g>
     </g>
    </g>
    <g id="ytick_8">
     <g id="line2d_16">
      <g>
       <use xlink:href="#m592970d1ca" x="40.603125" y="25.374298" style="stroke: #000000; stroke-width: 0.8"/>
      </g>
     </g>
     <g id="text_17">
      <!-- 35 -->
      <g transform="translate(20.878125 29.173517) scale(0.1 -0.1)">
       <use xlink:href="#DejaVuSans-33"/>
       <use xlink:href="#DejaVuSans-35" transform="translate(63.623047 0)"/>
      </g>
     </g>
    </g>
    <g id="text_18">
     <!-- Right Position, (rad) -->
     <g transform="translate(14.798438 210.651094) rotate(-90) scale(0.1 -0.1)">
      <defs>
       <path id="DejaVuSans-52" d="M 2841 2188 
Q 3044 2119 3236 1894 
Q 3428 1669 3622 1275 
L 4263 0 
L 3584 0 
L 2988 1197 
Q 2756 1666 2539 1819 
Q 2322 1972 1947 1972 
L 1259 1972 
L 1259 0 
L 628 0 
L 628 4666 
L 2053 4666 
Q 2853 4666 3247 4331 
Q 3641 3997 3641 3322 
Q 3641 2881 3436 2590 
Q 3231 2300 2841 2188 
z
M 1259 4147 
L 1259 2491 
L 2053 2491 
Q 2509 2491 2742 2702 
Q 2975 2913 2975 3322 
Q 2975 3731 2742 3939 
Q 2509 4147 2053 4147 
L 1259 4147 
z
" transform="scale(0.015625)"/>
       <path id="DejaVuSans-67" d="M 2906 1791 
Q 2906 2416 2648 2759 
Q 2391 3103 1925 3103 
Q 1463 3103 1205 2759 
Q 947 2416 947 1791 
Q 947 1169 1205 825 
Q 1463 481 1925 481 
Q 2391 481 2648 825 
Q 2906 1169 2906 1791 
z
M 3481 434 
Q 3481 -459 3084 -895 
Q 2688 -1331 1869 -1331 
Q 1566 -1331 1297 -1286 
Q 1028 -1241 775 -1147 
L 775 -588 
Q 1028 -725 1275 -790 
Q 1522 -856 1778 -856 
Q 2344 -856 2625 -561 
Q 2906 -266 2906 331 
L 2906 616 
Q 2728 306 2450 153 
Q 2172 0 1784 0 
Q 1141 0 747 490 
Q 353 981 353 1791 
Q 353 2603 747 3093 
Q 1141 3584 1784 3584 
Q 2172 3584 2450 3431 
Q 2728 3278 2906 2969 
L 2906 3500 
L 3481 3500 
L 3481 434 
z
" transform="scale(0.015625)"/>
       <path id="DejaVuSans-68" d="M 3513 2113 
L 3513 0 
L 2938 0 
L 2938 2094 
Q 2938 2591 2744 2837 
Q 2550 3084 2163 3084 
Q 1697 3084 1428 2787 
Q 1159 2491 1159 1978 
L 1159 0 
L 581 0 
L 581 4863 
L 1159 4863 
L 1159 2956 
Q 1366 3272 1645 3428 
Q 1925 3584 2291 3584 
Q 2894 3584 3203 3211 
Q 3513 2838 3513 2113 
z
" transform="scale(0.015625)"/>
      </defs>
      <use xlink:href="#DejaVuSans-52"/>
      <use xlink:href="#DejaVuSans-69" transform="translate(69.482422 0)"/>
      <use xlink:href="#DejaVuSans-67" transform="translate(97.265625 0)"/>
      <use xlink:href="#DejaVuSans-68" transform="translate(160.742188 0)"/>
      <use xlink:href="#DejaVuSans-74" transform="translate(224.121094 0)"/>
      <use xlink:href="#DejaVuSans-20" transform="translate(263.330078 0)"/>
      <use xlink:href="#DejaVuSans-50" transform="translate(295.117188 0)"/>
      <use xlink:href="#DejaVuSans-6f" transform="translate(351.794922 0)"/>
      <use xlink:href="#DejaVuSans-73" transform="translate(412.976562 0)"/>
      <use xlink:href="#DejaVuSans-69" transform="translate(465.076172 0)"/>
      <use xlink:href="#DejaVuSans-74" transform="translate(492.859375 0)"/>
      <use xlink:href="#DejaVuSans-69" transform="translate(532.068359 0)"/>
      <use xlink:href="#DejaVuSans-6f" transform="translate(559.851562 0)"/>
      <use xlink:href="#DejaVuSans-6e" transform="translate(621.033203 0)"/>
      <use xlink:href="#DejaVuSans-2c" transform="translate(684.412109 0)"/>
      <use xlink:href="#DejaVuSans-20" transform="translate(716.199219 0)"/>
      <use xlink:href="#DejaVuSans-28" transform="translate(747.986328 0)"/>
      <use xlink:href="#DejaVuSans-72" transform="translate(787 0)"/>
      <use xlink:href="#DejaVuSans-61" transform="translate(828.113281 0)"/>
      <use xlink:href="#DejaVuSans-64" transform="translate(889.392578 0)"/>
      <use xlink:href="#DejaVuSans-29" transform="translate(952.869141 0)"/>
     </g>
    </g>
   </g>
   <g id="line2d_17">
    <path d="M 68.207846 281.690939 
L 68.824607 281.298479 
L 71.196759 279.695932 
L 74.422878 277.406574 
L 76.937356 275.738613 
L 80.30581 273.514662 
L 82.725405 271.781293 
L 86.236194 269.426526 
L 89.035331 267.562334 
L 92.783327 265.011337 
L 95.677357 262.918209 
L 99.567687 260.17098 
L 102.651483 258.143268 
L 106.826461 255.330624 
L 110.00515 253.237497 
L 114.227581 250.359452 
L 117.311376 248.200917 
L 121.438914 245.355569 
L 124.617592 243.16433 
L 128.74514 240.318989 
L 131.971259 238.127743 
L 136.098808 235.249698 
L 140.226345 232.40435 
L 143.452464 230.213111 
L 147.627454 227.36777 
L 150.806132 225.176531 
L 154.981121 222.331183 
L 158.159799 220.172648 
L 162.38223 217.294603 
L 165.513467 215.168772 
L 169.735909 212.257978 
L 172.867124 210.066769 
L 177.042113 207.188717 
L 180.220748 204.997508 
L 184.395737 202.152145 
L 187.57448 199.960861 
L 191.70205 197.115572 
L 194.833265 194.956977 
L 199.055674 192.046236 
L 202.13947 189.953169 
L 206.361879 187.042353 
L 209.445674 184.851144 
L 213.573244 182.005781 
L 216.799407 179.781808 
L 220.974396 176.903756 
L 224.153031 174.712546 
L 228.328021 171.834494 
L 232.50301 168.956442 
L 235.729173 166.765233 
L 239.856634 163.91987 
L 243.035377 161.728661 
L 247.210367 158.850609 
L 250.389002 156.626636 
L 254.658939 153.683206 
L 257.790154 151.557374 
L 260.968788 149.333401 
L 265.143778 146.42266 
L 269.366296 143.511919 
L 272.59235 141.287946 
L 275.771093 139.096737 
L 280.040922 136.120543 
L 283.219556 133.962023 
L 287.394546 131.083971 
L 290.668128 128.859998 
L 294.843118 125.981946 
L 298.069281 123.725283 
L 302.24427 120.847231 
L 305.375485 118.656022 
L 309.598003 115.745281 
L 312.776637 113.553997 
L 317.046466 110.643256 
L 320.225209 108.484736 
L 324.400199 105.639373 
L 327.626253 103.4154 
L 331.753823 100.537348 
L 334.979986 98.313449 
L 339.154975 95.435397 
L 342.28619 93.244113 
L 346.556019 90.300683 
L 349.734762 88.109399 
L 354.004591 85.198658 
L 357.183334 83.040138 
L 361.310796 80.162086 
L 364.536958 77.905424 
L 368.711948 74.994683 
L 371.98553 72.738021 
L 376.16052 69.859969 
L 379.291735 67.668685 
L 383.609092 64.757944 
L 386.787726 62.566734 
L 391.010135 59.655918 
L 394.188879 57.464709 
L 398.316449 54.586657 
L 401.542503 52.362684 
L 405.717492 49.484632 
L 408.943655 47.260734 
L 413.118645 44.415371 
L 416.24986 42.224087 
L 420.567217 39.313346 
L 423.745851 37.154825 
L 427.019434 34.930852 
" clip-path="url(#pcf3042ade7)" style="fill: none; stroke: #1f77b4; stroke-width: 1.5; stroke-linecap: square"/>
   </g>
   <g id="line2d_18">
    <path d="M 66.642228 282.573977 
L 67.685973 281.854465 
L 70.295341 279.95757 
L 72.762377 278.224202 
L 75.846173 276.098371 
L 78.075992 274.528522 
L 81.064904 272.40269 
L 83.484499 270.767433 
L 86.947836 268.54349 
L 89.509766 266.810121 
L 93.067986 264.389939 
L 95.724798 262.525747 
L 99.33047 260.007461 
L 102.129606 258.077853 
L 105.687826 255.559559 
L 108.39208 253.662663 
L 111.95031 251.209785 
L 114.654564 249.378297 
L 118.307677 246.860003 
L 120.964479 244.963107 
L 124.617592 242.477517 
L 128.175822 240.057343 
L 130.832635 238.19315 
L 134.438307 235.707561 
L 137.14256 233.843376 
L 140.748232 231.357786 
L 143.452475 229.493594 
L 146.963264 227.07342 
L 149.714959 225.209227 
L 153.273179 222.756342 
L 156.024874 220.859445 
L 159.583105 218.439271 
L 162.239906 216.607783 
L 165.845578 214.122193 
L 168.549875 212.257978 
L 172.155504 209.706966 
L 174.859725 207.842796 
L 178.417934 205.422614 
L 181.122263 203.525755 
L 184.680472 201.040121 
L 187.479641 199.143262 
L 190.99043 196.690391 
L 193.647232 194.85891 
L 197.25286 192.340587 
L 200.811069 189.887716 
L 203.610238 187.990782 
L 207.168447 185.537912 
L 209.872668 183.706431 
L 213.525825 181.220871 
L 216.182626 179.356626 
L 219.788255 176.903756 
L 222.492584 175.039586 
L 226.098213 172.586715 
L 228.897382 170.689781 
L 232.45559 168.204222 
L 235.159812 166.307363 
L 238.765549 163.821728 
L 241.46977 161.990247 
L 245.122926 159.471924 
L 247.827148 157.607754 
L 251.432776 155.089505 
L 254.089578 153.225261 
L 257.695315 150.739701 
L 260.494375 148.810078 
L 264.052584 146.389896 
L 266.804333 144.493038 
L 269.556083 142.596104 
L 273.161711 140.110544 
L 275.913352 138.213611 
L 279.471669 135.728051 
L 282.27073 133.798428 
L 285.828938 131.312868 
L 288.533268 129.448699 
L 292.186316 126.963064 
L 294.890646 125.131583 
L 298.496274 122.646023 
L 301.200496 120.781853 
L 304.806124 118.296294 
L 307.557873 116.39936 
L 311.163502 113.9138 
L 313.962671 112.016867 
L 317.47346 109.531307 
L 320.177681 107.667137 
L 323.783418 105.148814 
L 326.487639 103.284644 
L 330.188216 100.799009 
L 332.845017 98.967528 
L 336.403226 96.481969 
L 339.249815 94.552346 
L 342.855443 92.066786 
L 345.607192 90.137164 
L 349.165401 87.651604 
L 351.869622 85.820123 
L 355.475251 83.301799 
L 358.227 81.43763 
L 361.927576 78.919306 
L 364.584378 77.055136 
L 368.142587 74.602265 
L 370.894228 72.705332 
L 374.499964 70.219772 
" clip-path="url(#pcf3042ade7)" style="fill: none; stroke: #ff7f0e; stroke-width: 1.5; stroke-linecap: square"/>
   </g>
   <g id="line2d_19">
    <path d="M 65.124051 283.947593 
L 65.693368 283.522426 
L 67.970631 281.821761 
L 70.200458 280.251916 
L 73.047036 278.28961 
L 75.75129 276.425418 
L 77.791333 275.019096 
L 80.780245 273.056792 
L 83.057505 271.617766 
L 85.998977 269.622758 
L 88.276237 268.020204 
L 91.312591 265.861669 
L 93.684745 264.193708 
L 96.721099 262.067877 
L 98.998359 260.498035 
L 102.034713 258.3395 
L 104.264532 256.76965 
L 107.300886 254.676523 
L 109.578157 253.106681 
L 112.519628 251.013554 
L 114.796888 249.443712 
L 117.785801 247.448696 
L 120.063072 245.911559 
L 123.004532 243.851135 
L 125.234351 242.313997 
L 128.270716 240.22087 
L 130.500535 238.651028 
L 133.536889 236.557901 
L 135.766707 235.020755 
L 138.803061 232.96034 
L 141.080321 231.39049 
L 144.069234 229.362771 
L 146.393946 227.825633 
L 149.335407 225.830625 
L 152.276867 223.770201 
L 154.554138 222.167656 
L 157.448168 220.139944 
L 159.725429 218.53739 
L 162.761783 216.509678 
L 164.991601 214.939829 
L 168.027934 212.846709 
L 170.257742 211.309549 
L 173.246698 209.216481 
L 175.476506 207.679276 
L 178.417934 205.651587 
L 180.69527 204.049078 
L 183.684117 202.021314 
L 186.008873 200.451495 
L 188.950301 198.391041 
L 191.180109 196.853911 
L 194.216484 194.793532 
L 196.446292 193.256327 
L 199.530088 191.130496 
L 201.759896 189.560677 
L 204.701432 187.500223 
L 207.026079 185.897715 
L 210.015035 183.837262 
L 212.339683 182.234753 
L 215.328639 180.206989 
L 217.605866 178.702622 
L 220.642242 176.642169 
L 222.87205 175.07235 
L 225.908426 172.913754 
L 228.138234 171.343935 
L 231.127081 169.283482 
L 233.451837 167.680973 
L 236.440793 165.62052 
L 238.76544 164.018012 
L 241.754396 161.957558 
L 243.984204 160.420428 
L 247.067999 158.327286 
L 249.345227 156.790155 
L 252.381603 154.664324 
L 254.563991 153.127194 
L 257.552839 151.06674 
L 259.877594 149.464232 
L 262.86655 147.403779 
L 265.191198 145.768506 
L 268.180154 143.740817 
L 270.457381 142.170997 
L 273.493757 140.110544 
L 275.770985 138.540725 
L 278.09574 136.970831 
L 281.084588 134.943141 
L 284.073544 132.882688 
L 286.350771 131.312868 
L 289.292308 129.252415 
L 291.616955 127.649907 
L 293.846763 126.080013 
L 296.835719 123.986945 
L 299.160475 122.384362 
L 302.149322 120.323983 
L 304.474078 118.7214 
L 307.462926 116.660947 
L 309.740262 115.123816 
L 312.729109 113.030749 
L 314.958917 111.493544 
L 317.995293 109.400476 
L 323.214057 105.770203 
L 325.538813 104.200309 
" clip-path="url(#pcf3042ade7)" style="fill: none; stroke: #2ca02c; stroke-width: 1.5; stroke-linecap: square"/>
   </g>
   <g id="line2d_20">
    <path d="M 63.653317 284.928745 
L 64.554734 284.241939 
L 66.215241 283.064555 
L 68.919492 281.265774 
L 70.864659 280.055685 
L 73.236812 278.485841 
L 74.992196 277.308454 
L 77.316908 275.673197 
L 79.262068 274.364994 
L 81.87144 272.631625 
L 83.864041 271.290719 
L 86.425971 269.55735 
L 88.323689 268.249139 
L 90.790725 266.51577 
L 92.641003 265.272976 
L 95.108039 263.572311 
L 96.910875 262.296812 
L 99.33047 260.628851 
L 101.228188 259.353352 
L 103.600342 257.718095 
L 105.450619 256.442596 
L 107.822773 254.774635 
L 110.194926 253.139378 
L 112.045204 251.863879 
L 114.369916 250.228622 
L 116.172752 248.953123 
L 118.497464 247.350577 
L 120.3003 246.140486 
L 122.672454 244.472525 
L 124.47529 243.22973 
L 126.894884 241.594473 
L 128.69772 240.351678 
L 131.069863 238.716421 
L 132.920151 237.473626 
L 135.292294 235.838369 
L 137.142582 234.530166 
L 139.514725 232.894909 
L 141.317561 231.652114 
L 143.689714 230.016857 
L 145.49255 228.806766 
L 147.959586 227.138805 
L 149.714981 225.896018 
L 152.134565 224.293465 
L 153.937401 223.050677 
L 156.262102 221.41542 
L 158.064938 220.172625 
L 160.437092 218.504672 
L 162.856676 216.869414 
L 164.659512 215.593916 
L 167.031666 213.958658 
L 168.881921 212.68316 
L 171.301516 211.015199 
L 173.10433 209.772419 
L 175.523925 208.071769 
L 177.326739 206.828989 
L 179.793863 205.161028 
L 181.549257 203.918173 
L 183.968852 202.282976 
L 185.771666 201.007432 
L 188.096313 199.37216 
L 189.994075 198.064002 
L 192.41367 196.461419 
L 194.169065 195.218639 
L 196.019299 193.94317 
L 198.438894 192.307898 
L 200.289236 190.999665 
L 202.708722 189.364468 
L 204.511645 188.121613 
L 206.93124 186.453652 
L 208.734054 185.178183 
L 211.201069 183.510222 
L 212.956463 182.267442 
L 215.376058 180.664859 
L 217.273712 179.38939 
L 219.645887 177.754118 
L 221.496229 176.478649 
L 223.868296 174.876066 
L 225.623691 173.600597 
L 228.043286 171.932636 
L 229.846208 170.689856 
L 232.265695 168.989206 
L 234.116037 167.746351 
L 236.488213 166.07839 
L 238.338446 164.802921 
L 240.710622 163.13496 
L 242.560856 161.826728 
L 244.98045 160.19153 
L 246.783265 158.948676 
L 249.20286 157.313478 
L 251.005674 156.070698 
L 253.425269 154.402737 
L 255.228191 153.159883 
L 257.600258 151.491921 
L 259.450601 150.249142 
L 261.870196 148.613944 
L 263.720429 147.305712 
L 266.045077 145.670439 
L 267.895419 144.42766 
L 270.315014 142.759698 
L 272.117828 141.48423 
" clip-path="url(#pcf3042ade7)" style="fill: none; stroke: #d62728; stroke-width: 1.5; stroke-linecap: square"/>
   </g>
   <g id="line2d_21">
    <path d="M 61.613267 286.008014 
L 62.324912 285.484733 
L 63.463546 284.601695 
L 65.361265 283.424311 
L 66.68967 282.606683 
L 68.492503 281.462004 
L 69.9158 280.480851 
L 71.908401 279.107239 
L 73.474019 278.060675 
L 75.371738 276.752472 
L 76.842473 275.738613 
L 78.645309 274.463114 
L 80.495587 273.187615 
L 81.871429 272.206459 
L 83.721717 270.963664 
L 85.145 269.982516 
L 86.947836 268.739721 
L 88.276237 267.823973 
L 90.126525 266.548474 
L 91.502367 265.632734 
L 93.305203 264.422643 
L 94.633604 263.474199 
L 96.388998 262.264108 
L 97.717399 261.315663 
L 99.472794 260.105573 
L 100.896077 259.157128 
L 102.698913 257.947037 
L 104.027325 257.031297 
L 105.830161 255.788502 
L 107.206003 254.872754 
L 108.961397 253.629959 
L 110.289798 252.681515 
L 112.045193 251.43872 
L 113.421046 250.490268 
L 115.223882 249.280185 
L 116.599724 248.331733 
L 118.355118 247.121642 
L 119.730961 246.173198 
L 121.581238 244.930403 
L 123.289191 243.687608 
L 124.712485 242.739156 
L 126.46788 241.496361 
L 127.796281 240.580621 
L 129.599117 239.337826 
L 130.927517 238.422086 
L 132.777795 237.179291 
L 134.106206 236.230839 
L 135.909042 235.020748 
L 137.284884 234.072304 
L 139.040279 232.862213 
L 140.416121 231.913768 
L 142.171516 230.703677 
L 143.547369 229.755226 
L 145.350204 228.479727 
L 146.678605 227.563986 
L 148.481441 226.288488 
L 149.857294 225.340036 
L 151.660119 224.097248 
L 153.083414 223.148797 
L 154.886239 221.906002 
L 156.309533 220.924853 
L 158.064928 219.747466 
L 159.440781 218.831726 
L 161.243606 217.523523 
L 162.619459 216.607783 
L 164.422294 215.332284 
L 165.798147 214.383832 
L 167.55352 213.173741 
L 168.929341 212.225289 
L 170.779683 211.015199 
L 172.155504 210.066769 
L 173.910898 208.856678 
L 175.239299 207.908174 
L 176.615119 206.959745 
L 178.418042 205.716965 
L 179.793863 204.735846 
L 181.644096 203.525755 
L 183.399491 202.282901 
L 184.822839 201.334471 
L 186.19866 200.386042 
L 188.001474 199.143262 
L 189.329875 198.194758 
L 191.132689 196.951978 
L 192.556038 196.003549 
L 194.358852 194.760769 
L 195.734672 193.812339 
L 197.490067 192.569485 
L 198.865996 191.621055 
L 200.66881 190.378275 
L 201.997211 189.429846 
L 203.847445 188.186991 
L 205.223265 187.238562 
L 207.026188 186.028471 
L 208.402008 185.080041 
L 210.157403 183.837262 
L 211.533223 182.888757 
L 213.288618 181.613288 
L 214.664438 180.697548 
L 216.514781 179.422079 
L 217.843181 178.506339 
" clip-path="url(#pcf3042ade7)" style="fill: none; stroke: #9467bd; stroke-width: 1.5; stroke-linecap: square"/>
   </g>
   <g id="line2d_22">
    <path d="M 59.905319 286.760231 
L 60.189977 286.564001 
L 61.376052 285.811783 
L 62.27747 285.190387 
L 63.321216 284.503579 
L 64.127747 283.947593 
L 65.313823 283.129965 
L 66.642227 282.214222 
L 67.685973 281.527415 
L 68.634834 280.873312 
L 69.963241 280.02298 
L 70.9121 279.401582 
L 72.19306 278.551249 
L 73.141919 277.929852 
L 74.327996 277.112223 
L 75.276855 276.458122 
L 76.510373 275.640493 
L 77.69645 274.790161 
L 78.645309 274.168763 
L 79.831386 273.318431 
L 80.685363 272.664329 
L 81.823987 271.846701 
L 82.725405 271.258007 
L 83.911482 270.440379 
L 84.8129 269.851685 
L 85.998977 269.001353 
L 86.900395 268.347251 
L 88.133913 267.562334 
L 89.035331 266.908225 
L 90.221408 266.090597 
L 91.122826 265.469207 
L 92.356344 264.651578 
L 93.257762 264.030181 
L 94.443839 263.212552 
L 95.345256 262.623859 
L 96.531333 261.773526 
L 97.480193 261.119425 
L 98.618828 260.301796 
L 99.520246 259.680399 
L 100.706323 258.895474 
L 101.655182 258.241373 
L 102.793818 257.423744 
L 103.979894 256.606116 
L 104.928754 256.017422 
L 106.11483 255.16709 
L 107.016248 254.5457 
L 108.202325 253.728071 
L 109.056291 253.106674 
L 110.289809 252.289045 
L 111.191227 251.667648 
L 112.377304 250.850019 
L 113.278722 250.195918 
L 114.51224 249.411001 
L 115.413658 248.756899 
L 116.599724 247.939271 
L 117.548583 247.285169 
L 118.73466 246.467541 
L 119.636078 245.846143 
L 120.822155 244.995811 
L 121.771014 244.374413 
L 122.957091 243.524081 
L 123.858509 242.935395 
L 125.044586 242.085055 
L 125.993434 241.463665 
L 127.179511 240.613332 
L 128.080929 239.991935 
L 129.314447 239.141602 
L 130.215865 238.520205 
L 131.449383 237.702576 
L 132.350801 237.081179 
L 133.252219 236.427085 
L 134.438285 235.64216 
L 135.624362 234.824532 
L 136.573221 234.203134 
L 137.474639 233.581737 
L 138.708157 232.731404 
L 139.609575 232.142718 
L 140.795652 231.32509 
L 141.744511 230.670988 
L 142.930588 229.85336 
L 143.831995 229.231962 
L 145.018072 228.38163 
L 145.919501 227.760232 
L 147.105566 226.909907 
L 148.006984 226.28851 
L 149.287944 225.438177 
L 150.141921 224.81678 
L 151.327986 223.999151 
L 152.276846 223.377762 
L 153.462923 222.527429 
L 154.411782 221.906032 
L 155.550417 221.055699 
L 156.499277 220.434302 
L 157.732806 219.616681 
L 158.586782 218.962572 
L 159.8203 218.144951 
L 160.76916 217.523553 
L 161.955236 216.705932 
L 162.856644 216.084535 
L 164.04272 215.234202 
L 164.99158 214.580093 
" clip-path="url(#pcf3042ade7)" style="fill: none; stroke: #8c564b; stroke-width: 1.5; stroke-linecap: square"/>
   </g>
   <g id="line2d_23">
    <path d="M 69.726022 280.840608 
L 69.868347 280.775198 
L 70.437665 280.448147 
L 70.817207 280.186506 
L 71.196759 279.95757 
L 71.623742 279.728635 
L 72.287942 279.30347 
L 72.952143 278.8456 
L 73.426578 278.518545 
L 74.043337 278.126083 
L 74.517772 277.799036 
L 75.134531 277.406574 
L 75.608955 277.079519 
L 76.225714 276.687064 
L 76.700149 276.36001 
L 77.269467 275.967548 
L 77.838774 275.575085 
L 78.313209 275.248038 
L 78.929968 274.855576 
L 79.356951 274.528522 
L 79.97371 274.136067 
L 80.448145 273.841716 
L 81.017463 273.41655 
L 81.491887 273.089503 
L 82.061205 272.664337 
L 82.677964 272.239163 
L 83.104958 271.94482 
L 83.721717 271.519654 
L 84.196141 271.225311 
L 84.765459 270.800145 
L 85.239883 270.505794 
L 85.809201 270.080628 
L 86.236194 269.786285 
L 86.852953 269.361119 
L 87.469713 268.968656 
L 87.896695 268.641609 
L 88.513454 268.249147 
L 88.940437 267.954796 
L 89.557196 267.52963 
L 89.98419 267.235287 
L 90.600949 266.810121 
L 91.027932 266.515778 
L 91.59725 266.090612 
L 92.214009 265.665445 
L 92.688433 265.371095 
L 93.257751 264.978633 
L 93.684745 264.68429 
L 94.301504 264.259123 
L 94.728487 263.932076 
L 95.345246 263.539614 
L 95.819681 263.245264 
L 96.388988 262.820097 
L 96.958305 262.427635 
L 97.43274 262.100588 
L 98.002058 261.708126 
L 98.429041 261.413783 
L 99.0458 260.988617 
L 99.520224 260.694266 
L 100.089542 260.2691 
L 100.516536 259.942053 
L 101.180736 259.549591 
L 101.65516 259.222544 
L 102.224478 258.830081 
L 102.60403 258.535731 
L 103.22079 258.110565 
L 103.742655 257.783518 
L 104.311973 257.391055 
L 104.691525 257.096712 
L 105.308284 256.671546 
L 105.782719 256.344492 
L 106.399478 255.919325 
L 107.016238 255.526863 
L 107.44322 255.199809 
L 108.059979 254.807346 
L 108.486973 254.513003 
L 109.056291 254.087837 
L 109.530715 253.793486 
L 110.100033 253.36832 
L 110.574468 253.041273 
L 111.143786 252.648811 
L 111.618221 252.321757 
L 112.23498 251.89659 
L 112.661963 251.60224 
L 113.278722 251.177074 
L 113.705716 250.850027 
L 114.322475 250.457564 
L 114.749457 250.163214 
L 115.366217 249.738048 
L 115.840652 249.443705 
L 116.409969 249.051242 
L 116.884404 248.724188 
L 117.453722 248.299022 
L 118.070481 247.873855 
L 118.497464 247.579505 
L 119.114223 247.154339 
L 119.588658 246.827292 
L 120.205417 246.434829 
L 120.6324 246.140479 
L 121.201718 245.715312 
L 121.676153 245.388266 
" clip-path="url(#pcf3042ade7)" style="fill: none; stroke: #e377c2; stroke-width: 1.5; stroke-linecap: square"/>
   </g>
   <g id="line2d_24">
    <path d="M 59.003902 287.185398 
L 424.931993 34.930852 
L 424.931993 34.930852 
" clip-path="url(#pcf3042ade7)" style="fill: none; stroke: #7f7f7f; stroke-width: 1.5; stroke-linecap: square"/>
   </g>
   <g id="patch_3">
    <path d="M 40.603125 299.798125 
L 40.603125 22.318125 
" style="fill: none; stroke: #000000; stroke-width: 0.8; stroke-linejoin: miter; stroke-linecap: square"/>
   </g>
   <g id="patch_4">
    <path d="M 445.42021 299.798125 
L 445.42021 22.318125 
" style="fill: none; stroke: #000000; stroke-width: 0.8; stroke-linejoin: miter; stroke-linecap: square"/>
   </g>
   <g id="patch_5">
    <path d="M 40.603125 299.798125 
L 445.42021 299.798125 
" style="fill: none; stroke: #000000; stroke-width: 0.8; stroke-linejoin: miter; stroke-linecap: square"/>
   </g>
   <g id="patch_6">
    <path d="M 40.603125 22.318125 
L 445.42021 22.318125 
" style="fill: none; stroke: #000000; stroke-width: 0.8; stroke-linejoin: miter; stroke-linecap: square"/>
   </g>
   <g id="text_19">
    <!-- Right Position vs. Left position -->
    <g transform="translate(152.588855 16.318125) scale(0.12 -0.12)">
     <defs>
      <path id="DejaVuSans-76" d="M 191 3500 
L 800 3500 
L 1894 563 
L 2988 3500 
L 3597 3500 
L 2284 0 
L 1503 0 
L 191 3500 
z
" transform="scale(0.015625)"/>
      <path id="DejaVuSans-2e" d="M 684 794 
L 1344 794 
L 1344 0 
L 684 0 
L 684 794 
z
" transform="scale(0.015625)"/>
      <path id="DejaVuSans-70" d="M 1159 525 
L 1159 -1331 
L 581 -1331 
L 581 3500 
L 1159 3500 
L 1159 2969 
Q 1341 3281 1617 3432 
Q 1894 3584 2278 3584 
Q 2916 3584 3314 3078 
Q 3713 2572 3713 1747 
Q 3713 922 3314 415 
Q 2916 -91 2278 -91 
Q 1894 -91 1617 61 
Q 1341 213 1159 525 
z
M 3116 1747 
Q 3116 2381 2855 2742 
Q 2594 3103 2138 3103 
Q 1681 3103 1420 2742 
Q 1159 2381 1159 1747 
Q 1159 1113 1420 752 
Q 1681 391 2138 391 
Q 2594 391 2855 752 
Q 3116 1113 3116 1747 
z
" transform="scale(0.015625)"/>
     </defs>
     <use xlink:href="#DejaVuSans-52"/>
     <use xlink:href="#DejaVuSans-69" transform="translate(69.482422 0)"/>
     <use xlink:href="#DejaVuSans-67" transform="translate(97.265625 0)"/>
     <use xlink:href="#DejaVuSans-68" transform="translate(160.742188 0)"/>
     <use xlink:href="#DejaVuSans-74" transform="translate(224.121094 0)"/>
     <use xlink:href="#DejaVuSans-20" transform="translate(263.330078 0)"/>
     <use xlink:href="#DejaVuSans-50" transform="translate(295.117188 0)"/>
     <use xlink:href="#DejaVuSans-6f" transform="translate(351.794922 0)"/>
     <use xlink:href="#DejaVuSans-73" transform="translate(412.976562 0)"/>
     <use xlink:href="#DejaVuSans-69" transform="translate(465.076172 0)"/>
     <use xlink:href="#DejaVuSans-74" transform="translate(492.859375 0)"/>
     <use xlink:href="#DejaVuSans-69" transform="translate(532.068359 0)"/>
     <use xlink:href="#DejaVuSans-6f" transform="translate(559.851562 0)"/>
     <use xlink:href="#DejaVuSans-6e" transform="translate(621.033203 0)"/>
     <use xlink:href="#DejaVuSans-20" transform="translate(684.412109 0)"/>
     <use xlink:href="#DejaVuSans-76" transform="translate(716.199219 0)"/>
     <use xlink:href="#DejaVuSans-73" transform="translate(775.378906 0)"/>
     <use xlink:href="#DejaVuSans-2e" transform="translate(827.478516 0)"/>
     <use xlink:href="#DejaVuSans-20" transform="translate(859.265625 0)"/>
     <use xlink:href="#DejaVuSans-4c" transform="translate(891.052734 0)"/>
     <use xlink:href="#DejaVuSans-65" transform="translate(945.015625 0)"/>
     <use xlink:href="#DejaVuSans-66" transform="translate(1006.539062 0)"/>
     <use xlink:href="#DejaVuSans-74" transform="translate(1039.994141 0)"/>
     <use xlink:href="#DejaVuSans-20" transform="translate(1079.203125 0)"/>
     <use xlink:href="#DejaVuSans-70" transform="translate(1110.990234 0)"/>
     <use xlink:href="#DejaVuSans-6f" transform="translate(1174.466797 0)"/>
     <use xlink:href="#DejaVuSans-73" transform="translate(1235.648438 0)"/>
     <use xlink:href="#DejaVuSans-69" transform="translate(1287.748047 0)"/>
     <use xlink:href="#DejaVuSans-74" transform="translate(1315.53125 0)"/>
     <use xlink:href="#DejaVuSans-69" transform="translate(1354.740234 0)"/>
     <use xlink:href="#DejaVuSans-6f" transform="translate(1382.523438 0)"/>
     <use xlink:href="#DejaVuSans-6e" transform="translate(1443.705078 0)"/>
    </g>
   </g>
   <g id="legend_1">
    <g id="patch_7">
     <path d="M 321.89521 294.798125 
L 438.42021 294.798125 
Q 440.42021 294.798125 440.42021 292.798125 
L 440.42021 176.373125 
Q 440.42021 174.373125 438.42021 174.373125 
L 321.89521 174.373125 
Q 319.89521 174.373125 319.89521 176.373125 
L 319.89521 292.798125 
Q 319.89521 294.798125 321.89521 294.798125 
z
" style="fill: #ffffff; opacity: 0.8; stroke: #cccccc; stroke-linejoin: miter"/>
    </g>
    <g id="line2d_25">
     <path d="M 323.89521 182.471563 
L 333.89521 182.471563 
L 343.89521 182.471563 
" style="fill: none; stroke: #1f77b4; stroke-width: 1.5; stroke-linecap: square"/>
    </g>
    <g id="text_20">
     <!-- Ref Speed = 595 -->
     <g transform="translate(351.89521 185.971563) scale(0.1 -0.1)">
      <defs>
       <path id="DejaVuSans-53" d="M 3425 4513 
L 3425 3897 
Q 3066 4069 2747 4153 
Q 2428 4238 2131 4238 
Q 1616 4238 1336 4038 
Q 1056 3838 1056 3469 
Q 1056 3159 1242 3001 
Q 1428 2844 1947 2747 
L 2328 2669 
Q 3034 2534 3370 2195 
Q 3706 1856 3706 1288 
Q 3706 609 3251 259 
Q 2797 -91 1919 -91 
Q 1588 -91 1214 -16 
Q 841 59 441 206 
L 441 856 
Q 825 641 1194 531 
Q 1563 422 1919 422 
Q 2459 422 2753 634 
Q 3047 847 3047 1241 
Q 3047 1584 2836 1778 
Q 2625 1972 2144 2069 
L 1759 2144 
Q 1053 2284 737 2584 
Q 422 2884 422 3419 
Q 422 4038 858 4394 
Q 1294 4750 2059 4750 
Q 2388 4750 2728 4690 
Q 3069 4631 3425 4513 
z
" transform="scale(0.015625)"/>
       <path id="DejaVuSans-3d" d="M 678 2906 
L 4684 2906 
L 4684 2381 
L 678 2381 
L 678 2906 
z
M 678 1631 
L 4684 1631 
L 4684 1100 
L 678 1100 
L 678 1631 
z
" transform="scale(0.015625)"/>
       <path id="DejaVuSans-39" d="M 703 97 
L 703 672 
Q 941 559 1184 500 
Q 1428 441 1663 441 
Q 2288 441 2617 861 
Q 2947 1281 2994 2138 
Q 2813 1869 2534 1725 
Q 2256 1581 1919 1581 
Q 1219 1581 811 2004 
Q 403 2428 403 3163 
Q 403 3881 828 4315 
Q 1253 4750 1959 4750 
Q 2769 4750 3195 4129 
Q 3622 3509 3622 2328 
Q 3622 1225 3098 567 
Q 2575 -91 1691 -91 
Q 1453 -91 1209 -44 
Q 966 3 703 97 
z
M 1959 2075 
Q 2384 2075 2632 2365 
Q 2881 2656 2881 3163 
Q 2881 3666 2632 3958 
Q 2384 4250 1959 4250 
Q 1534 4250 1286 3958 
Q 1038 3666 1038 3163 
Q 1038 2656 1286 2365 
Q 1534 2075 1959 2075 
z
" transform="scale(0.015625)"/>
      </defs>
      <use xlink:href="#DejaVuSans-52"/>
      <use xlink:href="#DejaVuSans-65" transform="translate(64.982422 0)"/>
      <use xlink:href="#DejaVuSans-66" transform="translate(126.505859 0)"/>
      <use xlink:href="#DejaVuSans-20" transform="translate(161.710938 0)"/>
      <use xlink:href="#DejaVuSans-53" transform="translate(193.498047 0)"/>
      <use xlink:href="#DejaVuSans-70" transform="translate(256.974609 0)"/>
      <use xlink:href="#DejaVuSans-65" transform="translate(320.451172 0)"/>
      <use xlink:href="#DejaVuSans-65" transform="translate(381.974609 0)"/>
      <use xlink:href="#DejaVuSans-64" transform="translate(443.498047 0)"/>
      <use xlink:href="#DejaVuSans-20" transform="translate(506.974609 0)"/>
      <use xlink:href="#DejaVuSans-3d" transform="translate(538.761719 0)"/>
      <use xlink:href="#DejaVuSans-20" transform="translate(622.550781 0)"/>
      <use xlink:href="#DejaVuSans-35" transform="translate(654.337891 0)"/>
      <use xlink:href="#DejaVuSans-39" transform="translate(717.960938 0)"/>
      <use xlink:href="#DejaVuSans-35" transform="translate(781.583984 0)"/>
     </g>
    </g>
    <g id="line2d_26">
     <path d="M 323.89521 197.149688 
L 333.89521 197.149688 
L 343.89521 197.149688 
" style="fill: none; stroke: #ff7f0e; stroke-width: 1.5; stroke-linecap: square"/>
    </g>
    <g id="text_21">
     <!-- Ref Speed = 510 -->
     <g transform="translate(351.89521 200.649688) scale(0.1 -0.1)">
      <use xlink:href="#DejaVuSans-52"/>
      <use xlink:href="#DejaVuSans-65" transform="translate(64.982422 0)"/>
      <use xlink:href="#DejaVuSans-66" transform="translate(126.505859 0)"/>
      <use xlink:href="#DejaVuSans-20" transform="translate(161.710938 0)"/>
      <use xlink:href="#DejaVuSans-53" transform="translate(193.498047 0)"/>
      <use xlink:href="#DejaVuSans-70" transform="translate(256.974609 0)"/>
      <use xlink:href="#DejaVuSans-65" transform="translate(320.451172 0)"/>
      <use xlink:href="#DejaVuSans-65" transform="translate(381.974609 0)"/>
      <use xlink:href="#DejaVuSans-64" transform="translate(443.498047 0)"/>
      <use xlink:href="#DejaVuSans-20" transform="translate(506.974609 0)"/>
      <use xlink:href="#DejaVuSans-3d" transform="translate(538.761719 0)"/>
      <use xlink:href="#DejaVuSans-20" transform="translate(622.550781 0)"/>
      <use xlink:href="#DejaVuSans-35" transform="translate(654.337891 0)"/>
      <use xlink:href="#DejaVuSans-31" transform="translate(717.960938 0)"/>
      <use xlink:href="#DejaVuSans-30" transform="translate(781.583984 0)"/>
     </g>
    </g>
    <g id="line2d_27">
     <path d="M 323.89521 211.827813 
L 333.89521 211.827813 
L 343.89521 211.827813 
" style="fill: none; stroke: #2ca02c; stroke-width: 1.5; stroke-linecap: square"/>
    </g>
    <g id="text_22">
     <!-- Ref Speed = 425 -->
     <g transform="translate(351.89521 215.327813) scale(0.1 -0.1)">
      <defs>
       <path id="DejaVuSans-34" d="M 2419 4116 
L 825 1625 
L 2419 1625 
L 2419 4116 
z
M 2253 4666 
L 3047 4666 
L 3047 1625 
L 3713 1625 
L 3713 1100 
L 3047 1100 
L 3047 0 
L 2419 0 
L 2419 1100 
L 313 1100 
L 313 1709 
L 2253 4666 
z
" transform="scale(0.015625)"/>
      </defs>
      <use xlink:href="#DejaVuSans-52"/>
      <use xlink:href="#DejaVuSans-65" transform="translate(64.982422 0)"/>
      <use xlink:href="#DejaVuSans-66" transform="translate(126.505859 0)"/>
      <use xlink:href="#DejaVuSans-20" transform="translate(161.710938 0)"/>
      <use xlink:href="#DejaVuSans-53" transform="translate(193.498047 0)"/>
      <use xlink:href="#DejaVuSans-70" transform="translate(256.974609 0)"/>
      <use xlink:href="#DejaVuSans-65" transform="translate(320.451172 0)"/>
      <use xlink:href="#DejaVuSans-65" transform="translate(381.974609 0)"/>
      <use xlink:href="#DejaVuSans-64" transform="translate(443.498047 0)"/>
      <use xlink:href="#DejaVuSans-20" transform="translate(506.974609 0)"/>
      <use xlink:href="#DejaVuSans-3d" transform="translate(538.761719 0)"/>
      <use xlink:href="#DejaVuSans-20" transform="translate(622.550781 0)"/>
      <use xlink:href="#DejaVuSans-34" transform="translate(654.337891 0)"/>
      <use xlink:href="#DejaVuSans-32" transform="translate(717.960938 0)"/>
      <use xlink:href="#DejaVuSans-35" transform="translate(781.583984 0)"/>
     </g>
    </g>
    <g id="line2d_28">
     <path d="M 323.89521 226.505938 
L 333.89521 226.505938 
L 343.89521 226.505938 
" style="fill: none; stroke: #d62728; stroke-width: 1.5; stroke-linecap: square"/>
    </g>
    <g id="text_23">
     <!-- Ref Speed = 340 -->
     <g transform="translate(351.89521 230.005938) scale(0.1 -0.1)">
      <use xlink:href="#DejaVuSans-52"/>
      <use xlink:href="#DejaVuSans-65" transform="translate(64.982422 0)"/>
      <use xlink:href="#DejaVuSans-66" transform="translate(126.505859 0)"/>
      <use xlink:href="#DejaVuSans-20" transform="translate(161.710938 0)"/>
      <use xlink:href="#DejaVuSans-53" transform="translate(193.498047 0)"/>
      <use xlink:href="#DejaVuSans-70" transform="translate(256.974609 0)"/>
      <use xlink:href="#DejaVuSans-65" transform="translate(320.451172 0)"/>
      <use xlink:href="#DejaVuSans-65" transform="translate(381.974609 0)"/>
      <use xlink:href="#DejaVuSans-64" transform="translate(443.498047 0)"/>
      <use xlink:href="#DejaVuSans-20" transform="translate(506.974609 0)"/>
      <use xlink:href="#DejaVuSans-3d" transform="translate(538.761719 0)"/>
      <use xlink:href="#DejaVuSans-20" transform="translate(622.550781 0)"/>
      <use xlink:href="#DejaVuSans-33" transform="translate(654.337891 0)"/>
      <use xlink:href="#DejaVuSans-34" transform="translate(717.960938 0)"/>
      <use xlink:href="#DejaVuSans-30" transform="translate(781.583984 0)"/>
     </g>
    </g>
    <g id="line2d_29">
     <path d="M 323.89521 241.184063 
L 333.89521 241.184063 
L 343.89521 241.184063 
" style="fill: none; stroke: #9467bd; stroke-width: 1.5; stroke-linecap: square"/>
    </g>
    <g id="text_24">
     <!-- Ref Speed = 255 -->
     <g transform="translate(351.89521 244.684063) scale(0.1 -0.1)">
      <use xlink:href="#DejaVuSans-52"/>
      <use xlink:href="#DejaVuSans-65" transform="translate(64.982422 0)"/>
      <use xlink:href="#DejaVuSans-66" transform="translate(126.505859 0)"/>
      <use xlink:href="#DejaVuSans-20" transform="translate(161.710938 0)"/>
      <use xlink:href="#DejaVuSans-53" transform="translate(193.498047 0)"/>
      <use xlink:href="#DejaVuSans-70" transform="translate(256.974609 0)"/>
      <use xlink:href="#DejaVuSans-65" transform="translate(320.451172 0)"/>
      <use xlink:href="#DejaVuSans-65" transform="translate(381.974609 0)"/>
      <use xlink:href="#DejaVuSans-64" transform="translate(443.498047 0)"/>
      <use xlink:href="#DejaVuSans-20" transform="translate(506.974609 0)"/>
      <use xlink:href="#DejaVuSans-3d" transform="translate(538.761719 0)"/>
      <use xlink:href="#DejaVuSans-20" transform="translate(622.550781 0)"/>
      <use xlink:href="#DejaVuSans-32" transform="translate(654.337891 0)"/>
      <use xlink:href="#DejaVuSans-35" transform="translate(717.960938 0)"/>
      <use xlink:href="#DejaVuSans-35" transform="translate(781.583984 0)"/>
     </g>
    </g>
    <g id="line2d_30">
     <path d="M 323.89521 255.862188 
L 333.89521 255.862188 
L 343.89521 255.862188 
" style="fill: none; stroke: #8c564b; stroke-width: 1.5; stroke-linecap: square"/>
    </g>
    <g id="text_25">
     <!-- Ref Speed = 170 -->
     <g transform="translate(351.89521 259.362188) scale(0.1 -0.1)">
      <defs>
       <path id="DejaVuSans-37" d="M 525 4666 
L 3525 4666 
L 3525 4397 
L 1831 0 
L 1172 0 
L 2766 4134 
L 525 4134 
L 525 4666 
z
" transform="scale(0.015625)"/>
      </defs>
      <use xlink:href="#DejaVuSans-52"/>
      <use xlink:href="#DejaVuSans-65" transform="translate(64.982422 0)"/>
      <use xlink:href="#DejaVuSans-66" transform="translate(126.505859 0)"/>
      <use xlink:href="#DejaVuSans-20" transform="translate(161.710938 0)"/>
      <use xlink:href="#DejaVuSans-53" transform="translate(193.498047 0)"/>
      <use xlink:href="#DejaVuSans-70" transform="translate(256.974609 0)"/>
      <use xlink:href="#DejaVuSans-65" transform="translate(320.451172 0)"/>
      <use xlink:href="#DejaVuSans-65" transform="translate(381.974609 0)"/>
      <use xlink:href="#DejaVuSans-64" transform="translate(443.498047 0)"/>
      <use xlink:href="#DejaVuSans-20" transform="translate(506.974609 0)"/>
      <use xlink:href="#DejaVuSans-3d" transform="translate(538.761719 0)"/>
      <use xlink:href="#DejaVuSans-20" transform="translate(622.550781 0)"/>
      <use xlink:href="#DejaVuSans-31" transform="translate(654.337891 0)"/>
      <use xlink:href="#DejaVuSans-37" transform="translate(717.960938 0)"/>
      <use xlink:href="#DejaVuSans-30" transform="translate(781.583984 0)"/>
     </g>
    </g>
    <g id="line2d_31">
     <path d="M 323.89521 270.540313 
L 333.89521 270.540313 
L 343.89521 270.540313 
" style="fill: none; stroke: #e377c2; stroke-width: 1.5; stroke-linecap: square"/>
    </g>
    <g id="text_26">
     <!-- Ref Speed = 85 -->
     <g transform="translate(351.89521 274.040313) scale(0.1 -0.1)">
      <defs>
       <path id="DejaVuSans-38" d="M 2034 2216 
Q 1584 2216 1326 1975 
Q 1069 1734 1069 1313 
Q 1069 891 1326 650 
Q 1584 409 2034 409 
Q 2484 409 2743 651 
Q 3003 894 3003 1313 
Q 3003 1734 2745 1975 
Q 2488 2216 2034 2216 
z
M 1403 2484 
Q 997 2584 770 2862 
Q 544 3141 544 3541 
Q 544 4100 942 4425 
Q 1341 4750 2034 4750 
Q 2731 4750 3128 4425 
Q 3525 4100 3525 3541 
Q 3525 3141 3298 2862 
Q 3072 2584 2669 2484 
Q 3125 2378 3379 2068 
Q 3634 1759 3634 1313 
Q 3634 634 3220 271 
Q 2806 -91 2034 -91 
Q 1263 -91 848 271 
Q 434 634 434 1313 
Q 434 1759 690 2068 
Q 947 2378 1403 2484 
z
M 1172 3481 
Q 1172 3119 1398 2916 
Q 1625 2713 2034 2713 
Q 2441 2713 2670 2916 
Q 2900 3119 2900 3481 
Q 2900 3844 2670 4047 
Q 2441 4250 2034 4250 
Q 1625 4250 1398 4047 
Q 1172 3844 1172 3481 
z
" transform="scale(0.015625)"/>
      </defs>
      <use xlink:href="#DejaVuSans-52"/>
      <use xlink:href="#DejaVuSans-65" transform="translate(64.982422 0)"/>
      <use xlink:href="#DejaVuSans-66" transform="translate(126.505859 0)"/>
      <use xlink:href="#DejaVuSans-20" transform="translate(161.710938 0)"/>
      <use xlink:href="#DejaVuSans-53" transform="translate(193.498047 0)"/>
      <use xlink:href="#DejaVuSans-70" transform="translate(256.974609 0)"/>
      <use xlink:href="#DejaVuSans-65" transform="translate(320.451172 0)"/>
      <use xlink:href="#DejaVuSans-65" transform="translate(381.974609 0)"/>
      <use xlink:href="#DejaVuSans-64" transform="translate(443.498047 0)"/>
      <use xlink:href="#DejaVuSans-20" transform="translate(506.974609 0)"/>
      <use xlink:href="#DejaVuSans-3d" transform="translate(538.761719 0)"/>
      <use xlink:href="#DejaVuSans-20" transform="translate(622.550781 0)"/>
      <use xlink:href="#DejaVuSans-38" transform="translate(654.337891 0)"/>
      <use xlink:href="#DejaVuSans-35" transform="translate(717.960938 0)"/>
     </g>
    </g>
    <g id="line2d_32">
     <path d="M 323.89521 285.218438 
L 333.89521 285.218438 
L 343.89521 285.218438 
" style="fill: none; stroke: #7f7f7f; stroke-width: 1.5; stroke-linecap: square"/>
    </g>
    <g id="text_27">
     <!-- y = x -->
     <g transform="translate(351.89521 288.718438) scale(0.1 -0.1)">
      <defs>
       <path id="DejaVuSans-79" d="M 2059 -325 
Q 1816 -950 1584 -1140 
Q 1353 -1331 966 -1331 
L 506 -1331 
L 506 -850 
L 844 -850 
Q 1081 -850 1212 -737 
Q 1344 -625 1503 -206 
L 1606 56 
L 191 3500 
L 800 3500 
L 1894 763 
L 2988 3500 
L 3597 3500 
L 2059 -325 
z
" transform="scale(0.015625)"/>
       <path id="DejaVuSans-78" d="M 3513 3500 
L 2247 1797 
L 3578 0 
L 2900 0 
L 1881 1375 
L 863 0 
L 184 0 
L 1544 1831 
L 300 3500 
L 978 3500 
L 1906 2253 
L 2834 3500 
L 3513 3500 
z
" transform="scale(0.015625)"/>
      </defs>
      <use xlink:href="#DejaVuSans-79"/>
      <use xlink:href="#DejaVuSans-20" transform="translate(59.179688 0)"/>
      <use xlink:href="#DejaVuSans-3d" transform="translate(90.966797 0)"/>
      <use xlink:href="#DejaVuSans-20" transform="translate(174.755859 0)"/>
      <use xlink:href="#DejaVuSans-78" transform="translate(206.542969 0)"/>
     </g>
    </g>
   </g>
  </g>
 </g>
 <defs>
  <clipPath id="pcf3042ade7">
   <rect x="40.603125" y="22.318125" width="404.817085" height="277.48"/>
  </clipPath>
 </defs>
</svg>
