<?xml version="1.0" encoding="utf-8" standalone="no"?>
<!DOCTYPE svg PUBLIC "-//W3C//DTD SVG 1.1//EN"
  "http://www.w3.org/Graphics/SVG/1.1/DTD/svg11.dtd">
<svg xmlns:xlink="http://www.w3.org/1999/xlink" width="453.143125pt" height="337.354375pt" viewBox="0 0 453.143125 337.354375" xmlns="http://www.w3.org/2000/svg" version="1.1">
 <metadata>
  <rdf:RDF xmlns:dc="http://purl.org/dc/elements/1.1/" xmlns:cc="http://creativecommons.org/ns#" xmlns:rdf="http://www.w3.org/1999/02/22-rdf-syntax-ns#">
   <cc:Work>
    <dc:type rdf:resource="http://purl.org/dc/dcmitype/StillImage"/>
    <dc:date>2025-10-29T23:09:54.129730</dc:date>
    <dc:format>image/svg+xml</dc:format>
    <dc:creator>
     <cc:Agent>
      <dc:title>Matplotlib v3.10.6, https://matplotlib.org/</dc:title>
     </cc:Agent>
    </dc:creator>
   </cc:Work>
  </rdf:RDF>
 </metadata>
 <defs>
  <style type="text/css">*{stroke-linejoin: round; stroke-linecap: butt}</style>
 </defs>
 <g id="figure_1">
  <g id="patch_1">
   <path d="M 0 337.354375 
L 453.143125 337.354375 
L 453.143125 0 
L 0 0 
z
" style="fill: #ffffff"/>
  </g>
  <g id="axes_1">
   <g id="patch_2">
    <path d="M 40.603125 299.798125 
L 445.943125 299.798125 
L 445.943125 22.318125 
L 40.603125 22.318125 
z
" style="fill: #ffffff"/>
   </g>
   <g id="matplotlib.axis_1">
    <g id="xtick_1">
     <g id="line2d_1">
      <defs>
       <path id="mdd2ce60ef5" d="M 0 0 
L 0 3.5 
" style="stroke: #000000; stroke-width: 0.8"/>
      </defs>
      <g>
       <use xlink:href="#mdd2ce60ef5" x="58.792218" y="299.798125" style="stroke: #000000; stroke-width: 0.8"/>
      </g>
     </g>
     <g id="text_1">
      <!-- 0.00 -->
      <g transform="translate(47.659405 314.396563) scale(0.1 -0.1)">
       <defs>
        <path id="DejaVuSans-30" d="M 2034 4250 
Q 1547 4250 1301 3770 
Q 1056 3291 1056 2328 
Q 1056 1369 1301 889 
Q 1547 409 2034 409 
Q 2525 409 2770 889 
Q 3016 1369 3016 2328 
Q 3016 3291 2770 3770 
Q 2525 4250 2034 4250 
z
M 2034 4750 
Q 2819 4750 3233 4129 
Q 3647 3509 3647 2328 
Q 3647 1150 3233 529 
Q 2819 -91 2034 -91 
Q 1250 -91 836 529 
Q 422 1150 422 2328 
Q 422 3509 836 4129 
Q 1250 4750 2034 4750 
z
" transform="scale(0.015625)"/>
        <path id="DejaVuSans-2e" d="M 684 794 
L 1344 794 
L 1344 0 
L 684 0 
L 684 794 
z
" transform="scale(0.015625)"/>
       </defs>
       <use xlink:href="#DejaVuSans-30"/>
       <use xlink:href="#DejaVuSans-2e" transform="translate(63.623047 0)"/>
       <use xlink:href="#DejaVuSans-30" transform="translate(95.410156 0)"/>
       <use xlink:href="#DejaVuSans-30" transform="translate(159.033203 0)"/>
      </g>
     </g>
    </g>
    <g id="xtick_2">
     <g id="line2d_2">
      <g>
       <use xlink:href="#mdd2ce60ef5" x="104.887115" y="299.798125" style="stroke: #000000; stroke-width: 0.8"/>
      </g>
     </g>
     <g id="text_2">
      <!-- 0.25 -->
      <g transform="translate(93.754303 314.396563) scale(0.1 -0.1)">
       <defs>
        <path id="DejaVuSans-32" d="M 1228 531 
L 3431 531 
L 3431 0 
L 469 0 
L 469 531 
Q 828 903 1448 1529 
Q 2069 2156 2228 2338 
Q 2531 2678 2651 2914 
Q 2772 3150 2772 3378 
Q 2772 3750 2511 3984 
Q 2250 4219 1831 4219 
Q 1534 4219 1204 4116 
Q 875 4013 500 3803 
L 500 4441 
Q 881 4594 1212 4672 
Q 1544 4750 1819 4750 
Q 2544 4750 2975 4387 
Q 3406 4025 3406 3419 
Q 3406 3131 3298 2873 
Q 3191 2616 2906 2266 
Q 2828 2175 2409 1742 
Q 1991 1309 1228 531 
z
" transform="scale(0.015625)"/>
        <path id="DejaVuSans-35" d="M 691 4666 
L 3169 4666 
L 3169 4134 
L 1269 4134 
L 1269 2991 
Q 1406 3038 1543 3061 
Q 1681 3084 1819 3084 
Q 2600 3084 3056 2656 
Q 3513 2228 3513 1497 
Q 3513 744 3044 326 
Q 2575 -91 1722 -91 
Q 1428 -91 1123 -41 
Q 819 9 494 109 
L 494 744 
Q 775 591 1075 516 
Q 1375 441 1709 441 
Q 2250 441 2565 725 
Q 2881 1009 2881 1497 
Q 2881 1984 2565 2268 
Q 2250 2553 1709 2553 
Q 1456 2553 1204 2497 
Q 953 2441 691 2322 
L 691 4666 
z
" transform="scale(0.015625)"/>
       </defs>
       <use xlink:href="#DejaVuSans-30"/>
       <use xlink:href="#DejaVuSans-2e" transform="translate(63.623047 0)"/>
       <use xlink:href="#DejaVuSans-32" transform="translate(95.410156 0)"/>
       <use xlink:href="#DejaVuSans-35" transform="translate(159.033203 0)"/>
      </g>
     </g>
    </g>
    <g id="xtick_3">
     <g id="line2d_3">
      <g>
       <use xlink:href="#mdd2ce60ef5" x="150.982013" y="299.798125" style="stroke: #000000; stroke-width: 0.8"/>
      </g>
     </g>
     <g id="text_3">
      <!-- 0.50 -->
      <g transform="translate(139.849201 314.396563) scale(0.1 -0.1)">
       <use xlink:href="#DejaVuSans-30"/>
       <use xlink:href="#DejaVuSans-2e" transform="translate(63.623047 0)"/>
       <use xlink:href="#DejaVuSans-35" transform="translate(95.410156 0)"/>
       <use xlink:href="#DejaVuSans-30" transform="translate(159.033203 0)"/>
      </g>
     </g>
    </g>
    <g id="xtick_4">
     <g id="line2d_4">
      <g>
       <use xlink:href="#mdd2ce60ef5" x="197.076911" y="299.798125" style="stroke: #000000; stroke-width: 0.8"/>
      </g>
     </g>
     <g id="text_4">
      <!-- 0.75 -->
      <g transform="translate(185.944098 314.396563) scale(0.1 -0.1)">
       <defs>
        <path id="DejaVuSans-37" d="M 525 4666 
L 3525 4666 
L 3525 4397 
L 1831 0 
L 1172 0 
L 2766 4134 
L 525 4134 
L 525 4666 
z
" transform="scale(0.015625)"/>
       </defs>
       <use xlink:href="#DejaVuSans-30"/>
       <use xlink:href="#DejaVuSans-2e" transform="translate(63.623047 0)"/>
       <use xlink:href="#DejaVuSans-37" transform="translate(95.410156 0)"/>
       <use xlink:href="#DejaVuSans-35" transform="translate(159.033203 0)"/>
      </g>
     </g>
    </g>
    <g id="xtick_5">
     <g id="line2d_5">
      <g>
       <use xlink:href="#mdd2ce60ef5" x="243.171808" y="299.798125" style="stroke: #000000; stroke-width: 0.8"/>
      </g>
     </g>
     <g id="text_5">
      <!-- 1.00 -->
      <g transform="translate(232.038996 314.396563) scale(0.1 -0.1)">
       <defs>
        <path id="DejaVuSans-31" d="M 794 531 
L 1825 531 
L 1825 4091 
L 703 3866 
L 703 4441 
L 1819 4666 
L 2450 4666 
L 2450 531 
L 3481 531 
L 3481 0 
L 794 0 
L 794 531 
z
" transform="scale(0.015625)"/>
       </defs>
       <use xlink:href="#DejaVuSans-31"/>
       <use xlink:href="#DejaVuSans-2e" transform="translate(63.623047 0)"/>
       <use xlink:href="#DejaVuSans-30" transform="translate(95.410156 0)"/>
       <use xlink:href="#DejaVuSans-30" transform="translate(159.033203 0)"/>
      </g>
     </g>
    </g>
    <g id="xtick_6">
     <g id="line2d_6">
      <g>
       <use xlink:href="#mdd2ce60ef5" x="289.266706" y="299.798125" style="stroke: #000000; stroke-width: 0.8"/>
      </g>
     </g>
     <g id="text_6">
      <!-- 1.25 -->
      <g transform="translate(278.133894 314.396563) scale(0.1 -0.1)">
       <use xlink:href="#DejaVuSans-31"/>
       <use xlink:href="#DejaVuSans-2e" transform="translate(63.623047 0)"/>
       <use xlink:href="#DejaVuSans-32" transform="translate(95.410156 0)"/>
       <use xlink:href="#DejaVuSans-35" transform="translate(159.033203 0)"/>
      </g>
     </g>
    </g>
    <g id="xtick_7">
     <g id="line2d_7">
      <g>
       <use xlink:href="#mdd2ce60ef5" x="335.361604" y="299.798125" style="stroke: #000000; stroke-width: 0.8"/>
      </g>
     </g>
     <g id="text_7">
      <!-- 1.50 -->
      <g transform="translate(324.228791 314.396563) scale(0.1 -0.1)">
       <use xlink:href="#DejaVuSans-31"/>
       <use xlink:href="#DejaVuSans-2e" transform="translate(63.623047 0)"/>
       <use xlink:href="#DejaVuSans-35" transform="translate(95.410156 0)"/>
       <use xlink:href="#DejaVuSans-30" transform="translate(159.033203 0)"/>
      </g>
     </g>
    </g>
    <g id="xtick_8">
     <g id="line2d_8">
      <g>
       <use xlink:href="#mdd2ce60ef5" x="381.456501" y="299.798125" style="stroke: #000000; stroke-width: 0.8"/>
      </g>
     </g>
     <g id="text_8">
      <!-- 1.75 -->
      <g transform="translate(370.323689 314.396563) scale(0.1 -0.1)">
       <use xlink:href="#DejaVuSans-31"/>
       <use xlink:href="#DejaVuSans-2e" transform="translate(63.623047 0)"/>
       <use xlink:href="#DejaVuSans-37" transform="translate(95.410156 0)"/>
       <use xlink:href="#DejaVuSans-35" transform="translate(159.033203 0)"/>
      </g>
     </g>
    </g>
    <g id="xtick_9">
     <g id="line2d_9">
      <g>
       <use xlink:href="#mdd2ce60ef5" x="427.551399" y="299.798125" style="stroke: #000000; stroke-width: 0.8"/>
      </g>
     </g>
     <g id="text_9">
      <!-- 2.00 -->
      <g transform="translate(416.418587 314.396563) scale(0.1 -0.1)">
       <use xlink:href="#DejaVuSans-32"/>
       <use xlink:href="#DejaVuSans-2e" transform="translate(63.623047 0)"/>
       <use xlink:href="#DejaVuSans-30" transform="translate(95.410156 0)"/>
       <use xlink:href="#DejaVuSans-30" transform="translate(159.033203 0)"/>
      </g>
     </g>
    </g>
    <g id="text_10">
     <!-- time, t (us) -->
     <g transform="translate(215.574688 328.074688) scale(0.1 -0.1)">
      <defs>
       <path id="DejaVuSans-74" d="M 1172 4494 
L 1172 3500 
L 2356 3500 
L 2356 3053 
L 1172 3053 
L 1172 1153 
Q 1172 725 1289 603 
Q 1406 481 1766 481 
L 2356 481 
L 2356 0 
L 1766 0 
Q 1100 0 847 248 
Q 594 497 594 1153 
L 594 3053 
L 172 3053 
L 172 3500 
L 594 3500 
L 594 4494 
L 1172 4494 
z
" transform="scale(0.015625)"/>
       <path id="DejaVuSans-69" d="M 603 3500 
L 1178 3500 
L 1178 0 
L 603 0 
L 603 3500 
z
M 603 4863 
L 1178 4863 
L 1178 4134 
L 603 4134 
L 603 4863 
z
" transform="scale(0.015625)"/>
       <path id="DejaVuSans-6d" d="M 3328 2828 
Q 3544 3216 3844 3400 
Q 4144 3584 4550 3584 
Q 5097 3584 5394 3201 
Q 5691 2819 5691 2113 
L 5691 0 
L 5113 0 
L 5113 2094 
Q 5113 2597 4934 2840 
Q 4756 3084 4391 3084 
Q 3944 3084 3684 2787 
Q 3425 2491 3425 1978 
L 3425 0 
L 2847 0 
L 2847 2094 
Q 2847 2600 2669 2842 
Q 2491 3084 2119 3084 
Q 1678 3084 1418 2786 
Q 1159 2488 1159 1978 
L 1159 0 
L 581 0 
L 581 3500 
L 1159 3500 
L 1159 2956 
Q 1356 3278 1631 3431 
Q 1906 3584 2284 3584 
Q 2666 3584 2933 3390 
Q 3200 3197 3328 2828 
z
" transform="scale(0.015625)"/>
       <path id="DejaVuSans-65" d="M 3597 1894 
L 3597 1613 
L 953 1613 
Q 991 1019 1311 708 
Q 1631 397 2203 397 
Q 2534 397 2845 478 
Q 3156 559 3463 722 
L 3463 178 
Q 3153 47 2828 -22 
Q 2503 -91 2169 -91 
Q 1331 -91 842 396 
Q 353 884 353 1716 
Q 353 2575 817 3079 
Q 1281 3584 2069 3584 
Q 2775 3584 3186 3129 
Q 3597 2675 3597 1894 
z
M 3022 2063 
Q 3016 2534 2758 2815 
Q 2500 3097 2075 3097 
Q 1594 3097 1305 2825 
Q 1016 2553 972 2059 
L 3022 2063 
z
" transform="scale(0.015625)"/>
       <path id="DejaVuSans-2c" d="M 750 794 
L 1409 794 
L 1409 256 
L 897 -744 
L 494 -744 
L 750 256 
L 750 794 
z
" transform="scale(0.015625)"/>
       <path id="DejaVuSans-20" transform="scale(0.015625)"/>
       <path id="DejaVuSans-28" d="M 1984 4856 
Q 1566 4138 1362 3434 
Q 1159 2731 1159 2009 
Q 1159 1288 1364 580 
Q 1569 -128 1984 -844 
L 1484 -844 
Q 1016 -109 783 600 
Q 550 1309 550 2009 
Q 550 2706 781 3412 
Q 1013 4119 1484 4856 
L 1984 4856 
z
" transform="scale(0.015625)"/>
       <path id="DejaVuSans-75" d="M 544 1381 
L 544 3500 
L 1119 3500 
L 1119 1403 
Q 1119 906 1312 657 
Q 1506 409 1894 409 
Q 2359 409 2629 706 
Q 2900 1003 2900 1516 
L 2900 3500 
L 3475 3500 
L 3475 0 
L 2900 0 
L 2900 538 
Q 2691 219 2414 64 
Q 2138 -91 1772 -91 
Q 1169 -91 856 284 
Q 544 659 544 1381 
z
M 1991 3584 
L 1991 3584 
z
" transform="scale(0.015625)"/>
       <path id="DejaVuSans-73" d="M 2834 3397 
L 2834 2853 
Q 2591 2978 2328 3040 
Q 2066 3103 1784 3103 
Q 1356 3103 1142 2972 
Q 928 2841 928 2578 
Q 928 2378 1081 2264 
Q 1234 2150 1697 2047 
L 1894 2003 
Q 2506 1872 2764 1633 
Q 3022 1394 3022 966 
Q 3022 478 2636 193 
Q 2250 -91 1575 -91 
Q 1294 -91 989 -36 
Q 684 19 347 128 
L 347 722 
Q 666 556 975 473 
Q 1284 391 1588 391 
Q 1994 391 2212 530 
Q 2431 669 2431 922 
Q 2431 1156 2273 1281 
Q 2116 1406 1581 1522 
L 1381 1569 
Q 847 1681 609 1914 
Q 372 2147 372 2553 
Q 372 3047 722 3315 
Q 1072 3584 1716 3584 
Q 2034 3584 2315 3537 
Q 2597 3491 2834 3397 
z
" transform="scale(0.015625)"/>
       <path id="DejaVuSans-29" d="M 513 4856 
L 1013 4856 
Q 1481 4119 1714 3412 
Q 1947 2706 1947 2009 
Q 1947 1309 1714 600 
Q 1481 -109 1013 -844 
L 513 -844 
Q 928 -128 1133 580 
Q 1338 1288 1338 2009 
Q 1338 2731 1133 3434 
Q 928 4138 513 4856 
z
" transform="scale(0.015625)"/>
      </defs>
      <use xlink:href="#DejaVuSans-74"/>
      <use xlink:href="#DejaVuSans-69" transform="translate(39.208984 0)"/>
      <use xlink:href="#DejaVuSans-6d" transform="translate(66.992188 0)"/>
      <use xlink:href="#DejaVuSans-65" transform="translate(164.404297 0)"/>
      <use xlink:href="#DejaVuSans-2c" transform="translate(225.927734 0)"/>
      <use xlink:href="#DejaVuSans-20" transform="translate(257.714844 0)"/>
      <use xlink:href="#DejaVuSans-74" transform="translate(289.501953 0)"/>
      <use xlink:href="#DejaVuSans-20" transform="translate(328.710938 0)"/>
      <use xlink:href="#DejaVuSans-28" transform="translate(360.498047 0)"/>
      <use xlink:href="#DejaVuSans-75" transform="translate(399.511719 0)"/>
      <use xlink:href="#DejaVuSans-73" transform="translate(462.890625 0)"/>
      <use xlink:href="#DejaVuSans-29" transform="translate(514.990234 0)"/>
     </g>
    </g>
    <g id="text_11">
     <!-- 1e6 -->
     <g transform="translate(427.065 327.074688) scale(0.1 -0.1)">
      <defs>
       <path id="DejaVuSans-36" d="M 2113 2584 
Q 1688 2584 1439 2293 
Q 1191 2003 1191 1497 
Q 1191 994 1439 701 
Q 1688 409 2113 409 
Q 2538 409 2786 701 
Q 3034 994 3034 1497 
Q 3034 2003 2786 2293 
Q 2538 2584 2113 2584 
z
M 3366 4563 
L 3366 3988 
Q 3128 4100 2886 4159 
Q 2644 4219 2406 4219 
Q 1781 4219 1451 3797 
Q 1122 3375 1075 2522 
Q 1259 2794 1537 2939 
Q 1816 3084 2150 3084 
Q 2853 3084 3261 2657 
Q 3669 2231 3669 1497 
Q 3669 778 3244 343 
Q 2819 -91 2113 -91 
Q 1303 -91 875 529 
Q 447 1150 447 2328 
Q 447 3434 972 4092 
Q 1497 4750 2381 4750 
Q 2619 4750 2861 4703 
Q 3103 4656 3366 4563 
z
" transform="scale(0.015625)"/>
      </defs>
      <use xlink:href="#DejaVuSans-31"/>
      <use xlink:href="#DejaVuSans-65" transform="translate(63.623047 0)"/>
      <use xlink:href="#DejaVuSans-36" transform="translate(125.146484 0)"/>
     </g>
    </g>
   </g>
   <g id="matplotlib.axis_2">
    <g id="ytick_1">
     <g id="line2d_10">
      <defs>
       <path id="mc77ee09cf5" d="M 0 0 
L -3.5 0 
" style="stroke: #000000; stroke-width: 0.8"/>
      </defs>
      <g>
       <use xlink:href="#mc77ee09cf5" x="40.603125" y="287.585643" style="stroke: #000000; stroke-width: 0.8"/>
      </g>
     </g>
     <g id="text_12">
      <!-- 0 -->
      <g transform="translate(27.240625 291.384862) scale(0.1 -0.1)">
       <use xlink:href="#DejaVuSans-30"/>
      </g>
     </g>
    </g>
    <g id="ytick_2">
     <g id="line2d_11">
      <g>
       <use xlink:href="#mc77ee09cf5" x="40.603125" y="230.370555" style="stroke: #000000; stroke-width: 0.8"/>
      </g>
     </g>
     <g id="text_13">
      <!-- 10 -->
      <g transform="translate(20.878125 234.169774) scale(0.1 -0.1)">
       <use xlink:href="#DejaVuSans-31"/>
       <use xlink:href="#DejaVuSans-30" transform="translate(63.623047 0)"/>
      </g>
     </g>
    </g>
    <g id="ytick_3">
     <g id="line2d_12">
      <g>
       <use xlink:href="#mc77ee09cf5" x="40.603125" y="173.155467" style="stroke: #000000; stroke-width: 0.8"/>
      </g>
     </g>
     <g id="text_14">
      <!-- 20 -->
      <g transform="translate(20.878125 176.954686) scale(0.1 -0.1)">
       <use xlink:href="#DejaVuSans-32"/>
       <use xlink:href="#DejaVuSans-30" transform="translate(63.623047 0)"/>
      </g>
     </g>
    </g>
    <g id="ytick_4">
     <g id="line2d_13">
      <g>
       <use xlink:href="#mc77ee09cf5" x="40.603125" y="115.940379" style="stroke: #000000; stroke-width: 0.8"/>
      </g>
     </g>
     <g id="text_15">
      <!-- 30 -->
      <g transform="translate(20.878125 119.739598) scale(0.1 -0.1)">
       <defs>
        <path id="DejaVuSans-33" d="M 2597 2516 
Q 3050 2419 3304 2112 
Q 3559 1806 3559 1356 
Q 3559 666 3084 287 
Q 2609 -91 1734 -91 
Q 1441 -91 1130 -33 
Q 819 25 488 141 
L 488 750 
Q 750 597 1062 519 
Q 1375 441 1716 441 
Q 2309 441 2620 675 
Q 2931 909 2931 1356 
Q 2931 1769 2642 2001 
Q 2353 2234 1838 2234 
L 1294 2234 
L 1294 2753 
L 1863 2753 
Q 2328 2753 2575 2939 
Q 2822 3125 2822 3475 
Q 2822 3834 2567 4026 
Q 2313 4219 1838 4219 
Q 1578 4219 1281 4162 
Q 984 4106 628 3988 
L 628 4550 
Q 988 4650 1302 4700 
Q 1616 4750 1894 4750 
Q 2613 4750 3031 4423 
Q 3450 4097 3450 3541 
Q 3450 3153 3228 2886 
Q 3006 2619 2597 2516 
z
" transform="scale(0.015625)"/>
       </defs>
       <use xlink:href="#DejaVuSans-33"/>
       <use xlink:href="#DejaVuSans-30" transform="translate(63.623047 0)"/>
      </g>
     </g>
    </g>
    <g id="ytick_5">
     <g id="line2d_14">
      <g>
       <use xlink:href="#mc77ee09cf5" x="40.603125" y="58.725291" style="stroke: #000000; stroke-width: 0.8"/>
      </g>
     </g>
     <g id="text_16">
      <!-- 40 -->
      <g transform="translate(20.878125 62.52451) scale(0.1 -0.1)">
       <defs>
        <path id="DejaVuSans-34" d="M 2419 4116 
L 825 1625 
L 2419 1625 
L 2419 4116 
z
M 2253 4666 
L 3047 4666 
L 3047 1625 
L 3713 1625 
L 3713 1100 
L 3047 1100 
L 3047 0 
L 2419 0 
L 2419 1100 
L 313 1100 
L 313 1709 
L 2253 4666 
z
" transform="scale(0.015625)"/>
       </defs>
       <use xlink:href="#DejaVuSans-34"/>
       <use xlink:href="#DejaVuSans-30" transform="translate(63.623047 0)"/>
      </g>
     </g>
    </g>
    <g id="text_17">
     <!-- left wheel theta, ltheta (rad) -->
     <g transform="translate(14.798438 231.945625) rotate(-90) scale(0.1 -0.1)">
      <defs>
       <path id="DejaVuSans-6c" d="M 603 4863 
L 1178 4863 
L 1178 0 
L 603 0 
L 603 4863 
z
" transform="scale(0.015625)"/>
       <path id="DejaVuSans-66" d="M 2375 4863 
L 2375 4384 
L 1825 4384 
Q 1516 4384 1395 4259 
Q 1275 4134 1275 3809 
L 1275 3500 
L 2222 3500 
L 2222 3053 
L 1275 3053 
L 1275 0 
L 697 0 
L 697 3053 
L 147 3053 
L 147 3500 
L 697 3500 
L 697 3744 
Q 697 4328 969 4595 
Q 1241 4863 1831 4863 
L 2375 4863 
z
" transform="scale(0.015625)"/>
       <path id="DejaVuSans-77" d="M 269 3500 
L 844 3500 
L 1563 769 
L 2278 3500 
L 2956 3500 
L 3675 769 
L 4391 3500 
L 4966 3500 
L 4050 0 
L 3372 0 
L 2619 2869 
L 1863 0 
L 1184 0 
L 269 3500 
z
" transform="scale(0.015625)"/>
       <path id="DejaVuSans-68" d="M 3513 2113 
L 3513 0 
L 2938 0 
L 2938 2094 
Q 2938 2591 2744 2837 
Q 2550 3084 2163 3084 
Q 1697 3084 1428 2787 
Q 1159 2491 1159 1978 
L 1159 0 
L 581 0 
L 581 4863 
L 1159 4863 
L 1159 2956 
Q 1366 3272 1645 3428 
Q 1925 3584 2291 3584 
Q 2894 3584 3203 3211 
Q 3513 2838 3513 2113 
z
" transform="scale(0.015625)"/>
       <path id="DejaVuSans-61" d="M 2194 1759 
Q 1497 1759 1228 1600 
Q 959 1441 959 1056 
Q 959 750 1161 570 
Q 1363 391 1709 391 
Q 2188 391 2477 730 
Q 2766 1069 2766 1631 
L 2766 1759 
L 2194 1759 
z
M 3341 1997 
L 3341 0 
L 2766 0 
L 2766 531 
Q 2569 213 2275 61 
Q 1981 -91 1556 -91 
Q 1019 -91 701 211 
Q 384 513 384 1019 
Q 384 1609 779 1909 
Q 1175 2209 1959 2209 
L 2766 2209 
L 2766 2266 
Q 2766 2663 2505 2880 
Q 2244 3097 1772 3097 
Q 1472 3097 1187 3025 
Q 903 2953 641 2809 
L 641 3341 
Q 956 3463 1253 3523 
Q 1550 3584 1831 3584 
Q 2591 3584 2966 3190 
Q 3341 2797 3341 1997 
z
" transform="scale(0.015625)"/>
       <path id="DejaVuSans-72" d="M 2631 2963 
Q 2534 3019 2420 3045 
Q 2306 3072 2169 3072 
Q 1681 3072 1420 2755 
Q 1159 2438 1159 1844 
L 1159 0 
L 581 0 
L 581 3500 
L 1159 3500 
L 1159 2956 
Q 1341 3275 1631 3429 
Q 1922 3584 2338 3584 
Q 2397 3584 2469 3576 
Q 2541 3569 2628 3553 
L 2631 2963 
z
" transform="scale(0.015625)"/>
       <path id="DejaVuSans-64" d="M 2906 2969 
L 2906 4863 
L 3481 4863 
L 3481 0 
L 2906 0 
L 2906 525 
Q 2725 213 2448 61 
Q 2172 -91 1784 -91 
Q 1150 -91 751 415 
Q 353 922 353 1747 
Q 353 2572 751 3078 
Q 1150 3584 1784 3584 
Q 2172 3584 2448 3432 
Q 2725 3281 2906 2969 
z
M 947 1747 
Q 947 1113 1208 752 
Q 1469 391 1925 391 
Q 2381 391 2643 752 
Q 2906 1113 2906 1747 
Q 2906 2381 2643 2742 
Q 2381 3103 1925 3103 
Q 1469 3103 1208 2742 
Q 947 2381 947 1747 
z
" transform="scale(0.015625)"/>
      </defs>
      <use xlink:href="#DejaVuSans-6c"/>
      <use xlink:href="#DejaVuSans-65" transform="translate(27.783203 0)"/>
      <use xlink:href="#DejaVuSans-66" transform="translate(89.306641 0)"/>
      <use xlink:href="#DejaVuSans-74" transform="translate(122.761719 0)"/>
      <use xlink:href="#DejaVuSans-20" transform="translate(161.970703 0)"/>
      <use xlink:href="#DejaVuSans-77" transform="translate(193.757812 0)"/>
      <use xlink:href="#DejaVuSans-68" transform="translate(275.544922 0)"/>
      <use xlink:href="#DejaVuSans-65" transform="translate(338.923828 0)"/>
      <use xlink:href="#DejaVuSans-65" transform="translate(400.447266 0)"/>
      <use xlink:href="#DejaVuSans-6c" transform="translate(461.970703 0)"/>
      <use xlink:href="#DejaVuSans-20" transform="translate(489.753906 0)"/>
      <use xlink:href="#DejaVuSans-74" transform="translate(521.541016 0)"/>
      <use xlink:href="#DejaVuSans-68" transform="translate(560.75 0)"/>
      <use xlink:href="#DejaVuSans-65" transform="translate(624.128906 0)"/>
      <use xlink:href="#DejaVuSans-74" transform="translate(685.652344 0)"/>
      <use xlink:href="#DejaVuSans-61" transform="translate(724.861328 0)"/>
      <use xlink:href="#DejaVuSans-2c" transform="translate(786.140625 0)"/>
      <use xlink:href="#DejaVuSans-20" transform="translate(817.927734 0)"/>
      <use xlink:href="#DejaVuSans-6c" transform="translate(849.714844 0)"/>
      <use xlink:href="#DejaVuSans-74" transform="translate(877.498047 0)"/>
      <use xlink:href="#DejaVuSans-68" transform="translate(916.707031 0)"/>
      <use xlink:href="#DejaVuSans-65" transform="translate(980.085938 0)"/>
      <use xlink:href="#DejaVuSans-74" transform="translate(1041.609375 0)"/>
      <use xlink:href="#DejaVuSans-61" transform="translate(1080.818359 0)"/>
      <use xlink:href="#DejaVuSans-20" transform="translate(1142.097656 0)"/>
      <use xlink:href="#DejaVuSans-28" transform="translate(1173.884766 0)"/>
      <use xlink:href="#DejaVuSans-72" transform="translate(1212.898438 0)"/>
      <use xlink:href="#DejaVuSans-61" transform="translate(1254.011719 0)"/>
      <use xlink:href="#DejaVuSans-64" transform="translate(1315.291016 0)"/>
      <use xlink:href="#DejaVuSans-29" transform="translate(1378.767578 0)"/>
     </g>
    </g>
   </g>
   <g id="line2d_15">
    <path d="M 59.028592 282.182334 
L 63.060974 281.606981 
L 66.25535 280.581355 
L 70.362775 278.830281 
L 73.454636 277.304343 
L 77.641712 274.977921 
L 80.766762 273.101769 
L 84.993295 270.500176 
L 88.118345 268.523967 
L 92.258404 265.822311 
L 95.462184 263.64598 
L 99.602428 260.769217 
L 102.797726 258.517838 
L 106.938154 255.541017 
L 111.061066 252.489147 
L 114.263924 250.087675 
L 118.387205 246.960762 
L 121.597991 244.509256 
L 125.722378 241.332314 
L 128.847428 238.930842 
L 133.05036 235.678845 
L 136.175041 233.227344 
L 140.40139 229.925307 
L 143.529206 227.473812 
L 147.672584 224.221821 
L 150.879129 221.69526 
L 155.022323 218.493332 
L 158.236428 216.041837 
L 162.379437 212.964924 
L 165.506884 210.663505 
L 169.712214 207.636655 
L 172.840214 205.385298 
L 177.056606 202.408454 
L 180.187556 200.232107 
L 184.333884 197.380393 
L 188.558205 194.453612 
L 191.688233 192.277264 
L 195.91956 189.375487 
L 199.032994 187.249203 
L 203.1784 184.397431 
L 206.387158 182.19608 
L 210.533118 179.369369 
L 213.749804 177.193021 
L 217.895395 174.36631 
L 221.025791 172.214966 
L 225.250665 169.363194 
L 228.380325 167.261913 
L 232.61202 164.410198 
L 235.74168 162.283857 
L 239.886902 159.457145 
L 243.09566 157.255795 
L 247.241066 154.454086 
L 250.486147 152.252736 
L 254.645197 149.425967 
L 257.805095 147.27468 
L 262.058179 144.397905 
L 265.217892 142.271621 
L 269.479273 139.369843 
L 272.638433 137.243502 
L 276.81334 134.441793 
L 280.051967 132.240443 
L 284.211571 129.438734 
L 287.457574 127.237384 
L 291.632481 124.38567 
L 294.791641 122.234325 
L 299.045646 119.35755 
L 302.205359 117.231266 
L 306.466372 114.329488 
L 309.625716 112.178144 
L 313.801176 109.351433 
L 317.039435 107.150082 
L 321.214527 104.323371 
L 324.459976 102.147023 
L 328.634699 99.345315 
L 331.794412 97.19397 
L 336.048418 94.317196 
L 339.2085 92.190911 
L 342.454502 89.964558 
L 346.628672 87.137846 
L 350.802657 84.311078 
L 354.025612 82.109727 
L 358.200704 79.283016 
L 361.445784 77.081665 
L 364.606604 74.955381 
L 368.781511 72.128612 
L 372.020138 69.952322 
L 376.195045 67.125553 
L 379.441048 64.949206 
L 383.599914 62.147497 
L 386.759996 60.021213 
L 391.000911 57.119436 
L 394.160255 54.993151 
L 398.407808 52.116377 
L 401.55443 49.965032 
L 405.7286 47.113318 
L 408.966674 44.911967 
L 413.14195 42.085256 
L 416.371911 39.908908 
L 420.547003 37.082197 
L 423.707085 34.930852 
" clip-path="url(#p71e84219f9)" style="fill: none; stroke: #1f77b4; stroke-width: 1.5; stroke-linecap: square"/>
   </g>
   <g id="line2d_16">
    <path d="M 59.027855 282.107287 
L 62.047808 281.782088 
L 66.155785 280.55634 
L 69.326192 279.230524 
L 73.40135 277.2293 
L 77.594142 274.952906 
L 80.718454 273.151804 
L 84.857407 270.625254 
L 88.060081 268.624031 
L 92.199587 265.947389 
L 95.394332 263.821087 
L 99.533838 260.994353 
L 102.642294 258.818023 
L 106.86348 255.841196 
L 109.993139 253.589817 
L 114.224098 250.587981 
L 117.353573 248.386631 
L 121.498795 245.559902 
L 124.690958 243.408586 
L 128.83618 240.606866 
L 132.05176 238.480559 
L 136.196982 235.803923 
L 139.326642 233.852728 
L 143.550409 231.27615 
L 146.664581 229.375012 
L 150.864195 226.823448 
L 155.009048 224.296887 
L 158.13926 222.395687 
L 162.346618 219.844123 
L 165.461158 217.94298 
L 169.692485 215.391416 
L 172.822697 213.515276 
L 176.968657 210.988715 
L 180.161927 209.062569 
L 184.307333 206.561011 
L 187.523651 204.609805 
L 191.668873 202.108304 
L 194.79927 200.207104 
L 199.023406 197.65554 
L 202.138131 195.7794 
L 206.369826 193.252839 
L 209.484367 191.376699 
L 213.629773 188.875141 
L 216.8389 186.923992 
L 220.983937 184.447437 
L 224.184951 182.521291 
L 228.329989 180.019733 
L 232.475026 177.518175 
L 235.683784 175.567026 
L 239.82956 173.065468 
L 243.045693 171.114262 
L 247.191283 168.587701 
L 250.351365 166.686558 
L 254.605187 164.134994 
L 257.749412 162.258854 
L 260.982324 160.307648 
L 265.157046 157.781144 
L 269.331032 155.254583 
L 272.556015 153.303376 
L 276.714881 150.826879 
L 279.960515 148.900675 
L 283.120966 146.999532 
L 287.295873 144.497974 
L 290.534131 142.571771 
L 294.708854 140.045267 
L 297.955041 138.094061 
L 302.100447 135.592503 
L 305.260161 133.69136 
L 309.50126 131.114793 
L 312.661157 129.213593 
L 316.922723 126.637026 
L 320.08262 124.735883 
L 324.257712 122.209322 
L 327.496339 120.258116 
L 331.671431 117.731555 
L 334.917249 115.780406 
L 339.09234 113.278848 
L 342.23675 111.377705 
L 346.49094 108.801081 
L 349.637747 106.899938 
L 353.899128 104.348374 
L 357.067138 102.422228 
L 361.242598 99.895667 
L 364.481226 97.94446 
L 368.656501 95.417899 
L 371.889413 93.466693 
L 376.064689 90.990195 
L 379.224955 89.089052 
L 383.479146 86.512485 
L 386.638859 84.611285 
L 390.900793 82.034718 
L 394.031374 80.158578 
L 398.206465 77.632017 
L 401.432002 75.705871 
L 405.607462 73.204313 
L 408.853465 71.228104 
L 413.029294 68.726603 
L 416.189744 66.825403 
L 420.443935 64.248836 
L 423.574884 62.372696 
" clip-path="url(#p71e84219f9)" style="fill: none; stroke: #ff7f0e; stroke-width: 1.5; stroke-linecap: square"/>
   </g>
   <g id="line2d_17">
    <path d="M 59.028039 282.907778 
L 63.060605 282.332426 
L 66.168508 281.331811 
L 70.370703 279.505694 
L 73.462933 277.904713 
L 77.659412 275.528261 
L 80.788703 273.677124 
L 84.93374 271.225624 
L 88.142314 269.349472 
L 92.287167 266.948 
L 95.502563 265.071855 
L 99.648154 262.695398 
L 103.792085 260.318946 
L 107.00029 258.467809 
L 111.144774 256.091357 
L 114.36017 254.290255 
L 118.504654 251.988841 
L 121.618826 250.262788 
L 125.842962 247.936359 
L 128.972806 246.2103 
L 133.203764 243.908892 
L 136.333423 242.232868 
L 140.478277 240.031517 
L 143.68685 238.305458 
L 147.832625 236.079093 
L 151.048943 234.378049 
L 155.194534 232.176704 
L 158.324746 230.525694 
L 162.549067 228.324372 
L 165.662869 226.673316 
L 169.879077 224.446963 
L 173.008921 222.795964 
L 177.154143 220.619616 
L 180.362901 218.918612 
L 184.508123 216.717261 
L 187.724625 214.991197 
L 191.869847 212.789846 
L 196.014884 210.613499 
L 199.223089 208.912437 
L 203.368127 206.711144 
L 206.584629 205.010082 
L 210.730035 202.858737 
L 213.860801 201.232742 
L 218.08549 199.006388 
L 221.200583 197.35539 
L 225.432279 195.104033 
L 228.562492 193.452977 
L 232.707714 191.251627 
L 235.917025 189.575625 
L 240.045837 187.424281 
L 243.262708 185.723276 
L 247.437799 183.496865 
L 250.597696 181.820864 
L 254.852071 179.569507 
L 258.011969 177.918452 
L 262.273534 175.667095 
L 265.433431 174.016096 
L 269.577731 171.814746 
L 272.815806 170.113684 
L 276.990529 167.912334 
L 280.235609 166.211272 
L 284.396319 164.009921 
L 287.555663 162.33392 
L 291.808932 160.107566 
L 294.954448 158.456511 
L 299.214907 156.205154 
L 302.358948 154.529152 
L 306.53367 152.327802 
L 309.77156 150.62674 
L 313.946099 148.42539 
L 317.178457 146.724328 
L 321.352627 144.497974 
L 324.511787 142.821973 
L 328.765424 140.570559 
L 331.925137 138.919561 
L 335.170771 137.193496 
L 339.316362 135.017148 
L 343.490347 132.840858 
L 346.728606 131.139796 
L 350.902591 128.938446 
L 354.147856 127.212381 
L 357.308122 125.561382 
L 361.466988 123.385035 
L 364.705062 121.68403 
L 368.879601 119.45762 
L 372.109194 117.706552 
L 376.283179 115.505201 
L 379.442523 113.854203 
L 383.695607 111.627849 
L 386.855505 109.95179 
L 391.116517 107.700434 
L 394.275492 106.024432 
L 398.436755 103.823025 
L 401.675383 102.12202 
L 405.849921 99.92067 
L 409.095924 98.219608 
L 413.270831 96.018257 
L 416.43036 94.367259 
L 420.683628 92.115902 
L 423.843157 90.439843 
" clip-path="url(#p71e84219f9)" style="fill: none; stroke: #2ca02c; stroke-width: 1.5; stroke-linecap: square"/>
   </g>
   <g id="line2d_18">
    <path d="M 59.02767 281.682024 
L 62.031583 281.356825 
L 66.156339 280.106063 
L 69.328958 278.805267 
L 73.440807 276.754009 
L 77.638946 274.502629 
L 80.768421 272.926662 
L 84.913274 270.925439 
L 88.121479 269.449536 
L 92.265964 267.54837 
L 95.481728 266.022432 
L 99.627688 264.021208 
L 102.741121 262.520291 
L 106.947926 260.444018 
L 110.078138 258.9431 
L 114.308912 256.916862 
L 117.438019 255.440959 
L 121.583056 253.514773 
L 124.791814 252.013856 
L 128.937036 250.11269 
L 132.152616 248.611772 
L 136.297838 246.710606 
L 139.427128 245.309752 
L 143.650159 243.408586 
L 146.779633 241.957697 
L 151.001373 240.056532 
L 155.129632 238.2054 
L 158.259476 236.80454 
L 162.482506 234.903375 
L 165.612534 233.502515 
L 169.843123 231.57634 
L 172.972598 230.150449 
L 177.118189 228.274309 
L 180.326578 226.823448 
L 184.472169 224.947251 
L 187.688118 223.471388 
L 191.817299 221.620251 
L 194.946958 220.194337 
L 199.171279 218.293194 
L 202.301491 216.867337 
L 206.533187 214.966136 
L 209.663399 213.565282 
L 213.809174 211.689142 
L 217.017932 210.238282 
L 221.115031 208.387145 
L 224.331164 206.936228 
L 228.477124 205.060088 
L 231.607152 203.634231 
L 235.831288 201.708027 
L 238.961685 200.307173 
L 243.193381 198.40603 
L 246.352909 196.980116 
L 250.512882 195.078973 
L 253.751325 193.603052 
L 257.894334 191.726913 
L 261.126693 190.276052 
L 265.301969 188.374852 
L 268.461866 186.948995 
L 272.715319 185.047852 
L 275.874848 183.621938 
L 280.120556 181.695792 
L 283.279901 180.294937 
L 287.454439 178.393737 
L 290.693067 176.917874 
L 294.867789 175.041734 
L 298.119508 173.565814 
L 302.294784 171.689674 
L 305.454312 170.28882 
L 309.691171 168.362616 
L 312.849962 166.936759 
L 317.080736 165.035559 
L 320.239712 163.584699 
L 324.41425 161.683556 
L 327.651771 160.232639 
L 331.826125 158.331496 
L 335.07139 156.855575 
L 339.24556 154.979435 
L 342.40472 153.553578 
L 346.628119 151.652378 
L 349.787647 150.226521 
L 354.035016 148.275315 
L 357.194175 146.849457 
L 361.353595 144.973317 
L 364.591853 143.5224 
L 368.766207 141.621257 
L 372.011473 140.145337 
L 376.186011 138.269197 
L 379.34554 136.843339 
L 383.585164 134.942197 
L 386.744508 133.491279 
L 391.005152 131.565076 
L 394.16468 130.139219 
L 398.339587 128.263079 
L 401.577293 126.812161 
L 405.752016 124.936021 
L 408.982162 123.485161 
L 413.157253 121.558958 
L 416.316598 120.133101 
L 420.556406 118.181895 
L 423.71575 116.756038 
" clip-path="url(#p71e84219f9)" style="fill: none; stroke: #d62728; stroke-width: 1.5; stroke-linecap: square"/>
   </g>
   <g id="line2d_19">
    <path d="M 59.031358 284.333651 
L 63.06374 283.783314 
L 66.277292 282.782701 
L 70.423067 281.056646 
L 73.520091 279.73083 
L 77.711776 278.054805 
L 80.842173 276.904101 
L 85.05709 275.328134 
L 88.186196 274.077367 
L 92.330865 272.376328 
L 95.523398 271.12556 
L 99.66862 269.47455 
L 102.86779 268.198768 
L 106.99734 266.547758 
L 110.12663 265.29699 
L 114.333988 263.670995 
L 117.447975 262.470256 
L 121.679302 260.844261 
L 124.792736 259.668542 
L 128.938511 258.067561 
L 132.146532 256.841808 
L 136.292122 255.265841 
L 140.523265 253.66486 
L 143.653477 252.489141 
L 147.782105 250.913175 
L 150.974269 249.712442 
L 155.119307 248.136475 
L 158.335256 246.935736 
L 162.480109 245.409804 
L 165.609952 244.234085 
L 169.83372 242.633104 
L 172.963379 241.457386 
L 177.194706 239.83139 
L 180.324181 238.68068 
L 184.469219 237.154748 
L 187.677424 235.928995 
L 191.82283 234.378049 
L 195.022553 233.152301 
L 199.167775 231.601349 
L 202.298356 230.42563 
L 206.52194 228.824661 
L 209.651599 227.648948 
L 213.866516 226.047955 
L 216.980688 224.847239 
L 221.12591 223.296253 
L 224.33393 222.070534 
L 228.479336 220.519547 
L 232.709926 218.918612 
L 235.839954 217.742899 
L 239.984254 216.191912 
L 243.193196 214.966194 
L 247.36755 213.415207 
L 250.614291 212.189488 
L 254.789198 210.613499 
L 257.948911 209.437786 
L 262.202732 207.81179 
L 265.349354 206.636077 
L 268.594988 205.410359 
L 272.769895 203.834369 
L 276.944802 202.258379 
L 280.183061 201.057663 
L 283.342774 199.881951 
L 287.603787 198.255955 
L 290.763315 197.080242 
L 294.922181 195.504253 
L 298.147718 194.278534 
L 302.322256 192.727547 
L 305.56789 191.501828 
L 309.742428 189.925839 
L 312.902326 188.725123 
L 317.139922 187.099127 
L 320.299451 185.923415 
L 324.560832 184.297419 
L 327.704135 183.121649 
L 331.878305 181.545716 
L 335.116563 180.31994 
L 339.278379 178.769011 
L 342.52346 177.543235 
L 346.698367 175.967303 
L 349.842224 174.79159 
L 354.095492 173.190597 
L 357.25539 172.014884 
L 361.500176 170.413892 
L 364.658783 169.213119 
L 368.833322 167.637186 
L 372.071212 166.41141 
L 376.245381 164.860481 
L 379.491015 163.659765 
L 383.633471 162.108778 
L 386.792631 160.908063 
L 391.0459 159.30707 
L 394.205244 158.106354 
L 398.466072 156.505362 
L 401.624494 155.304589 
L 405.78336 153.703653 
L 409.021435 152.50288 
L 413.196526 150.901945 
L 416.441607 149.676169 
L 420.616698 148.100179 
L 423.775674 146.899463 
" clip-path="url(#p71e84219f9)" style="fill: none; stroke: #9467bd; stroke-width: 1.5; stroke-linecap: square"/>
   </g>
   <g id="line2d_20">
    <path d="M 59.030252 285.234202 
L 62.054999 284.959034 
L 66.20059 283.85836 
L 69.409163 282.732671 
L 73.538713 281.381845 
L 76.72258 280.456277 
L 80.834429 279.255544 
L 83.963904 278.279946 
L 88.187303 276.95413 
L 91.317884 275.928504 
L 95.549211 274.577678 
L 98.662645 273.602075 
L 102.80676 272.301279 
L 106.01515 271.275652 
L 110.143778 269.99987 
L 114.358142 268.699074 
L 117.440231 267.773506 
L 121.585637 266.472709 
L 124.793842 265.497112 
L 128.938511 264.246344 
L 132.154644 263.270747 
L 136.28401 262.044994 
L 139.414222 261.094411 
L 143.621949 259.843643 
L 146.752161 258.89306 
L 150.968185 257.642298 
L 154.065946 256.691715 
L 158.195496 255.440948 
L 161.388028 254.46535 
L 165.518316 253.214583 
L 168.734449 252.238986 
L 172.880224 250.988218 
L 177.009405 249.762465 
L 180.185159 248.786867 
L 184.330196 247.5361 
L 187.546883 246.560502 
L 191.691552 245.309735 
L 194.821395 244.359152 
L 199.0459 243.08337 
L 202.175744 242.157801 
L 206.40744 240.882019 
L 209.536915 239.956451 
L 213.68269 238.680675 
L 216.891448 237.705072 
L 221.021551 236.45431 
L 224.22238 235.478707 
L 228.367234 234.252959 
L 231.497815 233.302382 
L 235.72232 232.051614 
L 238.851979 231.126046 
L 243.083859 229.850241 
L 246.197846 228.89967 
L 250.372938 227.648891 
L 253.612118 226.673316 
L 257.774672 225.422537 
L 261.021228 224.446963 
L 265.196872 223.196184 
L 268.357139 222.245612 
L 272.611698 220.96983 
L 275.771779 219.994256 
L 280.033898 218.718474 
L 283.194164 217.742842 
L 287.369624 216.492063 
L 290.608621 215.516488 
L 294.78445 214.240706 
L 298.031559 213.240072 
L 302.207388 211.98935 
L 305.367469 211.038778 
L 309.622397 209.762996 
L 312.782295 208.812368 
L 317.044413 207.511583 
L 320.204864 206.561011 
L 324.380324 205.310232 
L 327.618767 204.359661 
L 331.794596 203.108882 
L 335.041152 202.108304 
L 339.216797 200.832522 
L 342.37651 199.881951 
L 346.615765 198.631172 
L 349.775663 197.6806 
L 354.037781 196.404818 
L 357.184403 195.454247 
L 361.358942 194.203468 
L 364.596832 193.227893 
L 368.772476 191.952111 
L 372.01811 190.976479 
L 375.17893 190.025908 
L 379.340561 188.775129 
L 382.579004 187.799554 
L 386.75428 186.523772 
L 389.971151 185.548198 
L 394.145874 184.297419 
L 397.305587 183.346847 
L 401.559593 182.071065 
L 404.71949 181.095434 
L 408.981424 179.794649 
L 412.141322 178.86908 
L 416.31586 177.593298 
L 419.554488 176.617724 
L 423.730132 175.341942 
L 426.97595 174.366367 
" clip-path="url(#p71e84219f9)" style="fill: none; stroke: #8c564b; stroke-width: 1.5; stroke-linecap: square"/>
   </g>
   <g id="line2d_21">
    <path d="M 59.030989 286.2098 
L 62.054077 286.009678 
L 66.24945 285.159157 
L 69.363068 284.383682 
L 73.507553 283.433099 
L 76.716126 282.757686 
L 80.861348 281.832117 
L 84.093338 281.056646 
L 88.238007 280.006 
L 91.367851 279.230524 
L 95.54368 278.204897 
L 98.673708 277.454436 
L 102.905219 276.478838 
L 106.034141 275.753397 
L 110.162769 274.802814 
L 113.354011 274.052352 
L 117.498864 273.101769 
L 120.714075 272.351313 
L 124.858744 271.425745 
L 129.00286 270.475162 
L 132.194839 269.74972 
L 136.339323 268.824152 
L 139.554904 268.09871 
L 143.699941 267.173142 
L 146.829785 266.472715 
L 151.053737 265.522132 
L 154.167355 264.821699 
L 158.39942 263.871116 
L 161.52871 263.145675 
L 165.673563 262.220106 
L 168.881952 261.494665 
L 173.026621 260.544082 
L 176.24257 259.818634 
L 180.387976 258.868051 
L 183.517451 258.167624 
L 187.74085 257.242056 
L 190.854284 256.566643 
L 195.085242 255.591046 
L 198.214902 254.890619 
L 202.359939 253.915016 
L 205.568513 253.189574 
L 209.696956 252.264006 
L 212.912721 251.51355 
L 217.057758 250.587981 
L 221.20169 249.662413 
L 224.410079 248.936965 
L 228.538891 247.986383 
L 231.737877 247.260941 
L 235.88273 246.335373 
L 239.012574 245.634945 
L 243.235604 244.684363 
L 246.395132 243.98393 
L 250.655776 243.008332 
L 253.81512 242.257876 
L 257.989659 241.307293 
L 261.227733 240.606866 
L 265.402456 239.656289 
L 268.648274 238.930842 
L 272.822997 237.980259 
L 275.982525 237.279832 
L 280.236162 236.304235 
L 283.396244 235.553773 
L 286.6428 234.828326 
L 290.817523 233.877748 
L 294.992061 232.927165 
L 298.229951 232.201718 
L 301.389849 231.501291 
L 305.650861 230.550708 
L 308.810758 229.825238 
L 312.985665 228.874667 
L 316.224109 228.149236 
L 320.398831 227.223668 
L 323.644834 226.473235 
L 327.82011 225.547666 
L 330.979823 224.822179 
L 335.234382 223.846605 
L 338.393911 223.146178 
L 342.654923 222.195606 
L 345.81482 221.470119 
L 349.99028 220.54455 
L 353.212683 219.81912 
L 357.388512 218.868549 
L 360.634514 218.143119 
L 364.795593 217.192547 
L 367.955122 216.46706 
L 372.208943 215.516488 
L 375.36884 214.816061 
L 379.617131 213.840487 
L 382.777212 213.114999 
L 386.936816 212.189431 
L 390.175444 211.464001 
L 394.350904 210.513429 
L 397.596906 209.787999 
L 401.742313 208.862431 
L 404.902026 208.136944 
L 409.156769 207.161369 
L 412.316482 206.435939 
L 416.578232 205.485367 
L 419.73813 204.75988 
L 423.913959 203.809309 
L 427.152217 203.083879 
" clip-path="url(#p71e84219f9)" style="fill: none; stroke: #e377c2; stroke-width: 1.5; stroke-linecap: square"/>
   </g>
   <g id="line2d_22">
    <path d="M 59.030252 287.185398 
L 62.094087 287.035306 
L 66.239309 286.434938 
L 69.447883 285.934631 
L 73.577617 285.384294 
L 76.793382 284.934019 
L 80.938972 284.28362 
L 84.101267 283.733283 
L 88.358223 283.032854 
L 91.52107 282.532548 
L 95.785586 281.857137 
L 98.93147 281.356825 
L 103.076508 280.706427 
L 106.284713 280.206121 
L 110.429935 279.580737 
L 113.629658 279.105446 
L 117.77488 278.455047 
L 120.904908 277.954742 
L 125.112819 277.329358 
L 128.227543 276.854066 
L 132.459239 276.228688 
L 136.58842 275.603304 
L 139.717895 275.153027 
L 143.940741 274.502629 
L 147.070584 274.052352 
L 151.301727 273.401954 
L 154.431018 272.926662 
L 158.57624 272.301279 
L 161.784445 271.825987 
L 165.929851 271.200603 
L 169.145247 270.700298 
L 173.290284 270.049899 
L 176.420128 269.599622 
L 180.627301 268.949224 
L 183.741288 268.473933 
L 187.973168 267.848549 
L 191.103196 267.373257 
L 195.248971 266.747874 
L 198.44132 266.272582 
L 202.58691 265.647198 
L 205.802675 265.171907 
L 209.948081 264.571537 
L 213.078294 264.096252 
L 217.285836 263.445848 
L 220.415679 262.970562 
L 224.647375 262.345178 
L 228.792044 261.69478 
L 231.921519 261.219489 
L 236.14584 260.594105 
L 239.275868 260.143828 
L 243.490601 259.49343 
L 246.650867 259.018144 
L 250.82559 258.417774 
L 254.06348 257.917469 
L 258.238018 257.26707 
L 261.484021 256.791779 
L 265.658743 256.141381 
L 268.818456 255.666089 
L 272.044362 255.165783 
L 276.219269 254.540399 
L 279.465087 254.065114 
L 283.639994 253.43973 
L 286.799892 252.964438 
L 291.053713 252.31404 
L 294.212873 251.838749 
L 298.47536 251.188351 
L 301.63452 250.713059 
L 305.809612 250.062661 
L 309.048424 249.587369 
L 313.223331 248.961986 
L 316.469149 248.461685 
L 320.644794 247.836302 
L 323.804507 247.36101 
L 328.057959 246.735626 
L 331.217672 246.260335 
L 335.478869 245.609937 
L 338.638767 245.15966 
L 342.814042 244.534282 
L 346.05267 244.033976 
L 350.214117 243.408592 
L 353.443895 242.908286 
L 357.618617 242.282902 
L 360.77833 241.807611 
L 365.031967 241.132198 
L 368.178221 240.681921 
L 372.423561 240.031523 
L 375.582536 239.556231 
L 379.757628 238.930853 
L 382.996255 238.455562 
L 387.125436 237.830178 
L 390.370886 237.354892 
L 394.546162 236.729509 
L 397.69094 236.229203 
L 401.944208 235.603819 
L 405.103921 235.128527 
L 409.364934 234.45312 
L 412.524462 234.002843 
L 416.699554 233.352445 
L 419.937444 232.877154 
L 424.112167 232.25177 
L 427.358169 231.776484 
" clip-path="url(#p71e84219f9)" style="fill: none; stroke: #7f7f7f; stroke-width: 1.5; stroke-linecap: square"/>
   </g>
   <g id="line2d_23">
    <path d="M 59.030067 282.132303 
L 66.133476 281.782088 
L 70.28847 281.531938 
L 73.366134 281.356825 
L 77.545835 281.031626 
L 80.639909 280.756461 
L 84.767983 280.431262 
L 87.940418 280.156092 
L 92.034383 279.805879 
L 96.213715 279.480679 
L 99.307051 279.255538 
L 103.415951 278.930339 
L 106.58857 278.655174 
L 110.697101 278.35499 
L 113.876911 278.129848 
L 117.986363 277.829669 
L 121.064028 277.579514 
L 125.252579 277.254314 
L 129.329949 276.95413 
L 132.510497 276.728994 
L 136.61958 276.403795 
L 139.713839 276.153639 
L 143.901652 275.853455 
L 146.995173 275.603304 
L 151.190915 275.278105 
L 154.251985 275.05297 
L 158.361253 274.727765 
L 162.548329 274.427586 
L 165.642034 274.17743 
L 169.837223 273.877245 
L 172.930928 273.65211 
L 177.023786 273.326911 
L 180.196406 273.101775 
L 184.305305 272.776576 
L 187.485484 272.551435 
L 191.594752 272.226235 
L 195.703836 271.926051 
L 198.876087 271.675901 
L 202.968945 271.375716 
L 206.148571 271.15058 
L 210.258576 270.850396 
L 213.352835 270.60024 
L 217.541017 270.275041 
L 220.634354 270.049905 
L 224.814239 269.724706 
L 228.923138 269.424521 
L 232.016659 269.199386 
L 236.204472 268.849166 
L 239.298731 268.624031 
L 243.493735 268.298832 
L 246.617494 268.073696 
L 250.743356 267.748497 
L 253.930173 267.523355 
L 258.069864 267.198156 
L 261.279912 266.973021 
L 265.419419 266.647822 
L 268.543546 266.422686 
L 272.761598 266.097487 
L 276.886907 265.797302 
L 280.096772 265.547146 
L 284.236646 265.221947 
L 287.344918 264.996812 
L 291.56297 264.671612 
L 294.687466 264.446477 
L 298.912524 264.121278 
L 302.022086 263.896136 
L 306.14758 263.570937 
L 309.334765 263.345796 
L 313.474087 263.045617 
L 316.683767 262.770447 
L 320.823826 262.470262 
L 323.947585 262.245121 
L 328.16619 261.919921 
L 331.273908 261.694786 
L 335.485876 261.369587 
L 338.593594 261.144445 
L 342.717243 260.819246 
L 346.935111 260.494047 
L 350.058685 260.268906 
L 354.283744 259.968727 
L 357.40824 259.718571 
L 361.547009 259.418386 
L 364.749867 259.16823 
L 368.874254 258.843031 
L 372.084487 258.617896 
L 376.223993 258.292697 
L 379.348305 258.042541 
L 383.566541 257.742356 
L 386.690669 257.517215 
L 390.916096 257.192016 
L 394.026211 256.96688 
L 398.165164 256.641681 
L 401.368022 256.416539 
L 405.507344 256.09134 
L 408.717761 255.84119 
L 412.856899 255.541006 
L 416.995299 255.215806 
L 420.184144 254.965651 
L 424.323466 254.665466 
L 427.51858 254.41531 
" clip-path="url(#p71e84219f9)" style="fill: none; stroke: #bcbd22; stroke-width: 1.5; stroke-linecap: square"/>
   </g>
   <g id="patch_3">
    <path d="M 40.603125 299.798125 
L 40.603125 22.318125 
" style="fill: none; stroke: #000000; stroke-width: 0.8; stroke-linejoin: miter; stroke-linecap: square"/>
   </g>
   <g id="patch_4">
    <path d="M 445.943125 299.798125 
L 445.943125 22.318125 
" style="fill: none; stroke: #000000; stroke-width: 0.8; stroke-linejoin: miter; stroke-linecap: square"/>
   </g>
   <g id="patch_5">
    <path d="M 40.603125 299.798125 
L 445.943125 299.798125 
" style="fill: none; stroke: #000000; stroke-width: 0.8; stroke-linejoin: miter; stroke-linecap: square"/>
   </g>
   <g id="patch_6">
    <path d="M 40.603125 22.318125 
L 445.943125 22.318125 
" style="fill: none; stroke: #000000; stroke-width: 0.8; stroke-linejoin: miter; stroke-linecap: square"/>
   </g>
   <g id="text_18">
    <!-- left theta vs. time -->
    <g transform="translate(189.819688 16.318125) scale(0.12 -0.12)">
     <defs>
      <path id="DejaVuSans-76" d="M 191 3500 
L 800 3500 
L 1894 563 
L 2988 3500 
L 3597 3500 
L 2284 0 
L 1503 0 
L 191 3500 
z
" transform="scale(0.015625)"/>
     </defs>
     <use xlink:href="#DejaVuSans-6c"/>
     <use xlink:href="#DejaVuSans-65" transform="translate(27.783203 0)"/>
     <use xlink:href="#DejaVuSans-66" transform="translate(89.306641 0)"/>
     <use xlink:href="#DejaVuSans-74" transform="translate(122.761719 0)"/>
     <use xlink:href="#DejaVuSans-20" transform="translate(161.970703 0)"/>
     <use xlink:href="#DejaVuSans-74" transform="translate(193.757812 0)"/>
     <use xlink:href="#DejaVuSans-68" transform="translate(232.966797 0)"/>
     <use xlink:href="#DejaVuSans-65" transform="translate(296.345703 0)"/>
     <use xlink:href="#DejaVuSans-74" transform="translate(357.869141 0)"/>
     <use xlink:href="#DejaVuSans-61" transform="translate(397.078125 0)"/>
     <use xlink:href="#DejaVuSans-20" transform="translate(458.357422 0)"/>
     <use xlink:href="#DejaVuSans-76" transform="translate(490.144531 0)"/>
     <use xlink:href="#DejaVuSans-73" transform="translate(549.324219 0)"/>
     <use xlink:href="#DejaVuSans-2e" transform="translate(601.423828 0)"/>
     <use xlink:href="#DejaVuSans-20" transform="translate(633.210938 0)"/>
     <use xlink:href="#DejaVuSans-74" transform="translate(664.998047 0)"/>
     <use xlink:href="#DejaVuSans-69" transform="translate(704.207031 0)"/>
     <use xlink:href="#DejaVuSans-6d" transform="translate(731.990234 0)"/>
     <use xlink:href="#DejaVuSans-65" transform="translate(829.402344 0)"/>
    </g>
   </g>
   <g id="legend_1">
    <g id="patch_7">
     <path d="M 47.603125 162.42125 
L 164.128125 162.42125 
Q 166.128125 162.42125 166.128125 160.42125 
L 166.128125 29.318125 
Q 166.128125 27.318125 164.128125 27.318125 
L 47.603125 27.318125 
Q 45.603125 27.318125 45.603125 29.318125 
L 45.603125 160.42125 
Q 45.603125 162.42125 47.603125 162.42125 
z
" style="fill: #ffffff; opacity: 0.8; stroke: #cccccc; stroke-linejoin: miter"/>
    </g>
    <g id="line2d_24">
     <path d="M 49.603125 35.416563 
L 59.603125 35.416563 
L 69.603125 35.416563 
" style="fill: none; stroke: #1f77b4; stroke-width: 1.5; stroke-linecap: square"/>
    </g>
    <g id="text_19">
     <!-- Ref Speed = 765 -->
     <g transform="translate(77.603125 38.916563) scale(0.1 -0.1)">
      <defs>
       <path id="DejaVuSans-52" d="M 2841 2188 
Q 3044 2119 3236 1894 
Q 3428 1669 3622 1275 
L 4263 0 
L 3584 0 
L 2988 1197 
Q 2756 1666 2539 1819 
Q 2322 1972 1947 1972 
L 1259 1972 
L 1259 0 
L 628 0 
L 628 4666 
L 2053 4666 
Q 2853 4666 3247 4331 
Q 3641 3997 3641 3322 
Q 3641 2881 3436 2590 
Q 3231 2300 2841 2188 
z
M 1259 4147 
L 1259 2491 
L 2053 2491 
Q 2509 2491 2742 2702 
Q 2975 2913 2975 3322 
Q 2975 3731 2742 3939 
Q 2509 4147 2053 4147 
L 1259 4147 
z
" transform="scale(0.015625)"/>
       <path id="DejaVuSans-53" d="M 3425 4513 
L 3425 3897 
Q 3066 4069 2747 4153 
Q 2428 4238 2131 4238 
Q 1616 4238 1336 4038 
Q 1056 3838 1056 3469 
Q 1056 3159 1242 3001 
Q 1428 2844 1947 2747 
L 2328 2669 
Q 3034 2534 3370 2195 
Q 3706 1856 3706 1288 
Q 3706 609 3251 259 
Q 2797 -91 1919 -91 
Q 1588 -91 1214 -16 
Q 841 59 441 206 
L 441 856 
Q 825 641 1194 531 
Q 1563 422 1919 422 
Q 2459 422 2753 634 
Q 3047 847 3047 1241 
Q 3047 1584 2836 1778 
Q 2625 1972 2144 2069 
L 1759 2144 
Q 1053 2284 737 2584 
Q 422 2884 422 3419 
Q 422 4038 858 4394 
Q 1294 4750 2059 4750 
Q 2388 4750 2728 4690 
Q 3069 4631 3425 4513 
z
" transform="scale(0.015625)"/>
       <path id="DejaVuSans-70" d="M 1159 525 
L 1159 -1331 
L 581 -1331 
L 581 3500 
L 1159 3500 
L 1159 2969 
Q 1341 3281 1617 3432 
Q 1894 3584 2278 3584 
Q 2916 3584 3314 3078 
Q 3713 2572 3713 1747 
Q 3713 922 3314 415 
Q 2916 -91 2278 -91 
Q 1894 -91 1617 61 
Q 1341 213 1159 525 
z
M 3116 1747 
Q 3116 2381 2855 2742 
Q 2594 3103 2138 3103 
Q 1681 3103 1420 2742 
Q 1159 2381 1159 1747 
Q 1159 1113 1420 752 
Q 1681 391 2138 391 
Q 2594 391 2855 752 
Q 3116 1113 3116 1747 
z
" transform="scale(0.015625)"/>
       <path id="DejaVuSans-3d" d="M 678 2906 
L 4684 2906 
L 4684 2381 
L 678 2381 
L 678 2906 
z
M 678 1631 
L 4684 1631 
L 4684 1100 
L 678 1100 
L 678 1631 
z
" transform="scale(0.015625)"/>
      </defs>
      <use xlink:href="#DejaVuSans-52"/>
      <use xlink:href="#DejaVuSans-65" transform="translate(64.982422 0)"/>
      <use xlink:href="#DejaVuSans-66" transform="translate(126.505859 0)"/>
      <use xlink:href="#DejaVuSans-20" transform="translate(161.710938 0)"/>
      <use xlink:href="#DejaVuSans-53" transform="translate(193.498047 0)"/>
      <use xlink:href="#DejaVuSans-70" transform="translate(256.974609 0)"/>
      <use xlink:href="#DejaVuSans-65" transform="translate(320.451172 0)"/>
      <use xlink:href="#DejaVuSans-65" transform="translate(381.974609 0)"/>
      <use xlink:href="#DejaVuSans-64" transform="translate(443.498047 0)"/>
      <use xlink:href="#DejaVuSans-20" transform="translate(506.974609 0)"/>
      <use xlink:href="#DejaVuSans-3d" transform="translate(538.761719 0)"/>
      <use xlink:href="#DejaVuSans-20" transform="translate(622.550781 0)"/>
      <use xlink:href="#DejaVuSans-37" transform="translate(654.337891 0)"/>
      <use xlink:href="#DejaVuSans-36" transform="translate(717.960938 0)"/>
      <use xlink:href="#DejaVuSans-35" transform="translate(781.583984 0)"/>
     </g>
    </g>
    <g id="line2d_25">
     <path d="M 49.603125 50.094688 
L 59.603125 50.094688 
L 69.603125 50.094688 
" style="fill: none; stroke: #ff7f0e; stroke-width: 1.5; stroke-linecap: square"/>
    </g>
    <g id="text_20">
     <!-- Ref Speed = 680 -->
     <g transform="translate(77.603125 53.594688) scale(0.1 -0.1)">
      <defs>
       <path id="DejaVuSans-38" d="M 2034 2216 
Q 1584 2216 1326 1975 
Q 1069 1734 1069 1313 
Q 1069 891 1326 650 
Q 1584 409 2034 409 
Q 2484 409 2743 651 
Q 3003 894 3003 1313 
Q 3003 1734 2745 1975 
Q 2488 2216 2034 2216 
z
M 1403 2484 
Q 997 2584 770 2862 
Q 544 3141 544 3541 
Q 544 4100 942 4425 
Q 1341 4750 2034 4750 
Q 2731 4750 3128 4425 
Q 3525 4100 3525 3541 
Q 3525 3141 3298 2862 
Q 3072 2584 2669 2484 
Q 3125 2378 3379 2068 
Q 3634 1759 3634 1313 
Q 3634 634 3220 271 
Q 2806 -91 2034 -91 
Q 1263 -91 848 271 
Q 434 634 434 1313 
Q 434 1759 690 2068 
Q 947 2378 1403 2484 
z
M 1172 3481 
Q 1172 3119 1398 2916 
Q 1625 2713 2034 2713 
Q 2441 2713 2670 2916 
Q 2900 3119 2900 3481 
Q 2900 3844 2670 4047 
Q 2441 4250 2034 4250 
Q 1625 4250 1398 4047 
Q 1172 3844 1172 3481 
z
" transform="scale(0.015625)"/>
      </defs>
      <use xlink:href="#DejaVuSans-52"/>
      <use xlink:href="#DejaVuSans-65" transform="translate(64.982422 0)"/>
      <use xlink:href="#DejaVuSans-66" transform="translate(126.505859 0)"/>
      <use xlink:href="#DejaVuSans-20" transform="translate(161.710938 0)"/>
      <use xlink:href="#DejaVuSans-53" transform="translate(193.498047 0)"/>
      <use xlink:href="#DejaVuSans-70" transform="translate(256.974609 0)"/>
      <use xlink:href="#DejaVuSans-65" transform="translate(320.451172 0)"/>
      <use xlink:href="#DejaVuSans-65" transform="translate(381.974609 0)"/>
      <use xlink:href="#DejaVuSans-64" transform="translate(443.498047 0)"/>
      <use xlink:href="#DejaVuSans-20" transform="translate(506.974609 0)"/>
      <use xlink:href="#DejaVuSans-3d" transform="translate(538.761719 0)"/>
      <use xlink:href="#DejaVuSans-20" transform="translate(622.550781 0)"/>
      <use xlink:href="#DejaVuSans-36" transform="translate(654.337891 0)"/>
      <use xlink:href="#DejaVuSans-38" transform="translate(717.960938 0)"/>
      <use xlink:href="#DejaVuSans-30" transform="translate(781.583984 0)"/>
     </g>
    </g>
    <g id="line2d_26">
     <path d="M 49.603125 64.772813 
L 59.603125 64.772813 
L 69.603125 64.772813 
" style="fill: none; stroke: #2ca02c; stroke-width: 1.5; stroke-linecap: square"/>
    </g>
    <g id="text_21">
     <!-- Ref Speed = 595 -->
     <g transform="translate(77.603125 68.272813) scale(0.1 -0.1)">
      <defs>
       <path id="DejaVuSans-39" d="M 703 97 
L 703 672 
Q 941 559 1184 500 
Q 1428 441 1663 441 
Q 2288 441 2617 861 
Q 2947 1281 2994 2138 
Q 2813 1869 2534 1725 
Q 2256 1581 1919 1581 
Q 1219 1581 811 2004 
Q 403 2428 403 3163 
Q 403 3881 828 4315 
Q 1253 4750 1959 4750 
Q 2769 4750 3195 4129 
Q 3622 3509 3622 2328 
Q 3622 1225 3098 567 
Q 2575 -91 1691 -91 
Q 1453 -91 1209 -44 
Q 966 3 703 97 
z
M 1959 2075 
Q 2384 2075 2632 2365 
Q 2881 2656 2881 3163 
Q 2881 3666 2632 3958 
Q 2384 4250 1959 4250 
Q 1534 4250 1286 3958 
Q 1038 3666 1038 3163 
Q 1038 2656 1286 2365 
Q 1534 2075 1959 2075 
z
" transform="scale(0.015625)"/>
      </defs>
      <use xlink:href="#DejaVuSans-52"/>
      <use xlink:href="#DejaVuSans-65" transform="translate(64.982422 0)"/>
      <use xlink:href="#DejaVuSans-66" transform="translate(126.505859 0)"/>
      <use xlink:href="#DejaVuSans-20" transform="translate(161.710938 0)"/>
      <use xlink:href="#DejaVuSans-53" transform="translate(193.498047 0)"/>
      <use xlink:href="#DejaVuSans-70" transform="translate(256.974609 0)"/>
      <use xlink:href="#DejaVuSans-65" transform="translate(320.451172 0)"/>
      <use xlink:href="#DejaVuSans-65" transform="translate(381.974609 0)"/>
      <use xlink:href="#DejaVuSans-64" transform="translate(443.498047 0)"/>
      <use xlink:href="#DejaVuSans-20" transform="translate(506.974609 0)"/>
      <use xlink:href="#DejaVuSans-3d" transform="translate(538.761719 0)"/>
      <use xlink:href="#DejaVuSans-20" transform="translate(622.550781 0)"/>
      <use xlink:href="#DejaVuSans-35" transform="translate(654.337891 0)"/>
      <use xlink:href="#DejaVuSans-39" transform="translate(717.960938 0)"/>
      <use xlink:href="#DejaVuSans-35" transform="translate(781.583984 0)"/>
     </g>
    </g>
    <g id="line2d_27">
     <path d="M 49.603125 79.450938 
L 59.603125 79.450938 
L 69.603125 79.450938 
" style="fill: none; stroke: #d62728; stroke-width: 1.5; stroke-linecap: square"/>
    </g>
    <g id="text_22">
     <!-- Ref Speed = 510 -->
     <g transform="translate(77.603125 82.950938) scale(0.1 -0.1)">
      <use xlink:href="#DejaVuSans-52"/>
      <use xlink:href="#DejaVuSans-65" transform="translate(64.982422 0)"/>
      <use xlink:href="#DejaVuSans-66" transform="translate(126.505859 0)"/>
      <use xlink:href="#DejaVuSans-20" transform="translate(161.710938 0)"/>
      <use xlink:href="#DejaVuSans-53" transform="translate(193.498047 0)"/>
      <use xlink:href="#DejaVuSans-70" transform="translate(256.974609 0)"/>
      <use xlink:href="#DejaVuSans-65" transform="translate(320.451172 0)"/>
      <use xlink:href="#DejaVuSans-65" transform="translate(381.974609 0)"/>
      <use xlink:href="#DejaVuSans-64" transform="translate(443.498047 0)"/>
      <use xlink:href="#DejaVuSans-20" transform="translate(506.974609 0)"/>
      <use xlink:href="#DejaVuSans-3d" transform="translate(538.761719 0)"/>
      <use xlink:href="#DejaVuSans-20" transform="translate(622.550781 0)"/>
      <use xlink:href="#DejaVuSans-35" transform="translate(654.337891 0)"/>
      <use xlink:href="#DejaVuSans-31" transform="translate(717.960938 0)"/>
      <use xlink:href="#DejaVuSans-30" transform="translate(781.583984 0)"/>
     </g>
    </g>
    <g id="line2d_28">
     <path d="M 49.603125 94.129063 
L 59.603125 94.129063 
L 69.603125 94.129063 
" style="fill: none; stroke: #9467bd; stroke-width: 1.5; stroke-linecap: square"/>
    </g>
    <g id="text_23">
     <!-- Ref Speed = 425 -->
     <g transform="translate(77.603125 97.629063) scale(0.1 -0.1)">
      <use xlink:href="#DejaVuSans-52"/>
      <use xlink:href="#DejaVuSans-65" transform="translate(64.982422 0)"/>
      <use xlink:href="#DejaVuSans-66" transform="translate(126.505859 0)"/>
      <use xlink:href="#DejaVuSans-20" transform="translate(161.710938 0)"/>
      <use xlink:href="#DejaVuSans-53" transform="translate(193.498047 0)"/>
      <use xlink:href="#DejaVuSans-70" transform="translate(256.974609 0)"/>
      <use xlink:href="#DejaVuSans-65" transform="translate(320.451172 0)"/>
      <use xlink:href="#DejaVuSans-65" transform="translate(381.974609 0)"/>
      <use xlink:href="#DejaVuSans-64" transform="translate(443.498047 0)"/>
      <use xlink:href="#DejaVuSans-20" transform="translate(506.974609 0)"/>
      <use xlink:href="#DejaVuSans-3d" transform="translate(538.761719 0)"/>
      <use xlink:href="#DejaVuSans-20" transform="translate(622.550781 0)"/>
      <use xlink:href="#DejaVuSans-34" transform="translate(654.337891 0)"/>
      <use xlink:href="#DejaVuSans-32" transform="translate(717.960938 0)"/>
      <use xlink:href="#DejaVuSans-35" transform="translate(781.583984 0)"/>
     </g>
    </g>
    <g id="line2d_29">
     <path d="M 49.603125 108.807188 
L 59.603125 108.807188 
L 69.603125 108.807188 
" style="fill: none; stroke: #8c564b; stroke-width: 1.5; stroke-linecap: square"/>
    </g>
    <g id="text_24">
     <!-- Ref Speed = 340 -->
     <g transform="translate(77.603125 112.307188) scale(0.1 -0.1)">
      <use xlink:href="#DejaVuSans-52"/>
      <use xlink:href="#DejaVuSans-65" transform="translate(64.982422 0)"/>
      <use xlink:href="#DejaVuSans-66" transform="translate(126.505859 0)"/>
      <use xlink:href="#DejaVuSans-20" transform="translate(161.710938 0)"/>
      <use xlink:href="#DejaVuSans-53" transform="translate(193.498047 0)"/>
      <use xlink:href="#DejaVuSans-70" transform="translate(256.974609 0)"/>
      <use xlink:href="#DejaVuSans-65" transform="translate(320.451172 0)"/>
      <use xlink:href="#DejaVuSans-65" transform="translate(381.974609 0)"/>
      <use xlink:href="#DejaVuSans-64" transform="translate(443.498047 0)"/>
      <use xlink:href="#DejaVuSans-20" transform="translate(506.974609 0)"/>
      <use xlink:href="#DejaVuSans-3d" transform="translate(538.761719 0)"/>
      <use xlink:href="#DejaVuSans-20" transform="translate(622.550781 0)"/>
      <use xlink:href="#DejaVuSans-33" transform="translate(654.337891 0)"/>
      <use xlink:href="#DejaVuSans-34" transform="translate(717.960938 0)"/>
      <use xlink:href="#DejaVuSans-30" transform="translate(781.583984 0)"/>
     </g>
    </g>
    <g id="line2d_30">
     <path d="M 49.603125 123.485313 
L 59.603125 123.485313 
L 69.603125 123.485313 
" style="fill: none; stroke: #e377c2; stroke-width: 1.5; stroke-linecap: square"/>
    </g>
    <g id="text_25">
     <!-- Ref Speed = 255 -->
     <g transform="translate(77.603125 126.985313) scale(0.1 -0.1)">
      <use xlink:href="#DejaVuSans-52"/>
      <use xlink:href="#DejaVuSans-65" transform="translate(64.982422 0)"/>
      <use xlink:href="#DejaVuSans-66" transform="translate(126.505859 0)"/>
      <use xlink:href="#DejaVuSans-20" transform="translate(161.710938 0)"/>
      <use xlink:href="#DejaVuSans-53" transform="translate(193.498047 0)"/>
      <use xlink:href="#DejaVuSans-70" transform="translate(256.974609 0)"/>
      <use xlink:href="#DejaVuSans-65" transform="translate(320.451172 0)"/>
      <use xlink:href="#DejaVuSans-65" transform="translate(381.974609 0)"/>
      <use xlink:href="#DejaVuSans-64" transform="translate(443.498047 0)"/>
      <use xlink:href="#DejaVuSans-20" transform="translate(506.974609 0)"/>
      <use xlink:href="#DejaVuSans-3d" transform="translate(538.761719 0)"/>
      <use xlink:href="#DejaVuSans-20" transform="translate(622.550781 0)"/>
      <use xlink:href="#DejaVuSans-32" transform="translate(654.337891 0)"/>
      <use xlink:href="#DejaVuSans-35" transform="translate(717.960938 0)"/>
      <use xlink:href="#DejaVuSans-35" transform="translate(781.583984 0)"/>
     </g>
    </g>
    <g id="line2d_31">
     <path d="M 49.603125 138.163438 
L 59.603125 138.163438 
L 69.603125 138.163438 
" style="fill: none; stroke: #7f7f7f; stroke-width: 1.5; stroke-linecap: square"/>
    </g>
    <g id="text_26">
     <!-- Ref Speed = 170 -->
     <g transform="translate(77.603125 141.663438) scale(0.1 -0.1)">
      <use xlink:href="#DejaVuSans-52"/>
      <use xlink:href="#DejaVuSans-65" transform="translate(64.982422 0)"/>
      <use xlink:href="#DejaVuSans-66" transform="translate(126.505859 0)"/>
      <use xlink:href="#DejaVuSans-20" transform="translate(161.710938 0)"/>
      <use xlink:href="#DejaVuSans-53" transform="translate(193.498047 0)"/>
      <use xlink:href="#DejaVuSans-70" transform="translate(256.974609 0)"/>
      <use xlink:href="#DejaVuSans-65" transform="translate(320.451172 0)"/>
      <use xlink:href="#DejaVuSans-65" transform="translate(381.974609 0)"/>
      <use xlink:href="#DejaVuSans-64" transform="translate(443.498047 0)"/>
      <use xlink:href="#DejaVuSans-20" transform="translate(506.974609 0)"/>
      <use xlink:href="#DejaVuSans-3d" transform="translate(538.761719 0)"/>
      <use xlink:href="#DejaVuSans-20" transform="translate(622.550781 0)"/>
      <use xlink:href="#DejaVuSans-31" transform="translate(654.337891 0)"/>
      <use xlink:href="#DejaVuSans-37" transform="translate(717.960938 0)"/>
      <use xlink:href="#DejaVuSans-30" transform="translate(781.583984 0)"/>
     </g>
    </g>
    <g id="line2d_32">
     <path d="M 49.603125 152.841563 
L 59.603125 152.841563 
L 69.603125 152.841563 
" style="fill: none; stroke: #bcbd22; stroke-width: 1.5; stroke-linecap: square"/>
    </g>
    <g id="text_27">
     <!-- Ref Speed = 85 -->
     <g transform="translate(77.603125 156.341563) scale(0.1 -0.1)">
      <use xlink:href="#DejaVuSans-52"/>
      <use xlink:href="#DejaVuSans-65" transform="translate(64.982422 0)"/>
      <use xlink:href="#DejaVuSans-66" transform="translate(126.505859 0)"/>
      <use xlink:href="#DejaVuSans-20" transform="translate(161.710938 0)"/>
      <use xlink:href="#DejaVuSans-53" transform="translate(193.498047 0)"/>
      <use xlink:href="#DejaVuSans-70" transform="translate(256.974609 0)"/>
      <use xlink:href="#DejaVuSans-65" transform="translate(320.451172 0)"/>
      <use xlink:href="#DejaVuSans-65" transform="translate(381.974609 0)"/>
      <use xlink:href="#DejaVuSans-64" transform="translate(443.498047 0)"/>
      <use xlink:href="#DejaVuSans-20" transform="translate(506.974609 0)"/>
      <use xlink:href="#DejaVuSans-3d" transform="translate(538.761719 0)"/>
      <use xlink:href="#DejaVuSans-20" transform="translate(622.550781 0)"/>
      <use xlink:href="#DejaVuSans-38" transform="translate(654.337891 0)"/>
      <use xlink:href="#DejaVuSans-35" transform="translate(717.960938 0)"/>
     </g>
    </g>
   </g>
  </g>
 </g>
 <defs>
  <clipPath id="p71e84219f9">
   <rect x="40.603125" y="22.318125" width="405.34" height="277.48"/>
  </clipPath>
 </defs>
</svg>
