<?xml version="1.0" encoding="utf-8" standalone="no"?>
<!DOCTYPE svg PUBLIC "-//W3C//DTD SVG 1.1//EN"
  "http://www.w3.org/Graphics/SVG/1.1/DTD/svg11.dtd">
<svg xmlns:xlink="http://www.w3.org/1999/xlink" width="453.160625pt" height="337.354375pt" viewBox="0 0 453.160625 337.354375" xmlns="http://www.w3.org/2000/svg" version="1.1">
 <metadata>
  <rdf:RDF xmlns:dc="http://purl.org/dc/elements/1.1/" xmlns:cc="http://creativecommons.org/ns#" xmlns:rdf="http://www.w3.org/1999/02/22-rdf-syntax-ns#">
   <cc:Work>
    <dc:type rdf:resource="http://purl.org/dc/dcmitype/StillImage"/>
    <dc:date>2025-10-29T23:09:54.717069</dc:date>
    <dc:format>image/svg+xml</dc:format>
    <dc:creator>
     <cc:Agent>
      <dc:title>Matplotlib v3.10.6, https://matplotlib.org/</dc:title>
     </cc:Agent>
    </dc:creator>
   </cc:Work>
  </rdf:RDF>
 </metadata>
 <defs>
  <style type="text/css">*{stroke-linejoin: round; stroke-linecap: butt}</style>
 </defs>
 <g id="figure_1">
  <g id="patch_1">
   <path d="M 0 337.354375 
L 453.160625 337.354375 
L 453.160625 0 
L 0 0 
z
" style="fill: #ffffff"/>
  </g>
  <g id="axes_1">
   <g id="patch_2">
    <path d="M 46.965625 299.798125 
L 445.960625 299.798125 
L 445.960625 22.318125 
L 46.965625 22.318125 
z
" style="fill: #ffffff"/>
   </g>
   <g id="matplotlib.axis_1">
    <g id="xtick_1">
     <g id="line2d_1">
      <defs>
       <path id="m2eb8b0a260" d="M 0 0 
L 0 3.5 
" style="stroke: #000000; stroke-width: 0.8"/>
      </defs>
      <g>
       <use xlink:href="#m2eb8b0a260" x="64.872891" y="299.798125" style="stroke: #000000; stroke-width: 0.8"/>
      </g>
     </g>
     <g id="text_1">
      <!-- 0.00 -->
      <g transform="translate(53.740078 314.396563) scale(0.1 -0.1)">
       <defs>
        <path id="DejaVuSans-30" d="M 2034 4250 
Q 1547 4250 1301 3770 
Q 1056 3291 1056 2328 
Q 1056 1369 1301 889 
Q 1547 409 2034 409 
Q 2525 409 2770 889 
Q 3016 1369 3016 2328 
Q 3016 3291 2770 3770 
Q 2525 4250 2034 4250 
z
M 2034 4750 
Q 2819 4750 3233 4129 
Q 3647 3509 3647 2328 
Q 3647 1150 3233 529 
Q 2819 -91 2034 -91 
Q 1250 -91 836 529 
Q 422 1150 422 2328 
Q 422 3509 836 4129 
Q 1250 4750 2034 4750 
z
" transform="scale(0.015625)"/>
        <path id="DejaVuSans-2e" d="M 684 794 
L 1344 794 
L 1344 0 
L 684 0 
L 684 794 
z
" transform="scale(0.015625)"/>
       </defs>
       <use xlink:href="#DejaVuSans-30"/>
       <use xlink:href="#DejaVuSans-2e" transform="translate(63.623047 0)"/>
       <use xlink:href="#DejaVuSans-30" transform="translate(95.410156 0)"/>
       <use xlink:href="#DejaVuSans-30" transform="translate(159.033203 0)"/>
      </g>
     </g>
    </g>
    <g id="xtick_2">
     <g id="line2d_2">
      <g>
       <use xlink:href="#m2eb8b0a260" x="110.247762" y="299.798125" style="stroke: #000000; stroke-width: 0.8"/>
      </g>
     </g>
     <g id="text_2">
      <!-- 0.25 -->
      <g transform="translate(99.114949 314.396563) scale(0.1 -0.1)">
       <defs>
        <path id="DejaVuSans-32" d="M 1228 531 
L 3431 531 
L 3431 0 
L 469 0 
L 469 531 
Q 828 903 1448 1529 
Q 2069 2156 2228 2338 
Q 2531 2678 2651 2914 
Q 2772 3150 2772 3378 
Q 2772 3750 2511 3984 
Q 2250 4219 1831 4219 
Q 1534 4219 1204 4116 
Q 875 4013 500 3803 
L 500 4441 
Q 881 4594 1212 4672 
Q 1544 4750 1819 4750 
Q 2544 4750 2975 4387 
Q 3406 4025 3406 3419 
Q 3406 3131 3298 2873 
Q 3191 2616 2906 2266 
Q 2828 2175 2409 1742 
Q 1991 1309 1228 531 
z
" transform="scale(0.015625)"/>
        <path id="DejaVuSans-35" d="M 691 4666 
L 3169 4666 
L 3169 4134 
L 1269 4134 
L 1269 2991 
Q 1406 3038 1543 3061 
Q 1681 3084 1819 3084 
Q 2600 3084 3056 2656 
Q 3513 2228 3513 1497 
Q 3513 744 3044 326 
Q 2575 -91 1722 -91 
Q 1428 -91 1123 -41 
Q 819 9 494 109 
L 494 744 
Q 775 591 1075 516 
Q 1375 441 1709 441 
Q 2250 441 2565 725 
Q 2881 1009 2881 1497 
Q 2881 1984 2565 2268 
Q 2250 2553 1709 2553 
Q 1456 2553 1204 2497 
Q 953 2441 691 2322 
L 691 4666 
z
" transform="scale(0.015625)"/>
       </defs>
       <use xlink:href="#DejaVuSans-30"/>
       <use xlink:href="#DejaVuSans-2e" transform="translate(63.623047 0)"/>
       <use xlink:href="#DejaVuSans-32" transform="translate(95.410156 0)"/>
       <use xlink:href="#DejaVuSans-35" transform="translate(159.033203 0)"/>
      </g>
     </g>
    </g>
    <g id="xtick_3">
     <g id="line2d_3">
      <g>
       <use xlink:href="#m2eb8b0a260" x="155.622633" y="299.798125" style="stroke: #000000; stroke-width: 0.8"/>
      </g>
     </g>
     <g id="text_3">
      <!-- 0.50 -->
      <g transform="translate(144.48982 314.396563) scale(0.1 -0.1)">
       <use xlink:href="#DejaVuSans-30"/>
       <use xlink:href="#DejaVuSans-2e" transform="translate(63.623047 0)"/>
       <use xlink:href="#DejaVuSans-35" transform="translate(95.410156 0)"/>
       <use xlink:href="#DejaVuSans-30" transform="translate(159.033203 0)"/>
      </g>
     </g>
    </g>
    <g id="xtick_4">
     <g id="line2d_4">
      <g>
       <use xlink:href="#m2eb8b0a260" x="200.997504" y="299.798125" style="stroke: #000000; stroke-width: 0.8"/>
      </g>
     </g>
     <g id="text_4">
      <!-- 0.75 -->
      <g transform="translate(189.864692 314.396563) scale(0.1 -0.1)">
       <defs>
        <path id="DejaVuSans-37" d="M 525 4666 
L 3525 4666 
L 3525 4397 
L 1831 0 
L 1172 0 
L 2766 4134 
L 525 4134 
L 525 4666 
z
" transform="scale(0.015625)"/>
       </defs>
       <use xlink:href="#DejaVuSans-30"/>
       <use xlink:href="#DejaVuSans-2e" transform="translate(63.623047 0)"/>
       <use xlink:href="#DejaVuSans-37" transform="translate(95.410156 0)"/>
       <use xlink:href="#DejaVuSans-35" transform="translate(159.033203 0)"/>
      </g>
     </g>
    </g>
    <g id="xtick_5">
     <g id="line2d_5">
      <g>
       <use xlink:href="#m2eb8b0a260" x="246.372375" y="299.798125" style="stroke: #000000; stroke-width: 0.8"/>
      </g>
     </g>
     <g id="text_5">
      <!-- 1.00 -->
      <g transform="translate(235.239563 314.396563) scale(0.1 -0.1)">
       <defs>
        <path id="DejaVuSans-31" d="M 794 531 
L 1825 531 
L 1825 4091 
L 703 3866 
L 703 4441 
L 1819 4666 
L 2450 4666 
L 2450 531 
L 3481 531 
L 3481 0 
L 794 0 
L 794 531 
z
" transform="scale(0.015625)"/>
       </defs>
       <use xlink:href="#DejaVuSans-31"/>
       <use xlink:href="#DejaVuSans-2e" transform="translate(63.623047 0)"/>
       <use xlink:href="#DejaVuSans-30" transform="translate(95.410156 0)"/>
       <use xlink:href="#DejaVuSans-30" transform="translate(159.033203 0)"/>
      </g>
     </g>
    </g>
    <g id="xtick_6">
     <g id="line2d_6">
      <g>
       <use xlink:href="#m2eb8b0a260" x="291.747246" y="299.798125" style="stroke: #000000; stroke-width: 0.8"/>
      </g>
     </g>
     <g id="text_6">
      <!-- 1.25 -->
      <g transform="translate(280.614434 314.396563) scale(0.1 -0.1)">
       <use xlink:href="#DejaVuSans-31"/>
       <use xlink:href="#DejaVuSans-2e" transform="translate(63.623047 0)"/>
       <use xlink:href="#DejaVuSans-32" transform="translate(95.410156 0)"/>
       <use xlink:href="#DejaVuSans-35" transform="translate(159.033203 0)"/>
      </g>
     </g>
    </g>
    <g id="xtick_7">
     <g id="line2d_7">
      <g>
       <use xlink:href="#m2eb8b0a260" x="337.122118" y="299.798125" style="stroke: #000000; stroke-width: 0.8"/>
      </g>
     </g>
     <g id="text_7">
      <!-- 1.50 -->
      <g transform="translate(325.989305 314.396563) scale(0.1 -0.1)">
       <use xlink:href="#DejaVuSans-31"/>
       <use xlink:href="#DejaVuSans-2e" transform="translate(63.623047 0)"/>
       <use xlink:href="#DejaVuSans-35" transform="translate(95.410156 0)"/>
       <use xlink:href="#DejaVuSans-30" transform="translate(159.033203 0)"/>
      </g>
     </g>
    </g>
    <g id="xtick_8">
     <g id="line2d_8">
      <g>
       <use xlink:href="#m2eb8b0a260" x="382.496989" y="299.798125" style="stroke: #000000; stroke-width: 0.8"/>
      </g>
     </g>
     <g id="text_8">
      <!-- 1.75 -->
      <g transform="translate(371.364176 314.396563) scale(0.1 -0.1)">
       <use xlink:href="#DejaVuSans-31"/>
       <use xlink:href="#DejaVuSans-2e" transform="translate(63.623047 0)"/>
       <use xlink:href="#DejaVuSans-37" transform="translate(95.410156 0)"/>
       <use xlink:href="#DejaVuSans-35" transform="translate(159.033203 0)"/>
      </g>
     </g>
    </g>
    <g id="xtick_9">
     <g id="line2d_9">
      <g>
       <use xlink:href="#m2eb8b0a260" x="427.87186" y="299.798125" style="stroke: #000000; stroke-width: 0.8"/>
      </g>
     </g>
     <g id="text_9">
      <!-- 2.00 -->
      <g transform="translate(416.739048 314.396563) scale(0.1 -0.1)">
       <use xlink:href="#DejaVuSans-32"/>
       <use xlink:href="#DejaVuSans-2e" transform="translate(63.623047 0)"/>
       <use xlink:href="#DejaVuSans-30" transform="translate(95.410156 0)"/>
       <use xlink:href="#DejaVuSans-30" transform="translate(159.033203 0)"/>
      </g>
     </g>
    </g>
    <g id="text_10">
     <!-- time, t (us) -->
     <g transform="translate(218.764688 328.074688) scale(0.1 -0.1)">
      <defs>
       <path id="DejaVuSans-74" d="M 1172 4494 
L 1172 3500 
L 2356 3500 
L 2356 3053 
L 1172 3053 
L 1172 1153 
Q 1172 725 1289 603 
Q 1406 481 1766 481 
L 2356 481 
L 2356 0 
L 1766 0 
Q 1100 0 847 248 
Q 594 497 594 1153 
L 594 3053 
L 172 3053 
L 172 3500 
L 594 3500 
L 594 4494 
L 1172 4494 
z
" transform="scale(0.015625)"/>
       <path id="DejaVuSans-69" d="M 603 3500 
L 1178 3500 
L 1178 0 
L 603 0 
L 603 3500 
z
M 603 4863 
L 1178 4863 
L 1178 4134 
L 603 4134 
L 603 4863 
z
" transform="scale(0.015625)"/>
       <path id="DejaVuSans-6d" d="M 3328 2828 
Q 3544 3216 3844 3400 
Q 4144 3584 4550 3584 
Q 5097 3584 5394 3201 
Q 5691 2819 5691 2113 
L 5691 0 
L 5113 0 
L 5113 2094 
Q 5113 2597 4934 2840 
Q 4756 3084 4391 3084 
Q 3944 3084 3684 2787 
Q 3425 2491 3425 1978 
L 3425 0 
L 2847 0 
L 2847 2094 
Q 2847 2600 2669 2842 
Q 2491 3084 2119 3084 
Q 1678 3084 1418 2786 
Q 1159 2488 1159 1978 
L 1159 0 
L 581 0 
L 581 3500 
L 1159 3500 
L 1159 2956 
Q 1356 3278 1631 3431 
Q 1906 3584 2284 3584 
Q 2666 3584 2933 3390 
Q 3200 3197 3328 2828 
z
" transform="scale(0.015625)"/>
       <path id="DejaVuSans-65" d="M 3597 1894 
L 3597 1613 
L 953 1613 
Q 991 1019 1311 708 
Q 1631 397 2203 397 
Q 2534 397 2845 478 
Q 3156 559 3463 722 
L 3463 178 
Q 3153 47 2828 -22 
Q 2503 -91 2169 -91 
Q 1331 -91 842 396 
Q 353 884 353 1716 
Q 353 2575 817 3079 
Q 1281 3584 2069 3584 
Q 2775 3584 3186 3129 
Q 3597 2675 3597 1894 
z
M 3022 2063 
Q 3016 2534 2758 2815 
Q 2500 3097 2075 3097 
Q 1594 3097 1305 2825 
Q 1016 2553 972 2059 
L 3022 2063 
z
" transform="scale(0.015625)"/>
       <path id="DejaVuSans-2c" d="M 750 794 
L 1409 794 
L 1409 256 
L 897 -744 
L 494 -744 
L 750 256 
L 750 794 
z
" transform="scale(0.015625)"/>
       <path id="DejaVuSans-20" transform="scale(0.015625)"/>
       <path id="DejaVuSans-28" d="M 1984 4856 
Q 1566 4138 1362 3434 
Q 1159 2731 1159 2009 
Q 1159 1288 1364 580 
Q 1569 -128 1984 -844 
L 1484 -844 
Q 1016 -109 783 600 
Q 550 1309 550 2009 
Q 550 2706 781 3412 
Q 1013 4119 1484 4856 
L 1984 4856 
z
" transform="scale(0.015625)"/>
       <path id="DejaVuSans-75" d="M 544 1381 
L 544 3500 
L 1119 3500 
L 1119 1403 
Q 1119 906 1312 657 
Q 1506 409 1894 409 
Q 2359 409 2629 706 
Q 2900 1003 2900 1516 
L 2900 3500 
L 3475 3500 
L 3475 0 
L 2900 0 
L 2900 538 
Q 2691 219 2414 64 
Q 2138 -91 1772 -91 
Q 1169 -91 856 284 
Q 544 659 544 1381 
z
M 1991 3584 
L 1991 3584 
z
" transform="scale(0.015625)"/>
       <path id="DejaVuSans-73" d="M 2834 3397 
L 2834 2853 
Q 2591 2978 2328 3040 
Q 2066 3103 1784 3103 
Q 1356 3103 1142 2972 
Q 928 2841 928 2578 
Q 928 2378 1081 2264 
Q 1234 2150 1697 2047 
L 1894 2003 
Q 2506 1872 2764 1633 
Q 3022 1394 3022 966 
Q 3022 478 2636 193 
Q 2250 -91 1575 -91 
Q 1294 -91 989 -36 
Q 684 19 347 128 
L 347 722 
Q 666 556 975 473 
Q 1284 391 1588 391 
Q 1994 391 2212 530 
Q 2431 669 2431 922 
Q 2431 1156 2273 1281 
Q 2116 1406 1581 1522 
L 1381 1569 
Q 847 1681 609 1914 
Q 372 2147 372 2553 
Q 372 3047 722 3315 
Q 1072 3584 1716 3584 
Q 2034 3584 2315 3537 
Q 2597 3491 2834 3397 
z
" transform="scale(0.015625)"/>
       <path id="DejaVuSans-29" d="M 513 4856 
L 1013 4856 
Q 1481 4119 1714 3412 
Q 1947 2706 1947 2009 
Q 1947 1309 1714 600 
Q 1481 -109 1013 -844 
L 513 -844 
Q 928 -128 1133 580 
Q 1338 1288 1338 2009 
Q 1338 2731 1133 3434 
Q 928 4138 513 4856 
z
" transform="scale(0.015625)"/>
      </defs>
      <use xlink:href="#DejaVuSans-74"/>
      <use xlink:href="#DejaVuSans-69" transform="translate(39.208984 0)"/>
      <use xlink:href="#DejaVuSans-6d" transform="translate(66.992188 0)"/>
      <use xlink:href="#DejaVuSans-65" transform="translate(164.404297 0)"/>
      <use xlink:href="#DejaVuSans-2c" transform="translate(225.927734 0)"/>
      <use xlink:href="#DejaVuSans-20" transform="translate(257.714844 0)"/>
      <use xlink:href="#DejaVuSans-74" transform="translate(289.501953 0)"/>
      <use xlink:href="#DejaVuSans-20" transform="translate(328.710938 0)"/>
      <use xlink:href="#DejaVuSans-28" transform="translate(360.498047 0)"/>
      <use xlink:href="#DejaVuSans-75" transform="translate(399.511719 0)"/>
      <use xlink:href="#DejaVuSans-73" transform="translate(462.890625 0)"/>
      <use xlink:href="#DejaVuSans-29" transform="translate(514.990234 0)"/>
     </g>
    </g>
    <g id="text_11">
     <!-- 1e6 -->
     <g transform="translate(427.0825 327.074688) scale(0.1 -0.1)">
      <defs>
       <path id="DejaVuSans-36" d="M 2113 2584 
Q 1688 2584 1439 2293 
Q 1191 2003 1191 1497 
Q 1191 994 1439 701 
Q 1688 409 2113 409 
Q 2538 409 2786 701 
Q 3034 994 3034 1497 
Q 3034 2003 2786 2293 
Q 2538 2584 2113 2584 
z
M 3366 4563 
L 3366 3988 
Q 3128 4100 2886 4159 
Q 2644 4219 2406 4219 
Q 1781 4219 1451 3797 
Q 1122 3375 1075 2522 
Q 1259 2794 1537 2939 
Q 1816 3084 2150 3084 
Q 2853 3084 3261 2657 
Q 3669 2231 3669 1497 
Q 3669 778 3244 343 
Q 2819 -91 2113 -91 
Q 1303 -91 875 529 
Q 447 1150 447 2328 
Q 447 3434 972 4092 
Q 1497 4750 2381 4750 
Q 2619 4750 2861 4703 
Q 3103 4656 3366 4563 
z
" transform="scale(0.015625)"/>
      </defs>
      <use xlink:href="#DejaVuSans-31"/>
      <use xlink:href="#DejaVuSans-65" transform="translate(63.623047 0)"/>
      <use xlink:href="#DejaVuSans-36" transform="translate(125.146484 0)"/>
     </g>
    </g>
   </g>
   <g id="matplotlib.axis_2">
    <g id="ytick_1">
     <g id="line2d_10">
      <defs>
       <path id="m8070bcee95" d="M 0 0 
L -3.5 0 
" style="stroke: #000000; stroke-width: 0.8"/>
      </defs>
      <g>
       <use xlink:href="#m8070bcee95" x="46.965625" y="287.185398" style="stroke: #000000; stroke-width: 0.8"/>
      </g>
     </g>
     <g id="text_12">
      <!-- 0 -->
      <g transform="translate(33.603125 290.984616) scale(0.1 -0.1)">
       <use xlink:href="#DejaVuSans-30"/>
      </g>
     </g>
    </g>
    <g id="ytick_2">
     <g id="line2d_11">
      <g>
       <use xlink:href="#m8070bcee95" x="46.965625" y="226.981449" style="stroke: #000000; stroke-width: 0.8"/>
      </g>
     </g>
     <g id="text_13">
      <!-- 200 -->
      <g transform="translate(20.878125 230.780668) scale(0.1 -0.1)">
       <use xlink:href="#DejaVuSans-32"/>
       <use xlink:href="#DejaVuSans-30" transform="translate(63.623047 0)"/>
       <use xlink:href="#DejaVuSans-30" transform="translate(127.246094 0)"/>
      </g>
     </g>
    </g>
    <g id="ytick_3">
     <g id="line2d_12">
      <g>
       <use xlink:href="#m8070bcee95" x="46.965625" y="166.7775" style="stroke: #000000; stroke-width: 0.8"/>
      </g>
     </g>
     <g id="text_14">
      <!-- 400 -->
      <g transform="translate(20.878125 170.576719) scale(0.1 -0.1)">
       <defs>
        <path id="DejaVuSans-34" d="M 2419 4116 
L 825 1625 
L 2419 1625 
L 2419 4116 
z
M 2253 4666 
L 3047 4666 
L 3047 1625 
L 3713 1625 
L 3713 1100 
L 3047 1100 
L 3047 0 
L 2419 0 
L 2419 1100 
L 313 1100 
L 313 1709 
L 2253 4666 
z
" transform="scale(0.015625)"/>
       </defs>
       <use xlink:href="#DejaVuSans-34"/>
       <use xlink:href="#DejaVuSans-30" transform="translate(63.623047 0)"/>
       <use xlink:href="#DejaVuSans-30" transform="translate(127.246094 0)"/>
      </g>
     </g>
    </g>
    <g id="ytick_4">
     <g id="line2d_13">
      <g>
       <use xlink:href="#m8070bcee95" x="46.965625" y="106.573551" style="stroke: #000000; stroke-width: 0.8"/>
      </g>
     </g>
     <g id="text_15">
      <!-- 600 -->
      <g transform="translate(20.878125 110.37277) scale(0.1 -0.1)">
       <use xlink:href="#DejaVuSans-36"/>
       <use xlink:href="#DejaVuSans-30" transform="translate(63.623047 0)"/>
       <use xlink:href="#DejaVuSans-30" transform="translate(127.246094 0)"/>
      </g>
     </g>
    </g>
    <g id="ytick_5">
     <g id="line2d_14">
      <g>
       <use xlink:href="#m8070bcee95" x="46.965625" y="46.369603" style="stroke: #000000; stroke-width: 0.8"/>
      </g>
     </g>
     <g id="text_16">
      <!-- 800 -->
      <g transform="translate(20.878125 50.168821) scale(0.1 -0.1)">
       <defs>
        <path id="DejaVuSans-38" d="M 2034 2216 
Q 1584 2216 1326 1975 
Q 1069 1734 1069 1313 
Q 1069 891 1326 650 
Q 1584 409 2034 409 
Q 2484 409 2743 651 
Q 3003 894 3003 1313 
Q 3003 1734 2745 1975 
Q 2488 2216 2034 2216 
z
M 1403 2484 
Q 997 2584 770 2862 
Q 544 3141 544 3541 
Q 544 4100 942 4425 
Q 1341 4750 2034 4750 
Q 2731 4750 3128 4425 
Q 3525 4100 3525 3541 
Q 3525 3141 3298 2862 
Q 3072 2584 2669 2484 
Q 3125 2378 3379 2068 
Q 3634 1759 3634 1313 
Q 3634 634 3220 271 
Q 2806 -91 2034 -91 
Q 1263 -91 848 271 
Q 434 634 434 1313 
Q 434 1759 690 2068 
Q 947 2378 1403 2484 
z
M 1172 3481 
Q 1172 3119 1398 2916 
Q 1625 2713 2034 2713 
Q 2441 2713 2670 2916 
Q 2900 3119 2900 3481 
Q 2900 3844 2670 4047 
Q 2441 4250 2034 4250 
Q 1625 4250 1398 4047 
Q 1172 3844 1172 3481 
z
" transform="scale(0.015625)"/>
       </defs>
       <use xlink:href="#DejaVuSans-38"/>
       <use xlink:href="#DejaVuSans-30" transform="translate(63.623047 0)"/>
       <use xlink:href="#DejaVuSans-30" transform="translate(127.246094 0)"/>
      </g>
     </g>
    </g>
    <g id="text_17">
     <!-- right wheel velocity, rv (mm/s) -->
     <g transform="translate(14.798438 238.039375) rotate(-90) scale(0.1 -0.1)">
      <defs>
       <path id="DejaVuSans-72" d="M 2631 2963 
Q 2534 3019 2420 3045 
Q 2306 3072 2169 3072 
Q 1681 3072 1420 2755 
Q 1159 2438 1159 1844 
L 1159 0 
L 581 0 
L 581 3500 
L 1159 3500 
L 1159 2956 
Q 1341 3275 1631 3429 
Q 1922 3584 2338 3584 
Q 2397 3584 2469 3576 
Q 2541 3569 2628 3553 
L 2631 2963 
z
" transform="scale(0.015625)"/>
       <path id="DejaVuSans-67" d="M 2906 1791 
Q 2906 2416 2648 2759 
Q 2391 3103 1925 3103 
Q 1463 3103 1205 2759 
Q 947 2416 947 1791 
Q 947 1169 1205 825 
Q 1463 481 1925 481 
Q 2391 481 2648 825 
Q 2906 1169 2906 1791 
z
M 3481 434 
Q 3481 -459 3084 -895 
Q 2688 -1331 1869 -1331 
Q 1566 -1331 1297 -1286 
Q 1028 -1241 775 -1147 
L 775 -588 
Q 1028 -725 1275 -790 
Q 1522 -856 1778 -856 
Q 2344 -856 2625 -561 
Q 2906 -266 2906 331 
L 2906 616 
Q 2728 306 2450 153 
Q 2172 0 1784 0 
Q 1141 0 747 490 
Q 353 981 353 1791 
Q 353 2603 747 3093 
Q 1141 3584 1784 3584 
Q 2172 3584 2450 3431 
Q 2728 3278 2906 2969 
L 2906 3500 
L 3481 3500 
L 3481 434 
z
" transform="scale(0.015625)"/>
       <path id="DejaVuSans-68" d="M 3513 2113 
L 3513 0 
L 2938 0 
L 2938 2094 
Q 2938 2591 2744 2837 
Q 2550 3084 2163 3084 
Q 1697 3084 1428 2787 
Q 1159 2491 1159 1978 
L 1159 0 
L 581 0 
L 581 4863 
L 1159 4863 
L 1159 2956 
Q 1366 3272 1645 3428 
Q 1925 3584 2291 3584 
Q 2894 3584 3203 3211 
Q 3513 2838 3513 2113 
z
" transform="scale(0.015625)"/>
       <path id="DejaVuSans-77" d="M 269 3500 
L 844 3500 
L 1563 769 
L 2278 3500 
L 2956 3500 
L 3675 769 
L 4391 3500 
L 4966 3500 
L 4050 0 
L 3372 0 
L 2619 2869 
L 1863 0 
L 1184 0 
L 269 3500 
z
" transform="scale(0.015625)"/>
       <path id="DejaVuSans-6c" d="M 603 4863 
L 1178 4863 
L 1178 0 
L 603 0 
L 603 4863 
z
" transform="scale(0.015625)"/>
       <path id="DejaVuSans-76" d="M 191 3500 
L 800 3500 
L 1894 563 
L 2988 3500 
L 3597 3500 
L 2284 0 
L 1503 0 
L 191 3500 
z
" transform="scale(0.015625)"/>
       <path id="DejaVuSans-6f" d="M 1959 3097 
Q 1497 3097 1228 2736 
Q 959 2375 959 1747 
Q 959 1119 1226 758 
Q 1494 397 1959 397 
Q 2419 397 2687 759 
Q 2956 1122 2956 1747 
Q 2956 2369 2687 2733 
Q 2419 3097 1959 3097 
z
M 1959 3584 
Q 2709 3584 3137 3096 
Q 3566 2609 3566 1747 
Q 3566 888 3137 398 
Q 2709 -91 1959 -91 
Q 1206 -91 779 398 
Q 353 888 353 1747 
Q 353 2609 779 3096 
Q 1206 3584 1959 3584 
z
" transform="scale(0.015625)"/>
       <path id="DejaVuSans-63" d="M 3122 3366 
L 3122 2828 
Q 2878 2963 2633 3030 
Q 2388 3097 2138 3097 
Q 1578 3097 1268 2742 
Q 959 2388 959 1747 
Q 959 1106 1268 751 
Q 1578 397 2138 397 
Q 2388 397 2633 464 
Q 2878 531 3122 666 
L 3122 134 
Q 2881 22 2623 -34 
Q 2366 -91 2075 -91 
Q 1284 -91 818 406 
Q 353 903 353 1747 
Q 353 2603 823 3093 
Q 1294 3584 2113 3584 
Q 2378 3584 2631 3529 
Q 2884 3475 3122 3366 
z
" transform="scale(0.015625)"/>
       <path id="DejaVuSans-79" d="M 2059 -325 
Q 1816 -950 1584 -1140 
Q 1353 -1331 966 -1331 
L 506 -1331 
L 506 -850 
L 844 -850 
Q 1081 -850 1212 -737 
Q 1344 -625 1503 -206 
L 1606 56 
L 191 3500 
L 800 3500 
L 1894 763 
L 2988 3500 
L 3597 3500 
L 2059 -325 
z
" transform="scale(0.015625)"/>
       <path id="DejaVuSans-2f" d="M 1625 4666 
L 2156 4666 
L 531 -594 
L 0 -594 
L 1625 4666 
z
" transform="scale(0.015625)"/>
      </defs>
      <use xlink:href="#DejaVuSans-72"/>
      <use xlink:href="#DejaVuSans-69" transform="translate(41.113281 0)"/>
      <use xlink:href="#DejaVuSans-67" transform="translate(68.896484 0)"/>
      <use xlink:href="#DejaVuSans-68" transform="translate(132.373047 0)"/>
      <use xlink:href="#DejaVuSans-74" transform="translate(195.751953 0)"/>
      <use xlink:href="#DejaVuSans-20" transform="translate(234.960938 0)"/>
      <use xlink:href="#DejaVuSans-77" transform="translate(266.748047 0)"/>
      <use xlink:href="#DejaVuSans-68" transform="translate(348.535156 0)"/>
      <use xlink:href="#DejaVuSans-65" transform="translate(411.914062 0)"/>
      <use xlink:href="#DejaVuSans-65" transform="translate(473.4375 0)"/>
      <use xlink:href="#DejaVuSans-6c" transform="translate(534.960938 0)"/>
      <use xlink:href="#DejaVuSans-20" transform="translate(562.744141 0)"/>
      <use xlink:href="#DejaVuSans-76" transform="translate(594.53125 0)"/>
      <use xlink:href="#DejaVuSans-65" transform="translate(653.710938 0)"/>
      <use xlink:href="#DejaVuSans-6c" transform="translate(715.234375 0)"/>
      <use xlink:href="#DejaVuSans-6f" transform="translate(743.017578 0)"/>
      <use xlink:href="#DejaVuSans-63" transform="translate(804.199219 0)"/>
      <use xlink:href="#DejaVuSans-69" transform="translate(859.179688 0)"/>
      <use xlink:href="#DejaVuSans-74" transform="translate(886.962891 0)"/>
      <use xlink:href="#DejaVuSans-79" transform="translate(926.171875 0)"/>
      <use xlink:href="#DejaVuSans-2c" transform="translate(985.351562 0)"/>
      <use xlink:href="#DejaVuSans-20" transform="translate(1017.138672 0)"/>
      <use xlink:href="#DejaVuSans-72" transform="translate(1048.925781 0)"/>
      <use xlink:href="#DejaVuSans-76" transform="translate(1090.039062 0)"/>
      <use xlink:href="#DejaVuSans-20" transform="translate(1149.21875 0)"/>
      <use xlink:href="#DejaVuSans-28" transform="translate(1181.005859 0)"/>
      <use xlink:href="#DejaVuSans-6d" transform="translate(1220.019531 0)"/>
      <use xlink:href="#DejaVuSans-6d" transform="translate(1317.431641 0)"/>
      <use xlink:href="#DejaVuSans-2f" transform="translate(1414.84375 0)"/>
      <use xlink:href="#DejaVuSans-73" transform="translate(1448.535156 0)"/>
      <use xlink:href="#DejaVuSans-29" transform="translate(1500.634766 0)"/>
     </g>
    </g>
   </g>
   <g id="line2d_15">
    <path d="M 65.102487 287.185398 
L 69.060447 240.828357 
L 72.204199 175.808092 
L 76.248371 136.374506 
L 79.290847 108.68069 
L 83.413607 90.619505 
L 86.488572 80.685853 
L 90.650173 72.257301 
L 93.725319 67.139965 
L 97.802161 61.721609 
L 100.954444 62.022629 
L 105.031467 61.721609 
L 108.175582 58.711412 
L 112.252424 51.486938 
L 116.311115 50.282859 
L 119.462491 46.068583 
L 123.522453 44.262464 
L 126.682359 41.252267 
L 130.743047 42.155326 
L 133.818374 42.757366 
L 137.956744 38.844109 
L 141.031526 40.048188 
L 145.193128 40.048188 
L 148.270815 40.349208 
L 152.350379 39.446148 
L 155.505929 38.242069 
L 159.585493 39.145129 
L 162.748484 36.435951 
L 166.827867 37.33901 
L 169.90519 40.048188 
L 174.046464 38.844109 
L 177.12651 34.930852 
L 181.27813 37.64003 
L 184.359083 37.64003 
L 188.441551 35.231872 
L 192.599704 40.048188 
L 195.679932 45.767563 
L 199.846253 46.369603 
L 202.910327 47.272662 
L 206.991706 47.573682 
L 210.149434 51.787958 
L 214.231539 55.701215 
L 217.39689 55.099175 
L 221.478995 53.895096 
L 224.559041 56.604274 
L 228.719372 56.303254 
L 231.798874 53.895096 
L 235.965558 56.604274 
L 239.045423 56.604274 
L 243.126801 55.701215 
L 246.28453 57.206313 
L 250.36609 57.808353 
L 253.559573 59.614471 
L 257.654928 58.711412 
L 260.764195 56.303254 
L 264.952115 55.701215 
L 268.061201 56.303254 
L 272.257287 58.109373 
L 275.365829 56.002234 
L 279.476974 57.507333 
L 282.663379 59.012432 
L 286.759459 54.497136 
L 289.953124 57.206313 
L 294.064087 57.507333 
L 297.172811 58.711412 
L 301.361456 59.614471 
L 304.470723 56.303254 
L 308.666265 58.109373 
L 311.775533 56.303254 
L 315.886678 57.507333 
L 319.073446 59.313452 
L 323.184046 57.507333 
L 326.377711 56.905294 
L 330.488674 57.507333 
L 333.597761 58.711412 
L 337.786406 55.701215 
L 340.895855 58.711412 
L 344.091335 59.614471 
L 348.201209 57.507333 
L 352.310176 57.507333 
L 355.481698 58.109373 
L 359.59248 57.507333 
L 362.785963 59.614471 
L 365.89759 59.012432 
L 370.008009 57.507333 
L 373.194959 59.313452 
L 377.306104 57.507333 
L 380.499768 59.614471 
L 384.595304 56.604274 
L 387.704754 56.303254 
L 391.880512 56.905294 
L 394.989054 58.711412 
L 399.171709 57.507333 
L 402.267728 57.808353 
L 406.378147 57.507333 
L 409.564188 59.012432 
L 413.675515 57.507333 
L 416.854115 56.002234 
L 420.964897 57.507333 
L 424.074346 59.012432 
" clip-path="url(#pbeae028651)" style="fill: none; stroke: #1f77b4; stroke-width: 1.5; stroke-linecap: square"/>
   </g>
   <g id="line2d_16">
    <path d="M 65.101761 287.185398 
L 68.062925 250.460989 
L 72.107278 183.935626 
L 75.226892 139.986743 
L 79.239664 112.292926 
L 83.366781 90.920525 
L 86.4412 80.685853 
L 90.51659 77.976676 
L 93.66851 72.55832 
L 97.744262 69.849143 
L 100.887833 66.537925 
L 104.963949 67.742004 
L 108.022578 65.935886 
L 112.18182 53.895096 
L 115.26114 53.895096 
L 119.427461 54.497136 
L 122.506781 56.604274 
L 126.588342 59.915491 
L 129.729553 61.11957 
L 133.810751 64.129767 
L 136.975013 68.043024 
L 141.056936 70.150162 
L 144.136619 75.568518 
L 148.295499 78.277695 
L 151.359754 80.083814 
L 155.494857 80.986873 
L 159.575147 82.491972 
L 162.655193 83.997071 
L 166.798282 83.395031 
L 169.862901 85.502169 
L 174.029222 84.59911 
L 177.109449 83.696051 
L 181.191736 86.706248 
L 184.333673 85.20115 
L 188.41596 84.59911 
L 191.580403 83.997071 
L 195.662508 84.59911 
L 198.742736 83.696051 
L 202.902341 84.29809 
L 205.966597 82.792992 
L 210.133644 84.59911 
L 213.198081 82.792992 
L 217.280367 82.491972 
L 220.437551 86.104209 
L 224.519837 82.491972 
L 227.669035 85.502169 
L 231.750958 82.491972 
L 235.830885 84.59911 
L 238.988432 86.104209 
L 243.070718 82.491972 
L 246.235343 83.997071 
L 250.317448 82.491972 
L 253.426716 83.094011 
L 257.615542 83.696051 
L 260.709201 81.889932 
L 263.892158 82.491972 
L 268.002213 83.997071 
L 272.111543 85.803189 
L 275.284517 81.889932 
L 279.37969 83.094011 
L 282.573718 83.094011 
L 285.684982 85.803189 
L 289.795401 83.997071 
L 292.981987 85.502169 
L 297.092951 81.889932 
L 300.286797 80.685853 
L 304.368902 82.491972 
L 307.478351 83.094011 
L 311.654291 83.094011 
L 314.763559 83.094011 
L 318.959827 82.190952 
L 322.068913 80.384834 
L 326.18024 81.889932 
L 329.366645 85.502169 
L 333.477971 81.889932 
L 336.671999 80.685853 
L 340.782781 83.997071 
L 343.876802 82.190952 
L 348.065811 83.696051 
L 351.162192 82.190952 
L 355.360819 84.29809 
L 358.475714 86.104209 
L 362.58704 83.997071 
L 365.773808 82.792992 
L 369.885316 83.997071 
L 373.066457 82.491972 
L 377.177783 81.889932 
L 380.287233 83.094011 
L 384.476241 81.588913 
L 387.585508 83.094011 
L 391.781958 83.997071 
L 394.862549 80.986873 
L 398.973694 83.997071 
L 402.147575 84.59911 
L 406.258901 81.889932 
L 409.453111 83.395031 
L 413.5648 81.889932 
L 416.674612 83.094011 
L 420.863802 81.588913 
L 423.944393 81.287893 
" clip-path="url(#pbeae028651)" style="fill: none; stroke: #ff7f0e; stroke-width: 1.5; stroke-linecap: square"/>
   </g>
   <g id="line2d_17">
    <path d="M 65.101761 287.185398 
L 69.060628 238.721219 
L 72.118713 177.915231 
L 76.256538 135.772467 
L 79.298833 108.68069 
L 83.433572 97.241939 
L 86.51253 86.405228 
L 90.59409 86.405228 
L 93.751637 94.231742 
L 97.832652 102.961314 
L 100.997096 105.068453 
L 105.078656 98.747038 
L 109.158039 96.6399 
L 112.314678 91.522564 
L 116.396057 94.833781 
L 119.559774 94.532762 
L 123.64079 98.747038 
L 126.704864 99.048058 
L 130.864288 102.359275 
L 133.944153 105.369472 
L 138.110111 106.573551 
L 141.189431 108.07865 
L 145.271354 107.175591 
L 148.428356 107.175591 
L 152.510643 108.981709 
L 155.675268 107.77763 
L 159.757736 108.981709 
L 162.8376 105.670492 
L 166.997024 110.486808 
L 170.061098 109.884769 
L 174.212536 105.971512 
L 177.292219 108.07865 
L 181.374324 108.981709 
L 184.531326 107.175591 
L 188.613431 108.981709 
L 191.778056 110.486808 
L 195.85998 107.175591 
L 199.940088 106.874571 
L 203.09709 109.884769 
L 207.178832 108.981709 
L 210.343457 107.77763 
L 214.425562 108.981709 
L 217.506153 111.088847 
L 221.666484 108.37967 
L 224.731284 110.185788 
L 228.898149 108.68069 
L 231.978014 111.088847 
L 236.059756 111.088847 
L 239.217666 107.476611 
L 243.283799 110.486808 
L 246.448787 107.77763 
L 250.559931 110.486808 
L 253.669018 107.175591 
L 257.858207 109.583749 
L 260.967475 109.884769 
L 265.163743 108.07865 
L 268.273011 107.175591 
L 272.354026 108.981709 
L 275.54025 106.272532 
L 279.65085 108.37967 
L 282.844152 109.282729 
L 286.940959 107.77763 
L 290.049863 109.884769 
L 294.237964 107.476611 
L 297.333256 108.981709 
L 301.528435 109.884769 
L 304.621912 108.981709 
L 308.732513 108.37967 
L 311.918373 108.981709 
L 316.029518 108.37967 
L 319.209752 108.68069 
L 323.320171 108.37967 
L 326.428894 107.175591 
L 330.616995 107.476611 
L 333.726081 109.884769 
L 336.921379 106.874571 
L 341.003121 108.981709 
L 345.112269 108.37967 
L 348.298311 106.272532 
L 352.408367 108.37967 
L 355.602032 109.282729 
L 358.712933 107.175591 
L 362.807562 107.476611 
L 365.99433 108.981709 
L 370.104567 108.37967 
L 373.282804 108.37967 
L 377.39286 108.37967 
L 380.501402 109.884769 
L 384.689503 107.476611 
L 387.798589 107.175591 
L 391.994131 108.07865 
L 395.102673 107.175591 
L 399.200205 107.77763 
L 402.386791 108.981709 
L 406.497573 108.37967 
L 409.691601 106.874571 
L 413.802383 108.37967 
L 416.911288 107.175591 
L 421.099751 109.583749 
L 424.208474 107.175591 
" clip-path="url(#pbeae028651)" style="fill: none; stroke: #2ca02c; stroke-width: 1.5; stroke-linecap: square"/>
   </g>
   <g id="line2d_18">
    <path d="M 65.101761 287.185398 
L 68.046772 250.159969 
L 72.107823 182.430527 
L 75.232155 142.695921 
L 79.281046 120.11944 
L 83.413607 113.195986 
L 86.493109 121.925558 
L 90.574125 131.55819 
L 93.731309 133.665328 
L 97.811962 133.665328 
L 100.976587 128.849012 
L 105.058691 121.323519 
L 108.122221 121.022499 
L 112.264765 121.925558 
L 115.344812 124.634736 
L 119.510769 124.634736 
L 122.589908 127.343914 
L 126.671469 129.451052 
L 129.828652 128.547993 
L 133.910394 129.451052 
L 137.074293 134.267368 
L 141.156035 133.665328 
L 144.235174 132.762269 
L 148.393871 132.461249 
L 151.473373 132.762269 
L 155.630256 134.568388 
L 159.693485 136.976545 
L 162.77335 138.180624 
L 166.931866 136.374506 
L 170.011549 132.762269 
L 174.177507 134.869407 
L 177.257008 132.762269 
L 181.33875 133.665328 
L 184.495934 133.665328 
L 188.577857 133.665328 
L 191.742482 131.55819 
L 195.808252 133.063289 
L 198.887754 135.471447 
L 203.047359 134.568388 
L 206.127406 135.471447 
L 210.294452 134.869407 
L 213.374498 132.762269 
L 217.456785 135.772467 
L 220.614513 133.966348 
L 224.648339 133.966348 
L 227.813145 134.267368 
L 231.895613 133.665328 
L 234.97566 135.471447 
L 239.134902 136.675526 
L 242.215311 135.471447 
L 246.382176 134.869407 
L 249.491081 131.25717 
L 253.58698 134.267368 
L 256.773566 135.170427 
L 260.85313 133.665328 
L 264.033727 132.16023 
L 268.145416 132.762269 
L 271.254684 131.55819 
L 275.442966 133.665328 
L 278.551508 133.966348 
L 282.732167 133.364309 
L 285.84089 133.966348 
L 289.951854 134.869407 
L 293.138258 135.170427 
L 297.255574 133.063289 
L 300.449058 133.063289 
L 304.560021 132.762269 
L 307.668926 133.966348 
L 311.840691 133.063289 
L 314.949233 136.675526 
L 319.115191 136.675526 
L 322.223732 133.966348 
L 326.33397 132.762269 
L 329.51983 132.461249 
L 333.630068 134.869407 
L 336.823369 132.762269 
L 340.93397 134.869407 
L 344.042511 133.966348 
L 348.201209 132.461249 
L 351.310114 133.966348 
L 355.492406 133.364309 
L 358.600767 133.966348 
L 362.696666 134.267368 
L 365.882889 135.170427 
L 369.993671 132.762269 
L 373.186247 132.762269 
L 377.29721 132.762269 
L 380.405933 133.966348 
L 384.580603 135.170427 
L 387.689326 133.966348 
L 391.884687 135.772467 
L 394.993773 136.675526 
L 399.104736 134.869407 
L 402.290778 132.461249 
L 406.401197 132.762269 
L 409.579979 134.869407 
L 413.690942 132.762269 
L 416.799847 133.966348 
L 420.974698 133.063289 
L 424.083421 133.966348 
" clip-path="url(#pbeae028651)" style="fill: none; stroke: #d62728; stroke-width: 1.5; stroke-linecap: square"/>
   </g>
   <g id="line2d_19">
    <path d="M 65.102306 287.185398 
L 69.060628 236.313061 
L 72.225072 176.410132 
L 76.307721 150.221414 
L 79.355097 147.512237 
L 83.482214 157.746908 
L 86.562442 162.563224 
L 90.712791 156.241809 
L 93.791748 157.144868 
L 97.873308 158.348947 
L 101.01452 156.843849 
L 105.096262 152.027533 
L 108.244189 149.318355 
L 112.31014 151.726513 
L 115.389461 154.435691 
L 119.532549 156.241809 
L 122.596442 156.542829 
L 126.763126 154.73671 
L 129.826837 156.241809 
L 133.908761 156.241809 
L 137.065763 160.155066 
L 141.147504 160.456086 
L 145.312555 156.843849 
L 148.392782 159.854046 
L 152.458008 159.854046 
L 155.599219 156.843849 
L 159.680598 158.348947 
L 162.845405 160.456086 
L 166.926602 160.155066 
L 170.006286 159.854046 
L 174.165165 158.649967 
L 177.244848 159.854046 
L 181.41135 160.757105 
L 184.490489 162.563224 
L 188.572231 160.155066 
L 191.729414 157.746908 
L 195.810793 160.155066 
L 198.959628 159.854046 
L 203.041188 160.155066 
L 206.121416 157.144868 
L 210.280295 158.649967 
L 213.359978 157.144868 
L 217.510509 160.456086 
L 220.574764 159.252007 
L 224.656143 160.155066 
L 227.813145 160.155066 
L 231.894706 160.155066 
L 236.05903 156.843849 
L 239.139439 159.854046 
L 243.220092 158.348947 
L 246.377457 160.155066 
L 250.488239 159.252007 
L 253.68263 161.660164 
L 257.793956 157.144868 
L 260.902861 158.348947 
L 265.091506 159.553026 
L 268.187524 157.746908 
L 271.383004 161.660164 
L 275.493423 161.058125 
L 279.603116 161.058125 
L 282.789702 158.950987 
L 285.900241 158.348947 
L 290.095783 157.746908 
L 293.204506 161.058125 
L 297.29986 160.757105 
L 300.47356 161.058125 
L 304.584342 159.252007 
L 307.778007 156.542829 
L 311.888789 159.252007 
L 314.997875 158.348947 
L 319.170548 158.950987 
L 322.279453 158.348947 
L 326.475358 159.854046 
L 329.568291 160.456086 
L 333.678891 157.144868 
L 336.865114 158.649967 
L 340.96301 160.757105 
L 344.156493 158.950987 
L 348.267093 159.252007 
L 351.360752 160.456086 
L 355.548671 161.660164 
L 358.65812 158.348947 
L 362.837872 159.252007 
L 365.946051 161.058125 
L 370.056651 159.252007 
L 373.242512 161.359145 
L 377.35293 159.252007 
L 380.546414 159.252007 
L 384.625615 160.155066 
L 387.734156 161.058125 
L 391.922439 159.553026 
L 395.030799 158.348947 
L 399.226159 157.746908 
L 402.333975 158.348947 
L 406.429329 158.649967 
L 409.615371 158.649967 
L 413.726698 159.252007 
L 416.920181 158.950987 
L 421.0306 161.058125 
L 424.139323 161.058125 
" clip-path="url(#pbeae028651)" style="fill: none; stroke: #9467bd; stroke-width: 1.5; stroke-linecap: square"/>
   </g>
   <g id="line2d_20">
    <path d="M 65.104121 287.185398 
L 68.069822 253.471186 
L 72.151564 195.073356 
L 75.308566 170.991777 
L 79.375062 184.537665 
L 82.507743 193.869277 
L 86.556452 192.364178 
L 89.636136 184.236645 
L 93.794652 178.81829 
L 96.875061 176.109112 
L 101.041563 177.012171 
L 104.105093 180.925428 
L 108.186109 180.925428 
L 111.343111 181.527468 
L 115.408155 182.430527 
L 119.55687 184.537665 
L 122.589727 182.731547 
L 126.671287 182.731547 
L 129.828471 181.527468 
L 133.909487 184.838685 
L 137.074112 184.236645 
L 141.140063 184.537665 
L 144.220109 184.236645 
L 148.363924 186.343783 
L 151.443789 184.236645 
L 155.595226 184.537665 
L 158.642966 185.741744 
L 162.709462 184.537665 
L 165.850673 186.343783 
L 169.918077 184.537665 
L 173.08252 186.945823 
L 177.164625 182.731547 
L 181.229488 184.537665 
L 184.354364 185.741744 
L 188.436106 182.731547 
L 191.601094 184.236645 
L 195.682292 184.838685 
L 198.761975 186.945823 
L 202.92158 184.838685 
L 206.001263 186.945823 
L 210.168129 184.838685 
L 213.247449 184.236645 
L 217.329917 182.731547 
L 220.487282 184.236645 
L 224.554322 188.751941 
L 227.70352 186.343783 
L 231.78508 184.838685 
L 234.865308 189.655001 
L 239.025095 182.731547 
L 242.104596 181.527468 
L 246.271643 184.838685 
L 249.335899 183.634606 
L 253.447225 187.547862 
L 256.634175 185.139705 
L 260.732977 183.333586 
L 263.92755 185.440724 
L 268.039421 185.741744 
L 271.14887 182.430527 
L 275.338241 185.440724 
L 278.447872 185.139705 
L 282.644866 183.634606 
L 285.754315 187.848882 
L 289.865641 185.741744 
L 293.052772 182.430527 
L 297.165188 185.741744 
L 300.35976 185.440724 
L 304.471994 185.741744 
L 307.58108 182.430527 
L 311.770814 185.440724 
L 314.880082 185.139705 
L 319.076894 185.741744 
L 322.186888 185.139705 
L 326.298396 185.741744 
L 329.485164 185.139705 
L 333.596672 181.527468 
L 336.791244 185.440724 
L 340.903115 185.741744 
L 344.012383 187.848882 
L 348.186508 187.246843 
L 351.295957 185.139705 
L 355.492406 185.741744 
L 358.588606 184.838685 
L 362.69957 183.634606 
L 365.885248 182.430527 
L 369.996938 185.741744 
L 373.190784 185.139705 
L 376.302593 182.430527 
L 380.400125 185.139705 
L 383.586893 187.547862 
L 387.697857 183.634606 
L 390.863389 184.236645 
L 394.974171 185.741744 
L 398.083257 185.139705 
L 402.272265 185.440724 
L 405.381533 185.139705 
L 409.577801 185.741744 
L 412.687069 187.848882 
L 416.79785 185.741744 
L 419.984437 182.430527 
L 424.096126 183.634606 
L 427.290517 185.440724 
" clip-path="url(#pbeae028651)" style="fill: none; stroke: #8c564b; stroke-width: 1.5; stroke-linecap: square"/>
   </g>
   <g id="line2d_21">
    <path d="M 65.104847 287.185398 
L 68.070185 261.899739 
L 72.198028 220.660034 
L 75.26301 211.027403 
L 79.344207 215.542699 
L 82.501209 218.552896 
L 86.583496 209.522304 
L 89.763367 203.200889 
L 93.844746 201.394771 
L 96.924429 205.910067 
L 101.035937 205.910067 
L 104.115983 208.619245 
L 108.282485 207.114146 
L 111.361443 205.910067 
L 115.426668 211.328422 
L 118.566972 210.124343 
L 122.648169 211.629442 
L 125.81225 210.726383 
L 129.893084 207.415166 
L 133.972467 209.522304 
L 137.113497 210.124343 
L 141.194331 209.522304 
L 144.358956 210.726383 
L 148.439972 211.629442 
L 151.519837 211.328422 
L 155.678898 211.027403 
L 158.742791 211.027403 
L 162.909656 211.027403 
L 165.988976 211.328422 
L 170.070718 207.415166 
L 173.227357 210.425363 
L 177.308554 211.629442 
L 180.473361 213.43556 
L 184.554921 211.629442 
L 187.634423 211.328422 
L 191.793121 211.027403 
L 194.856469 211.027403 
L 199.022608 208.920264 
L 202.102291 208.619245 
L 206.183852 211.629442 
L 209.340854 210.425363 
L 213.406079 209.221284 
L 216.570704 208.017205 
L 220.651902 213.43556 
L 224.731284 211.629442 
L 227.888105 210.425363 
L 231.953693 207.114146 
L 235.101802 213.134541 
L 239.183181 209.522304 
L 242.262682 208.619245 
L 246.420836 211.027403 
L 249.52974 211.930462 
L 253.725282 209.522304 
L 256.834187 211.930462 
L 260.944424 210.124343 
L 264.131011 211.328422 
L 268.241611 211.930462 
L 271.435458 208.920264 
L 275.546421 210.124343 
L 278.655507 211.930462 
L 282.843789 209.522304 
L 285.953057 209.522304 
L 289.149081 211.328422 
L 293.259319 210.124343 
L 297.368648 210.124343 
L 300.555053 211.328422 
L 303.665773 212.231481 
L 307.861315 209.522304 
L 310.970764 211.930462 
L 315.081728 210.124343 
L 318.268133 211.328422 
L 322.379277 208.017205 
L 325.572942 211.328422 
L 329.684269 210.124343 
L 332.793355 209.522304 
L 336.982726 215.542699 
L 340.091449 214.639639 
L 344.287173 209.522304 
L 347.396622 209.522304 
L 351.507948 211.930462 
L 354.679107 208.318225 
L 358.790797 208.017205 
L 361.984825 211.328422 
L 366.082175 209.823324 
L 369.19108 209.522304 
L 373.379907 211.328422 
L 376.488993 211.930462 
L 380.672193 209.221284 
L 383.781642 211.930462 
L 387.877723 211.930462 
L 391.064309 208.619245 
L 395.175998 212.231481 
L 398.369663 211.328422 
L 402.45195 209.522304 
L 405.561036 209.522304 
L 409.750225 209.522304 
L 412.859493 211.930462 
L 417.056306 209.522304 
L 420.165029 209.522304 
L 424.2769 212.231481 
L 427.463668 208.619245 
" clip-path="url(#pbeae028651)" style="fill: none; stroke: #e377c2; stroke-width: 1.5; stroke-linecap: square"/>
   </g>
   <g id="line2d_22">
    <path d="M 65.104121 287.185398 
L 68.108482 270.629312 
L 72.189679 244.440594 
L 75.346863 239.624278 
L 79.413177 244.139574 
L 82.577621 242.333456 
L 86.659544 229.991646 
L 89.771171 230.894706 
L 93.962902 231.496745 
L 97.075074 233.603883 
L 101.274609 235.711022 
L 104.369901 236.012041 
L 108.45128 232.098785 
L 111.608282 234.506943 
L 115.689842 236.012041 
L 118.838495 234.205923 
L 122.920056 236.012041 
L 126.000102 235.711022 
L 130.143735 236.9151 
L 133.208536 238.119179 
L 137.375401 239.022239 
L 141.439537 237.81816 
L 144.51922 233.001844 
L 148.677374 236.9151 
L 151.757238 238.420199 
L 155.923378 235.108982 
L 159.002698 235.711022 
L 163.084077 234.205923 
L 166.241442 234.506943 
L 170.322821 236.012041 
L 173.487083 234.506943 
L 177.568462 238.119179 
L 180.647963 235.711022 
L 184.791234 234.807962 
L 187.855126 235.410002 
L 192.022173 237.21612 
L 195.101856 235.711022 
L 199.183961 236.012041 
L 202.325173 236.9151 
L 206.407278 236.012041 
L 209.57154 237.21612 
L 213.653826 238.119179 
L 216.733872 233.001844 
L 220.876961 236.9151 
L 223.956644 235.711022 
L 228.123328 235.108982 
L 232.202892 236.012041 
L 235.282757 235.711022 
L 239.441999 235.108982 
L 242.522045 238.420199 
L 246.672394 234.807962 
L 249.781843 236.313061 
L 253.892806 236.614081 
L 257.078485 237.51714 
L 261.189449 236.614081 
L 264.383114 235.108982 
L 268.494077 236.614081 
L 271.602982 236.313061 
L 274.77886 237.21612 
L 278.88946 236.614081 
L 282.083669 235.108982 
L 286.19427 236.614081 
L 289.3039 236.313061 
L 293.492545 235.410002 
L 296.60145 233.603883 
L 300.7979 237.51714 
L 303.906441 236.313061 
L 308.017768 236.614081 
L 311.204536 234.807962 
L 315.315681 238.420199 
L 318.509708 237.51714 
L 322.621035 234.506943 
L 325.730121 236.313061 
L 329.918585 235.410002 
L 333.027852 236.313061 
L 337.223757 235.410002 
L 340.333207 236.313061 
L 344.444351 234.506943 
L 347.630938 237.51714 
L 351.729015 236.313061 
L 354.906526 237.21612 
L 359.017489 236.614081 
L 362.126757 236.313061 
L 366.314858 237.51714 
L 369.410876 236.012041 
L 373.590991 237.21612 
L 376.699532 239.022239 
L 380.810859 234.506943 
L 383.997264 237.51714 
L 388.063578 236.012041 
L 391.25688 237.51714 
L 395.368206 234.506943 
L 398.462409 233.302864 
L 402.650692 235.410002 
L 405.759596 239.022239 
L 409.955138 235.410002 
L 413.064225 233.603883 
L 417.175369 236.614081 
L 420.361774 237.51714 
L 424.472193 236.614081 
L 427.666403 235.108982 
" clip-path="url(#pbeae028651)" style="fill: none; stroke: #7f7f7f; stroke-width: 1.5; stroke-linecap: square"/>
   </g>
   <g id="line2d_23">
    <path d="M 65.104121 287.185398 
L 72.085499 268.522174 
L 76.175408 268.823193 
L 79.20409 270.629312 
L 83.319954 264.909937 
L 86.364608 259.792601 
L 90.429107 260.69566 
L 93.550535 263.103818 
L 97.582002 260.394641 
L 101.695869 260.99668 
L 104.739978 262.501779 
L 108.785602 262.501779 
L 111.907393 260.69566 
L 115.95338 262.501779 
L 119.082249 263.404838 
L 123.128599 260.394641 
L 126.157099 262.501779 
L 130.281493 260.99668 
L 134.294991 262.200759 
L 137.424406 260.69566 
L 141.470574 260.394641 
L 144.515227 259.792601 
L 148.63944 260.99668 
L 151.683187 262.501779 
L 155.814296 260.99668 
L 158.826462 262.501779 
L 162.87263 262.501779 
L 166.994483 258.889542 
L 170.038774 262.501779 
L 174.169521 263.103818 
L 177.213449 259.792601 
L 181.243645 260.394641 
L 184.365799 265.812996 
L 188.411785 260.394641 
L 191.540655 260.69566 
L 195.587004 260.394641 
L 199.632265 262.501779 
L 202.753693 263.103818 
L 206.783708 262.501779 
L 209.912577 260.69566 
L 213.959834 260.394641 
L 217.003944 262.501779 
L 221.127975 263.103818 
L 224.172084 259.792601 
L 228.287767 260.99668 
L 232.332301 262.501779 
L 235.376592 262.501779 
L 239.500079 260.99668 
L 242.544551 259.792601 
L 246.675479 263.103818 
L 249.749355 260.093621 
L 253.811676 262.501779 
L 256.947443 260.69566 
L 261.02374 262.802798 
L 264.182557 266.114016 
L 268.258672 260.69566 
L 271.332729 257.384443 
L 275.486345 263.103818 
L 279.54667 262.501779 
L 282.705305 260.99668 
L 286.781965 258.588522 
L 289.840594 262.802798 
L 293.993847 263.103818 
L 297.068085 262.802798 
L 301.228417 261.2977 
L 304.288135 262.802798 
L 308.350819 260.69566 
L 311.486767 260.69566 
L 315.56252 262.802798 
L 318.720974 263.404838 
L 322.797452 262.802798 
L 325.871146 260.093621 
L 330.025125 263.103818 
L 333.08321 260.093621 
L 337.231017 260.99668 
L 340.288558 262.802798 
L 344.349064 262.501779 
L 348.501046 263.103818 
L 351.57474 260.093621 
L 355.73489 261.2977 
L 358.809491 262.802798 
L 362.884699 260.69566 
L 366.036256 260.69566 
L 370.097489 262.501779 
L 373.256306 260.99668 
L 377.332421 262.802798 
L 380.406841 260.093621 
L 384.560456 261.2977 
L 387.634332 262.802798 
L 391.795207 261.2977 
L 394.855289 262.802798 
L 398.93086 260.69566 
L 402.082235 260.69566 
L 406.158532 262.802798 
L 409.317168 260.99668 
L 413.393102 262.802798 
L 417.467039 260.69566 
L 420.604621 263.404838 
L 424.680736 260.69566 
L 427.824489 260.69566 
" clip-path="url(#pbeae028651)" style="fill: none; stroke: #bcbd22; stroke-width: 1.5; stroke-linecap: square"/>
   </g>
   <g id="patch_3">
    <path d="M 46.965625 299.798125 
L 46.965625 22.318125 
" style="fill: none; stroke: #000000; stroke-width: 0.8; stroke-linejoin: miter; stroke-linecap: square"/>
   </g>
   <g id="patch_4">
    <path d="M 445.960625 299.798125 
L 445.960625 22.318125 
" style="fill: none; stroke: #000000; stroke-width: 0.8; stroke-linejoin: miter; stroke-linecap: square"/>
   </g>
   <g id="patch_5">
    <path d="M 46.965625 299.798125 
L 445.960625 299.798125 
" style="fill: none; stroke: #000000; stroke-width: 0.8; stroke-linejoin: miter; stroke-linecap: square"/>
   </g>
   <g id="patch_6">
    <path d="M 46.965625 22.318125 
L 445.960625 22.318125 
" style="fill: none; stroke: #000000; stroke-width: 0.8; stroke-linejoin: miter; stroke-linecap: square"/>
   </g>
   <g id="text_18">
    <!-- right velocity vs. time -->
    <g transform="translate(181.055625 16.318125) scale(0.12 -0.12)">
     <use xlink:href="#DejaVuSans-72"/>
     <use xlink:href="#DejaVuSans-69" transform="translate(41.113281 0)"/>
     <use xlink:href="#DejaVuSans-67" transform="translate(68.896484 0)"/>
     <use xlink:href="#DejaVuSans-68" transform="translate(132.373047 0)"/>
     <use xlink:href="#DejaVuSans-74" transform="translate(195.751953 0)"/>
     <use xlink:href="#DejaVuSans-20" transform="translate(234.960938 0)"/>
     <use xlink:href="#DejaVuSans-76" transform="translate(266.748047 0)"/>
     <use xlink:href="#DejaVuSans-65" transform="translate(325.927734 0)"/>
     <use xlink:href="#DejaVuSans-6c" transform="translate(387.451172 0)"/>
     <use xlink:href="#DejaVuSans-6f" transform="translate(415.234375 0)"/>
     <use xlink:href="#DejaVuSans-63" transform="translate(476.416016 0)"/>
     <use xlink:href="#DejaVuSans-69" transform="translate(531.396484 0)"/>
     <use xlink:href="#DejaVuSans-74" transform="translate(559.179688 0)"/>
     <use xlink:href="#DejaVuSans-79" transform="translate(598.388672 0)"/>
     <use xlink:href="#DejaVuSans-20" transform="translate(657.568359 0)"/>
     <use xlink:href="#DejaVuSans-76" transform="translate(689.355469 0)"/>
     <use xlink:href="#DejaVuSans-73" transform="translate(748.535156 0)"/>
     <use xlink:href="#DejaVuSans-2e" transform="translate(800.634766 0)"/>
     <use xlink:href="#DejaVuSans-20" transform="translate(832.421875 0)"/>
     <use xlink:href="#DejaVuSans-74" transform="translate(864.208984 0)"/>
     <use xlink:href="#DejaVuSans-69" transform="translate(903.417969 0)"/>
     <use xlink:href="#DejaVuSans-6d" transform="translate(931.201172 0)"/>
     <use xlink:href="#DejaVuSans-65" transform="translate(1028.613281 0)"/>
    </g>
   </g>
   <g id="legend_1">
    <g id="patch_7">
     <path d="M 322.435625 294.798125 
L 438.960625 294.798125 
Q 440.960625 294.798125 440.960625 292.798125 
L 440.960625 161.695 
Q 440.960625 159.695 438.960625 159.695 
L 322.435625 159.695 
Q 320.435625 159.695 320.435625 161.695 
L 320.435625 292.798125 
Q 320.435625 294.798125 322.435625 294.798125 
z
" style="fill: #ffffff; opacity: 0.8; stroke: #cccccc; stroke-linejoin: miter"/>
    </g>
    <g id="line2d_24">
     <path d="M 324.435625 167.793438 
L 334.435625 167.793438 
L 344.435625 167.793438 
" style="fill: none; stroke: #1f77b4; stroke-width: 1.5; stroke-linecap: square"/>
    </g>
    <g id="text_19">
     <!-- Ref Speed = 765 -->
     <g transform="translate(352.435625 171.293438) scale(0.1 -0.1)">
      <defs>
       <path id="DejaVuSans-52" d="M 2841 2188 
Q 3044 2119 3236 1894 
Q 3428 1669 3622 1275 
L 4263 0 
L 3584 0 
L 2988 1197 
Q 2756 1666 2539 1819 
Q 2322 1972 1947 1972 
L 1259 1972 
L 1259 0 
L 628 0 
L 628 4666 
L 2053 4666 
Q 2853 4666 3247 4331 
Q 3641 3997 3641 3322 
Q 3641 2881 3436 2590 
Q 3231 2300 2841 2188 
z
M 1259 4147 
L 1259 2491 
L 2053 2491 
Q 2509 2491 2742 2702 
Q 2975 2913 2975 3322 
Q 2975 3731 2742 3939 
Q 2509 4147 2053 4147 
L 1259 4147 
z
" transform="scale(0.015625)"/>
       <path id="DejaVuSans-66" d="M 2375 4863 
L 2375 4384 
L 1825 4384 
Q 1516 4384 1395 4259 
Q 1275 4134 1275 3809 
L 1275 3500 
L 2222 3500 
L 2222 3053 
L 1275 3053 
L 1275 0 
L 697 0 
L 697 3053 
L 147 3053 
L 147 3500 
L 697 3500 
L 697 3744 
Q 697 4328 969 4595 
Q 1241 4863 1831 4863 
L 2375 4863 
z
" transform="scale(0.015625)"/>
       <path id="DejaVuSans-53" d="M 3425 4513 
L 3425 3897 
Q 3066 4069 2747 4153 
Q 2428 4238 2131 4238 
Q 1616 4238 1336 4038 
Q 1056 3838 1056 3469 
Q 1056 3159 1242 3001 
Q 1428 2844 1947 2747 
L 2328 2669 
Q 3034 2534 3370 2195 
Q 3706 1856 3706 1288 
Q 3706 609 3251 259 
Q 2797 -91 1919 -91 
Q 1588 -91 1214 -16 
Q 841 59 441 206 
L 441 856 
Q 825 641 1194 531 
Q 1563 422 1919 422 
Q 2459 422 2753 634 
Q 3047 847 3047 1241 
Q 3047 1584 2836 1778 
Q 2625 1972 2144 2069 
L 1759 2144 
Q 1053 2284 737 2584 
Q 422 2884 422 3419 
Q 422 4038 858 4394 
Q 1294 4750 2059 4750 
Q 2388 4750 2728 4690 
Q 3069 4631 3425 4513 
z
" transform="scale(0.015625)"/>
       <path id="DejaVuSans-70" d="M 1159 525 
L 1159 -1331 
L 581 -1331 
L 581 3500 
L 1159 3500 
L 1159 2969 
Q 1341 3281 1617 3432 
Q 1894 3584 2278 3584 
Q 2916 3584 3314 3078 
Q 3713 2572 3713 1747 
Q 3713 922 3314 415 
Q 2916 -91 2278 -91 
Q 1894 -91 1617 61 
Q 1341 213 1159 525 
z
M 3116 1747 
Q 3116 2381 2855 2742 
Q 2594 3103 2138 3103 
Q 1681 3103 1420 2742 
Q 1159 2381 1159 1747 
Q 1159 1113 1420 752 
Q 1681 391 2138 391 
Q 2594 391 2855 752 
Q 3116 1113 3116 1747 
z
" transform="scale(0.015625)"/>
       <path id="DejaVuSans-64" d="M 2906 2969 
L 2906 4863 
L 3481 4863 
L 3481 0 
L 2906 0 
L 2906 525 
Q 2725 213 2448 61 
Q 2172 -91 1784 -91 
Q 1150 -91 751 415 
Q 353 922 353 1747 
Q 353 2572 751 3078 
Q 1150 3584 1784 3584 
Q 2172 3584 2448 3432 
Q 2725 3281 2906 2969 
z
M 947 1747 
Q 947 1113 1208 752 
Q 1469 391 1925 391 
Q 2381 391 2643 752 
Q 2906 1113 2906 1747 
Q 2906 2381 2643 2742 
Q 2381 3103 1925 3103 
Q 1469 3103 1208 2742 
Q 947 2381 947 1747 
z
" transform="scale(0.015625)"/>
       <path id="DejaVuSans-3d" d="M 678 2906 
L 4684 2906 
L 4684 2381 
L 678 2381 
L 678 2906 
z
M 678 1631 
L 4684 1631 
L 4684 1100 
L 678 1100 
L 678 1631 
z
" transform="scale(0.015625)"/>
      </defs>
      <use xlink:href="#DejaVuSans-52"/>
      <use xlink:href="#DejaVuSans-65" transform="translate(64.982422 0)"/>
      <use xlink:href="#DejaVuSans-66" transform="translate(126.505859 0)"/>
      <use xlink:href="#DejaVuSans-20" transform="translate(161.710938 0)"/>
      <use xlink:href="#DejaVuSans-53" transform="translate(193.498047 0)"/>
      <use xlink:href="#DejaVuSans-70" transform="translate(256.974609 0)"/>
      <use xlink:href="#DejaVuSans-65" transform="translate(320.451172 0)"/>
      <use xlink:href="#DejaVuSans-65" transform="translate(381.974609 0)"/>
      <use xlink:href="#DejaVuSans-64" transform="translate(443.498047 0)"/>
      <use xlink:href="#DejaVuSans-20" transform="translate(506.974609 0)"/>
      <use xlink:href="#DejaVuSans-3d" transform="translate(538.761719 0)"/>
      <use xlink:href="#DejaVuSans-20" transform="translate(622.550781 0)"/>
      <use xlink:href="#DejaVuSans-37" transform="translate(654.337891 0)"/>
      <use xlink:href="#DejaVuSans-36" transform="translate(717.960938 0)"/>
      <use xlink:href="#DejaVuSans-35" transform="translate(781.583984 0)"/>
     </g>
    </g>
    <g id="line2d_25">
     <path d="M 324.435625 182.471563 
L 334.435625 182.471563 
L 344.435625 182.471563 
" style="fill: none; stroke: #ff7f0e; stroke-width: 1.5; stroke-linecap: square"/>
    </g>
    <g id="text_20">
     <!-- Ref Speed = 680 -->
     <g transform="translate(352.435625 185.971563) scale(0.1 -0.1)">
      <use xlink:href="#DejaVuSans-52"/>
      <use xlink:href="#DejaVuSans-65" transform="translate(64.982422 0)"/>
      <use xlink:href="#DejaVuSans-66" transform="translate(126.505859 0)"/>
      <use xlink:href="#DejaVuSans-20" transform="translate(161.710938 0)"/>
      <use xlink:href="#DejaVuSans-53" transform="translate(193.498047 0)"/>
      <use xlink:href="#DejaVuSans-70" transform="translate(256.974609 0)"/>
      <use xlink:href="#DejaVuSans-65" transform="translate(320.451172 0)"/>
      <use xlink:href="#DejaVuSans-65" transform="translate(381.974609 0)"/>
      <use xlink:href="#DejaVuSans-64" transform="translate(443.498047 0)"/>
      <use xlink:href="#DejaVuSans-20" transform="translate(506.974609 0)"/>
      <use xlink:href="#DejaVuSans-3d" transform="translate(538.761719 0)"/>
      <use xlink:href="#DejaVuSans-20" transform="translate(622.550781 0)"/>
      <use xlink:href="#DejaVuSans-36" transform="translate(654.337891 0)"/>
      <use xlink:href="#DejaVuSans-38" transform="translate(717.960938 0)"/>
      <use xlink:href="#DejaVuSans-30" transform="translate(781.583984 0)"/>
     </g>
    </g>
    <g id="line2d_26">
     <path d="M 324.435625 197.149688 
L 334.435625 197.149688 
L 344.435625 197.149688 
" style="fill: none; stroke: #2ca02c; stroke-width: 1.5; stroke-linecap: square"/>
    </g>
    <g id="text_21">
     <!-- Ref Speed = 595 -->
     <g transform="translate(352.435625 200.649688) scale(0.1 -0.1)">
      <defs>
       <path id="DejaVuSans-39" d="M 703 97 
L 703 672 
Q 941 559 1184 500 
Q 1428 441 1663 441 
Q 2288 441 2617 861 
Q 2947 1281 2994 2138 
Q 2813 1869 2534 1725 
Q 2256 1581 1919 1581 
Q 1219 1581 811 2004 
Q 403 2428 403 3163 
Q 403 3881 828 4315 
Q 1253 4750 1959 4750 
Q 2769 4750 3195 4129 
Q 3622 3509 3622 2328 
Q 3622 1225 3098 567 
Q 2575 -91 1691 -91 
Q 1453 -91 1209 -44 
Q 966 3 703 97 
z
M 1959 2075 
Q 2384 2075 2632 2365 
Q 2881 2656 2881 3163 
Q 2881 3666 2632 3958 
Q 2384 4250 1959 4250 
Q 1534 4250 1286 3958 
Q 1038 3666 1038 3163 
Q 1038 2656 1286 2365 
Q 1534 2075 1959 2075 
z
" transform="scale(0.015625)"/>
      </defs>
      <use xlink:href="#DejaVuSans-52"/>
      <use xlink:href="#DejaVuSans-65" transform="translate(64.982422 0)"/>
      <use xlink:href="#DejaVuSans-66" transform="translate(126.505859 0)"/>
      <use xlink:href="#DejaVuSans-20" transform="translate(161.710938 0)"/>
      <use xlink:href="#DejaVuSans-53" transform="translate(193.498047 0)"/>
      <use xlink:href="#DejaVuSans-70" transform="translate(256.974609 0)"/>
      <use xlink:href="#DejaVuSans-65" transform="translate(320.451172 0)"/>
      <use xlink:href="#DejaVuSans-65" transform="translate(381.974609 0)"/>
      <use xlink:href="#DejaVuSans-64" transform="translate(443.498047 0)"/>
      <use xlink:href="#DejaVuSans-20" transform="translate(506.974609 0)"/>
      <use xlink:href="#DejaVuSans-3d" transform="translate(538.761719 0)"/>
      <use xlink:href="#DejaVuSans-20" transform="translate(622.550781 0)"/>
      <use xlink:href="#DejaVuSans-35" transform="translate(654.337891 0)"/>
      <use xlink:href="#DejaVuSans-39" transform="translate(717.960938 0)"/>
      <use xlink:href="#DejaVuSans-35" transform="translate(781.583984 0)"/>
     </g>
    </g>
    <g id="line2d_27">
     <path d="M 324.435625 211.827813 
L 334.435625 211.827813 
L 344.435625 211.827813 
" style="fill: none; stroke: #d62728; stroke-width: 1.5; stroke-linecap: square"/>
    </g>
    <g id="text_22">
     <!-- Ref Speed = 510 -->
     <g transform="translate(352.435625 215.327813) scale(0.1 -0.1)">
      <use xlink:href="#DejaVuSans-52"/>
      <use xlink:href="#DejaVuSans-65" transform="translate(64.982422 0)"/>
      <use xlink:href="#DejaVuSans-66" transform="translate(126.505859 0)"/>
      <use xlink:href="#DejaVuSans-20" transform="translate(161.710938 0)"/>
      <use xlink:href="#DejaVuSans-53" transform="translate(193.498047 0)"/>
      <use xlink:href="#DejaVuSans-70" transform="translate(256.974609 0)"/>
      <use xlink:href="#DejaVuSans-65" transform="translate(320.451172 0)"/>
      <use xlink:href="#DejaVuSans-65" transform="translate(381.974609 0)"/>
      <use xlink:href="#DejaVuSans-64" transform="translate(443.498047 0)"/>
      <use xlink:href="#DejaVuSans-20" transform="translate(506.974609 0)"/>
      <use xlink:href="#DejaVuSans-3d" transform="translate(538.761719 0)"/>
      <use xlink:href="#DejaVuSans-20" transform="translate(622.550781 0)"/>
      <use xlink:href="#DejaVuSans-35" transform="translate(654.337891 0)"/>
      <use xlink:href="#DejaVuSans-31" transform="translate(717.960938 0)"/>
      <use xlink:href="#DejaVuSans-30" transform="translate(781.583984 0)"/>
     </g>
    </g>
    <g id="line2d_28">
     <path d="M 324.435625 226.505938 
L 334.435625 226.505938 
L 344.435625 226.505938 
" style="fill: none; stroke: #9467bd; stroke-width: 1.5; stroke-linecap: square"/>
    </g>
    <g id="text_23">
     <!-- Ref Speed = 425 -->
     <g transform="translate(352.435625 230.005938) scale(0.1 -0.1)">
      <use xlink:href="#DejaVuSans-52"/>
      <use xlink:href="#DejaVuSans-65" transform="translate(64.982422 0)"/>
      <use xlink:href="#DejaVuSans-66" transform="translate(126.505859 0)"/>
      <use xlink:href="#DejaVuSans-20" transform="translate(161.710938 0)"/>
      <use xlink:href="#DejaVuSans-53" transform="translate(193.498047 0)"/>
      <use xlink:href="#DejaVuSans-70" transform="translate(256.974609 0)"/>
      <use xlink:href="#DejaVuSans-65" transform="translate(320.451172 0)"/>
      <use xlink:href="#DejaVuSans-65" transform="translate(381.974609 0)"/>
      <use xlink:href="#DejaVuSans-64" transform="translate(443.498047 0)"/>
      <use xlink:href="#DejaVuSans-20" transform="translate(506.974609 0)"/>
      <use xlink:href="#DejaVuSans-3d" transform="translate(538.761719 0)"/>
      <use xlink:href="#DejaVuSans-20" transform="translate(622.550781 0)"/>
      <use xlink:href="#DejaVuSans-34" transform="translate(654.337891 0)"/>
      <use xlink:href="#DejaVuSans-32" transform="translate(717.960938 0)"/>
      <use xlink:href="#DejaVuSans-35" transform="translate(781.583984 0)"/>
     </g>
    </g>
    <g id="line2d_29">
     <path d="M 324.435625 241.184063 
L 334.435625 241.184063 
L 344.435625 241.184063 
" style="fill: none; stroke: #8c564b; stroke-width: 1.5; stroke-linecap: square"/>
    </g>
    <g id="text_24">
     <!-- Ref Speed = 340 -->
     <g transform="translate(352.435625 244.684063) scale(0.1 -0.1)">
      <defs>
       <path id="DejaVuSans-33" d="M 2597 2516 
Q 3050 2419 3304 2112 
Q 3559 1806 3559 1356 
Q 3559 666 3084 287 
Q 2609 -91 1734 -91 
Q 1441 -91 1130 -33 
Q 819 25 488 141 
L 488 750 
Q 750 597 1062 519 
Q 1375 441 1716 441 
Q 2309 441 2620 675 
Q 2931 909 2931 1356 
Q 2931 1769 2642 2001 
Q 2353 2234 1838 2234 
L 1294 2234 
L 1294 2753 
L 1863 2753 
Q 2328 2753 2575 2939 
Q 2822 3125 2822 3475 
Q 2822 3834 2567 4026 
Q 2313 4219 1838 4219 
Q 1578 4219 1281 4162 
Q 984 4106 628 3988 
L 628 4550 
Q 988 4650 1302 4700 
Q 1616 4750 1894 4750 
Q 2613 4750 3031 4423 
Q 3450 4097 3450 3541 
Q 3450 3153 3228 2886 
Q 3006 2619 2597 2516 
z
" transform="scale(0.015625)"/>
      </defs>
      <use xlink:href="#DejaVuSans-52"/>
      <use xlink:href="#DejaVuSans-65" transform="translate(64.982422 0)"/>
      <use xlink:href="#DejaVuSans-66" transform="translate(126.505859 0)"/>
      <use xlink:href="#DejaVuSans-20" transform="translate(161.710938 0)"/>
      <use xlink:href="#DejaVuSans-53" transform="translate(193.498047 0)"/>
      <use xlink:href="#DejaVuSans-70" transform="translate(256.974609 0)"/>
      <use xlink:href="#DejaVuSans-65" transform="translate(320.451172 0)"/>
      <use xlink:href="#DejaVuSans-65" transform="translate(381.974609 0)"/>
      <use xlink:href="#DejaVuSans-64" transform="translate(443.498047 0)"/>
      <use xlink:href="#DejaVuSans-20" transform="translate(506.974609 0)"/>
      <use xlink:href="#DejaVuSans-3d" transform="translate(538.761719 0)"/>
      <use xlink:href="#DejaVuSans-20" transform="translate(622.550781 0)"/>
      <use xlink:href="#DejaVuSans-33" transform="translate(654.337891 0)"/>
      <use xlink:href="#DejaVuSans-34" transform="translate(717.960938 0)"/>
      <use xlink:href="#DejaVuSans-30" transform="translate(781.583984 0)"/>
     </g>
    </g>
    <g id="line2d_30">
     <path d="M 324.435625 255.862188 
L 334.435625 255.862188 
L 344.435625 255.862188 
" style="fill: none; stroke: #e377c2; stroke-width: 1.5; stroke-linecap: square"/>
    </g>
    <g id="text_25">
     <!-- Ref Speed = 255 -->
     <g transform="translate(352.435625 259.362188) scale(0.1 -0.1)">
      <use xlink:href="#DejaVuSans-52"/>
      <use xlink:href="#DejaVuSans-65" transform="translate(64.982422 0)"/>
      <use xlink:href="#DejaVuSans-66" transform="translate(126.505859 0)"/>
      <use xlink:href="#DejaVuSans-20" transform="translate(161.710938 0)"/>
      <use xlink:href="#DejaVuSans-53" transform="translate(193.498047 0)"/>
      <use xlink:href="#DejaVuSans-70" transform="translate(256.974609 0)"/>
      <use xlink:href="#DejaVuSans-65" transform="translate(320.451172 0)"/>
      <use xlink:href="#DejaVuSans-65" transform="translate(381.974609 0)"/>
      <use xlink:href="#DejaVuSans-64" transform="translate(443.498047 0)"/>
      <use xlink:href="#DejaVuSans-20" transform="translate(506.974609 0)"/>
      <use xlink:href="#DejaVuSans-3d" transform="translate(538.761719 0)"/>
      <use xlink:href="#DejaVuSans-20" transform="translate(622.550781 0)"/>
      <use xlink:href="#DejaVuSans-32" transform="translate(654.337891 0)"/>
      <use xlink:href="#DejaVuSans-35" transform="translate(717.960938 0)"/>
      <use xlink:href="#DejaVuSans-35" transform="translate(781.583984 0)"/>
     </g>
    </g>
    <g id="line2d_31">
     <path d="M 324.435625 270.540313 
L 334.435625 270.540313 
L 344.435625 270.540313 
" style="fill: none; stroke: #7f7f7f; stroke-width: 1.5; stroke-linecap: square"/>
    </g>
    <g id="text_26">
     <!-- Ref Speed = 170 -->
     <g transform="translate(352.435625 274.040313) scale(0.1 -0.1)">
      <use xlink:href="#DejaVuSans-52"/>
      <use xlink:href="#DejaVuSans-65" transform="translate(64.982422 0)"/>
      <use xlink:href="#DejaVuSans-66" transform="translate(126.505859 0)"/>
      <use xlink:href="#DejaVuSans-20" transform="translate(161.710938 0)"/>
      <use xlink:href="#DejaVuSans-53" transform="translate(193.498047 0)"/>
      <use xlink:href="#DejaVuSans-70" transform="translate(256.974609 0)"/>
      <use xlink:href="#DejaVuSans-65" transform="translate(320.451172 0)"/>
      <use xlink:href="#DejaVuSans-65" transform="translate(381.974609 0)"/>
      <use xlink:href="#DejaVuSans-64" transform="translate(443.498047 0)"/>
      <use xlink:href="#DejaVuSans-20" transform="translate(506.974609 0)"/>
      <use xlink:href="#DejaVuSans-3d" transform="translate(538.761719 0)"/>
      <use xlink:href="#DejaVuSans-20" transform="translate(622.550781 0)"/>
      <use xlink:href="#DejaVuSans-31" transform="translate(654.337891 0)"/>
      <use xlink:href="#DejaVuSans-37" transform="translate(717.960938 0)"/>
      <use xlink:href="#DejaVuSans-30" transform="translate(781.583984 0)"/>
     </g>
    </g>
    <g id="line2d_32">
     <path d="M 324.435625 285.218438 
L 334.435625 285.218438 
L 344.435625 285.218438 
" style="fill: none; stroke: #bcbd22; stroke-width: 1.5; stroke-linecap: square"/>
    </g>
    <g id="text_27">
     <!-- Ref Speed = 85 -->
     <g transform="translate(352.435625 288.718438) scale(0.1 -0.1)">
      <use xlink:href="#DejaVuSans-52"/>
      <use xlink:href="#DejaVuSans-65" transform="translate(64.982422 0)"/>
      <use xlink:href="#DejaVuSans-66" transform="translate(126.505859 0)"/>
      <use xlink:href="#DejaVuSans-20" transform="translate(161.710938 0)"/>
      <use xlink:href="#DejaVuSans-53" transform="translate(193.498047 0)"/>
      <use xlink:href="#DejaVuSans-70" transform="translate(256.974609 0)"/>
      <use xlink:href="#DejaVuSans-65" transform="translate(320.451172 0)"/>
      <use xlink:href="#DejaVuSans-65" transform="translate(381.974609 0)"/>
      <use xlink:href="#DejaVuSans-64" transform="translate(443.498047 0)"/>
      <use xlink:href="#DejaVuSans-20" transform="translate(506.974609 0)"/>
      <use xlink:href="#DejaVuSans-3d" transform="translate(538.761719 0)"/>
      <use xlink:href="#DejaVuSans-20" transform="translate(622.550781 0)"/>
      <use xlink:href="#DejaVuSans-38" transform="translate(654.337891 0)"/>
      <use xlink:href="#DejaVuSans-35" transform="translate(717.960938 0)"/>
     </g>
    </g>
   </g>
  </g>
 </g>
 <defs>
  <clipPath id="pbeae028651">
   <rect x="46.965625" y="22.318125" width="398.995" height="277.48"/>
  </clipPath>
 </defs>
</svg>
