<?xml version="1.0" encoding="utf-8" standalone="no"?>
<!DOCTYPE svg PUBLIC "-//W3C//DTD SVG 1.1//EN"
  "http://www.w3.org/Graphics/SVG/1.1/DTD/svg11.dtd">
<svg xmlns:xlink="http://www.w3.org/1999/xlink" width="453.143125pt" height="337.354375pt" viewBox="0 0 453.143125 337.354375" xmlns="http://www.w3.org/2000/svg" version="1.1">
 <metadata>
  <rdf:RDF xmlns:dc="http://purl.org/dc/elements/1.1/" xmlns:cc="http://creativecommons.org/ns#" xmlns:rdf="http://www.w3.org/1999/02/22-rdf-syntax-ns#">
   <cc:Work>
    <dc:type rdf:resource="http://purl.org/dc/dcmitype/StillImage"/>
    <dc:date>2025-10-28T18:50:57.332217</dc:date>
    <dc:format>image/svg+xml</dc:format>
    <dc:creator>
     <cc:Agent>
      <dc:title>Matplotlib v3.10.6, https://matplotlib.org/</dc:title>
     </cc:Agent>
    </dc:creator>
   </cc:Work>
  </rdf:RDF>
 </metadata>
 <defs>
  <style type="text/css">*{stroke-linejoin: round; stroke-linecap: butt}</style>
 </defs>
 <g id="figure_1">
  <g id="patch_1">
   <path d="M 0 337.354375 
L 453.143125 337.354375 
L 453.143125 0 
L 0 0 
z
" style="fill: #ffffff"/>
  </g>
  <g id="axes_1">
   <g id="patch_2">
    <path d="M 40.603125 299.798125 
L 445.943125 299.798125 
L 445.943125 22.318125 
L 40.603125 22.318125 
z
" style="fill: #ffffff"/>
   </g>
   <g id="matplotlib.axis_1">
    <g id="xtick_1">
     <g id="line2d_1">
      <defs>
       <path id="m2506906a59" d="M 0 0 
L 0 3.5 
" style="stroke: #000000; stroke-width: 0.8"/>
      </defs>
      <g>
       <use xlink:href="#m2506906a59" x="58.835263" y="299.798125" style="stroke: #000000; stroke-width: 0.8"/>
      </g>
     </g>
     <g id="text_1">
      <!-- 0.00 -->
      <g transform="translate(47.70245 314.396563) scale(0.1 -0.1)">
       <defs>
        <path id="DejaVuSans-30" d="M 2034 4250 
Q 1547 4250 1301 3770 
Q 1056 3291 1056 2328 
Q 1056 1369 1301 889 
Q 1547 409 2034 409 
Q 2525 409 2770 889 
Q 3016 1369 3016 2328 
Q 3016 3291 2770 3770 
Q 2525 4250 2034 4250 
z
M 2034 4750 
Q 2819 4750 3233 4129 
Q 3647 3509 3647 2328 
Q 3647 1150 3233 529 
Q 2819 -91 2034 -91 
Q 1250 -91 836 529 
Q 422 1150 422 2328 
Q 422 3509 836 4129 
Q 1250 4750 2034 4750 
z
" transform="scale(0.015625)"/>
        <path id="DejaVuSans-2e" d="M 684 794 
L 1344 794 
L 1344 0 
L 684 0 
L 684 794 
z
" transform="scale(0.015625)"/>
       </defs>
       <use xlink:href="#DejaVuSans-30"/>
       <use xlink:href="#DejaVuSans-2e" transform="translate(63.623047 0)"/>
       <use xlink:href="#DejaVuSans-30" transform="translate(95.410156 0)"/>
       <use xlink:href="#DejaVuSans-30" transform="translate(159.033203 0)"/>
      </g>
     </g>
    </g>
    <g id="xtick_2">
     <g id="line2d_2">
      <g>
       <use xlink:href="#m2506906a59" x="104.954067" y="299.798125" style="stroke: #000000; stroke-width: 0.8"/>
      </g>
     </g>
     <g id="text_2">
      <!-- 0.25 -->
      <g transform="translate(93.821255 314.396563) scale(0.1 -0.1)">
       <defs>
        <path id="DejaVuSans-32" d="M 1228 531 
L 3431 531 
L 3431 0 
L 469 0 
L 469 531 
Q 828 903 1448 1529 
Q 2069 2156 2228 2338 
Q 2531 2678 2651 2914 
Q 2772 3150 2772 3378 
Q 2772 3750 2511 3984 
Q 2250 4219 1831 4219 
Q 1534 4219 1204 4116 
Q 875 4013 500 3803 
L 500 4441 
Q 881 4594 1212 4672 
Q 1544 4750 1819 4750 
Q 2544 4750 2975 4387 
Q 3406 4025 3406 3419 
Q 3406 3131 3298 2873 
Q 3191 2616 2906 2266 
Q 2828 2175 2409 1742 
Q 1991 1309 1228 531 
z
" transform="scale(0.015625)"/>
        <path id="DejaVuSans-35" d="M 691 4666 
L 3169 4666 
L 3169 4134 
L 1269 4134 
L 1269 2991 
Q 1406 3038 1543 3061 
Q 1681 3084 1819 3084 
Q 2600 3084 3056 2656 
Q 3513 2228 3513 1497 
Q 3513 744 3044 326 
Q 2575 -91 1722 -91 
Q 1428 -91 1123 -41 
Q 819 9 494 109 
L 494 744 
Q 775 591 1075 516 
Q 1375 441 1709 441 
Q 2250 441 2565 725 
Q 2881 1009 2881 1497 
Q 2881 1984 2565 2268 
Q 2250 2553 1709 2553 
Q 1456 2553 1204 2497 
Q 953 2441 691 2322 
L 691 4666 
z
" transform="scale(0.015625)"/>
       </defs>
       <use xlink:href="#DejaVuSans-30"/>
       <use xlink:href="#DejaVuSans-2e" transform="translate(63.623047 0)"/>
       <use xlink:href="#DejaVuSans-32" transform="translate(95.410156 0)"/>
       <use xlink:href="#DejaVuSans-35" transform="translate(159.033203 0)"/>
      </g>
     </g>
    </g>
    <g id="xtick_3">
     <g id="line2d_3">
      <g>
       <use xlink:href="#m2506906a59" x="151.072872" y="299.798125" style="stroke: #000000; stroke-width: 0.8"/>
      </g>
     </g>
     <g id="text_3">
      <!-- 0.50 -->
      <g transform="translate(139.94006 314.396563) scale(0.1 -0.1)">
       <use xlink:href="#DejaVuSans-30"/>
       <use xlink:href="#DejaVuSans-2e" transform="translate(63.623047 0)"/>
       <use xlink:href="#DejaVuSans-35" transform="translate(95.410156 0)"/>
       <use xlink:href="#DejaVuSans-30" transform="translate(159.033203 0)"/>
      </g>
     </g>
    </g>
    <g id="xtick_4">
     <g id="line2d_4">
      <g>
       <use xlink:href="#m2506906a59" x="197.191677" y="299.798125" style="stroke: #000000; stroke-width: 0.8"/>
      </g>
     </g>
     <g id="text_4">
      <!-- 0.75 -->
      <g transform="translate(186.058864 314.396563) scale(0.1 -0.1)">
       <defs>
        <path id="DejaVuSans-37" d="M 525 4666 
L 3525 4666 
L 3525 4397 
L 1831 0 
L 1172 0 
L 2766 4134 
L 525 4134 
L 525 4666 
z
" transform="scale(0.015625)"/>
       </defs>
       <use xlink:href="#DejaVuSans-30"/>
       <use xlink:href="#DejaVuSans-2e" transform="translate(63.623047 0)"/>
       <use xlink:href="#DejaVuSans-37" transform="translate(95.410156 0)"/>
       <use xlink:href="#DejaVuSans-35" transform="translate(159.033203 0)"/>
      </g>
     </g>
    </g>
    <g id="xtick_5">
     <g id="line2d_5">
      <g>
       <use xlink:href="#m2506906a59" x="243.310481" y="299.798125" style="stroke: #000000; stroke-width: 0.8"/>
      </g>
     </g>
     <g id="text_5">
      <!-- 1.00 -->
      <g transform="translate(232.177669 314.396563) scale(0.1 -0.1)">
       <defs>
        <path id="DejaVuSans-31" d="M 794 531 
L 1825 531 
L 1825 4091 
L 703 3866 
L 703 4441 
L 1819 4666 
L 2450 4666 
L 2450 531 
L 3481 531 
L 3481 0 
L 794 0 
L 794 531 
z
" transform="scale(0.015625)"/>
       </defs>
       <use xlink:href="#DejaVuSans-31"/>
       <use xlink:href="#DejaVuSans-2e" transform="translate(63.623047 0)"/>
       <use xlink:href="#DejaVuSans-30" transform="translate(95.410156 0)"/>
       <use xlink:href="#DejaVuSans-30" transform="translate(159.033203 0)"/>
      </g>
     </g>
    </g>
    <g id="xtick_6">
     <g id="line2d_6">
      <g>
       <use xlink:href="#m2506906a59" x="289.429286" y="299.798125" style="stroke: #000000; stroke-width: 0.8"/>
      </g>
     </g>
     <g id="text_6">
      <!-- 1.25 -->
      <g transform="translate(278.296473 314.396563) scale(0.1 -0.1)">
       <use xlink:href="#DejaVuSans-31"/>
       <use xlink:href="#DejaVuSans-2e" transform="translate(63.623047 0)"/>
       <use xlink:href="#DejaVuSans-32" transform="translate(95.410156 0)"/>
       <use xlink:href="#DejaVuSans-35" transform="translate(159.033203 0)"/>
      </g>
     </g>
    </g>
    <g id="xtick_7">
     <g id="line2d_7">
      <g>
       <use xlink:href="#m2506906a59" x="335.54809" y="299.798125" style="stroke: #000000; stroke-width: 0.8"/>
      </g>
     </g>
     <g id="text_7">
      <!-- 1.50 -->
      <g transform="translate(324.415278 314.396563) scale(0.1 -0.1)">
       <use xlink:href="#DejaVuSans-31"/>
       <use xlink:href="#DejaVuSans-2e" transform="translate(63.623047 0)"/>
       <use xlink:href="#DejaVuSans-35" transform="translate(95.410156 0)"/>
       <use xlink:href="#DejaVuSans-30" transform="translate(159.033203 0)"/>
      </g>
     </g>
    </g>
    <g id="xtick_8">
     <g id="line2d_8">
      <g>
       <use xlink:href="#m2506906a59" x="381.666895" y="299.798125" style="stroke: #000000; stroke-width: 0.8"/>
      </g>
     </g>
     <g id="text_8">
      <!-- 1.75 -->
      <g transform="translate(370.534083 314.396563) scale(0.1 -0.1)">
       <use xlink:href="#DejaVuSans-31"/>
       <use xlink:href="#DejaVuSans-2e" transform="translate(63.623047 0)"/>
       <use xlink:href="#DejaVuSans-37" transform="translate(95.410156 0)"/>
       <use xlink:href="#DejaVuSans-35" transform="translate(159.033203 0)"/>
      </g>
     </g>
    </g>
    <g id="xtick_9">
     <g id="line2d_9">
      <g>
       <use xlink:href="#m2506906a59" x="427.7857" y="299.798125" style="stroke: #000000; stroke-width: 0.8"/>
      </g>
     </g>
     <g id="text_9">
      <!-- 2.00 -->
      <g transform="translate(416.652887 314.396563) scale(0.1 -0.1)">
       <use xlink:href="#DejaVuSans-32"/>
       <use xlink:href="#DejaVuSans-2e" transform="translate(63.623047 0)"/>
       <use xlink:href="#DejaVuSans-30" transform="translate(95.410156 0)"/>
       <use xlink:href="#DejaVuSans-30" transform="translate(159.033203 0)"/>
      </g>
     </g>
    </g>
    <g id="text_10">
     <!-- time, t (us) -->
     <g transform="translate(215.574688 328.074688) scale(0.1 -0.1)">
      <defs>
       <path id="DejaVuSans-74" d="M 1172 4494 
L 1172 3500 
L 2356 3500 
L 2356 3053 
L 1172 3053 
L 1172 1153 
Q 1172 725 1289 603 
Q 1406 481 1766 481 
L 2356 481 
L 2356 0 
L 1766 0 
Q 1100 0 847 248 
Q 594 497 594 1153 
L 594 3053 
L 172 3053 
L 172 3500 
L 594 3500 
L 594 4494 
L 1172 4494 
z
" transform="scale(0.015625)"/>
       <path id="DejaVuSans-69" d="M 603 3500 
L 1178 3500 
L 1178 0 
L 603 0 
L 603 3500 
z
M 603 4863 
L 1178 4863 
L 1178 4134 
L 603 4134 
L 603 4863 
z
" transform="scale(0.015625)"/>
       <path id="DejaVuSans-6d" d="M 3328 2828 
Q 3544 3216 3844 3400 
Q 4144 3584 4550 3584 
Q 5097 3584 5394 3201 
Q 5691 2819 5691 2113 
L 5691 0 
L 5113 0 
L 5113 2094 
Q 5113 2597 4934 2840 
Q 4756 3084 4391 3084 
Q 3944 3084 3684 2787 
Q 3425 2491 3425 1978 
L 3425 0 
L 2847 0 
L 2847 2094 
Q 2847 2600 2669 2842 
Q 2491 3084 2119 3084 
Q 1678 3084 1418 2786 
Q 1159 2488 1159 1978 
L 1159 0 
L 581 0 
L 581 3500 
L 1159 3500 
L 1159 2956 
Q 1356 3278 1631 3431 
Q 1906 3584 2284 3584 
Q 2666 3584 2933 3390 
Q 3200 3197 3328 2828 
z
" transform="scale(0.015625)"/>
       <path id="DejaVuSans-65" d="M 3597 1894 
L 3597 1613 
L 953 1613 
Q 991 1019 1311 708 
Q 1631 397 2203 397 
Q 2534 397 2845 478 
Q 3156 559 3463 722 
L 3463 178 
Q 3153 47 2828 -22 
Q 2503 -91 2169 -91 
Q 1331 -91 842 396 
Q 353 884 353 1716 
Q 353 2575 817 3079 
Q 1281 3584 2069 3584 
Q 2775 3584 3186 3129 
Q 3597 2675 3597 1894 
z
M 3022 2063 
Q 3016 2534 2758 2815 
Q 2500 3097 2075 3097 
Q 1594 3097 1305 2825 
Q 1016 2553 972 2059 
L 3022 2063 
z
" transform="scale(0.015625)"/>
       <path id="DejaVuSans-2c" d="M 750 794 
L 1409 794 
L 1409 256 
L 897 -744 
L 494 -744 
L 750 256 
L 750 794 
z
" transform="scale(0.015625)"/>
       <path id="DejaVuSans-20" transform="scale(0.015625)"/>
       <path id="DejaVuSans-28" d="M 1984 4856 
Q 1566 4138 1362 3434 
Q 1159 2731 1159 2009 
Q 1159 1288 1364 580 
Q 1569 -128 1984 -844 
L 1484 -844 
Q 1016 -109 783 600 
Q 550 1309 550 2009 
Q 550 2706 781 3412 
Q 1013 4119 1484 4856 
L 1984 4856 
z
" transform="scale(0.015625)"/>
       <path id="DejaVuSans-75" d="M 544 1381 
L 544 3500 
L 1119 3500 
L 1119 1403 
Q 1119 906 1312 657 
Q 1506 409 1894 409 
Q 2359 409 2629 706 
Q 2900 1003 2900 1516 
L 2900 3500 
L 3475 3500 
L 3475 0 
L 2900 0 
L 2900 538 
Q 2691 219 2414 64 
Q 2138 -91 1772 -91 
Q 1169 -91 856 284 
Q 544 659 544 1381 
z
M 1991 3584 
L 1991 3584 
z
" transform="scale(0.015625)"/>
       <path id="DejaVuSans-73" d="M 2834 3397 
L 2834 2853 
Q 2591 2978 2328 3040 
Q 2066 3103 1784 3103 
Q 1356 3103 1142 2972 
Q 928 2841 928 2578 
Q 928 2378 1081 2264 
Q 1234 2150 1697 2047 
L 1894 2003 
Q 2506 1872 2764 1633 
Q 3022 1394 3022 966 
Q 3022 478 2636 193 
Q 2250 -91 1575 -91 
Q 1294 -91 989 -36 
Q 684 19 347 128 
L 347 722 
Q 666 556 975 473 
Q 1284 391 1588 391 
Q 1994 391 2212 530 
Q 2431 669 2431 922 
Q 2431 1156 2273 1281 
Q 2116 1406 1581 1522 
L 1381 1569 
Q 847 1681 609 1914 
Q 372 2147 372 2553 
Q 372 3047 722 3315 
Q 1072 3584 1716 3584 
Q 2034 3584 2315 3537 
Q 2597 3491 2834 3397 
z
" transform="scale(0.015625)"/>
       <path id="DejaVuSans-29" d="M 513 4856 
L 1013 4856 
Q 1481 4119 1714 3412 
Q 1947 2706 1947 2009 
Q 1947 1309 1714 600 
Q 1481 -109 1013 -844 
L 513 -844 
Q 928 -128 1133 580 
Q 1338 1288 1338 2009 
Q 1338 2731 1133 3434 
Q 928 4138 513 4856 
z
" transform="scale(0.015625)"/>
      </defs>
      <use xlink:href="#DejaVuSans-74"/>
      <use xlink:href="#DejaVuSans-69" transform="translate(39.208984 0)"/>
      <use xlink:href="#DejaVuSans-6d" transform="translate(66.992188 0)"/>
      <use xlink:href="#DejaVuSans-65" transform="translate(164.404297 0)"/>
      <use xlink:href="#DejaVuSans-2c" transform="translate(225.927734 0)"/>
      <use xlink:href="#DejaVuSans-20" transform="translate(257.714844 0)"/>
      <use xlink:href="#DejaVuSans-74" transform="translate(289.501953 0)"/>
      <use xlink:href="#DejaVuSans-20" transform="translate(328.710938 0)"/>
      <use xlink:href="#DejaVuSans-28" transform="translate(360.498047 0)"/>
      <use xlink:href="#DejaVuSans-75" transform="translate(399.511719 0)"/>
      <use xlink:href="#DejaVuSans-73" transform="translate(462.890625 0)"/>
      <use xlink:href="#DejaVuSans-29" transform="translate(514.990234 0)"/>
     </g>
    </g>
    <g id="text_11">
     <!-- 1e6 -->
     <g transform="translate(427.065 327.074688) scale(0.1 -0.1)">
      <defs>
       <path id="DejaVuSans-36" d="M 2113 2584 
Q 1688 2584 1439 2293 
Q 1191 2003 1191 1497 
Q 1191 994 1439 701 
Q 1688 409 2113 409 
Q 2538 409 2786 701 
Q 3034 994 3034 1497 
Q 3034 2003 2786 2293 
Q 2538 2584 2113 2584 
z
M 3366 4563 
L 3366 3988 
Q 3128 4100 2886 4159 
Q 2644 4219 2406 4219 
Q 1781 4219 1451 3797 
Q 1122 3375 1075 2522 
Q 1259 2794 1537 2939 
Q 1816 3084 2150 3084 
Q 2853 3084 3261 2657 
Q 3669 2231 3669 1497 
Q 3669 778 3244 343 
Q 2819 -91 2113 -91 
Q 1303 -91 875 529 
Q 447 1150 447 2328 
Q 447 3434 972 4092 
Q 1497 4750 2381 4750 
Q 2619 4750 2861 4703 
Q 3103 4656 3366 4563 
z
" transform="scale(0.015625)"/>
      </defs>
      <use xlink:href="#DejaVuSans-31"/>
      <use xlink:href="#DejaVuSans-65" transform="translate(63.623047 0)"/>
      <use xlink:href="#DejaVuSans-36" transform="translate(125.146484 0)"/>
     </g>
    </g>
   </g>
   <g id="matplotlib.axis_2">
    <g id="ytick_1">
     <g id="line2d_10">
      <defs>
       <path id="md768100043" d="M 0 0 
L -3.5 0 
" style="stroke: #000000; stroke-width: 0.8"/>
      </defs>
      <g>
       <use xlink:href="#md768100043" x="40.603125" y="287.185398" style="stroke: #000000; stroke-width: 0.8"/>
      </g>
     </g>
     <g id="text_12">
      <!-- 0 -->
      <g transform="translate(27.240625 290.984616) scale(0.1 -0.1)">
       <use xlink:href="#DejaVuSans-30"/>
      </g>
     </g>
    </g>
    <g id="ytick_2">
     <g id="line2d_11">
      <g>
       <use xlink:href="#md768100043" x="40.603125" y="250.034278" style="stroke: #000000; stroke-width: 0.8"/>
      </g>
     </g>
     <g id="text_13">
      <!-- 5 -->
      <g transform="translate(27.240625 253.833496) scale(0.1 -0.1)">
       <use xlink:href="#DejaVuSans-35"/>
      </g>
     </g>
    </g>
    <g id="ytick_3">
     <g id="line2d_12">
      <g>
       <use xlink:href="#md768100043" x="40.603125" y="212.883157" style="stroke: #000000; stroke-width: 0.8"/>
      </g>
     </g>
     <g id="text_14">
      <!-- 10 -->
      <g transform="translate(20.878125 216.682376) scale(0.1 -0.1)">
       <use xlink:href="#DejaVuSans-31"/>
       <use xlink:href="#DejaVuSans-30" transform="translate(63.623047 0)"/>
      </g>
     </g>
    </g>
    <g id="ytick_4">
     <g id="line2d_13">
      <g>
       <use xlink:href="#md768100043" x="40.603125" y="175.732037" style="stroke: #000000; stroke-width: 0.8"/>
      </g>
     </g>
     <g id="text_15">
      <!-- 15 -->
      <g transform="translate(20.878125 179.531256) scale(0.1 -0.1)">
       <use xlink:href="#DejaVuSans-31"/>
       <use xlink:href="#DejaVuSans-35" transform="translate(63.623047 0)"/>
      </g>
     </g>
    </g>
    <g id="ytick_5">
     <g id="line2d_14">
      <g>
       <use xlink:href="#md768100043" x="40.603125" y="138.580917" style="stroke: #000000; stroke-width: 0.8"/>
      </g>
     </g>
     <g id="text_16">
      <!-- 20 -->
      <g transform="translate(20.878125 142.380136) scale(0.1 -0.1)">
       <use xlink:href="#DejaVuSans-32"/>
       <use xlink:href="#DejaVuSans-30" transform="translate(63.623047 0)"/>
      </g>
     </g>
    </g>
    <g id="ytick_6">
     <g id="line2d_15">
      <g>
       <use xlink:href="#md768100043" x="40.603125" y="101.429797" style="stroke: #000000; stroke-width: 0.8"/>
      </g>
     </g>
     <g id="text_17">
      <!-- 25 -->
      <g transform="translate(20.878125 105.229016) scale(0.1 -0.1)">
       <use xlink:href="#DejaVuSans-32"/>
       <use xlink:href="#DejaVuSans-35" transform="translate(63.623047 0)"/>
      </g>
     </g>
    </g>
    <g id="ytick_7">
     <g id="line2d_16">
      <g>
       <use xlink:href="#md768100043" x="40.603125" y="64.278677" style="stroke: #000000; stroke-width: 0.8"/>
      </g>
     </g>
     <g id="text_18">
      <!-- 30 -->
      <g transform="translate(20.878125 68.077896) scale(0.1 -0.1)">
       <defs>
        <path id="DejaVuSans-33" d="M 2597 2516 
Q 3050 2419 3304 2112 
Q 3559 1806 3559 1356 
Q 3559 666 3084 287 
Q 2609 -91 1734 -91 
Q 1441 -91 1130 -33 
Q 819 25 488 141 
L 488 750 
Q 750 597 1062 519 
Q 1375 441 1716 441 
Q 2309 441 2620 675 
Q 2931 909 2931 1356 
Q 2931 1769 2642 2001 
Q 2353 2234 1838 2234 
L 1294 2234 
L 1294 2753 
L 1863 2753 
Q 2328 2753 2575 2939 
Q 2822 3125 2822 3475 
Q 2822 3834 2567 4026 
Q 2313 4219 1838 4219 
Q 1578 4219 1281 4162 
Q 984 4106 628 3988 
L 628 4550 
Q 988 4650 1302 4700 
Q 1616 4750 1894 4750 
Q 2613 4750 3031 4423 
Q 3450 4097 3450 3541 
Q 3450 3153 3228 2886 
Q 3006 2619 2597 2516 
z
" transform="scale(0.015625)"/>
       </defs>
       <use xlink:href="#DejaVuSans-33"/>
       <use xlink:href="#DejaVuSans-30" transform="translate(63.623047 0)"/>
      </g>
     </g>
    </g>
    <g id="ytick_8">
     <g id="line2d_17">
      <g>
       <use xlink:href="#md768100043" x="40.603125" y="27.127557" style="stroke: #000000; stroke-width: 0.8"/>
      </g>
     </g>
     <g id="text_19">
      <!-- 35 -->
      <g transform="translate(20.878125 30.926775) scale(0.1 -0.1)">
       <use xlink:href="#DejaVuSans-33"/>
       <use xlink:href="#DejaVuSans-35" transform="translate(63.623047 0)"/>
      </g>
     </g>
    </g>
    <g id="text_20">
     <!-- left wheel theta, ltheta (rad) -->
     <g transform="translate(14.798438 231.945625) rotate(-90) scale(0.1 -0.1)">
      <defs>
       <path id="DejaVuSans-6c" d="M 603 4863 
L 1178 4863 
L 1178 0 
L 603 0 
L 603 4863 
z
" transform="scale(0.015625)"/>
       <path id="DejaVuSans-66" d="M 2375 4863 
L 2375 4384 
L 1825 4384 
Q 1516 4384 1395 4259 
Q 1275 4134 1275 3809 
L 1275 3500 
L 2222 3500 
L 2222 3053 
L 1275 3053 
L 1275 0 
L 697 0 
L 697 3053 
L 147 3053 
L 147 3500 
L 697 3500 
L 697 3744 
Q 697 4328 969 4595 
Q 1241 4863 1831 4863 
L 2375 4863 
z
" transform="scale(0.015625)"/>
       <path id="DejaVuSans-77" d="M 269 3500 
L 844 3500 
L 1563 769 
L 2278 3500 
L 2956 3500 
L 3675 769 
L 4391 3500 
L 4966 3500 
L 4050 0 
L 3372 0 
L 2619 2869 
L 1863 0 
L 1184 0 
L 269 3500 
z
" transform="scale(0.015625)"/>
       <path id="DejaVuSans-68" d="M 3513 2113 
L 3513 0 
L 2938 0 
L 2938 2094 
Q 2938 2591 2744 2837 
Q 2550 3084 2163 3084 
Q 1697 3084 1428 2787 
Q 1159 2491 1159 1978 
L 1159 0 
L 581 0 
L 581 4863 
L 1159 4863 
L 1159 2956 
Q 1366 3272 1645 3428 
Q 1925 3584 2291 3584 
Q 2894 3584 3203 3211 
Q 3513 2838 3513 2113 
z
" transform="scale(0.015625)"/>
       <path id="DejaVuSans-61" d="M 2194 1759 
Q 1497 1759 1228 1600 
Q 959 1441 959 1056 
Q 959 750 1161 570 
Q 1363 391 1709 391 
Q 2188 391 2477 730 
Q 2766 1069 2766 1631 
L 2766 1759 
L 2194 1759 
z
M 3341 1997 
L 3341 0 
L 2766 0 
L 2766 531 
Q 2569 213 2275 61 
Q 1981 -91 1556 -91 
Q 1019 -91 701 211 
Q 384 513 384 1019 
Q 384 1609 779 1909 
Q 1175 2209 1959 2209 
L 2766 2209 
L 2766 2266 
Q 2766 2663 2505 2880 
Q 2244 3097 1772 3097 
Q 1472 3097 1187 3025 
Q 903 2953 641 2809 
L 641 3341 
Q 956 3463 1253 3523 
Q 1550 3584 1831 3584 
Q 2591 3584 2966 3190 
Q 3341 2797 3341 1997 
z
" transform="scale(0.015625)"/>
       <path id="DejaVuSans-72" d="M 2631 2963 
Q 2534 3019 2420 3045 
Q 2306 3072 2169 3072 
Q 1681 3072 1420 2755 
Q 1159 2438 1159 1844 
L 1159 0 
L 581 0 
L 581 3500 
L 1159 3500 
L 1159 2956 
Q 1341 3275 1631 3429 
Q 1922 3584 2338 3584 
Q 2397 3584 2469 3576 
Q 2541 3569 2628 3553 
L 2631 2963 
z
" transform="scale(0.015625)"/>
       <path id="DejaVuSans-64" d="M 2906 2969 
L 2906 4863 
L 3481 4863 
L 3481 0 
L 2906 0 
L 2906 525 
Q 2725 213 2448 61 
Q 2172 -91 1784 -91 
Q 1150 -91 751 415 
Q 353 922 353 1747 
Q 353 2572 751 3078 
Q 1150 3584 1784 3584 
Q 2172 3584 2448 3432 
Q 2725 3281 2906 2969 
z
M 947 1747 
Q 947 1113 1208 752 
Q 1469 391 1925 391 
Q 2381 391 2643 752 
Q 2906 1113 2906 1747 
Q 2906 2381 2643 2742 
Q 2381 3103 1925 3103 
Q 1469 3103 1208 2742 
Q 947 2381 947 1747 
z
" transform="scale(0.015625)"/>
      </defs>
      <use xlink:href="#DejaVuSans-6c"/>
      <use xlink:href="#DejaVuSans-65" transform="translate(27.783203 0)"/>
      <use xlink:href="#DejaVuSans-66" transform="translate(89.306641 0)"/>
      <use xlink:href="#DejaVuSans-74" transform="translate(122.761719 0)"/>
      <use xlink:href="#DejaVuSans-20" transform="translate(161.970703 0)"/>
      <use xlink:href="#DejaVuSans-77" transform="translate(193.757812 0)"/>
      <use xlink:href="#DejaVuSans-68" transform="translate(275.544922 0)"/>
      <use xlink:href="#DejaVuSans-65" transform="translate(338.923828 0)"/>
      <use xlink:href="#DejaVuSans-65" transform="translate(400.447266 0)"/>
      <use xlink:href="#DejaVuSans-6c" transform="translate(461.970703 0)"/>
      <use xlink:href="#DejaVuSans-20" transform="translate(489.753906 0)"/>
      <use xlink:href="#DejaVuSans-74" transform="translate(521.541016 0)"/>
      <use xlink:href="#DejaVuSans-68" transform="translate(560.75 0)"/>
      <use xlink:href="#DejaVuSans-65" transform="translate(624.128906 0)"/>
      <use xlink:href="#DejaVuSans-74" transform="translate(685.652344 0)"/>
      <use xlink:href="#DejaVuSans-61" transform="translate(724.861328 0)"/>
      <use xlink:href="#DejaVuSans-2c" transform="translate(786.140625 0)"/>
      <use xlink:href="#DejaVuSans-20" transform="translate(817.927734 0)"/>
      <use xlink:href="#DejaVuSans-6c" transform="translate(849.714844 0)"/>
      <use xlink:href="#DejaVuSans-74" transform="translate(877.498047 0)"/>
      <use xlink:href="#DejaVuSans-68" transform="translate(916.707031 0)"/>
      <use xlink:href="#DejaVuSans-65" transform="translate(980.085938 0)"/>
      <use xlink:href="#DejaVuSans-74" transform="translate(1041.609375 0)"/>
      <use xlink:href="#DejaVuSans-61" transform="translate(1080.818359 0)"/>
      <use xlink:href="#DejaVuSans-20" transform="translate(1142.097656 0)"/>
      <use xlink:href="#DejaVuSans-28" transform="translate(1173.884766 0)"/>
      <use xlink:href="#DejaVuSans-72" transform="translate(1212.898438 0)"/>
      <use xlink:href="#DejaVuSans-61" transform="translate(1254.011719 0)"/>
      <use xlink:href="#DejaVuSans-64" transform="translate(1315.291016 0)"/>
      <use xlink:href="#DejaVuSans-29" transform="translate(1378.767578 0)"/>
     </g>
    </g>
   </g>
   <g id="line2d_18">
    <path d="M 59.028777 281.370388 
L 62.821588 280.720666 
L 65.858234 279.583654 
L 69.73701 277.634484 
L 73.601582 275.295486 
L 77.547507 272.729087 
L 80.503722 270.747439 
L 84.473075 268.018607 
L 88.37159 265.354746 
L 92.271027 262.788346 
L 95.305276 260.774206 
L 99.205266 258.142836 
L 103.174251 255.478975 
L 107.055794 252.847598 
L 110.010718 250.800973 
L 113.988926 247.974686 
L 117.886334 245.21337 
L 121.854949 242.419569 
L 124.809504 240.307966 
L 128.692339 237.579142 
L 132.652653 234.785333 
L 136.55006 232.056501 
L 139.591872 229.912421 
L 143.490387 227.216074 
L 147.38798 224.519728 
L 151.364712 221.758404 
L 154.319082 219.711779 
L 158.303378 216.917977 
L 162.200786 214.254115 
L 166.098563 211.590224 
L 169.131889 209.543643 
L 173.029666 206.912229 
L 176.981679 204.21595 
L 180.877795 201.519596 
L 183.83235 199.505411 
L 187.808345 196.776587 
L 191.704646 194.112703 
L 195.671232 191.383879 
L 198.625787 189.369768 
L 202.522826 186.705884 
L 206.498267 183.91212 
L 210.394199 181.215766 
L 213.434166 179.16911 
L 217.330652 176.505301 
L 221.226768 173.841417 
L 225.201102 171.145063 
L 228.155104 169.130952 
L 232.138478 166.402128 
L 236.033303 163.770714 
L 239.928497 161.10683 
L 242.961454 159.027779 
L 246.856464 156.331425 
L 250.866955 153.602601 
L 254.777461 150.938717 
L 257.760425 148.924606 
L 261.76446 146.163238 
L 265.688617 143.434414 
L 268.742604 141.355288 
L 272.666392 138.691479 
L 276.590549 135.995125 
L 280.591816 133.201286 
L 283.573489 131.154705 
L 287.552619 128.458351 
L 291.474563 125.761997 
L 295.397059 123.130584 
L 298.45861 121.019063 
L 302.380737 118.355179 
L 306.358208 115.626355 
L 309.339512 113.579699 
L 313.249095 110.915815 
L 317.234682 108.219536 
L 321.142605 105.555652 
L 324.210428 103.444056 
L 328.132925 100.747702 
L 332.041401 98.051348 
L 335.087087 95.972297 
L 338.995194 93.308414 
L 342.9865 90.579589 
L 346.907336 87.818221 
L 349.888825 85.77164 
L 353.888986 83.042816 
L 357.809822 80.378932 
L 361.800759 77.650108 
L 364.767674 75.635923 
L 368.689617 72.939569 
L 372.67299 70.243289 
L 375.653556 68.229104 
L 379.661096 65.43534 
L 383.580456 62.738986 
L 387.500001 60.075102 
L 390.543843 57.995977 
L 394.463572 55.299697 
L 398.470005 52.570799 
L 402.388812 49.906989 
L 405.369747 47.860334 
L 409.368616 45.066569 
L 416.353955 40.29109 
L 420.272946 37.594736 
L 424.191569 34.930852 
" clip-path="url(#pc638081460)" style="fill: none; stroke: #1f77b4; stroke-width: 1.5; stroke-linecap: square"/>
   </g>
   <g id="line2d_19">
    <path d="M 59.02767 282.377457 
L 62.829889 281.760221 
L 66.737259 280.200889 
L 69.777779 278.674046 
L 73.655817 276.529959 
L 77.620374 274.385878 
L 81.515384 272.274283 
L 84.476396 270.649984 
L 88.465672 268.408441 
L 92.375071 266.166899 
L 95.422786 264.412653 
L 99.300824 262.17111 
L 103.210408 259.832113 
L 107.198577 257.46063 
L 110.158298 255.673892 
L 114.138351 253.334895 
L 118.047749 250.963412 
L 121.957333 248.6569 
L 124.996378 246.870169 
L 128.905592 244.498686 
L 132.884722 242.127197 
L 136.79283 239.820692 
L 139.721189 238.131408 
L 143.709544 235.759926 
L 147.601417 233.453413 
L 151.596228 231.081931 
L 154.540084 229.36017 
L 158.450036 227.053657 
L 162.436361 224.682175 
L 166.343915 222.375662 
L 169.389601 220.621409 
L 173.297893 218.314896 
L 177.206369 216.008384 
L 180.22918 214.254138 
L 184.137472 211.947618 
L 188.130992 209.576113 
L 192.037992 207.269623 
L 194.981664 205.547892 
L 198.968911 203.208857 
L 202.875727 200.902367 
L 206.853013 198.563332 
L 209.796684 196.841601 
L 213.704238 194.535111 
L 217.67396 192.228546 
L 221.580407 189.954526 
L 224.626278 188.16778 
L 228.533278 185.86129 
L 232.43991 183.5548 
L 236.424575 181.215766 
L 239.383373 179.494034 
L 243.376708 177.154999 
L 247.312302 174.816039 
L 250.300616 173.061763 
L 254.316088 170.722803 
L 258.251498 168.416239 
L 262.260329 166.077278 
L 265.248459 164.323003 
L 269.184422 161.984042 
L 273.197496 159.645008 
L 276.185256 157.890806 
L 280.206263 155.551772 
L 284.124516 153.245282 
L 288.057897 150.906321 
L 291.124429 149.119575 
L 295.058732 146.780541 
L 299.079922 144.474051 
L 302.06713 142.719775 
L 306.001433 140.413285 
L 310.0134 138.04178 
L 313.946596 135.73529 
L 317.019768 133.948544 
L 320.95278 131.642054 
L 324.885976 129.335489 
L 327.938303 127.548818 
L 331.855266 125.274723 
L 335.873505 122.903293 
L 338.859974 121.149017 
L 342.792617 118.842527 
L 346.789826 116.503492 
L 350.70771 114.164532 
L 353.780514 112.345316 
L 357.696923 110.071296 
L 361.628828 107.764732 
L 364.693515 105.945516 
L 368.625051 103.639026 
L 372.642367 101.300065 
L 376.572796 99.026045 
L 379.558343 97.271769 
L 383.569019 94.900265 
L 387.499633 92.561304 
L 390.572805 90.774559 
L 394.503419 88.468068 
L 398.434032 86.161504 
L 405.428595 82.035798 
L 409.445358 79.664293 
L 413.375233 77.390273 
L 416.361149 75.668542 
L 420.36998 73.329507 
L 424.299856 70.990547 
" clip-path="url(#pc638081460)" style="fill: none; stroke: #ff7f0e; stroke-width: 1.5; stroke-linecap: square"/>
   </g>
   <g id="line2d_20">
    <path d="M 59.028962 283.417011 
L 62.809966 282.832262 
L 65.860633 281.760221 
L 69.781653 280.005972 
L 73.703781 278.25172 
L 77.672212 276.497474 
L 80.638573 275.198032 
L 84.648142 273.411293 
L 88.569716 271.592077 
L 92.490737 269.707884 
L 95.535501 268.213524 
L 99.456706 266.264354 
L 103.447643 264.31519 
L 106.413451 262.820831 
L 110.334656 260.871668 
L 114.332788 258.890012 
L 118.253255 257.005819 
L 121.305582 255.478975 
L 125.210184 253.562297 
L 129.114602 251.645618 
L 133.113287 249.696455 
L 136.078357 248.234581 
L 140.085344 246.252933 
L 144.004888 244.368739 
L 147.924618 242.484546 
L 150.968828 240.990187 
L 154.888373 239.073508 
L 158.878019 237.124345 
L 161.778891 235.694963 
L 165.69899 233.778285 
L 169.680149 231.796629 
L 173.598403 229.847466 
L 176.633758 228.353107 
L 180.537992 226.468913 
L 184.456983 224.552235 
L 188.453823 222.603072 
L 191.40266 221.173683 
L 195.40817 219.224519 
L 199.32587 217.275349 
L 203.244124 215.35867 
L 206.288334 213.864311 
L 210.207141 211.947618 
L 214.212467 209.998447 
L 217.177168 208.536625 
L 221.080295 206.619924 
L 225.076951 204.670754 
L 228.994097 202.721583 
L 231.996985 201.292157 
L 235.91487 199.37553 
L 239.816336 197.4913 
L 243.812254 195.509659 
L 246.806656 194.015292 
L 250.840391 192.066122 
L 254.787238 190.116951 
L 257.752862 188.687599 
L 261.778111 186.738428 
L 265.710016 184.789257 
L 268.789829 183.294891 
L 272.735939 181.34572 
L 276.682048 179.42902 
L 280.707113 177.479849 
L 283.685096 176.018027 
L 287.718094 174.068856 
L 291.663096 172.152155 
L 294.644031 170.690259 
L 298.669096 168.741088 
L 302.614099 166.791917 
L 305.693359 165.265081 
L 309.624895 163.31591 
L 313.568975 161.366739 
L 317.59238 159.417643 
L 320.585121 157.955746 
L 324.616642 155.974106 
L 328.560354 154.024935 
L 331.553464 152.595508 
L 335.561188 150.678882 
L 339.50453 148.697241 
L 342.583237 147.202875 
L 346.527318 145.253704 
L 350.470475 143.337004 
L 354.479491 141.387833 
L 357.471863 139.925936 
L 361.503016 137.944296 
L 365.44562 135.995125 
L 368.437255 134.533303 
L 372.45863 132.584132 
L 376.400312 130.667431 
L 379.477912 129.205535 
L 383.419779 127.288908 
L 387.361276 125.307268 
L 391.381913 123.358097 
L 394.37281 121.8962 
L 398.401749 119.91456 
L 402.342509 117.965389 
L 405.334328 116.536037 
L 409.355334 114.554322 
L 413.295725 112.605225 
L 416.37314 111.078314 
L 420.314084 109.161688 
L 424.241008 107.212517 
" clip-path="url(#pc638081460)" style="fill: none; stroke: #2ca02c; stroke-width: 1.5; stroke-linecap: square"/>
   </g>
   <g id="line2d_21">
    <path d="M 59.027855 284.58651 
L 62.854055 283.904303 
L 65.825951 282.897234 
L 69.838103 281.43536 
L 73.770561 280.233375 
L 76.82916 279.291275 
L 80.72952 277.861893 
L 84.662162 276.400019 
L 88.672469 274.938145 
L 91.64418 273.833612 
L 95.664264 272.241798 
L 99.595616 270.714954 
L 102.567143 269.545451 
L 106.5614 267.986122 
L 110.492382 266.426786 
L 114.510068 264.899942 
L 117.481595 263.730439 
L 121.414053 262.23608 
L 125.423991 260.676751 
L 128.395518 259.507249 
L 132.413204 257.915434 
L 136.344002 256.388583 
L 140.258935 254.861739 
L 143.308679 253.659751 
L 147.239477 252.132907 
L 151.256609 250.573578 
L 154.211533 249.404076 
L 158.1427 247.877232 
L 162.151716 246.285417 
L 166.064435 244.726081 
L 169.121189 243.524094 
L 173.051434 242.029734 
L 176.980941 240.470405 
L 180.0305 239.300903 
L 183.959823 237.741574 
L 187.975664 236.182237 
L 191.904432 234.622908 
L 194.875037 233.453406 
L 198.88313 231.894077 
L 202.812268 230.367232 
L 205.86976 229.165245 
L 209.798898 227.638401 
L 213.726744 226.111557 
L 217.702554 224.55222 
L 220.672974 223.382725 
L 224.688261 221.790904 
L 228.616477 220.296545 
L 232.544323 218.7697 
L 235.593514 217.567713 
L 239.521729 216.008377 
L 243.536832 214.449047 
L 246.53603 213.279552 
L 250.493946 211.720179 
L 254.529342 210.160872 
L 257.528909 208.991355 
L 261.573343 207.399578 
L 265.529045 205.872741 
L 269.472203 204.31336 
L 272.55091 203.078903 
L 276.508088 201.552066 
L 280.489617 199.960289 
L 287.446177 197.231465 
L 291.48065 195.672084 
L 294.479295 194.535111 
L 298.522438 192.94326 
L 302.47814 191.383953 
L 305.477339 190.214436 
L 309.511996 188.622584 
L 313.46696 187.063278 
L 316.551939 185.86129 
L 320.508195 184.334453 
L 324.463712 182.807617 
L 328.497079 181.183295 
L 331.495539 180.013778 
L 335.538313 178.422001 
L 339.493093 176.895165 
L 342.491 175.725647 
L 346.525104 174.133796 
L 350.465495 172.606959 
L 353.550105 171.404972 
L 357.50636 169.845665 
L 361.460955 168.286358 
L 364.537818 167.116841 
L 368.492044 165.557534 
L 372.532236 163.933213 
L 376.48554 162.406376 
L 379.483631 161.236859 
L 383.516813 159.677478 
L 387.470116 158.150641 
L 390.540706 156.948654 
L 394.494748 155.389347 
L 398.431634 153.83004 
L 401.508496 152.595508 
L 405.461985 151.068672 
L 409.500885 149.476895 
L 412.497869 148.339848 
L 416.452096 146.780541 
L 420.483433 145.22116 
L 424.434892 143.661853 
L 427.51858 142.427396 
" clip-path="url(#pc638081460)" style="fill: none; stroke: #d62728; stroke-width: 1.5; stroke-linecap: square"/>
   </g>
   <g id="line2d_22">
    <path d="M 59.031175 285.626066 
L 61.905853 285.301204 
L 65.885906 284.26165 
L 69.829801 283.189609 
L 73.757832 282.247512 
L 76.814033 281.467846 
L 80.758482 280.395805 
L 84.82118 279.25879 
L 87.798426 278.414152 
L 91.74269 277.277142 
L 95.764434 276.075155 
L 98.741864 275.198032 
L 102.770988 274.028529 
L 106.713408 272.891519 
L 110.655643 271.722017 
L 113.710922 270.844894 
L 117.653526 269.740369 
L 121.683203 268.570874 
L 124.659341 267.693743 
L 128.60213 266.524248 
L 132.606718 265.354746 
L 136.5484 264.185251 
L 139.611058 263.308128 
L 143.552924 262.17111 
L 147.495344 261.001615 
L 150.550623 260.092 
L 154.493043 258.922505 
L 158.52069 257.785487 
L 161.432816 256.940849 
L 165.374867 255.771354 
L 169.394213 254.569367 
L 173.334419 253.432349 
L 176.39763 252.522741 
L 180.338943 251.385724 
L 184.279703 250.248714 
L 187.302329 249.371583 
L 191.242904 248.202088 
L 195.269445 247.000101 
L 199.209098 245.863084 
L 202.184683 244.98596 
L 206.18798 243.783973 
L 210.063435 242.646956 
L 213.12683 241.769833 
L 217.066114 240.632823 
L 221.005767 239.430835 
L 225.024006 238.293818 
L 227.999407 237.416695 
L 232.026132 236.214707 
L 235.9656 235.045205 
L 238.924767 234.200567 
L 242.926588 232.998579 
L 246.865134 231.829084 
L 250.919531 230.659582 
L 253.923525 229.782459 
L 257.831264 228.612957 
L 261.878281 227.443454 
L 264.882091 226.566339 
L 268.936672 225.396836 
L 272.903811 224.227341 
L 275.908175 223.350218 
L 279.955008 222.148231 
L 283.921409 220.978736 
L 287.012292 220.069128 
L 290.979431 218.899633 
L 294.916501 217.762615 
L 297.998713 216.853007 
L 301.965484 215.71599 
L 306.018589 214.514002 
L 309.022583 213.604394 
L 312.989169 212.467362 
L 317.034342 211.265375 
L 321.000006 210.095932 
L 324.09015 209.186249 
L 328.057474 208.016807 
L 332.023507 206.879759 
L 335.106641 205.970151 
L 339.073227 204.800634 
L 343.126148 203.631191 
L 346.129405 202.754053 
L 350.095437 201.552066 
L 354.078257 200.415019 
L 357.066202 199.537955 
L 361.118938 198.335968 
L 365.08368 197.16645 
L 368.087121 196.289312 
L 372.131555 195.119795 
L 376.096297 193.950352 
L 379.185519 193.040744 
L 383.136978 191.871227 
L 387.088068 190.73418 
L 391.115716 189.532192 
L 394.105137 188.622584 
L 398.156766 187.453141 
L 402.120031 186.283624 
L 405.123104 185.406486 
L 409.167169 184.236969 
L 413.131173 183.067526 
L 416.219841 182.157918 
L 420.183291 181.020871 
L 424.117779 179.851353 
L 427.170475 178.941745 
" clip-path="url(#pc638081460)" style="fill: none; stroke: #9467bd; stroke-width: 1.5; stroke-linecap: square"/>
   </g>
   <g id="line2d_23">
    <path d="M 59.031175 286.730593 
L 62.919544 286.373245 
L 66.907529 285.593579 
L 69.874813 285.041316 
L 73.830515 284.521538 
L 77.848939 283.871817 
L 80.865478 283.25458 
L 84.94072 282.539886 
L 88.927598 281.825193 
L 91.943215 281.272929 
L 96.009602 280.493263 
L 99.996296 279.713594 
L 103.06541 279.161335 
L 106.987169 278.414152 
L 110.940473 277.634484 
L 114.002023 277.082225 
L 117.938909 276.335042 
L 121.947002 275.522888 
L 125.899937 274.808197 
L 128.882164 274.223446 
L 132.899296 273.443778 
L 136.852415 272.664117 
L 139.921345 272.079366 
L 143.873542 271.299698 
L 147.826108 270.552522 
L 150.887474 269.967771 
L 154.839487 269.188102 
L 158.877465 268.408434 
L 162.829293 267.628766 
L 165.811704 267.044015 
L 169.842857 266.231861 
L 173.794685 265.484685 
L 176.830593 264.932427 
L 180.78279 264.120273 
L 184.717647 263.340605 
L 187.778275 262.723369 
L 191.713316 262.008671 
L 195.75111 261.196517 
L 199.701277 260.384372 
L 202.682582 259.79962 
L 206.713734 259.052437 
L 210.664455 258.272769 
L 213.731725 257.688025 
L 217.682999 256.875872 
L 221.617487 256.128689 
L 224.677746 255.543937 
L 228.611865 254.731784 
L 232.64892 253.952123 
L 236.582117 253.20494 
L 239.562683 252.620189 
L 243.575941 251.84052 
L 247.555256 251.06086 
L 250.651304 250.443623 
L 254.630987 249.69644 
L 258.609749 248.916772 
L 261.668717 248.299543 
L 265.634934 247.55236 
L 269.686195 246.772692 
L 272.695908 246.155455 
L 276.675223 245.343302 
L 280.732202 244.596126 
L 283.741546 244.04386 
L 287.807564 243.199222 
L 291.785588 242.387069 
L 294.795485 241.83481 
L 298.853571 241.022657 
L 302.81573 240.210503 
L 305.911593 239.625752 
L 309.889432 238.846084 
L 313.867087 238.066416 
L 316.92624 237.449187 
L 320.890612 236.702004 
L 324.941134 235.922335 
L 327.950479 235.337584 
L 331.928502 234.525431 
L 335.983636 233.74577 
L 339.959815 232.998587 
L 343.054756 232.381351 
L 347.032042 231.569198 
L 351.008036 230.822022 
L 354.083054 230.204785 
L 358.05997 229.457602 
L 362.107172 228.645449 
L 365.115778 228.060698 
L 369.060412 227.313522 
L 373.115177 226.501369 
L 376.123415 225.916617 
L 380.186481 225.136949 
L 384.161553 224.324803 
L 387.17016 223.740052 
L 391.211089 222.960384 
L 395.185977 222.180716 
L 398.280918 221.595964 
L 402.255436 220.816296 
L 406.230508 220.036628 
L 409.317332 219.419399 
L 413.291666 218.672216 
L 417.352335 217.86007 
L 420.330503 217.275319 
L 424.305759 216.463166 
" clip-path="url(#pc638081460)" style="fill: none; stroke: #8c564b; stroke-width: 1.5; stroke-linecap: square"/>
   </g>
   <g id="line2d_24">
    <path d="M 59.034127 287.185398 
L 62.74872 287.022967 
L 66.722685 286.600648 
L 70.77044 286.34076 
L 73.691606 286.210815 
L 77.709291 285.885954 
L 81.671635 285.463635 
L 84.657366 285.203747 
L 88.699034 284.8464 
L 92.661561 284.489053 
L 95.733258 284.164191 
L 99.695232 283.83933 
L 103.641342 283.481983 
L 107.681534 283.09215 
L 110.667818 282.832261 
L 114.717603 282.474915 
L 118.679024 282.085082 
L 121.664202 281.792707 
L 125.705685 281.402874 
L 129.667106 281.013041 
L 132.738618 280.720666 
L 136.699854 280.36332 
L 140.661275 279.973486 
L 143.70899 279.648624 
L 147.621525 279.291283 
L 151.63589 278.901448 
L 155.563183 278.511614 
L 158.515525 278.219235 
L 162.506646 277.861893 
L 166.434492 277.504544 
L 170.432439 277.11471 
L 173.38515 276.789853 
L 177.313549 276.432504 
L 181.319613 276.04267 
L 184.271217 275.717805 
L 188.285398 275.327979 
L 192.212322 274.97063 
L 196.123381 274.580795 
L 199.154124 274.288424 
L 203.08197 273.898589 
L 207.095229 273.508755 
L 211.021599 273.118921 
L 213.974125 272.826549 
L 217.980005 272.436715 
L 221.906191 272.046881 
L 224.926788 271.754509 
L 228.852789 271.364675 
L 232.778975 270.974841 
L 236.782641 270.585007 
L 239.732769 270.292635 
L 243.729424 269.902801 
L 247.684204 269.512967 
L 250.66477 269.220587 
L 254.69869 268.830753 
L 258.653101 268.473411 
L 262.694584 268.051092 
L 265.675703 267.758713 
L 269.630852 267.368879 
L 273.648169 266.979045 
L 276.628181 266.686673 
L 280.656013 266.296839 
L 284.609502 265.907005 
L 287.590437 265.614633 
L 291.62325 265.224798 
L 295.576738 264.802479 
L 298.643085 264.510108 
L 302.597127 264.120273 
L 306.535673 263.730439 
L 310.567932 263.37309 
L 313.533556 263.080718 
L 317.573379 262.658399 
L 321.525945 262.268565 
L 324.505219 262.008678 
L 328.524197 261.586359 
L 332.460344 261.196525 
L 335.526138 260.904145 
L 339.479442 260.514311 
L 343.418172 260.124485 
L 347.44914 259.734651 
L 350.428231 259.442271 
L 354.467315 259.052437 
L 358.403463 258.662603 
L 361.382369 258.370231 
L 365.413521 257.980397 
L 369.364796 257.590563 
L 372.430036 257.298191 
L 376.381311 256.908357 
L 380.332217 256.518523 
L 384.361525 256.128689 
L 387.339324 255.836309 
L 391.377486 255.446482 
L 395.327654 255.056648 
L 398.306006 254.764269 
L 402.335683 254.374435 
L 406.285482 253.984601 
L 409.350353 253.692229 
L 413.300706 253.302395 
L 417.251242 252.880076 
L 421.26284 252.490242 
L 424.240455 252.197862 
" clip-path="url(#pc638081460)" style="fill: none; stroke: #e377c2; stroke-width: 1.5; stroke-linecap: square"/>
   </g>
   <g id="patch_3">
    <path d="M 40.603125 299.798125 
L 40.603125 22.318125 
" style="fill: none; stroke: #000000; stroke-width: 0.8; stroke-linejoin: miter; stroke-linecap: square"/>
   </g>
   <g id="patch_4">
    <path d="M 445.943125 299.798125 
L 445.943125 22.318125 
" style="fill: none; stroke: #000000; stroke-width: 0.8; stroke-linejoin: miter; stroke-linecap: square"/>
   </g>
   <g id="patch_5">
    <path d="M 40.603125 299.798125 
L 445.943125 299.798125 
" style="fill: none; stroke: #000000; stroke-width: 0.8; stroke-linejoin: miter; stroke-linecap: square"/>
   </g>
   <g id="patch_6">
    <path d="M 40.603125 22.318125 
L 445.943125 22.318125 
" style="fill: none; stroke: #000000; stroke-width: 0.8; stroke-linejoin: miter; stroke-linecap: square"/>
   </g>
   <g id="text_21">
    <!-- left theta vs. time -->
    <g transform="translate(189.819688 16.318125) scale(0.12 -0.12)">
     <defs>
      <path id="DejaVuSans-76" d="M 191 3500 
L 800 3500 
L 1894 563 
L 2988 3500 
L 3597 3500 
L 2284 0 
L 1503 0 
L 191 3500 
z
" transform="scale(0.015625)"/>
     </defs>
     <use xlink:href="#DejaVuSans-6c"/>
     <use xlink:href="#DejaVuSans-65" transform="translate(27.783203 0)"/>
     <use xlink:href="#DejaVuSans-66" transform="translate(89.306641 0)"/>
     <use xlink:href="#DejaVuSans-74" transform="translate(122.761719 0)"/>
     <use xlink:href="#DejaVuSans-20" transform="translate(161.970703 0)"/>
     <use xlink:href="#DejaVuSans-74" transform="translate(193.757812 0)"/>
     <use xlink:href="#DejaVuSans-68" transform="translate(232.966797 0)"/>
     <use xlink:href="#DejaVuSans-65" transform="translate(296.345703 0)"/>
     <use xlink:href="#DejaVuSans-74" transform="translate(357.869141 0)"/>
     <use xlink:href="#DejaVuSans-61" transform="translate(397.078125 0)"/>
     <use xlink:href="#DejaVuSans-20" transform="translate(458.357422 0)"/>
     <use xlink:href="#DejaVuSans-76" transform="translate(490.144531 0)"/>
     <use xlink:href="#DejaVuSans-73" transform="translate(549.324219 0)"/>
     <use xlink:href="#DejaVuSans-2e" transform="translate(601.423828 0)"/>
     <use xlink:href="#DejaVuSans-20" transform="translate(633.210938 0)"/>
     <use xlink:href="#DejaVuSans-74" transform="translate(664.998047 0)"/>
     <use xlink:href="#DejaVuSans-69" transform="translate(704.207031 0)"/>
     <use xlink:href="#DejaVuSans-6d" transform="translate(731.990234 0)"/>
     <use xlink:href="#DejaVuSans-65" transform="translate(829.402344 0)"/>
    </g>
   </g>
   <g id="legend_1">
    <g id="patch_7">
     <path d="M 47.603125 133.065 
L 164.128125 133.065 
Q 166.128125 133.065 166.128125 131.065 
L 166.128125 29.318125 
Q 166.128125 27.318125 164.128125 27.318125 
L 47.603125 27.318125 
Q 45.603125 27.318125 45.603125 29.318125 
L 45.603125 131.065 
Q 45.603125 133.065 47.603125 133.065 
z
" style="fill: #ffffff; opacity: 0.8; stroke: #cccccc; stroke-linejoin: miter"/>
    </g>
    <g id="line2d_25">
     <path d="M 49.603125 35.416563 
L 59.603125 35.416563 
L 69.603125 35.416563 
" style="fill: none; stroke: #1f77b4; stroke-width: 1.5; stroke-linecap: square"/>
    </g>
    <g id="text_22">
     <!-- Ref Speed = 595 -->
     <g transform="translate(77.603125 38.916563) scale(0.1 -0.1)">
      <defs>
       <path id="DejaVuSans-52" d="M 2841 2188 
Q 3044 2119 3236 1894 
Q 3428 1669 3622 1275 
L 4263 0 
L 3584 0 
L 2988 1197 
Q 2756 1666 2539 1819 
Q 2322 1972 1947 1972 
L 1259 1972 
L 1259 0 
L 628 0 
L 628 4666 
L 2053 4666 
Q 2853 4666 3247 4331 
Q 3641 3997 3641 3322 
Q 3641 2881 3436 2590 
Q 3231 2300 2841 2188 
z
M 1259 4147 
L 1259 2491 
L 2053 2491 
Q 2509 2491 2742 2702 
Q 2975 2913 2975 3322 
Q 2975 3731 2742 3939 
Q 2509 4147 2053 4147 
L 1259 4147 
z
" transform="scale(0.015625)"/>
       <path id="DejaVuSans-53" d="M 3425 4513 
L 3425 3897 
Q 3066 4069 2747 4153 
Q 2428 4238 2131 4238 
Q 1616 4238 1336 4038 
Q 1056 3838 1056 3469 
Q 1056 3159 1242 3001 
Q 1428 2844 1947 2747 
L 2328 2669 
Q 3034 2534 3370 2195 
Q 3706 1856 3706 1288 
Q 3706 609 3251 259 
Q 2797 -91 1919 -91 
Q 1588 -91 1214 -16 
Q 841 59 441 206 
L 441 856 
Q 825 641 1194 531 
Q 1563 422 1919 422 
Q 2459 422 2753 634 
Q 3047 847 3047 1241 
Q 3047 1584 2836 1778 
Q 2625 1972 2144 2069 
L 1759 2144 
Q 1053 2284 737 2584 
Q 422 2884 422 3419 
Q 422 4038 858 4394 
Q 1294 4750 2059 4750 
Q 2388 4750 2728 4690 
Q 3069 4631 3425 4513 
z
" transform="scale(0.015625)"/>
       <path id="DejaVuSans-70" d="M 1159 525 
L 1159 -1331 
L 581 -1331 
L 581 3500 
L 1159 3500 
L 1159 2969 
Q 1341 3281 1617 3432 
Q 1894 3584 2278 3584 
Q 2916 3584 3314 3078 
Q 3713 2572 3713 1747 
Q 3713 922 3314 415 
Q 2916 -91 2278 -91 
Q 1894 -91 1617 61 
Q 1341 213 1159 525 
z
M 3116 1747 
Q 3116 2381 2855 2742 
Q 2594 3103 2138 3103 
Q 1681 3103 1420 2742 
Q 1159 2381 1159 1747 
Q 1159 1113 1420 752 
Q 1681 391 2138 391 
Q 2594 391 2855 752 
Q 3116 1113 3116 1747 
z
" transform="scale(0.015625)"/>
       <path id="DejaVuSans-3d" d="M 678 2906 
L 4684 2906 
L 4684 2381 
L 678 2381 
L 678 2906 
z
M 678 1631 
L 4684 1631 
L 4684 1100 
L 678 1100 
L 678 1631 
z
" transform="scale(0.015625)"/>
       <path id="DejaVuSans-39" d="M 703 97 
L 703 672 
Q 941 559 1184 500 
Q 1428 441 1663 441 
Q 2288 441 2617 861 
Q 2947 1281 2994 2138 
Q 2813 1869 2534 1725 
Q 2256 1581 1919 1581 
Q 1219 1581 811 2004 
Q 403 2428 403 3163 
Q 403 3881 828 4315 
Q 1253 4750 1959 4750 
Q 2769 4750 3195 4129 
Q 3622 3509 3622 2328 
Q 3622 1225 3098 567 
Q 2575 -91 1691 -91 
Q 1453 -91 1209 -44 
Q 966 3 703 97 
z
M 1959 2075 
Q 2384 2075 2632 2365 
Q 2881 2656 2881 3163 
Q 2881 3666 2632 3958 
Q 2384 4250 1959 4250 
Q 1534 4250 1286 3958 
Q 1038 3666 1038 3163 
Q 1038 2656 1286 2365 
Q 1534 2075 1959 2075 
z
" transform="scale(0.015625)"/>
      </defs>
      <use xlink:href="#DejaVuSans-52"/>
      <use xlink:href="#DejaVuSans-65" transform="translate(64.982422 0)"/>
      <use xlink:href="#DejaVuSans-66" transform="translate(126.505859 0)"/>
      <use xlink:href="#DejaVuSans-20" transform="translate(161.710938 0)"/>
      <use xlink:href="#DejaVuSans-53" transform="translate(193.498047 0)"/>
      <use xlink:href="#DejaVuSans-70" transform="translate(256.974609 0)"/>
      <use xlink:href="#DejaVuSans-65" transform="translate(320.451172 0)"/>
      <use xlink:href="#DejaVuSans-65" transform="translate(381.974609 0)"/>
      <use xlink:href="#DejaVuSans-64" transform="translate(443.498047 0)"/>
      <use xlink:href="#DejaVuSans-20" transform="translate(506.974609 0)"/>
      <use xlink:href="#DejaVuSans-3d" transform="translate(538.761719 0)"/>
      <use xlink:href="#DejaVuSans-20" transform="translate(622.550781 0)"/>
      <use xlink:href="#DejaVuSans-35" transform="translate(654.337891 0)"/>
      <use xlink:href="#DejaVuSans-39" transform="translate(717.960938 0)"/>
      <use xlink:href="#DejaVuSans-35" transform="translate(781.583984 0)"/>
     </g>
    </g>
    <g id="line2d_26">
     <path d="M 49.603125 50.094688 
L 59.603125 50.094688 
L 69.603125 50.094688 
" style="fill: none; stroke: #ff7f0e; stroke-width: 1.5; stroke-linecap: square"/>
    </g>
    <g id="text_23">
     <!-- Ref Speed = 510 -->
     <g transform="translate(77.603125 53.594688) scale(0.1 -0.1)">
      <use xlink:href="#DejaVuSans-52"/>
      <use xlink:href="#DejaVuSans-65" transform="translate(64.982422 0)"/>
      <use xlink:href="#DejaVuSans-66" transform="translate(126.505859 0)"/>
      <use xlink:href="#DejaVuSans-20" transform="translate(161.710938 0)"/>
      <use xlink:href="#DejaVuSans-53" transform="translate(193.498047 0)"/>
      <use xlink:href="#DejaVuSans-70" transform="translate(256.974609 0)"/>
      <use xlink:href="#DejaVuSans-65" transform="translate(320.451172 0)"/>
      <use xlink:href="#DejaVuSans-65" transform="translate(381.974609 0)"/>
      <use xlink:href="#DejaVuSans-64" transform="translate(443.498047 0)"/>
      <use xlink:href="#DejaVuSans-20" transform="translate(506.974609 0)"/>
      <use xlink:href="#DejaVuSans-3d" transform="translate(538.761719 0)"/>
      <use xlink:href="#DejaVuSans-20" transform="translate(622.550781 0)"/>
      <use xlink:href="#DejaVuSans-35" transform="translate(654.337891 0)"/>
      <use xlink:href="#DejaVuSans-31" transform="translate(717.960938 0)"/>
      <use xlink:href="#DejaVuSans-30" transform="translate(781.583984 0)"/>
     </g>
    </g>
    <g id="line2d_27">
     <path d="M 49.603125 64.772813 
L 59.603125 64.772813 
L 69.603125 64.772813 
" style="fill: none; stroke: #2ca02c; stroke-width: 1.5; stroke-linecap: square"/>
    </g>
    <g id="text_24">
     <!-- Ref Speed = 425 -->
     <g transform="translate(77.603125 68.272813) scale(0.1 -0.1)">
      <defs>
       <path id="DejaVuSans-34" d="M 2419 4116 
L 825 1625 
L 2419 1625 
L 2419 4116 
z
M 2253 4666 
L 3047 4666 
L 3047 1625 
L 3713 1625 
L 3713 1100 
L 3047 1100 
L 3047 0 
L 2419 0 
L 2419 1100 
L 313 1100 
L 313 1709 
L 2253 4666 
z
" transform="scale(0.015625)"/>
      </defs>
      <use xlink:href="#DejaVuSans-52"/>
      <use xlink:href="#DejaVuSans-65" transform="translate(64.982422 0)"/>
      <use xlink:href="#DejaVuSans-66" transform="translate(126.505859 0)"/>
      <use xlink:href="#DejaVuSans-20" transform="translate(161.710938 0)"/>
      <use xlink:href="#DejaVuSans-53" transform="translate(193.498047 0)"/>
      <use xlink:href="#DejaVuSans-70" transform="translate(256.974609 0)"/>
      <use xlink:href="#DejaVuSans-65" transform="translate(320.451172 0)"/>
      <use xlink:href="#DejaVuSans-65" transform="translate(381.974609 0)"/>
      <use xlink:href="#DejaVuSans-64" transform="translate(443.498047 0)"/>
      <use xlink:href="#DejaVuSans-20" transform="translate(506.974609 0)"/>
      <use xlink:href="#DejaVuSans-3d" transform="translate(538.761719 0)"/>
      <use xlink:href="#DejaVuSans-20" transform="translate(622.550781 0)"/>
      <use xlink:href="#DejaVuSans-34" transform="translate(654.337891 0)"/>
      <use xlink:href="#DejaVuSans-32" transform="translate(717.960938 0)"/>
      <use xlink:href="#DejaVuSans-35" transform="translate(781.583984 0)"/>
     </g>
    </g>
    <g id="line2d_28">
     <path d="M 49.603125 79.450938 
L 59.603125 79.450938 
L 69.603125 79.450938 
" style="fill: none; stroke: #d62728; stroke-width: 1.5; stroke-linecap: square"/>
    </g>
    <g id="text_25">
     <!-- Ref Speed = 340 -->
     <g transform="translate(77.603125 82.950938) scale(0.1 -0.1)">
      <use xlink:href="#DejaVuSans-52"/>
      <use xlink:href="#DejaVuSans-65" transform="translate(64.982422 0)"/>
      <use xlink:href="#DejaVuSans-66" transform="translate(126.505859 0)"/>
      <use xlink:href="#DejaVuSans-20" transform="translate(161.710938 0)"/>
      <use xlink:href="#DejaVuSans-53" transform="translate(193.498047 0)"/>
      <use xlink:href="#DejaVuSans-70" transform="translate(256.974609 0)"/>
      <use xlink:href="#DejaVuSans-65" transform="translate(320.451172 0)"/>
      <use xlink:href="#DejaVuSans-65" transform="translate(381.974609 0)"/>
      <use xlink:href="#DejaVuSans-64" transform="translate(443.498047 0)"/>
      <use xlink:href="#DejaVuSans-20" transform="translate(506.974609 0)"/>
      <use xlink:href="#DejaVuSans-3d" transform="translate(538.761719 0)"/>
      <use xlink:href="#DejaVuSans-20" transform="translate(622.550781 0)"/>
      <use xlink:href="#DejaVuSans-33" transform="translate(654.337891 0)"/>
      <use xlink:href="#DejaVuSans-34" transform="translate(717.960938 0)"/>
      <use xlink:href="#DejaVuSans-30" transform="translate(781.583984 0)"/>
     </g>
    </g>
    <g id="line2d_29">
     <path d="M 49.603125 94.129063 
L 59.603125 94.129063 
L 69.603125 94.129063 
" style="fill: none; stroke: #9467bd; stroke-width: 1.5; stroke-linecap: square"/>
    </g>
    <g id="text_26">
     <!-- Ref Speed = 255 -->
     <g transform="translate(77.603125 97.629063) scale(0.1 -0.1)">
      <use xlink:href="#DejaVuSans-52"/>
      <use xlink:href="#DejaVuSans-65" transform="translate(64.982422 0)"/>
      <use xlink:href="#DejaVuSans-66" transform="translate(126.505859 0)"/>
      <use xlink:href="#DejaVuSans-20" transform="translate(161.710938 0)"/>
      <use xlink:href="#DejaVuSans-53" transform="translate(193.498047 0)"/>
      <use xlink:href="#DejaVuSans-70" transform="translate(256.974609 0)"/>
      <use xlink:href="#DejaVuSans-65" transform="translate(320.451172 0)"/>
      <use xlink:href="#DejaVuSans-65" transform="translate(381.974609 0)"/>
      <use xlink:href="#DejaVuSans-64" transform="translate(443.498047 0)"/>
      <use xlink:href="#DejaVuSans-20" transform="translate(506.974609 0)"/>
      <use xlink:href="#DejaVuSans-3d" transform="translate(538.761719 0)"/>
      <use xlink:href="#DejaVuSans-20" transform="translate(622.550781 0)"/>
      <use xlink:href="#DejaVuSans-32" transform="translate(654.337891 0)"/>
      <use xlink:href="#DejaVuSans-35" transform="translate(717.960938 0)"/>
      <use xlink:href="#DejaVuSans-35" transform="translate(781.583984 0)"/>
     </g>
    </g>
    <g id="line2d_30">
     <path d="M 49.603125 108.807188 
L 59.603125 108.807188 
L 69.603125 108.807188 
" style="fill: none; stroke: #8c564b; stroke-width: 1.5; stroke-linecap: square"/>
    </g>
    <g id="text_27">
     <!-- Ref Speed = 170 -->
     <g transform="translate(77.603125 112.307188) scale(0.1 -0.1)">
      <use xlink:href="#DejaVuSans-52"/>
      <use xlink:href="#DejaVuSans-65" transform="translate(64.982422 0)"/>
      <use xlink:href="#DejaVuSans-66" transform="translate(126.505859 0)"/>
      <use xlink:href="#DejaVuSans-20" transform="translate(161.710938 0)"/>
      <use xlink:href="#DejaVuSans-53" transform="translate(193.498047 0)"/>
      <use xlink:href="#DejaVuSans-70" transform="translate(256.974609 0)"/>
      <use xlink:href="#DejaVuSans-65" transform="translate(320.451172 0)"/>
      <use xlink:href="#DejaVuSans-65" transform="translate(381.974609 0)"/>
      <use xlink:href="#DejaVuSans-64" transform="translate(443.498047 0)"/>
      <use xlink:href="#DejaVuSans-20" transform="translate(506.974609 0)"/>
      <use xlink:href="#DejaVuSans-3d" transform="translate(538.761719 0)"/>
      <use xlink:href="#DejaVuSans-20" transform="translate(622.550781 0)"/>
      <use xlink:href="#DejaVuSans-31" transform="translate(654.337891 0)"/>
      <use xlink:href="#DejaVuSans-37" transform="translate(717.960938 0)"/>
      <use xlink:href="#DejaVuSans-30" transform="translate(781.583984 0)"/>
     </g>
    </g>
    <g id="line2d_31">
     <path d="M 49.603125 123.485313 
L 59.603125 123.485313 
L 69.603125 123.485313 
" style="fill: none; stroke: #e377c2; stroke-width: 1.5; stroke-linecap: square"/>
    </g>
    <g id="text_28">
     <!-- Ref Speed = 85 -->
     <g transform="translate(77.603125 126.985313) scale(0.1 -0.1)">
      <defs>
       <path id="DejaVuSans-38" d="M 2034 2216 
Q 1584 2216 1326 1975 
Q 1069 1734 1069 1313 
Q 1069 891 1326 650 
Q 1584 409 2034 409 
Q 2484 409 2743 651 
Q 3003 894 3003 1313 
Q 3003 1734 2745 1975 
Q 2488 2216 2034 2216 
z
M 1403 2484 
Q 997 2584 770 2862 
Q 544 3141 544 3541 
Q 544 4100 942 4425 
Q 1341 4750 2034 4750 
Q 2731 4750 3128 4425 
Q 3525 4100 3525 3541 
Q 3525 3141 3298 2862 
Q 3072 2584 2669 2484 
Q 3125 2378 3379 2068 
Q 3634 1759 3634 1313 
Q 3634 634 3220 271 
Q 2806 -91 2034 -91 
Q 1263 -91 848 271 
Q 434 634 434 1313 
Q 434 1759 690 2068 
Q 947 2378 1403 2484 
z
M 1172 3481 
Q 1172 3119 1398 2916 
Q 1625 2713 2034 2713 
Q 2441 2713 2670 2916 
Q 2900 3119 2900 3481 
Q 2900 3844 2670 4047 
Q 2441 4250 2034 4250 
Q 1625 4250 1398 4047 
Q 1172 3844 1172 3481 
z
" transform="scale(0.015625)"/>
      </defs>
      <use xlink:href="#DejaVuSans-52"/>
      <use xlink:href="#DejaVuSans-65" transform="translate(64.982422 0)"/>
      <use xlink:href="#DejaVuSans-66" transform="translate(126.505859 0)"/>
      <use xlink:href="#DejaVuSans-20" transform="translate(161.710938 0)"/>
      <use xlink:href="#DejaVuSans-53" transform="translate(193.498047 0)"/>
      <use xlink:href="#DejaVuSans-70" transform="translate(256.974609 0)"/>
      <use xlink:href="#DejaVuSans-65" transform="translate(320.451172 0)"/>
      <use xlink:href="#DejaVuSans-65" transform="translate(381.974609 0)"/>
      <use xlink:href="#DejaVuSans-64" transform="translate(443.498047 0)"/>
      <use xlink:href="#DejaVuSans-20" transform="translate(506.974609 0)"/>
      <use xlink:href="#DejaVuSans-3d" transform="translate(538.761719 0)"/>
      <use xlink:href="#DejaVuSans-20" transform="translate(622.550781 0)"/>
      <use xlink:href="#DejaVuSans-38" transform="translate(654.337891 0)"/>
      <use xlink:href="#DejaVuSans-35" transform="translate(717.960938 0)"/>
     </g>
    </g>
   </g>
  </g>
 </g>
 <defs>
  <clipPath id="pc638081460">
   <rect x="40.603125" y="22.318125" width="405.34" height="277.48"/>
  </clipPath>
 </defs>
</svg>
