<?xml version="1.0" encoding="utf-8" standalone="no"?>
<!DOCTYPE svg PUBLIC "-//W3C//DTD SVG 1.1//EN"
  "http://www.w3.org/Graphics/SVG/1.1/DTD/svg11.dtd">
<svg xmlns:xlink="http://www.w3.org/1999/xlink" width="453.180312pt" height="336.634375pt" viewBox="0 0 453.180312 336.634375" xmlns="http://www.w3.org/2000/svg" version="1.1">
 <metadata>
  <rdf:RDF xmlns:dc="http://purl.org/dc/elements/1.1/" xmlns:cc="http://creativecommons.org/ns#" xmlns:rdf="http://www.w3.org/1999/02/22-rdf-syntax-ns#">
   <cc:Work>
    <dc:type rdf:resource="http://purl.org/dc/dcmitype/StillImage"/>
    <dc:date>2025-11-24T16:11:14.013903</dc:date>
    <dc:format>image/svg+xml</dc:format>
    <dc:creator>
     <cc:Agent>
      <dc:title>Matplotlib v3.10.6, https://matplotlib.org/</dc:title>
     </cc:Agent>
    </dc:creator>
   </cc:Work>
  </rdf:RDF>
 </metadata>
 <defs>
  <style type="text/css">*{stroke-linejoin: round; stroke-linecap: butt}</style>
 </defs>
 <g id="figure_1">
  <g id="patch_1">
   <path d="M 0 336.634375 
L 453.180313 336.634375 
L 453.180313 0 
L 0 0 
z
" style="fill: #ffffff"/>
  </g>
  <g id="axes_1">
   <g id="patch_2">
    <path d="M 42.620313 299.078125 
L 445.980313 299.078125 
L 445.980313 22.318125 
L 42.620313 22.318125 
z
" style="fill: #ffffff"/>
   </g>
   <g id="matplotlib.axis_1">
    <g id="xtick_1">
     <g id="line2d_1">
      <defs>
       <path id="m9d6a706efa" d="M 0 0 
L 0 3.5 
" style="stroke: #000000; stroke-width: 0.8"/>
      </defs>
      <g>
       <use xlink:href="#m9d6a706efa" x="60.620106" y="299.078125" style="stroke: #000000; stroke-width: 0.8"/>
      </g>
     </g>
     <g id="text_1">
      <!-- 0.0 -->
      <g transform="translate(52.668543 313.676562) scale(0.1 -0.1)">
       <defs>
        <path id="DejaVuSans-30" d="M 2034 4250 
Q 1547 4250 1301 3770 
Q 1056 3291 1056 2328 
Q 1056 1369 1301 889 
Q 1547 409 2034 409 
Q 2525 409 2770 889 
Q 3016 1369 3016 2328 
Q 3016 3291 2770 3770 
Q 2525 4250 2034 4250 
z
M 2034 4750 
Q 2819 4750 3233 4129 
Q 3647 3509 3647 2328 
Q 3647 1150 3233 529 
Q 2819 -91 2034 -91 
Q 1250 -91 836 529 
Q 422 1150 422 2328 
Q 422 3509 836 4129 
Q 1250 4750 2034 4750 
z
" transform="scale(0.015625)"/>
        <path id="DejaVuSans-2e" d="M 684 794 
L 1344 794 
L 1344 0 
L 684 0 
L 684 794 
z
" transform="scale(0.015625)"/>
       </defs>
       <use xlink:href="#DejaVuSans-30"/>
       <use xlink:href="#DejaVuSans-2e" transform="translate(63.623047 0)"/>
       <use xlink:href="#DejaVuSans-30" transform="translate(95.410156 0)"/>
      </g>
     </g>
    </g>
    <g id="xtick_2">
     <g id="line2d_2">
      <g>
       <use xlink:href="#m9d6a706efa" x="134.03067" y="299.078125" style="stroke: #000000; stroke-width: 0.8"/>
      </g>
     </g>
     <g id="text_2">
      <!-- 0.1 -->
      <g transform="translate(126.079108 313.676562) scale(0.1 -0.1)">
       <defs>
        <path id="DejaVuSans-31" d="M 794 531 
L 1825 531 
L 1825 4091 
L 703 3866 
L 703 4441 
L 1819 4666 
L 2450 4666 
L 2450 531 
L 3481 531 
L 3481 0 
L 794 0 
L 794 531 
z
" transform="scale(0.015625)"/>
       </defs>
       <use xlink:href="#DejaVuSans-30"/>
       <use xlink:href="#DejaVuSans-2e" transform="translate(63.623047 0)"/>
       <use xlink:href="#DejaVuSans-31" transform="translate(95.410156 0)"/>
      </g>
     </g>
    </g>
    <g id="xtick_3">
     <g id="line2d_3">
      <g>
       <use xlink:href="#m9d6a706efa" x="207.441235" y="299.078125" style="stroke: #000000; stroke-width: 0.8"/>
      </g>
     </g>
     <g id="text_3">
      <!-- 0.2 -->
      <g transform="translate(199.489673 313.676562) scale(0.1 -0.1)">
       <defs>
        <path id="DejaVuSans-32" d="M 1228 531 
L 3431 531 
L 3431 0 
L 469 0 
L 469 531 
Q 828 903 1448 1529 
Q 2069 2156 2228 2338 
Q 2531 2678 2651 2914 
Q 2772 3150 2772 3378 
Q 2772 3750 2511 3984 
Q 2250 4219 1831 4219 
Q 1534 4219 1204 4116 
Q 875 4013 500 3803 
L 500 4441 
Q 881 4594 1212 4672 
Q 1544 4750 1819 4750 
Q 2544 4750 2975 4387 
Q 3406 4025 3406 3419 
Q 3406 3131 3298 2873 
Q 3191 2616 2906 2266 
Q 2828 2175 2409 1742 
Q 1991 1309 1228 531 
z
" transform="scale(0.015625)"/>
       </defs>
       <use xlink:href="#DejaVuSans-30"/>
       <use xlink:href="#DejaVuSans-2e" transform="translate(63.623047 0)"/>
       <use xlink:href="#DejaVuSans-32" transform="translate(95.410156 0)"/>
      </g>
     </g>
    </g>
    <g id="xtick_4">
     <g id="line2d_4">
      <g>
       <use xlink:href="#m9d6a706efa" x="280.8518" y="299.078125" style="stroke: #000000; stroke-width: 0.8"/>
      </g>
     </g>
     <g id="text_4">
      <!-- 0.3 -->
      <g transform="translate(272.900237 313.676562) scale(0.1 -0.1)">
       <defs>
        <path id="DejaVuSans-33" d="M 2597 2516 
Q 3050 2419 3304 2112 
Q 3559 1806 3559 1356 
Q 3559 666 3084 287 
Q 2609 -91 1734 -91 
Q 1441 -91 1130 -33 
Q 819 25 488 141 
L 488 750 
Q 750 597 1062 519 
Q 1375 441 1716 441 
Q 2309 441 2620 675 
Q 2931 909 2931 1356 
Q 2931 1769 2642 2001 
Q 2353 2234 1838 2234 
L 1294 2234 
L 1294 2753 
L 1863 2753 
Q 2328 2753 2575 2939 
Q 2822 3125 2822 3475 
Q 2822 3834 2567 4026 
Q 2313 4219 1838 4219 
Q 1578 4219 1281 4162 
Q 984 4106 628 3988 
L 628 4550 
Q 988 4650 1302 4700 
Q 1616 4750 1894 4750 
Q 2613 4750 3031 4423 
Q 3450 4097 3450 3541 
Q 3450 3153 3228 2886 
Q 3006 2619 2597 2516 
z
" transform="scale(0.015625)"/>
       </defs>
       <use xlink:href="#DejaVuSans-30"/>
       <use xlink:href="#DejaVuSans-2e" transform="translate(63.623047 0)"/>
       <use xlink:href="#DejaVuSans-33" transform="translate(95.410156 0)"/>
      </g>
     </g>
    </g>
    <g id="xtick_5">
     <g id="line2d_5">
      <g>
       <use xlink:href="#m9d6a706efa" x="354.262364" y="299.078125" style="stroke: #000000; stroke-width: 0.8"/>
      </g>
     </g>
     <g id="text_5">
      <!-- 0.4 -->
      <g transform="translate(346.310802 313.676562) scale(0.1 -0.1)">
       <defs>
        <path id="DejaVuSans-34" d="M 2419 4116 
L 825 1625 
L 2419 1625 
L 2419 4116 
z
M 2253 4666 
L 3047 4666 
L 3047 1625 
L 3713 1625 
L 3713 1100 
L 3047 1100 
L 3047 0 
L 2419 0 
L 2419 1100 
L 313 1100 
L 313 1709 
L 2253 4666 
z
" transform="scale(0.015625)"/>
       </defs>
       <use xlink:href="#DejaVuSans-30"/>
       <use xlink:href="#DejaVuSans-2e" transform="translate(63.623047 0)"/>
       <use xlink:href="#DejaVuSans-34" transform="translate(95.410156 0)"/>
      </g>
     </g>
    </g>
    <g id="xtick_6">
     <g id="line2d_6">
      <g>
       <use xlink:href="#m9d6a706efa" x="427.672929" y="299.078125" style="stroke: #000000; stroke-width: 0.8"/>
      </g>
     </g>
     <g id="text_6">
      <!-- 0.5 -->
      <g transform="translate(419.721366 313.676562) scale(0.1 -0.1)">
       <defs>
        <path id="DejaVuSans-35" d="M 691 4666 
L 3169 4666 
L 3169 4134 
L 1269 4134 
L 1269 2991 
Q 1406 3038 1543 3061 
Q 1681 3084 1819 3084 
Q 2600 3084 3056 2656 
Q 3513 2228 3513 1497 
Q 3513 744 3044 326 
Q 2575 -91 1722 -91 
Q 1428 -91 1123 -41 
Q 819 9 494 109 
L 494 744 
Q 775 591 1075 516 
Q 1375 441 1709 441 
Q 2250 441 2565 725 
Q 2881 1009 2881 1497 
Q 2881 1984 2565 2268 
Q 2250 2553 1709 2553 
Q 1456 2553 1204 2497 
Q 953 2441 691 2322 
L 691 4666 
z
" transform="scale(0.015625)"/>
       </defs>
       <use xlink:href="#DejaVuSans-30"/>
       <use xlink:href="#DejaVuSans-2e" transform="translate(63.623047 0)"/>
       <use xlink:href="#DejaVuSans-35" transform="translate(95.410156 0)"/>
      </g>
     </g>
    </g>
    <g id="text_7">
     <!-- time, t (s) -->
     <g transform="translate(219.770625 327.354687) scale(0.1 -0.1)">
      <defs>
       <path id="DejaVuSans-74" d="M 1172 4494 
L 1172 3500 
L 2356 3500 
L 2356 3053 
L 1172 3053 
L 1172 1153 
Q 1172 725 1289 603 
Q 1406 481 1766 481 
L 2356 481 
L 2356 0 
L 1766 0 
Q 1100 0 847 248 
Q 594 497 594 1153 
L 594 3053 
L 172 3053 
L 172 3500 
L 594 3500 
L 594 4494 
L 1172 4494 
z
" transform="scale(0.015625)"/>
       <path id="DejaVuSans-69" d="M 603 3500 
L 1178 3500 
L 1178 0 
L 603 0 
L 603 3500 
z
M 603 4863 
L 1178 4863 
L 1178 4134 
L 603 4134 
L 603 4863 
z
" transform="scale(0.015625)"/>
       <path id="DejaVuSans-6d" d="M 3328 2828 
Q 3544 3216 3844 3400 
Q 4144 3584 4550 3584 
Q 5097 3584 5394 3201 
Q 5691 2819 5691 2113 
L 5691 0 
L 5113 0 
L 5113 2094 
Q 5113 2597 4934 2840 
Q 4756 3084 4391 3084 
Q 3944 3084 3684 2787 
Q 3425 2491 3425 1978 
L 3425 0 
L 2847 0 
L 2847 2094 
Q 2847 2600 2669 2842 
Q 2491 3084 2119 3084 
Q 1678 3084 1418 2786 
Q 1159 2488 1159 1978 
L 1159 0 
L 581 0 
L 581 3500 
L 1159 3500 
L 1159 2956 
Q 1356 3278 1631 3431 
Q 1906 3584 2284 3584 
Q 2666 3584 2933 3390 
Q 3200 3197 3328 2828 
z
" transform="scale(0.015625)"/>
       <path id="DejaVuSans-65" d="M 3597 1894 
L 3597 1613 
L 953 1613 
Q 991 1019 1311 708 
Q 1631 397 2203 397 
Q 2534 397 2845 478 
Q 3156 559 3463 722 
L 3463 178 
Q 3153 47 2828 -22 
Q 2503 -91 2169 -91 
Q 1331 -91 842 396 
Q 353 884 353 1716 
Q 353 2575 817 3079 
Q 1281 3584 2069 3584 
Q 2775 3584 3186 3129 
Q 3597 2675 3597 1894 
z
M 3022 2063 
Q 3016 2534 2758 2815 
Q 2500 3097 2075 3097 
Q 1594 3097 1305 2825 
Q 1016 2553 972 2059 
L 3022 2063 
z
" transform="scale(0.015625)"/>
       <path id="DejaVuSans-2c" d="M 750 794 
L 1409 794 
L 1409 256 
L 897 -744 
L 494 -744 
L 750 256 
L 750 794 
z
" transform="scale(0.015625)"/>
       <path id="DejaVuSans-20" transform="scale(0.015625)"/>
       <path id="DejaVuSans-28" d="M 1984 4856 
Q 1566 4138 1362 3434 
Q 1159 2731 1159 2009 
Q 1159 1288 1364 580 
Q 1569 -128 1984 -844 
L 1484 -844 
Q 1016 -109 783 600 
Q 550 1309 550 2009 
Q 550 2706 781 3412 
Q 1013 4119 1484 4856 
L 1984 4856 
z
" transform="scale(0.015625)"/>
       <path id="DejaVuSans-73" d="M 2834 3397 
L 2834 2853 
Q 2591 2978 2328 3040 
Q 2066 3103 1784 3103 
Q 1356 3103 1142 2972 
Q 928 2841 928 2578 
Q 928 2378 1081 2264 
Q 1234 2150 1697 2047 
L 1894 2003 
Q 2506 1872 2764 1633 
Q 3022 1394 3022 966 
Q 3022 478 2636 193 
Q 2250 -91 1575 -91 
Q 1294 -91 989 -36 
Q 684 19 347 128 
L 347 722 
Q 666 556 975 473 
Q 1284 391 1588 391 
Q 1994 391 2212 530 
Q 2431 669 2431 922 
Q 2431 1156 2273 1281 
Q 2116 1406 1581 1522 
L 1381 1569 
Q 847 1681 609 1914 
Q 372 2147 372 2553 
Q 372 3047 722 3315 
Q 1072 3584 1716 3584 
Q 2034 3584 2315 3537 
Q 2597 3491 2834 3397 
z
" transform="scale(0.015625)"/>
       <path id="DejaVuSans-29" d="M 513 4856 
L 1013 4856 
Q 1481 4119 1714 3412 
Q 1947 2706 1947 2009 
Q 1947 1309 1714 600 
Q 1481 -109 1013 -844 
L 513 -844 
Q 928 -128 1133 580 
Q 1338 1288 1338 2009 
Q 1338 2731 1133 3434 
Q 928 4138 513 4856 
z
" transform="scale(0.015625)"/>
      </defs>
      <use xlink:href="#DejaVuSans-74"/>
      <use xlink:href="#DejaVuSans-69" transform="translate(39.208984 0)"/>
      <use xlink:href="#DejaVuSans-6d" transform="translate(66.992188 0)"/>
      <use xlink:href="#DejaVuSans-65" transform="translate(164.404297 0)"/>
      <use xlink:href="#DejaVuSans-2c" transform="translate(225.927734 0)"/>
      <use xlink:href="#DejaVuSans-20" transform="translate(257.714844 0)"/>
      <use xlink:href="#DejaVuSans-74" transform="translate(289.501953 0)"/>
      <use xlink:href="#DejaVuSans-20" transform="translate(328.710938 0)"/>
      <use xlink:href="#DejaVuSans-28" transform="translate(360.498047 0)"/>
      <use xlink:href="#DejaVuSans-73" transform="translate(399.511719 0)"/>
      <use xlink:href="#DejaVuSans-29" transform="translate(451.611328 0)"/>
     </g>
    </g>
   </g>
   <g id="matplotlib.axis_2">
    <g id="ytick_1">
     <g id="line2d_7">
      <defs>
       <path id="mda29a5b24f" d="M 0 0 
L -3.5 0 
" style="stroke: #000000; stroke-width: 0.8"/>
      </defs>
      <g>
       <use xlink:href="#mda29a5b24f" x="42.620313" y="270.604728" style="stroke: #000000; stroke-width: 0.8"/>
      </g>
     </g>
     <g id="text_8">
      <!-- −8 -->
      <g transform="translate(20.878125 274.403947) scale(0.1 -0.1)">
       <defs>
        <path id="DejaVuSans-2212" d="M 678 2272 
L 4684 2272 
L 4684 1741 
L 678 1741 
L 678 2272 
z
" transform="scale(0.015625)"/>
        <path id="DejaVuSans-38" d="M 2034 2216 
Q 1584 2216 1326 1975 
Q 1069 1734 1069 1313 
Q 1069 891 1326 650 
Q 1584 409 2034 409 
Q 2484 409 2743 651 
Q 3003 894 3003 1313 
Q 3003 1734 2745 1975 
Q 2488 2216 2034 2216 
z
M 1403 2484 
Q 997 2584 770 2862 
Q 544 3141 544 3541 
Q 544 4100 942 4425 
Q 1341 4750 2034 4750 
Q 2731 4750 3128 4425 
Q 3525 4100 3525 3541 
Q 3525 3141 3298 2862 
Q 3072 2584 2669 2484 
Q 3125 2378 3379 2068 
Q 3634 1759 3634 1313 
Q 3634 634 3220 271 
Q 2806 -91 2034 -91 
Q 1263 -91 848 271 
Q 434 634 434 1313 
Q 434 1759 690 2068 
Q 947 2378 1403 2484 
z
M 1172 3481 
Q 1172 3119 1398 2916 
Q 1625 2713 2034 2713 
Q 2441 2713 2670 2916 
Q 2900 3119 2900 3481 
Q 2900 3844 2670 4047 
Q 2441 4250 2034 4250 
Q 1625 4250 1398 4047 
Q 1172 3844 1172 3481 
z
" transform="scale(0.015625)"/>
       </defs>
       <use xlink:href="#DejaVuSans-2212"/>
       <use xlink:href="#DejaVuSans-38" transform="translate(83.789062 0)"/>
      </g>
     </g>
    </g>
    <g id="ytick_2">
     <g id="line2d_8">
      <g>
       <use xlink:href="#mda29a5b24f" x="42.620313" y="211.678078" style="stroke: #000000; stroke-width: 0.8"/>
      </g>
     </g>
     <g id="text_9">
      <!-- −6 -->
      <g transform="translate(20.878125 215.477296) scale(0.1 -0.1)">
       <defs>
        <path id="DejaVuSans-36" d="M 2113 2584 
Q 1688 2584 1439 2293 
Q 1191 2003 1191 1497 
Q 1191 994 1439 701 
Q 1688 409 2113 409 
Q 2538 409 2786 701 
Q 3034 994 3034 1497 
Q 3034 2003 2786 2293 
Q 2538 2584 2113 2584 
z
M 3366 4563 
L 3366 3988 
Q 3128 4100 2886 4159 
Q 2644 4219 2406 4219 
Q 1781 4219 1451 3797 
Q 1122 3375 1075 2522 
Q 1259 2794 1537 2939 
Q 1816 3084 2150 3084 
Q 2853 3084 3261 2657 
Q 3669 2231 3669 1497 
Q 3669 778 3244 343 
Q 2819 -91 2113 -91 
Q 1303 -91 875 529 
Q 447 1150 447 2328 
Q 447 3434 972 4092 
Q 1497 4750 2381 4750 
Q 2619 4750 2861 4703 
Q 3103 4656 3366 4563 
z
" transform="scale(0.015625)"/>
       </defs>
       <use xlink:href="#DejaVuSans-2212"/>
       <use xlink:href="#DejaVuSans-36" transform="translate(83.789062 0)"/>
      </g>
     </g>
    </g>
    <g id="ytick_3">
     <g id="line2d_9">
      <g>
       <use xlink:href="#mda29a5b24f" x="42.620313" y="152.751427" style="stroke: #000000; stroke-width: 0.8"/>
      </g>
     </g>
     <g id="text_10">
      <!-- −4 -->
      <g transform="translate(20.878125 156.550645) scale(0.1 -0.1)">
       <use xlink:href="#DejaVuSans-2212"/>
       <use xlink:href="#DejaVuSans-34" transform="translate(83.789062 0)"/>
      </g>
     </g>
    </g>
    <g id="ytick_4">
     <g id="line2d_10">
      <g>
       <use xlink:href="#mda29a5b24f" x="42.620313" y="93.824776" style="stroke: #000000; stroke-width: 0.8"/>
      </g>
     </g>
     <g id="text_11">
      <!-- −2 -->
      <g transform="translate(20.878125 97.623995) scale(0.1 -0.1)">
       <use xlink:href="#DejaVuSans-2212"/>
       <use xlink:href="#DejaVuSans-32" transform="translate(83.789062 0)"/>
      </g>
     </g>
    </g>
    <g id="ytick_5">
     <g id="line2d_11">
      <g>
       <use xlink:href="#mda29a5b24f" x="42.620313" y="34.898125" style="stroke: #000000; stroke-width: 0.8"/>
      </g>
     </g>
     <g id="text_12">
      <!-- 0 -->
      <g transform="translate(29.257813 38.697344) scale(0.1 -0.1)">
       <use xlink:href="#DejaVuSans-30"/>
      </g>
     </g>
    </g>
    <g id="text_13">
     <!-- ln(1-Vact/Vset)  -->
     <g transform="translate(14.798438 198.990312) rotate(-90) scale(0.1 -0.1)">
      <defs>
       <path id="DejaVuSans-6c" d="M 603 4863 
L 1178 4863 
L 1178 0 
L 603 0 
L 603 4863 
z
" transform="scale(0.015625)"/>
       <path id="DejaVuSans-6e" d="M 3513 2113 
L 3513 0 
L 2938 0 
L 2938 2094 
Q 2938 2591 2744 2837 
Q 2550 3084 2163 3084 
Q 1697 3084 1428 2787 
Q 1159 2491 1159 1978 
L 1159 0 
L 581 0 
L 581 3500 
L 1159 3500 
L 1159 2956 
Q 1366 3272 1645 3428 
Q 1925 3584 2291 3584 
Q 2894 3584 3203 3211 
Q 3513 2838 3513 2113 
z
" transform="scale(0.015625)"/>
       <path id="DejaVuSans-2d" d="M 313 2009 
L 1997 2009 
L 1997 1497 
L 313 1497 
L 313 2009 
z
" transform="scale(0.015625)"/>
       <path id="DejaVuSans-56" d="M 1831 0 
L 50 4666 
L 709 4666 
L 2188 738 
L 3669 4666 
L 4325 4666 
L 2547 0 
L 1831 0 
z
" transform="scale(0.015625)"/>
       <path id="DejaVuSans-61" d="M 2194 1759 
Q 1497 1759 1228 1600 
Q 959 1441 959 1056 
Q 959 750 1161 570 
Q 1363 391 1709 391 
Q 2188 391 2477 730 
Q 2766 1069 2766 1631 
L 2766 1759 
L 2194 1759 
z
M 3341 1997 
L 3341 0 
L 2766 0 
L 2766 531 
Q 2569 213 2275 61 
Q 1981 -91 1556 -91 
Q 1019 -91 701 211 
Q 384 513 384 1019 
Q 384 1609 779 1909 
Q 1175 2209 1959 2209 
L 2766 2209 
L 2766 2266 
Q 2766 2663 2505 2880 
Q 2244 3097 1772 3097 
Q 1472 3097 1187 3025 
Q 903 2953 641 2809 
L 641 3341 
Q 956 3463 1253 3523 
Q 1550 3584 1831 3584 
Q 2591 3584 2966 3190 
Q 3341 2797 3341 1997 
z
" transform="scale(0.015625)"/>
       <path id="DejaVuSans-63" d="M 3122 3366 
L 3122 2828 
Q 2878 2963 2633 3030 
Q 2388 3097 2138 3097 
Q 1578 3097 1268 2742 
Q 959 2388 959 1747 
Q 959 1106 1268 751 
Q 1578 397 2138 397 
Q 2388 397 2633 464 
Q 2878 531 3122 666 
L 3122 134 
Q 2881 22 2623 -34 
Q 2366 -91 2075 -91 
Q 1284 -91 818 406 
Q 353 903 353 1747 
Q 353 2603 823 3093 
Q 1294 3584 2113 3584 
Q 2378 3584 2631 3529 
Q 2884 3475 3122 3366 
z
" transform="scale(0.015625)"/>
       <path id="DejaVuSans-2f" d="M 1625 4666 
L 2156 4666 
L 531 -594 
L 0 -594 
L 1625 4666 
z
" transform="scale(0.015625)"/>
      </defs>
      <use xlink:href="#DejaVuSans-6c"/>
      <use xlink:href="#DejaVuSans-6e" transform="translate(27.783203 0)"/>
      <use xlink:href="#DejaVuSans-28" transform="translate(91.162109 0)"/>
      <use xlink:href="#DejaVuSans-31" transform="translate(130.175781 0)"/>
      <use xlink:href="#DejaVuSans-2d" transform="translate(193.798828 0)"/>
      <use xlink:href="#DejaVuSans-56" transform="translate(224.007812 0)"/>
      <use xlink:href="#DejaVuSans-61" transform="translate(284.666016 0)"/>
      <use xlink:href="#DejaVuSans-63" transform="translate(345.945312 0)"/>
      <use xlink:href="#DejaVuSans-74" transform="translate(400.925781 0)"/>
      <use xlink:href="#DejaVuSans-2f" transform="translate(440.134766 0)"/>
      <use xlink:href="#DejaVuSans-56" transform="translate(473.826172 0)"/>
      <use xlink:href="#DejaVuSans-73" transform="translate(542.234375 0)"/>
      <use xlink:href="#DejaVuSans-65" transform="translate(594.333984 0)"/>
      <use xlink:href="#DejaVuSans-74" transform="translate(655.857422 0)"/>
      <use xlink:href="#DejaVuSans-29" transform="translate(695.066406 0)"/>
      <use xlink:href="#DejaVuSans-20" transform="translate(734.080078 0)"/>
     </g>
    </g>
   </g>
   <g id="line2d_12">
    <path d="M 61.019459 34.898125 
L 75.557687 38.463422 
L 90.286049 52.706574 
L 105.435787 58.531721 
L 120.398329 52.34011 
L 135.672131 58.233658 
L 147.50885 70.801889 
L 162.58738 78.849477 
L 177.99846 94.666208 
L 193.07699 224.6564 
L 208.49174 144.312307 
L 223.571004 99.063676 
L 238.658344 198.513497 
L 250.785769 133.015568 
L 265.874576 198.513497 
L 281.344385 141.679904 
L 296.499262 175.599734 
L 323.973165 124.869755 
L 354.722649 92.691377 
L 385.143987 168.551232 
L 397.398412 126.328633 
L 412.61422 168.551232 
" clip-path="url(#pd68108f2e0)" style="fill: none; stroke: #1f77b4; stroke-width: 1.5; stroke-linecap: square"/>
   </g>
   <g id="line2d_13">
    <path d="M 60.955592 34.898125 
L 75.46519 41.533772 
L 90.746333 51.525574 
L 105.693458 54.746728 
L 120.653063 57.654859 
L 135.903374 72.485557 
L 150.992181 95.817432 
L 163.137225 104.084953 
L 178.353033 94.233001 
L 193.626101 129.275807 
L 209.208961 117.988292 
L 224.481295 129.275807 
L 252.165887 126.513756 
L 283.084949 155.522309 
L 310.770275 153.808842 
L 369.113322 126.513756 
L 384.718939 159.280686 
" clip-path="url(#pd68108f2e0)" style="fill: none; stroke: #ff7f0e; stroke-width: 1.5; stroke-linecap: square"/>
   </g>
   <g id="line2d_14">
    <path d="M 60.95706 34.898125 
L 75.51878 43.286772 
L 90.479853 54.314449 
L 105.731632 55.493139 
L 120.693439 59.971226 
L 132.906021 64.011756 
L 148.121828 82.390065 
L 163.458763 91.462301 
L 179.106959 93.908261 
L 191.18887 92.595646 
L 206.857621 109.913796 
L 222.194556 118.428406 
L 237.541769 118.121493 
L 249.923195 156.199844 
L 265.271141 138.391649 
L 280.931083 149.29362 
L 296.27903 138.391649 
L 308.360206 139.00549 
L 382.465235 273.177847 
L 413.472389 273.177847 
L 425.878041 153.040034 
" clip-path="url(#pd68108f2e0)" style="fill: none; stroke: #2ca02c; stroke-width: 1.5; stroke-linecap: square"/>
   </g>
   <g id="line2d_15">
    <path d="M 60.95706 34.898125 
L 75.520982 41.425218 
L 90.545922 51.385944 
L 105.990771 56.5922 
L 117.954491 61.293203 
L 133.483028 67.004415 
L 148.699569 74.63824 
L 164.035036 82.011516 
L 176.427474 92.228524 
L 191.763675 103.561639 
L 207.433894 103.963053 
L 222.770829 110.581421 
L 238.117308 133.704257 
L 250.500936 131.223908 
L 265.848883 160.868056 
L 281.508824 162.78817 
L 296.856771 159.952972 
L 308.937214 159.952972 
L 339.94657 161.812474 
L 352.361765 159.065456 
L 367.695029 162.78817 
" clip-path="url(#pd68108f2e0)" style="fill: none; stroke: #d62728; stroke-width: 1.5; stroke-linecap: square"/>
   </g>
   <g id="line2d_16">
    <path d="M 60.956326 34.898125 
L 75.663399 42.139489 
L 87.809177 51.257454 
L 103.02058 56.425197 
L 118.224642 61.869388 
L 133.737762 68.739457 
L 148.941824 75.201909 
L 161.354083 78.748042 
L 176.687347 82.880796 
L 192.029421 88.047611 
L 207.665137 98.035796 
L 219.754389 108.206858 
L 235.414331 106.811333 
L 250.755671 121.718434 
L 266.091137 122.097632 
L 278.481373 142.826966 
L 293.814637 133.346259 
L 309.479718 144.00723 
L 324.812982 150.742783 
L 336.965367 141.323408 
L 352.750107 156.276469 
L 368.217713 164.671485 
L 380.74963 155.083459 
" clip-path="url(#pd68108f2e0)" style="fill: none; stroke: #9467bd; stroke-width: 1.5; stroke-linecap: square"/>
   </g>
   <g id="line2d_17">
    <path d="M 61.018725 34.898125 
L 75.615682 41.341857 
L 87.34669 52.746612 
L 102.751897 59.048198 
L 117.845843 67.17319 
L 133.378785 73.068113 
L 148.596795 76.307357 
L 163.936666 80.716849 
L 176.337913 81.387216 
L 191.674848 89.40552 
L 207.349472 93.559785 
L 222.688609 101.54361 
L 234.780798 102.344946 
L 250.440739 113.344072 
L 265.786484 122.548849 
L 278.193603 128.615779 
L 293.537879 131.748684 
L 308.872612 131.969881 
L 324.517138 138.394942 
L 339.985478 186.71148 
L 352.529875 151.366818 
L 367.99381 189.705253 
L 395.977184 286.498125 
" clip-path="url(#pd68108f2e0)" style="fill: none; stroke: #8c564b; stroke-width: 1.5; stroke-linecap: square"/>
   </g>
   <g id="line2d_18">
    <path d="M 61.025332 34.898125 
L 75.602468 41.61474 
L 90.907837 52.290548 
L 106.001049 59.637938 
L 117.962566 69.155353 
L 133.505051 73.688533 
L 148.712049 83.15686 
L 164.384471 90.506746 
L 179.723608 89.683567 
L 191.82534 94.41917 
L 207.487484 98.140101 
L 222.832494 99.808982 
L 235.238145 92.871641 
L 250.583156 91.883344 
L 265.921559 97.019912 
L 281.569021 101.242369 
L 296.90669 106.730569 
L 309.45329 109.512192 
L 324.916491 117.598945 
L 340.387033 123.220722 
L 352.897662 123.789255 
L 368.373343 130.713898 
L 384.162487 133.173755 
L 399.635966 140.787676 
L 411.846345 166.423888 
L 427.645767 161.389517 
" clip-path="url(#pd68108f2e0)" style="fill: none; stroke: #e377c2; stroke-width: 1.5; stroke-linecap: square"/>
   </g>
   <g id="line2d_19">
    <path d="M 60.954858 34.898125 
L 75.657526 41.499329 
L 87.814315 50.365471 
L 103.022782 57.844164 
L 118.237856 64.402087 
L 133.769329 71.352641 
L 148.983668 77.596706 
L 161.388586 84.338306 
L 176.735064 87.063484 
L 192.072733 90.847023 
L 207.720195 100.745634 
L 219.80284 106.517328 
L 235.469389 103.362801 
L 250.933324 107.017445 
L 266.406803 110.452619 
L 278.916697 113.521826 
L 294.390176 114.713722 
L 310.177852 125.562675 
L 325.651331 141.491635 
L 337.859508 148.540137 
L 353.655993 155.122062 
L 369.119928 142.196533 
L 381.660655 147.101212 
L 397.124591 156.635274 
L 412.59807 155.493142 
" clip-path="url(#pd68108f2e0)" style="fill: none; stroke: #7f7f7f; stroke-width: 1.5; stroke-linecap: square"/>
   </g>
   <g id="line2d_20">
    <path d="M 60.955592 34.898125 
L 75.644312 40.7057 
L 90.728715 50.586569 
L 106.233026 58.062568 
L 118.193809 66.601291 
L 133.720144 73.591732 
L 148.932281 82.382018 
L 164.267748 88.758237 
L 176.657983 97.879473 
L 191.992716 98.498173 
L 207.657062 98.211004 
L 222.991795 98.450117 
L 238.461603 101.111705 
L 250.971498 98.546308 
L 266.44204 109.858809 
L 282.22678 103.634288 
L 294.442298 104.505876 
L 309.903297 106.836692 
L 325.674822 113.306113 
L 341.133619 117.66825 
L 353.672877 129.679203 
L 369.133877 144.262361 
L 384.605153 179.948356 
" clip-path="url(#pd68108f2e0)" style="fill: none; stroke: #bcbd22; stroke-width: 1.5; stroke-linecap: square"/>
   </g>
   <g id="line2d_21">
    <path d="M 60.954858 34.898125 
L 75.66193 40.437164 
L 91.1266 50.319752 
L 106.340205 58.75543 
L 118.293648 64.38946 
L 133.828057 72.663397 
L 149.03579 76.24509 
L 164.700136 85.561993 
L 176.783515 94.007953 
L 192.125589 95.276298 
L 207.786265 100.883105 
L 223.258275 106.635501 
L 235.792395 111.252461 
L 251.262938 112.848464 
L 266.727607 112.919855 
L 282.499133 106.234009 
L 294.710246 108.729372 
L 310.501593 111.660547 
L 325.966262 112.919855 
L 338.184717 122.557408 
L 353.972393 134.792666 
L 369.442935 146.87448 
L 385.232079 153.437719 
L 397.447597 171.10859 
L 412.915203 188.967367 
" clip-path="url(#pd68108f2e0)" style="fill: none; stroke: #17becf; stroke-width: 1.5; stroke-linecap: square"/>
   </g>
   <g id="patch_3">
    <path d="M 42.620313 299.078125 
L 42.620313 22.318125 
" style="fill: none; stroke: #000000; stroke-width: 0.8; stroke-linejoin: miter; stroke-linecap: square"/>
   </g>
   <g id="patch_4">
    <path d="M 445.980313 299.078125 
L 445.980313 22.318125 
" style="fill: none; stroke: #000000; stroke-width: 0.8; stroke-linejoin: miter; stroke-linecap: square"/>
   </g>
   <g id="patch_5">
    <path d="M 42.620313 299.078125 
L 445.980313 299.078125 
" style="fill: none; stroke: #000000; stroke-width: 0.8; stroke-linejoin: miter; stroke-linecap: square"/>
   </g>
   <g id="patch_6">
    <path d="M 42.620313 22.318125 
L 445.980313 22.318125 
" style="fill: none; stroke: #000000; stroke-width: 0.8; stroke-linejoin: miter; stroke-linecap: square"/>
   </g>
   <g id="text_14">
    <!-- Left: ln(1-Vact/Vset) vs. time -->
    <g transform="translate(159.08625 16.318125) scale(0.12 -0.12)">
     <defs>
      <path id="DejaVuSans-4c" d="M 628 4666 
L 1259 4666 
L 1259 531 
L 3531 531 
L 3531 0 
L 628 0 
L 628 4666 
z
" transform="scale(0.015625)"/>
      <path id="DejaVuSans-66" d="M 2375 4863 
L 2375 4384 
L 1825 4384 
Q 1516 4384 1395 4259 
Q 1275 4134 1275 3809 
L 1275 3500 
L 2222 3500 
L 2222 3053 
L 1275 3053 
L 1275 0 
L 697 0 
L 697 3053 
L 147 3053 
L 147 3500 
L 697 3500 
L 697 3744 
Q 697 4328 969 4595 
Q 1241 4863 1831 4863 
L 2375 4863 
z
" transform="scale(0.015625)"/>
      <path id="DejaVuSans-3a" d="M 750 794 
L 1409 794 
L 1409 0 
L 750 0 
L 750 794 
z
M 750 3309 
L 1409 3309 
L 1409 2516 
L 750 2516 
L 750 3309 
z
" transform="scale(0.015625)"/>
      <path id="DejaVuSans-76" d="M 191 3500 
L 800 3500 
L 1894 563 
L 2988 3500 
L 3597 3500 
L 2284 0 
L 1503 0 
L 191 3500 
z
" transform="scale(0.015625)"/>
     </defs>
     <use xlink:href="#DejaVuSans-4c"/>
     <use xlink:href="#DejaVuSans-65" transform="translate(53.962891 0)"/>
     <use xlink:href="#DejaVuSans-66" transform="translate(115.486328 0)"/>
     <use xlink:href="#DejaVuSans-74" transform="translate(148.941406 0)"/>
     <use xlink:href="#DejaVuSans-3a" transform="translate(188.150391 0)"/>
     <use xlink:href="#DejaVuSans-20" transform="translate(221.841797 0)"/>
     <use xlink:href="#DejaVuSans-6c" transform="translate(253.628906 0)"/>
     <use xlink:href="#DejaVuSans-6e" transform="translate(281.412109 0)"/>
     <use xlink:href="#DejaVuSans-28" transform="translate(344.791016 0)"/>
     <use xlink:href="#DejaVuSans-31" transform="translate(383.804688 0)"/>
     <use xlink:href="#DejaVuSans-2d" transform="translate(447.427734 0)"/>
     <use xlink:href="#DejaVuSans-56" transform="translate(477.636719 0)"/>
     <use xlink:href="#DejaVuSans-61" transform="translate(538.294922 0)"/>
     <use xlink:href="#DejaVuSans-63" transform="translate(599.574219 0)"/>
     <use xlink:href="#DejaVuSans-74" transform="translate(654.554688 0)"/>
     <use xlink:href="#DejaVuSans-2f" transform="translate(693.763672 0)"/>
     <use xlink:href="#DejaVuSans-56" transform="translate(727.455078 0)"/>
     <use xlink:href="#DejaVuSans-73" transform="translate(795.863281 0)"/>
     <use xlink:href="#DejaVuSans-65" transform="translate(847.962891 0)"/>
     <use xlink:href="#DejaVuSans-74" transform="translate(909.486328 0)"/>
     <use xlink:href="#DejaVuSans-29" transform="translate(948.695312 0)"/>
     <use xlink:href="#DejaVuSans-20" transform="translate(987.708984 0)"/>
     <use xlink:href="#DejaVuSans-76" transform="translate(1019.496094 0)"/>
     <use xlink:href="#DejaVuSans-73" transform="translate(1078.675781 0)"/>
     <use xlink:href="#DejaVuSans-2e" transform="translate(1130.775391 0)"/>
     <use xlink:href="#DejaVuSans-20" transform="translate(1162.5625 0)"/>
     <use xlink:href="#DejaVuSans-74" transform="translate(1194.349609 0)"/>
     <use xlink:href="#DejaVuSans-69" transform="translate(1233.558594 0)"/>
     <use xlink:href="#DejaVuSans-6d" transform="translate(1261.341797 0)"/>
     <use xlink:href="#DejaVuSans-65" transform="translate(1358.753906 0)"/>
    </g>
   </g>
   <g id="legend_1">
    <g id="patch_7">
     <path d="M 277.681875 177.099375 
L 438.980313 177.099375 
Q 440.980313 177.099375 440.980313 175.099375 
L 440.980313 29.318125 
Q 440.980313 27.318125 438.980313 27.318125 
L 277.681875 27.318125 
Q 275.681875 27.318125 275.681875 29.318125 
L 275.681875 175.099375 
Q 275.681875 177.099375 277.681875 177.099375 
z
" style="fill: #ffffff; opacity: 0.8; stroke: #cccccc; stroke-linejoin: miter"/>
    </g>
    <g id="line2d_22">
     <path d="M 279.681875 35.416562 
L 289.681875 35.416562 
L 299.681875 35.416562 
" style="fill: none; stroke: #1f77b4; stroke-width: 1.5; stroke-linecap: square"/>
    </g>
    <g id="text_15">
     <!-- effort = 10, tau = 0.12 s -->
     <g transform="translate(307.681875 38.916562) scale(0.1 -0.1)">
      <defs>
       <path id="DejaVuSans-6f" d="M 1959 3097 
Q 1497 3097 1228 2736 
Q 959 2375 959 1747 
Q 959 1119 1226 758 
Q 1494 397 1959 397 
Q 2419 397 2687 759 
Q 2956 1122 2956 1747 
Q 2956 2369 2687 2733 
Q 2419 3097 1959 3097 
z
M 1959 3584 
Q 2709 3584 3137 3096 
Q 3566 2609 3566 1747 
Q 3566 888 3137 398 
Q 2709 -91 1959 -91 
Q 1206 -91 779 398 
Q 353 888 353 1747 
Q 353 2609 779 3096 
Q 1206 3584 1959 3584 
z
" transform="scale(0.015625)"/>
       <path id="DejaVuSans-72" d="M 2631 2963 
Q 2534 3019 2420 3045 
Q 2306 3072 2169 3072 
Q 1681 3072 1420 2755 
Q 1159 2438 1159 1844 
L 1159 0 
L 581 0 
L 581 3500 
L 1159 3500 
L 1159 2956 
Q 1341 3275 1631 3429 
Q 1922 3584 2338 3584 
Q 2397 3584 2469 3576 
Q 2541 3569 2628 3553 
L 2631 2963 
z
" transform="scale(0.015625)"/>
       <path id="DejaVuSans-3d" d="M 678 2906 
L 4684 2906 
L 4684 2381 
L 678 2381 
L 678 2906 
z
M 678 1631 
L 4684 1631 
L 4684 1100 
L 678 1100 
L 678 1631 
z
" transform="scale(0.015625)"/>
       <path id="DejaVuSans-75" d="M 544 1381 
L 544 3500 
L 1119 3500 
L 1119 1403 
Q 1119 906 1312 657 
Q 1506 409 1894 409 
Q 2359 409 2629 706 
Q 2900 1003 2900 1516 
L 2900 3500 
L 3475 3500 
L 3475 0 
L 2900 0 
L 2900 538 
Q 2691 219 2414 64 
Q 2138 -91 1772 -91 
Q 1169 -91 856 284 
Q 544 659 544 1381 
z
M 1991 3584 
L 1991 3584 
z
" transform="scale(0.015625)"/>
      </defs>
      <use xlink:href="#DejaVuSans-65"/>
      <use xlink:href="#DejaVuSans-66" transform="translate(61.523438 0)"/>
      <use xlink:href="#DejaVuSans-66" transform="translate(96.728516 0)"/>
      <use xlink:href="#DejaVuSans-6f" transform="translate(131.933594 0)"/>
      <use xlink:href="#DejaVuSans-72" transform="translate(193.115234 0)"/>
      <use xlink:href="#DejaVuSans-74" transform="translate(234.228516 0)"/>
      <use xlink:href="#DejaVuSans-20" transform="translate(273.4375 0)"/>
      <use xlink:href="#DejaVuSans-3d" transform="translate(305.224609 0)"/>
      <use xlink:href="#DejaVuSans-20" transform="translate(389.013672 0)"/>
      <use xlink:href="#DejaVuSans-31" transform="translate(420.800781 0)"/>
      <use xlink:href="#DejaVuSans-30" transform="translate(484.423828 0)"/>
      <use xlink:href="#DejaVuSans-2c" transform="translate(548.046875 0)"/>
      <use xlink:href="#DejaVuSans-20" transform="translate(579.833984 0)"/>
      <use xlink:href="#DejaVuSans-74" transform="translate(611.621094 0)"/>
      <use xlink:href="#DejaVuSans-61" transform="translate(650.830078 0)"/>
      <use xlink:href="#DejaVuSans-75" transform="translate(712.109375 0)"/>
      <use xlink:href="#DejaVuSans-20" transform="translate(775.488281 0)"/>
      <use xlink:href="#DejaVuSans-3d" transform="translate(807.275391 0)"/>
      <use xlink:href="#DejaVuSans-20" transform="translate(891.064453 0)"/>
      <use xlink:href="#DejaVuSans-30" transform="translate(922.851562 0)"/>
      <use xlink:href="#DejaVuSans-2e" transform="translate(986.474609 0)"/>
      <use xlink:href="#DejaVuSans-31" transform="translate(1018.261719 0)"/>
      <use xlink:href="#DejaVuSans-32" transform="translate(1081.884766 0)"/>
      <use xlink:href="#DejaVuSans-20" transform="translate(1145.507812 0)"/>
      <use xlink:href="#DejaVuSans-73" transform="translate(1177.294922 0)"/>
     </g>
    </g>
    <g id="line2d_23">
     <path d="M 279.681875 50.094687 
L 289.681875 50.094687 
L 299.681875 50.094687 
" style="fill: none; stroke: #ff7f0e; stroke-width: 1.5; stroke-linecap: square"/>
    </g>
    <g id="text_16">
     <!-- effort = 20, tau = 0.10 s -->
     <g transform="translate(307.681875 53.594687) scale(0.1 -0.1)">
      <use xlink:href="#DejaVuSans-65"/>
      <use xlink:href="#DejaVuSans-66" transform="translate(61.523438 0)"/>
      <use xlink:href="#DejaVuSans-66" transform="translate(96.728516 0)"/>
      <use xlink:href="#DejaVuSans-6f" transform="translate(131.933594 0)"/>
      <use xlink:href="#DejaVuSans-72" transform="translate(193.115234 0)"/>
      <use xlink:href="#DejaVuSans-74" transform="translate(234.228516 0)"/>
      <use xlink:href="#DejaVuSans-20" transform="translate(273.4375 0)"/>
      <use xlink:href="#DejaVuSans-3d" transform="translate(305.224609 0)"/>
      <use xlink:href="#DejaVuSans-20" transform="translate(389.013672 0)"/>
      <use xlink:href="#DejaVuSans-32" transform="translate(420.800781 0)"/>
      <use xlink:href="#DejaVuSans-30" transform="translate(484.423828 0)"/>
      <use xlink:href="#DejaVuSans-2c" transform="translate(548.046875 0)"/>
      <use xlink:href="#DejaVuSans-20" transform="translate(579.833984 0)"/>
      <use xlink:href="#DejaVuSans-74" transform="translate(611.621094 0)"/>
      <use xlink:href="#DejaVuSans-61" transform="translate(650.830078 0)"/>
      <use xlink:href="#DejaVuSans-75" transform="translate(712.109375 0)"/>
      <use xlink:href="#DejaVuSans-20" transform="translate(775.488281 0)"/>
      <use xlink:href="#DejaVuSans-3d" transform="translate(807.275391 0)"/>
      <use xlink:href="#DejaVuSans-20" transform="translate(891.064453 0)"/>
      <use xlink:href="#DejaVuSans-30" transform="translate(922.851562 0)"/>
      <use xlink:href="#DejaVuSans-2e" transform="translate(986.474609 0)"/>
      <use xlink:href="#DejaVuSans-31" transform="translate(1018.261719 0)"/>
      <use xlink:href="#DejaVuSans-30" transform="translate(1081.884766 0)"/>
      <use xlink:href="#DejaVuSans-20" transform="translate(1145.507812 0)"/>
      <use xlink:href="#DejaVuSans-73" transform="translate(1177.294922 0)"/>
     </g>
    </g>
    <g id="line2d_24">
     <path d="M 279.681875 64.772812 
L 289.681875 64.772812 
L 299.681875 64.772812 
" style="fill: none; stroke: #2ca02c; stroke-width: 1.5; stroke-linecap: square"/>
    </g>
    <g id="text_17">
     <!-- effort = 30, tau = 0.07 s -->
     <g transform="translate(307.681875 68.272812) scale(0.1 -0.1)">
      <defs>
       <path id="DejaVuSans-37" d="M 525 4666 
L 3525 4666 
L 3525 4397 
L 1831 0 
L 1172 0 
L 2766 4134 
L 525 4134 
L 525 4666 
z
" transform="scale(0.015625)"/>
      </defs>
      <use xlink:href="#DejaVuSans-65"/>
      <use xlink:href="#DejaVuSans-66" transform="translate(61.523438 0)"/>
      <use xlink:href="#DejaVuSans-66" transform="translate(96.728516 0)"/>
      <use xlink:href="#DejaVuSans-6f" transform="translate(131.933594 0)"/>
      <use xlink:href="#DejaVuSans-72" transform="translate(193.115234 0)"/>
      <use xlink:href="#DejaVuSans-74" transform="translate(234.228516 0)"/>
      <use xlink:href="#DejaVuSans-20" transform="translate(273.4375 0)"/>
      <use xlink:href="#DejaVuSans-3d" transform="translate(305.224609 0)"/>
      <use xlink:href="#DejaVuSans-20" transform="translate(389.013672 0)"/>
      <use xlink:href="#DejaVuSans-33" transform="translate(420.800781 0)"/>
      <use xlink:href="#DejaVuSans-30" transform="translate(484.423828 0)"/>
      <use xlink:href="#DejaVuSans-2c" transform="translate(548.046875 0)"/>
      <use xlink:href="#DejaVuSans-20" transform="translate(579.833984 0)"/>
      <use xlink:href="#DejaVuSans-74" transform="translate(611.621094 0)"/>
      <use xlink:href="#DejaVuSans-61" transform="translate(650.830078 0)"/>
      <use xlink:href="#DejaVuSans-75" transform="translate(712.109375 0)"/>
      <use xlink:href="#DejaVuSans-20" transform="translate(775.488281 0)"/>
      <use xlink:href="#DejaVuSans-3d" transform="translate(807.275391 0)"/>
      <use xlink:href="#DejaVuSans-20" transform="translate(891.064453 0)"/>
      <use xlink:href="#DejaVuSans-30" transform="translate(922.851562 0)"/>
      <use xlink:href="#DejaVuSans-2e" transform="translate(986.474609 0)"/>
      <use xlink:href="#DejaVuSans-30" transform="translate(1018.261719 0)"/>
      <use xlink:href="#DejaVuSans-37" transform="translate(1081.884766 0)"/>
      <use xlink:href="#DejaVuSans-20" transform="translate(1145.507812 0)"/>
      <use xlink:href="#DejaVuSans-73" transform="translate(1177.294922 0)"/>
     </g>
    </g>
    <g id="line2d_25">
     <path d="M 279.681875 79.450937 
L 289.681875 79.450937 
L 299.681875 79.450937 
" style="fill: none; stroke: #d62728; stroke-width: 1.5; stroke-linecap: square"/>
    </g>
    <g id="text_18">
     <!-- effort = 40, tau = 0.08 s -->
     <g transform="translate(307.681875 82.950937) scale(0.1 -0.1)">
      <use xlink:href="#DejaVuSans-65"/>
      <use xlink:href="#DejaVuSans-66" transform="translate(61.523438 0)"/>
      <use xlink:href="#DejaVuSans-66" transform="translate(96.728516 0)"/>
      <use xlink:href="#DejaVuSans-6f" transform="translate(131.933594 0)"/>
      <use xlink:href="#DejaVuSans-72" transform="translate(193.115234 0)"/>
      <use xlink:href="#DejaVuSans-74" transform="translate(234.228516 0)"/>
      <use xlink:href="#DejaVuSans-20" transform="translate(273.4375 0)"/>
      <use xlink:href="#DejaVuSans-3d" transform="translate(305.224609 0)"/>
      <use xlink:href="#DejaVuSans-20" transform="translate(389.013672 0)"/>
      <use xlink:href="#DejaVuSans-34" transform="translate(420.800781 0)"/>
      <use xlink:href="#DejaVuSans-30" transform="translate(484.423828 0)"/>
      <use xlink:href="#DejaVuSans-2c" transform="translate(548.046875 0)"/>
      <use xlink:href="#DejaVuSans-20" transform="translate(579.833984 0)"/>
      <use xlink:href="#DejaVuSans-74" transform="translate(611.621094 0)"/>
      <use xlink:href="#DejaVuSans-61" transform="translate(650.830078 0)"/>
      <use xlink:href="#DejaVuSans-75" transform="translate(712.109375 0)"/>
      <use xlink:href="#DejaVuSans-20" transform="translate(775.488281 0)"/>
      <use xlink:href="#DejaVuSans-3d" transform="translate(807.275391 0)"/>
      <use xlink:href="#DejaVuSans-20" transform="translate(891.064453 0)"/>
      <use xlink:href="#DejaVuSans-30" transform="translate(922.851562 0)"/>
      <use xlink:href="#DejaVuSans-2e" transform="translate(986.474609 0)"/>
      <use xlink:href="#DejaVuSans-30" transform="translate(1018.261719 0)"/>
      <use xlink:href="#DejaVuSans-38" transform="translate(1081.884766 0)"/>
      <use xlink:href="#DejaVuSans-20" transform="translate(1145.507812 0)"/>
      <use xlink:href="#DejaVuSans-73" transform="translate(1177.294922 0)"/>
     </g>
    </g>
    <g id="line2d_26">
     <path d="M 279.681875 94.129062 
L 289.681875 94.129062 
L 299.681875 94.129062 
" style="fill: none; stroke: #9467bd; stroke-width: 1.5; stroke-linecap: square"/>
    </g>
    <g id="text_19">
     <!-- effort = 50, tau = 0.10 s -->
     <g transform="translate(307.681875 97.629062) scale(0.1 -0.1)">
      <use xlink:href="#DejaVuSans-65"/>
      <use xlink:href="#DejaVuSans-66" transform="translate(61.523438 0)"/>
      <use xlink:href="#DejaVuSans-66" transform="translate(96.728516 0)"/>
      <use xlink:href="#DejaVuSans-6f" transform="translate(131.933594 0)"/>
      <use xlink:href="#DejaVuSans-72" transform="translate(193.115234 0)"/>
      <use xlink:href="#DejaVuSans-74" transform="translate(234.228516 0)"/>
      <use xlink:href="#DejaVuSans-20" transform="translate(273.4375 0)"/>
      <use xlink:href="#DejaVuSans-3d" transform="translate(305.224609 0)"/>
      <use xlink:href="#DejaVuSans-20" transform="translate(389.013672 0)"/>
      <use xlink:href="#DejaVuSans-35" transform="translate(420.800781 0)"/>
      <use xlink:href="#DejaVuSans-30" transform="translate(484.423828 0)"/>
      <use xlink:href="#DejaVuSans-2c" transform="translate(548.046875 0)"/>
      <use xlink:href="#DejaVuSans-20" transform="translate(579.833984 0)"/>
      <use xlink:href="#DejaVuSans-74" transform="translate(611.621094 0)"/>
      <use xlink:href="#DejaVuSans-61" transform="translate(650.830078 0)"/>
      <use xlink:href="#DejaVuSans-75" transform="translate(712.109375 0)"/>
      <use xlink:href="#DejaVuSans-20" transform="translate(775.488281 0)"/>
      <use xlink:href="#DejaVuSans-3d" transform="translate(807.275391 0)"/>
      <use xlink:href="#DejaVuSans-20" transform="translate(891.064453 0)"/>
      <use xlink:href="#DejaVuSans-30" transform="translate(922.851562 0)"/>
      <use xlink:href="#DejaVuSans-2e" transform="translate(986.474609 0)"/>
      <use xlink:href="#DejaVuSans-31" transform="translate(1018.261719 0)"/>
      <use xlink:href="#DejaVuSans-30" transform="translate(1081.884766 0)"/>
      <use xlink:href="#DejaVuSans-20" transform="translate(1145.507812 0)"/>
      <use xlink:href="#DejaVuSans-73" transform="translate(1177.294922 0)"/>
     </g>
    </g>
    <g id="line2d_27">
     <path d="M 279.681875 108.807187 
L 289.681875 108.807187 
L 299.681875 108.807187 
" style="fill: none; stroke: #8c564b; stroke-width: 1.5; stroke-linecap: square"/>
    </g>
    <g id="text_20">
     <!-- effort = 60, tau = 0.08 s -->
     <g transform="translate(307.681875 112.307187) scale(0.1 -0.1)">
      <use xlink:href="#DejaVuSans-65"/>
      <use xlink:href="#DejaVuSans-66" transform="translate(61.523438 0)"/>
      <use xlink:href="#DejaVuSans-66" transform="translate(96.728516 0)"/>
      <use xlink:href="#DejaVuSans-6f" transform="translate(131.933594 0)"/>
      <use xlink:href="#DejaVuSans-72" transform="translate(193.115234 0)"/>
      <use xlink:href="#DejaVuSans-74" transform="translate(234.228516 0)"/>
      <use xlink:href="#DejaVuSans-20" transform="translate(273.4375 0)"/>
      <use xlink:href="#DejaVuSans-3d" transform="translate(305.224609 0)"/>
      <use xlink:href="#DejaVuSans-20" transform="translate(389.013672 0)"/>
      <use xlink:href="#DejaVuSans-36" transform="translate(420.800781 0)"/>
      <use xlink:href="#DejaVuSans-30" transform="translate(484.423828 0)"/>
      <use xlink:href="#DejaVuSans-2c" transform="translate(548.046875 0)"/>
      <use xlink:href="#DejaVuSans-20" transform="translate(579.833984 0)"/>
      <use xlink:href="#DejaVuSans-74" transform="translate(611.621094 0)"/>
      <use xlink:href="#DejaVuSans-61" transform="translate(650.830078 0)"/>
      <use xlink:href="#DejaVuSans-75" transform="translate(712.109375 0)"/>
      <use xlink:href="#DejaVuSans-20" transform="translate(775.488281 0)"/>
      <use xlink:href="#DejaVuSans-3d" transform="translate(807.275391 0)"/>
      <use xlink:href="#DejaVuSans-20" transform="translate(891.064453 0)"/>
      <use xlink:href="#DejaVuSans-30" transform="translate(922.851562 0)"/>
      <use xlink:href="#DejaVuSans-2e" transform="translate(986.474609 0)"/>
      <use xlink:href="#DejaVuSans-30" transform="translate(1018.261719 0)"/>
      <use xlink:href="#DejaVuSans-38" transform="translate(1081.884766 0)"/>
      <use xlink:href="#DejaVuSans-20" transform="translate(1145.507812 0)"/>
      <use xlink:href="#DejaVuSans-73" transform="translate(1177.294922 0)"/>
     </g>
    </g>
    <g id="line2d_28">
     <path d="M 279.681875 123.485312 
L 289.681875 123.485312 
L 299.681875 123.485312 
" style="fill: none; stroke: #e377c2; stroke-width: 1.5; stroke-linecap: square"/>
    </g>
    <g id="text_21">
     <!-- effort = 70, tau = 0.14 s -->
     <g transform="translate(307.681875 126.985312) scale(0.1 -0.1)">
      <use xlink:href="#DejaVuSans-65"/>
      <use xlink:href="#DejaVuSans-66" transform="translate(61.523438 0)"/>
      <use xlink:href="#DejaVuSans-66" transform="translate(96.728516 0)"/>
      <use xlink:href="#DejaVuSans-6f" transform="translate(131.933594 0)"/>
      <use xlink:href="#DejaVuSans-72" transform="translate(193.115234 0)"/>
      <use xlink:href="#DejaVuSans-74" transform="translate(234.228516 0)"/>
      <use xlink:href="#DejaVuSans-20" transform="translate(273.4375 0)"/>
      <use xlink:href="#DejaVuSans-3d" transform="translate(305.224609 0)"/>
      <use xlink:href="#DejaVuSans-20" transform="translate(389.013672 0)"/>
      <use xlink:href="#DejaVuSans-37" transform="translate(420.800781 0)"/>
      <use xlink:href="#DejaVuSans-30" transform="translate(484.423828 0)"/>
      <use xlink:href="#DejaVuSans-2c" transform="translate(548.046875 0)"/>
      <use xlink:href="#DejaVuSans-20" transform="translate(579.833984 0)"/>
      <use xlink:href="#DejaVuSans-74" transform="translate(611.621094 0)"/>
      <use xlink:href="#DejaVuSans-61" transform="translate(650.830078 0)"/>
      <use xlink:href="#DejaVuSans-75" transform="translate(712.109375 0)"/>
      <use xlink:href="#DejaVuSans-20" transform="translate(775.488281 0)"/>
      <use xlink:href="#DejaVuSans-3d" transform="translate(807.275391 0)"/>
      <use xlink:href="#DejaVuSans-20" transform="translate(891.064453 0)"/>
      <use xlink:href="#DejaVuSans-30" transform="translate(922.851562 0)"/>
      <use xlink:href="#DejaVuSans-2e" transform="translate(986.474609 0)"/>
      <use xlink:href="#DejaVuSans-31" transform="translate(1018.261719 0)"/>
      <use xlink:href="#DejaVuSans-34" transform="translate(1081.884766 0)"/>
      <use xlink:href="#DejaVuSans-20" transform="translate(1145.507812 0)"/>
      <use xlink:href="#DejaVuSans-73" transform="translate(1177.294922 0)"/>
     </g>
    </g>
    <g id="line2d_29">
     <path d="M 279.681875 138.163437 
L 289.681875 138.163437 
L 299.681875 138.163437 
" style="fill: none; stroke: #7f7f7f; stroke-width: 1.5; stroke-linecap: square"/>
    </g>
    <g id="text_22">
     <!-- effort = 80, tau = 0.12 s -->
     <g transform="translate(307.681875 141.663437) scale(0.1 -0.1)">
      <use xlink:href="#DejaVuSans-65"/>
      <use xlink:href="#DejaVuSans-66" transform="translate(61.523438 0)"/>
      <use xlink:href="#DejaVuSans-66" transform="translate(96.728516 0)"/>
      <use xlink:href="#DejaVuSans-6f" transform="translate(131.933594 0)"/>
      <use xlink:href="#DejaVuSans-72" transform="translate(193.115234 0)"/>
      <use xlink:href="#DejaVuSans-74" transform="translate(234.228516 0)"/>
      <use xlink:href="#DejaVuSans-20" transform="translate(273.4375 0)"/>
      <use xlink:href="#DejaVuSans-3d" transform="translate(305.224609 0)"/>
      <use xlink:href="#DejaVuSans-20" transform="translate(389.013672 0)"/>
      <use xlink:href="#DejaVuSans-38" transform="translate(420.800781 0)"/>
      <use xlink:href="#DejaVuSans-30" transform="translate(484.423828 0)"/>
      <use xlink:href="#DejaVuSans-2c" transform="translate(548.046875 0)"/>
      <use xlink:href="#DejaVuSans-20" transform="translate(579.833984 0)"/>
      <use xlink:href="#DejaVuSans-74" transform="translate(611.621094 0)"/>
      <use xlink:href="#DejaVuSans-61" transform="translate(650.830078 0)"/>
      <use xlink:href="#DejaVuSans-75" transform="translate(712.109375 0)"/>
      <use xlink:href="#DejaVuSans-20" transform="translate(775.488281 0)"/>
      <use xlink:href="#DejaVuSans-3d" transform="translate(807.275391 0)"/>
      <use xlink:href="#DejaVuSans-20" transform="translate(891.064453 0)"/>
      <use xlink:href="#DejaVuSans-30" transform="translate(922.851562 0)"/>
      <use xlink:href="#DejaVuSans-2e" transform="translate(986.474609 0)"/>
      <use xlink:href="#DejaVuSans-31" transform="translate(1018.261719 0)"/>
      <use xlink:href="#DejaVuSans-32" transform="translate(1081.884766 0)"/>
      <use xlink:href="#DejaVuSans-20" transform="translate(1145.507812 0)"/>
      <use xlink:href="#DejaVuSans-73" transform="translate(1177.294922 0)"/>
     </g>
    </g>
    <g id="line2d_30">
     <path d="M 279.681875 152.841562 
L 289.681875 152.841562 
L 299.681875 152.841562 
" style="fill: none; stroke: #bcbd22; stroke-width: 1.5; stroke-linecap: square"/>
    </g>
    <g id="text_23">
     <!-- effort = 90, tau = 0.13 s -->
     <g transform="translate(307.681875 156.341562) scale(0.1 -0.1)">
      <defs>
       <path id="DejaVuSans-39" d="M 703 97 
L 703 672 
Q 941 559 1184 500 
Q 1428 441 1663 441 
Q 2288 441 2617 861 
Q 2947 1281 2994 2138 
Q 2813 1869 2534 1725 
Q 2256 1581 1919 1581 
Q 1219 1581 811 2004 
Q 403 2428 403 3163 
Q 403 3881 828 4315 
Q 1253 4750 1959 4750 
Q 2769 4750 3195 4129 
Q 3622 3509 3622 2328 
Q 3622 1225 3098 567 
Q 2575 -91 1691 -91 
Q 1453 -91 1209 -44 
Q 966 3 703 97 
z
M 1959 2075 
Q 2384 2075 2632 2365 
Q 2881 2656 2881 3163 
Q 2881 3666 2632 3958 
Q 2384 4250 1959 4250 
Q 1534 4250 1286 3958 
Q 1038 3666 1038 3163 
Q 1038 2656 1286 2365 
Q 1534 2075 1959 2075 
z
" transform="scale(0.015625)"/>
      </defs>
      <use xlink:href="#DejaVuSans-65"/>
      <use xlink:href="#DejaVuSans-66" transform="translate(61.523438 0)"/>
      <use xlink:href="#DejaVuSans-66" transform="translate(96.728516 0)"/>
      <use xlink:href="#DejaVuSans-6f" transform="translate(131.933594 0)"/>
      <use xlink:href="#DejaVuSans-72" transform="translate(193.115234 0)"/>
      <use xlink:href="#DejaVuSans-74" transform="translate(234.228516 0)"/>
      <use xlink:href="#DejaVuSans-20" transform="translate(273.4375 0)"/>
      <use xlink:href="#DejaVuSans-3d" transform="translate(305.224609 0)"/>
      <use xlink:href="#DejaVuSans-20" transform="translate(389.013672 0)"/>
      <use xlink:href="#DejaVuSans-39" transform="translate(420.800781 0)"/>
      <use xlink:href="#DejaVuSans-30" transform="translate(484.423828 0)"/>
      <use xlink:href="#DejaVuSans-2c" transform="translate(548.046875 0)"/>
      <use xlink:href="#DejaVuSans-20" transform="translate(579.833984 0)"/>
      <use xlink:href="#DejaVuSans-74" transform="translate(611.621094 0)"/>
      <use xlink:href="#DejaVuSans-61" transform="translate(650.830078 0)"/>
      <use xlink:href="#DejaVuSans-75" transform="translate(712.109375 0)"/>
      <use xlink:href="#DejaVuSans-20" transform="translate(775.488281 0)"/>
      <use xlink:href="#DejaVuSans-3d" transform="translate(807.275391 0)"/>
      <use xlink:href="#DejaVuSans-20" transform="translate(891.064453 0)"/>
      <use xlink:href="#DejaVuSans-30" transform="translate(922.851562 0)"/>
      <use xlink:href="#DejaVuSans-2e" transform="translate(986.474609 0)"/>
      <use xlink:href="#DejaVuSans-31" transform="translate(1018.261719 0)"/>
      <use xlink:href="#DejaVuSans-33" transform="translate(1081.884766 0)"/>
      <use xlink:href="#DejaVuSans-20" transform="translate(1145.507812 0)"/>
      <use xlink:href="#DejaVuSans-73" transform="translate(1177.294922 0)"/>
     </g>
    </g>
    <g id="line2d_31">
     <path d="M 279.681875 167.519687 
L 289.681875 167.519687 
L 299.681875 167.519687 
" style="fill: none; stroke: #17becf; stroke-width: 1.5; stroke-linecap: square"/>
    </g>
    <g id="text_24">
     <!-- effort = 100, tau = 0.12 s -->
     <g transform="translate(307.681875 171.019687) scale(0.1 -0.1)">
      <use xlink:href="#DejaVuSans-65"/>
      <use xlink:href="#DejaVuSans-66" transform="translate(61.523438 0)"/>
      <use xlink:href="#DejaVuSans-66" transform="translate(96.728516 0)"/>
      <use xlink:href="#DejaVuSans-6f" transform="translate(131.933594 0)"/>
      <use xlink:href="#DejaVuSans-72" transform="translate(193.115234 0)"/>
      <use xlink:href="#DejaVuSans-74" transform="translate(234.228516 0)"/>
      <use xlink:href="#DejaVuSans-20" transform="translate(273.4375 0)"/>
      <use xlink:href="#DejaVuSans-3d" transform="translate(305.224609 0)"/>
      <use xlink:href="#DejaVuSans-20" transform="translate(389.013672 0)"/>
      <use xlink:href="#DejaVuSans-31" transform="translate(420.800781 0)"/>
      <use xlink:href="#DejaVuSans-30" transform="translate(484.423828 0)"/>
      <use xlink:href="#DejaVuSans-30" transform="translate(548.046875 0)"/>
      <use xlink:href="#DejaVuSans-2c" transform="translate(611.669922 0)"/>
      <use xlink:href="#DejaVuSans-20" transform="translate(643.457031 0)"/>
      <use xlink:href="#DejaVuSans-74" transform="translate(675.244141 0)"/>
      <use xlink:href="#DejaVuSans-61" transform="translate(714.453125 0)"/>
      <use xlink:href="#DejaVuSans-75" transform="translate(775.732422 0)"/>
      <use xlink:href="#DejaVuSans-20" transform="translate(839.111328 0)"/>
      <use xlink:href="#DejaVuSans-3d" transform="translate(870.898438 0)"/>
      <use xlink:href="#DejaVuSans-20" transform="translate(954.6875 0)"/>
      <use xlink:href="#DejaVuSans-30" transform="translate(986.474609 0)"/>
      <use xlink:href="#DejaVuSans-2e" transform="translate(1050.097656 0)"/>
      <use xlink:href="#DejaVuSans-31" transform="translate(1081.884766 0)"/>
      <use xlink:href="#DejaVuSans-32" transform="translate(1145.507812 0)"/>
      <use xlink:href="#DejaVuSans-20" transform="translate(1209.130859 0)"/>
      <use xlink:href="#DejaVuSans-73" transform="translate(1240.917969 0)"/>
     </g>
    </g>
   </g>
  </g>
 </g>
 <defs>
  <clipPath id="pd68108f2e0">
   <rect x="42.620313" y="22.318125" width="403.36" height="276.76"/>
  </clipPath>
 </defs>
</svg>
