<?xml version="1.0" encoding="utf-8" standalone="no"?>
<!DOCTYPE svg PUBLIC "-//W3C//DTD SVG 1.1//EN"
  "http://www.w3.org/Graphics/SVG/1.1/DTD/svg11.dtd">
<svg xmlns:xlink="http://www.w3.org/1999/xlink" width="453.105625pt" height="337.354375pt" viewBox="0 0 453.105625 337.354375" xmlns="http://www.w3.org/2000/svg" version="1.1">
 <metadata>
  <rdf:RDF xmlns:dc="http://purl.org/dc/elements/1.1/" xmlns:cc="http://creativecommons.org/ns#" xmlns:rdf="http://www.w3.org/1999/02/22-rdf-syntax-ns#">
   <cc:Work>
    <dc:type rdf:resource="http://purl.org/dc/dcmitype/StillImage"/>
    <dc:date>2025-10-23T08:44:19.064233</dc:date>
    <dc:format>image/svg+xml</dc:format>
    <dc:creator>
     <cc:Agent>
      <dc:title>Matplotlib v3.10.6, https://matplotlib.org/</dc:title>
     </cc:Agent>
    </dc:creator>
   </cc:Work>
  </rdf:RDF>
 </metadata>
 <defs>
  <style type="text/css">*{stroke-linejoin: round; stroke-linecap: butt}</style>
 </defs>
 <g id="figure_1">
  <g id="patch_1">
   <path d="M 0 337.354375 
L 453.105625 337.354375 
L 453.105625 0 
L 0 0 
z
" style="fill: #ffffff"/>
  </g>
  <g id="axes_1">
   <g id="patch_2">
    <path d="M 59.690625 299.798125 
L 445.905625 299.798125 
L 445.905625 22.318125 
L 59.690625 22.318125 
z
" style="fill: #ffffff"/>
   </g>
   <g id="matplotlib.axis_1">
    <g id="xtick_1">
     <g id="line2d_1">
      <defs>
       <path id="mc22299c476" d="M 0 0 
L 0 3.5 
" style="stroke: #000000; stroke-width: 0.8"/>
      </defs>
      <g>
       <use xlink:href="#mc22299c476" x="77.167352" y="299.798125" style="stroke: #000000; stroke-width: 0.8"/>
      </g>
     </g>
     <g id="text_1">
      <!-- 0.00 -->
      <g transform="translate(66.03454 314.396563) scale(0.1 -0.1)">
       <defs>
        <path id="DejaVuSans-30" d="M 2034 4250 
Q 1547 4250 1301 3770 
Q 1056 3291 1056 2328 
Q 1056 1369 1301 889 
Q 1547 409 2034 409 
Q 2525 409 2770 889 
Q 3016 1369 3016 2328 
Q 3016 3291 2770 3770 
Q 2525 4250 2034 4250 
z
M 2034 4750 
Q 2819 4750 3233 4129 
Q 3647 3509 3647 2328 
Q 3647 1150 3233 529 
Q 2819 -91 2034 -91 
Q 1250 -91 836 529 
Q 422 1150 422 2328 
Q 422 3509 836 4129 
Q 1250 4750 2034 4750 
z
" transform="scale(0.015625)"/>
        <path id="DejaVuSans-2e" d="M 684 794 
L 1344 794 
L 1344 0 
L 684 0 
L 684 794 
z
" transform="scale(0.015625)"/>
       </defs>
       <use xlink:href="#DejaVuSans-30"/>
       <use xlink:href="#DejaVuSans-2e" transform="translate(63.623047 0)"/>
       <use xlink:href="#DejaVuSans-30" transform="translate(95.410156 0)"/>
       <use xlink:href="#DejaVuSans-30" transform="translate(159.033203 0)"/>
      </g>
     </g>
    </g>
    <g id="xtick_2">
     <g id="line2d_2">
      <g>
       <use xlink:href="#mc22299c476" x="121.071204" y="299.798125" style="stroke: #000000; stroke-width: 0.8"/>
      </g>
     </g>
     <g id="text_2">
      <!-- 0.25 -->
      <g transform="translate(109.938391 314.396563) scale(0.1 -0.1)">
       <defs>
        <path id="DejaVuSans-32" d="M 1228 531 
L 3431 531 
L 3431 0 
L 469 0 
L 469 531 
Q 828 903 1448 1529 
Q 2069 2156 2228 2338 
Q 2531 2678 2651 2914 
Q 2772 3150 2772 3378 
Q 2772 3750 2511 3984 
Q 2250 4219 1831 4219 
Q 1534 4219 1204 4116 
Q 875 4013 500 3803 
L 500 4441 
Q 881 4594 1212 4672 
Q 1544 4750 1819 4750 
Q 2544 4750 2975 4387 
Q 3406 4025 3406 3419 
Q 3406 3131 3298 2873 
Q 3191 2616 2906 2266 
Q 2828 2175 2409 1742 
Q 1991 1309 1228 531 
z
" transform="scale(0.015625)"/>
        <path id="DejaVuSans-35" d="M 691 4666 
L 3169 4666 
L 3169 4134 
L 1269 4134 
L 1269 2991 
Q 1406 3038 1543 3061 
Q 1681 3084 1819 3084 
Q 2600 3084 3056 2656 
Q 3513 2228 3513 1497 
Q 3513 744 3044 326 
Q 2575 -91 1722 -91 
Q 1428 -91 1123 -41 
Q 819 9 494 109 
L 494 744 
Q 775 591 1075 516 
Q 1375 441 1709 441 
Q 2250 441 2565 725 
Q 2881 1009 2881 1497 
Q 2881 1984 2565 2268 
Q 2250 2553 1709 2553 
Q 1456 2553 1204 2497 
Q 953 2441 691 2322 
L 691 4666 
z
" transform="scale(0.015625)"/>
       </defs>
       <use xlink:href="#DejaVuSans-30"/>
       <use xlink:href="#DejaVuSans-2e" transform="translate(63.623047 0)"/>
       <use xlink:href="#DejaVuSans-32" transform="translate(95.410156 0)"/>
       <use xlink:href="#DejaVuSans-35" transform="translate(159.033203 0)"/>
      </g>
     </g>
    </g>
    <g id="xtick_3">
     <g id="line2d_3">
      <g>
       <use xlink:href="#mc22299c476" x="164.975055" y="299.798125" style="stroke: #000000; stroke-width: 0.8"/>
      </g>
     </g>
     <g id="text_3">
      <!-- 0.50 -->
      <g transform="translate(153.842243 314.396563) scale(0.1 -0.1)">
       <use xlink:href="#DejaVuSans-30"/>
       <use xlink:href="#DejaVuSans-2e" transform="translate(63.623047 0)"/>
       <use xlink:href="#DejaVuSans-35" transform="translate(95.410156 0)"/>
       <use xlink:href="#DejaVuSans-30" transform="translate(159.033203 0)"/>
      </g>
     </g>
    </g>
    <g id="xtick_4">
     <g id="line2d_4">
      <g>
       <use xlink:href="#mc22299c476" x="208.878907" y="299.798125" style="stroke: #000000; stroke-width: 0.8"/>
      </g>
     </g>
     <g id="text_4">
      <!-- 0.75 -->
      <g transform="translate(197.746095 314.396563) scale(0.1 -0.1)">
       <defs>
        <path id="DejaVuSans-37" d="M 525 4666 
L 3525 4666 
L 3525 4397 
L 1831 0 
L 1172 0 
L 2766 4134 
L 525 4134 
L 525 4666 
z
" transform="scale(0.015625)"/>
       </defs>
       <use xlink:href="#DejaVuSans-30"/>
       <use xlink:href="#DejaVuSans-2e" transform="translate(63.623047 0)"/>
       <use xlink:href="#DejaVuSans-37" transform="translate(95.410156 0)"/>
       <use xlink:href="#DejaVuSans-35" transform="translate(159.033203 0)"/>
      </g>
     </g>
    </g>
    <g id="xtick_5">
     <g id="line2d_5">
      <g>
       <use xlink:href="#mc22299c476" x="252.782759" y="299.798125" style="stroke: #000000; stroke-width: 0.8"/>
      </g>
     </g>
     <g id="text_5">
      <!-- 1.00 -->
      <g transform="translate(241.649946 314.396563) scale(0.1 -0.1)">
       <defs>
        <path id="DejaVuSans-31" d="M 794 531 
L 1825 531 
L 1825 4091 
L 703 3866 
L 703 4441 
L 1819 4666 
L 2450 4666 
L 2450 531 
L 3481 531 
L 3481 0 
L 794 0 
L 794 531 
z
" transform="scale(0.015625)"/>
       </defs>
       <use xlink:href="#DejaVuSans-31"/>
       <use xlink:href="#DejaVuSans-2e" transform="translate(63.623047 0)"/>
       <use xlink:href="#DejaVuSans-30" transform="translate(95.410156 0)"/>
       <use xlink:href="#DejaVuSans-30" transform="translate(159.033203 0)"/>
      </g>
     </g>
    </g>
    <g id="xtick_6">
     <g id="line2d_6">
      <g>
       <use xlink:href="#mc22299c476" x="296.68661" y="299.798125" style="stroke: #000000; stroke-width: 0.8"/>
      </g>
     </g>
     <g id="text_6">
      <!-- 1.25 -->
      <g transform="translate(285.553798 314.396563) scale(0.1 -0.1)">
       <use xlink:href="#DejaVuSans-31"/>
       <use xlink:href="#DejaVuSans-2e" transform="translate(63.623047 0)"/>
       <use xlink:href="#DejaVuSans-32" transform="translate(95.410156 0)"/>
       <use xlink:href="#DejaVuSans-35" transform="translate(159.033203 0)"/>
      </g>
     </g>
    </g>
    <g id="xtick_7">
     <g id="line2d_7">
      <g>
       <use xlink:href="#mc22299c476" x="340.590462" y="299.798125" style="stroke: #000000; stroke-width: 0.8"/>
      </g>
     </g>
     <g id="text_7">
      <!-- 1.50 -->
      <g transform="translate(329.457649 314.396563) scale(0.1 -0.1)">
       <use xlink:href="#DejaVuSans-31"/>
       <use xlink:href="#DejaVuSans-2e" transform="translate(63.623047 0)"/>
       <use xlink:href="#DejaVuSans-35" transform="translate(95.410156 0)"/>
       <use xlink:href="#DejaVuSans-30" transform="translate(159.033203 0)"/>
      </g>
     </g>
    </g>
    <g id="xtick_8">
     <g id="line2d_8">
      <g>
       <use xlink:href="#mc22299c476" x="384.494314" y="299.798125" style="stroke: #000000; stroke-width: 0.8"/>
      </g>
     </g>
     <g id="text_8">
      <!-- 1.75 -->
      <g transform="translate(373.361501 314.396563) scale(0.1 -0.1)">
       <use xlink:href="#DejaVuSans-31"/>
       <use xlink:href="#DejaVuSans-2e" transform="translate(63.623047 0)"/>
       <use xlink:href="#DejaVuSans-37" transform="translate(95.410156 0)"/>
       <use xlink:href="#DejaVuSans-35" transform="translate(159.033203 0)"/>
      </g>
     </g>
    </g>
    <g id="xtick_9">
     <g id="line2d_9">
      <g>
       <use xlink:href="#mc22299c476" x="428.398165" y="299.798125" style="stroke: #000000; stroke-width: 0.8"/>
      </g>
     </g>
     <g id="text_9">
      <!-- 2.00 -->
      <g transform="translate(417.265353 314.396563) scale(0.1 -0.1)">
       <use xlink:href="#DejaVuSans-32"/>
       <use xlink:href="#DejaVuSans-2e" transform="translate(63.623047 0)"/>
       <use xlink:href="#DejaVuSans-30" transform="translate(95.410156 0)"/>
       <use xlink:href="#DejaVuSans-30" transform="translate(159.033203 0)"/>
      </g>
     </g>
    </g>
    <g id="text_10">
     <!-- time, t (us) -->
     <g transform="translate(225.099687 328.074688) scale(0.1 -0.1)">
      <defs>
       <path id="DejaVuSans-74" d="M 1172 4494 
L 1172 3500 
L 2356 3500 
L 2356 3053 
L 1172 3053 
L 1172 1153 
Q 1172 725 1289 603 
Q 1406 481 1766 481 
L 2356 481 
L 2356 0 
L 1766 0 
Q 1100 0 847 248 
Q 594 497 594 1153 
L 594 3053 
L 172 3053 
L 172 3500 
L 594 3500 
L 594 4494 
L 1172 4494 
z
" transform="scale(0.015625)"/>
       <path id="DejaVuSans-69" d="M 603 3500 
L 1178 3500 
L 1178 0 
L 603 0 
L 603 3500 
z
M 603 4863 
L 1178 4863 
L 1178 4134 
L 603 4134 
L 603 4863 
z
" transform="scale(0.015625)"/>
       <path id="DejaVuSans-6d" d="M 3328 2828 
Q 3544 3216 3844 3400 
Q 4144 3584 4550 3584 
Q 5097 3584 5394 3201 
Q 5691 2819 5691 2113 
L 5691 0 
L 5113 0 
L 5113 2094 
Q 5113 2597 4934 2840 
Q 4756 3084 4391 3084 
Q 3944 3084 3684 2787 
Q 3425 2491 3425 1978 
L 3425 0 
L 2847 0 
L 2847 2094 
Q 2847 2600 2669 2842 
Q 2491 3084 2119 3084 
Q 1678 3084 1418 2786 
Q 1159 2488 1159 1978 
L 1159 0 
L 581 0 
L 581 3500 
L 1159 3500 
L 1159 2956 
Q 1356 3278 1631 3431 
Q 1906 3584 2284 3584 
Q 2666 3584 2933 3390 
Q 3200 3197 3328 2828 
z
" transform="scale(0.015625)"/>
       <path id="DejaVuSans-65" d="M 3597 1894 
L 3597 1613 
L 953 1613 
Q 991 1019 1311 708 
Q 1631 397 2203 397 
Q 2534 397 2845 478 
Q 3156 559 3463 722 
L 3463 178 
Q 3153 47 2828 -22 
Q 2503 -91 2169 -91 
Q 1331 -91 842 396 
Q 353 884 353 1716 
Q 353 2575 817 3079 
Q 1281 3584 2069 3584 
Q 2775 3584 3186 3129 
Q 3597 2675 3597 1894 
z
M 3022 2063 
Q 3016 2534 2758 2815 
Q 2500 3097 2075 3097 
Q 1594 3097 1305 2825 
Q 1016 2553 972 2059 
L 3022 2063 
z
" transform="scale(0.015625)"/>
       <path id="DejaVuSans-2c" d="M 750 794 
L 1409 794 
L 1409 256 
L 897 -744 
L 494 -744 
L 750 256 
L 750 794 
z
" transform="scale(0.015625)"/>
       <path id="DejaVuSans-20" transform="scale(0.015625)"/>
       <path id="DejaVuSans-28" d="M 1984 4856 
Q 1566 4138 1362 3434 
Q 1159 2731 1159 2009 
Q 1159 1288 1364 580 
Q 1569 -128 1984 -844 
L 1484 -844 
Q 1016 -109 783 600 
Q 550 1309 550 2009 
Q 550 2706 781 3412 
Q 1013 4119 1484 4856 
L 1984 4856 
z
" transform="scale(0.015625)"/>
       <path id="DejaVuSans-75" d="M 544 1381 
L 544 3500 
L 1119 3500 
L 1119 1403 
Q 1119 906 1312 657 
Q 1506 409 1894 409 
Q 2359 409 2629 706 
Q 2900 1003 2900 1516 
L 2900 3500 
L 3475 3500 
L 3475 0 
L 2900 0 
L 2900 538 
Q 2691 219 2414 64 
Q 2138 -91 1772 -91 
Q 1169 -91 856 284 
Q 544 659 544 1381 
z
M 1991 3584 
L 1991 3584 
z
" transform="scale(0.015625)"/>
       <path id="DejaVuSans-73" d="M 2834 3397 
L 2834 2853 
Q 2591 2978 2328 3040 
Q 2066 3103 1784 3103 
Q 1356 3103 1142 2972 
Q 928 2841 928 2578 
Q 928 2378 1081 2264 
Q 1234 2150 1697 2047 
L 1894 2003 
Q 2506 1872 2764 1633 
Q 3022 1394 3022 966 
Q 3022 478 2636 193 
Q 2250 -91 1575 -91 
Q 1294 -91 989 -36 
Q 684 19 347 128 
L 347 722 
Q 666 556 975 473 
Q 1284 391 1588 391 
Q 1994 391 2212 530 
Q 2431 669 2431 922 
Q 2431 1156 2273 1281 
Q 2116 1406 1581 1522 
L 1381 1569 
Q 847 1681 609 1914 
Q 372 2147 372 2553 
Q 372 3047 722 3315 
Q 1072 3584 1716 3584 
Q 2034 3584 2315 3537 
Q 2597 3491 2834 3397 
z
" transform="scale(0.015625)"/>
       <path id="DejaVuSans-29" d="M 513 4856 
L 1013 4856 
Q 1481 4119 1714 3412 
Q 1947 2706 1947 2009 
Q 1947 1309 1714 600 
Q 1481 -109 1013 -844 
L 513 -844 
Q 928 -128 1133 580 
Q 1338 1288 1338 2009 
Q 1338 2731 1133 3434 
Q 928 4138 513 4856 
z
" transform="scale(0.015625)"/>
      </defs>
      <use xlink:href="#DejaVuSans-74"/>
      <use xlink:href="#DejaVuSans-69" transform="translate(39.208984 0)"/>
      <use xlink:href="#DejaVuSans-6d" transform="translate(66.992188 0)"/>
      <use xlink:href="#DejaVuSans-65" transform="translate(164.404297 0)"/>
      <use xlink:href="#DejaVuSans-2c" transform="translate(225.927734 0)"/>
      <use xlink:href="#DejaVuSans-20" transform="translate(257.714844 0)"/>
      <use xlink:href="#DejaVuSans-74" transform="translate(289.501953 0)"/>
      <use xlink:href="#DejaVuSans-20" transform="translate(328.710938 0)"/>
      <use xlink:href="#DejaVuSans-28" transform="translate(360.498047 0)"/>
      <use xlink:href="#DejaVuSans-75" transform="translate(399.511719 0)"/>
      <use xlink:href="#DejaVuSans-73" transform="translate(462.890625 0)"/>
      <use xlink:href="#DejaVuSans-29" transform="translate(514.990234 0)"/>
     </g>
    </g>
    <g id="text_11">
     <!-- 1e6 -->
     <g transform="translate(427.0275 327.074688) scale(0.1 -0.1)">
      <defs>
       <path id="DejaVuSans-36" d="M 2113 2584 
Q 1688 2584 1439 2293 
Q 1191 2003 1191 1497 
Q 1191 994 1439 701 
Q 1688 409 2113 409 
Q 2538 409 2786 701 
Q 3034 994 3034 1497 
Q 3034 2003 2786 2293 
Q 2538 2584 2113 2584 
z
M 3366 4563 
L 3366 3988 
Q 3128 4100 2886 4159 
Q 2644 4219 2406 4219 
Q 1781 4219 1451 3797 
Q 1122 3375 1075 2522 
Q 1259 2794 1537 2939 
Q 1816 3084 2150 3084 
Q 2853 3084 3261 2657 
Q 3669 2231 3669 1497 
Q 3669 778 3244 343 
Q 2819 -91 2113 -91 
Q 1303 -91 875 529 
Q 447 1150 447 2328 
Q 447 3434 972 4092 
Q 1497 4750 2381 4750 
Q 2619 4750 2861 4703 
Q 3103 4656 3366 4563 
z
" transform="scale(0.015625)"/>
      </defs>
      <use xlink:href="#DejaVuSans-31"/>
      <use xlink:href="#DejaVuSans-65" transform="translate(63.623047 0)"/>
      <use xlink:href="#DejaVuSans-36" transform="translate(125.146484 0)"/>
     </g>
    </g>
   </g>
   <g id="matplotlib.axis_2">
    <g id="ytick_1">
     <g id="line2d_10">
      <defs>
       <path id="mdcaabc61b4" d="M 0 0 
L -3.5 0 
" style="stroke: #000000; stroke-width: 0.8"/>
      </defs>
      <g>
       <use xlink:href="#mdcaabc61b4" x="59.690625" y="287.16312" style="stroke: #000000; stroke-width: 0.8"/>
      </g>
     </g>
     <g id="text_12">
      <!-- 0 -->
      <g transform="translate(46.328125 290.962338) scale(0.1 -0.1)">
       <use xlink:href="#DejaVuSans-30"/>
      </g>
     </g>
    </g>
    <g id="ytick_2">
     <g id="line2d_11">
      <g>
       <use xlink:href="#mdcaabc61b4" x="59.690625" y="242.606987" style="stroke: #000000; stroke-width: 0.8"/>
      </g>
     </g>
     <g id="text_13">
      <!-- 2000 -->
      <g transform="translate(27.240625 246.406206) scale(0.1 -0.1)">
       <use xlink:href="#DejaVuSans-32"/>
       <use xlink:href="#DejaVuSans-30" transform="translate(63.623047 0)"/>
       <use xlink:href="#DejaVuSans-30" transform="translate(127.246094 0)"/>
       <use xlink:href="#DejaVuSans-30" transform="translate(190.869141 0)"/>
      </g>
     </g>
    </g>
    <g id="ytick_3">
     <g id="line2d_12">
      <g>
       <use xlink:href="#mdcaabc61b4" x="59.690625" y="198.050854" style="stroke: #000000; stroke-width: 0.8"/>
      </g>
     </g>
     <g id="text_14">
      <!-- 4000 -->
      <g transform="translate(27.240625 201.850073) scale(0.1 -0.1)">
       <defs>
        <path id="DejaVuSans-34" d="M 2419 4116 
L 825 1625 
L 2419 1625 
L 2419 4116 
z
M 2253 4666 
L 3047 4666 
L 3047 1625 
L 3713 1625 
L 3713 1100 
L 3047 1100 
L 3047 0 
L 2419 0 
L 2419 1100 
L 313 1100 
L 313 1709 
L 2253 4666 
z
" transform="scale(0.015625)"/>
       </defs>
       <use xlink:href="#DejaVuSans-34"/>
       <use xlink:href="#DejaVuSans-30" transform="translate(63.623047 0)"/>
       <use xlink:href="#DejaVuSans-30" transform="translate(127.246094 0)"/>
       <use xlink:href="#DejaVuSans-30" transform="translate(190.869141 0)"/>
      </g>
     </g>
    </g>
    <g id="ytick_4">
     <g id="line2d_13">
      <g>
       <use xlink:href="#mdcaabc61b4" x="59.690625" y="153.494721" style="stroke: #000000; stroke-width: 0.8"/>
      </g>
     </g>
     <g id="text_15">
      <!-- 6000 -->
      <g transform="translate(27.240625 157.29394) scale(0.1 -0.1)">
       <use xlink:href="#DejaVuSans-36"/>
       <use xlink:href="#DejaVuSans-30" transform="translate(63.623047 0)"/>
       <use xlink:href="#DejaVuSans-30" transform="translate(127.246094 0)"/>
       <use xlink:href="#DejaVuSans-30" transform="translate(190.869141 0)"/>
      </g>
     </g>
    </g>
    <g id="ytick_5">
     <g id="line2d_14">
      <g>
       <use xlink:href="#mdcaabc61b4" x="59.690625" y="108.938589" style="stroke: #000000; stroke-width: 0.8"/>
      </g>
     </g>
     <g id="text_16">
      <!-- 8000 -->
      <g transform="translate(27.240625 112.737807) scale(0.1 -0.1)">
       <defs>
        <path id="DejaVuSans-38" d="M 2034 2216 
Q 1584 2216 1326 1975 
Q 1069 1734 1069 1313 
Q 1069 891 1326 650 
Q 1584 409 2034 409 
Q 2484 409 2743 651 
Q 3003 894 3003 1313 
Q 3003 1734 2745 1975 
Q 2488 2216 2034 2216 
z
M 1403 2484 
Q 997 2584 770 2862 
Q 544 3141 544 3541 
Q 544 4100 942 4425 
Q 1341 4750 2034 4750 
Q 2731 4750 3128 4425 
Q 3525 4100 3525 3541 
Q 3525 3141 3298 2862 
Q 3072 2584 2669 2484 
Q 3125 2378 3379 2068 
Q 3634 1759 3634 1313 
Q 3634 634 3220 271 
Q 2806 -91 2034 -91 
Q 1263 -91 848 271 
Q 434 634 434 1313 
Q 434 1759 690 2068 
Q 947 2378 1403 2484 
z
M 1172 3481 
Q 1172 3119 1398 2916 
Q 1625 2713 2034 2713 
Q 2441 2713 2670 2916 
Q 2900 3119 2900 3481 
Q 2900 3844 2670 4047 
Q 2441 4250 2034 4250 
Q 1625 4250 1398 4047 
Q 1172 3844 1172 3481 
z
" transform="scale(0.015625)"/>
       </defs>
       <use xlink:href="#DejaVuSans-38"/>
       <use xlink:href="#DejaVuSans-30" transform="translate(63.623047 0)"/>
       <use xlink:href="#DejaVuSans-30" transform="translate(127.246094 0)"/>
       <use xlink:href="#DejaVuSans-30" transform="translate(190.869141 0)"/>
      </g>
     </g>
    </g>
    <g id="ytick_6">
     <g id="line2d_15">
      <g>
       <use xlink:href="#mdcaabc61b4" x="59.690625" y="64.382456" style="stroke: #000000; stroke-width: 0.8"/>
      </g>
     </g>
     <g id="text_17">
      <!-- 10000 -->
      <g transform="translate(20.878125 68.181675) scale(0.1 -0.1)">
       <use xlink:href="#DejaVuSans-31"/>
       <use xlink:href="#DejaVuSans-30" transform="translate(63.623047 0)"/>
       <use xlink:href="#DejaVuSans-30" transform="translate(127.246094 0)"/>
       <use xlink:href="#DejaVuSans-30" transform="translate(190.869141 0)"/>
       <use xlink:href="#DejaVuSans-30" transform="translate(254.492188 0)"/>
      </g>
     </g>
    </g>
    <g id="text_18">
     <!-- right wheel theta, rtheta (ticks) -->
     <g transform="translate(14.798438 239.565938) rotate(-90) scale(0.1 -0.1)">
      <defs>
       <path id="DejaVuSans-72" d="M 2631 2963 
Q 2534 3019 2420 3045 
Q 2306 3072 2169 3072 
Q 1681 3072 1420 2755 
Q 1159 2438 1159 1844 
L 1159 0 
L 581 0 
L 581 3500 
L 1159 3500 
L 1159 2956 
Q 1341 3275 1631 3429 
Q 1922 3584 2338 3584 
Q 2397 3584 2469 3576 
Q 2541 3569 2628 3553 
L 2631 2963 
z
" transform="scale(0.015625)"/>
       <path id="DejaVuSans-67" d="M 2906 1791 
Q 2906 2416 2648 2759 
Q 2391 3103 1925 3103 
Q 1463 3103 1205 2759 
Q 947 2416 947 1791 
Q 947 1169 1205 825 
Q 1463 481 1925 481 
Q 2391 481 2648 825 
Q 2906 1169 2906 1791 
z
M 3481 434 
Q 3481 -459 3084 -895 
Q 2688 -1331 1869 -1331 
Q 1566 -1331 1297 -1286 
Q 1028 -1241 775 -1147 
L 775 -588 
Q 1028 -725 1275 -790 
Q 1522 -856 1778 -856 
Q 2344 -856 2625 -561 
Q 2906 -266 2906 331 
L 2906 616 
Q 2728 306 2450 153 
Q 2172 0 1784 0 
Q 1141 0 747 490 
Q 353 981 353 1791 
Q 353 2603 747 3093 
Q 1141 3584 1784 3584 
Q 2172 3584 2450 3431 
Q 2728 3278 2906 2969 
L 2906 3500 
L 3481 3500 
L 3481 434 
z
" transform="scale(0.015625)"/>
       <path id="DejaVuSans-68" d="M 3513 2113 
L 3513 0 
L 2938 0 
L 2938 2094 
Q 2938 2591 2744 2837 
Q 2550 3084 2163 3084 
Q 1697 3084 1428 2787 
Q 1159 2491 1159 1978 
L 1159 0 
L 581 0 
L 581 4863 
L 1159 4863 
L 1159 2956 
Q 1366 3272 1645 3428 
Q 1925 3584 2291 3584 
Q 2894 3584 3203 3211 
Q 3513 2838 3513 2113 
z
" transform="scale(0.015625)"/>
       <path id="DejaVuSans-77" d="M 269 3500 
L 844 3500 
L 1563 769 
L 2278 3500 
L 2956 3500 
L 3675 769 
L 4391 3500 
L 4966 3500 
L 4050 0 
L 3372 0 
L 2619 2869 
L 1863 0 
L 1184 0 
L 269 3500 
z
" transform="scale(0.015625)"/>
       <path id="DejaVuSans-6c" d="M 603 4863 
L 1178 4863 
L 1178 0 
L 603 0 
L 603 4863 
z
" transform="scale(0.015625)"/>
       <path id="DejaVuSans-61" d="M 2194 1759 
Q 1497 1759 1228 1600 
Q 959 1441 959 1056 
Q 959 750 1161 570 
Q 1363 391 1709 391 
Q 2188 391 2477 730 
Q 2766 1069 2766 1631 
L 2766 1759 
L 2194 1759 
z
M 3341 1997 
L 3341 0 
L 2766 0 
L 2766 531 
Q 2569 213 2275 61 
Q 1981 -91 1556 -91 
Q 1019 -91 701 211 
Q 384 513 384 1019 
Q 384 1609 779 1909 
Q 1175 2209 1959 2209 
L 2766 2209 
L 2766 2266 
Q 2766 2663 2505 2880 
Q 2244 3097 1772 3097 
Q 1472 3097 1187 3025 
Q 903 2953 641 2809 
L 641 3341 
Q 956 3463 1253 3523 
Q 1550 3584 1831 3584 
Q 2591 3584 2966 3190 
Q 3341 2797 3341 1997 
z
" transform="scale(0.015625)"/>
       <path id="DejaVuSans-63" d="M 3122 3366 
L 3122 2828 
Q 2878 2963 2633 3030 
Q 2388 3097 2138 3097 
Q 1578 3097 1268 2742 
Q 959 2388 959 1747 
Q 959 1106 1268 751 
Q 1578 397 2138 397 
Q 2388 397 2633 464 
Q 2878 531 3122 666 
L 3122 134 
Q 2881 22 2623 -34 
Q 2366 -91 2075 -91 
Q 1284 -91 818 406 
Q 353 903 353 1747 
Q 353 2603 823 3093 
Q 1294 3584 2113 3584 
Q 2378 3584 2631 3529 
Q 2884 3475 3122 3366 
z
" transform="scale(0.015625)"/>
       <path id="DejaVuSans-6b" d="M 581 4863 
L 1159 4863 
L 1159 1991 
L 2875 3500 
L 3609 3500 
L 1753 1863 
L 3688 0 
L 2938 0 
L 1159 1709 
L 1159 0 
L 581 0 
L 581 4863 
z
" transform="scale(0.015625)"/>
      </defs>
      <use xlink:href="#DejaVuSans-72"/>
      <use xlink:href="#DejaVuSans-69" transform="translate(41.113281 0)"/>
      <use xlink:href="#DejaVuSans-67" transform="translate(68.896484 0)"/>
      <use xlink:href="#DejaVuSans-68" transform="translate(132.373047 0)"/>
      <use xlink:href="#DejaVuSans-74" transform="translate(195.751953 0)"/>
      <use xlink:href="#DejaVuSans-20" transform="translate(234.960938 0)"/>
      <use xlink:href="#DejaVuSans-77" transform="translate(266.748047 0)"/>
      <use xlink:href="#DejaVuSans-68" transform="translate(348.535156 0)"/>
      <use xlink:href="#DejaVuSans-65" transform="translate(411.914062 0)"/>
      <use xlink:href="#DejaVuSans-65" transform="translate(473.4375 0)"/>
      <use xlink:href="#DejaVuSans-6c" transform="translate(534.960938 0)"/>
      <use xlink:href="#DejaVuSans-20" transform="translate(562.744141 0)"/>
      <use xlink:href="#DejaVuSans-74" transform="translate(594.53125 0)"/>
      <use xlink:href="#DejaVuSans-68" transform="translate(633.740234 0)"/>
      <use xlink:href="#DejaVuSans-65" transform="translate(697.119141 0)"/>
      <use xlink:href="#DejaVuSans-74" transform="translate(758.642578 0)"/>
      <use xlink:href="#DejaVuSans-61" transform="translate(797.851562 0)"/>
      <use xlink:href="#DejaVuSans-2c" transform="translate(859.130859 0)"/>
      <use xlink:href="#DejaVuSans-20" transform="translate(890.917969 0)"/>
      <use xlink:href="#DejaVuSans-72" transform="translate(922.705078 0)"/>
      <use xlink:href="#DejaVuSans-74" transform="translate(963.818359 0)"/>
      <use xlink:href="#DejaVuSans-68" transform="translate(1003.027344 0)"/>
      <use xlink:href="#DejaVuSans-65" transform="translate(1066.40625 0)"/>
      <use xlink:href="#DejaVuSans-74" transform="translate(1127.929688 0)"/>
      <use xlink:href="#DejaVuSans-61" transform="translate(1167.138672 0)"/>
      <use xlink:href="#DejaVuSans-20" transform="translate(1228.417969 0)"/>
      <use xlink:href="#DejaVuSans-28" transform="translate(1260.205078 0)"/>
      <use xlink:href="#DejaVuSans-74" transform="translate(1299.21875 0)"/>
      <use xlink:href="#DejaVuSans-69" transform="translate(1338.427734 0)"/>
      <use xlink:href="#DejaVuSans-63" transform="translate(1366.210938 0)"/>
      <use xlink:href="#DejaVuSans-6b" transform="translate(1421.191406 0)"/>
      <use xlink:href="#DejaVuSans-73" transform="translate(1479.101562 0)"/>
      <use xlink:href="#DejaVuSans-29" transform="translate(1531.201172 0)"/>
     </g>
    </g>
   </g>
   <g id="line2d_16">
    <path d="M 77.25674 287.16312 
L 80.692129 287.140842 
L 84.209881 287.029451 
L 87.83511 286.895783 
L 91.41345 286.784393 
L 95.067831 286.628446 
L 97.899102 286.494778 
L 101.506945 286.316553 
L 105.193112 286.116051 
L 108.800429 285.915548 
L 112.487474 285.692767 
L 116.095844 285.469987 
L 119.704038 285.224928 
L 122.606434 285.046703 
L 126.214803 284.823923 
L 129.916074 284.601142 
L 133.540951 284.356083 
L 137.180229 284.111025 
L 140.113534 283.9328 
L 143.752109 283.710019 
L 147.469536 283.464961 
L 151.107936 283.24218 
L 154.747214 282.997121 
L 157.679289 282.818897 
L 161.318391 282.596116 
L 165.034062 282.351057 
L 168.67334 282.128277 
L 172.312091 281.905496 
L 175.244869 281.704993 
L 178.883093 281.482213 
L 182.599642 281.237154 
L 186.238393 281.014373 
L 189.877671 280.769315 
L 192.80957 280.59109 
L 196.448146 280.368309 
L 200.163641 280.123251 
L 203.802217 279.90047 
L 207.440792 279.677689 
L 210.373394 279.499465 
L 214.011619 279.254406 
L 217.727992 279.031625 
L 221.366216 278.808845 
L 225.005494 278.563786 
L 227.937393 278.385562 
L 231.57632 278.162781 
L 235.291815 277.917722 
L 238.930567 277.694941 
L 242.569142 277.472161 
L 245.50192 277.293936 
L 249.139441 277.071156 
L 252.855815 276.848375 
L 256.52565 276.625594 
L 260.196363 276.402814 
L 263.159346 276.224589 
L 266.830235 276.024086 
L 270.576814 275.801306 
L 274.246825 275.600803 
L 277.13763 275.422579 
L 280.884912 275.222076 
L 284.55422 274.999295 
L 287.523174 274.821071 
L 291.192307 274.620568 
L 294.862317 274.442344 
L 298.603452 274.241841 
L 302.273639 274.019061 
L 305.241715 273.863114 
L 308.911199 273.662611 
L 312.57998 273.462109 
L 316.321818 273.261606 
L 319.21192 273.083382 
L 322.959378 272.860601 
L 326.628335 272.615542 
L 330.297643 272.392762 
L 333.260626 272.192259 
L 336.930286 271.969478 
L 340.677216 271.72442 
L 344.346875 271.479361 
L 347.237681 271.301136 
L 350.985138 271.056078 
L 354.65427 270.833297 
L 358.401728 270.588238 
L 361.292357 270.410014 
L 364.962192 270.164955 
L 368.708596 269.942174 
L 372.378431 269.697116 
L 375.346507 269.518891 
L 379.016518 269.273832 
L 382.685299 269.051052 
L 386.427488 268.805993 
L 390.096796 268.583212 
L 393.065926 268.38271 
L 396.735234 268.159929 
L 400.405421 267.91487 
L 404.146731 267.69209 
L 407.038239 267.513865 
L 410.784994 267.268806 
L 414.45518 267.046026 
L 418.123961 266.800967 
L 421.08712 266.622742 
L 424.756077 266.399962 
" clip-path="url(#p351a2b66b2)" style="fill: none; stroke: #1f77b4; stroke-width: 1.5; stroke-linecap: square"/>
   </g>
   <g id="line2d_17">
    <path d="M 77.245852 286.962617 
L 80.683348 286.851227 
L 84.338783 286.606168 
L 87.915015 286.338831 
L 91.493179 286.026938 
L 95.141589 285.603655 
L 98.750837 285.158094 
L 101.656745 284.757088 
L 105.296199 284.266971 
L 108.950404 283.776854 
L 112.67749 283.24218 
L 116.331695 282.707506 
L 119.285898 282.284223 
L 122.954679 281.74955 
L 126.609938 281.214876 
L 130.351249 280.657924 
L 133.228005 280.234641 
L 136.974233 279.677689 
L 140.628965 279.120738 
L 144.297922 278.563786 
L 147.261783 278.118225 
L 150.931091 277.561273 
L 154.663797 276.982043 
L 158.317827 276.44737 
L 161.98854 275.890418 
L 164.950996 275.444857 
L 168.606606 274.887905 
L 172.353185 274.308675 
L 176.008269 273.751724 
L 178.898372 273.32844 
L 182.630902 272.749211 
L 186.284229 272.192259 
L 190.03274 271.613029 
L 192.90774 271.167468 
L 196.562823 270.610516 
L 200.309226 270.009009 
L 203.964661 269.452057 
L 206.933088 268.984218 
L 210.588699 268.404988 
L 214.257831 267.848036 
L 218.001074 267.268806 
L 221.655279 266.689577 
L 224.62476 266.244015 
L 228.278439 265.664786 
L 231.949152 265.107834 
L 235.690638 264.550882 
L 238.598478 264.105321 
L 242.344881 263.526091 
L 246.014892 262.991418 
L 249.698952 262.434466 
L 252.678619 261.988905 
L 256.362679 261.431953 
L 260.157201 260.852723 
L 263.856715 260.273494 
L 266.794234 259.827932 
L 270.602454 259.248703 
L 274.318827 258.669473 
L 277.332388 258.223911 
L 281.049112 257.644682 
L 284.763553 257.065452 
L 287.773953 256.619891 
L 291.504551 256.040661 
L 295.29837 255.461431 
L 299.013514 254.882201 
L 301.951385 254.414362 
L 305.758727 253.85741 
L 309.491432 253.278181 
L 312.520095 252.810341 
L 316.252801 252.25339 
L 319.967769 251.67416 
L 322.977642 251.228599 
L 326.69261 250.649369 
L 330.486254 250.047861 
L 333.437998 249.6023 
L 337.170001 249.02307 
L 340.957322 248.44384 
L 344.689501 247.886889 
L 347.702886 247.441327 
L 351.419259 246.884376 
L 355.149506 246.305146 
L 358.174306 245.837307 
L 361.904377 245.258077 
L 365.698372 244.678847 
L 368.634486 244.233286 
L 372.366138 243.654056 
L 376.168387 243.052548 
L 379.121185 242.584709 
L 382.929053 241.983201 
L 386.660881 241.403971 
L 389.612449 240.95841 
L 393.40662 240.37918 
L 397.121764 239.822229 
L 400.137256 239.332111 
L 403.851873 238.752881 
L 407.583349 238.173652 
L 411.385774 237.594422 
L 414.338747 237.126583 
L 418.131688 236.547353 
L 421.863165 235.968123 
L 424.799279 235.522562 
" clip-path="url(#p351a2b66b2)" style="fill: none; stroke: #ff7f0e; stroke-width: 1.5; stroke-linecap: square"/>
   </g>
   <g id="line2d_18">
    <path d="M 77.246204 286.249719 
L 80.699505 286.093772 
L 84.277669 285.715045 
L 87.926957 285.269484 
L 91.505472 284.757088 
L 94.427537 284.289249 
L 98.067342 283.620907 
L 101.736826 282.885731 
L 105.479717 282.105999 
L 108.370346 281.482213 
L 112.11833 280.657924 
L 115.787814 279.811358 
L 119.458352 278.964791 
L 122.420984 278.274171 
L 126.092224 277.405327 
L 129.838979 276.514204 
L 133.509692 275.645359 
L 136.400497 274.932461 
L 140.148481 274.041339 
L 143.817789 273.150216 
L 147.5663 272.259093 
L 150.456579 271.546195 
L 154.127643 270.655072 
L 157.874398 269.741672 
L 161.545111 268.872827 
L 164.513363 268.159929 
L 168.1839 267.291084 
L 171.85356 266.399962 
L 175.596275 265.486561 
L 179.26611 264.595438 
L 182.251045 263.88254 
L 185.935457 262.96914 
L 189.621448 262.100295 
L 192.599886 261.365119 
L 196.301156 260.473996 
L 200.078643 259.560595 
L 203.779914 258.669473 
L 206.7011 257.956575 
L 210.480344 257.043174 
L 214.180385 256.152051 
L 217.180774 255.416875 
L 220.880288 254.503474 
L 224.581559 253.612352 
L 228.353953 252.698951 
L 231.276369 252.008331 
L 235.053681 251.09493 
L 238.755302 250.226086 
L 242.455343 249.334963 
L 245.450464 248.599787 
L 249.150154 247.708664 
L 252.928519 246.795263 
L 255.88079 246.082365 
L 259.612969 245.191243 
L 263.41592 244.255564 
L 266.369245 243.542666 
L 270.177465 242.606987 
L 273.91017 241.715864 
L 277.640417 240.802464 
L 280.665568 240.089565 
L 284.396517 239.198443 
L 287.427112 238.463267 
L 291.157359 237.572144 
L 294.889362 236.658743 
L 298.692314 235.745342 
L 301.645814 235.032444 
L 305.454034 234.096766 
L 309.186388 233.205643 
L 312.138659 232.492745 
L 315.947932 231.557066 
L 319.679057 230.621387 
L 322.710179 229.886211 
L 326.441129 228.97281 
L 330.173483 228.05941 
L 333.19758 227.324233 
L 336.929583 226.410833 
L 340.737452 225.475154 
L 343.691303 224.762256 
L 347.422252 223.848855 
L 351.226433 222.913176 
L 354.178528 222.178 
L 357.988153 221.264599 
L 361.718751 220.373477 
L 365.450754 219.482354 
L 368.474676 218.769456 
L 372.207382 217.878333 
L 375.236923 217.143157 
L 378.968575 216.252034 
L 382.699348 215.338634 
L 386.504056 214.425233 
L 389.455976 213.712335 
L 393.265074 212.798934 
L 396.995672 211.907811 
L 399.949172 211.172635 
L 403.756865 210.259235 
L 407.489219 209.345834 
L 410.518409 208.610658 
L 414.250412 207.697257 
L 417.980835 206.783856 
L 421.006864 206.04868 
L 424.737462 205.157557 
" clip-path="url(#p351a2b66b2)" style="fill: none; stroke: #2ca02c; stroke-width: 1.5; stroke-linecap: square"/>
   </g>
   <g id="line2d_19">
    <path d="M 77.246204 285.403152 
L 80.699856 285.158094 
L 84.293474 284.62342 
L 87.989125 283.977356 
L 90.850427 283.420405 
L 94.565746 282.618394 
L 98.205375 281.74955 
L 101.874332 280.769315 
L 104.838369 279.945026 
L 108.507678 278.897957 
L 112.256013 277.784054 
L 115.925497 276.67015 
L 119.59621 275.533969 
L 122.559018 274.59829 
L 126.230258 273.417553 
L 129.976837 272.214537 
L 133.648077 271.056078 
L 136.538706 270.120399 
L 140.28669 268.939661 
L 143.956525 267.758924 
L 146.926182 266.800967 
L 150.594963 265.620229 
L 154.265677 264.417214 
L 158.022266 263.214198 
L 161.708433 262.011183 
L 164.706891 261.00867 
L 168.40781 259.805654 
L 172.107675 258.602639 
L 175.102269 257.600126 
L 178.801783 256.39711 
L 182.580324 255.149538 
L 186.279838 253.946523 
L 189.20243 252.988566 
L 192.979566 251.740994 
L 196.680485 250.537979 
L 199.67947 249.557744 
L 203.38074 248.354728 
L 207.080605 247.129434 
L 210.854054 245.881863 
L 213.77524 244.923906 
L 217.553606 243.676334 
L 221.25312 242.45104 
L 224.954917 241.225747 
L 227.948457 240.245512 
L 231.649552 239.042496 
L 235.42739 237.817203 
L 238.349982 236.859246 
L 242.050023 235.65623 
L 245.823296 234.453215 
L 249.52281 233.227921 
L 252.523023 232.247686 
L 256.222889 231.04467 
L 259.954892 229.841655 
L 262.978814 228.86142 
L 266.710114 227.658404 
L 270.517632 226.410833 
L 273.470605 225.430598 
L 277.200852 224.205304 
L 281.004506 222.957732 
L 283.956074 221.999776 
L 287.764996 220.752204 
L 291.494716 219.52691 
L 294.447514 218.568953 
L 298.25468 217.299104 
L 301.986683 216.07381 
L 305.015171 215.071297 
L 308.746998 213.868281 
L 312.477421 212.642988 
L 316.281075 211.395416 
L 319.232467 210.415181 
L 323.041039 209.167609 
L 326.771286 207.942316 
L 329.724083 206.984359 
L 333.530898 205.759065 
L 337.26255 204.55605 
L 340.291389 203.575815 
L 344.022338 202.350521 
L 347.752058 201.125227 
L 350.777385 200.144992 
L 354.507456 198.919699 
L 358.315852 197.672127 
L 361.266893 196.71417 
L 364.99872 195.511155 
L 368.800443 194.263583 
L 371.753767 193.283348 
L 375.561109 192.013498 
L 379.291883 190.810483 
L 383.021603 189.607467 
L 386.046578 188.604954 
L 389.776298 187.401938 
L 392.806366 186.399425 
L 396.535735 185.19641 
L 400.267914 183.971116 
L 404.069987 182.745823 
L 407.022433 181.810144 
L 410.829424 180.562572 
L 414.560725 179.337278 
L 417.511766 178.379322 
L 421.320513 177.13175 
L 425.050409 175.951012 
L 428.080828 174.970777 
" clip-path="url(#p351a2b66b2)" style="fill: none; stroke: #d62728; stroke-width: 1.5; stroke-linecap: square"/>
   </g>
   <g id="line2d_20">
    <path d="M 77.245852 284.556586 
L 80.729535 284.289249 
L 83.63597 283.799132 
L 87.27437 283.019399 
L 90.911716 282.083721 
L 94.62247 281.036651 
L 98.260167 279.945026 
L 101.22877 279.009347 
L 104.897552 277.806332 
L 108.567387 276.55876 
L 112.308171 275.222076 
L 115.20003 274.152729 
L 118.946433 272.749211 
L 122.616093 271.345693 
L 126.285225 269.919896 
L 129.24856 268.739159 
L 132.91699 267.268806 
L 136.664271 265.753898 
L 140.332877 264.283546 
L 143.239312 263.102808 
L 147.016097 261.565621 
L 150.715787 260.050713 
L 153.714244 258.825419 
L 157.41411 257.288233 
L 161.113273 255.773324 
L 164.885316 254.236138 
L 167.806151 253.0554 
L 171.584166 251.495935 
L 175.283855 249.981027 
L 178.984248 248.466118 
L 181.977612 247.240825 
L 185.677829 245.725916 
L 189.454263 244.166452 
L 192.376152 242.963436 
L 196.075315 241.403971 
L 199.853329 239.844507 
L 203.553019 238.30732 
L 206.55253 237.082026 
L 210.25222 235.54484 
L 213.952436 234.007653 
L 216.945801 232.78236 
L 220.645666 231.222895 
L 224.422627 229.66343 
L 228.123019 228.126244 
L 231.04403 226.90095 
L 234.822395 225.341485 
L 238.52191 223.804299 
L 241.521069 222.601283 
L 245.220408 221.086375 
L 248.919922 219.571466 
L 252.691263 218.03428 
L 255.613152 216.853542 
L 259.420494 215.294078 
L 263.151092 213.756891 
L 266.881339 212.241982 
L 269.905963 210.972133 
L 273.636386 209.434946 
L 276.666103 208.209652 
L 280.39635 206.694744 
L 284.12765 205.157557 
L 287.930075 203.598093 
L 290.882521 202.372799 
L 294.690214 200.791056 
L 298.420988 199.25387 
L 301.372556 198.050854 
L 305.180776 196.49139 
L 308.911374 194.931925 
L 311.941267 193.684353 
L 315.671514 192.147167 
L 319.402639 190.632258 
L 322.42656 189.406964 
L 326.157861 187.869778 
L 329.96573 186.310313 
L 332.918176 185.107298 
L 336.648598 183.592389 
L 340.45155 182.032924 
L 343.403294 180.829909 
L 347.212216 179.270444 
L 350.942463 177.755536 
L 354.673764 176.240627 
L 357.697334 175.015334 
L 361.428108 173.500425 
L 364.457122 172.252853 
L 368.187369 170.715667 
L 371.917265 169.200758 
L 375.720568 167.641294 
L 378.672312 166.438278 
L 382.480707 164.878813 
L 386.210954 163.341627 
L 389.163576 162.116333 
L 392.971094 160.556869 
L 396.702394 159.064238 
L 399.73176 157.816666 
L 403.462709 156.301758 
L 407.193307 154.786849 
L 410.218458 153.539278 
L 413.948705 152.024369 
L 417.756925 150.464904 
L 420.708845 149.239611 
L 424.439794 147.702424 
L 428.242394 146.14296 
" clip-path="url(#p351a2b66b2)" style="fill: none; stroke: #9467bd; stroke-width: 1.5; stroke-linecap: square"/>
   </g>
   <g id="line2d_21">
    <path d="M 77.256565 287.185398 
L 80.704773 286.851227 
L 83.505663 286.316553 
L 87.19148 285.403152 
L 90.801957 284.333805 
L 94.51833 283.086234 
L 98.157959 281.74955 
L 101.828848 280.390587 
L 104.79429 279.276684 
L 108.463774 277.850888 
L 112.213163 276.335979 
L 115.8837 274.798793 
L 118.775559 273.551221 
L 122.522138 271.902644 
L 126.1925 270.254067 
L 129.161103 268.917383 
L 132.831289 267.22425 
L 136.500598 265.531117 
L 140.242435 263.793428 
L 143.943354 262.055739 
L 146.943568 260.629943 
L 150.643609 258.869975 
L 154.344352 257.08773 
L 157.337893 255.661934 
L 161.038987 253.879689 
L 164.816123 252.075165 
L 168.517043 250.29292 
L 171.43858 248.91168 
L 175.216419 247.107156 
L 178.916284 245.324911 
L 181.916147 243.854559 
L 185.616012 242.050035 
L 189.317458 240.26779 
L 193.088975 238.440989 
L 196.010864 237.015192 
L 199.788 235.188391 
L 203.488392 233.383867 
L 207.188433 231.601622 
L 210.182325 230.153548 
L 213.88219 228.349024 
L 217.660907 226.499945 
L 220.582445 225.096427 
L 224.283188 223.291903 
L 228.055056 221.465102 
L 231.755975 219.660579 
L 234.754959 218.212504 
L 238.455703 216.452537 
L 242.155392 214.670292 
L 245.149986 213.222217 
L 248.849852 211.439972 
L 252.627866 209.613171 
L 256.32738 207.830925 
L 259.280704 206.405129 
L 263.088398 204.578328 
L 266.819347 202.773804 
L 269.848186 201.32573 
L 273.579662 199.543485 
L 277.309909 197.738961 
L 280.335235 196.290887 
L 284.065307 194.486364 
L 287.873702 192.637284 
L 290.825797 191.233766 
L 294.556922 189.451521 
L 298.359347 187.624719 
L 305.119838 184.416678 
L 308.851138 182.634432 
L 311.802882 181.230914 
L 315.611102 179.404113 
L 319.341349 177.644145 
L 322.371066 176.196071 
L 326.101137 174.413826 
L 329.832613 172.63158 
L 333.634862 170.804779 
L 336.587484 169.401261 
L 340.395002 167.596737 
L 344.125951 165.814492 
L 347.078046 164.388696 
L 350.886442 162.561894 
L 354.616864 160.757371 
L 357.646757 159.309297 
L 361.376828 157.527051 
L 365.107953 155.767084 
L 368.131699 154.31901 
L 371.862297 152.559043 
L 375.669815 150.732241 
L 378.622261 149.328723 
L 382.352684 147.568756 
L 386.155284 145.741954 
L 389.107379 144.338436 
L 392.91595 142.511635 
L 396.64567 140.729389 
L 400.377849 138.947144 
L 403.402297 137.521348 
L 407.133422 135.716825 
L 410.162437 134.26875 
L 413.893211 132.464227 
L 417.623282 130.659703 
L 421.426058 128.832902 
L 424.377626 127.429384 
L 428.186022 125.580304 
" clip-path="url(#p351a2b66b2)" style="fill: none; stroke: #8c564b; stroke-width: 1.5; stroke-linecap: square"/>
   </g>
   <g id="line2d_22">
    <path d="M 77.258145 287.16312 
L 80.6981 286.806671 
L 84.355115 285.937826 
L 87.965944 284.779367 
L 90.82707 283.665463 
L 94.544672 282.105999 
L 98.183248 280.524256 
L 101.931759 278.786567 
L 105.602648 277.026599 
L 108.496789 275.623081 
L 112.243544 273.774002 
L 115.914082 272.014035 
L 118.882509 270.588238 
L 122.552871 268.783715 
L 126.222706 266.934635 
L 129.96507 265.063278 
L 133.635081 263.19192 
L 136.635646 261.654734 
L 140.335336 259.716542 
L 144.035728 257.756072 
L 147.029093 256.174329 
L 150.73089 254.21386 
L 154.508728 252.208834 
L 158.209823 250.226086 
L 161.131185 248.666621 
L 164.910078 246.617039 
L 168.61047 244.612013 
L 171.609981 243.007992 
L 175.311427 241.002966 
L 179.013049 239.020218 
L 182.786497 236.970636 
L 185.709088 235.411171 
L 189.487278 233.383867 
L 193.188549 231.378841 
L 196.88859 229.373816 
L 199.883359 227.747517 
L 203.583751 225.742491 
L 207.362468 223.715187 
L 210.284357 222.133444 
L 213.985627 220.128418 
L 217.758373 218.101114 
L 221.459995 216.096088 
L 224.459155 214.469789 
L 228.160074 212.464763 
L 231.860466 210.459737 
L 234.855235 208.855716 
L 238.556155 206.85069 
L 242.335223 204.823386 
L 246.036317 202.862917 
L 248.958733 201.303452 
L 252.736396 199.25387 
L 256.453999 197.248844 
L 259.484594 195.622545 
L 263.217475 193.617519 
L 266.9486 191.590215 
L 269.973751 189.963916 
L 273.704876 187.95889 
L 277.514676 185.909308 
L 280.467123 184.327565 
L 284.199126 182.322539 
L 288.002604 180.272957 
L 291.734256 178.267931 
L 294.7645 176.641632 
L 298.497556 174.658885 
L 302.229208 172.653859 
L 305.254183 171.02756 
L 308.984957 169.044812 
L 312.79546 166.99523 
L 315.747731 165.413487 
L 319.479207 163.408461 
L 323.282861 161.358879 
L 326.235834 159.777136 
L 330.044405 157.727554 
L 333.77676 155.744806 
L 336.728679 154.140785 
L 340.53848 152.091203 
L 344.269605 150.086177 
L 347.300375 148.4376 
L 351.031676 146.432574 
L 354.763503 144.427548 
L 361.519779 140.818502 
L 365.327999 138.791198 
L 368.281148 137.209455 
L 372.012097 135.204429 
L 375.816454 133.177125 
L 379.547228 131.172099 
L 382.577998 129.5458 
L 386.309826 127.563052 
L 390.042004 125.558026 
L 393.066277 123.931727 
L 396.79828 121.948979 
L 400.607203 119.921675 
L 403.560703 118.317655 
L 407.291476 116.312629 
L 411.096008 114.285325 
L 414.04863 112.703582 
L 417.857553 110.654 
L 421.589029 108.69353 
L 424.541651 107.111787 
L 428.350398 105.084483 
" clip-path="url(#p351a2b66b2)" style="fill: none; stroke: #e377c2; stroke-width: 1.5; stroke-linecap: square"/>
   </g>
   <g id="line2d_23">
    <path d="M 77.246204 282.462448 
L 80.730062 282.061442 
L 83.637551 281.326266 
L 87.276302 280.100973 
L 90.91558 278.63062 
L 94.631602 276.937487 
L 98.270704 275.17752 
L 101.238605 273.662611 
L 104.909318 271.72442 
L 108.578977 269.741672 
L 112.32222 267.669812 
L 115.212849 266.088069 
L 118.959955 264.060765 
L 122.659821 262.011183 
L 126.360915 259.983879 
L 129.354456 258.35758 
L 133.055375 256.307998 
L 136.832511 254.169303 
L 140.533606 252.008331 
L 143.454968 250.29292 
L 147.232982 248.087391 
L 150.932848 245.904141 
L 153.932359 244.144174 
L 157.632575 241.960923 
L 161.333846 239.777673 
L 165.105713 237.549866 
L 168.028129 235.812177 
L 171.805792 233.562092 
L 175.50636 231.356563 
L 178.427547 229.618874 
L 182.205561 227.36879 
L 185.905778 225.163261 
L 189.683792 222.890898 
L 192.605154 221.153209 
L 196.306073 218.94768 
L 200.078117 216.675318 
L 203.000357 214.959907 
L 206.777493 212.709822 
L 210.478412 210.504293 
L 214.179156 208.298765 
L 217.173223 206.516519 
L 224.651629 202.01635 
L 227.572991 200.278661 
L 231.273559 198.073132 
L 235.05052 195.800769 
L 238.751263 193.572963 
L 241.750072 191.768439 
L 245.450815 189.562911 
L 249.150856 187.335104 
L 252.923778 185.08502 
L 255.875697 183.325052 
L 259.684269 181.074968 
L 263.414515 178.847161 
L 266.367137 177.087194 
L 270.17483 174.792553 
L 273.906658 172.542468 
L 276.935672 170.737945 
L 280.666622 168.510138 
L 284.39722 166.260053 
L 287.422371 164.433252 
L 291.152618 162.205445 
L 294.960662 159.933083 
L 297.912055 158.173115 
L 301.64318 155.945309 
L 305.445956 153.672946 
L 308.398577 151.912979 
L 312.206271 149.640616 
L 315.937396 147.390531 
L 319.667291 145.162725 
L 322.692091 143.358201 
L 326.422865 141.130395 
L 329.452933 139.281315 
L 333.183004 137.03123 
L 336.913953 134.803424 
L 340.716378 132.486505 
L 343.670054 130.726538 
L 347.477044 128.454175 
L 351.207818 126.20409 
L 354.159562 124.421845 
L 357.967431 122.149482 
L 361.697678 119.921675 
L 364.727395 118.094874 
L 368.45729 115.844789 
L 372.188766 113.616983 
L 375.212864 111.812459 
L 378.943989 109.562375 
L 382.751506 107.245456 
L 385.704304 105.485488 
L 389.435077 103.235404 
L 393.23838 100.940763 
L 396.189773 99.158518 
L 399.998344 96.863877 
L 403.728064 94.613792 
L 407.458662 92.341429 
L 410.482233 90.514628 
L 414.213358 88.264543 
L 417.242723 86.437742 
L 420.973321 84.187657 
L 424.703041 81.915294 
" clip-path="url(#p351a2b66b2)" style="fill: none; stroke: #7f7f7f; stroke-width: 1.5; stroke-linecap: square"/>
   </g>
   <g id="line2d_24">
    <path d="M 77.246379 283.041677 
L 80.729535 282.618394 
L 84.337378 281.571325 
L 88.046902 280.100973 
L 90.907677 278.786567 
L 94.622821 276.937487 
L 98.261397 274.999295 
L 101.930178 272.927435 
L 104.893864 271.189746 
L 108.562645 269.028774 
L 112.309576 266.756411 
L 115.978357 264.506326 
L 119.678925 262.167129 
L 122.671938 260.251215 
L 126.37233 257.88974 
L 130.149115 255.461431 
L 133.070478 253.590074 
L 136.769992 251.206321 
L 140.542035 248.733455 
L 144.240847 246.282868 
L 147.239831 244.277842 
L 150.939345 241.782698 
L 154.639562 239.242999 
L 157.632575 237.193417 
L 161.332441 234.653717 
L 165.109401 232.047183 
L 168.809267 229.485206 
L 171.730278 227.457902 
L 175.507238 224.82909 
L 179.205874 222.244834 
L 182.205034 220.150696 
L 185.904021 217.588718 
L 189.604062 215.004463 
L 193.375755 212.353373 
L 196.297292 210.326069 
L 200.073902 207.674979 
L 203.77324 205.090723 
L 207.472403 202.484189 
L 210.466295 200.390051 
L 214.165984 197.805795 
L 217.943647 195.176984 
L 220.864659 193.14968 
L 224.5647 190.565424 
L 228.341836 187.936612 
L 232.04135 185.374634 
L 235.039105 183.280496 
L 238.739146 180.718519 
L 242.438133 178.156541 
L 245.4322 176.084681 
L 249.131363 173.522703 
L 252.909026 170.893891 
L 256.638395 168.287358 
L 259.590665 166.215497 
L 263.397832 163.564407 
L 267.12843 160.957874 
L 270.157269 158.841457 
L 273.888218 156.234924 
L 277.618289 153.650668 
L 280.642914 151.534252 
L 284.372985 148.927718 
L 288.180678 146.276628 
L 291.132246 144.227046 
L 294.862669 141.620512 
L 298.664215 138.9917 
L 301.617013 136.942118 
L 305.42453 134.313306 
L 309.154777 131.729051 
L 312.884673 129.144795 
L 315.909121 127.050657 
L 319.639017 124.488679 
L 322.668383 122.394541 
L 326.398278 119.832563 
L 330.129228 117.270586 
L 333.931301 114.664052 
L 336.883572 112.61447 
L 340.69109 110.007936 
L 344.421688 107.42368 
L 347.372904 105.396376 
L 351.180422 102.745286 
L 354.910142 100.205587 
L 357.939859 98.133727 
L 361.669228 95.594027 
L 365.39965 93.032049 
L 368.423572 90.982467 
L 372.153819 88.465046 
L 375.96081 85.88079 
L 378.912729 83.875764 
L 382.642625 81.336065 
L 386.445401 78.707253 
L 389.396969 76.679949 
L 393.205365 74.051137 
L 396.935436 71.466881 
L 400.665331 68.904903 
L 403.689077 66.833043 
L 407.419851 64.271066 
L 410.464671 62.176927 
L 414.211075 59.592672 
L 417.972054 57.030694 
L 421.027587 54.936556 
L 424.787688 52.374578 
" clip-path="url(#p351a2b66b2)" style="fill: none; stroke: #bcbd22; stroke-width: 1.5; stroke-linecap: square"/>
   </g>
   <g id="line2d_25">
    <path d="M 77.246204 281.259432 
L 80.729886 280.813871 
L 84.430103 279.655411 
L 88.068679 278.095947 
L 90.928927 276.67015 
L 94.644949 274.59829 
L 98.283173 272.41504 
L 102.030103 270.053565 
L 104.921084 268.204485 
L 108.590568 265.84301 
L 112.33785 263.370145 
L 116.038593 260.875001 
L 119.037577 258.847697 
L 122.73797 256.330276 
L 126.437835 253.768298 
L 130.210054 251.184042 
L 133.131767 249.201295 
L 136.908904 246.594761 
L 140.609471 244.032783 
L 143.531361 242.005479 
L 147.309024 239.332111 
L 151.009416 236.725577 
L 154.786903 234.029931 
L 157.708792 231.913515 
L 161.409185 229.217869 
L 165.181579 226.477667 
L 168.883201 223.782021 
L 171.883063 221.59877 
L 175.583455 218.903124 
L 179.284199 216.207478 
L 182.27809 214.024228 
L 185.978307 211.328582 
L 189.75597 208.58838 
L 193.456186 205.915012 
L 196.378076 203.798595 
L 200.155739 201.058393 
L 203.856482 198.362747 
L 206.855993 196.179497 
L 210.55621 193.483851 
L 214.256778 190.788205 
L 218.028997 188.048002 
L 220.950886 185.931586 
L 224.7289 183.191384 
L 228.429292 180.47346 
L 231.351181 178.334765 
L 235.12902 175.572285 
L 238.829237 172.854361 
L 242.606548 170.091881 
L 245.528086 167.953187 
L 249.228127 165.257541 
L 252.999995 162.517338 
L 255.952441 160.356366 
L 259.760837 157.571608 
L 263.491611 154.809127 
L 267.22256 152.046647 
L 270.24736 149.818841 
L 273.977958 147.05636 
L 277.007499 144.828554 
L 280.738273 142.11063 
L 284.469573 139.392705 
L 288.272525 136.630225 
L 291.22462 134.491531 
L 295.032489 131.751329 
L 298.763087 129.011127 
L 301.715357 126.872432 
L 305.523226 124.087674 
L 309.254351 121.36975 
L 312.283717 119.164221 
L 316.014666 116.446297 
L 319.745791 113.728373 
L 322.770064 111.522844 
L 326.500838 108.80492 
L 330.308531 106.020162 
L 333.260977 103.881468 
L 336.991575 101.185822 
L 340.794527 98.445619 
L 343.746798 96.306925 
L 347.554666 93.522167 
L 351.284562 90.781965 
L 355.015336 88.064041 
L 358.03996 85.88079 
L 361.770909 83.140588 
L 365.579656 80.378108 
L 368.532102 78.239413 
L 372.263052 75.543767 
L 376.065652 72.803565 
L 379.017747 70.642593 
L 382.825967 67.880112 
L 386.55639 65.162188 
L 389.523763 63.023494 
L 393.362189 60.238736 
L 397.122642 57.498534 
L 400.18274 55.248449 
L 403.943544 52.508247 
L 407.703821 49.768044 
L 410.758827 47.562516 
L 414.51928 44.822314 
L 417.579554 42.616785 
L 421.340358 39.876583 
L 425.101161 37.136381 
L 428.155991 34.930852 
" clip-path="url(#p351a2b66b2)" style="fill: none; stroke: #17becf; stroke-width: 1.5; stroke-linecap: square"/>
   </g>
   <g id="patch_3">
    <path d="M 59.690625 299.798125 
L 59.690625 22.318125 
" style="fill: none; stroke: #000000; stroke-width: 0.8; stroke-linejoin: miter; stroke-linecap: square"/>
   </g>
   <g id="patch_4">
    <path d="M 445.905625 299.798125 
L 445.905625 22.318125 
" style="fill: none; stroke: #000000; stroke-width: 0.8; stroke-linejoin: miter; stroke-linecap: square"/>
   </g>
   <g id="patch_5">
    <path d="M 59.690625 299.798125 
L 445.905625 299.798125 
" style="fill: none; stroke: #000000; stroke-width: 0.8; stroke-linejoin: miter; stroke-linecap: square"/>
   </g>
   <g id="patch_6">
    <path d="M 59.690625 22.318125 
L 445.905625 22.318125 
" style="fill: none; stroke: #000000; stroke-width: 0.8; stroke-linejoin: miter; stroke-linecap: square"/>
   </g>
   <g id="text_19">
    <!-- right theta vs. time -->
    <g transform="translate(194.965625 16.318125) scale(0.12 -0.12)">
     <defs>
      <path id="DejaVuSans-76" d="M 191 3500 
L 800 3500 
L 1894 563 
L 2988 3500 
L 3597 3500 
L 2284 0 
L 1503 0 
L 191 3500 
z
" transform="scale(0.015625)"/>
     </defs>
     <use xlink:href="#DejaVuSans-72"/>
     <use xlink:href="#DejaVuSans-69" transform="translate(41.113281 0)"/>
     <use xlink:href="#DejaVuSans-67" transform="translate(68.896484 0)"/>
     <use xlink:href="#DejaVuSans-68" transform="translate(132.373047 0)"/>
     <use xlink:href="#DejaVuSans-74" transform="translate(195.751953 0)"/>
     <use xlink:href="#DejaVuSans-20" transform="translate(234.960938 0)"/>
     <use xlink:href="#DejaVuSans-74" transform="translate(266.748047 0)"/>
     <use xlink:href="#DejaVuSans-68" transform="translate(305.957031 0)"/>
     <use xlink:href="#DejaVuSans-65" transform="translate(369.335938 0)"/>
     <use xlink:href="#DejaVuSans-74" transform="translate(430.859375 0)"/>
     <use xlink:href="#DejaVuSans-61" transform="translate(470.068359 0)"/>
     <use xlink:href="#DejaVuSans-20" transform="translate(531.347656 0)"/>
     <use xlink:href="#DejaVuSans-76" transform="translate(563.134766 0)"/>
     <use xlink:href="#DejaVuSans-73" transform="translate(622.314453 0)"/>
     <use xlink:href="#DejaVuSans-2e" transform="translate(674.414062 0)"/>
     <use xlink:href="#DejaVuSans-20" transform="translate(706.201172 0)"/>
     <use xlink:href="#DejaVuSans-74" transform="translate(737.988281 0)"/>
     <use xlink:href="#DejaVuSans-69" transform="translate(777.197266 0)"/>
     <use xlink:href="#DejaVuSans-6d" transform="translate(804.980469 0)"/>
     <use xlink:href="#DejaVuSans-65" transform="translate(902.392578 0)"/>
    </g>
   </g>
   <g id="legend_1">
    <g id="patch_7">
     <path d="M 66.690625 177.099375 
L 159.857813 177.099375 
Q 161.857813 177.099375 161.857813 175.099375 
L 161.857813 29.318125 
Q 161.857813 27.318125 159.857813 27.318125 
L 66.690625 27.318125 
Q 64.690625 27.318125 64.690625 29.318125 
L 64.690625 175.099375 
Q 64.690625 177.099375 66.690625 177.099375 
z
" style="fill: #ffffff; opacity: 0.8; stroke: #cccccc; stroke-linejoin: miter"/>
    </g>
    <g id="line2d_26">
     <path d="M 68.690625 35.416562 
L 78.690625 35.416562 
L 88.690625 35.416562 
" style="fill: none; stroke: #1f77b4; stroke-width: 1.5; stroke-linecap: square"/>
    </g>
    <g id="text_20">
     <!-- effort = 10 -->
     <g transform="translate(96.690625 38.916562) scale(0.1 -0.1)">
      <defs>
       <path id="DejaVuSans-66" d="M 2375 4863 
L 2375 4384 
L 1825 4384 
Q 1516 4384 1395 4259 
Q 1275 4134 1275 3809 
L 1275 3500 
L 2222 3500 
L 2222 3053 
L 1275 3053 
L 1275 0 
L 697 0 
L 697 3053 
L 147 3053 
L 147 3500 
L 697 3500 
L 697 3744 
Q 697 4328 969 4595 
Q 1241 4863 1831 4863 
L 2375 4863 
z
" transform="scale(0.015625)"/>
       <path id="DejaVuSans-6f" d="M 1959 3097 
Q 1497 3097 1228 2736 
Q 959 2375 959 1747 
Q 959 1119 1226 758 
Q 1494 397 1959 397 
Q 2419 397 2687 759 
Q 2956 1122 2956 1747 
Q 2956 2369 2687 2733 
Q 2419 3097 1959 3097 
z
M 1959 3584 
Q 2709 3584 3137 3096 
Q 3566 2609 3566 1747 
Q 3566 888 3137 398 
Q 2709 -91 1959 -91 
Q 1206 -91 779 398 
Q 353 888 353 1747 
Q 353 2609 779 3096 
Q 1206 3584 1959 3584 
z
" transform="scale(0.015625)"/>
       <path id="DejaVuSans-3d" d="M 678 2906 
L 4684 2906 
L 4684 2381 
L 678 2381 
L 678 2906 
z
M 678 1631 
L 4684 1631 
L 4684 1100 
L 678 1100 
L 678 1631 
z
" transform="scale(0.015625)"/>
      </defs>
      <use xlink:href="#DejaVuSans-65"/>
      <use xlink:href="#DejaVuSans-66" transform="translate(61.523438 0)"/>
      <use xlink:href="#DejaVuSans-66" transform="translate(96.728516 0)"/>
      <use xlink:href="#DejaVuSans-6f" transform="translate(131.933594 0)"/>
      <use xlink:href="#DejaVuSans-72" transform="translate(193.115234 0)"/>
      <use xlink:href="#DejaVuSans-74" transform="translate(234.228516 0)"/>
      <use xlink:href="#DejaVuSans-20" transform="translate(273.4375 0)"/>
      <use xlink:href="#DejaVuSans-3d" transform="translate(305.224609 0)"/>
      <use xlink:href="#DejaVuSans-20" transform="translate(389.013672 0)"/>
      <use xlink:href="#DejaVuSans-31" transform="translate(420.800781 0)"/>
      <use xlink:href="#DejaVuSans-30" transform="translate(484.423828 0)"/>
     </g>
    </g>
    <g id="line2d_27">
     <path d="M 68.690625 50.094688 
L 78.690625 50.094688 
L 88.690625 50.094688 
" style="fill: none; stroke: #ff7f0e; stroke-width: 1.5; stroke-linecap: square"/>
    </g>
    <g id="text_21">
     <!-- effort = 20 -->
     <g transform="translate(96.690625 53.594688) scale(0.1 -0.1)">
      <use xlink:href="#DejaVuSans-65"/>
      <use xlink:href="#DejaVuSans-66" transform="translate(61.523438 0)"/>
      <use xlink:href="#DejaVuSans-66" transform="translate(96.728516 0)"/>
      <use xlink:href="#DejaVuSans-6f" transform="translate(131.933594 0)"/>
      <use xlink:href="#DejaVuSans-72" transform="translate(193.115234 0)"/>
      <use xlink:href="#DejaVuSans-74" transform="translate(234.228516 0)"/>
      <use xlink:href="#DejaVuSans-20" transform="translate(273.4375 0)"/>
      <use xlink:href="#DejaVuSans-3d" transform="translate(305.224609 0)"/>
      <use xlink:href="#DejaVuSans-20" transform="translate(389.013672 0)"/>
      <use xlink:href="#DejaVuSans-32" transform="translate(420.800781 0)"/>
      <use xlink:href="#DejaVuSans-30" transform="translate(484.423828 0)"/>
     </g>
    </g>
    <g id="line2d_28">
     <path d="M 68.690625 64.772813 
L 78.690625 64.772813 
L 88.690625 64.772813 
" style="fill: none; stroke: #2ca02c; stroke-width: 1.5; stroke-linecap: square"/>
    </g>
    <g id="text_22">
     <!-- effort = 30 -->
     <g transform="translate(96.690625 68.272813) scale(0.1 -0.1)">
      <defs>
       <path id="DejaVuSans-33" d="M 2597 2516 
Q 3050 2419 3304 2112 
Q 3559 1806 3559 1356 
Q 3559 666 3084 287 
Q 2609 -91 1734 -91 
Q 1441 -91 1130 -33 
Q 819 25 488 141 
L 488 750 
Q 750 597 1062 519 
Q 1375 441 1716 441 
Q 2309 441 2620 675 
Q 2931 909 2931 1356 
Q 2931 1769 2642 2001 
Q 2353 2234 1838 2234 
L 1294 2234 
L 1294 2753 
L 1863 2753 
Q 2328 2753 2575 2939 
Q 2822 3125 2822 3475 
Q 2822 3834 2567 4026 
Q 2313 4219 1838 4219 
Q 1578 4219 1281 4162 
Q 984 4106 628 3988 
L 628 4550 
Q 988 4650 1302 4700 
Q 1616 4750 1894 4750 
Q 2613 4750 3031 4423 
Q 3450 4097 3450 3541 
Q 3450 3153 3228 2886 
Q 3006 2619 2597 2516 
z
" transform="scale(0.015625)"/>
      </defs>
      <use xlink:href="#DejaVuSans-65"/>
      <use xlink:href="#DejaVuSans-66" transform="translate(61.523438 0)"/>
      <use xlink:href="#DejaVuSans-66" transform="translate(96.728516 0)"/>
      <use xlink:href="#DejaVuSans-6f" transform="translate(131.933594 0)"/>
      <use xlink:href="#DejaVuSans-72" transform="translate(193.115234 0)"/>
      <use xlink:href="#DejaVuSans-74" transform="translate(234.228516 0)"/>
      <use xlink:href="#DejaVuSans-20" transform="translate(273.4375 0)"/>
      <use xlink:href="#DejaVuSans-3d" transform="translate(305.224609 0)"/>
      <use xlink:href="#DejaVuSans-20" transform="translate(389.013672 0)"/>
      <use xlink:href="#DejaVuSans-33" transform="translate(420.800781 0)"/>
      <use xlink:href="#DejaVuSans-30" transform="translate(484.423828 0)"/>
     </g>
    </g>
    <g id="line2d_29">
     <path d="M 68.690625 79.450938 
L 78.690625 79.450938 
L 88.690625 79.450938 
" style="fill: none; stroke: #d62728; stroke-width: 1.5; stroke-linecap: square"/>
    </g>
    <g id="text_23">
     <!-- effort = 40 -->
     <g transform="translate(96.690625 82.950938) scale(0.1 -0.1)">
      <use xlink:href="#DejaVuSans-65"/>
      <use xlink:href="#DejaVuSans-66" transform="translate(61.523438 0)"/>
      <use xlink:href="#DejaVuSans-66" transform="translate(96.728516 0)"/>
      <use xlink:href="#DejaVuSans-6f" transform="translate(131.933594 0)"/>
      <use xlink:href="#DejaVuSans-72" transform="translate(193.115234 0)"/>
      <use xlink:href="#DejaVuSans-74" transform="translate(234.228516 0)"/>
      <use xlink:href="#DejaVuSans-20" transform="translate(273.4375 0)"/>
      <use xlink:href="#DejaVuSans-3d" transform="translate(305.224609 0)"/>
      <use xlink:href="#DejaVuSans-20" transform="translate(389.013672 0)"/>
      <use xlink:href="#DejaVuSans-34" transform="translate(420.800781 0)"/>
      <use xlink:href="#DejaVuSans-30" transform="translate(484.423828 0)"/>
     </g>
    </g>
    <g id="line2d_30">
     <path d="M 68.690625 94.129063 
L 78.690625 94.129063 
L 88.690625 94.129063 
" style="fill: none; stroke: #9467bd; stroke-width: 1.5; stroke-linecap: square"/>
    </g>
    <g id="text_24">
     <!-- effort = 50 -->
     <g transform="translate(96.690625 97.629063) scale(0.1 -0.1)">
      <use xlink:href="#DejaVuSans-65"/>
      <use xlink:href="#DejaVuSans-66" transform="translate(61.523438 0)"/>
      <use xlink:href="#DejaVuSans-66" transform="translate(96.728516 0)"/>
      <use xlink:href="#DejaVuSans-6f" transform="translate(131.933594 0)"/>
      <use xlink:href="#DejaVuSans-72" transform="translate(193.115234 0)"/>
      <use xlink:href="#DejaVuSans-74" transform="translate(234.228516 0)"/>
      <use xlink:href="#DejaVuSans-20" transform="translate(273.4375 0)"/>
      <use xlink:href="#DejaVuSans-3d" transform="translate(305.224609 0)"/>
      <use xlink:href="#DejaVuSans-20" transform="translate(389.013672 0)"/>
      <use xlink:href="#DejaVuSans-35" transform="translate(420.800781 0)"/>
      <use xlink:href="#DejaVuSans-30" transform="translate(484.423828 0)"/>
     </g>
    </g>
    <g id="line2d_31">
     <path d="M 68.690625 108.807187 
L 78.690625 108.807187 
L 88.690625 108.807187 
" style="fill: none; stroke: #8c564b; stroke-width: 1.5; stroke-linecap: square"/>
    </g>
    <g id="text_25">
     <!-- effort = 60 -->
     <g transform="translate(96.690625 112.307187) scale(0.1 -0.1)">
      <use xlink:href="#DejaVuSans-65"/>
      <use xlink:href="#DejaVuSans-66" transform="translate(61.523438 0)"/>
      <use xlink:href="#DejaVuSans-66" transform="translate(96.728516 0)"/>
      <use xlink:href="#DejaVuSans-6f" transform="translate(131.933594 0)"/>
      <use xlink:href="#DejaVuSans-72" transform="translate(193.115234 0)"/>
      <use xlink:href="#DejaVuSans-74" transform="translate(234.228516 0)"/>
      <use xlink:href="#DejaVuSans-20" transform="translate(273.4375 0)"/>
      <use xlink:href="#DejaVuSans-3d" transform="translate(305.224609 0)"/>
      <use xlink:href="#DejaVuSans-20" transform="translate(389.013672 0)"/>
      <use xlink:href="#DejaVuSans-36" transform="translate(420.800781 0)"/>
      <use xlink:href="#DejaVuSans-30" transform="translate(484.423828 0)"/>
     </g>
    </g>
    <g id="line2d_32">
     <path d="M 68.690625 123.485313 
L 78.690625 123.485313 
L 88.690625 123.485313 
" style="fill: none; stroke: #e377c2; stroke-width: 1.5; stroke-linecap: square"/>
    </g>
    <g id="text_26">
     <!-- effort = 70 -->
     <g transform="translate(96.690625 126.985313) scale(0.1 -0.1)">
      <use xlink:href="#DejaVuSans-65"/>
      <use xlink:href="#DejaVuSans-66" transform="translate(61.523438 0)"/>
      <use xlink:href="#DejaVuSans-66" transform="translate(96.728516 0)"/>
      <use xlink:href="#DejaVuSans-6f" transform="translate(131.933594 0)"/>
      <use xlink:href="#DejaVuSans-72" transform="translate(193.115234 0)"/>
      <use xlink:href="#DejaVuSans-74" transform="translate(234.228516 0)"/>
      <use xlink:href="#DejaVuSans-20" transform="translate(273.4375 0)"/>
      <use xlink:href="#DejaVuSans-3d" transform="translate(305.224609 0)"/>
      <use xlink:href="#DejaVuSans-20" transform="translate(389.013672 0)"/>
      <use xlink:href="#DejaVuSans-37" transform="translate(420.800781 0)"/>
      <use xlink:href="#DejaVuSans-30" transform="translate(484.423828 0)"/>
     </g>
    </g>
    <g id="line2d_33">
     <path d="M 68.690625 138.163437 
L 78.690625 138.163437 
L 88.690625 138.163437 
" style="fill: none; stroke: #7f7f7f; stroke-width: 1.5; stroke-linecap: square"/>
    </g>
    <g id="text_27">
     <!-- effort = 80 -->
     <g transform="translate(96.690625 141.663437) scale(0.1 -0.1)">
      <use xlink:href="#DejaVuSans-65"/>
      <use xlink:href="#DejaVuSans-66" transform="translate(61.523438 0)"/>
      <use xlink:href="#DejaVuSans-66" transform="translate(96.728516 0)"/>
      <use xlink:href="#DejaVuSans-6f" transform="translate(131.933594 0)"/>
      <use xlink:href="#DejaVuSans-72" transform="translate(193.115234 0)"/>
      <use xlink:href="#DejaVuSans-74" transform="translate(234.228516 0)"/>
      <use xlink:href="#DejaVuSans-20" transform="translate(273.4375 0)"/>
      <use xlink:href="#DejaVuSans-3d" transform="translate(305.224609 0)"/>
      <use xlink:href="#DejaVuSans-20" transform="translate(389.013672 0)"/>
      <use xlink:href="#DejaVuSans-38" transform="translate(420.800781 0)"/>
      <use xlink:href="#DejaVuSans-30" transform="translate(484.423828 0)"/>
     </g>
    </g>
    <g id="line2d_34">
     <path d="M 68.690625 152.841563 
L 78.690625 152.841563 
L 88.690625 152.841563 
" style="fill: none; stroke: #bcbd22; stroke-width: 1.5; stroke-linecap: square"/>
    </g>
    <g id="text_28">
     <!-- effort = 90 -->
     <g transform="translate(96.690625 156.341563) scale(0.1 -0.1)">
      <defs>
       <path id="DejaVuSans-39" d="M 703 97 
L 703 672 
Q 941 559 1184 500 
Q 1428 441 1663 441 
Q 2288 441 2617 861 
Q 2947 1281 2994 2138 
Q 2813 1869 2534 1725 
Q 2256 1581 1919 1581 
Q 1219 1581 811 2004 
Q 403 2428 403 3163 
Q 403 3881 828 4315 
Q 1253 4750 1959 4750 
Q 2769 4750 3195 4129 
Q 3622 3509 3622 2328 
Q 3622 1225 3098 567 
Q 2575 -91 1691 -91 
Q 1453 -91 1209 -44 
Q 966 3 703 97 
z
M 1959 2075 
Q 2384 2075 2632 2365 
Q 2881 2656 2881 3163 
Q 2881 3666 2632 3958 
Q 2384 4250 1959 4250 
Q 1534 4250 1286 3958 
Q 1038 3666 1038 3163 
Q 1038 2656 1286 2365 
Q 1534 2075 1959 2075 
z
" transform="scale(0.015625)"/>
      </defs>
      <use xlink:href="#DejaVuSans-65"/>
      <use xlink:href="#DejaVuSans-66" transform="translate(61.523438 0)"/>
      <use xlink:href="#DejaVuSans-66" transform="translate(96.728516 0)"/>
      <use xlink:href="#DejaVuSans-6f" transform="translate(131.933594 0)"/>
      <use xlink:href="#DejaVuSans-72" transform="translate(193.115234 0)"/>
      <use xlink:href="#DejaVuSans-74" transform="translate(234.228516 0)"/>
      <use xlink:href="#DejaVuSans-20" transform="translate(273.4375 0)"/>
      <use xlink:href="#DejaVuSans-3d" transform="translate(305.224609 0)"/>
      <use xlink:href="#DejaVuSans-20" transform="translate(389.013672 0)"/>
      <use xlink:href="#DejaVuSans-39" transform="translate(420.800781 0)"/>
      <use xlink:href="#DejaVuSans-30" transform="translate(484.423828 0)"/>
     </g>
    </g>
    <g id="line2d_35">
     <path d="M 68.690625 167.519687 
L 78.690625 167.519687 
L 88.690625 167.519687 
" style="fill: none; stroke: #17becf; stroke-width: 1.5; stroke-linecap: square"/>
    </g>
    <g id="text_29">
     <!-- effort = 100 -->
     <g transform="translate(96.690625 171.019687) scale(0.1 -0.1)">
      <use xlink:href="#DejaVuSans-65"/>
      <use xlink:href="#DejaVuSans-66" transform="translate(61.523438 0)"/>
      <use xlink:href="#DejaVuSans-66" transform="translate(96.728516 0)"/>
      <use xlink:href="#DejaVuSans-6f" transform="translate(131.933594 0)"/>
      <use xlink:href="#DejaVuSans-72" transform="translate(193.115234 0)"/>
      <use xlink:href="#DejaVuSans-74" transform="translate(234.228516 0)"/>
      <use xlink:href="#DejaVuSans-20" transform="translate(273.4375 0)"/>
      <use xlink:href="#DejaVuSans-3d" transform="translate(305.224609 0)"/>
      <use xlink:href="#DejaVuSans-20" transform="translate(389.013672 0)"/>
      <use xlink:href="#DejaVuSans-31" transform="translate(420.800781 0)"/>
      <use xlink:href="#DejaVuSans-30" transform="translate(484.423828 0)"/>
      <use xlink:href="#DejaVuSans-30" transform="translate(548.046875 0)"/>
     </g>
    </g>
   </g>
  </g>
 </g>
 <defs>
  <clipPath id="p351a2b66b2">
   <rect x="59.690625" y="22.318125" width="386.215" height="277.48"/>
  </clipPath>
 </defs>
</svg>
