<?xml version="1.0" encoding="utf-8" standalone="no"?>
<!DOCTYPE svg PUBLIC "-//W3C//DTD SVG 1.1//EN"
  "http://www.w3.org/Graphics/SVG/1.1/DTD/svg11.dtd">
<svg xmlns:xlink="http://www.w3.org/1999/xlink" width="453.088125pt" height="337.354375pt" viewBox="0 0 453.088125 337.354375" xmlns="http://www.w3.org/2000/svg" version="1.1">
 <metadata>
  <rdf:RDF xmlns:dc="http://purl.org/dc/elements/1.1/" xmlns:cc="http://creativecommons.org/ns#" xmlns:rdf="http://www.w3.org/1999/02/22-rdf-syntax-ns#">
   <cc:Work>
    <dc:type rdf:resource="http://purl.org/dc/dcmitype/StillImage"/>
    <dc:date>2025-10-22T16:20:11.838828</dc:date>
    <dc:format>image/svg+xml</dc:format>
    <dc:creator>
     <cc:Agent>
      <dc:title>Matplotlib v3.10.6, https://matplotlib.org/</dc:title>
     </cc:Agent>
    </dc:creator>
   </cc:Work>
  </rdf:RDF>
 </metadata>
 <defs>
  <style type="text/css">*{stroke-linejoin: round; stroke-linecap: butt}</style>
 </defs>
 <g id="figure_1">
  <g id="patch_1">
   <path d="M 0 337.354375 
L 453.088125 337.354375 
L 453.088125 0 
L 0 0 
z
" style="fill: #ffffff"/>
  </g>
  <g id="axes_1">
   <g id="patch_2">
    <path d="M 53.328125 299.798125 
L 445.888125 299.798125 
L 445.888125 22.318125 
L 53.328125 22.318125 
z
" style="fill: #ffffff"/>
   </g>
   <g id="matplotlib.axis_1">
    <g id="xtick_1">
     <g id="line2d_1">
      <defs>
       <path id="me7a70b19e6" d="M 0 0 
L 0 3.5 
" style="stroke: #000000; stroke-width: 0.8"/>
      </defs>
      <g>
       <use xlink:href="#me7a70b19e6" x="71.080371" y="299.798125" style="stroke: #000000; stroke-width: 0.8"/>
      </g>
     </g>
     <g id="text_1">
      <!-- 0.00 -->
      <g transform="translate(59.947558 314.396563) scale(0.1 -0.1)">
       <defs>
        <path id="DejaVuSans-30" d="M 2034 4250 
Q 1547 4250 1301 3770 
Q 1056 3291 1056 2328 
Q 1056 1369 1301 889 
Q 1547 409 2034 409 
Q 2525 409 2770 889 
Q 3016 1369 3016 2328 
Q 3016 3291 2770 3770 
Q 2525 4250 2034 4250 
z
M 2034 4750 
Q 2819 4750 3233 4129 
Q 3647 3509 3647 2328 
Q 3647 1150 3233 529 
Q 2819 -91 2034 -91 
Q 1250 -91 836 529 
Q 422 1150 422 2328 
Q 422 3509 836 4129 
Q 1250 4750 2034 4750 
z
" transform="scale(0.015625)"/>
        <path id="DejaVuSans-2e" d="M 684 794 
L 1344 794 
L 1344 0 
L 684 0 
L 684 794 
z
" transform="scale(0.015625)"/>
       </defs>
       <use xlink:href="#DejaVuSans-30"/>
       <use xlink:href="#DejaVuSans-2e" transform="translate(63.623047 0)"/>
       <use xlink:href="#DejaVuSans-30" transform="translate(95.410156 0)"/>
       <use xlink:href="#DejaVuSans-30" transform="translate(159.033203 0)"/>
      </g>
     </g>
    </g>
    <g id="xtick_2">
     <g id="line2d_2">
      <g>
       <use xlink:href="#me7a70b19e6" x="115.704656" y="299.798125" style="stroke: #000000; stroke-width: 0.8"/>
      </g>
     </g>
     <g id="text_2">
      <!-- 0.25 -->
      <g transform="translate(104.571844 314.396563) scale(0.1 -0.1)">
       <defs>
        <path id="DejaVuSans-32" d="M 1228 531 
L 3431 531 
L 3431 0 
L 469 0 
L 469 531 
Q 828 903 1448 1529 
Q 2069 2156 2228 2338 
Q 2531 2678 2651 2914 
Q 2772 3150 2772 3378 
Q 2772 3750 2511 3984 
Q 2250 4219 1831 4219 
Q 1534 4219 1204 4116 
Q 875 4013 500 3803 
L 500 4441 
Q 881 4594 1212 4672 
Q 1544 4750 1819 4750 
Q 2544 4750 2975 4387 
Q 3406 4025 3406 3419 
Q 3406 3131 3298 2873 
Q 3191 2616 2906 2266 
Q 2828 2175 2409 1742 
Q 1991 1309 1228 531 
z
" transform="scale(0.015625)"/>
        <path id="DejaVuSans-35" d="M 691 4666 
L 3169 4666 
L 3169 4134 
L 1269 4134 
L 1269 2991 
Q 1406 3038 1543 3061 
Q 1681 3084 1819 3084 
Q 2600 3084 3056 2656 
Q 3513 2228 3513 1497 
Q 3513 744 3044 326 
Q 2575 -91 1722 -91 
Q 1428 -91 1123 -41 
Q 819 9 494 109 
L 494 744 
Q 775 591 1075 516 
Q 1375 441 1709 441 
Q 2250 441 2565 725 
Q 2881 1009 2881 1497 
Q 2881 1984 2565 2268 
Q 2250 2553 1709 2553 
Q 1456 2553 1204 2497 
Q 953 2441 691 2322 
L 691 4666 
z
" transform="scale(0.015625)"/>
       </defs>
       <use xlink:href="#DejaVuSans-30"/>
       <use xlink:href="#DejaVuSans-2e" transform="translate(63.623047 0)"/>
       <use xlink:href="#DejaVuSans-32" transform="translate(95.410156 0)"/>
       <use xlink:href="#DejaVuSans-35" transform="translate(159.033203 0)"/>
      </g>
     </g>
    </g>
    <g id="xtick_3">
     <g id="line2d_3">
      <g>
       <use xlink:href="#me7a70b19e6" x="160.328942" y="299.798125" style="stroke: #000000; stroke-width: 0.8"/>
      </g>
     </g>
     <g id="text_3">
      <!-- 0.50 -->
      <g transform="translate(149.196129 314.396563) scale(0.1 -0.1)">
       <use xlink:href="#DejaVuSans-30"/>
       <use xlink:href="#DejaVuSans-2e" transform="translate(63.623047 0)"/>
       <use xlink:href="#DejaVuSans-35" transform="translate(95.410156 0)"/>
       <use xlink:href="#DejaVuSans-30" transform="translate(159.033203 0)"/>
      </g>
     </g>
    </g>
    <g id="xtick_4">
     <g id="line2d_4">
      <g>
       <use xlink:href="#me7a70b19e6" x="204.953227" y="299.798125" style="stroke: #000000; stroke-width: 0.8"/>
      </g>
     </g>
     <g id="text_4">
      <!-- 0.75 -->
      <g transform="translate(193.820415 314.396563) scale(0.1 -0.1)">
       <defs>
        <path id="DejaVuSans-37" d="M 525 4666 
L 3525 4666 
L 3525 4397 
L 1831 0 
L 1172 0 
L 2766 4134 
L 525 4134 
L 525 4666 
z
" transform="scale(0.015625)"/>
       </defs>
       <use xlink:href="#DejaVuSans-30"/>
       <use xlink:href="#DejaVuSans-2e" transform="translate(63.623047 0)"/>
       <use xlink:href="#DejaVuSans-37" transform="translate(95.410156 0)"/>
       <use xlink:href="#DejaVuSans-35" transform="translate(159.033203 0)"/>
      </g>
     </g>
    </g>
    <g id="xtick_5">
     <g id="line2d_5">
      <g>
       <use xlink:href="#me7a70b19e6" x="249.577513" y="299.798125" style="stroke: #000000; stroke-width: 0.8"/>
      </g>
     </g>
     <g id="text_5">
      <!-- 1.00 -->
      <g transform="translate(238.4447 314.396563) scale(0.1 -0.1)">
       <defs>
        <path id="DejaVuSans-31" d="M 794 531 
L 1825 531 
L 1825 4091 
L 703 3866 
L 703 4441 
L 1819 4666 
L 2450 4666 
L 2450 531 
L 3481 531 
L 3481 0 
L 794 0 
L 794 531 
z
" transform="scale(0.015625)"/>
       </defs>
       <use xlink:href="#DejaVuSans-31"/>
       <use xlink:href="#DejaVuSans-2e" transform="translate(63.623047 0)"/>
       <use xlink:href="#DejaVuSans-30" transform="translate(95.410156 0)"/>
       <use xlink:href="#DejaVuSans-30" transform="translate(159.033203 0)"/>
      </g>
     </g>
    </g>
    <g id="xtick_6">
     <g id="line2d_6">
      <g>
       <use xlink:href="#me7a70b19e6" x="294.201798" y="299.798125" style="stroke: #000000; stroke-width: 0.8"/>
      </g>
     </g>
     <g id="text_6">
      <!-- 1.25 -->
      <g transform="translate(283.068986 314.396563) scale(0.1 -0.1)">
       <use xlink:href="#DejaVuSans-31"/>
       <use xlink:href="#DejaVuSans-2e" transform="translate(63.623047 0)"/>
       <use xlink:href="#DejaVuSans-32" transform="translate(95.410156 0)"/>
       <use xlink:href="#DejaVuSans-35" transform="translate(159.033203 0)"/>
      </g>
     </g>
    </g>
    <g id="xtick_7">
     <g id="line2d_7">
      <g>
       <use xlink:href="#me7a70b19e6" x="338.826084" y="299.798125" style="stroke: #000000; stroke-width: 0.8"/>
      </g>
     </g>
     <g id="text_7">
      <!-- 1.50 -->
      <g transform="translate(327.693271 314.396563) scale(0.1 -0.1)">
       <use xlink:href="#DejaVuSans-31"/>
       <use xlink:href="#DejaVuSans-2e" transform="translate(63.623047 0)"/>
       <use xlink:href="#DejaVuSans-35" transform="translate(95.410156 0)"/>
       <use xlink:href="#DejaVuSans-30" transform="translate(159.033203 0)"/>
      </g>
     </g>
    </g>
    <g id="xtick_8">
     <g id="line2d_8">
      <g>
       <use xlink:href="#me7a70b19e6" x="383.450369" y="299.798125" style="stroke: #000000; stroke-width: 0.8"/>
      </g>
     </g>
     <g id="text_8">
      <!-- 1.75 -->
      <g transform="translate(372.317557 314.396563) scale(0.1 -0.1)">
       <use xlink:href="#DejaVuSans-31"/>
       <use xlink:href="#DejaVuSans-2e" transform="translate(63.623047 0)"/>
       <use xlink:href="#DejaVuSans-37" transform="translate(95.410156 0)"/>
       <use xlink:href="#DejaVuSans-35" transform="translate(159.033203 0)"/>
      </g>
     </g>
    </g>
    <g id="xtick_9">
     <g id="line2d_9">
      <g>
       <use xlink:href="#me7a70b19e6" x="428.074655" y="299.798125" style="stroke: #000000; stroke-width: 0.8"/>
      </g>
     </g>
     <g id="text_9">
      <!-- 2.00 -->
      <g transform="translate(416.941842 314.396563) scale(0.1 -0.1)">
       <use xlink:href="#DejaVuSans-32"/>
       <use xlink:href="#DejaVuSans-2e" transform="translate(63.623047 0)"/>
       <use xlink:href="#DejaVuSans-30" transform="translate(95.410156 0)"/>
       <use xlink:href="#DejaVuSans-30" transform="translate(159.033203 0)"/>
      </g>
     </g>
    </g>
    <g id="text_10">
     <!-- time, t (ms) -->
     <g transform="translate(220.208125 328.074688) scale(0.1 -0.1)">
      <defs>
       <path id="DejaVuSans-74" d="M 1172 4494 
L 1172 3500 
L 2356 3500 
L 2356 3053 
L 1172 3053 
L 1172 1153 
Q 1172 725 1289 603 
Q 1406 481 1766 481 
L 2356 481 
L 2356 0 
L 1766 0 
Q 1100 0 847 248 
Q 594 497 594 1153 
L 594 3053 
L 172 3053 
L 172 3500 
L 594 3500 
L 594 4494 
L 1172 4494 
z
" transform="scale(0.015625)"/>
       <path id="DejaVuSans-69" d="M 603 3500 
L 1178 3500 
L 1178 0 
L 603 0 
L 603 3500 
z
M 603 4863 
L 1178 4863 
L 1178 4134 
L 603 4134 
L 603 4863 
z
" transform="scale(0.015625)"/>
       <path id="DejaVuSans-6d" d="M 3328 2828 
Q 3544 3216 3844 3400 
Q 4144 3584 4550 3584 
Q 5097 3584 5394 3201 
Q 5691 2819 5691 2113 
L 5691 0 
L 5113 0 
L 5113 2094 
Q 5113 2597 4934 2840 
Q 4756 3084 4391 3084 
Q 3944 3084 3684 2787 
Q 3425 2491 3425 1978 
L 3425 0 
L 2847 0 
L 2847 2094 
Q 2847 2600 2669 2842 
Q 2491 3084 2119 3084 
Q 1678 3084 1418 2786 
Q 1159 2488 1159 1978 
L 1159 0 
L 581 0 
L 581 3500 
L 1159 3500 
L 1159 2956 
Q 1356 3278 1631 3431 
Q 1906 3584 2284 3584 
Q 2666 3584 2933 3390 
Q 3200 3197 3328 2828 
z
" transform="scale(0.015625)"/>
       <path id="DejaVuSans-65" d="M 3597 1894 
L 3597 1613 
L 953 1613 
Q 991 1019 1311 708 
Q 1631 397 2203 397 
Q 2534 397 2845 478 
Q 3156 559 3463 722 
L 3463 178 
Q 3153 47 2828 -22 
Q 2503 -91 2169 -91 
Q 1331 -91 842 396 
Q 353 884 353 1716 
Q 353 2575 817 3079 
Q 1281 3584 2069 3584 
Q 2775 3584 3186 3129 
Q 3597 2675 3597 1894 
z
M 3022 2063 
Q 3016 2534 2758 2815 
Q 2500 3097 2075 3097 
Q 1594 3097 1305 2825 
Q 1016 2553 972 2059 
L 3022 2063 
z
" transform="scale(0.015625)"/>
       <path id="DejaVuSans-2c" d="M 750 794 
L 1409 794 
L 1409 256 
L 897 -744 
L 494 -744 
L 750 256 
L 750 794 
z
" transform="scale(0.015625)"/>
       <path id="DejaVuSans-20" transform="scale(0.015625)"/>
       <path id="DejaVuSans-28" d="M 1984 4856 
Q 1566 4138 1362 3434 
Q 1159 2731 1159 2009 
Q 1159 1288 1364 580 
Q 1569 -128 1984 -844 
L 1484 -844 
Q 1016 -109 783 600 
Q 550 1309 550 2009 
Q 550 2706 781 3412 
Q 1013 4119 1484 4856 
L 1984 4856 
z
" transform="scale(0.015625)"/>
       <path id="DejaVuSans-73" d="M 2834 3397 
L 2834 2853 
Q 2591 2978 2328 3040 
Q 2066 3103 1784 3103 
Q 1356 3103 1142 2972 
Q 928 2841 928 2578 
Q 928 2378 1081 2264 
Q 1234 2150 1697 2047 
L 1894 2003 
Q 2506 1872 2764 1633 
Q 3022 1394 3022 966 
Q 3022 478 2636 193 
Q 2250 -91 1575 -91 
Q 1294 -91 989 -36 
Q 684 19 347 128 
L 347 722 
Q 666 556 975 473 
Q 1284 391 1588 391 
Q 1994 391 2212 530 
Q 2431 669 2431 922 
Q 2431 1156 2273 1281 
Q 2116 1406 1581 1522 
L 1381 1569 
Q 847 1681 609 1914 
Q 372 2147 372 2553 
Q 372 3047 722 3315 
Q 1072 3584 1716 3584 
Q 2034 3584 2315 3537 
Q 2597 3491 2834 3397 
z
" transform="scale(0.015625)"/>
       <path id="DejaVuSans-29" d="M 513 4856 
L 1013 4856 
Q 1481 4119 1714 3412 
Q 1947 2706 1947 2009 
Q 1947 1309 1714 600 
Q 1481 -109 1013 -844 
L 513 -844 
Q 928 -128 1133 580 
Q 1338 1288 1338 2009 
Q 1338 2731 1133 3434 
Q 928 4138 513 4856 
z
" transform="scale(0.015625)"/>
      </defs>
      <use xlink:href="#DejaVuSans-74"/>
      <use xlink:href="#DejaVuSans-69" transform="translate(39.208984 0)"/>
      <use xlink:href="#DejaVuSans-6d" transform="translate(66.992188 0)"/>
      <use xlink:href="#DejaVuSans-65" transform="translate(164.404297 0)"/>
      <use xlink:href="#DejaVuSans-2c" transform="translate(225.927734 0)"/>
      <use xlink:href="#DejaVuSans-20" transform="translate(257.714844 0)"/>
      <use xlink:href="#DejaVuSans-74" transform="translate(289.501953 0)"/>
      <use xlink:href="#DejaVuSans-20" transform="translate(328.710938 0)"/>
      <use xlink:href="#DejaVuSans-28" transform="translate(360.498047 0)"/>
      <use xlink:href="#DejaVuSans-6d" transform="translate(399.511719 0)"/>
      <use xlink:href="#DejaVuSans-73" transform="translate(496.923828 0)"/>
      <use xlink:href="#DejaVuSans-29" transform="translate(549.023438 0)"/>
     </g>
    </g>
    <g id="text_11">
     <!-- 1e6 -->
     <g transform="translate(427.01 327.074688) scale(0.1 -0.1)">
      <defs>
       <path id="DejaVuSans-36" d="M 2113 2584 
Q 1688 2584 1439 2293 
Q 1191 2003 1191 1497 
Q 1191 994 1439 701 
Q 1688 409 2113 409 
Q 2538 409 2786 701 
Q 3034 994 3034 1497 
Q 3034 2003 2786 2293 
Q 2538 2584 2113 2584 
z
M 3366 4563 
L 3366 3988 
Q 3128 4100 2886 4159 
Q 2644 4219 2406 4219 
Q 1781 4219 1451 3797 
Q 1122 3375 1075 2522 
Q 1259 2794 1537 2939 
Q 1816 3084 2150 3084 
Q 2853 3084 3261 2657 
Q 3669 2231 3669 1497 
Q 3669 778 3244 343 
Q 2819 -91 2113 -91 
Q 1303 -91 875 529 
Q 447 1150 447 2328 
Q 447 3434 972 4092 
Q 1497 4750 2381 4750 
Q 2619 4750 2861 4703 
Q 3103 4656 3366 4563 
z
" transform="scale(0.015625)"/>
      </defs>
      <use xlink:href="#DejaVuSans-31"/>
      <use xlink:href="#DejaVuSans-65" transform="translate(63.623047 0)"/>
      <use xlink:href="#DejaVuSans-36" transform="translate(125.146484 0)"/>
     </g>
    </g>
   </g>
   <g id="matplotlib.axis_2">
    <g id="ytick_1">
     <g id="line2d_10">
      <defs>
       <path id="m9efe678290" d="M 0 0 
L -3.5 0 
" style="stroke: #000000; stroke-width: 0.8"/>
      </defs>
      <g>
       <use xlink:href="#m9efe678290" x="53.328125" y="287.185398" style="stroke: #000000; stroke-width: 0.8"/>
      </g>
     </g>
     <g id="text_12">
      <!-- 0 -->
      <g transform="translate(39.965625 290.984616) scale(0.1 -0.1)">
       <use xlink:href="#DejaVuSans-30"/>
      </g>
     </g>
    </g>
    <g id="ytick_2">
     <g id="line2d_11">
      <g>
       <use xlink:href="#m9efe678290" x="53.328125" y="246.792356" style="stroke: #000000; stroke-width: 0.8"/>
      </g>
     </g>
     <g id="text_13">
      <!-- 1000 -->
      <g transform="translate(20.878125 250.591575) scale(0.1 -0.1)">
       <use xlink:href="#DejaVuSans-31"/>
       <use xlink:href="#DejaVuSans-30" transform="translate(63.623047 0)"/>
       <use xlink:href="#DejaVuSans-30" transform="translate(127.246094 0)"/>
       <use xlink:href="#DejaVuSans-30" transform="translate(190.869141 0)"/>
      </g>
     </g>
    </g>
    <g id="ytick_3">
     <g id="line2d_12">
      <g>
       <use xlink:href="#m9efe678290" x="53.328125" y="206.399314" style="stroke: #000000; stroke-width: 0.8"/>
      </g>
     </g>
     <g id="text_14">
      <!-- 2000 -->
      <g transform="translate(20.878125 210.198533) scale(0.1 -0.1)">
       <use xlink:href="#DejaVuSans-32"/>
       <use xlink:href="#DejaVuSans-30" transform="translate(63.623047 0)"/>
       <use xlink:href="#DejaVuSans-30" transform="translate(127.246094 0)"/>
       <use xlink:href="#DejaVuSans-30" transform="translate(190.869141 0)"/>
      </g>
     </g>
    </g>
    <g id="ytick_4">
     <g id="line2d_13">
      <g>
       <use xlink:href="#m9efe678290" x="53.328125" y="166.006273" style="stroke: #000000; stroke-width: 0.8"/>
      </g>
     </g>
     <g id="text_15">
      <!-- 3000 -->
      <g transform="translate(20.878125 169.805491) scale(0.1 -0.1)">
       <defs>
        <path id="DejaVuSans-33" d="M 2597 2516 
Q 3050 2419 3304 2112 
Q 3559 1806 3559 1356 
Q 3559 666 3084 287 
Q 2609 -91 1734 -91 
Q 1441 -91 1130 -33 
Q 819 25 488 141 
L 488 750 
Q 750 597 1062 519 
Q 1375 441 1716 441 
Q 2309 441 2620 675 
Q 2931 909 2931 1356 
Q 2931 1769 2642 2001 
Q 2353 2234 1838 2234 
L 1294 2234 
L 1294 2753 
L 1863 2753 
Q 2328 2753 2575 2939 
Q 2822 3125 2822 3475 
Q 2822 3834 2567 4026 
Q 2313 4219 1838 4219 
Q 1578 4219 1281 4162 
Q 984 4106 628 3988 
L 628 4550 
Q 988 4650 1302 4700 
Q 1616 4750 1894 4750 
Q 2613 4750 3031 4423 
Q 3450 4097 3450 3541 
Q 3450 3153 3228 2886 
Q 3006 2619 2597 2516 
z
" transform="scale(0.015625)"/>
       </defs>
       <use xlink:href="#DejaVuSans-33"/>
       <use xlink:href="#DejaVuSans-30" transform="translate(63.623047 0)"/>
       <use xlink:href="#DejaVuSans-30" transform="translate(127.246094 0)"/>
       <use xlink:href="#DejaVuSans-30" transform="translate(190.869141 0)"/>
      </g>
     </g>
    </g>
    <g id="ytick_5">
     <g id="line2d_14">
      <g>
       <use xlink:href="#m9efe678290" x="53.328125" y="125.613231" style="stroke: #000000; stroke-width: 0.8"/>
      </g>
     </g>
     <g id="text_16">
      <!-- 4000 -->
      <g transform="translate(20.878125 129.41245) scale(0.1 -0.1)">
       <defs>
        <path id="DejaVuSans-34" d="M 2419 4116 
L 825 1625 
L 2419 1625 
L 2419 4116 
z
M 2253 4666 
L 3047 4666 
L 3047 1625 
L 3713 1625 
L 3713 1100 
L 3047 1100 
L 3047 0 
L 2419 0 
L 2419 1100 
L 313 1100 
L 313 1709 
L 2253 4666 
z
" transform="scale(0.015625)"/>
       </defs>
       <use xlink:href="#DejaVuSans-34"/>
       <use xlink:href="#DejaVuSans-30" transform="translate(63.623047 0)"/>
       <use xlink:href="#DejaVuSans-30" transform="translate(127.246094 0)"/>
       <use xlink:href="#DejaVuSans-30" transform="translate(190.869141 0)"/>
      </g>
     </g>
    </g>
    <g id="ytick_6">
     <g id="line2d_15">
      <g>
       <use xlink:href="#m9efe678290" x="53.328125" y="85.220189" style="stroke: #000000; stroke-width: 0.8"/>
      </g>
     </g>
     <g id="text_17">
      <!-- 5000 -->
      <g transform="translate(20.878125 89.019408) scale(0.1 -0.1)">
       <use xlink:href="#DejaVuSans-35"/>
       <use xlink:href="#DejaVuSans-30" transform="translate(63.623047 0)"/>
       <use xlink:href="#DejaVuSans-30" transform="translate(127.246094 0)"/>
       <use xlink:href="#DejaVuSans-30" transform="translate(190.869141 0)"/>
      </g>
     </g>
    </g>
    <g id="ytick_7">
     <g id="line2d_16">
      <g>
       <use xlink:href="#m9efe678290" x="53.328125" y="44.827147" style="stroke: #000000; stroke-width: 0.8"/>
      </g>
     </g>
     <g id="text_18">
      <!-- 6000 -->
      <g transform="translate(20.878125 48.626366) scale(0.1 -0.1)">
       <use xlink:href="#DejaVuSans-36"/>
       <use xlink:href="#DejaVuSans-30" transform="translate(63.623047 0)"/>
       <use xlink:href="#DejaVuSans-30" transform="translate(127.246094 0)"/>
       <use xlink:href="#DejaVuSans-30" transform="translate(190.869141 0)"/>
      </g>
     </g>
    </g>
    <g id="text_19">
     <!-- left wheel velocity, lv (-) -->
     <g transform="translate(14.798438 221.497969) rotate(-90) scale(0.1 -0.1)">
      <defs>
       <path id="DejaVuSans-6c" d="M 603 4863 
L 1178 4863 
L 1178 0 
L 603 0 
L 603 4863 
z
" transform="scale(0.015625)"/>
       <path id="DejaVuSans-66" d="M 2375 4863 
L 2375 4384 
L 1825 4384 
Q 1516 4384 1395 4259 
Q 1275 4134 1275 3809 
L 1275 3500 
L 2222 3500 
L 2222 3053 
L 1275 3053 
L 1275 0 
L 697 0 
L 697 3053 
L 147 3053 
L 147 3500 
L 697 3500 
L 697 3744 
Q 697 4328 969 4595 
Q 1241 4863 1831 4863 
L 2375 4863 
z
" transform="scale(0.015625)"/>
       <path id="DejaVuSans-77" d="M 269 3500 
L 844 3500 
L 1563 769 
L 2278 3500 
L 2956 3500 
L 3675 769 
L 4391 3500 
L 4966 3500 
L 4050 0 
L 3372 0 
L 2619 2869 
L 1863 0 
L 1184 0 
L 269 3500 
z
" transform="scale(0.015625)"/>
       <path id="DejaVuSans-68" d="M 3513 2113 
L 3513 0 
L 2938 0 
L 2938 2094 
Q 2938 2591 2744 2837 
Q 2550 3084 2163 3084 
Q 1697 3084 1428 2787 
Q 1159 2491 1159 1978 
L 1159 0 
L 581 0 
L 581 4863 
L 1159 4863 
L 1159 2956 
Q 1366 3272 1645 3428 
Q 1925 3584 2291 3584 
Q 2894 3584 3203 3211 
Q 3513 2838 3513 2113 
z
" transform="scale(0.015625)"/>
       <path id="DejaVuSans-76" d="M 191 3500 
L 800 3500 
L 1894 563 
L 2988 3500 
L 3597 3500 
L 2284 0 
L 1503 0 
L 191 3500 
z
" transform="scale(0.015625)"/>
       <path id="DejaVuSans-6f" d="M 1959 3097 
Q 1497 3097 1228 2736 
Q 959 2375 959 1747 
Q 959 1119 1226 758 
Q 1494 397 1959 397 
Q 2419 397 2687 759 
Q 2956 1122 2956 1747 
Q 2956 2369 2687 2733 
Q 2419 3097 1959 3097 
z
M 1959 3584 
Q 2709 3584 3137 3096 
Q 3566 2609 3566 1747 
Q 3566 888 3137 398 
Q 2709 -91 1959 -91 
Q 1206 -91 779 398 
Q 353 888 353 1747 
Q 353 2609 779 3096 
Q 1206 3584 1959 3584 
z
" transform="scale(0.015625)"/>
       <path id="DejaVuSans-63" d="M 3122 3366 
L 3122 2828 
Q 2878 2963 2633 3030 
Q 2388 3097 2138 3097 
Q 1578 3097 1268 2742 
Q 959 2388 959 1747 
Q 959 1106 1268 751 
Q 1578 397 2138 397 
Q 2388 397 2633 464 
Q 2878 531 3122 666 
L 3122 134 
Q 2881 22 2623 -34 
Q 2366 -91 2075 -91 
Q 1284 -91 818 406 
Q 353 903 353 1747 
Q 353 2603 823 3093 
Q 1294 3584 2113 3584 
Q 2378 3584 2631 3529 
Q 2884 3475 3122 3366 
z
" transform="scale(0.015625)"/>
       <path id="DejaVuSans-79" d="M 2059 -325 
Q 1816 -950 1584 -1140 
Q 1353 -1331 966 -1331 
L 506 -1331 
L 506 -850 
L 844 -850 
Q 1081 -850 1212 -737 
Q 1344 -625 1503 -206 
L 1606 56 
L 191 3500 
L 800 3500 
L 1894 763 
L 2988 3500 
L 3597 3500 
L 2059 -325 
z
" transform="scale(0.015625)"/>
       <path id="DejaVuSans-2d" d="M 313 2009 
L 1997 2009 
L 1997 1497 
L 313 1497 
L 313 2009 
z
" transform="scale(0.015625)"/>
      </defs>
      <use xlink:href="#DejaVuSans-6c"/>
      <use xlink:href="#DejaVuSans-65" transform="translate(27.783203 0)"/>
      <use xlink:href="#DejaVuSans-66" transform="translate(89.306641 0)"/>
      <use xlink:href="#DejaVuSans-74" transform="translate(122.761719 0)"/>
      <use xlink:href="#DejaVuSans-20" transform="translate(161.970703 0)"/>
      <use xlink:href="#DejaVuSans-77" transform="translate(193.757812 0)"/>
      <use xlink:href="#DejaVuSans-68" transform="translate(275.544922 0)"/>
      <use xlink:href="#DejaVuSans-65" transform="translate(338.923828 0)"/>
      <use xlink:href="#DejaVuSans-65" transform="translate(400.447266 0)"/>
      <use xlink:href="#DejaVuSans-6c" transform="translate(461.970703 0)"/>
      <use xlink:href="#DejaVuSans-20" transform="translate(489.753906 0)"/>
      <use xlink:href="#DejaVuSans-76" transform="translate(521.541016 0)"/>
      <use xlink:href="#DejaVuSans-65" transform="translate(580.720703 0)"/>
      <use xlink:href="#DejaVuSans-6c" transform="translate(642.244141 0)"/>
      <use xlink:href="#DejaVuSans-6f" transform="translate(670.027344 0)"/>
      <use xlink:href="#DejaVuSans-63" transform="translate(731.208984 0)"/>
      <use xlink:href="#DejaVuSans-69" transform="translate(786.189453 0)"/>
      <use xlink:href="#DejaVuSans-74" transform="translate(813.972656 0)"/>
      <use xlink:href="#DejaVuSans-79" transform="translate(853.181641 0)"/>
      <use xlink:href="#DejaVuSans-2c" transform="translate(912.361328 0)"/>
      <use xlink:href="#DejaVuSans-20" transform="translate(944.148438 0)"/>
      <use xlink:href="#DejaVuSans-6c" transform="translate(975.935547 0)"/>
      <use xlink:href="#DejaVuSans-76" transform="translate(1003.71875 0)"/>
      <use xlink:href="#DejaVuSans-20" transform="translate(1062.898438 0)"/>
      <use xlink:href="#DejaVuSans-28" transform="translate(1094.685547 0)"/>
      <use xlink:href="#DejaVuSans-2d" transform="translate(1133.699219 0)"/>
      <use xlink:href="#DejaVuSans-29" transform="translate(1169.783203 0)"/>
     </g>
    </g>
   </g>
   <g id="line2d_17">
    <path d="M 71.187112 287.185398 
L 74.716001 285.165746 
L 78.295939 283.186487 
L 81.945135 283.267273 
L 85.534534 279.187575 
L 89.215323 277.410282 
L 92.865947 279.308755 
L 96.514429 277.329496 
L 99.453027 277.410282 
L 103.101152 277.329496 
L 106.829421 275.592595 
L 110.477903 277.329496 
L 114.127991 277.329496 
L 117.866257 275.632988 
L 121.532766 277.369889 
L 124.491178 275.027092 
L 128.156795 275.39063 
L 131.820271 277.369889 
L 135.564427 275.632988 
L 139.228081 275.39063 
L 142.972058 277.571854 
L 146.637319 275.39063 
L 149.518798 274.703948 
L 153.277591 275.673381 
L 156.959451 275.471416 
L 160.717887 275.713774 
L 164.399569 275.471416 
L 167.293722 274.744341 
L 171.053407 275.713774 
L 174.73259 275.431023 
L 178.492632 275.713774 
L 182.171816 275.431023 
L 185.852962 275.471416 
L 188.820477 275.067485 
L 192.501267 275.431023 
L 196.258988 273.774908 
L 199.939778 275.471416 
L 203.618961 275.431023 
L 206.588261 275.067485 
L 210.267444 273.492157 
L 214.026951 275.713774 
L 217.705956 275.431023 
L 221.386924 273.492157 
L 225.140005 275.673381 
L 228.035942 274.744341 
L 231.793664 273.774908 
L 235.474454 275.471416 
L 239.153637 273.492157 
L 242.907967 275.673381 
L 246.586972 273.492157 
L 249.56127 275.067485 
L 253.240453 275.431023 
L 256.953372 273.613336 
L 260.737154 273.855694 
L 263.664329 277.369889 
L 267.453645 273.896087 
L 271.166921 273.613336 
L 274.877876 273.613336 
L 278.663444 275.79456 
L 281.588833 274.905913 
L 285.379755 273.896087 
L 289.09089 275.552202 
L 292.803273 273.613336 
L 295.802382 275.188664 
L 299.516194 273.613336 
L 303.305331 273.896087 
L 307.017893 275.552202 
L 310.728492 273.613336 
L 313.729207 275.188664 
L 317.440698 273.613336 
L 321.231799 273.896087 
L 324.943111 273.613336 
L 328.656031 275.552202 
L 331.655318 272.765082 
L 335.368059 273.613336 
L 339.158624 275.79456 
L 342.872078 271.67447 
L 345.798182 274.905913 
L 349.591068 273.896087 
L 353.302916 275.552202 
L 357.094731 273.896087 
L 360.806222 273.613336 
L 363.734289 274.905913 
L 367.524854 273.896087 
L 371.237952 273.613336 
L 375.028339 273.896087 
L 377.956227 272.441938 
L 381.668254 273.613336 
L 385.461318 275.79456 
L 389.189945 273.653729 
L 392.213151 272.886261 
L 395.941956 273.653729 
L 399.671475 273.653729 
L 403.472394 273.93648 
L 407.201734 273.653729 
L 410.222977 275.26945 
L 413.952139 273.653729 
L 417.679695 273.653729 
L 421.482398 273.93648 
L 424.42421 272.522724 
" clip-path="url(#p2bd381e626)" style="fill: none; stroke: #1f77b4; stroke-width: 1.5; stroke-linecap: square"/>
   </g>
   <g id="line2d_18">
    <path d="M 71.189076 287.185398 
L 74.725639 279.066396 
L 78.396612 267.554379 
L 82.017248 261.333851 
L 85.635385 257.294547 
L 88.560239 255.153716 
L 92.192834 253.457208 
L 95.953412 252.68974 
L 99.632417 251.922272 
L 103.331413 250.185372 
L 106.314279 250.952839 
L 110.01149 252.083844 
L 113.786169 250.912446 
L 117.483737 250.144978 
L 121.178985 250.144978 
L 124.164171 250.993232 
L 127.859419 250.144978 
L 131.634812 250.912446 
L 135.329882 250.144978 
L 139.026736 250.144978 
L 142.009423 248.529257 
L 145.706813 250.144978 
L 149.480242 250.912446 
L 153.177097 250.144978 
L 156.872345 250.144978 
L 159.857352 250.993232 
L 163.552422 248.165719 
L 167.328172 250.912446 
L 171.023241 250.144978 
L 174.720631 250.144978 
L 177.703497 250.952839 
L 181.400886 250.144978 
L 185.174494 250.912446 
L 188.87117 250.144978 
L 192.566418 250.144978 
L 195.551247 248.56965 
L 199.24596 250.104585 
L 203.021888 250.912446 
L 206.716601 252.083844 
L 210.413812 250.144978 
L 214.1826 250.872053 
L 217.112096 250.306551 
L 220.901054 251.033625 
L 224.613438 250.306551 
L 228.324037 250.266158 
L 231.325644 251.195198 
L 235.035886 250.266158 
L 238.827344 251.074018 
L 242.537764 250.306551 
L 246.249969 250.306551 
L 249.248186 251.154805 
L 252.960212 250.306551 
L 256.780943 249.458297 
L 260.525278 250.629695 
L 263.481548 250.629695 
L 267.304421 251.35677 
L 271.045899 250.589302 
L 274.868237 249.458297 
L 277.840572 250.83166 
L 281.600792 250.750874 
L 285.431698 251.437556 
L 288.406532 250.872053 
L 292.242435 249.619869 
L 296.001763 250.750874 
L 299.75895 250.750874 
L 302.806074 251.720307 
L 306.562904 250.750874 
L 310.400414 249.619869 
L 313.372034 250.83166 
L 317.131184 250.750874 
L 320.966909 251.477949 
L 324.72588 250.750874 
L 327.776218 249.377511 
L 331.535368 250.750874 
L 335.292019 250.750874 
L 339.124888 249.579476 
L 342.09633 250.83166 
L 345.934197 251.518342 
L 349.691562 250.750874 
L 352.666217 250.872053 
L 356.501585 249.579476 
L 360.260556 250.750874 
L 364.09646 251.477949 
L 367.0704 248.448471 
L 370.827051 250.750874 
L 374.659206 251.437556 
L 377.630827 250.83166 
L 381.468694 251.518342 
L 385.225702 248.812008 
L 388.984673 250.750874 
L 392.029656 251.679914 
L 395.789341 250.750874 
L 399.624888 251.477949 
L 403.383502 248.852401 
L 406.355122 250.83166 
L 410.192989 251.477949 
L 413.950354 250.750874 
L 417.002655 251.7607 
L 420.759128 248.812008 
L 424.518099 250.750874 
" clip-path="url(#p2bd381e626)" style="fill: none; stroke: #ff7f0e; stroke-width: 1.5; stroke-linecap: square"/>
   </g>
   <g id="line2d_19">
    <path d="M 71.172118 287.185398 
L 74.72082 270.947395 
L 78.372158 249.700655 
L 81.324322 238.35021 
L 85.006896 232.37204 
L 88.765154 225.828367 
L 92.44755 222.596924 
L 96.159398 221.142775 
L 99.161541 217.588187 
L 102.872497 219.203909 
L 106.665561 216.861112 
L 110.376695 215.326177 
L 114.091578 217.345829 
L 117.090865 215.083818 
L 120.805212 217.305436 
L 124.595242 214.922246 
L 128.309767 215.406963 
L 132.02108 217.265043 
L 135.023045 215.164604 
L 138.734358 215.326177 
L 142.5276 216.861112 
L 146.238556 215.326177 
L 149.167337 215.810893 
L 152.957545 214.881853 
L 156.671535 217.305436 
L 160.461744 214.922246 
L 163.406054 213.750848 
L 167.132717 217.547794 
L 170.941311 215.24539 
L 174.683682 215.932072 
L 177.72206 216.012858 
L 181.464074 215.891679 
L 185.209123 214.033599 
L 189.024499 217.265043 
L 191.983803 214.154778 
L 195.804178 215.487749 
L 199.549226 215.972465 
L 203.29124 215.932072 
L 206.324085 215.891679 
L 210.066456 215.891679 
L 213.889865 215.528142 
L 217.632415 215.932072 
L 220.592254 214.154778 
L 224.413521 215.487749 
L 228.15857 215.972465 
L 231.980194 215.487749 
L 234.939855 216.578361 
L 238.682404 213.993206 
L 242.500815 215.447356 
L 246.242651 215.932072 
L 249.280672 216.012858 
L 253.023222 213.993206 
L 256.798972 216.537968 
L 259.860019 214.195171 
L 263.636305 214.639495 
L 267.488451 216.053251 
L 271.264915 214.639495 
L 274.252422 217.265043 
L 278.106889 214.235564 
L 281.880676 216.537968 
L 284.949934 214.397137 
L 288.723721 216.497575 
L 292.499828 216.537968 
L 295.561232 216.578361 
L 299.337696 216.537968 
L 303.189665 216.053251 
L 306.965236 214.639495 
L 309.952922 217.265043 
L 313.807389 214.235564 
L 317.58064 216.497575 
L 320.650077 214.397137 
L 324.423506 216.497575 
L 328.199613 214.639495 
L 331.261018 216.578361 
L 335.037125 216.537968 
L 338.894984 216.17443 
L 342.671448 216.578361 
L 345.659311 214.84146 
L 349.514136 216.134037 
L 353.287565 214.599102 
L 356.35718 214.397137 
L 360.130432 216.497575 
L 363.906003 214.639495 
L 366.972406 216.69954 
L 370.748156 214.639495 
L 374.600838 216.093644 
L 377.5912 214.922246 
L 381.36463 216.497575 
L 385.219276 216.134037 
L 388.992348 216.497575 
L 392.061607 214.397137 
L 395.835215 216.497575 
L 399.611322 216.578361 
L 402.672726 216.578361 
L 406.448655 214.639495 
L 410.301337 216.093644 
L 413.292414 214.922246 
L 417.065665 216.497575 
L 420.920311 216.134037 
L 424.693562 214.599102 
L 427.763356 216.739933 
" clip-path="url(#p2bd381e626)" style="fill: none; stroke: #2ca02c; stroke-width: 1.5; stroke-linecap: square"/>
   </g>
   <g id="line2d_20">
    <path d="M 71.172118 287.185398 
L 74.737599 264.969225 
L 78.389829 235.886235 
L 82.144338 218.072903 
L 85.04206 207.611106 
L 88.802281 200.905861 
L 92.48557 195.210442 
L 96.198132 193.998651 
L 99.986019 190.120919 
L 102.912659 188.707162 
L 106.705901 188.343625 
L 110.418463 188.182053 
L 114.133703 186.28358 
L 117.133526 186.28358 
L 120.84823 186.243187 
L 124.639688 186.404759 
L 128.354392 186.28358 
L 132.067132 186.243187 
L 135.069811 186.364366 
L 138.782552 186.202793 
L 142.591859 184.991002 
L 146.335837 185.152574 
L 149.295676 187.374192 
L 153.117657 185.314147 
L 156.863598 185.192967 
L 160.686115 185.35454 
L 163.646133 184.950609 
L 167.389932 187.051047 
L 171.209235 185.273754 
L 174.953034 185.152574 
L 177.991769 185.192967 
L 181.735747 185.112181 
L 185.481688 185.192967 
L 189.299206 185.192967 
L 192.259046 184.950609 
L 196.081919 185.314147 
L 199.828217 185.192967 
L 203.572195 185.152574 
L 206.605575 185.031395 
L 210.349017 185.112181 
L 214.173319 183.49646 
L 217.131195 187.293406 
L 220.8766 185.152574 
L 224.698403 183.456067 
L 228.444165 185.192967 
L 231.48058 182.728992 
L 235.226343 185.152574 
L 238.969963 183.213708 
L 242.788909 185.273754 
L 245.746964 184.869823 
L 249.571265 185.35454 
L 253.314886 183.213708 
L 257.091885 184.102355 
L 260.153825 183.617639 
L 263.930825 186.041221 
L 267.783864 186.1624 
L 270.774584 183.577246 
L 274.549441 185.960435 
L 278.399982 184.223534 
L 281.389095 183.49646 
L 285.244455 184.304321 
L 289.018955 184.061962 
L 292.795955 186.041221 
L 295.858073 185.960435 
L 299.634894 184.102355 
L 303.488112 184.263927 
L 306.47901 186.000828 
L 310.253689 184.021569 
L 314.103873 186.081614 
L 317.092629 185.920042 
L 320.947631 184.304321 
L 324.721775 184.061962 
L 328.498239 184.102355 
L 331.559822 183.617639 
L 335.336286 186.000828 
L 339.189147 184.263927 
L 342.17951 183.577246 
L 345.953653 184.021569 
L 349.803658 186.081614 
L 352.792236 185.920042 
L 356.647417 184.304321 
L 360.42156 185.960435 
L 364.198024 184.102355 
L 367.259786 183.617639 
L 371.03625 186.000828 
L 374.889468 184.263927 
L 377.879652 185.960435 
L 381.653438 184.021569 
L 385.503622 186.081614 
L 388.492021 185.920042 
L 392.346845 184.304321 
L 396.12081 185.960435 
L 399.896917 186.000828 
L 402.958322 183.617639 
L 406.734429 186.000828 
L 410.587111 184.263927 
L 413.577652 186.000828 
L 417.351617 185.920042 
L 421.201265 184.183141 
L 424.189843 185.920042 
L 428.044489 184.304321 
" clip-path="url(#p2bd381e626)" style="fill: none; stroke: #d62728; stroke-width: 1.5; stroke-linecap: square"/>
   </g>
   <g id="line2d_21">
    <path d="M 71.17194 287.185398 
L 74.739384 260.929921 
L 78.468725 221.465919 
L 82.1488 199.047781 
L 85.830839 185.394933 
L 88.79889 175.498637 
L 92.481286 171.661298 
L 96.271672 165.44077 
L 99.985484 162.976794 
L 103.697511 162.896008 
L 106.69894 162.290113 
L 110.409896 158.977883 
L 114.202603 157.927664 
L 117.913915 159.018276 
L 120.842518 159.220242 
L 124.632726 157.806485 
L 128.362246 159.624172 
L 132.183869 158.897097 
L 135.143352 158.129629 
L 138.88608 160.028102 
L 142.704848 156.917838 
L 146.447576 158.129629 
L 149.485776 156.715873 
L 153.229039 158.129629 
L 156.974266 156.311943 
L 160.790892 158.735525 
L 163.750018 158.129629 
L 167.571642 156.998624 
L 171.316333 158.210416 
L 175.058883 156.190763 
L 178.091728 158.856704 
L 181.834277 156.190763 
L 185.658043 157.119803 
L 188.615384 158.048843 
L 192.360789 158.210416 
L 196.182235 158.897097 
L 199.927462 158.250809 
L 202.963341 158.977883 
L 206.708747 158.210416 
L 210.451832 158.129629 
L 214.270421 158.816311 
L 217.22794 155.625261 
L 221.051527 157.039017 
L 224.794434 158.170023 
L 228.539126 156.27155 
L 231.56965 158.735525 
L 235.315056 158.210416 
L 239.136679 156.998624 
L 242.881728 156.311943 
L 245.838712 158.048843 
L 249.662656 157.039017 
L 253.436442 157.281376 
L 256.506058 158.048843 
L 260.280201 157.281376 
L 264.056308 157.362162 
L 267.903993 156.029191 
L 270.894712 159.502993 
L 274.747395 156.15037 
L 278.52368 157.402555 
L 281.512258 156.958231 
L 285.366904 158.089236 
L 289.14069 157.281376 
L 292.209949 158.048843 
L 295.983735 157.281376 
L 299.760021 157.362162 
L 303.607348 155.988798 
L 306.598068 159.4626 
L 310.450572 156.15037 
L 314.227036 157.402555 
L 317.215435 156.958231 
L 321.070794 158.129629 
L 324.844938 157.281376 
L 327.914553 158.048843 
L 331.688697 159.179849 
L 335.465518 157.402555 
L 339.313024 157.887271 
L 342.303744 157.07941 
L 346.156426 158.048843 
L 349.93289 157.402555 
L 352.921111 156.958231 
L 356.77647 158.129629 
L 360.550435 159.220242 
L 363.619872 158.048843 
L 367.394016 157.281376 
L 371.170658 157.402555 
L 374.232598 157.725699 
L 378.010312 157.402555 
L 381.863351 156.231157 
L 385.639994 157.402555 
L 388.62875 156.958231 
L 392.484288 158.129629 
L 396.258432 157.321769 
L 399.32769 155.665654 
L 403.102191 157.281376 
L 406.878833 157.402555 
L 409.941487 157.725699 
L 413.718308 157.362162 
L 417.571169 158.089236 
L 421.348168 155.504082 
L 424.337281 156.998624 
" clip-path="url(#p2bd381e626)" style="fill: none; stroke: #9467bd; stroke-width: 1.5; stroke-linecap: square"/>
   </g>
   <g id="line2d_22">
    <path d="M 71.171761 287.185398 
L 74.736528 254.830571 
L 78.387508 210.19626 
L 81.355559 182.769385 
L 85.037419 167.743173 
L 88.796034 154.8174 
L 92.478073 146.213682 
L 96.189385 141.487696 
L 99.190815 135.913457 
L 102.902127 137.569571 
L 106.694656 135.105596 
L 110.406147 133.772625 
L 114.119959 131.874152 
L 117.119246 133.409088 
L 120.864295 131.227864 
L 124.68574 130.581575 
L 128.430253 129.329391 
L 131.387415 128.763888 
L 135.210467 130.621968 
L 138.953017 129.248605 
L 142.776425 128.804281 
L 145.73323 131.227864 
L 149.477744 127.350132 
L 153.293834 128.481137 
L 157.038525 129.329391 
L 160.074405 128.117599 
L 163.818918 127.390525 
L 167.561467 129.208212 
L 170.594491 127.956027 
L 174.337219 127.309739 
L 178.160628 128.804281 
L 181.903177 129.248605 
L 185.647512 127.390525 
L 188.677858 127.794455 
L 192.422371 129.288998 
L 196.243102 128.683102 
L 199.202585 126.461485 
L 202.944956 129.167819 
L 206.768008 128.804281 
L 210.510557 127.309739 
L 213.548579 128.238779 
L 217.291307 129.208212 
L 221.03582 127.390525 
L 224.851553 128.481137 
L 227.811214 128.92546 
L 231.63266 128.683102 
L 235.376994 127.390525 
L 239.119365 129.208212 
L 242.151675 127.915634 
L 245.894224 127.269346 
L 249.717276 128.763888 
L 252.705318 127.99642 
L 256.48089 128.642709 
L 260.332323 128.077206 
L 264.108251 128.723495 
L 267.175189 129.733321 
L 270.950582 128.683102 
L 274.724012 128.602316 
L 277.787558 127.18856 
L 281.560809 128.602316 
L 285.415633 128.198386 
L 288.403676 130.420003 
L 292.179247 128.642709 
L 296.030858 128.077206 
L 299.806073 128.723495 
L 302.873189 127.350132 
L 306.648047 128.642709 
L 310.421477 128.602316 
L 313.485023 127.18856 
L 317.258631 128.602316 
L 321.113098 128.198386 
L 324.101319 128.036813 
L 327.876891 128.642709 
L 331.729037 128.117599 
L 335.504787 128.723495 
L 338.572439 127.390525 
L 342.347832 128.683102 
L 346.121262 128.602316 
L 349.184987 129.571749 
L 352.958416 128.602316 
L 356.812705 128.157993 
L 359.800747 127.99642 
L 363.576319 128.642709 
L 367.428109 128.117599 
L 371.203859 128.723495 
L 374.270975 127.390525 
L 378.046368 128.683102 
L 381.819798 128.642709 
L 384.883166 127.18856 
L 388.656774 128.602316 
L 392.51142 128.198386 
L 395.49964 128.036813 
L 399.275569 128.642709 
L 403.127537 128.117599 
L 406.903466 128.723495 
L 409.970582 127.390525 
L 413.745975 128.683102 
L 417.519583 126.703843 
L 420.583308 127.18856 
L 424.357095 128.602316 
" clip-path="url(#p2bd381e626)" style="fill: none; stroke: #8c564b; stroke-width: 1.5; stroke-linecap: square"/>
   </g>
   <g id="line2d_23">
    <path d="M 71.17194 287.185398 
L 73.951676 256.082756 
L 77.602478 210.155867 
L 81.360378 172.065229 
L 85.041882 150.131807 
L 88.799247 133.691839 
L 92.481286 124.684191 
L 95.406497 117.211478 
L 99.198847 112.243134 
L 102.909624 110.385054 
L 106.701617 106.547715 
L 109.627543 107.355576 
L 113.341176 104.649242 
L 117.161371 106.022606 
L 120.906599 102.427625 
L 123.941942 104.326098 
L 127.686991 102.346839 
L 131.429005 104.164526 
L 135.247237 104.043347 
L 138.203686 104.366491 
L 142.026916 106.103392 
L 145.769108 104.164526 
L 149.5138 104.285705 
L 152.543432 106.386143 
L 156.288302 106.184178 
L 160.109569 104.164526 
L 163.854082 106.224571 
L 166.81053 104.366491 
L 170.634296 104.245312 
L 174.377559 106.184178 
L 177.415938 106.87086 
L 181.158487 104.164526 
L 184.90425 106.264964 
L 188.720162 105.780247 
L 191.68018 107.032432 
L 195.501268 106.022606 
L 199.246495 104.326098 
L 202.989045 106.103392 
L 206.021711 104.204919 
L 209.763904 106.062999 
L 213.587848 106.224571 
L 217.330398 104.204919 
L 220.290594 104.568456 
L 224.111326 104.124133 
L 227.856731 106.264964 
L 231.677998 106.062999 
L 234.638908 107.072825 
L 238.381458 104.124133 
L 242.200226 105.94182 
L 245.942954 106.143785 
L 248.981511 104.528063 
L 252.723703 108.001865 
L 256.500167 105.82064 
L 259.561215 105.861034 
L 263.337322 105.780247 
L 267.189469 107.517148 
L 270.965754 105.82064 
L 273.953082 108.648153 
L 277.808442 107.638327 
L 281.58205 105.699461 
L 284.651487 106.386143 
L 288.425274 107.597934 
L 292.201916 105.82064 
L 295.263142 105.861034 
L 299.039785 105.82064 
L 302.892289 107.517148 
L 306.668931 107.759506 
L 309.656438 103.841381 
L 313.511619 107.597934 
L 317.285049 105.699461 
L 320.354664 106.386143 
L 324.128272 105.659068 
L 327.904379 105.82064 
L 330.965427 105.861034 
L 334.742069 105.82064 
L 338.594394 105.659068 
L 342.371037 103.922168 
L 345.358544 103.841381 
L 349.213546 103.881774 
L 352.987154 103.800988 
L 356.05677 104.043347 
L 359.830199 103.760595 
L 363.60702 103.922168 
L 366.667889 105.861034 
L 370.444175 105.82064 
L 374.296143 103.760595 
L 378.072072 105.82064 
L 381.059578 106.264964 
L 384.914403 103.841381 
L 388.687654 103.800988 
L 391.757091 104.002954 
L 395.531056 105.699461 
L 399.307341 105.82064 
L 402.368389 103.518237 
L 406.144496 105.780247 
L 409.996821 105.659068 
L 413.773107 105.82064 
L 416.760792 106.264964 
L 420.615795 105.739854 
L 424.388689 105.659068 
L 427.457947 106.34575 
" clip-path="url(#p2bd381e626)" style="fill: none; stroke: #e377c2; stroke-width: 1.5; stroke-linecap: square"/>
   </g>
   <g id="line2d_24">
    <path d="M 71.172297 287.185398 
L 74.735457 246.71157 
L 78.401074 190.847993 
L 82.153084 150.737703 
L 85.834409 126.623057 
L 88.806743 112.566278 
L 92.487712 101.135048 
L 96.197775 92.854474 
L 99.989054 89.421066 
L 103.698939 83.160144 
L 106.705544 83.402502 
L 110.446487 80.97892 
L 114.190465 79.242019 
L 118.004949 79.282412 
L 120.963896 80.171059 
L 124.783735 77.626297 
L 128.527712 79.242019 
L 132.269013 79.080447 
L 135.301322 78.030228 
L 139.042622 79.040054 
L 142.865674 77.828263 
L 146.607509 79.12084 
L 149.566457 77.707083 
L 153.386652 79.52477 
L 157.13063 79.242019 
L 160.950647 79.565163 
L 163.909416 77.707083 
L 167.650181 78.999661 
L 171.468056 79.443984 
L 175.209178 79.080447 
L 178.246663 80.736562 
L 181.988499 79.080447 
L 185.732655 79.242019 
L 188.76193 77.78787 
L 192.505908 79.201626 
L 196.325925 77.707083 
L 200.070438 79.282412 
L 203.026886 79.969094 
L 206.849938 77.828263 
L 210.591059 77.141581 
L 214.414111 79.726736 
L 217.370559 77.545511 
L 221.114894 79.201626 
L 224.93509 77.707083 
L 228.679603 79.282412 
L 231.71459 80.574989 
L 235.459281 79.242019 
L 239.200938 79.12084 
L 243.018814 81.342457 
L 245.974905 79.969094 
L 249.798314 79.686342 
L 253.570851 78.878482 
L 256.561035 79.928701 
L 260.412468 79.322805 
L 264.188218 79.080447 
L 268.039294 79.363198 
L 271.029299 79.928701 
L 274.802015 78.838089 
L 278.650235 79.242019 
L 281.637741 82.150318 
L 285.491673 79.484377 
L 289.263853 78.878482 
L 293.040139 79.12084 
L 296.101722 77.66669 
L 299.877115 78.999661 
L 303.728726 79.403591 
L 306.71891 79.928701 
L 310.491626 78.838089 
L 314.340381 79.242019 
L 317.327888 77.303153 
L 321.182355 79.52477 
L 324.954535 78.878482 
L 328.730107 79.040054 
L 331.790619 79.928701 
L 335.566012 77.101188 
L 339.417623 79.403591 
L 342.407272 79.888308 
L 346.179987 80.736562 
L 350.028386 79.242019 
L 353.015714 82.109925 
L 356.869646 79.484377 
L 360.642718 78.918875 
L 364.417754 79.040054 
L 367.478266 77.585904 
L 371.253659 80.938527 
L 375.105271 79.403591 
L 378.095098 77.505118 
L 381.867457 78.838089 
L 385.716033 79.242019 
L 388.703183 79.686342 
L 392.557293 79.52477 
L 396.330009 80.817348 
L 400.10558 77.141581 
L 403.166271 79.928701 
L 406.941843 79.040054 
L 410.792918 79.363198 
L 413.783281 79.928701 
L 417.555818 76.939616 
L 421.420103 80.090273 
L 424.423496 78.434158 
" clip-path="url(#p2bd381e626)" style="fill: none; stroke: #7f7f7f; stroke-width: 1.5; stroke-linecap: square"/>
   </g>
   <g id="line2d_25">
    <path d="M 71.172118 287.185398 
L 74.736171 242.672266 
L 78.417139 181.436415 
L 82.169684 139.225686 
L 85.0658 112.970209 
L 88.823701 95.278057 
L 92.505204 81.584815 
L 96.216338 73.506207 
L 100.00262 66.316246 
L 102.928366 63.004016 
L 106.735532 59.893752 
L 110.477724 57.954886 
L 114.221345 56.096806 
L 117.250799 54.036761 
L 120.994955 54.15794 
L 124.81515 55.046587 
L 128.559306 54.198333 
L 131.515933 53.188507 
L 135.338449 55.127373 
L 139.080464 56.01602 
L 142.903872 55.248552 
L 145.861391 53.269293 
L 149.605904 54.15794 
L 153.421459 54.723443 
L 157.165437 56.137199 
L 160.200602 56.823881 
L 163.944758 56.096806 
L 167.686951 54.077154 
L 170.719082 54.238726 
L 174.460918 53.996368 
L 178.283434 55.208159 
L 182.025091 54.077154 
L 185.770139 56.177592 
L 188.800842 54.117547 
L 192.544998 54.15794 
L 196.365194 53.188507 
L 199.323963 55.773662 
L 203.065798 53.996368 
L 206.888136 53.309686 
L 210.629972 54.077154 
L 213.667636 57.025846 
L 217.409293 55.935234 
L 221.153271 54.198333 
L 224.968469 54.723443 
L 227.92688 55.773662 
L 231.746898 54.965801 
L 235.490697 56.096806 
L 239.232175 55.975627 
L 242.264128 54.198333 
L 246.005606 55.894841 
L 249.828123 53.309686 
L 252.815629 53.188507 
L 256.590665 54.117547 
L 260.441563 53.148114 
L 264.216063 56.096806 
L 267.282287 56.823881 
L 271.057323 56.056413 
L 274.829682 55.935234 
L 277.892871 54.238726 
L 281.665408 55.894841 
L 285.518805 55.167766 
L 289.290985 54.036761 
L 292.280633 55.773662 
L 296.131174 54.965801 
L 299.905496 54.15794 
L 302.971541 54.440691 
L 306.74622 56.01602 
L 310.518222 53.996368 
L 313.581233 54.238726 
L 317.353949 55.935234 
L 321.207166 55.167766 
L 324.979525 55.975627 
L 327.968995 55.733269 
L 331.819892 54.965801 
L 335.594571 56.096806 
L 338.660438 56.783488 
L 342.435296 54.15794 
L 346.207476 55.935234 
L 349.269773 56.54113 
L 353.04231 53.996368 
L 356.895349 55.167766 
L 360.667886 55.935234 
L 363.657357 55.773662 
L 367.508254 54.965801 
L 371.283111 56.096806 
L 374.349157 54.440691 
L 378.123657 54.117547 
L 381.896552 55.935234 
L 384.959206 54.198333 
L 388.747093 56.864274 
L 392.616376 56.096806 
L 395.634227 53.148114 
L 399.439251 55.975627 
L 403.315673 54.68305 
L 406.335309 55.692876 
L 410.216908 56.823881 
L 414.022289 54.15794 
L 417.039961 55.531304 
L 420.923881 56.94506 
L 424.727298 55.935234 
L 427.826544 54.642657 
" clip-path="url(#p2bd381e626)" style="fill: none; stroke: #bcbd22; stroke-width: 1.5; stroke-linecap: square"/>
   </g>
   <g id="line2d_26">
    <path d="M 71.189076 287.185398 
L 74.725104 240.329469 
L 78.459264 173.27702 
L 82.111316 125.33048 
L 85.00761 100.529152 
L 88.768188 80.090273 
L 92.447014 61.873011 
L 96.239186 51.411213 
L 99.949963 46.281297 
L 102.877495 43.413391 
L 106.667882 43.655749 
L 110.381336 40.626271 
L 114.202424 38.121903 
L 117.162621 36.425395 
L 120.905706 38.647012 
L 124.728936 38.283475 
L 128.47095 36.748539 
L 131.508079 35.617534 
L 135.249379 36.62736 
L 138.993357 36.829325 
L 142.808198 35.819499 
L 145.768216 36.385002 
L 149.588055 36.10225 
L 153.331854 34.930852 
L 157.074046 38.647012 
L 160.10582 37.5564 
L 163.847477 38.566226 
L 167.669994 38.202689 
L 171.411472 40.545485 
L 174.371133 41.232167 
L 178.191865 39.899196 
L 181.935307 38.768191 
L 184.970472 40.222341 
L 188.713914 40.626271 
L 192.455214 40.545485 
L 196.272376 39.737624 
L 199.228645 40.949415 
L 203.051519 40.060769 
L 206.792997 40.545485 
L 210.537153 40.707057 
L 213.566964 42.120814 
L 217.310941 42.60553 
L 221.131316 41.878455 
L 224.875293 42.645923 
L 227.831741 40.949415 
L 231.654436 41.959242 
L 235.39645 42.524744 
L 239.219145 41.999635 
L 242.175593 40.989809 
L 245.919035 42.565137 
L 249.734055 41.474525 
L 253.509626 40.868629 
L 256.575493 40.303127 
L 260.351422 40.868629 
L 264.12378 42.565137 
L 267.187148 42.484351 
L 270.959685 40.626271 
L 274.813617 40.222341 
L 277.801302 41.110988 
L 281.57616 40.74745 
L 285.422238 39.737624 
L 289.196917 40.828236 
L 292.263141 40.34352 
L 296.038355 40.787843 
L 299.811428 40.707057 
L 302.87426 40.101162 
L 306.646976 42.565137 
L 310.500551 42.080421 
L 313.488236 38.727798 
L 317.262736 42.645923 
L 321.113991 40.101162 
L 324.889205 40.868629 
L 327.955251 40.303127 
L 331.72993 40.74745 
L 335.502824 40.707057 
L 338.566906 40.181948 
L 342.339621 40.626271 
L 346.193553 42.120814 
L 349.18106 41.110988 
L 352.955739 40.74745 
L 356.807172 41.959242 
L 360.581851 40.828236 
L 363.648075 42.686316 
L 367.422575 40.74745 
L 371.195291 40.666664 
L 374.274724 41.434132 
L 378.062968 39.737624 
L 381.932072 41.191774 
L 384.951352 41.312953 
L 388.75816 40.949415 
L 392.635475 39.858803 
L 395.656004 41.434132 
L 399.538495 40.141555 
L 403.344054 40.949415 
L 406.362441 41.232167 
L 410.247074 40.262734 
L 414.050848 40.828236 
L 417.149916 40.666664 
L 420.953333 40.707057 
L 424.758713 40.909022 
L 427.850462 42.403565 
" clip-path="url(#p2bd381e626)" style="fill: none; stroke: #17becf; stroke-width: 1.5; stroke-linecap: square"/>
   </g>
   <g id="patch_3">
    <path d="M 53.328125 299.798125 
L 53.328125 22.318125 
" style="fill: none; stroke: #000000; stroke-width: 0.8; stroke-linejoin: miter; stroke-linecap: square"/>
   </g>
   <g id="patch_4">
    <path d="M 445.888125 299.798125 
L 445.888125 22.318125 
" style="fill: none; stroke: #000000; stroke-width: 0.8; stroke-linejoin: miter; stroke-linecap: square"/>
   </g>
   <g id="patch_5">
    <path d="M 53.328125 299.798125 
L 445.888125 299.798125 
" style="fill: none; stroke: #000000; stroke-width: 0.8; stroke-linejoin: miter; stroke-linecap: square"/>
   </g>
   <g id="patch_6">
    <path d="M 53.328125 22.318125 
L 445.888125 22.318125 
" style="fill: none; stroke: #000000; stroke-width: 0.8; stroke-linejoin: miter; stroke-linecap: square"/>
   </g>
   <g id="text_20">
    <!-- left velocity vs. time -->
    <g transform="translate(188.579688 16.318125) scale(0.12 -0.12)">
     <use xlink:href="#DejaVuSans-6c"/>
     <use xlink:href="#DejaVuSans-65" transform="translate(27.783203 0)"/>
     <use xlink:href="#DejaVuSans-66" transform="translate(89.306641 0)"/>
     <use xlink:href="#DejaVuSans-74" transform="translate(122.761719 0)"/>
     <use xlink:href="#DejaVuSans-20" transform="translate(161.970703 0)"/>
     <use xlink:href="#DejaVuSans-76" transform="translate(193.757812 0)"/>
     <use xlink:href="#DejaVuSans-65" transform="translate(252.9375 0)"/>
     <use xlink:href="#DejaVuSans-6c" transform="translate(314.460938 0)"/>
     <use xlink:href="#DejaVuSans-6f" transform="translate(342.244141 0)"/>
     <use xlink:href="#DejaVuSans-63" transform="translate(403.425781 0)"/>
     <use xlink:href="#DejaVuSans-69" transform="translate(458.40625 0)"/>
     <use xlink:href="#DejaVuSans-74" transform="translate(486.189453 0)"/>
     <use xlink:href="#DejaVuSans-79" transform="translate(525.398438 0)"/>
     <use xlink:href="#DejaVuSans-20" transform="translate(584.578125 0)"/>
     <use xlink:href="#DejaVuSans-76" transform="translate(616.365234 0)"/>
     <use xlink:href="#DejaVuSans-73" transform="translate(675.544922 0)"/>
     <use xlink:href="#DejaVuSans-2e" transform="translate(727.644531 0)"/>
     <use xlink:href="#DejaVuSans-20" transform="translate(759.431641 0)"/>
     <use xlink:href="#DejaVuSans-74" transform="translate(791.21875 0)"/>
     <use xlink:href="#DejaVuSans-69" transform="translate(830.427734 0)"/>
     <use xlink:href="#DejaVuSans-6d" transform="translate(858.210938 0)"/>
     <use xlink:href="#DejaVuSans-65" transform="translate(955.623047 0)"/>
    </g>
   </g>
   <g id="legend_1">
    <g id="patch_7">
     <path d="M 345.720937 294.798125 
L 438.888125 294.798125 
Q 440.888125 294.798125 440.888125 292.798125 
L 440.888125 147.016875 
Q 440.888125 145.016875 438.888125 145.016875 
L 345.720937 145.016875 
Q 343.720937 145.016875 343.720937 147.016875 
L 343.720937 292.798125 
Q 343.720937 294.798125 345.720937 294.798125 
z
" style="fill: #ffffff; opacity: 0.8; stroke: #cccccc; stroke-linejoin: miter"/>
    </g>
    <g id="line2d_27">
     <path d="M 347.720937 153.115313 
L 357.720937 153.115313 
L 367.720937 153.115313 
" style="fill: none; stroke: #1f77b4; stroke-width: 1.5; stroke-linecap: square"/>
    </g>
    <g id="text_21">
     <!-- effort = 10 -->
     <g transform="translate(375.720937 156.615313) scale(0.1 -0.1)">
      <defs>
       <path id="DejaVuSans-72" d="M 2631 2963 
Q 2534 3019 2420 3045 
Q 2306 3072 2169 3072 
Q 1681 3072 1420 2755 
Q 1159 2438 1159 1844 
L 1159 0 
L 581 0 
L 581 3500 
L 1159 3500 
L 1159 2956 
Q 1341 3275 1631 3429 
Q 1922 3584 2338 3584 
Q 2397 3584 2469 3576 
Q 2541 3569 2628 3553 
L 2631 2963 
z
" transform="scale(0.015625)"/>
       <path id="DejaVuSans-3d" d="M 678 2906 
L 4684 2906 
L 4684 2381 
L 678 2381 
L 678 2906 
z
M 678 1631 
L 4684 1631 
L 4684 1100 
L 678 1100 
L 678 1631 
z
" transform="scale(0.015625)"/>
      </defs>
      <use xlink:href="#DejaVuSans-65"/>
      <use xlink:href="#DejaVuSans-66" transform="translate(61.523438 0)"/>
      <use xlink:href="#DejaVuSans-66" transform="translate(96.728516 0)"/>
      <use xlink:href="#DejaVuSans-6f" transform="translate(131.933594 0)"/>
      <use xlink:href="#DejaVuSans-72" transform="translate(193.115234 0)"/>
      <use xlink:href="#DejaVuSans-74" transform="translate(234.228516 0)"/>
      <use xlink:href="#DejaVuSans-20" transform="translate(273.4375 0)"/>
      <use xlink:href="#DejaVuSans-3d" transform="translate(305.224609 0)"/>
      <use xlink:href="#DejaVuSans-20" transform="translate(389.013672 0)"/>
      <use xlink:href="#DejaVuSans-31" transform="translate(420.800781 0)"/>
      <use xlink:href="#DejaVuSans-30" transform="translate(484.423828 0)"/>
     </g>
    </g>
    <g id="line2d_28">
     <path d="M 347.720937 167.793438 
L 357.720937 167.793438 
L 367.720937 167.793438 
" style="fill: none; stroke: #ff7f0e; stroke-width: 1.5; stroke-linecap: square"/>
    </g>
    <g id="text_22">
     <!-- effort = 20 -->
     <g transform="translate(375.720937 171.293438) scale(0.1 -0.1)">
      <use xlink:href="#DejaVuSans-65"/>
      <use xlink:href="#DejaVuSans-66" transform="translate(61.523438 0)"/>
      <use xlink:href="#DejaVuSans-66" transform="translate(96.728516 0)"/>
      <use xlink:href="#DejaVuSans-6f" transform="translate(131.933594 0)"/>
      <use xlink:href="#DejaVuSans-72" transform="translate(193.115234 0)"/>
      <use xlink:href="#DejaVuSans-74" transform="translate(234.228516 0)"/>
      <use xlink:href="#DejaVuSans-20" transform="translate(273.4375 0)"/>
      <use xlink:href="#DejaVuSans-3d" transform="translate(305.224609 0)"/>
      <use xlink:href="#DejaVuSans-20" transform="translate(389.013672 0)"/>
      <use xlink:href="#DejaVuSans-32" transform="translate(420.800781 0)"/>
      <use xlink:href="#DejaVuSans-30" transform="translate(484.423828 0)"/>
     </g>
    </g>
    <g id="line2d_29">
     <path d="M 347.720937 182.471563 
L 357.720937 182.471563 
L 367.720937 182.471563 
" style="fill: none; stroke: #2ca02c; stroke-width: 1.5; stroke-linecap: square"/>
    </g>
    <g id="text_23">
     <!-- effort = 30 -->
     <g transform="translate(375.720937 185.971563) scale(0.1 -0.1)">
      <use xlink:href="#DejaVuSans-65"/>
      <use xlink:href="#DejaVuSans-66" transform="translate(61.523438 0)"/>
      <use xlink:href="#DejaVuSans-66" transform="translate(96.728516 0)"/>
      <use xlink:href="#DejaVuSans-6f" transform="translate(131.933594 0)"/>
      <use xlink:href="#DejaVuSans-72" transform="translate(193.115234 0)"/>
      <use xlink:href="#DejaVuSans-74" transform="translate(234.228516 0)"/>
      <use xlink:href="#DejaVuSans-20" transform="translate(273.4375 0)"/>
      <use xlink:href="#DejaVuSans-3d" transform="translate(305.224609 0)"/>
      <use xlink:href="#DejaVuSans-20" transform="translate(389.013672 0)"/>
      <use xlink:href="#DejaVuSans-33" transform="translate(420.800781 0)"/>
      <use xlink:href="#DejaVuSans-30" transform="translate(484.423828 0)"/>
     </g>
    </g>
    <g id="line2d_30">
     <path d="M 347.720937 197.149688 
L 357.720937 197.149688 
L 367.720937 197.149688 
" style="fill: none; stroke: #d62728; stroke-width: 1.5; stroke-linecap: square"/>
    </g>
    <g id="text_24">
     <!-- effort = 40 -->
     <g transform="translate(375.720937 200.649688) scale(0.1 -0.1)">
      <use xlink:href="#DejaVuSans-65"/>
      <use xlink:href="#DejaVuSans-66" transform="translate(61.523438 0)"/>
      <use xlink:href="#DejaVuSans-66" transform="translate(96.728516 0)"/>
      <use xlink:href="#DejaVuSans-6f" transform="translate(131.933594 0)"/>
      <use xlink:href="#DejaVuSans-72" transform="translate(193.115234 0)"/>
      <use xlink:href="#DejaVuSans-74" transform="translate(234.228516 0)"/>
      <use xlink:href="#DejaVuSans-20" transform="translate(273.4375 0)"/>
      <use xlink:href="#DejaVuSans-3d" transform="translate(305.224609 0)"/>
      <use xlink:href="#DejaVuSans-20" transform="translate(389.013672 0)"/>
      <use xlink:href="#DejaVuSans-34" transform="translate(420.800781 0)"/>
      <use xlink:href="#DejaVuSans-30" transform="translate(484.423828 0)"/>
     </g>
    </g>
    <g id="line2d_31">
     <path d="M 347.720937 211.827813 
L 357.720937 211.827813 
L 367.720937 211.827813 
" style="fill: none; stroke: #9467bd; stroke-width: 1.5; stroke-linecap: square"/>
    </g>
    <g id="text_25">
     <!-- effort = 50 -->
     <g transform="translate(375.720937 215.327813) scale(0.1 -0.1)">
      <use xlink:href="#DejaVuSans-65"/>
      <use xlink:href="#DejaVuSans-66" transform="translate(61.523438 0)"/>
      <use xlink:href="#DejaVuSans-66" transform="translate(96.728516 0)"/>
      <use xlink:href="#DejaVuSans-6f" transform="translate(131.933594 0)"/>
      <use xlink:href="#DejaVuSans-72" transform="translate(193.115234 0)"/>
      <use xlink:href="#DejaVuSans-74" transform="translate(234.228516 0)"/>
      <use xlink:href="#DejaVuSans-20" transform="translate(273.4375 0)"/>
      <use xlink:href="#DejaVuSans-3d" transform="translate(305.224609 0)"/>
      <use xlink:href="#DejaVuSans-20" transform="translate(389.013672 0)"/>
      <use xlink:href="#DejaVuSans-35" transform="translate(420.800781 0)"/>
      <use xlink:href="#DejaVuSans-30" transform="translate(484.423828 0)"/>
     </g>
    </g>
    <g id="line2d_32">
     <path d="M 347.720937 226.505938 
L 357.720937 226.505938 
L 367.720937 226.505938 
" style="fill: none; stroke: #8c564b; stroke-width: 1.5; stroke-linecap: square"/>
    </g>
    <g id="text_26">
     <!-- effort = 60 -->
     <g transform="translate(375.720937 230.005938) scale(0.1 -0.1)">
      <use xlink:href="#DejaVuSans-65"/>
      <use xlink:href="#DejaVuSans-66" transform="translate(61.523438 0)"/>
      <use xlink:href="#DejaVuSans-66" transform="translate(96.728516 0)"/>
      <use xlink:href="#DejaVuSans-6f" transform="translate(131.933594 0)"/>
      <use xlink:href="#DejaVuSans-72" transform="translate(193.115234 0)"/>
      <use xlink:href="#DejaVuSans-74" transform="translate(234.228516 0)"/>
      <use xlink:href="#DejaVuSans-20" transform="translate(273.4375 0)"/>
      <use xlink:href="#DejaVuSans-3d" transform="translate(305.224609 0)"/>
      <use xlink:href="#DejaVuSans-20" transform="translate(389.013672 0)"/>
      <use xlink:href="#DejaVuSans-36" transform="translate(420.800781 0)"/>
      <use xlink:href="#DejaVuSans-30" transform="translate(484.423828 0)"/>
     </g>
    </g>
    <g id="line2d_33">
     <path d="M 347.720937 241.184063 
L 357.720937 241.184063 
L 367.720937 241.184063 
" style="fill: none; stroke: #e377c2; stroke-width: 1.5; stroke-linecap: square"/>
    </g>
    <g id="text_27">
     <!-- effort = 70 -->
     <g transform="translate(375.720937 244.684063) scale(0.1 -0.1)">
      <use xlink:href="#DejaVuSans-65"/>
      <use xlink:href="#DejaVuSans-66" transform="translate(61.523438 0)"/>
      <use xlink:href="#DejaVuSans-66" transform="translate(96.728516 0)"/>
      <use xlink:href="#DejaVuSans-6f" transform="translate(131.933594 0)"/>
      <use xlink:href="#DejaVuSans-72" transform="translate(193.115234 0)"/>
      <use xlink:href="#DejaVuSans-74" transform="translate(234.228516 0)"/>
      <use xlink:href="#DejaVuSans-20" transform="translate(273.4375 0)"/>
      <use xlink:href="#DejaVuSans-3d" transform="translate(305.224609 0)"/>
      <use xlink:href="#DejaVuSans-20" transform="translate(389.013672 0)"/>
      <use xlink:href="#DejaVuSans-37" transform="translate(420.800781 0)"/>
      <use xlink:href="#DejaVuSans-30" transform="translate(484.423828 0)"/>
     </g>
    </g>
    <g id="line2d_34">
     <path d="M 347.720937 255.862188 
L 357.720937 255.862188 
L 367.720937 255.862188 
" style="fill: none; stroke: #7f7f7f; stroke-width: 1.5; stroke-linecap: square"/>
    </g>
    <g id="text_28">
     <!-- effort = 80 -->
     <g transform="translate(375.720937 259.362188) scale(0.1 -0.1)">
      <defs>
       <path id="DejaVuSans-38" d="M 2034 2216 
Q 1584 2216 1326 1975 
Q 1069 1734 1069 1313 
Q 1069 891 1326 650 
Q 1584 409 2034 409 
Q 2484 409 2743 651 
Q 3003 894 3003 1313 
Q 3003 1734 2745 1975 
Q 2488 2216 2034 2216 
z
M 1403 2484 
Q 997 2584 770 2862 
Q 544 3141 544 3541 
Q 544 4100 942 4425 
Q 1341 4750 2034 4750 
Q 2731 4750 3128 4425 
Q 3525 4100 3525 3541 
Q 3525 3141 3298 2862 
Q 3072 2584 2669 2484 
Q 3125 2378 3379 2068 
Q 3634 1759 3634 1313 
Q 3634 634 3220 271 
Q 2806 -91 2034 -91 
Q 1263 -91 848 271 
Q 434 634 434 1313 
Q 434 1759 690 2068 
Q 947 2378 1403 2484 
z
M 1172 3481 
Q 1172 3119 1398 2916 
Q 1625 2713 2034 2713 
Q 2441 2713 2670 2916 
Q 2900 3119 2900 3481 
Q 2900 3844 2670 4047 
Q 2441 4250 2034 4250 
Q 1625 4250 1398 4047 
Q 1172 3844 1172 3481 
z
" transform="scale(0.015625)"/>
      </defs>
      <use xlink:href="#DejaVuSans-65"/>
      <use xlink:href="#DejaVuSans-66" transform="translate(61.523438 0)"/>
      <use xlink:href="#DejaVuSans-66" transform="translate(96.728516 0)"/>
      <use xlink:href="#DejaVuSans-6f" transform="translate(131.933594 0)"/>
      <use xlink:href="#DejaVuSans-72" transform="translate(193.115234 0)"/>
      <use xlink:href="#DejaVuSans-74" transform="translate(234.228516 0)"/>
      <use xlink:href="#DejaVuSans-20" transform="translate(273.4375 0)"/>
      <use xlink:href="#DejaVuSans-3d" transform="translate(305.224609 0)"/>
      <use xlink:href="#DejaVuSans-20" transform="translate(389.013672 0)"/>
      <use xlink:href="#DejaVuSans-38" transform="translate(420.800781 0)"/>
      <use xlink:href="#DejaVuSans-30" transform="translate(484.423828 0)"/>
     </g>
    </g>
    <g id="line2d_35">
     <path d="M 347.720937 270.540313 
L 357.720937 270.540313 
L 367.720937 270.540313 
" style="fill: none; stroke: #bcbd22; stroke-width: 1.5; stroke-linecap: square"/>
    </g>
    <g id="text_29">
     <!-- effort = 90 -->
     <g transform="translate(375.720937 274.040313) scale(0.1 -0.1)">
      <defs>
       <path id="DejaVuSans-39" d="M 703 97 
L 703 672 
Q 941 559 1184 500 
Q 1428 441 1663 441 
Q 2288 441 2617 861 
Q 2947 1281 2994 2138 
Q 2813 1869 2534 1725 
Q 2256 1581 1919 1581 
Q 1219 1581 811 2004 
Q 403 2428 403 3163 
Q 403 3881 828 4315 
Q 1253 4750 1959 4750 
Q 2769 4750 3195 4129 
Q 3622 3509 3622 2328 
Q 3622 1225 3098 567 
Q 2575 -91 1691 -91 
Q 1453 -91 1209 -44 
Q 966 3 703 97 
z
M 1959 2075 
Q 2384 2075 2632 2365 
Q 2881 2656 2881 3163 
Q 2881 3666 2632 3958 
Q 2384 4250 1959 4250 
Q 1534 4250 1286 3958 
Q 1038 3666 1038 3163 
Q 1038 2656 1286 2365 
Q 1534 2075 1959 2075 
z
" transform="scale(0.015625)"/>
      </defs>
      <use xlink:href="#DejaVuSans-65"/>
      <use xlink:href="#DejaVuSans-66" transform="translate(61.523438 0)"/>
      <use xlink:href="#DejaVuSans-66" transform="translate(96.728516 0)"/>
      <use xlink:href="#DejaVuSans-6f" transform="translate(131.933594 0)"/>
      <use xlink:href="#DejaVuSans-72" transform="translate(193.115234 0)"/>
      <use xlink:href="#DejaVuSans-74" transform="translate(234.228516 0)"/>
      <use xlink:href="#DejaVuSans-20" transform="translate(273.4375 0)"/>
      <use xlink:href="#DejaVuSans-3d" transform="translate(305.224609 0)"/>
      <use xlink:href="#DejaVuSans-20" transform="translate(389.013672 0)"/>
      <use xlink:href="#DejaVuSans-39" transform="translate(420.800781 0)"/>
      <use xlink:href="#DejaVuSans-30" transform="translate(484.423828 0)"/>
     </g>
    </g>
    <g id="line2d_36">
     <path d="M 347.720937 285.218438 
L 357.720937 285.218438 
L 367.720937 285.218438 
" style="fill: none; stroke: #17becf; stroke-width: 1.5; stroke-linecap: square"/>
    </g>
    <g id="text_30">
     <!-- effort = 100 -->
     <g transform="translate(375.720937 288.718438) scale(0.1 -0.1)">
      <use xlink:href="#DejaVuSans-65"/>
      <use xlink:href="#DejaVuSans-66" transform="translate(61.523438 0)"/>
      <use xlink:href="#DejaVuSans-66" transform="translate(96.728516 0)"/>
      <use xlink:href="#DejaVuSans-6f" transform="translate(131.933594 0)"/>
      <use xlink:href="#DejaVuSans-72" transform="translate(193.115234 0)"/>
      <use xlink:href="#DejaVuSans-74" transform="translate(234.228516 0)"/>
      <use xlink:href="#DejaVuSans-20" transform="translate(273.4375 0)"/>
      <use xlink:href="#DejaVuSans-3d" transform="translate(305.224609 0)"/>
      <use xlink:href="#DejaVuSans-20" transform="translate(389.013672 0)"/>
      <use xlink:href="#DejaVuSans-31" transform="translate(420.800781 0)"/>
      <use xlink:href="#DejaVuSans-30" transform="translate(484.423828 0)"/>
      <use xlink:href="#DejaVuSans-30" transform="translate(548.046875 0)"/>
     </g>
    </g>
   </g>
  </g>
 </g>
 <defs>
  <clipPath id="p2bd381e626">
   <rect x="53.328125" y="22.318125" width="392.56" height="277.48"/>
  </clipPath>
 </defs>
</svg>
