<?xml version="1.0" encoding="utf-8" standalone="no"?>
<!DOCTYPE svg PUBLIC "-//W3C//DTD SVG 1.1//EN"
  "http://www.w3.org/Graphics/SVG/1.1/DTD/svg11.dtd">
<svg xmlns:xlink="http://www.w3.org/1999/xlink" width="453.143125pt" height="337.354375pt" viewBox="0 0 453.143125 337.354375" xmlns="http://www.w3.org/2000/svg" version="1.1">
 <metadata>
  <rdf:RDF xmlns:dc="http://purl.org/dc/elements/1.1/" xmlns:cc="http://creativecommons.org/ns#" xmlns:rdf="http://www.w3.org/1999/02/22-rdf-syntax-ns#">
   <cc:Work>
    <dc:type rdf:resource="http://purl.org/dc/dcmitype/StillImage"/>
    <dc:date>2025-10-29T21:25:04.164953</dc:date>
    <dc:format>image/svg+xml</dc:format>
    <dc:creator>
     <cc:Agent>
      <dc:title>Matplotlib v3.10.6, https://matplotlib.org/</dc:title>
     </cc:Agent>
    </dc:creator>
   </cc:Work>
  </rdf:RDF>
 </metadata>
 <defs>
  <style type="text/css">*{stroke-linejoin: round; stroke-linecap: butt}</style>
 </defs>
 <g id="figure_1">
  <g id="patch_1">
   <path d="M 0 337.354375 
L 453.143125 337.354375 
L 453.143125 0 
L 0 0 
z
" style="fill: #ffffff"/>
  </g>
  <g id="axes_1">
   <g id="patch_2">
    <path d="M 40.603125 299.798125 
L 445.943125 299.798125 
L 445.943125 22.318125 
L 40.603125 22.318125 
z
" style="fill: #ffffff"/>
   </g>
   <g id="matplotlib.axis_1">
    <g id="xtick_1">
     <g id="line2d_1">
      <defs>
       <path id="md5b4598282" d="M 0 0 
L 0 3.5 
" style="stroke: #000000; stroke-width: 0.8"/>
      </defs>
      <g>
       <use xlink:href="#md5b4598282" x="59.02767" y="299.798125" style="stroke: #000000; stroke-width: 0.8"/>
      </g>
     </g>
     <g id="text_1">
      <!-- 0 -->
      <g transform="translate(55.84642 314.396563) scale(0.1 -0.1)">
       <defs>
        <path id="DejaVuSans-30" d="M 2034 4250 
Q 1547 4250 1301 3770 
Q 1056 3291 1056 2328 
Q 1056 1369 1301 889 
Q 1547 409 2034 409 
Q 2525 409 2770 889 
Q 3016 1369 3016 2328 
Q 3016 3291 2770 3770 
Q 2525 4250 2034 4250 
z
M 2034 4750 
Q 2819 4750 3233 4129 
Q 3647 3509 3647 2328 
Q 3647 1150 3233 529 
Q 2819 -91 2034 -91 
Q 1250 -91 836 529 
Q 422 1150 422 2328 
Q 422 3509 836 4129 
Q 1250 4750 2034 4750 
z
" transform="scale(0.015625)"/>
       </defs>
       <use xlink:href="#DejaVuSans-30"/>
      </g>
     </g>
    </g>
    <g id="xtick_2">
     <g id="line2d_2">
      <g>
       <use xlink:href="#md5b4598282" x="111.683732" y="299.798125" style="stroke: #000000; stroke-width: 0.8"/>
      </g>
     </g>
     <g id="text_2">
      <!-- 5 -->
      <g transform="translate(108.502482 314.396563) scale(0.1 -0.1)">
       <defs>
        <path id="DejaVuSans-35" d="M 691 4666 
L 3169 4666 
L 3169 4134 
L 1269 4134 
L 1269 2991 
Q 1406 3038 1543 3061 
Q 1681 3084 1819 3084 
Q 2600 3084 3056 2656 
Q 3513 2228 3513 1497 
Q 3513 744 3044 326 
Q 2575 -91 1722 -91 
Q 1428 -91 1123 -41 
Q 819 9 494 109 
L 494 744 
Q 775 591 1075 516 
Q 1375 441 1709 441 
Q 2250 441 2565 725 
Q 2881 1009 2881 1497 
Q 2881 1984 2565 2268 
Q 2250 2553 1709 2553 
Q 1456 2553 1204 2497 
Q 953 2441 691 2322 
L 691 4666 
z
" transform="scale(0.015625)"/>
       </defs>
       <use xlink:href="#DejaVuSans-35"/>
      </g>
     </g>
    </g>
    <g id="xtick_3">
     <g id="line2d_3">
      <g>
       <use xlink:href="#md5b4598282" x="164.339793" y="299.798125" style="stroke: #000000; stroke-width: 0.8"/>
      </g>
     </g>
     <g id="text_3">
      <!-- 10 -->
      <g transform="translate(157.977293 314.396563) scale(0.1 -0.1)">
       <defs>
        <path id="DejaVuSans-31" d="M 794 531 
L 1825 531 
L 1825 4091 
L 703 3866 
L 703 4441 
L 1819 4666 
L 2450 4666 
L 2450 531 
L 3481 531 
L 3481 0 
L 794 0 
L 794 531 
z
" transform="scale(0.015625)"/>
       </defs>
       <use xlink:href="#DejaVuSans-31"/>
       <use xlink:href="#DejaVuSans-30" transform="translate(63.623047 0)"/>
      </g>
     </g>
    </g>
    <g id="xtick_4">
     <g id="line2d_4">
      <g>
       <use xlink:href="#md5b4598282" x="216.995855" y="299.798125" style="stroke: #000000; stroke-width: 0.8"/>
      </g>
     </g>
     <g id="text_4">
      <!-- 15 -->
      <g transform="translate(210.633355 314.396563) scale(0.1 -0.1)">
       <use xlink:href="#DejaVuSans-31"/>
       <use xlink:href="#DejaVuSans-35" transform="translate(63.623047 0)"/>
      </g>
     </g>
    </g>
    <g id="xtick_5">
     <g id="line2d_5">
      <g>
       <use xlink:href="#md5b4598282" x="269.651916" y="299.798125" style="stroke: #000000; stroke-width: 0.8"/>
      </g>
     </g>
     <g id="text_5">
      <!-- 20 -->
      <g transform="translate(263.289416 314.396563) scale(0.1 -0.1)">
       <defs>
        <path id="DejaVuSans-32" d="M 1228 531 
L 3431 531 
L 3431 0 
L 469 0 
L 469 531 
Q 828 903 1448 1529 
Q 2069 2156 2228 2338 
Q 2531 2678 2651 2914 
Q 2772 3150 2772 3378 
Q 2772 3750 2511 3984 
Q 2250 4219 1831 4219 
Q 1534 4219 1204 4116 
Q 875 4013 500 3803 
L 500 4441 
Q 881 4594 1212 4672 
Q 1544 4750 1819 4750 
Q 2544 4750 2975 4387 
Q 3406 4025 3406 3419 
Q 3406 3131 3298 2873 
Q 3191 2616 2906 2266 
Q 2828 2175 2409 1742 
Q 1991 1309 1228 531 
z
" transform="scale(0.015625)"/>
       </defs>
       <use xlink:href="#DejaVuSans-32"/>
       <use xlink:href="#DejaVuSans-30" transform="translate(63.623047 0)"/>
      </g>
     </g>
    </g>
    <g id="xtick_6">
     <g id="line2d_6">
      <g>
       <use xlink:href="#md5b4598282" x="322.307978" y="299.798125" style="stroke: #000000; stroke-width: 0.8"/>
      </g>
     </g>
     <g id="text_6">
      <!-- 25 -->
      <g transform="translate(315.945478 314.396563) scale(0.1 -0.1)">
       <use xlink:href="#DejaVuSans-32"/>
       <use xlink:href="#DejaVuSans-35" transform="translate(63.623047 0)"/>
      </g>
     </g>
    </g>
    <g id="xtick_7">
     <g id="line2d_7">
      <g>
       <use xlink:href="#md5b4598282" x="374.964039" y="299.798125" style="stroke: #000000; stroke-width: 0.8"/>
      </g>
     </g>
     <g id="text_7">
      <!-- 30 -->
      <g transform="translate(368.601539 314.396563) scale(0.1 -0.1)">
       <defs>
        <path id="DejaVuSans-33" d="M 2597 2516 
Q 3050 2419 3304 2112 
Q 3559 1806 3559 1356 
Q 3559 666 3084 287 
Q 2609 -91 1734 -91 
Q 1441 -91 1130 -33 
Q 819 25 488 141 
L 488 750 
Q 750 597 1062 519 
Q 1375 441 1716 441 
Q 2309 441 2620 675 
Q 2931 909 2931 1356 
Q 2931 1769 2642 2001 
Q 2353 2234 1838 2234 
L 1294 2234 
L 1294 2753 
L 1863 2753 
Q 2328 2753 2575 2939 
Q 2822 3125 2822 3475 
Q 2822 3834 2567 4026 
Q 2313 4219 1838 4219 
Q 1578 4219 1281 4162 
Q 984 4106 628 3988 
L 628 4550 
Q 988 4650 1302 4700 
Q 1616 4750 1894 4750 
Q 2613 4750 3031 4423 
Q 3450 4097 3450 3541 
Q 3450 3153 3228 2886 
Q 3006 2619 2597 2516 
z
" transform="scale(0.015625)"/>
       </defs>
       <use xlink:href="#DejaVuSans-33"/>
       <use xlink:href="#DejaVuSans-30" transform="translate(63.623047 0)"/>
      </g>
     </g>
    </g>
    <g id="xtick_8">
     <g id="line2d_8">
      <g>
       <use xlink:href="#md5b4598282" x="427.6201" y="299.798125" style="stroke: #000000; stroke-width: 0.8"/>
      </g>
     </g>
     <g id="text_8">
      <!-- 35 -->
      <g transform="translate(421.2576 314.396563) scale(0.1 -0.1)">
       <use xlink:href="#DejaVuSans-33"/>
       <use xlink:href="#DejaVuSans-35" transform="translate(63.623047 0)"/>
      </g>
     </g>
    </g>
    <g id="text_9">
     <!-- Left Position, (rad) -->
     <g transform="translate(197.43875 328.074688) scale(0.1 -0.1)">
      <defs>
       <path id="DejaVuSans-4c" d="M 628 4666 
L 1259 4666 
L 1259 531 
L 3531 531 
L 3531 0 
L 628 0 
L 628 4666 
z
" transform="scale(0.015625)"/>
       <path id="DejaVuSans-65" d="M 3597 1894 
L 3597 1613 
L 953 1613 
Q 991 1019 1311 708 
Q 1631 397 2203 397 
Q 2534 397 2845 478 
Q 3156 559 3463 722 
L 3463 178 
Q 3153 47 2828 -22 
Q 2503 -91 2169 -91 
Q 1331 -91 842 396 
Q 353 884 353 1716 
Q 353 2575 817 3079 
Q 1281 3584 2069 3584 
Q 2775 3584 3186 3129 
Q 3597 2675 3597 1894 
z
M 3022 2063 
Q 3016 2534 2758 2815 
Q 2500 3097 2075 3097 
Q 1594 3097 1305 2825 
Q 1016 2553 972 2059 
L 3022 2063 
z
" transform="scale(0.015625)"/>
       <path id="DejaVuSans-66" d="M 2375 4863 
L 2375 4384 
L 1825 4384 
Q 1516 4384 1395 4259 
Q 1275 4134 1275 3809 
L 1275 3500 
L 2222 3500 
L 2222 3053 
L 1275 3053 
L 1275 0 
L 697 0 
L 697 3053 
L 147 3053 
L 147 3500 
L 697 3500 
L 697 3744 
Q 697 4328 969 4595 
Q 1241 4863 1831 4863 
L 2375 4863 
z
" transform="scale(0.015625)"/>
       <path id="DejaVuSans-74" d="M 1172 4494 
L 1172 3500 
L 2356 3500 
L 2356 3053 
L 1172 3053 
L 1172 1153 
Q 1172 725 1289 603 
Q 1406 481 1766 481 
L 2356 481 
L 2356 0 
L 1766 0 
Q 1100 0 847 248 
Q 594 497 594 1153 
L 594 3053 
L 172 3053 
L 172 3500 
L 594 3500 
L 594 4494 
L 1172 4494 
z
" transform="scale(0.015625)"/>
       <path id="DejaVuSans-20" transform="scale(0.015625)"/>
       <path id="DejaVuSans-50" d="M 1259 4147 
L 1259 2394 
L 2053 2394 
Q 2494 2394 2734 2622 
Q 2975 2850 2975 3272 
Q 2975 3691 2734 3919 
Q 2494 4147 2053 4147 
L 1259 4147 
z
M 628 4666 
L 2053 4666 
Q 2838 4666 3239 4311 
Q 3641 3956 3641 3272 
Q 3641 2581 3239 2228 
Q 2838 1875 2053 1875 
L 1259 1875 
L 1259 0 
L 628 0 
L 628 4666 
z
" transform="scale(0.015625)"/>
       <path id="DejaVuSans-6f" d="M 1959 3097 
Q 1497 3097 1228 2736 
Q 959 2375 959 1747 
Q 959 1119 1226 758 
Q 1494 397 1959 397 
Q 2419 397 2687 759 
Q 2956 1122 2956 1747 
Q 2956 2369 2687 2733 
Q 2419 3097 1959 3097 
z
M 1959 3584 
Q 2709 3584 3137 3096 
Q 3566 2609 3566 1747 
Q 3566 888 3137 398 
Q 2709 -91 1959 -91 
Q 1206 -91 779 398 
Q 353 888 353 1747 
Q 353 2609 779 3096 
Q 1206 3584 1959 3584 
z
" transform="scale(0.015625)"/>
       <path id="DejaVuSans-73" d="M 2834 3397 
L 2834 2853 
Q 2591 2978 2328 3040 
Q 2066 3103 1784 3103 
Q 1356 3103 1142 2972 
Q 928 2841 928 2578 
Q 928 2378 1081 2264 
Q 1234 2150 1697 2047 
L 1894 2003 
Q 2506 1872 2764 1633 
Q 3022 1394 3022 966 
Q 3022 478 2636 193 
Q 2250 -91 1575 -91 
Q 1294 -91 989 -36 
Q 684 19 347 128 
L 347 722 
Q 666 556 975 473 
Q 1284 391 1588 391 
Q 1994 391 2212 530 
Q 2431 669 2431 922 
Q 2431 1156 2273 1281 
Q 2116 1406 1581 1522 
L 1381 1569 
Q 847 1681 609 1914 
Q 372 2147 372 2553 
Q 372 3047 722 3315 
Q 1072 3584 1716 3584 
Q 2034 3584 2315 3537 
Q 2597 3491 2834 3397 
z
" transform="scale(0.015625)"/>
       <path id="DejaVuSans-69" d="M 603 3500 
L 1178 3500 
L 1178 0 
L 603 0 
L 603 3500 
z
M 603 4863 
L 1178 4863 
L 1178 4134 
L 603 4134 
L 603 4863 
z
" transform="scale(0.015625)"/>
       <path id="DejaVuSans-6e" d="M 3513 2113 
L 3513 0 
L 2938 0 
L 2938 2094 
Q 2938 2591 2744 2837 
Q 2550 3084 2163 3084 
Q 1697 3084 1428 2787 
Q 1159 2491 1159 1978 
L 1159 0 
L 581 0 
L 581 3500 
L 1159 3500 
L 1159 2956 
Q 1366 3272 1645 3428 
Q 1925 3584 2291 3584 
Q 2894 3584 3203 3211 
Q 3513 2838 3513 2113 
z
" transform="scale(0.015625)"/>
       <path id="DejaVuSans-2c" d="M 750 794 
L 1409 794 
L 1409 256 
L 897 -744 
L 494 -744 
L 750 256 
L 750 794 
z
" transform="scale(0.015625)"/>
       <path id="DejaVuSans-28" d="M 1984 4856 
Q 1566 4138 1362 3434 
Q 1159 2731 1159 2009 
Q 1159 1288 1364 580 
Q 1569 -128 1984 -844 
L 1484 -844 
Q 1016 -109 783 600 
Q 550 1309 550 2009 
Q 550 2706 781 3412 
Q 1013 4119 1484 4856 
L 1984 4856 
z
" transform="scale(0.015625)"/>
       <path id="DejaVuSans-72" d="M 2631 2963 
Q 2534 3019 2420 3045 
Q 2306 3072 2169 3072 
Q 1681 3072 1420 2755 
Q 1159 2438 1159 1844 
L 1159 0 
L 581 0 
L 581 3500 
L 1159 3500 
L 1159 2956 
Q 1341 3275 1631 3429 
Q 1922 3584 2338 3584 
Q 2397 3584 2469 3576 
Q 2541 3569 2628 3553 
L 2631 2963 
z
" transform="scale(0.015625)"/>
       <path id="DejaVuSans-61" d="M 2194 1759 
Q 1497 1759 1228 1600 
Q 959 1441 959 1056 
Q 959 750 1161 570 
Q 1363 391 1709 391 
Q 2188 391 2477 730 
Q 2766 1069 2766 1631 
L 2766 1759 
L 2194 1759 
z
M 3341 1997 
L 3341 0 
L 2766 0 
L 2766 531 
Q 2569 213 2275 61 
Q 1981 -91 1556 -91 
Q 1019 -91 701 211 
Q 384 513 384 1019 
Q 384 1609 779 1909 
Q 1175 2209 1959 2209 
L 2766 2209 
L 2766 2266 
Q 2766 2663 2505 2880 
Q 2244 3097 1772 3097 
Q 1472 3097 1187 3025 
Q 903 2953 641 2809 
L 641 3341 
Q 956 3463 1253 3523 
Q 1550 3584 1831 3584 
Q 2591 3584 2966 3190 
Q 3341 2797 3341 1997 
z
" transform="scale(0.015625)"/>
       <path id="DejaVuSans-64" d="M 2906 2969 
L 2906 4863 
L 3481 4863 
L 3481 0 
L 2906 0 
L 2906 525 
Q 2725 213 2448 61 
Q 2172 -91 1784 -91 
Q 1150 -91 751 415 
Q 353 922 353 1747 
Q 353 2572 751 3078 
Q 1150 3584 1784 3584 
Q 2172 3584 2448 3432 
Q 2725 3281 2906 2969 
z
M 947 1747 
Q 947 1113 1208 752 
Q 1469 391 1925 391 
Q 2381 391 2643 752 
Q 2906 1113 2906 1747 
Q 2906 2381 2643 2742 
Q 2381 3103 1925 3103 
Q 1469 3103 1208 2742 
Q 947 2381 947 1747 
z
" transform="scale(0.015625)"/>
       <path id="DejaVuSans-29" d="M 513 4856 
L 1013 4856 
Q 1481 4119 1714 3412 
Q 1947 2706 1947 2009 
Q 1947 1309 1714 600 
Q 1481 -109 1013 -844 
L 513 -844 
Q 928 -128 1133 580 
Q 1338 1288 1338 2009 
Q 1338 2731 1133 3434 
Q 928 4138 513 4856 
z
" transform="scale(0.015625)"/>
      </defs>
      <use xlink:href="#DejaVuSans-4c"/>
      <use xlink:href="#DejaVuSans-65" transform="translate(53.962891 0)"/>
      <use xlink:href="#DejaVuSans-66" transform="translate(115.486328 0)"/>
      <use xlink:href="#DejaVuSans-74" transform="translate(148.941406 0)"/>
      <use xlink:href="#DejaVuSans-20" transform="translate(188.150391 0)"/>
      <use xlink:href="#DejaVuSans-50" transform="translate(219.9375 0)"/>
      <use xlink:href="#DejaVuSans-6f" transform="translate(276.615234 0)"/>
      <use xlink:href="#DejaVuSans-73" transform="translate(337.796875 0)"/>
      <use xlink:href="#DejaVuSans-69" transform="translate(389.896484 0)"/>
      <use xlink:href="#DejaVuSans-74" transform="translate(417.679688 0)"/>
      <use xlink:href="#DejaVuSans-69" transform="translate(456.888672 0)"/>
      <use xlink:href="#DejaVuSans-6f" transform="translate(484.671875 0)"/>
      <use xlink:href="#DejaVuSans-6e" transform="translate(545.853516 0)"/>
      <use xlink:href="#DejaVuSans-2c" transform="translate(609.232422 0)"/>
      <use xlink:href="#DejaVuSans-20" transform="translate(641.019531 0)"/>
      <use xlink:href="#DejaVuSans-28" transform="translate(672.806641 0)"/>
      <use xlink:href="#DejaVuSans-72" transform="translate(711.820312 0)"/>
      <use xlink:href="#DejaVuSans-61" transform="translate(752.933594 0)"/>
      <use xlink:href="#DejaVuSans-64" transform="translate(814.212891 0)"/>
      <use xlink:href="#DejaVuSans-29" transform="translate(877.689453 0)"/>
     </g>
    </g>
   </g>
   <g id="matplotlib.axis_2">
    <g id="ytick_1">
     <g id="line2d_9">
      <defs>
       <path id="m1a70d7f6f9" d="M 0 0 
L -3.5 0 
" style="stroke: #000000; stroke-width: 0.8"/>
      </defs>
      <g>
       <use xlink:href="#m1a70d7f6f9" x="40.603125" y="287.185398" style="stroke: #000000; stroke-width: 0.8"/>
      </g>
     </g>
     <g id="text_10">
      <!-- 0 -->
      <g transform="translate(27.240625 290.984616) scale(0.1 -0.1)">
       <use xlink:href="#DejaVuSans-30"/>
      </g>
     </g>
    </g>
    <g id="ytick_2">
     <g id="line2d_10">
      <g>
       <use xlink:href="#m1a70d7f6f9" x="40.603125" y="250.33797" style="stroke: #000000; stroke-width: 0.8"/>
      </g>
     </g>
     <g id="text_11">
      <!-- 5 -->
      <g transform="translate(27.240625 254.137188) scale(0.1 -0.1)">
       <use xlink:href="#DejaVuSans-35"/>
      </g>
     </g>
    </g>
    <g id="ytick_3">
     <g id="line2d_11">
      <g>
       <use xlink:href="#m1a70d7f6f9" x="40.603125" y="213.490541" style="stroke: #000000; stroke-width: 0.8"/>
      </g>
     </g>
     <g id="text_12">
      <!-- 10 -->
      <g transform="translate(20.878125 217.28976) scale(0.1 -0.1)">
       <use xlink:href="#DejaVuSans-31"/>
       <use xlink:href="#DejaVuSans-30" transform="translate(63.623047 0)"/>
      </g>
     </g>
    </g>
    <g id="ytick_4">
     <g id="line2d_12">
      <g>
       <use xlink:href="#m1a70d7f6f9" x="40.603125" y="176.643113" style="stroke: #000000; stroke-width: 0.8"/>
      </g>
     </g>
     <g id="text_13">
      <!-- 15 -->
      <g transform="translate(20.878125 180.442332) scale(0.1 -0.1)">
       <use xlink:href="#DejaVuSans-31"/>
       <use xlink:href="#DejaVuSans-35" transform="translate(63.623047 0)"/>
      </g>
     </g>
    </g>
    <g id="ytick_5">
     <g id="line2d_13">
      <g>
       <use xlink:href="#m1a70d7f6f9" x="40.603125" y="139.795685" style="stroke: #000000; stroke-width: 0.8"/>
      </g>
     </g>
     <g id="text_14">
      <!-- 20 -->
      <g transform="translate(20.878125 143.594904) scale(0.1 -0.1)">
       <use xlink:href="#DejaVuSans-32"/>
       <use xlink:href="#DejaVuSans-30" transform="translate(63.623047 0)"/>
      </g>
     </g>
    </g>
    <g id="ytick_6">
     <g id="line2d_14">
      <g>
       <use xlink:href="#m1a70d7f6f9" x="40.603125" y="102.948257" style="stroke: #000000; stroke-width: 0.8"/>
      </g>
     </g>
     <g id="text_15">
      <!-- 25 -->
      <g transform="translate(20.878125 106.747476) scale(0.1 -0.1)">
       <use xlink:href="#DejaVuSans-32"/>
       <use xlink:href="#DejaVuSans-35" transform="translate(63.623047 0)"/>
      </g>
     </g>
    </g>
    <g id="ytick_7">
     <g id="line2d_15">
      <g>
       <use xlink:href="#m1a70d7f6f9" x="40.603125" y="66.100829" style="stroke: #000000; stroke-width: 0.8"/>
      </g>
     </g>
     <g id="text_16">
      <!-- 30 -->
      <g transform="translate(20.878125 69.900047) scale(0.1 -0.1)">
       <use xlink:href="#DejaVuSans-33"/>
       <use xlink:href="#DejaVuSans-30" transform="translate(63.623047 0)"/>
      </g>
     </g>
    </g>
    <g id="ytick_8">
     <g id="line2d_16">
      <g>
       <use xlink:href="#m1a70d7f6f9" x="40.603125" y="29.253401" style="stroke: #000000; stroke-width: 0.8"/>
      </g>
     </g>
     <g id="text_17">
      <!-- 35 -->
      <g transform="translate(20.878125 33.052619) scale(0.1 -0.1)">
       <use xlink:href="#DejaVuSans-33"/>
       <use xlink:href="#DejaVuSans-35" transform="translate(63.623047 0)"/>
      </g>
     </g>
    </g>
    <g id="text_18">
     <!-- Right Position, (rad) -->
     <g transform="translate(14.798438 210.651094) rotate(-90) scale(0.1 -0.1)">
      <defs>
       <path id="DejaVuSans-52" d="M 2841 2188 
Q 3044 2119 3236 1894 
Q 3428 1669 3622 1275 
L 4263 0 
L 3584 0 
L 2988 1197 
Q 2756 1666 2539 1819 
Q 2322 1972 1947 1972 
L 1259 1972 
L 1259 0 
L 628 0 
L 628 4666 
L 2053 4666 
Q 2853 4666 3247 4331 
Q 3641 3997 3641 3322 
Q 3641 2881 3436 2590 
Q 3231 2300 2841 2188 
z
M 1259 4147 
L 1259 2491 
L 2053 2491 
Q 2509 2491 2742 2702 
Q 2975 2913 2975 3322 
Q 2975 3731 2742 3939 
Q 2509 4147 2053 4147 
L 1259 4147 
z
" transform="scale(0.015625)"/>
       <path id="DejaVuSans-67" d="M 2906 1791 
Q 2906 2416 2648 2759 
Q 2391 3103 1925 3103 
Q 1463 3103 1205 2759 
Q 947 2416 947 1791 
Q 947 1169 1205 825 
Q 1463 481 1925 481 
Q 2391 481 2648 825 
Q 2906 1169 2906 1791 
z
M 3481 434 
Q 3481 -459 3084 -895 
Q 2688 -1331 1869 -1331 
Q 1566 -1331 1297 -1286 
Q 1028 -1241 775 -1147 
L 775 -588 
Q 1028 -725 1275 -790 
Q 1522 -856 1778 -856 
Q 2344 -856 2625 -561 
Q 2906 -266 2906 331 
L 2906 616 
Q 2728 306 2450 153 
Q 2172 0 1784 0 
Q 1141 0 747 490 
Q 353 981 353 1791 
Q 353 2603 747 3093 
Q 1141 3584 1784 3584 
Q 2172 3584 2450 3431 
Q 2728 3278 2906 2969 
L 2906 3500 
L 3481 3500 
L 3481 434 
z
" transform="scale(0.015625)"/>
       <path id="DejaVuSans-68" d="M 3513 2113 
L 3513 0 
L 2938 0 
L 2938 2094 
Q 2938 2591 2744 2837 
Q 2550 3084 2163 3084 
Q 1697 3084 1428 2787 
Q 1159 2491 1159 1978 
L 1159 0 
L 581 0 
L 581 4863 
L 1159 4863 
L 1159 2956 
Q 1366 3272 1645 3428 
Q 1925 3584 2291 3584 
Q 2894 3584 3203 3211 
Q 3513 2838 3513 2113 
z
" transform="scale(0.015625)"/>
      </defs>
      <use xlink:href="#DejaVuSans-52"/>
      <use xlink:href="#DejaVuSans-69" transform="translate(69.482422 0)"/>
      <use xlink:href="#DejaVuSans-67" transform="translate(97.265625 0)"/>
      <use xlink:href="#DejaVuSans-68" transform="translate(160.742188 0)"/>
      <use xlink:href="#DejaVuSans-74" transform="translate(224.121094 0)"/>
      <use xlink:href="#DejaVuSans-20" transform="translate(263.330078 0)"/>
      <use xlink:href="#DejaVuSans-50" transform="translate(295.117188 0)"/>
      <use xlink:href="#DejaVuSans-6f" transform="translate(351.794922 0)"/>
      <use xlink:href="#DejaVuSans-73" transform="translate(412.976562 0)"/>
      <use xlink:href="#DejaVuSans-69" transform="translate(465.076172 0)"/>
      <use xlink:href="#DejaVuSans-74" transform="translate(492.859375 0)"/>
      <use xlink:href="#DejaVuSans-69" transform="translate(532.068359 0)"/>
      <use xlink:href="#DejaVuSans-6f" transform="translate(559.851562 0)"/>
      <use xlink:href="#DejaVuSans-6e" transform="translate(621.033203 0)"/>
      <use xlink:href="#DejaVuSans-2c" transform="translate(684.412109 0)"/>
      <use xlink:href="#DejaVuSans-20" transform="translate(716.199219 0)"/>
      <use xlink:href="#DejaVuSans-28" transform="translate(747.986328 0)"/>
      <use xlink:href="#DejaVuSans-72" transform="translate(787 0)"/>
      <use xlink:href="#DejaVuSans-61" transform="translate(828.113281 0)"/>
      <use xlink:href="#DejaVuSans-64" transform="translate(889.392578 0)"/>
      <use xlink:href="#DejaVuSans-29" transform="translate(952.869141 0)"/>
     </g>
    </g>
   </g>
   <g id="line2d_17">
    <path d="M 67.822091 281.90123 
L 68.927149 281.192378 
L 70.907046 279.806892 
L 74.130134 277.519234 
L 77.767615 274.941594 
L 80.714438 272.87948 
L 84.444004 270.26962 
L 88.265665 267.595315 
L 91.120403 265.597639 
L 94.942064 262.923334 
L 98.993937 260.216817 
L 101.986802 258.186921 
L 106.084729 255.383731 
L 110.136602 252.580548 
L 113.17552 250.453995 
L 117.319489 247.586366 
L 120.450482 245.427593 
L 124.594451 242.559964 
L 128.646334 239.756774 
L 131.685242 237.63022 
L 135.829211 234.827037 
L 139.881095 232.056074 
L 143.05813 229.865074 
L 147.110014 227.12633 
L 151.161887 224.355359 
L 154.29289 222.196586 
L 158.344764 219.425623 
L 161.475777 217.234631 
L 165.573735 214.463667 
L 169.625619 211.692682 
L 172.756549 209.501734 
L 176.808433 206.730733 
L 179.985489 204.604195 
L 184.037373 201.833194 
L 188.089257 199.094472 
L 191.220291 196.935729 
L 195.226049 194.164729 
L 199.370081 191.361524 
L 202.408967 189.299468 
L 206.460851 186.528468 
L 210.604778 183.725263 
L 213.643665 181.663207 
L 217.787697 178.860002 
L 220.826583 176.765668 
L 224.878467 173.994667 
L 228.930351 171.191463 
L 232.015259 169.097202 
L 236.11327 166.261719 
L 240.165154 163.522997 
L 243.250062 161.428663 
L 247.347967 158.625531 
L 250.386959 156.531197 
L 254.484864 153.695788 
L 258.536748 150.924787 
L 261.621656 148.798249 
L 265.719561 145.995044 
L 269.771445 143.224117 
L 272.90248 141.0653 
L 276.954364 138.294373 
L 280.039377 136.200039 
L 284.137283 133.396834 
L 288.14304 130.625834 
L 291.274075 128.434886 
L 295.279937 125.663886 
L 298.364845 123.537347 
L 302.462751 120.701937 
L 306.468613 117.963215 
L 309.599648 115.804398 
L 313.651532 113.001267 
L 316.73644 110.906933 
L 320.788324 108.071523 
L 327.971242 103.173984 
L 331.977 100.435189 
L 335.015991 98.30865 
L 339.159918 95.537723 
L 343.165781 92.766723 
L 346.29671 90.607979 
L 350.302573 87.869184 
L 353.295438 85.77485 
L 357.393343 82.971718 
L 361.399206 80.232923 
L 364.576262 78.041975 
L 368.582124 75.303179 
L 371.621011 73.241123 
L 375.718916 70.405714 
L 379.7708 67.634713 
L 382.901835 65.508175 
L 386.907592 62.769453 
L 389.946584 60.707323 
L 394.044489 57.871914 
L 398.050352 55.133118 
L 401.227303 53.006579 
L 405.233165 50.235653 
L 409.239028 47.496857 
L 412.370063 45.338114 
L 416.421946 42.599392 
L 419.552876 40.440575 
L 423.558738 37.669648 
L 427.51858 34.930852 
" clip-path="url(#p9b65a6ef3a)" style="fill: none; stroke: #1f77b4; stroke-width: 1.5; stroke-linecap: square"/>
   </g>
   <g id="line2d_18">
    <path d="M 66.34868 282.900068 
L 66.947254 282.513421 
L 69.341546 280.837954 
L 71.597704 279.226928 
L 74.866835 276.97149 
L 78.089923 274.683832 
L 80.39213 272.976145 
L 83.707303 270.656268 
L 87.022476 268.433049 
L 89.600949 266.757582 
L 93.100291 264.373265 
L 96.599645 261.924503 
L 99.362287 260.023493 
L 102.907683 257.510292 
L 105.57824 255.641501 
L 109.215721 253.096073 
L 112.761117 250.647311 
L 115.477717 248.746301 
L 118.97707 246.265319 
L 122.476424 243.784338 
L 125.193024 241.851108 
L 128.738419 239.402346 
L 131.501072 237.533555 
L 135.000426 235.084792 
L 138.499779 232.668257 
L 141.216368 230.799466 
L 144.715722 228.350704 
L 147.432332 226.449693 
L 150.977728 223.968712 
L 154.523113 221.51995 
L 157.239724 219.618939 
L 160.785109 217.170177 
L 164.422569 214.656969 
L 167.047157 212.820434 
L 170.59249 210.403832 
L 173.2631 208.502874 
L 176.71639 206.086345 
L 180.307849 203.605334 
L 182.932333 201.768785 
L 186.477665 199.319979 
L 189.194297 197.418946 
L 192.693713 195.002418 
L 196.285067 192.521481 
L 198.909656 190.684857 
L 202.408967 188.268329 
L 205.908384 185.787392 
L 208.578889 183.950769 
L 212.124327 181.469832 
L 214.74881 179.633282 
L 218.248121 177.21668 
L 221.793559 174.735743 
L 224.464064 172.899193 
L 228.055523 170.385978 
L 230.726133 168.549355 
L 234.225445 166.100622 
L 237.770883 163.619611 
L 240.441387 161.815266 
L 243.986825 159.334329 
L 246.65733 157.465501 
L 250.110725 155.048973 
L 253.656058 152.567962 
L 256.280541 150.763617 
L 259.779958 148.282679 
L 262.404441 146.478335 
L 265.903752 144.061733 
L 269.403169 141.613 
L 271.981631 139.776451 
L 275.526964 137.29544 
L 278.151552 135.45889 
L 281.696885 133.042362 
L 285.242323 130.561351 
L 287.820785 128.724802 
L 291.366223 126.276069 
L 293.990706 124.471724 
L 297.443996 122.055122 
L 300.943307 119.60639 
L 303.567791 117.802045 
L 307.067207 115.353312 
L 309.645669 113.548967 
L 313.098959 111.132439 
L 316.59827 108.715837 
L 319.176732 106.911493 
L 322.768192 104.46276 
L 325.392675 102.658415 
L 328.845965 100.274092 
L 332.345381 97.825359 
L 334.923843 96.021014 
L 338.423155 93.572208 
L 341.047638 91.735658 
L 344.501033 89.351335 
L 347.217559 87.482581 
L 350.670849 85.065979 
L 354.216287 82.585042 
L 356.794749 80.748492 
L 360.29406 78.364169 
L 362.918649 76.527545 
L 366.325917 74.143222 
L 369.825229 71.726694 
L 372.449712 69.922349 
L 375.85698 67.505821 
L 378.573612 65.669272 
" clip-path="url(#p9b65a6ef3a)" style="fill: none; stroke: #ff7f0e; stroke-width: 1.5; stroke-linecap: square"/>
   </g>
   <g id="line2d_19">
    <path d="M 64.737138 283.898903 
L 65.750109 283.222273 
L 68.1444 281.546805 
L 70.262431 280.06466 
L 72.979031 278.163651 
L 75.787716 276.262641 
L 77.905743 274.844936 
L 80.668395 272.911699 
L 82.786422 271.397336 
L 85.549065 269.431887 
L 88.403803 267.369772 
L 90.613914 265.855409 
L 93.560737 263.793294 
L 95.862944 262.182266 
L 98.85581 260.087932 
L 101.894717 257.961378 
L 104.104829 256.414796 
L 107.051652 254.352681 
L 109.353859 252.741653 
L 112.300682 250.679538 
L 115.293547 248.585196 
L 117.503669 247.038614 
L 120.450492 244.94428 
L 122.706657 243.39769 
L 125.65348 241.400014 
L 128.600303 239.273461 
L 130.810425 237.726871 
L 133.757248 235.696976 
L 136.750113 233.602641 
L 138.960225 232.023832 
L 141.95309 229.929498 
L 144.163212 228.382916 
L 147.110035 226.353021 
L 150.056847 224.258686 
L 152.220917 222.712097 
L 155.213782 220.617763 
L 157.423904 219.071173 
L 160.370727 217.041277 
L 163.363592 214.946943 
L 165.573735 213.432617 
L 168.566601 211.370488 
L 170.776681 209.823854 
L 173.677503 207.794003 
L 176.670369 205.731873 
L 178.880449 204.185313 
L 181.827293 202.090979 
L 184.72801 200.061054 
L 186.938195 198.546698 
L 189.93106 196.516774 
L 192.095119 195.002418 
L 195.041963 192.940289 
L 197.988702 190.878233 
L 200.244908 189.331599 
L 203.237774 187.301748 
L 205.401833 185.787392 
L 208.394698 183.693058 
L 210.604883 182.146424 
L 213.551622 180.116573 
L 216.544487 178.054443 
L 218.754672 176.507883 
L 221.747538 174.413549 
L 223.957618 172.89912 
L 226.85844 170.901473 
L 229.805179 168.839344 
L 232.061386 167.292784 
L 235.00823 165.230654 
L 237.21831 163.684094 
L 240.119132 161.654169 
L 242.375234 160.075404 
L 245.276056 158.077684 
L 248.268921 156.015554 
L 250.479002 154.468994 
L 253.379824 152.471348 
L 255.635926 150.924714 
L 258.536748 148.927067 
L 261.437465 146.864938 
L 263.601629 145.350582 
L 266.502346 143.352862 
L 268.758553 141.806302 
L 271.613249 139.776451 
L 273.915477 138.197612 
L 276.816195 136.199966 
L 279.717017 134.170041 
L 281.973224 132.591202 
L 284.873941 130.561351 
L 287.130148 129.014717 
L 290.030865 126.984866 
L 292.885666 124.987146 
L 295.141768 123.440586 
L 298.04259 121.410661 
L 300.298692 119.864101 
L 303.153493 117.866454 
L 306.008188 115.868734 
L 308.264395 114.289969 
L 311.165112 112.260044 
L 313.375298 110.713484 
L 316.229994 108.715764 
L 318.440074 107.201408 
L 321.386918 105.171557 
L 324.241719 103.173837 
" clip-path="url(#p9b65a6ef3a)" style="fill: none; stroke: #2ca02c; stroke-width: 1.5; stroke-linecap: square"/>
   </g>
   <g id="line2d_20">
    <path d="M 63.07955 285.026622 
L 63.954387 284.478873 
L 65.427799 283.447816 
L 67.499783 282.030112 
L 69.571762 280.612409 
L 71.091227 279.484691 
L 73.163211 278.002547 
L 74.866835 276.810385 
L 77.215085 275.199357 
L 79.609377 273.49167 
L 81.451138 272.20285 
L 83.845431 270.527383 
L 85.733245 269.238556 
L 88.127537 267.563088 
L 90.521829 265.887621 
L 92.363591 264.598801 
L 94.757883 262.923334 
L 96.599655 261.634514 
L 98.993948 259.959039 
L 101.342197 258.315799 
L 103.137916 257.059198 
L 105.532209 255.383724 
L 107.37397 254.127123 
L 109.768262 252.483875 
L 112.162555 250.808408 
L 114.004327 249.519588 
L 116.352576 247.87634 
L 118.746869 246.200873 
L 120.496545 244.944273 
L 122.890837 243.301025 
L 124.686557 242.012197 
L 127.080849 240.368949 
L 129.475141 238.693482 
L 131.27086 237.469101 
L 133.61911 235.858073 
L 135.414839 234.601472 
L 137.763089 232.990444 
L 140.111339 231.314976 
L 141.861015 230.090595 
L 144.209265 228.447347 
L 146.051016 227.158527 
L 148.399266 225.547499 
L 150.747505 223.872032 
L 152.497182 222.615431 
L 154.845421 220.972191 
L 156.641151 219.74781 
L 158.943347 218.104569 
L 161.33765 216.429094 
L 163.133369 215.204721 
L 165.435566 213.593692 
L 167.185222 212.337069 
L 169.533471 210.693822 
L 171.375275 209.405046 
L 173.677503 207.794003 
L 175.979626 206.150755 
L 177.82143 204.861905 
L 180.16968 203.250936 
L 181.965357 201.994291 
L 184.267585 200.383248 
L 186.615835 198.740074 
L 188.457638 197.451224 
L 190.759762 195.840181 
L 192.555544 194.551405 
L 194.949815 192.908158 
L 196.653449 191.683718 
L 199.04772 190.040543 
L 201.39597 188.4295 
L 203.145626 187.205134 
L 205.447854 185.59409 
L 207.19751 184.369724 
L 209.591781 182.694198 
L 211.341542 181.469832 
L 213.689791 179.794379 
L 216.038041 178.183336 
L 217.741675 176.958969 
L 220.135946 175.283517 
L 221.885602 174.091355 
L 224.233852 172.415903 
L 225.983507 171.159258 
L 228.331757 169.51601 
L 230.726028 167.872762 
L 232.475684 166.648396 
L 234.823933 165.005148 
L 236.573694 163.780781 
L 238.875817 162.169738 
L 240.6716 160.913167 
L 243.019849 159.302124 
L 245.368099 157.626671 
L 247.117755 156.3701 
L 249.466004 154.791262 
L 251.21566 153.534691 
L 253.56391 151.923648 
L 255.359587 150.699281 
L 257.661815 149.088238 
L 259.964043 147.44499 
L 261.713699 146.188419 
L 264.061949 144.577376 
L 265.857626 143.353009 
L 268.159854 141.774245 
L 270.462082 140.163201 
" clip-path="url(#p9b65a6ef3a)" style="fill: none; stroke: #d62728; stroke-width: 1.5; stroke-linecap: square"/>
   </g>
   <g id="line2d_21">
    <path d="M 61.191743 285.993238 
L 61.882404 285.542151 
L 62.941418 284.736637 
L 64.506918 283.608919 
L 66.11846 282.577861 
L 67.361651 281.740128 
L 69.019238 280.612409 
L 70.354516 279.678014 
L 72.150235 278.453633 
L 73.945954 277.164813 
L 75.373323 276.230414 
L 77.123 275.006033 
L 78.504316 274.071641 
L 80.346077 272.815041 
L 81.635319 271.880642 
L 83.431038 270.591822 
L 85.226757 269.367441 
L 86.608083 268.400829 
L 88.403803 267.176448 
L 89.785119 266.242049 
L 91.580838 265.049895 
L 93.376557 263.857733 
L 94.757883 262.923334 
L 96.461517 261.698953 
L 97.796791 260.764561 
L 99.59251 259.54018 
L 101.342187 258.283579 
L 102.677471 257.349188 
L 104.47319 256.124807 
L 105.808463 255.190407 
L 107.604182 253.966026 
L 109.353859 252.773865 
L 110.735186 251.807253 
L 112.484862 250.582872 
L 113.866178 249.680693 
L 115.615855 248.424092 
L 117.319489 247.199711 
L 118.700816 246.265319 
L 120.450492 245.040938 
L 121.785766 244.106539 
L 123.627527 242.882158 
L 124.962811 241.947766 
L 126.712488 240.723385 
L 128.508207 239.499004 
L 129.797438 238.564612 
L 131.6392 237.340231 
L 132.928441 236.438051 
L 134.72416 235.181451 
L 136.473837 233.95707 
L 137.80911 233.054897 
L 139.60483 231.830516 
L 140.940114 230.896124 
L 142.68979 229.671743 
L 144.025064 228.737344 
L 145.820783 227.512963 
L 147.57046 226.256362 
L 148.905744 225.321963 
L 150.701463 224.065363 
L 152.036747 223.16319 
L 153.786413 221.971029 
L 155.167739 221.00441 
L 156.871373 219.812248 
L 158.667093 218.587875 
L 160.002377 217.685702 
L 161.706011 216.49354 
L 163.041284 215.559141 
L 164.744929 214.33476 
L 166.080181 213.368134 
L 167.829837 212.143768 
L 169.579598 210.919402 
L 170.960872 209.985024 
L 172.664506 208.792863 
L 174.04578 207.826207 
L 175.749414 206.634046 
L 177.084772 205.699669 
L 178.880449 204.475302 
L 180.16968 203.540851 
L 181.965462 202.316485 
L 183.715118 201.092119 
L 185.004349 200.189946 
L 186.800026 198.933375 
L 188.135278 198.031203 
L 189.93106 196.774558 
L 191.220291 195.872386 
L 192.969947 194.648019 
L 194.719603 193.423653 
L 196.008834 192.521481 
L 197.758489 191.297114 
L 199.093847 190.362664 
L 200.797481 189.138297 
L 202.178755 188.236125 
L 203.882389 187.011758 
L 205.678066 185.755187 
L 207.013424 184.853015 
L 208.717058 183.660853 
L 210.052311 182.726403 
L 211.755945 181.534241 
L 213.045176 180.599864 
L 214.794831 179.407702 
L 216.498466 178.183336 
" clip-path="url(#p9b65a6ef3a)" style="fill: none; stroke: #9467bd; stroke-width: 1.5; stroke-linecap: square"/>
   </g>
   <g id="line2d_22">
    <path d="M 59.626244 286.830972 
L 60.132728 286.508767 
L 60.915478 286.025458 
L 61.882404 285.348828 
L 62.573065 284.86552 
L 63.678123 284.156667 
L 64.921314 283.351154 
L 65.88824 282.706744 
L 67.085386 281.86901 
L 67.960224 281.25682 
L 69.203414 280.451306 
L 70.124293 279.839116 
L 71.413535 279.001385 
L 72.288373 278.389194 
L 73.485519 277.58368 
L 74.682665 276.778166 
L 75.557503 276.198195 
L 76.754649 275.39268 
L 77.67553 274.78049 
L 78.826634 274.007202 
L 79.747515 273.362793 
L 80.944661 272.589498 
L 82.187849 271.751764 
L 83.062688 271.171793 
L 84.259834 270.366279 
L 85.180715 269.754088 
L 86.331818 268.948574 
L 87.528964 268.11084 
L 88.403803 267.530869 
L 89.600949 266.757582 
L 90.567872 266.113172 
L 91.765029 265.339877 
L 92.639867 264.727686 
L 93.837013 263.922172 
L 95.034159 263.148877 
L 95.908997 262.536686 
L 97.106143 261.731172 
L 98.027024 261.118982 
L 99.178128 260.313467 
L 100.375274 259.54018 
L 101.250112 258.927989 
L 102.447258 258.122475 
L 103.322097 257.510285 
L 104.519243 256.70477 
L 105.670346 255.899256 
L 106.545174 255.287066 
L 107.742331 254.513771 
L 108.663201 253.90158 
L 109.814305 253.096066 
L 110.735186 252.483883 
L 111.886289 251.710588 
L 113.083435 250.905074 
L 114.004316 250.260664 
L 115.15542 249.455149 
L 116.076301 248.875178 
L 117.227404 248.069671 
L 118.102242 247.457481 
L 119.299389 246.651967 
L 120.450492 245.814233 
L 121.371373 245.234262 
L 122.568519 244.396528 
L 123.4894 243.816557 
L 124.686546 243.011043 
L 125.561374 242.431079 
L 126.712477 241.625565 
L 127.587316 241.013374 
L 128.738419 240.240079 
L 129.6593 239.660115 
L 130.810404 238.854601 
L 132.00755 238.049087 
L 132.882388 237.436896 
L 134.033492 236.631382 
L 134.954362 236.019192 
L 136.105466 235.213677 
L 136.980304 234.601494 
L 138.17745 233.79598 
L 139.328554 232.990466 
L 140.203392 232.378275 
L 141.400538 231.572761 
L 142.229334 230.99279 
L 143.42647 230.155056 
L 144.347361 229.575092 
L 145.498454 228.737359 
L 146.373292 228.125168 
L 147.524385 227.319654 
L 148.721532 226.514147 
L 149.59637 225.901956 
L 150.793516 225.09645 
L 151.668354 224.516478 
L 152.819447 223.710964 
L 153.694286 223.066554 
L 154.845389 222.26104 
L 155.76627 221.681069 
L 156.917363 220.907774 
L 158.11452 220.134479 
L 158.989348 219.522296 
L 160.140451 218.749001 
L 161.061332 218.104584 
L 162.212436 217.331296 
L 163.041232 216.719106 
" clip-path="url(#p9b65a6ef3a)" style="fill: none; stroke: #8c564b; stroke-width: 1.5; stroke-linecap: square"/>
   </g>
   <g id="line2d_23">
    <path d="M 59.02767 287.185398 
L 59.257891 287.056516 
L 59.718332 286.830972 
L 60.270861 286.540987 
L 60.547125 286.379884 
L 60.961522 286.089899 
L 61.375919 285.864356 
L 62.020537 285.50993 
L 62.665153 285.123284 
L 63.125595 284.86552 
L 63.724168 284.478873 
L 64.184608 284.221109 
L 64.783181 283.866683 
L 65.289666 283.576698 
L 65.842196 283.222273 
L 66.440769 282.835626 
L 66.90121 282.577862 
L 67.499783 282.223436 
L 67.960224 281.933451 
L 68.558798 281.579026 
L 69.157371 281.2246 
L 69.571773 280.966836 
L 70.170346 280.612411 
L 70.630781 280.322426 
L 71.229354 279.968 
L 71.643757 279.710234 
L 72.24233 279.355813 
L 72.840903 278.969166 
L 73.255296 278.711403 
L 73.853869 278.356975 
L 74.452442 278.002547 
L 74.912888 277.712565 
L 75.465418 277.358137 
L 75.925854 277.100375 
L 76.524427 276.745947 
L 77.123 276.359306 
L 77.537403 276.069317 
L 78.089933 275.714889 
L 78.596411 275.457127 
L 79.148942 275.070479 
L 79.747515 274.716059 
L 80.161907 274.458289 
L 80.760491 274.071649 
L 81.359064 273.717221 
L 81.773457 273.427231 
L 82.37203 273.072811 
L 82.832465 272.782821 
L 83.384995 272.428401 
L 83.983568 272.041753 
L 84.397972 271.783983 
L 84.996545 271.397343 
L 85.410937 271.107354 
L 85.963468 270.720707 
L 86.562041 270.334059 
L 87.022476 270.076297 
L 87.621049 269.689649 
L 88.035452 269.399667 
L 88.587983 269.045239 
L 89.186556 268.658592 
L 89.646991 268.36861 
L 90.199522 267.981963 
L 90.659957 267.7242 
L 91.25853 267.337553 
L 91.672933 267.047571 
L 92.271506 266.693143 
L 92.870079 266.306495 
L 93.284472 266.016513 
L 93.883045 265.629866 
L 94.297448 265.339877 
L 94.896021 264.985456 
L 95.356456 264.695467 
L 95.908987 264.308819 
L 96.50756 263.922172 
L 96.967995 263.63219 
L 97.566568 263.277762 
L 97.980971 262.98778 
L 98.579544 262.601133 
L 99.132075 262.214485 
L 99.59251 261.924503 
L 100.145041 261.537856 
L 100.605476 261.247874 
L 101.204049 260.861227 
L 101.756579 260.506799 
L 102.170983 260.18459 
L 102.769556 259.830169 
L 103.229991 259.54018 
L 103.828574 259.185759 
L 104.381094 258.766892 
L 104.84154 258.509123 
L 105.440113 258.122475 
L 105.854516 257.832493 
L 106.407047 257.445846 
L 106.867482 257.155864 
L 107.466055 256.769216 
L 108.064628 256.414788 
L 108.479031 256.124807 
L 109.077604 255.738159 
L 109.492008 255.480389 
L 110.090581 255.093742 
L 110.643101 254.739314 
L 111.103546 254.417113 
" clip-path="url(#p9b65a6ef3a)" style="fill: none; stroke: #e377c2; stroke-width: 1.5; stroke-linecap: square"/>
   </g>
   <g id="line2d_24">
    <path d="M 59.02767 287.185398 
L 419.506854 34.930852 
L 419.506854 34.930852 
" clip-path="url(#p9b65a6ef3a)" style="fill: none; stroke: #7f7f7f; stroke-width: 1.5; stroke-linecap: square"/>
   </g>
   <g id="patch_3">
    <path d="M 40.603125 299.798125 
L 40.603125 22.318125 
" style="fill: none; stroke: #000000; stroke-width: 0.8; stroke-linejoin: miter; stroke-linecap: square"/>
   </g>
   <g id="patch_4">
    <path d="M 445.943125 299.798125 
L 445.943125 22.318125 
" style="fill: none; stroke: #000000; stroke-width: 0.8; stroke-linejoin: miter; stroke-linecap: square"/>
   </g>
   <g id="patch_5">
    <path d="M 40.603125 299.798125 
L 445.943125 299.798125 
" style="fill: none; stroke: #000000; stroke-width: 0.8; stroke-linejoin: miter; stroke-linecap: square"/>
   </g>
   <g id="patch_6">
    <path d="M 40.603125 22.318125 
L 445.943125 22.318125 
" style="fill: none; stroke: #000000; stroke-width: 0.8; stroke-linejoin: miter; stroke-linecap: square"/>
   </g>
   <g id="text_19">
    <!-- Right Position vs. Left position -->
    <g transform="translate(152.850313 16.318125) scale(0.12 -0.12)">
     <defs>
      <path id="DejaVuSans-76" d="M 191 3500 
L 800 3500 
L 1894 563 
L 2988 3500 
L 3597 3500 
L 2284 0 
L 1503 0 
L 191 3500 
z
" transform="scale(0.015625)"/>
      <path id="DejaVuSans-2e" d="M 684 794 
L 1344 794 
L 1344 0 
L 684 0 
L 684 794 
z
" transform="scale(0.015625)"/>
      <path id="DejaVuSans-70" d="M 1159 525 
L 1159 -1331 
L 581 -1331 
L 581 3500 
L 1159 3500 
L 1159 2969 
Q 1341 3281 1617 3432 
Q 1894 3584 2278 3584 
Q 2916 3584 3314 3078 
Q 3713 2572 3713 1747 
Q 3713 922 3314 415 
Q 2916 -91 2278 -91 
Q 1894 -91 1617 61 
Q 1341 213 1159 525 
z
M 3116 1747 
Q 3116 2381 2855 2742 
Q 2594 3103 2138 3103 
Q 1681 3103 1420 2742 
Q 1159 2381 1159 1747 
Q 1159 1113 1420 752 
Q 1681 391 2138 391 
Q 2594 391 2855 752 
Q 3116 1113 3116 1747 
z
" transform="scale(0.015625)"/>
     </defs>
     <use xlink:href="#DejaVuSans-52"/>
     <use xlink:href="#DejaVuSans-69" transform="translate(69.482422 0)"/>
     <use xlink:href="#DejaVuSans-67" transform="translate(97.265625 0)"/>
     <use xlink:href="#DejaVuSans-68" transform="translate(160.742188 0)"/>
     <use xlink:href="#DejaVuSans-74" transform="translate(224.121094 0)"/>
     <use xlink:href="#DejaVuSans-20" transform="translate(263.330078 0)"/>
     <use xlink:href="#DejaVuSans-50" transform="translate(295.117188 0)"/>
     <use xlink:href="#DejaVuSans-6f" transform="translate(351.794922 0)"/>
     <use xlink:href="#DejaVuSans-73" transform="translate(412.976562 0)"/>
     <use xlink:href="#DejaVuSans-69" transform="translate(465.076172 0)"/>
     <use xlink:href="#DejaVuSans-74" transform="translate(492.859375 0)"/>
     <use xlink:href="#DejaVuSans-69" transform="translate(532.068359 0)"/>
     <use xlink:href="#DejaVuSans-6f" transform="translate(559.851562 0)"/>
     <use xlink:href="#DejaVuSans-6e" transform="translate(621.033203 0)"/>
     <use xlink:href="#DejaVuSans-20" transform="translate(684.412109 0)"/>
     <use xlink:href="#DejaVuSans-76" transform="translate(716.199219 0)"/>
     <use xlink:href="#DejaVuSans-73" transform="translate(775.378906 0)"/>
     <use xlink:href="#DejaVuSans-2e" transform="translate(827.478516 0)"/>
     <use xlink:href="#DejaVuSans-20" transform="translate(859.265625 0)"/>
     <use xlink:href="#DejaVuSans-4c" transform="translate(891.052734 0)"/>
     <use xlink:href="#DejaVuSans-65" transform="translate(945.015625 0)"/>
     <use xlink:href="#DejaVuSans-66" transform="translate(1006.539062 0)"/>
     <use xlink:href="#DejaVuSans-74" transform="translate(1039.994141 0)"/>
     <use xlink:href="#DejaVuSans-20" transform="translate(1079.203125 0)"/>
     <use xlink:href="#DejaVuSans-70" transform="translate(1110.990234 0)"/>
     <use xlink:href="#DejaVuSans-6f" transform="translate(1174.466797 0)"/>
     <use xlink:href="#DejaVuSans-73" transform="translate(1235.648438 0)"/>
     <use xlink:href="#DejaVuSans-69" transform="translate(1287.748047 0)"/>
     <use xlink:href="#DejaVuSans-74" transform="translate(1315.53125 0)"/>
     <use xlink:href="#DejaVuSans-69" transform="translate(1354.740234 0)"/>
     <use xlink:href="#DejaVuSans-6f" transform="translate(1382.523438 0)"/>
     <use xlink:href="#DejaVuSans-6e" transform="translate(1443.705078 0)"/>
    </g>
   </g>
   <g id="legend_1">
    <g id="patch_7">
     <path d="M 322.418125 294.798125 
L 438.943125 294.798125 
Q 440.943125 294.798125 440.943125 292.798125 
L 440.943125 176.373125 
Q 440.943125 174.373125 438.943125 174.373125 
L 322.418125 174.373125 
Q 320.418125 174.373125 320.418125 176.373125 
L 320.418125 292.798125 
Q 320.418125 294.798125 322.418125 294.798125 
z
" style="fill: #ffffff; opacity: 0.8; stroke: #cccccc; stroke-linejoin: miter"/>
    </g>
    <g id="line2d_25">
     <path d="M 324.418125 182.471563 
L 334.418125 182.471563 
L 344.418125 182.471563 
" style="fill: none; stroke: #1f77b4; stroke-width: 1.5; stroke-linecap: square"/>
    </g>
    <g id="text_20">
     <!-- Ref Speed = 595 -->
     <g transform="translate(352.418125 185.971563) scale(0.1 -0.1)">
      <defs>
       <path id="DejaVuSans-53" d="M 3425 4513 
L 3425 3897 
Q 3066 4069 2747 4153 
Q 2428 4238 2131 4238 
Q 1616 4238 1336 4038 
Q 1056 3838 1056 3469 
Q 1056 3159 1242 3001 
Q 1428 2844 1947 2747 
L 2328 2669 
Q 3034 2534 3370 2195 
Q 3706 1856 3706 1288 
Q 3706 609 3251 259 
Q 2797 -91 1919 -91 
Q 1588 -91 1214 -16 
Q 841 59 441 206 
L 441 856 
Q 825 641 1194 531 
Q 1563 422 1919 422 
Q 2459 422 2753 634 
Q 3047 847 3047 1241 
Q 3047 1584 2836 1778 
Q 2625 1972 2144 2069 
L 1759 2144 
Q 1053 2284 737 2584 
Q 422 2884 422 3419 
Q 422 4038 858 4394 
Q 1294 4750 2059 4750 
Q 2388 4750 2728 4690 
Q 3069 4631 3425 4513 
z
" transform="scale(0.015625)"/>
       <path id="DejaVuSans-3d" d="M 678 2906 
L 4684 2906 
L 4684 2381 
L 678 2381 
L 678 2906 
z
M 678 1631 
L 4684 1631 
L 4684 1100 
L 678 1100 
L 678 1631 
z
" transform="scale(0.015625)"/>
       <path id="DejaVuSans-39" d="M 703 97 
L 703 672 
Q 941 559 1184 500 
Q 1428 441 1663 441 
Q 2288 441 2617 861 
Q 2947 1281 2994 2138 
Q 2813 1869 2534 1725 
Q 2256 1581 1919 1581 
Q 1219 1581 811 2004 
Q 403 2428 403 3163 
Q 403 3881 828 4315 
Q 1253 4750 1959 4750 
Q 2769 4750 3195 4129 
Q 3622 3509 3622 2328 
Q 3622 1225 3098 567 
Q 2575 -91 1691 -91 
Q 1453 -91 1209 -44 
Q 966 3 703 97 
z
M 1959 2075 
Q 2384 2075 2632 2365 
Q 2881 2656 2881 3163 
Q 2881 3666 2632 3958 
Q 2384 4250 1959 4250 
Q 1534 4250 1286 3958 
Q 1038 3666 1038 3163 
Q 1038 2656 1286 2365 
Q 1534 2075 1959 2075 
z
" transform="scale(0.015625)"/>
      </defs>
      <use xlink:href="#DejaVuSans-52"/>
      <use xlink:href="#DejaVuSans-65" transform="translate(64.982422 0)"/>
      <use xlink:href="#DejaVuSans-66" transform="translate(126.505859 0)"/>
      <use xlink:href="#DejaVuSans-20" transform="translate(161.710938 0)"/>
      <use xlink:href="#DejaVuSans-53" transform="translate(193.498047 0)"/>
      <use xlink:href="#DejaVuSans-70" transform="translate(256.974609 0)"/>
      <use xlink:href="#DejaVuSans-65" transform="translate(320.451172 0)"/>
      <use xlink:href="#DejaVuSans-65" transform="translate(381.974609 0)"/>
      <use xlink:href="#DejaVuSans-64" transform="translate(443.498047 0)"/>
      <use xlink:href="#DejaVuSans-20" transform="translate(506.974609 0)"/>
      <use xlink:href="#DejaVuSans-3d" transform="translate(538.761719 0)"/>
      <use xlink:href="#DejaVuSans-20" transform="translate(622.550781 0)"/>
      <use xlink:href="#DejaVuSans-35" transform="translate(654.337891 0)"/>
      <use xlink:href="#DejaVuSans-39" transform="translate(717.960938 0)"/>
      <use xlink:href="#DejaVuSans-35" transform="translate(781.583984 0)"/>
     </g>
    </g>
    <g id="line2d_26">
     <path d="M 324.418125 197.149688 
L 334.418125 197.149688 
L 344.418125 197.149688 
" style="fill: none; stroke: #ff7f0e; stroke-width: 1.5; stroke-linecap: square"/>
    </g>
    <g id="text_21">
     <!-- Ref Speed = 510 -->
     <g transform="translate(352.418125 200.649688) scale(0.1 -0.1)">
      <use xlink:href="#DejaVuSans-52"/>
      <use xlink:href="#DejaVuSans-65" transform="translate(64.982422 0)"/>
      <use xlink:href="#DejaVuSans-66" transform="translate(126.505859 0)"/>
      <use xlink:href="#DejaVuSans-20" transform="translate(161.710938 0)"/>
      <use xlink:href="#DejaVuSans-53" transform="translate(193.498047 0)"/>
      <use xlink:href="#DejaVuSans-70" transform="translate(256.974609 0)"/>
      <use xlink:href="#DejaVuSans-65" transform="translate(320.451172 0)"/>
      <use xlink:href="#DejaVuSans-65" transform="translate(381.974609 0)"/>
      <use xlink:href="#DejaVuSans-64" transform="translate(443.498047 0)"/>
      <use xlink:href="#DejaVuSans-20" transform="translate(506.974609 0)"/>
      <use xlink:href="#DejaVuSans-3d" transform="translate(538.761719 0)"/>
      <use xlink:href="#DejaVuSans-20" transform="translate(622.550781 0)"/>
      <use xlink:href="#DejaVuSans-35" transform="translate(654.337891 0)"/>
      <use xlink:href="#DejaVuSans-31" transform="translate(717.960938 0)"/>
      <use xlink:href="#DejaVuSans-30" transform="translate(781.583984 0)"/>
     </g>
    </g>
    <g id="line2d_27">
     <path d="M 324.418125 211.827813 
L 334.418125 211.827813 
L 344.418125 211.827813 
" style="fill: none; stroke: #2ca02c; stroke-width: 1.5; stroke-linecap: square"/>
    </g>
    <g id="text_22">
     <!-- Ref Speed = 425 -->
     <g transform="translate(352.418125 215.327813) scale(0.1 -0.1)">
      <defs>
       <path id="DejaVuSans-34" d="M 2419 4116 
L 825 1625 
L 2419 1625 
L 2419 4116 
z
M 2253 4666 
L 3047 4666 
L 3047 1625 
L 3713 1625 
L 3713 1100 
L 3047 1100 
L 3047 0 
L 2419 0 
L 2419 1100 
L 313 1100 
L 313 1709 
L 2253 4666 
z
" transform="scale(0.015625)"/>
      </defs>
      <use xlink:href="#DejaVuSans-52"/>
      <use xlink:href="#DejaVuSans-65" transform="translate(64.982422 0)"/>
      <use xlink:href="#DejaVuSans-66" transform="translate(126.505859 0)"/>
      <use xlink:href="#DejaVuSans-20" transform="translate(161.710938 0)"/>
      <use xlink:href="#DejaVuSans-53" transform="translate(193.498047 0)"/>
      <use xlink:href="#DejaVuSans-70" transform="translate(256.974609 0)"/>
      <use xlink:href="#DejaVuSans-65" transform="translate(320.451172 0)"/>
      <use xlink:href="#DejaVuSans-65" transform="translate(381.974609 0)"/>
      <use xlink:href="#DejaVuSans-64" transform="translate(443.498047 0)"/>
      <use xlink:href="#DejaVuSans-20" transform="translate(506.974609 0)"/>
      <use xlink:href="#DejaVuSans-3d" transform="translate(538.761719 0)"/>
      <use xlink:href="#DejaVuSans-20" transform="translate(622.550781 0)"/>
      <use xlink:href="#DejaVuSans-34" transform="translate(654.337891 0)"/>
      <use xlink:href="#DejaVuSans-32" transform="translate(717.960938 0)"/>
      <use xlink:href="#DejaVuSans-35" transform="translate(781.583984 0)"/>
     </g>
    </g>
    <g id="line2d_28">
     <path d="M 324.418125 226.505938 
L 334.418125 226.505938 
L 344.418125 226.505938 
" style="fill: none; stroke: #d62728; stroke-width: 1.5; stroke-linecap: square"/>
    </g>
    <g id="text_23">
     <!-- Ref Speed = 340 -->
     <g transform="translate(352.418125 230.005938) scale(0.1 -0.1)">
      <use xlink:href="#DejaVuSans-52"/>
      <use xlink:href="#DejaVuSans-65" transform="translate(64.982422 0)"/>
      <use xlink:href="#DejaVuSans-66" transform="translate(126.505859 0)"/>
      <use xlink:href="#DejaVuSans-20" transform="translate(161.710938 0)"/>
      <use xlink:href="#DejaVuSans-53" transform="translate(193.498047 0)"/>
      <use xlink:href="#DejaVuSans-70" transform="translate(256.974609 0)"/>
      <use xlink:href="#DejaVuSans-65" transform="translate(320.451172 0)"/>
      <use xlink:href="#DejaVuSans-65" transform="translate(381.974609 0)"/>
      <use xlink:href="#DejaVuSans-64" transform="translate(443.498047 0)"/>
      <use xlink:href="#DejaVuSans-20" transform="translate(506.974609 0)"/>
      <use xlink:href="#DejaVuSans-3d" transform="translate(538.761719 0)"/>
      <use xlink:href="#DejaVuSans-20" transform="translate(622.550781 0)"/>
      <use xlink:href="#DejaVuSans-33" transform="translate(654.337891 0)"/>
      <use xlink:href="#DejaVuSans-34" transform="translate(717.960938 0)"/>
      <use xlink:href="#DejaVuSans-30" transform="translate(781.583984 0)"/>
     </g>
    </g>
    <g id="line2d_29">
     <path d="M 324.418125 241.184063 
L 334.418125 241.184063 
L 344.418125 241.184063 
" style="fill: none; stroke: #9467bd; stroke-width: 1.5; stroke-linecap: square"/>
    </g>
    <g id="text_24">
     <!-- Ref Speed = 255 -->
     <g transform="translate(352.418125 244.684063) scale(0.1 -0.1)">
      <use xlink:href="#DejaVuSans-52"/>
      <use xlink:href="#DejaVuSans-65" transform="translate(64.982422 0)"/>
      <use xlink:href="#DejaVuSans-66" transform="translate(126.505859 0)"/>
      <use xlink:href="#DejaVuSans-20" transform="translate(161.710938 0)"/>
      <use xlink:href="#DejaVuSans-53" transform="translate(193.498047 0)"/>
      <use xlink:href="#DejaVuSans-70" transform="translate(256.974609 0)"/>
      <use xlink:href="#DejaVuSans-65" transform="translate(320.451172 0)"/>
      <use xlink:href="#DejaVuSans-65" transform="translate(381.974609 0)"/>
      <use xlink:href="#DejaVuSans-64" transform="translate(443.498047 0)"/>
      <use xlink:href="#DejaVuSans-20" transform="translate(506.974609 0)"/>
      <use xlink:href="#DejaVuSans-3d" transform="translate(538.761719 0)"/>
      <use xlink:href="#DejaVuSans-20" transform="translate(622.550781 0)"/>
      <use xlink:href="#DejaVuSans-32" transform="translate(654.337891 0)"/>
      <use xlink:href="#DejaVuSans-35" transform="translate(717.960938 0)"/>
      <use xlink:href="#DejaVuSans-35" transform="translate(781.583984 0)"/>
     </g>
    </g>
    <g id="line2d_30">
     <path d="M 324.418125 255.862188 
L 334.418125 255.862188 
L 344.418125 255.862188 
" style="fill: none; stroke: #8c564b; stroke-width: 1.5; stroke-linecap: square"/>
    </g>
    <g id="text_25">
     <!-- Ref Speed = 170 -->
     <g transform="translate(352.418125 259.362188) scale(0.1 -0.1)">
      <defs>
       <path id="DejaVuSans-37" d="M 525 4666 
L 3525 4666 
L 3525 4397 
L 1831 0 
L 1172 0 
L 2766 4134 
L 525 4134 
L 525 4666 
z
" transform="scale(0.015625)"/>
      </defs>
      <use xlink:href="#DejaVuSans-52"/>
      <use xlink:href="#DejaVuSans-65" transform="translate(64.982422 0)"/>
      <use xlink:href="#DejaVuSans-66" transform="translate(126.505859 0)"/>
      <use xlink:href="#DejaVuSans-20" transform="translate(161.710938 0)"/>
      <use xlink:href="#DejaVuSans-53" transform="translate(193.498047 0)"/>
      <use xlink:href="#DejaVuSans-70" transform="translate(256.974609 0)"/>
      <use xlink:href="#DejaVuSans-65" transform="translate(320.451172 0)"/>
      <use xlink:href="#DejaVuSans-65" transform="translate(381.974609 0)"/>
      <use xlink:href="#DejaVuSans-64" transform="translate(443.498047 0)"/>
      <use xlink:href="#DejaVuSans-20" transform="translate(506.974609 0)"/>
      <use xlink:href="#DejaVuSans-3d" transform="translate(538.761719 0)"/>
      <use xlink:href="#DejaVuSans-20" transform="translate(622.550781 0)"/>
      <use xlink:href="#DejaVuSans-31" transform="translate(654.337891 0)"/>
      <use xlink:href="#DejaVuSans-37" transform="translate(717.960938 0)"/>
      <use xlink:href="#DejaVuSans-30" transform="translate(781.583984 0)"/>
     </g>
    </g>
    <g id="line2d_31">
     <path d="M 324.418125 270.540313 
L 334.418125 270.540313 
L 344.418125 270.540313 
" style="fill: none; stroke: #e377c2; stroke-width: 1.5; stroke-linecap: square"/>
    </g>
    <g id="text_26">
     <!-- Ref Speed = 85 -->
     <g transform="translate(352.418125 274.040313) scale(0.1 -0.1)">
      <defs>
       <path id="DejaVuSans-38" d="M 2034 2216 
Q 1584 2216 1326 1975 
Q 1069 1734 1069 1313 
Q 1069 891 1326 650 
Q 1584 409 2034 409 
Q 2484 409 2743 651 
Q 3003 894 3003 1313 
Q 3003 1734 2745 1975 
Q 2488 2216 2034 2216 
z
M 1403 2484 
Q 997 2584 770 2862 
Q 544 3141 544 3541 
Q 544 4100 942 4425 
Q 1341 4750 2034 4750 
Q 2731 4750 3128 4425 
Q 3525 4100 3525 3541 
Q 3525 3141 3298 2862 
Q 3072 2584 2669 2484 
Q 3125 2378 3379 2068 
Q 3634 1759 3634 1313 
Q 3634 634 3220 271 
Q 2806 -91 2034 -91 
Q 1263 -91 848 271 
Q 434 634 434 1313 
Q 434 1759 690 2068 
Q 947 2378 1403 2484 
z
M 1172 3481 
Q 1172 3119 1398 2916 
Q 1625 2713 2034 2713 
Q 2441 2713 2670 2916 
Q 2900 3119 2900 3481 
Q 2900 3844 2670 4047 
Q 2441 4250 2034 4250 
Q 1625 4250 1398 4047 
Q 1172 3844 1172 3481 
z
" transform="scale(0.015625)"/>
      </defs>
      <use xlink:href="#DejaVuSans-52"/>
      <use xlink:href="#DejaVuSans-65" transform="translate(64.982422 0)"/>
      <use xlink:href="#DejaVuSans-66" transform="translate(126.505859 0)"/>
      <use xlink:href="#DejaVuSans-20" transform="translate(161.710938 0)"/>
      <use xlink:href="#DejaVuSans-53" transform="translate(193.498047 0)"/>
      <use xlink:href="#DejaVuSans-70" transform="translate(256.974609 0)"/>
      <use xlink:href="#DejaVuSans-65" transform="translate(320.451172 0)"/>
      <use xlink:href="#DejaVuSans-65" transform="translate(381.974609 0)"/>
      <use xlink:href="#DejaVuSans-64" transform="translate(443.498047 0)"/>
      <use xlink:href="#DejaVuSans-20" transform="translate(506.974609 0)"/>
      <use xlink:href="#DejaVuSans-3d" transform="translate(538.761719 0)"/>
      <use xlink:href="#DejaVuSans-20" transform="translate(622.550781 0)"/>
      <use xlink:href="#DejaVuSans-38" transform="translate(654.337891 0)"/>
      <use xlink:href="#DejaVuSans-35" transform="translate(717.960938 0)"/>
     </g>
    </g>
    <g id="line2d_32">
     <path d="M 324.418125 285.218438 
L 334.418125 285.218438 
L 344.418125 285.218438 
" style="fill: none; stroke: #7f7f7f; stroke-width: 1.5; stroke-linecap: square"/>
    </g>
    <g id="text_27">
     <!-- y = x -->
     <g transform="translate(352.418125 288.718438) scale(0.1 -0.1)">
      <defs>
       <path id="DejaVuSans-79" d="M 2059 -325 
Q 1816 -950 1584 -1140 
Q 1353 -1331 966 -1331 
L 506 -1331 
L 506 -850 
L 844 -850 
Q 1081 -850 1212 -737 
Q 1344 -625 1503 -206 
L 1606 56 
L 191 3500 
L 800 3500 
L 1894 763 
L 2988 3500 
L 3597 3500 
L 2059 -325 
z
" transform="scale(0.015625)"/>
       <path id="DejaVuSans-78" d="M 3513 3500 
L 2247 1797 
L 3578 0 
L 2900 0 
L 1881 1375 
L 863 0 
L 184 0 
L 1544 1831 
L 300 3500 
L 978 3500 
L 1906 2253 
L 2834 3500 
L 3513 3500 
z
" transform="scale(0.015625)"/>
      </defs>
      <use xlink:href="#DejaVuSans-79"/>
      <use xlink:href="#DejaVuSans-20" transform="translate(59.179688 0)"/>
      <use xlink:href="#DejaVuSans-3d" transform="translate(90.966797 0)"/>
      <use xlink:href="#DejaVuSans-20" transform="translate(174.755859 0)"/>
      <use xlink:href="#DejaVuSans-78" transform="translate(206.542969 0)"/>
     </g>
    </g>
   </g>
  </g>
 </g>
 <defs>
  <clipPath id="p9b65a6ef3a">
   <rect x="40.603125" y="22.318125" width="405.34" height="277.48"/>
  </clipPath>
 </defs>
</svg>
