<?xml version="1.0" encoding="utf-8" standalone="no"?>
<!DOCTYPE svg PUBLIC "-//W3C//DTD SVG 1.1//EN"
  "http://www.w3.org/Graphics/SVG/1.1/DTD/svg11.dtd">
<svg xmlns:xlink="http://www.w3.org/1999/xlink" width="453.143125pt" height="337.354375pt" viewBox="0 0 453.143125 337.354375" xmlns="http://www.w3.org/2000/svg" version="1.1">
 <metadata>
  <rdf:RDF xmlns:dc="http://purl.org/dc/elements/1.1/" xmlns:cc="http://creativecommons.org/ns#" xmlns:rdf="http://www.w3.org/1999/02/22-rdf-syntax-ns#">
   <cc:Work>
    <dc:type rdf:resource="http://purl.org/dc/dcmitype/StillImage"/>
    <dc:date>2025-10-28T18:36:45.888835</dc:date>
    <dc:format>image/svg+xml</dc:format>
    <dc:creator>
     <cc:Agent>
      <dc:title>Matplotlib v3.10.6, https://matplotlib.org/</dc:title>
     </cc:Agent>
    </dc:creator>
   </cc:Work>
  </rdf:RDF>
 </metadata>
 <defs>
  <style type="text/css">*{stroke-linejoin: round; stroke-linecap: butt}</style>
 </defs>
 <g id="figure_1">
  <g id="patch_1">
   <path d="M 0 337.354375 
L 453.143125 337.354375 
L 453.143125 0 
L 0 0 
z
" style="fill: #ffffff"/>
  </g>
  <g id="axes_1">
   <g id="patch_2">
    <path d="M 40.603125 299.798125 
L 445.943125 299.798125 
L 445.943125 22.318125 
L 40.603125 22.318125 
z
" style="fill: #ffffff"/>
   </g>
   <g id="matplotlib.axis_1">
    <g id="xtick_1">
     <g id="line2d_1">
      <defs>
       <path id="m24b4db0e8a" d="M 0 0 
L 0 3.5 
" style="stroke: #000000; stroke-width: 0.8"/>
      </defs>
      <g>
       <use xlink:href="#m24b4db0e8a" x="58.848683" y="299.798125" style="stroke: #000000; stroke-width: 0.8"/>
      </g>
     </g>
     <g id="text_1">
      <!-- 0.00 -->
      <g transform="translate(47.715871 314.396563) scale(0.1 -0.1)">
       <defs>
        <path id="DejaVuSans-30" d="M 2034 4250 
Q 1547 4250 1301 3770 
Q 1056 3291 1056 2328 
Q 1056 1369 1301 889 
Q 1547 409 2034 409 
Q 2525 409 2770 889 
Q 3016 1369 3016 2328 
Q 3016 3291 2770 3770 
Q 2525 4250 2034 4250 
z
M 2034 4750 
Q 2819 4750 3233 4129 
Q 3647 3509 3647 2328 
Q 3647 1150 3233 529 
Q 2819 -91 2034 -91 
Q 1250 -91 836 529 
Q 422 1150 422 2328 
Q 422 3509 836 4129 
Q 1250 4750 2034 4750 
z
" transform="scale(0.015625)"/>
        <path id="DejaVuSans-2e" d="M 684 794 
L 1344 794 
L 1344 0 
L 684 0 
L 684 794 
z
" transform="scale(0.015625)"/>
       </defs>
       <use xlink:href="#DejaVuSans-30"/>
       <use xlink:href="#DejaVuSans-2e" transform="translate(63.623047 0)"/>
       <use xlink:href="#DejaVuSans-30" transform="translate(95.410156 0)"/>
       <use xlink:href="#DejaVuSans-30" transform="translate(159.033203 0)"/>
      </g>
     </g>
    </g>
    <g id="xtick_2">
     <g id="line2d_2">
      <g>
       <use xlink:href="#m24b4db0e8a" x="104.931844" y="299.798125" style="stroke: #000000; stroke-width: 0.8"/>
      </g>
     </g>
     <g id="text_2">
      <!-- 0.25 -->
      <g transform="translate(93.799032 314.396563) scale(0.1 -0.1)">
       <defs>
        <path id="DejaVuSans-32" d="M 1228 531 
L 3431 531 
L 3431 0 
L 469 0 
L 469 531 
Q 828 903 1448 1529 
Q 2069 2156 2228 2338 
Q 2531 2678 2651 2914 
Q 2772 3150 2772 3378 
Q 2772 3750 2511 3984 
Q 2250 4219 1831 4219 
Q 1534 4219 1204 4116 
Q 875 4013 500 3803 
L 500 4441 
Q 881 4594 1212 4672 
Q 1544 4750 1819 4750 
Q 2544 4750 2975 4387 
Q 3406 4025 3406 3419 
Q 3406 3131 3298 2873 
Q 3191 2616 2906 2266 
Q 2828 2175 2409 1742 
Q 1991 1309 1228 531 
z
" transform="scale(0.015625)"/>
        <path id="DejaVuSans-35" d="M 691 4666 
L 3169 4666 
L 3169 4134 
L 1269 4134 
L 1269 2991 
Q 1406 3038 1543 3061 
Q 1681 3084 1819 3084 
Q 2600 3084 3056 2656 
Q 3513 2228 3513 1497 
Q 3513 744 3044 326 
Q 2575 -91 1722 -91 
Q 1428 -91 1123 -41 
Q 819 9 494 109 
L 494 744 
Q 775 591 1075 516 
Q 1375 441 1709 441 
Q 2250 441 2565 725 
Q 2881 1009 2881 1497 
Q 2881 1984 2565 2268 
Q 2250 2553 1709 2553 
Q 1456 2553 1204 2497 
Q 953 2441 691 2322 
L 691 4666 
z
" transform="scale(0.015625)"/>
       </defs>
       <use xlink:href="#DejaVuSans-30"/>
       <use xlink:href="#DejaVuSans-2e" transform="translate(63.623047 0)"/>
       <use xlink:href="#DejaVuSans-32" transform="translate(95.410156 0)"/>
       <use xlink:href="#DejaVuSans-35" transform="translate(159.033203 0)"/>
      </g>
     </g>
    </g>
    <g id="xtick_3">
     <g id="line2d_3">
      <g>
       <use xlink:href="#m24b4db0e8a" x="151.015005" y="299.798125" style="stroke: #000000; stroke-width: 0.8"/>
      </g>
     </g>
     <g id="text_3">
      <!-- 0.50 -->
      <g transform="translate(139.882193 314.396563) scale(0.1 -0.1)">
       <use xlink:href="#DejaVuSans-30"/>
       <use xlink:href="#DejaVuSans-2e" transform="translate(63.623047 0)"/>
       <use xlink:href="#DejaVuSans-35" transform="translate(95.410156 0)"/>
       <use xlink:href="#DejaVuSans-30" transform="translate(159.033203 0)"/>
      </g>
     </g>
    </g>
    <g id="xtick_4">
     <g id="line2d_4">
      <g>
       <use xlink:href="#m24b4db0e8a" x="197.098166" y="299.798125" style="stroke: #000000; stroke-width: 0.8"/>
      </g>
     </g>
     <g id="text_4">
      <!-- 0.75 -->
      <g transform="translate(185.965354 314.396563) scale(0.1 -0.1)">
       <defs>
        <path id="DejaVuSans-37" d="M 525 4666 
L 3525 4666 
L 3525 4397 
L 1831 0 
L 1172 0 
L 2766 4134 
L 525 4134 
L 525 4666 
z
" transform="scale(0.015625)"/>
       </defs>
       <use xlink:href="#DejaVuSans-30"/>
       <use xlink:href="#DejaVuSans-2e" transform="translate(63.623047 0)"/>
       <use xlink:href="#DejaVuSans-37" transform="translate(95.410156 0)"/>
       <use xlink:href="#DejaVuSans-35" transform="translate(159.033203 0)"/>
      </g>
     </g>
    </g>
    <g id="xtick_5">
     <g id="line2d_5">
      <g>
       <use xlink:href="#m24b4db0e8a" x="243.181327" y="299.798125" style="stroke: #000000; stroke-width: 0.8"/>
      </g>
     </g>
     <g id="text_5">
      <!-- 1.00 -->
      <g transform="translate(232.048515 314.396563) scale(0.1 -0.1)">
       <defs>
        <path id="DejaVuSans-31" d="M 794 531 
L 1825 531 
L 1825 4091 
L 703 3866 
L 703 4441 
L 1819 4666 
L 2450 4666 
L 2450 531 
L 3481 531 
L 3481 0 
L 794 0 
L 794 531 
z
" transform="scale(0.015625)"/>
       </defs>
       <use xlink:href="#DejaVuSans-31"/>
       <use xlink:href="#DejaVuSans-2e" transform="translate(63.623047 0)"/>
       <use xlink:href="#DejaVuSans-30" transform="translate(95.410156 0)"/>
       <use xlink:href="#DejaVuSans-30" transform="translate(159.033203 0)"/>
      </g>
     </g>
    </g>
    <g id="xtick_6">
     <g id="line2d_6">
      <g>
       <use xlink:href="#m24b4db0e8a" x="289.264488" y="299.798125" style="stroke: #000000; stroke-width: 0.8"/>
      </g>
     </g>
     <g id="text_6">
      <!-- 1.25 -->
      <g transform="translate(278.131676 314.396563) scale(0.1 -0.1)">
       <use xlink:href="#DejaVuSans-31"/>
       <use xlink:href="#DejaVuSans-2e" transform="translate(63.623047 0)"/>
       <use xlink:href="#DejaVuSans-32" transform="translate(95.410156 0)"/>
       <use xlink:href="#DejaVuSans-35" transform="translate(159.033203 0)"/>
      </g>
     </g>
    </g>
    <g id="xtick_7">
     <g id="line2d_7">
      <g>
       <use xlink:href="#m24b4db0e8a" x="335.347649" y="299.798125" style="stroke: #000000; stroke-width: 0.8"/>
      </g>
     </g>
     <g id="text_7">
      <!-- 1.50 -->
      <g transform="translate(324.214837 314.396563) scale(0.1 -0.1)">
       <use xlink:href="#DejaVuSans-31"/>
       <use xlink:href="#DejaVuSans-2e" transform="translate(63.623047 0)"/>
       <use xlink:href="#DejaVuSans-35" transform="translate(95.410156 0)"/>
       <use xlink:href="#DejaVuSans-30" transform="translate(159.033203 0)"/>
      </g>
     </g>
    </g>
    <g id="xtick_8">
     <g id="line2d_8">
      <g>
       <use xlink:href="#m24b4db0e8a" x="381.43081" y="299.798125" style="stroke: #000000; stroke-width: 0.8"/>
      </g>
     </g>
     <g id="text_8">
      <!-- 1.75 -->
      <g transform="translate(370.297998 314.396563) scale(0.1 -0.1)">
       <use xlink:href="#DejaVuSans-31"/>
       <use xlink:href="#DejaVuSans-2e" transform="translate(63.623047 0)"/>
       <use xlink:href="#DejaVuSans-37" transform="translate(95.410156 0)"/>
       <use xlink:href="#DejaVuSans-35" transform="translate(159.033203 0)"/>
      </g>
     </g>
    </g>
    <g id="xtick_9">
     <g id="line2d_9">
      <g>
       <use xlink:href="#m24b4db0e8a" x="427.513971" y="299.798125" style="stroke: #000000; stroke-width: 0.8"/>
      </g>
     </g>
     <g id="text_9">
      <!-- 2.00 -->
      <g transform="translate(416.381159 314.396563) scale(0.1 -0.1)">
       <use xlink:href="#DejaVuSans-32"/>
       <use xlink:href="#DejaVuSans-2e" transform="translate(63.623047 0)"/>
       <use xlink:href="#DejaVuSans-30" transform="translate(95.410156 0)"/>
       <use xlink:href="#DejaVuSans-30" transform="translate(159.033203 0)"/>
      </g>
     </g>
    </g>
    <g id="text_10">
     <!-- time, t (us) -->
     <g transform="translate(215.574688 328.074688) scale(0.1 -0.1)">
      <defs>
       <path id="DejaVuSans-74" d="M 1172 4494 
L 1172 3500 
L 2356 3500 
L 2356 3053 
L 1172 3053 
L 1172 1153 
Q 1172 725 1289 603 
Q 1406 481 1766 481 
L 2356 481 
L 2356 0 
L 1766 0 
Q 1100 0 847 248 
Q 594 497 594 1153 
L 594 3053 
L 172 3053 
L 172 3500 
L 594 3500 
L 594 4494 
L 1172 4494 
z
" transform="scale(0.015625)"/>
       <path id="DejaVuSans-69" d="M 603 3500 
L 1178 3500 
L 1178 0 
L 603 0 
L 603 3500 
z
M 603 4863 
L 1178 4863 
L 1178 4134 
L 603 4134 
L 603 4863 
z
" transform="scale(0.015625)"/>
       <path id="DejaVuSans-6d" d="M 3328 2828 
Q 3544 3216 3844 3400 
Q 4144 3584 4550 3584 
Q 5097 3584 5394 3201 
Q 5691 2819 5691 2113 
L 5691 0 
L 5113 0 
L 5113 2094 
Q 5113 2597 4934 2840 
Q 4756 3084 4391 3084 
Q 3944 3084 3684 2787 
Q 3425 2491 3425 1978 
L 3425 0 
L 2847 0 
L 2847 2094 
Q 2847 2600 2669 2842 
Q 2491 3084 2119 3084 
Q 1678 3084 1418 2786 
Q 1159 2488 1159 1978 
L 1159 0 
L 581 0 
L 581 3500 
L 1159 3500 
L 1159 2956 
Q 1356 3278 1631 3431 
Q 1906 3584 2284 3584 
Q 2666 3584 2933 3390 
Q 3200 3197 3328 2828 
z
" transform="scale(0.015625)"/>
       <path id="DejaVuSans-65" d="M 3597 1894 
L 3597 1613 
L 953 1613 
Q 991 1019 1311 708 
Q 1631 397 2203 397 
Q 2534 397 2845 478 
Q 3156 559 3463 722 
L 3463 178 
Q 3153 47 2828 -22 
Q 2503 -91 2169 -91 
Q 1331 -91 842 396 
Q 353 884 353 1716 
Q 353 2575 817 3079 
Q 1281 3584 2069 3584 
Q 2775 3584 3186 3129 
Q 3597 2675 3597 1894 
z
M 3022 2063 
Q 3016 2534 2758 2815 
Q 2500 3097 2075 3097 
Q 1594 3097 1305 2825 
Q 1016 2553 972 2059 
L 3022 2063 
z
" transform="scale(0.015625)"/>
       <path id="DejaVuSans-2c" d="M 750 794 
L 1409 794 
L 1409 256 
L 897 -744 
L 494 -744 
L 750 256 
L 750 794 
z
" transform="scale(0.015625)"/>
       <path id="DejaVuSans-20" transform="scale(0.015625)"/>
       <path id="DejaVuSans-28" d="M 1984 4856 
Q 1566 4138 1362 3434 
Q 1159 2731 1159 2009 
Q 1159 1288 1364 580 
Q 1569 -128 1984 -844 
L 1484 -844 
Q 1016 -109 783 600 
Q 550 1309 550 2009 
Q 550 2706 781 3412 
Q 1013 4119 1484 4856 
L 1984 4856 
z
" transform="scale(0.015625)"/>
       <path id="DejaVuSans-75" d="M 544 1381 
L 544 3500 
L 1119 3500 
L 1119 1403 
Q 1119 906 1312 657 
Q 1506 409 1894 409 
Q 2359 409 2629 706 
Q 2900 1003 2900 1516 
L 2900 3500 
L 3475 3500 
L 3475 0 
L 2900 0 
L 2900 538 
Q 2691 219 2414 64 
Q 2138 -91 1772 -91 
Q 1169 -91 856 284 
Q 544 659 544 1381 
z
M 1991 3584 
L 1991 3584 
z
" transform="scale(0.015625)"/>
       <path id="DejaVuSans-73" d="M 2834 3397 
L 2834 2853 
Q 2591 2978 2328 3040 
Q 2066 3103 1784 3103 
Q 1356 3103 1142 2972 
Q 928 2841 928 2578 
Q 928 2378 1081 2264 
Q 1234 2150 1697 2047 
L 1894 2003 
Q 2506 1872 2764 1633 
Q 3022 1394 3022 966 
Q 3022 478 2636 193 
Q 2250 -91 1575 -91 
Q 1294 -91 989 -36 
Q 684 19 347 128 
L 347 722 
Q 666 556 975 473 
Q 1284 391 1588 391 
Q 1994 391 2212 530 
Q 2431 669 2431 922 
Q 2431 1156 2273 1281 
Q 2116 1406 1581 1522 
L 1381 1569 
Q 847 1681 609 1914 
Q 372 2147 372 2553 
Q 372 3047 722 3315 
Q 1072 3584 1716 3584 
Q 2034 3584 2315 3537 
Q 2597 3491 2834 3397 
z
" transform="scale(0.015625)"/>
       <path id="DejaVuSans-29" d="M 513 4856 
L 1013 4856 
Q 1481 4119 1714 3412 
Q 1947 2706 1947 2009 
Q 1947 1309 1714 600 
Q 1481 -109 1013 -844 
L 513 -844 
Q 928 -128 1133 580 
Q 1338 1288 1338 2009 
Q 1338 2731 1133 3434 
Q 928 4138 513 4856 
z
" transform="scale(0.015625)"/>
      </defs>
      <use xlink:href="#DejaVuSans-74"/>
      <use xlink:href="#DejaVuSans-69" transform="translate(39.208984 0)"/>
      <use xlink:href="#DejaVuSans-6d" transform="translate(66.992188 0)"/>
      <use xlink:href="#DejaVuSans-65" transform="translate(164.404297 0)"/>
      <use xlink:href="#DejaVuSans-2c" transform="translate(225.927734 0)"/>
      <use xlink:href="#DejaVuSans-20" transform="translate(257.714844 0)"/>
      <use xlink:href="#DejaVuSans-74" transform="translate(289.501953 0)"/>
      <use xlink:href="#DejaVuSans-20" transform="translate(328.710938 0)"/>
      <use xlink:href="#DejaVuSans-28" transform="translate(360.498047 0)"/>
      <use xlink:href="#DejaVuSans-75" transform="translate(399.511719 0)"/>
      <use xlink:href="#DejaVuSans-73" transform="translate(462.890625 0)"/>
      <use xlink:href="#DejaVuSans-29" transform="translate(514.990234 0)"/>
     </g>
    </g>
    <g id="text_11">
     <!-- 1e6 -->
     <g transform="translate(427.065 327.074688) scale(0.1 -0.1)">
      <defs>
       <path id="DejaVuSans-36" d="M 2113 2584 
Q 1688 2584 1439 2293 
Q 1191 2003 1191 1497 
Q 1191 994 1439 701 
Q 1688 409 2113 409 
Q 2538 409 2786 701 
Q 3034 994 3034 1497 
Q 3034 2003 2786 2293 
Q 2538 2584 2113 2584 
z
M 3366 4563 
L 3366 3988 
Q 3128 4100 2886 4159 
Q 2644 4219 2406 4219 
Q 1781 4219 1451 3797 
Q 1122 3375 1075 2522 
Q 1259 2794 1537 2939 
Q 1816 3084 2150 3084 
Q 2853 3084 3261 2657 
Q 3669 2231 3669 1497 
Q 3669 778 3244 343 
Q 2819 -91 2113 -91 
Q 1303 -91 875 529 
Q 447 1150 447 2328 
Q 447 3434 972 4092 
Q 1497 4750 2381 4750 
Q 2619 4750 2861 4703 
Q 3103 4656 3366 4563 
z
" transform="scale(0.015625)"/>
      </defs>
      <use xlink:href="#DejaVuSans-31"/>
      <use xlink:href="#DejaVuSans-65" transform="translate(63.623047 0)"/>
      <use xlink:href="#DejaVuSans-36" transform="translate(125.146484 0)"/>
     </g>
    </g>
   </g>
   <g id="matplotlib.axis_2">
    <g id="ytick_1">
     <g id="line2d_10">
      <defs>
       <path id="m9466db19eb" d="M 0 0 
L -3.5 0 
" style="stroke: #000000; stroke-width: 0.8"/>
      </defs>
      <g>
       <use xlink:href="#m9466db19eb" x="40.603125" y="287.185398" style="stroke: #000000; stroke-width: 0.8"/>
      </g>
     </g>
     <g id="text_12">
      <!-- 0 -->
      <g transform="translate(27.240625 290.984616) scale(0.1 -0.1)">
       <use xlink:href="#DejaVuSans-30"/>
      </g>
     </g>
    </g>
    <g id="ytick_2">
     <g id="line2d_11">
      <g>
       <use xlink:href="#m9466db19eb" x="40.603125" y="249.167658" style="stroke: #000000; stroke-width: 0.8"/>
      </g>
     </g>
     <g id="text_13">
      <!-- 5 -->
      <g transform="translate(27.240625 252.966877) scale(0.1 -0.1)">
       <use xlink:href="#DejaVuSans-35"/>
      </g>
     </g>
    </g>
    <g id="ytick_3">
     <g id="line2d_12">
      <g>
       <use xlink:href="#m9466db19eb" x="40.603125" y="211.149919" style="stroke: #000000; stroke-width: 0.8"/>
      </g>
     </g>
     <g id="text_14">
      <!-- 10 -->
      <g transform="translate(20.878125 214.949137) scale(0.1 -0.1)">
       <use xlink:href="#DejaVuSans-31"/>
       <use xlink:href="#DejaVuSans-30" transform="translate(63.623047 0)"/>
      </g>
     </g>
    </g>
    <g id="ytick_4">
     <g id="line2d_13">
      <g>
       <use xlink:href="#m9466db19eb" x="40.603125" y="173.132179" style="stroke: #000000; stroke-width: 0.8"/>
      </g>
     </g>
     <g id="text_15">
      <!-- 15 -->
      <g transform="translate(20.878125 176.931398) scale(0.1 -0.1)">
       <use xlink:href="#DejaVuSans-31"/>
       <use xlink:href="#DejaVuSans-35" transform="translate(63.623047 0)"/>
      </g>
     </g>
    </g>
    <g id="ytick_5">
     <g id="line2d_14">
      <g>
       <use xlink:href="#m9466db19eb" x="40.603125" y="135.114439" style="stroke: #000000; stroke-width: 0.8"/>
      </g>
     </g>
     <g id="text_16">
      <!-- 20 -->
      <g transform="translate(20.878125 138.913658) scale(0.1 -0.1)">
       <use xlink:href="#DejaVuSans-32"/>
       <use xlink:href="#DejaVuSans-30" transform="translate(63.623047 0)"/>
      </g>
     </g>
    </g>
    <g id="ytick_6">
     <g id="line2d_15">
      <g>
       <use xlink:href="#m9466db19eb" x="40.603125" y="97.0967" style="stroke: #000000; stroke-width: 0.8"/>
      </g>
     </g>
     <g id="text_17">
      <!-- 25 -->
      <g transform="translate(20.878125 100.895918) scale(0.1 -0.1)">
       <use xlink:href="#DejaVuSans-32"/>
       <use xlink:href="#DejaVuSans-35" transform="translate(63.623047 0)"/>
      </g>
     </g>
    </g>
    <g id="ytick_7">
     <g id="line2d_16">
      <g>
       <use xlink:href="#m9466db19eb" x="40.603125" y="59.07896" style="stroke: #000000; stroke-width: 0.8"/>
      </g>
     </g>
     <g id="text_18">
      <!-- 30 -->
      <g transform="translate(20.878125 62.878179) scale(0.1 -0.1)">
       <defs>
        <path id="DejaVuSans-33" d="M 2597 2516 
Q 3050 2419 3304 2112 
Q 3559 1806 3559 1356 
Q 3559 666 3084 287 
Q 2609 -91 1734 -91 
Q 1441 -91 1130 -33 
Q 819 25 488 141 
L 488 750 
Q 750 597 1062 519 
Q 1375 441 1716 441 
Q 2309 441 2620 675 
Q 2931 909 2931 1356 
Q 2931 1769 2642 2001 
Q 2353 2234 1838 2234 
L 1294 2234 
L 1294 2753 
L 1863 2753 
Q 2328 2753 2575 2939 
Q 2822 3125 2822 3475 
Q 2822 3834 2567 4026 
Q 2313 4219 1838 4219 
Q 1578 4219 1281 4162 
Q 984 4106 628 3988 
L 628 4550 
Q 988 4650 1302 4700 
Q 1616 4750 1894 4750 
Q 2613 4750 3031 4423 
Q 3450 4097 3450 3541 
Q 3450 3153 3228 2886 
Q 3006 2619 2597 2516 
z
" transform="scale(0.015625)"/>
       </defs>
       <use xlink:href="#DejaVuSans-33"/>
       <use xlink:href="#DejaVuSans-30" transform="translate(63.623047 0)"/>
      </g>
     </g>
    </g>
    <g id="text_19">
     <!-- left wheel theta, ltheta (rad) -->
     <g transform="translate(14.798438 231.945625) rotate(-90) scale(0.1 -0.1)">
      <defs>
       <path id="DejaVuSans-6c" d="M 603 4863 
L 1178 4863 
L 1178 0 
L 603 0 
L 603 4863 
z
" transform="scale(0.015625)"/>
       <path id="DejaVuSans-66" d="M 2375 4863 
L 2375 4384 
L 1825 4384 
Q 1516 4384 1395 4259 
Q 1275 4134 1275 3809 
L 1275 3500 
L 2222 3500 
L 2222 3053 
L 1275 3053 
L 1275 0 
L 697 0 
L 697 3053 
L 147 3053 
L 147 3500 
L 697 3500 
L 697 3744 
Q 697 4328 969 4595 
Q 1241 4863 1831 4863 
L 2375 4863 
z
" transform="scale(0.015625)"/>
       <path id="DejaVuSans-77" d="M 269 3500 
L 844 3500 
L 1563 769 
L 2278 3500 
L 2956 3500 
L 3675 769 
L 4391 3500 
L 4966 3500 
L 4050 0 
L 3372 0 
L 2619 2869 
L 1863 0 
L 1184 0 
L 269 3500 
z
" transform="scale(0.015625)"/>
       <path id="DejaVuSans-68" d="M 3513 2113 
L 3513 0 
L 2938 0 
L 2938 2094 
Q 2938 2591 2744 2837 
Q 2550 3084 2163 3084 
Q 1697 3084 1428 2787 
Q 1159 2491 1159 1978 
L 1159 0 
L 581 0 
L 581 4863 
L 1159 4863 
L 1159 2956 
Q 1366 3272 1645 3428 
Q 1925 3584 2291 3584 
Q 2894 3584 3203 3211 
Q 3513 2838 3513 2113 
z
" transform="scale(0.015625)"/>
       <path id="DejaVuSans-61" d="M 2194 1759 
Q 1497 1759 1228 1600 
Q 959 1441 959 1056 
Q 959 750 1161 570 
Q 1363 391 1709 391 
Q 2188 391 2477 730 
Q 2766 1069 2766 1631 
L 2766 1759 
L 2194 1759 
z
M 3341 1997 
L 3341 0 
L 2766 0 
L 2766 531 
Q 2569 213 2275 61 
Q 1981 -91 1556 -91 
Q 1019 -91 701 211 
Q 384 513 384 1019 
Q 384 1609 779 1909 
Q 1175 2209 1959 2209 
L 2766 2209 
L 2766 2266 
Q 2766 2663 2505 2880 
Q 2244 3097 1772 3097 
Q 1472 3097 1187 3025 
Q 903 2953 641 2809 
L 641 3341 
Q 956 3463 1253 3523 
Q 1550 3584 1831 3584 
Q 2591 3584 2966 3190 
Q 3341 2797 3341 1997 
z
" transform="scale(0.015625)"/>
       <path id="DejaVuSans-72" d="M 2631 2963 
Q 2534 3019 2420 3045 
Q 2306 3072 2169 3072 
Q 1681 3072 1420 2755 
Q 1159 2438 1159 1844 
L 1159 0 
L 581 0 
L 581 3500 
L 1159 3500 
L 1159 2956 
Q 1341 3275 1631 3429 
Q 1922 3584 2338 3584 
Q 2397 3584 2469 3576 
Q 2541 3569 2628 3553 
L 2631 2963 
z
" transform="scale(0.015625)"/>
       <path id="DejaVuSans-64" d="M 2906 2969 
L 2906 4863 
L 3481 4863 
L 3481 0 
L 2906 0 
L 2906 525 
Q 2725 213 2448 61 
Q 2172 -91 1784 -91 
Q 1150 -91 751 415 
Q 353 922 353 1747 
Q 353 2572 751 3078 
Q 1150 3584 1784 3584 
Q 2172 3584 2448 3432 
Q 2725 3281 2906 2969 
z
M 947 1747 
Q 947 1113 1208 752 
Q 1469 391 1925 391 
Q 2381 391 2643 752 
Q 2906 1113 2906 1747 
Q 2906 2381 2643 2742 
Q 2381 3103 1925 3103 
Q 1469 3103 1208 2742 
Q 947 2381 947 1747 
z
" transform="scale(0.015625)"/>
      </defs>
      <use xlink:href="#DejaVuSans-6c"/>
      <use xlink:href="#DejaVuSans-65" transform="translate(27.783203 0)"/>
      <use xlink:href="#DejaVuSans-66" transform="translate(89.306641 0)"/>
      <use xlink:href="#DejaVuSans-74" transform="translate(122.761719 0)"/>
      <use xlink:href="#DejaVuSans-20" transform="translate(161.970703 0)"/>
      <use xlink:href="#DejaVuSans-77" transform="translate(193.757812 0)"/>
      <use xlink:href="#DejaVuSans-68" transform="translate(275.544922 0)"/>
      <use xlink:href="#DejaVuSans-65" transform="translate(338.923828 0)"/>
      <use xlink:href="#DejaVuSans-65" transform="translate(400.447266 0)"/>
      <use xlink:href="#DejaVuSans-6c" transform="translate(461.970703 0)"/>
      <use xlink:href="#DejaVuSans-20" transform="translate(489.753906 0)"/>
      <use xlink:href="#DejaVuSans-74" transform="translate(521.541016 0)"/>
      <use xlink:href="#DejaVuSans-68" transform="translate(560.75 0)"/>
      <use xlink:href="#DejaVuSans-65" transform="translate(624.128906 0)"/>
      <use xlink:href="#DejaVuSans-74" transform="translate(685.652344 0)"/>
      <use xlink:href="#DejaVuSans-61" transform="translate(724.861328 0)"/>
      <use xlink:href="#DejaVuSans-2c" transform="translate(786.140625 0)"/>
      <use xlink:href="#DejaVuSans-20" transform="translate(817.927734 0)"/>
      <use xlink:href="#DejaVuSans-6c" transform="translate(849.714844 0)"/>
      <use xlink:href="#DejaVuSans-74" transform="translate(877.498047 0)"/>
      <use xlink:href="#DejaVuSans-68" transform="translate(916.707031 0)"/>
      <use xlink:href="#DejaVuSans-65" transform="translate(980.085938 0)"/>
      <use xlink:href="#DejaVuSans-74" transform="translate(1041.609375 0)"/>
      <use xlink:href="#DejaVuSans-61" transform="translate(1080.818359 0)"/>
      <use xlink:href="#DejaVuSans-20" transform="translate(1142.097656 0)"/>
      <use xlink:href="#DejaVuSans-28" transform="translate(1173.884766 0)"/>
      <use xlink:href="#DejaVuSans-72" transform="translate(1212.898438 0)"/>
      <use xlink:href="#DejaVuSans-61" transform="translate(1254.011719 0)"/>
      <use xlink:href="#DejaVuSans-64" transform="translate(1315.291016 0)"/>
      <use xlink:href="#DejaVuSans-29" transform="translate(1378.767578 0)"/>
     </g>
    </g>
   </g>
   <g id="line2d_17">
    <path d="M 59.02767 281.334474 
L 62.716535 280.702839 
L 66.539779 279.107137 
L 70.412239 276.979528 
L 74.208017 274.519476 
L 77.166556 272.491602 
L 80.963439 269.931822 
L 84.791844 267.405285 
L 88.698221 264.878748 
L 92.526257 262.252482 
L 96.440377 259.692702 
L 99.344353 257.831042 
L 103.17368 255.271269 
L 107.080426 252.678239 
L 110.907356 250.051974 
L 114.805438 247.359215 
L 117.709783 245.364584 
L 121.537819 242.705076 
L 125.444012 239.979075 
L 129.25509 237.352809 
L 133.152435 234.660051 
L 136.978996 232.000543 
L 139.884263 230.005911 
L 143.791193 227.313153 
L 147.617755 224.686887 
L 151.530768 221.960886 
L 155.357698 219.334621 
L 158.262228 217.33999 
L 162.168052 214.647239 
L 165.99406 211.987731 
L 169.905968 209.294957 
L 173.732345 206.668692 
L 177.558353 204.075654 
L 180.541224 202.01456 
L 184.368523 199.388294 
L 188.28043 196.695574 
L 192.07289 194.102536 
L 195.899267 191.509498 
L 198.881585 189.481632 
L 202.707962 186.855366 
L 206.619316 184.162646 
L 210.427997 181.53638 
L 214.237416 178.943342 
L 217.219549 176.882173 
L 221.045189 174.255907 
L 224.956359 171.563187 
L 228.764487 168.970149 
L 232.590311 166.310656 
L 236.493186 163.651163 
L 239.380388 161.656524 
L 243.292296 158.997031 
L 247.14577 156.370766 
L 250.998506 153.7445 
L 254.931059 151.018476 
L 257.862869 148.99061 
L 261.80298 146.297814 
L 265.640785 143.671548 
L 269.493706 141.012055 
L 272.504596 138.917734 
L 276.328761 136.324696 
L 280.251912 133.6319 
L 284.103727 130.972407 
L 287.95628 128.312914 
L 290.966432 126.25182 
L 294.819168 123.625554 
L 298.757435 120.932758 
L 302.60796 118.306492 
L 306.459775 115.680227 
L 309.470111 113.585906 
L 313.322295 110.926337 
L 317.259271 108.266844 
L 321.109796 105.607351 
L 324.948155 102.981085 
L 327.944113 100.953219 
L 331.783025 98.293726 
L 335.720554 95.567702 
L 339.570526 92.941437 
L 343.421972 90.315171 
L 346.432308 88.254078 
L 350.282649 85.561281 
L 354.219441 82.868561 
L 358.068307 80.242295 
L 360.999011 78.214429 
L 364.929352 75.521632 
L 368.765867 72.86214 
L 372.701185 70.202647 
L 376.534382 67.576381 
L 379.464534 65.581742 
L 383.393953 62.889022 
L 387.242819 60.262756 
L 391.177767 57.536732 
L 395.02608 54.910467 
L 397.940379 52.915828 
L 401.86777 50.223032 
L 405.684194 47.596766 
L 409.617852 44.904046 
L 413.450312 42.27778 
L 416.379911 40.249914 
L 420.316703 37.557118 
L 424.151191 34.930852 
" clip-path="url(#pd7c1396481)" style="fill: none; stroke: #1f77b4; stroke-width: 1.5; stroke-linecap: square"/>
   </g>
   <g id="line2d_18">
    <path d="M 59.02767 282.099083 
L 62.728886 281.467449 
L 66.564111 279.904986 
L 70.481548 277.71089 
L 74.289123 275.317332 
L 77.253192 273.522157 
L 81.062057 271.261576 
L 84.901891 269.000988 
L 88.820618 266.707165 
L 92.660452 264.446577 
L 95.657332 262.65141 
L 99.481681 260.390822 
L 103.320961 258.063748 
L 107.238399 255.603704 
L 111.076942 253.176902 
L 114.0729 251.282 
L 117.912365 248.888441 
L 121.751277 246.494882 
L 125.669083 244.06808 
L 129.50781 241.641279 
L 132.504321 239.746376 
L 136.343786 237.386059 
L 140.150624 234.992501 
L 144.068061 232.532456 
L 147.90642 230.105655 
L 151.830677 227.64561 
L 154.739631 225.817193 
L 158.563059 223.456877 
L 162.479574 220.963582 
L 166.316458 218.570023 
L 170.224679 216.176457 
L 173.133448 214.348039 
L 176.971622 211.95448 
L 180.855142 209.527702 
L 184.675437 207.134105 
L 188.598588 204.70728 
L 191.507726 202.912159 
L 195.345532 200.518562 
L 199.261126 198.05851 
L 203.065198 195.698217 
L 206.987613 193.204937 
L 210.823575 190.81134 
L 213.733081 188.982915 
L 217.649966 186.556167 
L 221.484822 184.16257 
L 225.407236 181.66929 
L 229.243014 179.275694 
L 232.151784 177.480572 
L 236.051894 175.053748 
L 239.88804 172.660227 
L 243.809533 170.166871 
L 247.674436 167.77335 
L 250.612514 165.944925 
L 254.556863 163.484873 
L 258.42195 161.091353 
L 262.372383 158.631301 
L 265.309724 156.769648 
L 269.175548 154.376051 
L 273.118608 151.915999 
L 276.951805 149.522478 
L 279.975413 147.627522 
L 283.839947 145.200774 
L 287.703744 142.773949 
L 291.64496 140.347125 
L 295.508204 137.953604 
L 298.501213 136.058648 
L 302.365747 133.6319 
L 306.229175 131.205075 
L 310.169838 128.745023 
L 314.031791 126.318199 
L 317.038809 124.456546 
L 320.887859 122.029722 
L 324.749813 119.602897 
L 328.689923 117.176073 
L 331.625789 115.347724 
L 335.575853 112.887672 
L 339.437069 110.460848 
L 343.282064 108.034023 
L 347.22199 105.573971 
L 350.157303 103.745546 
L 354.106629 101.318722 
L 357.967477 98.891897 
L 361.814499 96.465149 
L 364.828338 94.570193 
L 368.675544 92.176672 
L 372.622659 89.71662 
L 376.482585 87.289796 
L 380.343616 84.862971 
L 383.358192 82.968091 
L 387.219408 80.541267 
L 391.166523 78.081215 
L 395.026264 75.654466 
L 397.961762 73.826041 
L 401.888416 71.365989 
L 405.747235 68.972393 
L 409.677207 66.545568 
L 413.520912 64.11882 
L 416.455856 62.290395 
L 420.39486 59.830343 
L 424.254048 57.403518 
" clip-path="url(#pd7c1396481)" style="fill: none; stroke: #ff7f0e; stroke-width: 1.5; stroke-linecap: square"/>
   </g>
   <g id="line2d_19">
    <path d="M 59.028408 282.76396 
L 62.74013 282.099083 
L 66.677107 280.436889 
L 70.529843 278.40901 
L 73.413543 276.813307 
L 77.313284 274.752183 
L 81.165284 272.724309 
L 85.103366 270.663185 
L 88.954628 268.635311 
L 91.871139 267.139328 
L 95.786733 265.044969 
L 99.637627 262.917359 
L 103.574603 260.723264 
L 107.425496 258.562412 
L 110.341639 256.933458 
L 114.273085 254.739363 
L 118.123426 252.578511 
L 122.060587 250.417659 
L 125.911664 248.323292 
L 128.826885 246.694338 
L 132.757226 244.500243 
L 136.607566 242.372633 
L 140.544174 240.145288 
L 144.36244 238.017679 
L 147.277845 236.421975 
L 151.208555 234.22788 
L 155.058342 232.100271 
L 158.994028 229.906168 
L 161.909065 228.310465 
L 165.760511 226.182863 
L 169.689008 223.988768 
L 173.537505 221.861158 
L 177.473191 219.700306 
L 180.373113 218.07136 
L 184.223822 215.910507 
L 188.151213 213.716412 
L 191.999157 211.588803 
L 195.935027 209.394716 
L 198.848958 207.799035 
L 202.666856 205.704638 
L 206.594431 203.510558 
L 210.442744 201.349706 
L 214.361656 199.188853 
L 217.276139 197.593097 
L 221.126111 195.432244 
L 225.052949 193.271392 
L 228.90034 191.143843 
L 232.835289 188.949688 
L 235.749772 187.32078 
L 239.599007 185.193155 
L 243.525845 183.06553 
L 247.402176 180.904678 
L 250.432974 179.209239 
L 254.311148 177.08169 
L 258.172733 174.954065 
L 262.127774 172.726682 
L 266.004105 170.599133 
L 269.034165 168.903694 
L 272.895197 166.776069 
L 276.772449 164.615217 
L 280.7262 162.454365 
L 283.669255 160.82538 
L 287.63296 158.631301 
L 291.508185 156.470448 
L 295.38341 154.3429 
L 298.404991 152.680688 
L 302.281691 150.519836 
L 306.243921 148.325756 
L 310.117856 146.198131 
L 313.04727 144.569147 
L 317.002312 142.34184 
L 320.876615 140.180987 
L 324.836818 138.020135 
L 328.71149 135.89251 
L 331.654176 134.263602 
L 335.594839 132.10275 
L 339.452369 129.941898 
L 343.411834 127.714514 
L 346.353598 126.118834 
L 350.228639 123.957982 
L 354.1811 121.730674 
L 358.039551 119.603049 
L 361.067583 117.90761 
L 364.912762 115.779986 
L 368.785407 113.619133 
L 372.736392 111.458281 
L 376.595581 109.330732 
L 379.62306 107.668521 
L 383.495889 105.540896 
L 387.368902 103.380044 
L 391.319519 101.185964 
L 394.260362 99.55698 
L 398.221118 97.3629 
L 402.093209 95.235275 
L 405.964379 93.074423 
L 408.955176 91.445515 
L 412.827268 89.31789 
L 416.785074 87.090583 
L 420.640576 84.962958 
L 424.499027 82.835333 
L 427.51858 81.139894 
" clip-path="url(#pd7c1396481)" style="fill: none; stroke: #2ca02c; stroke-width: 1.5; stroke-linecap: square"/>
   </g>
   <g id="line2d_20">
    <path d="M 59.029514 283.528569 
L 62.751374 282.896936 
L 66.682452 281.234742 
L 70.546433 279.339836 
L 74.377418 277.444941 
L 78.285639 275.683009 
L 81.191643 274.386498 
L 85.126777 272.59133 
L 88.990389 270.829406 
L 92.820821 269.067481 
L 96.762037 267.205821 
L 99.666567 265.809574 
L 103.60041 263.881436 
L 107.44651 262.019776 
L 111.308095 260.158115 
L 114.308109 258.69539 
L 118.171905 256.800487 
L 122.088605 254.872342 
L 125.949268 253.010681 
L 129.811959 251.149029 
L 132.811788 249.686296 
L 136.658442 247.791393 
L 140.605925 245.863255 
L 144.466404 244.001595 
L 148.328357 242.106692 
L 151.328555 240.643959 
L 155.173919 238.782307 
L 159.104628 236.854161 
L 162.964738 234.959258 
L 166.826322 233.097605 
L 169.824861 231.668115 
L 173.686446 229.773212 
L 177.58545 227.845067 
L 181.42897 225.983414 
L 184.349536 224.553924 
L 188.289647 222.625779 
L 192.149388 220.730876 
L 196.096318 218.769487 
L 199.940391 216.907827 
L 202.860036 215.478337 
L 206.799409 213.583434 
L 210.643482 211.721781 
L 214.572901 209.826901 
L 218.4002 207.931945 
L 221.320213 206.502478 
L 225.259217 204.57437 
L 229.102 202.712718 
L 233.047087 200.751306 
L 236.889686 198.889654 
L 239.808777 197.493414 
L 243.747597 195.532003 
L 247.635726 193.637123 
L 251.610306 191.708939 
L 254.559444 190.279472 
L 258.449047 188.384516 
L 262.384181 186.489636 
L 266.271572 184.561528 
L 269.306977 183.06553 
L 273.180728 181.203877 
L 277.068856 179.275694 
L 281.034036 177.314358 
L 283.982621 175.884815 
L 287.958307 173.956708 
L 291.845145 172.061827 
L 295.732168 170.166871 
L 298.744348 168.670949 
L 302.633029 166.809297 
L 306.607056 164.91434 
L 310.493157 162.986233 
L 313.441558 161.523462 
L 317.408028 159.628582 
L 321.294313 157.766929 
L 325.252119 155.772291 
L 328.199229 154.342824 
L 332.08662 152.481171 
L 336.035579 150.51976 
L 339.920574 148.624879 
L 342.954689 147.162109 
L 346.809453 145.267229 
L 350.695001 143.372349 
L 354.658337 141.444165 
L 358.543701 139.549285 
L 361.576894 138.053287 
L 365.462626 136.158406 
L 369.334902 134.263526 
L 373.297132 132.335343 
L 376.230233 130.905876 
L 380.188777 128.944464 
L 384.071928 127.082812 
L 387.942177 125.187931 
L 390.967628 123.691933 
L 394.852439 121.797053 
L 398.821858 119.86887 
L 402.704088 118.007217 
L 405.637557 116.610977 
L 409.601078 114.649566 
L 413.484045 112.754686 
L 417.439271 110.826578 
L 420.369607 109.397035 
L 424.253864 107.468928 
" clip-path="url(#pd7c1396481)" style="fill: none; stroke: #d62728; stroke-width: 1.5; stroke-linecap: square"/>
   </g>
   <g id="line2d_21">
    <path d="M 59.028408 284.293179 
L 62.765383 283.661546 
L 66.725955 282.132327 
L 70.600443 280.403644 
L 73.528567 279.206866 
L 77.450428 277.777376 
L 81.308694 276.281401 
L 85.252676 274.71894 
L 89.126795 273.156479 
L 92.05455 271.926453 
L 96.008485 270.2975 
L 99.880946 268.668554 
L 103.823452 266.973114 
L 106.734433 265.743088 
L 110.592884 264.147385 
L 114.528386 262.485189 
L 118.400478 260.856243 
L 122.360312 259.227289 
L 125.288251 257.997271 
L 129.161633 256.368317 
L 133.112988 254.70612 
L 136.984711 253.077167 
L 139.997628 251.847141 
L 143.871194 250.218195 
L 147.744207 248.589241 
L 151.69464 246.960287 
L 154.621289 245.730261 
L 158.581307 244.034822 
L 162.452477 242.439119 
L 166.323647 240.843408 
L 170.274449 239.181212 
L 173.200361 237.917943 
L 177.158904 236.288997 
L 181.014037 234.693286 
L 184.884838 233.064332 
L 187.873792 231.834306 
L 191.7304 230.205352 
L 195.68839 228.509913 
L 199.542417 226.91421 
L 203.413956 225.318507 
L 206.418947 224.055238 
L 210.274079 222.426292 
L 214.230595 220.797346 
L 218.100475 219.135149 
L 221.026571 217.905123 
L 228.846515 214.647224 
L 232.802109 212.985027 
L 235.727653 211.755001 
L 239.598822 210.126025 
L 243.547228 208.463889 
L 247.444941 206.834905 
L 250.473711 205.571652 
L 254.373821 203.942668 
L 258.273194 202.313759 
L 262.249986 200.651548 
L 265.204286 199.421522 
L 269.190479 197.726083 
L 273.089483 196.097175 
L 276.974294 194.468191 
L 280.007672 193.17171 
L 283.891192 191.542726 
L 287.876095 189.880514 
L 291.759799 188.251606 
L 294.69843 187.02158 
L 298.662319 185.359368 
L 302.55948 183.73046 
L 306.543277 182.068249 
L 309.497392 180.804995 
L 313.396581 179.209239 
L 317.372452 177.513799 
L 321.269428 175.884891 
L 324.309626 174.621638 
L 328.207156 172.992654 
L 332.104869 171.363746 
L 336.07945 169.668307 
L 339.032828 168.438281 
L 343.001325 166.742842 
L 346.897564 165.113857 
L 350.777398 163.518177 
L 353.809485 162.254847 
L 357.706646 160.592712 
L 361.6886 158.897273 
L 365.582996 157.301516 
L 368.536373 156.07149 
L 372.51206 154.409355 
L 376.407008 152.78037 
L 380.388409 151.118159 
L 383.341234 149.888133 
L 387.208717 148.259225 
L 391.181823 146.597013 
L 395.076034 144.934878 
L 398.115311 143.671548 
L 402.010813 142.009413 
L 405.890093 140.413656 
L 409.86283 138.75152 
L 412.815286 137.521494 
L 416.796871 135.826055 
L 420.674861 134.230299 
L 424.567967 132.601391 
" clip-path="url(#pd7c1396481)" style="fill: none; stroke: #9467bd; stroke-width: 1.5; stroke-linecap: square"/>
   </g>
   <g id="line2d_22">
    <path d="M 59.028408 285.091033 
L 62.775706 284.459399 
L 66.746969 282.963424 
L 70.632148 281.500693 
L 73.565986 280.53662 
L 77.532456 279.240108 
L 81.416898 278.043325 
L 85.387792 276.813307 
L 88.319787 275.782745 
L 92.206625 274.419748 
L 96.155952 273.056744 
L 100.023988 271.693747 
L 103.042066 270.629942 
L 106.927614 269.266945 
L 110.811871 267.937183 
L 114.774102 266.540944 
L 117.706281 265.510382 
L 121.678465 264.114135 
L 125.56217 262.784381 
L 129.44569 261.454627 
L 132.456948 260.424065 
L 136.341574 259.061068 
L 140.312099 257.664821 
L 144.195251 256.301824 
L 148.078771 254.938819 
L 151.073808 253.908265 
L 154.957512 252.545261 
L 158.926931 251.182264 
L 162.808977 249.819267 
L 165.741156 248.788705 
L 169.704861 247.392465 
L 173.587091 246.062704 
L 177.555772 244.666464 
L 180.48703 243.635902 
L 184.371656 242.306148 
L 188.316928 240.976394 
L 192.197867 239.580147 
L 195.215024 238.516342 
L 199.09836 237.186588 
L 202.980221 235.823591 
L 206.940239 234.460594 
L 209.871128 233.39679 
L 213.823957 232.033785 
L 217.704713 230.704031 
L 221.585468 229.341034 
L 224.595436 228.27723 
L 228.462181 226.947475 
L 232.428836 225.551228 
L 236.308853 224.188232 
L 240.189609 222.825227 
L 243.199208 221.761422 
L 247.109825 220.398426 
L 251.106709 219.035429 
L 255.015852 217.672424 
L 257.975865 216.641862 
L 261.965561 215.245615 
L 265.875809 213.882618 
L 268.922091 212.818814 
L 272.83197 211.455817 
L 276.742403 210.05957 
L 280.716062 208.696558 
L 283.660039 207.665973 
L 287.643651 206.269733 
L 291.552241 204.906797 
L 295.460646 203.543785 
L 298.499185 202.479973 
L 302.40888 201.116961 
L 306.403738 199.720722 
L 310.310852 198.35771 
L 313.257778 197.327125 
L 317.246552 195.930885 
L 321.15422 194.567873 
L 324.199948 193.504137 
L 328.107985 192.174352 
L 332.016205 190.81134 
L 336.002768 189.415101 
L 338.961491 188.351288 
L 342.957454 186.988276 
L 346.864753 185.592037 
L 350.77113 184.229025 
L 353.809117 183.165212 
L 357.71789 181.802277 
L 361.711641 180.406037 
L 365.602166 179.076253 
L 368.561258 178.01244 
L 372.547636 176.649428 
L 376.454382 175.286416 
L 379.499373 174.189376 
L 383.406672 172.826364 
L 387.312865 171.463428 
L 391.297399 170.100416 
L 394.255385 169.069831 
L 398.249505 167.706819 
L 402.155145 166.343807 
L 406.061154 164.947568 
L 409.098403 163.883755 
L 413.00478 162.52082 
L 416.996504 161.12458 
L 420.901038 159.761568 
L 423.859208 158.730983 
" clip-path="url(#pd7c1396481)" style="fill: none; stroke: #8c564b; stroke-width: 1.5; stroke-linecap: square"/>
   </g>
   <g id="line2d_23">
    <path d="M 59.030804 285.855642 
L 62.791927 285.290496 
L 66.759503 284.027228 
L 69.698134 283.196131 
L 73.596217 282.232058 
L 77.570981 281.201498 
L 81.499847 280.170938 
L 84.556636 279.373087 
L 88.453981 278.276039 
L 92.349851 277.145741 
L 95.367008 276.314643 
L 99.263431 275.217596 
L 103.245569 274.087306 
L 107.140518 273.023501 
L 111.03602 271.926453 
L 114.052255 271.062112 
L 117.946651 270.03155 
L 121.928236 268.90126 
L 124.865945 268.103405 
L 128.761631 267.0396 
L 132.7187 265.90931 
L 136.61328 264.812262 
L 139.620852 264.014407 
L 143.516169 262.917359 
L 147.410381 261.820312 
L 151.366712 260.723264 
L 155.260739 259.659459 
L 158.267758 258.828361 
L 162.162706 257.731306 
L 166.040328 256.634259 
L 170.012881 255.570461 
L 172.949668 254.739363 
L 176.9307 253.609073 
L 180.823622 252.578511 
L 184.716358 251.481463 
L 187.732593 250.617122 
L 191.611137 249.553318 
L 195.59051 248.45627 
L 199.466104 247.359223 
L 202.403444 246.528124 
L 206.360882 245.464327 
L 210.252881 244.36728 
L 214.230964 243.270232 
L 217.150609 242.472377 
L 221.044451 241.375329 
L 225.01553 240.245039 
L 228.906423 239.181234 
L 231.913441 238.383379 
L 235.80581 237.286331 
L 239.697625 236.189291 
L 243.666491 235.125487 
L 246.632034 234.294388 
L 250.641454 233.164091 
L 254.548384 232.067043 
L 258.468402 231.003246 
L 261.51284 230.172148 
L 265.433227 229.0751 
L 269.423844 227.944802 
L 272.38865 227.113704 
L 276.309221 226.049899 
L 280.307949 224.919609 
L 284.226677 223.822562 
L 287.277751 222.991464 
L 291.197953 221.927659 
L 295.116865 220.797369 
L 298.161119 219.933028 
L 302.080768 218.869223 
L 306.086685 217.738933 
L 310.004676 216.641885 
L 312.956394 215.810795 
L 316.955491 214.74699 
L 320.873666 213.649935 
L 323.924371 212.785594 
L 327.830748 211.721797 
L 331.749476 210.624741 
L 335.746361 209.527702 
L 338.710061 208.696634 
L 342.715794 207.56629 
L 346.633784 206.502478 
L 350.551221 205.405438 
L 353.581466 204.541143 
L 357.500562 203.47733 
L 361.505004 202.38029 
L 365.42152 201.283175 
L 368.386326 200.452107 
L 372.384133 199.355067 
L 376.300833 198.258027 
L 379.351354 197.393656 
L 383.269344 196.329843 
L 387.173694 195.232803 
L 391.168735 194.135763 
L 394.132251 193.304696 
L 398.136325 192.174352 
L 402.053762 191.110616 
L 405.969356 190.0135 
L 409.011582 189.182432 
L 412.929019 188.085392 
L 416.931434 186.988352 
L 419.894028 186.157209 
L 423.81165 185.060169 
" clip-path="url(#pd7c1396481)" style="fill: none; stroke: #e377c2; stroke-width: 1.5; stroke-linecap: square"/>
   </g>
   <g id="line2d_24">
    <path d="M 59.030067 286.487276 
L 61.874504 286.221325 
L 65.747701 285.32374 
L 69.734816 284.525887 
L 73.641931 283.861009 
L 76.671807 283.262619 
L 80.580765 282.398278 
L 84.504654 281.533937 
L 88.524211 280.736084 
L 91.485147 280.137693 
L 95.512446 279.306594 
L 99.418455 278.475503 
L 102.36151 277.877112 
L 106.346782 277.079256 
L 110.252606 276.248158 
L 114.228661 275.41706 
L 117.171901 274.818676 
L 121.079568 274.02082 
L 125.064656 273.156479 
L 128.969374 272.358624 
L 131.999619 271.760232 
L 135.890696 270.929134 
L 139.796705 270.098036 
L 143.780133 269.300188 
L 146.722635 268.701796 
L 150.715649 267.870698 
L 154.619446 267.0396 
L 158.523796 266.274995 
L 161.545929 265.64336 
L 165.451385 264.812262 
L 169.42615 263.981164 
L 173.3305 263.183308 
L 176.27337 262.584917 
L 180.257536 261.720576 
L 184.161517 260.955971 
L 187.173881 260.324336 
L 191.0786 259.526481 
L 194.950138 258.728625 
L 198.932461 257.897527 
L 202.836626 257.099679 
L 205.832953 256.468045 
L 209.736934 255.670189 
L 213.640362 254.872334 
L 216.644984 254.2407 
L 220.548597 253.442852 
L 224.537555 252.644996 
L 228.44043 251.813898 
L 232.343305 250.9828 
L 235.330969 250.384408 
L 239.23495 249.586553 
L 243.224461 248.722212 
L 246.195719 248.123828 
L 250.128087 247.29273 
L 254.13935 246.461631 
L 258.056603 245.663776 
L 279.96122 241.109365 
L 283.891007 240.311509 
L 286.86245 239.679875 
L 297.847754 237.419295 
L 301.7792 236.588196 
L 309.688914 234.959243 
L 312.659434 234.360851 
L 309.688914 234.959243 
L 312.659434 234.360851 
L 316.677149 233.562996 
L 320.607489 232.765148 
L 323.577457 232.133513 
L 327.586876 231.302415 
L 331.515742 230.471317 
L 335.531245 229.640219 
L 338.500843 229.041827 
L 342.40335 228.210729 
L 346.395811 227.412881 
L 349.365225 226.814489 
L 368.200888 222.891713 
L 387.018854 219.002186 
L 404.907047 215.312108 
L 408.889185 214.481018 
L 412.815471 213.683162 
L 415.784885 213.051528 
L 419.792092 212.220437 
L 423.718378 211.422582 
L 423.718378 211.422582 
" clip-path="url(#pd7c1396481)" style="fill: none; stroke: #7f7f7f; stroke-width: 1.5; stroke-linecap: square"/>
   </g>
   <g id="line2d_25">
    <path d="M 59.030067 286.985934 
L 62.848149 286.620252 
L 65.797471 286.121593 
L 69.780531 285.656179 
L 73.681378 285.257252 
L 77.635682 284.72535 
L 80.619475 284.226691 
L 84.573226 283.728033 
L 88.585963 283.229374 
L 91.567728 282.797204 
L 95.606272 282.232058 
L 99.557811 281.7334 
L 102.539391 281.301229 
L 106.570009 280.802571 
L 110.520626 280.270668 
L 113.57299 279.838498 
L 117.523976 279.339836 
L 121.442335 278.807938 
L 125.438482 278.242789 
L 128.371768 277.843861 
L 132.377316 277.311963 
L 136.278532 276.780056 
L 140.195601 276.248158 
L 143.224555 275.84923 
L 147.142545 275.317324 
L 151.130398 274.752183 
L 155.046176 274.253527 
L 157.995683 273.854599 
L 161.976715 273.322693 
L 165.893415 272.790794 
L 168.929005 272.358624 
L 172.846258 271.85996 
L 176.76222 271.328062 
L 180.756524 270.762913 
L 183.704556 270.363985 
L 187.708446 269.832086 
L 191.623487 269.30018 
L 195.523044 268.735039 
L 198.549786 268.336111 
L 202.465749 267.837455 
L 206.467242 267.272306 
L 209.414721 266.873379 
L 213.331421 266.34148 
L 217.325172 265.809574 
L 221.239475 265.277675 
L 224.257738 264.878748 
L 228.174254 264.346849 
L 232.072705 263.814943 
L 236.06535 263.283044 
L 238.996608 262.884116 
L 242.999575 262.318975 
L 246.896552 261.820312 
L 250.840164 261.25517 
L 253.882575 260.856243 
L 257.82674 260.324336 
L 283.733956 256.833738 
L 287.676647 256.268589 
L 294.674836 255.337762 
L 301.666389 254.373686 
L 305.593596 253.841787 
L 301.666389 254.373686 
L 305.593596 253.841787 
L 320.531913 251.813913 
L 324.473867 251.282007 
L 316.604706 252.345812 
L 320.531913 251.813913 
L 324.473867 251.282007 
L 327.528443 250.883079 
L 331.471134 250.351181 
L 335.498249 249.786032 
L 338.474115 249.387112 
L 342.416069 248.855206 
L 346.435258 248.290064 
L 350.374815 247.758158 
L 353.436949 247.35923 
L 357.348856 246.827332 
L 361.289335 246.295433 
L 368.28439 245.331356 
L 372.310215 244.799458 
L 376.249588 244.267552 
L 379.179003 243.868624 
L 383.198929 243.303483 
L 387.122265 242.771576 
L 390.183846 242.372656 
L 394.12414 241.84075 
L 398.063882 241.308851 
L 401.116984 240.876681 
L 405.055804 240.378018 
L 409.065592 239.812876 
L 413.003121 239.247727 
L 415.977881 238.88205 
L 419.996517 238.350144 
L 423.934231 237.818245 
L 426.994891 237.386075 
" clip-path="url(#pd7c1396481)" style="fill: none; stroke: #bcbd22; stroke-width: 1.5; stroke-linecap: square"/>
   </g>
   <g id="line2d_26">
    <path d="M 59.035412 287.185398 
L 62.798563 287.052422 
L 65.841342 286.753227 
L 69.774264 286.52052 
L 73.688752 286.420788 
L 77.645083 286.188081 
L 80.597355 285.955374 
L 84.61212 285.689422 
L 88.523105 285.489959 
L 92.449022 285.257252 
L 95.464336 285.057789 
L 99.391911 284.758594 
L 103.404095 284.559131 
L 107.328722 284.326423 
L 110.280256 284.12696 
L 114.286357 283.861009 
L 118.195868 283.661546 
L 121.23367 283.462082 
L 125.159956 283.196131 
L 129.085872 282.963424 
L 133.073356 282.730717 
L 136.02489 282.531253 
L 140.037628 282.298546 
L 143.962254 282.099083 
L 146.913604 281.866375 
L 150.917862 281.633669 
L 154.842304 281.434205 
L 158.853014 281.168253 
L 161.804179 280.935547 
L 165.73028 280.736084 
L 169.716842 280.503375 
L 173.640916 280.237425 
L 176.662128 280.037962 
L 180.586754 279.838498 
L 184.510643 279.572551 
L 187.506417 279.373087 
L 191.397679 279.14038 
L 195.374656 278.874423 
L 199.264075 278.641717 
L 203.154231 278.40901 
L 206.134706 278.209546 
L 210.025046 277.97684 
L 214.001838 277.71089 
L 217.891442 277.478184 
L 220.79339 277.311963 
L 224.748247 277.046013 
L 228.63785 276.813307 
L 232.613353 276.547357 
L 235.513827 276.381136 
L 239.388868 276.14843 
L 243.357181 275.88248 
L 247.27554 275.616524 
L 250.278687 275.417067 
L 254.198889 275.217603 
L 258.117801 274.951646 
L 262.115055 274.685697 
L 265.048525 274.519476 
L 269.055179 274.253527 
L 272.973538 274.02082 
L 276.891528 273.754871 
L 279.902786 273.58865 
L 283.822251 273.355943 
L 287.827247 273.089994 
L 290.773435 272.89053 
L 294.692347 272.657823 
L 298.688679 272.391874 
L 302.605563 272.159167 
L 305.638204 271.959704 
L 309.555826 271.726997 
L 313.472526 271.49429 
L 317.452268 271.228334 
L 320.398272 271.028877 
L 324.403452 270.796163 
L 328.319783 270.563456 
L 331.249197 270.363993 
L 335.231335 270.098043 
L 339.131814 269.898579 
L 343.120035 269.63263 
L 346.049265 269.433166 
L 349.953615 269.20046 
L 353.947919 268.93451 
L 357.862407 268.701804 
L 360.893757 268.50234 
L 364.796817 268.269633 
L 368.712411 268.003684 
L 372.705978 267.77097 
L 375.65106 267.571506 
L 379.654212 267.338799 
L 383.569438 267.106093 
L 387.483373 266.840144 
L 390.507534 266.673922 
L 394.423681 266.407973 
L 398.424805 266.142024 
L 401.369704 265.94256 
L 405.284929 265.709853 
L 409.277758 265.477147 
L 413.19114 265.211197 
L 416.222491 265.011734 
" clip-path="url(#pd7c1396481)" style="fill: none; stroke: #17becf; stroke-width: 1.5; stroke-linecap: square"/>
   </g>
   <g id="patch_3">
    <path d="M 40.603125 299.798125 
L 40.603125 22.318125 
" style="fill: none; stroke: #000000; stroke-width: 0.8; stroke-linejoin: miter; stroke-linecap: square"/>
   </g>
   <g id="patch_4">
    <path d="M 445.943125 299.798125 
L 445.943125 22.318125 
" style="fill: none; stroke: #000000; stroke-width: 0.8; stroke-linejoin: miter; stroke-linecap: square"/>
   </g>
   <g id="patch_5">
    <path d="M 40.603125 299.798125 
L 445.943125 299.798125 
" style="fill: none; stroke: #000000; stroke-width: 0.8; stroke-linejoin: miter; stroke-linecap: square"/>
   </g>
   <g id="patch_6">
    <path d="M 40.603125 22.318125 
L 445.943125 22.318125 
" style="fill: none; stroke: #000000; stroke-width: 0.8; stroke-linejoin: miter; stroke-linecap: square"/>
   </g>
   <g id="text_20">
    <!-- left theta vs. time -->
    <g transform="translate(189.819688 16.318125) scale(0.12 -0.12)">
     <defs>
      <path id="DejaVuSans-76" d="M 191 3500 
L 800 3500 
L 1894 563 
L 2988 3500 
L 3597 3500 
L 2284 0 
L 1503 0 
L 191 3500 
z
" transform="scale(0.015625)"/>
     </defs>
     <use xlink:href="#DejaVuSans-6c"/>
     <use xlink:href="#DejaVuSans-65" transform="translate(27.783203 0)"/>
     <use xlink:href="#DejaVuSans-66" transform="translate(89.306641 0)"/>
     <use xlink:href="#DejaVuSans-74" transform="translate(122.761719 0)"/>
     <use xlink:href="#DejaVuSans-20" transform="translate(161.970703 0)"/>
     <use xlink:href="#DejaVuSans-74" transform="translate(193.757812 0)"/>
     <use xlink:href="#DejaVuSans-68" transform="translate(232.966797 0)"/>
     <use xlink:href="#DejaVuSans-65" transform="translate(296.345703 0)"/>
     <use xlink:href="#DejaVuSans-74" transform="translate(357.869141 0)"/>
     <use xlink:href="#DejaVuSans-61" transform="translate(397.078125 0)"/>
     <use xlink:href="#DejaVuSans-20" transform="translate(458.357422 0)"/>
     <use xlink:href="#DejaVuSans-76" transform="translate(490.144531 0)"/>
     <use xlink:href="#DejaVuSans-73" transform="translate(549.324219 0)"/>
     <use xlink:href="#DejaVuSans-2e" transform="translate(601.423828 0)"/>
     <use xlink:href="#DejaVuSans-20" transform="translate(633.210938 0)"/>
     <use xlink:href="#DejaVuSans-74" transform="translate(664.998047 0)"/>
     <use xlink:href="#DejaVuSans-69" transform="translate(704.207031 0)"/>
     <use xlink:href="#DejaVuSans-6d" transform="translate(731.990234 0)"/>
     <use xlink:href="#DejaVuSans-65" transform="translate(829.402344 0)"/>
    </g>
   </g>
   <g id="legend_1">
    <g id="patch_7">
     <path d="M 47.603125 177.099375 
L 164.128125 177.099375 
Q 166.128125 177.099375 166.128125 175.099375 
L 166.128125 29.318125 
Q 166.128125 27.318125 164.128125 27.318125 
L 47.603125 27.318125 
Q 45.603125 27.318125 45.603125 29.318125 
L 45.603125 175.099375 
Q 45.603125 177.099375 47.603125 177.099375 
z
" style="fill: #ffffff; opacity: 0.8; stroke: #cccccc; stroke-linejoin: miter"/>
    </g>
    <g id="line2d_27">
     <path d="M 49.603125 35.416562 
L 59.603125 35.416562 
L 69.603125 35.416562 
" style="fill: none; stroke: #1f77b4; stroke-width: 1.5; stroke-linecap: square"/>
    </g>
    <g id="text_21">
     <!-- Ref Speed = 850 -->
     <g transform="translate(77.603125 38.916562) scale(0.1 -0.1)">
      <defs>
       <path id="DejaVuSans-52" d="M 2841 2188 
Q 3044 2119 3236 1894 
Q 3428 1669 3622 1275 
L 4263 0 
L 3584 0 
L 2988 1197 
Q 2756 1666 2539 1819 
Q 2322 1972 1947 1972 
L 1259 1972 
L 1259 0 
L 628 0 
L 628 4666 
L 2053 4666 
Q 2853 4666 3247 4331 
Q 3641 3997 3641 3322 
Q 3641 2881 3436 2590 
Q 3231 2300 2841 2188 
z
M 1259 4147 
L 1259 2491 
L 2053 2491 
Q 2509 2491 2742 2702 
Q 2975 2913 2975 3322 
Q 2975 3731 2742 3939 
Q 2509 4147 2053 4147 
L 1259 4147 
z
" transform="scale(0.015625)"/>
       <path id="DejaVuSans-53" d="M 3425 4513 
L 3425 3897 
Q 3066 4069 2747 4153 
Q 2428 4238 2131 4238 
Q 1616 4238 1336 4038 
Q 1056 3838 1056 3469 
Q 1056 3159 1242 3001 
Q 1428 2844 1947 2747 
L 2328 2669 
Q 3034 2534 3370 2195 
Q 3706 1856 3706 1288 
Q 3706 609 3251 259 
Q 2797 -91 1919 -91 
Q 1588 -91 1214 -16 
Q 841 59 441 206 
L 441 856 
Q 825 641 1194 531 
Q 1563 422 1919 422 
Q 2459 422 2753 634 
Q 3047 847 3047 1241 
Q 3047 1584 2836 1778 
Q 2625 1972 2144 2069 
L 1759 2144 
Q 1053 2284 737 2584 
Q 422 2884 422 3419 
Q 422 4038 858 4394 
Q 1294 4750 2059 4750 
Q 2388 4750 2728 4690 
Q 3069 4631 3425 4513 
z
" transform="scale(0.015625)"/>
       <path id="DejaVuSans-70" d="M 1159 525 
L 1159 -1331 
L 581 -1331 
L 581 3500 
L 1159 3500 
L 1159 2969 
Q 1341 3281 1617 3432 
Q 1894 3584 2278 3584 
Q 2916 3584 3314 3078 
Q 3713 2572 3713 1747 
Q 3713 922 3314 415 
Q 2916 -91 2278 -91 
Q 1894 -91 1617 61 
Q 1341 213 1159 525 
z
M 3116 1747 
Q 3116 2381 2855 2742 
Q 2594 3103 2138 3103 
Q 1681 3103 1420 2742 
Q 1159 2381 1159 1747 
Q 1159 1113 1420 752 
Q 1681 391 2138 391 
Q 2594 391 2855 752 
Q 3116 1113 3116 1747 
z
" transform="scale(0.015625)"/>
       <path id="DejaVuSans-3d" d="M 678 2906 
L 4684 2906 
L 4684 2381 
L 678 2381 
L 678 2906 
z
M 678 1631 
L 4684 1631 
L 4684 1100 
L 678 1100 
L 678 1631 
z
" transform="scale(0.015625)"/>
       <path id="DejaVuSans-38" d="M 2034 2216 
Q 1584 2216 1326 1975 
Q 1069 1734 1069 1313 
Q 1069 891 1326 650 
Q 1584 409 2034 409 
Q 2484 409 2743 651 
Q 3003 894 3003 1313 
Q 3003 1734 2745 1975 
Q 2488 2216 2034 2216 
z
M 1403 2484 
Q 997 2584 770 2862 
Q 544 3141 544 3541 
Q 544 4100 942 4425 
Q 1341 4750 2034 4750 
Q 2731 4750 3128 4425 
Q 3525 4100 3525 3541 
Q 3525 3141 3298 2862 
Q 3072 2584 2669 2484 
Q 3125 2378 3379 2068 
Q 3634 1759 3634 1313 
Q 3634 634 3220 271 
Q 2806 -91 2034 -91 
Q 1263 -91 848 271 
Q 434 634 434 1313 
Q 434 1759 690 2068 
Q 947 2378 1403 2484 
z
M 1172 3481 
Q 1172 3119 1398 2916 
Q 1625 2713 2034 2713 
Q 2441 2713 2670 2916 
Q 2900 3119 2900 3481 
Q 2900 3844 2670 4047 
Q 2441 4250 2034 4250 
Q 1625 4250 1398 4047 
Q 1172 3844 1172 3481 
z
" transform="scale(0.015625)"/>
      </defs>
      <use xlink:href="#DejaVuSans-52"/>
      <use xlink:href="#DejaVuSans-65" transform="translate(64.982422 0)"/>
      <use xlink:href="#DejaVuSans-66" transform="translate(126.505859 0)"/>
      <use xlink:href="#DejaVuSans-20" transform="translate(161.710938 0)"/>
      <use xlink:href="#DejaVuSans-53" transform="translate(193.498047 0)"/>
      <use xlink:href="#DejaVuSans-70" transform="translate(256.974609 0)"/>
      <use xlink:href="#DejaVuSans-65" transform="translate(320.451172 0)"/>
      <use xlink:href="#DejaVuSans-65" transform="translate(381.974609 0)"/>
      <use xlink:href="#DejaVuSans-64" transform="translate(443.498047 0)"/>
      <use xlink:href="#DejaVuSans-20" transform="translate(506.974609 0)"/>
      <use xlink:href="#DejaVuSans-3d" transform="translate(538.761719 0)"/>
      <use xlink:href="#DejaVuSans-20" transform="translate(622.550781 0)"/>
      <use xlink:href="#DejaVuSans-38" transform="translate(654.337891 0)"/>
      <use xlink:href="#DejaVuSans-35" transform="translate(717.960938 0)"/>
      <use xlink:href="#DejaVuSans-30" transform="translate(781.583984 0)"/>
     </g>
    </g>
    <g id="line2d_28">
     <path d="M 49.603125 50.094688 
L 59.603125 50.094688 
L 69.603125 50.094688 
" style="fill: none; stroke: #ff7f0e; stroke-width: 1.5; stroke-linecap: square"/>
    </g>
    <g id="text_22">
     <!-- Ref Speed = 765 -->
     <g transform="translate(77.603125 53.594688) scale(0.1 -0.1)">
      <use xlink:href="#DejaVuSans-52"/>
      <use xlink:href="#DejaVuSans-65" transform="translate(64.982422 0)"/>
      <use xlink:href="#DejaVuSans-66" transform="translate(126.505859 0)"/>
      <use xlink:href="#DejaVuSans-20" transform="translate(161.710938 0)"/>
      <use xlink:href="#DejaVuSans-53" transform="translate(193.498047 0)"/>
      <use xlink:href="#DejaVuSans-70" transform="translate(256.974609 0)"/>
      <use xlink:href="#DejaVuSans-65" transform="translate(320.451172 0)"/>
      <use xlink:href="#DejaVuSans-65" transform="translate(381.974609 0)"/>
      <use xlink:href="#DejaVuSans-64" transform="translate(443.498047 0)"/>
      <use xlink:href="#DejaVuSans-20" transform="translate(506.974609 0)"/>
      <use xlink:href="#DejaVuSans-3d" transform="translate(538.761719 0)"/>
      <use xlink:href="#DejaVuSans-20" transform="translate(622.550781 0)"/>
      <use xlink:href="#DejaVuSans-37" transform="translate(654.337891 0)"/>
      <use xlink:href="#DejaVuSans-36" transform="translate(717.960938 0)"/>
      <use xlink:href="#DejaVuSans-35" transform="translate(781.583984 0)"/>
     </g>
    </g>
    <g id="line2d_29">
     <path d="M 49.603125 64.772813 
L 59.603125 64.772813 
L 69.603125 64.772813 
" style="fill: none; stroke: #2ca02c; stroke-width: 1.5; stroke-linecap: square"/>
    </g>
    <g id="text_23">
     <!-- Ref Speed = 680 -->
     <g transform="translate(77.603125 68.272813) scale(0.1 -0.1)">
      <use xlink:href="#DejaVuSans-52"/>
      <use xlink:href="#DejaVuSans-65" transform="translate(64.982422 0)"/>
      <use xlink:href="#DejaVuSans-66" transform="translate(126.505859 0)"/>
      <use xlink:href="#DejaVuSans-20" transform="translate(161.710938 0)"/>
      <use xlink:href="#DejaVuSans-53" transform="translate(193.498047 0)"/>
      <use xlink:href="#DejaVuSans-70" transform="translate(256.974609 0)"/>
      <use xlink:href="#DejaVuSans-65" transform="translate(320.451172 0)"/>
      <use xlink:href="#DejaVuSans-65" transform="translate(381.974609 0)"/>
      <use xlink:href="#DejaVuSans-64" transform="translate(443.498047 0)"/>
      <use xlink:href="#DejaVuSans-20" transform="translate(506.974609 0)"/>
      <use xlink:href="#DejaVuSans-3d" transform="translate(538.761719 0)"/>
      <use xlink:href="#DejaVuSans-20" transform="translate(622.550781 0)"/>
      <use xlink:href="#DejaVuSans-36" transform="translate(654.337891 0)"/>
      <use xlink:href="#DejaVuSans-38" transform="translate(717.960938 0)"/>
      <use xlink:href="#DejaVuSans-30" transform="translate(781.583984 0)"/>
     </g>
    </g>
    <g id="line2d_30">
     <path d="M 49.603125 79.450938 
L 59.603125 79.450938 
L 69.603125 79.450938 
" style="fill: none; stroke: #d62728; stroke-width: 1.5; stroke-linecap: square"/>
    </g>
    <g id="text_24">
     <!-- Ref Speed = 595 -->
     <g transform="translate(77.603125 82.950938) scale(0.1 -0.1)">
      <defs>
       <path id="DejaVuSans-39" d="M 703 97 
L 703 672 
Q 941 559 1184 500 
Q 1428 441 1663 441 
Q 2288 441 2617 861 
Q 2947 1281 2994 2138 
Q 2813 1869 2534 1725 
Q 2256 1581 1919 1581 
Q 1219 1581 811 2004 
Q 403 2428 403 3163 
Q 403 3881 828 4315 
Q 1253 4750 1959 4750 
Q 2769 4750 3195 4129 
Q 3622 3509 3622 2328 
Q 3622 1225 3098 567 
Q 2575 -91 1691 -91 
Q 1453 -91 1209 -44 
Q 966 3 703 97 
z
M 1959 2075 
Q 2384 2075 2632 2365 
Q 2881 2656 2881 3163 
Q 2881 3666 2632 3958 
Q 2384 4250 1959 4250 
Q 1534 4250 1286 3958 
Q 1038 3666 1038 3163 
Q 1038 2656 1286 2365 
Q 1534 2075 1959 2075 
z
" transform="scale(0.015625)"/>
      </defs>
      <use xlink:href="#DejaVuSans-52"/>
      <use xlink:href="#DejaVuSans-65" transform="translate(64.982422 0)"/>
      <use xlink:href="#DejaVuSans-66" transform="translate(126.505859 0)"/>
      <use xlink:href="#DejaVuSans-20" transform="translate(161.710938 0)"/>
      <use xlink:href="#DejaVuSans-53" transform="translate(193.498047 0)"/>
      <use xlink:href="#DejaVuSans-70" transform="translate(256.974609 0)"/>
      <use xlink:href="#DejaVuSans-65" transform="translate(320.451172 0)"/>
      <use xlink:href="#DejaVuSans-65" transform="translate(381.974609 0)"/>
      <use xlink:href="#DejaVuSans-64" transform="translate(443.498047 0)"/>
      <use xlink:href="#DejaVuSans-20" transform="translate(506.974609 0)"/>
      <use xlink:href="#DejaVuSans-3d" transform="translate(538.761719 0)"/>
      <use xlink:href="#DejaVuSans-20" transform="translate(622.550781 0)"/>
      <use xlink:href="#DejaVuSans-35" transform="translate(654.337891 0)"/>
      <use xlink:href="#DejaVuSans-39" transform="translate(717.960938 0)"/>
      <use xlink:href="#DejaVuSans-35" transform="translate(781.583984 0)"/>
     </g>
    </g>
    <g id="line2d_31">
     <path d="M 49.603125 94.129063 
L 59.603125 94.129063 
L 69.603125 94.129063 
" style="fill: none; stroke: #9467bd; stroke-width: 1.5; stroke-linecap: square"/>
    </g>
    <g id="text_25">
     <!-- Ref Speed = 510 -->
     <g transform="translate(77.603125 97.629063) scale(0.1 -0.1)">
      <use xlink:href="#DejaVuSans-52"/>
      <use xlink:href="#DejaVuSans-65" transform="translate(64.982422 0)"/>
      <use xlink:href="#DejaVuSans-66" transform="translate(126.505859 0)"/>
      <use xlink:href="#DejaVuSans-20" transform="translate(161.710938 0)"/>
      <use xlink:href="#DejaVuSans-53" transform="translate(193.498047 0)"/>
      <use xlink:href="#DejaVuSans-70" transform="translate(256.974609 0)"/>
      <use xlink:href="#DejaVuSans-65" transform="translate(320.451172 0)"/>
      <use xlink:href="#DejaVuSans-65" transform="translate(381.974609 0)"/>
      <use xlink:href="#DejaVuSans-64" transform="translate(443.498047 0)"/>
      <use xlink:href="#DejaVuSans-20" transform="translate(506.974609 0)"/>
      <use xlink:href="#DejaVuSans-3d" transform="translate(538.761719 0)"/>
      <use xlink:href="#DejaVuSans-20" transform="translate(622.550781 0)"/>
      <use xlink:href="#DejaVuSans-35" transform="translate(654.337891 0)"/>
      <use xlink:href="#DejaVuSans-31" transform="translate(717.960938 0)"/>
      <use xlink:href="#DejaVuSans-30" transform="translate(781.583984 0)"/>
     </g>
    </g>
    <g id="line2d_32">
     <path d="M 49.603125 108.807187 
L 59.603125 108.807187 
L 69.603125 108.807187 
" style="fill: none; stroke: #8c564b; stroke-width: 1.5; stroke-linecap: square"/>
    </g>
    <g id="text_26">
     <!-- Ref Speed = 425 -->
     <g transform="translate(77.603125 112.307187) scale(0.1 -0.1)">
      <defs>
       <path id="DejaVuSans-34" d="M 2419 4116 
L 825 1625 
L 2419 1625 
L 2419 4116 
z
M 2253 4666 
L 3047 4666 
L 3047 1625 
L 3713 1625 
L 3713 1100 
L 3047 1100 
L 3047 0 
L 2419 0 
L 2419 1100 
L 313 1100 
L 313 1709 
L 2253 4666 
z
" transform="scale(0.015625)"/>
      </defs>
      <use xlink:href="#DejaVuSans-52"/>
      <use xlink:href="#DejaVuSans-65" transform="translate(64.982422 0)"/>
      <use xlink:href="#DejaVuSans-66" transform="translate(126.505859 0)"/>
      <use xlink:href="#DejaVuSans-20" transform="translate(161.710938 0)"/>
      <use xlink:href="#DejaVuSans-53" transform="translate(193.498047 0)"/>
      <use xlink:href="#DejaVuSans-70" transform="translate(256.974609 0)"/>
      <use xlink:href="#DejaVuSans-65" transform="translate(320.451172 0)"/>
      <use xlink:href="#DejaVuSans-65" transform="translate(381.974609 0)"/>
      <use xlink:href="#DejaVuSans-64" transform="translate(443.498047 0)"/>
      <use xlink:href="#DejaVuSans-20" transform="translate(506.974609 0)"/>
      <use xlink:href="#DejaVuSans-3d" transform="translate(538.761719 0)"/>
      <use xlink:href="#DejaVuSans-20" transform="translate(622.550781 0)"/>
      <use xlink:href="#DejaVuSans-34" transform="translate(654.337891 0)"/>
      <use xlink:href="#DejaVuSans-32" transform="translate(717.960938 0)"/>
      <use xlink:href="#DejaVuSans-35" transform="translate(781.583984 0)"/>
     </g>
    </g>
    <g id="line2d_33">
     <path d="M 49.603125 123.485313 
L 59.603125 123.485313 
L 69.603125 123.485313 
" style="fill: none; stroke: #e377c2; stroke-width: 1.5; stroke-linecap: square"/>
    </g>
    <g id="text_27">
     <!-- Ref Speed = 340 -->
     <g transform="translate(77.603125 126.985313) scale(0.1 -0.1)">
      <use xlink:href="#DejaVuSans-52"/>
      <use xlink:href="#DejaVuSans-65" transform="translate(64.982422 0)"/>
      <use xlink:href="#DejaVuSans-66" transform="translate(126.505859 0)"/>
      <use xlink:href="#DejaVuSans-20" transform="translate(161.710938 0)"/>
      <use xlink:href="#DejaVuSans-53" transform="translate(193.498047 0)"/>
      <use xlink:href="#DejaVuSans-70" transform="translate(256.974609 0)"/>
      <use xlink:href="#DejaVuSans-65" transform="translate(320.451172 0)"/>
      <use xlink:href="#DejaVuSans-65" transform="translate(381.974609 0)"/>
      <use xlink:href="#DejaVuSans-64" transform="translate(443.498047 0)"/>
      <use xlink:href="#DejaVuSans-20" transform="translate(506.974609 0)"/>
      <use xlink:href="#DejaVuSans-3d" transform="translate(538.761719 0)"/>
      <use xlink:href="#DejaVuSans-20" transform="translate(622.550781 0)"/>
      <use xlink:href="#DejaVuSans-33" transform="translate(654.337891 0)"/>
      <use xlink:href="#DejaVuSans-34" transform="translate(717.960938 0)"/>
      <use xlink:href="#DejaVuSans-30" transform="translate(781.583984 0)"/>
     </g>
    </g>
    <g id="line2d_34">
     <path d="M 49.603125 138.163437 
L 59.603125 138.163437 
L 69.603125 138.163437 
" style="fill: none; stroke: #7f7f7f; stroke-width: 1.5; stroke-linecap: square"/>
    </g>
    <g id="text_28">
     <!-- Ref Speed = 255 -->
     <g transform="translate(77.603125 141.663437) scale(0.1 -0.1)">
      <use xlink:href="#DejaVuSans-52"/>
      <use xlink:href="#DejaVuSans-65" transform="translate(64.982422 0)"/>
      <use xlink:href="#DejaVuSans-66" transform="translate(126.505859 0)"/>
      <use xlink:href="#DejaVuSans-20" transform="translate(161.710938 0)"/>
      <use xlink:href="#DejaVuSans-53" transform="translate(193.498047 0)"/>
      <use xlink:href="#DejaVuSans-70" transform="translate(256.974609 0)"/>
      <use xlink:href="#DejaVuSans-65" transform="translate(320.451172 0)"/>
      <use xlink:href="#DejaVuSans-65" transform="translate(381.974609 0)"/>
      <use xlink:href="#DejaVuSans-64" transform="translate(443.498047 0)"/>
      <use xlink:href="#DejaVuSans-20" transform="translate(506.974609 0)"/>
      <use xlink:href="#DejaVuSans-3d" transform="translate(538.761719 0)"/>
      <use xlink:href="#DejaVuSans-20" transform="translate(622.550781 0)"/>
      <use xlink:href="#DejaVuSans-32" transform="translate(654.337891 0)"/>
      <use xlink:href="#DejaVuSans-35" transform="translate(717.960938 0)"/>
      <use xlink:href="#DejaVuSans-35" transform="translate(781.583984 0)"/>
     </g>
    </g>
    <g id="line2d_35">
     <path d="M 49.603125 152.841563 
L 59.603125 152.841563 
L 69.603125 152.841563 
" style="fill: none; stroke: #bcbd22; stroke-width: 1.5; stroke-linecap: square"/>
    </g>
    <g id="text_29">
     <!-- Ref Speed = 170 -->
     <g transform="translate(77.603125 156.341563) scale(0.1 -0.1)">
      <use xlink:href="#DejaVuSans-52"/>
      <use xlink:href="#DejaVuSans-65" transform="translate(64.982422 0)"/>
      <use xlink:href="#DejaVuSans-66" transform="translate(126.505859 0)"/>
      <use xlink:href="#DejaVuSans-20" transform="translate(161.710938 0)"/>
      <use xlink:href="#DejaVuSans-53" transform="translate(193.498047 0)"/>
      <use xlink:href="#DejaVuSans-70" transform="translate(256.974609 0)"/>
      <use xlink:href="#DejaVuSans-65" transform="translate(320.451172 0)"/>
      <use xlink:href="#DejaVuSans-65" transform="translate(381.974609 0)"/>
      <use xlink:href="#DejaVuSans-64" transform="translate(443.498047 0)"/>
      <use xlink:href="#DejaVuSans-20" transform="translate(506.974609 0)"/>
      <use xlink:href="#DejaVuSans-3d" transform="translate(538.761719 0)"/>
      <use xlink:href="#DejaVuSans-20" transform="translate(622.550781 0)"/>
      <use xlink:href="#DejaVuSans-31" transform="translate(654.337891 0)"/>
      <use xlink:href="#DejaVuSans-37" transform="translate(717.960938 0)"/>
      <use xlink:href="#DejaVuSans-30" transform="translate(781.583984 0)"/>
     </g>
    </g>
    <g id="line2d_36">
     <path d="M 49.603125 167.519687 
L 59.603125 167.519687 
L 69.603125 167.519687 
" style="fill: none; stroke: #17becf; stroke-width: 1.5; stroke-linecap: square"/>
    </g>
    <g id="text_30">
     <!-- Ref Speed = 85 -->
     <g transform="translate(77.603125 171.019687) scale(0.1 -0.1)">
      <use xlink:href="#DejaVuSans-52"/>
      <use xlink:href="#DejaVuSans-65" transform="translate(64.982422 0)"/>
      <use xlink:href="#DejaVuSans-66" transform="translate(126.505859 0)"/>
      <use xlink:href="#DejaVuSans-20" transform="translate(161.710938 0)"/>
      <use xlink:href="#DejaVuSans-53" transform="translate(193.498047 0)"/>
      <use xlink:href="#DejaVuSans-70" transform="translate(256.974609 0)"/>
      <use xlink:href="#DejaVuSans-65" transform="translate(320.451172 0)"/>
      <use xlink:href="#DejaVuSans-65" transform="translate(381.974609 0)"/>
      <use xlink:href="#DejaVuSans-64" transform="translate(443.498047 0)"/>
      <use xlink:href="#DejaVuSans-20" transform="translate(506.974609 0)"/>
      <use xlink:href="#DejaVuSans-3d" transform="translate(538.761719 0)"/>
      <use xlink:href="#DejaVuSans-20" transform="translate(622.550781 0)"/>
      <use xlink:href="#DejaVuSans-38" transform="translate(654.337891 0)"/>
      <use xlink:href="#DejaVuSans-35" transform="translate(717.960938 0)"/>
     </g>
    </g>
   </g>
  </g>
 </g>
 <defs>
  <clipPath id="pd7c1396481">
   <rect x="40.603125" y="22.318125" width="405.34" height="277.48"/>
  </clipPath>
 </defs>
</svg>
