<?xml version="1.0" encoding="utf-8" standalone="no"?>
<!DOCTYPE svg PUBLIC "-//W3C//DTD SVG 1.1//EN"
  "http://www.w3.org/Graphics/SVG/1.1/DTD/svg11.dtd">
<svg xmlns:xlink="http://www.w3.org/1999/xlink" width="453.115625pt" height="337.354375pt" viewBox="0 0 453.115625 337.354375" xmlns="http://www.w3.org/2000/svg" version="1.1">
 <metadata>
  <rdf:RDF xmlns:dc="http://purl.org/dc/elements/1.1/" xmlns:cc="http://creativecommons.org/ns#" xmlns:rdf="http://www.w3.org/1999/02/22-rdf-syntax-ns#">
   <cc:Work>
    <dc:type rdf:resource="http://purl.org/dc/dcmitype/StillImage"/>
    <dc:date>2025-10-28T18:36:46.791533</dc:date>
    <dc:format>image/svg+xml</dc:format>
    <dc:creator>
     <cc:Agent>
      <dc:title>Matplotlib v3.10.6, https://matplotlib.org/</dc:title>
     </cc:Agent>
    </dc:creator>
   </cc:Work>
  </rdf:RDF>
 </metadata>
 <defs>
  <style type="text/css">*{stroke-linejoin: round; stroke-linecap: butt}</style>
 </defs>
 <g id="figure_1">
  <g id="patch_1">
   <path d="M 0 337.354375 
L 453.115625 337.354375 
L 453.115625 0 
L 0 0 
z
" style="fill: #ffffff"/>
  </g>
  <g id="axes_1">
   <g id="patch_2">
    <path d="M 46.965625 299.798125 
L 445.915625 299.798125 
L 445.915625 22.318125 
L 46.965625 22.318125 
z
" style="fill: #ffffff"/>
   </g>
   <g id="matplotlib.axis_1">
    <g id="xtick_1">
     <g id="line2d_1">
      <defs>
       <path id="m665c424068" d="M 0 0 
L 0 3.5 
" style="stroke: #000000; stroke-width: 0.8"/>
      </defs>
      <g>
       <use xlink:href="#m665c424068" x="64.924632" y="299.798125" style="stroke: #000000; stroke-width: 0.8"/>
      </g>
     </g>
     <g id="text_1">
      <!-- 0.00 -->
      <g transform="translate(53.791819 314.396563) scale(0.1 -0.1)">
       <defs>
        <path id="DejaVuSans-30" d="M 2034 4250 
Q 1547 4250 1301 3770 
Q 1056 3291 1056 2328 
Q 1056 1369 1301 889 
Q 1547 409 2034 409 
Q 2525 409 2770 889 
Q 3016 1369 3016 2328 
Q 3016 3291 2770 3770 
Q 2525 4250 2034 4250 
z
M 2034 4750 
Q 2819 4750 3233 4129 
Q 3647 3509 3647 2328 
Q 3647 1150 3233 529 
Q 2819 -91 2034 -91 
Q 1250 -91 836 529 
Q 422 1150 422 2328 
Q 422 3509 836 4129 
Q 1250 4750 2034 4750 
z
" transform="scale(0.015625)"/>
        <path id="DejaVuSans-2e" d="M 684 794 
L 1344 794 
L 1344 0 
L 684 0 
L 684 794 
z
" transform="scale(0.015625)"/>
       </defs>
       <use xlink:href="#DejaVuSans-30"/>
       <use xlink:href="#DejaVuSans-2e" transform="translate(63.623047 0)"/>
       <use xlink:href="#DejaVuSans-30" transform="translate(95.410156 0)"/>
       <use xlink:href="#DejaVuSans-30" transform="translate(159.033203 0)"/>
      </g>
     </g>
    </g>
    <g id="xtick_2">
     <g id="line2d_2">
      <g>
       <use xlink:href="#m665c424068" x="110.283241" y="299.798125" style="stroke: #000000; stroke-width: 0.8"/>
      </g>
     </g>
     <g id="text_2">
      <!-- 0.25 -->
      <g transform="translate(99.150429 314.396563) scale(0.1 -0.1)">
       <defs>
        <path id="DejaVuSans-32" d="M 1228 531 
L 3431 531 
L 3431 0 
L 469 0 
L 469 531 
Q 828 903 1448 1529 
Q 2069 2156 2228 2338 
Q 2531 2678 2651 2914 
Q 2772 3150 2772 3378 
Q 2772 3750 2511 3984 
Q 2250 4219 1831 4219 
Q 1534 4219 1204 4116 
Q 875 4013 500 3803 
L 500 4441 
Q 881 4594 1212 4672 
Q 1544 4750 1819 4750 
Q 2544 4750 2975 4387 
Q 3406 4025 3406 3419 
Q 3406 3131 3298 2873 
Q 3191 2616 2906 2266 
Q 2828 2175 2409 1742 
Q 1991 1309 1228 531 
z
" transform="scale(0.015625)"/>
        <path id="DejaVuSans-35" d="M 691 4666 
L 3169 4666 
L 3169 4134 
L 1269 4134 
L 1269 2991 
Q 1406 3038 1543 3061 
Q 1681 3084 1819 3084 
Q 2600 3084 3056 2656 
Q 3513 2228 3513 1497 
Q 3513 744 3044 326 
Q 2575 -91 1722 -91 
Q 1428 -91 1123 -41 
Q 819 9 494 109 
L 494 744 
Q 775 591 1075 516 
Q 1375 441 1709 441 
Q 2250 441 2565 725 
Q 2881 1009 2881 1497 
Q 2881 1984 2565 2268 
Q 2250 2553 1709 2553 
Q 1456 2553 1204 2497 
Q 953 2441 691 2322 
L 691 4666 
z
" transform="scale(0.015625)"/>
       </defs>
       <use xlink:href="#DejaVuSans-30"/>
       <use xlink:href="#DejaVuSans-2e" transform="translate(63.623047 0)"/>
       <use xlink:href="#DejaVuSans-32" transform="translate(95.410156 0)"/>
       <use xlink:href="#DejaVuSans-35" transform="translate(159.033203 0)"/>
      </g>
     </g>
    </g>
    <g id="xtick_3">
     <g id="line2d_3">
      <g>
       <use xlink:href="#m665c424068" x="155.641851" y="299.798125" style="stroke: #000000; stroke-width: 0.8"/>
      </g>
     </g>
     <g id="text_3">
      <!-- 0.50 -->
      <g transform="translate(144.509038 314.396563) scale(0.1 -0.1)">
       <use xlink:href="#DejaVuSans-30"/>
       <use xlink:href="#DejaVuSans-2e" transform="translate(63.623047 0)"/>
       <use xlink:href="#DejaVuSans-35" transform="translate(95.410156 0)"/>
       <use xlink:href="#DejaVuSans-30" transform="translate(159.033203 0)"/>
      </g>
     </g>
    </g>
    <g id="xtick_4">
     <g id="line2d_4">
      <g>
       <use xlink:href="#m665c424068" x="201.000461" y="299.798125" style="stroke: #000000; stroke-width: 0.8"/>
      </g>
     </g>
     <g id="text_4">
      <!-- 0.75 -->
      <g transform="translate(189.867648 314.396563) scale(0.1 -0.1)">
       <defs>
        <path id="DejaVuSans-37" d="M 525 4666 
L 3525 4666 
L 3525 4397 
L 1831 0 
L 1172 0 
L 2766 4134 
L 525 4134 
L 525 4666 
z
" transform="scale(0.015625)"/>
       </defs>
       <use xlink:href="#DejaVuSans-30"/>
       <use xlink:href="#DejaVuSans-2e" transform="translate(63.623047 0)"/>
       <use xlink:href="#DejaVuSans-37" transform="translate(95.410156 0)"/>
       <use xlink:href="#DejaVuSans-35" transform="translate(159.033203 0)"/>
      </g>
     </g>
    </g>
    <g id="xtick_5">
     <g id="line2d_5">
      <g>
       <use xlink:href="#m665c424068" x="246.35907" y="299.798125" style="stroke: #000000; stroke-width: 0.8"/>
      </g>
     </g>
     <g id="text_5">
      <!-- 1.00 -->
      <g transform="translate(235.226258 314.396563) scale(0.1 -0.1)">
       <defs>
        <path id="DejaVuSans-31" d="M 794 531 
L 1825 531 
L 1825 4091 
L 703 3866 
L 703 4441 
L 1819 4666 
L 2450 4666 
L 2450 531 
L 3481 531 
L 3481 0 
L 794 0 
L 794 531 
z
" transform="scale(0.015625)"/>
       </defs>
       <use xlink:href="#DejaVuSans-31"/>
       <use xlink:href="#DejaVuSans-2e" transform="translate(63.623047 0)"/>
       <use xlink:href="#DejaVuSans-30" transform="translate(95.410156 0)"/>
       <use xlink:href="#DejaVuSans-30" transform="translate(159.033203 0)"/>
      </g>
     </g>
    </g>
    <g id="xtick_6">
     <g id="line2d_6">
      <g>
       <use xlink:href="#m665c424068" x="291.71768" y="299.798125" style="stroke: #000000; stroke-width: 0.8"/>
      </g>
     </g>
     <g id="text_6">
      <!-- 1.25 -->
      <g transform="translate(280.584867 314.396563) scale(0.1 -0.1)">
       <use xlink:href="#DejaVuSans-31"/>
       <use xlink:href="#DejaVuSans-2e" transform="translate(63.623047 0)"/>
       <use xlink:href="#DejaVuSans-32" transform="translate(95.410156 0)"/>
       <use xlink:href="#DejaVuSans-35" transform="translate(159.033203 0)"/>
      </g>
     </g>
    </g>
    <g id="xtick_7">
     <g id="line2d_7">
      <g>
       <use xlink:href="#m665c424068" x="337.076289" y="299.798125" style="stroke: #000000; stroke-width: 0.8"/>
      </g>
     </g>
     <g id="text_7">
      <!-- 1.50 -->
      <g transform="translate(325.943477 314.396563) scale(0.1 -0.1)">
       <use xlink:href="#DejaVuSans-31"/>
       <use xlink:href="#DejaVuSans-2e" transform="translate(63.623047 0)"/>
       <use xlink:href="#DejaVuSans-35" transform="translate(95.410156 0)"/>
       <use xlink:href="#DejaVuSans-30" transform="translate(159.033203 0)"/>
      </g>
     </g>
    </g>
    <g id="xtick_8">
     <g id="line2d_8">
      <g>
       <use xlink:href="#m665c424068" x="382.434899" y="299.798125" style="stroke: #000000; stroke-width: 0.8"/>
      </g>
     </g>
     <g id="text_8">
      <!-- 1.75 -->
      <g transform="translate(371.302087 314.396563) scale(0.1 -0.1)">
       <use xlink:href="#DejaVuSans-31"/>
       <use xlink:href="#DejaVuSans-2e" transform="translate(63.623047 0)"/>
       <use xlink:href="#DejaVuSans-37" transform="translate(95.410156 0)"/>
       <use xlink:href="#DejaVuSans-35" transform="translate(159.033203 0)"/>
      </g>
     </g>
    </g>
    <g id="xtick_9">
     <g id="line2d_9">
      <g>
       <use xlink:href="#m665c424068" x="427.793509" y="299.798125" style="stroke: #000000; stroke-width: 0.8"/>
      </g>
     </g>
     <g id="text_9">
      <!-- 2.00 -->
      <g transform="translate(416.660696 314.396563) scale(0.1 -0.1)">
       <use xlink:href="#DejaVuSans-32"/>
       <use xlink:href="#DejaVuSans-2e" transform="translate(63.623047 0)"/>
       <use xlink:href="#DejaVuSans-30" transform="translate(95.410156 0)"/>
       <use xlink:href="#DejaVuSans-30" transform="translate(159.033203 0)"/>
      </g>
     </g>
    </g>
    <g id="text_10">
     <!-- time, t (us) -->
     <g transform="translate(218.742188 328.074688) scale(0.1 -0.1)">
      <defs>
       <path id="DejaVuSans-74" d="M 1172 4494 
L 1172 3500 
L 2356 3500 
L 2356 3053 
L 1172 3053 
L 1172 1153 
Q 1172 725 1289 603 
Q 1406 481 1766 481 
L 2356 481 
L 2356 0 
L 1766 0 
Q 1100 0 847 248 
Q 594 497 594 1153 
L 594 3053 
L 172 3053 
L 172 3500 
L 594 3500 
L 594 4494 
L 1172 4494 
z
" transform="scale(0.015625)"/>
       <path id="DejaVuSans-69" d="M 603 3500 
L 1178 3500 
L 1178 0 
L 603 0 
L 603 3500 
z
M 603 4863 
L 1178 4863 
L 1178 4134 
L 603 4134 
L 603 4863 
z
" transform="scale(0.015625)"/>
       <path id="DejaVuSans-6d" d="M 3328 2828 
Q 3544 3216 3844 3400 
Q 4144 3584 4550 3584 
Q 5097 3584 5394 3201 
Q 5691 2819 5691 2113 
L 5691 0 
L 5113 0 
L 5113 2094 
Q 5113 2597 4934 2840 
Q 4756 3084 4391 3084 
Q 3944 3084 3684 2787 
Q 3425 2491 3425 1978 
L 3425 0 
L 2847 0 
L 2847 2094 
Q 2847 2600 2669 2842 
Q 2491 3084 2119 3084 
Q 1678 3084 1418 2786 
Q 1159 2488 1159 1978 
L 1159 0 
L 581 0 
L 581 3500 
L 1159 3500 
L 1159 2956 
Q 1356 3278 1631 3431 
Q 1906 3584 2284 3584 
Q 2666 3584 2933 3390 
Q 3200 3197 3328 2828 
z
" transform="scale(0.015625)"/>
       <path id="DejaVuSans-65" d="M 3597 1894 
L 3597 1613 
L 953 1613 
Q 991 1019 1311 708 
Q 1631 397 2203 397 
Q 2534 397 2845 478 
Q 3156 559 3463 722 
L 3463 178 
Q 3153 47 2828 -22 
Q 2503 -91 2169 -91 
Q 1331 -91 842 396 
Q 353 884 353 1716 
Q 353 2575 817 3079 
Q 1281 3584 2069 3584 
Q 2775 3584 3186 3129 
Q 3597 2675 3597 1894 
z
M 3022 2063 
Q 3016 2534 2758 2815 
Q 2500 3097 2075 3097 
Q 1594 3097 1305 2825 
Q 1016 2553 972 2059 
L 3022 2063 
z
" transform="scale(0.015625)"/>
       <path id="DejaVuSans-2c" d="M 750 794 
L 1409 794 
L 1409 256 
L 897 -744 
L 494 -744 
L 750 256 
L 750 794 
z
" transform="scale(0.015625)"/>
       <path id="DejaVuSans-20" transform="scale(0.015625)"/>
       <path id="DejaVuSans-28" d="M 1984 4856 
Q 1566 4138 1362 3434 
Q 1159 2731 1159 2009 
Q 1159 1288 1364 580 
Q 1569 -128 1984 -844 
L 1484 -844 
Q 1016 -109 783 600 
Q 550 1309 550 2009 
Q 550 2706 781 3412 
Q 1013 4119 1484 4856 
L 1984 4856 
z
" transform="scale(0.015625)"/>
       <path id="DejaVuSans-75" d="M 544 1381 
L 544 3500 
L 1119 3500 
L 1119 1403 
Q 1119 906 1312 657 
Q 1506 409 1894 409 
Q 2359 409 2629 706 
Q 2900 1003 2900 1516 
L 2900 3500 
L 3475 3500 
L 3475 0 
L 2900 0 
L 2900 538 
Q 2691 219 2414 64 
Q 2138 -91 1772 -91 
Q 1169 -91 856 284 
Q 544 659 544 1381 
z
M 1991 3584 
L 1991 3584 
z
" transform="scale(0.015625)"/>
       <path id="DejaVuSans-73" d="M 2834 3397 
L 2834 2853 
Q 2591 2978 2328 3040 
Q 2066 3103 1784 3103 
Q 1356 3103 1142 2972 
Q 928 2841 928 2578 
Q 928 2378 1081 2264 
Q 1234 2150 1697 2047 
L 1894 2003 
Q 2506 1872 2764 1633 
Q 3022 1394 3022 966 
Q 3022 478 2636 193 
Q 2250 -91 1575 -91 
Q 1294 -91 989 -36 
Q 684 19 347 128 
L 347 722 
Q 666 556 975 473 
Q 1284 391 1588 391 
Q 1994 391 2212 530 
Q 2431 669 2431 922 
Q 2431 1156 2273 1281 
Q 2116 1406 1581 1522 
L 1381 1569 
Q 847 1681 609 1914 
Q 372 2147 372 2553 
Q 372 3047 722 3315 
Q 1072 3584 1716 3584 
Q 2034 3584 2315 3537 
Q 2597 3491 2834 3397 
z
" transform="scale(0.015625)"/>
       <path id="DejaVuSans-29" d="M 513 4856 
L 1013 4856 
Q 1481 4119 1714 3412 
Q 1947 2706 1947 2009 
Q 1947 1309 1714 600 
Q 1481 -109 1013 -844 
L 513 -844 
Q 928 -128 1133 580 
Q 1338 1288 1338 2009 
Q 1338 2731 1133 3434 
Q 928 4138 513 4856 
z
" transform="scale(0.015625)"/>
      </defs>
      <use xlink:href="#DejaVuSans-74"/>
      <use xlink:href="#DejaVuSans-69" transform="translate(39.208984 0)"/>
      <use xlink:href="#DejaVuSans-6d" transform="translate(66.992188 0)"/>
      <use xlink:href="#DejaVuSans-65" transform="translate(164.404297 0)"/>
      <use xlink:href="#DejaVuSans-2c" transform="translate(225.927734 0)"/>
      <use xlink:href="#DejaVuSans-20" transform="translate(257.714844 0)"/>
      <use xlink:href="#DejaVuSans-74" transform="translate(289.501953 0)"/>
      <use xlink:href="#DejaVuSans-20" transform="translate(328.710938 0)"/>
      <use xlink:href="#DejaVuSans-28" transform="translate(360.498047 0)"/>
      <use xlink:href="#DejaVuSans-75" transform="translate(399.511719 0)"/>
      <use xlink:href="#DejaVuSans-73" transform="translate(462.890625 0)"/>
      <use xlink:href="#DejaVuSans-29" transform="translate(514.990234 0)"/>
     </g>
    </g>
    <g id="text_11">
     <!-- 1e6 -->
     <g transform="translate(427.0375 327.074688) scale(0.1 -0.1)">
      <defs>
       <path id="DejaVuSans-36" d="M 2113 2584 
Q 1688 2584 1439 2293 
Q 1191 2003 1191 1497 
Q 1191 994 1439 701 
Q 1688 409 2113 409 
Q 2538 409 2786 701 
Q 3034 994 3034 1497 
Q 3034 2003 2786 2293 
Q 2538 2584 2113 2584 
z
M 3366 4563 
L 3366 3988 
Q 3128 4100 2886 4159 
Q 2644 4219 2406 4219 
Q 1781 4219 1451 3797 
Q 1122 3375 1075 2522 
Q 1259 2794 1537 2939 
Q 1816 3084 2150 3084 
Q 2853 3084 3261 2657 
Q 3669 2231 3669 1497 
Q 3669 778 3244 343 
Q 2819 -91 2113 -91 
Q 1303 -91 875 529 
Q 447 1150 447 2328 
Q 447 3434 972 4092 
Q 1497 4750 2381 4750 
Q 2619 4750 2861 4703 
Q 3103 4656 3366 4563 
z
" transform="scale(0.015625)"/>
      </defs>
      <use xlink:href="#DejaVuSans-31"/>
      <use xlink:href="#DejaVuSans-65" transform="translate(63.623047 0)"/>
      <use xlink:href="#DejaVuSans-36" transform="translate(125.146484 0)"/>
     </g>
    </g>
   </g>
   <g id="matplotlib.axis_2">
    <g id="ytick_1">
     <g id="line2d_10">
      <defs>
       <path id="mf2a4cf40b6" d="M 0 0 
L -3.5 0 
" style="stroke: #000000; stroke-width: 0.8"/>
      </defs>
      <g>
       <use xlink:href="#mf2a4cf40b6" x="46.965625" y="287.185398" style="stroke: #000000; stroke-width: 0.8"/>
      </g>
     </g>
     <g id="text_12">
      <!-- 0 -->
      <g transform="translate(33.603125 290.984616) scale(0.1 -0.1)">
       <use xlink:href="#DejaVuSans-30"/>
      </g>
     </g>
    </g>
    <g id="ytick_2">
     <g id="line2d_11">
      <g>
       <use xlink:href="#mf2a4cf40b6" x="46.965625" y="244.357801" style="stroke: #000000; stroke-width: 0.8"/>
      </g>
     </g>
     <g id="text_13">
      <!-- 100 -->
      <g transform="translate(20.878125 248.15702) scale(0.1 -0.1)">
       <use xlink:href="#DejaVuSans-31"/>
       <use xlink:href="#DejaVuSans-30" transform="translate(63.623047 0)"/>
       <use xlink:href="#DejaVuSans-30" transform="translate(127.246094 0)"/>
      </g>
     </g>
    </g>
    <g id="ytick_3">
     <g id="line2d_12">
      <g>
       <use xlink:href="#mf2a4cf40b6" x="46.965625" y="201.530204" style="stroke: #000000; stroke-width: 0.8"/>
      </g>
     </g>
     <g id="text_14">
      <!-- 200 -->
      <g transform="translate(20.878125 205.329423) scale(0.1 -0.1)">
       <use xlink:href="#DejaVuSans-32"/>
       <use xlink:href="#DejaVuSans-30" transform="translate(63.623047 0)"/>
       <use xlink:href="#DejaVuSans-30" transform="translate(127.246094 0)"/>
      </g>
     </g>
    </g>
    <g id="ytick_4">
     <g id="line2d_13">
      <g>
       <use xlink:href="#mf2a4cf40b6" x="46.965625" y="158.702607" style="stroke: #000000; stroke-width: 0.8"/>
      </g>
     </g>
     <g id="text_15">
      <!-- 300 -->
      <g transform="translate(20.878125 162.501826) scale(0.1 -0.1)">
       <defs>
        <path id="DejaVuSans-33" d="M 2597 2516 
Q 3050 2419 3304 2112 
Q 3559 1806 3559 1356 
Q 3559 666 3084 287 
Q 2609 -91 1734 -91 
Q 1441 -91 1130 -33 
Q 819 25 488 141 
L 488 750 
Q 750 597 1062 519 
Q 1375 441 1716 441 
Q 2309 441 2620 675 
Q 2931 909 2931 1356 
Q 2931 1769 2642 2001 
Q 2353 2234 1838 2234 
L 1294 2234 
L 1294 2753 
L 1863 2753 
Q 2328 2753 2575 2939 
Q 2822 3125 2822 3475 
Q 2822 3834 2567 4026 
Q 2313 4219 1838 4219 
Q 1578 4219 1281 4162 
Q 984 4106 628 3988 
L 628 4550 
Q 988 4650 1302 4700 
Q 1616 4750 1894 4750 
Q 2613 4750 3031 4423 
Q 3450 4097 3450 3541 
Q 3450 3153 3228 2886 
Q 3006 2619 2597 2516 
z
" transform="scale(0.015625)"/>
       </defs>
       <use xlink:href="#DejaVuSans-33"/>
       <use xlink:href="#DejaVuSans-30" transform="translate(63.623047 0)"/>
       <use xlink:href="#DejaVuSans-30" transform="translate(127.246094 0)"/>
      </g>
     </g>
    </g>
    <g id="ytick_5">
     <g id="line2d_14">
      <g>
       <use xlink:href="#mf2a4cf40b6" x="46.965625" y="115.87501" style="stroke: #000000; stroke-width: 0.8"/>
      </g>
     </g>
     <g id="text_16">
      <!-- 400 -->
      <g transform="translate(20.878125 119.674229) scale(0.1 -0.1)">
       <defs>
        <path id="DejaVuSans-34" d="M 2419 4116 
L 825 1625 
L 2419 1625 
L 2419 4116 
z
M 2253 4666 
L 3047 4666 
L 3047 1625 
L 3713 1625 
L 3713 1100 
L 3047 1100 
L 3047 0 
L 2419 0 
L 2419 1100 
L 313 1100 
L 313 1709 
L 2253 4666 
z
" transform="scale(0.015625)"/>
       </defs>
       <use xlink:href="#DejaVuSans-34"/>
       <use xlink:href="#DejaVuSans-30" transform="translate(63.623047 0)"/>
       <use xlink:href="#DejaVuSans-30" transform="translate(127.246094 0)"/>
      </g>
     </g>
    </g>
    <g id="ytick_6">
     <g id="line2d_15">
      <g>
       <use xlink:href="#mf2a4cf40b6" x="46.965625" y="73.047413" style="stroke: #000000; stroke-width: 0.8"/>
      </g>
     </g>
     <g id="text_17">
      <!-- 500 -->
      <g transform="translate(20.878125 76.846632) scale(0.1 -0.1)">
       <use xlink:href="#DejaVuSans-35"/>
       <use xlink:href="#DejaVuSans-30" transform="translate(63.623047 0)"/>
       <use xlink:href="#DejaVuSans-30" transform="translate(127.246094 0)"/>
      </g>
     </g>
    </g>
    <g id="ytick_7">
     <g id="line2d_16">
      <g>
       <use xlink:href="#mf2a4cf40b6" x="46.965625" y="30.219817" style="stroke: #000000; stroke-width: 0.8"/>
      </g>
     </g>
     <g id="text_18">
      <!-- 600 -->
      <g transform="translate(20.878125 34.019035) scale(0.1 -0.1)">
       <use xlink:href="#DejaVuSans-36"/>
       <use xlink:href="#DejaVuSans-30" transform="translate(63.623047 0)"/>
       <use xlink:href="#DejaVuSans-30" transform="translate(127.246094 0)"/>
      </g>
     </g>
    </g>
    <g id="text_19">
     <!-- right wheel velocity, rv (mm/s) -->
     <g transform="translate(14.798438 238.039375) rotate(-90) scale(0.1 -0.1)">
      <defs>
       <path id="DejaVuSans-72" d="M 2631 2963 
Q 2534 3019 2420 3045 
Q 2306 3072 2169 3072 
Q 1681 3072 1420 2755 
Q 1159 2438 1159 1844 
L 1159 0 
L 581 0 
L 581 3500 
L 1159 3500 
L 1159 2956 
Q 1341 3275 1631 3429 
Q 1922 3584 2338 3584 
Q 2397 3584 2469 3576 
Q 2541 3569 2628 3553 
L 2631 2963 
z
" transform="scale(0.015625)"/>
       <path id="DejaVuSans-67" d="M 2906 1791 
Q 2906 2416 2648 2759 
Q 2391 3103 1925 3103 
Q 1463 3103 1205 2759 
Q 947 2416 947 1791 
Q 947 1169 1205 825 
Q 1463 481 1925 481 
Q 2391 481 2648 825 
Q 2906 1169 2906 1791 
z
M 3481 434 
Q 3481 -459 3084 -895 
Q 2688 -1331 1869 -1331 
Q 1566 -1331 1297 -1286 
Q 1028 -1241 775 -1147 
L 775 -588 
Q 1028 -725 1275 -790 
Q 1522 -856 1778 -856 
Q 2344 -856 2625 -561 
Q 2906 -266 2906 331 
L 2906 616 
Q 2728 306 2450 153 
Q 2172 0 1784 0 
Q 1141 0 747 490 
Q 353 981 353 1791 
Q 353 2603 747 3093 
Q 1141 3584 1784 3584 
Q 2172 3584 2450 3431 
Q 2728 3278 2906 2969 
L 2906 3500 
L 3481 3500 
L 3481 434 
z
" transform="scale(0.015625)"/>
       <path id="DejaVuSans-68" d="M 3513 2113 
L 3513 0 
L 2938 0 
L 2938 2094 
Q 2938 2591 2744 2837 
Q 2550 3084 2163 3084 
Q 1697 3084 1428 2787 
Q 1159 2491 1159 1978 
L 1159 0 
L 581 0 
L 581 4863 
L 1159 4863 
L 1159 2956 
Q 1366 3272 1645 3428 
Q 1925 3584 2291 3584 
Q 2894 3584 3203 3211 
Q 3513 2838 3513 2113 
z
" transform="scale(0.015625)"/>
       <path id="DejaVuSans-77" d="M 269 3500 
L 844 3500 
L 1563 769 
L 2278 3500 
L 2956 3500 
L 3675 769 
L 4391 3500 
L 4966 3500 
L 4050 0 
L 3372 0 
L 2619 2869 
L 1863 0 
L 1184 0 
L 269 3500 
z
" transform="scale(0.015625)"/>
       <path id="DejaVuSans-6c" d="M 603 4863 
L 1178 4863 
L 1178 0 
L 603 0 
L 603 4863 
z
" transform="scale(0.015625)"/>
       <path id="DejaVuSans-76" d="M 191 3500 
L 800 3500 
L 1894 563 
L 2988 3500 
L 3597 3500 
L 2284 0 
L 1503 0 
L 191 3500 
z
" transform="scale(0.015625)"/>
       <path id="DejaVuSans-6f" d="M 1959 3097 
Q 1497 3097 1228 2736 
Q 959 2375 959 1747 
Q 959 1119 1226 758 
Q 1494 397 1959 397 
Q 2419 397 2687 759 
Q 2956 1122 2956 1747 
Q 2956 2369 2687 2733 
Q 2419 3097 1959 3097 
z
M 1959 3584 
Q 2709 3584 3137 3096 
Q 3566 2609 3566 1747 
Q 3566 888 3137 398 
Q 2709 -91 1959 -91 
Q 1206 -91 779 398 
Q 353 888 353 1747 
Q 353 2609 779 3096 
Q 1206 3584 1959 3584 
z
" transform="scale(0.015625)"/>
       <path id="DejaVuSans-63" d="M 3122 3366 
L 3122 2828 
Q 2878 2963 2633 3030 
Q 2388 3097 2138 3097 
Q 1578 3097 1268 2742 
Q 959 2388 959 1747 
Q 959 1106 1268 751 
Q 1578 397 2138 397 
Q 2388 397 2633 464 
Q 2878 531 3122 666 
L 3122 134 
Q 2881 22 2623 -34 
Q 2366 -91 2075 -91 
Q 1284 -91 818 406 
Q 353 903 353 1747 
Q 353 2603 823 3093 
Q 1294 3584 2113 3584 
Q 2378 3584 2631 3529 
Q 2884 3475 3122 3366 
z
" transform="scale(0.015625)"/>
       <path id="DejaVuSans-79" d="M 2059 -325 
Q 1816 -950 1584 -1140 
Q 1353 -1331 966 -1331 
L 506 -1331 
L 506 -850 
L 844 -850 
Q 1081 -850 1212 -737 
Q 1344 -625 1503 -206 
L 1606 56 
L 191 3500 
L 800 3500 
L 1894 763 
L 2988 3500 
L 3597 3500 
L 2059 -325 
z
" transform="scale(0.015625)"/>
       <path id="DejaVuSans-2f" d="M 1625 4666 
L 2156 4666 
L 531 -594 
L 0 -594 
L 1625 4666 
z
" transform="scale(0.015625)"/>
      </defs>
      <use xlink:href="#DejaVuSans-72"/>
      <use xlink:href="#DejaVuSans-69" transform="translate(41.113281 0)"/>
      <use xlink:href="#DejaVuSans-67" transform="translate(68.896484 0)"/>
      <use xlink:href="#DejaVuSans-68" transform="translate(132.373047 0)"/>
      <use xlink:href="#DejaVuSans-74" transform="translate(195.751953 0)"/>
      <use xlink:href="#DejaVuSans-20" transform="translate(234.960938 0)"/>
      <use xlink:href="#DejaVuSans-77" transform="translate(266.748047 0)"/>
      <use xlink:href="#DejaVuSans-68" transform="translate(348.535156 0)"/>
      <use xlink:href="#DejaVuSans-65" transform="translate(411.914062 0)"/>
      <use xlink:href="#DejaVuSans-65" transform="translate(473.4375 0)"/>
      <use xlink:href="#DejaVuSans-6c" transform="translate(534.960938 0)"/>
      <use xlink:href="#DejaVuSans-20" transform="translate(562.744141 0)"/>
      <use xlink:href="#DejaVuSans-76" transform="translate(594.53125 0)"/>
      <use xlink:href="#DejaVuSans-65" transform="translate(653.710938 0)"/>
      <use xlink:href="#DejaVuSans-6c" transform="translate(715.234375 0)"/>
      <use xlink:href="#DejaVuSans-6f" transform="translate(743.017578 0)"/>
      <use xlink:href="#DejaVuSans-63" transform="translate(804.199219 0)"/>
      <use xlink:href="#DejaVuSans-69" transform="translate(859.179688 0)"/>
      <use xlink:href="#DejaVuSans-74" transform="translate(886.962891 0)"/>
      <use xlink:href="#DejaVuSans-79" transform="translate(926.171875 0)"/>
      <use xlink:href="#DejaVuSans-2c" transform="translate(985.351562 0)"/>
      <use xlink:href="#DejaVuSans-20" transform="translate(1017.138672 0)"/>
      <use xlink:href="#DejaVuSans-72" transform="translate(1048.925781 0)"/>
      <use xlink:href="#DejaVuSans-76" transform="translate(1090.039062 0)"/>
      <use xlink:href="#DejaVuSans-20" transform="translate(1149.21875 0)"/>
      <use xlink:href="#DejaVuSans-28" transform="translate(1181.005859 0)"/>
      <use xlink:href="#DejaVuSans-6d" transform="translate(1220.019531 0)"/>
      <use xlink:href="#DejaVuSans-6d" transform="translate(1317.431641 0)"/>
      <use xlink:href="#DejaVuSans-2f" transform="translate(1414.84375 0)"/>
      <use xlink:href="#DejaVuSans-73" transform="translate(1448.535156 0)"/>
      <use xlink:href="#DejaVuSans-29" transform="translate(1500.634766 0)"/>
     </g>
    </g>
   </g>
   <g id="line2d_17">
    <path d="M 65.099716 287.185398 
L 68.713164 224.657106 
L 72.476296 145.426052 
L 76.290411 87.608796 
L 80.026327 61.483962 
L 82.939801 46.494303 
L 86.675718 48.635683 
L 90.443748 47.779131 
L 94.28907 52.490167 
L 98.056919 53.774995 
L 101.909316 52.918443 
L 104.768904 50.348787 
L 108.536753 47.350855 
L 112.382075 46.066027 
L 116.148835 44.352924 
L 119.985811 39.641888 
L 122.845399 37.928784 
L 126.612159 37.928784 
L 130.456937 37.072232 
L 134.207912 40.070164 
L 138.04398 39.213612 
L 141.810741 34.930852 
L 144.671418 37.928784 
L 148.515469 40.070164 
L 152.282048 37.928784 
L 156.133538 37.500508 
L 159.900299 37.928784 
L 162.760068 37.928784 
L 166.603575 40.070164 
L 170.369247 37.928784 
L 174.219649 37.072232 
L 177.986046 44.352924 
L 181.7519 37.928784 
L 184.68896 40.49844 
L 188.454632 37.928784 
L 192.305397 37.072232 
L 196.038229 38.785336 
L 199.804445 37.928784 
L 202.740961 44.352924 
L 206.505907 34.930852 
L 210.355946 40.49844 
L 214.104744 40.070164 
L 217.854268 40.070164 
L 220.790603 36.21568 
L 224.555187 37.928784 
L 228.404681 37.072232 
L 232.152754 40.070164 
L 235.918425 37.928784 
L 239.759937 39.641888 
L 242.603196 40.49844 
L 246.452328 43.496372 
L 250.245214 43.068096 
L 254.037376 36.643956 
L 257.907917 41.783268 
L 260.79472 40.070164 
L 264.671974 39.213612 
L 268.449257 41.783268 
L 272.241781 39.641888 
L 275.20642 38.785336 
L 278.969189 37.928784 
L 282.83084 40.926716 
L 286.622094 39.641888 
L 290.414073 39.641888 
L 293.378168 38.785336 
L 297.168878 39.641888 
L 301.045224 38.785336 
L 304.83539 39.641888 
L 308.626644 39.641888 
L 311.590738 38.785336 
L 315.381085 45.637751 
L 319.256343 38.785336 
L 323.046327 36.21568 
L 326.824337 38.785336 
L 329.774461 45.637751 
L 333.551744 38.785336 
L 337.427184 41.783268 
L 341.216986 39.641888 
L 345.007515 39.641888 
L 347.97179 42.63982 
L 351.760323 39.641888 
L 355.6354 38.785336 
L 359.423751 36.21568 
L 362.309465 40.070164 
L 366.176741 38.35706 
L 369.953117 38.785336 
L 373.826379 41.783268 
L 377.59949 41.354992 
L 380.484479 40.070164 
L 384.351028 41.354992 
L 388.139742 42.63982 
L 392.012642 41.783268 
L 395.800448 36.21568 
L 398.670016 38.785336 
L 402.534569 41.354992 
L 406.290988 40.49844 
L 410.163162 41.783268 
L 413.935002 41.354992 
L 416.821443 40.070164 
L 420.693253 41.783268 
L 424.467453 41.783268 
" clip-path="url(#p913655b53d)" style="fill: none; stroke: #1f77b4; stroke-width: 1.5; stroke-linecap: square"/>
   </g>
   <g id="line2d_18">
    <path d="M 65.099897 287.185398 
L 68.725502 225.085382 
L 72.500427 136.003981 
L 76.358811 93.176384 
L 80.106521 65.338446 
L 83.025257 71.33431 
L 86.772785 78.186725 
L 90.552428 76.473621 
L 94.409724 74.760517 
L 98.189003 73.475689 
L 101.139853 73.903965 
L 104.902984 69.19293 
L 108.68172 67.05155 
L 112.537746 65.338446 
L 116.315936 64.053618 
L 119.265697 61.483962 
L 123.043707 64.053618 
L 126.822442 64.053618 
L 130.678649 65.338446 
L 134.457022 67.05155 
L 137.407327 65.766722 
L 141.185336 60.62741 
L 144.932502 65.338446 
L 148.788346 65.338446 
L 152.566356 64.053618 
L 156.428914 62.76879 
L 159.2934 67.479826 
L 163.055262 62.76879 
L 166.910381 65.338446 
L 170.686939 67.05155 
L 174.533712 64.91017 
L 177.397654 67.479826 
L 181.174394 67.05155 
L 184.997036 63.625342 
L 188.757083 62.76879 
L 192.618734 62.76879 
L 195.483221 67.479826 
L 199.259597 64.053618 
L 203.113627 62.340514 
L 206.857709 64.91017 
L 210.718633 65.766722 
L 214.494284 63.625342 
L 217.359497 67.479826 
L 221.212983 62.340514 
L 224.987908 63.625342 
L 228.848651 65.766722 
L 232.624302 60.62741 
L 235.488244 67.479826 
L 239.326127 64.481894 
L 243.101596 63.625342 
L 246.961614 68.764654 
L 250.766113 65.338446 
L 253.658722 61.483962 
L 257.539967 66.623274 
L 261.344285 65.338446 
L 265.232606 64.053618 
L 268.125034 65.338446 
L 271.928626 62.340514 
L 275.809871 66.623274 
L 279.5828 63.625342 
L 282.559958 63.625342 
L 286.362461 65.338446 
L 290.165508 65.338446 
L 294.044939 66.623274 
L 297.847442 62.340514 
L 300.794482 65.338446 
L 304.597166 62.340514 
L 308.399851 65.338446 
L 312.278556 66.623274 
L 316.079789 65.338446 
L 319.040618 66.623274 
L 322.82788 67.479826 
L 326.629113 68.336378 
L 330.507456 63.625342 
L 333.398432 65.338446 
L 337.284758 64.053618 
L 341.085446 61.912238 
L 344.870169 64.481894 
L 348.747967 63.625342 
L 351.63858 65.338446 
L 355.524362 64.053618 
L 359.324688 68.336378 
L 363.111406 64.481894 
L 366.078947 67.05155 
L 369.864033 61.055686 
L 373.749633 64.053618 
L 377.548688 65.338446 
L 381.349014 61.912238 
L 384.317281 67.05155 
L 388.116881 65.338446 
L 392.001756 64.053618 
L 395.800811 65.338446 
L 398.691243 65.338446 
L 402.55489 68.764654 
L 406.353038 64.91017 
L 410.221402 66.194998 
L 414.004673 64.053618 
L 416.894379 65.338446 
L 420.770545 60.62741 
L 424.569056 65.338446 
" clip-path="url(#p913655b53d)" style="fill: none; stroke: #ff7f0e; stroke-width: 1.5; stroke-linecap: square"/>
   </g>
   <g id="line2d_19">
    <path d="M 65.099716 287.185398 
L 68.735299 225.085382 
L 72.612009 143.284672 
L 76.404533 102.598455 
L 79.244163 86.323968 
L 83.081139 92.319832 
L 86.872574 99.172248 
L 90.74874 106.452939 
L 94.539631 99.172248 
L 97.411557 88.465348 
L 101.264317 93.176384 
L 105.054664 89.750176 
L 108.92974 88.037072 
L 112.720087 83.326037 
L 115.591469 88.465348 
L 119.459832 87.608796 
L 123.249635 86.752244 
L 127.125075 88.037072 
L 130.915421 89.750176 
L 133.786077 84.610865 
L 137.653534 84.610865 
L 141.443518 89.750176 
L 145.31805 85.039141 
L 149.076283 85.039141 
L 151.94712 88.465348 
L 155.814577 87.608796 
L 159.603835 86.752244 
L 163.477641 88.037072 
L 166.348297 88.465348 
L 170.137737 86.752244 
L 174.004649 87.608796 
L 177.792637 89.750176 
L 181.666444 85.039141 
L 184.521859 83.326037 
L 188.310755 89.750176 
L 192.176397 87.608796 
L 195.964022 86.323968 
L 199.837829 88.037072 
L 202.707396 88.465348 
L 206.464177 88.037072 
L 210.329819 87.608796 
L 214.117626 89.750176 
L 217.974922 87.18052 
L 220.844671 88.465348 
L 224.632841 86.323968 
L 228.498301 87.608796 
L 232.285019 86.323968 
L 236.1581 88.037072 
L 239.027849 88.465348 
L 242.815293 89.750176 
L 246.680391 87.608796 
L 250.495957 88.037072 
L 253.480372 88.037072 
L 257.296301 88.037072 
L 261.09699 87.18052 
L 264.990028 85.895693 
L 268.805413 88.037072 
L 271.789103 88.037072 
L 275.587977 87.18052 
L 279.404269 88.037072 
L 283.296038 88.893624 
L 286.19409 86.323968 
L 290.094023 89.3219 
L 293.908501 88.037072 
L 297.722797 94.032936 
L 300.698322 87.608796 
L 304.512436 88.037072 
L 308.41237 86.323968 
L 312.225396 88.037072 
L 315.110022 85.467417 
L 319.001609 85.895693 
L 322.81518 91.035004 
L 326.713117 85.895693 
L 330.526688 88.037072 
L 333.424377 90.606728 
L 337.301631 85.039141 
L 341.098872 87.18052 
L 344.996266 88.893624 
L 347.892866 86.323968 
L 351.705711 87.608796 
L 355.595847 85.467417 
L 359.393995 87.18052 
L 362.37587 91.891556 
L 366.158779 86.323968 
L 369.970716 84.610865 
L 373.859763 88.465348 
L 377.658275 90.178452 
L 380.639242 88.037072 
L 384.449729 87.608796 
L 388.262029 91.035004 
L 392.150532 85.467417 
L 395.046588 86.323968 
L 398.943437 85.895693 
L 402.754831 87.608796 
L 406.565135 87.608796 
L 409.510179 89.750176 
L 413.319939 87.608796 
L 417.2157 85.895693 
L 421.010582 86.752244 
L 424.808368 90.178452 
L 427.781534 87.608796 
" clip-path="url(#p913655b53d)" style="fill: none; stroke: #2ca02c; stroke-width: 1.5; stroke-linecap: square"/>
   </g>
   <g id="line2d_20">
    <path d="M 65.099716 287.185398 
L 68.746004 225.085382 
L 72.617089 139.858465 
L 76.420681 112.448803 
L 80.191433 110.735699 
L 84.038205 123.583978 
L 86.899789 129.579841 
L 90.7716 121.442598 
L 94.574466 118.444666 
L 98.345037 120.15777 
L 102.224286 115.87501 
L 105.084237 112.877079 
L 108.955141 112.448803 
L 112.740408 111.592251 
L 116.541459 112.020527 
L 119.495575 110.307423 
L 123.297171 112.448803 
L 127.15229 111.592251 
L 130.952434 112.020527 
L 134.754393 112.448803 
L 137.708145 110.307423 
L 141.493049 111.592251 
L 145.378649 112.877079 
L 149.178431 112.020527 
L 152.979663 109.022595 
L 155.933779 110.307423 
L 159.717413 111.592251 
L 163.586502 112.020527 
L 167.385921 112.020527 
L 171.186609 115.446734 
L 174.139273 110.307423 
L 177.938873 109.022595 
L 181.776575 113.73363 
L 185.559846 114.590182 
L 188.435763 109.450871 
L 192.312472 109.450871 
L 196.11171 112.020527 
L 199.996402 112.877079 
L 203.780036 111.592251 
L 206.655228 113.73363 
L 210.531393 112.448803 
L 214.315027 111.592251 
L 218.182665 112.020527 
L 221.949788 110.735699 
L 224.82498 109.450871 
L 228.700782 109.450871 
L 232.483509 111.163975 
L 236.366206 112.877079 
L 240.148388 111.163975 
L 243.023035 109.450871 
L 246.898656 112.448803 
L 250.725471 113.305355 
L 254.637924 111.163975 
L 257.541782 111.163975 
L 261.368778 113.305355 
L 265.242041 112.448803 
L 269.068493 113.305355 
L 272.057626 108.166043 
L 275.868837 109.450871 
L 279.696015 113.305355 
L 283.598852 110.735699 
L 286.502347 111.163975 
L 290.413892 114.161906 
L 294.239981 113.305355 
L 298.065889 110.307423 
L 301.032161 111.163975 
L 304.857888 116.303286 
L 308.769614 108.166043 
L 312.594615 113.305355 
L 315.49811 111.163975 
L 319.400946 113.73363 
L 323.225947 110.307423 
L 327.121889 110.307423 
L 330.023933 115.446734 
L 333.848752 110.307423 
L 337.735622 109.879147 
L 341.559353 113.305355 
L 344.547215 112.448803 
L 348.339739 108.594319 
L 352.164559 113.305355 
L 356.065762 113.73363 
L 359.889674 113.305355 
L 362.876448 108.166043 
L 366.699997 110.307423 
L 370.511391 112.877079 
L 374.411143 113.73363 
L 377.29976 110.307423 
L 381.194613 110.307423 
L 385.016711 116.303286 
L 388.826109 109.450871 
L 391.805262 111.592251 
L 395.627541 113.305355 
L 399.534732 113.73363 
L 403.355923 113.305355 
L 406.24454 110.307423 
L 410.144111 113.73363 
L 413.966209 109.879147 
L 417.859429 113.305355 
L 420.744962 114.161906 
L 424.566697 109.879147 
" clip-path="url(#p913655b53d)" style="fill: none; stroke: #d62728; stroke-width: 1.5; stroke-linecap: square"/>
   </g>
   <g id="line2d_21">
    <path d="M 65.100442 287.185398 
L 68.762333 228.939866 
L 72.660452 144.141224 
L 76.474385 131.721221 
L 79.357741 142.856396 
L 83.21667 148.85226 
L 87.014275 149.708812 
L 90.896064 149.708812 
L 94.709635 140.715016 
L 97.592084 134.719153 
L 101.482945 134.719153 
L 105.294339 137.717085 
L 109.17504 137.288809 
L 112.04116 133.862601 
L 115.837675 133.862601 
L 119.711482 136.860533 
L 123.522875 137.717085 
L 127.42045 134.719153 
L 130.30308 142.856396 
L 134.114655 137.717085 
L 138.003883 137.717085 
L 141.814914 140.715016 
L 144.78173 135.147429 
L 148.593123 137.717085 
L 152.405061 137.717085 
L 156.293563 137.717085 
L 159.175468 139.001913 
L 163.071773 134.719153 
L 166.882077 134.290877 
L 170.692382 137.717085 
L 174.581248 137.717085 
L 177.462064 139.001913 
L 181.35728 137.717085 
L 185.151981 136.860533 
L 188.961923 134.290877 
L 191.905152 137.717085 
L 195.699853 136.860533 
L 199.595614 137.717085 
L 203.388864 136.860533 
L 207.199894 134.290877 
L 210.158364 134.719153 
L 213.951795 140.286741 
L 217.846467 137.717085 
L 221.65532 134.290877 
L 224.536499 139.001913 
L 232.232403 134.290877 
L 236.125624 137.717085 
L 239.00644 139.001913 
L 242.815474 134.290877 
L 246.701981 137.288809 
L 250.538231 138.573637 
L 253.52065 136.003981 
L 257.35817 138.573637 
L 261.196416 138.573637 
L 265.110501 138.573637 
L 268.019802 140.286741 
L 271.942052 133.006049 
L 275.779753 135.575705 
L 279.603302 135.147429 
L 282.590258 140.286741 
L 286.411448 131.721221 
L 290.333698 139.001913 
L 294.156522 138.145361 
L 297.050219 135.147429 
L 300.950334 138.145361 
L 304.786402 138.573637 
L 308.707382 139.001913 
L 311.616502 132.149497 
L 315.452933 138.573637 
L 319.366655 138.573637 
L 323.201998 135.575705 
L 326.195666 136.432257 
L 330.030646 138.573637 
L 333.867259 135.575705 
L 337.779348 135.575705 
L 340.687561 136.003981 
L 344.592211 138.145361 
L 348.427372 138.573637 
L 352.246204 134.719153 
L 355.231889 136.003981 
L 359.066325 138.573637 
L 362.985853 135.575705 
L 366.819018 138.573637 
L 369.727231 140.286741 
L 373.638958 135.575705 
L 377.472849 135.575705 
L 381.391651 141.571568 
L 384.299138 136.003981 
L 388.104725 134.290877 
L 392.015363 138.573637 
L 395.848166 135.575705 
L 398.840927 136.432257 
L 402.674092 138.573637 
L 406.492199 137.717085 
L 410.402655 135.575705 
L 413.30996 136.003981 
L 417.227674 141.571568 
L 421.044692 134.719153 
L 424.876587 135.575705 
" clip-path="url(#p913655b53d)" style="fill: none; stroke: #9467bd; stroke-width: 1.5; stroke-linecap: square"/>
   </g>
   <g id="line2d_22">
    <path d="M 65.10026 287.185398 
L 68.772493 225.513658 
L 72.681135 147.567432 
L 76.505592 153.563296 
L 79.394391 168.124678 
L 83.297046 174.548818 
L 87.120777 175.40537 
L 91.029056 171.979162 
L 93.916585 163.841919 
L 97.741041 159.987435 
L 101.627911 158.702607 
L 105.435313 165.555023 
L 108.407209 163.413643 
L 112.230214 159.987435 
L 116.053764 165.983299 
L 119.953515 162.557091 
L 122.840863 159.559159 
L 126.749324 162.557091 
L 130.571966 159.987435 
L 134.394427 162.985367 
L 137.35961 167.268127 
L 141.181708 159.987435 
L 145.089987 156.561227 
L 148.911903 165.983299 
L 152.734364 159.987435 
L 155.683218 162.557091 
L 159.504953 162.985367 
L 163.412144 162.557091 
L 167.233153 159.987435 
L 170.120682 159.559159 
L 174.020615 165.555023 
L 177.841806 162.985367 
L 181.747908 159.559159 
L 184.634711 163.841919 
L 188.456809 162.985367 
L 192.339869 161.700539 
L 196.15979 162.985367 
L 199.13096 159.130883 
L 202.951788 162.985367 
L 206.772797 165.983299 
L 210.670553 156.132951 
L 213.556812 163.841919 
L 217.44586 162.128815 
L 221.26578 162.985367 
L 225.085701 162.985367 
L 228.049251 159.130883 
L 231.85375 165.555023 
L 235.758582 162.557091 
L 239.577414 162.985367 
L 243.396972 162.985367 
L 246.360159 162.985367 
L 250.208565 163.841919 
L 254.142608 160.415711 
L 257.990288 163.841919 
L 260.905032 165.126747 
L 264.830729 160.415711 
L 268.679316 163.841919 
L 271.67879 160.415711 
L 275.526289 163.841919 
L 279.375058 163.841919 
L 283.286421 159.559159 
L 286.185381 164.270195 
L 290.104909 159.987435 
L 293.952408 160.843987 
L 297.799181 163.841919 
L 300.791216 160.415711 
L 304.637989 163.841919 
L 308.570036 160.415711 
L 312.415721 163.841919 
L 315.317946 160.415711 
L 319.242373 162.985367 
L 323.088783 163.841919 
L 326.087531 160.415711 
L 329.933216 163.841919 
L 333.779989 160.843987 
L 337.703871 162.985367 
L 340.617345 160.843987 
L 344.548848 163.413643 
L 348.394896 160.843987 
L 352.240217 160.415711 
L 355.231527 159.987435 
L 359.077211 163.841919 
L 363.008532 163.413643 
L 366.837888 162.985367 
L 369.751725 165.126747 
L 373.673974 159.987435 
L 377.519477 163.841919 
L 380.5175 160.415711 
L 384.362459 163.841919 
L 388.207236 166.839851 
L 392.129123 159.987435 
L 395.041871 160.843987 
L 398.971741 163.413643 
L 402.815974 163.841919 
L 406.660751 160.415711 
L 409.651516 164.270195 
L 413.495024 160.415711 
L 417.424349 160.415711 
L 421.267312 160.415711 
L 424.180242 165.126747 
" clip-path="url(#p913655b53d)" style="fill: none; stroke: #8c564b; stroke-width: 1.5; stroke-linecap: square"/>
   </g>
   <g id="line2d_23">
    <path d="M 65.1028 287.185398 
L 68.786282 228.939866 
L 72.691114 171.550886 
L 75.585175 184.827441 
L 79.420518 194.249513 
L 83.33297 199.388824 
L 87.200063 192.108133 
L 90.210061 184.827441 
L 94.044678 191.251581 
L 97.879476 185.255717 
L 100.849921 183.114337 
L 104.684175 188.253649 
L 108.604066 187.397097 
L 112.437594 184.827441 
L 116.271848 185.255717 
L 119.241567 187.397097 
L 123.073825 191.251581 
L 126.992809 187.397097 
L 129.885055 184.827441 
L 133.718583 191.251581 
L 137.613618 189.538477 
L 141.446965 188.253649 
L 144.408156 186.968821 
L 148.24114 188.253649 
L 152.074306 188.253649 
L 155.968433 186.540545 
L 159.801054 188.253649 
L 162.761701 186.968821 
L 166.594504 184.827441 
L 170.411521 190.823305 
L 174.321252 186.968821 
L 177.213136 188.681925 
L 181.130305 187.397097 
L 184.962201 184.827441 
L 188.793914 188.253649 
L 191.764178 187.397097 
L 195.579744 187.825373 
L 199.496913 187.397097 
L 203.311754 187.825373 
L 206.204182 188.681925 
L 210.097765 186.540545 
L 213.928753 188.253649 
L 217.84429 187.397097 
L 220.7193 183.970889 
L 224.550651 191.251581 
L 228.459293 186.968821 
L 232.289011 184.827441 
L 235.250021 190.823305 
L 239.079739 188.253649 
L 242.910364 188.253649 
L 246.817192 186.968821 
L 249.737198 185.683993 
L 253.682127 187.825373 
L 257.52763 188.253649 
L 261.386015 185.683993 
L 264.383856 188.253649 
L 268.241334 188.681925 
L 272.169389 184.399165 
L 275.088488 185.683993 
L 278.946328 191.679857 
L 282.882186 187.825373 
L 286.739482 188.681925 
L 289.743492 184.399165 
L 293.600969 185.683993 
L 297.458447 191.679857 
L 300.455562 188.253649 
L 304.312859 188.681925 
L 308.255792 187.825373 
L 312.112362 185.683993 
L 315.01876 189.110201 
L 318.953529 187.825373 
L 322.8101 191.679857 
L 325.813747 188.253649 
L 329.65798 188.253649 
L 333.514913 185.683993 
L 337.449137 187.825373 
L 340.367329 185.683993 
L 344.308811 190.823305 
L 348.165381 185.683993 
L 352.021044 188.681925 
L 355.005096 187.825373 
L 358.861123 185.683993 
L 362.802786 187.825373 
L 366.657542 188.681925 
L 369.577003 185.683993 
L 373.510865 187.825373 
L 377.366165 191.679857 
L 380.369449 184.399165 
L 384.22475 185.683993 
L 388.067713 188.253649 
L 392.000304 190.823305 
L 394.918314 185.683993 
L 398.857982 187.825373 
L 402.713826 188.681925 
L 406.567857 188.681925 
L 409.563702 188.253649 
L 413.418095 188.681925 
L 417.357581 187.825373 
L 420.274684 189.538477 
L 424.129622 188.681925 
" clip-path="url(#p913655b53d)" style="fill: none; stroke: #e377c2; stroke-width: 1.5; stroke-linecap: square"/>
   </g>
   <g id="line2d_24">
    <path d="M 65.102256 287.185398 
L 67.886912 257.20608 
L 71.697942 203.243308 
L 75.622369 214.806759 
L 79.468053 228.51159 
L 82.451743 211.808827 
L 86.297609 210.095723 
L 90.159985 213.521931 
L 94.116344 212.237103 
L 97.031814 213.950207 
L 100.994524 209.239171 
L 104.83912 213.093655 
L 107.737172 213.521931 
L 111.658696 211.808827 
L 115.503473 216.091587 
L 119.416651 211.380551 
L 122.314703 213.521931 
L 126.15948 210.095723 
L 130.082274 214.806759 
L 133.9256 210.095723 
L 136.909471 211.808827 
L 140.7381 212.665379 
L 144.582696 213.093655 
L 148.503494 211.380551 
L 151.400821 217.804691 
L 155.329784 208.810895 
L 159.172384 210.095723 
L 163.015528 216.091587 
L 165.991234 215.663311 
L 169.833834 207.097792 
L 173.746468 214.378483 
L 177.589068 213.093655 
L 180.48712 213.521931 
L 184.407374 211.380551 
L 188.249974 216.091587 
L 191.216064 211.380551 
L 195.05812 213.093655 
L 198.868969 212.665379 
L 202.788678 211.380551 
L 206.631278 213.093655 
L 209.581584 219.089519 
L 213.423277 210.095723 
L 217.265332 213.093655 
L 220.223802 210.952275 
L 224.064769 213.093655 
L 227.991373 214.806759 
L 231.832522 210.095723 
L 235.674215 213.093655 
L 238.616174 214.806759 
L 242.457504 210.095723 
L 246.38429 214.806759 
L 249.309738 210.095723 
L 253.179191 213.521931 
L 257.127386 215.235035 
L 260.983049 210.095723 
L 282.543447 211.808827 
L 286.411448 213.521931 
L 289.33726 210.095723 
L 300.149845 208.38262 
L 304.018209 216.519863 
L 311.803561 211.808827 
L 314.728647 214.378483 
L 311.803561 211.808827 
L 314.728647 214.378483 
L 318.681922 215.235035 
L 322.550467 210.523999 
L 325.47519 214.378483 
L 329.420119 212.237103 
L 333.287576 210.523999 
L 337.239762 215.235035 
L 340.163759 210.095723 
L 344.003456 213.093655 
L 347.933326 214.806759 
L 350.857324 214.378483 
L 369.39575 210.523999 
L 387.917848 213.093655 
L 405.52479 210.523999 
L 409.444137 214.378483 
L 413.308872 216.519863 
L 416.232688 214.378483 
L 420.17544 211.808827 
L 424.040537 210.523999 
L 424.040537 210.523999 
" clip-path="url(#p913655b53d)" style="fill: none; stroke: #7f7f7f; stroke-width: 1.5; stroke-linecap: square"/>
   </g>
   <g id="line2d_25">
    <path d="M 65.102075 287.185398 
L 68.843797 252.495044 
L 71.747837 230.224694 
L 75.667546 241.788145 
L 79.50688 253.351596 
L 83.399012 235.364006 
L 86.33698 226.798486 
L 90.227297 244.786077 
L 94.177125 242.216421 
L 97.113278 238.790213 
L 101.087055 236.648833 
L 104.976284 238.361937 
L 107.912256 242.644697 
L 111.878231 236.648833 
L 115.766734 238.361937 
L 118.772559 243.929525 
L 122.660154 235.364006 
L 126.517088 234.93573 
L 130.450405 239.218489 
L 133.338478 242.216421 
L 137.27996 236.220557 
L 141.119657 237.933661 
L 144.97532 241.359869 
L 147.95774 235.364006 
L 151.812859 240.931593 
L 155.738193 238.790213 
L 159.592404 237.933661 
L 162.496625 238.361937 
L 166.413795 238.790213 
L 170.268914 237.933661 
L 173.258046 239.646765 
L 177.11244 240.931593 
L 180.967014 234.93573 
L 184.898517 239.218489 
L 187.801287 238.361937 
L 191.740954 239.218489 
L 195.594621 237.933661 
L 199.432686 237.933661 
L 202.413291 239.646765 
L 206.266232 237.933661 
L 210.204811 239.218489 
L 213.107218 238.361937 
L 216.96143 237.933661 
L 220.892207 238.790213 
L 224.744967 237.933661 
L 227.717045 235.364006 
L 231.570349 240.931593 
L 235.407869 237.933661 
L 239.33792 238.790213 
L 242.224179 237.933661 
L 246.162577 239.218489 
L 249.998645 237.933661 
L 253.880253 241.359869 
L 256.875917 235.792282 
L 260.7568 238.361937 
L 286.256685 241.359869 
L 290.137386 238.361937 
L 297.025726 241.359869 
L 303.908623 234.507454 
L 307.772813 241.359869 
L 303.908623 234.507454 
L 307.772813 241.359869 
L 322.476079 238.361937 
L 326.356054 238.361937 
L 318.61207 240.075041 
L 322.476079 238.361937 
L 326.356054 238.361937 
L 329.363874 240.075041 
L 333.243306 235.364006 
L 337.207285 239.218489 
L 340.137451 242.644697 
L 344.016338 235.364006 
L 347.972335 236.220557 
L 351.849952 241.359869 
L 354.865029 240.075041 
L 358.714342 237.933661 
L 362.592866 238.361937 
L 369.477759 235.364006 
L 373.440468 239.218489 
L 377.317722 238.361937 
L 380.20253 237.933661 
L 384.157982 239.218489 
L 388.019633 237.933661 
L 391.034166 240.075041 
L 394.91142 235.364006 
L 398.789218 238.361937 
L 401.795224 240.075041 
L 405.671208 241.359869 
L 409.617951 236.220557 
L 413.493572 235.364006 
L 416.422831 242.644697 
L 420.376832 236.220557 
L 424.252816 238.361937 
L 427.266442 243.929525 
" clip-path="url(#p913655b53d)" style="fill: none; stroke: #bcbd22; stroke-width: 1.5; stroke-linecap: square"/>
   </g>
   <g id="line2d_26">
    <path d="M 65.102982 287.185398 
L 68.783742 274.337119 
L 71.779043 255.492976 
L 75.64904 268.769531 
L 79.501982 275.193671 
L 83.395928 262.773668 
L 86.303052 262.773668 
L 90.253424 263.201943 
L 94.102918 265.771599 
L 97.96729 268.769531 
L 100.936465 263.201943 
L 104.801018 259.775736 
L 108.749939 269.197807 
L 112.61286 265.771599 
L 115.519258 262.773668 
L 119.461102 263.201943 
L 123.309145 268.769531 
L 126.300092 263.630219 
L 130.16392 262.773668 
L 134.027929 268.769531 
L 137.9529 263.201943 
L 140.859117 262.773668 
L 144.807493 266.199875 
L 148.670414 265.771599 
L 151.576268 262.773668 
L 155.516843 263.201943 
L 159.379582 268.769531 
L 163.327232 263.201943 
L 166.233086 258.919184 
L 170.096188 268.769531 
L 174.020252 266.199875 
L 177.882629 262.773668 
L 180.857609 263.630219 
L 184.719078 265.771599 
L 188.581273 265.771599 
L 191.531034 263.201943 
L 195.360027 262.345392 
L 199.274656 266.199875 
L 203.102923 265.771599 
L 206.931734 262.345392 
L 209.866436 263.201943 
L 213.694521 265.771599 
L 217.608969 266.199875 
L 221.437236 262.345392 
L 224.294828 262.345392 
L 228.186234 266.199875 
L 232.015045 265.771599 
L 235.92786 263.201943 
L 238.78382 262.345392 
L 242.596664 268.769531 
L 246.502766 263.201943 
L 250.359337 262.773668 
L 253.316718 267.484703 
L 257.173651 262.773668 
L 261.031129 262.773668 
L 264.965716 266.199875 
L 267.854334 266.628151 
L 271.796723 260.204012 
L 275.653293 265.771599 
L 279.509864 265.771599 
L 282.475228 263.201943 
L 286.331617 265.771599 
L 290.273462 266.199875 
L 293.174417 262.773668 
L 297.030625 262.773668 
L 300.964123 266.199875 
L 304.819605 265.771599 
L 307.805653 263.630219 
L 311.660228 262.773668 
L 315.515709 265.771599 
L 319.432879 266.199875 
L 322.333834 262.773668 
L 326.27459 263.201943 
L 330.129528 265.771599 
L 333.01361 266.628151 
L 336.932231 260.204012 
L 340.771565 265.771599 
L 344.697262 266.199875 
L 347.581343 262.773668 
L 351.423036 265.771599 
L 355.354721 263.201943 
L 359.207662 262.773668 
L 362.192985 267.484703 
L 366.032863 265.771599 
L 369.886893 262.773668 
L 373.817852 263.201943 
L 376.7179 262.773668 
L 380.65666 266.199875 
L 384.510328 265.771599 
L 388.362907 262.773668 
L 391.34079 263.630219 
L 395.194095 265.771599 
L 399.132129 263.201943 
L 402.031633 267.056427 
L 405.884575 262.773668 
L 409.814445 263.201943 
L 413.666479 265.771599 
L 416.651257 263.630219 
" clip-path="url(#p913655b53d)" style="fill: none; stroke: #17becf; stroke-width: 1.5; stroke-linecap: square"/>
   </g>
   <g id="patch_3">
    <path d="M 46.965625 299.798125 
L 46.965625 22.318125 
" style="fill: none; stroke: #000000; stroke-width: 0.8; stroke-linejoin: miter; stroke-linecap: square"/>
   </g>
   <g id="patch_4">
    <path d="M 445.915625 299.798125 
L 445.915625 22.318125 
" style="fill: none; stroke: #000000; stroke-width: 0.8; stroke-linejoin: miter; stroke-linecap: square"/>
   </g>
   <g id="patch_5">
    <path d="M 46.965625 299.798125 
L 445.915625 299.798125 
" style="fill: none; stroke: #000000; stroke-width: 0.8; stroke-linejoin: miter; stroke-linecap: square"/>
   </g>
   <g id="patch_6">
    <path d="M 46.965625 22.318125 
L 445.915625 22.318125 
" style="fill: none; stroke: #000000; stroke-width: 0.8; stroke-linejoin: miter; stroke-linecap: square"/>
   </g>
   <g id="text_20">
    <!-- right velocity vs. time -->
    <g transform="translate(181.033125 16.318125) scale(0.12 -0.12)">
     <use xlink:href="#DejaVuSans-72"/>
     <use xlink:href="#DejaVuSans-69" transform="translate(41.113281 0)"/>
     <use xlink:href="#DejaVuSans-67" transform="translate(68.896484 0)"/>
     <use xlink:href="#DejaVuSans-68" transform="translate(132.373047 0)"/>
     <use xlink:href="#DejaVuSans-74" transform="translate(195.751953 0)"/>
     <use xlink:href="#DejaVuSans-20" transform="translate(234.960938 0)"/>
     <use xlink:href="#DejaVuSans-76" transform="translate(266.748047 0)"/>
     <use xlink:href="#DejaVuSans-65" transform="translate(325.927734 0)"/>
     <use xlink:href="#DejaVuSans-6c" transform="translate(387.451172 0)"/>
     <use xlink:href="#DejaVuSans-6f" transform="translate(415.234375 0)"/>
     <use xlink:href="#DejaVuSans-63" transform="translate(476.416016 0)"/>
     <use xlink:href="#DejaVuSans-69" transform="translate(531.396484 0)"/>
     <use xlink:href="#DejaVuSans-74" transform="translate(559.179688 0)"/>
     <use xlink:href="#DejaVuSans-79" transform="translate(598.388672 0)"/>
     <use xlink:href="#DejaVuSans-20" transform="translate(657.568359 0)"/>
     <use xlink:href="#DejaVuSans-76" transform="translate(689.355469 0)"/>
     <use xlink:href="#DejaVuSans-73" transform="translate(748.535156 0)"/>
     <use xlink:href="#DejaVuSans-2e" transform="translate(800.634766 0)"/>
     <use xlink:href="#DejaVuSans-20" transform="translate(832.421875 0)"/>
     <use xlink:href="#DejaVuSans-74" transform="translate(864.208984 0)"/>
     <use xlink:href="#DejaVuSans-69" transform="translate(903.417969 0)"/>
     <use xlink:href="#DejaVuSans-6d" transform="translate(931.201172 0)"/>
     <use xlink:href="#DejaVuSans-65" transform="translate(1028.613281 0)"/>
    </g>
   </g>
   <g id="legend_1">
    <g id="patch_7">
     <path d="M 322.390625 294.798125 
L 438.915625 294.798125 
Q 440.915625 294.798125 440.915625 292.798125 
L 440.915625 147.016875 
Q 440.915625 145.016875 438.915625 145.016875 
L 322.390625 145.016875 
Q 320.390625 145.016875 320.390625 147.016875 
L 320.390625 292.798125 
Q 320.390625 294.798125 322.390625 294.798125 
z
" style="fill: #ffffff; opacity: 0.8; stroke: #cccccc; stroke-linejoin: miter"/>
    </g>
    <g id="line2d_27">
     <path d="M 324.390625 153.115313 
L 334.390625 153.115313 
L 344.390625 153.115313 
" style="fill: none; stroke: #1f77b4; stroke-width: 1.5; stroke-linecap: square"/>
    </g>
    <g id="text_21">
     <!-- Ref Speed = 850 -->
     <g transform="translate(352.390625 156.615313) scale(0.1 -0.1)">
      <defs>
       <path id="DejaVuSans-52" d="M 2841 2188 
Q 3044 2119 3236 1894 
Q 3428 1669 3622 1275 
L 4263 0 
L 3584 0 
L 2988 1197 
Q 2756 1666 2539 1819 
Q 2322 1972 1947 1972 
L 1259 1972 
L 1259 0 
L 628 0 
L 628 4666 
L 2053 4666 
Q 2853 4666 3247 4331 
Q 3641 3997 3641 3322 
Q 3641 2881 3436 2590 
Q 3231 2300 2841 2188 
z
M 1259 4147 
L 1259 2491 
L 2053 2491 
Q 2509 2491 2742 2702 
Q 2975 2913 2975 3322 
Q 2975 3731 2742 3939 
Q 2509 4147 2053 4147 
L 1259 4147 
z
" transform="scale(0.015625)"/>
       <path id="DejaVuSans-66" d="M 2375 4863 
L 2375 4384 
L 1825 4384 
Q 1516 4384 1395 4259 
Q 1275 4134 1275 3809 
L 1275 3500 
L 2222 3500 
L 2222 3053 
L 1275 3053 
L 1275 0 
L 697 0 
L 697 3053 
L 147 3053 
L 147 3500 
L 697 3500 
L 697 3744 
Q 697 4328 969 4595 
Q 1241 4863 1831 4863 
L 2375 4863 
z
" transform="scale(0.015625)"/>
       <path id="DejaVuSans-53" d="M 3425 4513 
L 3425 3897 
Q 3066 4069 2747 4153 
Q 2428 4238 2131 4238 
Q 1616 4238 1336 4038 
Q 1056 3838 1056 3469 
Q 1056 3159 1242 3001 
Q 1428 2844 1947 2747 
L 2328 2669 
Q 3034 2534 3370 2195 
Q 3706 1856 3706 1288 
Q 3706 609 3251 259 
Q 2797 -91 1919 -91 
Q 1588 -91 1214 -16 
Q 841 59 441 206 
L 441 856 
Q 825 641 1194 531 
Q 1563 422 1919 422 
Q 2459 422 2753 634 
Q 3047 847 3047 1241 
Q 3047 1584 2836 1778 
Q 2625 1972 2144 2069 
L 1759 2144 
Q 1053 2284 737 2584 
Q 422 2884 422 3419 
Q 422 4038 858 4394 
Q 1294 4750 2059 4750 
Q 2388 4750 2728 4690 
Q 3069 4631 3425 4513 
z
" transform="scale(0.015625)"/>
       <path id="DejaVuSans-70" d="M 1159 525 
L 1159 -1331 
L 581 -1331 
L 581 3500 
L 1159 3500 
L 1159 2969 
Q 1341 3281 1617 3432 
Q 1894 3584 2278 3584 
Q 2916 3584 3314 3078 
Q 3713 2572 3713 1747 
Q 3713 922 3314 415 
Q 2916 -91 2278 -91 
Q 1894 -91 1617 61 
Q 1341 213 1159 525 
z
M 3116 1747 
Q 3116 2381 2855 2742 
Q 2594 3103 2138 3103 
Q 1681 3103 1420 2742 
Q 1159 2381 1159 1747 
Q 1159 1113 1420 752 
Q 1681 391 2138 391 
Q 2594 391 2855 752 
Q 3116 1113 3116 1747 
z
" transform="scale(0.015625)"/>
       <path id="DejaVuSans-64" d="M 2906 2969 
L 2906 4863 
L 3481 4863 
L 3481 0 
L 2906 0 
L 2906 525 
Q 2725 213 2448 61 
Q 2172 -91 1784 -91 
Q 1150 -91 751 415 
Q 353 922 353 1747 
Q 353 2572 751 3078 
Q 1150 3584 1784 3584 
Q 2172 3584 2448 3432 
Q 2725 3281 2906 2969 
z
M 947 1747 
Q 947 1113 1208 752 
Q 1469 391 1925 391 
Q 2381 391 2643 752 
Q 2906 1113 2906 1747 
Q 2906 2381 2643 2742 
Q 2381 3103 1925 3103 
Q 1469 3103 1208 2742 
Q 947 2381 947 1747 
z
" transform="scale(0.015625)"/>
       <path id="DejaVuSans-3d" d="M 678 2906 
L 4684 2906 
L 4684 2381 
L 678 2381 
L 678 2906 
z
M 678 1631 
L 4684 1631 
L 4684 1100 
L 678 1100 
L 678 1631 
z
" transform="scale(0.015625)"/>
       <path id="DejaVuSans-38" d="M 2034 2216 
Q 1584 2216 1326 1975 
Q 1069 1734 1069 1313 
Q 1069 891 1326 650 
Q 1584 409 2034 409 
Q 2484 409 2743 651 
Q 3003 894 3003 1313 
Q 3003 1734 2745 1975 
Q 2488 2216 2034 2216 
z
M 1403 2484 
Q 997 2584 770 2862 
Q 544 3141 544 3541 
Q 544 4100 942 4425 
Q 1341 4750 2034 4750 
Q 2731 4750 3128 4425 
Q 3525 4100 3525 3541 
Q 3525 3141 3298 2862 
Q 3072 2584 2669 2484 
Q 3125 2378 3379 2068 
Q 3634 1759 3634 1313 
Q 3634 634 3220 271 
Q 2806 -91 2034 -91 
Q 1263 -91 848 271 
Q 434 634 434 1313 
Q 434 1759 690 2068 
Q 947 2378 1403 2484 
z
M 1172 3481 
Q 1172 3119 1398 2916 
Q 1625 2713 2034 2713 
Q 2441 2713 2670 2916 
Q 2900 3119 2900 3481 
Q 2900 3844 2670 4047 
Q 2441 4250 2034 4250 
Q 1625 4250 1398 4047 
Q 1172 3844 1172 3481 
z
" transform="scale(0.015625)"/>
      </defs>
      <use xlink:href="#DejaVuSans-52"/>
      <use xlink:href="#DejaVuSans-65" transform="translate(64.982422 0)"/>
      <use xlink:href="#DejaVuSans-66" transform="translate(126.505859 0)"/>
      <use xlink:href="#DejaVuSans-20" transform="translate(161.710938 0)"/>
      <use xlink:href="#DejaVuSans-53" transform="translate(193.498047 0)"/>
      <use xlink:href="#DejaVuSans-70" transform="translate(256.974609 0)"/>
      <use xlink:href="#DejaVuSans-65" transform="translate(320.451172 0)"/>
      <use xlink:href="#DejaVuSans-65" transform="translate(381.974609 0)"/>
      <use xlink:href="#DejaVuSans-64" transform="translate(443.498047 0)"/>
      <use xlink:href="#DejaVuSans-20" transform="translate(506.974609 0)"/>
      <use xlink:href="#DejaVuSans-3d" transform="translate(538.761719 0)"/>
      <use xlink:href="#DejaVuSans-20" transform="translate(622.550781 0)"/>
      <use xlink:href="#DejaVuSans-38" transform="translate(654.337891 0)"/>
      <use xlink:href="#DejaVuSans-35" transform="translate(717.960938 0)"/>
      <use xlink:href="#DejaVuSans-30" transform="translate(781.583984 0)"/>
     </g>
    </g>
    <g id="line2d_28">
     <path d="M 324.390625 167.793438 
L 334.390625 167.793438 
L 344.390625 167.793438 
" style="fill: none; stroke: #ff7f0e; stroke-width: 1.5; stroke-linecap: square"/>
    </g>
    <g id="text_22">
     <!-- Ref Speed = 765 -->
     <g transform="translate(352.390625 171.293438) scale(0.1 -0.1)">
      <use xlink:href="#DejaVuSans-52"/>
      <use xlink:href="#DejaVuSans-65" transform="translate(64.982422 0)"/>
      <use xlink:href="#DejaVuSans-66" transform="translate(126.505859 0)"/>
      <use xlink:href="#DejaVuSans-20" transform="translate(161.710938 0)"/>
      <use xlink:href="#DejaVuSans-53" transform="translate(193.498047 0)"/>
      <use xlink:href="#DejaVuSans-70" transform="translate(256.974609 0)"/>
      <use xlink:href="#DejaVuSans-65" transform="translate(320.451172 0)"/>
      <use xlink:href="#DejaVuSans-65" transform="translate(381.974609 0)"/>
      <use xlink:href="#DejaVuSans-64" transform="translate(443.498047 0)"/>
      <use xlink:href="#DejaVuSans-20" transform="translate(506.974609 0)"/>
      <use xlink:href="#DejaVuSans-3d" transform="translate(538.761719 0)"/>
      <use xlink:href="#DejaVuSans-20" transform="translate(622.550781 0)"/>
      <use xlink:href="#DejaVuSans-37" transform="translate(654.337891 0)"/>
      <use xlink:href="#DejaVuSans-36" transform="translate(717.960938 0)"/>
      <use xlink:href="#DejaVuSans-35" transform="translate(781.583984 0)"/>
     </g>
    </g>
    <g id="line2d_29">
     <path d="M 324.390625 182.471563 
L 334.390625 182.471563 
L 344.390625 182.471563 
" style="fill: none; stroke: #2ca02c; stroke-width: 1.5; stroke-linecap: square"/>
    </g>
    <g id="text_23">
     <!-- Ref Speed = 680 -->
     <g transform="translate(352.390625 185.971563) scale(0.1 -0.1)">
      <use xlink:href="#DejaVuSans-52"/>
      <use xlink:href="#DejaVuSans-65" transform="translate(64.982422 0)"/>
      <use xlink:href="#DejaVuSans-66" transform="translate(126.505859 0)"/>
      <use xlink:href="#DejaVuSans-20" transform="translate(161.710938 0)"/>
      <use xlink:href="#DejaVuSans-53" transform="translate(193.498047 0)"/>
      <use xlink:href="#DejaVuSans-70" transform="translate(256.974609 0)"/>
      <use xlink:href="#DejaVuSans-65" transform="translate(320.451172 0)"/>
      <use xlink:href="#DejaVuSans-65" transform="translate(381.974609 0)"/>
      <use xlink:href="#DejaVuSans-64" transform="translate(443.498047 0)"/>
      <use xlink:href="#DejaVuSans-20" transform="translate(506.974609 0)"/>
      <use xlink:href="#DejaVuSans-3d" transform="translate(538.761719 0)"/>
      <use xlink:href="#DejaVuSans-20" transform="translate(622.550781 0)"/>
      <use xlink:href="#DejaVuSans-36" transform="translate(654.337891 0)"/>
      <use xlink:href="#DejaVuSans-38" transform="translate(717.960938 0)"/>
      <use xlink:href="#DejaVuSans-30" transform="translate(781.583984 0)"/>
     </g>
    </g>
    <g id="line2d_30">
     <path d="M 324.390625 197.149688 
L 334.390625 197.149688 
L 344.390625 197.149688 
" style="fill: none; stroke: #d62728; stroke-width: 1.5; stroke-linecap: square"/>
    </g>
    <g id="text_24">
     <!-- Ref Speed = 595 -->
     <g transform="translate(352.390625 200.649688) scale(0.1 -0.1)">
      <defs>
       <path id="DejaVuSans-39" d="M 703 97 
L 703 672 
Q 941 559 1184 500 
Q 1428 441 1663 441 
Q 2288 441 2617 861 
Q 2947 1281 2994 2138 
Q 2813 1869 2534 1725 
Q 2256 1581 1919 1581 
Q 1219 1581 811 2004 
Q 403 2428 403 3163 
Q 403 3881 828 4315 
Q 1253 4750 1959 4750 
Q 2769 4750 3195 4129 
Q 3622 3509 3622 2328 
Q 3622 1225 3098 567 
Q 2575 -91 1691 -91 
Q 1453 -91 1209 -44 
Q 966 3 703 97 
z
M 1959 2075 
Q 2384 2075 2632 2365 
Q 2881 2656 2881 3163 
Q 2881 3666 2632 3958 
Q 2384 4250 1959 4250 
Q 1534 4250 1286 3958 
Q 1038 3666 1038 3163 
Q 1038 2656 1286 2365 
Q 1534 2075 1959 2075 
z
" transform="scale(0.015625)"/>
      </defs>
      <use xlink:href="#DejaVuSans-52"/>
      <use xlink:href="#DejaVuSans-65" transform="translate(64.982422 0)"/>
      <use xlink:href="#DejaVuSans-66" transform="translate(126.505859 0)"/>
      <use xlink:href="#DejaVuSans-20" transform="translate(161.710938 0)"/>
      <use xlink:href="#DejaVuSans-53" transform="translate(193.498047 0)"/>
      <use xlink:href="#DejaVuSans-70" transform="translate(256.974609 0)"/>
      <use xlink:href="#DejaVuSans-65" transform="translate(320.451172 0)"/>
      <use xlink:href="#DejaVuSans-65" transform="translate(381.974609 0)"/>
      <use xlink:href="#DejaVuSans-64" transform="translate(443.498047 0)"/>
      <use xlink:href="#DejaVuSans-20" transform="translate(506.974609 0)"/>
      <use xlink:href="#DejaVuSans-3d" transform="translate(538.761719 0)"/>
      <use xlink:href="#DejaVuSans-20" transform="translate(622.550781 0)"/>
      <use xlink:href="#DejaVuSans-35" transform="translate(654.337891 0)"/>
      <use xlink:href="#DejaVuSans-39" transform="translate(717.960938 0)"/>
      <use xlink:href="#DejaVuSans-35" transform="translate(781.583984 0)"/>
     </g>
    </g>
    <g id="line2d_31">
     <path d="M 324.390625 211.827813 
L 334.390625 211.827813 
L 344.390625 211.827813 
" style="fill: none; stroke: #9467bd; stroke-width: 1.5; stroke-linecap: square"/>
    </g>
    <g id="text_25">
     <!-- Ref Speed = 510 -->
     <g transform="translate(352.390625 215.327813) scale(0.1 -0.1)">
      <use xlink:href="#DejaVuSans-52"/>
      <use xlink:href="#DejaVuSans-65" transform="translate(64.982422 0)"/>
      <use xlink:href="#DejaVuSans-66" transform="translate(126.505859 0)"/>
      <use xlink:href="#DejaVuSans-20" transform="translate(161.710938 0)"/>
      <use xlink:href="#DejaVuSans-53" transform="translate(193.498047 0)"/>
      <use xlink:href="#DejaVuSans-70" transform="translate(256.974609 0)"/>
      <use xlink:href="#DejaVuSans-65" transform="translate(320.451172 0)"/>
      <use xlink:href="#DejaVuSans-65" transform="translate(381.974609 0)"/>
      <use xlink:href="#DejaVuSans-64" transform="translate(443.498047 0)"/>
      <use xlink:href="#DejaVuSans-20" transform="translate(506.974609 0)"/>
      <use xlink:href="#DejaVuSans-3d" transform="translate(538.761719 0)"/>
      <use xlink:href="#DejaVuSans-20" transform="translate(622.550781 0)"/>
      <use xlink:href="#DejaVuSans-35" transform="translate(654.337891 0)"/>
      <use xlink:href="#DejaVuSans-31" transform="translate(717.960938 0)"/>
      <use xlink:href="#DejaVuSans-30" transform="translate(781.583984 0)"/>
     </g>
    </g>
    <g id="line2d_32">
     <path d="M 324.390625 226.505938 
L 334.390625 226.505938 
L 344.390625 226.505938 
" style="fill: none; stroke: #8c564b; stroke-width: 1.5; stroke-linecap: square"/>
    </g>
    <g id="text_26">
     <!-- Ref Speed = 425 -->
     <g transform="translate(352.390625 230.005938) scale(0.1 -0.1)">
      <use xlink:href="#DejaVuSans-52"/>
      <use xlink:href="#DejaVuSans-65" transform="translate(64.982422 0)"/>
      <use xlink:href="#DejaVuSans-66" transform="translate(126.505859 0)"/>
      <use xlink:href="#DejaVuSans-20" transform="translate(161.710938 0)"/>
      <use xlink:href="#DejaVuSans-53" transform="translate(193.498047 0)"/>
      <use xlink:href="#DejaVuSans-70" transform="translate(256.974609 0)"/>
      <use xlink:href="#DejaVuSans-65" transform="translate(320.451172 0)"/>
      <use xlink:href="#DejaVuSans-65" transform="translate(381.974609 0)"/>
      <use xlink:href="#DejaVuSans-64" transform="translate(443.498047 0)"/>
      <use xlink:href="#DejaVuSans-20" transform="translate(506.974609 0)"/>
      <use xlink:href="#DejaVuSans-3d" transform="translate(538.761719 0)"/>
      <use xlink:href="#DejaVuSans-20" transform="translate(622.550781 0)"/>
      <use xlink:href="#DejaVuSans-34" transform="translate(654.337891 0)"/>
      <use xlink:href="#DejaVuSans-32" transform="translate(717.960938 0)"/>
      <use xlink:href="#DejaVuSans-35" transform="translate(781.583984 0)"/>
     </g>
    </g>
    <g id="line2d_33">
     <path d="M 324.390625 241.184063 
L 334.390625 241.184063 
L 344.390625 241.184063 
" style="fill: none; stroke: #e377c2; stroke-width: 1.5; stroke-linecap: square"/>
    </g>
    <g id="text_27">
     <!-- Ref Speed = 340 -->
     <g transform="translate(352.390625 244.684063) scale(0.1 -0.1)">
      <use xlink:href="#DejaVuSans-52"/>
      <use xlink:href="#DejaVuSans-65" transform="translate(64.982422 0)"/>
      <use xlink:href="#DejaVuSans-66" transform="translate(126.505859 0)"/>
      <use xlink:href="#DejaVuSans-20" transform="translate(161.710938 0)"/>
      <use xlink:href="#DejaVuSans-53" transform="translate(193.498047 0)"/>
      <use xlink:href="#DejaVuSans-70" transform="translate(256.974609 0)"/>
      <use xlink:href="#DejaVuSans-65" transform="translate(320.451172 0)"/>
      <use xlink:href="#DejaVuSans-65" transform="translate(381.974609 0)"/>
      <use xlink:href="#DejaVuSans-64" transform="translate(443.498047 0)"/>
      <use xlink:href="#DejaVuSans-20" transform="translate(506.974609 0)"/>
      <use xlink:href="#DejaVuSans-3d" transform="translate(538.761719 0)"/>
      <use xlink:href="#DejaVuSans-20" transform="translate(622.550781 0)"/>
      <use xlink:href="#DejaVuSans-33" transform="translate(654.337891 0)"/>
      <use xlink:href="#DejaVuSans-34" transform="translate(717.960938 0)"/>
      <use xlink:href="#DejaVuSans-30" transform="translate(781.583984 0)"/>
     </g>
    </g>
    <g id="line2d_34">
     <path d="M 324.390625 255.862188 
L 334.390625 255.862188 
L 344.390625 255.862188 
" style="fill: none; stroke: #7f7f7f; stroke-width: 1.5; stroke-linecap: square"/>
    </g>
    <g id="text_28">
     <!-- Ref Speed = 255 -->
     <g transform="translate(352.390625 259.362188) scale(0.1 -0.1)">
      <use xlink:href="#DejaVuSans-52"/>
      <use xlink:href="#DejaVuSans-65" transform="translate(64.982422 0)"/>
      <use xlink:href="#DejaVuSans-66" transform="translate(126.505859 0)"/>
      <use xlink:href="#DejaVuSans-20" transform="translate(161.710938 0)"/>
      <use xlink:href="#DejaVuSans-53" transform="translate(193.498047 0)"/>
      <use xlink:href="#DejaVuSans-70" transform="translate(256.974609 0)"/>
      <use xlink:href="#DejaVuSans-65" transform="translate(320.451172 0)"/>
      <use xlink:href="#DejaVuSans-65" transform="translate(381.974609 0)"/>
      <use xlink:href="#DejaVuSans-64" transform="translate(443.498047 0)"/>
      <use xlink:href="#DejaVuSans-20" transform="translate(506.974609 0)"/>
      <use xlink:href="#DejaVuSans-3d" transform="translate(538.761719 0)"/>
      <use xlink:href="#DejaVuSans-20" transform="translate(622.550781 0)"/>
      <use xlink:href="#DejaVuSans-32" transform="translate(654.337891 0)"/>
      <use xlink:href="#DejaVuSans-35" transform="translate(717.960938 0)"/>
      <use xlink:href="#DejaVuSans-35" transform="translate(781.583984 0)"/>
     </g>
    </g>
    <g id="line2d_35">
     <path d="M 324.390625 270.540313 
L 334.390625 270.540313 
L 344.390625 270.540313 
" style="fill: none; stroke: #bcbd22; stroke-width: 1.5; stroke-linecap: square"/>
    </g>
    <g id="text_29">
     <!-- Ref Speed = 170 -->
     <g transform="translate(352.390625 274.040313) scale(0.1 -0.1)">
      <use xlink:href="#DejaVuSans-52"/>
      <use xlink:href="#DejaVuSans-65" transform="translate(64.982422 0)"/>
      <use xlink:href="#DejaVuSans-66" transform="translate(126.505859 0)"/>
      <use xlink:href="#DejaVuSans-20" transform="translate(161.710938 0)"/>
      <use xlink:href="#DejaVuSans-53" transform="translate(193.498047 0)"/>
      <use xlink:href="#DejaVuSans-70" transform="translate(256.974609 0)"/>
      <use xlink:href="#DejaVuSans-65" transform="translate(320.451172 0)"/>
      <use xlink:href="#DejaVuSans-65" transform="translate(381.974609 0)"/>
      <use xlink:href="#DejaVuSans-64" transform="translate(443.498047 0)"/>
      <use xlink:href="#DejaVuSans-20" transform="translate(506.974609 0)"/>
      <use xlink:href="#DejaVuSans-3d" transform="translate(538.761719 0)"/>
      <use xlink:href="#DejaVuSans-20" transform="translate(622.550781 0)"/>
      <use xlink:href="#DejaVuSans-31" transform="translate(654.337891 0)"/>
      <use xlink:href="#DejaVuSans-37" transform="translate(717.960938 0)"/>
      <use xlink:href="#DejaVuSans-30" transform="translate(781.583984 0)"/>
     </g>
    </g>
    <g id="line2d_36">
     <path d="M 324.390625 285.218438 
L 334.390625 285.218438 
L 344.390625 285.218438 
" style="fill: none; stroke: #17becf; stroke-width: 1.5; stroke-linecap: square"/>
    </g>
    <g id="text_30">
     <!-- Ref Speed = 85 -->
     <g transform="translate(352.390625 288.718438) scale(0.1 -0.1)">
      <use xlink:href="#DejaVuSans-52"/>
      <use xlink:href="#DejaVuSans-65" transform="translate(64.982422 0)"/>
      <use xlink:href="#DejaVuSans-66" transform="translate(126.505859 0)"/>
      <use xlink:href="#DejaVuSans-20" transform="translate(161.710938 0)"/>
      <use xlink:href="#DejaVuSans-53" transform="translate(193.498047 0)"/>
      <use xlink:href="#DejaVuSans-70" transform="translate(256.974609 0)"/>
      <use xlink:href="#DejaVuSans-65" transform="translate(320.451172 0)"/>
      <use xlink:href="#DejaVuSans-65" transform="translate(381.974609 0)"/>
      <use xlink:href="#DejaVuSans-64" transform="translate(443.498047 0)"/>
      <use xlink:href="#DejaVuSans-20" transform="translate(506.974609 0)"/>
      <use xlink:href="#DejaVuSans-3d" transform="translate(538.761719 0)"/>
      <use xlink:href="#DejaVuSans-20" transform="translate(622.550781 0)"/>
      <use xlink:href="#DejaVuSans-38" transform="translate(654.337891 0)"/>
      <use xlink:href="#DejaVuSans-35" transform="translate(717.960938 0)"/>
     </g>
    </g>
   </g>
  </g>
 </g>
 <defs>
  <clipPath id="p913655b53d">
   <rect x="46.965625" y="22.318125" width="398.95" height="277.48"/>
  </clipPath>
 </defs>
</svg>
