<?xml version="1.0" encoding="utf-8" standalone="no"?>
<!DOCTYPE svg PUBLIC "-//W3C//DTD SVG 1.1//EN"
  "http://www.w3.org/Graphics/SVG/1.1/DTD/svg11.dtd">
<svg xmlns:xlink="http://www.w3.org/1999/xlink" width="453.160625pt" height="337.354375pt" viewBox="0 0 453.160625 337.354375" xmlns="http://www.w3.org/2000/svg" version="1.1">
 <metadata>
  <rdf:RDF xmlns:dc="http://purl.org/dc/elements/1.1/" xmlns:cc="http://creativecommons.org/ns#" xmlns:rdf="http://www.w3.org/1999/02/22-rdf-syntax-ns#">
   <cc:Work>
    <dc:type rdf:resource="http://purl.org/dc/dcmitype/StillImage"/>
    <dc:date>2025-10-29T19:57:21.167591</dc:date>
    <dc:format>image/svg+xml</dc:format>
    <dc:creator>
     <cc:Agent>
      <dc:title>Matplotlib v3.10.6, https://matplotlib.org/</dc:title>
     </cc:Agent>
    </dc:creator>
   </cc:Work>
  </rdf:RDF>
 </metadata>
 <defs>
  <style type="text/css">*{stroke-linejoin: round; stroke-linecap: butt}</style>
 </defs>
 <g id="figure_1">
  <g id="patch_1">
   <path d="M 0 337.354375 
L 453.160625 337.354375 
L 453.160625 0 
L 0 0 
z
" style="fill: #ffffff"/>
  </g>
  <g id="axes_1">
   <g id="patch_2">
    <path d="M 46.965625 299.798125 
L 445.960625 299.798125 
L 445.960625 22.318125 
L 46.965625 22.318125 
z
" style="fill: #ffffff"/>
   </g>
   <g id="matplotlib.axis_1">
    <g id="xtick_1">
     <g id="line2d_1">
      <defs>
       <path id="md637158535" d="M 0 0 
L 0 3.5 
" style="stroke: #000000; stroke-width: 0.8"/>
      </defs>
      <g>
       <use xlink:href="#md637158535" x="64.89348" y="299.798125" style="stroke: #000000; stroke-width: 0.8"/>
      </g>
     </g>
     <g id="text_1">
      <!-- 0.00 -->
      <g transform="translate(53.760668 314.396563) scale(0.1 -0.1)">
       <defs>
        <path id="DejaVuSans-30" d="M 2034 4250 
Q 1547 4250 1301 3770 
Q 1056 3291 1056 2328 
Q 1056 1369 1301 889 
Q 1547 409 2034 409 
Q 2525 409 2770 889 
Q 3016 1369 3016 2328 
Q 3016 3291 2770 3770 
Q 2525 4250 2034 4250 
z
M 2034 4750 
Q 2819 4750 3233 4129 
Q 3647 3509 3647 2328 
Q 3647 1150 3233 529 
Q 2819 -91 2034 -91 
Q 1250 -91 836 529 
Q 422 1150 422 2328 
Q 422 3509 836 4129 
Q 1250 4750 2034 4750 
z
" transform="scale(0.015625)"/>
        <path id="DejaVuSans-2e" d="M 684 794 
L 1344 794 
L 1344 0 
L 684 0 
L 684 794 
z
" transform="scale(0.015625)"/>
       </defs>
       <use xlink:href="#DejaVuSans-30"/>
       <use xlink:href="#DejaVuSans-2e" transform="translate(63.623047 0)"/>
       <use xlink:href="#DejaVuSans-30" transform="translate(95.410156 0)"/>
       <use xlink:href="#DejaVuSans-30" transform="translate(159.033203 0)"/>
      </g>
     </g>
    </g>
    <g id="xtick_2">
     <g id="line2d_2">
      <g>
       <use xlink:href="#md637158535" x="110.33001" y="299.798125" style="stroke: #000000; stroke-width: 0.8"/>
      </g>
     </g>
     <g id="text_2">
      <!-- 0.25 -->
      <g transform="translate(99.197198 314.396563) scale(0.1 -0.1)">
       <defs>
        <path id="DejaVuSans-32" d="M 1228 531 
L 3431 531 
L 3431 0 
L 469 0 
L 469 531 
Q 828 903 1448 1529 
Q 2069 2156 2228 2338 
Q 2531 2678 2651 2914 
Q 2772 3150 2772 3378 
Q 2772 3750 2511 3984 
Q 2250 4219 1831 4219 
Q 1534 4219 1204 4116 
Q 875 4013 500 3803 
L 500 4441 
Q 881 4594 1212 4672 
Q 1544 4750 1819 4750 
Q 2544 4750 2975 4387 
Q 3406 4025 3406 3419 
Q 3406 3131 3298 2873 
Q 3191 2616 2906 2266 
Q 2828 2175 2409 1742 
Q 1991 1309 1228 531 
z
" transform="scale(0.015625)"/>
        <path id="DejaVuSans-35" d="M 691 4666 
L 3169 4666 
L 3169 4134 
L 1269 4134 
L 1269 2991 
Q 1406 3038 1543 3061 
Q 1681 3084 1819 3084 
Q 2600 3084 3056 2656 
Q 3513 2228 3513 1497 
Q 3513 744 3044 326 
Q 2575 -91 1722 -91 
Q 1428 -91 1123 -41 
Q 819 9 494 109 
L 494 744 
Q 775 591 1075 516 
Q 1375 441 1709 441 
Q 2250 441 2565 725 
Q 2881 1009 2881 1497 
Q 2881 1984 2565 2268 
Q 2250 2553 1709 2553 
Q 1456 2553 1204 2497 
Q 953 2441 691 2322 
L 691 4666 
z
" transform="scale(0.015625)"/>
       </defs>
       <use xlink:href="#DejaVuSans-30"/>
       <use xlink:href="#DejaVuSans-2e" transform="translate(63.623047 0)"/>
       <use xlink:href="#DejaVuSans-32" transform="translate(95.410156 0)"/>
       <use xlink:href="#DejaVuSans-35" transform="translate(159.033203 0)"/>
      </g>
     </g>
    </g>
    <g id="xtick_3">
     <g id="line2d_3">
      <g>
       <use xlink:href="#md637158535" x="155.76654" y="299.798125" style="stroke: #000000; stroke-width: 0.8"/>
      </g>
     </g>
     <g id="text_3">
      <!-- 0.50 -->
      <g transform="translate(144.633728 314.396563) scale(0.1 -0.1)">
       <use xlink:href="#DejaVuSans-30"/>
       <use xlink:href="#DejaVuSans-2e" transform="translate(63.623047 0)"/>
       <use xlink:href="#DejaVuSans-35" transform="translate(95.410156 0)"/>
       <use xlink:href="#DejaVuSans-30" transform="translate(159.033203 0)"/>
      </g>
     </g>
    </g>
    <g id="xtick_4">
     <g id="line2d_4">
      <g>
       <use xlink:href="#md637158535" x="201.20307" y="299.798125" style="stroke: #000000; stroke-width: 0.8"/>
      </g>
     </g>
     <g id="text_4">
      <!-- 0.75 -->
      <g transform="translate(190.070258 314.396563) scale(0.1 -0.1)">
       <defs>
        <path id="DejaVuSans-37" d="M 525 4666 
L 3525 4666 
L 3525 4397 
L 1831 0 
L 1172 0 
L 2766 4134 
L 525 4134 
L 525 4666 
z
" transform="scale(0.015625)"/>
       </defs>
       <use xlink:href="#DejaVuSans-30"/>
       <use xlink:href="#DejaVuSans-2e" transform="translate(63.623047 0)"/>
       <use xlink:href="#DejaVuSans-37" transform="translate(95.410156 0)"/>
       <use xlink:href="#DejaVuSans-35" transform="translate(159.033203 0)"/>
      </g>
     </g>
    </g>
    <g id="xtick_5">
     <g id="line2d_5">
      <g>
       <use xlink:href="#md637158535" x="246.6396" y="299.798125" style="stroke: #000000; stroke-width: 0.8"/>
      </g>
     </g>
     <g id="text_5">
      <!-- 1.00 -->
      <g transform="translate(235.506788 314.396563) scale(0.1 -0.1)">
       <defs>
        <path id="DejaVuSans-31" d="M 794 531 
L 1825 531 
L 1825 4091 
L 703 3866 
L 703 4441 
L 1819 4666 
L 2450 4666 
L 2450 531 
L 3481 531 
L 3481 0 
L 794 0 
L 794 531 
z
" transform="scale(0.015625)"/>
       </defs>
       <use xlink:href="#DejaVuSans-31"/>
       <use xlink:href="#DejaVuSans-2e" transform="translate(63.623047 0)"/>
       <use xlink:href="#DejaVuSans-30" transform="translate(95.410156 0)"/>
       <use xlink:href="#DejaVuSans-30" transform="translate(159.033203 0)"/>
      </g>
     </g>
    </g>
    <g id="xtick_6">
     <g id="line2d_6">
      <g>
       <use xlink:href="#md637158535" x="292.076131" y="299.798125" style="stroke: #000000; stroke-width: 0.8"/>
      </g>
     </g>
     <g id="text_6">
      <!-- 1.25 -->
      <g transform="translate(280.943318 314.396563) scale(0.1 -0.1)">
       <use xlink:href="#DejaVuSans-31"/>
       <use xlink:href="#DejaVuSans-2e" transform="translate(63.623047 0)"/>
       <use xlink:href="#DejaVuSans-32" transform="translate(95.410156 0)"/>
       <use xlink:href="#DejaVuSans-35" transform="translate(159.033203 0)"/>
      </g>
     </g>
    </g>
    <g id="xtick_7">
     <g id="line2d_7">
      <g>
       <use xlink:href="#md637158535" x="337.512661" y="299.798125" style="stroke: #000000; stroke-width: 0.8"/>
      </g>
     </g>
     <g id="text_7">
      <!-- 1.50 -->
      <g transform="translate(326.379848 314.396563) scale(0.1 -0.1)">
       <use xlink:href="#DejaVuSans-31"/>
       <use xlink:href="#DejaVuSans-2e" transform="translate(63.623047 0)"/>
       <use xlink:href="#DejaVuSans-35" transform="translate(95.410156 0)"/>
       <use xlink:href="#DejaVuSans-30" transform="translate(159.033203 0)"/>
      </g>
     </g>
    </g>
    <g id="xtick_8">
     <g id="line2d_8">
      <g>
       <use xlink:href="#md637158535" x="382.949191" y="299.798125" style="stroke: #000000; stroke-width: 0.8"/>
      </g>
     </g>
     <g id="text_8">
      <!-- 1.75 -->
      <g transform="translate(371.816378 314.396563) scale(0.1 -0.1)">
       <use xlink:href="#DejaVuSans-31"/>
       <use xlink:href="#DejaVuSans-2e" transform="translate(63.623047 0)"/>
       <use xlink:href="#DejaVuSans-37" transform="translate(95.410156 0)"/>
       <use xlink:href="#DejaVuSans-35" transform="translate(159.033203 0)"/>
      </g>
     </g>
    </g>
    <g id="xtick_9">
     <g id="line2d_9">
      <g>
       <use xlink:href="#md637158535" x="428.385721" y="299.798125" style="stroke: #000000; stroke-width: 0.8"/>
      </g>
     </g>
     <g id="text_9">
      <!-- 2.00 -->
      <g transform="translate(417.252908 314.396563) scale(0.1 -0.1)">
       <use xlink:href="#DejaVuSans-32"/>
       <use xlink:href="#DejaVuSans-2e" transform="translate(63.623047 0)"/>
       <use xlink:href="#DejaVuSans-30" transform="translate(95.410156 0)"/>
       <use xlink:href="#DejaVuSans-30" transform="translate(159.033203 0)"/>
      </g>
     </g>
    </g>
    <g id="text_10">
     <!-- time, t (us) -->
     <g transform="translate(218.764688 328.074688) scale(0.1 -0.1)">
      <defs>
       <path id="DejaVuSans-74" d="M 1172 4494 
L 1172 3500 
L 2356 3500 
L 2356 3053 
L 1172 3053 
L 1172 1153 
Q 1172 725 1289 603 
Q 1406 481 1766 481 
L 2356 481 
L 2356 0 
L 1766 0 
Q 1100 0 847 248 
Q 594 497 594 1153 
L 594 3053 
L 172 3053 
L 172 3500 
L 594 3500 
L 594 4494 
L 1172 4494 
z
" transform="scale(0.015625)"/>
       <path id="DejaVuSans-69" d="M 603 3500 
L 1178 3500 
L 1178 0 
L 603 0 
L 603 3500 
z
M 603 4863 
L 1178 4863 
L 1178 4134 
L 603 4134 
L 603 4863 
z
" transform="scale(0.015625)"/>
       <path id="DejaVuSans-6d" d="M 3328 2828 
Q 3544 3216 3844 3400 
Q 4144 3584 4550 3584 
Q 5097 3584 5394 3201 
Q 5691 2819 5691 2113 
L 5691 0 
L 5113 0 
L 5113 2094 
Q 5113 2597 4934 2840 
Q 4756 3084 4391 3084 
Q 3944 3084 3684 2787 
Q 3425 2491 3425 1978 
L 3425 0 
L 2847 0 
L 2847 2094 
Q 2847 2600 2669 2842 
Q 2491 3084 2119 3084 
Q 1678 3084 1418 2786 
Q 1159 2488 1159 1978 
L 1159 0 
L 581 0 
L 581 3500 
L 1159 3500 
L 1159 2956 
Q 1356 3278 1631 3431 
Q 1906 3584 2284 3584 
Q 2666 3584 2933 3390 
Q 3200 3197 3328 2828 
z
" transform="scale(0.015625)"/>
       <path id="DejaVuSans-65" d="M 3597 1894 
L 3597 1613 
L 953 1613 
Q 991 1019 1311 708 
Q 1631 397 2203 397 
Q 2534 397 2845 478 
Q 3156 559 3463 722 
L 3463 178 
Q 3153 47 2828 -22 
Q 2503 -91 2169 -91 
Q 1331 -91 842 396 
Q 353 884 353 1716 
Q 353 2575 817 3079 
Q 1281 3584 2069 3584 
Q 2775 3584 3186 3129 
Q 3597 2675 3597 1894 
z
M 3022 2063 
Q 3016 2534 2758 2815 
Q 2500 3097 2075 3097 
Q 1594 3097 1305 2825 
Q 1016 2553 972 2059 
L 3022 2063 
z
" transform="scale(0.015625)"/>
       <path id="DejaVuSans-2c" d="M 750 794 
L 1409 794 
L 1409 256 
L 897 -744 
L 494 -744 
L 750 256 
L 750 794 
z
" transform="scale(0.015625)"/>
       <path id="DejaVuSans-20" transform="scale(0.015625)"/>
       <path id="DejaVuSans-28" d="M 1984 4856 
Q 1566 4138 1362 3434 
Q 1159 2731 1159 2009 
Q 1159 1288 1364 580 
Q 1569 -128 1984 -844 
L 1484 -844 
Q 1016 -109 783 600 
Q 550 1309 550 2009 
Q 550 2706 781 3412 
Q 1013 4119 1484 4856 
L 1984 4856 
z
" transform="scale(0.015625)"/>
       <path id="DejaVuSans-75" d="M 544 1381 
L 544 3500 
L 1119 3500 
L 1119 1403 
Q 1119 906 1312 657 
Q 1506 409 1894 409 
Q 2359 409 2629 706 
Q 2900 1003 2900 1516 
L 2900 3500 
L 3475 3500 
L 3475 0 
L 2900 0 
L 2900 538 
Q 2691 219 2414 64 
Q 2138 -91 1772 -91 
Q 1169 -91 856 284 
Q 544 659 544 1381 
z
M 1991 3584 
L 1991 3584 
z
" transform="scale(0.015625)"/>
       <path id="DejaVuSans-73" d="M 2834 3397 
L 2834 2853 
Q 2591 2978 2328 3040 
Q 2066 3103 1784 3103 
Q 1356 3103 1142 2972 
Q 928 2841 928 2578 
Q 928 2378 1081 2264 
Q 1234 2150 1697 2047 
L 1894 2003 
Q 2506 1872 2764 1633 
Q 3022 1394 3022 966 
Q 3022 478 2636 193 
Q 2250 -91 1575 -91 
Q 1294 -91 989 -36 
Q 684 19 347 128 
L 347 722 
Q 666 556 975 473 
Q 1284 391 1588 391 
Q 1994 391 2212 530 
Q 2431 669 2431 922 
Q 2431 1156 2273 1281 
Q 2116 1406 1581 1522 
L 1381 1569 
Q 847 1681 609 1914 
Q 372 2147 372 2553 
Q 372 3047 722 3315 
Q 1072 3584 1716 3584 
Q 2034 3584 2315 3537 
Q 2597 3491 2834 3397 
z
" transform="scale(0.015625)"/>
       <path id="DejaVuSans-29" d="M 513 4856 
L 1013 4856 
Q 1481 4119 1714 3412 
Q 1947 2706 1947 2009 
Q 1947 1309 1714 600 
Q 1481 -109 1013 -844 
L 513 -844 
Q 928 -128 1133 580 
Q 1338 1288 1338 2009 
Q 1338 2731 1133 3434 
Q 928 4138 513 4856 
z
" transform="scale(0.015625)"/>
      </defs>
      <use xlink:href="#DejaVuSans-74"/>
      <use xlink:href="#DejaVuSans-69" transform="translate(39.208984 0)"/>
      <use xlink:href="#DejaVuSans-6d" transform="translate(66.992188 0)"/>
      <use xlink:href="#DejaVuSans-65" transform="translate(164.404297 0)"/>
      <use xlink:href="#DejaVuSans-2c" transform="translate(225.927734 0)"/>
      <use xlink:href="#DejaVuSans-20" transform="translate(257.714844 0)"/>
      <use xlink:href="#DejaVuSans-74" transform="translate(289.501953 0)"/>
      <use xlink:href="#DejaVuSans-20" transform="translate(328.710938 0)"/>
      <use xlink:href="#DejaVuSans-28" transform="translate(360.498047 0)"/>
      <use xlink:href="#DejaVuSans-75" transform="translate(399.511719 0)"/>
      <use xlink:href="#DejaVuSans-73" transform="translate(462.890625 0)"/>
      <use xlink:href="#DejaVuSans-29" transform="translate(514.990234 0)"/>
     </g>
    </g>
    <g id="text_11">
     <!-- 1e6 -->
     <g transform="translate(427.0825 327.074688) scale(0.1 -0.1)">
      <defs>
       <path id="DejaVuSans-36" d="M 2113 2584 
Q 1688 2584 1439 2293 
Q 1191 2003 1191 1497 
Q 1191 994 1439 701 
Q 1688 409 2113 409 
Q 2538 409 2786 701 
Q 3034 994 3034 1497 
Q 3034 2003 2786 2293 
Q 2538 2584 2113 2584 
z
M 3366 4563 
L 3366 3988 
Q 3128 4100 2886 4159 
Q 2644 4219 2406 4219 
Q 1781 4219 1451 3797 
Q 1122 3375 1075 2522 
Q 1259 2794 1537 2939 
Q 1816 3084 2150 3084 
Q 2853 3084 3261 2657 
Q 3669 2231 3669 1497 
Q 3669 778 3244 343 
Q 2819 -91 2113 -91 
Q 1303 -91 875 529 
Q 447 1150 447 2328 
Q 447 3434 972 4092 
Q 1497 4750 2381 4750 
Q 2619 4750 2861 4703 
Q 3103 4656 3366 4563 
z
" transform="scale(0.015625)"/>
      </defs>
      <use xlink:href="#DejaVuSans-31"/>
      <use xlink:href="#DejaVuSans-65" transform="translate(63.623047 0)"/>
      <use xlink:href="#DejaVuSans-36" transform="translate(125.146484 0)"/>
     </g>
    </g>
   </g>
   <g id="matplotlib.axis_2">
    <g id="ytick_1">
     <g id="line2d_10">
      <defs>
       <path id="mb0bb28e31f" d="M 0 0 
L -3.5 0 
" style="stroke: #000000; stroke-width: 0.8"/>
      </defs>
      <g>
       <use xlink:href="#mb0bb28e31f" x="46.965625" y="287.185398" style="stroke: #000000; stroke-width: 0.8"/>
      </g>
     </g>
     <g id="text_12">
      <!-- 0 -->
      <g transform="translate(33.603125 290.984616) scale(0.1 -0.1)">
       <use xlink:href="#DejaVuSans-30"/>
      </g>
     </g>
    </g>
    <g id="ytick_2">
     <g id="line2d_11">
      <g>
       <use xlink:href="#mb0bb28e31f" x="46.965625" y="226.83742" style="stroke: #000000; stroke-width: 0.8"/>
      </g>
     </g>
     <g id="text_13">
      <!-- 200 -->
      <g transform="translate(20.878125 230.636639) scale(0.1 -0.1)">
       <use xlink:href="#DejaVuSans-32"/>
       <use xlink:href="#DejaVuSans-30" transform="translate(63.623047 0)"/>
       <use xlink:href="#DejaVuSans-30" transform="translate(127.246094 0)"/>
      </g>
     </g>
    </g>
    <g id="ytick_3">
     <g id="line2d_12">
      <g>
       <use xlink:href="#mb0bb28e31f" x="46.965625" y="166.489443" style="stroke: #000000; stroke-width: 0.8"/>
      </g>
     </g>
     <g id="text_14">
      <!-- 400 -->
      <g transform="translate(20.878125 170.288662) scale(0.1 -0.1)">
       <defs>
        <path id="DejaVuSans-34" d="M 2419 4116 
L 825 1625 
L 2419 1625 
L 2419 4116 
z
M 2253 4666 
L 3047 4666 
L 3047 1625 
L 3713 1625 
L 3713 1100 
L 3047 1100 
L 3047 0 
L 2419 0 
L 2419 1100 
L 313 1100 
L 313 1709 
L 2253 4666 
z
" transform="scale(0.015625)"/>
       </defs>
       <use xlink:href="#DejaVuSans-34"/>
       <use xlink:href="#DejaVuSans-30" transform="translate(63.623047 0)"/>
       <use xlink:href="#DejaVuSans-30" transform="translate(127.246094 0)"/>
      </g>
     </g>
    </g>
    <g id="ytick_4">
     <g id="line2d_13">
      <g>
       <use xlink:href="#mb0bb28e31f" x="46.965625" y="106.141466" style="stroke: #000000; stroke-width: 0.8"/>
      </g>
     </g>
     <g id="text_15">
      <!-- 600 -->
      <g transform="translate(20.878125 109.940684) scale(0.1 -0.1)">
       <use xlink:href="#DejaVuSans-36"/>
       <use xlink:href="#DejaVuSans-30" transform="translate(63.623047 0)"/>
       <use xlink:href="#DejaVuSans-30" transform="translate(127.246094 0)"/>
      </g>
     </g>
    </g>
    <g id="ytick_5">
     <g id="line2d_14">
      <g>
       <use xlink:href="#mb0bb28e31f" x="46.965625" y="45.793488" style="stroke: #000000; stroke-width: 0.8"/>
      </g>
     </g>
     <g id="text_16">
      <!-- 800 -->
      <g transform="translate(20.878125 49.592707) scale(0.1 -0.1)">
       <defs>
        <path id="DejaVuSans-38" d="M 2034 2216 
Q 1584 2216 1326 1975 
Q 1069 1734 1069 1313 
Q 1069 891 1326 650 
Q 1584 409 2034 409 
Q 2484 409 2743 651 
Q 3003 894 3003 1313 
Q 3003 1734 2745 1975 
Q 2488 2216 2034 2216 
z
M 1403 2484 
Q 997 2584 770 2862 
Q 544 3141 544 3541 
Q 544 4100 942 4425 
Q 1341 4750 2034 4750 
Q 2731 4750 3128 4425 
Q 3525 4100 3525 3541 
Q 3525 3141 3298 2862 
Q 3072 2584 2669 2484 
Q 3125 2378 3379 2068 
Q 3634 1759 3634 1313 
Q 3634 634 3220 271 
Q 2806 -91 2034 -91 
Q 1263 -91 848 271 
Q 434 634 434 1313 
Q 434 1759 690 2068 
Q 947 2378 1403 2484 
z
M 1172 3481 
Q 1172 3119 1398 2916 
Q 1625 2713 2034 2713 
Q 2441 2713 2670 2916 
Q 2900 3119 2900 3481 
Q 2900 3844 2670 4047 
Q 2441 4250 2034 4250 
Q 1625 4250 1398 4047 
Q 1172 3844 1172 3481 
z
" transform="scale(0.015625)"/>
       </defs>
       <use xlink:href="#DejaVuSans-38"/>
       <use xlink:href="#DejaVuSans-30" transform="translate(63.623047 0)"/>
       <use xlink:href="#DejaVuSans-30" transform="translate(127.246094 0)"/>
      </g>
     </g>
    </g>
    <g id="text_17">
     <!-- left wheel velocity, lv (mm/s) -->
     <g transform="translate(14.798438 233.72375) rotate(-90) scale(0.1 -0.1)">
      <defs>
       <path id="DejaVuSans-6c" d="M 603 4863 
L 1178 4863 
L 1178 0 
L 603 0 
L 603 4863 
z
" transform="scale(0.015625)"/>
       <path id="DejaVuSans-66" d="M 2375 4863 
L 2375 4384 
L 1825 4384 
Q 1516 4384 1395 4259 
Q 1275 4134 1275 3809 
L 1275 3500 
L 2222 3500 
L 2222 3053 
L 1275 3053 
L 1275 0 
L 697 0 
L 697 3053 
L 147 3053 
L 147 3500 
L 697 3500 
L 697 3744 
Q 697 4328 969 4595 
Q 1241 4863 1831 4863 
L 2375 4863 
z
" transform="scale(0.015625)"/>
       <path id="DejaVuSans-77" d="M 269 3500 
L 844 3500 
L 1563 769 
L 2278 3500 
L 2956 3500 
L 3675 769 
L 4391 3500 
L 4966 3500 
L 4050 0 
L 3372 0 
L 2619 2869 
L 1863 0 
L 1184 0 
L 269 3500 
z
" transform="scale(0.015625)"/>
       <path id="DejaVuSans-68" d="M 3513 2113 
L 3513 0 
L 2938 0 
L 2938 2094 
Q 2938 2591 2744 2837 
Q 2550 3084 2163 3084 
Q 1697 3084 1428 2787 
Q 1159 2491 1159 1978 
L 1159 0 
L 581 0 
L 581 4863 
L 1159 4863 
L 1159 2956 
Q 1366 3272 1645 3428 
Q 1925 3584 2291 3584 
Q 2894 3584 3203 3211 
Q 3513 2838 3513 2113 
z
" transform="scale(0.015625)"/>
       <path id="DejaVuSans-76" d="M 191 3500 
L 800 3500 
L 1894 563 
L 2988 3500 
L 3597 3500 
L 2284 0 
L 1503 0 
L 191 3500 
z
" transform="scale(0.015625)"/>
       <path id="DejaVuSans-6f" d="M 1959 3097 
Q 1497 3097 1228 2736 
Q 959 2375 959 1747 
Q 959 1119 1226 758 
Q 1494 397 1959 397 
Q 2419 397 2687 759 
Q 2956 1122 2956 1747 
Q 2956 2369 2687 2733 
Q 2419 3097 1959 3097 
z
M 1959 3584 
Q 2709 3584 3137 3096 
Q 3566 2609 3566 1747 
Q 3566 888 3137 398 
Q 2709 -91 1959 -91 
Q 1206 -91 779 398 
Q 353 888 353 1747 
Q 353 2609 779 3096 
Q 1206 3584 1959 3584 
z
" transform="scale(0.015625)"/>
       <path id="DejaVuSans-63" d="M 3122 3366 
L 3122 2828 
Q 2878 2963 2633 3030 
Q 2388 3097 2138 3097 
Q 1578 3097 1268 2742 
Q 959 2388 959 1747 
Q 959 1106 1268 751 
Q 1578 397 2138 397 
Q 2388 397 2633 464 
Q 2878 531 3122 666 
L 3122 134 
Q 2881 22 2623 -34 
Q 2366 -91 2075 -91 
Q 1284 -91 818 406 
Q 353 903 353 1747 
Q 353 2603 823 3093 
Q 1294 3584 2113 3584 
Q 2378 3584 2631 3529 
Q 2884 3475 3122 3366 
z
" transform="scale(0.015625)"/>
       <path id="DejaVuSans-79" d="M 2059 -325 
Q 1816 -950 1584 -1140 
Q 1353 -1331 966 -1331 
L 506 -1331 
L 506 -850 
L 844 -850 
Q 1081 -850 1212 -737 
Q 1344 -625 1503 -206 
L 1606 56 
L 191 3500 
L 800 3500 
L 1894 763 
L 2988 3500 
L 3597 3500 
L 2059 -325 
z
" transform="scale(0.015625)"/>
       <path id="DejaVuSans-2f" d="M 1625 4666 
L 2156 4666 
L 531 -594 
L 0 -594 
L 1625 4666 
z
" transform="scale(0.015625)"/>
      </defs>
      <use xlink:href="#DejaVuSans-6c"/>
      <use xlink:href="#DejaVuSans-65" transform="translate(27.783203 0)"/>
      <use xlink:href="#DejaVuSans-66" transform="translate(89.306641 0)"/>
      <use xlink:href="#DejaVuSans-74" transform="translate(122.761719 0)"/>
      <use xlink:href="#DejaVuSans-20" transform="translate(161.970703 0)"/>
      <use xlink:href="#DejaVuSans-77" transform="translate(193.757812 0)"/>
      <use xlink:href="#DejaVuSans-68" transform="translate(275.544922 0)"/>
      <use xlink:href="#DejaVuSans-65" transform="translate(338.923828 0)"/>
      <use xlink:href="#DejaVuSans-65" transform="translate(400.447266 0)"/>
      <use xlink:href="#DejaVuSans-6c" transform="translate(461.970703 0)"/>
      <use xlink:href="#DejaVuSans-20" transform="translate(489.753906 0)"/>
      <use xlink:href="#DejaVuSans-76" transform="translate(521.541016 0)"/>
      <use xlink:href="#DejaVuSans-65" transform="translate(580.720703 0)"/>
      <use xlink:href="#DejaVuSans-6c" transform="translate(642.244141 0)"/>
      <use xlink:href="#DejaVuSans-6f" transform="translate(670.027344 0)"/>
      <use xlink:href="#DejaVuSans-63" transform="translate(731.208984 0)"/>
      <use xlink:href="#DejaVuSans-69" transform="translate(786.189453 0)"/>
      <use xlink:href="#DejaVuSans-74" transform="translate(813.972656 0)"/>
      <use xlink:href="#DejaVuSans-79" transform="translate(853.181641 0)"/>
      <use xlink:href="#DejaVuSans-2c" transform="translate(912.361328 0)"/>
      <use xlink:href="#DejaVuSans-20" transform="translate(944.148438 0)"/>
      <use xlink:href="#DejaVuSans-6c" transform="translate(975.935547 0)"/>
      <use xlink:href="#DejaVuSans-76" transform="translate(1003.71875 0)"/>
      <use xlink:href="#DejaVuSans-20" transform="translate(1062.898438 0)"/>
      <use xlink:href="#DejaVuSans-28" transform="translate(1094.685547 0)"/>
      <use xlink:href="#DejaVuSans-6d" transform="translate(1133.699219 0)"/>
      <use xlink:href="#DejaVuSans-6d" transform="translate(1231.111328 0)"/>
      <use xlink:href="#DejaVuSans-2f" transform="translate(1328.523438 0)"/>
      <use xlink:href="#DejaVuSans-73" transform="translate(1362.214844 0)"/>
      <use xlink:href="#DejaVuSans-29" transform="translate(1414.314453 0)"/>
     </g>
    </g>
   </g>
   <g id="line2d_15">
    <path d="M 65.102307 287.185398 
L 67.988798 246.450513 
L 72.027924 177.352079 
L 75.932013 130.280657 
L 78.888113 102.822327 
L 82.868899 87.131853 
L 86.78789 68.72572 
L 89.862126 60.880483 
L 93.813468 53.638725 
L 97.765719 49.414367 
L 100.832867 46.698708 
L 104.770397 40.06043 
L 108.795528 34.930852 
L 111.788886 37.948251 
L 115.744954 45.491748 
L 118.81501 46.698708 
L 122.770169 51.828286 
L 126.810749 52.733506 
L 129.78884 53.336985 
L 133.743454 58.164824 
L 137.776037 66.61354 
L 140.73759 69.329199 
L 144.776716 71.139639 
L 148.715336 74.157038 
L 151.708695 74.458777 
L 155.740551 75.062257 
L 159.695165 77.174436 
L 162.758314 79.286616 
L 166.713109 79.286616 
L 169.706286 82.605754 
L 173.739414 81.398795 
L 177.693483 79.286616 
L 180.75536 78.984876 
L 184.709428 79.286616 
L 188.663679 79.286616 
L 191.734643 79.588356 
L 195.671809 80.493575 
L 198.74968 80.191835 
L 202.704657 79.286616 
L 206.658362 81.398795 
L 209.728054 79.588356 
L 213.68085 81.398795 
L 217.702892 82.907494 
L 220.679348 84.416194 
L 224.615969 82.605754 
L 228.645826 81.097055 
L 231.638276 82.605754 
L 235.675221 79.588356 
L 239.627835 83.510974 
L 242.620467 82.605754 
L 246.633058 80.191835 
L 249.624599 79.588356 
L 253.69135 83.209234 
L 260.677126 80.795315 
L 264.734608 82.605754 
L 268.715029 85.019673 
L 271.806531 81.097055 
L 275.785681 82.907494 
L 278.805938 84.416194 
L 282.863783 84.717934 
L 286.842569 80.493575 
L 289.948065 79.286616 
L 293.927215 80.795315 
L 296.947472 84.416194 
L 301.004409 82.605754 
L 304.983922 80.493575 
L 308.075787 81.097055 
L 312.054209 80.493575 
L 315.073921 81.700535 
L 319.116864 82.002275 
L 323.095468 84.717934 
L 326.201146 82.002275 
L 330.163756 82.002275 
L 334.142542 82.605754 
L 337.240405 84.114454 
L 341.2181 84.717934 
L 344.322688 82.002275 
L 348.302019 80.795315 
L 352.279715 80.493575 
L 355.37685 81.398795 
L 359.353819 82.605754 
L 362.458406 79.286616 
L 366.435375 80.493575 
L 370.412888 84.717934 
L 373.509842 81.398795 
L 377.486266 82.605754 
L 380.590126 84.416194 
L 384.566731 82.605754 
L 388.543336 82.605754 
L 391.639745 84.114454 
L 395.600356 83.812714 
L 398.704217 82.002275 
L 402.680458 80.493575 
L 406.657063 80.493575 
L 409.72512 79.588356 
L 413.701179 82.605754 
L 417.762842 80.795315 
L 420.752565 79.588356 
L 424.72808 82.605754 
L 427.824489 84.114454 
" clip-path="url(#p3a78b3a8e7)" style="fill: none; stroke: #1f77b4; stroke-width: 1.5; stroke-linecap: square"/>
   </g>
   <g id="line2d_16">
    <path d="M 65.101761 287.185398 
L 68.958778 237.096577 
L 72.923751 160.454645 
L 75.964 127.263258 
L 79.894805 99.503188 
L 83.910849 80.493575 
L 86.90966 66.010061 
L 90.844827 63.294402 
L 94.889587 65.406581 
L 97.888943 77.476176 
L 101.909349 82.907494 
L 104.907797 88.640552 
L 108.874951 86.528373 
L 112.918802 85.924893 
L 115.91725 85.924893 
L 119.968916 86.528373 
L 123.934798 94.67535 
L 126.933427 99.804928 
L 130.976733 94.37361 
L 133.975181 97.089269 
L 138.012125 98.296229 
L 141.977826 103.124067 
L 144.97591 102.520587 
L 149.018852 100.408408 
L 152.985098 103.124067 
L 156.068602 104.934506 
L 160.033394 105.236246 
L 163.032023 105.537986 
L 167.060608 106.141466 
L 171.025763 109.460604 
L 174.109268 104.934506 
L 178.074604 103.124067 
L 182.03976 107.348425 
L 185.115449 110.064084 
L 189.080241 107.348425 
L 192.147752 104.029286 
L 196.114179 105.537986 
L 200.078789 109.460604 
L 203.155024 110.064084 
L 207.104549 106.744945 
L 211.154034 107.046685 
L 214.151755 110.969304 
L 218.116546 107.348425 
L 221.192781 104.632766 
L 225.158118 107.348425 
L 229.206331 109.158864 
L 232.204233 108.253645 
L 236.16848 107.348425 
L 240.193066 105.839726 
L 243.190059 108.253645 
L 247.221915 108.253645 
L 251.199065 107.951905 
L 254.226047 107.046685 
L 258.295888 107.951905 
L 261.322143 107.046685 
L 265.385986 109.762344 
L 269.364772 110.064084 
L 272.390118 107.046685 
L 276.458323 107.951905 
L 279.484214 109.762344 
L 283.560053 106.141466 
L 287.537748 107.951905 
L 290.563458 104.331026 
L 294.618395 109.460604 
L 297.630655 109.158864 
L 301.705949 108.253645 
L 305.696003 104.331026 
L 308.721349 107.046685 
L 312.788645 109.762344 
L 315.813991 107.046685 
L 319.888739 108.253645 
L 323.878612 108.555385 
L 326.903958 109.762344 
L 330.970527 109.762344 
L 333.99551 107.046685 
L 338.069167 108.253645 
L 342.058495 106.443205 
L 345.083477 109.762344 
L 349.149683 107.650165 
L 352.174847 107.046685 
L 356.247959 110.064084 
L 360.236923 108.555385 
L 363.261724 104.331026 
L 367.327203 105.537986 
L 370.336555 108.857125 
L 374.409486 107.951905 
L 378.398268 106.443205 
L 381.422705 107.046685 
L 385.488184 105.537986 
L 388.512621 107.046685 
L 392.584825 110.064084 
L 396.573062 108.555385 
L 399.597317 109.762344 
L 403.661887 109.762344 
L 406.686324 104.331026 
L 410.758891 110.064084 
L 414.74622 108.555385 
L 417.770839 107.046685 
L 421.835409 105.537986 
L 424.859301 107.046685 
" clip-path="url(#p3a78b3a8e7)" style="fill: none; stroke: #ff7f0e; stroke-width: 1.5; stroke-linecap: square"/>
   </g>
   <g id="line2d_17">
    <path d="M 65.102307 287.185398 
L 68.908797 236.493097 
L 72.012294 168.299882 
L 75.987809 133.298055 
L 78.992981 105.537986 
L 83.050099 94.97709 
L 86.997443 100.106668 
L 90.071134 107.046685 
L 97.054183 117.004102 
L 101.109303 113.383223 
L 105.086998 112.176263 
L 108.161052 112.478003 
L 112.138566 118.512801 
L 116.085001 121.5302 
L 119.167779 121.22846 
L 123.128754 122.13368 
L 126.202626 123.642379 
L 130.180503 126.961518 
L 134.157472 126.961518 
L 137.239523 126.659778 
L 141.215764 129.073697 
L 144.305085 132.392836 
L 148.281508 129.073697 
L 152.257932 131.185876 
L 155.339074 132.091096 
L 159.299503 132.694576 
L 163.36062 134.505015 
L 166.364702 130.884136 
L 170.340398 131.185876 
L 173.421904 132.091096 
L 177.398509 133.298055 
L 181.459081 132.392836 
L 184.462617 130.884136 
L 188.422138 134.806755 
L 192.475803 132.091096 
L 195.480067 133.599795 
L 199.540275 134.505015 
L 202.512188 132.091096 
L 206.488429 133.298055 
L 210.54155 134.203275 
L 213.529274 135.711974 
L 217.573307 131.789356 
L 221.549003 133.298055 
L 224.552903 133.599795 
L 228.604933 132.091096 
L 231.608288 136.315454 
L 235.668678 134.505015 
L 239.642557 131.185876 
L 242.630099 132.996316 
L 246.681402 134.203275 
L 249.713291 135.108495 
L 253.800579 131.185876 
L 257.803538 134.203275 
L 260.835608 132.392836 
L 264.915809 135.108495 
L 267.947152 135.108495 
L 272.033895 131.185876 
L 276.036854 134.203275 
L 279.068561 135.108495 
L 283.13404 134.505015 
L 286.165383 132.392836 
L 290.251399 133.298055 
L 294.253267 134.203275 
L 297.284974 135.108495 
L 301.363721 132.996316 
L 304.394701 132.392836 
L 308.480717 133.298055 
L 311.511515 135.108495 
L 315.512656 132.091096 
L 319.577408 132.392836 
L 322.576764 133.599795 
L 326.66169 133.298055 
L 329.69158 135.108495 
L 333.691448 132.091096 
L 337.755292 132.392836 
L 340.784999 132.091096 
L 344.869744 133.298055 
L 347.899815 135.108495 
L 351.898775 136.315454 
L 355.975522 132.996316 
L 359.00523 132.091096 
L 363.08852 133.298055 
L 366.118228 135.108495 
L 370.116461 132.091096 
L 374.179577 134.505015 
L 377.209466 132.392836 
L 381.292756 133.298055 
L 384.322101 132.091096 
L 388.320515 134.203275 
L 392.38345 134.505015 
L 395.414067 132.392836 
L 399.49663 133.298055 
L 402.526156 135.108495 
L 406.523298 132.091096 
L 410.585687 132.392836 
L 413.599765 134.203275 
L 417.681965 133.298055 
L 420.711491 132.091096 
L 424.709542 134.203275 
" clip-path="url(#p3a78b3a8e7)" style="fill: none; stroke: #2ca02c; stroke-width: 1.5; stroke-linecap: square"/>
   </g>
   <g id="line2d_18">
    <path d="M 65.102307 287.185398 
L 68.982041 235.286137 
L 72.076996 170.713801 
L 76.069413 133.901535 
L 80.026571 126.056298 
L 83.083359 139.031113 
L 87.056693 145.971131 
L 91.116174 144.764171 
L 94.126799 142.350252 
L 98.083775 143.255472 
L 101.172369 143.255472 
L 105.162241 144.462431 
L 109.236626 147.17809 
L 112.246523 148.08331 
L 116.234942 146.272871 
L 119.322445 148.68679 
L 123.311045 154.721587 
L 127.384521 155.325067 
L 130.378607 155.626807 
L 134.366843 154.721587 
L 138.432322 155.325067 
L 141.426772 158.342466 
L 145.500066 159.549426 
L 148.510145 156.230287 
L 152.498745 156.833767 
L 156.51697 157.738986 
L 159.526686 159.247686 
L 163.598889 157.437246 
L 166.608242 156.230287 
L 170.595388 161.058125 
L 174.660322 159.247686 
L 177.669129 156.230287 
L 181.740969 157.437246 
L 185.712122 160.454645 
L 188.720747 158.945946 
L 192.784408 159.247686 
L 195.793034 158.945946 
L 199.865056 157.437246 
L 203.836208 156.230287 
L 206.845742 161.963345 
L 210.90904 157.135506 
L 213.918211 156.230287 
L 217.973512 161.058125 
L 221.95975 163.170304 
L 224.968738 161.963345 
L 229.032036 155.023327 
L 232.041025 158.945946 
L 236.096145 158.945946 
L 240.081473 158.945946 
L 243.074287 158.342466 
L 247.136676 159.247686 
L 250.175108 157.437246 
L 254.273846 160.454645 
L 258.287709 159.851165 
L 261.32505 157.437246 
L 265.415974 160.152905 
L 268.440775 159.851165 
L 272.538786 158.342466 
L 276.552286 159.851165 
L 279.589809 157.437246 
L 283.680187 160.152905 
L 286.71771 157.437246 
L 290.814994 158.342466 
L 293.852154 160.152905 
L 297.86638 157.738986 
L 301.956031 158.040726 
L 304.992646 160.152905 
L 309.089385 162.265085 
L 312.125999 162.868564 
L 316.122414 155.023327 
L 320.196435 157.437246 
L 323.233231 160.152905 
L 327.329607 160.454645 
L 330.365494 157.437246 
L 334.376631 157.738986 
L 337.490124 160.756385 
L 341.502533 159.851165 
L 345.598545 158.342466 
L 348.634796 157.437246 
L 352.645206 161.661605 
L 355.758699 160.756385 
L 359.768382 159.549426 
L 362.888417 158.342466 
L 366.899918 157.738986 
L 370.909964 159.549426 
L 374.02273 160.756385 
L 378.031868 157.437246 
L 381.151721 158.342466 
L 385.161041 159.549426 
L 389.155639 159.247686 
L 392.269677 158.040726 
L 396.27936 159.549426 
L 399.398487 158.342466 
L 403.407624 161.661605 
L 407.403131 161.359865 
L 410.515715 158.040726 
L 414.511767 159.247686 
L 417.618354 157.738986 
L 421.626764 159.549426 
L 424.661197 157.437246 
" clip-path="url(#p3a78b3a8e7)" style="fill: none; stroke: #d62728; stroke-width: 1.5; stroke-linecap: square"/>
   </g>
   <g id="line2d_19">
    <path d="M 65.101761 287.185398 
L 68.992219 235.286137 
L 72.006296 170.412061 
L 76.085952 151.704189 
L 79.102392 167.696403 
L 83.157148 179.765998 
L 87.157562 178.257299 
L 90.173275 173.12772 
L 94.251295 172.222501 
L 97.251741 169.808582 
L 101.303771 175.54164 
L 105.302731 178.257299 
L 108.317536 176.145119 
L 112.394828 176.145119 
L 115.394002 175.54164 
L 119.478383 178.559038 
L 123.477343 180.369478 
L 126.492511 184.292096 
L 130.569258 180.369478 
L 133.568796 180.972958 
L 137.65245 184.593836 
L 141.650683 184.593836 
L 144.664942 184.292096 
L 148.741144 182.179917 
L 151.756494 184.292096 
L 155.840511 186.706015 
L 159.839289 184.593836 
L 162.837737 183.688617 
L 166.897763 181.878177 
L 169.896211 183.688617 
L 173.962962 184.292096 
L 177.960831 184.593836 
L 180.975273 184.292096 
L 185.050566 184.292096 
L 188.065007 184.292096 
L 192.14757 184.593836 
L 196.144894 184.593836 
L 199.15879 184.292096 
L 203.233538 184.292096 
L 206.247616 184.292096 
L 210.329452 186.706015 
L 214.326413 184.593836 
L 217.339945 184.292096 
L 221.414329 186.404276 
L 224.428044 184.292096 
L 228.509335 184.593836 
L 232.50575 184.292096 
L 235.519101 181.576437 
L 239.593122 186.404276 
L 242.607199 187.007755 
L 246.688127 182.481657 
L 250.713258 183.085137 
L 253.756597 185.197316 
L 257.859152 185.197316 
L 260.902127 182.481657 
L 265.012498 187.309495 
L 268.054746 185.197316 
L 272.05207 184.593836 
L 276.154807 185.197316 
L 279.197964 185.197316 
L 283.306698 183.085137 
L 286.349129 185.197316 
L 290.373715 185.197316 
L 293.477938 184.593836 
L 297.503251 183.085137 
L 301.612531 185.197316 
L 304.654961 185.197316 
L 308.678639 185.197316 
L 311.798674 185.197316 
L 315.809266 184.895576 
L 318.936208 185.499056 
L 322.960612 183.085137 
L 326.983926 185.197316 
L 330.10378 187.912975 
L 334.126912 183.085137 
L 337.224593 184.292096 
L 341.247362 185.197316 
L 345.270494 183.085137 
L 348.389984 187.912975 
L 352.412753 185.197316 
L 355.539513 182.783397 
L 359.532112 184.292096 
L 362.572724 185.197316 
L 366.673462 184.895576 
L 370.69514 183.085137 
L 373.821355 185.197316 
L 377.842488 183.085137 
L 380.883646 185.197316 
L 384.98293 187.007755 
L 388.023906 187.912975 
L 392.131186 183.085137 
L 396.151956 183.085137 
L 399.193295 185.197316 
L 403.291852 184.895576 
L 406.332646 185.197316 
L 410.438291 183.085137 
L 413.479267 185.197316 
L 417.501309 185.197316 
L 421.598957 184.895576 
L 424.627029 187.611235 
" clip-path="url(#p3a78b3a8e7)" style="fill: none; stroke: #9467bd; stroke-width: 1.5; stroke-linecap: square"/>
   </g>
   <g id="line2d_20">
    <path d="M 65.101761 287.185398 
L 69.005305 233.475698 
L 72.027379 179.162518 
L 76.118302 180.671218 
L 80.130893 209.939987 
L 83.236934 219.897403 
L 87.280967 204.206929 
L 94.39033 207.224328 
L 97.411133 203.905189 
L 101.508417 201.18953 
L 105.519372 201.49127 
L 108.524181 203.603449 
L 112.611833 205.112148 
L 115.631726 206.620848 
L 119.726467 205.413888 
L 123.721246 211.750426 
L 126.742048 209.638247 
L 130.829519 205.112148 
L 133.834146 212.052166 
L 137.929067 211.448686 
L 140.948779 209.638247 
L 144.960098 209.939987 
L 149.047023 209.336507 
L 152.067098 209.638247 
L 156.161656 211.448686 
L 159.18155 209.638247 
L 163.190324 207.827807 
L 167.276159 211.448686 
L 170.296052 212.353906 
L 174.389702 209.336507 
L 177.393602 206.319108 
L 181.402921 209.939987 
L 185.473125 212.957386 
L 188.492656 209.638247 
L 192.585942 211.448686 
L 195.590387 209.034767 
L 199.582622 211.750426 
L 203.667911 209.336507 
L 206.687805 209.638247 
L 210.764189 209.034767 
L 213.767361 211.750426 
L 217.774682 212.052166 
L 221.859244 205.112148 
L 224.878047 209.638247 
L 228.970606 213.560865 
L 231.989591 212.353906 
L 235.996002 209.939987 
L 239.092229 208.733027 
L 243.099913 212.052166 
L 247.192109 209.336507 
L 250.239809 207.526068 
L 254.275664 212.353906 
L 257.401515 212.052166 
L 261.391388 209.638247 
L 265.497941 209.638247 
L 268.545824 212.957386 
L 272.580951 210.241727 
L 275.706439 209.336507 
L 279.741021 208.431287 
L 282.87287 212.353906 
L 286.908543 210.543466 
L 290.942398 208.129547 
L 294.066978 212.052166 
L 298.100651 210.241727 
L 301.232682 209.638247 
L 305.266719 210.241727 
L 308.314056 210.241727 
L 312.426971 211.750426 
L 315.47449 212.957386 
L 319.594492 209.939987 
L 323.628166 210.241727 
L 326.662781 212.655646 
L 330.773514 207.827807 
L 333.820306 207.526068 
L 337.938128 212.052166 
L 340.968927 212.655646 
L 345.003509 208.431287 
L 349.114424 209.638247 
L 352.160671 212.957386 
L 356.26468 209.638247 
L 359.310563 210.241727 
L 363.342601 208.129547 
L 370.486859 212.353906 
L 373.618163 209.638247 
L 377.651836 210.241727 
L 381.684419 210.241727 
L 384.807908 212.052166 
L 388.839582 208.129547 
L 391.970523 209.638247 
L 396.001833 212.353906 
L 399.047898 210.241727 
L 403.157905 209.638247 
L 407.189216 208.129547 
L 410.320338 212.353906 
L 414.350922 210.241727 
L 417.383719 212.655646 
L 421.492272 209.638247 
L 424.537428 210.241727 
" clip-path="url(#p3a78b3a8e7)" style="fill: none; stroke: #8c564b; stroke-width: 1.5; stroke-linecap: square"/>
   </g>
   <g id="line2d_21">
    <path d="M 65.104488 287.185398 
L 69.059283 244.640074 
L 72.170413 209.034767 
L 76.193727 228.9496 
L 79.221072 243.131374 
L 83.322173 230.156559 
L 87.361663 222.914802 
L 90.48915 228.34612 
L 94.543361 237.700056 
L 97.602693 235.286137 
L 101.718152 230.156559 
L 104.71242 228.34612 
L 108.820064 232.268738 
L 111.845773 234.682657 
L 115.852003 237.096577 
L 119.950923 231.966998 
L 122.961366 234.380918 
L 127.067192 234.079178 
L 130.062187 236.794837 
L 134.084228 239.208756 
L 138.166791 235.889617 
L 141.176871 231.665259 
L 145.28197 238.303536 
L 148.307316 237.398316 
L 152.311001 232.872218 
L 156.408468 234.079178 
L 159.434177 237.398316 
L 163.539095 236.191357 
L 166.564441 234.682657 
L 170.58412 237.096577 
L 173.687435 235.889617 
L 177.708204 235.286137 
L 181.812759 236.191357 
L 184.822293 234.380918 
L 188.841245 237.096577 
L 191.944378 238.605276 
L 195.962966 234.984397 
L 200.050618 234.079178 
L 203.075601 237.398316 
L 207.06202 236.794837 
L 210.164972 233.173958 
L 214.183378 237.096577 
L 217.293054 236.191357 
L 221.296558 234.984397 
L 225.314601 237.096577 
L 228.417371 235.889617 
L 232.434505 234.984397 
L 235.527824 235.889617 
L 239.545504 237.096577 
L 243.563366 234.984397 
L 246.665772 235.889617 
L 250.711804 237.700056 
L 253.849651 236.493097 
L 257.896228 235.587877 
L 260.9492 238.001796 
L 265.044667 236.191357 
L 269.090699 233.475698 
L 272.215823 236.191357 
L 276.261128 235.587877 
L 279.313918 234.984397 
L 283.436829 238.605276 
L 286.474897 234.984397 
L 290.60635 236.493097 
L 293.659139 234.984397 
L 297.705353 237.700056 
L 301.8279 234.380918 
L 304.880145 238.001796 
L 308.997058 234.380918 
L 312.050756 234.984397 
L 316.095516 235.587877 
L 319.225729 239.208756 
L 323.271943 235.587877 
L 326.409063 233.777438 
L 330.45455 237.700056 
L 334.484043 235.286137 
L 337.614438 236.493097 
L 341.658471 235.587877 
L 344.795773 236.493097 
L 348.839442 237.398316 
L 351.891323 234.984397 
L 356.00133 236.191357 
L 359.053756 234.984397 
L 363.18321 238.605276 
L 367.226697 235.587877 
L 370.234596 237.096577 
L 374.355325 234.380918 
L 377.406661 234.984397 
L 381.535206 236.493097 
L 384.587087 237.700056 
L 388.630938 233.475698 
L 391.760061 236.493097 
L 395.804094 237.398316 
L 399.931185 234.380918 
L 402.982884 234.984397 
L 407.024736 237.398316 
L 410.153859 236.493097 
L 414.180444 235.286137 
L 417.303387 236.191357 
L 421.34633 235.587877 
L 425.388182 235.286137 
" clip-path="url(#p3a78b3a8e7)" style="fill: none; stroke: #e377c2; stroke-width: 1.5; stroke-linecap: square"/>
   </g>
   <g id="line2d_22">
    <path d="M 65.123207 287.185398 
L 69.010757 265.761866 
L 72.131701 244.338334 
L 76.153379 264.253166 
L 80.151612 268.477525 
L 83.225848 254.59749 
L 87.276969 252.183571 
L 90.427356 257.916629 
L 94.458122 262.442727 
L 98.488342 258.218369 
L 101.595292 260.330548 
L 105.642414 260.330548 
L 108.755725 257.614889 
L 112.784855 260.330548 
L 115.813654 262.442727 
L 119.922934 260.934028 
L 123.920985 260.028808 
L 127.018484 260.330548 
L 131.047432 262.442727 
L 134.075504 262.442727 
L 138.181876 262.744467 
L 141.177598 259.425328 
L 145.259615 262.744467 
L 149.255304 262.140987 
L 152.25048 262.140987 
L 156.322684 258.520108 
L 159.318768 262.140987 
L 163.384247 260.632288 
L 167.379754 262.140987 
L 170.375112 262.140987 
L 174.447134 260.632288 
L 178.44264 262.140987 
L 181.507243 262.744467 
L 185.486211 262.140987 
L 188.465939 259.123588 
L 192.539233 262.744467 
L 196.533831 262.140987 
L 199.614609 260.028808 
L 203.593032 262.140987 
L 206.588208 264.856646 
L 210.66023 260.632288 
L 214.654101 257.916629 
L 217.733789 265.460126 
L 221.727115 262.140987 
L 225.720986 257.916629 
L 228.792677 260.028808 
L 232.785639 264.253166 
L 235.84897 265.460126 
L 239.843386 257.916629 
L 243.8209 262.140987 
L 246.892591 265.460126 
L 250.885372 262.140987 
L 253.994139 257.614889 
L 258.002186 264.253166 
L 262.02441 264.253166 
L 265.125362 257.614889 
L 269.14704 260.330548 
L 272.242722 263.046207 
L 276.264763 262.442727 
L 279.288474 262.442727 
L 283.388666 260.632288 
L 287.410889 262.442727 
L 290.519475 260.330548 
L 294.527159 264.253166 
L 297.534512 259.425328 
L 301.632887 262.744467 
L 305.653293 262.140987 
L 308.761878 260.330548 
L 312.782648 260.330548 
L 315.805631 262.442727 
L 319.888558 262.744467 
L 322.911177 259.425328 
L 327.017549 262.744467 
L 331.038137 262.140987 
L 334.061483 262.442727 
L 338.159132 260.632288 
L 341.182296 262.442727 
L 345.286851 260.632288 
L 349.307439 262.140987 
L 352.31461 259.425328 
L 356.411713 262.744467 
L 359.433969 265.158386 
L 363.525074 258.520108 
L 366.533518 259.425328 
L 370.55356 266.365346 
L 374.634851 260.632288 
L 377.656925 256.709669 
L 381.76257 262.744467 
L 384.783918 265.158386 
L 388.802324 260.330548 
L 392.8987 260.632288 
L 395.920956 265.158386 
L 400.024239 260.632288 
L 403.032137 256.709669 
L 407.067991 262.442727 
L 410.153313 265.460126 
L 414.172629 262.140987 
L 418.275729 258.821848 
L 421.297622 262.442727 
L 425.332386 262.442727 
" clip-path="url(#p3a78b3a8e7)" style="fill: none; stroke: #7f7f7f; stroke-width: 1.5; stroke-linecap: square"/>
   </g>
   <g id="patch_3">
    <path d="M 46.965625 299.798125 
L 46.965625 22.318125 
" style="fill: none; stroke: #000000; stroke-width: 0.8; stroke-linejoin: miter; stroke-linecap: square"/>
   </g>
   <g id="patch_4">
    <path d="M 445.960625 299.798125 
L 445.960625 22.318125 
" style="fill: none; stroke: #000000; stroke-width: 0.8; stroke-linejoin: miter; stroke-linecap: square"/>
   </g>
   <g id="patch_5">
    <path d="M 46.965625 299.798125 
L 445.960625 299.798125 
" style="fill: none; stroke: #000000; stroke-width: 0.8; stroke-linejoin: miter; stroke-linecap: square"/>
   </g>
   <g id="patch_6">
    <path d="M 46.965625 22.318125 
L 445.960625 22.318125 
" style="fill: none; stroke: #000000; stroke-width: 0.8; stroke-linejoin: miter; stroke-linecap: square"/>
   </g>
   <g id="text_18">
    <!-- left velocity vs. time -->
    <g transform="translate(185.434688 16.318125) scale(0.12 -0.12)">
     <use xlink:href="#DejaVuSans-6c"/>
     <use xlink:href="#DejaVuSans-65" transform="translate(27.783203 0)"/>
     <use xlink:href="#DejaVuSans-66" transform="translate(89.306641 0)"/>
     <use xlink:href="#DejaVuSans-74" transform="translate(122.761719 0)"/>
     <use xlink:href="#DejaVuSans-20" transform="translate(161.970703 0)"/>
     <use xlink:href="#DejaVuSans-76" transform="translate(193.757812 0)"/>
     <use xlink:href="#DejaVuSans-65" transform="translate(252.9375 0)"/>
     <use xlink:href="#DejaVuSans-6c" transform="translate(314.460938 0)"/>
     <use xlink:href="#DejaVuSans-6f" transform="translate(342.244141 0)"/>
     <use xlink:href="#DejaVuSans-63" transform="translate(403.425781 0)"/>
     <use xlink:href="#DejaVuSans-69" transform="translate(458.40625 0)"/>
     <use xlink:href="#DejaVuSans-74" transform="translate(486.189453 0)"/>
     <use xlink:href="#DejaVuSans-79" transform="translate(525.398438 0)"/>
     <use xlink:href="#DejaVuSans-20" transform="translate(584.578125 0)"/>
     <use xlink:href="#DejaVuSans-76" transform="translate(616.365234 0)"/>
     <use xlink:href="#DejaVuSans-73" transform="translate(675.544922 0)"/>
     <use xlink:href="#DejaVuSans-2e" transform="translate(727.644531 0)"/>
     <use xlink:href="#DejaVuSans-20" transform="translate(759.431641 0)"/>
     <use xlink:href="#DejaVuSans-74" transform="translate(791.21875 0)"/>
     <use xlink:href="#DejaVuSans-69" transform="translate(830.427734 0)"/>
     <use xlink:href="#DejaVuSans-6d" transform="translate(858.210938 0)"/>
     <use xlink:href="#DejaVuSans-65" transform="translate(955.623047 0)"/>
    </g>
   </g>
   <g id="legend_1">
    <g id="patch_7">
     <path d="M 322.435625 294.798125 
L 438.960625 294.798125 
Q 440.960625 294.798125 440.960625 292.798125 
L 440.960625 176.373125 
Q 440.960625 174.373125 438.960625 174.373125 
L 322.435625 174.373125 
Q 320.435625 174.373125 320.435625 176.373125 
L 320.435625 292.798125 
Q 320.435625 294.798125 322.435625 294.798125 
z
" style="fill: #ffffff; opacity: 0.8; stroke: #cccccc; stroke-linejoin: miter"/>
    </g>
    <g id="line2d_23">
     <path d="M 324.435625 182.471563 
L 334.435625 182.471563 
L 344.435625 182.471563 
" style="fill: none; stroke: #1f77b4; stroke-width: 1.5; stroke-linecap: square"/>
    </g>
    <g id="text_19">
     <!-- Ref Speed = 680 -->
     <g transform="translate(352.435625 185.971563) scale(0.1 -0.1)">
      <defs>
       <path id="DejaVuSans-52" d="M 2841 2188 
Q 3044 2119 3236 1894 
Q 3428 1669 3622 1275 
L 4263 0 
L 3584 0 
L 2988 1197 
Q 2756 1666 2539 1819 
Q 2322 1972 1947 1972 
L 1259 1972 
L 1259 0 
L 628 0 
L 628 4666 
L 2053 4666 
Q 2853 4666 3247 4331 
Q 3641 3997 3641 3322 
Q 3641 2881 3436 2590 
Q 3231 2300 2841 2188 
z
M 1259 4147 
L 1259 2491 
L 2053 2491 
Q 2509 2491 2742 2702 
Q 2975 2913 2975 3322 
Q 2975 3731 2742 3939 
Q 2509 4147 2053 4147 
L 1259 4147 
z
" transform="scale(0.015625)"/>
       <path id="DejaVuSans-53" d="M 3425 4513 
L 3425 3897 
Q 3066 4069 2747 4153 
Q 2428 4238 2131 4238 
Q 1616 4238 1336 4038 
Q 1056 3838 1056 3469 
Q 1056 3159 1242 3001 
Q 1428 2844 1947 2747 
L 2328 2669 
Q 3034 2534 3370 2195 
Q 3706 1856 3706 1288 
Q 3706 609 3251 259 
Q 2797 -91 1919 -91 
Q 1588 -91 1214 -16 
Q 841 59 441 206 
L 441 856 
Q 825 641 1194 531 
Q 1563 422 1919 422 
Q 2459 422 2753 634 
Q 3047 847 3047 1241 
Q 3047 1584 2836 1778 
Q 2625 1972 2144 2069 
L 1759 2144 
Q 1053 2284 737 2584 
Q 422 2884 422 3419 
Q 422 4038 858 4394 
Q 1294 4750 2059 4750 
Q 2388 4750 2728 4690 
Q 3069 4631 3425 4513 
z
" transform="scale(0.015625)"/>
       <path id="DejaVuSans-70" d="M 1159 525 
L 1159 -1331 
L 581 -1331 
L 581 3500 
L 1159 3500 
L 1159 2969 
Q 1341 3281 1617 3432 
Q 1894 3584 2278 3584 
Q 2916 3584 3314 3078 
Q 3713 2572 3713 1747 
Q 3713 922 3314 415 
Q 2916 -91 2278 -91 
Q 1894 -91 1617 61 
Q 1341 213 1159 525 
z
M 3116 1747 
Q 3116 2381 2855 2742 
Q 2594 3103 2138 3103 
Q 1681 3103 1420 2742 
Q 1159 2381 1159 1747 
Q 1159 1113 1420 752 
Q 1681 391 2138 391 
Q 2594 391 2855 752 
Q 3116 1113 3116 1747 
z
" transform="scale(0.015625)"/>
       <path id="DejaVuSans-64" d="M 2906 2969 
L 2906 4863 
L 3481 4863 
L 3481 0 
L 2906 0 
L 2906 525 
Q 2725 213 2448 61 
Q 2172 -91 1784 -91 
Q 1150 -91 751 415 
Q 353 922 353 1747 
Q 353 2572 751 3078 
Q 1150 3584 1784 3584 
Q 2172 3584 2448 3432 
Q 2725 3281 2906 2969 
z
M 947 1747 
Q 947 1113 1208 752 
Q 1469 391 1925 391 
Q 2381 391 2643 752 
Q 2906 1113 2906 1747 
Q 2906 2381 2643 2742 
Q 2381 3103 1925 3103 
Q 1469 3103 1208 2742 
Q 947 2381 947 1747 
z
" transform="scale(0.015625)"/>
       <path id="DejaVuSans-3d" d="M 678 2906 
L 4684 2906 
L 4684 2381 
L 678 2381 
L 678 2906 
z
M 678 1631 
L 4684 1631 
L 4684 1100 
L 678 1100 
L 678 1631 
z
" transform="scale(0.015625)"/>
      </defs>
      <use xlink:href="#DejaVuSans-52"/>
      <use xlink:href="#DejaVuSans-65" transform="translate(64.982422 0)"/>
      <use xlink:href="#DejaVuSans-66" transform="translate(126.505859 0)"/>
      <use xlink:href="#DejaVuSans-20" transform="translate(161.710938 0)"/>
      <use xlink:href="#DejaVuSans-53" transform="translate(193.498047 0)"/>
      <use xlink:href="#DejaVuSans-70" transform="translate(256.974609 0)"/>
      <use xlink:href="#DejaVuSans-65" transform="translate(320.451172 0)"/>
      <use xlink:href="#DejaVuSans-65" transform="translate(381.974609 0)"/>
      <use xlink:href="#DejaVuSans-64" transform="translate(443.498047 0)"/>
      <use xlink:href="#DejaVuSans-20" transform="translate(506.974609 0)"/>
      <use xlink:href="#DejaVuSans-3d" transform="translate(538.761719 0)"/>
      <use xlink:href="#DejaVuSans-20" transform="translate(622.550781 0)"/>
      <use xlink:href="#DejaVuSans-36" transform="translate(654.337891 0)"/>
      <use xlink:href="#DejaVuSans-38" transform="translate(717.960938 0)"/>
      <use xlink:href="#DejaVuSans-30" transform="translate(781.583984 0)"/>
     </g>
    </g>
    <g id="line2d_24">
     <path d="M 324.435625 197.149688 
L 334.435625 197.149688 
L 344.435625 197.149688 
" style="fill: none; stroke: #ff7f0e; stroke-width: 1.5; stroke-linecap: square"/>
    </g>
    <g id="text_20">
     <!-- Ref Speed = 595 -->
     <g transform="translate(352.435625 200.649688) scale(0.1 -0.1)">
      <defs>
       <path id="DejaVuSans-39" d="M 703 97 
L 703 672 
Q 941 559 1184 500 
Q 1428 441 1663 441 
Q 2288 441 2617 861 
Q 2947 1281 2994 2138 
Q 2813 1869 2534 1725 
Q 2256 1581 1919 1581 
Q 1219 1581 811 2004 
Q 403 2428 403 3163 
Q 403 3881 828 4315 
Q 1253 4750 1959 4750 
Q 2769 4750 3195 4129 
Q 3622 3509 3622 2328 
Q 3622 1225 3098 567 
Q 2575 -91 1691 -91 
Q 1453 -91 1209 -44 
Q 966 3 703 97 
z
M 1959 2075 
Q 2384 2075 2632 2365 
Q 2881 2656 2881 3163 
Q 2881 3666 2632 3958 
Q 2384 4250 1959 4250 
Q 1534 4250 1286 3958 
Q 1038 3666 1038 3163 
Q 1038 2656 1286 2365 
Q 1534 2075 1959 2075 
z
" transform="scale(0.015625)"/>
      </defs>
      <use xlink:href="#DejaVuSans-52"/>
      <use xlink:href="#DejaVuSans-65" transform="translate(64.982422 0)"/>
      <use xlink:href="#DejaVuSans-66" transform="translate(126.505859 0)"/>
      <use xlink:href="#DejaVuSans-20" transform="translate(161.710938 0)"/>
      <use xlink:href="#DejaVuSans-53" transform="translate(193.498047 0)"/>
      <use xlink:href="#DejaVuSans-70" transform="translate(256.974609 0)"/>
      <use xlink:href="#DejaVuSans-65" transform="translate(320.451172 0)"/>
      <use xlink:href="#DejaVuSans-65" transform="translate(381.974609 0)"/>
      <use xlink:href="#DejaVuSans-64" transform="translate(443.498047 0)"/>
      <use xlink:href="#DejaVuSans-20" transform="translate(506.974609 0)"/>
      <use xlink:href="#DejaVuSans-3d" transform="translate(538.761719 0)"/>
      <use xlink:href="#DejaVuSans-20" transform="translate(622.550781 0)"/>
      <use xlink:href="#DejaVuSans-35" transform="translate(654.337891 0)"/>
      <use xlink:href="#DejaVuSans-39" transform="translate(717.960938 0)"/>
      <use xlink:href="#DejaVuSans-35" transform="translate(781.583984 0)"/>
     </g>
    </g>
    <g id="line2d_25">
     <path d="M 324.435625 211.827813 
L 334.435625 211.827813 
L 344.435625 211.827813 
" style="fill: none; stroke: #2ca02c; stroke-width: 1.5; stroke-linecap: square"/>
    </g>
    <g id="text_21">
     <!-- Ref Speed = 510 -->
     <g transform="translate(352.435625 215.327813) scale(0.1 -0.1)">
      <use xlink:href="#DejaVuSans-52"/>
      <use xlink:href="#DejaVuSans-65" transform="translate(64.982422 0)"/>
      <use xlink:href="#DejaVuSans-66" transform="translate(126.505859 0)"/>
      <use xlink:href="#DejaVuSans-20" transform="translate(161.710938 0)"/>
      <use xlink:href="#DejaVuSans-53" transform="translate(193.498047 0)"/>
      <use xlink:href="#DejaVuSans-70" transform="translate(256.974609 0)"/>
      <use xlink:href="#DejaVuSans-65" transform="translate(320.451172 0)"/>
      <use xlink:href="#DejaVuSans-65" transform="translate(381.974609 0)"/>
      <use xlink:href="#DejaVuSans-64" transform="translate(443.498047 0)"/>
      <use xlink:href="#DejaVuSans-20" transform="translate(506.974609 0)"/>
      <use xlink:href="#DejaVuSans-3d" transform="translate(538.761719 0)"/>
      <use xlink:href="#DejaVuSans-20" transform="translate(622.550781 0)"/>
      <use xlink:href="#DejaVuSans-35" transform="translate(654.337891 0)"/>
      <use xlink:href="#DejaVuSans-31" transform="translate(717.960938 0)"/>
      <use xlink:href="#DejaVuSans-30" transform="translate(781.583984 0)"/>
     </g>
    </g>
    <g id="line2d_26">
     <path d="M 324.435625 226.505938 
L 334.435625 226.505938 
L 344.435625 226.505938 
" style="fill: none; stroke: #d62728; stroke-width: 1.5; stroke-linecap: square"/>
    </g>
    <g id="text_22">
     <!-- Ref Speed = 425 -->
     <g transform="translate(352.435625 230.005938) scale(0.1 -0.1)">
      <use xlink:href="#DejaVuSans-52"/>
      <use xlink:href="#DejaVuSans-65" transform="translate(64.982422 0)"/>
      <use xlink:href="#DejaVuSans-66" transform="translate(126.505859 0)"/>
      <use xlink:href="#DejaVuSans-20" transform="translate(161.710938 0)"/>
      <use xlink:href="#DejaVuSans-53" transform="translate(193.498047 0)"/>
      <use xlink:href="#DejaVuSans-70" transform="translate(256.974609 0)"/>
      <use xlink:href="#DejaVuSans-65" transform="translate(320.451172 0)"/>
      <use xlink:href="#DejaVuSans-65" transform="translate(381.974609 0)"/>
      <use xlink:href="#DejaVuSans-64" transform="translate(443.498047 0)"/>
      <use xlink:href="#DejaVuSans-20" transform="translate(506.974609 0)"/>
      <use xlink:href="#DejaVuSans-3d" transform="translate(538.761719 0)"/>
      <use xlink:href="#DejaVuSans-20" transform="translate(622.550781 0)"/>
      <use xlink:href="#DejaVuSans-34" transform="translate(654.337891 0)"/>
      <use xlink:href="#DejaVuSans-32" transform="translate(717.960938 0)"/>
      <use xlink:href="#DejaVuSans-35" transform="translate(781.583984 0)"/>
     </g>
    </g>
    <g id="line2d_27">
     <path d="M 324.435625 241.184063 
L 334.435625 241.184063 
L 344.435625 241.184063 
" style="fill: none; stroke: #9467bd; stroke-width: 1.5; stroke-linecap: square"/>
    </g>
    <g id="text_23">
     <!-- Ref Speed = 340 -->
     <g transform="translate(352.435625 244.684063) scale(0.1 -0.1)">
      <defs>
       <path id="DejaVuSans-33" d="M 2597 2516 
Q 3050 2419 3304 2112 
Q 3559 1806 3559 1356 
Q 3559 666 3084 287 
Q 2609 -91 1734 -91 
Q 1441 -91 1130 -33 
Q 819 25 488 141 
L 488 750 
Q 750 597 1062 519 
Q 1375 441 1716 441 
Q 2309 441 2620 675 
Q 2931 909 2931 1356 
Q 2931 1769 2642 2001 
Q 2353 2234 1838 2234 
L 1294 2234 
L 1294 2753 
L 1863 2753 
Q 2328 2753 2575 2939 
Q 2822 3125 2822 3475 
Q 2822 3834 2567 4026 
Q 2313 4219 1838 4219 
Q 1578 4219 1281 4162 
Q 984 4106 628 3988 
L 628 4550 
Q 988 4650 1302 4700 
Q 1616 4750 1894 4750 
Q 2613 4750 3031 4423 
Q 3450 4097 3450 3541 
Q 3450 3153 3228 2886 
Q 3006 2619 2597 2516 
z
" transform="scale(0.015625)"/>
      </defs>
      <use xlink:href="#DejaVuSans-52"/>
      <use xlink:href="#DejaVuSans-65" transform="translate(64.982422 0)"/>
      <use xlink:href="#DejaVuSans-66" transform="translate(126.505859 0)"/>
      <use xlink:href="#DejaVuSans-20" transform="translate(161.710938 0)"/>
      <use xlink:href="#DejaVuSans-53" transform="translate(193.498047 0)"/>
      <use xlink:href="#DejaVuSans-70" transform="translate(256.974609 0)"/>
      <use xlink:href="#DejaVuSans-65" transform="translate(320.451172 0)"/>
      <use xlink:href="#DejaVuSans-65" transform="translate(381.974609 0)"/>
      <use xlink:href="#DejaVuSans-64" transform="translate(443.498047 0)"/>
      <use xlink:href="#DejaVuSans-20" transform="translate(506.974609 0)"/>
      <use xlink:href="#DejaVuSans-3d" transform="translate(538.761719 0)"/>
      <use xlink:href="#DejaVuSans-20" transform="translate(622.550781 0)"/>
      <use xlink:href="#DejaVuSans-33" transform="translate(654.337891 0)"/>
      <use xlink:href="#DejaVuSans-34" transform="translate(717.960938 0)"/>
      <use xlink:href="#DejaVuSans-30" transform="translate(781.583984 0)"/>
     </g>
    </g>
    <g id="line2d_28">
     <path d="M 324.435625 255.862188 
L 334.435625 255.862188 
L 344.435625 255.862188 
" style="fill: none; stroke: #8c564b; stroke-width: 1.5; stroke-linecap: square"/>
    </g>
    <g id="text_24">
     <!-- Ref Speed = 255 -->
     <g transform="translate(352.435625 259.362188) scale(0.1 -0.1)">
      <use xlink:href="#DejaVuSans-52"/>
      <use xlink:href="#DejaVuSans-65" transform="translate(64.982422 0)"/>
      <use xlink:href="#DejaVuSans-66" transform="translate(126.505859 0)"/>
      <use xlink:href="#DejaVuSans-20" transform="translate(161.710938 0)"/>
      <use xlink:href="#DejaVuSans-53" transform="translate(193.498047 0)"/>
      <use xlink:href="#DejaVuSans-70" transform="translate(256.974609 0)"/>
      <use xlink:href="#DejaVuSans-65" transform="translate(320.451172 0)"/>
      <use xlink:href="#DejaVuSans-65" transform="translate(381.974609 0)"/>
      <use xlink:href="#DejaVuSans-64" transform="translate(443.498047 0)"/>
      <use xlink:href="#DejaVuSans-20" transform="translate(506.974609 0)"/>
      <use xlink:href="#DejaVuSans-3d" transform="translate(538.761719 0)"/>
      <use xlink:href="#DejaVuSans-20" transform="translate(622.550781 0)"/>
      <use xlink:href="#DejaVuSans-32" transform="translate(654.337891 0)"/>
      <use xlink:href="#DejaVuSans-35" transform="translate(717.960938 0)"/>
      <use xlink:href="#DejaVuSans-35" transform="translate(781.583984 0)"/>
     </g>
    </g>
    <g id="line2d_29">
     <path d="M 324.435625 270.540313 
L 334.435625 270.540313 
L 344.435625 270.540313 
" style="fill: none; stroke: #e377c2; stroke-width: 1.5; stroke-linecap: square"/>
    </g>
    <g id="text_25">
     <!-- Ref Speed = 170 -->
     <g transform="translate(352.435625 274.040313) scale(0.1 -0.1)">
      <use xlink:href="#DejaVuSans-52"/>
      <use xlink:href="#DejaVuSans-65" transform="translate(64.982422 0)"/>
      <use xlink:href="#DejaVuSans-66" transform="translate(126.505859 0)"/>
      <use xlink:href="#DejaVuSans-20" transform="translate(161.710938 0)"/>
      <use xlink:href="#DejaVuSans-53" transform="translate(193.498047 0)"/>
      <use xlink:href="#DejaVuSans-70" transform="translate(256.974609 0)"/>
      <use xlink:href="#DejaVuSans-65" transform="translate(320.451172 0)"/>
      <use xlink:href="#DejaVuSans-65" transform="translate(381.974609 0)"/>
      <use xlink:href="#DejaVuSans-64" transform="translate(443.498047 0)"/>
      <use xlink:href="#DejaVuSans-20" transform="translate(506.974609 0)"/>
      <use xlink:href="#DejaVuSans-3d" transform="translate(538.761719 0)"/>
      <use xlink:href="#DejaVuSans-20" transform="translate(622.550781 0)"/>
      <use xlink:href="#DejaVuSans-31" transform="translate(654.337891 0)"/>
      <use xlink:href="#DejaVuSans-37" transform="translate(717.960938 0)"/>
      <use xlink:href="#DejaVuSans-30" transform="translate(781.583984 0)"/>
     </g>
    </g>
    <g id="line2d_30">
     <path d="M 324.435625 285.218438 
L 334.435625 285.218438 
L 344.435625 285.218438 
" style="fill: none; stroke: #7f7f7f; stroke-width: 1.5; stroke-linecap: square"/>
    </g>
    <g id="text_26">
     <!-- Ref Speed = 85 -->
     <g transform="translate(352.435625 288.718438) scale(0.1 -0.1)">
      <use xlink:href="#DejaVuSans-52"/>
      <use xlink:href="#DejaVuSans-65" transform="translate(64.982422 0)"/>
      <use xlink:href="#DejaVuSans-66" transform="translate(126.505859 0)"/>
      <use xlink:href="#DejaVuSans-20" transform="translate(161.710938 0)"/>
      <use xlink:href="#DejaVuSans-53" transform="translate(193.498047 0)"/>
      <use xlink:href="#DejaVuSans-70" transform="translate(256.974609 0)"/>
      <use xlink:href="#DejaVuSans-65" transform="translate(320.451172 0)"/>
      <use xlink:href="#DejaVuSans-65" transform="translate(381.974609 0)"/>
      <use xlink:href="#DejaVuSans-64" transform="translate(443.498047 0)"/>
      <use xlink:href="#DejaVuSans-20" transform="translate(506.974609 0)"/>
      <use xlink:href="#DejaVuSans-3d" transform="translate(538.761719 0)"/>
      <use xlink:href="#DejaVuSans-20" transform="translate(622.550781 0)"/>
      <use xlink:href="#DejaVuSans-38" transform="translate(654.337891 0)"/>
      <use xlink:href="#DejaVuSans-35" transform="translate(717.960938 0)"/>
     </g>
    </g>
   </g>
  </g>
 </g>
 <defs>
  <clipPath id="p3a78b3a8e7">
   <rect x="46.965625" y="22.318125" width="398.995" height="277.48"/>
  </clipPath>
 </defs>
</svg>
