<?xml version="1.0" encoding="utf-8" standalone="no"?>
<!DOCTYPE svg PUBLIC "-//W3C//DTD SVG 1.1//EN"
  "http://www.w3.org/Graphics/SVG/1.1/DTD/svg11.dtd">
<svg xmlns:xlink="http://www.w3.org/1999/xlink" width="453.143125pt" height="337.354375pt" viewBox="0 0 453.143125 337.354375" xmlns="http://www.w3.org/2000/svg" version="1.1">
 <metadata>
  <rdf:RDF xmlns:dc="http://purl.org/dc/elements/1.1/" xmlns:cc="http://creativecommons.org/ns#" xmlns:rdf="http://www.w3.org/1999/02/22-rdf-syntax-ns#">
   <cc:Work>
    <dc:type rdf:resource="http://purl.org/dc/dcmitype/StillImage"/>
    <dc:date>2025-10-29T19:57:20.753121</dc:date>
    <dc:format>image/svg+xml</dc:format>
    <dc:creator>
     <cc:Agent>
      <dc:title>Matplotlib v3.10.6, https://matplotlib.org/</dc:title>
     </cc:Agent>
    </dc:creator>
   </cc:Work>
  </rdf:RDF>
 </metadata>
 <defs>
  <style type="text/css">*{stroke-linejoin: round; stroke-linecap: butt}</style>
 </defs>
 <g id="figure_1">
  <g id="patch_1">
   <path d="M 0 337.354375 
L 453.143125 337.354375 
L 453.143125 0 
L 0 0 
z
" style="fill: #ffffff"/>
  </g>
  <g id="axes_1">
   <g id="patch_2">
    <path d="M 40.603125 299.798125 
L 445.943125 299.798125 
L 445.943125 22.318125 
L 40.603125 22.318125 
z
" style="fill: #ffffff"/>
   </g>
   <g id="matplotlib.axis_1">
    <g id="xtick_1">
     <g id="line2d_1">
      <defs>
       <path id="ma627d1001a" d="M 0 0 
L 0 3.5 
" style="stroke: #000000; stroke-width: 0.8"/>
      </defs>
      <g>
       <use xlink:href="#ma627d1001a" x="58.816077" y="299.798125" style="stroke: #000000; stroke-width: 0.8"/>
      </g>
     </g>
     <g id="text_1">
      <!-- 0.00 -->
      <g transform="translate(47.683265 314.396563) scale(0.1 -0.1)">
       <defs>
        <path id="DejaVuSans-30" d="M 2034 4250 
Q 1547 4250 1301 3770 
Q 1056 3291 1056 2328 
Q 1056 1369 1301 889 
Q 1547 409 2034 409 
Q 2525 409 2770 889 
Q 3016 1369 3016 2328 
Q 3016 3291 2770 3770 
Q 2525 4250 2034 4250 
z
M 2034 4750 
Q 2819 4750 3233 4129 
Q 3647 3509 3647 2328 
Q 3647 1150 3233 529 
Q 2819 -91 2034 -91 
Q 1250 -91 836 529 
Q 422 1150 422 2328 
Q 422 3509 836 4129 
Q 1250 4750 2034 4750 
z
" transform="scale(0.015625)"/>
        <path id="DejaVuSans-2e" d="M 684 794 
L 1344 794 
L 1344 0 
L 684 0 
L 684 794 
z
" transform="scale(0.015625)"/>
       </defs>
       <use xlink:href="#DejaVuSans-30"/>
       <use xlink:href="#DejaVuSans-2e" transform="translate(63.623047 0)"/>
       <use xlink:href="#DejaVuSans-30" transform="translate(95.410156 0)"/>
       <use xlink:href="#DejaVuSans-30" transform="translate(159.033203 0)"/>
      </g>
     </g>
    </g>
    <g id="xtick_2">
     <g id="line2d_2">
      <g>
       <use xlink:href="#ma627d1001a" x="104.97516" y="299.798125" style="stroke: #000000; stroke-width: 0.8"/>
      </g>
     </g>
     <g id="text_2">
      <!-- 0.25 -->
      <g transform="translate(93.842347 314.396563) scale(0.1 -0.1)">
       <defs>
        <path id="DejaVuSans-32" d="M 1228 531 
L 3431 531 
L 3431 0 
L 469 0 
L 469 531 
Q 828 903 1448 1529 
Q 2069 2156 2228 2338 
Q 2531 2678 2651 2914 
Q 2772 3150 2772 3378 
Q 2772 3750 2511 3984 
Q 2250 4219 1831 4219 
Q 1534 4219 1204 4116 
Q 875 4013 500 3803 
L 500 4441 
Q 881 4594 1212 4672 
Q 1544 4750 1819 4750 
Q 2544 4750 2975 4387 
Q 3406 4025 3406 3419 
Q 3406 3131 3298 2873 
Q 3191 2616 2906 2266 
Q 2828 2175 2409 1742 
Q 1991 1309 1228 531 
z
" transform="scale(0.015625)"/>
        <path id="DejaVuSans-35" d="M 691 4666 
L 3169 4666 
L 3169 4134 
L 1269 4134 
L 1269 2991 
Q 1406 3038 1543 3061 
Q 1681 3084 1819 3084 
Q 2600 3084 3056 2656 
Q 3513 2228 3513 1497 
Q 3513 744 3044 326 
Q 2575 -91 1722 -91 
Q 1428 -91 1123 -41 
Q 819 9 494 109 
L 494 744 
Q 775 591 1075 516 
Q 1375 441 1709 441 
Q 2250 441 2565 725 
Q 2881 1009 2881 1497 
Q 2881 1984 2565 2268 
Q 2250 2553 1709 2553 
Q 1456 2553 1204 2497 
Q 953 2441 691 2322 
L 691 4666 
z
" transform="scale(0.015625)"/>
       </defs>
       <use xlink:href="#DejaVuSans-30"/>
       <use xlink:href="#DejaVuSans-2e" transform="translate(63.623047 0)"/>
       <use xlink:href="#DejaVuSans-32" transform="translate(95.410156 0)"/>
       <use xlink:href="#DejaVuSans-35" transform="translate(159.033203 0)"/>
      </g>
     </g>
    </g>
    <g id="xtick_3">
     <g id="line2d_3">
      <g>
       <use xlink:href="#ma627d1001a" x="151.134242" y="299.798125" style="stroke: #000000; stroke-width: 0.8"/>
      </g>
     </g>
     <g id="text_3">
      <!-- 0.50 -->
      <g transform="translate(140.00143 314.396563) scale(0.1 -0.1)">
       <use xlink:href="#DejaVuSans-30"/>
       <use xlink:href="#DejaVuSans-2e" transform="translate(63.623047 0)"/>
       <use xlink:href="#DejaVuSans-35" transform="translate(95.410156 0)"/>
       <use xlink:href="#DejaVuSans-30" transform="translate(159.033203 0)"/>
      </g>
     </g>
    </g>
    <g id="xtick_4">
     <g id="line2d_4">
      <g>
       <use xlink:href="#ma627d1001a" x="197.293324" y="299.798125" style="stroke: #000000; stroke-width: 0.8"/>
      </g>
     </g>
     <g id="text_4">
      <!-- 0.75 -->
      <g transform="translate(186.160512 314.396563) scale(0.1 -0.1)">
       <defs>
        <path id="DejaVuSans-37" d="M 525 4666 
L 3525 4666 
L 3525 4397 
L 1831 0 
L 1172 0 
L 2766 4134 
L 525 4134 
L 525 4666 
z
" transform="scale(0.015625)"/>
       </defs>
       <use xlink:href="#DejaVuSans-30"/>
       <use xlink:href="#DejaVuSans-2e" transform="translate(63.623047 0)"/>
       <use xlink:href="#DejaVuSans-37" transform="translate(95.410156 0)"/>
       <use xlink:href="#DejaVuSans-35" transform="translate(159.033203 0)"/>
      </g>
     </g>
    </g>
    <g id="xtick_5">
     <g id="line2d_5">
      <g>
       <use xlink:href="#ma627d1001a" x="243.452407" y="299.798125" style="stroke: #000000; stroke-width: 0.8"/>
      </g>
     </g>
     <g id="text_5">
      <!-- 1.00 -->
      <g transform="translate(232.319594 314.396563) scale(0.1 -0.1)">
       <defs>
        <path id="DejaVuSans-31" d="M 794 531 
L 1825 531 
L 1825 4091 
L 703 3866 
L 703 4441 
L 1819 4666 
L 2450 4666 
L 2450 531 
L 3481 531 
L 3481 0 
L 794 0 
L 794 531 
z
" transform="scale(0.015625)"/>
       </defs>
       <use xlink:href="#DejaVuSans-31"/>
       <use xlink:href="#DejaVuSans-2e" transform="translate(63.623047 0)"/>
       <use xlink:href="#DejaVuSans-30" transform="translate(95.410156 0)"/>
       <use xlink:href="#DejaVuSans-30" transform="translate(159.033203 0)"/>
      </g>
     </g>
    </g>
    <g id="xtick_6">
     <g id="line2d_6">
      <g>
       <use xlink:href="#ma627d1001a" x="289.611489" y="299.798125" style="stroke: #000000; stroke-width: 0.8"/>
      </g>
     </g>
     <g id="text_6">
      <!-- 1.25 -->
      <g transform="translate(278.478677 314.396563) scale(0.1 -0.1)">
       <use xlink:href="#DejaVuSans-31"/>
       <use xlink:href="#DejaVuSans-2e" transform="translate(63.623047 0)"/>
       <use xlink:href="#DejaVuSans-32" transform="translate(95.410156 0)"/>
       <use xlink:href="#DejaVuSans-35" transform="translate(159.033203 0)"/>
      </g>
     </g>
    </g>
    <g id="xtick_7">
     <g id="line2d_7">
      <g>
       <use xlink:href="#ma627d1001a" x="335.770572" y="299.798125" style="stroke: #000000; stroke-width: 0.8"/>
      </g>
     </g>
     <g id="text_7">
      <!-- 1.50 -->
      <g transform="translate(324.637759 314.396563) scale(0.1 -0.1)">
       <use xlink:href="#DejaVuSans-31"/>
       <use xlink:href="#DejaVuSans-2e" transform="translate(63.623047 0)"/>
       <use xlink:href="#DejaVuSans-35" transform="translate(95.410156 0)"/>
       <use xlink:href="#DejaVuSans-30" transform="translate(159.033203 0)"/>
      </g>
     </g>
    </g>
    <g id="xtick_8">
     <g id="line2d_8">
      <g>
       <use xlink:href="#ma627d1001a" x="381.929654" y="299.798125" style="stroke: #000000; stroke-width: 0.8"/>
      </g>
     </g>
     <g id="text_8">
      <!-- 1.75 -->
      <g transform="translate(370.796842 314.396563) scale(0.1 -0.1)">
       <use xlink:href="#DejaVuSans-31"/>
       <use xlink:href="#DejaVuSans-2e" transform="translate(63.623047 0)"/>
       <use xlink:href="#DejaVuSans-37" transform="translate(95.410156 0)"/>
       <use xlink:href="#DejaVuSans-35" transform="translate(159.033203 0)"/>
      </g>
     </g>
    </g>
    <g id="xtick_9">
     <g id="line2d_9">
      <g>
       <use xlink:href="#ma627d1001a" x="428.088737" y="299.798125" style="stroke: #000000; stroke-width: 0.8"/>
      </g>
     </g>
     <g id="text_9">
      <!-- 2.00 -->
      <g transform="translate(416.955924 314.396563) scale(0.1 -0.1)">
       <use xlink:href="#DejaVuSans-32"/>
       <use xlink:href="#DejaVuSans-2e" transform="translate(63.623047 0)"/>
       <use xlink:href="#DejaVuSans-30" transform="translate(95.410156 0)"/>
       <use xlink:href="#DejaVuSans-30" transform="translate(159.033203 0)"/>
      </g>
     </g>
    </g>
    <g id="text_10">
     <!-- time, t (us) -->
     <g transform="translate(215.574688 328.074688) scale(0.1 -0.1)">
      <defs>
       <path id="DejaVuSans-74" d="M 1172 4494 
L 1172 3500 
L 2356 3500 
L 2356 3053 
L 1172 3053 
L 1172 1153 
Q 1172 725 1289 603 
Q 1406 481 1766 481 
L 2356 481 
L 2356 0 
L 1766 0 
Q 1100 0 847 248 
Q 594 497 594 1153 
L 594 3053 
L 172 3053 
L 172 3500 
L 594 3500 
L 594 4494 
L 1172 4494 
z
" transform="scale(0.015625)"/>
       <path id="DejaVuSans-69" d="M 603 3500 
L 1178 3500 
L 1178 0 
L 603 0 
L 603 3500 
z
M 603 4863 
L 1178 4863 
L 1178 4134 
L 603 4134 
L 603 4863 
z
" transform="scale(0.015625)"/>
       <path id="DejaVuSans-6d" d="M 3328 2828 
Q 3544 3216 3844 3400 
Q 4144 3584 4550 3584 
Q 5097 3584 5394 3201 
Q 5691 2819 5691 2113 
L 5691 0 
L 5113 0 
L 5113 2094 
Q 5113 2597 4934 2840 
Q 4756 3084 4391 3084 
Q 3944 3084 3684 2787 
Q 3425 2491 3425 1978 
L 3425 0 
L 2847 0 
L 2847 2094 
Q 2847 2600 2669 2842 
Q 2491 3084 2119 3084 
Q 1678 3084 1418 2786 
Q 1159 2488 1159 1978 
L 1159 0 
L 581 0 
L 581 3500 
L 1159 3500 
L 1159 2956 
Q 1356 3278 1631 3431 
Q 1906 3584 2284 3584 
Q 2666 3584 2933 3390 
Q 3200 3197 3328 2828 
z
" transform="scale(0.015625)"/>
       <path id="DejaVuSans-65" d="M 3597 1894 
L 3597 1613 
L 953 1613 
Q 991 1019 1311 708 
Q 1631 397 2203 397 
Q 2534 397 2845 478 
Q 3156 559 3463 722 
L 3463 178 
Q 3153 47 2828 -22 
Q 2503 -91 2169 -91 
Q 1331 -91 842 396 
Q 353 884 353 1716 
Q 353 2575 817 3079 
Q 1281 3584 2069 3584 
Q 2775 3584 3186 3129 
Q 3597 2675 3597 1894 
z
M 3022 2063 
Q 3016 2534 2758 2815 
Q 2500 3097 2075 3097 
Q 1594 3097 1305 2825 
Q 1016 2553 972 2059 
L 3022 2063 
z
" transform="scale(0.015625)"/>
       <path id="DejaVuSans-2c" d="M 750 794 
L 1409 794 
L 1409 256 
L 897 -744 
L 494 -744 
L 750 256 
L 750 794 
z
" transform="scale(0.015625)"/>
       <path id="DejaVuSans-20" transform="scale(0.015625)"/>
       <path id="DejaVuSans-28" d="M 1984 4856 
Q 1566 4138 1362 3434 
Q 1159 2731 1159 2009 
Q 1159 1288 1364 580 
Q 1569 -128 1984 -844 
L 1484 -844 
Q 1016 -109 783 600 
Q 550 1309 550 2009 
Q 550 2706 781 3412 
Q 1013 4119 1484 4856 
L 1984 4856 
z
" transform="scale(0.015625)"/>
       <path id="DejaVuSans-75" d="M 544 1381 
L 544 3500 
L 1119 3500 
L 1119 1403 
Q 1119 906 1312 657 
Q 1506 409 1894 409 
Q 2359 409 2629 706 
Q 2900 1003 2900 1516 
L 2900 3500 
L 3475 3500 
L 3475 0 
L 2900 0 
L 2900 538 
Q 2691 219 2414 64 
Q 2138 -91 1772 -91 
Q 1169 -91 856 284 
Q 544 659 544 1381 
z
M 1991 3584 
L 1991 3584 
z
" transform="scale(0.015625)"/>
       <path id="DejaVuSans-73" d="M 2834 3397 
L 2834 2853 
Q 2591 2978 2328 3040 
Q 2066 3103 1784 3103 
Q 1356 3103 1142 2972 
Q 928 2841 928 2578 
Q 928 2378 1081 2264 
Q 1234 2150 1697 2047 
L 1894 2003 
Q 2506 1872 2764 1633 
Q 3022 1394 3022 966 
Q 3022 478 2636 193 
Q 2250 -91 1575 -91 
Q 1294 -91 989 -36 
Q 684 19 347 128 
L 347 722 
Q 666 556 975 473 
Q 1284 391 1588 391 
Q 1994 391 2212 530 
Q 2431 669 2431 922 
Q 2431 1156 2273 1281 
Q 2116 1406 1581 1522 
L 1381 1569 
Q 847 1681 609 1914 
Q 372 2147 372 2553 
Q 372 3047 722 3315 
Q 1072 3584 1716 3584 
Q 2034 3584 2315 3537 
Q 2597 3491 2834 3397 
z
" transform="scale(0.015625)"/>
       <path id="DejaVuSans-29" d="M 513 4856 
L 1013 4856 
Q 1481 4119 1714 3412 
Q 1947 2706 1947 2009 
Q 1947 1309 1714 600 
Q 1481 -109 1013 -844 
L 513 -844 
Q 928 -128 1133 580 
Q 1338 1288 1338 2009 
Q 1338 2731 1133 3434 
Q 928 4138 513 4856 
z
" transform="scale(0.015625)"/>
      </defs>
      <use xlink:href="#DejaVuSans-74"/>
      <use xlink:href="#DejaVuSans-69" transform="translate(39.208984 0)"/>
      <use xlink:href="#DejaVuSans-6d" transform="translate(66.992188 0)"/>
      <use xlink:href="#DejaVuSans-65" transform="translate(164.404297 0)"/>
      <use xlink:href="#DejaVuSans-2c" transform="translate(225.927734 0)"/>
      <use xlink:href="#DejaVuSans-20" transform="translate(257.714844 0)"/>
      <use xlink:href="#DejaVuSans-74" transform="translate(289.501953 0)"/>
      <use xlink:href="#DejaVuSans-20" transform="translate(328.710938 0)"/>
      <use xlink:href="#DejaVuSans-28" transform="translate(360.498047 0)"/>
      <use xlink:href="#DejaVuSans-75" transform="translate(399.511719 0)"/>
      <use xlink:href="#DejaVuSans-73" transform="translate(462.890625 0)"/>
      <use xlink:href="#DejaVuSans-29" transform="translate(514.990234 0)"/>
     </g>
    </g>
    <g id="text_11">
     <!-- 1e6 -->
     <g transform="translate(427.065 327.074688) scale(0.1 -0.1)">
      <defs>
       <path id="DejaVuSans-36" d="M 2113 2584 
Q 1688 2584 1439 2293 
Q 1191 2003 1191 1497 
Q 1191 994 1439 701 
Q 1688 409 2113 409 
Q 2538 409 2786 701 
Q 3034 994 3034 1497 
Q 3034 2003 2786 2293 
Q 2538 2584 2113 2584 
z
M 3366 4563 
L 3366 3988 
Q 3128 4100 2886 4159 
Q 2644 4219 2406 4219 
Q 1781 4219 1451 3797 
Q 1122 3375 1075 2522 
Q 1259 2794 1537 2939 
Q 1816 3084 2150 3084 
Q 2853 3084 3261 2657 
Q 3669 2231 3669 1497 
Q 3669 778 3244 343 
Q 2819 -91 2113 -91 
Q 1303 -91 875 529 
Q 447 1150 447 2328 
Q 447 3434 972 4092 
Q 1497 4750 2381 4750 
Q 2619 4750 2861 4703 
Q 3103 4656 3366 4563 
z
" transform="scale(0.015625)"/>
      </defs>
      <use xlink:href="#DejaVuSans-31"/>
      <use xlink:href="#DejaVuSans-65" transform="translate(63.623047 0)"/>
      <use xlink:href="#DejaVuSans-36" transform="translate(125.146484 0)"/>
     </g>
    </g>
   </g>
   <g id="matplotlib.axis_2">
    <g id="ytick_1">
     <g id="line2d_10">
      <defs>
       <path id="m098bd132e4" d="M 0 0 
L -3.5 0 
" style="stroke: #000000; stroke-width: 0.8"/>
      </defs>
      <g>
       <use xlink:href="#m098bd132e4" x="40.603125" y="287.185398" style="stroke: #000000; stroke-width: 0.8"/>
      </g>
     </g>
     <g id="text_12">
      <!-- 0 -->
      <g transform="translate(27.240625 290.984616) scale(0.1 -0.1)">
       <use xlink:href="#DejaVuSans-30"/>
      </g>
     </g>
    </g>
    <g id="ytick_2">
     <g id="line2d_11">
      <g>
       <use xlink:href="#m098bd132e4" x="40.603125" y="255.740172" style="stroke: #000000; stroke-width: 0.8"/>
      </g>
     </g>
     <g id="text_13">
      <!-- 5 -->
      <g transform="translate(27.240625 259.539391) scale(0.1 -0.1)">
       <use xlink:href="#DejaVuSans-35"/>
      </g>
     </g>
    </g>
    <g id="ytick_3">
     <g id="line2d_12">
      <g>
       <use xlink:href="#m098bd132e4" x="40.603125" y="224.294946" style="stroke: #000000; stroke-width: 0.8"/>
      </g>
     </g>
     <g id="text_14">
      <!-- 10 -->
      <g transform="translate(20.878125 228.094165) scale(0.1 -0.1)">
       <use xlink:href="#DejaVuSans-31"/>
       <use xlink:href="#DejaVuSans-30" transform="translate(63.623047 0)"/>
      </g>
     </g>
    </g>
    <g id="ytick_4">
     <g id="line2d_13">
      <g>
       <use xlink:href="#m098bd132e4" x="40.603125" y="192.84972" style="stroke: #000000; stroke-width: 0.8"/>
      </g>
     </g>
     <g id="text_15">
      <!-- 15 -->
      <g transform="translate(20.878125 196.648939) scale(0.1 -0.1)">
       <use xlink:href="#DejaVuSans-31"/>
       <use xlink:href="#DejaVuSans-35" transform="translate(63.623047 0)"/>
      </g>
     </g>
    </g>
    <g id="ytick_5">
     <g id="line2d_14">
      <g>
       <use xlink:href="#m098bd132e4" x="40.603125" y="161.404494" style="stroke: #000000; stroke-width: 0.8"/>
      </g>
     </g>
     <g id="text_16">
      <!-- 20 -->
      <g transform="translate(20.878125 165.203713) scale(0.1 -0.1)">
       <use xlink:href="#DejaVuSans-32"/>
       <use xlink:href="#DejaVuSans-30" transform="translate(63.623047 0)"/>
      </g>
     </g>
    </g>
    <g id="ytick_6">
     <g id="line2d_15">
      <g>
       <use xlink:href="#m098bd132e4" x="40.603125" y="129.959268" style="stroke: #000000; stroke-width: 0.8"/>
      </g>
     </g>
     <g id="text_17">
      <!-- 25 -->
      <g transform="translate(20.878125 133.758487) scale(0.1 -0.1)">
       <use xlink:href="#DejaVuSans-32"/>
       <use xlink:href="#DejaVuSans-35" transform="translate(63.623047 0)"/>
      </g>
     </g>
    </g>
    <g id="ytick_7">
     <g id="line2d_16">
      <g>
       <use xlink:href="#m098bd132e4" x="40.603125" y="98.514042" style="stroke: #000000; stroke-width: 0.8"/>
      </g>
     </g>
     <g id="text_18">
      <!-- 30 -->
      <g transform="translate(20.878125 102.313261) scale(0.1 -0.1)">
       <defs>
        <path id="DejaVuSans-33" d="M 2597 2516 
Q 3050 2419 3304 2112 
Q 3559 1806 3559 1356 
Q 3559 666 3084 287 
Q 2609 -91 1734 -91 
Q 1441 -91 1130 -33 
Q 819 25 488 141 
L 488 750 
Q 750 597 1062 519 
Q 1375 441 1716 441 
Q 2309 441 2620 675 
Q 2931 909 2931 1356 
Q 2931 1769 2642 2001 
Q 2353 2234 1838 2234 
L 1294 2234 
L 1294 2753 
L 1863 2753 
Q 2328 2753 2575 2939 
Q 2822 3125 2822 3475 
Q 2822 3834 2567 4026 
Q 2313 4219 1838 4219 
Q 1578 4219 1281 4162 
Q 984 4106 628 3988 
L 628 4550 
Q 988 4650 1302 4700 
Q 1616 4750 1894 4750 
Q 2613 4750 3031 4423 
Q 3450 4097 3450 3541 
Q 3450 3153 3228 2886 
Q 3006 2619 2597 2516 
z
" transform="scale(0.015625)"/>
       </defs>
       <use xlink:href="#DejaVuSans-33"/>
       <use xlink:href="#DejaVuSans-30" transform="translate(63.623047 0)"/>
      </g>
     </g>
    </g>
    <g id="ytick_8">
     <g id="line2d_17">
      <g>
       <use xlink:href="#m098bd132e4" x="40.603125" y="67.068816" style="stroke: #000000; stroke-width: 0.8"/>
      </g>
     </g>
     <g id="text_19">
      <!-- 35 -->
      <g transform="translate(20.878125 70.868035) scale(0.1 -0.1)">
       <use xlink:href="#DejaVuSans-33"/>
       <use xlink:href="#DejaVuSans-35" transform="translate(63.623047 0)"/>
      </g>
     </g>
    </g>
    <g id="ytick_9">
     <g id="line2d_18">
      <g>
       <use xlink:href="#m098bd132e4" x="40.603125" y="35.623591" style="stroke: #000000; stroke-width: 0.8"/>
      </g>
     </g>
     <g id="text_20">
      <!-- 40 -->
      <g transform="translate(20.878125 39.422809) scale(0.1 -0.1)">
       <defs>
        <path id="DejaVuSans-34" d="M 2419 4116 
L 825 1625 
L 2419 1625 
L 2419 4116 
z
M 2253 4666 
L 3047 4666 
L 3047 1625 
L 3713 1625 
L 3713 1100 
L 3047 1100 
L 3047 0 
L 2419 0 
L 2419 1100 
L 313 1100 
L 313 1709 
L 2253 4666 
z
" transform="scale(0.015625)"/>
       </defs>
       <use xlink:href="#DejaVuSans-34"/>
       <use xlink:href="#DejaVuSans-30" transform="translate(63.623047 0)"/>
      </g>
     </g>
    </g>
    <g id="text_21">
     <!-- left wheel theta, ltheta (rad) -->
     <g transform="translate(14.798438 231.945625) rotate(-90) scale(0.1 -0.1)">
      <defs>
       <path id="DejaVuSans-6c" d="M 603 4863 
L 1178 4863 
L 1178 0 
L 603 0 
L 603 4863 
z
" transform="scale(0.015625)"/>
       <path id="DejaVuSans-66" d="M 2375 4863 
L 2375 4384 
L 1825 4384 
Q 1516 4384 1395 4259 
Q 1275 4134 1275 3809 
L 1275 3500 
L 2222 3500 
L 2222 3053 
L 1275 3053 
L 1275 0 
L 697 0 
L 697 3053 
L 147 3053 
L 147 3500 
L 697 3500 
L 697 3744 
Q 697 4328 969 4595 
Q 1241 4863 1831 4863 
L 2375 4863 
z
" transform="scale(0.015625)"/>
       <path id="DejaVuSans-77" d="M 269 3500 
L 844 3500 
L 1563 769 
L 2278 3500 
L 2956 3500 
L 3675 769 
L 4391 3500 
L 4966 3500 
L 4050 0 
L 3372 0 
L 2619 2869 
L 1863 0 
L 1184 0 
L 269 3500 
z
" transform="scale(0.015625)"/>
       <path id="DejaVuSans-68" d="M 3513 2113 
L 3513 0 
L 2938 0 
L 2938 2094 
Q 2938 2591 2744 2837 
Q 2550 3084 2163 3084 
Q 1697 3084 1428 2787 
Q 1159 2491 1159 1978 
L 1159 0 
L 581 0 
L 581 4863 
L 1159 4863 
L 1159 2956 
Q 1366 3272 1645 3428 
Q 1925 3584 2291 3584 
Q 2894 3584 3203 3211 
Q 3513 2838 3513 2113 
z
" transform="scale(0.015625)"/>
       <path id="DejaVuSans-61" d="M 2194 1759 
Q 1497 1759 1228 1600 
Q 959 1441 959 1056 
Q 959 750 1161 570 
Q 1363 391 1709 391 
Q 2188 391 2477 730 
Q 2766 1069 2766 1631 
L 2766 1759 
L 2194 1759 
z
M 3341 1997 
L 3341 0 
L 2766 0 
L 2766 531 
Q 2569 213 2275 61 
Q 1981 -91 1556 -91 
Q 1019 -91 701 211 
Q 384 513 384 1019 
Q 384 1609 779 1909 
Q 1175 2209 1959 2209 
L 2766 2209 
L 2766 2266 
Q 2766 2663 2505 2880 
Q 2244 3097 1772 3097 
Q 1472 3097 1187 3025 
Q 903 2953 641 2809 
L 641 3341 
Q 956 3463 1253 3523 
Q 1550 3584 1831 3584 
Q 2591 3584 2966 3190 
Q 3341 2797 3341 1997 
z
" transform="scale(0.015625)"/>
       <path id="DejaVuSans-72" d="M 2631 2963 
Q 2534 3019 2420 3045 
Q 2306 3072 2169 3072 
Q 1681 3072 1420 2755 
Q 1159 2438 1159 1844 
L 1159 0 
L 581 0 
L 581 3500 
L 1159 3500 
L 1159 2956 
Q 1341 3275 1631 3429 
Q 1922 3584 2338 3584 
Q 2397 3584 2469 3576 
Q 2541 3569 2628 3553 
L 2631 2963 
z
" transform="scale(0.015625)"/>
       <path id="DejaVuSans-64" d="M 2906 2969 
L 2906 4863 
L 3481 4863 
L 3481 0 
L 2906 0 
L 2906 525 
Q 2725 213 2448 61 
Q 2172 -91 1784 -91 
Q 1150 -91 751 415 
Q 353 922 353 1747 
Q 353 2572 751 3078 
Q 1150 3584 1784 3584 
Q 2172 3584 2448 3432 
Q 2725 3281 2906 2969 
z
M 947 1747 
Q 947 1113 1208 752 
Q 1469 391 1925 391 
Q 2381 391 2643 752 
Q 2906 1113 2906 1747 
Q 2906 2381 2643 2742 
Q 2381 3103 1925 3103 
Q 1469 3103 1208 2742 
Q 947 2381 947 1747 
z
" transform="scale(0.015625)"/>
      </defs>
      <use xlink:href="#DejaVuSans-6c"/>
      <use xlink:href="#DejaVuSans-65" transform="translate(27.783203 0)"/>
      <use xlink:href="#DejaVuSans-66" transform="translate(89.306641 0)"/>
      <use xlink:href="#DejaVuSans-74" transform="translate(122.761719 0)"/>
      <use xlink:href="#DejaVuSans-20" transform="translate(161.970703 0)"/>
      <use xlink:href="#DejaVuSans-77" transform="translate(193.757812 0)"/>
      <use xlink:href="#DejaVuSans-68" transform="translate(275.544922 0)"/>
      <use xlink:href="#DejaVuSans-65" transform="translate(338.923828 0)"/>
      <use xlink:href="#DejaVuSans-65" transform="translate(400.447266 0)"/>
      <use xlink:href="#DejaVuSans-6c" transform="translate(461.970703 0)"/>
      <use xlink:href="#DejaVuSans-20" transform="translate(489.753906 0)"/>
      <use xlink:href="#DejaVuSans-74" transform="translate(521.541016 0)"/>
      <use xlink:href="#DejaVuSans-68" transform="translate(560.75 0)"/>
      <use xlink:href="#DejaVuSans-65" transform="translate(624.128906 0)"/>
      <use xlink:href="#DejaVuSans-74" transform="translate(685.652344 0)"/>
      <use xlink:href="#DejaVuSans-61" transform="translate(724.861328 0)"/>
      <use xlink:href="#DejaVuSans-2c" transform="translate(786.140625 0)"/>
      <use xlink:href="#DejaVuSans-20" transform="translate(817.927734 0)"/>
      <use xlink:href="#DejaVuSans-6c" transform="translate(849.714844 0)"/>
      <use xlink:href="#DejaVuSans-74" transform="translate(877.498047 0)"/>
      <use xlink:href="#DejaVuSans-68" transform="translate(916.707031 0)"/>
      <use xlink:href="#DejaVuSans-65" transform="translate(980.085938 0)"/>
      <use xlink:href="#DejaVuSans-74" transform="translate(1041.609375 0)"/>
      <use xlink:href="#DejaVuSans-61" transform="translate(1080.818359 0)"/>
      <use xlink:href="#DejaVuSans-20" transform="translate(1142.097656 0)"/>
      <use xlink:href="#DejaVuSans-28" transform="translate(1173.884766 0)"/>
      <use xlink:href="#DejaVuSans-72" transform="translate(1212.898438 0)"/>
      <use xlink:href="#DejaVuSans-61" transform="translate(1254.011719 0)"/>
      <use xlink:href="#DejaVuSans-64" transform="translate(1315.291016 0)"/>
      <use xlink:href="#DejaVuSans-29" transform="translate(1378.767578 0)"/>
     </g>
    </g>
   </g>
   <g id="line2d_19">
    <path d="M 59.028224 281.603572 
L 61.960619 281.218618 
L 66.063976 279.761293 
L 70.030149 277.754037 
L 73.033259 275.966754 
L 77.077349 273.354567 
L 81.058662 270.549905 
L 84.181785 268.267686 
L 88.195964 265.243051 
L 92.211066 262.163419 
L 95.326988 259.743715 
L 99.327134 256.5541 
L 103.416275 253.227 
L 106.457235 250.779794 
L 110.476214 247.645177 
L 113.595091 245.225473 
L 117.613147 242.173337 
L 121.717982 239.066215 
L 124.743433 236.78399 
L 128.760935 233.814347 
L 132.857646 230.899701 
L 135.866295 228.782456 
L 139.969652 225.922802 
L 143.970906 223.173106 
L 147.011867 221.083382 
L 151.107839 218.27872 
L 155.125341 215.556569 
L 158.237202 213.466782 
L 162.254888 210.772115 
L 165.295664 208.764841 
L 169.392929 206.04269 
L 173.409877 203.348023 
L 176.520445 201.258299 
L 180.537393 198.563569 
L 184.554526 195.868902 
L 187.674326 193.779178 
L 191.674102 191.111994 
L 194.800919 189.02227 
L 198.81879 186.32754 
L 202.835369 183.660419 
L 205.953876 181.570632 
L 209.969532 178.903448 
L 214.055534 176.208781 
L 217.079323 174.229052 
L 221.078546 171.589351 
L 225.172487 168.867201 
L 228.212524 166.859926 
L 232.313666 164.11023 
L 236.329137 161.470592 
L 239.369359 159.463317 
L 243.44576 156.741104 
L 246.484874 154.706347 
L 250.616296 151.984196 
L 257.713163 147.282255 
L 261.835169 144.560104 
L 265.878889 141.920403 
L 269.019553 139.830679 
L 273.061981 137.163495 
L 276.130268 135.156221 
L 280.252643 132.461554 
L 284.294702 129.766886 
L 287.449583 127.649616 
L 291.49201 124.954949 
L 294.560297 122.947675 
L 298.681749 120.225524 
L 302.724546 117.530857 
L 305.865579 115.44107 
L 309.907269 112.746403 
L 312.975001 110.711646 
L 317.082236 107.989495 
L 321.12411 105.349794 
L 324.279176 103.26007 
L 328.304802 100.592886 
L 332.34686 97.925702 
L 335.493986 95.863461 
L 339.534937 93.22376 
L 342.688895 91.134037 
L 346.731507 88.439369 
L 350.772458 85.744702 
L 353.918846 83.654978 
L 357.959058 80.987794 
L 361.113016 78.870524 
L 365.153228 76.175857 
L 369.193994 73.536156 
L 372.340197 71.446432 
L 376.379855 68.779248 
L 379.533075 66.717007 
L 383.572917 64.049823 
L 387.61276 61.382639 
L 390.758409 59.320398 
L 394.782004 56.680697 
L 397.935224 54.590974 
L 401.974697 51.896306 
L 406.01454 49.201639 
L 409.131386 47.111915 
L 413.170675 44.444731 
L 417.296928 41.695035 
L 420.334195 39.660277 
L 424.37293 36.993156 
L 427.51858 34.930852 
" clip-path="url(#pdc207b0601)" style="fill: none; stroke: #1f77b4; stroke-width: 1.5; stroke-linecap: square"/>
   </g>
   <g id="line2d_20">
    <path d="M 59.02767 282.400976 
L 62.946023 281.768553 
L 66.974049 280.11875 
L 70.062645 278.523942 
L 74.05596 276.104238 
L 78.135869 273.382063 
L 81.182368 271.209827 
L 85.180114 268.322677 
L 89.289196 265.38053 
L 92.336249 263.318283 
L 96.420589 260.623603 
L 99.466719 258.671339 
L 103.496961 256.059158 
L 107.60512 253.391981 
L 110.65125 251.412221 
L 114.767347 248.745043 
L 118.796297 246.242839 
L 121.842612 244.400564 
L 125.950216 241.843376 
L 128.996346 239.973598 
L 133.097488 237.471401 
L 137.126253 235.079193 
L 140.172014 233.264414 
L 144.279249 230.789712 
L 148.308568 228.397498 
L 151.441108 226.555222 
L 155.468949 224.190485 
L 158.515264 222.403201 
L 162.607913 220.011037 
L 166.636124 217.701259 
L 169.768664 215.859009 
L 173.797059 213.466782 
L 177.82527 211.129585 
L 180.94987 209.342301 
L 184.977712 207.005103 
L 188.094004 205.16279 
L 192.123507 202.798109 
L 196.151164 200.488331 
L 199.276319 198.701048 
L 203.288651 196.36385 
L 207.402533 193.971623 
L 210.447924 192.239368 
L 214.475766 189.902107 
L 217.60092 188.059857 
L 221.629316 185.72266 
L 225.741905 183.357916 
L 228.787482 181.598115 
L 232.814769 179.260917 
L 236.903356 176.86869 
L 239.948009 175.108953 
L 244.043982 172.744209 
L 248.084378 170.407011 
L 251.159497 168.619727 
L 255.294058 166.2275 
L 258.368437 164.440216 
L 262.496906 162.075535 
L 266.538964 159.765821 
L 269.612421 157.978537 
L 273.74532 155.58631 
L 276.81933 153.826509 
L 280.959985 151.406799 
L 285.000936 149.069601 
L 288.074761 147.254771 
L 292.194182 144.89009 
L 295.254345 143.13029 
L 299.394445 140.738126 
L 303.447951 138.345899 
L 306.521408 136.558615 
L 310.653384 134.193871 
L 313.72684 132.406587 
L 317.866387 130.014423 
L 321.919708 127.677162 
L 324.993165 125.917425 
L 329.124402 123.552681 
L 332.197489 121.765397 
L 336.335928 119.373233 
L 340.388696 117.008489 
L 343.461783 115.248688 
L 347.592651 112.856524 
L 350.665923 111.069241 
L 354.803808 108.704497 
L 358.856206 106.367299 
L 361.929108 104.552532 
L 366.059238 102.132822 
L 369.116447 100.373021 
L 373.254147 97.980794 
L 377.30636 95.616113 
L 380.378894 93.82883 
L 384.509024 91.409119 
L 387.581557 89.621836 
L 391.718518 87.257092 
L 395.770178 84.919894 
L 398.842527 83.160093 
L 402.971733 80.795349 
L 406.044267 78.980583 
L 410.181597 76.615839 
L 414.232334 74.278641 
L 417.305052 72.491357 
L 421.434259 70.071647 
L 424.506238 68.284363 
" clip-path="url(#pdc207b0601)" style="fill: none; stroke: #ff7f0e; stroke-width: 1.5; stroke-linecap: square"/>
   </g>
   <g id="line2d_21">
    <path d="M 59.028224 287.047914 
L 62.895248 286.415491 
L 66.048098 285.205637 
L 70.086833 283.19838 
L 73.139794 281.411095 
L 77.261431 278.853903 
L 81.271548 276.434193 
L 84.394117 274.619414 
L 91.488214 270.714885 
L 95.60782 268.405164 
L 99.648771 266.122939 
L 102.77171 264.363157 
L 106.812476 262.163419 
L 110.821669 260.018678 
L 113.95347 258.341384 
L 117.977435 256.196643 
L 121.100189 254.546844 
L 125.141324 252.457095 
L 129.181536 250.367346 
L 132.312599 248.745043 
L 136.352073 246.68279 
L 139.490521 245.115484 
L 143.530179 243.053231 
L 147.569838 241.018479 
L 150.699977 239.451167 
L 154.723388 237.443912 
L 158.849086 235.409154 
L 161.90094 233.869338 
L 165.93986 231.834587 
L 169.070369 230.267269 
L 173.110212 228.260013 
L 177.235357 226.197766 
L 180.286657 224.65795 
L 184.309144 222.678158 
L 188.427273 220.615917 
L 191.479311 219.103591 
L 195.604087 217.068833 
L 198.62326 215.556569 
L 202.662734 213.549295 
L 206.780308 211.514537 
L 209.815545 210.029693 
L 213.923888 207.967453 
L 217.962808 205.960178 
L 221.014477 204.447851 
L 225.130944 202.385611 
L 228.182059 200.90083 
L 232.307019 198.866072 
L 236.344093 196.831315 
L 239.379145 195.318988 
L 243.494873 193.28423 
L 246.574976 191.771903 
L 250.727263 189.68218 
L 254.793878 187.674905 
L 257.874166 186.135095 
L 262.019252 184.100338 
L 265.098801 182.588011 
L 269.250533 180.498287 
L 273.317149 178.491012 
L 276.397067 176.978686 
L 280.527197 174.943928 
L 283.606747 173.404118 
L 287.757741 171.341877 
L 291.823248 169.334603 
L 294.903166 167.822276 
L 299.046775 165.760035 
L 302.125955 164.220225 
L 306.276949 162.157985 
L 309.355944 160.645658 
L 313.420713 158.6109 
L 317.550105 156.548659 
L 320.597158 155.036333 
L 324.747044 152.974092 
L 327.825117 151.461765 
L 331.888593 149.427008 
L 336.017061 147.364767 
L 339.094949 145.824957 
L 343.24465 143.762653 
L 346.322907 142.250327 
L 350.38546 140.270598 
L 354.527038 138.208357 
L 357.604926 136.668547 
L 361.75315 134.606307 
L 364.831038 133.09398 
L 368.892852 131.059222 
L 373.020582 129.024465 
L 376.098654 127.484655 
L 380.246879 125.422414 
L 383.324397 123.882604 
L 387.386396 121.87533 
L 391.513941 119.840572 
L 394.592752 118.300762 
L 398.740238 116.238521 
L 401.817941 114.726195 
L 405.878648 112.691437 
L 410.005639 110.629196 
L 413.067648 109.116869 
L 417.214765 107.054629 
L 420.292468 105.514756 
L 424.354097 103.507544 
" clip-path="url(#pdc207b0601)" style="fill: none; stroke: #2ca02c; stroke-width: 1.5; stroke-linecap: square"/>
   </g>
   <g id="line2d_22">
    <path d="M 59.028224 284.078273 
L 62.969656 283.418353 
L 66.113828 282.235996 
L 70.169734 280.228739 
L 74.189821 278.13899 
L 77.29522 276.654171 
L 81.331739 274.81189 
L 85.455776 272.914623 
L 88.514277 271.484796 
L 92.534179 269.615019 
L 95.671889 268.157697 
L 99.72521 266.287919 
L 103.864387 264.418149 
L 106.92215 263.043313 
L 110.973994 261.201038 
L 114.110596 259.798707 
L 118.162625 258.066414 
L 122.300879 256.306626 
L 125.342578 255.014284 
L 129.394237 253.281992 
L 133.524367 251.522204 
L 136.566436 250.257357 
L 140.704505 248.55256 
L 143.762452 247.260218 
L 147.814481 245.555422 
L 151.896605 243.850625 
L 154.954183 242.585779 
L 159.091145 240.853486 
L 162.148353 239.561144 
L 166.198905 237.911345 
L 170.328481 236.206555 
L 173.385135 234.914213 
L 177.521728 233.18192 
L 181.556032 231.532121 
L 184.612501 230.267269 
L 188.740785 228.562478 
L 191.797255 227.297632 
L 195.934032 225.565339 
L 199.968336 223.860562 
L 203.025729 222.623192 
L 207.153643 220.890874 
L 210.210667 219.598539 
L 214.330457 217.92125 
L 218.380086 216.298928 
L 221.436925 215.061621 
L 225.564839 213.301821 
L 228.621678 212.036968 
L 232.741284 210.332197 
L 236.78999 208.654908 
L 239.830396 207.390055 
L 243.957387 205.685221 
L 247.044137 204.392885 
L 251.208056 202.688114 
L 255.285749 201.010825 
L 258.371392 199.718489 
L 262.527371 198.013655 
L 265.600273 196.748802 
L 269.763453 195.016548 
L 273.840777 193.339259 
L 276.926604 192.046861 
L 281.082029 190.342089 
L 284.167856 189.049753 
L 288.330298 187.317436 
L 291.415756 186.052583 
L 295.493818 184.347811 
L 299.648505 182.615494 
L 302.733409 181.350704 
L 306.895296 179.673353 
L 309.9802 178.436046 
L 314.040168 176.703729 
L 318.178976 174.971474 
L 321.264065 173.706621 
L 325.425583 172.001787 
L 328.509748 170.709451 
L 332.584672 169.004679 
L 335.747677 167.712344 
L 339.823893 166.034992 
L 343.985042 164.302738 
L 347.069577 163.010402 
L 351.143762 161.360597 
L 354.306767 160.068261 
L 358.380213 158.390909 
L 361.549865 157.07109 
L 365.625158 155.366319 
L 369.698974 153.689031 
L 372.861241 152.396632 
L 376.934134 150.69186 
L 380.103601 149.372041 
L 384.176678 147.694753 
L 388.2348 146.017402 
L 391.398359 144.697583 
L 395.471806 143.020294 
L 398.640534 141.700475 
L 402.713427 140.05067 
L 406.772472 138.400865 
L 409.934554 137.080983 
L 413.994153 135.403695 
L 417.150142 134.083876 
L 421.222296 132.406587 
L 424.304984 131.114251 
" clip-path="url(#pdc207b0601)" style="fill: none; stroke: #d62728; stroke-width: 1.5; stroke-linecap: square"/>
   </g>
   <g id="line2d_23">
    <path d="M 59.02767 285.150643 
L 62.979996 284.490723 
L 66.042005 283.335862 
L 70.186536 281.521082 
L 73.250945 280.338722 
L 77.370182 278.908895 
L 81.434212 277.479068 
L 84.497883 276.351706 
L 88.640753 274.81189 
L 91.688914 273.657033 
L 95.805381 272.172208 
L 99.867934 270.742381 
L 102.930682 269.642515 
L 107.072813 268.157697 
L 110.119682 267.057824 
L 114.269014 265.600502 
L 118.331567 264.19817 
L 121.394684 263.180798 
L 125.536261 261.750971 
L 128.583499 260.706096 
L 132.732093 259.331261 
L 136.793908 257.983921 
L 139.856101 256.966542 
L 143.997125 255.564211 
L 147.060426 254.546832 
L 151.209389 253.199492 
L 155.271758 251.852158 
L 158.317888 250.834779 
L 162.442479 249.432448 
L 165.488609 248.415069 
L 169.620031 247.040234 
L 173.681477 245.692894 
L 176.743855 244.675515 
L 180.883955 243.300679 
L 183.946333 242.283307 
L 188.093819 240.908471 
L 192.154711 239.561131 
L 195.216535 238.543753 
L 199.356082 237.168917 
L 202.41809 236.151544 
L 206.564838 234.804205 
L 210.62536 233.456871 
L 213.686815 232.439492 
L 217.825992 231.092159 
L 220.887632 230.07478 
L 225.033825 228.699944 
L 229.093793 227.352611 
L 232.155064 226.307736 
L 236.293872 224.960402 
L 239.355881 223.970494 
L 243.501705 222.568226 
L 247.590846 221.193378 
L 250.682581 220.175999 
L 254.850377 218.801151 
L 257.941743 217.756289 
L 262.117478 216.408924 
L 265.208106 215.391545 
L 269.268997 214.044243 
L 273.436978 212.669394 
L 276.528528 211.652016 
L 280.702602 210.249684 
L 283.793414 209.232305 
L 287.882001 207.885003 
L 291.035589 206.840078 
L 295.124915 205.465293 
L 299.299542 204.090445 
L 302.390354 203.073066 
L 306.478018 201.725701 
L 309.64767 200.680839 
L 313.72204 199.333537 
L 316.898708 198.288612 
L 320.98711 196.913827 
L 325.074404 195.566462 
L 328.243872 194.549083 
L 332.330982 193.174235 
L 335.477923 192.129373 
L 339.564664 190.782071 
L 343.651773 189.407223 
L 346.820871 188.389844 
L 350.907612 187.042479 
L 354.084095 185.970134 
L 358.140186 184.622768 
L 361.229152 183.60539 
L 365.395102 182.230604 
L 369.480734 180.855756 
L 372.656664 179.810894 
L 376.741743 178.436046 
L 379.831262 177.418667 
L 383.995735 176.071365 
L 387.08507 175.081469 
L 391.257666 173.679138 
L 395.342376 172.30429 
L 398.43208 171.286911 
L 402.595814 169.912063 
L 405.684964 168.894684 
L 409.855899 167.492353 
L 412.945234 166.474974 
L 417.031236 165.127672 
L 421.194047 163.752824 
L 424.270273 162.762928 
" clip-path="url(#pdc207b0601)" style="fill: none; stroke: #9467bd; stroke-width: 1.5; stroke-linecap: square"/>
   </g>
   <g id="line2d_24">
    <path d="M 59.02767 286.085531 
L 62.99329 285.398113 
L 66.063422 284.325743 
L 70.219402 282.895915 
L 74.295802 281.878539 
L 77.451237 281.191121 
L 81.55958 280.091254 
L 88.782 278.166486 
L 91.85084 277.341589 
L 96.013281 276.186726 
L 100.088021 275.059364 
L 103.140613 274.234461 
L 107.293269 273.134595 
L 110.361186 272.337188 
L 114.521043 271.237323 
L 118.579349 270.247446 
L 121.648189 269.477534 
L 125.800661 268.377669 
L 128.853068 267.635259 
L 133.013109 266.61788 
L 136.080842 265.847976 
L 140.155951 264.830597 
L 144.307868 263.785722 
L 147.37597 263.015817 
L 151.535641 261.998438 
L 154.603559 261.228534 
L 158.676082 260.183659 
L 162.826892 259.16628 
L 165.894809 258.423871 
L 170.053557 257.378996 
L 173.105227 256.581589 
L 177.178304 255.564217 
L 181.313235 254.574334 
L 184.380783 253.804429 
L 188.539162 252.78705 
L 191.591385 252.017139 
L 195.647107 251.027262 
L 199.797362 249.982387 
L 202.86528 249.212476 
L 207.006488 248.167602 
L 210.057419 247.425193 
L 214.128465 246.435309 
L 218.277982 245.335443 
L 221.344791 244.565539 
L 225.502432 243.575655 
L 228.569426 242.833246 
L 232.63955 241.815867 
L 235.785014 241.018467 
L 239.85643 240.028584 
L 244.013701 238.983709 
L 247.109868 238.186302 
L 251.209902 237.196425 
L 254.385463 236.426514 
L 258.438784 235.409135 
L 262.610642 234.364267 
L 265.706993 233.621858 
L 269.806289 232.604479 
L 272.98148 231.807072 
L 277.080222 230.762204 
L 280.261875 229.992293 
L 284.361725 228.974914 
L 288.459728 227.930046 
L 291.633996 227.160141 
L 295.731814 226.142762 
L 298.913652 225.345355 
L 303.01184 224.327976 
L 306.107638 223.558059 
L 310.285958 222.54068 
L 313.38194 221.798258 
L 317.567461 220.753396 
L 321.665279 219.736017 
L 324.748152 218.993595 
L 328.924257 217.92125 
L 332.0195 217.123862 
L 336.202805 216.106483 
L 339.281801 215.364062 
L 343.380543 214.3192 
L 347.556832 213.274338 
L 350.651521 212.531916 
L 354.820794 211.487054 
L 357.915115 210.717149 
L 362.011272 209.672287 
L 369.269141 207.912486 
L 372.45024 207.115098 
L 376.548059 206.09772 
L 380.64477 205.080341 
L 383.81793 204.310436 
L 387.913718 203.265511 
L 391.094448 202.468123 
L 395.189866 201.478227 
L 398.284371 200.708322 
L 402.459737 199.66346 
L 406.555155 198.618598 
L 409.73607 197.848693 
L 413.83075 196.831315 
L 416.911776 196.088893 
L 421.085665 195.044031 
L 424.179247 194.274126 
" clip-path="url(#pdc207b0601)" style="fill: none; stroke: #8c564b; stroke-width: 1.5; stroke-linecap: square"/>
   </g>
   <g id="line2d_25">
    <path d="M 59.03044 286.827941 
L 63.048127 286.278007 
L 66.208731 285.480604 
L 70.296026 284.710697 
L 73.371513 284.27075 
L 77.537832 283.500843 
L 81.641559 282.648446 
L 84.818781 282.043519 
L 88.937463 281.383599 
L 92.045447 280.861159 
L 96.226352 280.091254 
L 99.268235 279.513825 
L 103.441201 278.771416 
L 106.515027 278.248979 
L 110.584965 277.589057 
L 114.749068 276.846648 
L 117.807385 276.32421 
L 121.978504 275.609297 
L 125.021126 275.114355 
L 129.107128 274.481929 
L 133.254614 273.794511 
L 136.312561 273.244578 
L 140.482941 272.584662 
L 143.556398 272.089721 
L 147.623752 271.374807 
L 151.786378 270.659894 
L 154.860203 270.164952 
L 159.030399 269.477534 
L 162.103856 268.955097 
L 166.187457 268.295175 
L 169.340123 267.772738 
L 173.424832 267.08532 
L 177.594659 266.397902 
L 180.652052 265.875465 
L 184.734915 265.215549 
L 187.887396 264.720608 
L 191.96989 264.03319 
L 196.122545 263.318276 
L 199.195633 262.823335 
L 203.245446 262.163413 
L 206.397742 261.61348 
L 210.480051 260.953558 
L 213.639179 260.431127 
L 217.706348 259.743709 
L 221.788288 259.083787 
L 224.940399 258.561349 
L 229.021416 257.873932 
L 232.163926 257.351494 
L 236.245497 256.691572 
L 240.327252 256.004155 
L 243.478995 255.481724 
L 247.589368 254.821801 
L 250.777115 254.299364 
L 254.888043 253.611946 
L 257.989564 253.117011 
L 262.150159 252.429593 
L 266.260533 251.71468 
L 269.435354 251.192243 
L 273.54499 250.504825 
L 276.646326 249.982387 
L 280.834801 249.322465 
L 283.921182 248.800034 
L 288.118335 248.112617 
L 291.219672 247.590179 
L 295.33023 246.930257 
L 299.518336 246.215344 
L 302.619119 245.720402 
L 306.801501 245.005489 
L 309.90376 244.483051 
L 314.012842 243.795634 
L 317.192833 243.300698 
L 321.303392 242.613281 
L 324.4904 242.063348 
L 328.60022 241.403425 
L 332.693792 240.716008 
L 335.873968 240.19357 
L 339.982311 239.506159 
L 343.169503 238.983722 
L 347.277477 238.3238 
L 350.37789 237.801362 
L 354.553256 237.113944 
L 357.654223 236.591507 
L 361.849345 235.931591 
L 365.957135 235.244174 
L 369.012866 234.749232 
L 373.199125 234.034319 
L 376.298985 233.511881 
L 380.493183 232.82447 
L 383.593597 232.329528 
L 387.701755 231.614615 
L 390.880639 231.092177 
L 394.988982 230.432255 
L 399.181703 229.717342 
L 402.281932 229.194905 
L 406.388059 228.534982 
L 409.566943 228.012551 
L 413.657561 227.325134 
L 416.830167 226.802696 
L 420.937402 226.115285 
L 425.04353 225.427867 
" clip-path="url(#pdc207b0601)" style="fill: none; stroke: #e377c2; stroke-width: 1.5; stroke-linecap: square"/>
   </g>
   <g id="line2d_26">
    <path d="M 59.049458 287.185398 
L 62.998829 286.910431 
L 66.169404 286.470484 
L 70.255036 286.168021 
L 74.316851 285.920551 
L 77.439975 285.59059 
L 81.555518 285.123147 
L 84.756004 284.820683 
L 88.850869 284.490723 
L 92.94518 284.10577 
L 96.101538 283.830803 
L 100.213019 283.473346 
L 103.37584 283.170883 
L 107.469043 282.813426 
L 110.546007 282.565956 
L 114.720634 282.208499 
L 118.782264 281.851042 
L 121.929021 281.576075 
L 126.022039 281.246115 
L 129.098265 280.998644 
L 133.269939 280.668683 
L 136.313299 280.393719 
L 140.460231 280.063758 
L 144.519461 279.733797 
L 147.562268 279.48633 
L 151.699229 279.101371 
L 154.742959 278.853903 
L 158.873089 278.496447 
L 162.932134 278.166486 
L 165.975126 277.919018 
L 170.111903 277.561561 
L 174.170948 277.2316 
L 177.284285 276.984126 
L 181.326529 276.654165 
L 184.353641 276.379202 
L 188.491711 276.049241 
L 192.549833 275.71928 
L 195.679603 275.444316 
L 199.721292 275.114355 
L 202.764099 274.894383 
L 206.900876 274.536927 
L 210.958259 274.151968 
L 214.086922 273.931996 
L 218.143751 273.602035 
L 222.201135 273.217082 
L 225.321673 272.942119 
L 229.378133 272.639654 
L 232.490179 272.419682 
L 236.548116 272.034729 
L 240.588882 271.704768 
L 243.709421 271.484796 
L 247.765696 271.154835 
L 250.923901 270.85237 
L 254.995686 270.549905 
L 259.081872 270.247439 
L 262.232137 269.944974 
L 266.31777 269.587517 
L 269.462681 269.34005 
L 273.548683 269.010089 
L 276.620477 268.762621 
L 280.785873 268.405164 
L 284.872059 268.075203 
L 288.030079 267.800234 
L 292.101495 267.497774 
L 295.156672 267.222805 
L 299.320221 266.892844 
L 303.404562 266.562883 
L 306.562581 266.287919 
L 310.647291 265.930463 
L 313.718347 265.682995 
L 317.866202 265.353034 
L 320.936889 265.078064 
L 325.108562 264.748103 
L 329.193087 264.418142 
L 332.264512 264.170675 
L 336.427323 263.813218 
L 339.498564 263.56575 
L 343.668391 263.208293 
L 347.752916 262.878332 
L 350.807908 262.603363 
L 354.970165 262.273402 
L 358.040483 262.05343 
L 362.196646 261.668477 
L 365.252932 261.393508 
L 369.336903 261.118538 
L 373.483096 260.761081 
L 376.553229 260.458622 
L 380.724164 260.128661 
L 383.793558 259.908683 
L 387.875867 259.551226 
L 392.037385 259.19377 
L 395.107703 258.973798 
L 399.276237 258.616341 
L 402.331969 258.313876 
L 406.432003 257.983914 
L 409.566389 257.763943 
L 413.649622 257.433982 
L 417.817971 257.049029 
L 420.88792 256.801555 
L 424.986846 256.471594 
" clip-path="url(#pdc207b0601)" style="fill: none; stroke: #7f7f7f; stroke-width: 1.5; stroke-linecap: square"/>
   </g>
   <g id="patch_3">
    <path d="M 40.603125 299.798125 
L 40.603125 22.318125 
" style="fill: none; stroke: #000000; stroke-width: 0.8; stroke-linejoin: miter; stroke-linecap: square"/>
   </g>
   <g id="patch_4">
    <path d="M 445.943125 299.798125 
L 445.943125 22.318125 
" style="fill: none; stroke: #000000; stroke-width: 0.8; stroke-linejoin: miter; stroke-linecap: square"/>
   </g>
   <g id="patch_5">
    <path d="M 40.603125 299.798125 
L 445.943125 299.798125 
" style="fill: none; stroke: #000000; stroke-width: 0.8; stroke-linejoin: miter; stroke-linecap: square"/>
   </g>
   <g id="patch_6">
    <path d="M 40.603125 22.318125 
L 445.943125 22.318125 
" style="fill: none; stroke: #000000; stroke-width: 0.8; stroke-linejoin: miter; stroke-linecap: square"/>
   </g>
   <g id="text_22">
    <!-- left theta vs. time -->
    <g transform="translate(189.819688 16.318125) scale(0.12 -0.12)">
     <defs>
      <path id="DejaVuSans-76" d="M 191 3500 
L 800 3500 
L 1894 563 
L 2988 3500 
L 3597 3500 
L 2284 0 
L 1503 0 
L 191 3500 
z
" transform="scale(0.015625)"/>
     </defs>
     <use xlink:href="#DejaVuSans-6c"/>
     <use xlink:href="#DejaVuSans-65" transform="translate(27.783203 0)"/>
     <use xlink:href="#DejaVuSans-66" transform="translate(89.306641 0)"/>
     <use xlink:href="#DejaVuSans-74" transform="translate(122.761719 0)"/>
     <use xlink:href="#DejaVuSans-20" transform="translate(161.970703 0)"/>
     <use xlink:href="#DejaVuSans-74" transform="translate(193.757812 0)"/>
     <use xlink:href="#DejaVuSans-68" transform="translate(232.966797 0)"/>
     <use xlink:href="#DejaVuSans-65" transform="translate(296.345703 0)"/>
     <use xlink:href="#DejaVuSans-74" transform="translate(357.869141 0)"/>
     <use xlink:href="#DejaVuSans-61" transform="translate(397.078125 0)"/>
     <use xlink:href="#DejaVuSans-20" transform="translate(458.357422 0)"/>
     <use xlink:href="#DejaVuSans-76" transform="translate(490.144531 0)"/>
     <use xlink:href="#DejaVuSans-73" transform="translate(549.324219 0)"/>
     <use xlink:href="#DejaVuSans-2e" transform="translate(601.423828 0)"/>
     <use xlink:href="#DejaVuSans-20" transform="translate(633.210938 0)"/>
     <use xlink:href="#DejaVuSans-74" transform="translate(664.998047 0)"/>
     <use xlink:href="#DejaVuSans-69" transform="translate(704.207031 0)"/>
     <use xlink:href="#DejaVuSans-6d" transform="translate(731.990234 0)"/>
     <use xlink:href="#DejaVuSans-65" transform="translate(829.402344 0)"/>
    </g>
   </g>
   <g id="legend_1">
    <g id="patch_7">
     <path d="M 47.603125 147.743125 
L 164.128125 147.743125 
Q 166.128125 147.743125 166.128125 145.743125 
L 166.128125 29.318125 
Q 166.128125 27.318125 164.128125 27.318125 
L 47.603125 27.318125 
Q 45.603125 27.318125 45.603125 29.318125 
L 45.603125 145.743125 
Q 45.603125 147.743125 47.603125 147.743125 
z
" style="fill: #ffffff; opacity: 0.8; stroke: #cccccc; stroke-linejoin: miter"/>
    </g>
    <g id="line2d_27">
     <path d="M 49.603125 35.416563 
L 59.603125 35.416563 
L 69.603125 35.416563 
" style="fill: none; stroke: #1f77b4; stroke-width: 1.5; stroke-linecap: square"/>
    </g>
    <g id="text_23">
     <!-- Ref Speed = 680 -->
     <g transform="translate(77.603125 38.916563) scale(0.1 -0.1)">
      <defs>
       <path id="DejaVuSans-52" d="M 2841 2188 
Q 3044 2119 3236 1894 
Q 3428 1669 3622 1275 
L 4263 0 
L 3584 0 
L 2988 1197 
Q 2756 1666 2539 1819 
Q 2322 1972 1947 1972 
L 1259 1972 
L 1259 0 
L 628 0 
L 628 4666 
L 2053 4666 
Q 2853 4666 3247 4331 
Q 3641 3997 3641 3322 
Q 3641 2881 3436 2590 
Q 3231 2300 2841 2188 
z
M 1259 4147 
L 1259 2491 
L 2053 2491 
Q 2509 2491 2742 2702 
Q 2975 2913 2975 3322 
Q 2975 3731 2742 3939 
Q 2509 4147 2053 4147 
L 1259 4147 
z
" transform="scale(0.015625)"/>
       <path id="DejaVuSans-53" d="M 3425 4513 
L 3425 3897 
Q 3066 4069 2747 4153 
Q 2428 4238 2131 4238 
Q 1616 4238 1336 4038 
Q 1056 3838 1056 3469 
Q 1056 3159 1242 3001 
Q 1428 2844 1947 2747 
L 2328 2669 
Q 3034 2534 3370 2195 
Q 3706 1856 3706 1288 
Q 3706 609 3251 259 
Q 2797 -91 1919 -91 
Q 1588 -91 1214 -16 
Q 841 59 441 206 
L 441 856 
Q 825 641 1194 531 
Q 1563 422 1919 422 
Q 2459 422 2753 634 
Q 3047 847 3047 1241 
Q 3047 1584 2836 1778 
Q 2625 1972 2144 2069 
L 1759 2144 
Q 1053 2284 737 2584 
Q 422 2884 422 3419 
Q 422 4038 858 4394 
Q 1294 4750 2059 4750 
Q 2388 4750 2728 4690 
Q 3069 4631 3425 4513 
z
" transform="scale(0.015625)"/>
       <path id="DejaVuSans-70" d="M 1159 525 
L 1159 -1331 
L 581 -1331 
L 581 3500 
L 1159 3500 
L 1159 2969 
Q 1341 3281 1617 3432 
Q 1894 3584 2278 3584 
Q 2916 3584 3314 3078 
Q 3713 2572 3713 1747 
Q 3713 922 3314 415 
Q 2916 -91 2278 -91 
Q 1894 -91 1617 61 
Q 1341 213 1159 525 
z
M 3116 1747 
Q 3116 2381 2855 2742 
Q 2594 3103 2138 3103 
Q 1681 3103 1420 2742 
Q 1159 2381 1159 1747 
Q 1159 1113 1420 752 
Q 1681 391 2138 391 
Q 2594 391 2855 752 
Q 3116 1113 3116 1747 
z
" transform="scale(0.015625)"/>
       <path id="DejaVuSans-3d" d="M 678 2906 
L 4684 2906 
L 4684 2381 
L 678 2381 
L 678 2906 
z
M 678 1631 
L 4684 1631 
L 4684 1100 
L 678 1100 
L 678 1631 
z
" transform="scale(0.015625)"/>
       <path id="DejaVuSans-38" d="M 2034 2216 
Q 1584 2216 1326 1975 
Q 1069 1734 1069 1313 
Q 1069 891 1326 650 
Q 1584 409 2034 409 
Q 2484 409 2743 651 
Q 3003 894 3003 1313 
Q 3003 1734 2745 1975 
Q 2488 2216 2034 2216 
z
M 1403 2484 
Q 997 2584 770 2862 
Q 544 3141 544 3541 
Q 544 4100 942 4425 
Q 1341 4750 2034 4750 
Q 2731 4750 3128 4425 
Q 3525 4100 3525 3541 
Q 3525 3141 3298 2862 
Q 3072 2584 2669 2484 
Q 3125 2378 3379 2068 
Q 3634 1759 3634 1313 
Q 3634 634 3220 271 
Q 2806 -91 2034 -91 
Q 1263 -91 848 271 
Q 434 634 434 1313 
Q 434 1759 690 2068 
Q 947 2378 1403 2484 
z
M 1172 3481 
Q 1172 3119 1398 2916 
Q 1625 2713 2034 2713 
Q 2441 2713 2670 2916 
Q 2900 3119 2900 3481 
Q 2900 3844 2670 4047 
Q 2441 4250 2034 4250 
Q 1625 4250 1398 4047 
Q 1172 3844 1172 3481 
z
" transform="scale(0.015625)"/>
      </defs>
      <use xlink:href="#DejaVuSans-52"/>
      <use xlink:href="#DejaVuSans-65" transform="translate(64.982422 0)"/>
      <use xlink:href="#DejaVuSans-66" transform="translate(126.505859 0)"/>
      <use xlink:href="#DejaVuSans-20" transform="translate(161.710938 0)"/>
      <use xlink:href="#DejaVuSans-53" transform="translate(193.498047 0)"/>
      <use xlink:href="#DejaVuSans-70" transform="translate(256.974609 0)"/>
      <use xlink:href="#DejaVuSans-65" transform="translate(320.451172 0)"/>
      <use xlink:href="#DejaVuSans-65" transform="translate(381.974609 0)"/>
      <use xlink:href="#DejaVuSans-64" transform="translate(443.498047 0)"/>
      <use xlink:href="#DejaVuSans-20" transform="translate(506.974609 0)"/>
      <use xlink:href="#DejaVuSans-3d" transform="translate(538.761719 0)"/>
      <use xlink:href="#DejaVuSans-20" transform="translate(622.550781 0)"/>
      <use xlink:href="#DejaVuSans-36" transform="translate(654.337891 0)"/>
      <use xlink:href="#DejaVuSans-38" transform="translate(717.960938 0)"/>
      <use xlink:href="#DejaVuSans-30" transform="translate(781.583984 0)"/>
     </g>
    </g>
    <g id="line2d_28">
     <path d="M 49.603125 50.094688 
L 59.603125 50.094688 
L 69.603125 50.094688 
" style="fill: none; stroke: #ff7f0e; stroke-width: 1.5; stroke-linecap: square"/>
    </g>
    <g id="text_24">
     <!-- Ref Speed = 595 -->
     <g transform="translate(77.603125 53.594688) scale(0.1 -0.1)">
      <defs>
       <path id="DejaVuSans-39" d="M 703 97 
L 703 672 
Q 941 559 1184 500 
Q 1428 441 1663 441 
Q 2288 441 2617 861 
Q 2947 1281 2994 2138 
Q 2813 1869 2534 1725 
Q 2256 1581 1919 1581 
Q 1219 1581 811 2004 
Q 403 2428 403 3163 
Q 403 3881 828 4315 
Q 1253 4750 1959 4750 
Q 2769 4750 3195 4129 
Q 3622 3509 3622 2328 
Q 3622 1225 3098 567 
Q 2575 -91 1691 -91 
Q 1453 -91 1209 -44 
Q 966 3 703 97 
z
M 1959 2075 
Q 2384 2075 2632 2365 
Q 2881 2656 2881 3163 
Q 2881 3666 2632 3958 
Q 2384 4250 1959 4250 
Q 1534 4250 1286 3958 
Q 1038 3666 1038 3163 
Q 1038 2656 1286 2365 
Q 1534 2075 1959 2075 
z
" transform="scale(0.015625)"/>
      </defs>
      <use xlink:href="#DejaVuSans-52"/>
      <use xlink:href="#DejaVuSans-65" transform="translate(64.982422 0)"/>
      <use xlink:href="#DejaVuSans-66" transform="translate(126.505859 0)"/>
      <use xlink:href="#DejaVuSans-20" transform="translate(161.710938 0)"/>
      <use xlink:href="#DejaVuSans-53" transform="translate(193.498047 0)"/>
      <use xlink:href="#DejaVuSans-70" transform="translate(256.974609 0)"/>
      <use xlink:href="#DejaVuSans-65" transform="translate(320.451172 0)"/>
      <use xlink:href="#DejaVuSans-65" transform="translate(381.974609 0)"/>
      <use xlink:href="#DejaVuSans-64" transform="translate(443.498047 0)"/>
      <use xlink:href="#DejaVuSans-20" transform="translate(506.974609 0)"/>
      <use xlink:href="#DejaVuSans-3d" transform="translate(538.761719 0)"/>
      <use xlink:href="#DejaVuSans-20" transform="translate(622.550781 0)"/>
      <use xlink:href="#DejaVuSans-35" transform="translate(654.337891 0)"/>
      <use xlink:href="#DejaVuSans-39" transform="translate(717.960938 0)"/>
      <use xlink:href="#DejaVuSans-35" transform="translate(781.583984 0)"/>
     </g>
    </g>
    <g id="line2d_29">
     <path d="M 49.603125 64.772813 
L 59.603125 64.772813 
L 69.603125 64.772813 
" style="fill: none; stroke: #2ca02c; stroke-width: 1.5; stroke-linecap: square"/>
    </g>
    <g id="text_25">
     <!-- Ref Speed = 510 -->
     <g transform="translate(77.603125 68.272813) scale(0.1 -0.1)">
      <use xlink:href="#DejaVuSans-52"/>
      <use xlink:href="#DejaVuSans-65" transform="translate(64.982422 0)"/>
      <use xlink:href="#DejaVuSans-66" transform="translate(126.505859 0)"/>
      <use xlink:href="#DejaVuSans-20" transform="translate(161.710938 0)"/>
      <use xlink:href="#DejaVuSans-53" transform="translate(193.498047 0)"/>
      <use xlink:href="#DejaVuSans-70" transform="translate(256.974609 0)"/>
      <use xlink:href="#DejaVuSans-65" transform="translate(320.451172 0)"/>
      <use xlink:href="#DejaVuSans-65" transform="translate(381.974609 0)"/>
      <use xlink:href="#DejaVuSans-64" transform="translate(443.498047 0)"/>
      <use xlink:href="#DejaVuSans-20" transform="translate(506.974609 0)"/>
      <use xlink:href="#DejaVuSans-3d" transform="translate(538.761719 0)"/>
      <use xlink:href="#DejaVuSans-20" transform="translate(622.550781 0)"/>
      <use xlink:href="#DejaVuSans-35" transform="translate(654.337891 0)"/>
      <use xlink:href="#DejaVuSans-31" transform="translate(717.960938 0)"/>
      <use xlink:href="#DejaVuSans-30" transform="translate(781.583984 0)"/>
     </g>
    </g>
    <g id="line2d_30">
     <path d="M 49.603125 79.450938 
L 59.603125 79.450938 
L 69.603125 79.450938 
" style="fill: none; stroke: #d62728; stroke-width: 1.5; stroke-linecap: square"/>
    </g>
    <g id="text_26">
     <!-- Ref Speed = 425 -->
     <g transform="translate(77.603125 82.950938) scale(0.1 -0.1)">
      <use xlink:href="#DejaVuSans-52"/>
      <use xlink:href="#DejaVuSans-65" transform="translate(64.982422 0)"/>
      <use xlink:href="#DejaVuSans-66" transform="translate(126.505859 0)"/>
      <use xlink:href="#DejaVuSans-20" transform="translate(161.710938 0)"/>
      <use xlink:href="#DejaVuSans-53" transform="translate(193.498047 0)"/>
      <use xlink:href="#DejaVuSans-70" transform="translate(256.974609 0)"/>
      <use xlink:href="#DejaVuSans-65" transform="translate(320.451172 0)"/>
      <use xlink:href="#DejaVuSans-65" transform="translate(381.974609 0)"/>
      <use xlink:href="#DejaVuSans-64" transform="translate(443.498047 0)"/>
      <use xlink:href="#DejaVuSans-20" transform="translate(506.974609 0)"/>
      <use xlink:href="#DejaVuSans-3d" transform="translate(538.761719 0)"/>
      <use xlink:href="#DejaVuSans-20" transform="translate(622.550781 0)"/>
      <use xlink:href="#DejaVuSans-34" transform="translate(654.337891 0)"/>
      <use xlink:href="#DejaVuSans-32" transform="translate(717.960938 0)"/>
      <use xlink:href="#DejaVuSans-35" transform="translate(781.583984 0)"/>
     </g>
    </g>
    <g id="line2d_31">
     <path d="M 49.603125 94.129063 
L 59.603125 94.129063 
L 69.603125 94.129063 
" style="fill: none; stroke: #9467bd; stroke-width: 1.5; stroke-linecap: square"/>
    </g>
    <g id="text_27">
     <!-- Ref Speed = 340 -->
     <g transform="translate(77.603125 97.629063) scale(0.1 -0.1)">
      <use xlink:href="#DejaVuSans-52"/>
      <use xlink:href="#DejaVuSans-65" transform="translate(64.982422 0)"/>
      <use xlink:href="#DejaVuSans-66" transform="translate(126.505859 0)"/>
      <use xlink:href="#DejaVuSans-20" transform="translate(161.710938 0)"/>
      <use xlink:href="#DejaVuSans-53" transform="translate(193.498047 0)"/>
      <use xlink:href="#DejaVuSans-70" transform="translate(256.974609 0)"/>
      <use xlink:href="#DejaVuSans-65" transform="translate(320.451172 0)"/>
      <use xlink:href="#DejaVuSans-65" transform="translate(381.974609 0)"/>
      <use xlink:href="#DejaVuSans-64" transform="translate(443.498047 0)"/>
      <use xlink:href="#DejaVuSans-20" transform="translate(506.974609 0)"/>
      <use xlink:href="#DejaVuSans-3d" transform="translate(538.761719 0)"/>
      <use xlink:href="#DejaVuSans-20" transform="translate(622.550781 0)"/>
      <use xlink:href="#DejaVuSans-33" transform="translate(654.337891 0)"/>
      <use xlink:href="#DejaVuSans-34" transform="translate(717.960938 0)"/>
      <use xlink:href="#DejaVuSans-30" transform="translate(781.583984 0)"/>
     </g>
    </g>
    <g id="line2d_32">
     <path d="M 49.603125 108.807188 
L 59.603125 108.807188 
L 69.603125 108.807188 
" style="fill: none; stroke: #8c564b; stroke-width: 1.5; stroke-linecap: square"/>
    </g>
    <g id="text_28">
     <!-- Ref Speed = 255 -->
     <g transform="translate(77.603125 112.307188) scale(0.1 -0.1)">
      <use xlink:href="#DejaVuSans-52"/>
      <use xlink:href="#DejaVuSans-65" transform="translate(64.982422 0)"/>
      <use xlink:href="#DejaVuSans-66" transform="translate(126.505859 0)"/>
      <use xlink:href="#DejaVuSans-20" transform="translate(161.710938 0)"/>
      <use xlink:href="#DejaVuSans-53" transform="translate(193.498047 0)"/>
      <use xlink:href="#DejaVuSans-70" transform="translate(256.974609 0)"/>
      <use xlink:href="#DejaVuSans-65" transform="translate(320.451172 0)"/>
      <use xlink:href="#DejaVuSans-65" transform="translate(381.974609 0)"/>
      <use xlink:href="#DejaVuSans-64" transform="translate(443.498047 0)"/>
      <use xlink:href="#DejaVuSans-20" transform="translate(506.974609 0)"/>
      <use xlink:href="#DejaVuSans-3d" transform="translate(538.761719 0)"/>
      <use xlink:href="#DejaVuSans-20" transform="translate(622.550781 0)"/>
      <use xlink:href="#DejaVuSans-32" transform="translate(654.337891 0)"/>
      <use xlink:href="#DejaVuSans-35" transform="translate(717.960938 0)"/>
      <use xlink:href="#DejaVuSans-35" transform="translate(781.583984 0)"/>
     </g>
    </g>
    <g id="line2d_33">
     <path d="M 49.603125 123.485313 
L 59.603125 123.485313 
L 69.603125 123.485313 
" style="fill: none; stroke: #e377c2; stroke-width: 1.5; stroke-linecap: square"/>
    </g>
    <g id="text_29">
     <!-- Ref Speed = 170 -->
     <g transform="translate(77.603125 126.985313) scale(0.1 -0.1)">
      <use xlink:href="#DejaVuSans-52"/>
      <use xlink:href="#DejaVuSans-65" transform="translate(64.982422 0)"/>
      <use xlink:href="#DejaVuSans-66" transform="translate(126.505859 0)"/>
      <use xlink:href="#DejaVuSans-20" transform="translate(161.710938 0)"/>
      <use xlink:href="#DejaVuSans-53" transform="translate(193.498047 0)"/>
      <use xlink:href="#DejaVuSans-70" transform="translate(256.974609 0)"/>
      <use xlink:href="#DejaVuSans-65" transform="translate(320.451172 0)"/>
      <use xlink:href="#DejaVuSans-65" transform="translate(381.974609 0)"/>
      <use xlink:href="#DejaVuSans-64" transform="translate(443.498047 0)"/>
      <use xlink:href="#DejaVuSans-20" transform="translate(506.974609 0)"/>
      <use xlink:href="#DejaVuSans-3d" transform="translate(538.761719 0)"/>
      <use xlink:href="#DejaVuSans-20" transform="translate(622.550781 0)"/>
      <use xlink:href="#DejaVuSans-31" transform="translate(654.337891 0)"/>
      <use xlink:href="#DejaVuSans-37" transform="translate(717.960938 0)"/>
      <use xlink:href="#DejaVuSans-30" transform="translate(781.583984 0)"/>
     </g>
    </g>
    <g id="line2d_34">
     <path d="M 49.603125 138.163438 
L 59.603125 138.163438 
L 69.603125 138.163438 
" style="fill: none; stroke: #7f7f7f; stroke-width: 1.5; stroke-linecap: square"/>
    </g>
    <g id="text_30">
     <!-- Ref Speed = 85 -->
     <g transform="translate(77.603125 141.663438) scale(0.1 -0.1)">
      <use xlink:href="#DejaVuSans-52"/>
      <use xlink:href="#DejaVuSans-65" transform="translate(64.982422 0)"/>
      <use xlink:href="#DejaVuSans-66" transform="translate(126.505859 0)"/>
      <use xlink:href="#DejaVuSans-20" transform="translate(161.710938 0)"/>
      <use xlink:href="#DejaVuSans-53" transform="translate(193.498047 0)"/>
      <use xlink:href="#DejaVuSans-70" transform="translate(256.974609 0)"/>
      <use xlink:href="#DejaVuSans-65" transform="translate(320.451172 0)"/>
      <use xlink:href="#DejaVuSans-65" transform="translate(381.974609 0)"/>
      <use xlink:href="#DejaVuSans-64" transform="translate(443.498047 0)"/>
      <use xlink:href="#DejaVuSans-20" transform="translate(506.974609 0)"/>
      <use xlink:href="#DejaVuSans-3d" transform="translate(538.761719 0)"/>
      <use xlink:href="#DejaVuSans-20" transform="translate(622.550781 0)"/>
      <use xlink:href="#DejaVuSans-38" transform="translate(654.337891 0)"/>
      <use xlink:href="#DejaVuSans-35" transform="translate(717.960938 0)"/>
     </g>
    </g>
   </g>
  </g>
 </g>
 <defs>
  <clipPath id="pdc207b0601">
   <rect x="40.603125" y="22.318125" width="405.34" height="277.48"/>
  </clipPath>
 </defs>
</svg>
