<?xml version="1.0" encoding="utf-8" standalone="no"?>
<!DOCTYPE svg PUBLIC "-//W3C//DTD SVG 1.1//EN"
  "http://www.w3.org/Graphics/SVG/1.1/DTD/svg11.dtd">
<svg xmlns:xlink="http://www.w3.org/1999/xlink" width="453.143125pt" height="337.354375pt" viewBox="0 0 453.143125 337.354375" xmlns="http://www.w3.org/2000/svg" version="1.1">
 <metadata>
  <rdf:RDF xmlns:dc="http://purl.org/dc/elements/1.1/" xmlns:cc="http://creativecommons.org/ns#" xmlns:rdf="http://www.w3.org/1999/02/22-rdf-syntax-ns#">
   <cc:Work>
    <dc:type rdf:resource="http://purl.org/dc/dcmitype/StillImage"/>
    <dc:date>2025-10-29T19:57:21.594854</dc:date>
    <dc:format>image/svg+xml</dc:format>
    <dc:creator>
     <cc:Agent>
      <dc:title>Matplotlib v3.10.6, https://matplotlib.org/</dc:title>
     </cc:Agent>
    </dc:creator>
   </cc:Work>
  </rdf:RDF>
 </metadata>
 <defs>
  <style type="text/css">*{stroke-linejoin: round; stroke-linecap: butt}</style>
 </defs>
 <g id="figure_1">
  <g id="patch_1">
   <path d="M 0 337.354375 
L 453.143125 337.354375 
L 453.143125 0 
L 0 0 
z
" style="fill: #ffffff"/>
  </g>
  <g id="axes_1">
   <g id="patch_2">
    <path d="M 40.603125 299.798125 
L 445.943125 299.798125 
L 445.943125 22.318125 
L 40.603125 22.318125 
z
" style="fill: #ffffff"/>
   </g>
   <g id="matplotlib.axis_1">
    <g id="xtick_1">
     <g id="line2d_1">
      <defs>
       <path id="m40aa4d8424" d="M 0 0 
L 0 3.5 
" style="stroke: #000000; stroke-width: 0.8"/>
      </defs>
      <g>
       <use xlink:href="#m40aa4d8424" x="59.02767" y="299.798125" style="stroke: #000000; stroke-width: 0.8"/>
      </g>
     </g>
     <g id="text_1">
      <!-- 0 -->
      <g transform="translate(55.84642 314.396563) scale(0.1 -0.1)">
       <defs>
        <path id="DejaVuSans-30" d="M 2034 4250 
Q 1547 4250 1301 3770 
Q 1056 3291 1056 2328 
Q 1056 1369 1301 889 
Q 1547 409 2034 409 
Q 2525 409 2770 889 
Q 3016 1369 3016 2328 
Q 3016 3291 2770 3770 
Q 2525 4250 2034 4250 
z
M 2034 4750 
Q 2819 4750 3233 4129 
Q 3647 3509 3647 2328 
Q 3647 1150 3233 529 
Q 2819 -91 2034 -91 
Q 1250 -91 836 529 
Q 422 1150 422 2328 
Q 422 3509 836 4129 
Q 1250 4750 2034 4750 
z
" transform="scale(0.015625)"/>
       </defs>
       <use xlink:href="#DejaVuSans-30"/>
      </g>
     </g>
    </g>
    <g id="xtick_2">
     <g id="line2d_2">
      <g>
       <use xlink:href="#m40aa4d8424" x="104.962541" y="299.798125" style="stroke: #000000; stroke-width: 0.8"/>
      </g>
     </g>
     <g id="text_2">
      <!-- 5 -->
      <g transform="translate(101.781291 314.396563) scale(0.1 -0.1)">
       <defs>
        <path id="DejaVuSans-35" d="M 691 4666 
L 3169 4666 
L 3169 4134 
L 1269 4134 
L 1269 2991 
Q 1406 3038 1543 3061 
Q 1681 3084 1819 3084 
Q 2600 3084 3056 2656 
Q 3513 2228 3513 1497 
Q 3513 744 3044 326 
Q 2575 -91 1722 -91 
Q 1428 -91 1123 -41 
Q 819 9 494 109 
L 494 744 
Q 775 591 1075 516 
Q 1375 441 1709 441 
Q 2250 441 2565 725 
Q 2881 1009 2881 1497 
Q 2881 1984 2565 2268 
Q 2250 2553 1709 2553 
Q 1456 2553 1204 2497 
Q 953 2441 691 2322 
L 691 4666 
z
" transform="scale(0.015625)"/>
       </defs>
       <use xlink:href="#DejaVuSans-35"/>
      </g>
     </g>
    </g>
    <g id="xtick_3">
     <g id="line2d_3">
      <g>
       <use xlink:href="#m40aa4d8424" x="150.897411" y="299.798125" style="stroke: #000000; stroke-width: 0.8"/>
      </g>
     </g>
     <g id="text_3">
      <!-- 10 -->
      <g transform="translate(144.534911 314.396563) scale(0.1 -0.1)">
       <defs>
        <path id="DejaVuSans-31" d="M 794 531 
L 1825 531 
L 1825 4091 
L 703 3866 
L 703 4441 
L 1819 4666 
L 2450 4666 
L 2450 531 
L 3481 531 
L 3481 0 
L 794 0 
L 794 531 
z
" transform="scale(0.015625)"/>
       </defs>
       <use xlink:href="#DejaVuSans-31"/>
       <use xlink:href="#DejaVuSans-30" transform="translate(63.623047 0)"/>
      </g>
     </g>
    </g>
    <g id="xtick_4">
     <g id="line2d_4">
      <g>
       <use xlink:href="#m40aa4d8424" x="196.832282" y="299.798125" style="stroke: #000000; stroke-width: 0.8"/>
      </g>
     </g>
     <g id="text_4">
      <!-- 15 -->
      <g transform="translate(190.469782 314.396563) scale(0.1 -0.1)">
       <use xlink:href="#DejaVuSans-31"/>
       <use xlink:href="#DejaVuSans-35" transform="translate(63.623047 0)"/>
      </g>
     </g>
    </g>
    <g id="xtick_5">
     <g id="line2d_5">
      <g>
       <use xlink:href="#m40aa4d8424" x="242.767152" y="299.798125" style="stroke: #000000; stroke-width: 0.8"/>
      </g>
     </g>
     <g id="text_5">
      <!-- 20 -->
      <g transform="translate(236.404652 314.396563) scale(0.1 -0.1)">
       <defs>
        <path id="DejaVuSans-32" d="M 1228 531 
L 3431 531 
L 3431 0 
L 469 0 
L 469 531 
Q 828 903 1448 1529 
Q 2069 2156 2228 2338 
Q 2531 2678 2651 2914 
Q 2772 3150 2772 3378 
Q 2772 3750 2511 3984 
Q 2250 4219 1831 4219 
Q 1534 4219 1204 4116 
Q 875 4013 500 3803 
L 500 4441 
Q 881 4594 1212 4672 
Q 1544 4750 1819 4750 
Q 2544 4750 2975 4387 
Q 3406 4025 3406 3419 
Q 3406 3131 3298 2873 
Q 3191 2616 2906 2266 
Q 2828 2175 2409 1742 
Q 1991 1309 1228 531 
z
" transform="scale(0.015625)"/>
       </defs>
       <use xlink:href="#DejaVuSans-32"/>
       <use xlink:href="#DejaVuSans-30" transform="translate(63.623047 0)"/>
      </g>
     </g>
    </g>
    <g id="xtick_6">
     <g id="line2d_6">
      <g>
       <use xlink:href="#m40aa4d8424" x="288.702023" y="299.798125" style="stroke: #000000; stroke-width: 0.8"/>
      </g>
     </g>
     <g id="text_6">
      <!-- 25 -->
      <g transform="translate(282.339523 314.396563) scale(0.1 -0.1)">
       <use xlink:href="#DejaVuSans-32"/>
       <use xlink:href="#DejaVuSans-35" transform="translate(63.623047 0)"/>
      </g>
     </g>
    </g>
    <g id="xtick_7">
     <g id="line2d_7">
      <g>
       <use xlink:href="#m40aa4d8424" x="334.636893" y="299.798125" style="stroke: #000000; stroke-width: 0.8"/>
      </g>
     </g>
     <g id="text_7">
      <!-- 30 -->
      <g transform="translate(328.274393 314.396563) scale(0.1 -0.1)">
       <defs>
        <path id="DejaVuSans-33" d="M 2597 2516 
Q 3050 2419 3304 2112 
Q 3559 1806 3559 1356 
Q 3559 666 3084 287 
Q 2609 -91 1734 -91 
Q 1441 -91 1130 -33 
Q 819 25 488 141 
L 488 750 
Q 750 597 1062 519 
Q 1375 441 1716 441 
Q 2309 441 2620 675 
Q 2931 909 2931 1356 
Q 2931 1769 2642 2001 
Q 2353 2234 1838 2234 
L 1294 2234 
L 1294 2753 
L 1863 2753 
Q 2328 2753 2575 2939 
Q 2822 3125 2822 3475 
Q 2822 3834 2567 4026 
Q 2313 4219 1838 4219 
Q 1578 4219 1281 4162 
Q 984 4106 628 3988 
L 628 4550 
Q 988 4650 1302 4700 
Q 1616 4750 1894 4750 
Q 2613 4750 3031 4423 
Q 3450 4097 3450 3541 
Q 3450 3153 3228 2886 
Q 3006 2619 2597 2516 
z
" transform="scale(0.015625)"/>
       </defs>
       <use xlink:href="#DejaVuSans-33"/>
       <use xlink:href="#DejaVuSans-30" transform="translate(63.623047 0)"/>
      </g>
     </g>
    </g>
    <g id="xtick_8">
     <g id="line2d_8">
      <g>
       <use xlink:href="#m40aa4d8424" x="380.571764" y="299.798125" style="stroke: #000000; stroke-width: 0.8"/>
      </g>
     </g>
     <g id="text_8">
      <!-- 35 -->
      <g transform="translate(374.209264 314.396563) scale(0.1 -0.1)">
       <use xlink:href="#DejaVuSans-33"/>
       <use xlink:href="#DejaVuSans-35" transform="translate(63.623047 0)"/>
      </g>
     </g>
    </g>
    <g id="xtick_9">
     <g id="line2d_9">
      <g>
       <use xlink:href="#m40aa4d8424" x="426.506634" y="299.798125" style="stroke: #000000; stroke-width: 0.8"/>
      </g>
     </g>
     <g id="text_9">
      <!-- 40 -->
      <g transform="translate(420.144134 314.396563) scale(0.1 -0.1)">
       <defs>
        <path id="DejaVuSans-34" d="M 2419 4116 
L 825 1625 
L 2419 1625 
L 2419 4116 
z
M 2253 4666 
L 3047 4666 
L 3047 1625 
L 3713 1625 
L 3713 1100 
L 3047 1100 
L 3047 0 
L 2419 0 
L 2419 1100 
L 313 1100 
L 313 1709 
L 2253 4666 
z
" transform="scale(0.015625)"/>
       </defs>
       <use xlink:href="#DejaVuSans-34"/>
       <use xlink:href="#DejaVuSans-30" transform="translate(63.623047 0)"/>
      </g>
     </g>
    </g>
    <g id="text_10">
     <!-- Left Position, (rad) -->
     <g transform="translate(197.43875 328.074688) scale(0.1 -0.1)">
      <defs>
       <path id="DejaVuSans-4c" d="M 628 4666 
L 1259 4666 
L 1259 531 
L 3531 531 
L 3531 0 
L 628 0 
L 628 4666 
z
" transform="scale(0.015625)"/>
       <path id="DejaVuSans-65" d="M 3597 1894 
L 3597 1613 
L 953 1613 
Q 991 1019 1311 708 
Q 1631 397 2203 397 
Q 2534 397 2845 478 
Q 3156 559 3463 722 
L 3463 178 
Q 3153 47 2828 -22 
Q 2503 -91 2169 -91 
Q 1331 -91 842 396 
Q 353 884 353 1716 
Q 353 2575 817 3079 
Q 1281 3584 2069 3584 
Q 2775 3584 3186 3129 
Q 3597 2675 3597 1894 
z
M 3022 2063 
Q 3016 2534 2758 2815 
Q 2500 3097 2075 3097 
Q 1594 3097 1305 2825 
Q 1016 2553 972 2059 
L 3022 2063 
z
" transform="scale(0.015625)"/>
       <path id="DejaVuSans-66" d="M 2375 4863 
L 2375 4384 
L 1825 4384 
Q 1516 4384 1395 4259 
Q 1275 4134 1275 3809 
L 1275 3500 
L 2222 3500 
L 2222 3053 
L 1275 3053 
L 1275 0 
L 697 0 
L 697 3053 
L 147 3053 
L 147 3500 
L 697 3500 
L 697 3744 
Q 697 4328 969 4595 
Q 1241 4863 1831 4863 
L 2375 4863 
z
" transform="scale(0.015625)"/>
       <path id="DejaVuSans-74" d="M 1172 4494 
L 1172 3500 
L 2356 3500 
L 2356 3053 
L 1172 3053 
L 1172 1153 
Q 1172 725 1289 603 
Q 1406 481 1766 481 
L 2356 481 
L 2356 0 
L 1766 0 
Q 1100 0 847 248 
Q 594 497 594 1153 
L 594 3053 
L 172 3053 
L 172 3500 
L 594 3500 
L 594 4494 
L 1172 4494 
z
" transform="scale(0.015625)"/>
       <path id="DejaVuSans-20" transform="scale(0.015625)"/>
       <path id="DejaVuSans-50" d="M 1259 4147 
L 1259 2394 
L 2053 2394 
Q 2494 2394 2734 2622 
Q 2975 2850 2975 3272 
Q 2975 3691 2734 3919 
Q 2494 4147 2053 4147 
L 1259 4147 
z
M 628 4666 
L 2053 4666 
Q 2838 4666 3239 4311 
Q 3641 3956 3641 3272 
Q 3641 2581 3239 2228 
Q 2838 1875 2053 1875 
L 1259 1875 
L 1259 0 
L 628 0 
L 628 4666 
z
" transform="scale(0.015625)"/>
       <path id="DejaVuSans-6f" d="M 1959 3097 
Q 1497 3097 1228 2736 
Q 959 2375 959 1747 
Q 959 1119 1226 758 
Q 1494 397 1959 397 
Q 2419 397 2687 759 
Q 2956 1122 2956 1747 
Q 2956 2369 2687 2733 
Q 2419 3097 1959 3097 
z
M 1959 3584 
Q 2709 3584 3137 3096 
Q 3566 2609 3566 1747 
Q 3566 888 3137 398 
Q 2709 -91 1959 -91 
Q 1206 -91 779 398 
Q 353 888 353 1747 
Q 353 2609 779 3096 
Q 1206 3584 1959 3584 
z
" transform="scale(0.015625)"/>
       <path id="DejaVuSans-73" d="M 2834 3397 
L 2834 2853 
Q 2591 2978 2328 3040 
Q 2066 3103 1784 3103 
Q 1356 3103 1142 2972 
Q 928 2841 928 2578 
Q 928 2378 1081 2264 
Q 1234 2150 1697 2047 
L 1894 2003 
Q 2506 1872 2764 1633 
Q 3022 1394 3022 966 
Q 3022 478 2636 193 
Q 2250 -91 1575 -91 
Q 1294 -91 989 -36 
Q 684 19 347 128 
L 347 722 
Q 666 556 975 473 
Q 1284 391 1588 391 
Q 1994 391 2212 530 
Q 2431 669 2431 922 
Q 2431 1156 2273 1281 
Q 2116 1406 1581 1522 
L 1381 1569 
Q 847 1681 609 1914 
Q 372 2147 372 2553 
Q 372 3047 722 3315 
Q 1072 3584 1716 3584 
Q 2034 3584 2315 3537 
Q 2597 3491 2834 3397 
z
" transform="scale(0.015625)"/>
       <path id="DejaVuSans-69" d="M 603 3500 
L 1178 3500 
L 1178 0 
L 603 0 
L 603 3500 
z
M 603 4863 
L 1178 4863 
L 1178 4134 
L 603 4134 
L 603 4863 
z
" transform="scale(0.015625)"/>
       <path id="DejaVuSans-6e" d="M 3513 2113 
L 3513 0 
L 2938 0 
L 2938 2094 
Q 2938 2591 2744 2837 
Q 2550 3084 2163 3084 
Q 1697 3084 1428 2787 
Q 1159 2491 1159 1978 
L 1159 0 
L 581 0 
L 581 3500 
L 1159 3500 
L 1159 2956 
Q 1366 3272 1645 3428 
Q 1925 3584 2291 3584 
Q 2894 3584 3203 3211 
Q 3513 2838 3513 2113 
z
" transform="scale(0.015625)"/>
       <path id="DejaVuSans-2c" d="M 750 794 
L 1409 794 
L 1409 256 
L 897 -744 
L 494 -744 
L 750 256 
L 750 794 
z
" transform="scale(0.015625)"/>
       <path id="DejaVuSans-28" d="M 1984 4856 
Q 1566 4138 1362 3434 
Q 1159 2731 1159 2009 
Q 1159 1288 1364 580 
Q 1569 -128 1984 -844 
L 1484 -844 
Q 1016 -109 783 600 
Q 550 1309 550 2009 
Q 550 2706 781 3412 
Q 1013 4119 1484 4856 
L 1984 4856 
z
" transform="scale(0.015625)"/>
       <path id="DejaVuSans-72" d="M 2631 2963 
Q 2534 3019 2420 3045 
Q 2306 3072 2169 3072 
Q 1681 3072 1420 2755 
Q 1159 2438 1159 1844 
L 1159 0 
L 581 0 
L 581 3500 
L 1159 3500 
L 1159 2956 
Q 1341 3275 1631 3429 
Q 1922 3584 2338 3584 
Q 2397 3584 2469 3576 
Q 2541 3569 2628 3553 
L 2631 2963 
z
" transform="scale(0.015625)"/>
       <path id="DejaVuSans-61" d="M 2194 1759 
Q 1497 1759 1228 1600 
Q 959 1441 959 1056 
Q 959 750 1161 570 
Q 1363 391 1709 391 
Q 2188 391 2477 730 
Q 2766 1069 2766 1631 
L 2766 1759 
L 2194 1759 
z
M 3341 1997 
L 3341 0 
L 2766 0 
L 2766 531 
Q 2569 213 2275 61 
Q 1981 -91 1556 -91 
Q 1019 -91 701 211 
Q 384 513 384 1019 
Q 384 1609 779 1909 
Q 1175 2209 1959 2209 
L 2766 2209 
L 2766 2266 
Q 2766 2663 2505 2880 
Q 2244 3097 1772 3097 
Q 1472 3097 1187 3025 
Q 903 2953 641 2809 
L 641 3341 
Q 956 3463 1253 3523 
Q 1550 3584 1831 3584 
Q 2591 3584 2966 3190 
Q 3341 2797 3341 1997 
z
" transform="scale(0.015625)"/>
       <path id="DejaVuSans-64" d="M 2906 2969 
L 2906 4863 
L 3481 4863 
L 3481 0 
L 2906 0 
L 2906 525 
Q 2725 213 2448 61 
Q 2172 -91 1784 -91 
Q 1150 -91 751 415 
Q 353 922 353 1747 
Q 353 2572 751 3078 
Q 1150 3584 1784 3584 
Q 2172 3584 2448 3432 
Q 2725 3281 2906 2969 
z
M 947 1747 
Q 947 1113 1208 752 
Q 1469 391 1925 391 
Q 2381 391 2643 752 
Q 2906 1113 2906 1747 
Q 2906 2381 2643 2742 
Q 2381 3103 1925 3103 
Q 1469 3103 1208 2742 
Q 947 2381 947 1747 
z
" transform="scale(0.015625)"/>
       <path id="DejaVuSans-29" d="M 513 4856 
L 1013 4856 
Q 1481 4119 1714 3412 
Q 1947 2706 1947 2009 
Q 1947 1309 1714 600 
Q 1481 -109 1013 -844 
L 513 -844 
Q 928 -128 1133 580 
Q 1338 1288 1338 2009 
Q 1338 2731 1133 3434 
Q 928 4138 513 4856 
z
" transform="scale(0.015625)"/>
      </defs>
      <use xlink:href="#DejaVuSans-4c"/>
      <use xlink:href="#DejaVuSans-65" transform="translate(53.962891 0)"/>
      <use xlink:href="#DejaVuSans-66" transform="translate(115.486328 0)"/>
      <use xlink:href="#DejaVuSans-74" transform="translate(148.941406 0)"/>
      <use xlink:href="#DejaVuSans-20" transform="translate(188.150391 0)"/>
      <use xlink:href="#DejaVuSans-50" transform="translate(219.9375 0)"/>
      <use xlink:href="#DejaVuSans-6f" transform="translate(276.615234 0)"/>
      <use xlink:href="#DejaVuSans-73" transform="translate(337.796875 0)"/>
      <use xlink:href="#DejaVuSans-69" transform="translate(389.896484 0)"/>
      <use xlink:href="#DejaVuSans-74" transform="translate(417.679688 0)"/>
      <use xlink:href="#DejaVuSans-69" transform="translate(456.888672 0)"/>
      <use xlink:href="#DejaVuSans-6f" transform="translate(484.671875 0)"/>
      <use xlink:href="#DejaVuSans-6e" transform="translate(545.853516 0)"/>
      <use xlink:href="#DejaVuSans-2c" transform="translate(609.232422 0)"/>
      <use xlink:href="#DejaVuSans-20" transform="translate(641.019531 0)"/>
      <use xlink:href="#DejaVuSans-28" transform="translate(672.806641 0)"/>
      <use xlink:href="#DejaVuSans-72" transform="translate(711.820312 0)"/>
      <use xlink:href="#DejaVuSans-61" transform="translate(752.933594 0)"/>
      <use xlink:href="#DejaVuSans-64" transform="translate(814.212891 0)"/>
      <use xlink:href="#DejaVuSans-29" transform="translate(877.689453 0)"/>
     </g>
    </g>
   </g>
   <g id="matplotlib.axis_2">
    <g id="ytick_1">
     <g id="line2d_10">
      <defs>
       <path id="m63be2cfcbc" d="M 0 0 
L -3.5 0 
" style="stroke: #000000; stroke-width: 0.8"/>
      </defs>
      <g>
       <use xlink:href="#m63be2cfcbc" x="40.603125" y="287.185398" style="stroke: #000000; stroke-width: 0.8"/>
      </g>
     </g>
     <g id="text_11">
      <!-- 0 -->
      <g transform="translate(27.240625 290.984616) scale(0.1 -0.1)">
       <use xlink:href="#DejaVuSans-30"/>
      </g>
     </g>
    </g>
    <g id="ytick_2">
     <g id="line2d_11">
      <g>
       <use xlink:href="#m63be2cfcbc" x="40.603125" y="255.578236" style="stroke: #000000; stroke-width: 0.8"/>
      </g>
     </g>
     <g id="text_12">
      <!-- 5 -->
      <g transform="translate(27.240625 259.377455) scale(0.1 -0.1)">
       <use xlink:href="#DejaVuSans-35"/>
      </g>
     </g>
    </g>
    <g id="ytick_3">
     <g id="line2d_12">
      <g>
       <use xlink:href="#m63be2cfcbc" x="40.603125" y="223.971074" style="stroke: #000000; stroke-width: 0.8"/>
      </g>
     </g>
     <g id="text_13">
      <!-- 10 -->
      <g transform="translate(20.878125 227.770293) scale(0.1 -0.1)">
       <use xlink:href="#DejaVuSans-31"/>
       <use xlink:href="#DejaVuSans-30" transform="translate(63.623047 0)"/>
      </g>
     </g>
    </g>
    <g id="ytick_4">
     <g id="line2d_13">
      <g>
       <use xlink:href="#m63be2cfcbc" x="40.603125" y="192.363912" style="stroke: #000000; stroke-width: 0.8"/>
      </g>
     </g>
     <g id="text_14">
      <!-- 15 -->
      <g transform="translate(20.878125 196.163131) scale(0.1 -0.1)">
       <use xlink:href="#DejaVuSans-31"/>
       <use xlink:href="#DejaVuSans-35" transform="translate(63.623047 0)"/>
      </g>
     </g>
    </g>
    <g id="ytick_5">
     <g id="line2d_14">
      <g>
       <use xlink:href="#m63be2cfcbc" x="40.603125" y="160.756751" style="stroke: #000000; stroke-width: 0.8"/>
      </g>
     </g>
     <g id="text_15">
      <!-- 20 -->
      <g transform="translate(20.878125 164.555969) scale(0.1 -0.1)">
       <use xlink:href="#DejaVuSans-32"/>
       <use xlink:href="#DejaVuSans-30" transform="translate(63.623047 0)"/>
      </g>
     </g>
    </g>
    <g id="ytick_6">
     <g id="line2d_15">
      <g>
       <use xlink:href="#m63be2cfcbc" x="40.603125" y="129.149589" style="stroke: #000000; stroke-width: 0.8"/>
      </g>
     </g>
     <g id="text_16">
      <!-- 25 -->
      <g transform="translate(20.878125 132.948808) scale(0.1 -0.1)">
       <use xlink:href="#DejaVuSans-32"/>
       <use xlink:href="#DejaVuSans-35" transform="translate(63.623047 0)"/>
      </g>
     </g>
    </g>
    <g id="ytick_7">
     <g id="line2d_16">
      <g>
       <use xlink:href="#m63be2cfcbc" x="40.603125" y="97.542427" style="stroke: #000000; stroke-width: 0.8"/>
      </g>
     </g>
     <g id="text_17">
      <!-- 30 -->
      <g transform="translate(20.878125 101.341646) scale(0.1 -0.1)">
       <use xlink:href="#DejaVuSans-33"/>
       <use xlink:href="#DejaVuSans-30" transform="translate(63.623047 0)"/>
      </g>
     </g>
    </g>
    <g id="ytick_8">
     <g id="line2d_17">
      <g>
       <use xlink:href="#m63be2cfcbc" x="40.603125" y="65.935265" style="stroke: #000000; stroke-width: 0.8"/>
      </g>
     </g>
     <g id="text_18">
      <!-- 35 -->
      <g transform="translate(20.878125 69.734484) scale(0.1 -0.1)">
       <use xlink:href="#DejaVuSans-33"/>
       <use xlink:href="#DejaVuSans-35" transform="translate(63.623047 0)"/>
      </g>
     </g>
    </g>
    <g id="ytick_9">
     <g id="line2d_18">
      <g>
       <use xlink:href="#m63be2cfcbc" x="40.603125" y="34.328104" style="stroke: #000000; stroke-width: 0.8"/>
      </g>
     </g>
     <g id="text_19">
      <!-- 40 -->
      <g transform="translate(20.878125 38.127322) scale(0.1 -0.1)">
       <use xlink:href="#DejaVuSans-34"/>
       <use xlink:href="#DejaVuSans-30" transform="translate(63.623047 0)"/>
      </g>
     </g>
    </g>
    <g id="text_20">
     <!-- Right Position, (rad) -->
     <g transform="translate(14.798438 210.651094) rotate(-90) scale(0.1 -0.1)">
      <defs>
       <path id="DejaVuSans-52" d="M 2841 2188 
Q 3044 2119 3236 1894 
Q 3428 1669 3622 1275 
L 4263 0 
L 3584 0 
L 2988 1197 
Q 2756 1666 2539 1819 
Q 2322 1972 1947 1972 
L 1259 1972 
L 1259 0 
L 628 0 
L 628 4666 
L 2053 4666 
Q 2853 4666 3247 4331 
Q 3641 3997 3641 3322 
Q 3641 2881 3436 2590 
Q 3231 2300 2841 2188 
z
M 1259 4147 
L 1259 2491 
L 2053 2491 
Q 2509 2491 2742 2702 
Q 2975 2913 2975 3322 
Q 2975 3731 2742 3939 
Q 2509 4147 2053 4147 
L 1259 4147 
z
" transform="scale(0.015625)"/>
       <path id="DejaVuSans-67" d="M 2906 1791 
Q 2906 2416 2648 2759 
Q 2391 3103 1925 3103 
Q 1463 3103 1205 2759 
Q 947 2416 947 1791 
Q 947 1169 1205 825 
Q 1463 481 1925 481 
Q 2391 481 2648 825 
Q 2906 1169 2906 1791 
z
M 3481 434 
Q 3481 -459 3084 -895 
Q 2688 -1331 1869 -1331 
Q 1566 -1331 1297 -1286 
Q 1028 -1241 775 -1147 
L 775 -588 
Q 1028 -725 1275 -790 
Q 1522 -856 1778 -856 
Q 2344 -856 2625 -561 
Q 2906 -266 2906 331 
L 2906 616 
Q 2728 306 2450 153 
Q 2172 0 1784 0 
Q 1141 0 747 490 
Q 353 981 353 1791 
Q 353 2603 747 3093 
Q 1141 3584 1784 3584 
Q 2172 3584 2450 3431 
Q 2728 3278 2906 2969 
L 2906 3500 
L 3481 3500 
L 3481 434 
z
" transform="scale(0.015625)"/>
       <path id="DejaVuSans-68" d="M 3513 2113 
L 3513 0 
L 2938 0 
L 2938 2094 
Q 2938 2591 2744 2837 
Q 2550 3084 2163 3084 
Q 1697 3084 1428 2787 
Q 1159 2491 1159 1978 
L 1159 0 
L 581 0 
L 581 4863 
L 1159 4863 
L 1159 2956 
Q 1366 3272 1645 3428 
Q 1925 3584 2291 3584 
Q 2894 3584 3203 3211 
Q 3513 2838 3513 2113 
z
" transform="scale(0.015625)"/>
      </defs>
      <use xlink:href="#DejaVuSans-52"/>
      <use xlink:href="#DejaVuSans-69" transform="translate(69.482422 0)"/>
      <use xlink:href="#DejaVuSans-67" transform="translate(97.265625 0)"/>
      <use xlink:href="#DejaVuSans-68" transform="translate(160.742188 0)"/>
      <use xlink:href="#DejaVuSans-74" transform="translate(224.121094 0)"/>
      <use xlink:href="#DejaVuSans-20" transform="translate(263.330078 0)"/>
      <use xlink:href="#DejaVuSans-50" transform="translate(295.117188 0)"/>
      <use xlink:href="#DejaVuSans-6f" transform="translate(351.794922 0)"/>
      <use xlink:href="#DejaVuSans-73" transform="translate(412.976562 0)"/>
      <use xlink:href="#DejaVuSans-69" transform="translate(465.076172 0)"/>
      <use xlink:href="#DejaVuSans-74" transform="translate(492.859375 0)"/>
      <use xlink:href="#DejaVuSans-69" transform="translate(532.068359 0)"/>
      <use xlink:href="#DejaVuSans-6f" transform="translate(559.851562 0)"/>
      <use xlink:href="#DejaVuSans-6e" transform="translate(621.033203 0)"/>
      <use xlink:href="#DejaVuSans-2c" transform="translate(684.412109 0)"/>
      <use xlink:href="#DejaVuSans-20" transform="translate(716.199219 0)"/>
      <use xlink:href="#DejaVuSans-28" transform="translate(747.986328 0)"/>
      <use xlink:href="#DejaVuSans-72" transform="translate(787 0)"/>
      <use xlink:href="#DejaVuSans-61" transform="translate(828.113281 0)"/>
      <use xlink:href="#DejaVuSans-64" transform="translate(889.392578 0)"/>
      <use xlink:href="#DejaVuSans-29" transform="translate(952.869141 0)"/>
     </g>
    </g>
   </g>
   <g id="line2d_19">
    <path d="M 67.181545 282.238146 
L 67.743882 281.878847 
L 69.872728 280.386381 
L 72.804907 278.28587 
L 75.415753 276.406471 
L 79.231609 273.615002 
L 83.328632 270.795896 
L 86.662474 268.501918 
L 91.08083 265.516988 
L 95.579526 262.44914 
L 99.114205 260.044606 
L 103.773563 256.89384 
L 108.633757 253.660162 
L 112.208611 251.310909 
L 116.787628 248.160149 
L 120.322307 245.70034 
L 124.780838 242.604855 
L 129.31969 239.50937 
L 132.653542 237.243029 
L 136.991566 234.285736 
L 141.249251 231.356075 
L 144.342101 229.227933 
L 148.519455 226.38119 
L 152.536184 223.61739 
L 155.588832 221.516841 
L 159.685855 218.72536 
L 163.662344 216.016816 
L 166.715084 213.91633 
L 170.651427 211.207786 
L 173.583633 209.134925 
L 177.560123 206.371069 
L 181.496466 203.690149 
L 184.549114 201.617288 
L 188.485548 198.936369 
L 192.421891 196.255449 
L 195.474539 194.182589 
L 199.370735 191.529294 
L 202.423382 189.456433 
L 206.359817 186.803138 
L 210.255921 184.122282 
L 213.308661 182.049358 
L 217.204856 179.396126 
L 221.141199 176.715207 
L 224.033167 174.72522 
L 227.889215 172.071988 
L 231.865705 169.363444 
L 234.797912 167.345833 
L 238.814641 164.609601 
L 242.670597 161.956369 
L 245.602804 159.938757 
L 249.579386 157.230213 
L 252.551739 155.240226 
L 256.528229 152.448808 
L 263.396778 147.694965 
L 267.373268 144.958796 
L 271.229317 142.277876 
L 274.281965 140.205016 
L 278.17816 137.524096 
L 281.110367 135.47886 
L 285.04671 132.770316 
L 288.983052 130.089396 
L 292.075939 128.016535 
L 296.012282 125.335616 
L 298.944488 123.29038 
L 302.920978 120.554211 
L 306.857321 117.873292 
L 309.910061 115.800431 
L 313.846404 113.091823 
L 316.818757 111.04665 
L 320.795247 108.310418 
L 324.651296 105.629499 
L 327.703943 103.556638 
L 331.600139 100.903343 
L 335.496335 98.222424 
L 338.508835 96.121938 
L 342.364884 93.413394 
L 345.417532 91.312908 
L 349.353875 88.659614 
L 353.290217 85.978694 
L 356.342865 83.878209 
L 360.239061 81.197289 
L 363.331948 79.124428 
L 367.26829 76.471134 
L 371.124339 73.734965 
L 374.176987 71.634479 
L 378.073183 68.95356 
L 381.085683 66.880699 
L 384.981879 64.199779 
L 388.878075 61.491235 
L 391.890575 59.390687 
L 395.746624 56.737455 
L 398.799272 54.636906 
L 402.735614 51.928362 
L 406.671957 49.247443 
L 409.724605 47.174582 
L 413.620801 44.466038 
L 417.63753 41.729869 
L 420.609883 39.712257 
L 424.505987 37.031338 
L 427.51858 34.930852 
" clip-path="url(#p2819009d5a)" style="fill: none; stroke: #1f77b4; stroke-width: 1.5; stroke-linecap: square"/>
   </g>
   <g id="line2d_20">
    <path d="M 66.016706 282.984379 
L 66.940544 282.348699 
L 69.350559 280.718041 
L 71.680238 279.05974 
L 75.214917 276.51702 
L 79.191443 273.642639 
L 82.364624 271.403942 
L 86.582143 268.557199 
L 90.880003 265.738093 
L 93.892513 263.720494 
L 97.828874 261.011943 
L 100.680722 259.049625 
L 104.496568 256.45163 
L 108.392755 253.798355 
L 111.284768 251.808399 
L 115.180955 249.182761 
L 118.836149 246.64004 
L 121.527326 244.70536 
L 125.262841 242.134996 
L 127.994193 240.283233 
L 131.649378 237.795788 
L 135.143891 235.335979 
L 137.794903 233.511854 
L 141.409922 231.079689 
L 144.904445 228.647524 
L 147.595622 226.795756 
L 151.050007 224.418866 
L 153.660853 222.650021 
L 157.155303 220.245475 
L 160.529403 217.868616 
L 163.220543 216.044441 
L 166.715084 213.667582 
L 170.129239 211.29066 
L 172.740085 209.438923 
L 176.154241 207.117314 
L 178.845473 205.293201 
L 182.299775 202.971592 
L 185.673875 200.622295 
L 188.284721 198.825807 
L 191.698876 196.504198 
L 195.193418 194.127339 
L 197.723878 192.386101 
L 201.138125 190.064491 
L 203.829265 188.268004 
L 207.24342 185.91877 
L 210.697814 183.514223 
L 213.268514 181.74536 
L 216.682669 179.396126 
L 220.17721 177.019204 
L 222.747817 175.250404 
L 226.202211 172.845858 
L 229.616366 170.524249 
L 232.227213 168.727761 
L 235.721754 166.323214 
L 238.3326 164.554351 
L 241.786902 162.177493 
L 245.16091 159.800571 
L 247.771757 158.004083 
L 251.266298 155.5996 
L 253.836997 153.830737 
L 257.371685 151.42619 
L 260.78584 149.076956 
L 263.436925 147.280468 
L 266.891228 144.90361 
L 269.461927 143.107122 
L 272.956376 140.702576 
L 276.450917 138.353342 
L 279.061763 136.584478 
L 282.516158 134.179932 
L 285.127004 132.383444 
L 288.621453 129.951273 
L 292.0357 127.629664 
L 294.606307 125.860801 
L 298.060702 123.456317 
L 300.671548 121.687454 
L 304.165997 119.282908 
L 307.620391 116.933674 
L 310.19109 115.137186 
L 313.68554 112.73264 
L 316.296386 110.936152 
L 319.75078 108.503981 
L 323.164935 106.182371 
L 325.815928 104.385883 
L 329.350617 101.981337 
L 331.921316 100.212537 
L 335.415857 97.807991 
L 338.870159 95.458757 
L 341.481005 93.689893 
L 345.015694 91.285347 
L 347.62654 89.461235 
L 351.080934 87.056688 
L 354.495089 84.735079 
L 357.065788 82.938591 
L 360.520182 80.534045 
L 363.171176 78.765181 
L 366.62557 76.33301 
L 370.039725 73.956088 
L 372.650571 72.159601 
L 376.185259 69.755054 
L 378.796106 67.958566 
" clip-path="url(#p2819009d5a)" style="fill: none; stroke: #ff7f0e; stroke-width: 1.5; stroke-linecap: square"/>
   </g>
   <g id="line2d_21">
    <path d="M 59.228505 287.185398 
L 60.152343 286.577356 
L 61.919685 285.361271 
L 64.851867 283.205485 
L 67.462714 281.298444 
L 71.198234 278.728086 
L 74.732922 276.406471 
L 77.383934 274.692895 
L 83.08763 270.657709 
L 86.461647 268.391368 
L 89.795499 266.152665 
L 92.366171 264.411458 
L 95.579526 262.172754 
L 98.712541 259.961694 
L 101.162717 258.275756 
L 104.295732 256.147607 
L 106.705742 254.489312 
L 109.758426 252.333527 
L 112.811111 250.260653 
L 115.180955 248.629996 
L 118.193474 246.557122 
L 120.482978 244.926464 
L 123.495497 242.881235 
L 126.467842 240.836005 
L 128.757355 239.232984 
L 131.689534 237.215392 
L 134.661888 235.170155 
L 136.911236 233.650053 
L 139.88358 231.57718 
L 142.173103 230.001797 
L 145.105281 227.984204 
L 148.117791 225.91133 
L 150.367139 224.391222 
L 153.259199 222.34596 
L 156.271699 220.300724 
L 158.480891 218.808297 
L 161.453245 216.763061 
L 163.662344 215.242946 
L 166.594551 213.19771 
L 169.566905 211.152474 
L 171.735949 209.659984 
L 174.74845 207.614747 
L 177.680656 205.569511 
L 179.889848 204.049459 
L 182.902349 202.004223 
L 185.071301 200.456484 
L 188.043655 198.411248 
L 191.016009 196.448885 
L 193.2252 194.956458 
L 196.197554 192.85591 
L 198.406746 191.30817 
L 201.459393 189.235309 
L 204.3916 187.190073 
L 206.640939 185.669958 
L 209.613292 183.597097 
L 211.822484 182.049358 
L 214.875132 180.031746 
L 217.807338 178.014135 
L 220.01653 176.494083 
L 222.988883 174.393534 
L 225.238222 172.845795 
L 228.250723 170.772934 
L 231.182929 168.755322 
L 233.392121 167.207583 
L 236.404622 165.134722 
L 238.65396 163.614607 
L 241.666461 161.541746 
L 243.875653 160.021631 
L 246.848006 158.00402 
L 249.860507 155.958784 
L 252.069699 154.411044 
L 255.082199 152.310559 
L 257.291391 150.790444 
L 260.263745 148.80052 
L 263.276245 146.755284 
L 265.525584 145.207544 
L 268.538177 143.13462 
L 270.747368 141.614569 
L 273.639336 139.596957 
L 276.651836 137.524096 
L 278.901175 135.976357 
L 281.913676 133.903433 
L 284.122868 132.355693 
L 287.095221 130.338081 
L 290.067575 128.237596 
L 292.316913 126.717481 
L 295.329414 124.64462 
L 297.578753 123.096881 
L 300.510959 121.079269 
L 303.483313 119.061658 
L 305.732652 117.541606 
L 308.745152 115.441057 
L 310.954344 113.893318 
L 313.926698 111.875706 
L 316.939198 109.802845 
L 319.14839 108.28273 
L 322.160891 106.20987 
L 324.410321 104.66213 
L 327.342436 102.644518 
" clip-path="url(#p2819009d5a)" style="fill: none; stroke: #2ca02c; stroke-width: 1.5; stroke-linecap: square"/>
   </g>
   <g id="line2d_22">
    <path d="M 63.566527 284.670314 
L 64.530532 284.062272 
L 66.257707 282.846188 
L 69.189888 280.718041 
L 72.242572 278.479338 
L 74.41158 276.986873 
L 77.102766 275.273297 
L 79.874274 273.449172 
L 81.962951 271.984344 
L 84.694303 270.104938 
L 86.823145 268.64011 
L 89.554497 266.733067 
L 92.28584 264.798393 
L 94.294186 263.416477 
L 96.985363 261.647626 
L 99.033874 260.265711 
L 101.564389 258.49686 
L 104.13507 256.700372 
L 106.022911 255.401375 
L 108.553426 253.660162 
L 111.124107 251.918948 
L 112.971782 250.647588 
L 115.462132 248.878738 
L 117.349972 247.57974 
L 119.840322 245.893802 
L 122.330672 244.180232 
L 124.178347 242.881235 
L 126.708862 241.167659 
L 128.596702 239.868661 
L 131.006712 238.182722 
L 133.497053 236.469153 
L 135.384893 235.197786 
L 137.915409 233.456573 
L 140.325418 231.770641 
L 142.173103 230.526918 
L 144.663443 228.785705 
L 146.511118 227.459064 
L 149.041633 225.773125 
L 151.531956 224.142467 
L 153.339493 222.871082 
L 155.870045 221.157531 
L 157.757876 219.886165 
L 160.208042 218.172614 
L 162.577914 216.459 
L 164.385359 215.187634 
L 166.956058 213.474083 
L 168.803743 212.230341 
L 171.294056 210.51679 
L 173.744222 208.775615 
L 175.591906 207.504249 
L 178.082311 205.818259 
L 179.970142 204.519268 
L 182.460455 202.778093 
L 184.910621 201.092167 
L 186.798453 199.8208 
L 189.288857 198.107187 
L 191.136542 196.83582 
L 193.667002 195.094645 
L 196.117168 193.408719 
L 198.005091 192.137352 
L 200.495404 190.368489 
L 202.383235 189.069498 
L 204.913787 187.355884 
L 206.761472 186.084518 
L 209.251785 184.398592 
L 211.782337 182.685041 
L 213.629929 181.413674 
L 216.080187 179.672499 
L 217.887632 178.401133 
L 220.418184 176.715207 
L 222.948644 174.973968 
L 224.796329 173.702602 
L 227.286734 171.961426 
L 229.174565 170.662372 
L 231.664878 168.948821 
L 233.552709 167.64983 
L 236.002967 165.963904 
L 238.533427 164.195041 
L 240.421259 162.951299 
L 242.831277 161.265373 
L 244.719109 159.911133 
L 247.169367 158.225207 
L 249.097345 156.926152 
L 251.587658 155.240226 
L 254.037824 153.5543 
L 255.925747 152.255309 
L 258.41606 150.541759 
L 260.344039 149.187455 
L 262.794205 147.529154 
L 265.244463 145.870852 
L 267.172441 144.544236 
L 269.622607 142.885935 
L 271.550585 141.559319 
L 273.960604 139.87333 
L 276.370623 138.159779 
L 278.298693 136.860788 
L 280.748859 135.174862 
L 282.676838 133.848183 
L 285.127004 132.162257 
L 287.014835 130.863266 
" clip-path="url(#p2819009d5a)" style="fill: none; stroke: #d62728; stroke-width: 1.5; stroke-linecap: square"/>
   </g>
   <g id="line2d_23">
    <path d="M 62.000019 285.444186 
L 62.964024 284.780868 
L 64.651033 283.592421 
L 67.302046 281.740656 
L 69.029226 280.552211 
L 71.117903 279.142658 
L 73.20658 277.733105 
L 74.853418 276.572301 
L 77.102766 275.052192 
L 78.78977 273.946662 
L 80.958787 272.398916 
L 83.047464 270.878814 
L 84.654138 269.800921 
L 86.823145 268.336088 
L 88.429828 267.230558 
L 90.55867 265.793367 
L 92.607182 264.411452 
L 94.093349 263.361196 
L 96.182026 261.924006 
L 97.708368 260.901394 
L 99.716714 259.519478 
L 101.684895 258.137563 
L 103.171072 257.142582 
L 105.219583 255.733029 
L 106.70576 254.682773 
L 108.673941 253.27322 
L 110.642112 251.946586 
L 112.128289 250.951605 
L 114.1768 249.514415 
L 115.662977 248.491797 
L 117.671323 247.137518 
L 119.639504 245.783246 
L 121.125681 244.732991 
L 123.134027 243.378712 
L 124.620194 242.356094 
L 126.62854 241.001816 
L 128.596721 239.6199 
L 130.082898 238.597282 
L 132.091244 237.24301 
L 133.577411 236.220392 
L 135.545592 234.838476 
L 137.513763 233.484204 
L 138.99994 232.48923 
L 140.968111 231.107314 
L 142.454288 230.057059 
L 144.462634 228.702786 
L 146.430806 227.376145 
L 147.957148 226.325896 
L 149.925319 224.916343 
L 151.371367 223.921388 
L 153.419787 222.539459 
L 155.428151 221.157531 
L 156.914328 220.134913 
L 158.922693 218.780673 
L 160.449017 217.758054 
L 162.417234 216.376126 
L 163.903411 215.325883 
L 165.871536 213.97158 
L 167.879901 212.589651 
L 169.366077 211.567033 
L 171.414589 210.185168 
L 172.900766 209.16255 
L 174.868891 207.780622 
L 176.395307 206.730379 
L 178.403579 205.376075 
L 180.411944 203.994147 
L 181.898121 202.943904 
L 183.866338 201.589664 
L 185.392662 200.539358 
L 187.360787 199.185117 
L 188.887203 198.134874 
L 190.895476 196.780571 
L 192.863693 195.42633 
L 194.34987 194.376088 
L 196.358234 192.994159 
L 197.884558 191.943917 
L 199.852683 190.589613 
L 201.861048 189.235372 
L 203.347225 188.212754 
L 205.315442 186.830826 
L 206.881913 185.752959 
L 208.85013 184.398655 
L 210.336307 183.376037 
L 212.34458 182.021733 
L 214.352944 180.639868 
L 215.879268 179.589625 
L 217.887632 178.262946 
L 219.373809 177.240328 
L 221.341934 175.830775 
L 222.787964 174.808157 
L 224.836476 173.398604 
L 226.84484 172.044364 
L 228.331017 171.021745 
L 230.339381 169.639817 
L 231.825558 168.617199 
L 233.87407 167.235271 
L 235.360246 166.185028 
L 237.328372 164.830787 
L 239.336736 163.476484 
L 240.782766 162.426241 
" clip-path="url(#p2819009d5a)" style="fill: none; stroke: #9467bd; stroke-width: 1.5; stroke-linecap: square"/>
   </g>
   <g id="line2d_24">
    <path d="M 60.634345 286.245696 
L 61.638518 285.610016 
L 63.205025 284.476847 
L 65.293703 283.177847 
L 66.779877 282.293422 
L 67.78405 281.574827 
L 69.390724 280.331107 
L 72.202407 278.368789 
L 73.407407 277.539638 
L 75.09442 276.378833 
L 76.741259 275.24566 
L 77.946268 274.444153 
L 79.552942 273.338623 
L 80.717786 272.537109 
L 82.324459 271.459216 
L 83.770461 270.408961 
L 84.895139 269.635091 
L 86.501813 268.584836 
L 87.586317 267.81096 
L 89.072493 266.760704 
L 90.197163 266.014472 
L 91.683339 264.964217 
L 93.209682 263.913961 
L 94.334351 263.167729 
L 95.820528 262.089836 
L 96.945197 261.31596 
L 98.47154 260.293348 
L 99.957716 259.27073 
L 101.04222 258.496854 
L 102.568562 257.446599 
L 103.733406 256.700366 
L 105.219574 255.650111 
L 106.665585 254.65513 
L 107.790255 253.908897 
L 109.276432 252.831005 
L 110.40111 252.057135 
L 111.847112 251.089791 
L 113.373455 250.039536 
L 114.498133 249.238029 
L 116.024475 248.215411 
L 117.108979 247.469178 
L 118.554991 246.44656 
L 120.161664 245.423942 
L 121.286333 244.67771 
L 122.732345 243.655092 
L 123.816848 242.881222 
L 125.303025 241.858604 
L 126.46786 241.05709 
L 127.913871 240.034472 
L 129.440214 239.01186 
L 130.605058 238.237984 
L 132.05106 237.187729 
L 133.175738 236.413859 
L 134.661915 235.418878 
L 136.188248 234.340986 
L 137.272752 233.567116 
L 138.758929 232.544498 
L 139.923773 231.770628 
L 141.450106 230.74801 
L 142.574785 229.918859 
L 144.060961 228.923885 
L 145.587294 227.92891 
L 146.711964 227.127397 
L 148.198141 226.077142 
L 149.362985 225.303272 
L 150.849161 224.308297 
L 151.973849 223.534453 
L 153.460026 222.456522 
L 154.544548 221.682652 
L 156.070872 220.660034 
L 157.557049 219.637416 
L 158.641571 218.863547 
L 160.208042 217.813304 
L 161.372859 217.039434 
L 162.859035 216.016816 
L 163.943558 215.270571 
L 165.469882 214.192703 
L 166.996205 213.170085 
L 168.080728 212.396216 
L 169.607052 211.373597 
L 170.731721 210.599728 
L 172.258045 209.549485 
L 174.828744 207.752997 
L 175.99356 206.979127 
L 177.479737 205.984134 
L 178.965914 204.961516 
L 180.090583 204.159958 
L 181.616999 203.137403 
L 182.781816 202.36347 
L 184.227845 201.313227 
L 185.352515 200.539358 
L 186.878839 199.489115 
L 188.405162 198.466497 
L 189.529832 197.665002 
L 191.016009 196.642384 
L 192.100531 195.896139 
L 193.626855 194.818272 
L 194.751524 194.044402 
" clip-path="url(#p2819009d5a)" style="fill: none; stroke: #8c564b; stroke-width: 1.5; stroke-linecap: square"/>
   </g>
   <g id="line2d_25">
    <path d="M 59.54984 286.853738 
L 60.353177 286.328611 
L 61.518017 285.527101 
L 62.642689 284.780867 
L 63.285359 284.42157 
L 64.410031 283.620059 
L 65.655204 282.735634 
L 66.538875 282.182868 
L 67.50288 281.51955 
L 68.266055 280.966784 
L 69.390724 280.137633 
L 70.234226 279.640149 
L 71.31873 278.949191 
L 72.081901 278.396426 
L 73.045909 277.705468 
L 74.130413 277.01451 
L 74.893584 276.489382 
L 75.937922 275.770787 
L 76.660928 275.273297 
L 77.58477 274.609983 
L 78.588943 273.919025 
L 79.39228 273.393897 
L 80.356278 272.702939 
L 81.079284 272.177812 
L 82.123622 271.514491 
L 83.167961 270.795896 
L 83.890966 270.298406 
L 84.895139 269.57981 
L 85.658311 269.054683 
L 86.622318 268.391362 
L 87.385489 267.866234 
L 88.389662 267.20292 
L 89.393835 266.511962 
L 90.157006 265.986835 
L 91.121005 265.323514 
L 91.84401 264.826024 
L 92.848183 264.107429 
L 93.892522 263.444108 
L 94.615528 262.946624 
L 95.579535 262.283303 
L 96.382872 261.758176 
L 97.346879 261.067218 
L 98.110041 260.514453 
L 99.114214 259.851139 
L 100.078222 259.160181 
L 100.841393 258.635053 
L 101.845566 257.944095 
L 102.608737 257.418968 
L 103.572745 256.755647 
L 104.576918 256.064689 
L 105.34008 255.567205 
L 106.304087 254.84861 
L 107.067258 254.323482 
L 108.071431 253.632524 
L 108.794428 253.135034 
L 109.798601 252.416439 
L 110.842939 251.753118 
L 111.60611 251.227997 
L 112.610283 250.564676 
L 113.373455 250.011911 
L 114.337462 249.348591 
L 115.100624 248.851107 
L 116.104797 248.132505 
L 116.867968 247.607384 
L 117.831976 246.916426 
L 118.876314 246.253106 
L 119.59932 245.70034 
L 120.643658 245.03702 
L 121.40683 244.539536 
L 122.411003 243.848578 
L 123.133999 243.32345 
L 124.138172 242.604855 
L 124.941509 242.079727 
L 125.905516 241.38877 
L 126.909689 240.725449 
L 127.67286 240.172684 
L 128.677024 239.50937 
L 129.440195 238.984242 
L 130.404203 238.293284 
L 131.167374 237.768157 
L 132.171547 237.077199 
L 132.934718 236.579708 
L 133.898717 235.861113 
L 134.90289 235.142518 
L 135.625895 234.672665 
L 136.670234 233.981713 
L 137.433405 233.456586 
L 138.437569 232.737991 
L 139.160574 232.2405 
L 140.204913 231.549542 
L 140.968084 231.024421 
L 141.932091 230.333463 
L 142.97643 229.642512 
L 143.739601 229.145021 
L 144.703609 228.454063 
L 145.466771 227.901298 
L 146.470944 227.265621 
L 147.234115 226.768131 
L 148.238279 226.021899 
L 149.242452 225.358578 
" clip-path="url(#p2819009d5a)" style="fill: none; stroke: #e377c2; stroke-width: 1.5; stroke-linecap: square"/>
   </g>
   <g id="line2d_26">
    <path d="M 59.02767 287.102483 
L 59.429339 286.853738 
L 60.072009 286.439164 
L 60.513844 286.190419 
L 60.875346 285.996952 
L 61.357349 285.637654 
L 62.040186 285.167803 
L 62.482021 284.919059 
L 62.964024 284.587399 
L 63.52636 284.228102 
L 63.928029 283.896442 
L 64.450198 283.564783 
L 64.892034 283.343677 
L 65.414203 282.956741 
L 65.775705 282.65272 
L 66.297874 282.348699 
L 66.820044 282.044677 
L 67.221713 281.740657 
L 67.703715 281.353722 
L 68.065217 281.132615 
L 68.547222 280.800953 
L 68.948886 280.524574 
L 69.43089 280.192914 
L 69.912893 279.861253 
L 70.274392 279.584868 
L 70.836736 279.253214 
L 71.198234 278.976828 
L 71.720403 278.645168 
L 72.202407 278.341151 
L 72.563905 278.064766 
L 73.086074 277.705468 
L 73.568078 277.373808 
L 73.929586 277.125066 
L 74.411589 276.793405 
L 74.813253 276.51702 
L 75.295257 276.213003 
L 75.777261 275.853706 
L 76.178924 275.57732 
L 76.660928 275.273297 
L 76.982261 275.024555 
L 77.50443 274.63762 
L 78.066774 274.333597 
L 78.388107 274.112492 
L 78.870111 273.725557 
L 79.432445 273.393897 
L 79.834109 273.145149 
L 80.275947 272.785851 
L 80.59728 272.537109 
L 81.159615 272.177812 
L 81.641618 271.873789 
L 81.962951 271.652684 
L 82.444955 271.265749 
L 82.886793 270.989363 
L 83.328632 270.657709 
L 83.77047 270.326049 
L 84.212308 270.049663 
L 84.734478 269.690366 
L 85.095976 269.441624 
L 85.57798 269.082326 
L 85.939478 268.833578 
L 86.461647 268.47428 
L 86.943651 268.142626 
L 87.345324 267.921515 
L 87.787153 267.562218 
L 88.188826 267.285838 
L 88.67083 266.954178 
L 89.152833 266.650155 
L 89.554497 266.346132 
L 90.076666 266.014472 
L 90.438165 265.76573 
L 90.920168 265.43407 
L 91.321841 265.15769 
L 91.803845 264.82603 
L 92.285849 264.522007 
L 92.647347 264.245628 
L 93.169516 263.88633 
L 93.531015 263.637582 
L 94.053184 263.278284 
L 94.535188 262.946624 
L 94.93686 262.670245 
L 95.418864 262.338584 
L 95.740197 262.089842 
L 96.302532 261.730545 
L 96.704205 261.481796 
L 97.105877 261.150136 
L 97.628047 260.790839 
L 98.069876 260.514453 
L 98.55188 260.210436 
L 98.873222 259.961688 
L 99.395391 259.574753 
L 99.91756 259.243093 
L 100.238893 259.021988 
L 100.761062 258.66269 
L 101.2029 258.386305 
L 101.684904 258.054644 
L 102.006237 257.778259 
L 102.488241 257.474236 
L 103.050575 257.142582 
L 103.412083 256.838559 
L 103.894087 256.506899 
" clip-path="url(#p2819009d5a)" style="fill: none; stroke: #7f7f7f; stroke-width: 1.5; stroke-linecap: square"/>
   </g>
   <g id="line2d_27">
    <path d="M 59.02767 287.185398 
L 425.630656 34.930852 
L 425.630656 34.930852 
" clip-path="url(#p2819009d5a)" style="fill: none; stroke: #bcbd22; stroke-width: 1.5; stroke-linecap: square"/>
   </g>
   <g id="patch_3">
    <path d="M 40.603125 299.798125 
L 40.603125 22.318125 
" style="fill: none; stroke: #000000; stroke-width: 0.8; stroke-linejoin: miter; stroke-linecap: square"/>
   </g>
   <g id="patch_4">
    <path d="M 445.943125 299.798125 
L 445.943125 22.318125 
" style="fill: none; stroke: #000000; stroke-width: 0.8; stroke-linejoin: miter; stroke-linecap: square"/>
   </g>
   <g id="patch_5">
    <path d="M 40.603125 299.798125 
L 445.943125 299.798125 
" style="fill: none; stroke: #000000; stroke-width: 0.8; stroke-linejoin: miter; stroke-linecap: square"/>
   </g>
   <g id="patch_6">
    <path d="M 40.603125 22.318125 
L 445.943125 22.318125 
" style="fill: none; stroke: #000000; stroke-width: 0.8; stroke-linejoin: miter; stroke-linecap: square"/>
   </g>
   <g id="text_21">
    <!-- Right Position vs. Left position -->
    <g transform="translate(152.850313 16.318125) scale(0.12 -0.12)">
     <defs>
      <path id="DejaVuSans-76" d="M 191 3500 
L 800 3500 
L 1894 563 
L 2988 3500 
L 3597 3500 
L 2284 0 
L 1503 0 
L 191 3500 
z
" transform="scale(0.015625)"/>
      <path id="DejaVuSans-2e" d="M 684 794 
L 1344 794 
L 1344 0 
L 684 0 
L 684 794 
z
" transform="scale(0.015625)"/>
      <path id="DejaVuSans-70" d="M 1159 525 
L 1159 -1331 
L 581 -1331 
L 581 3500 
L 1159 3500 
L 1159 2969 
Q 1341 3281 1617 3432 
Q 1894 3584 2278 3584 
Q 2916 3584 3314 3078 
Q 3713 2572 3713 1747 
Q 3713 922 3314 415 
Q 2916 -91 2278 -91 
Q 1894 -91 1617 61 
Q 1341 213 1159 525 
z
M 3116 1747 
Q 3116 2381 2855 2742 
Q 2594 3103 2138 3103 
Q 1681 3103 1420 2742 
Q 1159 2381 1159 1747 
Q 1159 1113 1420 752 
Q 1681 391 2138 391 
Q 2594 391 2855 752 
Q 3116 1113 3116 1747 
z
" transform="scale(0.015625)"/>
     </defs>
     <use xlink:href="#DejaVuSans-52"/>
     <use xlink:href="#DejaVuSans-69" transform="translate(69.482422 0)"/>
     <use xlink:href="#DejaVuSans-67" transform="translate(97.265625 0)"/>
     <use xlink:href="#DejaVuSans-68" transform="translate(160.742188 0)"/>
     <use xlink:href="#DejaVuSans-74" transform="translate(224.121094 0)"/>
     <use xlink:href="#DejaVuSans-20" transform="translate(263.330078 0)"/>
     <use xlink:href="#DejaVuSans-50" transform="translate(295.117188 0)"/>
     <use xlink:href="#DejaVuSans-6f" transform="translate(351.794922 0)"/>
     <use xlink:href="#DejaVuSans-73" transform="translate(412.976562 0)"/>
     <use xlink:href="#DejaVuSans-69" transform="translate(465.076172 0)"/>
     <use xlink:href="#DejaVuSans-74" transform="translate(492.859375 0)"/>
     <use xlink:href="#DejaVuSans-69" transform="translate(532.068359 0)"/>
     <use xlink:href="#DejaVuSans-6f" transform="translate(559.851562 0)"/>
     <use xlink:href="#DejaVuSans-6e" transform="translate(621.033203 0)"/>
     <use xlink:href="#DejaVuSans-20" transform="translate(684.412109 0)"/>
     <use xlink:href="#DejaVuSans-76" transform="translate(716.199219 0)"/>
     <use xlink:href="#DejaVuSans-73" transform="translate(775.378906 0)"/>
     <use xlink:href="#DejaVuSans-2e" transform="translate(827.478516 0)"/>
     <use xlink:href="#DejaVuSans-20" transform="translate(859.265625 0)"/>
     <use xlink:href="#DejaVuSans-4c" transform="translate(891.052734 0)"/>
     <use xlink:href="#DejaVuSans-65" transform="translate(945.015625 0)"/>
     <use xlink:href="#DejaVuSans-66" transform="translate(1006.539062 0)"/>
     <use xlink:href="#DejaVuSans-74" transform="translate(1039.994141 0)"/>
     <use xlink:href="#DejaVuSans-20" transform="translate(1079.203125 0)"/>
     <use xlink:href="#DejaVuSans-70" transform="translate(1110.990234 0)"/>
     <use xlink:href="#DejaVuSans-6f" transform="translate(1174.466797 0)"/>
     <use xlink:href="#DejaVuSans-73" transform="translate(1235.648438 0)"/>
     <use xlink:href="#DejaVuSans-69" transform="translate(1287.748047 0)"/>
     <use xlink:href="#DejaVuSans-74" transform="translate(1315.53125 0)"/>
     <use xlink:href="#DejaVuSans-69" transform="translate(1354.740234 0)"/>
     <use xlink:href="#DejaVuSans-6f" transform="translate(1382.523438 0)"/>
     <use xlink:href="#DejaVuSans-6e" transform="translate(1443.705078 0)"/>
    </g>
   </g>
   <g id="legend_1">
    <g id="patch_7">
     <path d="M 322.418125 294.798125 
L 438.943125 294.798125 
Q 440.943125 294.798125 440.943125 292.798125 
L 440.943125 161.695 
Q 440.943125 159.695 438.943125 159.695 
L 322.418125 159.695 
Q 320.418125 159.695 320.418125 161.695 
L 320.418125 292.798125 
Q 320.418125 294.798125 322.418125 294.798125 
z
" style="fill: #ffffff; opacity: 0.8; stroke: #cccccc; stroke-linejoin: miter"/>
    </g>
    <g id="line2d_28">
     <path d="M 324.418125 167.793438 
L 334.418125 167.793438 
L 344.418125 167.793438 
" style="fill: none; stroke: #1f77b4; stroke-width: 1.5; stroke-linecap: square"/>
    </g>
    <g id="text_22">
     <!-- Ref Speed = 680 -->
     <g transform="translate(352.418125 171.293438) scale(0.1 -0.1)">
      <defs>
       <path id="DejaVuSans-53" d="M 3425 4513 
L 3425 3897 
Q 3066 4069 2747 4153 
Q 2428 4238 2131 4238 
Q 1616 4238 1336 4038 
Q 1056 3838 1056 3469 
Q 1056 3159 1242 3001 
Q 1428 2844 1947 2747 
L 2328 2669 
Q 3034 2534 3370 2195 
Q 3706 1856 3706 1288 
Q 3706 609 3251 259 
Q 2797 -91 1919 -91 
Q 1588 -91 1214 -16 
Q 841 59 441 206 
L 441 856 
Q 825 641 1194 531 
Q 1563 422 1919 422 
Q 2459 422 2753 634 
Q 3047 847 3047 1241 
Q 3047 1584 2836 1778 
Q 2625 1972 2144 2069 
L 1759 2144 
Q 1053 2284 737 2584 
Q 422 2884 422 3419 
Q 422 4038 858 4394 
Q 1294 4750 2059 4750 
Q 2388 4750 2728 4690 
Q 3069 4631 3425 4513 
z
" transform="scale(0.015625)"/>
       <path id="DejaVuSans-3d" d="M 678 2906 
L 4684 2906 
L 4684 2381 
L 678 2381 
L 678 2906 
z
M 678 1631 
L 4684 1631 
L 4684 1100 
L 678 1100 
L 678 1631 
z
" transform="scale(0.015625)"/>
       <path id="DejaVuSans-36" d="M 2113 2584 
Q 1688 2584 1439 2293 
Q 1191 2003 1191 1497 
Q 1191 994 1439 701 
Q 1688 409 2113 409 
Q 2538 409 2786 701 
Q 3034 994 3034 1497 
Q 3034 2003 2786 2293 
Q 2538 2584 2113 2584 
z
M 3366 4563 
L 3366 3988 
Q 3128 4100 2886 4159 
Q 2644 4219 2406 4219 
Q 1781 4219 1451 3797 
Q 1122 3375 1075 2522 
Q 1259 2794 1537 2939 
Q 1816 3084 2150 3084 
Q 2853 3084 3261 2657 
Q 3669 2231 3669 1497 
Q 3669 778 3244 343 
Q 2819 -91 2113 -91 
Q 1303 -91 875 529 
Q 447 1150 447 2328 
Q 447 3434 972 4092 
Q 1497 4750 2381 4750 
Q 2619 4750 2861 4703 
Q 3103 4656 3366 4563 
z
" transform="scale(0.015625)"/>
       <path id="DejaVuSans-38" d="M 2034 2216 
Q 1584 2216 1326 1975 
Q 1069 1734 1069 1313 
Q 1069 891 1326 650 
Q 1584 409 2034 409 
Q 2484 409 2743 651 
Q 3003 894 3003 1313 
Q 3003 1734 2745 1975 
Q 2488 2216 2034 2216 
z
M 1403 2484 
Q 997 2584 770 2862 
Q 544 3141 544 3541 
Q 544 4100 942 4425 
Q 1341 4750 2034 4750 
Q 2731 4750 3128 4425 
Q 3525 4100 3525 3541 
Q 3525 3141 3298 2862 
Q 3072 2584 2669 2484 
Q 3125 2378 3379 2068 
Q 3634 1759 3634 1313 
Q 3634 634 3220 271 
Q 2806 -91 2034 -91 
Q 1263 -91 848 271 
Q 434 634 434 1313 
Q 434 1759 690 2068 
Q 947 2378 1403 2484 
z
M 1172 3481 
Q 1172 3119 1398 2916 
Q 1625 2713 2034 2713 
Q 2441 2713 2670 2916 
Q 2900 3119 2900 3481 
Q 2900 3844 2670 4047 
Q 2441 4250 2034 4250 
Q 1625 4250 1398 4047 
Q 1172 3844 1172 3481 
z
" transform="scale(0.015625)"/>
      </defs>
      <use xlink:href="#DejaVuSans-52"/>
      <use xlink:href="#DejaVuSans-65" transform="translate(64.982422 0)"/>
      <use xlink:href="#DejaVuSans-66" transform="translate(126.505859 0)"/>
      <use xlink:href="#DejaVuSans-20" transform="translate(161.710938 0)"/>
      <use xlink:href="#DejaVuSans-53" transform="translate(193.498047 0)"/>
      <use xlink:href="#DejaVuSans-70" transform="translate(256.974609 0)"/>
      <use xlink:href="#DejaVuSans-65" transform="translate(320.451172 0)"/>
      <use xlink:href="#DejaVuSans-65" transform="translate(381.974609 0)"/>
      <use xlink:href="#DejaVuSans-64" transform="translate(443.498047 0)"/>
      <use xlink:href="#DejaVuSans-20" transform="translate(506.974609 0)"/>
      <use xlink:href="#DejaVuSans-3d" transform="translate(538.761719 0)"/>
      <use xlink:href="#DejaVuSans-20" transform="translate(622.550781 0)"/>
      <use xlink:href="#DejaVuSans-36" transform="translate(654.337891 0)"/>
      <use xlink:href="#DejaVuSans-38" transform="translate(717.960938 0)"/>
      <use xlink:href="#DejaVuSans-30" transform="translate(781.583984 0)"/>
     </g>
    </g>
    <g id="line2d_29">
     <path d="M 324.418125 182.471563 
L 334.418125 182.471563 
L 344.418125 182.471563 
" style="fill: none; stroke: #ff7f0e; stroke-width: 1.5; stroke-linecap: square"/>
    </g>
    <g id="text_23">
     <!-- Ref Speed = 595 -->
     <g transform="translate(352.418125 185.971563) scale(0.1 -0.1)">
      <defs>
       <path id="DejaVuSans-39" d="M 703 97 
L 703 672 
Q 941 559 1184 500 
Q 1428 441 1663 441 
Q 2288 441 2617 861 
Q 2947 1281 2994 2138 
Q 2813 1869 2534 1725 
Q 2256 1581 1919 1581 
Q 1219 1581 811 2004 
Q 403 2428 403 3163 
Q 403 3881 828 4315 
Q 1253 4750 1959 4750 
Q 2769 4750 3195 4129 
Q 3622 3509 3622 2328 
Q 3622 1225 3098 567 
Q 2575 -91 1691 -91 
Q 1453 -91 1209 -44 
Q 966 3 703 97 
z
M 1959 2075 
Q 2384 2075 2632 2365 
Q 2881 2656 2881 3163 
Q 2881 3666 2632 3958 
Q 2384 4250 1959 4250 
Q 1534 4250 1286 3958 
Q 1038 3666 1038 3163 
Q 1038 2656 1286 2365 
Q 1534 2075 1959 2075 
z
" transform="scale(0.015625)"/>
      </defs>
      <use xlink:href="#DejaVuSans-52"/>
      <use xlink:href="#DejaVuSans-65" transform="translate(64.982422 0)"/>
      <use xlink:href="#DejaVuSans-66" transform="translate(126.505859 0)"/>
      <use xlink:href="#DejaVuSans-20" transform="translate(161.710938 0)"/>
      <use xlink:href="#DejaVuSans-53" transform="translate(193.498047 0)"/>
      <use xlink:href="#DejaVuSans-70" transform="translate(256.974609 0)"/>
      <use xlink:href="#DejaVuSans-65" transform="translate(320.451172 0)"/>
      <use xlink:href="#DejaVuSans-65" transform="translate(381.974609 0)"/>
      <use xlink:href="#DejaVuSans-64" transform="translate(443.498047 0)"/>
      <use xlink:href="#DejaVuSans-20" transform="translate(506.974609 0)"/>
      <use xlink:href="#DejaVuSans-3d" transform="translate(538.761719 0)"/>
      <use xlink:href="#DejaVuSans-20" transform="translate(622.550781 0)"/>
      <use xlink:href="#DejaVuSans-35" transform="translate(654.337891 0)"/>
      <use xlink:href="#DejaVuSans-39" transform="translate(717.960938 0)"/>
      <use xlink:href="#DejaVuSans-35" transform="translate(781.583984 0)"/>
     </g>
    </g>
    <g id="line2d_30">
     <path d="M 324.418125 197.149688 
L 334.418125 197.149688 
L 344.418125 197.149688 
" style="fill: none; stroke: #2ca02c; stroke-width: 1.5; stroke-linecap: square"/>
    </g>
    <g id="text_24">
     <!-- Ref Speed = 510 -->
     <g transform="translate(352.418125 200.649688) scale(0.1 -0.1)">
      <use xlink:href="#DejaVuSans-52"/>
      <use xlink:href="#DejaVuSans-65" transform="translate(64.982422 0)"/>
      <use xlink:href="#DejaVuSans-66" transform="translate(126.505859 0)"/>
      <use xlink:href="#DejaVuSans-20" transform="translate(161.710938 0)"/>
      <use xlink:href="#DejaVuSans-53" transform="translate(193.498047 0)"/>
      <use xlink:href="#DejaVuSans-70" transform="translate(256.974609 0)"/>
      <use xlink:href="#DejaVuSans-65" transform="translate(320.451172 0)"/>
      <use xlink:href="#DejaVuSans-65" transform="translate(381.974609 0)"/>
      <use xlink:href="#DejaVuSans-64" transform="translate(443.498047 0)"/>
      <use xlink:href="#DejaVuSans-20" transform="translate(506.974609 0)"/>
      <use xlink:href="#DejaVuSans-3d" transform="translate(538.761719 0)"/>
      <use xlink:href="#DejaVuSans-20" transform="translate(622.550781 0)"/>
      <use xlink:href="#DejaVuSans-35" transform="translate(654.337891 0)"/>
      <use xlink:href="#DejaVuSans-31" transform="translate(717.960938 0)"/>
      <use xlink:href="#DejaVuSans-30" transform="translate(781.583984 0)"/>
     </g>
    </g>
    <g id="line2d_31">
     <path d="M 324.418125 211.827813 
L 334.418125 211.827813 
L 344.418125 211.827813 
" style="fill: none; stroke: #d62728; stroke-width: 1.5; stroke-linecap: square"/>
    </g>
    <g id="text_25">
     <!-- Ref Speed = 425 -->
     <g transform="translate(352.418125 215.327813) scale(0.1 -0.1)">
      <use xlink:href="#DejaVuSans-52"/>
      <use xlink:href="#DejaVuSans-65" transform="translate(64.982422 0)"/>
      <use xlink:href="#DejaVuSans-66" transform="translate(126.505859 0)"/>
      <use xlink:href="#DejaVuSans-20" transform="translate(161.710938 0)"/>
      <use xlink:href="#DejaVuSans-53" transform="translate(193.498047 0)"/>
      <use xlink:href="#DejaVuSans-70" transform="translate(256.974609 0)"/>
      <use xlink:href="#DejaVuSans-65" transform="translate(320.451172 0)"/>
      <use xlink:href="#DejaVuSans-65" transform="translate(381.974609 0)"/>
      <use xlink:href="#DejaVuSans-64" transform="translate(443.498047 0)"/>
      <use xlink:href="#DejaVuSans-20" transform="translate(506.974609 0)"/>
      <use xlink:href="#DejaVuSans-3d" transform="translate(538.761719 0)"/>
      <use xlink:href="#DejaVuSans-20" transform="translate(622.550781 0)"/>
      <use xlink:href="#DejaVuSans-34" transform="translate(654.337891 0)"/>
      <use xlink:href="#DejaVuSans-32" transform="translate(717.960938 0)"/>
      <use xlink:href="#DejaVuSans-35" transform="translate(781.583984 0)"/>
     </g>
    </g>
    <g id="line2d_32">
     <path d="M 324.418125 226.505938 
L 334.418125 226.505938 
L 344.418125 226.505938 
" style="fill: none; stroke: #9467bd; stroke-width: 1.5; stroke-linecap: square"/>
    </g>
    <g id="text_26">
     <!-- Ref Speed = 340 -->
     <g transform="translate(352.418125 230.005938) scale(0.1 -0.1)">
      <use xlink:href="#DejaVuSans-52"/>
      <use xlink:href="#DejaVuSans-65" transform="translate(64.982422 0)"/>
      <use xlink:href="#DejaVuSans-66" transform="translate(126.505859 0)"/>
      <use xlink:href="#DejaVuSans-20" transform="translate(161.710938 0)"/>
      <use xlink:href="#DejaVuSans-53" transform="translate(193.498047 0)"/>
      <use xlink:href="#DejaVuSans-70" transform="translate(256.974609 0)"/>
      <use xlink:href="#DejaVuSans-65" transform="translate(320.451172 0)"/>
      <use xlink:href="#DejaVuSans-65" transform="translate(381.974609 0)"/>
      <use xlink:href="#DejaVuSans-64" transform="translate(443.498047 0)"/>
      <use xlink:href="#DejaVuSans-20" transform="translate(506.974609 0)"/>
      <use xlink:href="#DejaVuSans-3d" transform="translate(538.761719 0)"/>
      <use xlink:href="#DejaVuSans-20" transform="translate(622.550781 0)"/>
      <use xlink:href="#DejaVuSans-33" transform="translate(654.337891 0)"/>
      <use xlink:href="#DejaVuSans-34" transform="translate(717.960938 0)"/>
      <use xlink:href="#DejaVuSans-30" transform="translate(781.583984 0)"/>
     </g>
    </g>
    <g id="line2d_33">
     <path d="M 324.418125 241.184063 
L 334.418125 241.184063 
L 344.418125 241.184063 
" style="fill: none; stroke: #8c564b; stroke-width: 1.5; stroke-linecap: square"/>
    </g>
    <g id="text_27">
     <!-- Ref Speed = 255 -->
     <g transform="translate(352.418125 244.684063) scale(0.1 -0.1)">
      <use xlink:href="#DejaVuSans-52"/>
      <use xlink:href="#DejaVuSans-65" transform="translate(64.982422 0)"/>
      <use xlink:href="#DejaVuSans-66" transform="translate(126.505859 0)"/>
      <use xlink:href="#DejaVuSans-20" transform="translate(161.710938 0)"/>
      <use xlink:href="#DejaVuSans-53" transform="translate(193.498047 0)"/>
      <use xlink:href="#DejaVuSans-70" transform="translate(256.974609 0)"/>
      <use xlink:href="#DejaVuSans-65" transform="translate(320.451172 0)"/>
      <use xlink:href="#DejaVuSans-65" transform="translate(381.974609 0)"/>
      <use xlink:href="#DejaVuSans-64" transform="translate(443.498047 0)"/>
      <use xlink:href="#DejaVuSans-20" transform="translate(506.974609 0)"/>
      <use xlink:href="#DejaVuSans-3d" transform="translate(538.761719 0)"/>
      <use xlink:href="#DejaVuSans-20" transform="translate(622.550781 0)"/>
      <use xlink:href="#DejaVuSans-32" transform="translate(654.337891 0)"/>
      <use xlink:href="#DejaVuSans-35" transform="translate(717.960938 0)"/>
      <use xlink:href="#DejaVuSans-35" transform="translate(781.583984 0)"/>
     </g>
    </g>
    <g id="line2d_34">
     <path d="M 324.418125 255.862188 
L 334.418125 255.862188 
L 344.418125 255.862188 
" style="fill: none; stroke: #e377c2; stroke-width: 1.5; stroke-linecap: square"/>
    </g>
    <g id="text_28">
     <!-- Ref Speed = 170 -->
     <g transform="translate(352.418125 259.362188) scale(0.1 -0.1)">
      <defs>
       <path id="DejaVuSans-37" d="M 525 4666 
L 3525 4666 
L 3525 4397 
L 1831 0 
L 1172 0 
L 2766 4134 
L 525 4134 
L 525 4666 
z
" transform="scale(0.015625)"/>
      </defs>
      <use xlink:href="#DejaVuSans-52"/>
      <use xlink:href="#DejaVuSans-65" transform="translate(64.982422 0)"/>
      <use xlink:href="#DejaVuSans-66" transform="translate(126.505859 0)"/>
      <use xlink:href="#DejaVuSans-20" transform="translate(161.710938 0)"/>
      <use xlink:href="#DejaVuSans-53" transform="translate(193.498047 0)"/>
      <use xlink:href="#DejaVuSans-70" transform="translate(256.974609 0)"/>
      <use xlink:href="#DejaVuSans-65" transform="translate(320.451172 0)"/>
      <use xlink:href="#DejaVuSans-65" transform="translate(381.974609 0)"/>
      <use xlink:href="#DejaVuSans-64" transform="translate(443.498047 0)"/>
      <use xlink:href="#DejaVuSans-20" transform="translate(506.974609 0)"/>
      <use xlink:href="#DejaVuSans-3d" transform="translate(538.761719 0)"/>
      <use xlink:href="#DejaVuSans-20" transform="translate(622.550781 0)"/>
      <use xlink:href="#DejaVuSans-31" transform="translate(654.337891 0)"/>
      <use xlink:href="#DejaVuSans-37" transform="translate(717.960938 0)"/>
      <use xlink:href="#DejaVuSans-30" transform="translate(781.583984 0)"/>
     </g>
    </g>
    <g id="line2d_35">
     <path d="M 324.418125 270.540313 
L 334.418125 270.540313 
L 344.418125 270.540313 
" style="fill: none; stroke: #7f7f7f; stroke-width: 1.5; stroke-linecap: square"/>
    </g>
    <g id="text_29">
     <!-- Ref Speed = 85 -->
     <g transform="translate(352.418125 274.040313) scale(0.1 -0.1)">
      <use xlink:href="#DejaVuSans-52"/>
      <use xlink:href="#DejaVuSans-65" transform="translate(64.982422 0)"/>
      <use xlink:href="#DejaVuSans-66" transform="translate(126.505859 0)"/>
      <use xlink:href="#DejaVuSans-20" transform="translate(161.710938 0)"/>
      <use xlink:href="#DejaVuSans-53" transform="translate(193.498047 0)"/>
      <use xlink:href="#DejaVuSans-70" transform="translate(256.974609 0)"/>
      <use xlink:href="#DejaVuSans-65" transform="translate(320.451172 0)"/>
      <use xlink:href="#DejaVuSans-65" transform="translate(381.974609 0)"/>
      <use xlink:href="#DejaVuSans-64" transform="translate(443.498047 0)"/>
      <use xlink:href="#DejaVuSans-20" transform="translate(506.974609 0)"/>
      <use xlink:href="#DejaVuSans-3d" transform="translate(538.761719 0)"/>
      <use xlink:href="#DejaVuSans-20" transform="translate(622.550781 0)"/>
      <use xlink:href="#DejaVuSans-38" transform="translate(654.337891 0)"/>
      <use xlink:href="#DejaVuSans-35" transform="translate(717.960938 0)"/>
     </g>
    </g>
    <g id="line2d_36">
     <path d="M 324.418125 285.218438 
L 334.418125 285.218438 
L 344.418125 285.218438 
" style="fill: none; stroke: #bcbd22; stroke-width: 1.5; stroke-linecap: square"/>
    </g>
    <g id="text_30">
     <!-- y = x -->
     <g transform="translate(352.418125 288.718438) scale(0.1 -0.1)">
      <defs>
       <path id="DejaVuSans-79" d="M 2059 -325 
Q 1816 -950 1584 -1140 
Q 1353 -1331 966 -1331 
L 506 -1331 
L 506 -850 
L 844 -850 
Q 1081 -850 1212 -737 
Q 1344 -625 1503 -206 
L 1606 56 
L 191 3500 
L 800 3500 
L 1894 763 
L 2988 3500 
L 3597 3500 
L 2059 -325 
z
" transform="scale(0.015625)"/>
       <path id="DejaVuSans-78" d="M 3513 3500 
L 2247 1797 
L 3578 0 
L 2900 0 
L 1881 1375 
L 863 0 
L 184 0 
L 1544 1831 
L 300 3500 
L 978 3500 
L 1906 2253 
L 2834 3500 
L 3513 3500 
z
" transform="scale(0.015625)"/>
      </defs>
      <use xlink:href="#DejaVuSans-79"/>
      <use xlink:href="#DejaVuSans-20" transform="translate(59.179688 0)"/>
      <use xlink:href="#DejaVuSans-3d" transform="translate(90.966797 0)"/>
      <use xlink:href="#DejaVuSans-20" transform="translate(174.755859 0)"/>
      <use xlink:href="#DejaVuSans-78" transform="translate(206.542969 0)"/>
     </g>
    </g>
   </g>
  </g>
 </g>
 <defs>
  <clipPath id="p2819009d5a">
   <rect x="40.603125" y="22.318125" width="405.34" height="277.48"/>
  </clipPath>
 </defs>
</svg>
