<?xml version="1.0" encoding="utf-8" standalone="no"?>
<!DOCTYPE svg PUBLIC "-//W3C//DTD SVG 1.1//EN"
  "http://www.w3.org/Graphics/SVG/1.1/DTD/svg11.dtd">
<svg xmlns:xlink="http://www.w3.org/1999/xlink" width="453.143125pt" height="337.354375pt" viewBox="0 0 453.143125 337.354375" xmlns="http://www.w3.org/2000/svg" version="1.1">
 <metadata>
  <rdf:RDF xmlns:dc="http://purl.org/dc/elements/1.1/" xmlns:cc="http://creativecommons.org/ns#" xmlns:rdf="http://www.w3.org/1999/02/22-rdf-syntax-ns#">
   <cc:Work>
    <dc:type rdf:resource="http://purl.org/dc/dcmitype/StillImage"/>
    <dc:date>2025-10-29T19:57:20.983691</dc:date>
    <dc:format>image/svg+xml</dc:format>
    <dc:creator>
     <cc:Agent>
      <dc:title>Matplotlib v3.10.6, https://matplotlib.org/</dc:title>
     </cc:Agent>
    </dc:creator>
   </cc:Work>
  </rdf:RDF>
 </metadata>
 <defs>
  <style type="text/css">*{stroke-linejoin: round; stroke-linecap: butt}</style>
 </defs>
 <g id="figure_1">
  <g id="patch_1">
   <path d="M 0 337.354375 
L 453.143125 337.354375 
L 453.143125 0 
L 0 0 
z
" style="fill: #ffffff"/>
  </g>
  <g id="axes_1">
   <g id="patch_2">
    <path d="M 40.603125 299.798125 
L 445.943125 299.798125 
L 445.943125 22.318125 
L 40.603125 22.318125 
z
" style="fill: #ffffff"/>
   </g>
   <g id="matplotlib.axis_1">
    <g id="xtick_1">
     <g id="line2d_1">
      <defs>
       <path id="me829f4b59c" d="M 0 0 
L 0 3.5 
" style="stroke: #000000; stroke-width: 0.8"/>
      </defs>
      <g>
       <use xlink:href="#me829f4b59c" x="58.819209" y="299.798125" style="stroke: #000000; stroke-width: 0.8"/>
      </g>
     </g>
     <g id="text_1">
      <!-- 0.00 -->
      <g transform="translate(47.686396 314.396563) scale(0.1 -0.1)">
       <defs>
        <path id="DejaVuSans-30" d="M 2034 4250 
Q 1547 4250 1301 3770 
Q 1056 3291 1056 2328 
Q 1056 1369 1301 889 
Q 1547 409 2034 409 
Q 2525 409 2770 889 
Q 3016 1369 3016 2328 
Q 3016 3291 2770 3770 
Q 2525 4250 2034 4250 
z
M 2034 4750 
Q 2819 4750 3233 4129 
Q 3647 3509 3647 2328 
Q 3647 1150 3233 529 
Q 2819 -91 2034 -91 
Q 1250 -91 836 529 
Q 422 1150 422 2328 
Q 422 3509 836 4129 
Q 1250 4750 2034 4750 
z
" transform="scale(0.015625)"/>
        <path id="DejaVuSans-2e" d="M 684 794 
L 1344 794 
L 1344 0 
L 684 0 
L 684 794 
z
" transform="scale(0.015625)"/>
       </defs>
       <use xlink:href="#DejaVuSans-30"/>
       <use xlink:href="#DejaVuSans-2e" transform="translate(63.623047 0)"/>
       <use xlink:href="#DejaVuSans-30" transform="translate(95.410156 0)"/>
       <use xlink:href="#DejaVuSans-30" transform="translate(159.033203 0)"/>
      </g>
     </g>
    </g>
    <g id="xtick_2">
     <g id="line2d_2">
      <g>
       <use xlink:href="#me829f4b59c" x="104.979864" y="299.798125" style="stroke: #000000; stroke-width: 0.8"/>
      </g>
     </g>
     <g id="text_2">
      <!-- 0.25 -->
      <g transform="translate(93.847052 314.396563) scale(0.1 -0.1)">
       <defs>
        <path id="DejaVuSans-32" d="M 1228 531 
L 3431 531 
L 3431 0 
L 469 0 
L 469 531 
Q 828 903 1448 1529 
Q 2069 2156 2228 2338 
Q 2531 2678 2651 2914 
Q 2772 3150 2772 3378 
Q 2772 3750 2511 3984 
Q 2250 4219 1831 4219 
Q 1534 4219 1204 4116 
Q 875 4013 500 3803 
L 500 4441 
Q 881 4594 1212 4672 
Q 1544 4750 1819 4750 
Q 2544 4750 2975 4387 
Q 3406 4025 3406 3419 
Q 3406 3131 3298 2873 
Q 3191 2616 2906 2266 
Q 2828 2175 2409 1742 
Q 1991 1309 1228 531 
z
" transform="scale(0.015625)"/>
        <path id="DejaVuSans-35" d="M 691 4666 
L 3169 4666 
L 3169 4134 
L 1269 4134 
L 1269 2991 
Q 1406 3038 1543 3061 
Q 1681 3084 1819 3084 
Q 2600 3084 3056 2656 
Q 3513 2228 3513 1497 
Q 3513 744 3044 326 
Q 2575 -91 1722 -91 
Q 1428 -91 1123 -41 
Q 819 9 494 109 
L 494 744 
Q 775 591 1075 516 
Q 1375 441 1709 441 
Q 2250 441 2565 725 
Q 2881 1009 2881 1497 
Q 2881 1984 2565 2268 
Q 2250 2553 1709 2553 
Q 1456 2553 1204 2497 
Q 953 2441 691 2322 
L 691 4666 
z
" transform="scale(0.015625)"/>
       </defs>
       <use xlink:href="#DejaVuSans-30"/>
       <use xlink:href="#DejaVuSans-2e" transform="translate(63.623047 0)"/>
       <use xlink:href="#DejaVuSans-32" transform="translate(95.410156 0)"/>
       <use xlink:href="#DejaVuSans-35" transform="translate(159.033203 0)"/>
      </g>
     </g>
    </g>
    <g id="xtick_3">
     <g id="line2d_3">
      <g>
       <use xlink:href="#me829f4b59c" x="151.140519" y="299.798125" style="stroke: #000000; stroke-width: 0.8"/>
      </g>
     </g>
     <g id="text_3">
      <!-- 0.50 -->
      <g transform="translate(140.007707 314.396563) scale(0.1 -0.1)">
       <use xlink:href="#DejaVuSans-30"/>
       <use xlink:href="#DejaVuSans-2e" transform="translate(63.623047 0)"/>
       <use xlink:href="#DejaVuSans-35" transform="translate(95.410156 0)"/>
       <use xlink:href="#DejaVuSans-30" transform="translate(159.033203 0)"/>
      </g>
     </g>
    </g>
    <g id="xtick_4">
     <g id="line2d_4">
      <g>
       <use xlink:href="#me829f4b59c" x="197.301175" y="299.798125" style="stroke: #000000; stroke-width: 0.8"/>
      </g>
     </g>
     <g id="text_4">
      <!-- 0.75 -->
      <g transform="translate(186.168362 314.396563) scale(0.1 -0.1)">
       <defs>
        <path id="DejaVuSans-37" d="M 525 4666 
L 3525 4666 
L 3525 4397 
L 1831 0 
L 1172 0 
L 2766 4134 
L 525 4134 
L 525 4666 
z
" transform="scale(0.015625)"/>
       </defs>
       <use xlink:href="#DejaVuSans-30"/>
       <use xlink:href="#DejaVuSans-2e" transform="translate(63.623047 0)"/>
       <use xlink:href="#DejaVuSans-37" transform="translate(95.410156 0)"/>
       <use xlink:href="#DejaVuSans-35" transform="translate(159.033203 0)"/>
      </g>
     </g>
    </g>
    <g id="xtick_5">
     <g id="line2d_5">
      <g>
       <use xlink:href="#me829f4b59c" x="243.46183" y="299.798125" style="stroke: #000000; stroke-width: 0.8"/>
      </g>
     </g>
     <g id="text_5">
      <!-- 1.00 -->
      <g transform="translate(232.329017 314.396563) scale(0.1 -0.1)">
       <defs>
        <path id="DejaVuSans-31" d="M 794 531 
L 1825 531 
L 1825 4091 
L 703 3866 
L 703 4441 
L 1819 4666 
L 2450 4666 
L 2450 531 
L 3481 531 
L 3481 0 
L 794 0 
L 794 531 
z
" transform="scale(0.015625)"/>
       </defs>
       <use xlink:href="#DejaVuSans-31"/>
       <use xlink:href="#DejaVuSans-2e" transform="translate(63.623047 0)"/>
       <use xlink:href="#DejaVuSans-30" transform="translate(95.410156 0)"/>
       <use xlink:href="#DejaVuSans-30" transform="translate(159.033203 0)"/>
      </g>
     </g>
    </g>
    <g id="xtick_6">
     <g id="line2d_6">
      <g>
       <use xlink:href="#me829f4b59c" x="289.622485" y="299.798125" style="stroke: #000000; stroke-width: 0.8"/>
      </g>
     </g>
     <g id="text_6">
      <!-- 1.25 -->
      <g transform="translate(278.489672 314.396563) scale(0.1 -0.1)">
       <use xlink:href="#DejaVuSans-31"/>
       <use xlink:href="#DejaVuSans-2e" transform="translate(63.623047 0)"/>
       <use xlink:href="#DejaVuSans-32" transform="translate(95.410156 0)"/>
       <use xlink:href="#DejaVuSans-35" transform="translate(159.033203 0)"/>
      </g>
     </g>
    </g>
    <g id="xtick_7">
     <g id="line2d_7">
      <g>
       <use xlink:href="#me829f4b59c" x="335.78314" y="299.798125" style="stroke: #000000; stroke-width: 0.8"/>
      </g>
     </g>
     <g id="text_7">
      <!-- 1.50 -->
      <g transform="translate(324.650328 314.396563) scale(0.1 -0.1)">
       <use xlink:href="#DejaVuSans-31"/>
       <use xlink:href="#DejaVuSans-2e" transform="translate(63.623047 0)"/>
       <use xlink:href="#DejaVuSans-35" transform="translate(95.410156 0)"/>
       <use xlink:href="#DejaVuSans-30" transform="translate(159.033203 0)"/>
      </g>
     </g>
    </g>
    <g id="xtick_8">
     <g id="line2d_8">
      <g>
       <use xlink:href="#me829f4b59c" x="381.943795" y="299.798125" style="stroke: #000000; stroke-width: 0.8"/>
      </g>
     </g>
     <g id="text_8">
      <!-- 1.75 -->
      <g transform="translate(370.810983 314.396563) scale(0.1 -0.1)">
       <use xlink:href="#DejaVuSans-31"/>
       <use xlink:href="#DejaVuSans-2e" transform="translate(63.623047 0)"/>
       <use xlink:href="#DejaVuSans-37" transform="translate(95.410156 0)"/>
       <use xlink:href="#DejaVuSans-35" transform="translate(159.033203 0)"/>
      </g>
     </g>
    </g>
    <g id="xtick_9">
     <g id="line2d_9">
      <g>
       <use xlink:href="#me829f4b59c" x="428.104451" y="299.798125" style="stroke: #000000; stroke-width: 0.8"/>
      </g>
     </g>
     <g id="text_9">
      <!-- 2.00 -->
      <g transform="translate(416.971638 314.396563) scale(0.1 -0.1)">
       <use xlink:href="#DejaVuSans-32"/>
       <use xlink:href="#DejaVuSans-2e" transform="translate(63.623047 0)"/>
       <use xlink:href="#DejaVuSans-30" transform="translate(95.410156 0)"/>
       <use xlink:href="#DejaVuSans-30" transform="translate(159.033203 0)"/>
      </g>
     </g>
    </g>
    <g id="text_10">
     <!-- time, t (us) -->
     <g transform="translate(215.574687 328.074688) scale(0.1 -0.1)">
      <defs>
       <path id="DejaVuSans-74" d="M 1172 4494 
L 1172 3500 
L 2356 3500 
L 2356 3053 
L 1172 3053 
L 1172 1153 
Q 1172 725 1289 603 
Q 1406 481 1766 481 
L 2356 481 
L 2356 0 
L 1766 0 
Q 1100 0 847 248 
Q 594 497 594 1153 
L 594 3053 
L 172 3053 
L 172 3500 
L 594 3500 
L 594 4494 
L 1172 4494 
z
" transform="scale(0.015625)"/>
       <path id="DejaVuSans-69" d="M 603 3500 
L 1178 3500 
L 1178 0 
L 603 0 
L 603 3500 
z
M 603 4863 
L 1178 4863 
L 1178 4134 
L 603 4134 
L 603 4863 
z
" transform="scale(0.015625)"/>
       <path id="DejaVuSans-6d" d="M 3328 2828 
Q 3544 3216 3844 3400 
Q 4144 3584 4550 3584 
Q 5097 3584 5394 3201 
Q 5691 2819 5691 2113 
L 5691 0 
L 5113 0 
L 5113 2094 
Q 5113 2597 4934 2840 
Q 4756 3084 4391 3084 
Q 3944 3084 3684 2787 
Q 3425 2491 3425 1978 
L 3425 0 
L 2847 0 
L 2847 2094 
Q 2847 2600 2669 2842 
Q 2491 3084 2119 3084 
Q 1678 3084 1418 2786 
Q 1159 2488 1159 1978 
L 1159 0 
L 581 0 
L 581 3500 
L 1159 3500 
L 1159 2956 
Q 1356 3278 1631 3431 
Q 1906 3584 2284 3584 
Q 2666 3584 2933 3390 
Q 3200 3197 3328 2828 
z
" transform="scale(0.015625)"/>
       <path id="DejaVuSans-65" d="M 3597 1894 
L 3597 1613 
L 953 1613 
Q 991 1019 1311 708 
Q 1631 397 2203 397 
Q 2534 397 2845 478 
Q 3156 559 3463 722 
L 3463 178 
Q 3153 47 2828 -22 
Q 2503 -91 2169 -91 
Q 1331 -91 842 396 
Q 353 884 353 1716 
Q 353 2575 817 3079 
Q 1281 3584 2069 3584 
Q 2775 3584 3186 3129 
Q 3597 2675 3597 1894 
z
M 3022 2063 
Q 3016 2534 2758 2815 
Q 2500 3097 2075 3097 
Q 1594 3097 1305 2825 
Q 1016 2553 972 2059 
L 3022 2063 
z
" transform="scale(0.015625)"/>
       <path id="DejaVuSans-2c" d="M 750 794 
L 1409 794 
L 1409 256 
L 897 -744 
L 494 -744 
L 750 256 
L 750 794 
z
" transform="scale(0.015625)"/>
       <path id="DejaVuSans-20" transform="scale(0.015625)"/>
       <path id="DejaVuSans-28" d="M 1984 4856 
Q 1566 4138 1362 3434 
Q 1159 2731 1159 2009 
Q 1159 1288 1364 580 
Q 1569 -128 1984 -844 
L 1484 -844 
Q 1016 -109 783 600 
Q 550 1309 550 2009 
Q 550 2706 781 3412 
Q 1013 4119 1484 4856 
L 1984 4856 
z
" transform="scale(0.015625)"/>
       <path id="DejaVuSans-75" d="M 544 1381 
L 544 3500 
L 1119 3500 
L 1119 1403 
Q 1119 906 1312 657 
Q 1506 409 1894 409 
Q 2359 409 2629 706 
Q 2900 1003 2900 1516 
L 2900 3500 
L 3475 3500 
L 3475 0 
L 2900 0 
L 2900 538 
Q 2691 219 2414 64 
Q 2138 -91 1772 -91 
Q 1169 -91 856 284 
Q 544 659 544 1381 
z
M 1991 3584 
L 1991 3584 
z
" transform="scale(0.015625)"/>
       <path id="DejaVuSans-73" d="M 2834 3397 
L 2834 2853 
Q 2591 2978 2328 3040 
Q 2066 3103 1784 3103 
Q 1356 3103 1142 2972 
Q 928 2841 928 2578 
Q 928 2378 1081 2264 
Q 1234 2150 1697 2047 
L 1894 2003 
Q 2506 1872 2764 1633 
Q 3022 1394 3022 966 
Q 3022 478 2636 193 
Q 2250 -91 1575 -91 
Q 1294 -91 989 -36 
Q 684 19 347 128 
L 347 722 
Q 666 556 975 473 
Q 1284 391 1588 391 
Q 1994 391 2212 530 
Q 2431 669 2431 922 
Q 2431 1156 2273 1281 
Q 2116 1406 1581 1522 
L 1381 1569 
Q 847 1681 609 1914 
Q 372 2147 372 2553 
Q 372 3047 722 3315 
Q 1072 3584 1716 3584 
Q 2034 3584 2315 3537 
Q 2597 3491 2834 3397 
z
" transform="scale(0.015625)"/>
       <path id="DejaVuSans-29" d="M 513 4856 
L 1013 4856 
Q 1481 4119 1714 3412 
Q 1947 2706 1947 2009 
Q 1947 1309 1714 600 
Q 1481 -109 1013 -844 
L 513 -844 
Q 928 -128 1133 580 
Q 1338 1288 1338 2009 
Q 1338 2731 1133 3434 
Q 928 4138 513 4856 
z
" transform="scale(0.015625)"/>
      </defs>
      <use xlink:href="#DejaVuSans-74"/>
      <use xlink:href="#DejaVuSans-69" transform="translate(39.208984 0)"/>
      <use xlink:href="#DejaVuSans-6d" transform="translate(66.992188 0)"/>
      <use xlink:href="#DejaVuSans-65" transform="translate(164.404297 0)"/>
      <use xlink:href="#DejaVuSans-2c" transform="translate(225.927734 0)"/>
      <use xlink:href="#DejaVuSans-20" transform="translate(257.714844 0)"/>
      <use xlink:href="#DejaVuSans-74" transform="translate(289.501953 0)"/>
      <use xlink:href="#DejaVuSans-20" transform="translate(328.710938 0)"/>
      <use xlink:href="#DejaVuSans-28" transform="translate(360.498047 0)"/>
      <use xlink:href="#DejaVuSans-75" transform="translate(399.511719 0)"/>
      <use xlink:href="#DejaVuSans-73" transform="translate(462.890625 0)"/>
      <use xlink:href="#DejaVuSans-29" transform="translate(514.990234 0)"/>
     </g>
    </g>
    <g id="text_11">
     <!-- 1e6 -->
     <g transform="translate(427.065 327.074688) scale(0.1 -0.1)">
      <defs>
       <path id="DejaVuSans-36" d="M 2113 2584 
Q 1688 2584 1439 2293 
Q 1191 2003 1191 1497 
Q 1191 994 1439 701 
Q 1688 409 2113 409 
Q 2538 409 2786 701 
Q 3034 994 3034 1497 
Q 3034 2003 2786 2293 
Q 2538 2584 2113 2584 
z
M 3366 4563 
L 3366 3988 
Q 3128 4100 2886 4159 
Q 2644 4219 2406 4219 
Q 1781 4219 1451 3797 
Q 1122 3375 1075 2522 
Q 1259 2794 1537 2939 
Q 1816 3084 2150 3084 
Q 2853 3084 3261 2657 
Q 3669 2231 3669 1497 
Q 3669 778 3244 343 
Q 2819 -91 2113 -91 
Q 1303 -91 875 529 
Q 447 1150 447 2328 
Q 447 3434 972 4092 
Q 1497 4750 2381 4750 
Q 2619 4750 2861 4703 
Q 3103 4656 3366 4563 
z
" transform="scale(0.015625)"/>
      </defs>
      <use xlink:href="#DejaVuSans-31"/>
      <use xlink:href="#DejaVuSans-65" transform="translate(63.623047 0)"/>
      <use xlink:href="#DejaVuSans-36" transform="translate(125.146484 0)"/>
     </g>
    </g>
   </g>
   <g id="matplotlib.axis_2">
    <g id="ytick_1">
     <g id="line2d_10">
      <defs>
       <path id="m1532ead910" d="M 0 0 
L -3.5 0 
" style="stroke: #000000; stroke-width: 0.8"/>
      </defs>
      <g>
       <use xlink:href="#m1532ead910" x="40.603125" y="287.185398" style="stroke: #000000; stroke-width: 0.8"/>
      </g>
     </g>
     <g id="text_12">
      <!-- 0 -->
      <g transform="translate(27.240625 290.984616) scale(0.1 -0.1)">
       <use xlink:href="#DejaVuSans-30"/>
      </g>
     </g>
    </g>
    <g id="ytick_2">
     <g id="line2d_11">
      <g>
       <use xlink:href="#m1532ead910" x="40.603125" y="255.578236" style="stroke: #000000; stroke-width: 0.8"/>
      </g>
     </g>
     <g id="text_13">
      <!-- 5 -->
      <g transform="translate(27.240625 259.377455) scale(0.1 -0.1)">
       <use xlink:href="#DejaVuSans-35"/>
      </g>
     </g>
    </g>
    <g id="ytick_3">
     <g id="line2d_12">
      <g>
       <use xlink:href="#m1532ead910" x="40.603125" y="223.971074" style="stroke: #000000; stroke-width: 0.8"/>
      </g>
     </g>
     <g id="text_14">
      <!-- 10 -->
      <g transform="translate(20.878125 227.770293) scale(0.1 -0.1)">
       <use xlink:href="#DejaVuSans-31"/>
       <use xlink:href="#DejaVuSans-30" transform="translate(63.623047 0)"/>
      </g>
     </g>
    </g>
    <g id="ytick_4">
     <g id="line2d_13">
      <g>
       <use xlink:href="#m1532ead910" x="40.603125" y="192.363912" style="stroke: #000000; stroke-width: 0.8"/>
      </g>
     </g>
     <g id="text_15">
      <!-- 15 -->
      <g transform="translate(20.878125 196.163131) scale(0.1 -0.1)">
       <use xlink:href="#DejaVuSans-31"/>
       <use xlink:href="#DejaVuSans-35" transform="translate(63.623047 0)"/>
      </g>
     </g>
    </g>
    <g id="ytick_5">
     <g id="line2d_14">
      <g>
       <use xlink:href="#m1532ead910" x="40.603125" y="160.756751" style="stroke: #000000; stroke-width: 0.8"/>
      </g>
     </g>
     <g id="text_16">
      <!-- 20 -->
      <g transform="translate(20.878125 164.555969) scale(0.1 -0.1)">
       <use xlink:href="#DejaVuSans-32"/>
       <use xlink:href="#DejaVuSans-30" transform="translate(63.623047 0)"/>
      </g>
     </g>
    </g>
    <g id="ytick_6">
     <g id="line2d_15">
      <g>
       <use xlink:href="#m1532ead910" x="40.603125" y="129.149589" style="stroke: #000000; stroke-width: 0.8"/>
      </g>
     </g>
     <g id="text_17">
      <!-- 25 -->
      <g transform="translate(20.878125 132.948808) scale(0.1 -0.1)">
       <use xlink:href="#DejaVuSans-32"/>
       <use xlink:href="#DejaVuSans-35" transform="translate(63.623047 0)"/>
      </g>
     </g>
    </g>
    <g id="ytick_7">
     <g id="line2d_16">
      <g>
       <use xlink:href="#m1532ead910" x="40.603125" y="97.542427" style="stroke: #000000; stroke-width: 0.8"/>
      </g>
     </g>
     <g id="text_18">
      <!-- 30 -->
      <g transform="translate(20.878125 101.341646) scale(0.1 -0.1)">
       <defs>
        <path id="DejaVuSans-33" d="M 2597 2516 
Q 3050 2419 3304 2112 
Q 3559 1806 3559 1356 
Q 3559 666 3084 287 
Q 2609 -91 1734 -91 
Q 1441 -91 1130 -33 
Q 819 25 488 141 
L 488 750 
Q 750 597 1062 519 
Q 1375 441 1716 441 
Q 2309 441 2620 675 
Q 2931 909 2931 1356 
Q 2931 1769 2642 2001 
Q 2353 2234 1838 2234 
L 1294 2234 
L 1294 2753 
L 1863 2753 
Q 2328 2753 2575 2939 
Q 2822 3125 2822 3475 
Q 2822 3834 2567 4026 
Q 2313 4219 1838 4219 
Q 1578 4219 1281 4162 
Q 984 4106 628 3988 
L 628 4550 
Q 988 4650 1302 4700 
Q 1616 4750 1894 4750 
Q 2613 4750 3031 4423 
Q 3450 4097 3450 3541 
Q 3450 3153 3228 2886 
Q 3006 2619 2597 2516 
z
" transform="scale(0.015625)"/>
       </defs>
       <use xlink:href="#DejaVuSans-33"/>
       <use xlink:href="#DejaVuSans-30" transform="translate(63.623047 0)"/>
      </g>
     </g>
    </g>
    <g id="ytick_8">
     <g id="line2d_17">
      <g>
       <use xlink:href="#m1532ead910" x="40.603125" y="65.935265" style="stroke: #000000; stroke-width: 0.8"/>
      </g>
     </g>
     <g id="text_19">
      <!-- 35 -->
      <g transform="translate(20.878125 69.734484) scale(0.1 -0.1)">
       <use xlink:href="#DejaVuSans-33"/>
       <use xlink:href="#DejaVuSans-35" transform="translate(63.623047 0)"/>
      </g>
     </g>
    </g>
    <g id="ytick_9">
     <g id="line2d_18">
      <g>
       <use xlink:href="#m1532ead910" x="40.603125" y="34.328104" style="stroke: #000000; stroke-width: 0.8"/>
      </g>
     </g>
     <g id="text_20">
      <!-- 40 -->
      <g transform="translate(20.878125 38.127322) scale(0.1 -0.1)">
       <defs>
        <path id="DejaVuSans-34" d="M 2419 4116 
L 825 1625 
L 2419 1625 
L 2419 4116 
z
M 2253 4666 
L 3047 4666 
L 3047 1625 
L 3713 1625 
L 3713 1100 
L 3047 1100 
L 3047 0 
L 2419 0 
L 2419 1100 
L 313 1100 
L 313 1709 
L 2253 4666 
z
" transform="scale(0.015625)"/>
       </defs>
       <use xlink:href="#DejaVuSans-34"/>
       <use xlink:href="#DejaVuSans-30" transform="translate(63.623047 0)"/>
      </g>
     </g>
    </g>
    <g id="text_21">
     <!-- right wheel theta, rtheta (rad) -->
     <g transform="translate(14.798438 236.26125) rotate(-90) scale(0.1 -0.1)">
      <defs>
       <path id="DejaVuSans-72" d="M 2631 2963 
Q 2534 3019 2420 3045 
Q 2306 3072 2169 3072 
Q 1681 3072 1420 2755 
Q 1159 2438 1159 1844 
L 1159 0 
L 581 0 
L 581 3500 
L 1159 3500 
L 1159 2956 
Q 1341 3275 1631 3429 
Q 1922 3584 2338 3584 
Q 2397 3584 2469 3576 
Q 2541 3569 2628 3553 
L 2631 2963 
z
" transform="scale(0.015625)"/>
       <path id="DejaVuSans-67" d="M 2906 1791 
Q 2906 2416 2648 2759 
Q 2391 3103 1925 3103 
Q 1463 3103 1205 2759 
Q 947 2416 947 1791 
Q 947 1169 1205 825 
Q 1463 481 1925 481 
Q 2391 481 2648 825 
Q 2906 1169 2906 1791 
z
M 3481 434 
Q 3481 -459 3084 -895 
Q 2688 -1331 1869 -1331 
Q 1566 -1331 1297 -1286 
Q 1028 -1241 775 -1147 
L 775 -588 
Q 1028 -725 1275 -790 
Q 1522 -856 1778 -856 
Q 2344 -856 2625 -561 
Q 2906 -266 2906 331 
L 2906 616 
Q 2728 306 2450 153 
Q 2172 0 1784 0 
Q 1141 0 747 490 
Q 353 981 353 1791 
Q 353 2603 747 3093 
Q 1141 3584 1784 3584 
Q 2172 3584 2450 3431 
Q 2728 3278 2906 2969 
L 2906 3500 
L 3481 3500 
L 3481 434 
z
" transform="scale(0.015625)"/>
       <path id="DejaVuSans-68" d="M 3513 2113 
L 3513 0 
L 2938 0 
L 2938 2094 
Q 2938 2591 2744 2837 
Q 2550 3084 2163 3084 
Q 1697 3084 1428 2787 
Q 1159 2491 1159 1978 
L 1159 0 
L 581 0 
L 581 4863 
L 1159 4863 
L 1159 2956 
Q 1366 3272 1645 3428 
Q 1925 3584 2291 3584 
Q 2894 3584 3203 3211 
Q 3513 2838 3513 2113 
z
" transform="scale(0.015625)"/>
       <path id="DejaVuSans-77" d="M 269 3500 
L 844 3500 
L 1563 769 
L 2278 3500 
L 2956 3500 
L 3675 769 
L 4391 3500 
L 4966 3500 
L 4050 0 
L 3372 0 
L 2619 2869 
L 1863 0 
L 1184 0 
L 269 3500 
z
" transform="scale(0.015625)"/>
       <path id="DejaVuSans-6c" d="M 603 4863 
L 1178 4863 
L 1178 0 
L 603 0 
L 603 4863 
z
" transform="scale(0.015625)"/>
       <path id="DejaVuSans-61" d="M 2194 1759 
Q 1497 1759 1228 1600 
Q 959 1441 959 1056 
Q 959 750 1161 570 
Q 1363 391 1709 391 
Q 2188 391 2477 730 
Q 2766 1069 2766 1631 
L 2766 1759 
L 2194 1759 
z
M 3341 1997 
L 3341 0 
L 2766 0 
L 2766 531 
Q 2569 213 2275 61 
Q 1981 -91 1556 -91 
Q 1019 -91 701 211 
Q 384 513 384 1019 
Q 384 1609 779 1909 
Q 1175 2209 1959 2209 
L 2766 2209 
L 2766 2266 
Q 2766 2663 2505 2880 
Q 2244 3097 1772 3097 
Q 1472 3097 1187 3025 
Q 903 2953 641 2809 
L 641 3341 
Q 956 3463 1253 3523 
Q 1550 3584 1831 3584 
Q 2591 3584 2966 3190 
Q 3341 2797 3341 1997 
z
" transform="scale(0.015625)"/>
       <path id="DejaVuSans-64" d="M 2906 2969 
L 2906 4863 
L 3481 4863 
L 3481 0 
L 2906 0 
L 2906 525 
Q 2725 213 2448 61 
Q 2172 -91 1784 -91 
Q 1150 -91 751 415 
Q 353 922 353 1747 
Q 353 2572 751 3078 
Q 1150 3584 1784 3584 
Q 2172 3584 2448 3432 
Q 2725 3281 2906 2969 
z
M 947 1747 
Q 947 1113 1208 752 
Q 1469 391 1925 391 
Q 2381 391 2643 752 
Q 2906 1113 2906 1747 
Q 2906 2381 2643 2742 
Q 2381 3103 1925 3103 
Q 1469 3103 1208 2742 
Q 947 2381 947 1747 
z
" transform="scale(0.015625)"/>
      </defs>
      <use xlink:href="#DejaVuSans-72"/>
      <use xlink:href="#DejaVuSans-69" transform="translate(41.113281 0)"/>
      <use xlink:href="#DejaVuSans-67" transform="translate(68.896484 0)"/>
      <use xlink:href="#DejaVuSans-68" transform="translate(132.373047 0)"/>
      <use xlink:href="#DejaVuSans-74" transform="translate(195.751953 0)"/>
      <use xlink:href="#DejaVuSans-20" transform="translate(234.960938 0)"/>
      <use xlink:href="#DejaVuSans-77" transform="translate(266.748047 0)"/>
      <use xlink:href="#DejaVuSans-68" transform="translate(348.535156 0)"/>
      <use xlink:href="#DejaVuSans-65" transform="translate(411.914062 0)"/>
      <use xlink:href="#DejaVuSans-65" transform="translate(473.4375 0)"/>
      <use xlink:href="#DejaVuSans-6c" transform="translate(534.960938 0)"/>
      <use xlink:href="#DejaVuSans-20" transform="translate(562.744141 0)"/>
      <use xlink:href="#DejaVuSans-74" transform="translate(594.53125 0)"/>
      <use xlink:href="#DejaVuSans-68" transform="translate(633.740234 0)"/>
      <use xlink:href="#DejaVuSans-65" transform="translate(697.119141 0)"/>
      <use xlink:href="#DejaVuSans-74" transform="translate(758.642578 0)"/>
      <use xlink:href="#DejaVuSans-61" transform="translate(797.851562 0)"/>
      <use xlink:href="#DejaVuSans-2c" transform="translate(859.130859 0)"/>
      <use xlink:href="#DejaVuSans-20" transform="translate(890.917969 0)"/>
      <use xlink:href="#DejaVuSans-72" transform="translate(922.705078 0)"/>
      <use xlink:href="#DejaVuSans-74" transform="translate(963.818359 0)"/>
      <use xlink:href="#DejaVuSans-68" transform="translate(1003.027344 0)"/>
      <use xlink:href="#DejaVuSans-65" transform="translate(1066.40625 0)"/>
      <use xlink:href="#DejaVuSans-74" transform="translate(1127.929688 0)"/>
      <use xlink:href="#DejaVuSans-61" transform="translate(1167.138672 0)"/>
      <use xlink:href="#DejaVuSans-20" transform="translate(1228.417969 0)"/>
      <use xlink:href="#DejaVuSans-28" transform="translate(1260.205078 0)"/>
      <use xlink:href="#DejaVuSans-72" transform="translate(1299.21875 0)"/>
      <use xlink:href="#DejaVuSans-61" transform="translate(1340.332031 0)"/>
      <use xlink:href="#DejaVuSans-64" transform="translate(1401.611328 0)"/>
      <use xlink:href="#DejaVuSans-29" transform="translate(1465.087891 0)"/>
     </g>
    </g>
   </g>
   <g id="line2d_19">
    <path d="M 59.02767 282.238146 
L 61.945578 281.878847 
L 66.047968 280.386381 
L 70.014276 278.28587 
L 73.018965 276.406471 
L 77.061715 273.615002 
L 81.043164 270.795896 
L 84.167871 268.501918 
L 88.180525 265.516988 
L 92.196132 262.44914 
L 95.313454 260.044606 
L 99.314659 256.89384 
L 103.404124 253.660162 
L 106.446296 251.310909 
L 110.463935 248.160149 
L 113.58458 245.70034 
L 117.601295 242.604855 
L 121.706455 239.50937 
L 124.733116 237.243029 
L 128.749278 234.285736 
L 132.846498 231.356075 
L 135.856357 229.227933 
L 139.958562 226.38119 
L 143.959952 223.61739 
L 147.002678 221.516841 
L 151.097128 218.72536 
L 155.115136 216.016816 
L 158.228211 213.91633 
L 162.244557 211.207786 
L 165.286914 209.134925 
L 169.382841 206.371069 
L 173.400111 203.690149 
L 176.512262 201.617288 
L 180.527685 198.936369 
L 184.544954 196.255449 
L 187.666153 194.182589 
L 191.665143 191.529294 
L 194.793358 189.456433 
L 198.80952 186.803138 
L 202.82642 184.122282 
L 205.946511 182.049358 
L 209.961011 179.396126 
L 214.046968 176.715207 
L 217.072337 174.72522 
L 221.070219 172.071988 
L 225.1643 169.363444 
L 228.205918 167.345833 
L 232.305907 164.609601 
L 236.32133 161.956369 
L 239.363133 159.938757 
L 243.438011 157.230213 
L 246.478706 155.240226 
L 250.608792 152.448808 
L 257.707562 147.694965 
L 261.828601 144.958796 
L 265.872089 142.277876 
L 269.014337 140.205016 
L 273.055241 137.524096 
L 276.125109 135.47886 
L 280.246148 132.770316 
L 284.288529 130.089396 
L 287.44481 128.016535 
L 291.485898 125.335616 
L 294.555767 123.29038 
L 298.675882 120.554211 
L 302.718817 117.873292 
L 305.861434 115.800431 
L 309.901969 113.091823 
L 312.971468 111.04665 
L 317.076996 108.310418 
L 321.119562 105.629499 
L 324.275843 103.556638 
L 328.300313 100.903343 
L 332.342325 98.222424 
L 335.49122 96.121938 
L 339.530647 93.413394 
L 342.686189 91.312908 
L 346.727278 88.659614 
L 350.768735 85.978694 
L 353.916338 83.878209 
L 357.955211 81.197289 
L 361.110753 79.124428 
L 365.14981 76.471134 
L 369.190714 73.734965 
L 372.338317 71.634479 
L 376.376636 68.95356 
L 379.531624 66.880699 
L 383.569943 64.199779 
L 387.610108 61.491235 
L 390.757342 59.390687 
L 394.779781 56.737455 
L 397.9344 54.636906 
L 401.972534 51.928362 
L 406.0127 49.247443 
L 409.130944 47.174582 
L 413.168709 44.466038 
L 417.295472 41.729869 
L 420.333951 39.712257 
L 424.371531 37.031338 
L 427.51858 34.930852 
" clip-path="url(#pc2644a14f0)" style="fill: none; stroke: #1f77b4; stroke-width: 1.5; stroke-linecap: square"/>
   </g>
   <g id="line2d_20">
    <path d="M 59.02767 282.984379 
L 62.931385 282.348699 
L 66.95881 280.718041 
L 70.048988 279.05974 
L 74.040962 276.51702 
L 78.12341 273.642639 
L 81.17186 271.403942 
L 85.167711 268.557199 
L 89.277486 265.738093 
L 92.325751 263.720494 
L 96.408569 261.011943 
L 99.457019 259.049625 
L 103.485182 256.45163 
L 107.59385 253.798355 
L 110.641376 251.808399 
L 114.756137 249.182761 
L 118.785224 246.64004 
L 121.833119 244.70536 
L 125.939202 242.134996 
L 128.987652 240.283233 
L 133.086718 237.795788 
L 137.115989 235.335979 
L 140.163146 233.511854 
L 144.26886 231.079689 
L 148.298685 228.647524 
L 151.432624 226.795756 
L 155.459126 224.418866 
L 158.507206 222.650021 
L 162.598517 220.245475 
L 166.626865 217.868616 
L 169.760804 216.044441 
L 173.78786 213.667582 
L 177.816208 211.29066 
L 180.942392 209.438923 
L 184.969079 207.117314 
L 188.086954 205.293201 
L 192.114748 202.971592 
L 196.142727 200.622295 
L 199.269465 198.825807 
L 203.280457 196.504198 
L 207.394479 194.127339 
L 210.441821 192.386101 
L 214.467953 190.064491 
L 217.594691 188.268004 
L 221.621562 185.91877 
L 225.734661 183.514223 
L 228.781818 181.74536 
L 232.807397 179.396126 
L 236.896123 177.019204 
L 239.942726 175.250404 
L 244.037545 172.845858 
L 248.077895 170.524249 
L 251.154411 168.727761 
L 255.287636 166.323214 
L 258.363597 164.554351 
L 262.490914 162.177493 
L 266.532925 159.800571 
L 269.607963 158.004083 
L 273.739527 155.5996 
L 276.815119 153.830737 
L 280.954622 151.42619 
L 284.995526 149.076956 
L 288.070933 147.280468 
L 292.189017 144.90361 
L 295.250946 143.107122 
L 299.389526 140.702576 
L 303.443354 138.353342 
L 306.518208 136.584478 
L 310.648663 134.179932 
L 313.723886 132.383444 
L 317.862097 129.951273 
L 321.915741 127.629664 
L 324.990779 125.860801 
L 329.120311 123.456317 
L 332.195165 121.687454 
L 336.332452 119.282908 
L 340.384988 116.933674 
L 343.459842 115.137186 
L 347.589374 112.73264 
L 350.664228 110.936152 
L 354.800961 108.503981 
L 358.853312 106.182371 
L 361.927797 104.385883 
L 366.05659 101.981337 
L 369.115565 100.212537 
L 373.251559 97.807991 
L 377.304096 95.458757 
L 380.378211 93.689893 
L 384.507004 91.285347 
L 387.581119 89.461235 
L 391.71656 87.056688 
L 395.768727 84.735079 
L 398.842473 82.938591 
L 402.970158 80.534045 
L 406.044458 78.765181 
L 410.180268 76.33301 
L 414.231327 73.956088 
L 417.305627 72.159601 
L 421.433497 69.755054 
L 424.507058 67.958566 
" clip-path="url(#pc2644a14f0)" style="fill: none; stroke: #ff7f0e; stroke-width: 1.5; stroke-linecap: square"/>
   </g>
   <g id="line2d_21">
    <path d="M 59.027855 287.185398 
L 62.8795 286.577356 
L 66.03375 285.361271 
L 70.073177 283.205485 
L 73.127535 281.298444 
L 77.24802 278.728086 
L 81.258273 276.406471 
L 84.382241 274.692895 
L 91.47658 270.657709 
L 95.594849 268.391368 
L 99.636491 266.152665 
L 102.760829 264.411458 
L 106.800071 262.172754 
L 110.809401 259.961694 
L 113.942786 258.275756 
L 117.96541 256.147607 
L 121.089564 254.489312 
L 125.129913 252.333527 
L 129.170448 250.260653 
L 132.302725 248.629996 
L 136.340675 246.557122 
L 139.480707 244.926464 
L 143.518841 242.881235 
L 147.558637 240.836005 
L 150.690545 239.232984 
L 154.712431 237.215392 
L 158.838455 235.170155 
L 161.891705 233.650053 
L 165.929655 231.57718 
L 169.061563 230.001797 
L 173.100251 227.984204 
L 177.225352 225.91133 
L 180.278048 224.391222 
L 184.29938 222.34596 
L 188.417649 220.300724 
L 191.471084 218.808297 
L 195.594892 216.763061 
L 198.615645 215.242946 
L 202.653779 213.19771 
L 206.77131 211.152474 
L 209.808127 209.659984 
L 213.915133 207.614747 
L 217.954375 205.569511 
L 221.007441 204.049459 
L 225.122571 202.004223 
L 228.175083 200.456484 
L 232.298706 198.411248 
L 236.336102 196.448885 
L 239.372734 194.956458 
L 243.486941 192.85591 
L 246.568626 191.30817 
L 250.719577 189.235309 
L 254.7867 187.190073 
L 257.86857 185.669958 
L 262.011951 183.597097 
L 265.093082 182.049358 
L 269.243479 180.031746 
L 273.310417 178.014135 
L 276.391733 176.494083 
L 280.520527 174.393534 
L 283.601658 172.845795 
L 287.751501 170.772934 
L 291.817332 168.755322 
L 294.898648 167.207583 
L 299.04092 165.134722 
L 302.121683 163.614607 
L 306.271341 161.541746 
L 309.351918 160.021631 
L 313.415164 158.00402 
L 317.544881 155.958784 
L 320.593515 154.411044 
L 324.741881 152.310559 
L 327.821535 150.790444 
L 331.883673 148.80052 
L 336.012466 146.755284 
L 339.092121 145.207544 
L 343.240117 143.13462 
L 346.320325 141.614569 
L 350.38154 139.596957 
L 354.523074 137.524096 
L 357.602359 135.976357 
L 361.749247 133.903433 
L 364.828717 132.355693 
L 368.889377 130.338081 
L 373.017433 128.237596 
L 376.096902 126.717481 
L 380.243606 124.64462 
L 383.322706 123.096881 
L 387.383552 121.079269 
L 391.511237 119.061658 
L 394.591446 117.541606 
L 398.73778 115.441057 
L 401.816881 113.893318 
L 405.876249 111.875706 
L 410.00375 109.802845 
L 413.067156 108.28273 
L 417.212936 106.20987 
L 420.292406 104.66213 
L 424.352328 102.644518 
" clip-path="url(#pc2644a14f0)" style="fill: none; stroke: #2ca02c; stroke-width: 1.5; stroke-linecap: square"/>
   </g>
   <g id="line2d_22">
    <path d="M 59.027855 284.670314 
L 62.953542 284.062272 
L 66.101883 282.846188 
L 70.156081 280.718041 
L 74.176674 278.479338 
L 77.283286 276.986873 
L 81.318651 275.273297 
L 85.443013 273.449172 
L 88.502726 271.984344 
L 92.521842 270.104938 
L 95.660951 268.64011 
L 99.712749 266.733067 
L 103.852436 264.798393 
L 106.91178 263.416477 
L 110.961916 261.647626 
L 114.099917 260.265711 
L 118.150607 258.49686 
L 122.289187 256.700372 
L 125.332282 255.401375 
L 129.382602 253.660162 
L 133.513427 251.918948 
L 136.556522 250.647588 
L 140.693255 248.878738 
L 143.752783 247.57974 
L 147.803658 245.893802 
L 151.885922 244.180232 
L 154.945265 242.881235 
L 159.080521 241.167659 
L 162.139496 239.868661 
L 166.188893 238.182722 
L 170.318425 236.469153 
L 173.376661 235.197786 
L 177.511917 233.456573 
L 181.546358 231.770641 
L 184.604225 230.526918 
L 188.731541 228.785705 
L 191.789223 227.459064 
L 195.925033 225.773125 
L 199.959659 224.142467 
L 203.018079 222.871082 
L 207.144842 221.157531 
L 210.203447 219.886165 
L 214.322085 218.172614 
L 218.371667 216.459 
L 221.430088 215.187634 
L 225.556481 213.474083 
L 228.615086 212.230341 
L 232.73317 210.51679 
L 236.782198 208.775615 
L 239.824001 207.504249 
L 243.950025 205.818259 
L 247.037988 204.519268 
L 251.200756 202.778093 
L 255.278588 201.092167 
L 258.365628 199.8208 
L 262.520456 198.107187 
L 265.594571 196.83582 
L 269.756785 195.094645 
L 273.834433 193.408719 
L 276.921658 192.137352 
L 281.075932 190.368489 
L 284.162972 189.069498 
L 288.324078 187.355884 
L 291.411118 186.084518 
L 295.487842 184.398592 
L 299.642855 182.685041 
L 302.729157 181.413674 
L 306.889894 179.672499 
L 309.976195 178.401133 
L 314.034824 176.715207 
L 318.174327 174.973968 
L 321.260444 173.702602 
L 325.420627 171.961426 
L 328.506928 170.662372 
L 332.580329 168.948821 
L 335.74455 167.64983 
L 339.819428 165.963904 
L 343.980903 164.195041 
L 347.066835 162.951299 
L 351.139682 161.265373 
L 354.304272 159.911133 
L 358.376381 158.225207 
L 361.547802 156.926152 
L 365.621757 155.240226 
L 369.695712 153.5543 
L 372.859378 152.255309 
L 376.931118 150.541759 
L 380.101985 149.187455 
L 384.173724 147.529154 
L 388.232354 145.870852 
L 391.397128 144.544236 
L 395.469237 142.885935 
L 398.639735 141.559319 
L 402.711474 139.87333 
L 406.770842 138.159779 
L 409.934324 136.860788 
L 413.992584 135.174862 
L 417.149789 133.848183 
L 421.220604 132.162257 
L 424.304875 130.863266 
" clip-path="url(#pc2644a14f0)" style="fill: none; stroke: #d62728; stroke-width: 1.5; stroke-linecap: square"/>
   </g>
   <g id="line2d_23">
    <path d="M 59.027855 285.444186 
L 62.965728 284.780868 
L 66.03098 283.592421 
L 70.174176 281.740656 
L 73.240167 280.552211 
L 77.358067 279.142658 
L 81.422235 277.733105 
L 84.487672 276.572301 
L 88.628837 275.052192 
L 91.678764 273.946662 
L 95.793709 272.398916 
L 99.856401 270.878814 
L 102.921284 269.800921 
L 107.061525 268.336088 
L 110.110529 267.230558 
L 114.257971 265.793367 
L 118.320847 264.411452 
L 121.38573 263.361196 
L 125.525787 261.924006 
L 128.57516 260.901394 
L 132.721679 259.519478 
L 136.783817 258.137563 
L 139.847961 257.142582 
L 143.987095 255.733029 
L 147.052532 254.682773 
L 151.199605 253.27322 
L 155.262297 251.946586 
L 158.310377 250.951605 
L 162.433262 249.514415 
L 165.481342 248.491797 
L 169.610875 247.137518 
L 173.672643 245.783246 
L 176.736603 244.732991 
L 180.875367 243.378712 
L 183.939511 242.356094 
L 188.085477 241.001816 
L 192.146507 239.6199 
L 195.210282 238.597282 
L 199.348123 237.24301 
L 202.412082 236.220392 
L 206.55694 234.838476 
L 210.6176 233.484204 
L 213.681191 232.48923 
L 217.818478 231.107314 
L 220.882068 230.057059 
L 225.026557 228.702786 
L 229.086848 227.376145 
L 232.150254 226.325896 
L 236.286987 224.916343 
L 239.350946 223.921388 
L 243.49525 222.539459 
L 247.58453 221.157531 
L 250.677848 220.134913 
L 254.844124 218.780673 
L 257.937627 217.758054 
L 262.111473 216.376126 
L 265.204237 215.325883 
L 269.263605 213.97158 
L 273.431543 212.589651 
L 276.524676 211.567033 
L 280.697415 210.185168 
L 283.789994 209.16255 
L 287.876874 207.780622 
L 291.032601 206.730379 
L 295.120404 205.376075 
L 299.294804 203.994147 
L 302.387383 202.943904 
L 306.473524 201.589664 
L 309.645131 200.539358 
L 313.717793 199.185117 
L 316.8966 198.134874 
L 320.98348 196.780571 
L 325.070729 195.42633 
L 328.241782 194.376088 
L 332.327369 192.994159 
L 335.476079 191.943917 
L 339.561297 190.589613 
L 343.648916 189.235372 
L 346.819784 188.212754 
L 350.904817 186.830826 
L 354.082886 185.752959 
L 358.137453 184.398655 
L 361.22837 183.376037 
L 365.392615 182.021733 
L 369.478572 180.639868 
L 372.656272 179.589625 
L 376.739828 178.262946 
L 379.831115 177.240328 
L 383.993882 175.830775 
L 387.085354 174.808157 
L 391.256061 173.398604 
L 395.341279 172.044364 
L 398.432751 171.021745 
L 402.59478 169.639817 
L 405.685513 168.617199 
L 409.855113 167.235271 
L 412.94603 166.185028 
L 417.030509 164.830787 
L 421.193647 163.476484 
L 424.271454 162.426241 
" clip-path="url(#pc2644a14f0)" style="fill: none; stroke: #9467bd; stroke-width: 1.5; stroke-linecap: square"/>
   </g>
   <g id="line2d_24">
    <path d="M 59.02767 286.245696 
L 62.981977 285.610016 
L 66.052584 284.476847 
L 70.207227 283.177847 
L 74.283767 282.293422 
L 77.440787 281.574827 
L 81.547608 280.331107 
L 88.770458 278.368789 
L 91.841249 277.539638 
L 96.001986 276.378833 
L 100.076864 275.24566 
L 103.131038 274.444153 
L 107.282173 273.338623 
L 110.351857 272.537109 
L 114.510378 271.459216 
L 118.569192 270.408961 
L 121.63906 269.635091 
L 125.79038 268.584836 
L 128.844369 267.81096 
L 133.003075 266.760704 
L 136.072574 266.014472 
L 140.145974 264.964217 
L 144.298218 263.913961 
L 147.368271 263.167729 
L 151.526053 262.089836 
L 154.595921 261.31596 
L 158.666737 260.293348 
L 162.818057 259.27073 
L 165.887556 258.496854 
L 170.0446 257.446599 
L 173.098035 256.700366 
L 177.169774 255.650111 
L 181.304846 254.65513 
L 184.373975 253.908897 
L 188.530835 252.831005 
L 191.585008 252.057135 
L 195.639206 251.089791 
L 199.789603 250.039536 
L 202.859102 249.238029 
L 206.998974 248.215411 
L 210.051671 247.469178 
L 214.121009 246.44656 
L 218.271222 245.423942 
L 221.339428 244.67771 
L 225.495733 243.655092 
L 228.564309 242.881222 
L 232.632909 241.858604 
L 235.780143 241.05709 
L 239.849851 240.034472 
L 244.007449 239.01186 
L 247.105567 238.237984 
L 251.20371 237.187729 
L 254.38104 236.413859 
L 258.432838 235.418878 
L 262.605207 234.340986 
L 265.703141 233.567116 
L 269.801284 232.544498 
L 272.977691 231.770628 
L 277.074911 230.74801 
L 280.258519 229.918859 
L 284.356662 228.923885 
L 288.455174 227.92891 
L 291.630843 227.127397 
L 295.727324 226.077142 
L 298.910932 225.303272 
L 303.007598 224.308297 
L 306.105162 223.534453 
L 310.281779 222.456522 
L 313.379712 221.682652 
L 317.56353 220.660034 
L 321.661857 219.637416 
L 324.745943 218.863547 
L 328.921082 217.813304 
L 332.018092 217.039434 
L 336.199694 216.016816 
L 339.280456 215.270571 
L 343.377676 214.192703 
L 347.553923 213.170085 
L 350.650564 212.396216 
L 354.818133 211.373597 
L 357.91422 210.599728 
L 362.009039 209.549485 
L 369.267156 207.752997 
L 372.45021 206.979127 
L 376.546507 205.984134 
L 380.642988 204.961516 
L 383.818103 204.159958 
L 387.912183 203.137403 
L 391.095053 202.36347 
L 395.188764 201.313227 
L 398.285037 200.539358 
L 402.458698 199.489115 
L 406.554441 198.466497 
L 409.737311 197.665002 
L 413.830468 196.642384 
L 416.913077 195.896139 
L 421.085261 194.818272 
L 424.18098 194.044402 
" clip-path="url(#pc2644a14f0)" style="fill: none; stroke: #8c564b; stroke-width: 1.5; stroke-linecap: square"/>
   </g>
   <g id="line2d_25">
    <path d="M 59.029886 286.853738 
L 63.032569 286.328611 
L 66.194574 285.527101 
L 70.280346 284.780867 
L 73.3576 284.42157 
L 77.522583 283.620059 
L 81.626635 282.735634 
L 84.805257 282.182868 
L 88.922603 281.51955 
L 92.03217 280.966784 
L 96.21174 280.137633 
L 99.255389 279.640149 
L 103.42665 278.949191 
L 106.502427 278.396426 
L 110.570843 277.705468 
L 114.735088 277.01451 
L 117.795355 276.489382 
L 121.964585 275.770787 
L 125.009157 275.273297 
L 129.093452 274.609983 
L 133.241264 273.919025 
L 136.300792 273.393897 
L 140.469838 272.702939 
L 143.544876 272.177812 
L 147.610706 271.514491 
L 151.774028 270.795896 
L 154.849251 270.298406 
L 159.017743 269.57981 
L 162.09352 269.054683 
L 166.175414 268.391362 
L 169.329479 267.866234 
L 173.412666 267.20292 
L 177.582635 266.511962 
L 180.641794 265.986835 
L 184.723135 265.323514 
L 187.877384 264.826024 
L 191.958356 264.107429 
L 196.111338 263.444108 
L 199.186006 262.946624 
L 203.234481 262.283303 
L 206.388361 261.758176 
L 210.469517 261.067218 
L 213.630229 260.514453 
L 217.695875 259.851139 
L 221.778139 259.160181 
L 224.931835 258.635053 
L 229.011144 257.944095 
L 232.155239 257.418968 
L 236.235472 256.755647 
L 240.317551 256.064689 
L 243.470877 255.567205 
L 247.580099 254.84861 
L 250.769431 254.323482 
L 254.878652 253.632524 
L 257.982125 253.135034 
L 262.141016 252.416439 
L 266.252084 251.753118 
L 269.428306 251.227997 
L 273.53642 250.564676 
L 276.639339 250.011911 
L 280.826849 249.348591 
L 283.914628 248.851107 
L 288.110077 248.132505 
L 291.213181 247.607384 
L 295.322218 246.916426 
L 299.510467 246.253106 
L 302.613201 245.70034 
L 306.794064 245.03702 
L 309.897907 244.539536 
L 314.005466 243.848578 
L 317.187413 243.32345 
L 321.296449 242.604855 
L 324.485043 242.079727 
L 328.593526 241.38877 
L 332.687422 240.725449 
L 335.869368 240.172684 
L 339.976005 239.50937 
L 343.164783 238.984242 
L 347.271235 238.293284 
L 350.373785 237.768157 
L 354.547262 237.077199 
L 357.650181 236.579708 
L 361.843784 235.861113 
L 365.952083 235.142518 
L 369.009026 234.672665 
L 373.193766 233.981713 
L 376.295947 233.456586 
L 380.488073 232.737991 
L 383.590254 232.2405 
L 387.69689 231.549542 
L 390.877913 231.024421 
L 394.98455 230.333463 
L 399.177784 229.642512 
L 402.279226 229.145021 
L 406.384201 228.454063 
L 409.564485 227.901298 
L 413.653581 227.265621 
L 416.827956 226.768131 
L 420.93367 226.021899 
L 425.040676 225.358578 
" clip-path="url(#pc2644a14f0)" style="fill: none; stroke: #e377c2; stroke-width: 1.5; stroke-linecap: square"/>
   </g>
   <g id="line2d_26">
    <path d="M 59.04078 287.102483 
L 62.961297 286.853738 
L 66.132165 286.439164 
L 70.215536 286.190419 
L 74.277674 285.996952 
L 77.402566 285.637654 
L 81.516588 285.167803 
L 84.718845 284.919059 
L 88.812372 284.587399 
L 92.907006 284.228102 
L 96.064764 283.896442 
L 100.174725 283.564783 
L 103.33913 283.343677 
L 107.43081 282.956741 
L 110.509726 282.65272 
L 114.683203 282.348699 
L 118.744972 282.044677 
L 121.893128 281.740657 
L 125.984439 281.353722 
L 129.062801 281.132615 
L 133.232585 280.800953 
L 136.277896 280.524574 
L 140.423123 280.192914 
L 144.482491 279.861253 
L 147.527248 279.584868 
L 151.662873 279.253214 
L 154.708184 278.976828 
L 158.836608 278.645168 
L 162.895976 278.341151 
L 165.940549 278.064766 
L 170.076174 277.705468 
L 174.135542 277.373808 
L 177.250278 277.125066 
L 181.290813 276.793405 
L 184.319875 276.51702 
L 188.456239 276.213003 
L 192.514869 275.853706 
L 195.646038 275.57732 
L 199.686203 275.273297 
L 202.73096 275.024555 
L 206.866032 274.63762 
L 210.924107 274.333597 
L 214.053984 274.112492 
L 218.10929 273.725557 
L 222.166996 273.393897 
L 225.289488 273.145149 
L 229.344424 272.785851 
L 232.457868 272.537109 
L 236.514467 272.177812 
L 240.555555 271.873789 
L 243.677677 271.652684 
L 247.732244 271.265749 
L 250.892218 270.989363 
L 254.96248 270.657709 
L 259.048806 270.326049 
L 262.201025 270.049663 
L 266.285135 269.690366 
L 269.431999 269.441624 
L 273.516109 269.082326 
L 276.589855 268.833578 
L 280.753546 268.47428 
L 284.840056 268.142626 
L 287.999661 267.921515 
L 292.069738 267.562218 
L 295.126497 267.285838 
L 299.288526 266.954178 
L 303.37356 266.650155 
L 306.532979 266.346132 
L 310.615982 266.014472 
L 313.688804 265.76573 
L 317.835139 265.43407 
L 320.907961 265.15769 
L 325.077746 264.82603 
L 329.162779 264.522007 
L 332.235601 264.245628 
L 336.396892 263.88633 
L 339.469899 263.637582 
L 343.63876 263.278284 
L 347.722871 262.946624 
L 350.779629 262.670245 
L 354.940366 262.338584 
L 358.012635 262.089842 
L 362.167094 261.730545 
L 365.225514 261.481796 
L 369.307962 261.150136 
L 373.454112 260.790839 
L 376.526196 260.514453 
L 380.695242 260.210436 
L 383.766403 259.961688 
L 387.847374 259.574753 
L 392.009403 259.243093 
L 395.080933 259.021988 
L 399.247948 258.66269 
L 402.305445 258.386305 
L 406.404327 258.054644 
L 409.540297 257.778259 
L 413.622191 257.474236 
L 417.790498 257.142582 
L 420.862213 256.838559 
L 424.959617 256.506899 
" clip-path="url(#pc2644a14f0)" style="fill: none; stroke: #7f7f7f; stroke-width: 1.5; stroke-linecap: square"/>
   </g>
   <g id="patch_3">
    <path d="M 40.603125 299.798125 
L 40.603125 22.318125 
" style="fill: none; stroke: #000000; stroke-width: 0.8; stroke-linejoin: miter; stroke-linecap: square"/>
   </g>
   <g id="patch_4">
    <path d="M 445.943125 299.798125 
L 445.943125 22.318125 
" style="fill: none; stroke: #000000; stroke-width: 0.8; stroke-linejoin: miter; stroke-linecap: square"/>
   </g>
   <g id="patch_5">
    <path d="M 40.603125 299.798125 
L 445.943125 299.798125 
" style="fill: none; stroke: #000000; stroke-width: 0.8; stroke-linejoin: miter; stroke-linecap: square"/>
   </g>
   <g id="patch_6">
    <path d="M 40.603125 22.318125 
L 445.943125 22.318125 
" style="fill: none; stroke: #000000; stroke-width: 0.8; stroke-linejoin: miter; stroke-linecap: square"/>
   </g>
   <g id="text_22">
    <!-- right theta vs. time -->
    <g transform="translate(185.440625 16.318125) scale(0.12 -0.12)">
     <defs>
      <path id="DejaVuSans-76" d="M 191 3500 
L 800 3500 
L 1894 563 
L 2988 3500 
L 3597 3500 
L 2284 0 
L 1503 0 
L 191 3500 
z
" transform="scale(0.015625)"/>
     </defs>
     <use xlink:href="#DejaVuSans-72"/>
     <use xlink:href="#DejaVuSans-69" transform="translate(41.113281 0)"/>
     <use xlink:href="#DejaVuSans-67" transform="translate(68.896484 0)"/>
     <use xlink:href="#DejaVuSans-68" transform="translate(132.373047 0)"/>
     <use xlink:href="#DejaVuSans-74" transform="translate(195.751953 0)"/>
     <use xlink:href="#DejaVuSans-20" transform="translate(234.960938 0)"/>
     <use xlink:href="#DejaVuSans-74" transform="translate(266.748047 0)"/>
     <use xlink:href="#DejaVuSans-68" transform="translate(305.957031 0)"/>
     <use xlink:href="#DejaVuSans-65" transform="translate(369.335938 0)"/>
     <use xlink:href="#DejaVuSans-74" transform="translate(430.859375 0)"/>
     <use xlink:href="#DejaVuSans-61" transform="translate(470.068359 0)"/>
     <use xlink:href="#DejaVuSans-20" transform="translate(531.347656 0)"/>
     <use xlink:href="#DejaVuSans-76" transform="translate(563.134766 0)"/>
     <use xlink:href="#DejaVuSans-73" transform="translate(622.314453 0)"/>
     <use xlink:href="#DejaVuSans-2e" transform="translate(674.414062 0)"/>
     <use xlink:href="#DejaVuSans-20" transform="translate(706.201172 0)"/>
     <use xlink:href="#DejaVuSans-74" transform="translate(737.988281 0)"/>
     <use xlink:href="#DejaVuSans-69" transform="translate(777.197266 0)"/>
     <use xlink:href="#DejaVuSans-6d" transform="translate(804.980469 0)"/>
     <use xlink:href="#DejaVuSans-65" transform="translate(902.392578 0)"/>
    </g>
   </g>
   <g id="legend_1">
    <g id="patch_7">
     <path d="M 47.603125 147.743125 
L 164.128125 147.743125 
Q 166.128125 147.743125 166.128125 145.743125 
L 166.128125 29.318125 
Q 166.128125 27.318125 164.128125 27.318125 
L 47.603125 27.318125 
Q 45.603125 27.318125 45.603125 29.318125 
L 45.603125 145.743125 
Q 45.603125 147.743125 47.603125 147.743125 
z
" style="fill: #ffffff; opacity: 0.8; stroke: #cccccc; stroke-linejoin: miter"/>
    </g>
    <g id="line2d_27">
     <path d="M 49.603125 35.416563 
L 59.603125 35.416563 
L 69.603125 35.416563 
" style="fill: none; stroke: #1f77b4; stroke-width: 1.5; stroke-linecap: square"/>
    </g>
    <g id="text_23">
     <!-- Ref Speed = 680 -->
     <g transform="translate(77.603125 38.916563) scale(0.1 -0.1)">
      <defs>
       <path id="DejaVuSans-52" d="M 2841 2188 
Q 3044 2119 3236 1894 
Q 3428 1669 3622 1275 
L 4263 0 
L 3584 0 
L 2988 1197 
Q 2756 1666 2539 1819 
Q 2322 1972 1947 1972 
L 1259 1972 
L 1259 0 
L 628 0 
L 628 4666 
L 2053 4666 
Q 2853 4666 3247 4331 
Q 3641 3997 3641 3322 
Q 3641 2881 3436 2590 
Q 3231 2300 2841 2188 
z
M 1259 4147 
L 1259 2491 
L 2053 2491 
Q 2509 2491 2742 2702 
Q 2975 2913 2975 3322 
Q 2975 3731 2742 3939 
Q 2509 4147 2053 4147 
L 1259 4147 
z
" transform="scale(0.015625)"/>
       <path id="DejaVuSans-66" d="M 2375 4863 
L 2375 4384 
L 1825 4384 
Q 1516 4384 1395 4259 
Q 1275 4134 1275 3809 
L 1275 3500 
L 2222 3500 
L 2222 3053 
L 1275 3053 
L 1275 0 
L 697 0 
L 697 3053 
L 147 3053 
L 147 3500 
L 697 3500 
L 697 3744 
Q 697 4328 969 4595 
Q 1241 4863 1831 4863 
L 2375 4863 
z
" transform="scale(0.015625)"/>
       <path id="DejaVuSans-53" d="M 3425 4513 
L 3425 3897 
Q 3066 4069 2747 4153 
Q 2428 4238 2131 4238 
Q 1616 4238 1336 4038 
Q 1056 3838 1056 3469 
Q 1056 3159 1242 3001 
Q 1428 2844 1947 2747 
L 2328 2669 
Q 3034 2534 3370 2195 
Q 3706 1856 3706 1288 
Q 3706 609 3251 259 
Q 2797 -91 1919 -91 
Q 1588 -91 1214 -16 
Q 841 59 441 206 
L 441 856 
Q 825 641 1194 531 
Q 1563 422 1919 422 
Q 2459 422 2753 634 
Q 3047 847 3047 1241 
Q 3047 1584 2836 1778 
Q 2625 1972 2144 2069 
L 1759 2144 
Q 1053 2284 737 2584 
Q 422 2884 422 3419 
Q 422 4038 858 4394 
Q 1294 4750 2059 4750 
Q 2388 4750 2728 4690 
Q 3069 4631 3425 4513 
z
" transform="scale(0.015625)"/>
       <path id="DejaVuSans-70" d="M 1159 525 
L 1159 -1331 
L 581 -1331 
L 581 3500 
L 1159 3500 
L 1159 2969 
Q 1341 3281 1617 3432 
Q 1894 3584 2278 3584 
Q 2916 3584 3314 3078 
Q 3713 2572 3713 1747 
Q 3713 922 3314 415 
Q 2916 -91 2278 -91 
Q 1894 -91 1617 61 
Q 1341 213 1159 525 
z
M 3116 1747 
Q 3116 2381 2855 2742 
Q 2594 3103 2138 3103 
Q 1681 3103 1420 2742 
Q 1159 2381 1159 1747 
Q 1159 1113 1420 752 
Q 1681 391 2138 391 
Q 2594 391 2855 752 
Q 3116 1113 3116 1747 
z
" transform="scale(0.015625)"/>
       <path id="DejaVuSans-3d" d="M 678 2906 
L 4684 2906 
L 4684 2381 
L 678 2381 
L 678 2906 
z
M 678 1631 
L 4684 1631 
L 4684 1100 
L 678 1100 
L 678 1631 
z
" transform="scale(0.015625)"/>
       <path id="DejaVuSans-38" d="M 2034 2216 
Q 1584 2216 1326 1975 
Q 1069 1734 1069 1313 
Q 1069 891 1326 650 
Q 1584 409 2034 409 
Q 2484 409 2743 651 
Q 3003 894 3003 1313 
Q 3003 1734 2745 1975 
Q 2488 2216 2034 2216 
z
M 1403 2484 
Q 997 2584 770 2862 
Q 544 3141 544 3541 
Q 544 4100 942 4425 
Q 1341 4750 2034 4750 
Q 2731 4750 3128 4425 
Q 3525 4100 3525 3541 
Q 3525 3141 3298 2862 
Q 3072 2584 2669 2484 
Q 3125 2378 3379 2068 
Q 3634 1759 3634 1313 
Q 3634 634 3220 271 
Q 2806 -91 2034 -91 
Q 1263 -91 848 271 
Q 434 634 434 1313 
Q 434 1759 690 2068 
Q 947 2378 1403 2484 
z
M 1172 3481 
Q 1172 3119 1398 2916 
Q 1625 2713 2034 2713 
Q 2441 2713 2670 2916 
Q 2900 3119 2900 3481 
Q 2900 3844 2670 4047 
Q 2441 4250 2034 4250 
Q 1625 4250 1398 4047 
Q 1172 3844 1172 3481 
z
" transform="scale(0.015625)"/>
      </defs>
      <use xlink:href="#DejaVuSans-52"/>
      <use xlink:href="#DejaVuSans-65" transform="translate(64.982422 0)"/>
      <use xlink:href="#DejaVuSans-66" transform="translate(126.505859 0)"/>
      <use xlink:href="#DejaVuSans-20" transform="translate(161.710938 0)"/>
      <use xlink:href="#DejaVuSans-53" transform="translate(193.498047 0)"/>
      <use xlink:href="#DejaVuSans-70" transform="translate(256.974609 0)"/>
      <use xlink:href="#DejaVuSans-65" transform="translate(320.451172 0)"/>
      <use xlink:href="#DejaVuSans-65" transform="translate(381.974609 0)"/>
      <use xlink:href="#DejaVuSans-64" transform="translate(443.498047 0)"/>
      <use xlink:href="#DejaVuSans-20" transform="translate(506.974609 0)"/>
      <use xlink:href="#DejaVuSans-3d" transform="translate(538.761719 0)"/>
      <use xlink:href="#DejaVuSans-20" transform="translate(622.550781 0)"/>
      <use xlink:href="#DejaVuSans-36" transform="translate(654.337891 0)"/>
      <use xlink:href="#DejaVuSans-38" transform="translate(717.960938 0)"/>
      <use xlink:href="#DejaVuSans-30" transform="translate(781.583984 0)"/>
     </g>
    </g>
    <g id="line2d_28">
     <path d="M 49.603125 50.094688 
L 59.603125 50.094688 
L 69.603125 50.094688 
" style="fill: none; stroke: #ff7f0e; stroke-width: 1.5; stroke-linecap: square"/>
    </g>
    <g id="text_24">
     <!-- Ref Speed = 595 -->
     <g transform="translate(77.603125 53.594688) scale(0.1 -0.1)">
      <defs>
       <path id="DejaVuSans-39" d="M 703 97 
L 703 672 
Q 941 559 1184 500 
Q 1428 441 1663 441 
Q 2288 441 2617 861 
Q 2947 1281 2994 2138 
Q 2813 1869 2534 1725 
Q 2256 1581 1919 1581 
Q 1219 1581 811 2004 
Q 403 2428 403 3163 
Q 403 3881 828 4315 
Q 1253 4750 1959 4750 
Q 2769 4750 3195 4129 
Q 3622 3509 3622 2328 
Q 3622 1225 3098 567 
Q 2575 -91 1691 -91 
Q 1453 -91 1209 -44 
Q 966 3 703 97 
z
M 1959 2075 
Q 2384 2075 2632 2365 
Q 2881 2656 2881 3163 
Q 2881 3666 2632 3958 
Q 2384 4250 1959 4250 
Q 1534 4250 1286 3958 
Q 1038 3666 1038 3163 
Q 1038 2656 1286 2365 
Q 1534 2075 1959 2075 
z
" transform="scale(0.015625)"/>
      </defs>
      <use xlink:href="#DejaVuSans-52"/>
      <use xlink:href="#DejaVuSans-65" transform="translate(64.982422 0)"/>
      <use xlink:href="#DejaVuSans-66" transform="translate(126.505859 0)"/>
      <use xlink:href="#DejaVuSans-20" transform="translate(161.710938 0)"/>
      <use xlink:href="#DejaVuSans-53" transform="translate(193.498047 0)"/>
      <use xlink:href="#DejaVuSans-70" transform="translate(256.974609 0)"/>
      <use xlink:href="#DejaVuSans-65" transform="translate(320.451172 0)"/>
      <use xlink:href="#DejaVuSans-65" transform="translate(381.974609 0)"/>
      <use xlink:href="#DejaVuSans-64" transform="translate(443.498047 0)"/>
      <use xlink:href="#DejaVuSans-20" transform="translate(506.974609 0)"/>
      <use xlink:href="#DejaVuSans-3d" transform="translate(538.761719 0)"/>
      <use xlink:href="#DejaVuSans-20" transform="translate(622.550781 0)"/>
      <use xlink:href="#DejaVuSans-35" transform="translate(654.337891 0)"/>
      <use xlink:href="#DejaVuSans-39" transform="translate(717.960938 0)"/>
      <use xlink:href="#DejaVuSans-35" transform="translate(781.583984 0)"/>
     </g>
    </g>
    <g id="line2d_29">
     <path d="M 49.603125 64.772813 
L 59.603125 64.772813 
L 69.603125 64.772813 
" style="fill: none; stroke: #2ca02c; stroke-width: 1.5; stroke-linecap: square"/>
    </g>
    <g id="text_25">
     <!-- Ref Speed = 510 -->
     <g transform="translate(77.603125 68.272813) scale(0.1 -0.1)">
      <use xlink:href="#DejaVuSans-52"/>
      <use xlink:href="#DejaVuSans-65" transform="translate(64.982422 0)"/>
      <use xlink:href="#DejaVuSans-66" transform="translate(126.505859 0)"/>
      <use xlink:href="#DejaVuSans-20" transform="translate(161.710938 0)"/>
      <use xlink:href="#DejaVuSans-53" transform="translate(193.498047 0)"/>
      <use xlink:href="#DejaVuSans-70" transform="translate(256.974609 0)"/>
      <use xlink:href="#DejaVuSans-65" transform="translate(320.451172 0)"/>
      <use xlink:href="#DejaVuSans-65" transform="translate(381.974609 0)"/>
      <use xlink:href="#DejaVuSans-64" transform="translate(443.498047 0)"/>
      <use xlink:href="#DejaVuSans-20" transform="translate(506.974609 0)"/>
      <use xlink:href="#DejaVuSans-3d" transform="translate(538.761719 0)"/>
      <use xlink:href="#DejaVuSans-20" transform="translate(622.550781 0)"/>
      <use xlink:href="#DejaVuSans-35" transform="translate(654.337891 0)"/>
      <use xlink:href="#DejaVuSans-31" transform="translate(717.960938 0)"/>
      <use xlink:href="#DejaVuSans-30" transform="translate(781.583984 0)"/>
     </g>
    </g>
    <g id="line2d_30">
     <path d="M 49.603125 79.450938 
L 59.603125 79.450938 
L 69.603125 79.450938 
" style="fill: none; stroke: #d62728; stroke-width: 1.5; stroke-linecap: square"/>
    </g>
    <g id="text_26">
     <!-- Ref Speed = 425 -->
     <g transform="translate(77.603125 82.950938) scale(0.1 -0.1)">
      <use xlink:href="#DejaVuSans-52"/>
      <use xlink:href="#DejaVuSans-65" transform="translate(64.982422 0)"/>
      <use xlink:href="#DejaVuSans-66" transform="translate(126.505859 0)"/>
      <use xlink:href="#DejaVuSans-20" transform="translate(161.710938 0)"/>
      <use xlink:href="#DejaVuSans-53" transform="translate(193.498047 0)"/>
      <use xlink:href="#DejaVuSans-70" transform="translate(256.974609 0)"/>
      <use xlink:href="#DejaVuSans-65" transform="translate(320.451172 0)"/>
      <use xlink:href="#DejaVuSans-65" transform="translate(381.974609 0)"/>
      <use xlink:href="#DejaVuSans-64" transform="translate(443.498047 0)"/>
      <use xlink:href="#DejaVuSans-20" transform="translate(506.974609 0)"/>
      <use xlink:href="#DejaVuSans-3d" transform="translate(538.761719 0)"/>
      <use xlink:href="#DejaVuSans-20" transform="translate(622.550781 0)"/>
      <use xlink:href="#DejaVuSans-34" transform="translate(654.337891 0)"/>
      <use xlink:href="#DejaVuSans-32" transform="translate(717.960938 0)"/>
      <use xlink:href="#DejaVuSans-35" transform="translate(781.583984 0)"/>
     </g>
    </g>
    <g id="line2d_31">
     <path d="M 49.603125 94.129063 
L 59.603125 94.129063 
L 69.603125 94.129063 
" style="fill: none; stroke: #9467bd; stroke-width: 1.5; stroke-linecap: square"/>
    </g>
    <g id="text_27">
     <!-- Ref Speed = 340 -->
     <g transform="translate(77.603125 97.629063) scale(0.1 -0.1)">
      <use xlink:href="#DejaVuSans-52"/>
      <use xlink:href="#DejaVuSans-65" transform="translate(64.982422 0)"/>
      <use xlink:href="#DejaVuSans-66" transform="translate(126.505859 0)"/>
      <use xlink:href="#DejaVuSans-20" transform="translate(161.710938 0)"/>
      <use xlink:href="#DejaVuSans-53" transform="translate(193.498047 0)"/>
      <use xlink:href="#DejaVuSans-70" transform="translate(256.974609 0)"/>
      <use xlink:href="#DejaVuSans-65" transform="translate(320.451172 0)"/>
      <use xlink:href="#DejaVuSans-65" transform="translate(381.974609 0)"/>
      <use xlink:href="#DejaVuSans-64" transform="translate(443.498047 0)"/>
      <use xlink:href="#DejaVuSans-20" transform="translate(506.974609 0)"/>
      <use xlink:href="#DejaVuSans-3d" transform="translate(538.761719 0)"/>
      <use xlink:href="#DejaVuSans-20" transform="translate(622.550781 0)"/>
      <use xlink:href="#DejaVuSans-33" transform="translate(654.337891 0)"/>
      <use xlink:href="#DejaVuSans-34" transform="translate(717.960938 0)"/>
      <use xlink:href="#DejaVuSans-30" transform="translate(781.583984 0)"/>
     </g>
    </g>
    <g id="line2d_32">
     <path d="M 49.603125 108.807188 
L 59.603125 108.807188 
L 69.603125 108.807188 
" style="fill: none; stroke: #8c564b; stroke-width: 1.5; stroke-linecap: square"/>
    </g>
    <g id="text_28">
     <!-- Ref Speed = 255 -->
     <g transform="translate(77.603125 112.307188) scale(0.1 -0.1)">
      <use xlink:href="#DejaVuSans-52"/>
      <use xlink:href="#DejaVuSans-65" transform="translate(64.982422 0)"/>
      <use xlink:href="#DejaVuSans-66" transform="translate(126.505859 0)"/>
      <use xlink:href="#DejaVuSans-20" transform="translate(161.710938 0)"/>
      <use xlink:href="#DejaVuSans-53" transform="translate(193.498047 0)"/>
      <use xlink:href="#DejaVuSans-70" transform="translate(256.974609 0)"/>
      <use xlink:href="#DejaVuSans-65" transform="translate(320.451172 0)"/>
      <use xlink:href="#DejaVuSans-65" transform="translate(381.974609 0)"/>
      <use xlink:href="#DejaVuSans-64" transform="translate(443.498047 0)"/>
      <use xlink:href="#DejaVuSans-20" transform="translate(506.974609 0)"/>
      <use xlink:href="#DejaVuSans-3d" transform="translate(538.761719 0)"/>
      <use xlink:href="#DejaVuSans-20" transform="translate(622.550781 0)"/>
      <use xlink:href="#DejaVuSans-32" transform="translate(654.337891 0)"/>
      <use xlink:href="#DejaVuSans-35" transform="translate(717.960938 0)"/>
      <use xlink:href="#DejaVuSans-35" transform="translate(781.583984 0)"/>
     </g>
    </g>
    <g id="line2d_33">
     <path d="M 49.603125 123.485313 
L 59.603125 123.485313 
L 69.603125 123.485313 
" style="fill: none; stroke: #e377c2; stroke-width: 1.5; stroke-linecap: square"/>
    </g>
    <g id="text_29">
     <!-- Ref Speed = 170 -->
     <g transform="translate(77.603125 126.985313) scale(0.1 -0.1)">
      <use xlink:href="#DejaVuSans-52"/>
      <use xlink:href="#DejaVuSans-65" transform="translate(64.982422 0)"/>
      <use xlink:href="#DejaVuSans-66" transform="translate(126.505859 0)"/>
      <use xlink:href="#DejaVuSans-20" transform="translate(161.710938 0)"/>
      <use xlink:href="#DejaVuSans-53" transform="translate(193.498047 0)"/>
      <use xlink:href="#DejaVuSans-70" transform="translate(256.974609 0)"/>
      <use xlink:href="#DejaVuSans-65" transform="translate(320.451172 0)"/>
      <use xlink:href="#DejaVuSans-65" transform="translate(381.974609 0)"/>
      <use xlink:href="#DejaVuSans-64" transform="translate(443.498047 0)"/>
      <use xlink:href="#DejaVuSans-20" transform="translate(506.974609 0)"/>
      <use xlink:href="#DejaVuSans-3d" transform="translate(538.761719 0)"/>
      <use xlink:href="#DejaVuSans-20" transform="translate(622.550781 0)"/>
      <use xlink:href="#DejaVuSans-31" transform="translate(654.337891 0)"/>
      <use xlink:href="#DejaVuSans-37" transform="translate(717.960938 0)"/>
      <use xlink:href="#DejaVuSans-30" transform="translate(781.583984 0)"/>
     </g>
    </g>
    <g id="line2d_34">
     <path d="M 49.603125 138.163438 
L 59.603125 138.163438 
L 69.603125 138.163438 
" style="fill: none; stroke: #7f7f7f; stroke-width: 1.5; stroke-linecap: square"/>
    </g>
    <g id="text_30">
     <!-- Ref Speed = 85 -->
     <g transform="translate(77.603125 141.663438) scale(0.1 -0.1)">
      <use xlink:href="#DejaVuSans-52"/>
      <use xlink:href="#DejaVuSans-65" transform="translate(64.982422 0)"/>
      <use xlink:href="#DejaVuSans-66" transform="translate(126.505859 0)"/>
      <use xlink:href="#DejaVuSans-20" transform="translate(161.710938 0)"/>
      <use xlink:href="#DejaVuSans-53" transform="translate(193.498047 0)"/>
      <use xlink:href="#DejaVuSans-70" transform="translate(256.974609 0)"/>
      <use xlink:href="#DejaVuSans-65" transform="translate(320.451172 0)"/>
      <use xlink:href="#DejaVuSans-65" transform="translate(381.974609 0)"/>
      <use xlink:href="#DejaVuSans-64" transform="translate(443.498047 0)"/>
      <use xlink:href="#DejaVuSans-20" transform="translate(506.974609 0)"/>
      <use xlink:href="#DejaVuSans-3d" transform="translate(538.761719 0)"/>
      <use xlink:href="#DejaVuSans-20" transform="translate(622.550781 0)"/>
      <use xlink:href="#DejaVuSans-38" transform="translate(654.337891 0)"/>
      <use xlink:href="#DejaVuSans-35" transform="translate(717.960938 0)"/>
     </g>
    </g>
   </g>
  </g>
 </g>
 <defs>
  <clipPath id="pc2644a14f0">
   <rect x="40.603125" y="22.318125" width="405.34" height="277.48"/>
  </clipPath>
 </defs>
</svg>
