<?xml version="1.0" encoding="utf-8" standalone="no"?>
<!DOCTYPE svg PUBLIC "-//W3C//DTD SVG 1.1//EN"
  "http://www.w3.org/Graphics/SVG/1.1/DTD/svg11.dtd">
<svg xmlns:xlink="http://www.w3.org/1999/xlink" width="451.3175pt" height="334.991875pt" viewBox="0 0 451.3175 334.991875" xmlns="http://www.w3.org/2000/svg" version="1.1">
 <metadata>
  <rdf:RDF xmlns:dc="http://purl.org/dc/elements/1.1/" xmlns:cc="http://creativecommons.org/ns#" xmlns:rdf="http://www.w3.org/1999/02/22-rdf-syntax-ns#">
   <cc:Work>
    <dc:type rdf:resource="http://purl.org/dc/dcmitype/StillImage"/>
    <dc:date>2025-11-29T03:00:47.766281</dc:date>
    <dc:format>image/svg+xml</dc:format>
    <dc:creator>
     <cc:Agent>
      <dc:title>Matplotlib v3.10.6, https://matplotlib.org/</dc:title>
     </cc:Agent>
    </dc:creator>
   </cc:Work>
  </rdf:RDF>
 </metadata>
 <defs>
  <style type="text/css">*{stroke-linejoin: round; stroke-linecap: butt}</style>
 </defs>
 <g id="figure_1">
  <g id="patch_1">
   <path d="M 0 334.991875 
L 451.3175 334.991875 
L 451.3175 0 
L 0 0 
z
" style="fill: #ffffff"/>
  </g>
  <g id="axes_1">
   <g id="patch_2">
    <path d="M 53.65 297.435625 
L 444.1175 297.435625 
L 444.1175 22.318125 
L 53.65 22.318125 
z
" style="fill: #ffffff"/>
   </g>
   <g id="matplotlib.axis_1">
    <g id="xtick_1">
     <g id="line2d_1">
      <path d="M 71.398523 297.435625 
L 71.398523 22.318125 
" clip-path="url(#p796a15a80a)" style="fill: none; stroke: #b0b0b0; stroke-width: 0.8; stroke-linecap: square"/>
     </g>
     <g id="line2d_2">
      <defs>
       <path id="m7626923837" d="M 0 0 
L 0 3.5 
" style="stroke: #000000; stroke-width: 0.8"/>
      </defs>
      <g>
       <use xlink:href="#m7626923837" x="71.398523" y="297.435625" style="stroke: #000000; stroke-width: 0.8"/>
      </g>
     </g>
     <g id="text_1">
      <!-- 0 -->
      <g transform="translate(68.217273 312.034062) scale(0.1 -0.1)">
       <defs>
        <path id="DejaVuSans-30" d="M 2034 4250 
Q 1547 4250 1301 3770 
Q 1056 3291 1056 2328 
Q 1056 1369 1301 889 
Q 1547 409 2034 409 
Q 2525 409 2770 889 
Q 3016 1369 3016 2328 
Q 3016 3291 2770 3770 
Q 2525 4250 2034 4250 
z
M 2034 4750 
Q 2819 4750 3233 4129 
Q 3647 3509 3647 2328 
Q 3647 1150 3233 529 
Q 2819 -91 2034 -91 
Q 1250 -91 836 529 
Q 422 1150 422 2328 
Q 422 3509 836 4129 
Q 1250 4750 2034 4750 
z
" transform="scale(0.015625)"/>
       </defs>
       <use xlink:href="#DejaVuSans-30"/>
      </g>
     </g>
    </g>
    <g id="xtick_2">
     <g id="line2d_3">
      <path d="M 125.509873 297.435625 
L 125.509873 22.318125 
" clip-path="url(#p796a15a80a)" style="fill: none; stroke: #b0b0b0; stroke-width: 0.8; stroke-linecap: square"/>
     </g>
     <g id="line2d_4">
      <g>
       <use xlink:href="#m7626923837" x="125.509873" y="297.435625" style="stroke: #000000; stroke-width: 0.8"/>
      </g>
     </g>
     <g id="text_2">
      <!-- 50 -->
      <g transform="translate(119.147373 312.034062) scale(0.1 -0.1)">
       <defs>
        <path id="DejaVuSans-35" d="M 691 4666 
L 3169 4666 
L 3169 4134 
L 1269 4134 
L 1269 2991 
Q 1406 3038 1543 3061 
Q 1681 3084 1819 3084 
Q 2600 3084 3056 2656 
Q 3513 2228 3513 1497 
Q 3513 744 3044 326 
Q 2575 -91 1722 -91 
Q 1428 -91 1123 -41 
Q 819 9 494 109 
L 494 744 
Q 775 591 1075 516 
Q 1375 441 1709 441 
Q 2250 441 2565 725 
Q 2881 1009 2881 1497 
Q 2881 1984 2565 2268 
Q 2250 2553 1709 2553 
Q 1456 2553 1204 2497 
Q 953 2441 691 2322 
L 691 4666 
z
" transform="scale(0.015625)"/>
       </defs>
       <use xlink:href="#DejaVuSans-35"/>
       <use xlink:href="#DejaVuSans-30" transform="translate(63.623047 0)"/>
      </g>
     </g>
    </g>
    <g id="xtick_3">
     <g id="line2d_5">
      <path d="M 179.621222 297.435625 
L 179.621222 22.318125 
" clip-path="url(#p796a15a80a)" style="fill: none; stroke: #b0b0b0; stroke-width: 0.8; stroke-linecap: square"/>
     </g>
     <g id="line2d_6">
      <g>
       <use xlink:href="#m7626923837" x="179.621222" y="297.435625" style="stroke: #000000; stroke-width: 0.8"/>
      </g>
     </g>
     <g id="text_3">
      <!-- 100 -->
      <g transform="translate(170.077472 312.034062) scale(0.1 -0.1)">
       <defs>
        <path id="DejaVuSans-31" d="M 794 531 
L 1825 531 
L 1825 4091 
L 703 3866 
L 703 4441 
L 1819 4666 
L 2450 4666 
L 2450 531 
L 3481 531 
L 3481 0 
L 794 0 
L 794 531 
z
" transform="scale(0.015625)"/>
       </defs>
       <use xlink:href="#DejaVuSans-31"/>
       <use xlink:href="#DejaVuSans-30" transform="translate(63.623047 0)"/>
       <use xlink:href="#DejaVuSans-30" transform="translate(127.246094 0)"/>
      </g>
     </g>
    </g>
    <g id="xtick_4">
     <g id="line2d_7">
      <path d="M 233.732572 297.435625 
L 233.732572 22.318125 
" clip-path="url(#p796a15a80a)" style="fill: none; stroke: #b0b0b0; stroke-width: 0.8; stroke-linecap: square"/>
     </g>
     <g id="line2d_8">
      <g>
       <use xlink:href="#m7626923837" x="233.732572" y="297.435625" style="stroke: #000000; stroke-width: 0.8"/>
      </g>
     </g>
     <g id="text_4">
      <!-- 150 -->
      <g transform="translate(224.188822 312.034062) scale(0.1 -0.1)">
       <use xlink:href="#DejaVuSans-31"/>
       <use xlink:href="#DejaVuSans-35" transform="translate(63.623047 0)"/>
       <use xlink:href="#DejaVuSans-30" transform="translate(127.246094 0)"/>
      </g>
     </g>
    </g>
    <g id="xtick_5">
     <g id="line2d_9">
      <path d="M 287.843922 297.435625 
L 287.843922 22.318125 
" clip-path="url(#p796a15a80a)" style="fill: none; stroke: #b0b0b0; stroke-width: 0.8; stroke-linecap: square"/>
     </g>
     <g id="line2d_10">
      <g>
       <use xlink:href="#m7626923837" x="287.843922" y="297.435625" style="stroke: #000000; stroke-width: 0.8"/>
      </g>
     </g>
     <g id="text_5">
      <!-- 200 -->
      <g transform="translate(278.300172 312.034062) scale(0.1 -0.1)">
       <defs>
        <path id="DejaVuSans-32" d="M 1228 531 
L 3431 531 
L 3431 0 
L 469 0 
L 469 531 
Q 828 903 1448 1529 
Q 2069 2156 2228 2338 
Q 2531 2678 2651 2914 
Q 2772 3150 2772 3378 
Q 2772 3750 2511 3984 
Q 2250 4219 1831 4219 
Q 1534 4219 1204 4116 
Q 875 4013 500 3803 
L 500 4441 
Q 881 4594 1212 4672 
Q 1544 4750 1819 4750 
Q 2544 4750 2975 4387 
Q 3406 4025 3406 3419 
Q 3406 3131 3298 2873 
Q 3191 2616 2906 2266 
Q 2828 2175 2409 1742 
Q 1991 1309 1228 531 
z
" transform="scale(0.015625)"/>
       </defs>
       <use xlink:href="#DejaVuSans-32"/>
       <use xlink:href="#DejaVuSans-30" transform="translate(63.623047 0)"/>
       <use xlink:href="#DejaVuSans-30" transform="translate(127.246094 0)"/>
      </g>
     </g>
    </g>
    <g id="xtick_6">
     <g id="line2d_11">
      <path d="M 341.955272 297.435625 
L 341.955272 22.318125 
" clip-path="url(#p796a15a80a)" style="fill: none; stroke: #b0b0b0; stroke-width: 0.8; stroke-linecap: square"/>
     </g>
     <g id="line2d_12">
      <g>
       <use xlink:href="#m7626923837" x="341.955272" y="297.435625" style="stroke: #000000; stroke-width: 0.8"/>
      </g>
     </g>
     <g id="text_6">
      <!-- 250 -->
      <g transform="translate(332.411522 312.034062) scale(0.1 -0.1)">
       <use xlink:href="#DejaVuSans-32"/>
       <use xlink:href="#DejaVuSans-35" transform="translate(63.623047 0)"/>
       <use xlink:href="#DejaVuSans-30" transform="translate(127.246094 0)"/>
      </g>
     </g>
    </g>
    <g id="xtick_7">
     <g id="line2d_13">
      <path d="M 396.066621 297.435625 
L 396.066621 22.318125 
" clip-path="url(#p796a15a80a)" style="fill: none; stroke: #b0b0b0; stroke-width: 0.8; stroke-linecap: square"/>
     </g>
     <g id="line2d_14">
      <g>
       <use xlink:href="#m7626923837" x="396.066621" y="297.435625" style="stroke: #000000; stroke-width: 0.8"/>
      </g>
     </g>
     <g id="text_7">
      <!-- 300 -->
      <g transform="translate(386.522871 312.034062) scale(0.1 -0.1)">
       <defs>
        <path id="DejaVuSans-33" d="M 2597 2516 
Q 3050 2419 3304 2112 
Q 3559 1806 3559 1356 
Q 3559 666 3084 287 
Q 2609 -91 1734 -91 
Q 1441 -91 1130 -33 
Q 819 25 488 141 
L 488 750 
Q 750 597 1062 519 
Q 1375 441 1716 441 
Q 2309 441 2620 675 
Q 2931 909 2931 1356 
Q 2931 1769 2642 2001 
Q 2353 2234 1838 2234 
L 1294 2234 
L 1294 2753 
L 1863 2753 
Q 2328 2753 2575 2939 
Q 2822 3125 2822 3475 
Q 2822 3834 2567 4026 
Q 2313 4219 1838 4219 
Q 1578 4219 1281 4162 
Q 984 4106 628 3988 
L 628 4550 
Q 988 4650 1302 4700 
Q 1616 4750 1894 4750 
Q 2613 4750 3031 4423 
Q 3450 4097 3450 3541 
Q 3450 3153 3228 2886 
Q 3006 2619 2597 2516 
z
" transform="scale(0.015625)"/>
       </defs>
       <use xlink:href="#DejaVuSans-33"/>
       <use xlink:href="#DejaVuSans-30" transform="translate(63.623047 0)"/>
       <use xlink:href="#DejaVuSans-30" transform="translate(127.246094 0)"/>
      </g>
     </g>
    </g>
    <g id="text_8">
     <!-- index, $i$, [-] -->
     <g transform="translate(221.63375 325.712187) scale(0.1 -0.1)">
      <defs>
       <path id="DejaVuSans-69" d="M 603 3500 
L 1178 3500 
L 1178 0 
L 603 0 
L 603 3500 
z
M 603 4863 
L 1178 4863 
L 1178 4134 
L 603 4134 
L 603 4863 
z
" transform="scale(0.015625)"/>
       <path id="DejaVuSans-6e" d="M 3513 2113 
L 3513 0 
L 2938 0 
L 2938 2094 
Q 2938 2591 2744 2837 
Q 2550 3084 2163 3084 
Q 1697 3084 1428 2787 
Q 1159 2491 1159 1978 
L 1159 0 
L 581 0 
L 581 3500 
L 1159 3500 
L 1159 2956 
Q 1366 3272 1645 3428 
Q 1925 3584 2291 3584 
Q 2894 3584 3203 3211 
Q 3513 2838 3513 2113 
z
" transform="scale(0.015625)"/>
       <path id="DejaVuSans-64" d="M 2906 2969 
L 2906 4863 
L 3481 4863 
L 3481 0 
L 2906 0 
L 2906 525 
Q 2725 213 2448 61 
Q 2172 -91 1784 -91 
Q 1150 -91 751 415 
Q 353 922 353 1747 
Q 353 2572 751 3078 
Q 1150 3584 1784 3584 
Q 2172 3584 2448 3432 
Q 2725 3281 2906 2969 
z
M 947 1747 
Q 947 1113 1208 752 
Q 1469 391 1925 391 
Q 2381 391 2643 752 
Q 2906 1113 2906 1747 
Q 2906 2381 2643 2742 
Q 2381 3103 1925 3103 
Q 1469 3103 1208 2742 
Q 947 2381 947 1747 
z
" transform="scale(0.015625)"/>
       <path id="DejaVuSans-65" d="M 3597 1894 
L 3597 1613 
L 953 1613 
Q 991 1019 1311 708 
Q 1631 397 2203 397 
Q 2534 397 2845 478 
Q 3156 559 3463 722 
L 3463 178 
Q 3153 47 2828 -22 
Q 2503 -91 2169 -91 
Q 1331 -91 842 396 
Q 353 884 353 1716 
Q 353 2575 817 3079 
Q 1281 3584 2069 3584 
Q 2775 3584 3186 3129 
Q 3597 2675 3597 1894 
z
M 3022 2063 
Q 3016 2534 2758 2815 
Q 2500 3097 2075 3097 
Q 1594 3097 1305 2825 
Q 1016 2553 972 2059 
L 3022 2063 
z
" transform="scale(0.015625)"/>
       <path id="DejaVuSans-78" d="M 3513 3500 
L 2247 1797 
L 3578 0 
L 2900 0 
L 1881 1375 
L 863 0 
L 184 0 
L 1544 1831 
L 300 3500 
L 978 3500 
L 1906 2253 
L 2834 3500 
L 3513 3500 
z
" transform="scale(0.015625)"/>
       <path id="DejaVuSans-2c" d="M 750 794 
L 1409 794 
L 1409 256 
L 897 -744 
L 494 -744 
L 750 256 
L 750 794 
z
" transform="scale(0.015625)"/>
       <path id="DejaVuSans-20" transform="scale(0.015625)"/>
       <path id="DejaVuSans-Oblique-69" d="M 1172 4863 
L 1747 4863 
L 1606 4134 
L 1031 4134 
L 1172 4863 
z
M 909 3500 
L 1484 3500 
L 800 0 
L 225 0 
L 909 3500 
z
" transform="scale(0.015625)"/>
       <path id="DejaVuSans-5b" d="M 550 4863 
L 1875 4863 
L 1875 4416 
L 1125 4416 
L 1125 -397 
L 1875 -397 
L 1875 -844 
L 550 -844 
L 550 4863 
z
" transform="scale(0.015625)"/>
       <path id="DejaVuSans-2d" d="M 313 2009 
L 1997 2009 
L 1997 1497 
L 313 1497 
L 313 2009 
z
" transform="scale(0.015625)"/>
       <path id="DejaVuSans-5d" d="M 1947 4863 
L 1947 -844 
L 622 -844 
L 622 -397 
L 1369 -397 
L 1369 4416 
L 622 4416 
L 622 4863 
L 1947 4863 
z
" transform="scale(0.015625)"/>
      </defs>
      <use xlink:href="#DejaVuSans-69" transform="translate(0 0.015625)"/>
      <use xlink:href="#DejaVuSans-6e" transform="translate(27.783203 0.015625)"/>
      <use xlink:href="#DejaVuSans-64" transform="translate(91.162109 0.015625)"/>
      <use xlink:href="#DejaVuSans-65" transform="translate(154.638672 0.015625)"/>
      <use xlink:href="#DejaVuSans-78" transform="translate(216.162109 0.015625)"/>
      <use xlink:href="#DejaVuSans-2c" transform="translate(275.341797 0.015625)"/>
      <use xlink:href="#DejaVuSans-20" transform="translate(307.128906 0.015625)"/>
      <use xlink:href="#DejaVuSans-Oblique-69" transform="translate(338.916016 0.015625)"/>
      <use xlink:href="#DejaVuSans-2c" transform="translate(366.699219 0.015625)"/>
      <use xlink:href="#DejaVuSans-20" transform="translate(398.486328 0.015625)"/>
      <use xlink:href="#DejaVuSans-5b" transform="translate(430.273438 0.015625)"/>
      <use xlink:href="#DejaVuSans-2d" transform="translate(469.287109 0.015625)"/>
      <use xlink:href="#DejaVuSans-5d" transform="translate(505.371094 0.015625)"/>
     </g>
    </g>
   </g>
   <g id="matplotlib.axis_2">
    <g id="ytick_1">
     <g id="line2d_15">
      <path d="M 53.65 284.930284 
L 444.1175 284.930284 
" clip-path="url(#p796a15a80a)" style="fill: none; stroke: #b0b0b0; stroke-width: 0.8; stroke-linecap: square"/>
     </g>
     <g id="line2d_16">
      <defs>
       <path id="mdf92095242" d="M 0 0 
L -3.5 0 
" style="stroke: #000000; stroke-width: 0.8"/>
      </defs>
      <g>
       <use xlink:href="#mdf92095242" x="53.65" y="284.930284" style="stroke: #000000; stroke-width: 0.8"/>
      </g>
     </g>
     <g id="text_9">
      <!-- 0 -->
      <g transform="translate(40.2875 288.729503) scale(0.1 -0.1)">
       <use xlink:href="#DejaVuSans-30"/>
      </g>
     </g>
    </g>
    <g id="ytick_2">
     <g id="line2d_17">
      <path d="M 53.65 252.759325 
L 444.1175 252.759325 
" clip-path="url(#p796a15a80a)" style="fill: none; stroke: #b0b0b0; stroke-width: 0.8; stroke-linecap: square"/>
     </g>
     <g id="line2d_18">
      <g>
       <use xlink:href="#mdf92095242" x="53.65" y="252.759325" style="stroke: #000000; stroke-width: 0.8"/>
      </g>
     </g>
     <g id="text_10">
      <!-- 250 -->
      <g transform="translate(27.5625 256.558543) scale(0.1 -0.1)">
       <use xlink:href="#DejaVuSans-32"/>
       <use xlink:href="#DejaVuSans-35" transform="translate(63.623047 0)"/>
       <use xlink:href="#DejaVuSans-30" transform="translate(127.246094 0)"/>
      </g>
     </g>
    </g>
    <g id="ytick_3">
     <g id="line2d_19">
      <path d="M 53.65 220.588365 
L 444.1175 220.588365 
" clip-path="url(#p796a15a80a)" style="fill: none; stroke: #b0b0b0; stroke-width: 0.8; stroke-linecap: square"/>
     </g>
     <g id="line2d_20">
      <g>
       <use xlink:href="#mdf92095242" x="53.65" y="220.588365" style="stroke: #000000; stroke-width: 0.8"/>
      </g>
     </g>
     <g id="text_11">
      <!-- 500 -->
      <g transform="translate(27.5625 224.387584) scale(0.1 -0.1)">
       <use xlink:href="#DejaVuSans-35"/>
       <use xlink:href="#DejaVuSans-30" transform="translate(63.623047 0)"/>
       <use xlink:href="#DejaVuSans-30" transform="translate(127.246094 0)"/>
      </g>
     </g>
    </g>
    <g id="ytick_4">
     <g id="line2d_21">
      <path d="M 53.65 188.417406 
L 444.1175 188.417406 
" clip-path="url(#p796a15a80a)" style="fill: none; stroke: #b0b0b0; stroke-width: 0.8; stroke-linecap: square"/>
     </g>
     <g id="line2d_22">
      <g>
       <use xlink:href="#mdf92095242" x="53.65" y="188.417406" style="stroke: #000000; stroke-width: 0.8"/>
      </g>
     </g>
     <g id="text_12">
      <!-- 750 -->
      <g transform="translate(27.5625 192.216625) scale(0.1 -0.1)">
       <defs>
        <path id="DejaVuSans-37" d="M 525 4666 
L 3525 4666 
L 3525 4397 
L 1831 0 
L 1172 0 
L 2766 4134 
L 525 4134 
L 525 4666 
z
" transform="scale(0.015625)"/>
       </defs>
       <use xlink:href="#DejaVuSans-37"/>
       <use xlink:href="#DejaVuSans-35" transform="translate(63.623047 0)"/>
       <use xlink:href="#DejaVuSans-30" transform="translate(127.246094 0)"/>
      </g>
     </g>
    </g>
    <g id="ytick_5">
     <g id="line2d_23">
      <path d="M 53.65 156.246447 
L 444.1175 156.246447 
" clip-path="url(#p796a15a80a)" style="fill: none; stroke: #b0b0b0; stroke-width: 0.8; stroke-linecap: square"/>
     </g>
     <g id="line2d_24">
      <g>
       <use xlink:href="#mdf92095242" x="53.65" y="156.246447" style="stroke: #000000; stroke-width: 0.8"/>
      </g>
     </g>
     <g id="text_13">
      <!-- 1000 -->
      <g transform="translate(21.2 160.045665) scale(0.1 -0.1)">
       <use xlink:href="#DejaVuSans-31"/>
       <use xlink:href="#DejaVuSans-30" transform="translate(63.623047 0)"/>
       <use xlink:href="#DejaVuSans-30" transform="translate(127.246094 0)"/>
       <use xlink:href="#DejaVuSans-30" transform="translate(190.869141 0)"/>
      </g>
     </g>
    </g>
    <g id="ytick_6">
     <g id="line2d_25">
      <path d="M 53.65 124.075487 
L 444.1175 124.075487 
" clip-path="url(#p796a15a80a)" style="fill: none; stroke: #b0b0b0; stroke-width: 0.8; stroke-linecap: square"/>
     </g>
     <g id="line2d_26">
      <g>
       <use xlink:href="#mdf92095242" x="53.65" y="124.075487" style="stroke: #000000; stroke-width: 0.8"/>
      </g>
     </g>
     <g id="text_14">
      <!-- 1250 -->
      <g transform="translate(21.2 127.874706) scale(0.1 -0.1)">
       <use xlink:href="#DejaVuSans-31"/>
       <use xlink:href="#DejaVuSans-32" transform="translate(63.623047 0)"/>
       <use xlink:href="#DejaVuSans-35" transform="translate(127.246094 0)"/>
       <use xlink:href="#DejaVuSans-30" transform="translate(190.869141 0)"/>
      </g>
     </g>
    </g>
    <g id="ytick_7">
     <g id="line2d_27">
      <path d="M 53.65 91.904528 
L 444.1175 91.904528 
" clip-path="url(#p796a15a80a)" style="fill: none; stroke: #b0b0b0; stroke-width: 0.8; stroke-linecap: square"/>
     </g>
     <g id="line2d_28">
      <g>
       <use xlink:href="#mdf92095242" x="53.65" y="91.904528" style="stroke: #000000; stroke-width: 0.8"/>
      </g>
     </g>
     <g id="text_15">
      <!-- 1500 -->
      <g transform="translate(21.2 95.703747) scale(0.1 -0.1)">
       <use xlink:href="#DejaVuSans-31"/>
       <use xlink:href="#DejaVuSans-35" transform="translate(63.623047 0)"/>
       <use xlink:href="#DejaVuSans-30" transform="translate(127.246094 0)"/>
       <use xlink:href="#DejaVuSans-30" transform="translate(190.869141 0)"/>
      </g>
     </g>
    </g>
    <g id="ytick_8">
     <g id="line2d_29">
      <path d="M 53.65 59.733568 
L 444.1175 59.733568 
" clip-path="url(#p796a15a80a)" style="fill: none; stroke: #b0b0b0; stroke-width: 0.8; stroke-linecap: square"/>
     </g>
     <g id="line2d_30">
      <g>
       <use xlink:href="#mdf92095242" x="53.65" y="59.733568" style="stroke: #000000; stroke-width: 0.8"/>
      </g>
     </g>
     <g id="text_16">
      <!-- 1750 -->
      <g transform="translate(21.2 63.532787) scale(0.1 -0.1)">
       <use xlink:href="#DejaVuSans-31"/>
       <use xlink:href="#DejaVuSans-37" transform="translate(63.623047 0)"/>
       <use xlink:href="#DejaVuSans-35" transform="translate(127.246094 0)"/>
       <use xlink:href="#DejaVuSans-30" transform="translate(190.869141 0)"/>
      </g>
     </g>
    </g>
    <g id="ytick_9">
     <g id="line2d_31">
      <path d="M 53.65 27.562609 
L 444.1175 27.562609 
" clip-path="url(#p796a15a80a)" style="fill: none; stroke: #b0b0b0; stroke-width: 0.8; stroke-linecap: square"/>
     </g>
     <g id="line2d_32">
      <g>
       <use xlink:href="#mdf92095242" x="53.65" y="27.562609" style="stroke: #000000; stroke-width: 0.8"/>
      </g>
     </g>
     <g id="text_17">
      <!-- 2000 -->
      <g transform="translate(21.2 31.361828) scale(0.1 -0.1)">
       <use xlink:href="#DejaVuSans-32"/>
       <use xlink:href="#DejaVuSans-30" transform="translate(63.623047 0)"/>
       <use xlink:href="#DejaVuSans-30" transform="translate(127.246094 0)"/>
       <use xlink:href="#DejaVuSans-30" transform="translate(190.869141 0)"/>
      </g>
     </g>
    </g>
    <g id="text_18">
     <!-- obsd_cpos, $s$, [mm] -->
     <g transform="translate(14.8 208.626875) rotate(-90) scale(0.1 -0.1)">
      <defs>
       <path id="DejaVuSans-6f" d="M 1959 3097 
Q 1497 3097 1228 2736 
Q 959 2375 959 1747 
Q 959 1119 1226 758 
Q 1494 397 1959 397 
Q 2419 397 2687 759 
Q 2956 1122 2956 1747 
Q 2956 2369 2687 2733 
Q 2419 3097 1959 3097 
z
M 1959 3584 
Q 2709 3584 3137 3096 
Q 3566 2609 3566 1747 
Q 3566 888 3137 398 
Q 2709 -91 1959 -91 
Q 1206 -91 779 398 
Q 353 888 353 1747 
Q 353 2609 779 3096 
Q 1206 3584 1959 3584 
z
" transform="scale(0.015625)"/>
       <path id="DejaVuSans-62" d="M 3116 1747 
Q 3116 2381 2855 2742 
Q 2594 3103 2138 3103 
Q 1681 3103 1420 2742 
Q 1159 2381 1159 1747 
Q 1159 1113 1420 752 
Q 1681 391 2138 391 
Q 2594 391 2855 752 
Q 3116 1113 3116 1747 
z
M 1159 2969 
Q 1341 3281 1617 3432 
Q 1894 3584 2278 3584 
Q 2916 3584 3314 3078 
Q 3713 2572 3713 1747 
Q 3713 922 3314 415 
Q 2916 -91 2278 -91 
Q 1894 -91 1617 61 
Q 1341 213 1159 525 
L 1159 0 
L 581 0 
L 581 4863 
L 1159 4863 
L 1159 2969 
z
" transform="scale(0.015625)"/>
       <path id="DejaVuSans-73" d="M 2834 3397 
L 2834 2853 
Q 2591 2978 2328 3040 
Q 2066 3103 1784 3103 
Q 1356 3103 1142 2972 
Q 928 2841 928 2578 
Q 928 2378 1081 2264 
Q 1234 2150 1697 2047 
L 1894 2003 
Q 2506 1872 2764 1633 
Q 3022 1394 3022 966 
Q 3022 478 2636 193 
Q 2250 -91 1575 -91 
Q 1294 -91 989 -36 
Q 684 19 347 128 
L 347 722 
Q 666 556 975 473 
Q 1284 391 1588 391 
Q 1994 391 2212 530 
Q 2431 669 2431 922 
Q 2431 1156 2273 1281 
Q 2116 1406 1581 1522 
L 1381 1569 
Q 847 1681 609 1914 
Q 372 2147 372 2553 
Q 372 3047 722 3315 
Q 1072 3584 1716 3584 
Q 2034 3584 2315 3537 
Q 2597 3491 2834 3397 
z
" transform="scale(0.015625)"/>
       <path id="DejaVuSans-5f" d="M 3263 -1063 
L 3263 -1509 
L -63 -1509 
L -63 -1063 
L 3263 -1063 
z
" transform="scale(0.015625)"/>
       <path id="DejaVuSans-63" d="M 3122 3366 
L 3122 2828 
Q 2878 2963 2633 3030 
Q 2388 3097 2138 3097 
Q 1578 3097 1268 2742 
Q 959 2388 959 1747 
Q 959 1106 1268 751 
Q 1578 397 2138 397 
Q 2388 397 2633 464 
Q 2878 531 3122 666 
L 3122 134 
Q 2881 22 2623 -34 
Q 2366 -91 2075 -91 
Q 1284 -91 818 406 
Q 353 903 353 1747 
Q 353 2603 823 3093 
Q 1294 3584 2113 3584 
Q 2378 3584 2631 3529 
Q 2884 3475 3122 3366 
z
" transform="scale(0.015625)"/>
       <path id="DejaVuSans-70" d="M 1159 525 
L 1159 -1331 
L 581 -1331 
L 581 3500 
L 1159 3500 
L 1159 2969 
Q 1341 3281 1617 3432 
Q 1894 3584 2278 3584 
Q 2916 3584 3314 3078 
Q 3713 2572 3713 1747 
Q 3713 922 3314 415 
Q 2916 -91 2278 -91 
Q 1894 -91 1617 61 
Q 1341 213 1159 525 
z
M 3116 1747 
Q 3116 2381 2855 2742 
Q 2594 3103 2138 3103 
Q 1681 3103 1420 2742 
Q 1159 2381 1159 1747 
Q 1159 1113 1420 752 
Q 1681 391 2138 391 
Q 2594 391 2855 752 
Q 3116 1113 3116 1747 
z
" transform="scale(0.015625)"/>
       <path id="DejaVuSans-Oblique-73" d="M 3200 3397 
L 3091 2853 
Q 2863 2978 2609 3040 
Q 2356 3103 2088 3103 
Q 1634 3103 1373 2948 
Q 1113 2794 1113 2528 
Q 1113 2219 1719 2053 
Q 1766 2041 1788 2034 
L 1972 1978 
Q 2547 1819 2739 1644 
Q 2931 1469 2931 1166 
Q 2931 609 2489 259 
Q 2047 -91 1331 -91 
Q 1053 -91 747 -37 
Q 441 16 72 128 
L 184 722 
Q 500 559 806 475 
Q 1113 391 1394 391 
Q 1816 391 2080 572 
Q 2344 753 2344 1031 
Q 2344 1331 1650 1516 
L 1591 1531 
L 1394 1581 
Q 956 1697 753 1886 
Q 550 2075 550 2369 
Q 550 2928 970 3256 
Q 1391 3584 2113 3584 
Q 2397 3584 2667 3537 
Q 2938 3491 3200 3397 
z
" transform="scale(0.015625)"/>
       <path id="DejaVuSans-6d" d="M 3328 2828 
Q 3544 3216 3844 3400 
Q 4144 3584 4550 3584 
Q 5097 3584 5394 3201 
Q 5691 2819 5691 2113 
L 5691 0 
L 5113 0 
L 5113 2094 
Q 5113 2597 4934 2840 
Q 4756 3084 4391 3084 
Q 3944 3084 3684 2787 
Q 3425 2491 3425 1978 
L 3425 0 
L 2847 0 
L 2847 2094 
Q 2847 2600 2669 2842 
Q 2491 3084 2119 3084 
Q 1678 3084 1418 2786 
Q 1159 2488 1159 1978 
L 1159 0 
L 581 0 
L 581 3500 
L 1159 3500 
L 1159 2956 
Q 1356 3278 1631 3431 
Q 1906 3584 2284 3584 
Q 2666 3584 2933 3390 
Q 3200 3197 3328 2828 
z
" transform="scale(0.015625)"/>
      </defs>
      <use xlink:href="#DejaVuSans-6f" transform="translate(0 0.015625)"/>
      <use xlink:href="#DejaVuSans-62" transform="translate(61.181641 0.015625)"/>
      <use xlink:href="#DejaVuSans-73" transform="translate(124.658203 0.015625)"/>
      <use xlink:href="#DejaVuSans-64" transform="translate(176.757812 0.015625)"/>
      <use xlink:href="#DejaVuSans-5f" transform="translate(240.234375 0.015625)"/>
      <use xlink:href="#DejaVuSans-63" transform="translate(290.234375 0.015625)"/>
      <use xlink:href="#DejaVuSans-70" transform="translate(345.214844 0.015625)"/>
      <use xlink:href="#DejaVuSans-6f" transform="translate(408.691406 0.015625)"/>
      <use xlink:href="#DejaVuSans-73" transform="translate(469.873047 0.015625)"/>
      <use xlink:href="#DejaVuSans-2c" transform="translate(521.972656 0.015625)"/>
      <use xlink:href="#DejaVuSans-20" transform="translate(553.759766 0.015625)"/>
      <use xlink:href="#DejaVuSans-Oblique-73" transform="translate(585.546875 0.015625)"/>
      <use xlink:href="#DejaVuSans-2c" transform="translate(637.646484 0.015625)"/>
      <use xlink:href="#DejaVuSans-20" transform="translate(669.433594 0.015625)"/>
      <use xlink:href="#DejaVuSans-5b" transform="translate(701.220703 0.015625)"/>
      <use xlink:href="#DejaVuSans-6d" transform="translate(740.234375 0.015625)"/>
      <use xlink:href="#DejaVuSans-6d" transform="translate(837.646484 0.015625)"/>
      <use xlink:href="#DejaVuSans-5d" transform="translate(935.058594 0.015625)"/>
     </g>
    </g>
   </g>
   <g id="line2d_33">
    <path d="M 71.398523 284.930284 
L 74.645204 284.909707 
L 75.727431 284.761627 
L 76.809658 284.310459 
L 77.891885 283.98541 
L 81.138566 281.497558 
L 82.220793 281.106602 
L 83.30302 279.767222 
L 86.549701 277.213808 
L 87.631928 276.414532 
L 88.714155 276.411325 
L 89.796382 274.842404 
L 90.878609 274.01835 
L 91.960836 273.347039 
L 94.12529 271.734078 
L 95.207517 271.334258 
L 96.289744 270.291931 
L 107.112014 262.54021 
L 109.276468 260.946371 
L 110.358695 260.943527 
L 111.440922 259.439509 
L 113.605376 257.824179 
L 122.263192 251.73217 
L 123.345419 251.378187 
L 124.427646 250.188235 
L 126.5921 248.620119 
L 127.674326 248.288256 
L 128.756553 247.082193 
L 130.921007 245.564907 
L 133.085461 244.039708 
L 134.167688 243.474709 
L 135.249915 242.410365 
L 140.66105 238.8005 
L 141.743277 237.854455 
L 143.907731 236.30689 
L 144.989958 235.955274 
L 146.072185 234.766094 
L 150.401093 231.693266 
L 151.48332 231.116917 
L 152.565547 230.112732 
L 154.730001 228.640319 
L 155.812228 228.637668 
L 156.894455 226.977801 
L 161.223363 224.041339 
L 162.30559 223.793095 
L 163.387817 222.402511 
L 164.470044 221.586604 
L 165.552271 220.959052 
L 168.798952 218.504678 
L 169.881179 217.82497 
L 170.963406 217.008265 
L 172.045633 216.387687 
L 173.12786 215.431258 
L 179.621222 210.979427 
L 181.785676 209.280492 
L 182.867903 208.675768 
L 183.95013 207.708657 
L 190.443492 203.326394 
L 192.607946 201.606985 
L 193.690173 200.9626 
L 194.7724 200.608926 
L 195.854627 199.312732 
L 196.936854 198.63395 
L 199.101308 196.952555 
L 200.183535 196.397824 
L 201.265762 195.642926 
L 202.347989 194.669587 
L 203.430216 193.846217 
L 204.512443 193.24157 
L 205.59467 192.275257 
L 208.841351 190.065691 
L 209.923578 189.202403 
L 211.005805 188.646939 
L 212.088032 187.910739 
L 213.170259 186.925471 
L 214.252486 186.123719 
L 215.334713 185.490518 
L 216.41694 185.079502 
L 217.499167 183.854213 
L 220.745848 181.404265 
L 221.828075 180.847811 
L 222.910302 180.140564 
L 223.992529 179.18407 
L 225.074756 178.408377 
L 226.156983 177.77753 
L 227.23921 177.376075 
L 228.321437 176.172238 
L 231.568118 173.739856 
L 232.650345 173.18326 
L 233.732572 172.466903 
L 234.814799 171.464327 
L 235.897026 170.677644 
L 236.979253 170.037146 
L 238.06148 169.109065 
L 241.308161 166.840948 
L 242.390388 166.046313 
L 243.472615 165.462307 
L 244.554842 164.716481 
L 245.637069 163.720545 
L 246.719296 162.927184 
L 247.801523 162.29496 
L 248.88375 161.894174 
L 249.965977 160.682114 
L 252.130431 159.128373 
L 253.212658 158.313263 
L 254.294885 157.660939 
L 257.541566 155.184548 
L 258.623793 154.557729 
L 259.70602 153.679847 
L 261.870474 152.224948 
L 264.034928 150.542149 
L 265.117155 149.979158 
L 266.199382 149.003091 
L 271.610517 145.287731 
L 272.692744 144.346923 
L 273.774971 143.662197 
L 274.857198 142.827939 
L 275.939425 142.284894 
L 277.021652 141.912869 
L 278.103879 140.548434 
L 279.186106 139.754197 
L 280.268333 139.098939 
L 281.35056 138.208704 
L 283.515014 136.908612 
L 284.597241 135.932287 
L 285.679468 135.118233 
L 286.761695 134.554341 
L 287.843922 133.577759 
L 291.090603 131.271616 
L 292.17283 130.48806 
L 294.337284 129.194402 
L 295.419511 128.216533 
L 297.583965 126.771671 
L 298.666192 125.856858 
L 308.406235 119.069686 
L 309.488462 118.171601 
L 319.228505 111.365256 
L 320.310732 110.402572 
L 330.050775 103.653105 
L 331.133002 102.681542 
L 338.708591 97.369988 
L 339.790818 96.517586 
L 340.873045 95.944943 
L 341.955272 94.958581 
L 344.119726 93.443329 
L 347.366407 91.143878 
L 348.448634 90.93541 
L 349.530861 89.632743 
L 351.695315 88.201007 
L 352.777542 87.301764 
L 353.859769 86.635311 
L 356.024223 85.065368 
L 358.188677 83.511768 
L 359.270904 83.158016 
L 360.353131 81.934104 
L 361.435358 81.084147 
L 362.517585 80.413705 
L 363.599812 79.549335 
L 364.682039 78.926634 
L 365.764266 78.002813 
L 369.010947 75.776711 
L 370.093174 75.441618 
L 371.1754 74.147702 
L 375.504308 71.076663 
L 377.668762 69.509937 
L 378.750989 68.846314 
L 379.833216 68.036121 
L 380.915443 67.701157 
L 381.99767 66.466693 
L 384.162124 64.947451 
L 388.491032 61.819662 
L 390.655486 60.324613 
L 391.737713 60.007794 
L 392.81994 58.726103 
L 397.148848 55.642452 
L 398.231075 55.377234 
L 399.313302 54.068134 
L 400.395529 53.404383 
L 401.477756 52.570511 
L 402.559983 52.247386 
L 403.64221 51.022573 
L 405.806664 49.47618 
L 406.888891 48.652088 
L 409.053345 47.333723 
L 411.217799 45.565478 
L 412.300026 44.870714 
L 413.382253 44.526356 
L 414.46448 43.326894 
L 416.628934 41.752962 
L 418.793388 40.233978 
L 419.875615 39.979699 
L 420.957842 38.621955 
L 422.040069 37.960006 
L 423.122296 37.147753 
L 424.204523 36.796961 
L 425.28675 35.577811 
L 426.368977 34.823466 
L 426.368977 34.823466 
" clip-path="url(#p796a15a80a)" style="fill: none; stroke: #1f77b4; stroke-width: 1.5; stroke-linecap: square"/>
   </g>
   <g id="patch_3">
    <path d="M 53.65 297.435625 
L 53.65 22.318125 
" style="fill: none; stroke: #000000; stroke-width: 0.8; stroke-linejoin: miter; stroke-linecap: square"/>
   </g>
   <g id="patch_4">
    <path d="M 444.1175 297.435625 
L 444.1175 22.318125 
" style="fill: none; stroke: #000000; stroke-width: 0.8; stroke-linejoin: miter; stroke-linecap: square"/>
   </g>
   <g id="patch_5">
    <path d="M 53.65 297.435625 
L 444.1175 297.435625 
" style="fill: none; stroke: #000000; stroke-width: 0.8; stroke-linejoin: miter; stroke-linecap: square"/>
   </g>
   <g id="patch_6">
    <path d="M 53.65 22.318125 
L 444.1175 22.318125 
" style="fill: none; stroke: #000000; stroke-width: 0.8; stroke-linejoin: miter; stroke-linecap: square"/>
   </g>
   <g id="text_19">
    <!-- obsd_cpos vs index -->
    <g transform="translate(190.656563 16.318125) scale(0.12 -0.12)">
     <defs>
      <path id="DejaVuSans-76" d="M 191 3500 
L 800 3500 
L 1894 563 
L 2988 3500 
L 3597 3500 
L 2284 0 
L 1503 0 
L 191 3500 
z
" transform="scale(0.015625)"/>
     </defs>
     <use xlink:href="#DejaVuSans-6f"/>
     <use xlink:href="#DejaVuSans-62" transform="translate(61.181641 0)"/>
     <use xlink:href="#DejaVuSans-73" transform="translate(124.658203 0)"/>
     <use xlink:href="#DejaVuSans-64" transform="translate(176.757812 0)"/>
     <use xlink:href="#DejaVuSans-5f" transform="translate(240.234375 0)"/>
     <use xlink:href="#DejaVuSans-63" transform="translate(290.234375 0)"/>
     <use xlink:href="#DejaVuSans-70" transform="translate(345.214844 0)"/>
     <use xlink:href="#DejaVuSans-6f" transform="translate(408.691406 0)"/>
     <use xlink:href="#DejaVuSans-73" transform="translate(469.873047 0)"/>
     <use xlink:href="#DejaVuSans-20" transform="translate(521.972656 0)"/>
     <use xlink:href="#DejaVuSans-76" transform="translate(553.759766 0)"/>
     <use xlink:href="#DejaVuSans-73" transform="translate(612.939453 0)"/>
     <use xlink:href="#DejaVuSans-20" transform="translate(665.039062 0)"/>
     <use xlink:href="#DejaVuSans-69" transform="translate(696.826172 0)"/>
     <use xlink:href="#DejaVuSans-6e" transform="translate(724.609375 0)"/>
     <use xlink:href="#DejaVuSans-64" transform="translate(787.988281 0)"/>
     <use xlink:href="#DejaVuSans-65" transform="translate(851.464844 0)"/>
     <use xlink:href="#DejaVuSans-78" transform="translate(911.238281 0)"/>
    </g>
   </g>
   <g id="legend_1">
    <g id="patch_7">
     <path d="M 60.65 45.274375 
L 189.695313 45.274375 
Q 191.695313 45.274375 191.695313 43.274375 
L 191.695313 29.318125 
Q 191.695313 27.318125 189.695313 27.318125 
L 60.65 27.318125 
Q 58.65 27.318125 58.65 29.318125 
L 58.65 43.274375 
Q 58.65 45.274375 60.65 45.274375 
z
" style="fill: #ffffff; opacity: 0.8; stroke: #cccccc; stroke-linejoin: miter"/>
    </g>
    <g id="line2d_34">
     <path d="M 62.65 35.416562 
L 72.65 35.416562 
L 82.65 35.416562 
" style="fill: none; stroke: #1f77b4; stroke-width: 1.5; stroke-linecap: square"/>
    </g>
    <g id="text_20">
     <!-- obsd_cpos vs index -->
     <g transform="translate(90.65 38.916562) scale(0.1 -0.1)">
      <use xlink:href="#DejaVuSans-6f"/>
      <use xlink:href="#DejaVuSans-62" transform="translate(61.181641 0)"/>
      <use xlink:href="#DejaVuSans-73" transform="translate(124.658203 0)"/>
      <use xlink:href="#DejaVuSans-64" transform="translate(176.757812 0)"/>
      <use xlink:href="#DejaVuSans-5f" transform="translate(240.234375 0)"/>
      <use xlink:href="#DejaVuSans-63" transform="translate(290.234375 0)"/>
      <use xlink:href="#DejaVuSans-70" transform="translate(345.214844 0)"/>
      <use xlink:href="#DejaVuSans-6f" transform="translate(408.691406 0)"/>
      <use xlink:href="#DejaVuSans-73" transform="translate(469.873047 0)"/>
      <use xlink:href="#DejaVuSans-20" transform="translate(521.972656 0)"/>
      <use xlink:href="#DejaVuSans-76" transform="translate(553.759766 0)"/>
      <use xlink:href="#DejaVuSans-73" transform="translate(612.939453 0)"/>
      <use xlink:href="#DejaVuSans-20" transform="translate(665.039062 0)"/>
      <use xlink:href="#DejaVuSans-69" transform="translate(696.826172 0)"/>
      <use xlink:href="#DejaVuSans-6e" transform="translate(724.609375 0)"/>
      <use xlink:href="#DejaVuSans-64" transform="translate(787.988281 0)"/>
      <use xlink:href="#DejaVuSans-65" transform="translate(851.464844 0)"/>
      <use xlink:href="#DejaVuSans-78" transform="translate(911.238281 0)"/>
     </g>
    </g>
   </g>
  </g>
 </g>
 <defs>
  <clipPath id="p796a15a80a">
   <rect x="53.65" y="22.318125" width="390.4675" height="275.1175"/>
  </clipPath>
 </defs>
</svg>
