<?xml version="1.0" encoding="utf-8" standalone="no"?>
<!DOCTYPE svg PUBLIC "-//W3C//DTD SVG 1.1//EN"
  "http://www.w3.org/Graphics/SVG/1.1/DTD/svg11.dtd">
<svg xmlns:xlink="http://www.w3.org/1999/xlink" width="453.143125pt" height="337.354375pt" viewBox="0 0 453.143125 337.354375" xmlns="http://www.w3.org/2000/svg" version="1.1">
 <metadata>
  <rdf:RDF xmlns:dc="http://purl.org/dc/elements/1.1/" xmlns:cc="http://creativecommons.org/ns#" xmlns:rdf="http://www.w3.org/1999/02/22-rdf-syntax-ns#">
   <cc:Work>
    <dc:type rdf:resource="http://purl.org/dc/dcmitype/StillImage"/>
    <dc:date>2025-10-29T20:34:09.306006</dc:date>
    <dc:format>image/svg+xml</dc:format>
    <dc:creator>
     <cc:Agent>
      <dc:title>Matplotlib v3.10.6, https://matplotlib.org/</dc:title>
     </cc:Agent>
    </dc:creator>
   </cc:Work>
  </rdf:RDF>
 </metadata>
 <defs>
  <style type="text/css">*{stroke-linejoin: round; stroke-linecap: butt}</style>
 </defs>
 <g id="figure_1">
  <g id="patch_1">
   <path d="M 0 337.354375 
L 453.143125 337.354375 
L 453.143125 0 
L 0 0 
z
" style="fill: #ffffff"/>
  </g>
  <g id="axes_1">
   <g id="patch_2">
    <path d="M 40.603125 299.798125 
L 445.943125 299.798125 
L 445.943125 22.318125 
L 40.603125 22.318125 
z
" style="fill: #ffffff"/>
   </g>
   <g id="matplotlib.axis_1">
    <g id="xtick_1">
     <g id="line2d_1">
      <defs>
       <path id="m592e6149d0" d="M 0 0 
L 0 3.5 
" style="stroke: #000000; stroke-width: 0.8"/>
      </defs>
      <g>
       <use xlink:href="#m592e6149d0" x="58.816182" y="299.798125" style="stroke: #000000; stroke-width: 0.8"/>
      </g>
     </g>
     <g id="text_1">
      <!-- 0.00 -->
      <g transform="translate(47.683369 314.396563) scale(0.1 -0.1)">
       <defs>
        <path id="DejaVuSans-30" d="M 2034 4250 
Q 1547 4250 1301 3770 
Q 1056 3291 1056 2328 
Q 1056 1369 1301 889 
Q 1547 409 2034 409 
Q 2525 409 2770 889 
Q 3016 1369 3016 2328 
Q 3016 3291 2770 3770 
Q 2525 4250 2034 4250 
z
M 2034 4750 
Q 2819 4750 3233 4129 
Q 3647 3509 3647 2328 
Q 3647 1150 3233 529 
Q 2819 -91 2034 -91 
Q 1250 -91 836 529 
Q 422 1150 422 2328 
Q 422 3509 836 4129 
Q 1250 4750 2034 4750 
z
" transform="scale(0.015625)"/>
        <path id="DejaVuSans-2e" d="M 684 794 
L 1344 794 
L 1344 0 
L 684 0 
L 684 794 
z
" transform="scale(0.015625)"/>
       </defs>
       <use xlink:href="#DejaVuSans-30"/>
       <use xlink:href="#DejaVuSans-2e" transform="translate(63.623047 0)"/>
       <use xlink:href="#DejaVuSans-30" transform="translate(95.410156 0)"/>
       <use xlink:href="#DejaVuSans-30" transform="translate(159.033203 0)"/>
      </g>
     </g>
    </g>
    <g id="xtick_2">
     <g id="line2d_2">
      <g>
       <use xlink:href="#m592e6149d0" x="104.952471" y="299.798125" style="stroke: #000000; stroke-width: 0.8"/>
      </g>
     </g>
     <g id="text_2">
      <!-- 0.25 -->
      <g transform="translate(93.819658 314.396563) scale(0.1 -0.1)">
       <defs>
        <path id="DejaVuSans-32" d="M 1228 531 
L 3431 531 
L 3431 0 
L 469 0 
L 469 531 
Q 828 903 1448 1529 
Q 2069 2156 2228 2338 
Q 2531 2678 2651 2914 
Q 2772 3150 2772 3378 
Q 2772 3750 2511 3984 
Q 2250 4219 1831 4219 
Q 1534 4219 1204 4116 
Q 875 4013 500 3803 
L 500 4441 
Q 881 4594 1212 4672 
Q 1544 4750 1819 4750 
Q 2544 4750 2975 4387 
Q 3406 4025 3406 3419 
Q 3406 3131 3298 2873 
Q 3191 2616 2906 2266 
Q 2828 2175 2409 1742 
Q 1991 1309 1228 531 
z
" transform="scale(0.015625)"/>
        <path id="DejaVuSans-35" d="M 691 4666 
L 3169 4666 
L 3169 4134 
L 1269 4134 
L 1269 2991 
Q 1406 3038 1543 3061 
Q 1681 3084 1819 3084 
Q 2600 3084 3056 2656 
Q 3513 2228 3513 1497 
Q 3513 744 3044 326 
Q 2575 -91 1722 -91 
Q 1428 -91 1123 -41 
Q 819 9 494 109 
L 494 744 
Q 775 591 1075 516 
Q 1375 441 1709 441 
Q 2250 441 2565 725 
Q 2881 1009 2881 1497 
Q 2881 1984 2565 2268 
Q 2250 2553 1709 2553 
Q 1456 2553 1204 2497 
Q 953 2441 691 2322 
L 691 4666 
z
" transform="scale(0.015625)"/>
       </defs>
       <use xlink:href="#DejaVuSans-30"/>
       <use xlink:href="#DejaVuSans-2e" transform="translate(63.623047 0)"/>
       <use xlink:href="#DejaVuSans-32" transform="translate(95.410156 0)"/>
       <use xlink:href="#DejaVuSans-35" transform="translate(159.033203 0)"/>
      </g>
     </g>
    </g>
    <g id="xtick_3">
     <g id="line2d_3">
      <g>
       <use xlink:href="#m592e6149d0" x="151.08876" y="299.798125" style="stroke: #000000; stroke-width: 0.8"/>
      </g>
     </g>
     <g id="text_3">
      <!-- 0.50 -->
      <g transform="translate(139.955947 314.396563) scale(0.1 -0.1)">
       <use xlink:href="#DejaVuSans-30"/>
       <use xlink:href="#DejaVuSans-2e" transform="translate(63.623047 0)"/>
       <use xlink:href="#DejaVuSans-35" transform="translate(95.410156 0)"/>
       <use xlink:href="#DejaVuSans-30" transform="translate(159.033203 0)"/>
      </g>
     </g>
    </g>
    <g id="xtick_4">
     <g id="line2d_4">
      <g>
       <use xlink:href="#m592e6149d0" x="197.225049" y="299.798125" style="stroke: #000000; stroke-width: 0.8"/>
      </g>
     </g>
     <g id="text_4">
      <!-- 0.75 -->
      <g transform="translate(186.092236 314.396563) scale(0.1 -0.1)">
       <defs>
        <path id="DejaVuSans-37" d="M 525 4666 
L 3525 4666 
L 3525 4397 
L 1831 0 
L 1172 0 
L 2766 4134 
L 525 4134 
L 525 4666 
z
" transform="scale(0.015625)"/>
       </defs>
       <use xlink:href="#DejaVuSans-30"/>
       <use xlink:href="#DejaVuSans-2e" transform="translate(63.623047 0)"/>
       <use xlink:href="#DejaVuSans-37" transform="translate(95.410156 0)"/>
       <use xlink:href="#DejaVuSans-35" transform="translate(159.033203 0)"/>
      </g>
     </g>
    </g>
    <g id="xtick_5">
     <g id="line2d_5">
      <g>
       <use xlink:href="#m592e6149d0" x="243.361338" y="299.798125" style="stroke: #000000; stroke-width: 0.8"/>
      </g>
     </g>
     <g id="text_5">
      <!-- 1.00 -->
      <g transform="translate(232.228525 314.396563) scale(0.1 -0.1)">
       <defs>
        <path id="DejaVuSans-31" d="M 794 531 
L 1825 531 
L 1825 4091 
L 703 3866 
L 703 4441 
L 1819 4666 
L 2450 4666 
L 2450 531 
L 3481 531 
L 3481 0 
L 794 0 
L 794 531 
z
" transform="scale(0.015625)"/>
       </defs>
       <use xlink:href="#DejaVuSans-31"/>
       <use xlink:href="#DejaVuSans-2e" transform="translate(63.623047 0)"/>
       <use xlink:href="#DejaVuSans-30" transform="translate(95.410156 0)"/>
       <use xlink:href="#DejaVuSans-30" transform="translate(159.033203 0)"/>
      </g>
     </g>
    </g>
    <g id="xtick_6">
     <g id="line2d_6">
      <g>
       <use xlink:href="#m592e6149d0" x="289.497627" y="299.798125" style="stroke: #000000; stroke-width: 0.8"/>
      </g>
     </g>
     <g id="text_6">
      <!-- 1.25 -->
      <g transform="translate(278.364814 314.396563) scale(0.1 -0.1)">
       <use xlink:href="#DejaVuSans-31"/>
       <use xlink:href="#DejaVuSans-2e" transform="translate(63.623047 0)"/>
       <use xlink:href="#DejaVuSans-32" transform="translate(95.410156 0)"/>
       <use xlink:href="#DejaVuSans-35" transform="translate(159.033203 0)"/>
      </g>
     </g>
    </g>
    <g id="xtick_7">
     <g id="line2d_7">
      <g>
       <use xlink:href="#m592e6149d0" x="335.633916" y="299.798125" style="stroke: #000000; stroke-width: 0.8"/>
      </g>
     </g>
     <g id="text_7">
      <!-- 1.50 -->
      <g transform="translate(324.501103 314.396563) scale(0.1 -0.1)">
       <use xlink:href="#DejaVuSans-31"/>
       <use xlink:href="#DejaVuSans-2e" transform="translate(63.623047 0)"/>
       <use xlink:href="#DejaVuSans-35" transform="translate(95.410156 0)"/>
       <use xlink:href="#DejaVuSans-30" transform="translate(159.033203 0)"/>
      </g>
     </g>
    </g>
    <g id="xtick_8">
     <g id="line2d_8">
      <g>
       <use xlink:href="#m592e6149d0" x="381.770204" y="299.798125" style="stroke: #000000; stroke-width: 0.8"/>
      </g>
     </g>
     <g id="text_8">
      <!-- 1.75 -->
      <g transform="translate(370.637392 314.396563) scale(0.1 -0.1)">
       <use xlink:href="#DejaVuSans-31"/>
       <use xlink:href="#DejaVuSans-2e" transform="translate(63.623047 0)"/>
       <use xlink:href="#DejaVuSans-37" transform="translate(95.410156 0)"/>
       <use xlink:href="#DejaVuSans-35" transform="translate(159.033203 0)"/>
      </g>
     </g>
    </g>
    <g id="xtick_9">
     <g id="line2d_9">
      <g>
       <use xlink:href="#m592e6149d0" x="427.906493" y="299.798125" style="stroke: #000000; stroke-width: 0.8"/>
      </g>
     </g>
     <g id="text_9">
      <!-- 2.00 -->
      <g transform="translate(416.773681 314.396563) scale(0.1 -0.1)">
       <use xlink:href="#DejaVuSans-32"/>
       <use xlink:href="#DejaVuSans-2e" transform="translate(63.623047 0)"/>
       <use xlink:href="#DejaVuSans-30" transform="translate(95.410156 0)"/>
       <use xlink:href="#DejaVuSans-30" transform="translate(159.033203 0)"/>
      </g>
     </g>
    </g>
    <g id="text_10">
     <!-- time, t (us) -->
     <g transform="translate(215.574688 328.074688) scale(0.1 -0.1)">
      <defs>
       <path id="DejaVuSans-74" d="M 1172 4494 
L 1172 3500 
L 2356 3500 
L 2356 3053 
L 1172 3053 
L 1172 1153 
Q 1172 725 1289 603 
Q 1406 481 1766 481 
L 2356 481 
L 2356 0 
L 1766 0 
Q 1100 0 847 248 
Q 594 497 594 1153 
L 594 3053 
L 172 3053 
L 172 3500 
L 594 3500 
L 594 4494 
L 1172 4494 
z
" transform="scale(0.015625)"/>
       <path id="DejaVuSans-69" d="M 603 3500 
L 1178 3500 
L 1178 0 
L 603 0 
L 603 3500 
z
M 603 4863 
L 1178 4863 
L 1178 4134 
L 603 4134 
L 603 4863 
z
" transform="scale(0.015625)"/>
       <path id="DejaVuSans-6d" d="M 3328 2828 
Q 3544 3216 3844 3400 
Q 4144 3584 4550 3584 
Q 5097 3584 5394 3201 
Q 5691 2819 5691 2113 
L 5691 0 
L 5113 0 
L 5113 2094 
Q 5113 2597 4934 2840 
Q 4756 3084 4391 3084 
Q 3944 3084 3684 2787 
Q 3425 2491 3425 1978 
L 3425 0 
L 2847 0 
L 2847 2094 
Q 2847 2600 2669 2842 
Q 2491 3084 2119 3084 
Q 1678 3084 1418 2786 
Q 1159 2488 1159 1978 
L 1159 0 
L 581 0 
L 581 3500 
L 1159 3500 
L 1159 2956 
Q 1356 3278 1631 3431 
Q 1906 3584 2284 3584 
Q 2666 3584 2933 3390 
Q 3200 3197 3328 2828 
z
" transform="scale(0.015625)"/>
       <path id="DejaVuSans-65" d="M 3597 1894 
L 3597 1613 
L 953 1613 
Q 991 1019 1311 708 
Q 1631 397 2203 397 
Q 2534 397 2845 478 
Q 3156 559 3463 722 
L 3463 178 
Q 3153 47 2828 -22 
Q 2503 -91 2169 -91 
Q 1331 -91 842 396 
Q 353 884 353 1716 
Q 353 2575 817 3079 
Q 1281 3584 2069 3584 
Q 2775 3584 3186 3129 
Q 3597 2675 3597 1894 
z
M 3022 2063 
Q 3016 2534 2758 2815 
Q 2500 3097 2075 3097 
Q 1594 3097 1305 2825 
Q 1016 2553 972 2059 
L 3022 2063 
z
" transform="scale(0.015625)"/>
       <path id="DejaVuSans-2c" d="M 750 794 
L 1409 794 
L 1409 256 
L 897 -744 
L 494 -744 
L 750 256 
L 750 794 
z
" transform="scale(0.015625)"/>
       <path id="DejaVuSans-20" transform="scale(0.015625)"/>
       <path id="DejaVuSans-28" d="M 1984 4856 
Q 1566 4138 1362 3434 
Q 1159 2731 1159 2009 
Q 1159 1288 1364 580 
Q 1569 -128 1984 -844 
L 1484 -844 
Q 1016 -109 783 600 
Q 550 1309 550 2009 
Q 550 2706 781 3412 
Q 1013 4119 1484 4856 
L 1984 4856 
z
" transform="scale(0.015625)"/>
       <path id="DejaVuSans-75" d="M 544 1381 
L 544 3500 
L 1119 3500 
L 1119 1403 
Q 1119 906 1312 657 
Q 1506 409 1894 409 
Q 2359 409 2629 706 
Q 2900 1003 2900 1516 
L 2900 3500 
L 3475 3500 
L 3475 0 
L 2900 0 
L 2900 538 
Q 2691 219 2414 64 
Q 2138 -91 1772 -91 
Q 1169 -91 856 284 
Q 544 659 544 1381 
z
M 1991 3584 
L 1991 3584 
z
" transform="scale(0.015625)"/>
       <path id="DejaVuSans-73" d="M 2834 3397 
L 2834 2853 
Q 2591 2978 2328 3040 
Q 2066 3103 1784 3103 
Q 1356 3103 1142 2972 
Q 928 2841 928 2578 
Q 928 2378 1081 2264 
Q 1234 2150 1697 2047 
L 1894 2003 
Q 2506 1872 2764 1633 
Q 3022 1394 3022 966 
Q 3022 478 2636 193 
Q 2250 -91 1575 -91 
Q 1294 -91 989 -36 
Q 684 19 347 128 
L 347 722 
Q 666 556 975 473 
Q 1284 391 1588 391 
Q 1994 391 2212 530 
Q 2431 669 2431 922 
Q 2431 1156 2273 1281 
Q 2116 1406 1581 1522 
L 1381 1569 
Q 847 1681 609 1914 
Q 372 2147 372 2553 
Q 372 3047 722 3315 
Q 1072 3584 1716 3584 
Q 2034 3584 2315 3537 
Q 2597 3491 2834 3397 
z
" transform="scale(0.015625)"/>
       <path id="DejaVuSans-29" d="M 513 4856 
L 1013 4856 
Q 1481 4119 1714 3412 
Q 1947 2706 1947 2009 
Q 1947 1309 1714 600 
Q 1481 -109 1013 -844 
L 513 -844 
Q 928 -128 1133 580 
Q 1338 1288 1338 2009 
Q 1338 2731 1133 3434 
Q 928 4138 513 4856 
z
" transform="scale(0.015625)"/>
      </defs>
      <use xlink:href="#DejaVuSans-74"/>
      <use xlink:href="#DejaVuSans-69" transform="translate(39.208984 0)"/>
      <use xlink:href="#DejaVuSans-6d" transform="translate(66.992188 0)"/>
      <use xlink:href="#DejaVuSans-65" transform="translate(164.404297 0)"/>
      <use xlink:href="#DejaVuSans-2c" transform="translate(225.927734 0)"/>
      <use xlink:href="#DejaVuSans-20" transform="translate(257.714844 0)"/>
      <use xlink:href="#DejaVuSans-74" transform="translate(289.501953 0)"/>
      <use xlink:href="#DejaVuSans-20" transform="translate(328.710938 0)"/>
      <use xlink:href="#DejaVuSans-28" transform="translate(360.498047 0)"/>
      <use xlink:href="#DejaVuSans-75" transform="translate(399.511719 0)"/>
      <use xlink:href="#DejaVuSans-73" transform="translate(462.890625 0)"/>
      <use xlink:href="#DejaVuSans-29" transform="translate(514.990234 0)"/>
     </g>
    </g>
    <g id="text_11">
     <!-- 1e6 -->
     <g transform="translate(427.065 327.074688) scale(0.1 -0.1)">
      <defs>
       <path id="DejaVuSans-36" d="M 2113 2584 
Q 1688 2584 1439 2293 
Q 1191 2003 1191 1497 
Q 1191 994 1439 701 
Q 1688 409 2113 409 
Q 2538 409 2786 701 
Q 3034 994 3034 1497 
Q 3034 2003 2786 2293 
Q 2538 2584 2113 2584 
z
M 3366 4563 
L 3366 3988 
Q 3128 4100 2886 4159 
Q 2644 4219 2406 4219 
Q 1781 4219 1451 3797 
Q 1122 3375 1075 2522 
Q 1259 2794 1537 2939 
Q 1816 3084 2150 3084 
Q 2853 3084 3261 2657 
Q 3669 2231 3669 1497 
Q 3669 778 3244 343 
Q 2819 -91 2113 -91 
Q 1303 -91 875 529 
Q 447 1150 447 2328 
Q 447 3434 972 4092 
Q 1497 4750 2381 4750 
Q 2619 4750 2861 4703 
Q 3103 4656 3366 4563 
z
" transform="scale(0.015625)"/>
      </defs>
      <use xlink:href="#DejaVuSans-31"/>
      <use xlink:href="#DejaVuSans-65" transform="translate(63.623047 0)"/>
      <use xlink:href="#DejaVuSans-36" transform="translate(125.146484 0)"/>
     </g>
    </g>
   </g>
   <g id="matplotlib.axis_2">
    <g id="ytick_1">
     <g id="line2d_10">
      <defs>
       <path id="m4851232835" d="M 0 0 
L -3.5 0 
" style="stroke: #000000; stroke-width: 0.8"/>
      </defs>
      <g>
       <use xlink:href="#m4851232835" x="40.603125" y="287.185398" style="stroke: #000000; stroke-width: 0.8"/>
      </g>
     </g>
     <g id="text_12">
      <!-- 0 -->
      <g transform="translate(27.240625 290.984616) scale(0.1 -0.1)">
       <use xlink:href="#DejaVuSans-30"/>
      </g>
     </g>
    </g>
    <g id="ytick_2">
     <g id="line2d_11">
      <g>
       <use xlink:href="#m4851232835" x="40.603125" y="251.07142" style="stroke: #000000; stroke-width: 0.8"/>
      </g>
     </g>
     <g id="text_13">
      <!-- 5 -->
      <g transform="translate(27.240625 254.870639) scale(0.1 -0.1)">
       <use xlink:href="#DejaVuSans-35"/>
      </g>
     </g>
    </g>
    <g id="ytick_3">
     <g id="line2d_12">
      <g>
       <use xlink:href="#m4851232835" x="40.603125" y="214.957442" style="stroke: #000000; stroke-width: 0.8"/>
      </g>
     </g>
     <g id="text_14">
      <!-- 10 -->
      <g transform="translate(20.878125 218.756661) scale(0.1 -0.1)">
       <use xlink:href="#DejaVuSans-31"/>
       <use xlink:href="#DejaVuSans-30" transform="translate(63.623047 0)"/>
      </g>
     </g>
    </g>
    <g id="ytick_4">
     <g id="line2d_13">
      <g>
       <use xlink:href="#m4851232835" x="40.603125" y="178.843465" style="stroke: #000000; stroke-width: 0.8"/>
      </g>
     </g>
     <g id="text_15">
      <!-- 15 -->
      <g transform="translate(20.878125 182.642683) scale(0.1 -0.1)">
       <use xlink:href="#DejaVuSans-31"/>
       <use xlink:href="#DejaVuSans-35" transform="translate(63.623047 0)"/>
      </g>
     </g>
    </g>
    <g id="ytick_5">
     <g id="line2d_14">
      <g>
       <use xlink:href="#m4851232835" x="40.603125" y="142.729487" style="stroke: #000000; stroke-width: 0.8"/>
      </g>
     </g>
     <g id="text_16">
      <!-- 20 -->
      <g transform="translate(20.878125 146.528706) scale(0.1 -0.1)">
       <use xlink:href="#DejaVuSans-32"/>
       <use xlink:href="#DejaVuSans-30" transform="translate(63.623047 0)"/>
      </g>
     </g>
    </g>
    <g id="ytick_6">
     <g id="line2d_15">
      <g>
       <use xlink:href="#m4851232835" x="40.603125" y="106.615509" style="stroke: #000000; stroke-width: 0.8"/>
      </g>
     </g>
     <g id="text_17">
      <!-- 25 -->
      <g transform="translate(20.878125 110.414728) scale(0.1 -0.1)">
       <use xlink:href="#DejaVuSans-32"/>
       <use xlink:href="#DejaVuSans-35" transform="translate(63.623047 0)"/>
      </g>
     </g>
    </g>
    <g id="ytick_7">
     <g id="line2d_16">
      <g>
       <use xlink:href="#m4851232835" x="40.603125" y="70.501531" style="stroke: #000000; stroke-width: 0.8"/>
      </g>
     </g>
     <g id="text_18">
      <!-- 30 -->
      <g transform="translate(20.878125 74.30075) scale(0.1 -0.1)">
       <defs>
        <path id="DejaVuSans-33" d="M 2597 2516 
Q 3050 2419 3304 2112 
Q 3559 1806 3559 1356 
Q 3559 666 3084 287 
Q 2609 -91 1734 -91 
Q 1441 -91 1130 -33 
Q 819 25 488 141 
L 488 750 
Q 750 597 1062 519 
Q 1375 441 1716 441 
Q 2309 441 2620 675 
Q 2931 909 2931 1356 
Q 2931 1769 2642 2001 
Q 2353 2234 1838 2234 
L 1294 2234 
L 1294 2753 
L 1863 2753 
Q 2328 2753 2575 2939 
Q 2822 3125 2822 3475 
Q 2822 3834 2567 4026 
Q 2313 4219 1838 4219 
Q 1578 4219 1281 4162 
Q 984 4106 628 3988 
L 628 4550 
Q 988 4650 1302 4700 
Q 1616 4750 1894 4750 
Q 2613 4750 3031 4423 
Q 3450 4097 3450 3541 
Q 3450 3153 3228 2886 
Q 3006 2619 2597 2516 
z
" transform="scale(0.015625)"/>
       </defs>
       <use xlink:href="#DejaVuSans-33"/>
       <use xlink:href="#DejaVuSans-30" transform="translate(63.623047 0)"/>
      </g>
     </g>
    </g>
    <g id="ytick_8">
     <g id="line2d_17">
      <g>
       <use xlink:href="#m4851232835" x="40.603125" y="34.387554" style="stroke: #000000; stroke-width: 0.8"/>
      </g>
     </g>
     <g id="text_19">
      <!-- 35 -->
      <g transform="translate(20.878125 38.186772) scale(0.1 -0.1)">
       <use xlink:href="#DejaVuSans-33"/>
       <use xlink:href="#DejaVuSans-35" transform="translate(63.623047 0)"/>
      </g>
     </g>
    </g>
    <g id="text_20">
     <!-- left wheel theta, ltheta (rad) -->
     <g transform="translate(14.798438 231.945625) rotate(-90) scale(0.1 -0.1)">
      <defs>
       <path id="DejaVuSans-6c" d="M 603 4863 
L 1178 4863 
L 1178 0 
L 603 0 
L 603 4863 
z
" transform="scale(0.015625)"/>
       <path id="DejaVuSans-66" d="M 2375 4863 
L 2375 4384 
L 1825 4384 
Q 1516 4384 1395 4259 
Q 1275 4134 1275 3809 
L 1275 3500 
L 2222 3500 
L 2222 3053 
L 1275 3053 
L 1275 0 
L 697 0 
L 697 3053 
L 147 3053 
L 147 3500 
L 697 3500 
L 697 3744 
Q 697 4328 969 4595 
Q 1241 4863 1831 4863 
L 2375 4863 
z
" transform="scale(0.015625)"/>
       <path id="DejaVuSans-77" d="M 269 3500 
L 844 3500 
L 1563 769 
L 2278 3500 
L 2956 3500 
L 3675 769 
L 4391 3500 
L 4966 3500 
L 4050 0 
L 3372 0 
L 2619 2869 
L 1863 0 
L 1184 0 
L 269 3500 
z
" transform="scale(0.015625)"/>
       <path id="DejaVuSans-68" d="M 3513 2113 
L 3513 0 
L 2938 0 
L 2938 2094 
Q 2938 2591 2744 2837 
Q 2550 3084 2163 3084 
Q 1697 3084 1428 2787 
Q 1159 2491 1159 1978 
L 1159 0 
L 581 0 
L 581 4863 
L 1159 4863 
L 1159 2956 
Q 1366 3272 1645 3428 
Q 1925 3584 2291 3584 
Q 2894 3584 3203 3211 
Q 3513 2838 3513 2113 
z
" transform="scale(0.015625)"/>
       <path id="DejaVuSans-61" d="M 2194 1759 
Q 1497 1759 1228 1600 
Q 959 1441 959 1056 
Q 959 750 1161 570 
Q 1363 391 1709 391 
Q 2188 391 2477 730 
Q 2766 1069 2766 1631 
L 2766 1759 
L 2194 1759 
z
M 3341 1997 
L 3341 0 
L 2766 0 
L 2766 531 
Q 2569 213 2275 61 
Q 1981 -91 1556 -91 
Q 1019 -91 701 211 
Q 384 513 384 1019 
Q 384 1609 779 1909 
Q 1175 2209 1959 2209 
L 2766 2209 
L 2766 2266 
Q 2766 2663 2505 2880 
Q 2244 3097 1772 3097 
Q 1472 3097 1187 3025 
Q 903 2953 641 2809 
L 641 3341 
Q 956 3463 1253 3523 
Q 1550 3584 1831 3584 
Q 2591 3584 2966 3190 
Q 3341 2797 3341 1997 
z
" transform="scale(0.015625)"/>
       <path id="DejaVuSans-72" d="M 2631 2963 
Q 2534 3019 2420 3045 
Q 2306 3072 2169 3072 
Q 1681 3072 1420 2755 
Q 1159 2438 1159 1844 
L 1159 0 
L 581 0 
L 581 3500 
L 1159 3500 
L 1159 2956 
Q 1341 3275 1631 3429 
Q 1922 3584 2338 3584 
Q 2397 3584 2469 3576 
Q 2541 3569 2628 3553 
L 2631 2963 
z
" transform="scale(0.015625)"/>
       <path id="DejaVuSans-64" d="M 2906 2969 
L 2906 4863 
L 3481 4863 
L 3481 0 
L 2906 0 
L 2906 525 
Q 2725 213 2448 61 
Q 2172 -91 1784 -91 
Q 1150 -91 751 415 
Q 353 922 353 1747 
Q 353 2572 751 3078 
Q 1150 3584 1784 3584 
Q 2172 3584 2448 3432 
Q 2725 3281 2906 2969 
z
M 947 1747 
Q 947 1113 1208 752 
Q 1469 391 1925 391 
Q 2381 391 2643 752 
Q 2906 1113 2906 1747 
Q 2906 2381 2643 2742 
Q 2381 3103 1925 3103 
Q 1469 3103 1208 2742 
Q 947 2381 947 1747 
z
" transform="scale(0.015625)"/>
      </defs>
      <use xlink:href="#DejaVuSans-6c"/>
      <use xlink:href="#DejaVuSans-65" transform="translate(27.783203 0)"/>
      <use xlink:href="#DejaVuSans-66" transform="translate(89.306641 0)"/>
      <use xlink:href="#DejaVuSans-74" transform="translate(122.761719 0)"/>
      <use xlink:href="#DejaVuSans-20" transform="translate(161.970703 0)"/>
      <use xlink:href="#DejaVuSans-77" transform="translate(193.757812 0)"/>
      <use xlink:href="#DejaVuSans-68" transform="translate(275.544922 0)"/>
      <use xlink:href="#DejaVuSans-65" transform="translate(338.923828 0)"/>
      <use xlink:href="#DejaVuSans-65" transform="translate(400.447266 0)"/>
      <use xlink:href="#DejaVuSans-6c" transform="translate(461.970703 0)"/>
      <use xlink:href="#DejaVuSans-20" transform="translate(489.753906 0)"/>
      <use xlink:href="#DejaVuSans-74" transform="translate(521.541016 0)"/>
      <use xlink:href="#DejaVuSans-68" transform="translate(560.75 0)"/>
      <use xlink:href="#DejaVuSans-65" transform="translate(624.128906 0)"/>
      <use xlink:href="#DejaVuSans-74" transform="translate(685.652344 0)"/>
      <use xlink:href="#DejaVuSans-61" transform="translate(724.861328 0)"/>
      <use xlink:href="#DejaVuSans-2c" transform="translate(786.140625 0)"/>
      <use xlink:href="#DejaVuSans-20" transform="translate(817.927734 0)"/>
      <use xlink:href="#DejaVuSans-6c" transform="translate(849.714844 0)"/>
      <use xlink:href="#DejaVuSans-74" transform="translate(877.498047 0)"/>
      <use xlink:href="#DejaVuSans-68" transform="translate(916.707031 0)"/>
      <use xlink:href="#DejaVuSans-65" transform="translate(980.085938 0)"/>
      <use xlink:href="#DejaVuSans-74" transform="translate(1041.609375 0)"/>
      <use xlink:href="#DejaVuSans-61" transform="translate(1080.818359 0)"/>
      <use xlink:href="#DejaVuSans-20" transform="translate(1142.097656 0)"/>
      <use xlink:href="#DejaVuSans-28" transform="translate(1173.884766 0)"/>
      <use xlink:href="#DejaVuSans-72" transform="translate(1212.898438 0)"/>
      <use xlink:href="#DejaVuSans-61" transform="translate(1254.011719 0)"/>
      <use xlink:href="#DejaVuSans-64" transform="translate(1315.291016 0)"/>
      <use xlink:href="#DejaVuSans-29" transform="translate(1378.767578 0)"/>
     </g>
    </g>
   </g>
   <g id="line2d_18">
    <path d="M 59.028409 283.016946 
L 62.946118 282.259046 
L 66.074527 280.93272 
L 70.100933 278.50112 
L 74.093199 275.627415 
L 77.183223 273.227403 
L 81.179364 269.880006 
L 84.311833 267.227355 
L 88.342484 264.06944 
L 92.371658 260.974682 
L 95.496746 258.574662 
L 99.524444 255.511482 
L 102.655991 253.26936 
L 106.686272 250.427233 
L 110.71434 247.52195 
L 113.838504 245.216665 
L 117.866572 242.279804 
L 121.979899 239.342936 
L 125.025816 237.163978 
L 129.05333 234.353429 
L 133.160382 231.479724 
L 136.205931 229.332329 
L 140.319443 226.458625 
L 143.363884 224.3744 
L 147.392505 221.595437 
L 151.498634 218.816474 
L 154.543999 216.732249 
L 158.656772 213.953257 
L 162.683732 211.269049 
L 165.729465 209.216403 
L 169.818432 206.468996 
L 172.86435 204.41635 
L 176.963836 201.668943 
L 180.958869 199.016299 
L 184.003865 196.995289 
L 188.109072 194.216318 
L 192.13474 191.500475 
L 195.266102 189.416265 
L 199.291401 186.732057 
L 202.338057 184.710975 
L 206.428685 181.995131 
L 210.454722 179.310924 
L 213.586084 177.195078 
L 217.611198 174.542434 
L 221.635759 171.88979 
L 224.75937 169.80558 
L 228.768245 167.121373 
L 231.899792 165.068727 
L 235.926936 162.352883 
L 239.951866 159.668676 
L 243.075108 157.61603 
L 247.099669 154.963386 
L 254.312247 150.163332 
L 258.367811 147.479125 
L 261.52095 145.363279 
L 265.576699 142.647508 
L 269.716785 139.900101 
L 272.789462 137.847455 
L 276.843365 135.163247 
L 279.994105 133.047402 
L 284.047454 130.363194 
L 287.207052 128.247421 
L 291.26114 125.563141 
L 295.314305 122.878933 
L 298.465783 120.794723 
L 302.51821 118.047316 
L 305.676331 115.963107 
L 309.729127 113.278827 
L 313.780816 110.594619 
L 316.932109 108.478774 
L 320.984167 105.794566 
L 324.141735 103.710356 
L 328.194347 101.026076 
L 332.246589 98.278742 
L 335.39659 96.162896 
L 339.448464 93.478689 
L 342.593852 91.394479 
L 346.645356 88.678635 
L 350.697045 85.994428 
L 353.818442 83.910218 
L 357.869946 81.225938 
L 361.976076 78.478603 
L 365.048568 76.425957 
L 369.099519 73.741677 
L 372.23734 71.657468 
L 376.290136 68.941624 
L 380.41066 66.225853 
L 383.481492 64.20477 
L 387.532442 61.520563 
L 390.666388 59.436353 
L 394.717154 56.752073 
L 398.853734 53.973103 
L 401.908879 51.95202 
L 405.958907 49.204613 
L 409.093222 47.120403 
L 413.143804 44.436196 
L 417.264328 41.720352 
L 420.334975 39.667706 
L 424.385003 36.983499 
L 427.51858 34.930852 
" clip-path="url(#p69f1d6b0e3)" style="fill: none; stroke: #1f77b4; stroke-width: 1.5; stroke-linecap: square"/>
   </g>
   <g id="line2d_19">
    <path d="M 59.04594 287.185398 
L 61.992573 286.743289 
L 66.129706 285.038014 
L 69.283767 283.206421 
L 73.378086 280.332716 
L 77.560987 277.237954 
L 80.625359 275.122152 
L 84.721339 272.374759 
L 87.880567 270.353691 
L 91.978946 267.701047 
L 95.14611 265.679979 
L 99.244674 263.185218 
L 103.340469 260.753628 
L 106.498405 258.795716 
L 110.577776 256.206228 
L 113.743095 254.248316 
L 117.839443 251.753555 
L 120.919871 249.890385 
L 125.09539 247.395631 
L 129.190816 244.932455 
L 132.356688 243.037707 
L 136.450638 240.574531 
L 139.497109 238.774517 
L 143.671336 236.374497 
L 146.75121 234.606061 
L 150.934295 232.142885 
L 155.028799 229.774444 
L 158.107566 228.006007 
L 162.280316 225.637573 
L 165.342658 223.900715 
L 169.524267 221.532281 
L 172.587532 219.763844 
L 176.683327 217.426981 
L 180.856078 215.026962 
L 183.934106 213.258496 
L 188.113501 210.858506 
L 191.175658 209.090077 
L 195.269793 206.753213 
L 198.427729 204.984784 
L 202.522786 202.584793 
L 206.669885 200.184731 
L 209.747545 198.447865 
L 213.840387 196.142638 
L 216.996663 194.311009 
L 221.090428 191.974146 
L 224.255562 190.174153 
L 228.350435 187.805726 
L 232.443462 185.500426 
L 235.584051 183.700433 
L 239.675602 181.36357 
L 242.839075 179.595141 
L 246.933025 177.258278 
L 251.054287 174.889778 
L 254.24009 173.089786 
L 258.349726 170.752922 
L 261.541988 168.88973 
L 265.649041 166.584503 
L 268.756966 164.847637 
L 272.959059 162.416011 
L 276.066246 160.647581 
L 280.275167 158.279154 
L 283.382907 156.510725 
L 287.505646 154.110735 
L 290.691634 152.279106 
L 294.813819 149.942243 
L 299.019788 147.542252 
L 302.126236 145.773823 
L 306.247129 143.405324 
L 309.431825 141.573767 
L 313.551242 139.236904 
L 316.743689 137.436911 
L 320.864582 135.100048 
L 323.957374 133.363182 
L 328.15633 130.963119 
L 331.262964 129.163127 
L 335.470224 126.7947 
L 339.589087 124.457836 
L 342.694429 122.657844 
L 346.892462 120.257853 
L 349.996511 118.520987 
L 354.201742 116.120925 
L 357.307821 114.320932 
L 361.427607 111.984069 
L 364.596617 110.152512 
L 368.703116 107.847212 
L 371.894824 106.015584 
L 376.013872 103.647157 
L 380.131074 101.310294 
L 383.314663 99.478737 
L 387.416733 97.141874 
L 390.607334 95.341809 
L 394.72509 93.004945 
L 397.830616 91.236516 
L 402.027911 88.836526 
L 405.133252 87.068096 
L 409.338114 84.668106 
L 413.454024 82.331243 
L 416.558627 80.562813 
L 420.754077 78.162751 
L 423.84447 76.394321 
" clip-path="url(#p69f1d6b0e3)" style="fill: none; stroke: #ff7f0e; stroke-width: 1.5; stroke-linecap: square"/>
   </g>
   <g id="line2d_20">
    <path d="M 59.02767 283.838005 
L 62.954607 283.080104 
L 66.0044 281.753779 
L 70.125662 279.353764 
L 74.133799 276.827425 
L 77.239509 275.058996 
L 81.248014 272.911608 
L 85.287893 270.795806 
L 88.417778 269.185267 
L 92.457472 267.164199 
L 95.5964 265.585238 
L 99.639416 263.532591 
L 103.679109 261.385204 
L 106.792755 259.743087 
L 110.816208 257.658862 
L 113.936498 256.11148 
L 117.976376 254.090411 
L 122.015885 252.069343 
L 125.145402 250.52196 
L 129.183988 248.53247 
L 133.308572 246.479824 
L 136.343602 244.995604 
L 140.350077 243.069278 
L 143.480517 241.585058 
L 147.520764 239.627146 
L 151.645717 237.5745 
L 154.696987 236.121858 
L 158.734835 234.195532 
L 162.850561 232.237619 
L 165.885037 230.784978 
L 170.009252 228.827073 
L 173.060152 227.40601 
L 177.100399 225.448098 
L 181.217048 223.490193 
L 184.267949 222.037551 
L 188.39161 220.079639 
L 192.412295 218.153313 
L 195.446033 216.700664 
L 199.546258 214.711145 
L 202.581472 213.290132 
L 206.70661 211.332177 
L 210.744089 209.437421 
L 213.794435 207.984844 
L 217.909608 206.058453 
L 221.94561 204.132133 
L 225.08214 202.647921 
L 229.118512 200.721601 
L 232.169043 199.237389 
L 236.286245 197.279433 
L 240.306377 195.38475 
L 243.442537 193.900465 
L 247.477617 191.974146 
L 250.556569 190.489933 
L 254.701637 188.500487 
L 258.767352 186.605731 
L 261.932486 185.121518 
L 265.985097 183.195127 
L 269.063495 181.710914 
L 273.162243 179.753031 
L 277.227773 177.826712 
L 280.392353 176.342499 
L 284.457698 174.384544 
L 287.535912 172.900332 
L 291.679688 170.942448 
L 295.730455 169.047693 
L 298.894481 167.531917 
L 302.959827 165.573961 
L 306.022169 164.152948 
L 310.165023 162.194993 
L 314.213759 160.268673 
L 317.378709 158.752898 
L 321.443131 156.826578 
L 324.520237 155.373929 
L 328.662169 153.38441 
L 331.741858 151.900198 
L 335.892463 149.942315 
L 339.955779 148.047559 
L 342.985641 146.59491 
L 347.127757 144.605391 
L 350.20597 143.152743 
L 354.342734 141.163296 
L 358.404389 139.236976 
L 361.481126 137.784328 
L 365.622872 135.826372 
L 368.69924 134.34216 
L 372.847446 132.384277 
L 376.895629 130.489521 
L 379.972366 129.005309 
L 384.09695 127.047353 
L 387.159661 125.594704 
L 391.292735 123.605258 
L 395.353466 121.678938 
L 398.429834 120.226289 
L 402.56992 118.268334 
L 405.646103 116.815758 
L 409.793571 114.857802 
L 413.854487 112.899919 
L 416.931039 111.44727 
L 421.070018 109.457751 
L 424.146386 107.973539 
" clip-path="url(#p69f1d6b0e3)" style="fill: none; stroke: #2ca02c; stroke-width: 1.5; stroke-linecap: square"/>
   </g>
   <g id="line2d_21">
    <path d="M 59.02767 285.069592 
L 62.968079 284.311692 
L 66.023962 283.016945 
L 70.155559 281.027457 
L 74.207617 279.195866 
L 77.317756 277.901115 
L 81.368707 276.258998 
L 84.425882 274.964254 
L 88.55711 273.227403 
L 92.608614 271.490545 
L 95.751972 270.132637 
L 99.802184 268.427364 
L 102.84275 267.195777 
L 106.973056 265.490503 
L 111.008135 263.816801 
L 114.150386 262.553635 
L 118.200045 261.00626 
L 122.249519 259.395714 
L 125.38531 258.164126 
L 129.41836 256.585165 
L 132.561718 255.385155 
L 136.613222 253.83778 
L 140.66325 252.290397 
L 143.798119 251.090387 
L 147.847039 249.543004 
L 150.972681 248.311416 
L 159.055943 245.216651 
L 162.190812 244.016648 
L 166.239179 242.469266 
L 169.380875 241.269256 
L 173.430165 239.721873 
L 177.462846 238.17449 
L 180.59753 236.97448 
L 184.645897 235.427098 
L 187.787409 234.227088 
L 191.83633 232.679712 
L 195.868826 231.163908 
L 199.00351 229.995483 
L 203.051139 228.416522 
L 206.192282 227.216513 
L 210.240649 225.669137 
L 214.272592 224.153332 
L 217.406353 222.95333 
L 221.453613 221.374369 
L 225.586133 219.826986 
L 228.641093 218.658562 
L 232.687984 217.142757 
L 235.822483 215.974325 
L 239.855718 214.426928 
L 243.98916 212.847953 
L 247.073279 211.679593 
L 251.15062 210.132181 
L 254.313539 208.900623 
L 258.375378 207.384774 
L 261.546786 206.153216 
L 265.608994 204.637368 
L 269.684859 203.090028 
L 272.847409 201.890033 
L 276.924196 200.342621 
L 280.094313 199.142626 
L 284.1711 197.56365 
L 288.247149 196.016311 
L 291.410068 194.816316 
L 295.486301 193.268904 
L 298.656418 192.037345 
L 302.718626 190.521497 
L 306.793199 189.005721 
L 309.955564 187.77409 
L 314.03106 186.226751 
L 317.201176 185.026755 
L 321.276118 183.44778 
L 324.360975 182.279348 
L 328.503091 180.700373 
L 332.577663 179.153034 
L 335.747226 177.953038 
L 339.821614 176.405627 
L 342.904441 175.205631 
L 347.057814 173.626656 
L 350.142302 172.489788 
L 354.304164 170.910885 
L 358.377814 169.33191 
L 361.460641 168.163478 
L 365.613092 166.584503 
L 368.695734 165.416071 
L 372.855935 163.837168 
L 376.928847 162.289756 
L 380.011674 161.121324 
L 384.163571 159.573913 
L 387.230157 158.405481 
L 391.389436 156.826578 
L 394.472817 155.658146 
L 398.546466 154.110735 
L 402.697625 152.500196 
L 405.779714 151.331764 
L 409.938993 149.752861 
L 413.020528 148.584429 
L 417.092886 147.037018 
L 420.254698 145.837022 
L 424.327794 144.289611 
" clip-path="url(#p69f1d6b0e3)" style="fill: none; stroke: #d62728; stroke-width: 1.5; stroke-linecap: square"/>
   </g>
   <g id="line2d_22">
    <path d="M 59.028224 286.048547 
L 62.982104 285.290647 
L 66.131367 284.059059 
L 70.195421 282.543258 
L 73.259424 281.627462 
L 77.403385 280.522191 
L 81.49918 279.259022 
L 84.63165 278.185332 
L 88.693304 276.890581 
L 91.73996 275.974788 
L 95.866574 274.680045 
L 99.928598 273.385293 
L 103.077492 272.406337 
L 107.138777 271.17475 
L 110.200566 270.290535 
L 114.325335 269.058947 
L 118.387173 267.827359 
L 121.535145 266.91156 
L 125.595692 265.743135 
L 128.657665 264.890499 
L 132.798305 263.690489 
L 136.859959 262.522057 
L 140.008299 261.637843 
L 144.068293 260.437833 
L 147.129343 259.522033 
L 151.269798 258.353609 
L 155.299157 257.216755 
L 158.446206 256.300955 
L 162.50583 255.132531 
L 165.550456 254.248309 
L 169.690358 253.079877 
L 173.734849 251.943031 
L 176.882452 251.027231 
L 180.941707 249.858799 
L 184.003126 249.006163 
L 188.142105 247.806153 
L 192.201914 246.637721 
L 195.349332 245.721929 
L 199.391055 244.616653 
L 202.435866 243.764017 
L 206.573922 242.564007 
L 210.633361 241.395575 
L 213.780595 240.511361 
L 217.838189 239.342929 
L 220.898501 238.458714 
L 225.036926 237.258705 
L 229.095812 236.121851 
L 232.242307 235.237636 
L 236.299902 234.069205 
L 239.360214 233.184983 
L 243.49827 232.016559 
L 247.585945 230.848127 
L 250.762521 229.963905 
L 254.850565 228.763895 
L 257.939298 227.879681 
L 262.105774 226.711249 
L 265.196536 225.827035 
L 269.370947 224.627025 
L 273.457884 223.4586 
L 276.533698 222.605964 
L 280.684119 221.405954 
L 283.74314 220.521739 
L 287.903156 219.353308 
L 291.976068 218.184876 
L 295.052067 217.300662 
L 299.186432 216.13223 
L 302.262246 215.248015 
L 306.421156 214.079584 
L 309.511364 213.195369 
L 313.59867 212.026937 
L 317.762563 210.826942 
L 320.851664 209.974291 
L 325.023676 208.80586 
L 328.11204 207.921645 
L 332.181814 206.72165 
L 335.349901 205.837435 
L 339.436838 204.669003 
L 343.607743 203.437372 
L 346.680973 202.553158 
L 350.766618 201.416362 
L 353.933413 200.532147 
L 358.019243 199.363716 
L 361.194711 198.447865 
L 365.265408 197.311069 
L 369.349577 196.142638 
L 372.516372 195.226787 
L 376.60091 194.058356 
L 379.775271 193.142577 
L 383.859625 192.005709 
L 387.943794 190.837278 
L 391.110404 189.953063 
L 395.194942 188.753068 
L 398.369119 187.83729 
L 402.439446 186.700422 
L 405.515445 185.816207 
L 409.663836 184.616212 
L 413.747082 183.479344 
L 416.920889 182.595129 
L 421.00432 181.395134 
L 424.091945 180.510919 
" clip-path="url(#p69f1d6b0e3)" style="fill: none; stroke: #9467bd; stroke-width: 1.5; stroke-linecap: square"/>
   </g>
   <g id="line2d_23">
    <path d="M 59.029885 286.838027 
L 62.029297 286.459076 
L 66.105531 285.322226 
L 69.236708 284.438009 
L 73.294856 283.774846 
L 76.449287 283.238001 
L 80.524413 282.259046 
L 84.630543 281.280091 
L 87.809887 280.680087 
L 91.915647 279.890605 
L 95.086318 279.164288 
L 99.160152 278.280066 
L 102.229322 277.680062 
L 106.38288 276.859003 
L 110.456345 276.006366 
L 113.594536 275.374784 
L 117.666894 274.585303 
L 120.718532 274.048462 
L 124.871352 273.258981 
L 128.928208 272.469501 
L 132.081347 271.869496 
L 136.136727 271.080015 
L 139.203683 270.448433 
L 143.35521 269.69053 
L 147.427199 268.90105 
L 150.580891 268.269467 
L 154.652327 267.511564 
L 157.719283 266.91156 
L 161.870257 266.122079 
L 165.925267 265.364184 
L 169.078037 264.764179 
L 173.132679 264.006277 
L 176.199265 263.406272 
L 180.34987 262.616791 
L 183.401878 262.048365 
L 187.560788 261.227306 
L 191.631669 260.469411 
L 194.698995 259.900984 
L 198.847754 259.111504 
L 201.914526 258.479921 
L 206.072512 257.722018 
L 210.142656 256.995694 
L 213.208874 256.395689 
L 217.357264 255.574631 
L 220.423297 254.974626 
L 224.5811 254.216731 
L 228.635003 253.458828 
L 231.701775 252.858824 
L 235.849242 252.037765 
L 238.914722 251.469338 
L 243.055546 250.679858 
L 247.124951 249.890377 
L 250.204826 249.321958 
L 254.382374 248.532477 
L 257.477197 247.932472 
L 261.663234 247.142992 
L 264.759348 246.542987 
L 268.859942 245.785092 
L 272.034857 245.185087 
L 276.135081 244.395607 
L 280.305986 243.606126 
L 283.400624 243.0377 
L 287.498449 242.216641 
L 290.671703 241.616636 
L 294.756425 240.858741 
L 297.938537 240.227158 
L 302.037839 239.469256 
L 306.118871 238.711353 
L 309.292125 238.111348 
L 313.389765 237.321868 
L 316.570216 236.72187 
L 320.668411 235.963968 
L 323.763233 235.332385 
L 327.908486 234.574483 
L 331.991732 233.81658 
L 335.172368 233.184997 
L 339.270009 232.395517 
L 342.364093 231.827097 
L 346.539612 231.037617 
L 349.634987 230.437612 
L 353.818626 229.616554 
L 356.897762 229.048127 
L 360.994664 228.290224 
L 365.169076 227.469166 
L 368.262606 226.869161 
L 372.444953 226.111259 
L 375.538668 225.511261 
L 379.634463 224.721781 
L 382.807717 224.153354 
L 386.90462 223.332295 
L 391.085675 222.542822 
L 394.149863 221.974388 
L 398.216315 221.216493 
L 401.387355 220.584903 
L 405.482596 219.79543 
L 408.631121 219.227003 
L 412.727101 218.437522 
L 416.82142 217.648049 
L 419.993013 217.048044 
L 424.086962 216.290142 
L 427.265937 215.690137 
" clip-path="url(#p69f1d6b0e3)" style="fill: none; stroke: #8c564b; stroke-width: 1.5; stroke-linecap: square"/>
   </g>
   <g id="line2d_24">
    <path d="M 59.030254 281.974833 
L 63.00794 281.627462 
L 67.059076 281.027457 
L 70.213875 280.680087 
L 74.247848 280.427453 
L 77.372382 280.111662 
L 81.473898 279.543239 
L 84.565583 279.164288 
L 88.713973 278.816915 
L 92.763632 278.469542 
L 95.887982 278.090591 
L 99.954434 277.648483 
L 102.991678 277.364274 
L 107.103529 276.985323 
L 111.152265 276.574793 
L 114.275692 276.22742 
L 118.323874 275.880054 
L 122.339393 275.501103 
L 125.455253 275.216886 
L 129.503066 274.837942 
L 132.627416 274.522147 
L 136.661388 274.143196 
L 140.677829 273.732667 
L 143.794428 273.416879 
L 147.841503 273.069506 
L 151.974207 272.658976 
L 154.995581 272.343181 
L 159.060003 271.964237 
L 162.176048 271.711598 
L 166.2246 271.269491 
L 170.357304 270.858962 
L 173.39381 270.637908 
L 177.439593 270.195801 
L 180.554162 269.880006 
L 184.601791 269.53264 
L 188.718071 269.153689 
L 191.72265 268.869472 
L 195.751825 268.458942 
L 199.875486 268.079991 
L 202.895568 267.795781 
L 207.027718 267.41683 
L 210.065331 267.13262 
L 214.112776 266.722091 
L 218.220751 266.34314 
L 221.256888 266.090508 
L 225.387378 265.648401 
L 229.431869 265.26945 
L 232.467637 265.016818 
L 236.591114 264.606282 
L 239.627251 264.258916 
L 243.778225 263.911543 
L 247.836558 263.564169 
L 250.886351 263.27996 
L 255.039724 262.806267 
L 258.122366 262.553635 
L 262.283491 262.174684 
L 266.358063 261.764155 
L 269.423358 261.448367 
L 273.560676 261.069416 
L 276.625602 260.785206 
L 280.785619 260.406255 
L 283.851837 260.09046 
L 287.926594 259.711509 
L 292.078675 259.332565 
L 295.129945 259.048348 
L 299.276859 258.637818 
L 302.341785 258.353609 
L 306.415619 257.974657 
L 310.567701 257.564128 
L 313.632442 257.279918 
L 317.778064 256.869389 
L 320.842437 256.585172 
L 324.915348 256.174643 
L 329.050083 255.795692 
L 332.114824 255.511475 
L 336.273918 255.100945 
L 339.323527 254.816736 
L 343.395885 254.469362 
L 347.54649 254.058833 
L 350.610862 253.743038 
L 354.768849 253.364087 
L 357.832668 253.079877 
L 361.903918 252.700926 
L 365.04783 252.385131 
L 369.12111 251.974602 
L 373.278544 251.627229 
L 376.342178 251.343019 
L 380.413613 250.93249 
L 383.555125 250.648273 
L 387.626191 250.269321 
L 391.783071 249.858792 
L 394.84689 249.543004 
L 398.903008 249.164053 
L 402.04452 248.879836 
L 406.115217 248.500885 
L 410.255672 248.090356 
L 413.288487 247.774568 
L 417.342575 247.427195 
L 420.483903 247.142978 
L 424.553862 246.732448 
" clip-path="url(#p69f1d6b0e3)" style="fill: none; stroke: #e377c2; stroke-width: 1.5; stroke-linecap: square"/>
   </g>
   <g id="patch_3">
    <path d="M 40.603125 299.798125 
L 40.603125 22.318125 
" style="fill: none; stroke: #000000; stroke-width: 0.8; stroke-linejoin: miter; stroke-linecap: square"/>
   </g>
   <g id="patch_4">
    <path d="M 445.943125 299.798125 
L 445.943125 22.318125 
" style="fill: none; stroke: #000000; stroke-width: 0.8; stroke-linejoin: miter; stroke-linecap: square"/>
   </g>
   <g id="patch_5">
    <path d="M 40.603125 299.798125 
L 445.943125 299.798125 
" style="fill: none; stroke: #000000; stroke-width: 0.8; stroke-linejoin: miter; stroke-linecap: square"/>
   </g>
   <g id="patch_6">
    <path d="M 40.603125 22.318125 
L 445.943125 22.318125 
" style="fill: none; stroke: #000000; stroke-width: 0.8; stroke-linejoin: miter; stroke-linecap: square"/>
   </g>
   <g id="text_21">
    <!-- left theta vs. time -->
    <g transform="translate(189.819688 16.318125) scale(0.12 -0.12)">
     <defs>
      <path id="DejaVuSans-76" d="M 191 3500 
L 800 3500 
L 1894 563 
L 2988 3500 
L 3597 3500 
L 2284 0 
L 1503 0 
L 191 3500 
z
" transform="scale(0.015625)"/>
     </defs>
     <use xlink:href="#DejaVuSans-6c"/>
     <use xlink:href="#DejaVuSans-65" transform="translate(27.783203 0)"/>
     <use xlink:href="#DejaVuSans-66" transform="translate(89.306641 0)"/>
     <use xlink:href="#DejaVuSans-74" transform="translate(122.761719 0)"/>
     <use xlink:href="#DejaVuSans-20" transform="translate(161.970703 0)"/>
     <use xlink:href="#DejaVuSans-74" transform="translate(193.757812 0)"/>
     <use xlink:href="#DejaVuSans-68" transform="translate(232.966797 0)"/>
     <use xlink:href="#DejaVuSans-65" transform="translate(296.345703 0)"/>
     <use xlink:href="#DejaVuSans-74" transform="translate(357.869141 0)"/>
     <use xlink:href="#DejaVuSans-61" transform="translate(397.078125 0)"/>
     <use xlink:href="#DejaVuSans-20" transform="translate(458.357422 0)"/>
     <use xlink:href="#DejaVuSans-76" transform="translate(490.144531 0)"/>
     <use xlink:href="#DejaVuSans-73" transform="translate(549.324219 0)"/>
     <use xlink:href="#DejaVuSans-2e" transform="translate(601.423828 0)"/>
     <use xlink:href="#DejaVuSans-20" transform="translate(633.210938 0)"/>
     <use xlink:href="#DejaVuSans-74" transform="translate(664.998047 0)"/>
     <use xlink:href="#DejaVuSans-69" transform="translate(704.207031 0)"/>
     <use xlink:href="#DejaVuSans-6d" transform="translate(731.990234 0)"/>
     <use xlink:href="#DejaVuSans-65" transform="translate(829.402344 0)"/>
    </g>
   </g>
   <g id="legend_1">
    <g id="patch_7">
     <path d="M 47.603125 133.065 
L 164.128125 133.065 
Q 166.128125 133.065 166.128125 131.065 
L 166.128125 29.318125 
Q 166.128125 27.318125 164.128125 27.318125 
L 47.603125 27.318125 
Q 45.603125 27.318125 45.603125 29.318125 
L 45.603125 131.065 
Q 45.603125 133.065 47.603125 133.065 
z
" style="fill: #ffffff; opacity: 0.8; stroke: #cccccc; stroke-linejoin: miter"/>
    </g>
    <g id="line2d_25">
     <path d="M 49.603125 35.416563 
L 59.603125 35.416563 
L 69.603125 35.416563 
" style="fill: none; stroke: #1f77b4; stroke-width: 1.5; stroke-linecap: square"/>
    </g>
    <g id="text_22">
     <!-- Ref Speed = 595 -->
     <g transform="translate(77.603125 38.916563) scale(0.1 -0.1)">
      <defs>
       <path id="DejaVuSans-52" d="M 2841 2188 
Q 3044 2119 3236 1894 
Q 3428 1669 3622 1275 
L 4263 0 
L 3584 0 
L 2988 1197 
Q 2756 1666 2539 1819 
Q 2322 1972 1947 1972 
L 1259 1972 
L 1259 0 
L 628 0 
L 628 4666 
L 2053 4666 
Q 2853 4666 3247 4331 
Q 3641 3997 3641 3322 
Q 3641 2881 3436 2590 
Q 3231 2300 2841 2188 
z
M 1259 4147 
L 1259 2491 
L 2053 2491 
Q 2509 2491 2742 2702 
Q 2975 2913 2975 3322 
Q 2975 3731 2742 3939 
Q 2509 4147 2053 4147 
L 1259 4147 
z
" transform="scale(0.015625)"/>
       <path id="DejaVuSans-53" d="M 3425 4513 
L 3425 3897 
Q 3066 4069 2747 4153 
Q 2428 4238 2131 4238 
Q 1616 4238 1336 4038 
Q 1056 3838 1056 3469 
Q 1056 3159 1242 3001 
Q 1428 2844 1947 2747 
L 2328 2669 
Q 3034 2534 3370 2195 
Q 3706 1856 3706 1288 
Q 3706 609 3251 259 
Q 2797 -91 1919 -91 
Q 1588 -91 1214 -16 
Q 841 59 441 206 
L 441 856 
Q 825 641 1194 531 
Q 1563 422 1919 422 
Q 2459 422 2753 634 
Q 3047 847 3047 1241 
Q 3047 1584 2836 1778 
Q 2625 1972 2144 2069 
L 1759 2144 
Q 1053 2284 737 2584 
Q 422 2884 422 3419 
Q 422 4038 858 4394 
Q 1294 4750 2059 4750 
Q 2388 4750 2728 4690 
Q 3069 4631 3425 4513 
z
" transform="scale(0.015625)"/>
       <path id="DejaVuSans-70" d="M 1159 525 
L 1159 -1331 
L 581 -1331 
L 581 3500 
L 1159 3500 
L 1159 2969 
Q 1341 3281 1617 3432 
Q 1894 3584 2278 3584 
Q 2916 3584 3314 3078 
Q 3713 2572 3713 1747 
Q 3713 922 3314 415 
Q 2916 -91 2278 -91 
Q 1894 -91 1617 61 
Q 1341 213 1159 525 
z
M 3116 1747 
Q 3116 2381 2855 2742 
Q 2594 3103 2138 3103 
Q 1681 3103 1420 2742 
Q 1159 2381 1159 1747 
Q 1159 1113 1420 752 
Q 1681 391 2138 391 
Q 2594 391 2855 752 
Q 3116 1113 3116 1747 
z
" transform="scale(0.015625)"/>
       <path id="DejaVuSans-3d" d="M 678 2906 
L 4684 2906 
L 4684 2381 
L 678 2381 
L 678 2906 
z
M 678 1631 
L 4684 1631 
L 4684 1100 
L 678 1100 
L 678 1631 
z
" transform="scale(0.015625)"/>
       <path id="DejaVuSans-39" d="M 703 97 
L 703 672 
Q 941 559 1184 500 
Q 1428 441 1663 441 
Q 2288 441 2617 861 
Q 2947 1281 2994 2138 
Q 2813 1869 2534 1725 
Q 2256 1581 1919 1581 
Q 1219 1581 811 2004 
Q 403 2428 403 3163 
Q 403 3881 828 4315 
Q 1253 4750 1959 4750 
Q 2769 4750 3195 4129 
Q 3622 3509 3622 2328 
Q 3622 1225 3098 567 
Q 2575 -91 1691 -91 
Q 1453 -91 1209 -44 
Q 966 3 703 97 
z
M 1959 2075 
Q 2384 2075 2632 2365 
Q 2881 2656 2881 3163 
Q 2881 3666 2632 3958 
Q 2384 4250 1959 4250 
Q 1534 4250 1286 3958 
Q 1038 3666 1038 3163 
Q 1038 2656 1286 2365 
Q 1534 2075 1959 2075 
z
" transform="scale(0.015625)"/>
      </defs>
      <use xlink:href="#DejaVuSans-52"/>
      <use xlink:href="#DejaVuSans-65" transform="translate(64.982422 0)"/>
      <use xlink:href="#DejaVuSans-66" transform="translate(126.505859 0)"/>
      <use xlink:href="#DejaVuSans-20" transform="translate(161.710938 0)"/>
      <use xlink:href="#DejaVuSans-53" transform="translate(193.498047 0)"/>
      <use xlink:href="#DejaVuSans-70" transform="translate(256.974609 0)"/>
      <use xlink:href="#DejaVuSans-65" transform="translate(320.451172 0)"/>
      <use xlink:href="#DejaVuSans-65" transform="translate(381.974609 0)"/>
      <use xlink:href="#DejaVuSans-64" transform="translate(443.498047 0)"/>
      <use xlink:href="#DejaVuSans-20" transform="translate(506.974609 0)"/>
      <use xlink:href="#DejaVuSans-3d" transform="translate(538.761719 0)"/>
      <use xlink:href="#DejaVuSans-20" transform="translate(622.550781 0)"/>
      <use xlink:href="#DejaVuSans-35" transform="translate(654.337891 0)"/>
      <use xlink:href="#DejaVuSans-39" transform="translate(717.960938 0)"/>
      <use xlink:href="#DejaVuSans-35" transform="translate(781.583984 0)"/>
     </g>
    </g>
    <g id="line2d_26">
     <path d="M 49.603125 50.094688 
L 59.603125 50.094688 
L 69.603125 50.094688 
" style="fill: none; stroke: #ff7f0e; stroke-width: 1.5; stroke-linecap: square"/>
    </g>
    <g id="text_23">
     <!-- Ref Speed = 510 -->
     <g transform="translate(77.603125 53.594688) scale(0.1 -0.1)">
      <use xlink:href="#DejaVuSans-52"/>
      <use xlink:href="#DejaVuSans-65" transform="translate(64.982422 0)"/>
      <use xlink:href="#DejaVuSans-66" transform="translate(126.505859 0)"/>
      <use xlink:href="#DejaVuSans-20" transform="translate(161.710938 0)"/>
      <use xlink:href="#DejaVuSans-53" transform="translate(193.498047 0)"/>
      <use xlink:href="#DejaVuSans-70" transform="translate(256.974609 0)"/>
      <use xlink:href="#DejaVuSans-65" transform="translate(320.451172 0)"/>
      <use xlink:href="#DejaVuSans-65" transform="translate(381.974609 0)"/>
      <use xlink:href="#DejaVuSans-64" transform="translate(443.498047 0)"/>
      <use xlink:href="#DejaVuSans-20" transform="translate(506.974609 0)"/>
      <use xlink:href="#DejaVuSans-3d" transform="translate(538.761719 0)"/>
      <use xlink:href="#DejaVuSans-20" transform="translate(622.550781 0)"/>
      <use xlink:href="#DejaVuSans-35" transform="translate(654.337891 0)"/>
      <use xlink:href="#DejaVuSans-31" transform="translate(717.960938 0)"/>
      <use xlink:href="#DejaVuSans-30" transform="translate(781.583984 0)"/>
     </g>
    </g>
    <g id="line2d_27">
     <path d="M 49.603125 64.772813 
L 59.603125 64.772813 
L 69.603125 64.772813 
" style="fill: none; stroke: #2ca02c; stroke-width: 1.5; stroke-linecap: square"/>
    </g>
    <g id="text_24">
     <!-- Ref Speed = 425 -->
     <g transform="translate(77.603125 68.272813) scale(0.1 -0.1)">
      <defs>
       <path id="DejaVuSans-34" d="M 2419 4116 
L 825 1625 
L 2419 1625 
L 2419 4116 
z
M 2253 4666 
L 3047 4666 
L 3047 1625 
L 3713 1625 
L 3713 1100 
L 3047 1100 
L 3047 0 
L 2419 0 
L 2419 1100 
L 313 1100 
L 313 1709 
L 2253 4666 
z
" transform="scale(0.015625)"/>
      </defs>
      <use xlink:href="#DejaVuSans-52"/>
      <use xlink:href="#DejaVuSans-65" transform="translate(64.982422 0)"/>
      <use xlink:href="#DejaVuSans-66" transform="translate(126.505859 0)"/>
      <use xlink:href="#DejaVuSans-20" transform="translate(161.710938 0)"/>
      <use xlink:href="#DejaVuSans-53" transform="translate(193.498047 0)"/>
      <use xlink:href="#DejaVuSans-70" transform="translate(256.974609 0)"/>
      <use xlink:href="#DejaVuSans-65" transform="translate(320.451172 0)"/>
      <use xlink:href="#DejaVuSans-65" transform="translate(381.974609 0)"/>
      <use xlink:href="#DejaVuSans-64" transform="translate(443.498047 0)"/>
      <use xlink:href="#DejaVuSans-20" transform="translate(506.974609 0)"/>
      <use xlink:href="#DejaVuSans-3d" transform="translate(538.761719 0)"/>
      <use xlink:href="#DejaVuSans-20" transform="translate(622.550781 0)"/>
      <use xlink:href="#DejaVuSans-34" transform="translate(654.337891 0)"/>
      <use xlink:href="#DejaVuSans-32" transform="translate(717.960938 0)"/>
      <use xlink:href="#DejaVuSans-35" transform="translate(781.583984 0)"/>
     </g>
    </g>
    <g id="line2d_28">
     <path d="M 49.603125 79.450938 
L 59.603125 79.450938 
L 69.603125 79.450938 
" style="fill: none; stroke: #d62728; stroke-width: 1.5; stroke-linecap: square"/>
    </g>
    <g id="text_25">
     <!-- Ref Speed = 340 -->
     <g transform="translate(77.603125 82.950938) scale(0.1 -0.1)">
      <use xlink:href="#DejaVuSans-52"/>
      <use xlink:href="#DejaVuSans-65" transform="translate(64.982422 0)"/>
      <use xlink:href="#DejaVuSans-66" transform="translate(126.505859 0)"/>
      <use xlink:href="#DejaVuSans-20" transform="translate(161.710938 0)"/>
      <use xlink:href="#DejaVuSans-53" transform="translate(193.498047 0)"/>
      <use xlink:href="#DejaVuSans-70" transform="translate(256.974609 0)"/>
      <use xlink:href="#DejaVuSans-65" transform="translate(320.451172 0)"/>
      <use xlink:href="#DejaVuSans-65" transform="translate(381.974609 0)"/>
      <use xlink:href="#DejaVuSans-64" transform="translate(443.498047 0)"/>
      <use xlink:href="#DejaVuSans-20" transform="translate(506.974609 0)"/>
      <use xlink:href="#DejaVuSans-3d" transform="translate(538.761719 0)"/>
      <use xlink:href="#DejaVuSans-20" transform="translate(622.550781 0)"/>
      <use xlink:href="#DejaVuSans-33" transform="translate(654.337891 0)"/>
      <use xlink:href="#DejaVuSans-34" transform="translate(717.960938 0)"/>
      <use xlink:href="#DejaVuSans-30" transform="translate(781.583984 0)"/>
     </g>
    </g>
    <g id="line2d_29">
     <path d="M 49.603125 94.129063 
L 59.603125 94.129063 
L 69.603125 94.129063 
" style="fill: none; stroke: #9467bd; stroke-width: 1.5; stroke-linecap: square"/>
    </g>
    <g id="text_26">
     <!-- Ref Speed = 255 -->
     <g transform="translate(77.603125 97.629063) scale(0.1 -0.1)">
      <use xlink:href="#DejaVuSans-52"/>
      <use xlink:href="#DejaVuSans-65" transform="translate(64.982422 0)"/>
      <use xlink:href="#DejaVuSans-66" transform="translate(126.505859 0)"/>
      <use xlink:href="#DejaVuSans-20" transform="translate(161.710938 0)"/>
      <use xlink:href="#DejaVuSans-53" transform="translate(193.498047 0)"/>
      <use xlink:href="#DejaVuSans-70" transform="translate(256.974609 0)"/>
      <use xlink:href="#DejaVuSans-65" transform="translate(320.451172 0)"/>
      <use xlink:href="#DejaVuSans-65" transform="translate(381.974609 0)"/>
      <use xlink:href="#DejaVuSans-64" transform="translate(443.498047 0)"/>
      <use xlink:href="#DejaVuSans-20" transform="translate(506.974609 0)"/>
      <use xlink:href="#DejaVuSans-3d" transform="translate(538.761719 0)"/>
      <use xlink:href="#DejaVuSans-20" transform="translate(622.550781 0)"/>
      <use xlink:href="#DejaVuSans-32" transform="translate(654.337891 0)"/>
      <use xlink:href="#DejaVuSans-35" transform="translate(717.960938 0)"/>
      <use xlink:href="#DejaVuSans-35" transform="translate(781.583984 0)"/>
     </g>
    </g>
    <g id="line2d_30">
     <path d="M 49.603125 108.807188 
L 59.603125 108.807188 
L 69.603125 108.807188 
" style="fill: none; stroke: #8c564b; stroke-width: 1.5; stroke-linecap: square"/>
    </g>
    <g id="text_27">
     <!-- Ref Speed = 170 -->
     <g transform="translate(77.603125 112.307188) scale(0.1 -0.1)">
      <use xlink:href="#DejaVuSans-52"/>
      <use xlink:href="#DejaVuSans-65" transform="translate(64.982422 0)"/>
      <use xlink:href="#DejaVuSans-66" transform="translate(126.505859 0)"/>
      <use xlink:href="#DejaVuSans-20" transform="translate(161.710938 0)"/>
      <use xlink:href="#DejaVuSans-53" transform="translate(193.498047 0)"/>
      <use xlink:href="#DejaVuSans-70" transform="translate(256.974609 0)"/>
      <use xlink:href="#DejaVuSans-65" transform="translate(320.451172 0)"/>
      <use xlink:href="#DejaVuSans-65" transform="translate(381.974609 0)"/>
      <use xlink:href="#DejaVuSans-64" transform="translate(443.498047 0)"/>
      <use xlink:href="#DejaVuSans-20" transform="translate(506.974609 0)"/>
      <use xlink:href="#DejaVuSans-3d" transform="translate(538.761719 0)"/>
      <use xlink:href="#DejaVuSans-20" transform="translate(622.550781 0)"/>
      <use xlink:href="#DejaVuSans-31" transform="translate(654.337891 0)"/>
      <use xlink:href="#DejaVuSans-37" transform="translate(717.960938 0)"/>
      <use xlink:href="#DejaVuSans-30" transform="translate(781.583984 0)"/>
     </g>
    </g>
    <g id="line2d_31">
     <path d="M 49.603125 123.485313 
L 59.603125 123.485313 
L 69.603125 123.485313 
" style="fill: none; stroke: #e377c2; stroke-width: 1.5; stroke-linecap: square"/>
    </g>
    <g id="text_28">
     <!-- Ref Speed = 85 -->
     <g transform="translate(77.603125 126.985313) scale(0.1 -0.1)">
      <defs>
       <path id="DejaVuSans-38" d="M 2034 2216 
Q 1584 2216 1326 1975 
Q 1069 1734 1069 1313 
Q 1069 891 1326 650 
Q 1584 409 2034 409 
Q 2484 409 2743 651 
Q 3003 894 3003 1313 
Q 3003 1734 2745 1975 
Q 2488 2216 2034 2216 
z
M 1403 2484 
Q 997 2584 770 2862 
Q 544 3141 544 3541 
Q 544 4100 942 4425 
Q 1341 4750 2034 4750 
Q 2731 4750 3128 4425 
Q 3525 4100 3525 3541 
Q 3525 3141 3298 2862 
Q 3072 2584 2669 2484 
Q 3125 2378 3379 2068 
Q 3634 1759 3634 1313 
Q 3634 634 3220 271 
Q 2806 -91 2034 -91 
Q 1263 -91 848 271 
Q 434 634 434 1313 
Q 434 1759 690 2068 
Q 947 2378 1403 2484 
z
M 1172 3481 
Q 1172 3119 1398 2916 
Q 1625 2713 2034 2713 
Q 2441 2713 2670 2916 
Q 2900 3119 2900 3481 
Q 2900 3844 2670 4047 
Q 2441 4250 2034 4250 
Q 1625 4250 1398 4047 
Q 1172 3844 1172 3481 
z
" transform="scale(0.015625)"/>
      </defs>
      <use xlink:href="#DejaVuSans-52"/>
      <use xlink:href="#DejaVuSans-65" transform="translate(64.982422 0)"/>
      <use xlink:href="#DejaVuSans-66" transform="translate(126.505859 0)"/>
      <use xlink:href="#DejaVuSans-20" transform="translate(161.710938 0)"/>
      <use xlink:href="#DejaVuSans-53" transform="translate(193.498047 0)"/>
      <use xlink:href="#DejaVuSans-70" transform="translate(256.974609 0)"/>
      <use xlink:href="#DejaVuSans-65" transform="translate(320.451172 0)"/>
      <use xlink:href="#DejaVuSans-65" transform="translate(381.974609 0)"/>
      <use xlink:href="#DejaVuSans-64" transform="translate(443.498047 0)"/>
      <use xlink:href="#DejaVuSans-20" transform="translate(506.974609 0)"/>
      <use xlink:href="#DejaVuSans-3d" transform="translate(538.761719 0)"/>
      <use xlink:href="#DejaVuSans-20" transform="translate(622.550781 0)"/>
      <use xlink:href="#DejaVuSans-38" transform="translate(654.337891 0)"/>
      <use xlink:href="#DejaVuSans-35" transform="translate(717.960938 0)"/>
     </g>
    </g>
   </g>
  </g>
 </g>
 <defs>
  <clipPath id="p69f1d6b0e3">
   <rect x="40.603125" y="22.318125" width="405.34" height="277.48"/>
  </clipPath>
 </defs>
</svg>
