<svg width="1920" height="1920" xmlns="http://www.w3.org/2000/svg" xmlns:xlink="http://www.w3.org/1999/xlink" overflow="hidden"><g><rect x="0" y="0" width="1920" height="1920" fill="#D9D9D9"/><path d="M866 407 907.6 361 1032.4 361 1074 407 1032.4 453 907.6 453Z" stroke="#000000" stroke-width="2" stroke-miterlimit="8" fill="#FFFFFF" fill-rule="evenodd"/><text font-family="Times New Roman,Times New Roman_MSFontService,sans-serif" font-weight="400" font-size="24" transform="translate(939.994 388)">Motor</text><text font-family="Times New Roman,Times New Roman_MSFontService,sans-serif" font-weight="400" font-size="24" transform="translate(920.661 414)">Controller</text><text font-family="Times New Roman,Times New Roman_MSFontService,sans-serif" font-weight="400" font-size="24" transform="translate(947.494 440)">Task</text><path d="M971 452.999 971.083 516.896 969.083 516.898 969 453.001ZM975.604 509.394 970.086 518.882 964.543 509.408C964.264 508.932 964.425 508.319 964.901 508.04 965.378 507.761 965.991 507.922 966.269 508.398L970.947 516.392 969.219 516.395 973.875 508.388C974.153 507.911 974.765 507.749 975.242 508.027 975.72 508.304 975.882 508.917 975.604 509.394Z"/><rect x="866" y="519" width="208" height="93" stroke="#000000" stroke-width="2" stroke-miterlimit="8" fill="#FFFFFF"/><text font-family="Times New Roman,Times New Roman_MSFontService,sans-serif" font-weight="400" font-size="24" transform="translate(876.747 560)">Speed</text><text font-family="Times New Roman,Times New Roman_MSFontService,sans-serif" font-weight="400" font-size="24" transform="translate(941.413 560)">Change</text><text font-family="Times New Roman,Times New Roman_MSFontService,sans-serif" font-weight="400" font-size="24" transform="translate(1020.75 560)">Flag</text><text font-family="Times New Roman,Times New Roman_MSFontService,sans-serif" font-weight="400" font-size="24" transform="translate(937.413 589)">Raise</text><text font-family="Times New Roman,Times New Roman_MSFontService,sans-serif" font-weight="400" font-size="24" transform="translate(990.747 589)">d</text><rect x="866" y="678" width="208" height="92" stroke="#000000" stroke-width="2" stroke-miterlimit="8" fill="#FFFFFF"/><text font-family="Times New Roman,Times New Roman_MSFontService,sans-serif" font-weight="400" font-size="24" transform="translate(892.413 732)">Update Encoder</text><path d="M971 612 971 675.897 969 675.897 969 612ZM975.531 668.401 970 677.882 964.47 668.401C964.191 667.924 964.352 667.312 964.83 667.034 965.307 666.755 965.919 666.916 966.197 667.393L970.864 675.393 969.136 675.393 973.803 667.393C974.081 666.916 974.694 666.755 975.171 667.034 975.648 667.312 975.809 667.924 975.531 668.401Z"/><text font-family="Times New Roman,Times New Roman_MSFontService,sans-serif" font-weight="400" font-size="24" transform="translate(1118.96 639)">T</text><text font-family="Times New Roman,Times New Roman_MSFontService,sans-serif" font-weight="400" font-size="24" transform="translate(946.093 647)">F</text><rect x="1142" y="678" width="209" height="92" stroke="#000000" stroke-width="2" stroke-miterlimit="8" fill="#FFFFFF"/><text font-family="Times New Roman,Times New Roman_MSFontService,sans-serif" font-weight="400" font-size="20" transform="translate(1153.82 708)">Lower Flag, Set Effort,</text><text font-family="Times New Roman,Times New Roman_MSFontService,sans-serif" font-weight="400" font-size="20" transform="translate(1158.8 730)">Start Test Time, Reset</text><text font-family="Times New Roman,Times New Roman_MSFontService,sans-serif" font-weight="400" font-size="20" transform="translate(1190.93 751)">Q’s Were Full</text><path d="M970.232 611.027 1244.78 676.445 1244.32 678.391 969.768 612.973ZM1238.54 670.301 1246.48 677.878 1235.98 681.061C1235.45 681.221 1234.89 680.922 1234.73 680.394 1234.57 679.865 1234.87 679.307 1235.4 679.147L1244.26 676.461 1243.86 678.142 1237.16 671.748C1236.76 671.367 1236.75 670.734 1237.13 670.334 1237.51 669.935 1238.14 669.92 1238.54 670.301Z"/><path d="M0 1-23.9999 1-22.9999 0-22.9999 633.018-23.9999 632.018 294.575 632.018 294.575 634.018-24.9999 634.018-24.9999-1 0-1ZM287.078 627.488 296.559 633.018 287.078 638.549C286.601 638.827 285.989 638.666 285.71 638.189 285.432 637.712 285.593 637.099 286.07 636.821L294.07 632.155 294.07 633.882 286.07 629.215C285.593 628.937 285.432 628.325 285.71 627.848 285.989 627.371 286.601 627.21 287.078 627.488Z" transform="matrix(1 -1.22465e-16 -1.22465e-16 -1 569 1040.02)"/><path d="M1.53989e-06-1 66.198-0.999898 66.198 1.0001-1.53989e-06 1ZM58.7019-5.53036 68.1827 0.000104951 58.7019 5.53054C58.2249 5.80882 57.6125 5.64768 57.3343 5.17063 57.056 4.69357 57.2171 4.08126 57.6942 3.80298L65.6942-0.863678 65.6942 0.86388 57.6942-3.8028C57.2171-4.08108 57.056-4.6934 57.3343-5.17045 57.6126-5.6475 58.2249-5.80864 58.7019-5.53036Z" transform="matrix(-1 0 0 1 1142.18 724)"/><path d="M971 770 971 833.897 969 833.897 969 770ZM975.531 826.401 970 835.882 964.47 826.401C964.191 825.924 964.352 825.312 964.83 825.033 965.307 824.755 965.919 824.916 966.197 825.393L970.864 833.393 969.136 833.393 973.803 825.393C974.081 824.916 974.694 824.755 975.171 825.033 975.648 825.312 975.809 825.924 975.531 826.401Z"/><rect x="866" y="836" width="208" height="92" stroke="#000000" stroke-width="2" stroke-miterlimit="8" fill="#FFFFFF"/><text font-family="Times New Roman,Times New Roman_MSFontService,sans-serif" font-weight="400" font-size="24" transform="translate(892.837 891)">Transferring On</text><rect x="866" y="993" width="208" height="92" stroke="#000000" stroke-width="2" stroke-miterlimit="8" fill="#FFFFFF"/><text font-family="Times New Roman,Times New Roman_MSFontService,sans-serif" font-weight="400" font-size="24" transform="translate(894.72 1020)">Current Time is</text><text font-family="Times New Roman,Times New Roman_MSFontService,sans-serif" font-weight="400" font-size="24" transform="translate(902.293 1046)">Less Than Set</text><text font-family="Times New Roman,Times New Roman_MSFontService,sans-serif" font-weight="400" font-size="24" transform="translate(927.413 1072)">Duration</text><path d="M971 928 971 990.82 969 990.82 969 928ZM975.531 983.324 970 992.805 964.47 983.324C964.191 982.847 964.352 982.235 964.83 981.957 965.307 981.678 965.919 981.839 966.197 982.316L970.864 990.316 969.136 990.316 973.803 982.316C974.081 981.839 974.694 981.678 975.171 981.957 975.648 982.235 975.809 982.847 975.531 983.324Z"/><text font-family="Times New Roman,Times New Roman_MSFontService,sans-serif" font-weight="400" font-size="24" transform="translate(979.17 968)">T</text><text font-family="Times New Roman,Times New Roman_MSFontService,sans-serif" font-weight="400" font-size="24" transform="translate(798.058 956)">F</text><rect x="569" y="994" width="209" height="92" stroke="#000000" stroke-width="2" stroke-miterlimit="8" fill="#FFFFFF"/><text font-family="Times New Roman,Times New Roman_MSFontService,sans-serif" font-weight="400" font-size="24" transform="translate(633.11 1034)">No Data</text><text font-family="Times New Roman,Times New Roman_MSFontService,sans-serif" font-weight="400" font-size="24" transform="translate(617.863 1063)">Transferred</text><path d="M0.216797-0.976217 294.926 64.4724 294.492 66.4249-0.216797 0.976217ZM288.588 58.4242 296.645 65.8785 286.19 69.222C285.664 69.3903 285.101 69.1002 284.933 68.5742 284.765 68.0481 285.055 67.4853 285.581 67.3171L294.402 64.4957 294.028 66.1822 287.23 59.8922C286.825 59.5171 286.8 58.8844 287.175 58.479 287.55 58.0737 288.183 58.0491 288.588 58.4242Z" transform="matrix(-1 0 0 1 969.64 928)"/><rect x="866" y="1151" width="208" height="93" stroke="#000000" stroke-width="2" stroke-miterlimit="8" fill="#FFFFFF"/><text font-family="Times New Roman,Times New Roman_MSFontService,sans-serif" font-weight="400" font-size="24" transform="translate(885.08 1192)">Queues Currently</text><text font-family="Times New Roman,Times New Roman_MSFontService,sans-serif" font-weight="400" font-size="24" transform="translate(950.747 1221)">Full</text><path d="M971 1085 971 1148.9 969 1148.9 969 1085ZM975.531 1141.4 970 1150.88 964.47 1141.4C964.191 1140.92 964.352 1140.31 964.83 1140.03 965.307 1139.75 965.919 1139.92 966.197 1140.39L970.864 1148.39 969.136 1148.39 973.803 1140.39C974.081 1139.92 974.694 1139.75 975.171 1140.03 975.648 1140.31 975.809 1140.92 975.531 1141.4Z"/><text font-family="Times New Roman,Times New Roman_MSFontService,sans-serif" font-weight="400" font-size="24" transform="translate(978.745 1127)">T</text><text font-family="Times New Roman,Times New Roman_MSFontService,sans-serif" font-weight="400" font-size="24" transform="translate(797.634 1114)">F</text><rect x="569" y="1151" width="209" height="93" stroke="#000000" stroke-width="2" stroke-miterlimit="8" fill="#FFFFFF"/><text font-family="Times New Roman,Times New Roman_MSFontService,sans-serif" font-weight="400" font-size="20" transform="translate(586.75 1182)">Test Complete = True</text><text font-family="Times New Roman,Times New Roman_MSFontService,sans-serif" font-weight="400" font-size="20" transform="translate(589.357 1204)">Stop Motor and Zero</text><text font-family="Times New Roman,Times New Roman_MSFontService,sans-serif" font-weight="400" font-size="20" transform="translate(640.19 1225)">Encoder</text><path d="M0.216795-0.976217 294.929 64.4726 294.495 66.425-0.216795 0.976217ZM288.588 58.4237 296.645 65.878 286.19 69.2215C285.664 69.3897 285.101 69.0997 284.933 68.5736 284.765 68.0476 285.055 67.4848 285.581 67.3165L294.402 64.4952 294.028 66.1817 287.23 59.8917C286.825 59.5166 286.8 58.8839 287.175 58.4785 287.55 58.0731 288.183 58.0486 288.588 58.4237Z" transform="matrix(-1 0 0 1 969.64 1085)"/><path d="M0 1-24.0006 1-23.0006 0-23.0006 790.195-24.0006 789.195 294.575 789.195 294.575 791.195-25.0006 791.195-25.0006-1 0-1ZM287.078 784.665 296.559 790.195 287.078 795.726C286.601 796.004 285.989 795.843 285.71 795.366 285.432 794.889 285.593 794.277 286.07 793.998L294.07 789.332 294.07 791.059 286.07 786.393C285.593 786.114 285.432 785.502 285.71 785.025 285.989 784.548 286.601 784.387 287.078 784.665Z" transform="matrix(1 -1.22465e-16 -1.22465e-16 -1 569 1197.2)"/><rect x="866" y="1308" width="208" height="93" stroke="#000000" stroke-width="2" stroke-miterlimit="8" fill="#FFFFFF"/><text font-family="Times New Roman,Times New Roman_MSFontService,sans-serif" font-weight="400" font-size="21.3333" transform="translate(876.633 1363)">Q’s Were Full = False</text><path d="M971 1244 971 1306.82 969 1306.82 969 1244ZM975.531 1299.32 970 1308.8 964.47 1299.32C964.191 1298.85 964.352 1298.23 964.83 1297.96 965.307 1297.68 965.919 1297.84 966.197 1298.32L970.864 1306.32 969.136 1306.32 973.803 1298.32C974.081 1297.84 974.694 1297.68 975.171 1297.96 975.648 1298.23 975.809 1298.85 975.531 1299.32Z"/><text font-family="Times New Roman,Times New Roman_MSFontService,sans-serif" font-weight="400" font-size="24" transform="translate(1118.96 1270)">T</text><text font-family="Times New Roman,Times New Roman_MSFontService,sans-serif" font-weight="400" font-size="24" transform="translate(946.093 1278)">F</text><rect x="1142" y="1308" width="209" height="93" stroke="#000000" stroke-width="2" stroke-miterlimit="8" fill="#FFFFFF"/><text font-family="Times New Roman,Times New Roman_MSFontService,sans-serif" font-weight="400" font-size="21.3333" transform="translate(1160.61 1350)">Raise Q’s Were Full</text><text font-family="Times New Roman,Times New Roman_MSFontService,sans-serif" font-weight="400" font-size="21.3333" transform="translate(1197.56 1375)">Stop</text><text font-family="Times New Roman,Times New Roman_MSFontService,sans-serif" font-weight="400" font-size="21.3333" transform="translate(1242.06 1375)">Motor</text><path d="M970.228 1243.03 1244.78 1307.37 1244.33 1309.32 969.772 1244.97ZM1238.52 1301.25 1246.48 1308.8 1235.99 1312.02C1235.46 1312.18 1234.9 1311.89 1234.74 1311.36 1234.58 1310.83 1234.88 1310.27 1235.4 1310.11L1244.26 1307.39 1243.86 1309.07 1237.14 1302.7C1236.74 1302.33 1236.72 1301.69 1237.1 1301.29 1237.48 1300.89 1238.11 1300.87 1238.52 1301.25Z"/><rect x="866" y="1466" width="208" height="92" stroke="#000000" stroke-width="2" stroke-miterlimit="8" fill="#FFFFFF"/><text font-family="Times New Roman,Times New Roman_MSFontService,sans-serif" font-weight="400" font-size="24" transform="translate(901.72 1493)">Put</text><text font-family="Times New Roman,Times New Roman_MSFontService,sans-serif" font-weight="400" font-size="24" transform="translate(939.72 1493)">into</text><text font-family="Times New Roman,Times New Roman_MSFontService,sans-serif" font-weight="400" font-size="24" transform="translate(982.62 1493)">Time,</text><text font-family="Times New Roman,Times New Roman_MSFontService,sans-serif" font-weight="400" font-size="24" transform="translate(907.413 1519)">Position, and</text><text font-family="Times New Roman,Times New Roman_MSFontService,sans-serif" font-weight="400" font-size="24" transform="translate(910.407 1545)">Velocity Q’s</text><path d="M1-1.62017e-06 1.0001 62.8197-0.999898 62.8197-1 1.62017e-06ZM5.53054 55.3237 0.00010486 64.8044-5.53036 55.3237C-5.80864 54.8466-5.6475 54.2343-5.17045 53.956-4.6934 53.6777-4.08108 53.8389-3.8028 54.3159L0.86388 62.3159-0.863678 62.3159 3.80298 54.3159C4.08126 53.8389 4.69357 53.6777 5.17063 53.956 5.64768 54.2343 5.80882 54.8466 5.53054 55.3237Z" transform="matrix(-1 0 0 1 970 1401)"/><text font-family="Times New Roman,Times New Roman_MSFontService,sans-serif" font-weight="400" font-size="24" transform="translate(979.17 1441)">T</text><text font-family="Times New Roman,Times New Roman_MSFontService,sans-serif" font-weight="400" font-size="24" transform="translate(798.058 1429)">F</text><rect x="569" y="1467" width="209" height="92" stroke="#000000" stroke-width="2" stroke-miterlimit="8" fill="#FFFFFF"/><text font-family="Times New Roman,Times New Roman_MSFontService,sans-serif" font-weight="400" font-size="24" transform="translate(614.16 1507)">Current</text><text font-family="Times New Roman,Times New Roman_MSFontService,sans-serif" font-weight="400" font-size="24" transform="translate(693.06 1507)">Test</text><text font-family="Times New Roman,Times New Roman_MSFontService,sans-serif" font-weight="400" font-size="24" transform="translate(626.773 1536)">Complete</text><path d="M0.216795-0.976217 294.929 64.4726 294.495 66.425-0.216795 0.976217ZM288.588 58.4237 296.645 65.878 286.19 69.2215C285.664 69.3897 285.102 69.0997 284.933 68.5736 284.765 68.0476 285.055 67.4848 285.581 67.3165L294.403 64.4952 294.028 66.1817 287.23 59.8917C286.825 59.5166 286.8 58.8839 287.175 58.4785 287.55 58.0731 288.183 58.0486 288.588 58.4237Z" transform="matrix(-1 0 0 1 969.64 1401)"/><path d="M0 1-24.0001 1-23.0001 0-23.0001 1105.63-24.0001 1104.63 294.575 1104.63 294.575 1106.63-25.0001 1106.63-25.0001-1 0-1ZM287.078 1100.1 296.559 1105.63 287.078 1111.16C286.601 1111.44 285.989 1111.27 285.71 1110.8 285.432 1110.32 285.593 1109.71 286.07 1109.43L294.07 1104.76 294.07 1106.49 286.07 1101.82C285.593 1101.55 285.432 1100.93 285.71 1100.46 285.989 1099.98 286.601 1099.82 287.078 1100.1Z" transform="matrix(1 -1.22465e-16 -1.22465e-16 -1 569 1512.63)"/></g></svg>