<?xml version="1.0" encoding="utf-8" standalone="no"?>
<!DOCTYPE svg PUBLIC "-//W3C//DTD SVG 1.1//EN"
  "http://www.w3.org/Graphics/SVG/1.1/DTD/svg11.dtd">
<svg xmlns:xlink="http://www.w3.org/1999/xlink" width="453.180312pt" height="336.634375pt" viewBox="0 0 453.180312 336.634375" xmlns="http://www.w3.org/2000/svg" version="1.1">
 <metadata>
  <rdf:RDF xmlns:dc="http://purl.org/dc/elements/1.1/" xmlns:cc="http://creativecommons.org/ns#" xmlns:rdf="http://www.w3.org/1999/02/22-rdf-syntax-ns#">
   <cc:Work>
    <dc:type rdf:resource="http://purl.org/dc/dcmitype/StillImage"/>
    <dc:date>2025-11-17T17:43:24.318572</dc:date>
    <dc:format>image/svg+xml</dc:format>
    <dc:creator>
     <cc:Agent>
      <dc:title>Matplotlib v3.10.6, https://matplotlib.org/</dc:title>
     </cc:Agent>
    </dc:creator>
   </cc:Work>
  </rdf:RDF>
 </metadata>
 <defs>
  <style type="text/css">*{stroke-linejoin: round; stroke-linecap: butt}</style>
 </defs>
 <g id="figure_1">
  <g id="patch_1">
   <path d="M 0 336.634375 
L 453.180313 336.634375 
L 453.180313 0 
L 0 0 
z
" style="fill: #ffffff"/>
  </g>
  <g id="axes_1">
   <g id="patch_2">
    <path d="M 42.620313 299.078125 
L 445.980313 299.078125 
L 445.980313 22.318125 
L 42.620313 22.318125 
z
" style="fill: #ffffff"/>
   </g>
   <g id="matplotlib.axis_1">
    <g id="xtick_1">
     <g id="line2d_1">
      <defs>
       <path id="m8e4312a05d" d="M 0 0 
L 0 3.5 
" style="stroke: #000000; stroke-width: 0.8"/>
      </defs>
      <g>
       <use xlink:href="#m8e4312a05d" x="60.871236" y="299.078125" style="stroke: #000000; stroke-width: 0.8"/>
      </g>
     </g>
     <g id="text_1">
      <!-- 0.00 -->
      <g transform="translate(49.738423 313.676562) scale(0.1 -0.1)">
       <defs>
        <path id="DejaVuSans-30" d="M 2034 4250 
Q 1547 4250 1301 3770 
Q 1056 3291 1056 2328 
Q 1056 1369 1301 889 
Q 1547 409 2034 409 
Q 2525 409 2770 889 
Q 3016 1369 3016 2328 
Q 3016 3291 2770 3770 
Q 2525 4250 2034 4250 
z
M 2034 4750 
Q 2819 4750 3233 4129 
Q 3647 3509 3647 2328 
Q 3647 1150 3233 529 
Q 2819 -91 2034 -91 
Q 1250 -91 836 529 
Q 422 1150 422 2328 
Q 422 3509 836 4129 
Q 1250 4750 2034 4750 
z
" transform="scale(0.015625)"/>
        <path id="DejaVuSans-2e" d="M 684 794 
L 1344 794 
L 1344 0 
L 684 0 
L 684 794 
z
" transform="scale(0.015625)"/>
       </defs>
       <use xlink:href="#DejaVuSans-30"/>
       <use xlink:href="#DejaVuSans-2e" transform="translate(63.623047 0)"/>
       <use xlink:href="#DejaVuSans-30" transform="translate(95.410156 0)"/>
       <use xlink:href="#DejaVuSans-30" transform="translate(159.033203 0)"/>
      </g>
     </g>
    </g>
    <g id="xtick_2">
     <g id="line2d_2">
      <g>
       <use xlink:href="#m8e4312a05d" x="106.716723" y="299.078125" style="stroke: #000000; stroke-width: 0.8"/>
      </g>
     </g>
     <g id="text_2">
      <!-- 0.25 -->
      <g transform="translate(95.58391 313.676562) scale(0.1 -0.1)">
       <defs>
        <path id="DejaVuSans-32" d="M 1228 531 
L 3431 531 
L 3431 0 
L 469 0 
L 469 531 
Q 828 903 1448 1529 
Q 2069 2156 2228 2338 
Q 2531 2678 2651 2914 
Q 2772 3150 2772 3378 
Q 2772 3750 2511 3984 
Q 2250 4219 1831 4219 
Q 1534 4219 1204 4116 
Q 875 4013 500 3803 
L 500 4441 
Q 881 4594 1212 4672 
Q 1544 4750 1819 4750 
Q 2544 4750 2975 4387 
Q 3406 4025 3406 3419 
Q 3406 3131 3298 2873 
Q 3191 2616 2906 2266 
Q 2828 2175 2409 1742 
Q 1991 1309 1228 531 
z
" transform="scale(0.015625)"/>
        <path id="DejaVuSans-35" d="M 691 4666 
L 3169 4666 
L 3169 4134 
L 1269 4134 
L 1269 2991 
Q 1406 3038 1543 3061 
Q 1681 3084 1819 3084 
Q 2600 3084 3056 2656 
Q 3513 2228 3513 1497 
Q 3513 744 3044 326 
Q 2575 -91 1722 -91 
Q 1428 -91 1123 -41 
Q 819 9 494 109 
L 494 744 
Q 775 591 1075 516 
Q 1375 441 1709 441 
Q 2250 441 2565 725 
Q 2881 1009 2881 1497 
Q 2881 1984 2565 2268 
Q 2250 2553 1709 2553 
Q 1456 2553 1204 2497 
Q 953 2441 691 2322 
L 691 4666 
z
" transform="scale(0.015625)"/>
       </defs>
       <use xlink:href="#DejaVuSans-30"/>
       <use xlink:href="#DejaVuSans-2e" transform="translate(63.623047 0)"/>
       <use xlink:href="#DejaVuSans-32" transform="translate(95.410156 0)"/>
       <use xlink:href="#DejaVuSans-35" transform="translate(159.033203 0)"/>
      </g>
     </g>
    </g>
    <g id="xtick_3">
     <g id="line2d_3">
      <g>
       <use xlink:href="#m8e4312a05d" x="152.56221" y="299.078125" style="stroke: #000000; stroke-width: 0.8"/>
      </g>
     </g>
     <g id="text_3">
      <!-- 0.50 -->
      <g transform="translate(141.429397 313.676562) scale(0.1 -0.1)">
       <use xlink:href="#DejaVuSans-30"/>
       <use xlink:href="#DejaVuSans-2e" transform="translate(63.623047 0)"/>
       <use xlink:href="#DejaVuSans-35" transform="translate(95.410156 0)"/>
       <use xlink:href="#DejaVuSans-30" transform="translate(159.033203 0)"/>
      </g>
     </g>
    </g>
    <g id="xtick_4">
     <g id="line2d_4">
      <g>
       <use xlink:href="#m8e4312a05d" x="198.407696" y="299.078125" style="stroke: #000000; stroke-width: 0.8"/>
      </g>
     </g>
     <g id="text_4">
      <!-- 0.75 -->
      <g transform="translate(187.274884 313.676562) scale(0.1 -0.1)">
       <defs>
        <path id="DejaVuSans-37" d="M 525 4666 
L 3525 4666 
L 3525 4397 
L 1831 0 
L 1172 0 
L 2766 4134 
L 525 4134 
L 525 4666 
z
" transform="scale(0.015625)"/>
       </defs>
       <use xlink:href="#DejaVuSans-30"/>
       <use xlink:href="#DejaVuSans-2e" transform="translate(63.623047 0)"/>
       <use xlink:href="#DejaVuSans-37" transform="translate(95.410156 0)"/>
       <use xlink:href="#DejaVuSans-35" transform="translate(159.033203 0)"/>
      </g>
     </g>
    </g>
    <g id="xtick_5">
     <g id="line2d_5">
      <g>
       <use xlink:href="#m8e4312a05d" x="244.253183" y="299.078125" style="stroke: #000000; stroke-width: 0.8"/>
      </g>
     </g>
     <g id="text_5">
      <!-- 1.00 -->
      <g transform="translate(233.120371 313.676562) scale(0.1 -0.1)">
       <defs>
        <path id="DejaVuSans-31" d="M 794 531 
L 1825 531 
L 1825 4091 
L 703 3866 
L 703 4441 
L 1819 4666 
L 2450 4666 
L 2450 531 
L 3481 531 
L 3481 0 
L 794 0 
L 794 531 
z
" transform="scale(0.015625)"/>
       </defs>
       <use xlink:href="#DejaVuSans-31"/>
       <use xlink:href="#DejaVuSans-2e" transform="translate(63.623047 0)"/>
       <use xlink:href="#DejaVuSans-30" transform="translate(95.410156 0)"/>
       <use xlink:href="#DejaVuSans-30" transform="translate(159.033203 0)"/>
      </g>
     </g>
    </g>
    <g id="xtick_6">
     <g id="line2d_6">
      <g>
       <use xlink:href="#m8e4312a05d" x="290.09867" y="299.078125" style="stroke: #000000; stroke-width: 0.8"/>
      </g>
     </g>
     <g id="text_6">
      <!-- 1.25 -->
      <g transform="translate(278.965858 313.676562) scale(0.1 -0.1)">
       <use xlink:href="#DejaVuSans-31"/>
       <use xlink:href="#DejaVuSans-2e" transform="translate(63.623047 0)"/>
       <use xlink:href="#DejaVuSans-32" transform="translate(95.410156 0)"/>
       <use xlink:href="#DejaVuSans-35" transform="translate(159.033203 0)"/>
      </g>
     </g>
    </g>
    <g id="xtick_7">
     <g id="line2d_7">
      <g>
       <use xlink:href="#m8e4312a05d" x="335.944157" y="299.078125" style="stroke: #000000; stroke-width: 0.8"/>
      </g>
     </g>
     <g id="text_7">
      <!-- 1.50 -->
      <g transform="translate(324.811345 313.676562) scale(0.1 -0.1)">
       <use xlink:href="#DejaVuSans-31"/>
       <use xlink:href="#DejaVuSans-2e" transform="translate(63.623047 0)"/>
       <use xlink:href="#DejaVuSans-35" transform="translate(95.410156 0)"/>
       <use xlink:href="#DejaVuSans-30" transform="translate(159.033203 0)"/>
      </g>
     </g>
    </g>
    <g id="xtick_8">
     <g id="line2d_8">
      <g>
       <use xlink:href="#m8e4312a05d" x="381.789644" y="299.078125" style="stroke: #000000; stroke-width: 0.8"/>
      </g>
     </g>
     <g id="text_8">
      <!-- 1.75 -->
      <g transform="translate(370.656832 313.676562) scale(0.1 -0.1)">
       <use xlink:href="#DejaVuSans-31"/>
       <use xlink:href="#DejaVuSans-2e" transform="translate(63.623047 0)"/>
       <use xlink:href="#DejaVuSans-37" transform="translate(95.410156 0)"/>
       <use xlink:href="#DejaVuSans-35" transform="translate(159.033203 0)"/>
      </g>
     </g>
    </g>
    <g id="xtick_9">
     <g id="line2d_9">
      <g>
       <use xlink:href="#m8e4312a05d" x="427.635131" y="299.078125" style="stroke: #000000; stroke-width: 0.8"/>
      </g>
     </g>
     <g id="text_9">
      <!-- 2.00 -->
      <g transform="translate(416.502318 313.676562) scale(0.1 -0.1)">
       <use xlink:href="#DejaVuSans-32"/>
       <use xlink:href="#DejaVuSans-2e" transform="translate(63.623047 0)"/>
       <use xlink:href="#DejaVuSans-30" transform="translate(95.410156 0)"/>
       <use xlink:href="#DejaVuSans-30" transform="translate(159.033203 0)"/>
      </g>
     </g>
    </g>
    <g id="text_10">
     <!-- time, t (s) -->
     <g transform="translate(219.770625 327.354687) scale(0.1 -0.1)">
      <defs>
       <path id="DejaVuSans-74" d="M 1172 4494 
L 1172 3500 
L 2356 3500 
L 2356 3053 
L 1172 3053 
L 1172 1153 
Q 1172 725 1289 603 
Q 1406 481 1766 481 
L 2356 481 
L 2356 0 
L 1766 0 
Q 1100 0 847 248 
Q 594 497 594 1153 
L 594 3053 
L 172 3053 
L 172 3500 
L 594 3500 
L 594 4494 
L 1172 4494 
z
" transform="scale(0.015625)"/>
       <path id="DejaVuSans-69" d="M 603 3500 
L 1178 3500 
L 1178 0 
L 603 0 
L 603 3500 
z
M 603 4863 
L 1178 4863 
L 1178 4134 
L 603 4134 
L 603 4863 
z
" transform="scale(0.015625)"/>
       <path id="DejaVuSans-6d" d="M 3328 2828 
Q 3544 3216 3844 3400 
Q 4144 3584 4550 3584 
Q 5097 3584 5394 3201 
Q 5691 2819 5691 2113 
L 5691 0 
L 5113 0 
L 5113 2094 
Q 5113 2597 4934 2840 
Q 4756 3084 4391 3084 
Q 3944 3084 3684 2787 
Q 3425 2491 3425 1978 
L 3425 0 
L 2847 0 
L 2847 2094 
Q 2847 2600 2669 2842 
Q 2491 3084 2119 3084 
Q 1678 3084 1418 2786 
Q 1159 2488 1159 1978 
L 1159 0 
L 581 0 
L 581 3500 
L 1159 3500 
L 1159 2956 
Q 1356 3278 1631 3431 
Q 1906 3584 2284 3584 
Q 2666 3584 2933 3390 
Q 3200 3197 3328 2828 
z
" transform="scale(0.015625)"/>
       <path id="DejaVuSans-65" d="M 3597 1894 
L 3597 1613 
L 953 1613 
Q 991 1019 1311 708 
Q 1631 397 2203 397 
Q 2534 397 2845 478 
Q 3156 559 3463 722 
L 3463 178 
Q 3153 47 2828 -22 
Q 2503 -91 2169 -91 
Q 1331 -91 842 396 
Q 353 884 353 1716 
Q 353 2575 817 3079 
Q 1281 3584 2069 3584 
Q 2775 3584 3186 3129 
Q 3597 2675 3597 1894 
z
M 3022 2063 
Q 3016 2534 2758 2815 
Q 2500 3097 2075 3097 
Q 1594 3097 1305 2825 
Q 1016 2553 972 2059 
L 3022 2063 
z
" transform="scale(0.015625)"/>
       <path id="DejaVuSans-2c" d="M 750 794 
L 1409 794 
L 1409 256 
L 897 -744 
L 494 -744 
L 750 256 
L 750 794 
z
" transform="scale(0.015625)"/>
       <path id="DejaVuSans-20" transform="scale(0.015625)"/>
       <path id="DejaVuSans-28" d="M 1984 4856 
Q 1566 4138 1362 3434 
Q 1159 2731 1159 2009 
Q 1159 1288 1364 580 
Q 1569 -128 1984 -844 
L 1484 -844 
Q 1016 -109 783 600 
Q 550 1309 550 2009 
Q 550 2706 781 3412 
Q 1013 4119 1484 4856 
L 1984 4856 
z
" transform="scale(0.015625)"/>
       <path id="DejaVuSans-73" d="M 2834 3397 
L 2834 2853 
Q 2591 2978 2328 3040 
Q 2066 3103 1784 3103 
Q 1356 3103 1142 2972 
Q 928 2841 928 2578 
Q 928 2378 1081 2264 
Q 1234 2150 1697 2047 
L 1894 2003 
Q 2506 1872 2764 1633 
Q 3022 1394 3022 966 
Q 3022 478 2636 193 
Q 2250 -91 1575 -91 
Q 1294 -91 989 -36 
Q 684 19 347 128 
L 347 722 
Q 666 556 975 473 
Q 1284 391 1588 391 
Q 1994 391 2212 530 
Q 2431 669 2431 922 
Q 2431 1156 2273 1281 
Q 2116 1406 1581 1522 
L 1381 1569 
Q 847 1681 609 1914 
Q 372 2147 372 2553 
Q 372 3047 722 3315 
Q 1072 3584 1716 3584 
Q 2034 3584 2315 3537 
Q 2597 3491 2834 3397 
z
" transform="scale(0.015625)"/>
       <path id="DejaVuSans-29" d="M 513 4856 
L 1013 4856 
Q 1481 4119 1714 3412 
Q 1947 2706 1947 2009 
Q 1947 1309 1714 600 
Q 1481 -109 1013 -844 
L 513 -844 
Q 928 -128 1133 580 
Q 1338 1288 1338 2009 
Q 1338 2731 1133 3434 
Q 928 4138 513 4856 
z
" transform="scale(0.015625)"/>
      </defs>
      <use xlink:href="#DejaVuSans-74"/>
      <use xlink:href="#DejaVuSans-69" transform="translate(39.208984 0)"/>
      <use xlink:href="#DejaVuSans-6d" transform="translate(66.992188 0)"/>
      <use xlink:href="#DejaVuSans-65" transform="translate(164.404297 0)"/>
      <use xlink:href="#DejaVuSans-2c" transform="translate(225.927734 0)"/>
      <use xlink:href="#DejaVuSans-20" transform="translate(257.714844 0)"/>
      <use xlink:href="#DejaVuSans-74" transform="translate(289.501953 0)"/>
      <use xlink:href="#DejaVuSans-20" transform="translate(328.710938 0)"/>
      <use xlink:href="#DejaVuSans-28" transform="translate(360.498047 0)"/>
      <use xlink:href="#DejaVuSans-73" transform="translate(399.511719 0)"/>
      <use xlink:href="#DejaVuSans-29" transform="translate(451.611328 0)"/>
     </g>
    </g>
    <g id="text_11">
     <!-- 1e6 -->
     <g transform="translate(427.102188 326.354687) scale(0.1 -0.1)">
      <defs>
       <path id="DejaVuSans-36" d="M 2113 2584 
Q 1688 2584 1439 2293 
Q 1191 2003 1191 1497 
Q 1191 994 1439 701 
Q 1688 409 2113 409 
Q 2538 409 2786 701 
Q 3034 994 3034 1497 
Q 3034 2003 2786 2293 
Q 2538 2584 2113 2584 
z
M 3366 4563 
L 3366 3988 
Q 3128 4100 2886 4159 
Q 2644 4219 2406 4219 
Q 1781 4219 1451 3797 
Q 1122 3375 1075 2522 
Q 1259 2794 1537 2939 
Q 1816 3084 2150 3084 
Q 2853 3084 3261 2657 
Q 3669 2231 3669 1497 
Q 3669 778 3244 343 
Q 2819 -91 2113 -91 
Q 1303 -91 875 529 
Q 447 1150 447 2328 
Q 447 3434 972 4092 
Q 1497 4750 2381 4750 
Q 2619 4750 2861 4703 
Q 3103 4656 3366 4563 
z
" transform="scale(0.015625)"/>
      </defs>
      <use xlink:href="#DejaVuSans-31"/>
      <use xlink:href="#DejaVuSans-65" transform="translate(63.623047 0)"/>
      <use xlink:href="#DejaVuSans-36" transform="translate(125.146484 0)"/>
     </g>
    </g>
   </g>
   <g id="matplotlib.axis_2">
    <g id="ytick_1">
     <g id="line2d_10">
      <defs>
       <path id="mfcca3efb3a" d="M 0 0 
L -3.5 0 
" style="stroke: #000000; stroke-width: 0.8"/>
      </defs>
      <g>
       <use xlink:href="#mfcca3efb3a" x="42.620313" y="256.397587" style="stroke: #000000; stroke-width: 0.8"/>
      </g>
     </g>
     <g id="text_12">
      <!-- −8 -->
      <g transform="translate(20.878125 260.196805) scale(0.1 -0.1)">
       <defs>
        <path id="DejaVuSans-2212" d="M 678 2272 
L 4684 2272 
L 4684 1741 
L 678 1741 
L 678 2272 
z
" transform="scale(0.015625)"/>
        <path id="DejaVuSans-38" d="M 2034 2216 
Q 1584 2216 1326 1975 
Q 1069 1734 1069 1313 
Q 1069 891 1326 650 
Q 1584 409 2034 409 
Q 2484 409 2743 651 
Q 3003 894 3003 1313 
Q 3003 1734 2745 1975 
Q 2488 2216 2034 2216 
z
M 1403 2484 
Q 997 2584 770 2862 
Q 544 3141 544 3541 
Q 544 4100 942 4425 
Q 1341 4750 2034 4750 
Q 2731 4750 3128 4425 
Q 3525 4100 3525 3541 
Q 3525 3141 3298 2862 
Q 3072 2584 2669 2484 
Q 3125 2378 3379 2068 
Q 3634 1759 3634 1313 
Q 3634 634 3220 271 
Q 2806 -91 2034 -91 
Q 1263 -91 848 271 
Q 434 634 434 1313 
Q 434 1759 690 2068 
Q 947 2378 1403 2484 
z
M 1172 3481 
Q 1172 3119 1398 2916 
Q 1625 2713 2034 2713 
Q 2441 2713 2670 2916 
Q 2900 3119 2900 3481 
Q 2900 3844 2670 4047 
Q 2441 4250 2034 4250 
Q 1625 4250 1398 4047 
Q 1172 3844 1172 3481 
z
" transform="scale(0.015625)"/>
       </defs>
       <use xlink:href="#DejaVuSans-2212"/>
       <use xlink:href="#DejaVuSans-38" transform="translate(83.789062 0)"/>
      </g>
     </g>
    </g>
    <g id="ytick_2">
     <g id="line2d_11">
      <g>
       <use xlink:href="#mfcca3efb3a" x="42.620313" y="201.022721" style="stroke: #000000; stroke-width: 0.8"/>
      </g>
     </g>
     <g id="text_13">
      <!-- −6 -->
      <g transform="translate(20.878125 204.82194) scale(0.1 -0.1)">
       <use xlink:href="#DejaVuSans-2212"/>
       <use xlink:href="#DejaVuSans-36" transform="translate(83.789062 0)"/>
      </g>
     </g>
    </g>
    <g id="ytick_3">
     <g id="line2d_12">
      <g>
       <use xlink:href="#mfcca3efb3a" x="42.620313" y="145.647856" style="stroke: #000000; stroke-width: 0.8"/>
      </g>
     </g>
     <g id="text_14">
      <!-- −4 -->
      <g transform="translate(20.878125 149.447075) scale(0.1 -0.1)">
       <defs>
        <path id="DejaVuSans-34" d="M 2419 4116 
L 825 1625 
L 2419 1625 
L 2419 4116 
z
M 2253 4666 
L 3047 4666 
L 3047 1625 
L 3713 1625 
L 3713 1100 
L 3047 1100 
L 3047 0 
L 2419 0 
L 2419 1100 
L 313 1100 
L 313 1709 
L 2253 4666 
z
" transform="scale(0.015625)"/>
       </defs>
       <use xlink:href="#DejaVuSans-2212"/>
       <use xlink:href="#DejaVuSans-34" transform="translate(83.789062 0)"/>
      </g>
     </g>
    </g>
    <g id="ytick_4">
     <g id="line2d_13">
      <g>
       <use xlink:href="#mfcca3efb3a" x="42.620313" y="90.27299" style="stroke: #000000; stroke-width: 0.8"/>
      </g>
     </g>
     <g id="text_15">
      <!-- −2 -->
      <g transform="translate(20.878125 94.072209) scale(0.1 -0.1)">
       <use xlink:href="#DejaVuSans-2212"/>
       <use xlink:href="#DejaVuSans-32" transform="translate(83.789062 0)"/>
      </g>
     </g>
    </g>
    <g id="ytick_5">
     <g id="line2d_14">
      <g>
       <use xlink:href="#mfcca3efb3a" x="42.620313" y="34.898125" style="stroke: #000000; stroke-width: 0.8"/>
      </g>
     </g>
     <g id="text_16">
      <!-- 0 -->
      <g transform="translate(29.257813 38.697344) scale(0.1 -0.1)">
       <use xlink:href="#DejaVuSans-30"/>
      </g>
     </g>
    </g>
    <g id="text_17">
     <!-- ln(1-Vact/Vset)  -->
     <g transform="translate(14.798438 198.990312) rotate(-90) scale(0.1 -0.1)">
      <defs>
       <path id="DejaVuSans-6c" d="M 603 4863 
L 1178 4863 
L 1178 0 
L 603 0 
L 603 4863 
z
" transform="scale(0.015625)"/>
       <path id="DejaVuSans-6e" d="M 3513 2113 
L 3513 0 
L 2938 0 
L 2938 2094 
Q 2938 2591 2744 2837 
Q 2550 3084 2163 3084 
Q 1697 3084 1428 2787 
Q 1159 2491 1159 1978 
L 1159 0 
L 581 0 
L 581 3500 
L 1159 3500 
L 1159 2956 
Q 1366 3272 1645 3428 
Q 1925 3584 2291 3584 
Q 2894 3584 3203 3211 
Q 3513 2838 3513 2113 
z
" transform="scale(0.015625)"/>
       <path id="DejaVuSans-2d" d="M 313 2009 
L 1997 2009 
L 1997 1497 
L 313 1497 
L 313 2009 
z
" transform="scale(0.015625)"/>
       <path id="DejaVuSans-56" d="M 1831 0 
L 50 4666 
L 709 4666 
L 2188 738 
L 3669 4666 
L 4325 4666 
L 2547 0 
L 1831 0 
z
" transform="scale(0.015625)"/>
       <path id="DejaVuSans-61" d="M 2194 1759 
Q 1497 1759 1228 1600 
Q 959 1441 959 1056 
Q 959 750 1161 570 
Q 1363 391 1709 391 
Q 2188 391 2477 730 
Q 2766 1069 2766 1631 
L 2766 1759 
L 2194 1759 
z
M 3341 1997 
L 3341 0 
L 2766 0 
L 2766 531 
Q 2569 213 2275 61 
Q 1981 -91 1556 -91 
Q 1019 -91 701 211 
Q 384 513 384 1019 
Q 384 1609 779 1909 
Q 1175 2209 1959 2209 
L 2766 2209 
L 2766 2266 
Q 2766 2663 2505 2880 
Q 2244 3097 1772 3097 
Q 1472 3097 1187 3025 
Q 903 2953 641 2809 
L 641 3341 
Q 956 3463 1253 3523 
Q 1550 3584 1831 3584 
Q 2591 3584 2966 3190 
Q 3341 2797 3341 1997 
z
" transform="scale(0.015625)"/>
       <path id="DejaVuSans-63" d="M 3122 3366 
L 3122 2828 
Q 2878 2963 2633 3030 
Q 2388 3097 2138 3097 
Q 1578 3097 1268 2742 
Q 959 2388 959 1747 
Q 959 1106 1268 751 
Q 1578 397 2138 397 
Q 2388 397 2633 464 
Q 2878 531 3122 666 
L 3122 134 
Q 2881 22 2623 -34 
Q 2366 -91 2075 -91 
Q 1284 -91 818 406 
Q 353 903 353 1747 
Q 353 2603 823 3093 
Q 1294 3584 2113 3584 
Q 2378 3584 2631 3529 
Q 2884 3475 3122 3366 
z
" transform="scale(0.015625)"/>
       <path id="DejaVuSans-2f" d="M 1625 4666 
L 2156 4666 
L 531 -594 
L 0 -594 
L 1625 4666 
z
" transform="scale(0.015625)"/>
      </defs>
      <use xlink:href="#DejaVuSans-6c"/>
      <use xlink:href="#DejaVuSans-6e" transform="translate(27.783203 0)"/>
      <use xlink:href="#DejaVuSans-28" transform="translate(91.162109 0)"/>
      <use xlink:href="#DejaVuSans-31" transform="translate(130.175781 0)"/>
      <use xlink:href="#DejaVuSans-2d" transform="translate(193.798828 0)"/>
      <use xlink:href="#DejaVuSans-56" transform="translate(224.007812 0)"/>
      <use xlink:href="#DejaVuSans-61" transform="translate(284.666016 0)"/>
      <use xlink:href="#DejaVuSans-63" transform="translate(345.945312 0)"/>
      <use xlink:href="#DejaVuSans-74" transform="translate(400.925781 0)"/>
      <use xlink:href="#DejaVuSans-2f" transform="translate(440.134766 0)"/>
      <use xlink:href="#DejaVuSans-56" transform="translate(473.826172 0)"/>
      <use xlink:href="#DejaVuSans-73" transform="translate(542.234375 0)"/>
      <use xlink:href="#DejaVuSans-65" transform="translate(594.333984 0)"/>
      <use xlink:href="#DejaVuSans-74" transform="translate(655.857422 0)"/>
      <use xlink:href="#DejaVuSans-29" transform="translate(695.066406 0)"/>
      <use xlink:href="#DejaVuSans-20" transform="translate(734.080078 0)"/>
     </g>
    </g>
   </g>
   <g id="line2d_15">
    <path d="M 60.970996 34.898125 
L 64.602692 38.248525 
L 68.281884 51.633175 
L 72.066337 57.107214 
L 75.804028 51.2888 
L 79.619473 56.827116 
L 82.576323 68.637801 
L 86.342988 76.200323 
L 90.192726 91.063706 
L 93.959391 213.218779 
L 97.810045 137.717402 
L 101.576893 95.196117 
L 105.345759 188.651632 
L 108.375229 127.10157 
L 112.144462 188.651632 
L 116.008869 135.243665 
L 119.794606 167.118989 
L 123.593913 220.957673 
L 126.657676 119.446743 
L 130.456616 220.957673 
L 134.338995 89.207907 
L 138.137936 220.957673 
L 141.938343 160.495333 
L 144.999538 120.817688 
L 148.800496 160.495333 
L 152.679941 130.874395 
L 156.480715 160.495333 
L 160.279472 220.957673 
L 163.342501 120.817688 
L 167.141258 220.957673 
L 171.022903 130.874395 
L 174.821661 160.495333 
L 178.622618 160.495333 
L 181.683446 120.817688 
L 185.483854 220.957673 
L 189.363115 130.874395 
L 193.163156 160.495333 
L 196.96173 160.495333 
L 200.024575 120.817688 
L 203.823516 160.495333 
L 207.704794 220.957673 
L 211.503368 220.957673 
L 215.303776 160.495333 
L 218.364787 120.817688 
L 222.165378 160.495333 
L 226.044823 220.957673 
L 229.84523 160.495333 
L 233.643988 160.495333 
L 236.706649 220.957673 
L 240.504856 160.495333 
L 244.385952 220.957673 
L 248.217534 143.446505 
L 252.051317 143.446505 
L 255.144787 220.957673 
L 258.97857 143.446505 
L 262.890107 220.957673 
L 266.723157 143.446505 
L 269.740523 220.957673 
L 273.654628 123.781738 
L 277.48566 220.957673 
L 280.586282 113.456365 
L 284.417131 220.957673 
L 288.249997 143.446505 
L 292.156216 220.957673 
L 295.989082 220.957673 
L 299.087687 220.957673 
L 302.920369 143.446505 
L 306.750668 220.957673 
L 310.658537 220.957673 
L 313.676087 130.874395 
L 317.589641 220.957673 
L 321.420307 220.957673 
L 325.25299 143.446505 
L 328.346093 220.957673 
L 332.178776 143.446505 
L 336.090313 220.957673 
L 339.923362 143.446505 
L 342.941279 220.957673 
L 346.855016 220.957673 
L 350.686048 143.446505 
L 354.599786 220.957673 
L 357.617519 130.874395 
L 361.450019 220.957673 
L 365.361922 123.781738 
L 369.194605 143.446505 
L 372.293393 114.555217 
L 376.125893 220.957673 
L 379.956558 143.446505 
L 383.864794 125.391926 
L 387.69601 143.446505 
L 390.796632 113.456365 
L 394.627664 220.957673 
L 398.460713 143.446505 
L 402.367116 125.391926 
L 405.38705 128.923769 
L 409.29877 220.957673 
L 413.132003 143.446505 
L 416.962485 220.957673 
L 420.057422 114.555217 
L 423.888088 143.446505 
" clip-path="url(#p928935e353)" style="fill: none; stroke: #1f77b4; stroke-width: 1.5; stroke-linecap: square"/>
   </g>
   <g id="line2d_16">
    <path d="M 60.955041 34.898125 
L 64.579586 41.13381 
L 68.396864 50.52336 
L 72.130704 53.550359 
L 75.867661 56.283204 
L 79.677238 70.219986 
L 83.44647 92.14554 
L 86.480341 99.914738 
L 90.281299 90.65661 
L 94.09656 123.587222 
L 97.989209 112.980058 
L 101.804287 123.587222 
L 104.889505 220.957673 
L 108.719987 120.991652 
L 112.537632 220.957673 
L 116.443668 148.251724 
L 119.448381 220.957673 
L 123.359551 146.641535 
L 127.176647 220.957673 
L 131.007495 220.957673 
L 134.102983 220.957673 
L 137.933832 120.991652 
L 141.832165 151.783566 
L 145.647426 220.957673 
L 149.481026 220.957673 
L 152.573579 115.912684 
L 156.391591 220.957673 
L 160.303495 146.641535 
L 164.12059 220.957673 
L 167.137957 132.311007 
L 171.036107 153.734192 
L 174.850635 220.957673 
L 178.765106 145.119865 
L 181.766885 137.415014 
L 185.584164 220.957673 
L 189.495701 146.641535 
L 193.313529 220.957673 
L 196.412134 114.900233 
L 200.230146 220.957673 
L 204.060995 220.957673 
L 207.970698 148.251724 
L 211.78541 220.957673 
L 214.887132 114.407561 
L 218.702026 220.957673 
L 222.535626 220.957673 
L 226.441662 220.957673 
L 229.479017 126.451524 
L 233.390004 146.641535 
L 237.22342 220.957673 
L 241.069673 236.078577 
L 244.181848 236.078577 
L 248.028284 236.078577 
L 251.991351 131.394121 
L 255.853742 178.014123 
L 258.921539 220.957673 
L 262.897626 128.812678 
L 266.778905 163.293831 
L 269.925189 158.103463 
L 273.806835 163.293831 
L 277.685179 166.306302 
L 280.828896 220.957673 
L 284.724295 153.734192 
L 288.686446 132.311007 
L 292.565157 163.293831 
L 295.633688 220.957673 
L 299.608491 220.957673 
L 303.506825 220.957673 
L 306.669246 220.957673 
L 310.567213 151.783566 
L 314.445925 163.293831 
L 317.589641 160.577199 
L 321.46817 166.306302 
L 325.430503 220.957673 
L 328.512054 220.957673 
L 332.409837 112.520123 
L 336.364102 220.957673 
L 340.261702 151.783566 
L 343.407986 158.103463 
L 347.289081 220.957673 
L 351.183747 220.957673 
L 354.343051 220.957673 
L 358.237534 153.734192 
L 362.199867 131.394121 
L 365.264913 220.957673 
L 369.162513 220.957673 
L 373.131999 220.957673 
L 376.2163 220.957673 
L 380.191837 220.957673 
L 384.089437 220.957673 
L 387.170987 117.504354 
L 391.133138 132.311007 
L 395.012216 163.293831 
L 398.161801 155.832729 
L 402.040146 220.957673 
L 405.937195 220.957673 
L 409.907048 220.957673 
L 412.991532 116.963566 
L 416.951115 220.957673 
L 420.848348 153.734192 
L 423.913944 220.957673 
" clip-path="url(#p928935e353)" style="fill: none; stroke: #ff7f0e; stroke-width: 1.5; stroke-linecap: square"/>
   </g>
   <g id="line2d_17">
    <path d="M 60.955408 34.898125 
L 64.592972 42.781149 
L 68.330297 53.144136 
L 72.14024 54.251781 
L 75.877747 58.459953 
L 78.928489 62.256941 
L 82.729447 79.527504 
L 86.560663 88.052913 
L 90.469632 90.351443 
L 93.487732 89.117946 
L 97.401837 105.39225 
L 101.233052 113.393644 
L 105.066835 113.105231 
L 108.159755 148.888421 
L 111.993722 132.153609 
L 115.905625 142.398467 
L 119.739592 132.153609 
L 122.757508 132.730451 
L 126.671979 220.957673 
L 130.502828 220.957673 
L 134.417483 220.957673 
L 137.435399 220.957673 
L 141.269182 258.815611 
L 145.181086 220.957673 
L 149.014869 258.815611 
L 152.113841 145.919068 
L 155.947257 258.815611 
L 159.777922 220.957673 
L 163.687442 220.957673 
L 167.519025 220.957673 
L 170.636518 220.957673 
L 174.483321 192.424047 
L 178.332875 220.957673 
L 181.442299 140.792949 
L 185.30799 167.56235 
L 189.251619 220.957673 
L 193.117127 165.583834 
L 196.167319 197.980104 
L 200.113882 258.815611 
L 203.977006 220.957673 
L 207.11082 220.957673 
L 210.973578 220.957673 
L 214.839086 165.583834 
L 218.777213 220.957673 
L 221.829972 192.424047 
L 225.773418 220.957673 
L 229.639293 165.583834 
L 233.502417 169.693203 
L 236.630546 134.536794 
L 240.49367 220.957673 
L 244.439866 132.730451 
L 247.521783 220.957673 
L 251.419383 148.888421 
L 255.389969 174.520601 
L 258.47482 153.4189 
L 262.450724 169.693203 
L 266.349241 147.862843 
L 270.243723 220.957673 
L 273.403394 214.254407 
L 277.298427 220.957673 
L 280.463783 192.424047 
L 284.358449 220.957673 
L 288.256048 220.957673 
L 292.226634 174.520601 
L 295.311302 153.4189 
L 299.287389 169.693203 
L 303.185173 220.957673 
L 306.267457 154.677636 
L 310.246111 167.56235 
L 314.141327 220.957673 
L 317.307233 192.424047 
L 321.202632 220.957673 
L 325.100783 220.957673 
L 328.257703 258.815611 
L 332.155303 220.957673 
L 336.13139 220.957673 
L 339.216241 153.4189 
L 343.111641 220.957673 
L 347.084794 172.001826 
L 350.166711 220.957673 
L 354.145182 220.957673 
L 358.040582 220.957673 
L 361.937815 220.957673 
L 365.095285 228.397857 
L 368.993252 220.957673 
L 372.15659 204.938355 
L 376.053823 220.957673 
L 379.948856 220.957673 
L 383.922559 172.001826 
L 387.00411 220.957673 
L 390.982214 167.56235 
L 394.877247 220.957673 
L 397.961915 153.4189 
L 401.937819 169.693203 
L 405.835418 220.957673 
L 408.998024 204.938355 
L 412.89599 147.862843 
L 416.790839 220.957673 
L 419.951061 214.254407 
L 423.84591 220.957673 
" clip-path="url(#p928935e353)" style="fill: none; stroke: #2ca02c; stroke-width: 1.5; stroke-linecap: square"/>
   </g>
   <g id="line2d_18">
    <path d="M 60.955408 34.898125 
L 64.593523 41.031799 
L 68.346801 50.392146 
L 72.204974 55.284596 
L 75.193549 59.702248 
L 79.072628 65.069219 
L 82.873769 72.242917 
L 86.704618 79.171771 
L 89.800288 88.772952 
L 93.63132 99.422968 
L 97.545791 99.800186 
L 101.377007 106.019634 
L 105.210607 127.748749 
L 108.304077 125.417902 
L 112.138043 153.275258 
L 116.049947 155.079638 
L 119.883913 152.41533 
L 122.901647 152.41533 
L 126.816118 220.957673 
L 130.647883 154.162751 
L 133.749239 151.581309 
L 137.579538 155.079638 
L 141.413137 220.957673 
L 145.335677 220.957673 
L 149.185414 220.957673 
L 152.315928 220.957673 
L 156.181069 221.471202 
L 160.04401 234.280059 
L 163.171589 220.957673 
L 167.034163 258.847207 
L 170.980542 221.471202 
L 174.842933 234.280059 
L 177.894959 220.957673 
L 181.838771 141.961765 
L 185.704095 220.957673 
L 188.835159 220.957673 
L 192.70085 221.471202 
L 196.563241 220.957673 
L 200.504486 220.957673 
L 203.553944 220.957673 
L 207.500324 221.471202 
L 211.362898 220.957673 
L 215.228772 212.747416 
L 218.354151 220.957673 
L 222.219659 220.957673 
L 226.163655 234.280059 
L 229.21623 220.957673 
L 233.079355 258.847207 
L 237.020049 220.957673 
L 240.882807 234.280059 
L 244.015887 220.957673 
L 247.879195 220.957673 
L 251.776428 163.768917 
L 254.933348 174.552197 
L 258.830764 165.07517 
L 262.805752 166.446115 
L 265.890053 163.768917 
L 269.784352 220.957673 
L 273.757321 167.888495 
L 276.838688 166.446115 
L 280.816426 165.07517 
L 284.710725 166.446115 
L 287.794843 163.768917 
L 291.769463 220.957673 
L 295.66688 163.768917 
L 298.829301 167.888495 
L 302.726718 163.768917 
L 306.6212 166.446115 
L 310.593803 169.410166 
L 313.675354 166.446115 
L 317.652541 165.07517 
L 321.547207 220.957673 
L 324.631141 163.768917 
L 328.605945 220.957673 
L 332.502995 220.957673 
L 335.6656 167.888495 
L 339.561916 165.07517 
L 343.456215 220.957673 
L 346.615703 171.020354 
L 350.510002 220.957673 
L 354.487373 165.07517 
L 357.56874 220.957673 
L 361.46579 165.07517 
L 365.435459 171.020354 
L 368.519943 163.768917 
L 372.494563 167.888495 
L 376.391613 163.768917 
L 380.285545 166.446115 
L 383.444483 220.957673 
L 387.338598 166.446115 
L 390.503587 165.07517 
L 394.397336 166.446115 
L 398.294936 220.957673 
L 402.264605 220.957673 
L 405.348356 163.768917 
L 409.322793 167.888495 
L 413.219659 163.768917 
L 416.300659 220.957673 
L 420.278581 165.07517 
L 424.172696 220.957673 
L 427.337685 165.07517 
" clip-path="url(#p928935e353)" style="fill: none; stroke: #d62728; stroke-width: 1.5; stroke-linecap: square"/>
   </g>
   <g id="line2d_19">
    <path d="M 60.955225 34.898125 
L 64.629099 41.703018 
L 67.663153 50.271401 
L 71.46301 55.12766 
L 75.261034 60.243704 
L 79.136261 66.699681 
L 82.934285 72.772611 
L 86.034907 76.105002 
L 89.865205 79.988655 
L 93.697705 84.844042 
L 97.603557 94.230192 
L 100.623491 103.788197 
L 104.535394 102.476787 
L 108.36771 116.485367 
L 112.198559 116.841709 
L 115.29368 136.321588 
L 119.123978 127.412328 
L 123.037166 137.430713 
L 126.867465 143.760283 
L 129.903169 134.908658 
L 133.846248 148.960428 
L 137.710106 156.849437 
L 140.840619 147.839326 
L 144.705027 220.957673 
L 148.566867 220.957673 
L 152.506278 220.957673 
L 155.556103 159.230912 
L 159.501382 222.490618 
L 163.363956 220.957673 
L 167.228731 220.957673 
L 170.353926 220.957673 
L 174.218517 220.957673 
L 178.161596 232.134336 
L 181.213255 220.957673 
L 185.075462 220.957673 
L 189.020925 220.957673 
L 192.883499 220.957673 
L 196.016029 220.957673 
L 199.87897 220.957673 
L 203.743744 156.849437 
L 206.868756 220.957673 
L 210.732981 220.957673 
L 214.676059 232.134336 
L 218.540834 156.099054 
L 221.590659 159.230912 
L 225.536305 222.490618 
L 229.398879 220.957673 
L 232.531226 146.761858 
L 236.3938 220.957673 
L 240.257657 133.894353 
L 244.194868 220.957673 
L 247.24671 157.620724 
L 251.221697 166.811918 
L 255.118197 182.525116 
L 259.012863 220.957673 
L 262.171433 175.738305 
L 266.066283 186.665266 
L 269.230905 167.924012 
L 273.125204 186.665266 
L 277.022254 220.957673 
L 280.992289 170.291901 
L 284.07604 204.977692 
L 288.051211 166.811918 
L 291.94771 182.525116 
L 295.029077 215.351992 
L 299.006265 164.713381 
L 302.901298 142.827958 
L 306.065736 167.924012 
L 309.960586 143.290196 
L 313.857452 182.525116 
L 317.014372 136.686382 
L 320.911239 184.517878 
L 324.886776 137.810519 
L 327.970527 220.957673 
L 331.865376 186.665266 
L 335.837245 169.082651 
L 338.918979 215.351992 
L 342.89635 164.713381 
L 346.791383 186.665266 
L 350.687882 220.957673 
L 353.844986 177.285491 
L 357.741302 184.517878 
L 360.903907 170.291901 
L 364.799673 184.517878 
L 368.693789 186.665266 
L 372.666025 220.957673 
L 375.747392 215.351992 
L 379.724763 164.713381 
L 383.619429 220.957673 
L 386.70318 204.977692 
L 390.678901 220.957673 
L 394.575584 182.525116 
L 397.738189 220.957673 
L 401.635055 184.517878 
L 405.529904 142.827958 
L 408.689208 174.273019 
L 412.583874 220.957673 
L 416.561429 163.720893 
L 419.643346 220.957673 
L 423.539662 184.517878 
L 427.509881 220.957673 
" clip-path="url(#p928935e353)" style="fill: none; stroke: #9467bd; stroke-width: 1.5; stroke-linecap: square"/>
   </g>
   <g id="line2d_20">
    <path d="M 60.970812 34.898125 
L 64.617179 40.953463 
L 67.547622 51.6708 
L 71.395893 57.59256 
L 75.166409 65.22782 
L 79.046587 70.767429 
L 82.848095 73.811428 
L 86.680044 77.95514 
L 89.777916 78.585101 
L 93.609131 86.120104 
L 97.524703 90.023972 
L 101.356468 97.526574 
L 104.377136 98.27961 
L 108.289039 108.615767 
L 112.122456 117.265729 
L 115.221794 122.966976 
L 119.054843 125.911047 
L 122.885509 126.118911 
L 126.793562 132.156704 
L 130.657603 177.560977 
L 133.791233 144.346704 
L 137.654174 180.374302 
L 141.519315 220.957673 
L 144.644511 271.333014 
L 148.509469 220.957673 
L 152.453647 220.957673 
L 156.318605 177.560977 
L 159.368614 220.957673 
L 163.31426 220.957673 
L 167.177384 220.957673 
L 170.310281 198.548268 
L 174.173405 220.957673 
L 178.03873 220.957673 
L 181.976674 220.957673 
L 185.028333 220.957673 
L 188.971962 220.957673 
L 192.836553 220.957673 
L 196.699494 180.374302 
L 199.826706 220.957673 
L 203.689463 181.895973 
L 207.636026 220.957673 
L 210.685851 220.957673 
L 214.550809 220.957673 
L 218.489303 220.957673 
L 222.354261 220.957673 
L 225.485325 220.957673 
L 229.350466 220.957673 
L 233.213223 180.374302 
L 236.340619 220.957673 
L 240.203376 220.957673 
L 244.149206 220.957673 
L 248.01178 180.374302 
L 251.096447 191.087166 
L 255.071618 220.957673 
L 258.968118 220.957673 
L 262.130723 220.957673 
L 266.027589 153.310351 
L 269.922071 271.333014 
L 273.081559 159.530437 
L 276.976408 220.957673 
L 280.953779 220.957673 
L 284.035696 195.831636 
L 287.932379 246.765866 
L 291.902782 220.957673 
L 298.962253 171.570599 
L 302.85912 153.310351 
L 305.940853 198.548268 
L 309.917858 220.957673 
L 313.812707 271.333014 
L 316.976962 156.24609 
L 320.871445 155.034192 
L 324.768311 153.310351 
L 328.738163 176.254724 
L 331.822098 191.087166 
L 335.797085 170.513699 
L 339.693951 153.310351 
L 342.775685 198.548268 
L 346.753056 220.957673 
L 350.647905 271.333014 
L 353.812711 155.633511 
L 357.70701 220.957673 
L 361.603509 233.957009 
L 364.76043 220.957673 
L 368.656746 246.765866 
L 372.631916 170.513699 
L 375.715667 191.087166 
L 379.61015 220.957673 
L 383.582019 220.957673 
L 386.663753 195.831636 
L 390.641674 169.495664 
L 394.53579 271.333014 
L 398.433573 225.233223 
L 401.59086 161.705961 
L 405.487543 233.957009 
L 408.650148 220.957673 
L 412.546648 246.765866 
L 416.440763 271.333014 
L 420.412633 220.957673 
L 423.494183 198.548268 
L 427.471004 220.957673 
" clip-path="url(#p928935e353)" style="fill: none; stroke: #8c564b; stroke-width: 1.5; stroke-linecap: square"/>
   </g>
   <g id="line2d_21">
    <path d="M 60.972463 34.898125 
L 64.613878 41.209898 
L 68.437208 51.242225 
L 72.207541 58.146754 
L 75.195566 67.090509 
L 79.078129 71.350453 
L 82.876886 80.24808 
L 86.791907 87.154954 
L 90.623673 86.381392 
L 93.646725 90.831557 
L 97.559178 94.328211 
L 101.392411 95.8965 
L 104.491383 89.377306 
L 108.324616 88.448578 
L 112.156198 93.27554 
L 116.064984 97.243491 
L 119.896383 102.400891 
L 123.030564 105.014853 
L 126.893321 112.614179 
L 130.757913 117.897105 
L 133.883108 118.43137 
L 137.748983 124.938633 
L 141.693162 127.250222 
L 145.558486 134.405216 
L 148.608678 158.496214 
L 152.555424 153.765288 
L 156.418732 150.146779 
L 159.551629 138.821733 
L 163.41622 185.367712 
L 167.282095 220.957673 
L 171.221323 219.677819 
L 174.274082 156.827792 
L 178.218628 154.252756 
L 182.084319 182.495976 
L 185.947627 220.957673 
L 189.075206 220.957673 
L 192.93888 220.957673 
L 196.884893 196.367979 
L 199.935818 157.928829 
L 203.801143 183.894629 
L 207.740187 156.827792 
L 211.606245 182.495976 
L 214.737309 220.957673 
L 218.602633 220.957673 
L 222.466124 220.957673 
L 225.593887 220.957673 
L 229.457744 220.957673 
L 233.404307 196.367979 
L 237.268165 220.957673 
L 240.320924 220.957673 
L 244.265287 204.108966 
L 248.147849 220.957673 
L 251.311921 178.679749 
L 255.210071 210.813202 
L 259.106021 156.293269 
L 262.265508 186.923595 
L 266.160724 225.467034 
L 270.139746 159.667104 
L 273.222213 140.867093 
L 277.119996 155.254219 
L 281.090582 220.957673 
L 284.988365 155.254219 
L 288.151887 179.894305 
L 292.050588 210.813202 
L 295.946537 219.677819 
L 299.106208 146.571807 
L 303.001424 156.827792 
L 306.980996 258.588146 
L 310.063096 170.507395 
L 313.960329 219.677819 
L 317.931099 220.957673 
L 321.015583 167.97324 
L 324.99222 161.521867 
L 328.88982 210.813202 
L 331.972104 140.867093 
L 335.950942 160.271657 
L 339.846342 156.293269 
L 343.011514 220.957673 
L 346.90728 225.467034 
L 350.805063 220.957673 
L 357.85995 220.957673 
L 361.836221 161.521867 
L 364.920522 167.97324 
L 368.815921 225.467034 
L 372.788524 220.957673 
L 376.684291 220.957673 
L 379.849463 220.957673 
L 383.745596 219.677819 
L 387.643563 155.254219 
L 390.801033 192.196582 
L 394.698816 220.957673 
L 398.675454 160.889706 
L 401.760121 220.957673 
L 405.655521 225.467034 
L 409.628307 220.957673 
L 412.711141 169.636649 
L 416.689429 220.957673 
L 420.584829 219.677819 
L 423.66913 167.97324 
L 427.645767 220.957673 
" clip-path="url(#p928935e353)" style="fill: none; stroke: #e377c2; stroke-width: 1.5; stroke-linecap: square"/>
   </g>
   <g id="line2d_22">
    <path d="M 60.954858 34.898125 
L 64.627632 41.101444 
L 67.664437 49.433182 
L 71.46356 56.461099 
L 75.264335 62.623745 
L 79.144147 69.155356 
L 82.944737 75.023063 
L 86.043526 81.358314 
L 89.877125 83.919233 
L 93.708524 87.47472 
L 97.61731 96.776696 
L 100.635594 102.200503 
L 104.549148 99.236115 
L 108.412089 102.670475 
L 112.277413 105.898595 
L 115.402425 108.782807 
L 119.26775 109.902862 
L 123.211562 120.097898 
L 127.076887 135.066744 
L 130.126529 141.6904 
L 134.072541 147.875602 
L 137.935482 135.729155 
L 141.068196 140.338206 
L 144.931137 149.297606 
L 148.796461 148.224315 
L 152.735139 150.796615 
L 155.787164 164.45654 
L 159.731343 174.179208 
L 163.596301 220.957673 
L 166.646127 220.957673 
L 170.591589 220.957673 
L 174.45453 220.957673 
L 178.400726 220.957673 
L 181.450368 220.957673 
L 185.315326 220.957673 
L 189.254003 220.957673 
L 192.305846 220.957673 
L 196.249658 220.957673 
L 200.114799 173.297368 
L 203.978473 176.031901 
L 207.105686 168.525574 
L 214.915006 170.808799 
L 217.964831 220.957673 
L 221.829422 175.090061 
L 225.773234 173.297368 
L 229.638192 220.957673 
L 232.768889 164.45654 
L 236.633663 220.957673 
L 240.496788 176.031901 
L 244.437482 220.957673 
L 247.519216 176.031901 
L 251.496587 180.156603 
L 255.391619 152.79225 
L 258.47482 173.297368 
L 262.450908 182.474896 
L 266.347957 182.474896 
L 269.510562 172.44275 
L 273.407245 220.957673 
L 277.302095 185.005188 
L 280.461399 220.957673 
L 284.355881 187.790191 
L 288.333069 220.957673 
L 291.414802 220.957673 
L 295.311302 185.005188 
L 299.281705 190.886983 
L 302.365639 173.297368 
L 306.340809 183.711148 
L 310.237859 182.474896 
L 314.132158 152.79225 
L 317.291279 177.006911 
L 321.186128 153.209237 
L 324.351117 170.026616 
L 328.245233 220.957673 
L 332.142099 220.957673 
L 336.112135 192.575764 
L 339.196803 220.957673 
L 343.171423 220.957673 
L 347.067739 220.957673 
L 350.149473 176.031901 
L 354.126661 220.957673 
L 358.021143 220.957673 
L 361.185399 220.957673 
L 365.079881 187.790191 
L 368.976931 182.474896 
L 372.133851 181.291492 
L 376.030534 183.711148 
L 380.006255 182.474896 
L 383.090189 172.44275 
L 386.985038 220.957673 
L 390.957274 220.957673 
L 394.038825 176.031901 
L 398.016012 220.957673 
L 401.910128 220.957673 
L 405.806444 220.957673 
L 408.963364 180.156603 
L 412.859681 220.957673 
L 416.022469 172.44275 
L 419.918785 185.005188 
L 423.813084 152.79225 
" clip-path="url(#p928935e353)" style="fill: none; stroke: #7f7f7f; stroke-width: 1.5; stroke-linecap: square"/>
   </g>
   <g id="line2d_23">
    <path d="M 60.955041 34.898125 
L 64.624331 40.35565 
L 68.392463 49.640953 
L 72.26549 56.666338 
L 75.253332 64.690392 
L 79.13186 71.259487 
L 82.931901 79.519942 
L 86.76275 85.511836 
L 89.85787 94.083292 
L 93.688536 94.6647 
L 97.60154 94.39484 
L 101.432205 94.619541 
L 105.296613 97.120702 
L 108.421625 94.709934 
L 112.286216 105.340578 
L 116.229294 99.491237 
L 119.28077 100.31029 
L 123.142977 102.500617 
L 127.082755 108.580096 
L 130.944412 112.679307 
L 134.076759 123.966303 
L 137.938966 137.670466 
L 141.803741 171.205498 
L 144.928569 220.957673 
L 148.79261 220.957673 
L 152.736056 245.899016 
L 156.599913 220.957673 
L 159.649188 220.957673 
L 163.594101 220.957673 
L 167.455941 220.957673 
L 170.588105 220.957673 
L 174.450312 220.957673 
L 178.314353 220.957673 
L 182.25193 220.957673 
L 185.303589 220.957673 
L 189.246668 220.957673 
L 193.110526 220.957673 
L 196.972549 220.957673 
L 200.099395 220.957673 
L 203.961969 220.957673 
L 207.907065 220.957673 
L 210.956707 220.957673 
L 214.821298 220.957673 
L 218.764926 220.957673 
L 222.628601 220.957673 
L 225.75838 220.957673 
L 229.622605 220.957673 
L 233.484445 220.957673 
L 236.611474 220.957673 
L 240.473865 220.957673 
L 244.418777 220.957673 
L 248.312893 220.957673 
L 251.396277 220.957673 
L 255.370714 220.957673 
L 259.267214 220.957673 
L 262.429635 220.957673 
L 266.326135 220.957673 
L 270.22025 220.957673 
L 273.379188 220.957673 
L 277.273854 220.957673 
L 281.250491 220.957673 
L 284.331675 220.957673 
L 288.227808 220.957673 
L 292.197293 220.957673 
L 295.281044 220.957673 
L 299.256215 220.957673 
L 303.152347 220.957673 
L 307.046646 220.957673 
L 310.205034 186.026647 
L 314.099516 220.957673 
L 317.263588 220.957673 
L 321.157887 220.957673 
L 325.05402 220.957673 
L 329.023873 171.205498 
L 332.10744 220.957673 
L 336.082427 220.957673 
L 339.978743 220.957673 
L 343.059743 220.957673 
L 347.036381 286.498125 
L 350.930497 177.635967 
L 354.094936 220.957673 
L 357.988501 220.957673 
L 361.884451 220.957673 
L 365.041371 220.957673 
L 368.93732 220.957673 
L 372.911941 220.957673 
L 375.995325 200.088543 
L 379.889257 220.957673 
L 383.860943 220.957673 
L 386.942677 206.988689 
L 390.919681 259.341481 
L 394.814347 176.74562 
L 398.70993 220.957673 
L 401.866666 189.9699 
L 405.762799 220.957673 
L 408.941909 220.957673 
L 412.854729 212.777904 
L 416.78112 220.957673 
L 419.972516 220.957673 
L 423.898174 182.575617 
" clip-path="url(#p928935e353)" style="fill: none; stroke: #bcbd22; stroke-width: 1.5; stroke-linecap: square"/>
   </g>
   <g id="line2d_24">
    <path d="M 60.954858 34.898125 
L 64.628732 40.1033 
L 68.491856 49.390218 
L 72.292263 57.317438 
L 75.278272 62.611879 
L 79.158817 70.387107 
L 82.957758 73.752915 
L 86.870762 82.508244 
L 89.889228 90.445127 
L 93.721728 91.637022 
L 97.633815 96.905881 
L 101.498773 102.311553 
L 104.629836 106.650228 
L 108.494427 108.150031 
L 112.357551 108.21712 
L 116.297329 101.934261 
L 119.347704 104.279217 
L 123.292434 107.033716 
L 127.155558 108.21712 
L 130.207767 117.273772 
L 134.151579 128.771554 
L 138.01617 140.12514 
L 141.960349 146.292782 
L 145.011825 162.898547 
L 148.875682 179.680892 
L 152.81546 229.290111 
L 156.679134 220.957673 
L 159.812948 179.680892 
L 163.676439 220.957673 
L 167.541397 220.957673 
L 170.667142 196.168999 
L 174.53155 177.960622 
L 178.476096 205.678896 
L 182.340504 220.957673 
L 185.390879 220.957673 
L 189.336158 205.678896 
L 193.199833 220.957673 
L 196.332546 181.515167 
L 200.195854 220.957673 
L 204.060445 220.957673 
L 207.999489 220.957673 
L 211.051148 220.957673 
L 214.995327 210.636282 
L 218.859918 220.957673 
L 221.910477 164.390152 
L 225.85594 220.957673 
L 229.719247 220.957673 
L 233.664526 203.497656 
L 236.714535 220.957673 
L 240.578759 220.957673 
L 244.51707 220.957673 
L 247.600637 162.898547 
L 251.576725 210.636282 
L 255.473041 220.957673 
L 259.368257 220.957673 
L 262.527378 220.957673 
L 266.422777 220.957673 
L 269.586666 220.957673 
L 273.482065 178.807399 
L 277.378748 220.957673 
L 281.349334 235.20343 
L 284.432718 163.386874 
L 288.408072 210.636282 
L 292.304572 176.341012 
L 295.386489 220.957673 
L 299.363493 220.957673 
L 303.258892 220.957673 
L 306.423148 181.515167 
L 310.318547 220.957673 
L 314.214863 220.957673 
L 317.372334 196.168999 
L 321.268833 220.957673 
L 325.244187 208.046786 
L 328.327755 162.898547 
L 332.222971 179.680892 
L 336.194657 224.42015 
L 339.276941 164.390152 
L 343.253945 220.957673 
L 347.148244 220.957673 
L 351.04456 220.957673 
L 354.202031 196.168999 
L 358.098347 220.957673 
L 362.074618 220.957673 
L 365.159102 161.946995 
L 369.054135 220.957673 
L 373.025821 224.42015 
L 376.107921 220.957673 
L 380.084925 205.678896 
L 383.979775 220.957673 
L 387.078746 220.957673 
L 391.086375 208.046786 
L 395.01405 220.957673 
L 398.208747 220.957673 
L 402.136605 220.957673 
L 406.062629 178.807399 
L 409.252924 193.123357 
L 413.179499 220.957673 
L 416.375296 181.515167 
L 420.302054 220.957673 
L 424.229728 220.957673 
L 427.419107 196.168999 
" clip-path="url(#p928935e353)" style="fill: none; stroke: #17becf; stroke-width: 1.5; stroke-linecap: square"/>
   </g>
   <g id="patch_3">
    <path d="M 42.620313 299.078125 
L 42.620313 22.318125 
" style="fill: none; stroke: #000000; stroke-width: 0.8; stroke-linejoin: miter; stroke-linecap: square"/>
   </g>
   <g id="patch_4">
    <path d="M 445.980313 299.078125 
L 445.980313 22.318125 
" style="fill: none; stroke: #000000; stroke-width: 0.8; stroke-linejoin: miter; stroke-linecap: square"/>
   </g>
   <g id="patch_5">
    <path d="M 42.620313 299.078125 
L 445.980313 299.078125 
" style="fill: none; stroke: #000000; stroke-width: 0.8; stroke-linejoin: miter; stroke-linecap: square"/>
   </g>
   <g id="patch_6">
    <path d="M 42.620313 22.318125 
L 445.980313 22.318125 
" style="fill: none; stroke: #000000; stroke-width: 0.8; stroke-linejoin: miter; stroke-linecap: square"/>
   </g>
   <g id="text_18">
    <!-- Left: ln(1-Vact/Vset) vs. time -->
    <g transform="translate(159.08625 16.318125) scale(0.12 -0.12)">
     <defs>
      <path id="DejaVuSans-4c" d="M 628 4666 
L 1259 4666 
L 1259 531 
L 3531 531 
L 3531 0 
L 628 0 
L 628 4666 
z
" transform="scale(0.015625)"/>
      <path id="DejaVuSans-66" d="M 2375 4863 
L 2375 4384 
L 1825 4384 
Q 1516 4384 1395 4259 
Q 1275 4134 1275 3809 
L 1275 3500 
L 2222 3500 
L 2222 3053 
L 1275 3053 
L 1275 0 
L 697 0 
L 697 3053 
L 147 3053 
L 147 3500 
L 697 3500 
L 697 3744 
Q 697 4328 969 4595 
Q 1241 4863 1831 4863 
L 2375 4863 
z
" transform="scale(0.015625)"/>
      <path id="DejaVuSans-3a" d="M 750 794 
L 1409 794 
L 1409 0 
L 750 0 
L 750 794 
z
M 750 3309 
L 1409 3309 
L 1409 2516 
L 750 2516 
L 750 3309 
z
" transform="scale(0.015625)"/>
      <path id="DejaVuSans-76" d="M 191 3500 
L 800 3500 
L 1894 563 
L 2988 3500 
L 3597 3500 
L 2284 0 
L 1503 0 
L 191 3500 
z
" transform="scale(0.015625)"/>
     </defs>
     <use xlink:href="#DejaVuSans-4c"/>
     <use xlink:href="#DejaVuSans-65" transform="translate(53.962891 0)"/>
     <use xlink:href="#DejaVuSans-66" transform="translate(115.486328 0)"/>
     <use xlink:href="#DejaVuSans-74" transform="translate(148.941406 0)"/>
     <use xlink:href="#DejaVuSans-3a" transform="translate(188.150391 0)"/>
     <use xlink:href="#DejaVuSans-20" transform="translate(221.841797 0)"/>
     <use xlink:href="#DejaVuSans-6c" transform="translate(253.628906 0)"/>
     <use xlink:href="#DejaVuSans-6e" transform="translate(281.412109 0)"/>
     <use xlink:href="#DejaVuSans-28" transform="translate(344.791016 0)"/>
     <use xlink:href="#DejaVuSans-31" transform="translate(383.804688 0)"/>
     <use xlink:href="#DejaVuSans-2d" transform="translate(447.427734 0)"/>
     <use xlink:href="#DejaVuSans-56" transform="translate(477.636719 0)"/>
     <use xlink:href="#DejaVuSans-61" transform="translate(538.294922 0)"/>
     <use xlink:href="#DejaVuSans-63" transform="translate(599.574219 0)"/>
     <use xlink:href="#DejaVuSans-74" transform="translate(654.554688 0)"/>
     <use xlink:href="#DejaVuSans-2f" transform="translate(693.763672 0)"/>
     <use xlink:href="#DejaVuSans-56" transform="translate(727.455078 0)"/>
     <use xlink:href="#DejaVuSans-73" transform="translate(795.863281 0)"/>
     <use xlink:href="#DejaVuSans-65" transform="translate(847.962891 0)"/>
     <use xlink:href="#DejaVuSans-74" transform="translate(909.486328 0)"/>
     <use xlink:href="#DejaVuSans-29" transform="translate(948.695312 0)"/>
     <use xlink:href="#DejaVuSans-20" transform="translate(987.708984 0)"/>
     <use xlink:href="#DejaVuSans-76" transform="translate(1019.496094 0)"/>
     <use xlink:href="#DejaVuSans-73" transform="translate(1078.675781 0)"/>
     <use xlink:href="#DejaVuSans-2e" transform="translate(1130.775391 0)"/>
     <use xlink:href="#DejaVuSans-20" transform="translate(1162.5625 0)"/>
     <use xlink:href="#DejaVuSans-74" transform="translate(1194.349609 0)"/>
     <use xlink:href="#DejaVuSans-69" transform="translate(1233.558594 0)"/>
     <use xlink:href="#DejaVuSans-6d" transform="translate(1261.341797 0)"/>
     <use xlink:href="#DejaVuSans-65" transform="translate(1358.753906 0)"/>
    </g>
   </g>
   <g id="legend_1">
    <g id="patch_7">
     <path d="M 345.813125 177.099375 
L 438.980313 177.099375 
Q 440.980313 177.099375 440.980313 175.099375 
L 440.980313 29.318125 
Q 440.980313 27.318125 438.980313 27.318125 
L 345.813125 27.318125 
Q 343.813125 27.318125 343.813125 29.318125 
L 343.813125 175.099375 
Q 343.813125 177.099375 345.813125 177.099375 
z
" style="fill: #ffffff; opacity: 0.8; stroke: #cccccc; stroke-linejoin: miter"/>
    </g>
    <g id="line2d_25">
     <path d="M 347.813125 35.416562 
L 357.813125 35.416562 
L 367.813125 35.416562 
" style="fill: none; stroke: #1f77b4; stroke-width: 1.5; stroke-linecap: square"/>
    </g>
    <g id="text_19">
     <!-- effort = 10 -->
     <g transform="translate(375.813125 38.916562) scale(0.1 -0.1)">
      <defs>
       <path id="DejaVuSans-6f" d="M 1959 3097 
Q 1497 3097 1228 2736 
Q 959 2375 959 1747 
Q 959 1119 1226 758 
Q 1494 397 1959 397 
Q 2419 397 2687 759 
Q 2956 1122 2956 1747 
Q 2956 2369 2687 2733 
Q 2419 3097 1959 3097 
z
M 1959 3584 
Q 2709 3584 3137 3096 
Q 3566 2609 3566 1747 
Q 3566 888 3137 398 
Q 2709 -91 1959 -91 
Q 1206 -91 779 398 
Q 353 888 353 1747 
Q 353 2609 779 3096 
Q 1206 3584 1959 3584 
z
" transform="scale(0.015625)"/>
       <path id="DejaVuSans-72" d="M 2631 2963 
Q 2534 3019 2420 3045 
Q 2306 3072 2169 3072 
Q 1681 3072 1420 2755 
Q 1159 2438 1159 1844 
L 1159 0 
L 581 0 
L 581 3500 
L 1159 3500 
L 1159 2956 
Q 1341 3275 1631 3429 
Q 1922 3584 2338 3584 
Q 2397 3584 2469 3576 
Q 2541 3569 2628 3553 
L 2631 2963 
z
" transform="scale(0.015625)"/>
       <path id="DejaVuSans-3d" d="M 678 2906 
L 4684 2906 
L 4684 2381 
L 678 2381 
L 678 2906 
z
M 678 1631 
L 4684 1631 
L 4684 1100 
L 678 1100 
L 678 1631 
z
" transform="scale(0.015625)"/>
      </defs>
      <use xlink:href="#DejaVuSans-65"/>
      <use xlink:href="#DejaVuSans-66" transform="translate(61.523438 0)"/>
      <use xlink:href="#DejaVuSans-66" transform="translate(96.728516 0)"/>
      <use xlink:href="#DejaVuSans-6f" transform="translate(131.933594 0)"/>
      <use xlink:href="#DejaVuSans-72" transform="translate(193.115234 0)"/>
      <use xlink:href="#DejaVuSans-74" transform="translate(234.228516 0)"/>
      <use xlink:href="#DejaVuSans-20" transform="translate(273.4375 0)"/>
      <use xlink:href="#DejaVuSans-3d" transform="translate(305.224609 0)"/>
      <use xlink:href="#DejaVuSans-20" transform="translate(389.013672 0)"/>
      <use xlink:href="#DejaVuSans-31" transform="translate(420.800781 0)"/>
      <use xlink:href="#DejaVuSans-30" transform="translate(484.423828 0)"/>
     </g>
    </g>
    <g id="line2d_26">
     <path d="M 347.813125 50.094687 
L 357.813125 50.094687 
L 367.813125 50.094687 
" style="fill: none; stroke: #ff7f0e; stroke-width: 1.5; stroke-linecap: square"/>
    </g>
    <g id="text_20">
     <!-- effort = 20 -->
     <g transform="translate(375.813125 53.594687) scale(0.1 -0.1)">
      <use xlink:href="#DejaVuSans-65"/>
      <use xlink:href="#DejaVuSans-66" transform="translate(61.523438 0)"/>
      <use xlink:href="#DejaVuSans-66" transform="translate(96.728516 0)"/>
      <use xlink:href="#DejaVuSans-6f" transform="translate(131.933594 0)"/>
      <use xlink:href="#DejaVuSans-72" transform="translate(193.115234 0)"/>
      <use xlink:href="#DejaVuSans-74" transform="translate(234.228516 0)"/>
      <use xlink:href="#DejaVuSans-20" transform="translate(273.4375 0)"/>
      <use xlink:href="#DejaVuSans-3d" transform="translate(305.224609 0)"/>
      <use xlink:href="#DejaVuSans-20" transform="translate(389.013672 0)"/>
      <use xlink:href="#DejaVuSans-32" transform="translate(420.800781 0)"/>
      <use xlink:href="#DejaVuSans-30" transform="translate(484.423828 0)"/>
     </g>
    </g>
    <g id="line2d_27">
     <path d="M 347.813125 64.772812 
L 357.813125 64.772812 
L 367.813125 64.772812 
" style="fill: none; stroke: #2ca02c; stroke-width: 1.5; stroke-linecap: square"/>
    </g>
    <g id="text_21">
     <!-- effort = 30 -->
     <g transform="translate(375.813125 68.272812) scale(0.1 -0.1)">
      <defs>
       <path id="DejaVuSans-33" d="M 2597 2516 
Q 3050 2419 3304 2112 
Q 3559 1806 3559 1356 
Q 3559 666 3084 287 
Q 2609 -91 1734 -91 
Q 1441 -91 1130 -33 
Q 819 25 488 141 
L 488 750 
Q 750 597 1062 519 
Q 1375 441 1716 441 
Q 2309 441 2620 675 
Q 2931 909 2931 1356 
Q 2931 1769 2642 2001 
Q 2353 2234 1838 2234 
L 1294 2234 
L 1294 2753 
L 1863 2753 
Q 2328 2753 2575 2939 
Q 2822 3125 2822 3475 
Q 2822 3834 2567 4026 
Q 2313 4219 1838 4219 
Q 1578 4219 1281 4162 
Q 984 4106 628 3988 
L 628 4550 
Q 988 4650 1302 4700 
Q 1616 4750 1894 4750 
Q 2613 4750 3031 4423 
Q 3450 4097 3450 3541 
Q 3450 3153 3228 2886 
Q 3006 2619 2597 2516 
z
" transform="scale(0.015625)"/>
      </defs>
      <use xlink:href="#DejaVuSans-65"/>
      <use xlink:href="#DejaVuSans-66" transform="translate(61.523438 0)"/>
      <use xlink:href="#DejaVuSans-66" transform="translate(96.728516 0)"/>
      <use xlink:href="#DejaVuSans-6f" transform="translate(131.933594 0)"/>
      <use xlink:href="#DejaVuSans-72" transform="translate(193.115234 0)"/>
      <use xlink:href="#DejaVuSans-74" transform="translate(234.228516 0)"/>
      <use xlink:href="#DejaVuSans-20" transform="translate(273.4375 0)"/>
      <use xlink:href="#DejaVuSans-3d" transform="translate(305.224609 0)"/>
      <use xlink:href="#DejaVuSans-20" transform="translate(389.013672 0)"/>
      <use xlink:href="#DejaVuSans-33" transform="translate(420.800781 0)"/>
      <use xlink:href="#DejaVuSans-30" transform="translate(484.423828 0)"/>
     </g>
    </g>
    <g id="line2d_28">
     <path d="M 347.813125 79.450937 
L 357.813125 79.450937 
L 367.813125 79.450937 
" style="fill: none; stroke: #d62728; stroke-width: 1.5; stroke-linecap: square"/>
    </g>
    <g id="text_22">
     <!-- effort = 40 -->
     <g transform="translate(375.813125 82.950937) scale(0.1 -0.1)">
      <use xlink:href="#DejaVuSans-65"/>
      <use xlink:href="#DejaVuSans-66" transform="translate(61.523438 0)"/>
      <use xlink:href="#DejaVuSans-66" transform="translate(96.728516 0)"/>
      <use xlink:href="#DejaVuSans-6f" transform="translate(131.933594 0)"/>
      <use xlink:href="#DejaVuSans-72" transform="translate(193.115234 0)"/>
      <use xlink:href="#DejaVuSans-74" transform="translate(234.228516 0)"/>
      <use xlink:href="#DejaVuSans-20" transform="translate(273.4375 0)"/>
      <use xlink:href="#DejaVuSans-3d" transform="translate(305.224609 0)"/>
      <use xlink:href="#DejaVuSans-20" transform="translate(389.013672 0)"/>
      <use xlink:href="#DejaVuSans-34" transform="translate(420.800781 0)"/>
      <use xlink:href="#DejaVuSans-30" transform="translate(484.423828 0)"/>
     </g>
    </g>
    <g id="line2d_29">
     <path d="M 347.813125 94.129062 
L 357.813125 94.129062 
L 367.813125 94.129062 
" style="fill: none; stroke: #9467bd; stroke-width: 1.5; stroke-linecap: square"/>
    </g>
    <g id="text_23">
     <!-- effort = 50 -->
     <g transform="translate(375.813125 97.629062) scale(0.1 -0.1)">
      <use xlink:href="#DejaVuSans-65"/>
      <use xlink:href="#DejaVuSans-66" transform="translate(61.523438 0)"/>
      <use xlink:href="#DejaVuSans-66" transform="translate(96.728516 0)"/>
      <use xlink:href="#DejaVuSans-6f" transform="translate(131.933594 0)"/>
      <use xlink:href="#DejaVuSans-72" transform="translate(193.115234 0)"/>
      <use xlink:href="#DejaVuSans-74" transform="translate(234.228516 0)"/>
      <use xlink:href="#DejaVuSans-20" transform="translate(273.4375 0)"/>
      <use xlink:href="#DejaVuSans-3d" transform="translate(305.224609 0)"/>
      <use xlink:href="#DejaVuSans-20" transform="translate(389.013672 0)"/>
      <use xlink:href="#DejaVuSans-35" transform="translate(420.800781 0)"/>
      <use xlink:href="#DejaVuSans-30" transform="translate(484.423828 0)"/>
     </g>
    </g>
    <g id="line2d_30">
     <path d="M 347.813125 108.807187 
L 357.813125 108.807187 
L 367.813125 108.807187 
" style="fill: none; stroke: #8c564b; stroke-width: 1.5; stroke-linecap: square"/>
    </g>
    <g id="text_24">
     <!-- effort = 60 -->
     <g transform="translate(375.813125 112.307187) scale(0.1 -0.1)">
      <use xlink:href="#DejaVuSans-65"/>
      <use xlink:href="#DejaVuSans-66" transform="translate(61.523438 0)"/>
      <use xlink:href="#DejaVuSans-66" transform="translate(96.728516 0)"/>
      <use xlink:href="#DejaVuSans-6f" transform="translate(131.933594 0)"/>
      <use xlink:href="#DejaVuSans-72" transform="translate(193.115234 0)"/>
      <use xlink:href="#DejaVuSans-74" transform="translate(234.228516 0)"/>
      <use xlink:href="#DejaVuSans-20" transform="translate(273.4375 0)"/>
      <use xlink:href="#DejaVuSans-3d" transform="translate(305.224609 0)"/>
      <use xlink:href="#DejaVuSans-20" transform="translate(389.013672 0)"/>
      <use xlink:href="#DejaVuSans-36" transform="translate(420.800781 0)"/>
      <use xlink:href="#DejaVuSans-30" transform="translate(484.423828 0)"/>
     </g>
    </g>
    <g id="line2d_31">
     <path d="M 347.813125 123.485312 
L 357.813125 123.485312 
L 367.813125 123.485312 
" style="fill: none; stroke: #e377c2; stroke-width: 1.5; stroke-linecap: square"/>
    </g>
    <g id="text_25">
     <!-- effort = 70 -->
     <g transform="translate(375.813125 126.985312) scale(0.1 -0.1)">
      <use xlink:href="#DejaVuSans-65"/>
      <use xlink:href="#DejaVuSans-66" transform="translate(61.523438 0)"/>
      <use xlink:href="#DejaVuSans-66" transform="translate(96.728516 0)"/>
      <use xlink:href="#DejaVuSans-6f" transform="translate(131.933594 0)"/>
      <use xlink:href="#DejaVuSans-72" transform="translate(193.115234 0)"/>
      <use xlink:href="#DejaVuSans-74" transform="translate(234.228516 0)"/>
      <use xlink:href="#DejaVuSans-20" transform="translate(273.4375 0)"/>
      <use xlink:href="#DejaVuSans-3d" transform="translate(305.224609 0)"/>
      <use xlink:href="#DejaVuSans-20" transform="translate(389.013672 0)"/>
      <use xlink:href="#DejaVuSans-37" transform="translate(420.800781 0)"/>
      <use xlink:href="#DejaVuSans-30" transform="translate(484.423828 0)"/>
     </g>
    </g>
    <g id="line2d_32">
     <path d="M 347.813125 138.163437 
L 357.813125 138.163437 
L 367.813125 138.163437 
" style="fill: none; stroke: #7f7f7f; stroke-width: 1.5; stroke-linecap: square"/>
    </g>
    <g id="text_26">
     <!-- effort = 80 -->
     <g transform="translate(375.813125 141.663437) scale(0.1 -0.1)">
      <use xlink:href="#DejaVuSans-65"/>
      <use xlink:href="#DejaVuSans-66" transform="translate(61.523438 0)"/>
      <use xlink:href="#DejaVuSans-66" transform="translate(96.728516 0)"/>
      <use xlink:href="#DejaVuSans-6f" transform="translate(131.933594 0)"/>
      <use xlink:href="#DejaVuSans-72" transform="translate(193.115234 0)"/>
      <use xlink:href="#DejaVuSans-74" transform="translate(234.228516 0)"/>
      <use xlink:href="#DejaVuSans-20" transform="translate(273.4375 0)"/>
      <use xlink:href="#DejaVuSans-3d" transform="translate(305.224609 0)"/>
      <use xlink:href="#DejaVuSans-20" transform="translate(389.013672 0)"/>
      <use xlink:href="#DejaVuSans-38" transform="translate(420.800781 0)"/>
      <use xlink:href="#DejaVuSans-30" transform="translate(484.423828 0)"/>
     </g>
    </g>
    <g id="line2d_33">
     <path d="M 347.813125 152.841562 
L 357.813125 152.841562 
L 367.813125 152.841562 
" style="fill: none; stroke: #bcbd22; stroke-width: 1.5; stroke-linecap: square"/>
    </g>
    <g id="text_27">
     <!-- effort = 90 -->
     <g transform="translate(375.813125 156.341562) scale(0.1 -0.1)">
      <defs>
       <path id="DejaVuSans-39" d="M 703 97 
L 703 672 
Q 941 559 1184 500 
Q 1428 441 1663 441 
Q 2288 441 2617 861 
Q 2947 1281 2994 2138 
Q 2813 1869 2534 1725 
Q 2256 1581 1919 1581 
Q 1219 1581 811 2004 
Q 403 2428 403 3163 
Q 403 3881 828 4315 
Q 1253 4750 1959 4750 
Q 2769 4750 3195 4129 
Q 3622 3509 3622 2328 
Q 3622 1225 3098 567 
Q 2575 -91 1691 -91 
Q 1453 -91 1209 -44 
Q 966 3 703 97 
z
M 1959 2075 
Q 2384 2075 2632 2365 
Q 2881 2656 2881 3163 
Q 2881 3666 2632 3958 
Q 2384 4250 1959 4250 
Q 1534 4250 1286 3958 
Q 1038 3666 1038 3163 
Q 1038 2656 1286 2365 
Q 1534 2075 1959 2075 
z
" transform="scale(0.015625)"/>
      </defs>
      <use xlink:href="#DejaVuSans-65"/>
      <use xlink:href="#DejaVuSans-66" transform="translate(61.523438 0)"/>
      <use xlink:href="#DejaVuSans-66" transform="translate(96.728516 0)"/>
      <use xlink:href="#DejaVuSans-6f" transform="translate(131.933594 0)"/>
      <use xlink:href="#DejaVuSans-72" transform="translate(193.115234 0)"/>
      <use xlink:href="#DejaVuSans-74" transform="translate(234.228516 0)"/>
      <use xlink:href="#DejaVuSans-20" transform="translate(273.4375 0)"/>
      <use xlink:href="#DejaVuSans-3d" transform="translate(305.224609 0)"/>
      <use xlink:href="#DejaVuSans-20" transform="translate(389.013672 0)"/>
      <use xlink:href="#DejaVuSans-39" transform="translate(420.800781 0)"/>
      <use xlink:href="#DejaVuSans-30" transform="translate(484.423828 0)"/>
     </g>
    </g>
    <g id="line2d_34">
     <path d="M 347.813125 167.519687 
L 357.813125 167.519687 
L 367.813125 167.519687 
" style="fill: none; stroke: #17becf; stroke-width: 1.5; stroke-linecap: square"/>
    </g>
    <g id="text_28">
     <!-- effort = 100 -->
     <g transform="translate(375.813125 171.019687) scale(0.1 -0.1)">
      <use xlink:href="#DejaVuSans-65"/>
      <use xlink:href="#DejaVuSans-66" transform="translate(61.523438 0)"/>
      <use xlink:href="#DejaVuSans-66" transform="translate(96.728516 0)"/>
      <use xlink:href="#DejaVuSans-6f" transform="translate(131.933594 0)"/>
      <use xlink:href="#DejaVuSans-72" transform="translate(193.115234 0)"/>
      <use xlink:href="#DejaVuSans-74" transform="translate(234.228516 0)"/>
      <use xlink:href="#DejaVuSans-20" transform="translate(273.4375 0)"/>
      <use xlink:href="#DejaVuSans-3d" transform="translate(305.224609 0)"/>
      <use xlink:href="#DejaVuSans-20" transform="translate(389.013672 0)"/>
      <use xlink:href="#DejaVuSans-31" transform="translate(420.800781 0)"/>
      <use xlink:href="#DejaVuSans-30" transform="translate(484.423828 0)"/>
      <use xlink:href="#DejaVuSans-30" transform="translate(548.046875 0)"/>
     </g>
    </g>
   </g>
  </g>
 </g>
 <defs>
  <clipPath id="p928935e353">
   <rect x="42.620313" y="22.318125" width="403.36" height="276.76"/>
  </clipPath>
 </defs>
</svg>
