<svg width="1920" height="1920" xmlns="http://www.w3.org/2000/svg" xmlns:xlink="http://www.w3.org/1999/xlink" overflow="hidden"><g><rect x="0" y="0" width="1920" height="1920" fill="#D9D9D9"/><path d="M843 380 884.6 334 1009.4 334 1051 380 1009.4 426 884.6 426Z" stroke="#000000" stroke-width="2" stroke-miterlimit="8" fill="#FFFFFF" fill-rule="evenodd"/><text font-family="Times New Roman,Times New Roman_MSFontService,sans-serif" font-weight="400" font-size="24" transform="translate(895.742 374)">User Input</text><text font-family="Times New Roman,Times New Roman_MSFontService,sans-serif" font-weight="400" font-size="24" transform="translate(924.242 403)">Task</text><path d="M948 426 948 489.897 946 489.897 946 426ZM952.531 482.401 947 491.882 941.47 482.401C941.191 481.924 941.352 481.312 941.83 481.034 942.307 480.755 942.919 480.916 943.197 481.393L947.864 489.393 946.136 489.393 950.803 481.393C951.081 480.916 951.694 480.755 952.171 481.033 952.648 481.312 952.809 481.924 952.531 482.401Z"/><rect x="843" y="492" width="208" height="92" stroke="#000000" stroke-width="2" stroke-miterlimit="8" fill="#FFFFFF"/><text font-family="Times New Roman,Times New Roman_MSFontService,sans-serif" font-weight="400" font-size="24" transform="translate(866.076 532)">Check</text><text font-family="Times New Roman,Times New Roman_MSFontService,sans-serif" font-weight="400" font-size="24" transform="translate(933.409 532)">for Inputs</text><text font-family="Times New Roman,Times New Roman_MSFontService,sans-serif" font-weight="400" font-size="24" transform="translate(888.462 561)">from UART</text><rect x="843" y="650" width="208" height="92" stroke="#000000" stroke-width="2" stroke-miterlimit="8" fill="#FFFFFF"/><text font-family="Times New Roman,Times New Roman_MSFontService,sans-serif" font-weight="400" font-size="24" transform="translate(875.409 690)">Pop</text><text font-family="Times New Roman,Times New Roman_MSFontService,sans-serif" font-weight="400" font-size="24" transform="translate(918.742 690)">Cmd</text><text font-family="Times New Roman,Times New Roman_MSFontService,sans-serif" font-weight="400" font-size="24" transform="translate(971.409 690)">from</text><text font-family="Times New Roman,Times New Roman_MSFontService,sans-serif" font-weight="400" font-size="24" transform="translate(915.409 719)">Queu</text><text font-family="Times New Roman,Times New Roman_MSFontService,sans-serif" font-weight="400" font-size="24" transform="translate(967.409 719)">e</text><path d="M948 584 948 647.897 946 647.897 946 584ZM952.531 640.401 947 649.882 941.47 640.401C941.191 639.924 941.352 639.312 941.83 639.034 942.307 638.755 942.919 638.916 943.197 639.393L947.864 647.393 946.136 647.393 950.803 639.393C951.081 638.916 951.694 638.755 952.171 639.034 952.648 639.312 952.809 639.924 952.531 640.401Z"/><text font-family="Times New Roman,Times New Roman_MSFontService,sans-serif" font-weight="400" font-size="24" transform="translate(1096.14 612)">T</text><text font-family="Times New Roman,Times New Roman_MSFontService,sans-serif" font-weight="400" font-size="24" transform="translate(923.266 619)">F</text><rect x="1120" y="650" width="208" height="92" stroke="#000000" stroke-width="2" stroke-miterlimit="8" fill="#FFFFFF"/><text font-family="Times New Roman,Times New Roman_MSFontService,sans-serif" font-weight="400" font-size="24" transform="translate(1136.31 690)">Add Input to</text><text font-family="Times New Roman,Times New Roman_MSFontService,sans-serif" font-weight="400" font-size="24" transform="translate(1264.98 690)">Cmd</text><text font-family="Times New Roman,Times New Roman_MSFontService,sans-serif" font-weight="400" font-size="24" transform="translate(1192.64 719)">Queue</text><path d="M947.231 583.027 1222.54 648.446 1222.08 650.392 946.769 584.973ZM1216.29 642.306 1224.24 649.878 1213.74 653.067C1213.21 653.228 1212.65 652.929 1212.49 652.401 1212.33 651.872 1212.63 651.314 1213.15 651.153L1222.02 648.463 1221.62 650.143 1214.91 643.754C1214.51 643.373 1214.5 642.74 1214.88 642.34 1215.26 641.94 1215.89 641.925 1216.29 642.306Z"/><path d="M1328.23 695.255 1352.23 695.255 1351.23 696.255 1351.23 538 1352.23 539 1052.98 539 1052.98 537 1353.23 537 1353.23 697.255 1328.23 697.255ZM1060.48 543.53 1051 538 1060.48 532.47C1060.95 532.191 1061.57 532.352 1061.84 532.829 1062.12 533.307 1061.96 533.919 1061.48 534.197L1053.48 538.864 1053.48 537.136 1061.48 541.803C1061.96 542.081 1062.12 542.693 1061.84 543.171 1061.57 543.648 1060.95 543.809 1060.48 543.53Z"/><path d="M948.215 742 948.215 774.939 574 774.939 575 773.939 575 833.897 573 833.897 573 772.939 947.215 772.939 946.215 773.939 946.215 742ZM579.53 826.401 574 835.882 568.469 826.401C568.191 825.924 568.352 825.312 568.829 825.034 569.306 824.755 569.919 824.916 570.197 825.393L574.864 833.393 573.136 833.393 577.803 825.393C578.081 824.916 578.693 824.755 579.17 825.034 579.648 825.312 579.809 825.924 579.53 826.401Z"/><rect x="469" y="836" width="209" height="93" stroke="#000000" stroke-width="2" stroke-miterlimit="8" fill="#FFFFFF"/><text font-family="Times New Roman,Times New Roman_MSFontService,sans-serif" font-weight="400" font-size="24" transform="translate(501.864 869)">Move</text><text font-family="Times New Roman,Times New Roman_MSFontService,sans-serif" font-weight="400" font-size="24" transform="translate(563.864 869)">Forward</text><text font-family="Times New Roman,Times New Roman_MSFontService,sans-serif" font-weight="400" font-size="18.6667" transform="translate(485.944 893)">(Both Motors Forward)</text><text font-family="Times New Roman,Times New Roman_MSFontService,sans-serif" font-weight="400" font-size="18.6667" transform="translate(568.864 915)">*</text><rect x="721" y="836" width="208" height="93" stroke="#000000" stroke-width="2" stroke-miterlimit="8" fill="#FFFFFF"/><text font-family="Times New Roman,Times New Roman_MSFontService,sans-serif" font-weight="400" font-size="24" transform="translate(779.072 869)">Turn Left</text><text font-family="Times New Roman,Times New Roman_MSFontService,sans-serif" font-weight="400" font-size="18.6667" transform="translate(751.399 893)">(Right Motor Only)</text><text font-family="Times New Roman,Times New Roman_MSFontService,sans-serif" font-weight="400" font-size="18.6667" transform="translate(820.319 915)">*</text><path d="M947.76 742 947.76 774.939 825 774.939 826 773.939 826 833.897 824 833.897 824 772.939 946.76 772.939 945.76 773.939 945.76 742ZM830.53 826.401 825 835.882 819.469 826.401C819.191 825.924 819.352 825.312 819.829 825.034 820.306 824.755 820.919 824.916 821.197 825.393L825.864 833.393 824.136 833.393 828.803 825.393C829.081 824.916 829.693 824.755 830.17 825.034 830.648 825.312 830.809 825.924 830.53 826.401Z"/><rect x="972" y="836" width="209" height="93" stroke="#000000" stroke-width="2" stroke-miterlimit="8" fill="#FFFFFF"/><text font-family="Times New Roman,Times New Roman_MSFontService,sans-serif" font-weight="400" font-size="24" transform="translate(1023.86 869)">Turn Right</text><text font-family="Times New Roman,Times New Roman_MSFontService,sans-serif" font-weight="400" font-size="18.6667" transform="translate(1008.1 893)">(Left</text><text font-family="Times New Roman,Times New Roman_MSFontService,sans-serif" font-weight="400" font-size="18.6667" transform="translate(1049.94 893)">Motor Only)</text><text font-family="Times New Roman,Times New Roman_MSFontService,sans-serif" font-weight="400" font-size="18.6667" transform="translate(1071.77 915)">*</text><path d="M0-1 32.6882-1 32.6882 129.694 31.6882 128.694 91.8974 128.694 91.8974 130.694 30.6882 130.694 30.6882 0 31.6882 1 0 1ZM84.4011 124.164 93.8819 129.694 84.4011 135.225C83.9241 135.503 83.3118 135.342 83.0335 134.865 82.7552 134.388 82.9163 133.776 83.3934 133.497L91.3934 128.831 91.3934 130.558 83.3934 125.892C82.9163 125.613 82.7552 125.001 83.0335 124.524 83.3118 124.047 83.9241 123.886 84.4011 124.164Z" transform="matrix(1.83697e-16 1 1 -1.83697e-16 947 742)"/><rect x="1224" y="836" width="208" height="93" stroke="#000000" stroke-width="2" stroke-miterlimit="8" fill="#FFFFFF"/><text font-family="Times New Roman,Times New Roman_MSFontService,sans-serif" font-weight="400" font-size="24" transform="translate(1289.23 869)">Reverse</text><text font-family="Times New Roman,Times New Roman_MSFontService,sans-serif" font-weight="400" font-size="18.6667" transform="translate(1241.73 893)">(Both Motors</text><text font-family="Times New Roman,Times New Roman_MSFontService,sans-serif" font-weight="400" font-size="18.6667" transform="translate(1347.56 893)">Reverse)</text><text font-family="Times New Roman,Times New Roman_MSFontService,sans-serif" font-weight="400" font-size="18.6667" transform="translate(1323.23 915)">*</text><path d="M0-1 32.9388-1 32.9388 381.149 31.9388 380.149 91.8972 380.149 91.8972 382.149 30.9388 382.149 30.9388 0 31.9388 1 0 1ZM84.4011 375.619 93.8819 381.149 84.4011 386.68C83.9241 386.958 83.3118 386.797 83.0335 386.32 82.7552 385.843 82.9163 385.231 83.3934 384.952L91.3934 380.286 91.3934 382.013 83.3934 377.346C82.9163 377.068 82.7552 376.456 83.0335 375.979 83.3118 375.502 83.9241 375.341 84.4011 375.619Z" transform="matrix(1.83697e-16 1 1 -1.83697e-16 947 742)"/><text font-family="Times New Roman,Times New Roman_MSFontService,sans-serif" font-weight="400" font-size="24" transform="translate(582.892 809)">W</text><text font-family="Times New Roman,Times New Roman_MSFontService,sans-serif" font-weight="400" font-size="24" transform="translate(834.347 809)">A</text><text font-family="Times New Roman,Times New Roman_MSFontService,sans-serif" font-weight="400" font-size="24" transform="translate(1087 809)">S</text><text font-family="Times New Roman,Times New Roman_MSFontService,sans-serif" font-weight="400" font-size="24" transform="translate(1337.49 809)">D</text><rect x="721" y="1023" width="208" height="92" stroke="#000000" stroke-width="2" stroke-miterlimit="8" fill="#FFFFFF"/><text font-family="Times New Roman,Times New Roman_MSFontService,sans-serif" font-weight="400" font-size="24" transform="translate(753.315 1050)">Move Forward</text><text font-family="Times New Roman,Times New Roman_MSFontService,sans-serif" font-weight="400" font-size="24" transform="translate(773.315 1076)">Full Speed</text><text font-family="Times New Roman,Times New Roman_MSFontService,sans-serif" font-weight="400" font-size="24" transform="translate(818.982 1102)">*</text><path d="M947.76 742 947.76 956.065 825 956.065 826 955.065 826 1020.15 824 1020.15 824 954.065 946.76 954.065 945.76 955.065 945.76 742ZM830.53 1012.66 825 1022.14 819.47 1012.66C819.191 1012.18 819.352 1011.57 819.829 1011.29 820.307 1011.01 820.919 1011.17 821.197 1011.65L825.864 1019.65 824.136 1019.65 828.803 1011.65C829.081 1011.17 829.693 1011.01 830.171 1011.29 830.648 1011.57 830.809 1012.18 830.53 1012.66Z"/><rect x="972" y="1023" width="209" height="92" stroke="#000000" stroke-width="2" stroke-miterlimit="8" fill="#FFFFFF"/><text font-family="Times New Roman,Times New Roman_MSFontService,sans-serif" font-weight="400" font-size="21.3333" transform="translate(997.773 1051)">Stop Motors, Data</text><text font-family="Times New Roman,Times New Roman_MSFontService,sans-serif" font-weight="400" font-size="21.3333" transform="translate(983.833 1076)">Transfer = False, Test</text><text font-family="Times New Roman,Times New Roman_MSFontService,sans-serif" font-weight="400" font-size="21.3333" transform="translate(1003.93 1102)">Complete = True</text><path d="M0-1 214.065-1 214.065 129.694 213.065 128.694 278.152 128.694 278.152 130.694 212.065 130.694 212.065 0 213.065 1 0 1ZM270.656 124.164 280.137 129.694 270.656 135.225C270.179 135.503 269.566 135.342 269.288 134.865 269.01 134.388 269.171 133.776 269.648 133.497L277.648 128.831 277.648 130.558 269.648 125.892C269.171 125.613 269.01 125.001 269.288 124.524 269.566 124.047 270.179 123.886 270.656 124.164Z" transform="matrix(1.83697e-16 1 1 -1.83697e-16 947 742)"/><text font-family="Times New Roman,Times New Roman_MSFontService,sans-serif" font-weight="400" font-size="24" transform="translate(838.131 1006)">G</text><text font-family="Times New Roman,Times New Roman_MSFontService,sans-serif" font-weight="400" font-size="24" transform="translate(1090.79 1006)">C</text><path d="M948.034 742 948.034 1135.85 444 1135.85 445 1134.85 445 1197.73 443 1197.73 443 1133.85 947.034 1133.85 946.034 1134.85 946.034 742ZM449.53 1190.24 444 1199.72 438.47 1190.24C438.191 1189.76 438.352 1189.15 438.829 1188.87 439.307 1188.59 439.919 1188.75 440.197 1189.23L444.864 1197.23 443.136 1197.23 447.803 1189.23C448.081 1188.75 448.694 1188.59 449.171 1188.87 449.648 1189.15 449.809 1189.76 449.53 1190.24Z"/><path d="M947.579 742 947.579 1134.86 695 1134.86 696 1133.86 696 1197.73 694 1197.73 694 1132.86 946.579 1132.86 945.579 1133.86 945.579 742ZM700.53 1190.24 695 1199.72 689.47 1190.24C689.191 1189.76 689.352 1189.15 689.829 1188.87 690.307 1188.59 690.919 1188.75 691.197 1189.23L695.864 1197.23 694.136 1197.23 698.803 1189.23C699.081 1188.75 699.693 1188.59 700.171 1188.87 700.648 1189.15 700.809 1189.76 700.53 1190.24Z"/><path d="M0-1 392.744-1 392.744 251.579 391.744 250.579 455.51 250.579 455.51 252.579 390.744 252.579 390.744 0 391.744 1 0 1ZM448.014 246.049 457.494 251.579 448.014 257.11C447.536 257.388 446.924 257.227 446.646 256.75 446.368 256.273 446.529 255.66 447.006 255.382L455.006 250.715 455.006 252.443 447.006 247.776C446.529 247.498 446.368 246.886 446.646 246.409 446.924 245.932 447.536 245.77 448.014 246.049Z" transform="matrix(1.83697e-16 1 1 -1.83697e-16 947 742)"/><path d="M0-1 393.746-1 393.746 503.034 392.746 502.034 455.51 502.034 455.51 504.034 391.746 504.034 391.746 0 392.746 1 0 1ZM448.014 497.504 457.494 503.034 448.014 508.565C447.536 508.843 446.924 508.682 446.646 508.205 446.368 507.728 446.529 507.115 447.006 506.837L455.006 502.17 455.006 503.898 447.006 499.231C446.529 498.953 446.368 498.341 446.646 497.864 446.924 497.387 447.536 497.225 448.014 497.504Z" transform="matrix(1.83697e-16 1 1 -1.83697e-16 947 742)"/><text font-family="Times New Roman,Times New Roman_MSFontService,sans-serif" font-weight="400" font-size="24" transform="translate(453.184 1162)">1</text><text font-family="Times New Roman,Times New Roman_MSFontService,sans-serif" font-weight="400" font-size="24" transform="translate(704.639 1162)">2</text><text font-family="Times New Roman,Times New Roman_MSFontService,sans-serif" font-weight="400" font-size="24" transform="translate(958.423 1162)">3</text><text font-family="Times New Roman,Times New Roman_MSFontService,sans-serif" font-weight="400" font-size="24" transform="translate(1461.46 1162)">5</text><rect x="340" y="1200" width="208" height="93" stroke="#000000" stroke-width="2" stroke-miterlimit="8" fill="#FFFFFF"/><text font-family="Times New Roman,Times New Roman_MSFontService,sans-serif" font-weight="400" font-size="22.6667" transform="translate(352.162 1233)">Forward 10% Effort</text><text font-family="Times New Roman,Times New Roman_MSFontService,sans-serif" font-weight="400" font-size="18.6667" transform="translate(390.042 1254)">(Both Motors)</text><text font-family="Times New Roman,Times New Roman_MSFontService,sans-serif" font-weight="400" font-size="18.6667" transform="translate(439.042 1274)">*</text><rect x="591" y="1200" width="208" height="93" stroke="#000000" stroke-width="2" stroke-miterlimit="8" fill="#FFFFFF"/><text font-family="Times New Roman,Times New Roman_MSFontService,sans-serif" font-weight="400" font-size="22.6667" transform="translate(603.616 1234)">Forward</text><text font-family="Times New Roman,Times New Roman_MSFontService,sans-serif" font-weight="400" font-size="22.6667" transform="translate(685.95 1234)">20</text><text font-family="Times New Roman,Times New Roman_MSFontService,sans-serif" font-weight="400" font-size="22.6667" transform="translate(708.616 1234)">% Effort</text><text font-family="Times New Roman,Times New Roman_MSFontService,sans-serif" font-weight="400" font-size="17.3333" transform="translate(645.33 1256)">(Both Motors)</text><text font-family="Times New Roman,Times New Roman_MSFontService,sans-serif" font-weight="400" font-size="17.3333" transform="translate(690.83 1277)">*</text><rect x="1094" y="1200" width="208" height="92" stroke="#000000" stroke-width="2" stroke-miterlimit="8" fill="#FFFFFF"/><text font-family="Times New Roman,Times New Roman_MSFontService,sans-serif" font-weight="400" font-size="22.6667" transform="translate(1106.77 1234)">Forward</text><text font-family="Times New Roman,Times New Roman_MSFontService,sans-serif" font-weight="400" font-size="22.6667" transform="translate(1189.11 1234)">40</text><text font-family="Times New Roman,Times New Roman_MSFontService,sans-serif" font-weight="400" font-size="22.6667" transform="translate(1211.77 1234)">% Effort</text><text font-family="Times New Roman,Times New Roman_MSFontService,sans-serif" font-weight="400" font-size="17.3333" transform="translate(1148.49 1256)">(Both Motors)</text><text font-family="Times New Roman,Times New Roman_MSFontService,sans-serif" font-weight="400" font-size="17.3333" transform="translate(1193.99 1277)">*</text><rect x="1346" y="1200" width="208" height="92" stroke="#000000" stroke-width="2" stroke-miterlimit="8" fill="#FFFFFF"/><text font-family="Times New Roman,Times New Roman_MSFontService,sans-serif" font-weight="400" font-size="22.6667" transform="translate(1358.23 1234)">Forward</text><text font-family="Times New Roman,Times New Roman_MSFontService,sans-serif" font-weight="400" font-size="22.6667" transform="translate(1440.56 1234)">50</text><text font-family="Times New Roman,Times New Roman_MSFontService,sans-serif" font-weight="400" font-size="22.6667" transform="translate(1463.23 1234)">% Effort</text><text font-family="Times New Roman,Times New Roman_MSFontService,sans-serif" font-weight="400" font-size="17.3333" transform="translate(1399.94 1256)">(Both Motors)</text><text font-family="Times New Roman,Times New Roman_MSFontService,sans-serif" font-weight="400" font-size="17.3333" transform="translate(1445.44 1277)">*</text><rect x="843" y="1200" width="208" height="93" stroke="#000000" stroke-width="2" stroke-miterlimit="8" fill="#FFFFFF"/><text font-family="Times New Roman,Times New Roman_MSFontService,sans-serif" font-weight="400" font-size="22.6667" transform="translate(855.32 1234)">Forward</text><text font-family="Times New Roman,Times New Roman_MSFontService,sans-serif" font-weight="400" font-size="22.6667" transform="translate(937.653 1234)">30</text><text font-family="Times New Roman,Times New Roman_MSFontService,sans-serif" font-weight="400" font-size="22.6667" transform="translate(960.32 1234)">% Effort</text><text font-family="Times New Roman,Times New Roman_MSFontService,sans-serif" font-weight="400" font-size="17.3333" transform="translate(897.033 1256)">(Both Motors)</text><text font-family="Times New Roman,Times New Roman_MSFontService,sans-serif" font-weight="400" font-size="17.3333" transform="translate(942.533 1277)">*</text><path d="M0-1 229.856-1 229.856 0.124304 228.856-0.875696 455.733-0.875696 455.733 1.1243 227.856 1.1243 227.856 0 228.856 1 0 1ZM448.236-5.40614 457.717 0.124304 448.236 5.65475C447.759 5.93303 447.147 5.77189 446.868 5.29484 446.59 4.81779 446.751 4.20547 447.228 3.92719L455.228-0.739474 455.228 0.988083 447.228-3.67858C446.751-3.95686 446.59-4.56918 446.868-5.04623 447.147-5.52329 447.759-5.68442 448.236-5.40614Z" transform="matrix(1.83697e-16 1 1 -1.83697e-16 947 742)"/><text font-family="Times New Roman,Times New Roman_MSFontService,sans-serif" font-weight="400" font-size="24" transform="translate(1210.5 1162)">4</text><path d="M0-1 1135.78-1 1135.78 64.4402 1133.78 64.4402 1133.78 0 1134.78 1 0 1ZM1140.31 56.9441 1134.78 66.4249 1129.25 56.9441C1128.97 56.4671 1129.13 55.8548 1129.61 55.5765 1130.08 55.2982 1130.7 55.4593 1130.98 55.9364L1135.64 63.9364 1133.91 63.9364 1138.58 55.9364C1138.86 55.4593 1139.47 55.2982 1139.95 55.5765 1140.43 55.8548 1140.59 56.4671 1140.31 56.9441Z" transform="matrix(-1 1.22465e-16 1.22465e-16 1 1580.78 1305)"/><path d="M0-1 884.323-1 884.323 64.885 882.323 64.885 882.323 0 883.323 1 0 1ZM888.854 57.389 883.323 66.8697 877.793 57.389C877.514 56.9119 877.676 56.2996 878.153 56.0213 878.63 55.743 879.242 55.9042 879.52 56.3812L884.187 64.3812 882.459 64.3812 887.126 56.3812C887.404 55.9042 888.017 55.743 888.494 56.0213 888.971 56.2996 889.132 56.9119 888.854 57.389Z" transform="matrix(-1 1.22465e-16 1.22465e-16 1 1580.32 1304)"/><path d="M0-1 381.165-1 381.165 64.4401 379.165 64.4401 379.165 0 380.165 1 0 1ZM385.695 56.944 380.165 66.4248 374.634 56.944C374.356 56.467 374.517 55.8547 374.994 55.5764 375.471 55.2981 376.084 55.4592 376.362 55.9363L381.029 63.9363 379.301 63.9363 383.968 55.9363C384.246 55.4592 384.858 55.2981 385.335 55.5764 385.812 55.8547 385.973 56.467 385.695 56.944Z" transform="matrix(-1 1.22465e-16 1.22465e-16 1 1580.16 1305)"/><path d="M1581.86 1136 1581.86 1305.98 1455 1305.98 1456 1304.98 1456 1369.58 1454 1369.58 1454 1303.98 1580.86 1303.98 1579.86 1304.98 1579.86 1136ZM1460.53 1362.08 1455 1371.57 1449.47 1362.08C1449.19 1361.61 1449.35 1360.99 1449.83 1360.72 1450.31 1360.44 1450.92 1360.6 1451.2 1361.08L1455.86 1369.08 1454.14 1369.08 1458.8 1361.08C1459.08 1360.6 1459.69 1360.44 1460.17 1360.72 1460.65 1360.99 1460.81 1361.61 1460.53 1362.08Z"/><text font-family="Times New Roman,Times New Roman_MSFontService,sans-serif" font-weight="400" font-size="24" transform="translate(455.14 1333)">6</text><text font-family="Times New Roman,Times New Roman_MSFontService,sans-serif" font-weight="400" font-size="24" transform="translate(706.595 1333)">7</text><text font-family="Times New Roman,Times New Roman_MSFontService,sans-serif" font-weight="400" font-size="24" transform="translate(960.379 1333)">8</text><text font-family="Times New Roman,Times New Roman_MSFontService,sans-serif" font-weight="400" font-size="24" transform="translate(1463.41 1333)">0</text><rect x="342" y="1371" width="208" height="93" stroke="#000000" stroke-width="2" stroke-miterlimit="8" fill="#FFFFFF"/><text font-family="Times New Roman,Times New Roman_MSFontService,sans-serif" font-weight="400" font-size="22.6667" transform="translate(354.118 1404)">Forward</text><text font-family="Times New Roman,Times New Roman_MSFontService,sans-serif" font-weight="400" font-size="22.6667" transform="translate(436.451 1404)">60</text><text font-family="Times New Roman,Times New Roman_MSFontService,sans-serif" font-weight="400" font-size="22.6667" transform="translate(459.118 1404)">% Effort</text><text font-family="Times New Roman,Times New Roman_MSFontService,sans-serif" font-weight="400" font-size="18.6667" transform="translate(391.998 1425)">(Both Motors)</text><text font-family="Times New Roman,Times New Roman_MSFontService,sans-serif" font-weight="400" font-size="18.6667" transform="translate(440.998 1445)">*</text><rect x="593" y="1371" width="208" height="93" stroke="#000000" stroke-width="2" stroke-miterlimit="8" fill="#FFFFFF"/><text font-family="Times New Roman,Times New Roman_MSFontService,sans-serif" font-weight="400" font-size="22.6667" transform="translate(605.573 1405)">Forward</text><text font-family="Times New Roman,Times New Roman_MSFontService,sans-serif" font-weight="400" font-size="22.6667" transform="translate(687.906 1405)">70</text><text font-family="Times New Roman,Times New Roman_MSFontService,sans-serif" font-weight="400" font-size="22.6667" transform="translate(710.573 1405)">% Effort</text><text font-family="Times New Roman,Times New Roman_MSFontService,sans-serif" font-weight="400" font-size="17.3333" transform="translate(647.286 1427)">(Both Motors)</text><text font-family="Times New Roman,Times New Roman_MSFontService,sans-serif" font-weight="400" font-size="17.3333" transform="translate(692.786 1448)">*</text><rect x="1096" y="1371" width="208" height="92" stroke="#000000" stroke-width="2" stroke-miterlimit="8" fill="#FFFFFF"/><text font-family="Times New Roman,Times New Roman_MSFontService,sans-serif" font-weight="400" font-size="22.6667" transform="translate(1108.73 1405)">Forward</text><text font-family="Times New Roman,Times New Roman_MSFontService,sans-serif" font-weight="400" font-size="22.6667" transform="translate(1191.06 1405)">90</text><text font-family="Times New Roman,Times New Roman_MSFontService,sans-serif" font-weight="400" font-size="22.6667" transform="translate(1213.73 1405)">% Effort</text><text font-family="Times New Roman,Times New Roman_MSFontService,sans-serif" font-weight="400" font-size="17.3333" transform="translate(1150.44 1427)">(Both Motors)</text><text font-family="Times New Roman,Times New Roman_MSFontService,sans-serif" font-weight="400" font-size="17.3333" transform="translate(1195.94 1448)">*</text><rect x="1348" y="1371" width="214" height="92" stroke="#000000" stroke-width="2" stroke-miterlimit="8" fill="#FFFFFF"/><text font-family="Times New Roman,Times New Roman_MSFontService,sans-serif" font-weight="400" font-size="22.6667" transform="translate(1357.37 1405)">Forward</text><text font-family="Times New Roman,Times New Roman_MSFontService,sans-serif" font-weight="400" font-size="22.6667" transform="translate(1439.7 1405)">100</text><text font-family="Times New Roman,Times New Roman_MSFontService,sans-serif" font-weight="400" font-size="22.6667" transform="translate(1473.7 1405)">%</text><text font-family="Times New Roman,Times New Roman_MSFontService,sans-serif" font-weight="400" font-size="22.6667" transform="translate(1498.2 1405)">Effort</text><text font-family="Times New Roman,Times New Roman_MSFontService,sans-serif" font-weight="400" font-size="17.3333" transform="translate(1404.75 1427)">(Both Motors)</text><text font-family="Times New Roman,Times New Roman_MSFontService,sans-serif" font-weight="400" font-size="17.3333" transform="translate(1450.25 1448)">*</text><rect x="845" y="1371" width="208" height="93" stroke="#000000" stroke-width="2" stroke-miterlimit="8" fill="#FFFFFF"/><text font-family="Times New Roman,Times New Roman_MSFontService,sans-serif" font-weight="400" font-size="22.6667" transform="translate(857.276 1405)">Forward</text><text font-family="Times New Roman,Times New Roman_MSFontService,sans-serif" font-weight="400" font-size="22.6667" transform="translate(939.609 1405)">80</text><text font-family="Times New Roman,Times New Roman_MSFontService,sans-serif" font-weight="400" font-size="22.6667" transform="translate(962.276 1405)">% Effort</text><text font-family="Times New Roman,Times New Roman_MSFontService,sans-serif" font-weight="400" font-size="17.3333" transform="translate(898.989 1427)">(Both Motors)</text><text font-family="Times New Roman,Times New Roman_MSFontService,sans-serif" font-weight="400" font-size="17.3333" transform="translate(944.489 1448)">*</text><path d="M0-1 632.62-1 632.62 64.2178 630.62 64.2178 630.62 0 631.62 1 0 1ZM637.15 56.7217 631.62 66.2024 626.089 56.7217C625.811 56.2446 625.972 55.6323 626.449 55.354 626.926 55.0757 627.538 55.2369 627.817 55.7139L632.483 63.7139 630.756 63.7139 635.422 55.7139C635.701 55.2369 636.313 55.0757 636.79 55.354 637.267 55.6323 637.428 56.2446 637.15 56.7217Z" transform="matrix(-1 1.22465e-16 1.22465e-16 1 1580.62 1305)"/><text font-family="Times New Roman,Times New Roman_MSFontService,sans-serif" font-weight="400" font-size="24" transform="translate(1212.46 1333)">9</text><path d="M1450 1136 1580.67 1136" stroke="#000000" stroke-width="2" stroke-miterlimit="8" fill="none" fill-rule="evenodd"/><path d="M647 1509.33C647 1500.86 653.865 1494 662.333 1494L1244.67 1494C1253.14 1494 1260 1500.86 1260 1509.33L1260 1570.67C1260 1579.14 1253.14 1586 1244.67 1586L662.333 1586C653.865 1586 647 1579.14 647 1570.67Z" stroke="#000000" stroke-width="2" stroke-miterlimit="8" fill="#FFFFFF" fill-rule="evenodd"/><text font-family="Times New Roman,Times New Roman_MSFontService,sans-serif" font-weight="400" font-size="24" transform="translate(677.985 1534)">* Means Data Transfer = True and Test Complete = False</text><text font-family="Times New Roman,Times New Roman_MSFontService,sans-serif" font-weight="400" font-size="24" transform="translate(768.205 1563)">All commands lead to User Input Task</text><path d="M0 1-24.0004 1-23.0004 0-23.0004 641.298-24.0004 640.298 1206.68 640.298 1205.68 641.298 1205.68 112.542 1207.68 112.542 1207.68 642.298-25.0004 642.298-25.0004-1 0-1ZM1201.15 120.036 1206.68 110.555 1212.21 120.036C1212.49 120.513 1212.33 121.125 1211.85 121.404 1211.38 121.682 1210.76 121.521 1210.49 121.044L1205.82 113.044 1207.55 113.044 1202.88 121.044C1202.6 121.521 1201.99 121.682 1201.51 121.404 1201.04 121.125 1200.87 120.513 1201.15 120.036Z" transform="matrix(-6.12323e-17 -1 -1 6.12323e-17 953.56 1586.68)"/></g></svg>