<?xml version="1.0" encoding="utf-8" standalone="no"?>
<!DOCTYPE svg PUBLIC "-//W3C//DTD SVG 1.1//EN"
  "http://www.w3.org/Graphics/SVG/1.1/DTD/svg11.dtd">
<svg xmlns:xlink="http://www.w3.org/1999/xlink" width="453.143125pt" height="337.354375pt" viewBox="0 0 453.143125 337.354375" xmlns="http://www.w3.org/2000/svg" version="1.1">
 <metadata>
  <rdf:RDF xmlns:dc="http://purl.org/dc/elements/1.1/" xmlns:cc="http://creativecommons.org/ns#" xmlns:rdf="http://www.w3.org/1999/02/22-rdf-syntax-ns#">
   <cc:Work>
    <dc:type rdf:resource="http://purl.org/dc/dcmitype/StillImage"/>
    <dc:date>2025-10-29T18:34:04.703665</dc:date>
    <dc:format>image/svg+xml</dc:format>
    <dc:creator>
     <cc:Agent>
      <dc:title>Matplotlib v3.10.6, https://matplotlib.org/</dc:title>
     </cc:Agent>
    </dc:creator>
   </cc:Work>
  </rdf:RDF>
 </metadata>
 <defs>
  <style type="text/css">*{stroke-linejoin: round; stroke-linecap: butt}</style>
 </defs>
 <g id="figure_1">
  <g id="patch_1">
   <path d="M 0 337.354375 
L 453.143125 337.354375 
L 453.143125 0 
L 0 0 
z
" style="fill: #ffffff"/>
  </g>
  <g id="axes_1">
   <g id="patch_2">
    <path d="M 40.603125 299.798125 
L 445.943125 299.798125 
L 445.943125 22.318125 
L 40.603125 22.318125 
z
" style="fill: #ffffff"/>
   </g>
   <g id="matplotlib.axis_1">
    <g id="xtick_1">
     <g id="line2d_1">
      <defs>
       <path id="m8c6e4883f0" d="M 0 0 
L 0 3.5 
" style="stroke: #000000; stroke-width: 0.8"/>
      </defs>
      <g>
       <use xlink:href="#m8c6e4883f0" x="59.02767" y="299.798125" style="stroke: #000000; stroke-width: 0.8"/>
      </g>
     </g>
     <g id="text_1">
      <!-- 0 -->
      <g transform="translate(55.84642 314.396563) scale(0.1 -0.1)">
       <defs>
        <path id="DejaVuSans-30" d="M 2034 4250 
Q 1547 4250 1301 3770 
Q 1056 3291 1056 2328 
Q 1056 1369 1301 889 
Q 1547 409 2034 409 
Q 2525 409 2770 889 
Q 3016 1369 3016 2328 
Q 3016 3291 2770 3770 
Q 2525 4250 2034 4250 
z
M 2034 4750 
Q 2819 4750 3233 4129 
Q 3647 3509 3647 2328 
Q 3647 1150 3233 529 
Q 2819 -91 2034 -91 
Q 1250 -91 836 529 
Q 422 1150 422 2328 
Q 422 3509 836 4129 
Q 1250 4750 2034 4750 
z
" transform="scale(0.015625)"/>
       </defs>
       <use xlink:href="#DejaVuSans-30"/>
      </g>
     </g>
    </g>
    <g id="xtick_2">
     <g id="line2d_2">
      <g>
       <use xlink:href="#m8c6e4883f0" x="147.567735" y="299.798125" style="stroke: #000000; stroke-width: 0.8"/>
      </g>
     </g>
     <g id="text_2">
      <!-- 10 -->
      <g transform="translate(141.205235 314.396563) scale(0.1 -0.1)">
       <defs>
        <path id="DejaVuSans-31" d="M 794 531 
L 1825 531 
L 1825 4091 
L 703 3866 
L 703 4441 
L 1819 4666 
L 2450 4666 
L 2450 531 
L 3481 531 
L 3481 0 
L 794 0 
L 794 531 
z
" transform="scale(0.015625)"/>
       </defs>
       <use xlink:href="#DejaVuSans-31"/>
       <use xlink:href="#DejaVuSans-30" transform="translate(63.623047 0)"/>
      </g>
     </g>
    </g>
    <g id="xtick_3">
     <g id="line2d_3">
      <g>
       <use xlink:href="#m8c6e4883f0" x="236.107799" y="299.798125" style="stroke: #000000; stroke-width: 0.8"/>
      </g>
     </g>
     <g id="text_3">
      <!-- 20 -->
      <g transform="translate(229.745299 314.396563) scale(0.1 -0.1)">
       <defs>
        <path id="DejaVuSans-32" d="M 1228 531 
L 3431 531 
L 3431 0 
L 469 0 
L 469 531 
Q 828 903 1448 1529 
Q 2069 2156 2228 2338 
Q 2531 2678 2651 2914 
Q 2772 3150 2772 3378 
Q 2772 3750 2511 3984 
Q 2250 4219 1831 4219 
Q 1534 4219 1204 4116 
Q 875 4013 500 3803 
L 500 4441 
Q 881 4594 1212 4672 
Q 1544 4750 1819 4750 
Q 2544 4750 2975 4387 
Q 3406 4025 3406 3419 
Q 3406 3131 3298 2873 
Q 3191 2616 2906 2266 
Q 2828 2175 2409 1742 
Q 1991 1309 1228 531 
z
" transform="scale(0.015625)"/>
       </defs>
       <use xlink:href="#DejaVuSans-32"/>
       <use xlink:href="#DejaVuSans-30" transform="translate(63.623047 0)"/>
      </g>
     </g>
    </g>
    <g id="xtick_4">
     <g id="line2d_4">
      <g>
       <use xlink:href="#m8c6e4883f0" x="324.647863" y="299.798125" style="stroke: #000000; stroke-width: 0.8"/>
      </g>
     </g>
     <g id="text_4">
      <!-- 30 -->
      <g transform="translate(318.285363 314.396563) scale(0.1 -0.1)">
       <defs>
        <path id="DejaVuSans-33" d="M 2597 2516 
Q 3050 2419 3304 2112 
Q 3559 1806 3559 1356 
Q 3559 666 3084 287 
Q 2609 -91 1734 -91 
Q 1441 -91 1130 -33 
Q 819 25 488 141 
L 488 750 
Q 750 597 1062 519 
Q 1375 441 1716 441 
Q 2309 441 2620 675 
Q 2931 909 2931 1356 
Q 2931 1769 2642 2001 
Q 2353 2234 1838 2234 
L 1294 2234 
L 1294 2753 
L 1863 2753 
Q 2328 2753 2575 2939 
Q 2822 3125 2822 3475 
Q 2822 3834 2567 4026 
Q 2313 4219 1838 4219 
Q 1578 4219 1281 4162 
Q 984 4106 628 3988 
L 628 4550 
Q 988 4650 1302 4700 
Q 1616 4750 1894 4750 
Q 2613 4750 3031 4423 
Q 3450 4097 3450 3541 
Q 3450 3153 3228 2886 
Q 3006 2619 2597 2516 
z
" transform="scale(0.015625)"/>
       </defs>
       <use xlink:href="#DejaVuSans-33"/>
       <use xlink:href="#DejaVuSans-30" transform="translate(63.623047 0)"/>
      </g>
     </g>
    </g>
    <g id="xtick_5">
     <g id="line2d_5">
      <g>
       <use xlink:href="#m8c6e4883f0" x="413.187927" y="299.798125" style="stroke: #000000; stroke-width: 0.8"/>
      </g>
     </g>
     <g id="text_5">
      <!-- 40 -->
      <g transform="translate(406.825427 314.396563) scale(0.1 -0.1)">
       <defs>
        <path id="DejaVuSans-34" d="M 2419 4116 
L 825 1625 
L 2419 1625 
L 2419 4116 
z
M 2253 4666 
L 3047 4666 
L 3047 1625 
L 3713 1625 
L 3713 1100 
L 3047 1100 
L 3047 0 
L 2419 0 
L 2419 1100 
L 313 1100 
L 313 1709 
L 2253 4666 
z
" transform="scale(0.015625)"/>
       </defs>
       <use xlink:href="#DejaVuSans-34"/>
       <use xlink:href="#DejaVuSans-30" transform="translate(63.623047 0)"/>
      </g>
     </g>
    </g>
    <g id="text_6">
     <!-- Right Position, (rad) -->
     <g transform="translate(193.680156 328.074688) scale(0.1 -0.1)">
      <defs>
       <path id="DejaVuSans-52" d="M 2841 2188 
Q 3044 2119 3236 1894 
Q 3428 1669 3622 1275 
L 4263 0 
L 3584 0 
L 2988 1197 
Q 2756 1666 2539 1819 
Q 2322 1972 1947 1972 
L 1259 1972 
L 1259 0 
L 628 0 
L 628 4666 
L 2053 4666 
Q 2853 4666 3247 4331 
Q 3641 3997 3641 3322 
Q 3641 2881 3436 2590 
Q 3231 2300 2841 2188 
z
M 1259 4147 
L 1259 2491 
L 2053 2491 
Q 2509 2491 2742 2702 
Q 2975 2913 2975 3322 
Q 2975 3731 2742 3939 
Q 2509 4147 2053 4147 
L 1259 4147 
z
" transform="scale(0.015625)"/>
       <path id="DejaVuSans-69" d="M 603 3500 
L 1178 3500 
L 1178 0 
L 603 0 
L 603 3500 
z
M 603 4863 
L 1178 4863 
L 1178 4134 
L 603 4134 
L 603 4863 
z
" transform="scale(0.015625)"/>
       <path id="DejaVuSans-67" d="M 2906 1791 
Q 2906 2416 2648 2759 
Q 2391 3103 1925 3103 
Q 1463 3103 1205 2759 
Q 947 2416 947 1791 
Q 947 1169 1205 825 
Q 1463 481 1925 481 
Q 2391 481 2648 825 
Q 2906 1169 2906 1791 
z
M 3481 434 
Q 3481 -459 3084 -895 
Q 2688 -1331 1869 -1331 
Q 1566 -1331 1297 -1286 
Q 1028 -1241 775 -1147 
L 775 -588 
Q 1028 -725 1275 -790 
Q 1522 -856 1778 -856 
Q 2344 -856 2625 -561 
Q 2906 -266 2906 331 
L 2906 616 
Q 2728 306 2450 153 
Q 2172 0 1784 0 
Q 1141 0 747 490 
Q 353 981 353 1791 
Q 353 2603 747 3093 
Q 1141 3584 1784 3584 
Q 2172 3584 2450 3431 
Q 2728 3278 2906 2969 
L 2906 3500 
L 3481 3500 
L 3481 434 
z
" transform="scale(0.015625)"/>
       <path id="DejaVuSans-68" d="M 3513 2113 
L 3513 0 
L 2938 0 
L 2938 2094 
Q 2938 2591 2744 2837 
Q 2550 3084 2163 3084 
Q 1697 3084 1428 2787 
Q 1159 2491 1159 1978 
L 1159 0 
L 581 0 
L 581 4863 
L 1159 4863 
L 1159 2956 
Q 1366 3272 1645 3428 
Q 1925 3584 2291 3584 
Q 2894 3584 3203 3211 
Q 3513 2838 3513 2113 
z
" transform="scale(0.015625)"/>
       <path id="DejaVuSans-74" d="M 1172 4494 
L 1172 3500 
L 2356 3500 
L 2356 3053 
L 1172 3053 
L 1172 1153 
Q 1172 725 1289 603 
Q 1406 481 1766 481 
L 2356 481 
L 2356 0 
L 1766 0 
Q 1100 0 847 248 
Q 594 497 594 1153 
L 594 3053 
L 172 3053 
L 172 3500 
L 594 3500 
L 594 4494 
L 1172 4494 
z
" transform="scale(0.015625)"/>
       <path id="DejaVuSans-20" transform="scale(0.015625)"/>
       <path id="DejaVuSans-50" d="M 1259 4147 
L 1259 2394 
L 2053 2394 
Q 2494 2394 2734 2622 
Q 2975 2850 2975 3272 
Q 2975 3691 2734 3919 
Q 2494 4147 2053 4147 
L 1259 4147 
z
M 628 4666 
L 2053 4666 
Q 2838 4666 3239 4311 
Q 3641 3956 3641 3272 
Q 3641 2581 3239 2228 
Q 2838 1875 2053 1875 
L 1259 1875 
L 1259 0 
L 628 0 
L 628 4666 
z
" transform="scale(0.015625)"/>
       <path id="DejaVuSans-6f" d="M 1959 3097 
Q 1497 3097 1228 2736 
Q 959 2375 959 1747 
Q 959 1119 1226 758 
Q 1494 397 1959 397 
Q 2419 397 2687 759 
Q 2956 1122 2956 1747 
Q 2956 2369 2687 2733 
Q 2419 3097 1959 3097 
z
M 1959 3584 
Q 2709 3584 3137 3096 
Q 3566 2609 3566 1747 
Q 3566 888 3137 398 
Q 2709 -91 1959 -91 
Q 1206 -91 779 398 
Q 353 888 353 1747 
Q 353 2609 779 3096 
Q 1206 3584 1959 3584 
z
" transform="scale(0.015625)"/>
       <path id="DejaVuSans-73" d="M 2834 3397 
L 2834 2853 
Q 2591 2978 2328 3040 
Q 2066 3103 1784 3103 
Q 1356 3103 1142 2972 
Q 928 2841 928 2578 
Q 928 2378 1081 2264 
Q 1234 2150 1697 2047 
L 1894 2003 
Q 2506 1872 2764 1633 
Q 3022 1394 3022 966 
Q 3022 478 2636 193 
Q 2250 -91 1575 -91 
Q 1294 -91 989 -36 
Q 684 19 347 128 
L 347 722 
Q 666 556 975 473 
Q 1284 391 1588 391 
Q 1994 391 2212 530 
Q 2431 669 2431 922 
Q 2431 1156 2273 1281 
Q 2116 1406 1581 1522 
L 1381 1569 
Q 847 1681 609 1914 
Q 372 2147 372 2553 
Q 372 3047 722 3315 
Q 1072 3584 1716 3584 
Q 2034 3584 2315 3537 
Q 2597 3491 2834 3397 
z
" transform="scale(0.015625)"/>
       <path id="DejaVuSans-6e" d="M 3513 2113 
L 3513 0 
L 2938 0 
L 2938 2094 
Q 2938 2591 2744 2837 
Q 2550 3084 2163 3084 
Q 1697 3084 1428 2787 
Q 1159 2491 1159 1978 
L 1159 0 
L 581 0 
L 581 3500 
L 1159 3500 
L 1159 2956 
Q 1366 3272 1645 3428 
Q 1925 3584 2291 3584 
Q 2894 3584 3203 3211 
Q 3513 2838 3513 2113 
z
" transform="scale(0.015625)"/>
       <path id="DejaVuSans-2c" d="M 750 794 
L 1409 794 
L 1409 256 
L 897 -744 
L 494 -744 
L 750 256 
L 750 794 
z
" transform="scale(0.015625)"/>
       <path id="DejaVuSans-28" d="M 1984 4856 
Q 1566 4138 1362 3434 
Q 1159 2731 1159 2009 
Q 1159 1288 1364 580 
Q 1569 -128 1984 -844 
L 1484 -844 
Q 1016 -109 783 600 
Q 550 1309 550 2009 
Q 550 2706 781 3412 
Q 1013 4119 1484 4856 
L 1984 4856 
z
" transform="scale(0.015625)"/>
       <path id="DejaVuSans-72" d="M 2631 2963 
Q 2534 3019 2420 3045 
Q 2306 3072 2169 3072 
Q 1681 3072 1420 2755 
Q 1159 2438 1159 1844 
L 1159 0 
L 581 0 
L 581 3500 
L 1159 3500 
L 1159 2956 
Q 1341 3275 1631 3429 
Q 1922 3584 2338 3584 
Q 2397 3584 2469 3576 
Q 2541 3569 2628 3553 
L 2631 2963 
z
" transform="scale(0.015625)"/>
       <path id="DejaVuSans-61" d="M 2194 1759 
Q 1497 1759 1228 1600 
Q 959 1441 959 1056 
Q 959 750 1161 570 
Q 1363 391 1709 391 
Q 2188 391 2477 730 
Q 2766 1069 2766 1631 
L 2766 1759 
L 2194 1759 
z
M 3341 1997 
L 3341 0 
L 2766 0 
L 2766 531 
Q 2569 213 2275 61 
Q 1981 -91 1556 -91 
Q 1019 -91 701 211 
Q 384 513 384 1019 
Q 384 1609 779 1909 
Q 1175 2209 1959 2209 
L 2766 2209 
L 2766 2266 
Q 2766 2663 2505 2880 
Q 2244 3097 1772 3097 
Q 1472 3097 1187 3025 
Q 903 2953 641 2809 
L 641 3341 
Q 956 3463 1253 3523 
Q 1550 3584 1831 3584 
Q 2591 3584 2966 3190 
Q 3341 2797 3341 1997 
z
" transform="scale(0.015625)"/>
       <path id="DejaVuSans-64" d="M 2906 2969 
L 2906 4863 
L 3481 4863 
L 3481 0 
L 2906 0 
L 2906 525 
Q 2725 213 2448 61 
Q 2172 -91 1784 -91 
Q 1150 -91 751 415 
Q 353 922 353 1747 
Q 353 2572 751 3078 
Q 1150 3584 1784 3584 
Q 2172 3584 2448 3432 
Q 2725 3281 2906 2969 
z
M 947 1747 
Q 947 1113 1208 752 
Q 1469 391 1925 391 
Q 2381 391 2643 752 
Q 2906 1113 2906 1747 
Q 2906 2381 2643 2742 
Q 2381 3103 1925 3103 
Q 1469 3103 1208 2742 
Q 947 2381 947 1747 
z
" transform="scale(0.015625)"/>
       <path id="DejaVuSans-29" d="M 513 4856 
L 1013 4856 
Q 1481 4119 1714 3412 
Q 1947 2706 1947 2009 
Q 1947 1309 1714 600 
Q 1481 -109 1013 -844 
L 513 -844 
Q 928 -128 1133 580 
Q 1338 1288 1338 2009 
Q 1338 2731 1133 3434 
Q 928 4138 513 4856 
z
" transform="scale(0.015625)"/>
      </defs>
      <use xlink:href="#DejaVuSans-52"/>
      <use xlink:href="#DejaVuSans-69" transform="translate(69.482422 0)"/>
      <use xlink:href="#DejaVuSans-67" transform="translate(97.265625 0)"/>
      <use xlink:href="#DejaVuSans-68" transform="translate(160.742188 0)"/>
      <use xlink:href="#DejaVuSans-74" transform="translate(224.121094 0)"/>
      <use xlink:href="#DejaVuSans-20" transform="translate(263.330078 0)"/>
      <use xlink:href="#DejaVuSans-50" transform="translate(295.117188 0)"/>
      <use xlink:href="#DejaVuSans-6f" transform="translate(351.794922 0)"/>
      <use xlink:href="#DejaVuSans-73" transform="translate(412.976562 0)"/>
      <use xlink:href="#DejaVuSans-69" transform="translate(465.076172 0)"/>
      <use xlink:href="#DejaVuSans-74" transform="translate(492.859375 0)"/>
      <use xlink:href="#DejaVuSans-69" transform="translate(532.068359 0)"/>
      <use xlink:href="#DejaVuSans-6f" transform="translate(559.851562 0)"/>
      <use xlink:href="#DejaVuSans-6e" transform="translate(621.033203 0)"/>
      <use xlink:href="#DejaVuSans-2c" transform="translate(684.412109 0)"/>
      <use xlink:href="#DejaVuSans-20" transform="translate(716.199219 0)"/>
      <use xlink:href="#DejaVuSans-28" transform="translate(747.986328 0)"/>
      <use xlink:href="#DejaVuSans-72" transform="translate(787 0)"/>
      <use xlink:href="#DejaVuSans-61" transform="translate(828.113281 0)"/>
      <use xlink:href="#DejaVuSans-64" transform="translate(889.392578 0)"/>
      <use xlink:href="#DejaVuSans-29" transform="translate(952.869141 0)"/>
     </g>
    </g>
   </g>
   <g id="matplotlib.axis_2">
    <g id="ytick_1">
     <g id="line2d_6">
      <defs>
       <path id="maedfd23e89" d="M 0 0 
L -3.5 0 
" style="stroke: #000000; stroke-width: 0.8"/>
      </defs>
      <g>
       <use xlink:href="#maedfd23e89" x="40.603125" y="287.185398" style="stroke: #000000; stroke-width: 0.8"/>
      </g>
     </g>
     <g id="text_7">
      <!-- 0 -->
      <g transform="translate(27.240625 290.984616) scale(0.1 -0.1)">
       <use xlink:href="#DejaVuSans-30"/>
      </g>
     </g>
    </g>
    <g id="ytick_2">
     <g id="line2d_7">
      <g>
       <use xlink:href="#maedfd23e89" x="40.603125" y="226.574313" style="stroke: #000000; stroke-width: 0.8"/>
      </g>
     </g>
     <g id="text_8">
      <!-- 10 -->
      <g transform="translate(20.878125 230.373532) scale(0.1 -0.1)">
       <use xlink:href="#DejaVuSans-31"/>
       <use xlink:href="#DejaVuSans-30" transform="translate(63.623047 0)"/>
      </g>
     </g>
    </g>
    <g id="ytick_3">
     <g id="line2d_8">
      <g>
       <use xlink:href="#maedfd23e89" x="40.603125" y="165.963229" style="stroke: #000000; stroke-width: 0.8"/>
      </g>
     </g>
     <g id="text_9">
      <!-- 20 -->
      <g transform="translate(20.878125 169.762447) scale(0.1 -0.1)">
       <use xlink:href="#DejaVuSans-32"/>
       <use xlink:href="#DejaVuSans-30" transform="translate(63.623047 0)"/>
      </g>
     </g>
    </g>
    <g id="ytick_4">
     <g id="line2d_9">
      <g>
       <use xlink:href="#maedfd23e89" x="40.603125" y="105.352144" style="stroke: #000000; stroke-width: 0.8"/>
      </g>
     </g>
     <g id="text_10">
      <!-- 30 -->
      <g transform="translate(20.878125 109.151363) scale(0.1 -0.1)">
       <use xlink:href="#DejaVuSans-33"/>
       <use xlink:href="#DejaVuSans-30" transform="translate(63.623047 0)"/>
      </g>
     </g>
    </g>
    <g id="ytick_5">
     <g id="line2d_10">
      <g>
       <use xlink:href="#maedfd23e89" x="40.603125" y="44.741059" style="stroke: #000000; stroke-width: 0.8"/>
      </g>
     </g>
     <g id="text_11">
      <!-- 40 -->
      <g transform="translate(20.878125 48.540278) scale(0.1 -0.1)">
       <use xlink:href="#DejaVuSans-34"/>
       <use xlink:href="#DejaVuSans-30" transform="translate(63.623047 0)"/>
      </g>
     </g>
    </g>
    <g id="text_12">
     <!-- Left Position, (rad) -->
     <g transform="translate(14.798438 206.8925) rotate(-90) scale(0.1 -0.1)">
      <defs>
       <path id="DejaVuSans-4c" d="M 628 4666 
L 1259 4666 
L 1259 531 
L 3531 531 
L 3531 0 
L 628 0 
L 628 4666 
z
" transform="scale(0.015625)"/>
       <path id="DejaVuSans-65" d="M 3597 1894 
L 3597 1613 
L 953 1613 
Q 991 1019 1311 708 
Q 1631 397 2203 397 
Q 2534 397 2845 478 
Q 3156 559 3463 722 
L 3463 178 
Q 3153 47 2828 -22 
Q 2503 -91 2169 -91 
Q 1331 -91 842 396 
Q 353 884 353 1716 
Q 353 2575 817 3079 
Q 1281 3584 2069 3584 
Q 2775 3584 3186 3129 
Q 3597 2675 3597 1894 
z
M 3022 2063 
Q 3016 2534 2758 2815 
Q 2500 3097 2075 3097 
Q 1594 3097 1305 2825 
Q 1016 2553 972 2059 
L 3022 2063 
z
" transform="scale(0.015625)"/>
       <path id="DejaVuSans-66" d="M 2375 4863 
L 2375 4384 
L 1825 4384 
Q 1516 4384 1395 4259 
Q 1275 4134 1275 3809 
L 1275 3500 
L 2222 3500 
L 2222 3053 
L 1275 3053 
L 1275 0 
L 697 0 
L 697 3053 
L 147 3053 
L 147 3500 
L 697 3500 
L 697 3744 
Q 697 4328 969 4595 
Q 1241 4863 1831 4863 
L 2375 4863 
z
" transform="scale(0.015625)"/>
      </defs>
      <use xlink:href="#DejaVuSans-4c"/>
      <use xlink:href="#DejaVuSans-65" transform="translate(53.962891 0)"/>
      <use xlink:href="#DejaVuSans-66" transform="translate(115.486328 0)"/>
      <use xlink:href="#DejaVuSans-74" transform="translate(148.941406 0)"/>
      <use xlink:href="#DejaVuSans-20" transform="translate(188.150391 0)"/>
      <use xlink:href="#DejaVuSans-50" transform="translate(219.9375 0)"/>
      <use xlink:href="#DejaVuSans-6f" transform="translate(276.615234 0)"/>
      <use xlink:href="#DejaVuSans-73" transform="translate(337.796875 0)"/>
      <use xlink:href="#DejaVuSans-69" transform="translate(389.896484 0)"/>
      <use xlink:href="#DejaVuSans-74" transform="translate(417.679688 0)"/>
      <use xlink:href="#DejaVuSans-69" transform="translate(456.888672 0)"/>
      <use xlink:href="#DejaVuSans-6f" transform="translate(484.671875 0)"/>
      <use xlink:href="#DejaVuSans-6e" transform="translate(545.853516 0)"/>
      <use xlink:href="#DejaVuSans-2c" transform="translate(609.232422 0)"/>
      <use xlink:href="#DejaVuSans-20" transform="translate(641.019531 0)"/>
      <use xlink:href="#DejaVuSans-28" transform="translate(672.806641 0)"/>
      <use xlink:href="#DejaVuSans-72" transform="translate(711.820312 0)"/>
      <use xlink:href="#DejaVuSans-61" transform="translate(752.933594 0)"/>
      <use xlink:href="#DejaVuSans-64" transform="translate(814.212891 0)"/>
      <use xlink:href="#DejaVuSans-29" transform="translate(877.689453 0)"/>
     </g>
    </g>
   </g>
   <g id="line2d_11">
    <path d="M 66.150511 281.646876 
L 66.8086 281.169874 
L 68.434468 280.003869 
L 70.83455 278.413865 
L 73.505618 276.585355 
L 76.486372 274.544847 
L 79.544546 272.477839 
L 82.796277 270.25183 
L 86.009299 268.025828 
L 89.26103 265.773314 
L 92.435342 263.494307 
L 95.725783 261.056299 
L 98.977514 258.671289 
L 102.306665 256.25978 
L 105.713235 253.768767 
L 109.158524 251.277755 
L 112.681232 248.733744 
L 116.24265 246.16324 
L 119.842786 243.619229 
L 123.442914 241.02222 
L 127.08176 238.425205 
L 130.643177 235.854701 
L 134.243305 233.257685 
L 137.99828 230.634177 
L 141.637118 228.037162 
L 145.353392 225.387124 
L 149.06964 222.790121 
L 152.785932 220.16663 
L 156.463443 217.54314 
L 160.218428 214.893102 
L 163.973412 212.269612 
L 167.728396 209.646061 
L 171.405996 207.075606 
L 175.160892 204.425568 
L 178.838492 201.828565 
L 182.438619 199.258049 
L 186.077439 196.634559 
L 189.755039 194.037495 
L 193.510023 191.361031 
L 197.148843 188.764028 
L 200.787662 186.193511 
L 204.465174 183.569961 
L 208.220158 180.94647 
L 211.93645 178.349467 
L 215.730126 175.752464 
L 219.48511 173.208435 
L 223.240094 170.637919 
L 227.03377 168.040916 
L 230.750063 165.496887 
L 234.466266 162.873397 
L 238.105174 160.382402 
L 241.821378 157.811886 
L 245.53767 155.214883 
L 249.17649 152.644367 
L 252.85409 150.047364 
L 256.492909 147.503335 
L 260.170421 144.906332 
L 263.886713 142.282841 
L 267.525532 139.712325 
L 271.12566 137.194783 
L 274.841952 134.624267 
L 278.519464 132.053812 
L 282.158372 129.483296 
L 285.835883 126.859745 
L 289.358538 124.368751 
L 293.07483 121.718713 
L 296.558882 119.201231 
L 300.197702 116.604228 
L 303.797829 114.033712 
L 307.397957 111.436709 
L 310.998084 108.89268 
L 314.636904 106.295677 
L 318.198339 103.804682 
L 321.798467 101.260653 
L 325.475978 98.690137 
L 329.114887 96.146169 
L 332.637542 93.655114 
L 337.244193 91.084598 
L 339.837797 88.567116 
L 343.399232 86.049574 
L 347.076832 83.399597 
L 350.676871 80.829081 
L 354.276999 78.258565 
L 357.877126 75.688049 
L 361.39987 73.197054 
L 364.999997 70.626538 
L 368.600036 68.056022 
L 372.238945 65.485506 
L 375.877764 62.91499 
L 379.477892 60.344474 
L 383.039327 57.800445 
L 386.639455 55.256476 
L 390.200802 52.712447 
L 393.762237 50.168418 
L 397.323673 47.62445 
L 400.88502 45.080421 
L 404.485147 42.509905 
L 408.085275 39.939389 
L 411.646711 37.39536 
L 415.091982 34.930852 
" clip-path="url(#pc3ae98d4ef)" style="fill: none; stroke: #1f77b4; stroke-width: 1.5; stroke-linecap: square"/>
   </g>
   <g id="line2d_12">
    <path d="M 65.531133 282.070878 
L 66.073088 281.673376 
L 67.582821 280.639873 
L 69.634505 279.288367 
L 72.034595 277.698363 
L 74.783083 275.896353 
L 77.608989 274.041345 
L 80.473615 272.08034 
L 83.338231 270.092829 
L 86.202856 268.052321 
L 89.028763 266.011818 
L 91.893388 263.865307 
L 94.758005 261.745301 
L 97.661339 259.59879 
L 100.796942 257.293284 
L 103.855115 255.067275 
L 107.029427 252.788268 
L 110.20373 250.482755 
L 113.455461 248.15075 
L 116.629773 245.871743 
L 119.765367 243.59273 
L 122.978388 241.260724 
L 126.230119 238.955218 
L 129.481851 236.570208 
L 132.617444 234.3177 
L 135.946595 231.906185 
L 139.120906 229.627178 
L 142.411356 227.268668 
L 145.663087 224.883688 
L 148.914783 222.578164 
L 152.127814 220.299126 
L 155.495701 217.914141 
L 158.786115 215.608616 
L 161.999145 213.303092 
L 165.289648 210.997628 
L 168.541371 208.718591 
L 171.793093 206.386579 
L 175.044816 204.081055 
L 178.296538 201.775591 
L 181.586952 199.443579 
L 184.877455 197.111568 
L 188.129178 194.806044 
L 191.342208 192.474032 
L 194.516458 190.194995 
L 197.768269 187.889531 
L 201.097375 185.504485 
L 204.349098 183.199021 
L 207.60082 180.840462 
L 210.81385 178.50845 
L 214.026881 176.149952 
L 217.239911 173.844427 
L 220.491634 171.485929 
L 223.782048 169.12743 
L 226.995078 166.795419 
L 230.246889 164.43692 
L 233.343755 162.18437 
L 237.485837 159.825871 
L 239.8472 157.440886 
L 243.06023 155.135361 
L 246.311953 152.80335 
L 249.486291 150.497886 
L 252.738014 148.165814 
L 255.989736 145.807315 
L 259.241458 143.475304 
L 262.493181 141.116805 
L 265.744903 138.784794 
L 268.88055 136.532304 
L 272.09358 134.200293 
L 275.26783 131.921255 
L 278.48086 129.589244 
L 281.655199 127.283719 
L 284.868229 124.951708 
L 288.081259 122.619696 
L 291.255509 120.34072 
L 294.46854 118.008708 
L 297.68157 115.703184 
L 300.933292 113.344685 
L 304.185015 111.012674 
L 307.398045 108.707149 
L 310.572384 106.428173 
L 313.785414 104.122648 
L 317.037136 101.790637 
L 320.288859 99.458625 
L 323.501889 97.153101 
L 326.637447 94.874124 
L 329.734401 92.568599 
L 332.947343 90.263075 
L 336.121682 87.931064 
L 339.334712 85.546078 
L 342.431578 83.293528 
L 345.721992 80.908542 
L 348.818947 78.656052 
L 352.070669 76.297554 
L 355.283699 73.965542 
L 358.419257 71.686505 
L 361.632288 69.354493 
L 364.88401 67.022482 
L 368.058348 64.716958 
L 371.193906 62.43792 
L 374.368245 60.132396 
" clip-path="url(#pc3ae98d4ef)" style="fill: none; stroke: #ff7f0e; stroke-width: 1.5; stroke-linecap: square"/>
   </g>
   <g id="line2d_13">
    <path d="M 64.718201 282.892381 
L 65.260155 282.521379 
L 66.615043 281.620375 
L 68.511887 280.427868 
L 70.563573 279.102867 
L 72.808816 277.645358 
L 75.092769 276.081853 
L 77.454151 274.465349 
L 79.970362 272.742843 
L 82.486591 270.967332 
L 85.08023 269.191827 
L 87.828717 267.31032 
L 90.538495 265.428813 
L 93.325692 263.494307 
L 96.190308 261.533296 
L 99.132353 259.466288 
L 101.996969 257.452279 
L 104.822876 255.438269 
L 107.687501 253.42426 
L 110.590827 251.383751 
L 113.532872 249.290245 
L 116.397497 247.223231 
L 119.223404 245.182722 
L 122.049311 243.142214 
L 124.913927 241.101705 
L 127.778552 239.061197 
L 130.643169 237.020688 
L 133.469075 234.98018 
L 137.069203 232.939677 
L 139.159607 230.925668 
L 141.946804 228.911658 
L 144.850139 226.818152 
L 147.598635 224.830653 
L 150.46326 222.790121 
L 153.289194 220.749649 
L 156.192511 218.656142 
L 158.940972 216.668644 
L 161.844289 214.601624 
L 164.592749 212.640613 
L 167.496155 210.60008 
L 170.360781 208.53306 
L 173.186625 206.519075 
L 176.05125 204.452055 
L 178.915876 202.43807 
L 181.741809 200.424024 
L 184.528962 198.436526 
L 187.316203 196.396054 
L 190.180828 194.355521 
L 193.006761 192.315049 
L 195.871387 190.274516 
L 198.658539 188.260531 
L 201.523164 186.193511 
L 204.349098 184.152979 
L 207.13625 182.165481 
L 210.000876 180.098461 
L 212.826809 178.084476 
L 215.691434 176.043943 
L 218.401203 174.029958 
L 221.227136 172.015973 
L 224.053069 169.97544 
L 226.840222 167.961455 
L 229.627463 165.920922 
L 232.453396 163.880389 
L 235.318022 161.866404 
L 238.143866 159.825871 
L 240.969799 157.785399 
L 243.71826 155.797901 
L 246.582885 153.783855 
L 249.408819 151.796357 
L 252.234752 149.755885 
L 255.138069 147.688865 
L 257.88653 145.727854 
L 260.789936 143.634347 
L 263.538396 141.646849 
L 266.403021 139.606317 
L 269.228955 137.592331 
L 272.09358 135.551799 
L 274.919425 133.511266 
L 277.78405 131.470794 
L 280.648675 129.430261 
L 283.474608 127.416276 
L 286.223069 125.428778 
L 289.049002 123.414732 
L 291.913628 121.37426 
L 294.662177 119.386762 
L 297.449329 117.346229 
L 300.275263 115.332244 
L 303.062415 113.344685 
L 305.888349 111.304213 
L 308.752974 109.26368 
L 311.540215 107.249695 
L 314.36606 105.209162 
L 317.153301 103.16869 
L 319.901762 101.181132 
L 322.727695 99.114172 
L 325.553628 97.100127 
L 328.379473 95.086142 
L 331.128022 93.098643 
L 333.915175 91.084598 
L 336.741108 89.070613 
" clip-path="url(#pc3ae98d4ef)" style="fill: none; stroke: #2ca02c; stroke-width: 1.5; stroke-linecap: square"/>
   </g>
   <g id="line2d_14">
    <path d="M 63.711712 283.846385 
L 64.137534 283.528384 
L 65.260154 282.73338 
L 66.731176 281.699876 
L 68.434459 280.507371 
L 70.292596 279.288367 
L 72.266863 277.936861 
L 74.395968 276.532357 
L 76.486372 275.101348 
L 78.731615 273.564341 
L 80.89943 272.106839 
L 83.183392 270.569833 
L 85.506055 268.979828 
L 87.983565 267.336819 
L 90.461067 265.667311 
L 92.899867 264.050807 
L 95.377378 262.381299 
L 97.893598 260.685292 
L 100.448528 258.936286 
L 102.926047 257.266778 
L 105.519686 255.491268 
L 108.074616 253.768761 
L 110.629555 252.019756 
L 113.145775 250.297249 
L 115.661995 248.574737 
L 118.100796 246.878729 
L 120.694435 245.103225 
L 123.210655 243.354219 
L 125.726884 241.658206 
L 128.243104 239.9092 
L 130.875453 238.133696 
L 133.352964 236.38469 
L 135.907894 234.635684 
L 138.385395 232.913178 
L 140.901624 231.164172 
L 143.379126 229.441666 
L 145.934055 227.69266 
L 148.411522 225.970142 
L 150.927742 224.221148 
L 153.40527 222.498642 
L 155.960182 220.749649 
L 158.43771 219.027142 
L 160.915238 217.304636 
L 163.392766 215.582129 
L 165.870206 213.833136 
L 168.347734 212.110629 
L 170.825262 210.388123 
L 173.341482 208.639069 
L 175.896394 206.863588 
L 178.373922 205.114595 
L 180.85145 203.392089 
L 183.290198 201.696069 
L 185.806418 199.947076 
L 188.980756 198.198082 
L 190.800166 196.449028 
L 193.277694 194.726522 
L 195.755222 192.977528 
L 198.232662 191.255022 
L 200.71019 189.532516 
L 203.22641 187.783522 
L 205.703938 186.061016 
L 208.142685 184.364996 
L 210.658905 182.589516 
L 213.136433 180.867009 
L 215.57527 179.17099 
L 218.130182 177.395509 
L 220.60771 175.673003 
L 223.12393 173.92401 
L 225.562677 172.201503 
L 228.040205 170.478997 
L 230.517733 168.75649 
L 233.033954 166.980949 
L 235.550174 165.258443 
L 238.027613 163.535936 
L 240.543833 161.786943 
L 243.021361 160.03795 
L 245.460197 158.34193 
L 247.976417 156.592937 
L 250.453857 154.843943 
L 252.931385 153.094889 
L 255.408913 151.372383 
L 257.847661 149.676424 
L 260.286497 147.92737 
L 262.725333 146.231411 
L 265.202772 144.482357 
L 267.718992 142.733364 
L 270.119137 141.037344 
L 272.596576 139.314838 
L 275.074104 137.592331 
L 277.551632 135.843338 
L 280.02916 134.094345 
L 282.54538 132.345351 
L 284.984128 130.649332 
L 287.500348 128.873791 
L 290.016568 127.151345 
L 292.455404 125.428838 
L 294.932844 123.679784 
L 297.410372 121.930791 
L 299.849208 120.208284 
L 302.365428 118.485778 
" clip-path="url(#pc3ae98d4ef)" style="fill: none; stroke: #d62728; stroke-width: 1.5; stroke-linecap: square"/>
   </g>
   <g id="line2d_15">
    <path d="M 62.163268 284.747388 
L 62.472957 284.508887 
L 63.402023 283.819885 
L 64.485933 283.024881 
L 65.802111 282.150378 
L 67.156998 281.196375 
L 68.589307 280.189369 
L 70.253887 279.076368 
L 72.034595 277.857364 
L 73.854014 276.611855 
L 75.712151 275.366351 
L 77.725127 274.014845 
L 79.699394 272.689845 
L 81.67366 271.364838 
L 83.686636 269.986833 
L 85.699612 268.635327 
L 87.751298 267.257322 
L 89.841702 265.826312 
L 91.893388 264.448307 
L 93.945074 263.070302 
L 95.99676 261.665798 
L 98.087164 260.234788 
L 100.17756 258.803785 
L 102.267964 257.39928 
L 104.939023 255.941772 
L 106.448755 254.537267 
L 108.50045 253.132763 
L 110.552135 251.701753 
L 112.681241 250.244251 
L 114.771645 248.813241 
L 116.86204 247.408737 
L 118.913726 245.951234 
L 120.965421 244.520225 
L 123.055816 243.062722 
L 125.068792 241.684717 
L 127.197906 240.227208 
L 129.288302 238.822704 
L 131.339988 237.391695 
L 133.430383 235.934186 
L 135.482069 234.503182 
L 137.611183 233.045674 
L 139.662869 231.61467 
L 141.714555 230.183661 
L 143.766232 228.779163 
L 145.817917 227.348153 
L 147.94704 225.89062 
L 149.998691 224.459653 
L 152.089122 223.028625 
L 154.140772 221.597658 
L 156.231203 220.16663 
L 158.360326 218.735603 
L 160.450668 217.278088 
L 162.502407 215.873608 
L 164.554057 214.416093 
L 166.605796 212.985066 
L 168.657447 211.554098 
L 170.747878 210.123071 
L 172.83822 208.692043 
L 174.889959 207.261076 
L 176.941609 205.803561 
L 178.99326 204.372533 
L 181.083691 202.941566 
L 183.135341 201.537026 
L 185.18708 200.106059 
L 187.316203 198.648544 
L 189.329161 197.244003 
L 191.380812 195.839523 
L 193.43255 194.408495 
L 195.484201 193.004015 
L 197.574632 191.572988 
L 199.664974 190.168508 
L 201.716713 188.710993 
L 203.807055 187.280026 
L 205.858794 185.875485 
L 207.910445 184.444518 
L 209.962095 183.01349 
L 211.975142 181.60901 
L 214.065484 180.177983 
L 216.117223 178.720468 
L 218.207566 177.289501 
L 220.259216 175.858473 
L 222.852909 174.453993 
L 224.362605 172.996478 
L 226.414344 171.591998 
L 228.504687 170.16097 
L 230.517645 168.75649 
L 232.569384 167.298976 
L 234.621034 165.867948 
L 236.672685 164.463468 
L 238.685731 163.058927 
L 240.737382 161.654447 
L 242.827813 160.196932 
L 244.840771 158.792452 
L 246.969894 157.361425 
L 249.021544 155.930458 
L 251.073195 154.552404 
L 253.124934 153.147924 
L 255.215276 151.743444 
L 257.267015 150.338903 
L 259.318665 148.934423 
" clip-path="url(#pc3ae98d4ef)" style="fill: none; stroke: #9467bd; stroke-width: 1.5; stroke-linecap: square"/>
   </g>
   <g id="line2d_16">
    <path d="M 60.80838 285.780892 
L 61.079358 285.595391 
L 61.814868 285.09189 
L 62.627802 284.482387 
L 63.556867 283.819884 
L 64.602067 283.077882 
L 65.724689 282.309378 
L 66.963443 281.434875 
L 68.27962 280.533871 
L 69.673223 279.57987 
L 71.105527 278.599365 
L 72.537839 277.59236 
L 74.008862 276.585355 
L 75.479884 275.578351 
L 76.989616 274.518348 
L 78.538058 273.431846 
L 80.04779 272.371837 
L 81.557522 271.338333 
L 83.144682 270.25183 
L 84.654414 269.165328 
L 86.202856 268.052321 
L 87.751298 266.965819 
L 89.29974 265.905816 
L 90.84819 264.792808 
L 92.435342 263.706306 
L 93.945074 262.619798 
L 95.532225 261.506797 
L 97.080676 260.420294 
L 98.629118 259.307287 
L 100.17756 258.194286 
L 101.726001 257.081278 
L 103.235733 255.994776 
L 104.745474 254.908274 
L 106.293916 253.768767 
L 107.803648 252.682265 
L 109.35209 251.622256 
L 110.900532 250.535754 
L 112.448982 249.422752 
L 113.997424 248.309745 
L 115.545866 247.196744 
L 117.094308 246.136735 
L 118.642749 245.023733 
L 120.1912 243.910726 
L 121.739642 242.824224 
L 123.288083 241.711222 
L 124.836525 240.624714 
L 126.423686 239.511713 
L 128.397952 238.398705 
L 129.481859 237.312203 
L 131.030301 236.225695 
L 132.578743 235.112688 
L 134.127176 234.026185 
L 135.675618 232.939683 
L 137.224059 231.853175 
L 138.733791 230.766673 
L 140.282233 229.680171 
L 141.869385 228.567163 
L 143.417826 227.454156 
L 149.611594 223.08166 
L 151.160071 221.968598 
L 152.708459 220.882144 
L 154.295629 219.769143 
L 155.844106 218.656081 
L 157.392494 217.54308 
L 158.90228 216.456626 
L 160.411976 215.370112 
L 161.882981 214.310084 
L 163.431458 213.22357 
L 164.979847 212.137056 
L 166.567016 210.997567 
L 168.115493 209.911053 
L 169.62519 208.824599 
L 171.173667 207.738085 
L 172.683363 206.651571 
L 174.231841 205.565057 
L 175.780229 204.478542 
L 177.328706 203.392028 
L 178.915876 202.279027 
L 180.425572 201.21906 
L 182.012742 200.106059 
L 183.522438 199.019544 
L 185.070915 197.906543 
L 186.619304 196.820029 
L 188.129089 195.733514 
L 189.677478 194.673487 
L 192.774432 192.473971 
L 194.322821 191.387518 
L 195.871298 190.274516 
L 197.458467 189.188002 
L 198.968164 188.101488 
L 200.516641 186.988486 
L 202.06503 185.901972 
L 203.613507 184.815458 
L 205.123203 183.728944 
L 206.710373 182.615942 
L 208.220069 181.529489 
" clip-path="url(#pc3ae98d4ef)" style="fill: none; stroke: #8c564b; stroke-width: 1.5; stroke-linecap: square"/>
   </g>
   <g id="line2d_17">
    <path d="M 59.453492 286.761396 
L 59.608337 286.602395 
L 60.07287 286.231394 
L 60.614825 285.807393 
L 61.15678 285.409891 
L 61.776158 284.932889 
L 62.550379 284.376387 
L 63.402023 283.766884 
L 64.292379 283.104381 
L 65.182734 282.441878 
L 66.111799 281.752876 
L 67.079577 281.063872 
L 68.047353 280.321871 
L 69.015131 279.60637 
L 69.98291 278.890868 
L 70.950688 278.148861 
L 71.957176 277.433359 
L 72.924954 276.717857 
L 73.931442 275.97585 
L 74.93793 275.20735 
L 75.905709 274.465349 
L 76.912197 273.723342 
L 77.918685 273.007841 
L 78.925173 272.239341 
L 79.892951 271.523839 
L 80.938149 270.755333 
L 81.905927 270.013332 
L 82.951125 269.244826 
L 83.918903 268.502825 
L 84.886682 267.760824 
L 85.85446 267.018823 
L 86.822238 266.276816 
L 87.790017 265.534815 
L 88.757795 264.792814 
L 89.725573 264.050807 
L 90.732061 263.282307 
L 91.738549 262.540306 
L 92.706328 261.798299 
L 93.712816 261.056299 
L 94.719304 260.314298 
L 95.725792 259.572291 
L 96.925837 258.856789 
L 97.62263 258.114788 
L 98.629118 257.372781 
L 99.635606 256.63078 
L 100.603384 255.888779 
L 101.648591 255.146778 
L 102.655079 254.404771 
L 103.661567 253.662771 
L 104.668055 252.92077 
L 105.674543 252.178763 
L 106.642321 251.463261 
L 107.648809 250.694761 
L 108.655297 249.979253 
L 109.661785 249.210753 
L 110.668273 248.468752 
L 111.674761 247.726745 
L 112.64254 247.011243 
L 113.610318 246.269243 
L 114.616806 245.527242 
L 115.623294 244.811734 
L 116.591072 244.096232 
L 117.59756 243.327732 
L 118.565339 242.61223 
L 119.571827 241.870223 
L 120.539605 241.128223 
L 121.507383 240.412721 
L 122.513871 239.644215 
L 123.52036 238.928713 
L 124.526848 238.186712 
L 125.494626 237.444711 
L 126.501114 236.729209 
L 127.430182 235.987209 
L 128.436671 235.271707 
L 129.443159 234.529706 
L 130.410937 233.787699 
L 131.378706 233.045698 
L 132.346485 232.330196 
L 133.352973 231.56169 
L 134.320742 230.846195 
L 135.32723 230.104188 
L 136.333718 229.388692 
L 137.340215 228.620186 
L 138.307985 227.878179 
L 139.275763 227.136178 
L 140.243532 226.394177 
L 141.211302 225.652176 
L 142.17908 224.936662 
L 143.108149 224.194661 
L 144.075918 223.45266 
L 145.043697 222.737147 
L 146.050185 221.995146 
L 147.017954 221.253145 
L 147.985732 220.537631 
L 148.992256 219.79563 
L 149.998691 219.053629 
L 151.005214 218.338176 
L 151.972957 217.596175 
L 152.9407 216.854174 
L 153.947223 216.112173 
" clip-path="url(#pc3ae98d4ef)" style="fill: none; stroke: #e377c2; stroke-width: 1.5; stroke-linecap: square"/>
   </g>
   <g id="line2d_18">
    <path d="M 59.02767 287.185398 
L 59.066382 287.132398 
L 59.259937 286.999897 
L 59.492204 286.840896 
L 59.685759 286.655396 
L 59.956736 286.443395 
L 60.266426 286.204894 
L 60.614825 285.886893 
L 61.001936 285.595391 
L 61.389047 285.27739 
L 61.776158 284.959389 
L 62.20198 284.641388 
L 63.440735 283.607884 
L 63.866557 283.236882 
L 64.292379 282.892381 
L 64.718201 282.521379 
L 65.144022 282.150378 
L 65.569844 281.779377 
L 65.995665 281.408375 
L 66.421487 281.063872 
L 66.847308 280.666373 
L 67.27313 280.295372 
L 67.698952 279.924372 
L 68.124772 279.553371 
L 68.511887 279.182365 
L 68.898993 278.811364 
L 69.286108 278.440364 
L 69.711933 278.069363 
L 70.099039 277.698363 
L 70.524863 277.327362 
L 70.911969 276.982861 
L 71.453923 276.611855 
L 71.724909 276.240854 
L 72.112015 275.843355 
L 72.537839 275.472354 
L 72.963655 275.101354 
L 73.35077 274.730347 
L 73.776595 274.332848 
L 74.20241 273.961847 
L 74.628235 273.590847 
L 75.092769 273.219846 
L 75.518585 272.822341 
L 75.94441 272.45134 
L 76.408944 272.08034 
L 76.834768 271.709339 
L 77.260593 271.31184 
L 77.686409 270.940839 
L 78.112233 270.569833 
L 78.538058 270.198832 
L 79.002592 269.801333 
L 79.428417 269.456831 
L 79.854241 269.059332 
L 80.280057 268.688325 
L 80.744591 268.290826 
L 81.170416 267.919825 
L 81.596241 267.548825 
L 82.022065 267.151325 
L 82.4866 266.780318 
L 82.912415 266.382819 
L 83.29953 266.011818 
L 83.764064 265.640818 
L 84.189889 265.243318 
L 84.615705 264.872312 
L 85.041529 264.501311 
L 85.506064 264.130311 
L 85.931888 263.732811 
L 86.396423 263.361811 
L 86.822247 262.99081 
L 87.248063 262.593305 
L 87.673887 262.222304 
L 88.099712 261.851304 
L 88.564246 261.480303 
L 88.990071 261.082804 
L 89.377177 260.711797 
L 89.841711 260.340797 
L 90.267536 259.943297 
L 90.73207 259.572297 
L 91.157895 259.201296 
L 91.58371 258.83029 
L 92.009535 258.43279 
L 92.43536 258.06179 
L 93.751534 256.922283 
L 94.177359 256.551283 
L 95.454833 255.438281 
L 97.545228 253.556774 
L 97.905613 253.159274 
L 98.396877 252.788268 
L 98.822702 252.417267 
L 99.674342 251.648767 
L 99.674342 251.648767 
" clip-path="url(#pc3ae98d4ef)" style="fill: none; stroke: #7f7f7f; stroke-width: 1.5; stroke-linecap: square"/>
   </g>
   <g id="line2d_19">
    <path d="M 59.02767 287.185398 
L 427.51858 34.930852 
L 427.51858 34.930852 
" clip-path="url(#pc3ae98d4ef)" style="fill: none; stroke: #bcbd22; stroke-width: 1.5; stroke-linecap: square"/>
   </g>
   <g id="patch_3">
    <path d="M 40.603125 299.798125 
L 40.603125 22.318125 
" style="fill: none; stroke: #000000; stroke-width: 0.8; stroke-linejoin: miter; stroke-linecap: square"/>
   </g>
   <g id="patch_4">
    <path d="M 445.943125 299.798125 
L 445.943125 22.318125 
" style="fill: none; stroke: #000000; stroke-width: 0.8; stroke-linejoin: miter; stroke-linecap: square"/>
   </g>
   <g id="patch_5">
    <path d="M 40.603125 299.798125 
L 445.943125 299.798125 
" style="fill: none; stroke: #000000; stroke-width: 0.8; stroke-linejoin: miter; stroke-linecap: square"/>
   </g>
   <g id="patch_6">
    <path d="M 40.603125 22.318125 
L 445.943125 22.318125 
" style="fill: none; stroke: #000000; stroke-width: 0.8; stroke-linejoin: miter; stroke-linecap: square"/>
   </g>
   <g id="text_13">
    <!-- Left position vs. Right Position -->
    <g transform="translate(152.850313 16.318125) scale(0.12 -0.12)">
     <defs>
      <path id="DejaVuSans-70" d="M 1159 525 
L 1159 -1331 
L 581 -1331 
L 581 3500 
L 1159 3500 
L 1159 2969 
Q 1341 3281 1617 3432 
Q 1894 3584 2278 3584 
Q 2916 3584 3314 3078 
Q 3713 2572 3713 1747 
Q 3713 922 3314 415 
Q 2916 -91 2278 -91 
Q 1894 -91 1617 61 
Q 1341 213 1159 525 
z
M 3116 1747 
Q 3116 2381 2855 2742 
Q 2594 3103 2138 3103 
Q 1681 3103 1420 2742 
Q 1159 2381 1159 1747 
Q 1159 1113 1420 752 
Q 1681 391 2138 391 
Q 2594 391 2855 752 
Q 3116 1113 3116 1747 
z
" transform="scale(0.015625)"/>
      <path id="DejaVuSans-76" d="M 191 3500 
L 800 3500 
L 1894 563 
L 2988 3500 
L 3597 3500 
L 2284 0 
L 1503 0 
L 191 3500 
z
" transform="scale(0.015625)"/>
      <path id="DejaVuSans-2e" d="M 684 794 
L 1344 794 
L 1344 0 
L 684 0 
L 684 794 
z
" transform="scale(0.015625)"/>
     </defs>
     <use xlink:href="#DejaVuSans-4c"/>
     <use xlink:href="#DejaVuSans-65" transform="translate(53.962891 0)"/>
     <use xlink:href="#DejaVuSans-66" transform="translate(115.486328 0)"/>
     <use xlink:href="#DejaVuSans-74" transform="translate(148.941406 0)"/>
     <use xlink:href="#DejaVuSans-20" transform="translate(188.150391 0)"/>
     <use xlink:href="#DejaVuSans-70" transform="translate(219.9375 0)"/>
     <use xlink:href="#DejaVuSans-6f" transform="translate(283.414062 0)"/>
     <use xlink:href="#DejaVuSans-73" transform="translate(344.595703 0)"/>
     <use xlink:href="#DejaVuSans-69" transform="translate(396.695312 0)"/>
     <use xlink:href="#DejaVuSans-74" transform="translate(424.478516 0)"/>
     <use xlink:href="#DejaVuSans-69" transform="translate(463.6875 0)"/>
     <use xlink:href="#DejaVuSans-6f" transform="translate(491.470703 0)"/>
     <use xlink:href="#DejaVuSans-6e" transform="translate(552.652344 0)"/>
     <use xlink:href="#DejaVuSans-20" transform="translate(616.03125 0)"/>
     <use xlink:href="#DejaVuSans-76" transform="translate(647.818359 0)"/>
     <use xlink:href="#DejaVuSans-73" transform="translate(706.998047 0)"/>
     <use xlink:href="#DejaVuSans-2e" transform="translate(759.097656 0)"/>
     <use xlink:href="#DejaVuSans-20" transform="translate(790.884766 0)"/>
     <use xlink:href="#DejaVuSans-52" transform="translate(822.671875 0)"/>
     <use xlink:href="#DejaVuSans-69" transform="translate(892.154297 0)"/>
     <use xlink:href="#DejaVuSans-67" transform="translate(919.9375 0)"/>
     <use xlink:href="#DejaVuSans-68" transform="translate(983.414062 0)"/>
     <use xlink:href="#DejaVuSans-74" transform="translate(1046.792969 0)"/>
     <use xlink:href="#DejaVuSans-20" transform="translate(1086.001953 0)"/>
     <use xlink:href="#DejaVuSans-50" transform="translate(1117.789062 0)"/>
     <use xlink:href="#DejaVuSans-6f" transform="translate(1174.466797 0)"/>
     <use xlink:href="#DejaVuSans-73" transform="translate(1235.648438 0)"/>
     <use xlink:href="#DejaVuSans-69" transform="translate(1287.748047 0)"/>
     <use xlink:href="#DejaVuSans-74" transform="translate(1315.53125 0)"/>
     <use xlink:href="#DejaVuSans-69" transform="translate(1354.740234 0)"/>
     <use xlink:href="#DejaVuSans-6f" transform="translate(1382.523438 0)"/>
     <use xlink:href="#DejaVuSans-6e" transform="translate(1443.705078 0)"/>
    </g>
   </g>
   <g id="legend_1">
    <g id="patch_7">
     <path d="M 322.418125 294.798125 
L 438.943125 294.798125 
Q 440.943125 294.798125 440.943125 292.798125 
L 440.943125 161.695 
Q 440.943125 159.695 438.943125 159.695 
L 322.418125 159.695 
Q 320.418125 159.695 320.418125 161.695 
L 320.418125 292.798125 
Q 320.418125 294.798125 322.418125 294.798125 
z
" style="fill: #ffffff; opacity: 0.8; stroke: #cccccc; stroke-linejoin: miter"/>
    </g>
    <g id="line2d_20">
     <path d="M 324.418125 167.793438 
L 334.418125 167.793438 
L 344.418125 167.793438 
" style="fill: none; stroke: #1f77b4; stroke-width: 1.5; stroke-linecap: square"/>
    </g>
    <g id="text_14">
     <!-- Ref Speed = 680 -->
     <g transform="translate(352.418125 171.293438) scale(0.1 -0.1)">
      <defs>
       <path id="DejaVuSans-53" d="M 3425 4513 
L 3425 3897 
Q 3066 4069 2747 4153 
Q 2428 4238 2131 4238 
Q 1616 4238 1336 4038 
Q 1056 3838 1056 3469 
Q 1056 3159 1242 3001 
Q 1428 2844 1947 2747 
L 2328 2669 
Q 3034 2534 3370 2195 
Q 3706 1856 3706 1288 
Q 3706 609 3251 259 
Q 2797 -91 1919 -91 
Q 1588 -91 1214 -16 
Q 841 59 441 206 
L 441 856 
Q 825 641 1194 531 
Q 1563 422 1919 422 
Q 2459 422 2753 634 
Q 3047 847 3047 1241 
Q 3047 1584 2836 1778 
Q 2625 1972 2144 2069 
L 1759 2144 
Q 1053 2284 737 2584 
Q 422 2884 422 3419 
Q 422 4038 858 4394 
Q 1294 4750 2059 4750 
Q 2388 4750 2728 4690 
Q 3069 4631 3425 4513 
z
" transform="scale(0.015625)"/>
       <path id="DejaVuSans-3d" d="M 678 2906 
L 4684 2906 
L 4684 2381 
L 678 2381 
L 678 2906 
z
M 678 1631 
L 4684 1631 
L 4684 1100 
L 678 1100 
L 678 1631 
z
" transform="scale(0.015625)"/>
       <path id="DejaVuSans-36" d="M 2113 2584 
Q 1688 2584 1439 2293 
Q 1191 2003 1191 1497 
Q 1191 994 1439 701 
Q 1688 409 2113 409 
Q 2538 409 2786 701 
Q 3034 994 3034 1497 
Q 3034 2003 2786 2293 
Q 2538 2584 2113 2584 
z
M 3366 4563 
L 3366 3988 
Q 3128 4100 2886 4159 
Q 2644 4219 2406 4219 
Q 1781 4219 1451 3797 
Q 1122 3375 1075 2522 
Q 1259 2794 1537 2939 
Q 1816 3084 2150 3084 
Q 2853 3084 3261 2657 
Q 3669 2231 3669 1497 
Q 3669 778 3244 343 
Q 2819 -91 2113 -91 
Q 1303 -91 875 529 
Q 447 1150 447 2328 
Q 447 3434 972 4092 
Q 1497 4750 2381 4750 
Q 2619 4750 2861 4703 
Q 3103 4656 3366 4563 
z
" transform="scale(0.015625)"/>
       <path id="DejaVuSans-38" d="M 2034 2216 
Q 1584 2216 1326 1975 
Q 1069 1734 1069 1313 
Q 1069 891 1326 650 
Q 1584 409 2034 409 
Q 2484 409 2743 651 
Q 3003 894 3003 1313 
Q 3003 1734 2745 1975 
Q 2488 2216 2034 2216 
z
M 1403 2484 
Q 997 2584 770 2862 
Q 544 3141 544 3541 
Q 544 4100 942 4425 
Q 1341 4750 2034 4750 
Q 2731 4750 3128 4425 
Q 3525 4100 3525 3541 
Q 3525 3141 3298 2862 
Q 3072 2584 2669 2484 
Q 3125 2378 3379 2068 
Q 3634 1759 3634 1313 
Q 3634 634 3220 271 
Q 2806 -91 2034 -91 
Q 1263 -91 848 271 
Q 434 634 434 1313 
Q 434 1759 690 2068 
Q 947 2378 1403 2484 
z
M 1172 3481 
Q 1172 3119 1398 2916 
Q 1625 2713 2034 2713 
Q 2441 2713 2670 2916 
Q 2900 3119 2900 3481 
Q 2900 3844 2670 4047 
Q 2441 4250 2034 4250 
Q 1625 4250 1398 4047 
Q 1172 3844 1172 3481 
z
" transform="scale(0.015625)"/>
      </defs>
      <use xlink:href="#DejaVuSans-52"/>
      <use xlink:href="#DejaVuSans-65" transform="translate(64.982422 0)"/>
      <use xlink:href="#DejaVuSans-66" transform="translate(126.505859 0)"/>
      <use xlink:href="#DejaVuSans-20" transform="translate(161.710938 0)"/>
      <use xlink:href="#DejaVuSans-53" transform="translate(193.498047 0)"/>
      <use xlink:href="#DejaVuSans-70" transform="translate(256.974609 0)"/>
      <use xlink:href="#DejaVuSans-65" transform="translate(320.451172 0)"/>
      <use xlink:href="#DejaVuSans-65" transform="translate(381.974609 0)"/>
      <use xlink:href="#DejaVuSans-64" transform="translate(443.498047 0)"/>
      <use xlink:href="#DejaVuSans-20" transform="translate(506.974609 0)"/>
      <use xlink:href="#DejaVuSans-3d" transform="translate(538.761719 0)"/>
      <use xlink:href="#DejaVuSans-20" transform="translate(622.550781 0)"/>
      <use xlink:href="#DejaVuSans-36" transform="translate(654.337891 0)"/>
      <use xlink:href="#DejaVuSans-38" transform="translate(717.960938 0)"/>
      <use xlink:href="#DejaVuSans-30" transform="translate(781.583984 0)"/>
     </g>
    </g>
    <g id="line2d_21">
     <path d="M 324.418125 182.471563 
L 334.418125 182.471563 
L 344.418125 182.471563 
" style="fill: none; stroke: #ff7f0e; stroke-width: 1.5; stroke-linecap: square"/>
    </g>
    <g id="text_15">
     <!-- Ref Speed = 595 -->
     <g transform="translate(352.418125 185.971563) scale(0.1 -0.1)">
      <defs>
       <path id="DejaVuSans-35" d="M 691 4666 
L 3169 4666 
L 3169 4134 
L 1269 4134 
L 1269 2991 
Q 1406 3038 1543 3061 
Q 1681 3084 1819 3084 
Q 2600 3084 3056 2656 
Q 3513 2228 3513 1497 
Q 3513 744 3044 326 
Q 2575 -91 1722 -91 
Q 1428 -91 1123 -41 
Q 819 9 494 109 
L 494 744 
Q 775 591 1075 516 
Q 1375 441 1709 441 
Q 2250 441 2565 725 
Q 2881 1009 2881 1497 
Q 2881 1984 2565 2268 
Q 2250 2553 1709 2553 
Q 1456 2553 1204 2497 
Q 953 2441 691 2322 
L 691 4666 
z
" transform="scale(0.015625)"/>
       <path id="DejaVuSans-39" d="M 703 97 
L 703 672 
Q 941 559 1184 500 
Q 1428 441 1663 441 
Q 2288 441 2617 861 
Q 2947 1281 2994 2138 
Q 2813 1869 2534 1725 
Q 2256 1581 1919 1581 
Q 1219 1581 811 2004 
Q 403 2428 403 3163 
Q 403 3881 828 4315 
Q 1253 4750 1959 4750 
Q 2769 4750 3195 4129 
Q 3622 3509 3622 2328 
Q 3622 1225 3098 567 
Q 2575 -91 1691 -91 
Q 1453 -91 1209 -44 
Q 966 3 703 97 
z
M 1959 2075 
Q 2384 2075 2632 2365 
Q 2881 2656 2881 3163 
Q 2881 3666 2632 3958 
Q 2384 4250 1959 4250 
Q 1534 4250 1286 3958 
Q 1038 3666 1038 3163 
Q 1038 2656 1286 2365 
Q 1534 2075 1959 2075 
z
" transform="scale(0.015625)"/>
      </defs>
      <use xlink:href="#DejaVuSans-52"/>
      <use xlink:href="#DejaVuSans-65" transform="translate(64.982422 0)"/>
      <use xlink:href="#DejaVuSans-66" transform="translate(126.505859 0)"/>
      <use xlink:href="#DejaVuSans-20" transform="translate(161.710938 0)"/>
      <use xlink:href="#DejaVuSans-53" transform="translate(193.498047 0)"/>
      <use xlink:href="#DejaVuSans-70" transform="translate(256.974609 0)"/>
      <use xlink:href="#DejaVuSans-65" transform="translate(320.451172 0)"/>
      <use xlink:href="#DejaVuSans-65" transform="translate(381.974609 0)"/>
      <use xlink:href="#DejaVuSans-64" transform="translate(443.498047 0)"/>
      <use xlink:href="#DejaVuSans-20" transform="translate(506.974609 0)"/>
      <use xlink:href="#DejaVuSans-3d" transform="translate(538.761719 0)"/>
      <use xlink:href="#DejaVuSans-20" transform="translate(622.550781 0)"/>
      <use xlink:href="#DejaVuSans-35" transform="translate(654.337891 0)"/>
      <use xlink:href="#DejaVuSans-39" transform="translate(717.960938 0)"/>
      <use xlink:href="#DejaVuSans-35" transform="translate(781.583984 0)"/>
     </g>
    </g>
    <g id="line2d_22">
     <path d="M 324.418125 197.149688 
L 334.418125 197.149688 
L 344.418125 197.149688 
" style="fill: none; stroke: #2ca02c; stroke-width: 1.5; stroke-linecap: square"/>
    </g>
    <g id="text_16">
     <!-- Ref Speed = 510 -->
     <g transform="translate(352.418125 200.649688) scale(0.1 -0.1)">
      <use xlink:href="#DejaVuSans-52"/>
      <use xlink:href="#DejaVuSans-65" transform="translate(64.982422 0)"/>
      <use xlink:href="#DejaVuSans-66" transform="translate(126.505859 0)"/>
      <use xlink:href="#DejaVuSans-20" transform="translate(161.710938 0)"/>
      <use xlink:href="#DejaVuSans-53" transform="translate(193.498047 0)"/>
      <use xlink:href="#DejaVuSans-70" transform="translate(256.974609 0)"/>
      <use xlink:href="#DejaVuSans-65" transform="translate(320.451172 0)"/>
      <use xlink:href="#DejaVuSans-65" transform="translate(381.974609 0)"/>
      <use xlink:href="#DejaVuSans-64" transform="translate(443.498047 0)"/>
      <use xlink:href="#DejaVuSans-20" transform="translate(506.974609 0)"/>
      <use xlink:href="#DejaVuSans-3d" transform="translate(538.761719 0)"/>
      <use xlink:href="#DejaVuSans-20" transform="translate(622.550781 0)"/>
      <use xlink:href="#DejaVuSans-35" transform="translate(654.337891 0)"/>
      <use xlink:href="#DejaVuSans-31" transform="translate(717.960938 0)"/>
      <use xlink:href="#DejaVuSans-30" transform="translate(781.583984 0)"/>
     </g>
    </g>
    <g id="line2d_23">
     <path d="M 324.418125 211.827813 
L 334.418125 211.827813 
L 344.418125 211.827813 
" style="fill: none; stroke: #d62728; stroke-width: 1.5; stroke-linecap: square"/>
    </g>
    <g id="text_17">
     <!-- Ref Speed = 425 -->
     <g transform="translate(352.418125 215.327813) scale(0.1 -0.1)">
      <use xlink:href="#DejaVuSans-52"/>
      <use xlink:href="#DejaVuSans-65" transform="translate(64.982422 0)"/>
      <use xlink:href="#DejaVuSans-66" transform="translate(126.505859 0)"/>
      <use xlink:href="#DejaVuSans-20" transform="translate(161.710938 0)"/>
      <use xlink:href="#DejaVuSans-53" transform="translate(193.498047 0)"/>
      <use xlink:href="#DejaVuSans-70" transform="translate(256.974609 0)"/>
      <use xlink:href="#DejaVuSans-65" transform="translate(320.451172 0)"/>
      <use xlink:href="#DejaVuSans-65" transform="translate(381.974609 0)"/>
      <use xlink:href="#DejaVuSans-64" transform="translate(443.498047 0)"/>
      <use xlink:href="#DejaVuSans-20" transform="translate(506.974609 0)"/>
      <use xlink:href="#DejaVuSans-3d" transform="translate(538.761719 0)"/>
      <use xlink:href="#DejaVuSans-20" transform="translate(622.550781 0)"/>
      <use xlink:href="#DejaVuSans-34" transform="translate(654.337891 0)"/>
      <use xlink:href="#DejaVuSans-32" transform="translate(717.960938 0)"/>
      <use xlink:href="#DejaVuSans-35" transform="translate(781.583984 0)"/>
     </g>
    </g>
    <g id="line2d_24">
     <path d="M 324.418125 226.505938 
L 334.418125 226.505938 
L 344.418125 226.505938 
" style="fill: none; stroke: #9467bd; stroke-width: 1.5; stroke-linecap: square"/>
    </g>
    <g id="text_18">
     <!-- Ref Speed = 340 -->
     <g transform="translate(352.418125 230.005938) scale(0.1 -0.1)">
      <use xlink:href="#DejaVuSans-52"/>
      <use xlink:href="#DejaVuSans-65" transform="translate(64.982422 0)"/>
      <use xlink:href="#DejaVuSans-66" transform="translate(126.505859 0)"/>
      <use xlink:href="#DejaVuSans-20" transform="translate(161.710938 0)"/>
      <use xlink:href="#DejaVuSans-53" transform="translate(193.498047 0)"/>
      <use xlink:href="#DejaVuSans-70" transform="translate(256.974609 0)"/>
      <use xlink:href="#DejaVuSans-65" transform="translate(320.451172 0)"/>
      <use xlink:href="#DejaVuSans-65" transform="translate(381.974609 0)"/>
      <use xlink:href="#DejaVuSans-64" transform="translate(443.498047 0)"/>
      <use xlink:href="#DejaVuSans-20" transform="translate(506.974609 0)"/>
      <use xlink:href="#DejaVuSans-3d" transform="translate(538.761719 0)"/>
      <use xlink:href="#DejaVuSans-20" transform="translate(622.550781 0)"/>
      <use xlink:href="#DejaVuSans-33" transform="translate(654.337891 0)"/>
      <use xlink:href="#DejaVuSans-34" transform="translate(717.960938 0)"/>
      <use xlink:href="#DejaVuSans-30" transform="translate(781.583984 0)"/>
     </g>
    </g>
    <g id="line2d_25">
     <path d="M 324.418125 241.184063 
L 334.418125 241.184063 
L 344.418125 241.184063 
" style="fill: none; stroke: #8c564b; stroke-width: 1.5; stroke-linecap: square"/>
    </g>
    <g id="text_19">
     <!-- Ref Speed = 255 -->
     <g transform="translate(352.418125 244.684063) scale(0.1 -0.1)">
      <use xlink:href="#DejaVuSans-52"/>
      <use xlink:href="#DejaVuSans-65" transform="translate(64.982422 0)"/>
      <use xlink:href="#DejaVuSans-66" transform="translate(126.505859 0)"/>
      <use xlink:href="#DejaVuSans-20" transform="translate(161.710938 0)"/>
      <use xlink:href="#DejaVuSans-53" transform="translate(193.498047 0)"/>
      <use xlink:href="#DejaVuSans-70" transform="translate(256.974609 0)"/>
      <use xlink:href="#DejaVuSans-65" transform="translate(320.451172 0)"/>
      <use xlink:href="#DejaVuSans-65" transform="translate(381.974609 0)"/>
      <use xlink:href="#DejaVuSans-64" transform="translate(443.498047 0)"/>
      <use xlink:href="#DejaVuSans-20" transform="translate(506.974609 0)"/>
      <use xlink:href="#DejaVuSans-3d" transform="translate(538.761719 0)"/>
      <use xlink:href="#DejaVuSans-20" transform="translate(622.550781 0)"/>
      <use xlink:href="#DejaVuSans-32" transform="translate(654.337891 0)"/>
      <use xlink:href="#DejaVuSans-35" transform="translate(717.960938 0)"/>
      <use xlink:href="#DejaVuSans-35" transform="translate(781.583984 0)"/>
     </g>
    </g>
    <g id="line2d_26">
     <path d="M 324.418125 255.862188 
L 334.418125 255.862188 
L 344.418125 255.862188 
" style="fill: none; stroke: #e377c2; stroke-width: 1.5; stroke-linecap: square"/>
    </g>
    <g id="text_20">
     <!-- Ref Speed = 170 -->
     <g transform="translate(352.418125 259.362188) scale(0.1 -0.1)">
      <defs>
       <path id="DejaVuSans-37" d="M 525 4666 
L 3525 4666 
L 3525 4397 
L 1831 0 
L 1172 0 
L 2766 4134 
L 525 4134 
L 525 4666 
z
" transform="scale(0.015625)"/>
      </defs>
      <use xlink:href="#DejaVuSans-52"/>
      <use xlink:href="#DejaVuSans-65" transform="translate(64.982422 0)"/>
      <use xlink:href="#DejaVuSans-66" transform="translate(126.505859 0)"/>
      <use xlink:href="#DejaVuSans-20" transform="translate(161.710938 0)"/>
      <use xlink:href="#DejaVuSans-53" transform="translate(193.498047 0)"/>
      <use xlink:href="#DejaVuSans-70" transform="translate(256.974609 0)"/>
      <use xlink:href="#DejaVuSans-65" transform="translate(320.451172 0)"/>
      <use xlink:href="#DejaVuSans-65" transform="translate(381.974609 0)"/>
      <use xlink:href="#DejaVuSans-64" transform="translate(443.498047 0)"/>
      <use xlink:href="#DejaVuSans-20" transform="translate(506.974609 0)"/>
      <use xlink:href="#DejaVuSans-3d" transform="translate(538.761719 0)"/>
      <use xlink:href="#DejaVuSans-20" transform="translate(622.550781 0)"/>
      <use xlink:href="#DejaVuSans-31" transform="translate(654.337891 0)"/>
      <use xlink:href="#DejaVuSans-37" transform="translate(717.960938 0)"/>
      <use xlink:href="#DejaVuSans-30" transform="translate(781.583984 0)"/>
     </g>
    </g>
    <g id="line2d_27">
     <path d="M 324.418125 270.540313 
L 334.418125 270.540313 
L 344.418125 270.540313 
" style="fill: none; stroke: #7f7f7f; stroke-width: 1.5; stroke-linecap: square"/>
    </g>
    <g id="text_21">
     <!-- Ref Speed = 85 -->
     <g transform="translate(352.418125 274.040313) scale(0.1 -0.1)">
      <use xlink:href="#DejaVuSans-52"/>
      <use xlink:href="#DejaVuSans-65" transform="translate(64.982422 0)"/>
      <use xlink:href="#DejaVuSans-66" transform="translate(126.505859 0)"/>
      <use xlink:href="#DejaVuSans-20" transform="translate(161.710938 0)"/>
      <use xlink:href="#DejaVuSans-53" transform="translate(193.498047 0)"/>
      <use xlink:href="#DejaVuSans-70" transform="translate(256.974609 0)"/>
      <use xlink:href="#DejaVuSans-65" transform="translate(320.451172 0)"/>
      <use xlink:href="#DejaVuSans-65" transform="translate(381.974609 0)"/>
      <use xlink:href="#DejaVuSans-64" transform="translate(443.498047 0)"/>
      <use xlink:href="#DejaVuSans-20" transform="translate(506.974609 0)"/>
      <use xlink:href="#DejaVuSans-3d" transform="translate(538.761719 0)"/>
      <use xlink:href="#DejaVuSans-20" transform="translate(622.550781 0)"/>
      <use xlink:href="#DejaVuSans-38" transform="translate(654.337891 0)"/>
      <use xlink:href="#DejaVuSans-35" transform="translate(717.960938 0)"/>
     </g>
    </g>
    <g id="line2d_28">
     <path d="M 324.418125 285.218438 
L 334.418125 285.218438 
L 344.418125 285.218438 
" style="fill: none; stroke: #bcbd22; stroke-width: 1.5; stroke-linecap: square"/>
    </g>
    <g id="text_22">
     <!-- y = x -->
     <g transform="translate(352.418125 288.718438) scale(0.1 -0.1)">
      <defs>
       <path id="DejaVuSans-79" d="M 2059 -325 
Q 1816 -950 1584 -1140 
Q 1353 -1331 966 -1331 
L 506 -1331 
L 506 -850 
L 844 -850 
Q 1081 -850 1212 -737 
Q 1344 -625 1503 -206 
L 1606 56 
L 191 3500 
L 800 3500 
L 1894 763 
L 2988 3500 
L 3597 3500 
L 2059 -325 
z
" transform="scale(0.015625)"/>
       <path id="DejaVuSans-78" d="M 3513 3500 
L 2247 1797 
L 3578 0 
L 2900 0 
L 1881 1375 
L 863 0 
L 184 0 
L 1544 1831 
L 300 3500 
L 978 3500 
L 1906 2253 
L 2834 3500 
L 3513 3500 
z
" transform="scale(0.015625)"/>
      </defs>
      <use xlink:href="#DejaVuSans-79"/>
      <use xlink:href="#DejaVuSans-20" transform="translate(59.179688 0)"/>
      <use xlink:href="#DejaVuSans-3d" transform="translate(90.966797 0)"/>
      <use xlink:href="#DejaVuSans-20" transform="translate(174.755859 0)"/>
      <use xlink:href="#DejaVuSans-78" transform="translate(206.542969 0)"/>
     </g>
    </g>
   </g>
  </g>
 </g>
 <defs>
  <clipPath id="pc3ae98d4ef">
   <rect x="40.603125" y="22.318125" width="405.34" height="277.48"/>
  </clipPath>
 </defs>
</svg>
