<?xml version="1.0" encoding="utf-8" standalone="no"?>
<!DOCTYPE svg PUBLIC "-//W3C//DTD SVG 1.1//EN"
  "http://www.w3.org/Graphics/SVG/1.1/DTD/svg11.dtd">
<svg xmlns:xlink="http://www.w3.org/1999/xlink" width="453.143125pt" height="337.354375pt" viewBox="0 0 453.143125 337.354375" xmlns="http://www.w3.org/2000/svg" version="1.1">
 <metadata>
  <rdf:RDF xmlns:dc="http://purl.org/dc/elements/1.1/" xmlns:cc="http://creativecommons.org/ns#" xmlns:rdf="http://www.w3.org/1999/02/22-rdf-syntax-ns#">
   <cc:Work>
    <dc:type rdf:resource="http://purl.org/dc/dcmitype/StillImage"/>
    <dc:date>2025-10-29T18:34:04.143856</dc:date>
    <dc:format>image/svg+xml</dc:format>
    <dc:creator>
     <cc:Agent>
      <dc:title>Matplotlib v3.10.6, https://matplotlib.org/</dc:title>
     </cc:Agent>
    </dc:creator>
   </cc:Work>
  </rdf:RDF>
 </metadata>
 <defs>
  <style type="text/css">*{stroke-linejoin: round; stroke-linecap: butt}</style>
 </defs>
 <g id="figure_1">
  <g id="patch_1">
   <path d="M 0 337.354375 
L 453.143125 337.354375 
L 453.143125 0 
L 0 0 
z
" style="fill: #ffffff"/>
  </g>
  <g id="axes_1">
   <g id="patch_2">
    <path d="M 40.603125 299.798125 
L 445.943125 299.798125 
L 445.943125 22.318125 
L 40.603125 22.318125 
z
" style="fill: #ffffff"/>
   </g>
   <g id="matplotlib.axis_1">
    <g id="xtick_1">
     <g id="line2d_1">
      <defs>
       <path id="mb9d00d9838" d="M 0 0 
L 0 3.5 
" style="stroke: #000000; stroke-width: 0.8"/>
      </defs>
      <g>
       <use xlink:href="#mb9d00d9838" x="58.815376" y="299.798125" style="stroke: #000000; stroke-width: 0.8"/>
      </g>
     </g>
     <g id="text_1">
      <!-- 0.00 -->
      <g transform="translate(47.682563 314.396563) scale(0.1 -0.1)">
       <defs>
        <path id="DejaVuSans-30" d="M 2034 4250 
Q 1547 4250 1301 3770 
Q 1056 3291 1056 2328 
Q 1056 1369 1301 889 
Q 1547 409 2034 409 
Q 2525 409 2770 889 
Q 3016 1369 3016 2328 
Q 3016 3291 2770 3770 
Q 2525 4250 2034 4250 
z
M 2034 4750 
Q 2819 4750 3233 4129 
Q 3647 3509 3647 2328 
Q 3647 1150 3233 529 
Q 2819 -91 2034 -91 
Q 1250 -91 836 529 
Q 422 1150 422 2328 
Q 422 3509 836 4129 
Q 1250 4750 2034 4750 
z
" transform="scale(0.015625)"/>
        <path id="DejaVuSans-2e" d="M 684 794 
L 1344 794 
L 1344 0 
L 684 0 
L 684 794 
z
" transform="scale(0.015625)"/>
       </defs>
       <use xlink:href="#DejaVuSans-30"/>
       <use xlink:href="#DejaVuSans-2e" transform="translate(63.623047 0)"/>
       <use xlink:href="#DejaVuSans-30" transform="translate(95.410156 0)"/>
       <use xlink:href="#DejaVuSans-30" transform="translate(159.033203 0)"/>
      </g>
     </g>
    </g>
    <g id="xtick_2">
     <g id="line2d_2">
      <g>
       <use xlink:href="#mb9d00d9838" x="105.330377" y="299.798125" style="stroke: #000000; stroke-width: 0.8"/>
      </g>
     </g>
     <g id="text_2">
      <!-- 0.25 -->
      <g transform="translate(94.197565 314.396563) scale(0.1 -0.1)">
       <defs>
        <path id="DejaVuSans-32" d="M 1228 531 
L 3431 531 
L 3431 0 
L 469 0 
L 469 531 
Q 828 903 1448 1529 
Q 2069 2156 2228 2338 
Q 2531 2678 2651 2914 
Q 2772 3150 2772 3378 
Q 2772 3750 2511 3984 
Q 2250 4219 1831 4219 
Q 1534 4219 1204 4116 
Q 875 4013 500 3803 
L 500 4441 
Q 881 4594 1212 4672 
Q 1544 4750 1819 4750 
Q 2544 4750 2975 4387 
Q 3406 4025 3406 3419 
Q 3406 3131 3298 2873 
Q 3191 2616 2906 2266 
Q 2828 2175 2409 1742 
Q 1991 1309 1228 531 
z
" transform="scale(0.015625)"/>
        <path id="DejaVuSans-35" d="M 691 4666 
L 3169 4666 
L 3169 4134 
L 1269 4134 
L 1269 2991 
Q 1406 3038 1543 3061 
Q 1681 3084 1819 3084 
Q 2600 3084 3056 2656 
Q 3513 2228 3513 1497 
Q 3513 744 3044 326 
Q 2575 -91 1722 -91 
Q 1428 -91 1123 -41 
Q 819 9 494 109 
L 494 744 
Q 775 591 1075 516 
Q 1375 441 1709 441 
Q 2250 441 2565 725 
Q 2881 1009 2881 1497 
Q 2881 1984 2565 2268 
Q 2250 2553 1709 2553 
Q 1456 2553 1204 2497 
Q 953 2441 691 2322 
L 691 4666 
z
" transform="scale(0.015625)"/>
       </defs>
       <use xlink:href="#DejaVuSans-30"/>
       <use xlink:href="#DejaVuSans-2e" transform="translate(63.623047 0)"/>
       <use xlink:href="#DejaVuSans-32" transform="translate(95.410156 0)"/>
       <use xlink:href="#DejaVuSans-35" transform="translate(159.033203 0)"/>
      </g>
     </g>
    </g>
    <g id="xtick_3">
     <g id="line2d_3">
      <g>
       <use xlink:href="#mb9d00d9838" x="151.845378" y="299.798125" style="stroke: #000000; stroke-width: 0.8"/>
      </g>
     </g>
     <g id="text_3">
      <!-- 0.50 -->
      <g transform="translate(140.712566 314.396563) scale(0.1 -0.1)">
       <use xlink:href="#DejaVuSans-30"/>
       <use xlink:href="#DejaVuSans-2e" transform="translate(63.623047 0)"/>
       <use xlink:href="#DejaVuSans-35" transform="translate(95.410156 0)"/>
       <use xlink:href="#DejaVuSans-30" transform="translate(159.033203 0)"/>
      </g>
     </g>
    </g>
    <g id="xtick_4">
     <g id="line2d_4">
      <g>
       <use xlink:href="#mb9d00d9838" x="198.36038" y="299.798125" style="stroke: #000000; stroke-width: 0.8"/>
      </g>
     </g>
     <g id="text_4">
      <!-- 0.75 -->
      <g transform="translate(187.227567 314.396563) scale(0.1 -0.1)">
       <defs>
        <path id="DejaVuSans-37" d="M 525 4666 
L 3525 4666 
L 3525 4397 
L 1831 0 
L 1172 0 
L 2766 4134 
L 525 4134 
L 525 4666 
z
" transform="scale(0.015625)"/>
       </defs>
       <use xlink:href="#DejaVuSans-30"/>
       <use xlink:href="#DejaVuSans-2e" transform="translate(63.623047 0)"/>
       <use xlink:href="#DejaVuSans-37" transform="translate(95.410156 0)"/>
       <use xlink:href="#DejaVuSans-35" transform="translate(159.033203 0)"/>
      </g>
     </g>
    </g>
    <g id="xtick_5">
     <g id="line2d_5">
      <g>
       <use xlink:href="#mb9d00d9838" x="244.875381" y="299.798125" style="stroke: #000000; stroke-width: 0.8"/>
      </g>
     </g>
     <g id="text_5">
      <!-- 1.00 -->
      <g transform="translate(233.742568 314.396563) scale(0.1 -0.1)">
       <defs>
        <path id="DejaVuSans-31" d="M 794 531 
L 1825 531 
L 1825 4091 
L 703 3866 
L 703 4441 
L 1819 4666 
L 2450 4666 
L 2450 531 
L 3481 531 
L 3481 0 
L 794 0 
L 794 531 
z
" transform="scale(0.015625)"/>
       </defs>
       <use xlink:href="#DejaVuSans-31"/>
       <use xlink:href="#DejaVuSans-2e" transform="translate(63.623047 0)"/>
       <use xlink:href="#DejaVuSans-30" transform="translate(95.410156 0)"/>
       <use xlink:href="#DejaVuSans-30" transform="translate(159.033203 0)"/>
      </g>
     </g>
    </g>
    <g id="xtick_6">
     <g id="line2d_6">
      <g>
       <use xlink:href="#mb9d00d9838" x="291.390382" y="299.798125" style="stroke: #000000; stroke-width: 0.8"/>
      </g>
     </g>
     <g id="text_6">
      <!-- 1.25 -->
      <g transform="translate(280.257569 314.396563) scale(0.1 -0.1)">
       <use xlink:href="#DejaVuSans-31"/>
       <use xlink:href="#DejaVuSans-2e" transform="translate(63.623047 0)"/>
       <use xlink:href="#DejaVuSans-32" transform="translate(95.410156 0)"/>
       <use xlink:href="#DejaVuSans-35" transform="translate(159.033203 0)"/>
      </g>
     </g>
    </g>
    <g id="xtick_7">
     <g id="line2d_7">
      <g>
       <use xlink:href="#mb9d00d9838" x="337.905383" y="299.798125" style="stroke: #000000; stroke-width: 0.8"/>
      </g>
     </g>
     <g id="text_7">
      <!-- 1.50 -->
      <g transform="translate(326.772571 314.396563) scale(0.1 -0.1)">
       <use xlink:href="#DejaVuSans-31"/>
       <use xlink:href="#DejaVuSans-2e" transform="translate(63.623047 0)"/>
       <use xlink:href="#DejaVuSans-35" transform="translate(95.410156 0)"/>
       <use xlink:href="#DejaVuSans-30" transform="translate(159.033203 0)"/>
      </g>
     </g>
    </g>
    <g id="xtick_8">
     <g id="line2d_8">
      <g>
       <use xlink:href="#mb9d00d9838" x="384.420384" y="299.798125" style="stroke: #000000; stroke-width: 0.8"/>
      </g>
     </g>
     <g id="text_8">
      <!-- 1.75 -->
      <g transform="translate(373.287572 314.396563) scale(0.1 -0.1)">
       <use xlink:href="#DejaVuSans-31"/>
       <use xlink:href="#DejaVuSans-2e" transform="translate(63.623047 0)"/>
       <use xlink:href="#DejaVuSans-37" transform="translate(95.410156 0)"/>
       <use xlink:href="#DejaVuSans-35" transform="translate(159.033203 0)"/>
      </g>
     </g>
    </g>
    <g id="xtick_9">
     <g id="line2d_9">
      <g>
       <use xlink:href="#mb9d00d9838" x="430.935385" y="299.798125" style="stroke: #000000; stroke-width: 0.8"/>
      </g>
     </g>
     <g id="text_9">
      <!-- 2.00 -->
      <g transform="translate(419.802573 314.396563) scale(0.1 -0.1)">
       <use xlink:href="#DejaVuSans-32"/>
       <use xlink:href="#DejaVuSans-2e" transform="translate(63.623047 0)"/>
       <use xlink:href="#DejaVuSans-30" transform="translate(95.410156 0)"/>
       <use xlink:href="#DejaVuSans-30" transform="translate(159.033203 0)"/>
      </g>
     </g>
    </g>
    <g id="text_10">
     <!-- time, t (us) -->
     <g transform="translate(215.574687 328.074688) scale(0.1 -0.1)">
      <defs>
       <path id="DejaVuSans-74" d="M 1172 4494 
L 1172 3500 
L 2356 3500 
L 2356 3053 
L 1172 3053 
L 1172 1153 
Q 1172 725 1289 603 
Q 1406 481 1766 481 
L 2356 481 
L 2356 0 
L 1766 0 
Q 1100 0 847 248 
Q 594 497 594 1153 
L 594 3053 
L 172 3053 
L 172 3500 
L 594 3500 
L 594 4494 
L 1172 4494 
z
" transform="scale(0.015625)"/>
       <path id="DejaVuSans-69" d="M 603 3500 
L 1178 3500 
L 1178 0 
L 603 0 
L 603 3500 
z
M 603 4863 
L 1178 4863 
L 1178 4134 
L 603 4134 
L 603 4863 
z
" transform="scale(0.015625)"/>
       <path id="DejaVuSans-6d" d="M 3328 2828 
Q 3544 3216 3844 3400 
Q 4144 3584 4550 3584 
Q 5097 3584 5394 3201 
Q 5691 2819 5691 2113 
L 5691 0 
L 5113 0 
L 5113 2094 
Q 5113 2597 4934 2840 
Q 4756 3084 4391 3084 
Q 3944 3084 3684 2787 
Q 3425 2491 3425 1978 
L 3425 0 
L 2847 0 
L 2847 2094 
Q 2847 2600 2669 2842 
Q 2491 3084 2119 3084 
Q 1678 3084 1418 2786 
Q 1159 2488 1159 1978 
L 1159 0 
L 581 0 
L 581 3500 
L 1159 3500 
L 1159 2956 
Q 1356 3278 1631 3431 
Q 1906 3584 2284 3584 
Q 2666 3584 2933 3390 
Q 3200 3197 3328 2828 
z
" transform="scale(0.015625)"/>
       <path id="DejaVuSans-65" d="M 3597 1894 
L 3597 1613 
L 953 1613 
Q 991 1019 1311 708 
Q 1631 397 2203 397 
Q 2534 397 2845 478 
Q 3156 559 3463 722 
L 3463 178 
Q 3153 47 2828 -22 
Q 2503 -91 2169 -91 
Q 1331 -91 842 396 
Q 353 884 353 1716 
Q 353 2575 817 3079 
Q 1281 3584 2069 3584 
Q 2775 3584 3186 3129 
Q 3597 2675 3597 1894 
z
M 3022 2063 
Q 3016 2534 2758 2815 
Q 2500 3097 2075 3097 
Q 1594 3097 1305 2825 
Q 1016 2553 972 2059 
L 3022 2063 
z
" transform="scale(0.015625)"/>
       <path id="DejaVuSans-2c" d="M 750 794 
L 1409 794 
L 1409 256 
L 897 -744 
L 494 -744 
L 750 256 
L 750 794 
z
" transform="scale(0.015625)"/>
       <path id="DejaVuSans-20" transform="scale(0.015625)"/>
       <path id="DejaVuSans-28" d="M 1984 4856 
Q 1566 4138 1362 3434 
Q 1159 2731 1159 2009 
Q 1159 1288 1364 580 
Q 1569 -128 1984 -844 
L 1484 -844 
Q 1016 -109 783 600 
Q 550 1309 550 2009 
Q 550 2706 781 3412 
Q 1013 4119 1484 4856 
L 1984 4856 
z
" transform="scale(0.015625)"/>
       <path id="DejaVuSans-75" d="M 544 1381 
L 544 3500 
L 1119 3500 
L 1119 1403 
Q 1119 906 1312 657 
Q 1506 409 1894 409 
Q 2359 409 2629 706 
Q 2900 1003 2900 1516 
L 2900 3500 
L 3475 3500 
L 3475 0 
L 2900 0 
L 2900 538 
Q 2691 219 2414 64 
Q 2138 -91 1772 -91 
Q 1169 -91 856 284 
Q 544 659 544 1381 
z
M 1991 3584 
L 1991 3584 
z
" transform="scale(0.015625)"/>
       <path id="DejaVuSans-73" d="M 2834 3397 
L 2834 2853 
Q 2591 2978 2328 3040 
Q 2066 3103 1784 3103 
Q 1356 3103 1142 2972 
Q 928 2841 928 2578 
Q 928 2378 1081 2264 
Q 1234 2150 1697 2047 
L 1894 2003 
Q 2506 1872 2764 1633 
Q 3022 1394 3022 966 
Q 3022 478 2636 193 
Q 2250 -91 1575 -91 
Q 1294 -91 989 -36 
Q 684 19 347 128 
L 347 722 
Q 666 556 975 473 
Q 1284 391 1588 391 
Q 1994 391 2212 530 
Q 2431 669 2431 922 
Q 2431 1156 2273 1281 
Q 2116 1406 1581 1522 
L 1381 1569 
Q 847 1681 609 1914 
Q 372 2147 372 2553 
Q 372 3047 722 3315 
Q 1072 3584 1716 3584 
Q 2034 3584 2315 3537 
Q 2597 3491 2834 3397 
z
" transform="scale(0.015625)"/>
       <path id="DejaVuSans-29" d="M 513 4856 
L 1013 4856 
Q 1481 4119 1714 3412 
Q 1947 2706 1947 2009 
Q 1947 1309 1714 600 
Q 1481 -109 1013 -844 
L 513 -844 
Q 928 -128 1133 580 
Q 1338 1288 1338 2009 
Q 1338 2731 1133 3434 
Q 928 4138 513 4856 
z
" transform="scale(0.015625)"/>
      </defs>
      <use xlink:href="#DejaVuSans-74"/>
      <use xlink:href="#DejaVuSans-69" transform="translate(39.208984 0)"/>
      <use xlink:href="#DejaVuSans-6d" transform="translate(66.992188 0)"/>
      <use xlink:href="#DejaVuSans-65" transform="translate(164.404297 0)"/>
      <use xlink:href="#DejaVuSans-2c" transform="translate(225.927734 0)"/>
      <use xlink:href="#DejaVuSans-20" transform="translate(257.714844 0)"/>
      <use xlink:href="#DejaVuSans-74" transform="translate(289.501953 0)"/>
      <use xlink:href="#DejaVuSans-20" transform="translate(328.710938 0)"/>
      <use xlink:href="#DejaVuSans-28" transform="translate(360.498047 0)"/>
      <use xlink:href="#DejaVuSans-75" transform="translate(399.511719 0)"/>
      <use xlink:href="#DejaVuSans-73" transform="translate(462.890625 0)"/>
      <use xlink:href="#DejaVuSans-29" transform="translate(514.990234 0)"/>
     </g>
    </g>
    <g id="text_11">
     <!-- 1e6 -->
     <g transform="translate(427.065 327.074688) scale(0.1 -0.1)">
      <defs>
       <path id="DejaVuSans-36" d="M 2113 2584 
Q 1688 2584 1439 2293 
Q 1191 2003 1191 1497 
Q 1191 994 1439 701 
Q 1688 409 2113 409 
Q 2538 409 2786 701 
Q 3034 994 3034 1497 
Q 3034 2003 2786 2293 
Q 2538 2584 2113 2584 
z
M 3366 4563 
L 3366 3988 
Q 3128 4100 2886 4159 
Q 2644 4219 2406 4219 
Q 1781 4219 1451 3797 
Q 1122 3375 1075 2522 
Q 1259 2794 1537 2939 
Q 1816 3084 2150 3084 
Q 2853 3084 3261 2657 
Q 3669 2231 3669 1497 
Q 3669 778 3244 343 
Q 2819 -91 2113 -91 
Q 1303 -91 875 529 
Q 447 1150 447 2328 
Q 447 3434 972 4092 
Q 1497 4750 2381 4750 
Q 2619 4750 2861 4703 
Q 3103 4656 3366 4563 
z
" transform="scale(0.015625)"/>
      </defs>
      <use xlink:href="#DejaVuSans-31"/>
      <use xlink:href="#DejaVuSans-65" transform="translate(63.623047 0)"/>
      <use xlink:href="#DejaVuSans-36" transform="translate(125.146484 0)"/>
     </g>
    </g>
   </g>
   <g id="matplotlib.axis_2">
    <g id="ytick_1">
     <g id="line2d_10">
      <defs>
       <path id="mfb3b94bc42" d="M 0 0 
L -3.5 0 
" style="stroke: #000000; stroke-width: 0.8"/>
      </defs>
      <g>
       <use xlink:href="#mfb3b94bc42" x="40.603125" y="287.185398" style="stroke: #000000; stroke-width: 0.8"/>
      </g>
     </g>
     <g id="text_12">
      <!-- 0 -->
      <g transform="translate(27.240625 290.984616) scale(0.1 -0.1)">
       <use xlink:href="#DejaVuSans-30"/>
      </g>
     </g>
    </g>
    <g id="ytick_2">
     <g id="line2d_11">
      <g>
       <use xlink:href="#mfb3b94bc42" x="40.603125" y="255.822196" style="stroke: #000000; stroke-width: 0.8"/>
      </g>
     </g>
     <g id="text_13">
      <!-- 5 -->
      <g transform="translate(27.240625 259.621415) scale(0.1 -0.1)">
       <use xlink:href="#DejaVuSans-35"/>
      </g>
     </g>
    </g>
    <g id="ytick_3">
     <g id="line2d_12">
      <g>
       <use xlink:href="#mfb3b94bc42" x="40.603125" y="224.458994" style="stroke: #000000; stroke-width: 0.8"/>
      </g>
     </g>
     <g id="text_14">
      <!-- 10 -->
      <g transform="translate(20.878125 228.258213) scale(0.1 -0.1)">
       <use xlink:href="#DejaVuSans-31"/>
       <use xlink:href="#DejaVuSans-30" transform="translate(63.623047 0)"/>
      </g>
     </g>
    </g>
    <g id="ytick_4">
     <g id="line2d_13">
      <g>
       <use xlink:href="#mfb3b94bc42" x="40.603125" y="193.095792" style="stroke: #000000; stroke-width: 0.8"/>
      </g>
     </g>
     <g id="text_15">
      <!-- 15 -->
      <g transform="translate(20.878125 196.895011) scale(0.1 -0.1)">
       <use xlink:href="#DejaVuSans-31"/>
       <use xlink:href="#DejaVuSans-35" transform="translate(63.623047 0)"/>
      </g>
     </g>
    </g>
    <g id="ytick_5">
     <g id="line2d_14">
      <g>
       <use xlink:href="#mfb3b94bc42" x="40.603125" y="161.732591" style="stroke: #000000; stroke-width: 0.8"/>
      </g>
     </g>
     <g id="text_16">
      <!-- 20 -->
      <g transform="translate(20.878125 165.531809) scale(0.1 -0.1)">
       <use xlink:href="#DejaVuSans-32"/>
       <use xlink:href="#DejaVuSans-30" transform="translate(63.623047 0)"/>
      </g>
     </g>
    </g>
    <g id="ytick_6">
     <g id="line2d_15">
      <g>
       <use xlink:href="#mfb3b94bc42" x="40.603125" y="130.369389" style="stroke: #000000; stroke-width: 0.8"/>
      </g>
     </g>
     <g id="text_17">
      <!-- 25 -->
      <g transform="translate(20.878125 134.168608) scale(0.1 -0.1)">
       <use xlink:href="#DejaVuSans-32"/>
       <use xlink:href="#DejaVuSans-35" transform="translate(63.623047 0)"/>
      </g>
     </g>
    </g>
    <g id="ytick_7">
     <g id="line2d_16">
      <g>
       <use xlink:href="#mfb3b94bc42" x="40.603125" y="99.006187" style="stroke: #000000; stroke-width: 0.8"/>
      </g>
     </g>
     <g id="text_18">
      <!-- 30 -->
      <g transform="translate(20.878125 102.805406) scale(0.1 -0.1)">
       <defs>
        <path id="DejaVuSans-33" d="M 2597 2516 
Q 3050 2419 3304 2112 
Q 3559 1806 3559 1356 
Q 3559 666 3084 287 
Q 2609 -91 1734 -91 
Q 1441 -91 1130 -33 
Q 819 25 488 141 
L 488 750 
Q 750 597 1062 519 
Q 1375 441 1716 441 
Q 2309 441 2620 675 
Q 2931 909 2931 1356 
Q 2931 1769 2642 2001 
Q 2353 2234 1838 2234 
L 1294 2234 
L 1294 2753 
L 1863 2753 
Q 2328 2753 2575 2939 
Q 2822 3125 2822 3475 
Q 2822 3834 2567 4026 
Q 2313 4219 1838 4219 
Q 1578 4219 1281 4162 
Q 984 4106 628 3988 
L 628 4550 
Q 988 4650 1302 4700 
Q 1616 4750 1894 4750 
Q 2613 4750 3031 4423 
Q 3450 4097 3450 3541 
Q 3450 3153 3228 2886 
Q 3006 2619 2597 2516 
z
" transform="scale(0.015625)"/>
       </defs>
       <use xlink:href="#DejaVuSans-33"/>
       <use xlink:href="#DejaVuSans-30" transform="translate(63.623047 0)"/>
      </g>
     </g>
    </g>
    <g id="ytick_8">
     <g id="line2d_17">
      <g>
       <use xlink:href="#mfb3b94bc42" x="40.603125" y="67.642985" style="stroke: #000000; stroke-width: 0.8"/>
      </g>
     </g>
     <g id="text_19">
      <!-- 35 -->
      <g transform="translate(20.878125 71.442204) scale(0.1 -0.1)">
       <use xlink:href="#DejaVuSans-33"/>
       <use xlink:href="#DejaVuSans-35" transform="translate(63.623047 0)"/>
      </g>
     </g>
    </g>
    <g id="ytick_9">
     <g id="line2d_18">
      <g>
       <use xlink:href="#mfb3b94bc42" x="40.603125" y="36.279784" style="stroke: #000000; stroke-width: 0.8"/>
      </g>
     </g>
     <g id="text_20">
      <!-- 40 -->
      <g transform="translate(20.878125 40.079002) scale(0.1 -0.1)">
       <defs>
        <path id="DejaVuSans-34" d="M 2419 4116 
L 825 1625 
L 2419 1625 
L 2419 4116 
z
M 2253 4666 
L 3047 4666 
L 3047 1625 
L 3713 1625 
L 3713 1100 
L 3047 1100 
L 3047 0 
L 2419 0 
L 2419 1100 
L 313 1100 
L 313 1709 
L 2253 4666 
z
" transform="scale(0.015625)"/>
       </defs>
       <use xlink:href="#DejaVuSans-34"/>
       <use xlink:href="#DejaVuSans-30" transform="translate(63.623047 0)"/>
      </g>
     </g>
    </g>
    <g id="text_21">
     <!-- right wheel theta, rtheta (rad) -->
     <g transform="translate(14.798438 236.26125) rotate(-90) scale(0.1 -0.1)">
      <defs>
       <path id="DejaVuSans-72" d="M 2631 2963 
Q 2534 3019 2420 3045 
Q 2306 3072 2169 3072 
Q 1681 3072 1420 2755 
Q 1159 2438 1159 1844 
L 1159 0 
L 581 0 
L 581 3500 
L 1159 3500 
L 1159 2956 
Q 1341 3275 1631 3429 
Q 1922 3584 2338 3584 
Q 2397 3584 2469 3576 
Q 2541 3569 2628 3553 
L 2631 2963 
z
" transform="scale(0.015625)"/>
       <path id="DejaVuSans-67" d="M 2906 1791 
Q 2906 2416 2648 2759 
Q 2391 3103 1925 3103 
Q 1463 3103 1205 2759 
Q 947 2416 947 1791 
Q 947 1169 1205 825 
Q 1463 481 1925 481 
Q 2391 481 2648 825 
Q 2906 1169 2906 1791 
z
M 3481 434 
Q 3481 -459 3084 -895 
Q 2688 -1331 1869 -1331 
Q 1566 -1331 1297 -1286 
Q 1028 -1241 775 -1147 
L 775 -588 
Q 1028 -725 1275 -790 
Q 1522 -856 1778 -856 
Q 2344 -856 2625 -561 
Q 2906 -266 2906 331 
L 2906 616 
Q 2728 306 2450 153 
Q 2172 0 1784 0 
Q 1141 0 747 490 
Q 353 981 353 1791 
Q 353 2603 747 3093 
Q 1141 3584 1784 3584 
Q 2172 3584 2450 3431 
Q 2728 3278 2906 2969 
L 2906 3500 
L 3481 3500 
L 3481 434 
z
" transform="scale(0.015625)"/>
       <path id="DejaVuSans-68" d="M 3513 2113 
L 3513 0 
L 2938 0 
L 2938 2094 
Q 2938 2591 2744 2837 
Q 2550 3084 2163 3084 
Q 1697 3084 1428 2787 
Q 1159 2491 1159 1978 
L 1159 0 
L 581 0 
L 581 4863 
L 1159 4863 
L 1159 2956 
Q 1366 3272 1645 3428 
Q 1925 3584 2291 3584 
Q 2894 3584 3203 3211 
Q 3513 2838 3513 2113 
z
" transform="scale(0.015625)"/>
       <path id="DejaVuSans-77" d="M 269 3500 
L 844 3500 
L 1563 769 
L 2278 3500 
L 2956 3500 
L 3675 769 
L 4391 3500 
L 4966 3500 
L 4050 0 
L 3372 0 
L 2619 2869 
L 1863 0 
L 1184 0 
L 269 3500 
z
" transform="scale(0.015625)"/>
       <path id="DejaVuSans-6c" d="M 603 4863 
L 1178 4863 
L 1178 0 
L 603 0 
L 603 4863 
z
" transform="scale(0.015625)"/>
       <path id="DejaVuSans-61" d="M 2194 1759 
Q 1497 1759 1228 1600 
Q 959 1441 959 1056 
Q 959 750 1161 570 
Q 1363 391 1709 391 
Q 2188 391 2477 730 
Q 2766 1069 2766 1631 
L 2766 1759 
L 2194 1759 
z
M 3341 1997 
L 3341 0 
L 2766 0 
L 2766 531 
Q 2569 213 2275 61 
Q 1981 -91 1556 -91 
Q 1019 -91 701 211 
Q 384 513 384 1019 
Q 384 1609 779 1909 
Q 1175 2209 1959 2209 
L 2766 2209 
L 2766 2266 
Q 2766 2663 2505 2880 
Q 2244 3097 1772 3097 
Q 1472 3097 1187 3025 
Q 903 2953 641 2809 
L 641 3341 
Q 956 3463 1253 3523 
Q 1550 3584 1831 3584 
Q 2591 3584 2966 3190 
Q 3341 2797 3341 1997 
z
" transform="scale(0.015625)"/>
       <path id="DejaVuSans-64" d="M 2906 2969 
L 2906 4863 
L 3481 4863 
L 3481 0 
L 2906 0 
L 2906 525 
Q 2725 213 2448 61 
Q 2172 -91 1784 -91 
Q 1150 -91 751 415 
Q 353 922 353 1747 
Q 353 2572 751 3078 
Q 1150 3584 1784 3584 
Q 2172 3584 2448 3432 
Q 2725 3281 2906 2969 
z
M 947 1747 
Q 947 1113 1208 752 
Q 1469 391 1925 391 
Q 2381 391 2643 752 
Q 2906 1113 2906 1747 
Q 2906 2381 2643 2742 
Q 2381 3103 1925 3103 
Q 1469 3103 1208 2742 
Q 947 2381 947 1747 
z
" transform="scale(0.015625)"/>
      </defs>
      <use xlink:href="#DejaVuSans-72"/>
      <use xlink:href="#DejaVuSans-69" transform="translate(41.113281 0)"/>
      <use xlink:href="#DejaVuSans-67" transform="translate(68.896484 0)"/>
      <use xlink:href="#DejaVuSans-68" transform="translate(132.373047 0)"/>
      <use xlink:href="#DejaVuSans-74" transform="translate(195.751953 0)"/>
      <use xlink:href="#DejaVuSans-20" transform="translate(234.960938 0)"/>
      <use xlink:href="#DejaVuSans-77" transform="translate(266.748047 0)"/>
      <use xlink:href="#DejaVuSans-68" transform="translate(348.535156 0)"/>
      <use xlink:href="#DejaVuSans-65" transform="translate(411.914062 0)"/>
      <use xlink:href="#DejaVuSans-65" transform="translate(473.4375 0)"/>
      <use xlink:href="#DejaVuSans-6c" transform="translate(534.960938 0)"/>
      <use xlink:href="#DejaVuSans-20" transform="translate(562.744141 0)"/>
      <use xlink:href="#DejaVuSans-74" transform="translate(594.53125 0)"/>
      <use xlink:href="#DejaVuSans-68" transform="translate(633.740234 0)"/>
      <use xlink:href="#DejaVuSans-65" transform="translate(697.119141 0)"/>
      <use xlink:href="#DejaVuSans-74" transform="translate(758.642578 0)"/>
      <use xlink:href="#DejaVuSans-61" transform="translate(797.851562 0)"/>
      <use xlink:href="#DejaVuSans-2c" transform="translate(859.130859 0)"/>
      <use xlink:href="#DejaVuSans-20" transform="translate(890.917969 0)"/>
      <use xlink:href="#DejaVuSans-72" transform="translate(922.705078 0)"/>
      <use xlink:href="#DejaVuSans-74" transform="translate(963.818359 0)"/>
      <use xlink:href="#DejaVuSans-68" transform="translate(1003.027344 0)"/>
      <use xlink:href="#DejaVuSans-65" transform="translate(1066.40625 0)"/>
      <use xlink:href="#DejaVuSans-74" transform="translate(1127.929688 0)"/>
      <use xlink:href="#DejaVuSans-61" transform="translate(1167.138672 0)"/>
      <use xlink:href="#DejaVuSans-20" transform="translate(1228.417969 0)"/>
      <use xlink:href="#DejaVuSans-28" transform="translate(1260.205078 0)"/>
      <use xlink:href="#DejaVuSans-72" transform="translate(1299.21875 0)"/>
      <use xlink:href="#DejaVuSans-61" transform="translate(1340.332031 0)"/>
      <use xlink:href="#DejaVuSans-64" transform="translate(1401.611328 0)"/>
      <use xlink:href="#DejaVuSans-29" transform="translate(1465.087891 0)"/>
     </g>
    </g>
   </g>
   <g id="line2d_19">
    <path d="M 59.028229 282.139206 
L 62.656213 281.672981 
L 66.281778 280.521131 
L 70.103823 278.820788 
L 73.770135 276.928464 
L 77.520546 274.816742 
L 81.227048 272.650172 
L 85.059512 270.346476 
L 88.729545 268.070204 
L 92.445722 265.766508 
L 96.123012 263.517659 
L 99.953243 261.186539 
L 103.678536 258.882843 
L 107.365315 256.524299 
L 111.097865 254.110907 
L 114.791342 251.670084 
L 118.49896 249.174414 
L 122.242673 246.65132 
L 125.946942 244.100795 
L 129.697168 241.550277 
L 134.368762 238.972328 
L 136.972672 236.449234 
L 140.664847 233.898716 
L 144.445586 231.238495 
L 148.154692 228.660553 
L 151.93785 226.02775 
L 155.66947 223.394966 
L 159.404996 220.762151 
L 163.102195 218.15681 
L 166.845536 215.496583 
L 170.550735 212.836356 
L 174.302077 210.176129 
L 178.022533 207.570725 
L 181.804016 204.910561 
L 185.508843 202.305158 
L 189.174225 199.754639 
L 192.88575 197.17671 
L 196.600438 194.571306 
L 200.399783 191.911079 
L 204.121914 189.333149 
L 207.804599 186.755219 
L 211.532312 184.149878 
L 215.263559 181.489651 
L 218.955548 178.856836 
L 222.693307 176.169198 
L 226.39218 173.508971 
L 230.137196 170.848744 
L 233.885933 168.161106 
L 237.595969 165.528291 
L 241.247025 162.895538 
L 244.880218 160.317546 
L 248.606814 157.684793 
L 252.341969 155.051978 
L 256.043819 152.474048 
L 259.799812 149.868644 
L 263.506871 147.290714 
L 267.274028 144.685373 
L 271.031882 142.052558 
L 274.765548 139.474628 
L 278.421627 136.92411 
L 282.193064 134.291295 
L 285.909612 131.685953 
L 289.642906 129.107961 
L 293.444112 126.50262 
L 297.061305 124.006987 
L 300.88428 121.374172 
L 304.50817 118.905888 
L 308.258396 116.327958 
L 311.968805 113.77744 
L 315.725728 111.226921 
L 319.443393 108.676403 
L 323.206829 106.098473 
L 326.850442 103.575367 
L 330.577596 101.024848 
L 334.350893 98.419507 
L 338.085303 95.841515 
L 341.742499 93.345882 
L 346.419489 90.08229 
L 349.108428 88.244845 
L 352.801905 85.721738 
L 356.614833 83.116335 
L 360.338452 80.565879 
L 364.074723 78.015361 
L 367.793318 75.464842 
L 371.436001 72.969147 
L 375.164085 70.418629 
L 378.923055 67.868173 
L 382.685003 65.290181 
L 386.446578 62.712251 
L 390.175406 60.161733 
L 393.865162 57.638626 
L 397.601061 55.088108 
L 401.325796 52.565063 
L 405.025786 50.041957 
L 408.739543 47.51885 
L 412.445859 44.995806 
L 416.197572 42.445287 
L 419.952449 39.894769 
L 423.66844 37.371662 
L 427.307588 34.930852 
" clip-path="url(#p9f99fae069)" style="fill: none; stroke: #1f77b4; stroke-width: 1.5; stroke-linecap: square"/>
   </g>
   <g id="line2d_20">
    <path d="M 59.030461 282.578005 
L 62.589975 282.194056 
L 66.28922 281.124483 
L 70.061215 279.670963 
L 73.728271 277.970613 
L 77.50622 276.023441 
L 81.241002 274.021421 
L 84.97932 271.991971 
L 88.679867 269.962528 
L 92.41037 267.933078 
L 96.118732 265.931058 
L 99.922543 263.901608 
L 103.606903 261.872164 
L 107.268378 259.81529 
L 111.098423 257.593866 
L 114.750967 255.427296 
L 118.465655 253.178447 
L 122.184065 250.929605 
L 125.986201 248.625909 
L 129.694377 246.377061 
L 133.380225 244.155643 
L 137.111659 241.879371 
L 140.813322 239.575675 
L 144.615645 237.271979 
L 148.233954 235.050561 
L 152.059533 232.692017 
L 155.68454 230.443168 
L 159.43644 228.112042 
L 163.102567 225.808346 
L 166.791579 223.504675 
L 170.444867 221.228396 
L 174.272865 218.842409 
L 177.986437 216.511308 
L 181.670053 214.235029 
L 185.403905 211.903865 
L 189.099429 209.600176 
L 192.84184 207.296486 
L 196.572157 204.992796 
L 200.279216 202.689106 
L 204.076329 200.358005 
L 207.840695 198.02684 
L 211.543661 195.723151 
L 215.250721 193.446872 
L 218.918149 191.198068 
L 222.631163 188.894315 
L 226.428462 186.535802 
L 230.148173 184.232113 
L 233.871234 181.928423 
L 237.555222 179.652144 
L 241.284609 177.375866 
L 244.975109 175.099587 
L 248.709705 172.795897 
L 252.479653 170.464796 
L 256.210528 168.188518 
L 259.97415 165.884765 
L 263.587994 163.690784 
L 268.27652 160.756317 
L 271.011602 159.083404 
L 274.691869 156.807125 
L 278.423116 154.503435 
L 282.105988 152.254568 
L 285.857702 149.950878 
L 289.619091 147.647189 
L 293.342523 145.343499 
L 297.098145 143.039809 
L 300.829764 140.736119 
L 304.484355 138.514663 
L 308.251698 136.238385 
L 311.959315 133.989581 
L 315.690749 131.713302 
L 319.383482 129.464435 
L 323.121241 127.188157 
L 326.863094 124.911878 
L 330.56513 122.663074 
L 334.312937 120.386795 
L 338.021857 118.110517 
L 341.776734 115.806827 
L 345.5184 113.503137 
L 349.237926 111.226859 
L 352.879864 108.977992 
L 356.60553 106.701713 
L 360.377152 104.398023 
L 364.138355 102.094333 
L 367.874254 99.818055 
L 371.53424 97.596662 
L 375.106779 95.402618 
L 378.828723 93.126402 
L 382.556807 90.877535 
L 386.375689 88.601257 
L 389.998649 86.407275 
L 393.83837 84.076174 
L 397.479006 81.88213 
L 401.247837 79.57844 
L 404.977968 77.302162 
L 408.631256 75.080769 
L 412.368272 72.80449 
L 416.196084 70.5008 
L 419.910958 68.251933 
L 423.602575 66.03054 
L 427.339404 63.781673 
" clip-path="url(#p9f99fae069)" style="fill: none; stroke: #ff7f0e; stroke-width: 1.5; stroke-linecap: square"/>
   </g>
   <g id="line2d_21">
    <path d="M 59.028601 283.153929 
L 62.726543 282.76998 
L 66.38225 281.810107 
L 70.213412 280.466283 
L 73.863909 279.012762 
L 77.639997 277.422115 
L 81.373849 275.804043 
L 85.069559 274.131117 
L 88.811784 272.348502 
L 92.558102 270.565874 
L 96.26572 268.728404 
L 100.046645 266.781233 
L 103.704213 264.861485 
L 107.408109 262.886889 
L 111.115169 260.857445 
L 114.905769 258.773147 
L 118.619527 256.743703 
L 122.294026 254.741683 
L 126.015598 252.712233 
L 129.740333 250.655366 
L 133.548982 248.571068 
L 137.279857 246.541618 
L 140.97166 244.539598 
L 144.677417 242.537578 
L 148.418525 240.508134 
L 152.120561 238.478684 
L 155.868926 236.44924 
L 159.577846 234.447221 
L 164.239021 231.896702 
L 166.941171 230.415751 
L 170.59297 228.441155 
L 174.403665 226.384281 
L 178.057512 224.437103 
L 181.781131 222.407653 
L 185.514239 220.405614 
L 189.315258 218.348752 
L 192.933381 216.401599 
L 196.74296 214.344738 
L 200.368711 212.397585 
L 204.143683 210.340661 
L 207.923864 208.311211 
L 211.627388 206.309235 
L 215.414454 204.279785 
L 219.124118 202.250335 
L 222.836945 200.248296 
L 226.510886 198.273732 
L 230.230598 196.299104 
L 234.001848 194.269654 
L 237.728444 192.267616 
L 241.458203 190.238166 
L 245.149075 188.263601 
L 248.914557 186.234151 
L 252.625524 184.232113 
L 256.275463 182.257548 
L 260.051737 180.228098 
L 263.773123 178.226059 
L 268.522863 176.196609 
L 271.094026 174.276868 
L 274.803691 172.274829 
L 278.533636 170.27279 
L 282.215577 168.298226 
L 285.964872 166.323599 
L 289.683095 164.32156 
L 293.448392 162.29211 
L 297.201966 160.290134 
L 300.932841 158.288096 
L 304.586502 156.340943 
L 308.324633 154.311493 
L 312.074487 152.309454 
L 315.804804 150.307415 
L 319.62015 148.250554 
L 323.234552 146.303401 
L 327.055666 144.246477 
L 330.67751 142.299324 
L 334.409874 140.269874 
L 338.11898 138.267835 
L 341.872741 136.238385 
L 345.587801 134.236409 
L 349.348632 132.206959 
L 353.112812 130.177509 
L 356.838291 128.17547 
L 360.486556 126.228317 
L 364.219291 124.226279 
L 367.997426 122.196828 
L 371.656296 120.249613 
L 375.293025 118.275048 
L 379.014597 116.27301 
L 382.698957 114.298445 
L 386.435786 112.296407 
L 390.181174 110.266957 
L 393.895676 108.292329 
L 397.65967 106.290353 
L 401.385336 104.315726 
L 405.034158 102.368573 
L 408.811362 100.366535 
L 412.548564 98.364496 
L 416.360189 96.36252 
L 420.047526 94.415304 
L 423.781192 92.44074 
L 427.51858 90.438701 
" clip-path="url(#p9f99fae069)" style="fill: none; stroke: #2ca02c; stroke-width: 1.5; stroke-linecap: square"/>
   </g>
   <g id="line2d_22">
    <path d="M 59.027857 283.866978 
L 62.627559 283.565304 
L 66.322153 282.769981 
L 70.121126 281.727832 
L 73.85963 280.521138 
L 77.527245 279.204736 
L 81.274121 277.806063 
L 85.025091 276.297694 
L 88.702567 274.816742 
L 92.52703 273.226095 
L 96.188505 271.690301 
L 99.89575 270.072223 
L 103.605973 268.426728 
L 107.384108 266.67153 
L 111.1014 264.916339 
L 114.764364 263.188565 
L 118.489285 261.433368 
L 122.216811 259.650746 
L 126.028436 257.8407 
L 129.640233 256.085496 
L 133.459301 254.248027 
L 137.20134 252.437981 
L 140.929796 250.627929 
L 144.618808 248.845307 
L 148.35359 247.062686 
L 151.871055 245.334912 
L 155.683796 243.497442 
L 159.38025 241.714821 
L 163.042097 239.932193 
L 166.755111 238.149571 
L 170.561898 236.284678 
L 174.262074 234.52948 
L 177.999089 232.719434 
L 181.66596 230.964243 
L 185.412278 229.181615 
L 189.118965 227.426424 
L 192.916078 225.616378 
L 196.616625 223.861212 
L 200.38434 222.07859 
L 204.091586 220.32338 
L 207.882372 218.513347 
L 211.596502 216.758136 
L 215.313423 215.002926 
L 218.990713 213.247716 
L 222.714146 211.492568 
L 226.397762 209.737358 
L 230.127334 207.982148 
L 233.845372 206.199526 
L 237.663323 204.389493 
L 241.370941 202.634283 
L 245.072046 200.879073 
L 248.726079 199.151337 
L 252.506074 197.368715 
L 257.14455 195.119848 
L 259.878515 193.830883 
L 263.559899 192.075673 
L 267.292262 190.320463 
L 271.031696 188.565315 
L 274.727964 186.810105 
L 278.489725 185.027483 
L 282.213344 183.272273 
L 285.861051 181.544537 
L 289.636394 179.761915 
L 293.371735 178.006705 
L 297.052188 176.278906 
L 300.848742 174.468873 
L 304.580734 172.713663 
L 308.316261 170.931041 
L 312.012715 169.203305 
L 315.722565 167.448095 
L 319.425903 165.692885 
L 323.175013 163.910263 
L 326.926913 162.127642 
L 330.639368 160.372494 
L 334.397408 158.589872 
L 338.116189 156.834662 
L 341.758128 155.106863 
L 345.526029 153.324242 
L 349.255229 151.569094 
L 353.030387 149.813884 
L 356.752517 148.058674 
L 361.380388 146.330938 
L 364.016486 144.603139 
L 367.697125 142.87534 
L 371.426512 141.120193 
L 375.246324 139.337571 
L 378.869098 137.637184 
L 382.629743 135.882036 
L 386.351873 134.126826 
L 390.120891 132.371616 
L 393.836137 130.616405 
L 397.612597 128.833784 
L 401.269792 127.106048 
L 405.077138 125.323426 
L 408.808199 123.540804 
L 412.499444 121.813006 
L 416.237203 120.057858 
L 419.978498 118.302648 
L 423.679976 116.574849 
L 427.427782 114.792227 
" clip-path="url(#p9f99fae069)" style="fill: none; stroke: #d62728; stroke-width: 1.5; stroke-linecap: square"/>
   </g>
   <g id="line2d_23">
    <path d="M 59.028229 284.963977 
L 62.512946 284.744577 
L 66.332758 284.086378 
L 70.027724 283.318479 
L 73.768646 282.386031 
L 77.471985 281.426158 
L 81.130855 280.411435 
L 84.927781 279.23216 
L 88.708335 277.970613 
L 92.411673 276.681642 
L 96.059379 275.365241 
L 99.891843 273.939143 
L 103.604857 272.54047 
L 107.277681 271.141796 
L 110.996462 269.715699 
L 114.676543 268.289602 
L 118.402581 266.836081 
L 122.238952 265.355129 
L 125.928894 263.901608 
L 129.648792 262.448086 
L 133.346548 260.994565 
L 137.090076 259.513613 
L 140.836766 258.032668 
L 144.543826 256.551717 
L 149.223793 254.659399 
L 151.886498 253.589826 
L 155.562857 252.136298 
L 159.262847 250.682777 
L 163.053075 249.174408 
L 166.773903 247.693456 
L 170.463287 246.212511 
L 174.149507 244.75899 
L 177.888755 243.305462 
L 181.696846 241.824517 
L 185.321853 240.398419 
L 189.136641 238.890044 
L 192.835142 237.409099 
L 196.536805 235.955577 
L 200.305823 234.474632 
L 204.013813 233.021111 
L 207.805716 231.512735 
L 211.520776 230.059214 
L 215.222067 228.605692 
L 218.901032 227.152177 
L 222.609208 225.698656 
L 226.401855 224.190274 
L 230.117101 222.736778 
L 233.851884 221.255808 
L 237.547966 219.802311 
L 241.289818 218.321341 
L 244.992599 216.812959 
L 248.771291 215.332052 
L 252.430347 213.878493 
L 256.026701 212.424996 
L 259.750134 210.971437 
L 263.434866 209.517941 
L 267.171695 208.036971 
L 270.917455 206.556063 
L 274.632329 205.102504 
L 278.396137 203.649008 
L 282.121803 202.195512 
L 285.878912 200.714541 
L 289.51713 199.261045 
L 293.253959 197.807486 
L 297.068375 196.299104 
L 300.756456 194.87302 
L 304.477098 193.419523 
L 308.214114 191.965964 
L 311.91187 190.512468 
L 315.65577 189.031498 
L 319.360968 187.55059 
L 323.111008 186.097031 
L 326.864396 184.616124 
L 330.578898 183.162565 
L 334.339543 181.709068 
L 338.0453 180.255572 
L 341.689099 178.829425 
L 345.459791 177.348517 
L 349.191225 175.894958 
L 352.952986 174.41405 
L 356.691676 172.960554 
L 361.266147 171.123047 
L 363.998624 170.053499 
L 367.680752 168.59994 
L 371.415162 167.119032 
L 375.114407 165.692948 
L 378.86854 164.239389 
L 382.631976 162.785892 
L 386.355222 161.332396 
L 389.986369 159.906249 
L 393.719105 158.452752 
L 397.49724 156.971782 
L 401.178623 155.545697 
L 404.988015 154.037315 
L 408.704564 152.583819 
L 412.397483 151.130323 
L 416.136173 149.676764 
L 419.878212 148.195856 
L 423.580433 146.742297 
L 427.316518 145.288801 
" clip-path="url(#p9f99fae069)" style="fill: none; stroke: #9467bd; stroke-width: 1.5; stroke-linecap: square"/>
   </g>
   <g id="line2d_24">
    <path d="M 59.02767 285.92385 
L 62.560206 285.731875 
L 66.345224 285.210801 
L 70.004094 284.634877 
L 73.709851 283.976678 
L 77.498777 283.236204 
L 81.227048 282.44088 
L 84.974854 281.563282 
L 88.683775 280.630834 
L 92.404975 279.643533 
L 96.087102 278.628814 
L 99.814814 277.614089 
L 103.529316 276.57194 
L 107.221305 275.529791 
L 110.95925 274.460218 
L 114.749293 273.363221 
L 118.49375 272.293648 
L 122.10257 271.224075 
L 125.93522 270.099647 
L 129.48078 269.030074 
L 133.253146 267.933078 
L 136.950345 266.836081 
L 140.655171 265.739084 
L 144.433864 264.64208 
L 148.15953 263.517659 
L 151.834401 262.448086 
L 155.571416 261.323665 
L 159.312338 260.226662 
L 163.015863 259.129665 
L 166.765158 258.032668 
L 170.519663 256.935671 
L 174.220024 255.866098 
L 177.922618 254.796519 
L 181.70987 253.699522 
L 185.419348 252.629949 
L 189.08994 251.532952 
L 192.806116 250.435955 
L 196.510757 249.338952 
L 200.29745 248.241955 
L 204.023674 247.144958 
L 207.710825 246.047961 
L 211.444119 244.950964 
L 215.18039 243.853961 
L 218.877774 242.756964 
L 222.621488 241.659967 
L 226.325942 240.56297 
L 230.076354 239.438542 
L 234.752786 238.039869 
L 237.411398 237.271972 
L 241.104875 236.174975 
L 244.887289 235.077978 
L 248.62635 233.980988 
L 252.362249 232.883991 
L 256.081217 231.786994 
L 259.710689 230.717421 
L 263.438029 229.620424 
L 267.212256 228.496003 
L 270.974204 227.399006 
L 285.873703 223.011018 
L 289.612393 221.913996 
L 293.312382 220.817036 
L 297.05777 219.692603 
L 300.764085 218.595581 
L 304.502961 217.498622 
L 308.257652 216.429011 
L 311.974386 215.359463 
L 315.613534 214.317327 
L 319.335478 213.220304 
L 323.088495 212.123345 
L 326.861047 210.998912 
L 330.594899 209.90189 
L 334.250792 208.832342 
L 338.972251 207.73532 
L 341.605 206.665772 
L 345.328805 205.56875 
L 349.015956 204.47179 
L 352.741622 203.374768 
L 356.553247 202.250335 
L 360.191092 201.180787 
L 363.956016 200.056353 
L 367.66903 198.986805 
L 371.441583 197.889783 
L 375.176551 196.792824 
L 378.833374 195.723213 
L 382.561459 194.626254 
L 390.079027 192.43221 
L 393.774551 191.33525 
L 397.515473 190.238228 
L 401.260489 189.113795 
L 404.965316 188.044247 
L 408.71703 186.947225 
L 412.428369 185.850266 
L 416.16985 184.753243 
L 419.808067 183.683696 
L 423.622855 182.559262 
L 427.267957 181.489714 
" clip-path="url(#p9f99fae069)" style="fill: none; stroke: #8c564b; stroke-width: 1.5; stroke-linecap: square"/>
   </g>
   <g id="line2d_25">
    <path d="M 59.028043 286.883723 
L 62.664399 286.774023 
L 66.33927 286.444924 
L 70.165594 286.060975 
L 73.874329 285.677025 
L 77.560177 285.238226 
L 81.307798 284.689727 
L 85.032905 284.086378 
L 88.787968 283.455604 
L 92.43921 282.824829 
L 96.175109 282.166631 
L 99.956034 281.481007 
L 103.681886 280.795384 
L 107.279356 280.109759 
L 110.967809 279.424134 
L 114.728454 278.73851 
L 118.433653 278.025461 
L 122.07187 277.339836 
L 125.796792 276.626788 
L 129.637256 275.913739 
L 133.332408 275.228114 
L 137.057329 274.515066 
L 140.760295 273.802017 
L 144.509032 273.088968 
L 148.183345 272.403344 
L 151.96334 271.662871 
L 155.649747 270.977246 
L 159.436813 270.236774 
L 163.145733 269.551149 
L 166.858746 268.865524 
L 170.622926 268.1799 
L 174.342452 267.494275 
L 178.006717 266.80865 
L 181.71601 266.123026 
L 185.429395 265.437401 
L 189.227066 264.724352 
L 192.963709 264.011304 
L 196.66128 263.325679 
L 200.404621 262.61263 
L 204.151311 261.899582 
L 207.858557 261.186533 
L 212.419446 260.336358 
L 215.078615 259.842714 
L 218.895264 259.129665 
L 222.597486 258.416616 
L 226.263798 257.730992 
L 229.984812 256.990513 
L 233.796624 256.277464 
L 237.516335 255.564416 
L 241.255955 254.851367 
L 244.958177 254.138318 
L 248.61314 253.452694 
L 252.374157 252.739645 
L 256.102427 252.026596 
L 259.834047 251.313548 
L 263.633764 250.600499 
L 267.371896 249.88745 
L 271.070211 249.201826 
L 274.815226 248.516201 
L 278.547218 247.803152 
L 282.255952 247.090104 
L 285.887843 246.404479 
L 289.726075 245.69143 
L 293.36392 245.005805 
L 297.128472 244.292757 
L 300.854324 243.607132 
L 304.503147 242.921507 
L 308.342867 242.208459 
L 311.99783 241.49541 
L 316.765245 240.782361 
L 319.358736 240.096737 
L 323.08161 239.383688 
L 326.767831 238.725487 
L 330.474147 238.012439 
L 334.220279 237.29939 
L 337.93813 236.613765 
L 341.689099 235.928147 
L 345.401183 235.242522 
L 349.173921 234.529474 
L 352.827768 233.843855 
L 356.565155 233.130807 
L 360.292867 232.417758 
L 364.10412 231.704703 
L 367.838531 231.019085 
L 371.562522 230.33346 
L 375.230881 229.647841 
L 378.974594 228.962223 
L 382.678863 228.276598 
L 386.430204 227.618398 
L 390.168336 226.932779 
L 393.883024 226.247155 
L 397.643483 225.534106 
L 401.351473 224.848488 
L 404.99583 224.162863 
L 408.767824 223.449789 
L 412.499816 222.736778 
L 416.154593 222.023704 
L 419.893096 221.338105 
L 423.481636 220.652505 
L 427.201347 219.939431 
" clip-path="url(#p9f99fae069)" style="fill: none; stroke: #e377c2; stroke-width: 1.5; stroke-linecap: square"/>
   </g>
   <g id="line2d_26">
    <path d="M 59.100234 287.185398 
L 62.5803 287.157973 
L 66.285871 287.020848 
L 70.033864 286.856298 
L 73.786508 286.719174 
L 77.412073 286.527199 
L 81.083409 286.307799 
L 84.841636 286.060975 
L 88.543299 285.786725 
L 92.25501 285.512475 
L 95.934719 285.238226 
L 99.754717 284.936551 
L 110.928365 284.058953 
L 114.631703 283.757278 
L 118.320715 283.455604 
L 122.116153 283.153929 
L 125.834376 282.852255 
L 129.555762 282.550581 
L 133.238448 282.248906 
L 136.966904 281.947232 
L 140.74448 281.645558 
L 144.446702 281.343883 
L 148.151901 281.042209 
L 151.941013 280.740536 
L 155.636165 280.466283 
L 159.308803 280.192037 
L 163.027026 279.917785 
L 166.749157 279.616109 
L 170.554456 279.341862 
L 174.282726 279.040186 
L 177.955923 278.76594 
L 182.625471 278.381992 
L 185.292455 278.190011 
L 189.016446 277.915765 
L 192.70062 277.614089 
L 196.472429 277.312419 
L 200.175581 277.038166 
L 203.889339 276.73649 
L 207.687009 276.43482 
L 211.409512 276.133143 
L 215.093872 275.804043 
L 218.823445 275.502373 
L 222.579252 275.200697 
L 226.339897 274.871596 
L 230.023885 274.56992 
L 233.791228 274.268244 
L 237.465541 273.966573 
L 241.143203 273.664897 
L 244.920407 273.363221 
L 248.65091 273.03412 
L 252.341783 272.732444 
L 256.078984 272.430768 
L 259.802975 272.129098 
L 263.504081 271.799997 
L 267.251329 271.498321 
L 270.959319 271.196644 
L 274.714196 270.894968 
L 278.471678 270.565868 
L 282.190645 270.264198 
L 286.80884 269.989945 
L 289.505408 269.660845 
L 293.210793 269.359169 
L 296.922132 269.057498 
L 300.600166 268.755822 
L 304.329367 268.426722 
L 308.153272 268.125045 
L 311.777721 267.795945 
L 315.528318 267.494269 
L 319.241146 267.192599 
L 323.000302 266.890922 
L 326.720572 266.589246 
L 330.537407 266.260146 
L 334.250606 265.958469 
L 337.908546 265.684223 
L 341.628072 265.355123 
L 345.431882 265.053446 
L 349.158292 264.724346 
L 352.888237 264.42267 
L 356.578923 264.121 
L 360.315752 263.819323 
L 364.012951 263.517647 
L 375.210042 262.5852 
L 378.91766 262.283524 
L 390.003673 261.378495 
L 408.583067 259.897549 
L 412.27766 259.642234 
L 416.023048 259.294196 
L 419.730108 258.99252 
L 427.242466 258.389174 
L 427.242466 258.389174 
" clip-path="url(#p9f99fae069)" style="fill: none; stroke: #7f7f7f; stroke-width: 1.5; stroke-linecap: square"/>
   </g>
   <g id="patch_3">
    <path d="M 40.603125 299.798125 
L 40.603125 22.318125 
" style="fill: none; stroke: #000000; stroke-width: 0.8; stroke-linejoin: miter; stroke-linecap: square"/>
   </g>
   <g id="patch_4">
    <path d="M 445.943125 299.798125 
L 445.943125 22.318125 
" style="fill: none; stroke: #000000; stroke-width: 0.8; stroke-linejoin: miter; stroke-linecap: square"/>
   </g>
   <g id="patch_5">
    <path d="M 40.603125 299.798125 
L 445.943125 299.798125 
" style="fill: none; stroke: #000000; stroke-width: 0.8; stroke-linejoin: miter; stroke-linecap: square"/>
   </g>
   <g id="patch_6">
    <path d="M 40.603125 22.318125 
L 445.943125 22.318125 
" style="fill: none; stroke: #000000; stroke-width: 0.8; stroke-linejoin: miter; stroke-linecap: square"/>
   </g>
   <g id="text_22">
    <!-- right theta vs. time -->
    <g transform="translate(185.440625 16.318125) scale(0.12 -0.12)">
     <defs>
      <path id="DejaVuSans-76" d="M 191 3500 
L 800 3500 
L 1894 563 
L 2988 3500 
L 3597 3500 
L 2284 0 
L 1503 0 
L 191 3500 
z
" transform="scale(0.015625)"/>
     </defs>
     <use xlink:href="#DejaVuSans-72"/>
     <use xlink:href="#DejaVuSans-69" transform="translate(41.113281 0)"/>
     <use xlink:href="#DejaVuSans-67" transform="translate(68.896484 0)"/>
     <use xlink:href="#DejaVuSans-68" transform="translate(132.373047 0)"/>
     <use xlink:href="#DejaVuSans-74" transform="translate(195.751953 0)"/>
     <use xlink:href="#DejaVuSans-20" transform="translate(234.960938 0)"/>
     <use xlink:href="#DejaVuSans-74" transform="translate(266.748047 0)"/>
     <use xlink:href="#DejaVuSans-68" transform="translate(305.957031 0)"/>
     <use xlink:href="#DejaVuSans-65" transform="translate(369.335938 0)"/>
     <use xlink:href="#DejaVuSans-74" transform="translate(430.859375 0)"/>
     <use xlink:href="#DejaVuSans-61" transform="translate(470.068359 0)"/>
     <use xlink:href="#DejaVuSans-20" transform="translate(531.347656 0)"/>
     <use xlink:href="#DejaVuSans-76" transform="translate(563.134766 0)"/>
     <use xlink:href="#DejaVuSans-73" transform="translate(622.314453 0)"/>
     <use xlink:href="#DejaVuSans-2e" transform="translate(674.414062 0)"/>
     <use xlink:href="#DejaVuSans-20" transform="translate(706.201172 0)"/>
     <use xlink:href="#DejaVuSans-74" transform="translate(737.988281 0)"/>
     <use xlink:href="#DejaVuSans-69" transform="translate(777.197266 0)"/>
     <use xlink:href="#DejaVuSans-6d" transform="translate(804.980469 0)"/>
     <use xlink:href="#DejaVuSans-65" transform="translate(902.392578 0)"/>
    </g>
   </g>
   <g id="legend_1">
    <g id="patch_7">
     <path d="M 47.603125 147.743125 
L 164.128125 147.743125 
Q 166.128125 147.743125 166.128125 145.743125 
L 166.128125 29.318125 
Q 166.128125 27.318125 164.128125 27.318125 
L 47.603125 27.318125 
Q 45.603125 27.318125 45.603125 29.318125 
L 45.603125 145.743125 
Q 45.603125 147.743125 47.603125 147.743125 
z
" style="fill: #ffffff; opacity: 0.8; stroke: #cccccc; stroke-linejoin: miter"/>
    </g>
    <g id="line2d_27">
     <path d="M 49.603125 35.416563 
L 59.603125 35.416563 
L 69.603125 35.416563 
" style="fill: none; stroke: #1f77b4; stroke-width: 1.5; stroke-linecap: square"/>
    </g>
    <g id="text_23">
     <!-- Ref Speed = 680 -->
     <g transform="translate(77.603125 38.916563) scale(0.1 -0.1)">
      <defs>
       <path id="DejaVuSans-52" d="M 2841 2188 
Q 3044 2119 3236 1894 
Q 3428 1669 3622 1275 
L 4263 0 
L 3584 0 
L 2988 1197 
Q 2756 1666 2539 1819 
Q 2322 1972 1947 1972 
L 1259 1972 
L 1259 0 
L 628 0 
L 628 4666 
L 2053 4666 
Q 2853 4666 3247 4331 
Q 3641 3997 3641 3322 
Q 3641 2881 3436 2590 
Q 3231 2300 2841 2188 
z
M 1259 4147 
L 1259 2491 
L 2053 2491 
Q 2509 2491 2742 2702 
Q 2975 2913 2975 3322 
Q 2975 3731 2742 3939 
Q 2509 4147 2053 4147 
L 1259 4147 
z
" transform="scale(0.015625)"/>
       <path id="DejaVuSans-66" d="M 2375 4863 
L 2375 4384 
L 1825 4384 
Q 1516 4384 1395 4259 
Q 1275 4134 1275 3809 
L 1275 3500 
L 2222 3500 
L 2222 3053 
L 1275 3053 
L 1275 0 
L 697 0 
L 697 3053 
L 147 3053 
L 147 3500 
L 697 3500 
L 697 3744 
Q 697 4328 969 4595 
Q 1241 4863 1831 4863 
L 2375 4863 
z
" transform="scale(0.015625)"/>
       <path id="DejaVuSans-53" d="M 3425 4513 
L 3425 3897 
Q 3066 4069 2747 4153 
Q 2428 4238 2131 4238 
Q 1616 4238 1336 4038 
Q 1056 3838 1056 3469 
Q 1056 3159 1242 3001 
Q 1428 2844 1947 2747 
L 2328 2669 
Q 3034 2534 3370 2195 
Q 3706 1856 3706 1288 
Q 3706 609 3251 259 
Q 2797 -91 1919 -91 
Q 1588 -91 1214 -16 
Q 841 59 441 206 
L 441 856 
Q 825 641 1194 531 
Q 1563 422 1919 422 
Q 2459 422 2753 634 
Q 3047 847 3047 1241 
Q 3047 1584 2836 1778 
Q 2625 1972 2144 2069 
L 1759 2144 
Q 1053 2284 737 2584 
Q 422 2884 422 3419 
Q 422 4038 858 4394 
Q 1294 4750 2059 4750 
Q 2388 4750 2728 4690 
Q 3069 4631 3425 4513 
z
" transform="scale(0.015625)"/>
       <path id="DejaVuSans-70" d="M 1159 525 
L 1159 -1331 
L 581 -1331 
L 581 3500 
L 1159 3500 
L 1159 2969 
Q 1341 3281 1617 3432 
Q 1894 3584 2278 3584 
Q 2916 3584 3314 3078 
Q 3713 2572 3713 1747 
Q 3713 922 3314 415 
Q 2916 -91 2278 -91 
Q 1894 -91 1617 61 
Q 1341 213 1159 525 
z
M 3116 1747 
Q 3116 2381 2855 2742 
Q 2594 3103 2138 3103 
Q 1681 3103 1420 2742 
Q 1159 2381 1159 1747 
Q 1159 1113 1420 752 
Q 1681 391 2138 391 
Q 2594 391 2855 752 
Q 3116 1113 3116 1747 
z
" transform="scale(0.015625)"/>
       <path id="DejaVuSans-3d" d="M 678 2906 
L 4684 2906 
L 4684 2381 
L 678 2381 
L 678 2906 
z
M 678 1631 
L 4684 1631 
L 4684 1100 
L 678 1100 
L 678 1631 
z
" transform="scale(0.015625)"/>
       <path id="DejaVuSans-38" d="M 2034 2216 
Q 1584 2216 1326 1975 
Q 1069 1734 1069 1313 
Q 1069 891 1326 650 
Q 1584 409 2034 409 
Q 2484 409 2743 651 
Q 3003 894 3003 1313 
Q 3003 1734 2745 1975 
Q 2488 2216 2034 2216 
z
M 1403 2484 
Q 997 2584 770 2862 
Q 544 3141 544 3541 
Q 544 4100 942 4425 
Q 1341 4750 2034 4750 
Q 2731 4750 3128 4425 
Q 3525 4100 3525 3541 
Q 3525 3141 3298 2862 
Q 3072 2584 2669 2484 
Q 3125 2378 3379 2068 
Q 3634 1759 3634 1313 
Q 3634 634 3220 271 
Q 2806 -91 2034 -91 
Q 1263 -91 848 271 
Q 434 634 434 1313 
Q 434 1759 690 2068 
Q 947 2378 1403 2484 
z
M 1172 3481 
Q 1172 3119 1398 2916 
Q 1625 2713 2034 2713 
Q 2441 2713 2670 2916 
Q 2900 3119 2900 3481 
Q 2900 3844 2670 4047 
Q 2441 4250 2034 4250 
Q 1625 4250 1398 4047 
Q 1172 3844 1172 3481 
z
" transform="scale(0.015625)"/>
      </defs>
      <use xlink:href="#DejaVuSans-52"/>
      <use xlink:href="#DejaVuSans-65" transform="translate(64.982422 0)"/>
      <use xlink:href="#DejaVuSans-66" transform="translate(126.505859 0)"/>
      <use xlink:href="#DejaVuSans-20" transform="translate(161.710938 0)"/>
      <use xlink:href="#DejaVuSans-53" transform="translate(193.498047 0)"/>
      <use xlink:href="#DejaVuSans-70" transform="translate(256.974609 0)"/>
      <use xlink:href="#DejaVuSans-65" transform="translate(320.451172 0)"/>
      <use xlink:href="#DejaVuSans-65" transform="translate(381.974609 0)"/>
      <use xlink:href="#DejaVuSans-64" transform="translate(443.498047 0)"/>
      <use xlink:href="#DejaVuSans-20" transform="translate(506.974609 0)"/>
      <use xlink:href="#DejaVuSans-3d" transform="translate(538.761719 0)"/>
      <use xlink:href="#DejaVuSans-20" transform="translate(622.550781 0)"/>
      <use xlink:href="#DejaVuSans-36" transform="translate(654.337891 0)"/>
      <use xlink:href="#DejaVuSans-38" transform="translate(717.960938 0)"/>
      <use xlink:href="#DejaVuSans-30" transform="translate(781.583984 0)"/>
     </g>
    </g>
    <g id="line2d_28">
     <path d="M 49.603125 50.094688 
L 59.603125 50.094688 
L 69.603125 50.094688 
" style="fill: none; stroke: #ff7f0e; stroke-width: 1.5; stroke-linecap: square"/>
    </g>
    <g id="text_24">
     <!-- Ref Speed = 595 -->
     <g transform="translate(77.603125 53.594688) scale(0.1 -0.1)">
      <defs>
       <path id="DejaVuSans-39" d="M 703 97 
L 703 672 
Q 941 559 1184 500 
Q 1428 441 1663 441 
Q 2288 441 2617 861 
Q 2947 1281 2994 2138 
Q 2813 1869 2534 1725 
Q 2256 1581 1919 1581 
Q 1219 1581 811 2004 
Q 403 2428 403 3163 
Q 403 3881 828 4315 
Q 1253 4750 1959 4750 
Q 2769 4750 3195 4129 
Q 3622 3509 3622 2328 
Q 3622 1225 3098 567 
Q 2575 -91 1691 -91 
Q 1453 -91 1209 -44 
Q 966 3 703 97 
z
M 1959 2075 
Q 2384 2075 2632 2365 
Q 2881 2656 2881 3163 
Q 2881 3666 2632 3958 
Q 2384 4250 1959 4250 
Q 1534 4250 1286 3958 
Q 1038 3666 1038 3163 
Q 1038 2656 1286 2365 
Q 1534 2075 1959 2075 
z
" transform="scale(0.015625)"/>
      </defs>
      <use xlink:href="#DejaVuSans-52"/>
      <use xlink:href="#DejaVuSans-65" transform="translate(64.982422 0)"/>
      <use xlink:href="#DejaVuSans-66" transform="translate(126.505859 0)"/>
      <use xlink:href="#DejaVuSans-20" transform="translate(161.710938 0)"/>
      <use xlink:href="#DejaVuSans-53" transform="translate(193.498047 0)"/>
      <use xlink:href="#DejaVuSans-70" transform="translate(256.974609 0)"/>
      <use xlink:href="#DejaVuSans-65" transform="translate(320.451172 0)"/>
      <use xlink:href="#DejaVuSans-65" transform="translate(381.974609 0)"/>
      <use xlink:href="#DejaVuSans-64" transform="translate(443.498047 0)"/>
      <use xlink:href="#DejaVuSans-20" transform="translate(506.974609 0)"/>
      <use xlink:href="#DejaVuSans-3d" transform="translate(538.761719 0)"/>
      <use xlink:href="#DejaVuSans-20" transform="translate(622.550781 0)"/>
      <use xlink:href="#DejaVuSans-35" transform="translate(654.337891 0)"/>
      <use xlink:href="#DejaVuSans-39" transform="translate(717.960938 0)"/>
      <use xlink:href="#DejaVuSans-35" transform="translate(781.583984 0)"/>
     </g>
    </g>
    <g id="line2d_29">
     <path d="M 49.603125 64.772813 
L 59.603125 64.772813 
L 69.603125 64.772813 
" style="fill: none; stroke: #2ca02c; stroke-width: 1.5; stroke-linecap: square"/>
    </g>
    <g id="text_25">
     <!-- Ref Speed = 510 -->
     <g transform="translate(77.603125 68.272813) scale(0.1 -0.1)">
      <use xlink:href="#DejaVuSans-52"/>
      <use xlink:href="#DejaVuSans-65" transform="translate(64.982422 0)"/>
      <use xlink:href="#DejaVuSans-66" transform="translate(126.505859 0)"/>
      <use xlink:href="#DejaVuSans-20" transform="translate(161.710938 0)"/>
      <use xlink:href="#DejaVuSans-53" transform="translate(193.498047 0)"/>
      <use xlink:href="#DejaVuSans-70" transform="translate(256.974609 0)"/>
      <use xlink:href="#DejaVuSans-65" transform="translate(320.451172 0)"/>
      <use xlink:href="#DejaVuSans-65" transform="translate(381.974609 0)"/>
      <use xlink:href="#DejaVuSans-64" transform="translate(443.498047 0)"/>
      <use xlink:href="#DejaVuSans-20" transform="translate(506.974609 0)"/>
      <use xlink:href="#DejaVuSans-3d" transform="translate(538.761719 0)"/>
      <use xlink:href="#DejaVuSans-20" transform="translate(622.550781 0)"/>
      <use xlink:href="#DejaVuSans-35" transform="translate(654.337891 0)"/>
      <use xlink:href="#DejaVuSans-31" transform="translate(717.960938 0)"/>
      <use xlink:href="#DejaVuSans-30" transform="translate(781.583984 0)"/>
     </g>
    </g>
    <g id="line2d_30">
     <path d="M 49.603125 79.450938 
L 59.603125 79.450938 
L 69.603125 79.450938 
" style="fill: none; stroke: #d62728; stroke-width: 1.5; stroke-linecap: square"/>
    </g>
    <g id="text_26">
     <!-- Ref Speed = 425 -->
     <g transform="translate(77.603125 82.950938) scale(0.1 -0.1)">
      <use xlink:href="#DejaVuSans-52"/>
      <use xlink:href="#DejaVuSans-65" transform="translate(64.982422 0)"/>
      <use xlink:href="#DejaVuSans-66" transform="translate(126.505859 0)"/>
      <use xlink:href="#DejaVuSans-20" transform="translate(161.710938 0)"/>
      <use xlink:href="#DejaVuSans-53" transform="translate(193.498047 0)"/>
      <use xlink:href="#DejaVuSans-70" transform="translate(256.974609 0)"/>
      <use xlink:href="#DejaVuSans-65" transform="translate(320.451172 0)"/>
      <use xlink:href="#DejaVuSans-65" transform="translate(381.974609 0)"/>
      <use xlink:href="#DejaVuSans-64" transform="translate(443.498047 0)"/>
      <use xlink:href="#DejaVuSans-20" transform="translate(506.974609 0)"/>
      <use xlink:href="#DejaVuSans-3d" transform="translate(538.761719 0)"/>
      <use xlink:href="#DejaVuSans-20" transform="translate(622.550781 0)"/>
      <use xlink:href="#DejaVuSans-34" transform="translate(654.337891 0)"/>
      <use xlink:href="#DejaVuSans-32" transform="translate(717.960938 0)"/>
      <use xlink:href="#DejaVuSans-35" transform="translate(781.583984 0)"/>
     </g>
    </g>
    <g id="line2d_31">
     <path d="M 49.603125 94.129063 
L 59.603125 94.129063 
L 69.603125 94.129063 
" style="fill: none; stroke: #9467bd; stroke-width: 1.5; stroke-linecap: square"/>
    </g>
    <g id="text_27">
     <!-- Ref Speed = 340 -->
     <g transform="translate(77.603125 97.629063) scale(0.1 -0.1)">
      <use xlink:href="#DejaVuSans-52"/>
      <use xlink:href="#DejaVuSans-65" transform="translate(64.982422 0)"/>
      <use xlink:href="#DejaVuSans-66" transform="translate(126.505859 0)"/>
      <use xlink:href="#DejaVuSans-20" transform="translate(161.710938 0)"/>
      <use xlink:href="#DejaVuSans-53" transform="translate(193.498047 0)"/>
      <use xlink:href="#DejaVuSans-70" transform="translate(256.974609 0)"/>
      <use xlink:href="#DejaVuSans-65" transform="translate(320.451172 0)"/>
      <use xlink:href="#DejaVuSans-65" transform="translate(381.974609 0)"/>
      <use xlink:href="#DejaVuSans-64" transform="translate(443.498047 0)"/>
      <use xlink:href="#DejaVuSans-20" transform="translate(506.974609 0)"/>
      <use xlink:href="#DejaVuSans-3d" transform="translate(538.761719 0)"/>
      <use xlink:href="#DejaVuSans-20" transform="translate(622.550781 0)"/>
      <use xlink:href="#DejaVuSans-33" transform="translate(654.337891 0)"/>
      <use xlink:href="#DejaVuSans-34" transform="translate(717.960938 0)"/>
      <use xlink:href="#DejaVuSans-30" transform="translate(781.583984 0)"/>
     </g>
    </g>
    <g id="line2d_32">
     <path d="M 49.603125 108.807188 
L 59.603125 108.807188 
L 69.603125 108.807188 
" style="fill: none; stroke: #8c564b; stroke-width: 1.5; stroke-linecap: square"/>
    </g>
    <g id="text_28">
     <!-- Ref Speed = 255 -->
     <g transform="translate(77.603125 112.307188) scale(0.1 -0.1)">
      <use xlink:href="#DejaVuSans-52"/>
      <use xlink:href="#DejaVuSans-65" transform="translate(64.982422 0)"/>
      <use xlink:href="#DejaVuSans-66" transform="translate(126.505859 0)"/>
      <use xlink:href="#DejaVuSans-20" transform="translate(161.710938 0)"/>
      <use xlink:href="#DejaVuSans-53" transform="translate(193.498047 0)"/>
      <use xlink:href="#DejaVuSans-70" transform="translate(256.974609 0)"/>
      <use xlink:href="#DejaVuSans-65" transform="translate(320.451172 0)"/>
      <use xlink:href="#DejaVuSans-65" transform="translate(381.974609 0)"/>
      <use xlink:href="#DejaVuSans-64" transform="translate(443.498047 0)"/>
      <use xlink:href="#DejaVuSans-20" transform="translate(506.974609 0)"/>
      <use xlink:href="#DejaVuSans-3d" transform="translate(538.761719 0)"/>
      <use xlink:href="#DejaVuSans-20" transform="translate(622.550781 0)"/>
      <use xlink:href="#DejaVuSans-32" transform="translate(654.337891 0)"/>
      <use xlink:href="#DejaVuSans-35" transform="translate(717.960938 0)"/>
      <use xlink:href="#DejaVuSans-35" transform="translate(781.583984 0)"/>
     </g>
    </g>
    <g id="line2d_33">
     <path d="M 49.603125 123.485313 
L 59.603125 123.485313 
L 69.603125 123.485313 
" style="fill: none; stroke: #e377c2; stroke-width: 1.5; stroke-linecap: square"/>
    </g>
    <g id="text_29">
     <!-- Ref Speed = 170 -->
     <g transform="translate(77.603125 126.985313) scale(0.1 -0.1)">
      <use xlink:href="#DejaVuSans-52"/>
      <use xlink:href="#DejaVuSans-65" transform="translate(64.982422 0)"/>
      <use xlink:href="#DejaVuSans-66" transform="translate(126.505859 0)"/>
      <use xlink:href="#DejaVuSans-20" transform="translate(161.710938 0)"/>
      <use xlink:href="#DejaVuSans-53" transform="translate(193.498047 0)"/>
      <use xlink:href="#DejaVuSans-70" transform="translate(256.974609 0)"/>
      <use xlink:href="#DejaVuSans-65" transform="translate(320.451172 0)"/>
      <use xlink:href="#DejaVuSans-65" transform="translate(381.974609 0)"/>
      <use xlink:href="#DejaVuSans-64" transform="translate(443.498047 0)"/>
      <use xlink:href="#DejaVuSans-20" transform="translate(506.974609 0)"/>
      <use xlink:href="#DejaVuSans-3d" transform="translate(538.761719 0)"/>
      <use xlink:href="#DejaVuSans-20" transform="translate(622.550781 0)"/>
      <use xlink:href="#DejaVuSans-31" transform="translate(654.337891 0)"/>
      <use xlink:href="#DejaVuSans-37" transform="translate(717.960938 0)"/>
      <use xlink:href="#DejaVuSans-30" transform="translate(781.583984 0)"/>
     </g>
    </g>
    <g id="line2d_34">
     <path d="M 49.603125 138.163438 
L 59.603125 138.163438 
L 69.603125 138.163438 
" style="fill: none; stroke: #7f7f7f; stroke-width: 1.5; stroke-linecap: square"/>
    </g>
    <g id="text_30">
     <!-- Ref Speed = 85 -->
     <g transform="translate(77.603125 141.663438) scale(0.1 -0.1)">
      <use xlink:href="#DejaVuSans-52"/>
      <use xlink:href="#DejaVuSans-65" transform="translate(64.982422 0)"/>
      <use xlink:href="#DejaVuSans-66" transform="translate(126.505859 0)"/>
      <use xlink:href="#DejaVuSans-20" transform="translate(161.710938 0)"/>
      <use xlink:href="#DejaVuSans-53" transform="translate(193.498047 0)"/>
      <use xlink:href="#DejaVuSans-70" transform="translate(256.974609 0)"/>
      <use xlink:href="#DejaVuSans-65" transform="translate(320.451172 0)"/>
      <use xlink:href="#DejaVuSans-65" transform="translate(381.974609 0)"/>
      <use xlink:href="#DejaVuSans-64" transform="translate(443.498047 0)"/>
      <use xlink:href="#DejaVuSans-20" transform="translate(506.974609 0)"/>
      <use xlink:href="#DejaVuSans-3d" transform="translate(538.761719 0)"/>
      <use xlink:href="#DejaVuSans-20" transform="translate(622.550781 0)"/>
      <use xlink:href="#DejaVuSans-38" transform="translate(654.337891 0)"/>
      <use xlink:href="#DejaVuSans-35" transform="translate(717.960938 0)"/>
     </g>
    </g>
   </g>
  </g>
 </g>
 <defs>
  <clipPath id="p9f99fae069">
   <rect x="40.603125" y="22.318125" width="405.34" height="277.48"/>
  </clipPath>
 </defs>
</svg>
