<svg width="1920" height="1920" xmlns="http://www.w3.org/2000/svg" xmlns:xlink="http://www.w3.org/1999/xlink" overflow="hidden"><g><rect x="0" y="0" width="1920" height="1920" fill="#D9D9D9"/><path d="M843 380 884.6 334 1009.4 334 1051 380 1009.4 426 884.6 426Z" stroke="#000000" stroke-width="2" stroke-miterlimit="8" fill="#FFFFFF" fill-rule="evenodd"/><text font-family="Times New Roman,Times New Roman_MSFontService,sans-serif" font-weight="400" font-size="24" transform="translate(895.742 374)">User Input</text><text font-family="Times New Roman,Times New Roman_MSFontService,sans-serif" font-weight="400" font-size="24" transform="translate(924.242 403)">Task</text><path d="M948 426 948 489.897 946 489.897 946 426ZM952.531 482.401 947 491.882 941.47 482.401C941.191 481.924 941.352 481.312 941.83 481.034 942.307 480.755 942.919 480.916 943.197 481.393L947.864 489.393 946.136 489.393 950.803 481.393C951.081 480.916 951.694 480.755 952.171 481.033 952.648 481.312 952.809 481.924 952.531 482.401Z"/><rect x="843" y="492" width="208" height="92" stroke="#000000" stroke-width="2" stroke-miterlimit="8" fill="#FFFFFF"/><text font-family="Times New Roman,Times New Roman_MSFontService,sans-serif" font-weight="400" font-size="24" transform="translate(866.076 532)">Check for Inputs</text><text font-family="Times New Roman,Times New Roman_MSFontService,sans-serif" font-weight="400" font-size="24" transform="translate(888.462 561)">from UART</text><rect x="843" y="650" width="208" height="92" stroke="#000000" stroke-width="2" stroke-miterlimit="8" fill="#FFFFFF"/><text font-family="Times New Roman,Times New Roman_MSFontService,sans-serif" font-weight="400" font-size="24" transform="translate(875.409 690)">Pop Cmd from</text><text font-family="Times New Roman,Times New Roman_MSFontService,sans-serif" font-weight="400" font-size="24" transform="translate(915.409 719)">Queue</text><path d="M948 584 948 647.897 946 647.897 946 584ZM952.531 640.401 947 649.882 941.47 640.401C941.191 639.924 941.352 639.312 941.83 639.034 942.307 638.755 942.919 638.916 943.197 639.393L947.864 647.393 946.136 647.393 950.803 639.393C951.081 638.916 951.694 638.755 952.171 639.034 952.648 639.312 952.809 639.924 952.531 640.401Z"/><text font-family="Times New Roman,Times New Roman_MSFontService,sans-serif" font-weight="400" font-size="24" transform="translate(1096.14 612)">T</text><text font-family="Times New Roman,Times New Roman_MSFontService,sans-serif" font-weight="400" font-size="24" transform="translate(923.266 619)">F</text><rect x="1120" y="650" width="208" height="92" stroke="#000000" stroke-width="2" stroke-miterlimit="8" fill="#FFFFFF"/><text font-family="Times New Roman,Times New Roman_MSFontService,sans-serif" font-weight="400" font-size="24" transform="translate(1136.31 690)">Add Input to Cmd</text><text font-family="Times New Roman,Times New Roman_MSFontService,sans-serif" font-weight="400" font-size="24" transform="translate(1192.64 719)">Queue</text><path d="M947.231 583.027 1222.54 648.446 1222.08 650.392 946.769 584.973ZM1216.29 642.306 1224.24 649.878 1213.74 653.067C1213.21 653.228 1212.65 652.929 1212.49 652.401 1212.33 651.872 1212.63 651.314 1213.15 651.153L1222.02 648.463 1221.62 650.143 1214.91 643.754C1214.51 643.373 1214.5 642.74 1214.88 642.34 1215.26 641.94 1215.89 641.925 1216.29 642.306Z"/><path d="M1328.23 695.255 1352.23 695.255 1351.23 696.255 1351.23 538 1352.23 539 1052.98 539 1052.98 537 1353.23 537 1353.23 697.255 1328.23 697.255ZM1060.48 543.53 1051 538 1060.48 532.47C1060.95 532.191 1061.57 532.352 1061.84 532.829 1062.12 533.307 1061.96 533.919 1061.48 534.197L1053.48 538.864 1053.48 537.136 1061.48 541.803C1061.96 542.081 1062.12 542.693 1061.84 543.171 1061.57 543.648 1060.95 543.809 1060.48 543.53Z"/><path d="M0-1 57.9641-1 57.9641 247.824 56.9641 246.824 111.948 246.824 111.948 248.824 55.9641 248.824 55.9641 0 56.9641 1 0 1ZM104.452 242.294 113.933 247.824 104.452 253.355C103.975 253.633 103.362 253.472 103.084 252.995 102.806 252.518 102.967 251.906 103.444 251.627L111.444 246.961 111.444 248.688 103.444 244.022C102.967 243.743 102.806 243.131 103.084 242.654 103.362 242.177 103.975 242.016 104.452 242.294Z" transform="matrix(1.83697e-16 1 1 -1.83697e-16 947 742)"/><text font-family="Times New Roman,Times New Roman_MSFontService,sans-serif" font-weight="400" font-size="24" transform="translate(697.401 785)">Single</text><text font-family="Times New Roman,Times New Roman_MSFontService,sans-serif" font-weight="400" font-size="24" transform="translate(758.734 785)">-</text><text font-family="Times New Roman,Times New Roman_MSFontService,sans-serif" font-weight="400" font-size="24" transform="translate(766.734 785)">Input Action</text><path d="M585 1111.67 585 379 841.004 379 841.004 381 586 381 587 380 587 1111.67ZM833.504 374.47 842.985 380 833.504 385.53C833.027 385.809 832.415 385.648 832.137 385.171 831.858 384.693 832.019 384.081 832.497 383.803L840.497 379.136 840.497 380.864 832.497 376.197C832.019 375.919 831.858 375.307 832.137 374.829 832.415 374.352 833.027 374.191 833.504 374.47Z"/><path d="M263 380 263 666.829" stroke="#000000" stroke-width="2" stroke-miterlimit="8" fill="none" fill-rule="evenodd"/><path d="M947.623 742 947.623 799.964 697 799.964 698 798.964 698 853.948 696 853.948 696 797.964 946.623 797.964 945.623 798.964 945.623 742ZM702.53 846.452 697 855.933 691.47 846.452C691.191 845.975 691.352 845.362 691.829 845.084 692.307 844.806 692.919 844.967 693.197 845.444L697.864 853.444 696.136 853.444 700.803 845.444C701.081 844.967 701.693 844.806 702.171 845.084 702.648 845.362 702.809 845.975 702.53 846.452Z"/><rect x="615" y="856" width="165" height="53" stroke="#000000" stroke-width="2" stroke-miterlimit="8" fill="#FFFFFF"/><text font-family="Times New Roman,Times New Roman_MSFontService,sans-serif" font-weight="400" font-size="22.6667" transform="translate(626.996 891)">Perform Action</text><rect x="1061" y="856" width="267" height="86" stroke="#000000" stroke-width="2" stroke-miterlimit="8" fill="#FFFFFF"/><text font-family="Times New Roman,Times New Roman_MSFontService,sans-serif" font-weight="400" font-size="24" transform="translate(1084.23 893)">Check for n</text><text font-family="Times New Roman,Times New Roman_MSFontService,sans-serif" font-weight="400" font-size="24" transform="translate(1197.57 893)">-</text><text font-family="Times New Roman,Times New Roman_MSFontService,sans-serif" font-weight="400" font-size="24" transform="translate(1205.57 893)">number of</text><text font-family="Times New Roman,Times New Roman_MSFontService,sans-serif" font-weight="400" font-size="24" transform="translate(1072.57 922)">inputs (action dependent)</text><text font-family="Times New Roman,Times New Roman_MSFontService,sans-serif" font-weight="400" font-size="24" transform="translate(976.073 785)">Multi</text><text font-family="Times New Roman,Times New Roman_MSFontService,sans-serif" font-weight="400" font-size="24" transform="translate(1029.41 785)">-</text><text font-family="Times New Roman,Times New Roman_MSFontService,sans-serif" font-weight="400" font-size="24" transform="translate(1037.41 785)">Input Action</text><path d="M0-1 35.1015-1 35.1015 0.0809449 34.1015-0.919055 66.223-0.919055 66.223 1.08094 33.1015 1.08094 33.1015 0 34.1015 1 0 1ZM58.7269-5.4495 68.2077 0.0809449 58.7269 5.61139C58.2499 5.88967 57.6375 5.72853 57.3593 5.25148 57.081 4.77443 57.2421 4.16211 57.7192 3.88383L65.7192-0.782834 65.7192 0.944724 57.7192-3.72194C57.2421-4.00022 57.081-4.61254 57.3593-5.08959 57.6375-5.56665 58.2499-5.72778 58.7269-5.4495Z" transform="matrix(1.83697e-16 1 1 -1.83697e-16 1195 942)"/><rect x="1112" y="1010" width="165" height="52" stroke="#000000" stroke-width="2" stroke-miterlimit="8" fill="#FFFFFF"/><text font-family="Times New Roman,Times New Roman_MSFontService,sans-serif" font-weight="400" font-size="22.6667" transform="translate(1124.52 1045)">Perform Action</text><path d="M0 0 608.956 0.000104987" stroke="#000000" stroke-width="2" stroke-miterlimit="8" fill="none" fill-rule="evenodd" transform="matrix(-1 0 0 1 1194.96 1111)"/><path d="M697 909 697 1111.77" stroke="#000000" stroke-width="2" stroke-miterlimit="8" fill="none" fill-rule="evenodd"/><path d="M1195 1062 1195 1110.94" stroke="#000000" stroke-width="2" stroke-miterlimit="8" fill="none" fill-rule="evenodd"/><rect x="864" y="860" width="165" height="82" stroke="#000000" stroke-width="2" stroke-miterlimit="8" fill="#FFFFFF"/><text font-family="Times New Roman,Times New Roman_MSFontService,sans-serif" font-weight="400" font-size="24" transform="translate(893.076 895)">Action Not</text><text font-family="Times New Roman,Times New Roman_MSFontService,sans-serif" font-weight="400" font-size="24" transform="translate(890.076 924)">Recognized</text><path d="M948 796 948 857.815 946 857.815 946 796ZM952.531 850.319 947 859.8 941.47 850.319C941.191 849.842 941.352 849.23 941.83 848.952 942.307 848.673 942.919 848.834 943.197 849.312L947.864 857.312 946.136 857.312 950.803 849.312C951.081 848.834 951.694 848.673 952.171 848.952 952.648 849.23 952.809 849.842 952.531 850.319Z"/><path d="M947 942 947 1111.41" stroke="#000000" stroke-width="2" stroke-miterlimit="8" fill="none" fill-rule="evenodd"/></g></svg>