<svg width="1920" height="1920" xmlns="http://www.w3.org/2000/svg" xmlns:xlink="http://www.w3.org/1999/xlink" overflow="hidden"><g><rect x="0" y="0" width="1920" height="1920" fill="#D9D9D9"/><path d="M60.6901 48.3537 567.158 48.3537 567.158 128.354 60.6901 128.354Z" fill="#FFFFFF" fill-rule="evenodd"/><path d="M60.6901 128.354 567.158 128.354 567.158 344.354 60.6901 344.354Z" fill="#FFFFFF" fill-rule="evenodd"/><path d="M59.6901 128.354 568.158 128.354" stroke="#000000" stroke-width="2" stroke-linejoin="round" stroke-miterlimit="10" fill="none" fill-rule="evenodd"/><path d="M60.6901 47.3537 60.6901 345.354" stroke="#000000" stroke-width="2" stroke-linejoin="round" stroke-miterlimit="10" fill="none" fill-rule="evenodd"/><path d="M567.158 47.3537 567.158 345.354" stroke="#000000" stroke-width="2" stroke-linejoin="round" stroke-miterlimit="10" fill="none" fill-rule="evenodd"/><path d="M59.6901 48.3537 568.158 48.3537" stroke="#000000" stroke-width="2" stroke-linejoin="round" stroke-miterlimit="10" fill="none" fill-rule="evenodd"/><path d="M59.6901 344.354 568.158 344.354" stroke="#000000" stroke-width="2" stroke-linejoin="round" stroke-miterlimit="10" fill="none" fill-rule="evenodd"/><text font-family="Times New Roman,Times New Roman_MSFontService,sans-serif" font-weight="700" font-size="54.6667" transform="translate(187.584 109)">User Input</text><g><text font-family="Times New Roman,Times New Roman_MSFontService,sans-serif" font-weight="400" font-size="28" transform="translate(75.0901 163)">Priority: ∞</text></g><g><text font-family="Times New Roman,Times New Roman_MSFontService,sans-serif" font-weight="400" font-size="28" transform="translate(75.0901 230)">Period:</text></g><text font-family="Times New Roman,Times New Roman_MSFontService,sans-serif" font-weight="400" font-size="28" transform="translate(171.09 230)">50</text><text font-family="Times New Roman,Times New Roman_MSFontService,sans-serif" font-weight="400" font-size="28" transform="translate(206.09 230)">ms</text><g><text font-family="Times New Roman,Times New Roman_MSFontService,sans-serif" font-weight="400" font-size="28" transform="translate(75.0901 297)">Description:</text></g><g><text font-family="Times New Roman,Times New Roman_MSFontService,sans-serif" font-weight="400" font-size="28" transform="translate(75.0901 331)">Monitors for user input to perform actions</text></g><path d="M1141.48 1217.26 1501.48 1217.26 1501.48 1275.41 1141.48 1275.41Z" fill="#FFFFFF" fill-rule="evenodd"/><path d="M1141.48 1275.41 1501.48 1275.41 1501.48 1563.41 1141.48 1563.41Z" fill="#FFFFFF" fill-rule="evenodd"/><path d="M1140.48 1275.41 1502.48 1275.41" stroke="#000000" stroke-width="2" stroke-linejoin="round" stroke-miterlimit="10" fill="none" fill-rule="evenodd"/><path d="M1141.48 1216.26 1141.48 1564.41" stroke="#000000" stroke-width="2" stroke-linejoin="round" stroke-miterlimit="10" fill="none" fill-rule="evenodd"/><path d="M1501.48 1216.26 1501.48 1564.41" stroke="#000000" stroke-width="2" stroke-linejoin="round" stroke-miterlimit="10" fill="none" fill-rule="evenodd"/><path d="M1140.48 1217.26 1502.48 1217.26" stroke="#000000" stroke-width="2" stroke-linejoin="round" stroke-miterlimit="10" fill="none" fill-rule="evenodd"/><path d="M1140.48 1563.41 1502.48 1563.41" stroke="#000000" stroke-width="2" stroke-linejoin="round" stroke-miterlimit="10" fill="none" fill-rule="evenodd"/><text font-family="Times New Roman,Times New Roman_MSFontService,sans-serif" font-weight="700" font-size="36" transform="translate(1178.98 1260)">Garbage Collector</text><g><text font-family="Times New Roman,Times New Roman_MSFontService,sans-serif" font-weight="400" font-size="28" transform="translate(1155.89 1310)">Priority: 0</text></g><g><text font-family="Times New Roman,Times New Roman_MSFontService,sans-serif" font-weight="400" font-size="28" transform="translate(1155.89 1344)">Period:</text></g><text font-family="Times New Roman,Times New Roman_MSFontService,sans-serif" font-weight="400" font-size="28" transform="translate(1251.89 1344)">0</text><text font-family="Times New Roman,Times New Roman_MSFontService,sans-serif" font-weight="400" font-size="28" transform="translate(1272.89 1344)">ms</text><g><text font-family="Times New Roman,Times New Roman_MSFontService,sans-serif" font-weight="400" font-size="28" transform="translate(1155.89 1411)">Description:</text></g><g><text font-family="Times New Roman,Times New Roman_MSFontService,sans-serif" font-weight="400" font-size="28" transform="translate(1155.89 1444)">When no other tasks are</text></g><g><text font-family="Times New Roman,Times New Roman_MSFontService,sans-serif" font-weight="400" font-size="28" transform="translate(1155.89 1478)">running collect garbage data</text></g><g><text font-family="Times New Roman,Times New Roman_MSFontService,sans-serif" font-weight="400" font-size="28" transform="translate(1155.89 1512)">for defragmentation</text></g><path d="M663 996 671 996 671 998 663 998ZM677 996 685 996 685 998 677 998ZM691 996 699 996 699 998 691 998ZM705 996 713 996 713 998 705 998ZM719 996 727 996 727 998 719 998ZM733 996 741 996 741 998 733 998ZM747 996 755 996 755 998 747 998ZM761 996 769 996 769 998 761 998ZM775 996 783 996 783 998 775 998ZM789 996 797 996 797 998 789 998ZM803 996 811 996 811 998 803 998ZM817 996 825 996 825 998 817 998ZM831 996 839 996 839 998 831 998ZM845 996 853 996 853 998 845 998ZM859 996 867 996 867 998 859 998ZM873 996 881 996 881 998 873 998ZM887 996 895 996 895 998 887 998ZM901 996 909 996 909 998 901 998ZM915 996 923 996 923 998 915 998ZM929 996 937 996 937 998 929 998ZM943 996 951 996 951 998 943 998ZM951.409 993 959.409 997 951.409 1001Z"/><path d="M0 0 1161.6 0.000104987" stroke="#000000" stroke-width="2" stroke-miterlimit="8" stroke-dasharray="8 6" fill="none" fill-rule="evenodd" transform="matrix(-1 0 0 1 1573.6 801)"/><path d="M567 345 567 408.586" stroke="#000000" stroke-width="2" stroke-miterlimit="8" stroke-dasharray="8 6" fill="none" fill-rule="evenodd"/><path d="M729.664 48.3537 1573.5 48.3537 1573.5 105.954 729.664 105.954Z" fill="#FFFFFF" fill-rule="evenodd"/><path d="M729.664 105.954 1573.5 105.954 1573.5 363.791 729.664 363.791Z" fill="#FFFFFF" fill-rule="evenodd"/><path d="M728.664 105.954 1574.5 105.954" stroke="#000000" stroke-width="2" stroke-linejoin="round" stroke-miterlimit="10" fill="none" fill-rule="evenodd"/><path d="M729.664 47.3537 729.664 364.791" stroke="#000000" stroke-width="2" stroke-linejoin="round" stroke-miterlimit="10" fill="none" fill-rule="evenodd"/><path d="M1573.5 47.3537 1573.5 364.791" stroke="#000000" stroke-width="2" stroke-linejoin="round" stroke-miterlimit="10" fill="none" fill-rule="evenodd"/><path d="M728.664 48.3537 1574.5 48.3537" stroke="#000000" stroke-width="2" stroke-linejoin="round" stroke-miterlimit="10" fill="none" fill-rule="evenodd"/><path d="M728.664 363.791 1574.5 363.791" stroke="#000000" stroke-width="2" stroke-linejoin="round" stroke-miterlimit="10" fill="none" fill-rule="evenodd"/><text font-family="Times New Roman,Times New Roman_MSFontService,sans-serif" font-weight="700" font-size="36" transform="translate(1046.41 91)">Path Director</text><path d="M840.064 183.154 875.064 183.154 875.064 214.154 840.064 214.154Z" fill="#FFFF00" fill-rule="evenodd"/><path d="M875.064 183.154 907.731 183.154 907.731 214.154 875.064 214.154Z" fill="#FFFF00" fill-rule="evenodd"/><g><text font-family="Times New Roman,Times New Roman_MSFontService,sans-serif" font-weight="400" font-size="28" transform="translate(744.064 140)">Priority: 3</text></g><g><text font-family="Times New Roman,Times New Roman_MSFontService,sans-serif" font-weight="400" font-size="28" transform="translate(744.064 207)">Period:</text></g><text font-family="Times New Roman,Times New Roman_MSFontService,sans-serif" font-weight="400" font-size="28" transform="translate(840.064 207)">30</text><text font-family="Times New Roman,Times New Roman_MSFontService,sans-serif" font-weight="400" font-size="28" transform="translate(875.064 207)">ms</text><g><text font-family="Times New Roman,Times New Roman_MSFontService,sans-serif" font-weight="400" font-size="28" transform="translate(744.064 274)">Description:</text></g><g><text font-family="Times New Roman,Times New Roman_MSFontService,sans-serif" font-weight="400" font-size="28" transform="translate(744.064 308)">A control algorithm that divides Romi’s actions into sequential</text></g><g><text font-family="Times New Roman,Times New Roman_MSFontService,sans-serif" font-weight="400" font-size="28" transform="translate(744.064 342)">segments, each defining distinct behavior and actions.</text></g><path d="M1238.96 1123.28 1598.96 1123.28 1598.96 1181.43 1238.96 1181.43Z" fill="#FFFFFF" fill-rule="evenodd"/><path d="M1238.96 1181.43 1598.96 1181.43 1598.96 1757.43 1238.96 1757.43Z" fill="#FFFFFF" fill-rule="evenodd"/><path d="M1237.96 1181.43 1599.96 1181.43" stroke="#000000" stroke-width="2" stroke-linejoin="round" stroke-miterlimit="10" fill="none" fill-rule="evenodd"/><path d="M1238.96 1122.28 1238.96 1758.43" stroke="#000000" stroke-width="2" stroke-linejoin="round" stroke-miterlimit="10" fill="none" fill-rule="evenodd"/><path d="M1598.96 1122.28 1598.96 1758.43" stroke="#000000" stroke-width="2" stroke-linejoin="round" stroke-miterlimit="10" fill="none" fill-rule="evenodd"/><path d="M1237.96 1123.28 1599.96 1123.28" stroke="#000000" stroke-width="2" stroke-linejoin="round" stroke-miterlimit="10" fill="none" fill-rule="evenodd"/><path d="M1237.96 1757.43 1599.96 1757.43" stroke="#000000" stroke-width="2" stroke-linejoin="round" stroke-miterlimit="10" fill="none" fill-rule="evenodd"/><text font-family="Times New Roman,Times New Roman_MSFontService,sans-serif" font-weight="700" font-size="36" transform="translate(1346.96 1166)">Observer</text><path d="M1349.36 1225.63 1384.36 1225.63 1384.36 1256.63 1349.36 1256.63Z" fill="#FFFF00" fill-rule="evenodd"/><path d="M1384.36 1225.63 1417.03 1225.63 1417.03 1256.63 1384.36 1256.63Z" fill="#FFFF00" fill-rule="evenodd"/><g><text font-family="Times New Roman,Times New Roman_MSFontService,sans-serif" font-weight="400" font-size="28" transform="translate(1253.36 1216)">Priority: 2</text></g><g><text font-family="Times New Roman,Times New Roman_MSFontService,sans-serif" font-weight="400" font-size="28" transform="translate(1253.36 1250)">Period:</text></g><text font-family="Times New Roman,Times New Roman_MSFontService,sans-serif" font-weight="400" font-size="28" transform="translate(1349.36 1250)">20</text><text font-family="Times New Roman,Times New Roman_MSFontService,sans-serif" font-weight="400" font-size="28" transform="translate(1384.36 1250)">ms</text><g><text font-family="Times New Roman,Times New Roman_MSFontService,sans-serif" font-weight="400" font-size="28" transform="translate(1253.36 1317)">Description:</text></g><g><text font-family="Times New Roman,Times New Roman_MSFontService,sans-serif" font-weight="400" font-size="28" transform="translate(1253.36 1350)">Discretized linear model of</text></g><g><text font-family="Times New Roman,Times New Roman_MSFontService,sans-serif" font-weight="400" font-size="28" transform="translate(1253.36 1384)">Romi’s state and input</text></g><g><text font-family="Times New Roman,Times New Roman_MSFontService,sans-serif" font-weight="400" font-size="28" transform="translate(1253.36 1418)">variables to best estimate the</text></g><g><text font-family="Times New Roman,Times New Roman_MSFontService,sans-serif" font-weight="400" font-size="28" transform="translate(1253.36 1451)">current position and</text></g><g><text font-family="Times New Roman,Times New Roman_MSFontService,sans-serif" font-weight="400" font-size="28" transform="translate(1253.36 1485)">orientation.</text></g><rect x="1661.5" y="1273.5" width="231" height="77" stroke="#000000" stroke-width="1.33333" stroke-linejoin="round" stroke-miterlimit="10" fill="#FFFFFF"/><text font-family="Times New Roman,Times New Roman_MSFontService,sans-serif" font-weight="400" font-size="28" transform="translate(1703.24 1304)">obsd_lpos_s</text><text font-family="Times New Roman,Times New Roman_MSFontService,sans-serif" font-weight="400" font-size="28" transform="translate(1841.58 1304)">:</text><text font-family="Times New Roman,Times New Roman_MSFontService,sans-serif" font-weight="400" font-size="28" transform="translate(1741.24 1338)">[float]</text><rect x="1661.5" y="1369.5" width="231" height="77" stroke="#000000" stroke-width="1.33333" stroke-linejoin="round" stroke-miterlimit="10" fill="#FFFFFF"/><text font-family="Times New Roman,Times New Roman_MSFontService,sans-serif" font-weight="400" font-size="28" transform="translate(1702.49 1400)">obsd_rpos_s</text><text font-family="Times New Roman,Times New Roman_MSFontService,sans-serif" font-weight="400" font-size="28" transform="translate(1842.33 1400)">:</text><text font-family="Times New Roman,Times New Roman_MSFontService,sans-serif" font-weight="400" font-size="28" transform="translate(1741.24 1434)">[float]</text><rect x="1666.5" y="1482.5" width="230" height="76" stroke="#000000" stroke-width="1.33333" stroke-linejoin="round" stroke-miterlimit="10" fill="#FFFFFF"/><text font-family="Times New Roman,Times New Roman_MSFontService,sans-serif" font-weight="400" font-size="28" transform="translate(1707.84 1513)">obsd_yaw_s</text><text font-family="Times New Roman,Times New Roman_MSFontService,sans-serif" font-weight="400" font-size="28" transform="translate(1846.17 1513)">:</text><text font-family="Times New Roman,Times New Roman_MSFontService,sans-serif" font-weight="400" font-size="28" transform="translate(1745.84 1547)">[float]</text><rect x="1666.5" y="1577.5" width="230" height="77" stroke="#000000" stroke-width="1.33333" stroke-linejoin="round" stroke-miterlimit="10" fill="#FFFFFF"/><text font-family="Times New Roman,Times New Roman_MSFontService,sans-serif" font-weight="400" font-size="28" transform="translate(1686.75 1609)">obsd_yawrate_s</text><text font-family="Times New Roman,Times New Roman_MSFontService,sans-serif" font-weight="400" font-size="28" transform="translate(1867.25 1609)">:</text><text font-family="Times New Roman,Times New Roman_MSFontService,sans-serif" font-weight="400" font-size="28" transform="translate(1745.83 1643)">[float]</text><path d="M1599 1314 1607 1314 1607 1316 1599 1316ZM1613 1314 1621 1314 1621 1316 1613 1316ZM1627 1314 1635 1314 1635 1316 1627 1316ZM1641 1314 1649 1314 1649 1316 1641 1316ZM1653.17 1311 1661.17 1315 1653.17 1319Z"/><rect x="663.5" y="1141.5" width="231" height="76" stroke="#000000" stroke-width="1.33333" stroke-linejoin="round" stroke-miterlimit="10" fill="#FFFFFF"/><text font-family="Times New Roman,Times New Roman_MSFontService,sans-serif" font-weight="400" font-size="28" transform="translate(707.598 1172)">cal_white_s</text><text font-family="Times New Roman,Times New Roman_MSFontService,sans-serif" font-weight="400" font-size="28" transform="translate(841.598 1172)">:</text><text font-family="Times New Roman,Times New Roman_MSFontService,sans-serif" font-weight="400" font-size="28" transform="translate(740.352 1206)">[uint8]</text><rect x="663.5" y="1243.5" width="231" height="76" stroke="#000000" stroke-width="1.33333" stroke-linejoin="round" stroke-miterlimit="10" fill="#FFFFFF"/><text font-family="Times New Roman,Times New Roman_MSFontService,sans-serif" font-weight="400" font-size="28" transform="translate(708.348 1274)">cal_black_s</text><text font-family="Times New Roman,Times New Roman_MSFontService,sans-serif" font-weight="400" font-size="28" transform="translate(840.848 1274)">:</text><text font-family="Times New Roman,Times New Roman_MSFontService,sans-serif" font-weight="400" font-size="28" transform="translate(740.348 1308)">[uint8]</text><rect x="663.5" y="1343.5" width="231" height="77" stroke="#000000" stroke-width="1.33333" stroke-linejoin="round" stroke-miterlimit="10" fill="#FFFFFF"/><text font-family="Times New Roman,Times New Roman_MSFontService,sans-serif" font-weight="400" font-size="28" transform="translate(720.932 1374)">set_seg_s</text><text font-family="Times New Roman,Times New Roman_MSFontService,sans-serif" font-weight="400" font-size="28" transform="translate(828.265 1374)">:</text><text font-family="Times New Roman,Times New Roman_MSFontService,sans-serif" font-weight="400" font-size="28" transform="translate(740.352 1408)">[uint8]</text><rect x="1450.5" y="883.5" width="230" height="76" stroke="#000000" stroke-width="1.33333" stroke-linejoin="round" stroke-miterlimit="10" fill="#FFFFFF"/><text font-family="Times New Roman,Times New Roman_MSFontService,sans-serif" font-weight="400" font-size="28" transform="translate(1499.07 914)">seg_start_s</text><text font-family="Times New Roman,Times New Roman_MSFontService,sans-serif" font-weight="400" font-size="28" transform="translate(1623.57 914)">:</text><text font-family="Times New Roman,Times New Roman_MSFontService,sans-serif" font-weight="400" font-size="28" transform="translate(1527.07 948)">[uint8]</text><path d="M1599 1406 1607 1406 1607 1408 1599 1408ZM1613 1406 1621 1406 1621 1408 1613 1408ZM1627 1406 1635 1406 1635 1408 1627 1408ZM1641 1406 1649 1406 1649 1408 1641 1408ZM1653.17 1403 1661.17 1407 1653.17 1411Z"/><path d="M1604 1517 1612 1517 1612 1519 1604 1519ZM1618 1517 1626 1517 1626 1519 1618 1519ZM1632 1517 1640 1517 1640 1519 1632 1519ZM1646 1517 1654 1517 1654 1519 1646 1519ZM1658.17 1514 1666.17 1518 1658.17 1522Z"/><path d="M1604 1609 1612 1609 1612 1611 1604 1611ZM1618 1609 1626 1609 1626 1611 1618 1611ZM1632 1609 1640 1609 1640 1611 1632 1611ZM1646 1609 1654 1609 1654 1611 1646 1611ZM1658.17 1606 1666.17 1610 1658.17 1614Z"/><path d="M0 0 173.187 0.000104987" stroke="#000000" stroke-width="2" stroke-miterlimit="8" stroke-dasharray="8 6" fill="none" fill-rule="evenodd" transform="matrix(-1 0 0 1 740.187 408)"/><path d="M0 0 0.000104987 285.155" stroke="#000000" stroke-width="2" stroke-miterlimit="8" stroke-dasharray="8 6" fill="none" fill-rule="evenodd" transform="matrix(1 0 0 -1 457 959.155)"/><path d="M0 0 42.4973 0.000104987" stroke="#000000" stroke-width="2" stroke-miterlimit="8" stroke-dasharray="8 6" fill="none" fill-rule="evenodd" transform="matrix(-1 0 0 1 456.497 959)"/><path d="M740 364 740 408.134" stroke="#000000" stroke-width="2" stroke-miterlimit="8" stroke-dasharray="8 6" fill="none" fill-rule="evenodd"/><rect x="591.5" y="326.5" width="130" height="77" stroke="#000000" stroke-width="1.33333" stroke-linejoin="round" stroke-miterlimit="10" fill="#FFFFFF"/><text font-family="Times New Roman,Times New Roman_MSFontService,sans-serif" font-weight="400" font-size="28" transform="translate(607.342 357)">l_flag_s</text><text font-family="Times New Roman,Times New Roman_MSFontService,sans-serif" font-weight="400" font-size="28" transform="translate(697.675 357)">:</text><text font-family="Times New Roman,Times New Roman_MSFontService,sans-serif" font-weight="400" font-size="28" transform="translate(618.262 391)">[uint8]</text><path d="M493 346 493 500.836" stroke="#000000" stroke-width="2" stroke-miterlimit="8" stroke-dasharray="8 6" fill="none" fill-rule="evenodd"/><path d="M0 0 309.531 0.0137533" stroke="#000000" stroke-width="2" stroke-miterlimit="8" stroke-dasharray="8 6" fill="none" fill-rule="evenodd" transform="matrix(-1 0 0 1 800.531 501)"/><path d="M800 367 800 496.898" stroke="#000000" stroke-width="2" stroke-miterlimit="8" stroke-dasharray="8 6" fill="none" fill-rule="evenodd"/><rect x="648.5" y="420.5" width="130" height="77" stroke="#000000" stroke-width="1.33333" stroke-linejoin="round" stroke-miterlimit="10" fill="#FFFFFF"/><text font-family="Times New Roman,Times New Roman_MSFontService,sans-serif" font-weight="400" font-size="28" transform="translate(663.023 452)">r_flag_s</text><text font-family="Times New Roman,Times New Roman_MSFontService,sans-serif" font-weight="400" font-size="28" transform="translate(754.857 452)">:</text><text font-family="Times New Roman,Times New Roman_MSFontService,sans-serif" font-weight="400" font-size="28" transform="translate(674.69 486)">[uint8]</text><rect x="710.5" y="512.5" width="128" height="76" stroke="#000000" stroke-width="1.33333" stroke-linejoin="round" stroke-miterlimit="10" fill="#FFFFFF"/><text font-family="Times New Roman,Times New Roman_MSFontService,sans-serif" font-weight="400" font-size="28" transform="translate(714.798 543)">l_speed_s</text><text font-family="Times New Roman,Times New Roman_MSFontService,sans-serif" font-weight="400" font-size="28" transform="translate(825.298 543)">:</text><text font-family="Times New Roman,Times New Roman_MSFontService,sans-serif" font-weight="400" font-size="28" transform="translate(738.885 577)">[float]</text><path d="M436 344 436 592.955" stroke="#000000" stroke-width="2" stroke-miterlimit="8" stroke-dasharray="8 6" fill="none" fill-rule="evenodd"/><path d="M0 0 424.916 0.546457" stroke="#000000" stroke-width="2" stroke-miterlimit="8" stroke-dasharray="8 6" fill="none" fill-rule="evenodd" transform="matrix(-1 0 0 1 858.916 593)"/><path d="M859 371 859 591.248" stroke="#000000" stroke-width="2" stroke-miterlimit="8" stroke-dasharray="8 6" fill="none" fill-rule="evenodd"/></g></svg>