<svg width="1920" height="1920" xmlns="http://www.w3.org/2000/svg" xmlns:xlink="http://www.w3.org/1999/xlink" overflow="hidden"><g><rect x="0" y="0" width="1920" height="1920" fill="#D9D9D9"/><path d="M856 583 897.6 537 1022.4 537 1064 583 1022.4 629 897.6 629Z" stroke="#000000" stroke-width="2" stroke-miterlimit="8" fill="#FFFFFF" fill-rule="evenodd"/><text font-family="Times New Roman,Times New Roman_MSFontService,sans-serif" font-weight="400" font-size="24" transform="translate(916 577)">Observer</text><text font-family="Times New Roman,Times New Roman_MSFontService,sans-serif" font-weight="400" font-size="24" transform="translate(937.5 606)">Task</text><path d="M961 629 961 692.897 959 692.897 959 629ZM965.531 685.401 960 694.882 954.47 685.401C954.191 684.924 954.352 684.312 954.83 684.034 955.307 683.755 955.919 683.916 956.197 684.393L960.864 692.393 959.136 692.393 963.803 684.393C964.081 683.916 964.694 683.755 965.171 684.034 965.648 684.312 965.809 684.924 965.531 685.401Z"/><rect x="780" y="695" width="360" height="140" stroke="#000000" stroke-width="2" stroke-miterlimit="8" fill="#FFFFFF"/><text font-family="Times New Roman,Times New Roman_MSFontService,sans-serif" font-weight="400" font-size="24" transform="translate(834.333 720)">Estimate Next Pose Using</text><text font-family="Times New Roman,Times New Roman_MSFontService,sans-serif" font-weight="400" font-size="24" transform="translate(818 746)">Gathered Left &amp; Right Motor</text><text font-family="Times New Roman,Times New Roman_MSFontService,sans-serif" font-weight="400" font-size="24" transform="translate(812.547 772)">Voltage, Left &amp; Right Encoder</text><text font-family="Times New Roman,Times New Roman_MSFontService,sans-serif" font-weight="400" font-size="24" transform="translate(798 798)">Position, IMU Heading, and IMU</text><text font-family="Times New Roman,Times New Roman_MSFontService,sans-serif" font-weight="400" font-size="24" transform="translate(809.2 824)">Yaw</text><text font-family="Times New Roman,Times New Roman_MSFontService,sans-serif" font-weight="400" font-size="24" transform="translate(858.133 824)">Rate. Store Data in Shares</text><path d="M961 835.175 961 882.032 960 881.032 1164 881.032 1163 882.032 1163 583 1164 584 1066.13 584 1066.13 582 1165 582 1165 883.032 959 883.032 959 835.175ZM1073.63 588.53 1064.15 583 1073.63 577.47C1074.1 577.191 1074.72 577.352 1074.99 577.829 1075.27 578.307 1075.11 578.919 1074.63 579.197L1066.63 583.864 1066.63 582.136 1074.63 586.803C1075.11 587.081 1075.27 587.693 1074.99 588.171 1074.72 588.648 1074.1 588.809 1073.63 588.53Z"/></g></svg>