<?xml version="1.0" encoding="utf-8" standalone="no"?>
<!DOCTYPE svg PUBLIC "-//W3C//DTD SVG 1.1//EN"
  "http://www.w3.org/Graphics/SVG/1.1/DTD/svg11.dtd">
<svg xmlns:xlink="http://www.w3.org/1999/xlink" width="453.115625pt" height="337.354375pt" viewBox="0 0 453.115625 337.354375" xmlns="http://www.w3.org/2000/svg" version="1.1">
 <metadata>
  <rdf:RDF xmlns:dc="http://purl.org/dc/elements/1.1/" xmlns:cc="http://creativecommons.org/ns#" xmlns:rdf="http://www.w3.org/1999/02/22-rdf-syntax-ns#">
   <cc:Work>
    <dc:type rdf:resource="http://purl.org/dc/dcmitype/StillImage"/>
    <dc:date>2025-10-29T20:07:45.421586</dc:date>
    <dc:format>image/svg+xml</dc:format>
    <dc:creator>
     <cc:Agent>
      <dc:title>Matplotlib v3.10.6, https://matplotlib.org/</dc:title>
     </cc:Agent>
    </dc:creator>
   </cc:Work>
  </rdf:RDF>
 </metadata>
 <defs>
  <style type="text/css">*{stroke-linejoin: round; stroke-linecap: butt}</style>
 </defs>
 <g id="figure_1">
  <g id="patch_1">
   <path d="M 0 337.354375 
L 453.115625 337.354375 
L 453.115625 0 
L 0 0 
z
" style="fill: #ffffff"/>
  </g>
  <g id="axes_1">
   <g id="patch_2">
    <path d="M 46.965625 299.798125 
L 445.915625 299.798125 
L 445.915625 22.318125 
L 46.965625 22.318125 
z
" style="fill: #ffffff"/>
   </g>
   <g id="matplotlib.axis_1">
    <g id="xtick_1">
     <g id="line2d_1">
      <defs>
       <path id="mfd314caded" d="M 0 0 
L 0 3.5 
" style="stroke: #000000; stroke-width: 0.8"/>
      </defs>
      <g>
       <use xlink:href="#mfd314caded" x="64.895215" y="299.798125" style="stroke: #000000; stroke-width: 0.8"/>
      </g>
     </g>
     <g id="text_1">
      <!-- 0.00 -->
      <g transform="translate(53.762402 314.396563) scale(0.1 -0.1)">
       <defs>
        <path id="DejaVuSans-30" d="M 2034 4250 
Q 1547 4250 1301 3770 
Q 1056 3291 1056 2328 
Q 1056 1369 1301 889 
Q 1547 409 2034 409 
Q 2525 409 2770 889 
Q 3016 1369 3016 2328 
Q 3016 3291 2770 3770 
Q 2525 4250 2034 4250 
z
M 2034 4750 
Q 2819 4750 3233 4129 
Q 3647 3509 3647 2328 
Q 3647 1150 3233 529 
Q 2819 -91 2034 -91 
Q 1250 -91 836 529 
Q 422 1150 422 2328 
Q 422 3509 836 4129 
Q 1250 4750 2034 4750 
z
" transform="scale(0.015625)"/>
        <path id="DejaVuSans-2e" d="M 684 794 
L 1344 794 
L 1344 0 
L 684 0 
L 684 794 
z
" transform="scale(0.015625)"/>
       </defs>
       <use xlink:href="#DejaVuSans-30"/>
       <use xlink:href="#DejaVuSans-2e" transform="translate(63.623047 0)"/>
       <use xlink:href="#DejaVuSans-30" transform="translate(95.410156 0)"/>
       <use xlink:href="#DejaVuSans-30" transform="translate(159.033203 0)"/>
      </g>
     </g>
    </g>
    <g id="xtick_2">
     <g id="line2d_2">
      <g>
       <use xlink:href="#mfd314caded" x="110.259248" y="299.798125" style="stroke: #000000; stroke-width: 0.8"/>
      </g>
     </g>
     <g id="text_2">
      <!-- 0.25 -->
      <g transform="translate(99.126436 314.396563) scale(0.1 -0.1)">
       <defs>
        <path id="DejaVuSans-32" d="M 1228 531 
L 3431 531 
L 3431 0 
L 469 0 
L 469 531 
Q 828 903 1448 1529 
Q 2069 2156 2228 2338 
Q 2531 2678 2651 2914 
Q 2772 3150 2772 3378 
Q 2772 3750 2511 3984 
Q 2250 4219 1831 4219 
Q 1534 4219 1204 4116 
Q 875 4013 500 3803 
L 500 4441 
Q 881 4594 1212 4672 
Q 1544 4750 1819 4750 
Q 2544 4750 2975 4387 
Q 3406 4025 3406 3419 
Q 3406 3131 3298 2873 
Q 3191 2616 2906 2266 
Q 2828 2175 2409 1742 
Q 1991 1309 1228 531 
z
" transform="scale(0.015625)"/>
        <path id="DejaVuSans-35" d="M 691 4666 
L 3169 4666 
L 3169 4134 
L 1269 4134 
L 1269 2991 
Q 1406 3038 1543 3061 
Q 1681 3084 1819 3084 
Q 2600 3084 3056 2656 
Q 3513 2228 3513 1497 
Q 3513 744 3044 326 
Q 2575 -91 1722 -91 
Q 1428 -91 1123 -41 
Q 819 9 494 109 
L 494 744 
Q 775 591 1075 516 
Q 1375 441 1709 441 
Q 2250 441 2565 725 
Q 2881 1009 2881 1497 
Q 2881 1984 2565 2268 
Q 2250 2553 1709 2553 
Q 1456 2553 1204 2497 
Q 953 2441 691 2322 
L 691 4666 
z
" transform="scale(0.015625)"/>
       </defs>
       <use xlink:href="#DejaVuSans-30"/>
       <use xlink:href="#DejaVuSans-2e" transform="translate(63.623047 0)"/>
       <use xlink:href="#DejaVuSans-32" transform="translate(95.410156 0)"/>
       <use xlink:href="#DejaVuSans-35" transform="translate(159.033203 0)"/>
      </g>
     </g>
    </g>
    <g id="xtick_3">
     <g id="line2d_3">
      <g>
       <use xlink:href="#mfd314caded" x="155.623282" y="299.798125" style="stroke: #000000; stroke-width: 0.8"/>
      </g>
     </g>
     <g id="text_3">
      <!-- 0.50 -->
      <g transform="translate(144.490469 314.396563) scale(0.1 -0.1)">
       <use xlink:href="#DejaVuSans-30"/>
       <use xlink:href="#DejaVuSans-2e" transform="translate(63.623047 0)"/>
       <use xlink:href="#DejaVuSans-35" transform="translate(95.410156 0)"/>
       <use xlink:href="#DejaVuSans-30" transform="translate(159.033203 0)"/>
      </g>
     </g>
    </g>
    <g id="xtick_4">
     <g id="line2d_4">
      <g>
       <use xlink:href="#mfd314caded" x="200.987315" y="299.798125" style="stroke: #000000; stroke-width: 0.8"/>
      </g>
     </g>
     <g id="text_4">
      <!-- 0.75 -->
      <g transform="translate(189.854503 314.396563) scale(0.1 -0.1)">
       <defs>
        <path id="DejaVuSans-37" d="M 525 4666 
L 3525 4666 
L 3525 4397 
L 1831 0 
L 1172 0 
L 2766 4134 
L 525 4134 
L 525 4666 
z
" transform="scale(0.015625)"/>
       </defs>
       <use xlink:href="#DejaVuSans-30"/>
       <use xlink:href="#DejaVuSans-2e" transform="translate(63.623047 0)"/>
       <use xlink:href="#DejaVuSans-37" transform="translate(95.410156 0)"/>
       <use xlink:href="#DejaVuSans-35" transform="translate(159.033203 0)"/>
      </g>
     </g>
    </g>
    <g id="xtick_5">
     <g id="line2d_5">
      <g>
       <use xlink:href="#mfd314caded" x="246.351349" y="299.798125" style="stroke: #000000; stroke-width: 0.8"/>
      </g>
     </g>
     <g id="text_5">
      <!-- 1.00 -->
      <g transform="translate(235.218536 314.396563) scale(0.1 -0.1)">
       <defs>
        <path id="DejaVuSans-31" d="M 794 531 
L 1825 531 
L 1825 4091 
L 703 3866 
L 703 4441 
L 1819 4666 
L 2450 4666 
L 2450 531 
L 3481 531 
L 3481 0 
L 794 0 
L 794 531 
z
" transform="scale(0.015625)"/>
       </defs>
       <use xlink:href="#DejaVuSans-31"/>
       <use xlink:href="#DejaVuSans-2e" transform="translate(63.623047 0)"/>
       <use xlink:href="#DejaVuSans-30" transform="translate(95.410156 0)"/>
       <use xlink:href="#DejaVuSans-30" transform="translate(159.033203 0)"/>
      </g>
     </g>
    </g>
    <g id="xtick_6">
     <g id="line2d_6">
      <g>
       <use xlink:href="#mfd314caded" x="291.715382" y="299.798125" style="stroke: #000000; stroke-width: 0.8"/>
      </g>
     </g>
     <g id="text_6">
      <!-- 1.25 -->
      <g transform="translate(280.58257 314.396563) scale(0.1 -0.1)">
       <use xlink:href="#DejaVuSans-31"/>
       <use xlink:href="#DejaVuSans-2e" transform="translate(63.623047 0)"/>
       <use xlink:href="#DejaVuSans-32" transform="translate(95.410156 0)"/>
       <use xlink:href="#DejaVuSans-35" transform="translate(159.033203 0)"/>
      </g>
     </g>
    </g>
    <g id="xtick_7">
     <g id="line2d_7">
      <g>
       <use xlink:href="#mfd314caded" x="337.079415" y="299.798125" style="stroke: #000000; stroke-width: 0.8"/>
      </g>
     </g>
     <g id="text_7">
      <!-- 1.50 -->
      <g transform="translate(325.946603 314.396563) scale(0.1 -0.1)">
       <use xlink:href="#DejaVuSans-31"/>
       <use xlink:href="#DejaVuSans-2e" transform="translate(63.623047 0)"/>
       <use xlink:href="#DejaVuSans-35" transform="translate(95.410156 0)"/>
       <use xlink:href="#DejaVuSans-30" transform="translate(159.033203 0)"/>
      </g>
     </g>
    </g>
    <g id="xtick_8">
     <g id="line2d_8">
      <g>
       <use xlink:href="#mfd314caded" x="382.443449" y="299.798125" style="stroke: #000000; stroke-width: 0.8"/>
      </g>
     </g>
     <g id="text_8">
      <!-- 1.75 -->
      <g transform="translate(371.310636 314.396563) scale(0.1 -0.1)">
       <use xlink:href="#DejaVuSans-31"/>
       <use xlink:href="#DejaVuSans-2e" transform="translate(63.623047 0)"/>
       <use xlink:href="#DejaVuSans-37" transform="translate(95.410156 0)"/>
       <use xlink:href="#DejaVuSans-35" transform="translate(159.033203 0)"/>
      </g>
     </g>
    </g>
    <g id="xtick_9">
     <g id="line2d_9">
      <g>
       <use xlink:href="#mfd314caded" x="427.807482" y="299.798125" style="stroke: #000000; stroke-width: 0.8"/>
      </g>
     </g>
     <g id="text_9">
      <!-- 2.00 -->
      <g transform="translate(416.67467 314.396563) scale(0.1 -0.1)">
       <use xlink:href="#DejaVuSans-32"/>
       <use xlink:href="#DejaVuSans-2e" transform="translate(63.623047 0)"/>
       <use xlink:href="#DejaVuSans-30" transform="translate(95.410156 0)"/>
       <use xlink:href="#DejaVuSans-30" transform="translate(159.033203 0)"/>
      </g>
     </g>
    </g>
    <g id="text_10">
     <!-- time, t (us) -->
     <g transform="translate(218.742188 328.074688) scale(0.1 -0.1)">
      <defs>
       <path id="DejaVuSans-74" d="M 1172 4494 
L 1172 3500 
L 2356 3500 
L 2356 3053 
L 1172 3053 
L 1172 1153 
Q 1172 725 1289 603 
Q 1406 481 1766 481 
L 2356 481 
L 2356 0 
L 1766 0 
Q 1100 0 847 248 
Q 594 497 594 1153 
L 594 3053 
L 172 3053 
L 172 3500 
L 594 3500 
L 594 4494 
L 1172 4494 
z
" transform="scale(0.015625)"/>
       <path id="DejaVuSans-69" d="M 603 3500 
L 1178 3500 
L 1178 0 
L 603 0 
L 603 3500 
z
M 603 4863 
L 1178 4863 
L 1178 4134 
L 603 4134 
L 603 4863 
z
" transform="scale(0.015625)"/>
       <path id="DejaVuSans-6d" d="M 3328 2828 
Q 3544 3216 3844 3400 
Q 4144 3584 4550 3584 
Q 5097 3584 5394 3201 
Q 5691 2819 5691 2113 
L 5691 0 
L 5113 0 
L 5113 2094 
Q 5113 2597 4934 2840 
Q 4756 3084 4391 3084 
Q 3944 3084 3684 2787 
Q 3425 2491 3425 1978 
L 3425 0 
L 2847 0 
L 2847 2094 
Q 2847 2600 2669 2842 
Q 2491 3084 2119 3084 
Q 1678 3084 1418 2786 
Q 1159 2488 1159 1978 
L 1159 0 
L 581 0 
L 581 3500 
L 1159 3500 
L 1159 2956 
Q 1356 3278 1631 3431 
Q 1906 3584 2284 3584 
Q 2666 3584 2933 3390 
Q 3200 3197 3328 2828 
z
" transform="scale(0.015625)"/>
       <path id="DejaVuSans-65" d="M 3597 1894 
L 3597 1613 
L 953 1613 
Q 991 1019 1311 708 
Q 1631 397 2203 397 
Q 2534 397 2845 478 
Q 3156 559 3463 722 
L 3463 178 
Q 3153 47 2828 -22 
Q 2503 -91 2169 -91 
Q 1331 -91 842 396 
Q 353 884 353 1716 
Q 353 2575 817 3079 
Q 1281 3584 2069 3584 
Q 2775 3584 3186 3129 
Q 3597 2675 3597 1894 
z
M 3022 2063 
Q 3016 2534 2758 2815 
Q 2500 3097 2075 3097 
Q 1594 3097 1305 2825 
Q 1016 2553 972 2059 
L 3022 2063 
z
" transform="scale(0.015625)"/>
       <path id="DejaVuSans-2c" d="M 750 794 
L 1409 794 
L 1409 256 
L 897 -744 
L 494 -744 
L 750 256 
L 750 794 
z
" transform="scale(0.015625)"/>
       <path id="DejaVuSans-20" transform="scale(0.015625)"/>
       <path id="DejaVuSans-28" d="M 1984 4856 
Q 1566 4138 1362 3434 
Q 1159 2731 1159 2009 
Q 1159 1288 1364 580 
Q 1569 -128 1984 -844 
L 1484 -844 
Q 1016 -109 783 600 
Q 550 1309 550 2009 
Q 550 2706 781 3412 
Q 1013 4119 1484 4856 
L 1984 4856 
z
" transform="scale(0.015625)"/>
       <path id="DejaVuSans-75" d="M 544 1381 
L 544 3500 
L 1119 3500 
L 1119 1403 
Q 1119 906 1312 657 
Q 1506 409 1894 409 
Q 2359 409 2629 706 
Q 2900 1003 2900 1516 
L 2900 3500 
L 3475 3500 
L 3475 0 
L 2900 0 
L 2900 538 
Q 2691 219 2414 64 
Q 2138 -91 1772 -91 
Q 1169 -91 856 284 
Q 544 659 544 1381 
z
M 1991 3584 
L 1991 3584 
z
" transform="scale(0.015625)"/>
       <path id="DejaVuSans-73" d="M 2834 3397 
L 2834 2853 
Q 2591 2978 2328 3040 
Q 2066 3103 1784 3103 
Q 1356 3103 1142 2972 
Q 928 2841 928 2578 
Q 928 2378 1081 2264 
Q 1234 2150 1697 2047 
L 1894 2003 
Q 2506 1872 2764 1633 
Q 3022 1394 3022 966 
Q 3022 478 2636 193 
Q 2250 -91 1575 -91 
Q 1294 -91 989 -36 
Q 684 19 347 128 
L 347 722 
Q 666 556 975 473 
Q 1284 391 1588 391 
Q 1994 391 2212 530 
Q 2431 669 2431 922 
Q 2431 1156 2273 1281 
Q 2116 1406 1581 1522 
L 1381 1569 
Q 847 1681 609 1914 
Q 372 2147 372 2553 
Q 372 3047 722 3315 
Q 1072 3584 1716 3584 
Q 2034 3584 2315 3537 
Q 2597 3491 2834 3397 
z
" transform="scale(0.015625)"/>
       <path id="DejaVuSans-29" d="M 513 4856 
L 1013 4856 
Q 1481 4119 1714 3412 
Q 1947 2706 1947 2009 
Q 1947 1309 1714 600 
Q 1481 -109 1013 -844 
L 513 -844 
Q 928 -128 1133 580 
Q 1338 1288 1338 2009 
Q 1338 2731 1133 3434 
Q 928 4138 513 4856 
z
" transform="scale(0.015625)"/>
      </defs>
      <use xlink:href="#DejaVuSans-74"/>
      <use xlink:href="#DejaVuSans-69" transform="translate(39.208984 0)"/>
      <use xlink:href="#DejaVuSans-6d" transform="translate(66.992188 0)"/>
      <use xlink:href="#DejaVuSans-65" transform="translate(164.404297 0)"/>
      <use xlink:href="#DejaVuSans-2c" transform="translate(225.927734 0)"/>
      <use xlink:href="#DejaVuSans-20" transform="translate(257.714844 0)"/>
      <use xlink:href="#DejaVuSans-74" transform="translate(289.501953 0)"/>
      <use xlink:href="#DejaVuSans-20" transform="translate(328.710938 0)"/>
      <use xlink:href="#DejaVuSans-28" transform="translate(360.498047 0)"/>
      <use xlink:href="#DejaVuSans-75" transform="translate(399.511719 0)"/>
      <use xlink:href="#DejaVuSans-73" transform="translate(462.890625 0)"/>
      <use xlink:href="#DejaVuSans-29" transform="translate(514.990234 0)"/>
     </g>
    </g>
    <g id="text_11">
     <!-- 1e6 -->
     <g transform="translate(427.0375 327.074688) scale(0.1 -0.1)">
      <defs>
       <path id="DejaVuSans-36" d="M 2113 2584 
Q 1688 2584 1439 2293 
Q 1191 2003 1191 1497 
Q 1191 994 1439 701 
Q 1688 409 2113 409 
Q 2538 409 2786 701 
Q 3034 994 3034 1497 
Q 3034 2003 2786 2293 
Q 2538 2584 2113 2584 
z
M 3366 4563 
L 3366 3988 
Q 3128 4100 2886 4159 
Q 2644 4219 2406 4219 
Q 1781 4219 1451 3797 
Q 1122 3375 1075 2522 
Q 1259 2794 1537 2939 
Q 1816 3084 2150 3084 
Q 2853 3084 3261 2657 
Q 3669 2231 3669 1497 
Q 3669 778 3244 343 
Q 2819 -91 2113 -91 
Q 1303 -91 875 529 
Q 447 1150 447 2328 
Q 447 3434 972 4092 
Q 1497 4750 2381 4750 
Q 2619 4750 2861 4703 
Q 3103 4656 3366 4563 
z
" transform="scale(0.015625)"/>
      </defs>
      <use xlink:href="#DejaVuSans-31"/>
      <use xlink:href="#DejaVuSans-65" transform="translate(63.623047 0)"/>
      <use xlink:href="#DejaVuSans-36" transform="translate(125.146484 0)"/>
     </g>
    </g>
   </g>
   <g id="matplotlib.axis_2">
    <g id="ytick_1">
     <g id="line2d_10">
      <defs>
       <path id="mccb349f63c" d="M 0 0 
L -3.5 0 
" style="stroke: #000000; stroke-width: 0.8"/>
      </defs>
      <g>
       <use xlink:href="#mccb349f63c" x="46.965625" y="287.185398" style="stroke: #000000; stroke-width: 0.8"/>
      </g>
     </g>
     <g id="text_12">
      <!-- 0 -->
      <g transform="translate(33.603125 290.984616) scale(0.1 -0.1)">
       <use xlink:href="#DejaVuSans-30"/>
      </g>
     </g>
    </g>
    <g id="ytick_2">
     <g id="line2d_11">
      <g>
       <use xlink:href="#mccb349f63c" x="46.965625" y="252.724394" style="stroke: #000000; stroke-width: 0.8"/>
      </g>
     </g>
     <g id="text_13">
      <!-- 100 -->
      <g transform="translate(20.878125 256.523613) scale(0.1 -0.1)">
       <use xlink:href="#DejaVuSans-31"/>
       <use xlink:href="#DejaVuSans-30" transform="translate(63.623047 0)"/>
       <use xlink:href="#DejaVuSans-30" transform="translate(127.246094 0)"/>
      </g>
     </g>
    </g>
    <g id="ytick_3">
     <g id="line2d_12">
      <g>
       <use xlink:href="#mccb349f63c" x="46.965625" y="218.263391" style="stroke: #000000; stroke-width: 0.8"/>
      </g>
     </g>
     <g id="text_14">
      <!-- 200 -->
      <g transform="translate(20.878125 222.06261) scale(0.1 -0.1)">
       <use xlink:href="#DejaVuSans-32"/>
       <use xlink:href="#DejaVuSans-30" transform="translate(63.623047 0)"/>
       <use xlink:href="#DejaVuSans-30" transform="translate(127.246094 0)"/>
      </g>
     </g>
    </g>
    <g id="ytick_4">
     <g id="line2d_13">
      <g>
       <use xlink:href="#mccb349f63c" x="46.965625" y="183.802387" style="stroke: #000000; stroke-width: 0.8"/>
      </g>
     </g>
     <g id="text_15">
      <!-- 300 -->
      <g transform="translate(20.878125 187.601606) scale(0.1 -0.1)">
       <defs>
        <path id="DejaVuSans-33" d="M 2597 2516 
Q 3050 2419 3304 2112 
Q 3559 1806 3559 1356 
Q 3559 666 3084 287 
Q 2609 -91 1734 -91 
Q 1441 -91 1130 -33 
Q 819 25 488 141 
L 488 750 
Q 750 597 1062 519 
Q 1375 441 1716 441 
Q 2309 441 2620 675 
Q 2931 909 2931 1356 
Q 2931 1769 2642 2001 
Q 2353 2234 1838 2234 
L 1294 2234 
L 1294 2753 
L 1863 2753 
Q 2328 2753 2575 2939 
Q 2822 3125 2822 3475 
Q 2822 3834 2567 4026 
Q 2313 4219 1838 4219 
Q 1578 4219 1281 4162 
Q 984 4106 628 3988 
L 628 4550 
Q 988 4650 1302 4700 
Q 1616 4750 1894 4750 
Q 2613 4750 3031 4423 
Q 3450 4097 3450 3541 
Q 3450 3153 3228 2886 
Q 3006 2619 2597 2516 
z
" transform="scale(0.015625)"/>
       </defs>
       <use xlink:href="#DejaVuSans-33"/>
       <use xlink:href="#DejaVuSans-30" transform="translate(63.623047 0)"/>
       <use xlink:href="#DejaVuSans-30" transform="translate(127.246094 0)"/>
      </g>
     </g>
    </g>
    <g id="ytick_5">
     <g id="line2d_14">
      <g>
       <use xlink:href="#mccb349f63c" x="46.965625" y="149.341384" style="stroke: #000000; stroke-width: 0.8"/>
      </g>
     </g>
     <g id="text_16">
      <!-- 400 -->
      <g transform="translate(20.878125 153.140603) scale(0.1 -0.1)">
       <defs>
        <path id="DejaVuSans-34" d="M 2419 4116 
L 825 1625 
L 2419 1625 
L 2419 4116 
z
M 2253 4666 
L 3047 4666 
L 3047 1625 
L 3713 1625 
L 3713 1100 
L 3047 1100 
L 3047 0 
L 2419 0 
L 2419 1100 
L 313 1100 
L 313 1709 
L 2253 4666 
z
" transform="scale(0.015625)"/>
       </defs>
       <use xlink:href="#DejaVuSans-34"/>
       <use xlink:href="#DejaVuSans-30" transform="translate(63.623047 0)"/>
       <use xlink:href="#DejaVuSans-30" transform="translate(127.246094 0)"/>
      </g>
     </g>
    </g>
    <g id="ytick_6">
     <g id="line2d_15">
      <g>
       <use xlink:href="#mccb349f63c" x="46.965625" y="114.88038" style="stroke: #000000; stroke-width: 0.8"/>
      </g>
     </g>
     <g id="text_17">
      <!-- 500 -->
      <g transform="translate(20.878125 118.679599) scale(0.1 -0.1)">
       <use xlink:href="#DejaVuSans-35"/>
       <use xlink:href="#DejaVuSans-30" transform="translate(63.623047 0)"/>
       <use xlink:href="#DejaVuSans-30" transform="translate(127.246094 0)"/>
      </g>
     </g>
    </g>
    <g id="ytick_7">
     <g id="line2d_16">
      <g>
       <use xlink:href="#mccb349f63c" x="46.965625" y="80.419377" style="stroke: #000000; stroke-width: 0.8"/>
      </g>
     </g>
     <g id="text_18">
      <!-- 600 -->
      <g transform="translate(20.878125 84.218596) scale(0.1 -0.1)">
       <use xlink:href="#DejaVuSans-36"/>
       <use xlink:href="#DejaVuSans-30" transform="translate(63.623047 0)"/>
       <use xlink:href="#DejaVuSans-30" transform="translate(127.246094 0)"/>
      </g>
     </g>
    </g>
    <g id="ytick_8">
     <g id="line2d_17">
      <g>
       <use xlink:href="#mccb349f63c" x="46.965625" y="45.958373" style="stroke: #000000; stroke-width: 0.8"/>
      </g>
     </g>
     <g id="text_19">
      <!-- 700 -->
      <g transform="translate(20.878125 49.757592) scale(0.1 -0.1)">
       <use xlink:href="#DejaVuSans-37"/>
       <use xlink:href="#DejaVuSans-30" transform="translate(63.623047 0)"/>
       <use xlink:href="#DejaVuSans-30" transform="translate(127.246094 0)"/>
      </g>
     </g>
    </g>
    <g id="text_20">
     <!-- right wheel velocity, rv (mm/s) -->
     <g transform="translate(14.798438 238.039375) rotate(-90) scale(0.1 -0.1)">
      <defs>
       <path id="DejaVuSans-72" d="M 2631 2963 
Q 2534 3019 2420 3045 
Q 2306 3072 2169 3072 
Q 1681 3072 1420 2755 
Q 1159 2438 1159 1844 
L 1159 0 
L 581 0 
L 581 3500 
L 1159 3500 
L 1159 2956 
Q 1341 3275 1631 3429 
Q 1922 3584 2338 3584 
Q 2397 3584 2469 3576 
Q 2541 3569 2628 3553 
L 2631 2963 
z
" transform="scale(0.015625)"/>
       <path id="DejaVuSans-67" d="M 2906 1791 
Q 2906 2416 2648 2759 
Q 2391 3103 1925 3103 
Q 1463 3103 1205 2759 
Q 947 2416 947 1791 
Q 947 1169 1205 825 
Q 1463 481 1925 481 
Q 2391 481 2648 825 
Q 2906 1169 2906 1791 
z
M 3481 434 
Q 3481 -459 3084 -895 
Q 2688 -1331 1869 -1331 
Q 1566 -1331 1297 -1286 
Q 1028 -1241 775 -1147 
L 775 -588 
Q 1028 -725 1275 -790 
Q 1522 -856 1778 -856 
Q 2344 -856 2625 -561 
Q 2906 -266 2906 331 
L 2906 616 
Q 2728 306 2450 153 
Q 2172 0 1784 0 
Q 1141 0 747 490 
Q 353 981 353 1791 
Q 353 2603 747 3093 
Q 1141 3584 1784 3584 
Q 2172 3584 2450 3431 
Q 2728 3278 2906 2969 
L 2906 3500 
L 3481 3500 
L 3481 434 
z
" transform="scale(0.015625)"/>
       <path id="DejaVuSans-68" d="M 3513 2113 
L 3513 0 
L 2938 0 
L 2938 2094 
Q 2938 2591 2744 2837 
Q 2550 3084 2163 3084 
Q 1697 3084 1428 2787 
Q 1159 2491 1159 1978 
L 1159 0 
L 581 0 
L 581 4863 
L 1159 4863 
L 1159 2956 
Q 1366 3272 1645 3428 
Q 1925 3584 2291 3584 
Q 2894 3584 3203 3211 
Q 3513 2838 3513 2113 
z
" transform="scale(0.015625)"/>
       <path id="DejaVuSans-77" d="M 269 3500 
L 844 3500 
L 1563 769 
L 2278 3500 
L 2956 3500 
L 3675 769 
L 4391 3500 
L 4966 3500 
L 4050 0 
L 3372 0 
L 2619 2869 
L 1863 0 
L 1184 0 
L 269 3500 
z
" transform="scale(0.015625)"/>
       <path id="DejaVuSans-6c" d="M 603 4863 
L 1178 4863 
L 1178 0 
L 603 0 
L 603 4863 
z
" transform="scale(0.015625)"/>
       <path id="DejaVuSans-76" d="M 191 3500 
L 800 3500 
L 1894 563 
L 2988 3500 
L 3597 3500 
L 2284 0 
L 1503 0 
L 191 3500 
z
" transform="scale(0.015625)"/>
       <path id="DejaVuSans-6f" d="M 1959 3097 
Q 1497 3097 1228 2736 
Q 959 2375 959 1747 
Q 959 1119 1226 758 
Q 1494 397 1959 397 
Q 2419 397 2687 759 
Q 2956 1122 2956 1747 
Q 2956 2369 2687 2733 
Q 2419 3097 1959 3097 
z
M 1959 3584 
Q 2709 3584 3137 3096 
Q 3566 2609 3566 1747 
Q 3566 888 3137 398 
Q 2709 -91 1959 -91 
Q 1206 -91 779 398 
Q 353 888 353 1747 
Q 353 2609 779 3096 
Q 1206 3584 1959 3584 
z
" transform="scale(0.015625)"/>
       <path id="DejaVuSans-63" d="M 3122 3366 
L 3122 2828 
Q 2878 2963 2633 3030 
Q 2388 3097 2138 3097 
Q 1578 3097 1268 2742 
Q 959 2388 959 1747 
Q 959 1106 1268 751 
Q 1578 397 2138 397 
Q 2388 397 2633 464 
Q 2878 531 3122 666 
L 3122 134 
Q 2881 22 2623 -34 
Q 2366 -91 2075 -91 
Q 1284 -91 818 406 
Q 353 903 353 1747 
Q 353 2603 823 3093 
Q 1294 3584 2113 3584 
Q 2378 3584 2631 3529 
Q 2884 3475 3122 3366 
z
" transform="scale(0.015625)"/>
       <path id="DejaVuSans-79" d="M 2059 -325 
Q 1816 -950 1584 -1140 
Q 1353 -1331 966 -1331 
L 506 -1331 
L 506 -850 
L 844 -850 
Q 1081 -850 1212 -737 
Q 1344 -625 1503 -206 
L 1606 56 
L 191 3500 
L 800 3500 
L 1894 763 
L 2988 3500 
L 3597 3500 
L 2059 -325 
z
" transform="scale(0.015625)"/>
       <path id="DejaVuSans-2f" d="M 1625 4666 
L 2156 4666 
L 531 -594 
L 0 -594 
L 1625 4666 
z
" transform="scale(0.015625)"/>
      </defs>
      <use xlink:href="#DejaVuSans-72"/>
      <use xlink:href="#DejaVuSans-69" transform="translate(41.113281 0)"/>
      <use xlink:href="#DejaVuSans-67" transform="translate(68.896484 0)"/>
      <use xlink:href="#DejaVuSans-68" transform="translate(132.373047 0)"/>
      <use xlink:href="#DejaVuSans-74" transform="translate(195.751953 0)"/>
      <use xlink:href="#DejaVuSans-20" transform="translate(234.960938 0)"/>
      <use xlink:href="#DejaVuSans-77" transform="translate(266.748047 0)"/>
      <use xlink:href="#DejaVuSans-68" transform="translate(348.535156 0)"/>
      <use xlink:href="#DejaVuSans-65" transform="translate(411.914062 0)"/>
      <use xlink:href="#DejaVuSans-65" transform="translate(473.4375 0)"/>
      <use xlink:href="#DejaVuSans-6c" transform="translate(534.960938 0)"/>
      <use xlink:href="#DejaVuSans-20" transform="translate(562.744141 0)"/>
      <use xlink:href="#DejaVuSans-76" transform="translate(594.53125 0)"/>
      <use xlink:href="#DejaVuSans-65" transform="translate(653.710938 0)"/>
      <use xlink:href="#DejaVuSans-6c" transform="translate(715.234375 0)"/>
      <use xlink:href="#DejaVuSans-6f" transform="translate(743.017578 0)"/>
      <use xlink:href="#DejaVuSans-63" transform="translate(804.199219 0)"/>
      <use xlink:href="#DejaVuSans-69" transform="translate(859.179688 0)"/>
      <use xlink:href="#DejaVuSans-74" transform="translate(886.962891 0)"/>
      <use xlink:href="#DejaVuSans-79" transform="translate(926.171875 0)"/>
      <use xlink:href="#DejaVuSans-2c" transform="translate(985.351562 0)"/>
      <use xlink:href="#DejaVuSans-20" transform="translate(1017.138672 0)"/>
      <use xlink:href="#DejaVuSans-72" transform="translate(1048.925781 0)"/>
      <use xlink:href="#DejaVuSans-76" transform="translate(1090.039062 0)"/>
      <use xlink:href="#DejaVuSans-20" transform="translate(1149.21875 0)"/>
      <use xlink:href="#DejaVuSans-28" transform="translate(1181.005859 0)"/>
      <use xlink:href="#DejaVuSans-6d" transform="translate(1220.019531 0)"/>
      <use xlink:href="#DejaVuSans-6d" transform="translate(1317.431641 0)"/>
      <use xlink:href="#DejaVuSans-2f" transform="translate(1414.84375 0)"/>
      <use xlink:href="#DejaVuSans-73" transform="translate(1448.535156 0)"/>
      <use xlink:href="#DejaVuSans-29" transform="translate(1500.634766 0)"/>
     </g>
    </g>
   </g>
   <g id="line2d_18">
    <path d="M 65.10026 287.185398 
L 67.973255 240.663043 
L 71.929543 161.747345 
L 75.947708 103.852859 
L 78.889656 69.391856 
L 82.864453 51.472134 
L 86.792252 36.309292 
L 89.787186 34.930852 
L 93.823133 38.376953 
L 97.736053 47.681424 
L 100.816997 54.573624 
L 104.774555 60.087385 
L 107.770214 57.330505 
L 111.791282 56.641284 
L 115.7512 57.675115 
L 118.814724 59.398165 
L 122.7721 57.675115 
L 126.731473 62.499655 
L 129.788283 68.358026 
L 133.746204 69.736466 
L 136.825878 72.837956 
L 140.768375 76.284056 
L 144.726841 74.561006 
L 147.798893 78.696327 
L 151.755544 79.385547 
L 155.79875 79.040937 
L 158.793502 82.831647 
L 162.749971 81.797817 
L 166.785737 81.108597 
L 169.780852 79.730157 
L 173.806638 82.831647 
L 176.80139 82.831647 
L 180.742073 81.108597 
L 184.777476 83.520867 
L 187.771683 79.730157 
L 191.796743 82.831647 
L 195.75412 84.210087 
L 198.749235 79.730157 
L 202.782279 83.176257 
L 205.77685 82.831647 
L 209.818241 85.933137 
L 213.775799 84.210087 
L 216.770188 82.831647 
L 220.802869 80.763987 
L 224.75952 84.210087 
L 227.838105 82.142427 
L 231.792942 84.210087 
L 234.787149 82.831647 
L 238.820738 83.176257 
L 242.777026 81.797817 
L 245.856155 82.142427 
L 249.810447 81.797817 
L 253.795405 83.176257 
L 256.880341 82.487037 
L 260.863303 83.176257 
L 263.970558 81.108597 
L 267.955334 83.176257 
L 271.939385 85.588527 
L 275.025591 82.831647 
L 279.008009 80.763987 
L 282.115082 81.108597 
L 286.0975 83.176257 
L 290.081007 83.176257 
L 293.180096 83.520867 
L 297.161969 83.176257 
L 300.26868 84.210087 
L 304.249827 83.176257 
L 308.232971 80.763987 
L 311.331879 83.520867 
L 315.283812 81.453207 
L 318.390522 81.108597 
L 322.372033 85.588527 
L 326.341749 80.074767 
L 329.440294 80.419377 
L 333.421078 83.176257 
L 336.526882 81.108597 
L 340.507848 83.176257 
L 344.490084 83.176257 
L 347.588447 83.520867 
L 351.568325 82.831647 
L 354.661789 83.176257 
L 358.641848 82.831647 
L 362.62354 83.176257 
L 365.693233 84.899307 
L 369.672748 80.419377 
L 372.778369 83.865477 
L 376.757702 80.419377 
L 380.738124 83.176257 
L 383.836125 83.520867 
L 387.814732 80.419377 
L 390.920172 80.763987 
L 394.899324 82.831647 
L 398.879745 83.176257 
L 401.977383 83.520867 
L 405.942381 82.142427 
L 409.047458 83.865477 
L 413.010279 82.142427 
L 416.990156 82.831647 
L 420.08725 80.419377 
L 424.049163 82.142427 
L 427.15424 83.865477 
" clip-path="url(#p6fad47fa9b)" style="fill: none; stroke: #1f77b4; stroke-width: 1.5; stroke-linecap: square"/>
   </g>
   <g id="line2d_19">
    <path d="M 65.100442 287.185398 
L 68.948582 232.392402 
L 72.029889 150.719824 
L 75.99906 101.785199 
L 78.968227 74.561006 
L 82.952822 59.398165 
L 86.876811 72.837956 
L 89.961928 85.933137 
L 93.9311 87.311578 
L 97.88648 86.622357 
L 100.965065 91.446898 
L 104.934418 92.136118 
L 108.020805 89.034628 
L 111.975097 91.446898 
L 115.946265 94.548388 
L 119.02485 97.649879 
L 122.992932 99.372929 
L 126.078594 101.440589 
L 130.047403 101.785199 
L 134.0173 106.60974 
L 137.094796 106.95435 
L 141.063423 106.60974 
L 145.102999 109.71123 
L 148.102469 111.77889 
L 152.03916 112.46811 
L 155.117382 113.15733 
L 159.086009 106.60974 
L 163.139921 110.40045 
L 166.139753 115.22499 
L 170.10711 111.43428 
L 174.153582 107.64357 
L 177.153233 108.6774 
L 181.205149 110.40045 
L 184.204982 115.22499 
L 188.173427 109.02201 
L 192.219536 112.46811 
L 195.219188 115.22499 
L 199.270922 110.05584 
L 203.23973 111.43428 
L 206.238656 111.77889 
L 210.28295 112.1235 
L 213.282783 111.77889 
L 217.335243 110.40045 
L 221.271571 110.05584 
L 224.270859 111.77889 
L 228.313883 116.948041 
L 232.265272 113.15733 
L 235.349663 110.40045 
L 239.315024 111.08967 
L 242.298163 111.08967 
L 246.342094 110.05584 
L 250.325238 112.1235 
L 253.438662 112.1235 
L 257.432512 110.05584 
L 260.460107 110.40045 
L 264.531257 111.08967 
L 268.526195 114.88038 
L 271.625466 111.43428 
L 275.61859 112.46811 
L 278.632758 112.81272 
L 282.67179 112.1235 
L 286.666184 112.46811 
L 289.779064 109.02201 
L 293.772006 110.05584 
L 296.799057 113.50194 
L 300.82448 111.43428 
L 304.818692 112.46811 
L 307.929576 112.1235 
L 311.921067 112.46811 
L 314.947755 113.50194 
L 319.016909 111.08967 
L 322.043779 110.40045 
L 326.120554 111.43428 
L 330.113859 110.05584 
L 333.139458 113.50194 
L 337.207342 108.6774 
L 340.23403 110.40045 
L 344.308991 113.50194 
L 348.286328 111.77889 
L 351.299407 112.81272 
L 355.367109 111.08967 
L 358.392527 110.40045 
L 362.467669 115.91421 
L 366.460793 110.05584 
L 369.486937 110.40045 
L 373.55355 113.15733 
L 376.580057 110.40045 
L 380.654654 113.50194 
L 384.646145 114.88038 
L 387.671926 113.50194 
L 391.725656 110.40045 
L 394.750893 110.05584 
L 398.825853 111.08967 
L 402.817162 110.05584 
L 405.841854 110.05584 
L 409.89504 112.46811 
L 412.905216 109.36662 
L 416.979088 111.08967 
L 420.970034 112.46811 
L 423.99527 113.50194 
" clip-path="url(#p6fad47fa9b)" style="fill: none; stroke: #ff7f0e; stroke-width: 1.5; stroke-linecap: square"/>
   </g>
   <g id="line2d_20">
    <path d="M 65.100079 287.185398 
L 68.942775 232.392402 
L 73.009933 141.415353 
L 75.985269 100.751369 
L 79.933573 93.514558 
L 83.961355 111.43428 
L 86.968265 128.320172 
L 91.033608 124.874071 
L 94.040336 125.218681 
L 98.021484 123.840241 
L 102.064326 128.664782 
L 105.070147 128.320172 
L 109.134402 124.874071 
L 113.115368 126.252511 
L 116.121189 131.421662 
L 120.177459 134.178542 
L 123.183098 131.421662 
L 127.248623 134.523152 
L 131.229952 138.313863 
L 134.235592 137.624643 
L 138.292225 138.658473 
L 141.298046 137.624643 
L 145.3623 139.003083 
L 149.326935 140.036913 
L 152.332575 137.624643 
L 156.388482 141.070743 
L 159.394122 144.172233 
L 163.457287 139.003083 
L 167.436983 140.726133 
L 170.442623 144.172233 
L 174.497441 138.658473 
L 177.502718 134.523152 
L 181.564976 141.415353 
L 185.544672 143.138403 
L 188.549586 137.624643 
L 192.604768 141.070743 
L 196.584101 143.138403 
L 199.673936 138.658473 
L 203.635123 140.036913 
L 206.639855 140.726133 
L 210.695763 143.483013 
L 214.674914 140.726133 
L 217.765294 138.658473 
L 221.741542 140.726133 
L 224.746637 140.726133 
L 228.80073 141.070743 
L 232.778974 140.726133 
L 235.868446 141.759963 
L 239.844332 140.381523 
L 242.849245 140.726133 
L 246.902975 141.070743 
L 250.909164 141.759963 
L 254.014241 142.449183 
L 258.019159 143.827623 
L 261.053106 142.449183 
L 265.135325 137.280033 
L 269.141876 141.759963 
L 272.2602 143.138403 
L 276.264937 136.935423 
L 279.298702 139.003083 
L 283.380195 142.104573 
L 286.413597 139.003083 
L 290.503618 142.449183 
L 294.509625 139.347693 
L 297.542483 142.104573 
L 301.623068 142.104573 
L 304.655563 139.003083 
L 308.744133 142.104573 
L 311.776628 142.104573 
L 315.78082 141.415353 
L 319.849611 139.347693 
L 322.88265 139.003083 
L 326.970131 142.104573 
L 330.002808 142.104573 
L 334.005367 139.003083 
L 338.087767 142.104573 
L 341.119899 142.104573 
L 345.206836 142.104573 
L 348.238786 142.104573 
L 352.22574 141.070743 
L 355.320112 139.003083 
L 359.322671 141.415353 
L 363.410334 142.104573 
L 366.429038 138.313863 
L 370.401475 140.381523 
L 373.496936 142.104573 
L 377.498043 139.003083 
L 381.570645 141.759963 
L 384.602414 139.003083 
L 388.603159 141.415353 
L 391.711684 142.793793 
L 395.712429 141.415353 
L 399.79991 142.104573 
L 402.83059 142.104573 
L 406.830246 139.003083 
L 409.938952 139.692303 
L 413.939697 141.415353 
L 417.055118 143.138403 
L 421.055681 141.415353 
L 425.057152 139.003083 
" clip-path="url(#p6fad47fa9b)" style="fill: none; stroke: #2ca02c; stroke-width: 1.5; stroke-linecap: square"/>
   </g>
   <g id="line2d_21">
    <path d="M 65.099716 287.185398 
L 68.971445 230.324742 
L 71.983436 153.821314 
L 76.054223 129.698612 
L 80.048072 148.307554 
L 83.081656 164.504225 
L 87.072965 162.781175 
L 90.085137 157.267415 
L 94.153928 153.476704 
L 98.132172 155.199754 
L 101.212027 156.922805 
L 105.20261 157.956635 
L 108.214056 160.368905 
L 112.281758 160.368905 
L 116.258007 166.916496 
L 119.306833 167.950326 
L 123.296871 165.193445 
L 126.308136 163.470395 
L 130.375294 167.261106 
L 134.366603 170.017986 
L 137.462426 170.017986 
L 141.452283 167.605716 
L 144.463548 169.673376 
L 148.530524 169.673376 
L 152.521833 172.430256 
L 155.617294 170.017986 
L 159.606244 167.261106 
L 162.601722 172.430256 
L 166.651823 169.328766 
L 170.642224 167.605716 
L 173.737322 173.119476 
L 177.726635 167.261106 
L 180.738262 169.673376 
L 184.803968 172.085646 
L 188.794189 170.017986 
L 191.889286 170.017986 
L 195.861179 171.741036 
L 198.871718 169.673376 
L 202.937243 172.085646 
L 206.926556 169.673376 
L 210.021653 173.119476 
L 214.009515 167.261106 
L 217.983404 171.741036 
L 221.071061 172.774866 
L 225.058197 164.848835 
L 228.152931 170.017986 
L 232.140793 167.261106 
L 236.130106 172.085646 
L 239.217764 172.774866 
L 243.204536 167.261106 
L 246.299452 170.017986 
L 250.28568 172.085646 
L 253.324708 170.707206 
L 257.406019 167.950326 
L 261.423639 170.707206 
L 264.547588 171.051816 
L 268.562305 172.774866 
L 271.60097 167.605716 
L 275.693531 170.362596 
L 278.732377 170.707206 
L 282.833467 168.294936 
L 286.849999 170.707206 
L 289.888663 170.707206 
L 293.980862 170.362596 
L 297.019163 170.707206 
L 301.105737 170.362596 
L 304.14422 170.707206 
L 308.159481 170.707206 
L 312.252587 170.362596 
L 315.291615 170.707206 
L 319.391072 170.707206 
L 322.415945 170.362596 
L 326.429936 170.362596 
L 329.532473 170.017986 
L 333.531767 170.017986 
L 337.631949 170.707206 
L 340.670251 167.605716 
L 344.682972 170.362596 
L 347.798574 170.707206 
L 351.811476 168.294936 
L 354.934518 171.051816 
L 358.947964 170.362596 
L 362.9625 170.707206 
L 366.048524 169.673376 
L 370.060338 170.362596 
L 373.153258 169.673376 
L 377.150192 170.017986 
L 381.163276 170.362596 
L 384.27797 167.605716 
L 388.290147 172.774866 
L 391.4121 171.051816 
L 395.424458 167.950326 
L 399.422118 170.017986 
L 402.536449 173.808696 
L 406.531751 167.605716 
L 409.653341 170.707206 
L 413.664428 170.362596 
L 416.70146 170.707206 
L 420.777509 170.017986 
L 424.790593 170.362596 
" clip-path="url(#p6fad47fa9b)" style="fill: none; stroke: #d62728; stroke-width: 1.5; stroke-linecap: square"/>
   </g>
   <g id="line2d_22">
    <path d="M 65.102075 287.185398 
L 67.986139 247.210634 
L 71.975089 174.497916 
L 75.07073 157.612025 
L 79.074742 194.140688 
L 83.164581 209.99275 
L 86.214133 196.208349 
L 90.200724 184.146997 
L 93.296366 185.525437 
L 97.298925 191.728418 
L 100.400374 191.728418 
L 104.388235 191.383808 
L 108.392428 191.728418 
L 111.486073 191.383808 
L 115.472302 198.620619 
L 118.57375 194.829908 
L 122.575402 196.552959 
L 126.578687 198.965229 
L 129.656728 197.242179 
L 133.658017 198.965229 
L 136.743497 200.688279 
L 140.728455 201.032889 
L 144.731014 198.965229 
L 147.825204 200.688279 
L 151.826131 198.965229 
L 154.927216 194.829908 
L 158.927416 201.377499 
L 162.929976 198.965229 
L 166.007653 197.242179 
L 170.007128 198.965229 
L 173.09279 200.688279 
L 177.076659 201.032889 
L 181.062161 198.620619 
L 184.15617 197.586789 
L 188.154919 198.965229 
L 191.255823 201.032889 
L 195.22318 198.276009 
L 199.223924 198.965229 
L 202.316663 197.586789 
L 206.299625 203.100549 
L 209.383835 197.242179 
L 213.382402 201.032889 
L 217.382603 198.965229 
L 220.475522 200.688279 
L 224.45794 198.620619 
L 227.558118 201.032889 
L 231.540717 198.620619 
L 235.524768 198.620619 
L 238.601901 200.343669 
L 242.56817 200.343669 
L 245.668711 197.931399 
L 249.650403 198.276009 
L 253.664212 201.377499 
L 256.785802 201.377499 
L 260.811769 196.897569 
L 263.940617 198.620619 
L 267.966222 201.722109 
L 270.995088 198.965229 
L 275.084383 198.276009 
L 279.113072 199.309839 
L 282.241557 198.620619 
L 286.266617 201.722109 
L 289.310362 202.411329 
L 293.413086 201.032889 
L 296.456105 199.309839 
L 300.567175 196.552959 
L 303.610376 199.309839 
L 307.636888 199.309839 
L 311.741244 198.620619 
L 314.784626 199.309839 
L 318.894245 201.032889 
L 321.937627 199.309839 
L 325.962324 199.309839 
L 329.067764 197.931399 
L 333.09355 199.309839 
L 337.20462 198.965229 
L 340.232397 198.965229 
L 344.255824 199.309839 
L 347.376688 198.276009 
L 351.400478 199.309839 
L 354.527693 198.620619 
L 358.553479 201.722109 
L 362.565474 198.965229 
L 365.685249 198.276009 
L 369.708495 196.897569 
L 372.836435 201.722109 
L 376.860407 201.722109 
L 379.903063 196.208349 
L 384.005242 201.032889 
L 387.047717 199.309839 
L 391.156428 198.965229 
L 395.181125 199.309839 
L 398.223963 199.309839 
L 402.323964 201.032889 
L 405.366802 199.309839 
L 409.460634 201.032889 
L 412.502565 196.208349 
L 416.525992 199.309839 
L 420.611839 200.688279 
L 423.653407 199.309839 
L 427.759941 198.965229 
" clip-path="url(#p6fad47fa9b)" style="fill: none; stroke: #9467bd; stroke-width: 1.5; stroke-linecap: square"/>
   </g>
   <g id="line2d_23">
    <path d="M 65.102075 287.185398 
L 68.043842 251.345954 
L 72.04259 213.09424 
L 75.143313 213.43885 
L 79.156941 229.980132 
L 82.265466 228.946302 
L 86.280365 215.851121 
L 90.312683 218.608001 
L 93.44643 229.290912 
L 97.491995 223.432541 
L 100.616125 223.087931 
L 104.629027 225.500202 
L 107.651724 227.223252 
L 111.742834 226.534032 
L 115.74122 225.155591 
L 118.848293 228.946302 
L 122.860469 227.567862 
L 125.883166 227.223252 
L 129.941795 228.257082 
L 133.955786 229.980132 
L 137.047799 228.601692 
L 141.059612 229.980132 
L 144.081946 227.223252 
L 148.171423 226.534032 
L 151.193937 230.324742 
L 155.291398 228.946302 
L 159.304664 227.912472 
L 162.326634 227.223252 
L 166.39978 228.601692 
L 169.42175 230.324742 
L 173.518123 228.946302 
L 177.531388 227.912472 
L 180.553177 230.324742 
L 184.625778 226.189422 
L 187.648112 230.324742 
L 191.743758 228.946302 
L 194.765729 230.324742 
L 198.777179 227.567862 
L 202.867019 228.946302 
L 205.873022 229.980132 
L 209.968124 228.946302 
L 212.989368 227.223252 
L 216.999186 229.980132 
L 221.088663 226.534032 
L 224.110089 230.324742 
L 228.187771 228.601692 
L 231.193048 229.980132 
L 235.202321 227.567862 
L 238.300321 228.601692 
L 242.311046 227.567862 
L 246.406693 228.946302 
L 249.456063 231.013962 
L 253.478946 227.912472 
L 256.606886 229.290912 
L 260.644285 228.257082 
L 263.77894 229.290912 
L 267.817791 230.324742 
L 271.857549 228.257082 
L 274.984401 226.189422 
L 279.021981 230.324742 
L 282.156636 229.290912 
L 286.17843 227.912472 
L 289.227437 227.567862 
L 293.343225 229.290912 
L 296.392958 231.013962 
L 300.516005 229.290912 
L 304.554311 228.257082 
L 307.590253 227.567862 
L 311.690436 231.358572 
L 314.739988 227.567862 
L 318.860857 229.290912 
L 321.910227 231.013962 
L 325.933835 227.912472 
L 329.059599 229.290912 
L 333.09609 228.257082 
L 337.203531 228.946302 
L 340.239293 227.567862 
L 344.27397 227.912472 
L 347.399915 226.189422 
L 351.43441 230.324742 
L 354.567976 229.290912 
L 358.603923 227.912472 
L 361.652568 231.013962 
L 365.765453 226.878642 
L 369.802126 230.324742 
L 372.934966 229.290912 
L 376.968917 227.912472 
L 380.017199 227.567862 
L 384.113571 226.534032 
L 387.162034 231.013962 
L 391.268931 228.946302 
L 394.317212 227.567862 
L 398.352615 230.324742 
L 402.465137 226.878642 
L 405.513237 227.567862 
L 409.631384 231.703182 
L 412.679122 227.567862 
L 416.697105 227.912472 
L 419.809259 228.946302 
L 423.843392 230.324742 
L 426.976232 229.290912 
" clip-path="url(#p6fad47fa9b)" style="fill: none; stroke: #8c564b; stroke-width: 1.5; stroke-linecap: square"/>
   </g>
   <g id="line2d_24">
    <path d="M 65.112599 287.185398 
L 67.875813 273.400996 
L 71.901962 249.278294 
L 76.009766 257.204325 
L 79.001796 265.130356 
L 83.077664 254.447444 
L 86.087477 246.176804 
L 90.13159 256.515105 
L 93.252272 262.718085 
L 97.27461 254.102834 
L 101.382959 252.379784 
L 104.427067 258.927375 
L 108.465736 258.927375 
L 111.568273 256.515105 
L 115.588796 258.927375 
L 118.698773 256.515105 
L 122.720567 258.927375 
L 126.743449 256.515105 
L 129.845623 256.515105 
L 133.866873 258.927375 
L 136.961607 262.718085 
L 140.965618 256.170495 
L 144.954931 258.582765 
L 148.025169 259.271985 
L 152.012849 258.582765 
L 155.090164 256.170495 
L 159.077481 256.170495 
L 163.066431 258.582765 
L 166.135943 259.271985 
L 170.12326 256.170495 
L 173.20003 256.170495 
L 177.186803 260.995035 
L 181.175753 258.582765 
L 184.22966 256.170495 
L 188.21607 258.582765 
L 191.292477 259.271985 
L 195.27925 256.170495 
L 199.26693 258.582765 
L 202.336079 259.271985 
L 206.305976 258.582765 
L 209.382928 259.271985 
L 213.367886 256.170495 
L 217.354477 258.582765 
L 220.422719 256.170495 
L 224.408403 258.582765 
L 228.479915 261.339645 
L 231.470313 255.481275 
L 235.439665 258.582765 
L 238.508452 259.271985 
L 242.494317 256.170495 
L 246.564922 259.271985 
L 249.585078 258.927375 
L 253.584916 256.170495 
L 256.682554 259.616595 
L 260.696363 258.582765 
L 263.801259 256.515105 
L 267.815795 256.515105 
L 271.831237 258.927375 
L 274.928694 259.616595 
L 278.927624 256.170495 
L 282.032338 256.515105 
L 286.045967 258.582765 
L 290.060502 260.995035 
L 293.144168 256.170495 
L 297.157433 256.515105 
L 300.26251 259.616595 
L 304.274324 258.582765 
L 308.27271 256.170495 
L 311.355831 259.271985 
L 315.354398 258.582765 
L 318.45875 256.515105 
L 322.471289 256.515105 
L 325.490901 262.028865 
L 329.565135 256.859715 
L 333.578945 256.515105 
L 336.683115 259.616595 
L 340.694385 258.582765 
L 343.713633 258.927375 
L 347.802566 256.859715 
L 351.81565 258.582765 
L 354.919638 256.515105 
L 358.930545 258.582765 
L 361.94943 258.927375 
L 366.036911 259.271985 
L 369.055797 258.927375 
L 373.151988 256.859715 
L 377.164708 258.582765 
L 380.183413 255.825885 
L 384.270531 259.271985 
L 387.288872 258.927375 
L 391.35476 256.859715 
L 395.366936 258.582765 
L 398.385278 258.927375 
L 402.472033 256.859715 
L 405.490192 258.927375 
L 409.584387 256.859715 
L 412.603091 258.927375 
L 416.613091 258.582765 
L 420.701297 256.859715 
L 423.703489 258.582765 
L 427.781534 259.271985 
" clip-path="url(#p6fad47fa9b)" style="fill: none; stroke: #e377c2; stroke-width: 1.5; stroke-linecap: square"/>
   </g>
   <g id="patch_3">
    <path d="M 46.965625 299.798125 
L 46.965625 22.318125 
" style="fill: none; stroke: #000000; stroke-width: 0.8; stroke-linejoin: miter; stroke-linecap: square"/>
   </g>
   <g id="patch_4">
    <path d="M 445.915625 299.798125 
L 445.915625 22.318125 
" style="fill: none; stroke: #000000; stroke-width: 0.8; stroke-linejoin: miter; stroke-linecap: square"/>
   </g>
   <g id="patch_5">
    <path d="M 46.965625 299.798125 
L 445.915625 299.798125 
" style="fill: none; stroke: #000000; stroke-width: 0.8; stroke-linejoin: miter; stroke-linecap: square"/>
   </g>
   <g id="patch_6">
    <path d="M 46.965625 22.318125 
L 445.915625 22.318125 
" style="fill: none; stroke: #000000; stroke-width: 0.8; stroke-linejoin: miter; stroke-linecap: square"/>
   </g>
   <g id="text_21">
    <!-- right velocity vs. time -->
    <g transform="translate(181.033125 16.318125) scale(0.12 -0.12)">
     <use xlink:href="#DejaVuSans-72"/>
     <use xlink:href="#DejaVuSans-69" transform="translate(41.113281 0)"/>
     <use xlink:href="#DejaVuSans-67" transform="translate(68.896484 0)"/>
     <use xlink:href="#DejaVuSans-68" transform="translate(132.373047 0)"/>
     <use xlink:href="#DejaVuSans-74" transform="translate(195.751953 0)"/>
     <use xlink:href="#DejaVuSans-20" transform="translate(234.960938 0)"/>
     <use xlink:href="#DejaVuSans-76" transform="translate(266.748047 0)"/>
     <use xlink:href="#DejaVuSans-65" transform="translate(325.927734 0)"/>
     <use xlink:href="#DejaVuSans-6c" transform="translate(387.451172 0)"/>
     <use xlink:href="#DejaVuSans-6f" transform="translate(415.234375 0)"/>
     <use xlink:href="#DejaVuSans-63" transform="translate(476.416016 0)"/>
     <use xlink:href="#DejaVuSans-69" transform="translate(531.396484 0)"/>
     <use xlink:href="#DejaVuSans-74" transform="translate(559.179688 0)"/>
     <use xlink:href="#DejaVuSans-79" transform="translate(598.388672 0)"/>
     <use xlink:href="#DejaVuSans-20" transform="translate(657.568359 0)"/>
     <use xlink:href="#DejaVuSans-76" transform="translate(689.355469 0)"/>
     <use xlink:href="#DejaVuSans-73" transform="translate(748.535156 0)"/>
     <use xlink:href="#DejaVuSans-2e" transform="translate(800.634766 0)"/>
     <use xlink:href="#DejaVuSans-20" transform="translate(832.421875 0)"/>
     <use xlink:href="#DejaVuSans-74" transform="translate(864.208984 0)"/>
     <use xlink:href="#DejaVuSans-69" transform="translate(903.417969 0)"/>
     <use xlink:href="#DejaVuSans-6d" transform="translate(931.201172 0)"/>
     <use xlink:href="#DejaVuSans-65" transform="translate(1028.613281 0)"/>
    </g>
   </g>
   <g id="legend_1">
    <g id="patch_7">
     <path d="M 322.390625 294.798125 
L 438.915625 294.798125 
Q 440.915625 294.798125 440.915625 292.798125 
L 440.915625 191.05125 
Q 440.915625 189.05125 438.915625 189.05125 
L 322.390625 189.05125 
Q 320.390625 189.05125 320.390625 191.05125 
L 320.390625 292.798125 
Q 320.390625 294.798125 322.390625 294.798125 
z
" style="fill: #ffffff; opacity: 0.8; stroke: #cccccc; stroke-linejoin: miter"/>
    </g>
    <g id="line2d_25">
     <path d="M 324.390625 197.149688 
L 334.390625 197.149688 
L 344.390625 197.149688 
" style="fill: none; stroke: #1f77b4; stroke-width: 1.5; stroke-linecap: square"/>
    </g>
    <g id="text_22">
     <!-- Ref Speed = 595 -->
     <g transform="translate(352.390625 200.649688) scale(0.1 -0.1)">
      <defs>
       <path id="DejaVuSans-52" d="M 2841 2188 
Q 3044 2119 3236 1894 
Q 3428 1669 3622 1275 
L 4263 0 
L 3584 0 
L 2988 1197 
Q 2756 1666 2539 1819 
Q 2322 1972 1947 1972 
L 1259 1972 
L 1259 0 
L 628 0 
L 628 4666 
L 2053 4666 
Q 2853 4666 3247 4331 
Q 3641 3997 3641 3322 
Q 3641 2881 3436 2590 
Q 3231 2300 2841 2188 
z
M 1259 4147 
L 1259 2491 
L 2053 2491 
Q 2509 2491 2742 2702 
Q 2975 2913 2975 3322 
Q 2975 3731 2742 3939 
Q 2509 4147 2053 4147 
L 1259 4147 
z
" transform="scale(0.015625)"/>
       <path id="DejaVuSans-66" d="M 2375 4863 
L 2375 4384 
L 1825 4384 
Q 1516 4384 1395 4259 
Q 1275 4134 1275 3809 
L 1275 3500 
L 2222 3500 
L 2222 3053 
L 1275 3053 
L 1275 0 
L 697 0 
L 697 3053 
L 147 3053 
L 147 3500 
L 697 3500 
L 697 3744 
Q 697 4328 969 4595 
Q 1241 4863 1831 4863 
L 2375 4863 
z
" transform="scale(0.015625)"/>
       <path id="DejaVuSans-53" d="M 3425 4513 
L 3425 3897 
Q 3066 4069 2747 4153 
Q 2428 4238 2131 4238 
Q 1616 4238 1336 4038 
Q 1056 3838 1056 3469 
Q 1056 3159 1242 3001 
Q 1428 2844 1947 2747 
L 2328 2669 
Q 3034 2534 3370 2195 
Q 3706 1856 3706 1288 
Q 3706 609 3251 259 
Q 2797 -91 1919 -91 
Q 1588 -91 1214 -16 
Q 841 59 441 206 
L 441 856 
Q 825 641 1194 531 
Q 1563 422 1919 422 
Q 2459 422 2753 634 
Q 3047 847 3047 1241 
Q 3047 1584 2836 1778 
Q 2625 1972 2144 2069 
L 1759 2144 
Q 1053 2284 737 2584 
Q 422 2884 422 3419 
Q 422 4038 858 4394 
Q 1294 4750 2059 4750 
Q 2388 4750 2728 4690 
Q 3069 4631 3425 4513 
z
" transform="scale(0.015625)"/>
       <path id="DejaVuSans-70" d="M 1159 525 
L 1159 -1331 
L 581 -1331 
L 581 3500 
L 1159 3500 
L 1159 2969 
Q 1341 3281 1617 3432 
Q 1894 3584 2278 3584 
Q 2916 3584 3314 3078 
Q 3713 2572 3713 1747 
Q 3713 922 3314 415 
Q 2916 -91 2278 -91 
Q 1894 -91 1617 61 
Q 1341 213 1159 525 
z
M 3116 1747 
Q 3116 2381 2855 2742 
Q 2594 3103 2138 3103 
Q 1681 3103 1420 2742 
Q 1159 2381 1159 1747 
Q 1159 1113 1420 752 
Q 1681 391 2138 391 
Q 2594 391 2855 752 
Q 3116 1113 3116 1747 
z
" transform="scale(0.015625)"/>
       <path id="DejaVuSans-64" d="M 2906 2969 
L 2906 4863 
L 3481 4863 
L 3481 0 
L 2906 0 
L 2906 525 
Q 2725 213 2448 61 
Q 2172 -91 1784 -91 
Q 1150 -91 751 415 
Q 353 922 353 1747 
Q 353 2572 751 3078 
Q 1150 3584 1784 3584 
Q 2172 3584 2448 3432 
Q 2725 3281 2906 2969 
z
M 947 1747 
Q 947 1113 1208 752 
Q 1469 391 1925 391 
Q 2381 391 2643 752 
Q 2906 1113 2906 1747 
Q 2906 2381 2643 2742 
Q 2381 3103 1925 3103 
Q 1469 3103 1208 2742 
Q 947 2381 947 1747 
z
" transform="scale(0.015625)"/>
       <path id="DejaVuSans-3d" d="M 678 2906 
L 4684 2906 
L 4684 2381 
L 678 2381 
L 678 2906 
z
M 678 1631 
L 4684 1631 
L 4684 1100 
L 678 1100 
L 678 1631 
z
" transform="scale(0.015625)"/>
       <path id="DejaVuSans-39" d="M 703 97 
L 703 672 
Q 941 559 1184 500 
Q 1428 441 1663 441 
Q 2288 441 2617 861 
Q 2947 1281 2994 2138 
Q 2813 1869 2534 1725 
Q 2256 1581 1919 1581 
Q 1219 1581 811 2004 
Q 403 2428 403 3163 
Q 403 3881 828 4315 
Q 1253 4750 1959 4750 
Q 2769 4750 3195 4129 
Q 3622 3509 3622 2328 
Q 3622 1225 3098 567 
Q 2575 -91 1691 -91 
Q 1453 -91 1209 -44 
Q 966 3 703 97 
z
M 1959 2075 
Q 2384 2075 2632 2365 
Q 2881 2656 2881 3163 
Q 2881 3666 2632 3958 
Q 2384 4250 1959 4250 
Q 1534 4250 1286 3958 
Q 1038 3666 1038 3163 
Q 1038 2656 1286 2365 
Q 1534 2075 1959 2075 
z
" transform="scale(0.015625)"/>
      </defs>
      <use xlink:href="#DejaVuSans-52"/>
      <use xlink:href="#DejaVuSans-65" transform="translate(64.982422 0)"/>
      <use xlink:href="#DejaVuSans-66" transform="translate(126.505859 0)"/>
      <use xlink:href="#DejaVuSans-20" transform="translate(161.710938 0)"/>
      <use xlink:href="#DejaVuSans-53" transform="translate(193.498047 0)"/>
      <use xlink:href="#DejaVuSans-70" transform="translate(256.974609 0)"/>
      <use xlink:href="#DejaVuSans-65" transform="translate(320.451172 0)"/>
      <use xlink:href="#DejaVuSans-65" transform="translate(381.974609 0)"/>
      <use xlink:href="#DejaVuSans-64" transform="translate(443.498047 0)"/>
      <use xlink:href="#DejaVuSans-20" transform="translate(506.974609 0)"/>
      <use xlink:href="#DejaVuSans-3d" transform="translate(538.761719 0)"/>
      <use xlink:href="#DejaVuSans-20" transform="translate(622.550781 0)"/>
      <use xlink:href="#DejaVuSans-35" transform="translate(654.337891 0)"/>
      <use xlink:href="#DejaVuSans-39" transform="translate(717.960938 0)"/>
      <use xlink:href="#DejaVuSans-35" transform="translate(781.583984 0)"/>
     </g>
    </g>
    <g id="line2d_26">
     <path d="M 324.390625 211.827813 
L 334.390625 211.827813 
L 344.390625 211.827813 
" style="fill: none; stroke: #ff7f0e; stroke-width: 1.5; stroke-linecap: square"/>
    </g>
    <g id="text_23">
     <!-- Ref Speed = 510 -->
     <g transform="translate(352.390625 215.327813) scale(0.1 -0.1)">
      <use xlink:href="#DejaVuSans-52"/>
      <use xlink:href="#DejaVuSans-65" transform="translate(64.982422 0)"/>
      <use xlink:href="#DejaVuSans-66" transform="translate(126.505859 0)"/>
      <use xlink:href="#DejaVuSans-20" transform="translate(161.710938 0)"/>
      <use xlink:href="#DejaVuSans-53" transform="translate(193.498047 0)"/>
      <use xlink:href="#DejaVuSans-70" transform="translate(256.974609 0)"/>
      <use xlink:href="#DejaVuSans-65" transform="translate(320.451172 0)"/>
      <use xlink:href="#DejaVuSans-65" transform="translate(381.974609 0)"/>
      <use xlink:href="#DejaVuSans-64" transform="translate(443.498047 0)"/>
      <use xlink:href="#DejaVuSans-20" transform="translate(506.974609 0)"/>
      <use xlink:href="#DejaVuSans-3d" transform="translate(538.761719 0)"/>
      <use xlink:href="#DejaVuSans-20" transform="translate(622.550781 0)"/>
      <use xlink:href="#DejaVuSans-35" transform="translate(654.337891 0)"/>
      <use xlink:href="#DejaVuSans-31" transform="translate(717.960938 0)"/>
      <use xlink:href="#DejaVuSans-30" transform="translate(781.583984 0)"/>
     </g>
    </g>
    <g id="line2d_27">
     <path d="M 324.390625 226.505938 
L 334.390625 226.505938 
L 344.390625 226.505938 
" style="fill: none; stroke: #2ca02c; stroke-width: 1.5; stroke-linecap: square"/>
    </g>
    <g id="text_24">
     <!-- Ref Speed = 425 -->
     <g transform="translate(352.390625 230.005938) scale(0.1 -0.1)">
      <use xlink:href="#DejaVuSans-52"/>
      <use xlink:href="#DejaVuSans-65" transform="translate(64.982422 0)"/>
      <use xlink:href="#DejaVuSans-66" transform="translate(126.505859 0)"/>
      <use xlink:href="#DejaVuSans-20" transform="translate(161.710938 0)"/>
      <use xlink:href="#DejaVuSans-53" transform="translate(193.498047 0)"/>
      <use xlink:href="#DejaVuSans-70" transform="translate(256.974609 0)"/>
      <use xlink:href="#DejaVuSans-65" transform="translate(320.451172 0)"/>
      <use xlink:href="#DejaVuSans-65" transform="translate(381.974609 0)"/>
      <use xlink:href="#DejaVuSans-64" transform="translate(443.498047 0)"/>
      <use xlink:href="#DejaVuSans-20" transform="translate(506.974609 0)"/>
      <use xlink:href="#DejaVuSans-3d" transform="translate(538.761719 0)"/>
      <use xlink:href="#DejaVuSans-20" transform="translate(622.550781 0)"/>
      <use xlink:href="#DejaVuSans-34" transform="translate(654.337891 0)"/>
      <use xlink:href="#DejaVuSans-32" transform="translate(717.960938 0)"/>
      <use xlink:href="#DejaVuSans-35" transform="translate(781.583984 0)"/>
     </g>
    </g>
    <g id="line2d_28">
     <path d="M 324.390625 241.184063 
L 334.390625 241.184063 
L 344.390625 241.184063 
" style="fill: none; stroke: #d62728; stroke-width: 1.5; stroke-linecap: square"/>
    </g>
    <g id="text_25">
     <!-- Ref Speed = 340 -->
     <g transform="translate(352.390625 244.684063) scale(0.1 -0.1)">
      <use xlink:href="#DejaVuSans-52"/>
      <use xlink:href="#DejaVuSans-65" transform="translate(64.982422 0)"/>
      <use xlink:href="#DejaVuSans-66" transform="translate(126.505859 0)"/>
      <use xlink:href="#DejaVuSans-20" transform="translate(161.710938 0)"/>
      <use xlink:href="#DejaVuSans-53" transform="translate(193.498047 0)"/>
      <use xlink:href="#DejaVuSans-70" transform="translate(256.974609 0)"/>
      <use xlink:href="#DejaVuSans-65" transform="translate(320.451172 0)"/>
      <use xlink:href="#DejaVuSans-65" transform="translate(381.974609 0)"/>
      <use xlink:href="#DejaVuSans-64" transform="translate(443.498047 0)"/>
      <use xlink:href="#DejaVuSans-20" transform="translate(506.974609 0)"/>
      <use xlink:href="#DejaVuSans-3d" transform="translate(538.761719 0)"/>
      <use xlink:href="#DejaVuSans-20" transform="translate(622.550781 0)"/>
      <use xlink:href="#DejaVuSans-33" transform="translate(654.337891 0)"/>
      <use xlink:href="#DejaVuSans-34" transform="translate(717.960938 0)"/>
      <use xlink:href="#DejaVuSans-30" transform="translate(781.583984 0)"/>
     </g>
    </g>
    <g id="line2d_29">
     <path d="M 324.390625 255.862188 
L 334.390625 255.862188 
L 344.390625 255.862188 
" style="fill: none; stroke: #9467bd; stroke-width: 1.5; stroke-linecap: square"/>
    </g>
    <g id="text_26">
     <!-- Ref Speed = 255 -->
     <g transform="translate(352.390625 259.362188) scale(0.1 -0.1)">
      <use xlink:href="#DejaVuSans-52"/>
      <use xlink:href="#DejaVuSans-65" transform="translate(64.982422 0)"/>
      <use xlink:href="#DejaVuSans-66" transform="translate(126.505859 0)"/>
      <use xlink:href="#DejaVuSans-20" transform="translate(161.710938 0)"/>
      <use xlink:href="#DejaVuSans-53" transform="translate(193.498047 0)"/>
      <use xlink:href="#DejaVuSans-70" transform="translate(256.974609 0)"/>
      <use xlink:href="#DejaVuSans-65" transform="translate(320.451172 0)"/>
      <use xlink:href="#DejaVuSans-65" transform="translate(381.974609 0)"/>
      <use xlink:href="#DejaVuSans-64" transform="translate(443.498047 0)"/>
      <use xlink:href="#DejaVuSans-20" transform="translate(506.974609 0)"/>
      <use xlink:href="#DejaVuSans-3d" transform="translate(538.761719 0)"/>
      <use xlink:href="#DejaVuSans-20" transform="translate(622.550781 0)"/>
      <use xlink:href="#DejaVuSans-32" transform="translate(654.337891 0)"/>
      <use xlink:href="#DejaVuSans-35" transform="translate(717.960938 0)"/>
      <use xlink:href="#DejaVuSans-35" transform="translate(781.583984 0)"/>
     </g>
    </g>
    <g id="line2d_30">
     <path d="M 324.390625 270.540313 
L 334.390625 270.540313 
L 344.390625 270.540313 
" style="fill: none; stroke: #8c564b; stroke-width: 1.5; stroke-linecap: square"/>
    </g>
    <g id="text_27">
     <!-- Ref Speed = 170 -->
     <g transform="translate(352.390625 274.040313) scale(0.1 -0.1)">
      <use xlink:href="#DejaVuSans-52"/>
      <use xlink:href="#DejaVuSans-65" transform="translate(64.982422 0)"/>
      <use xlink:href="#DejaVuSans-66" transform="translate(126.505859 0)"/>
      <use xlink:href="#DejaVuSans-20" transform="translate(161.710938 0)"/>
      <use xlink:href="#DejaVuSans-53" transform="translate(193.498047 0)"/>
      <use xlink:href="#DejaVuSans-70" transform="translate(256.974609 0)"/>
      <use xlink:href="#DejaVuSans-65" transform="translate(320.451172 0)"/>
      <use xlink:href="#DejaVuSans-65" transform="translate(381.974609 0)"/>
      <use xlink:href="#DejaVuSans-64" transform="translate(443.498047 0)"/>
      <use xlink:href="#DejaVuSans-20" transform="translate(506.974609 0)"/>
      <use xlink:href="#DejaVuSans-3d" transform="translate(538.761719 0)"/>
      <use xlink:href="#DejaVuSans-20" transform="translate(622.550781 0)"/>
      <use xlink:href="#DejaVuSans-31" transform="translate(654.337891 0)"/>
      <use xlink:href="#DejaVuSans-37" transform="translate(717.960938 0)"/>
      <use xlink:href="#DejaVuSans-30" transform="translate(781.583984 0)"/>
     </g>
    </g>
    <g id="line2d_31">
     <path d="M 324.390625 285.218438 
L 334.390625 285.218438 
L 344.390625 285.218438 
" style="fill: none; stroke: #e377c2; stroke-width: 1.5; stroke-linecap: square"/>
    </g>
    <g id="text_28">
     <!-- Ref Speed = 85 -->
     <g transform="translate(352.390625 288.718438) scale(0.1 -0.1)">
      <defs>
       <path id="DejaVuSans-38" d="M 2034 2216 
Q 1584 2216 1326 1975 
Q 1069 1734 1069 1313 
Q 1069 891 1326 650 
Q 1584 409 2034 409 
Q 2484 409 2743 651 
Q 3003 894 3003 1313 
Q 3003 1734 2745 1975 
Q 2488 2216 2034 2216 
z
M 1403 2484 
Q 997 2584 770 2862 
Q 544 3141 544 3541 
Q 544 4100 942 4425 
Q 1341 4750 2034 4750 
Q 2731 4750 3128 4425 
Q 3525 4100 3525 3541 
Q 3525 3141 3298 2862 
Q 3072 2584 2669 2484 
Q 3125 2378 3379 2068 
Q 3634 1759 3634 1313 
Q 3634 634 3220 271 
Q 2806 -91 2034 -91 
Q 1263 -91 848 271 
Q 434 634 434 1313 
Q 434 1759 690 2068 
Q 947 2378 1403 2484 
z
M 1172 3481 
Q 1172 3119 1398 2916 
Q 1625 2713 2034 2713 
Q 2441 2713 2670 2916 
Q 2900 3119 2900 3481 
Q 2900 3844 2670 4047 
Q 2441 4250 2034 4250 
Q 1625 4250 1398 4047 
Q 1172 3844 1172 3481 
z
" transform="scale(0.015625)"/>
      </defs>
      <use xlink:href="#DejaVuSans-52"/>
      <use xlink:href="#DejaVuSans-65" transform="translate(64.982422 0)"/>
      <use xlink:href="#DejaVuSans-66" transform="translate(126.505859 0)"/>
      <use xlink:href="#DejaVuSans-20" transform="translate(161.710938 0)"/>
      <use xlink:href="#DejaVuSans-53" transform="translate(193.498047 0)"/>
      <use xlink:href="#DejaVuSans-70" transform="translate(256.974609 0)"/>
      <use xlink:href="#DejaVuSans-65" transform="translate(320.451172 0)"/>
      <use xlink:href="#DejaVuSans-65" transform="translate(381.974609 0)"/>
      <use xlink:href="#DejaVuSans-64" transform="translate(443.498047 0)"/>
      <use xlink:href="#DejaVuSans-20" transform="translate(506.974609 0)"/>
      <use xlink:href="#DejaVuSans-3d" transform="translate(538.761719 0)"/>
      <use xlink:href="#DejaVuSans-20" transform="translate(622.550781 0)"/>
      <use xlink:href="#DejaVuSans-38" transform="translate(654.337891 0)"/>
      <use xlink:href="#DejaVuSans-35" transform="translate(717.960938 0)"/>
     </g>
    </g>
   </g>
  </g>
 </g>
 <defs>
  <clipPath id="p6fad47fa9b">
   <rect x="46.965625" y="22.318125" width="398.95" height="277.48"/>
  </clipPath>
 </defs>
</svg>
