<?xml version="1.0" encoding="utf-8" standalone="no"?>
<!DOCTYPE svg PUBLIC "-//W3C//DTD SVG 1.1//EN"
  "http://www.w3.org/Graphics/SVG/1.1/DTD/svg11.dtd">
<svg xmlns:xlink="http://www.w3.org/1999/xlink" width="453.143125pt" height="337.354375pt" viewBox="0 0 453.143125 337.354375" xmlns="http://www.w3.org/2000/svg" version="1.1">
 <metadata>
  <rdf:RDF xmlns:dc="http://purl.org/dc/elements/1.1/" xmlns:cc="http://creativecommons.org/ns#" xmlns:rdf="http://www.w3.org/1999/02/22-rdf-syntax-ns#">
   <cc:Work>
    <dc:type rdf:resource="http://purl.org/dc/dcmitype/StillImage"/>
    <dc:date>2025-10-29T22:51:36.104411</dc:date>
    <dc:format>image/svg+xml</dc:format>
    <dc:creator>
     <cc:Agent>
      <dc:title>Matplotlib v3.10.6, https://matplotlib.org/</dc:title>
     </cc:Agent>
    </dc:creator>
   </cc:Work>
  </rdf:RDF>
 </metadata>
 <defs>
  <style type="text/css">*{stroke-linejoin: round; stroke-linecap: butt}</style>
 </defs>
 <g id="figure_1">
  <g id="patch_1">
   <path d="M 0 337.354375 
L 453.143125 337.354375 
L 453.143125 0 
L 0 0 
z
" style="fill: #ffffff"/>
  </g>
  <g id="axes_1">
   <g id="patch_2">
    <path d="M 40.603125 299.798125 
L 445.943125 299.798125 
L 445.943125 22.318125 
L 40.603125 22.318125 
z
" style="fill: #ffffff"/>
   </g>
   <g id="matplotlib.axis_1">
    <g id="xtick_1">
     <g id="line2d_1">
      <defs>
       <path id="m8002a155e2" d="M 0 0 
L 0 3.5 
" style="stroke: #000000; stroke-width: 0.8"/>
      </defs>
      <g>
       <use xlink:href="#m8002a155e2" x="58.79537" y="299.798125" style="stroke: #000000; stroke-width: 0.8"/>
      </g>
     </g>
     <g id="text_1">
      <!-- 0.00 -->
      <g transform="translate(47.662557 314.396563) scale(0.1 -0.1)">
       <defs>
        <path id="DejaVuSans-30" d="M 2034 4250 
Q 1547 4250 1301 3770 
Q 1056 3291 1056 2328 
Q 1056 1369 1301 889 
Q 1547 409 2034 409 
Q 2525 409 2770 889 
Q 3016 1369 3016 2328 
Q 3016 3291 2770 3770 
Q 2525 4250 2034 4250 
z
M 2034 4750 
Q 2819 4750 3233 4129 
Q 3647 3509 3647 2328 
Q 3647 1150 3233 529 
Q 2819 -91 2034 -91 
Q 1250 -91 836 529 
Q 422 1150 422 2328 
Q 422 3509 836 4129 
Q 1250 4750 2034 4750 
z
" transform="scale(0.015625)"/>
        <path id="DejaVuSans-2e" d="M 684 794 
L 1344 794 
L 1344 0 
L 684 0 
L 684 794 
z
" transform="scale(0.015625)"/>
       </defs>
       <use xlink:href="#DejaVuSans-30"/>
       <use xlink:href="#DejaVuSans-2e" transform="translate(63.623047 0)"/>
       <use xlink:href="#DejaVuSans-30" transform="translate(95.410156 0)"/>
       <use xlink:href="#DejaVuSans-30" transform="translate(159.033203 0)"/>
      </g>
     </g>
    </g>
    <g id="xtick_2">
     <g id="line2d_2">
      <g>
       <use xlink:href="#m8002a155e2" x="104.886808" y="299.798125" style="stroke: #000000; stroke-width: 0.8"/>
      </g>
     </g>
     <g id="text_2">
      <!-- 0.25 -->
      <g transform="translate(93.753995 314.396563) scale(0.1 -0.1)">
       <defs>
        <path id="DejaVuSans-32" d="M 1228 531 
L 3431 531 
L 3431 0 
L 469 0 
L 469 531 
Q 828 903 1448 1529 
Q 2069 2156 2228 2338 
Q 2531 2678 2651 2914 
Q 2772 3150 2772 3378 
Q 2772 3750 2511 3984 
Q 2250 4219 1831 4219 
Q 1534 4219 1204 4116 
Q 875 4013 500 3803 
L 500 4441 
Q 881 4594 1212 4672 
Q 1544 4750 1819 4750 
Q 2544 4750 2975 4387 
Q 3406 4025 3406 3419 
Q 3406 3131 3298 2873 
Q 3191 2616 2906 2266 
Q 2828 2175 2409 1742 
Q 1991 1309 1228 531 
z
" transform="scale(0.015625)"/>
        <path id="DejaVuSans-35" d="M 691 4666 
L 3169 4666 
L 3169 4134 
L 1269 4134 
L 1269 2991 
Q 1406 3038 1543 3061 
Q 1681 3084 1819 3084 
Q 2600 3084 3056 2656 
Q 3513 2228 3513 1497 
Q 3513 744 3044 326 
Q 2575 -91 1722 -91 
Q 1428 -91 1123 -41 
Q 819 9 494 109 
L 494 744 
Q 775 591 1075 516 
Q 1375 441 1709 441 
Q 2250 441 2565 725 
Q 2881 1009 2881 1497 
Q 2881 1984 2565 2268 
Q 2250 2553 1709 2553 
Q 1456 2553 1204 2497 
Q 953 2441 691 2322 
L 691 4666 
z
" transform="scale(0.015625)"/>
       </defs>
       <use xlink:href="#DejaVuSans-30"/>
       <use xlink:href="#DejaVuSans-2e" transform="translate(63.623047 0)"/>
       <use xlink:href="#DejaVuSans-32" transform="translate(95.410156 0)"/>
       <use xlink:href="#DejaVuSans-35" transform="translate(159.033203 0)"/>
      </g>
     </g>
    </g>
    <g id="xtick_3">
     <g id="line2d_3">
      <g>
       <use xlink:href="#m8002a155e2" x="150.978246" y="299.798125" style="stroke: #000000; stroke-width: 0.8"/>
      </g>
     </g>
     <g id="text_3">
      <!-- 0.50 -->
      <g transform="translate(139.845434 314.396563) scale(0.1 -0.1)">
       <use xlink:href="#DejaVuSans-30"/>
       <use xlink:href="#DejaVuSans-2e" transform="translate(63.623047 0)"/>
       <use xlink:href="#DejaVuSans-35" transform="translate(95.410156 0)"/>
       <use xlink:href="#DejaVuSans-30" transform="translate(159.033203 0)"/>
      </g>
     </g>
    </g>
    <g id="xtick_4">
     <g id="line2d_4">
      <g>
       <use xlink:href="#m8002a155e2" x="197.069685" y="299.798125" style="stroke: #000000; stroke-width: 0.8"/>
      </g>
     </g>
     <g id="text_4">
      <!-- 0.75 -->
      <g transform="translate(185.936872 314.396563) scale(0.1 -0.1)">
       <defs>
        <path id="DejaVuSans-37" d="M 525 4666 
L 3525 4666 
L 3525 4397 
L 1831 0 
L 1172 0 
L 2766 4134 
L 525 4134 
L 525 4666 
z
" transform="scale(0.015625)"/>
       </defs>
       <use xlink:href="#DejaVuSans-30"/>
       <use xlink:href="#DejaVuSans-2e" transform="translate(63.623047 0)"/>
       <use xlink:href="#DejaVuSans-37" transform="translate(95.410156 0)"/>
       <use xlink:href="#DejaVuSans-35" transform="translate(159.033203 0)"/>
      </g>
     </g>
    </g>
    <g id="xtick_5">
     <g id="line2d_5">
      <g>
       <use xlink:href="#m8002a155e2" x="243.161123" y="299.798125" style="stroke: #000000; stroke-width: 0.8"/>
      </g>
     </g>
     <g id="text_5">
      <!-- 1.00 -->
      <g transform="translate(232.02831 314.396563) scale(0.1 -0.1)">
       <defs>
        <path id="DejaVuSans-31" d="M 794 531 
L 1825 531 
L 1825 4091 
L 703 3866 
L 703 4441 
L 1819 4666 
L 2450 4666 
L 2450 531 
L 3481 531 
L 3481 0 
L 794 0 
L 794 531 
z
" transform="scale(0.015625)"/>
       </defs>
       <use xlink:href="#DejaVuSans-31"/>
       <use xlink:href="#DejaVuSans-2e" transform="translate(63.623047 0)"/>
       <use xlink:href="#DejaVuSans-30" transform="translate(95.410156 0)"/>
       <use xlink:href="#DejaVuSans-30" transform="translate(159.033203 0)"/>
      </g>
     </g>
    </g>
    <g id="xtick_6">
     <g id="line2d_6">
      <g>
       <use xlink:href="#m8002a155e2" x="289.252561" y="299.798125" style="stroke: #000000; stroke-width: 0.8"/>
      </g>
     </g>
     <g id="text_6">
      <!-- 1.25 -->
      <g transform="translate(278.119749 314.396563) scale(0.1 -0.1)">
       <use xlink:href="#DejaVuSans-31"/>
       <use xlink:href="#DejaVuSans-2e" transform="translate(63.623047 0)"/>
       <use xlink:href="#DejaVuSans-32" transform="translate(95.410156 0)"/>
       <use xlink:href="#DejaVuSans-35" transform="translate(159.033203 0)"/>
      </g>
     </g>
    </g>
    <g id="xtick_7">
     <g id="line2d_7">
      <g>
       <use xlink:href="#m8002a155e2" x="335.343999" y="299.798125" style="stroke: #000000; stroke-width: 0.8"/>
      </g>
     </g>
     <g id="text_7">
      <!-- 1.50 -->
      <g transform="translate(324.211187 314.396563) scale(0.1 -0.1)">
       <use xlink:href="#DejaVuSans-31"/>
       <use xlink:href="#DejaVuSans-2e" transform="translate(63.623047 0)"/>
       <use xlink:href="#DejaVuSans-35" transform="translate(95.410156 0)"/>
       <use xlink:href="#DejaVuSans-30" transform="translate(159.033203 0)"/>
      </g>
     </g>
    </g>
    <g id="xtick_8">
     <g id="line2d_8">
      <g>
       <use xlink:href="#m8002a155e2" x="381.435438" y="299.798125" style="stroke: #000000; stroke-width: 0.8"/>
      </g>
     </g>
     <g id="text_8">
      <!-- 1.75 -->
      <g transform="translate(370.302625 314.396563) scale(0.1 -0.1)">
       <use xlink:href="#DejaVuSans-31"/>
       <use xlink:href="#DejaVuSans-2e" transform="translate(63.623047 0)"/>
       <use xlink:href="#DejaVuSans-37" transform="translate(95.410156 0)"/>
       <use xlink:href="#DejaVuSans-35" transform="translate(159.033203 0)"/>
      </g>
     </g>
    </g>
    <g id="xtick_9">
     <g id="line2d_9">
      <g>
       <use xlink:href="#m8002a155e2" x="427.526876" y="299.798125" style="stroke: #000000; stroke-width: 0.8"/>
      </g>
     </g>
     <g id="text_9">
      <!-- 2.00 -->
      <g transform="translate(416.394064 314.396563) scale(0.1 -0.1)">
       <use xlink:href="#DejaVuSans-32"/>
       <use xlink:href="#DejaVuSans-2e" transform="translate(63.623047 0)"/>
       <use xlink:href="#DejaVuSans-30" transform="translate(95.410156 0)"/>
       <use xlink:href="#DejaVuSans-30" transform="translate(159.033203 0)"/>
      </g>
     </g>
    </g>
    <g id="text_10">
     <!-- time, t (us) -->
     <g transform="translate(215.574687 328.074688) scale(0.1 -0.1)">
      <defs>
       <path id="DejaVuSans-74" d="M 1172 4494 
L 1172 3500 
L 2356 3500 
L 2356 3053 
L 1172 3053 
L 1172 1153 
Q 1172 725 1289 603 
Q 1406 481 1766 481 
L 2356 481 
L 2356 0 
L 1766 0 
Q 1100 0 847 248 
Q 594 497 594 1153 
L 594 3053 
L 172 3053 
L 172 3500 
L 594 3500 
L 594 4494 
L 1172 4494 
z
" transform="scale(0.015625)"/>
       <path id="DejaVuSans-69" d="M 603 3500 
L 1178 3500 
L 1178 0 
L 603 0 
L 603 3500 
z
M 603 4863 
L 1178 4863 
L 1178 4134 
L 603 4134 
L 603 4863 
z
" transform="scale(0.015625)"/>
       <path id="DejaVuSans-6d" d="M 3328 2828 
Q 3544 3216 3844 3400 
Q 4144 3584 4550 3584 
Q 5097 3584 5394 3201 
Q 5691 2819 5691 2113 
L 5691 0 
L 5113 0 
L 5113 2094 
Q 5113 2597 4934 2840 
Q 4756 3084 4391 3084 
Q 3944 3084 3684 2787 
Q 3425 2491 3425 1978 
L 3425 0 
L 2847 0 
L 2847 2094 
Q 2847 2600 2669 2842 
Q 2491 3084 2119 3084 
Q 1678 3084 1418 2786 
Q 1159 2488 1159 1978 
L 1159 0 
L 581 0 
L 581 3500 
L 1159 3500 
L 1159 2956 
Q 1356 3278 1631 3431 
Q 1906 3584 2284 3584 
Q 2666 3584 2933 3390 
Q 3200 3197 3328 2828 
z
" transform="scale(0.015625)"/>
       <path id="DejaVuSans-65" d="M 3597 1894 
L 3597 1613 
L 953 1613 
Q 991 1019 1311 708 
Q 1631 397 2203 397 
Q 2534 397 2845 478 
Q 3156 559 3463 722 
L 3463 178 
Q 3153 47 2828 -22 
Q 2503 -91 2169 -91 
Q 1331 -91 842 396 
Q 353 884 353 1716 
Q 353 2575 817 3079 
Q 1281 3584 2069 3584 
Q 2775 3584 3186 3129 
Q 3597 2675 3597 1894 
z
M 3022 2063 
Q 3016 2534 2758 2815 
Q 2500 3097 2075 3097 
Q 1594 3097 1305 2825 
Q 1016 2553 972 2059 
L 3022 2063 
z
" transform="scale(0.015625)"/>
       <path id="DejaVuSans-2c" d="M 750 794 
L 1409 794 
L 1409 256 
L 897 -744 
L 494 -744 
L 750 256 
L 750 794 
z
" transform="scale(0.015625)"/>
       <path id="DejaVuSans-20" transform="scale(0.015625)"/>
       <path id="DejaVuSans-28" d="M 1984 4856 
Q 1566 4138 1362 3434 
Q 1159 2731 1159 2009 
Q 1159 1288 1364 580 
Q 1569 -128 1984 -844 
L 1484 -844 
Q 1016 -109 783 600 
Q 550 1309 550 2009 
Q 550 2706 781 3412 
Q 1013 4119 1484 4856 
L 1984 4856 
z
" transform="scale(0.015625)"/>
       <path id="DejaVuSans-75" d="M 544 1381 
L 544 3500 
L 1119 3500 
L 1119 1403 
Q 1119 906 1312 657 
Q 1506 409 1894 409 
Q 2359 409 2629 706 
Q 2900 1003 2900 1516 
L 2900 3500 
L 3475 3500 
L 3475 0 
L 2900 0 
L 2900 538 
Q 2691 219 2414 64 
Q 2138 -91 1772 -91 
Q 1169 -91 856 284 
Q 544 659 544 1381 
z
M 1991 3584 
L 1991 3584 
z
" transform="scale(0.015625)"/>
       <path id="DejaVuSans-73" d="M 2834 3397 
L 2834 2853 
Q 2591 2978 2328 3040 
Q 2066 3103 1784 3103 
Q 1356 3103 1142 2972 
Q 928 2841 928 2578 
Q 928 2378 1081 2264 
Q 1234 2150 1697 2047 
L 1894 2003 
Q 2506 1872 2764 1633 
Q 3022 1394 3022 966 
Q 3022 478 2636 193 
Q 2250 -91 1575 -91 
Q 1294 -91 989 -36 
Q 684 19 347 128 
L 347 722 
Q 666 556 975 473 
Q 1284 391 1588 391 
Q 1994 391 2212 530 
Q 2431 669 2431 922 
Q 2431 1156 2273 1281 
Q 2116 1406 1581 1522 
L 1381 1569 
Q 847 1681 609 1914 
Q 372 2147 372 2553 
Q 372 3047 722 3315 
Q 1072 3584 1716 3584 
Q 2034 3584 2315 3537 
Q 2597 3491 2834 3397 
z
" transform="scale(0.015625)"/>
       <path id="DejaVuSans-29" d="M 513 4856 
L 1013 4856 
Q 1481 4119 1714 3412 
Q 1947 2706 1947 2009 
Q 1947 1309 1714 600 
Q 1481 -109 1013 -844 
L 513 -844 
Q 928 -128 1133 580 
Q 1338 1288 1338 2009 
Q 1338 2731 1133 3434 
Q 928 4138 513 4856 
z
" transform="scale(0.015625)"/>
      </defs>
      <use xlink:href="#DejaVuSans-74"/>
      <use xlink:href="#DejaVuSans-69" transform="translate(39.208984 0)"/>
      <use xlink:href="#DejaVuSans-6d" transform="translate(66.992188 0)"/>
      <use xlink:href="#DejaVuSans-65" transform="translate(164.404297 0)"/>
      <use xlink:href="#DejaVuSans-2c" transform="translate(225.927734 0)"/>
      <use xlink:href="#DejaVuSans-20" transform="translate(257.714844 0)"/>
      <use xlink:href="#DejaVuSans-74" transform="translate(289.501953 0)"/>
      <use xlink:href="#DejaVuSans-20" transform="translate(328.710938 0)"/>
      <use xlink:href="#DejaVuSans-28" transform="translate(360.498047 0)"/>
      <use xlink:href="#DejaVuSans-75" transform="translate(399.511719 0)"/>
      <use xlink:href="#DejaVuSans-73" transform="translate(462.890625 0)"/>
      <use xlink:href="#DejaVuSans-29" transform="translate(514.990234 0)"/>
     </g>
    </g>
    <g id="text_11">
     <!-- 1e6 -->
     <g transform="translate(427.065 327.074688) scale(0.1 -0.1)">
      <defs>
       <path id="DejaVuSans-36" d="M 2113 2584 
Q 1688 2584 1439 2293 
Q 1191 2003 1191 1497 
Q 1191 994 1439 701 
Q 1688 409 2113 409 
Q 2538 409 2786 701 
Q 3034 994 3034 1497 
Q 3034 2003 2786 2293 
Q 2538 2584 2113 2584 
z
M 3366 4563 
L 3366 3988 
Q 3128 4100 2886 4159 
Q 2644 4219 2406 4219 
Q 1781 4219 1451 3797 
Q 1122 3375 1075 2522 
Q 1259 2794 1537 2939 
Q 1816 3084 2150 3084 
Q 2853 3084 3261 2657 
Q 3669 2231 3669 1497 
Q 3669 778 3244 343 
Q 2819 -91 2113 -91 
Q 1303 -91 875 529 
Q 447 1150 447 2328 
Q 447 3434 972 4092 
Q 1497 4750 2381 4750 
Q 2619 4750 2861 4703 
Q 3103 4656 3366 4563 
z
" transform="scale(0.015625)"/>
      </defs>
      <use xlink:href="#DejaVuSans-31"/>
      <use xlink:href="#DejaVuSans-65" transform="translate(63.623047 0)"/>
      <use xlink:href="#DejaVuSans-36" transform="translate(125.146484 0)"/>
     </g>
    </g>
   </g>
   <g id="matplotlib.axis_2">
    <g id="ytick_1">
     <g id="line2d_10">
      <defs>
       <path id="m2229fd6483" d="M 0 0 
L -3.5 0 
" style="stroke: #000000; stroke-width: 0.8"/>
      </defs>
      <g>
       <use xlink:href="#m2229fd6483" x="40.603125" y="287.684978" style="stroke: #000000; stroke-width: 0.8"/>
      </g>
     </g>
     <g id="text_12">
      <!-- 0 -->
      <g transform="translate(27.240625 291.484196) scale(0.1 -0.1)">
       <use xlink:href="#DejaVuSans-30"/>
      </g>
     </g>
    </g>
    <g id="ytick_2">
     <g id="line2d_11">
      <g>
       <use xlink:href="#m2229fd6483" x="40.603125" y="249.596974" style="stroke: #000000; stroke-width: 0.8"/>
      </g>
     </g>
     <g id="text_13">
      <!-- 5 -->
      <g transform="translate(27.240625 253.396193) scale(0.1 -0.1)">
       <use xlink:href="#DejaVuSans-35"/>
      </g>
     </g>
    </g>
    <g id="ytick_3">
     <g id="line2d_12">
      <g>
       <use xlink:href="#m2229fd6483" x="40.603125" y="211.50897" style="stroke: #000000; stroke-width: 0.8"/>
      </g>
     </g>
     <g id="text_14">
      <!-- 10 -->
      <g transform="translate(20.878125 215.308189) scale(0.1 -0.1)">
       <use xlink:href="#DejaVuSans-31"/>
       <use xlink:href="#DejaVuSans-30" transform="translate(63.623047 0)"/>
      </g>
     </g>
    </g>
    <g id="ytick_4">
     <g id="line2d_13">
      <g>
       <use xlink:href="#m2229fd6483" x="40.603125" y="173.420967" style="stroke: #000000; stroke-width: 0.8"/>
      </g>
     </g>
     <g id="text_15">
      <!-- 15 -->
      <g transform="translate(20.878125 177.220185) scale(0.1 -0.1)">
       <use xlink:href="#DejaVuSans-31"/>
       <use xlink:href="#DejaVuSans-35" transform="translate(63.623047 0)"/>
      </g>
     </g>
    </g>
    <g id="ytick_5">
     <g id="line2d_14">
      <g>
       <use xlink:href="#m2229fd6483" x="40.603125" y="135.332963" style="stroke: #000000; stroke-width: 0.8"/>
      </g>
     </g>
     <g id="text_16">
      <!-- 20 -->
      <g transform="translate(20.878125 139.132182) scale(0.1 -0.1)">
       <use xlink:href="#DejaVuSans-32"/>
       <use xlink:href="#DejaVuSans-30" transform="translate(63.623047 0)"/>
      </g>
     </g>
    </g>
    <g id="ytick_6">
     <g id="line2d_15">
      <g>
       <use xlink:href="#m2229fd6483" x="40.603125" y="97.244959" style="stroke: #000000; stroke-width: 0.8"/>
      </g>
     </g>
     <g id="text_17">
      <!-- 25 -->
      <g transform="translate(20.878125 101.044178) scale(0.1 -0.1)">
       <use xlink:href="#DejaVuSans-32"/>
       <use xlink:href="#DejaVuSans-35" transform="translate(63.623047 0)"/>
      </g>
     </g>
    </g>
    <g id="ytick_7">
     <g id="line2d_16">
      <g>
       <use xlink:href="#m2229fd6483" x="40.603125" y="59.156956" style="stroke: #000000; stroke-width: 0.8"/>
      </g>
     </g>
     <g id="text_18">
      <!-- 30 -->
      <g transform="translate(20.878125 62.956174) scale(0.1 -0.1)">
       <defs>
        <path id="DejaVuSans-33" d="M 2597 2516 
Q 3050 2419 3304 2112 
Q 3559 1806 3559 1356 
Q 3559 666 3084 287 
Q 2609 -91 1734 -91 
Q 1441 -91 1130 -33 
Q 819 25 488 141 
L 488 750 
Q 750 597 1062 519 
Q 1375 441 1716 441 
Q 2309 441 2620 675 
Q 2931 909 2931 1356 
Q 2931 1769 2642 2001 
Q 2353 2234 1838 2234 
L 1294 2234 
L 1294 2753 
L 1863 2753 
Q 2328 2753 2575 2939 
Q 2822 3125 2822 3475 
Q 2822 3834 2567 4026 
Q 2313 4219 1838 4219 
Q 1578 4219 1281 4162 
Q 984 4106 628 3988 
L 628 4550 
Q 988 4650 1302 4700 
Q 1616 4750 1894 4750 
Q 2613 4750 3031 4423 
Q 3450 4097 3450 3541 
Q 3450 3153 3228 2886 
Q 3006 2619 2597 2516 
z
" transform="scale(0.015625)"/>
       </defs>
       <use xlink:href="#DejaVuSans-33"/>
       <use xlink:href="#DejaVuSans-30" transform="translate(63.623047 0)"/>
      </g>
     </g>
    </g>
    <g id="text_19">
     <!-- right wheel theta, rtheta (rad) -->
     <g transform="translate(14.798438 236.26125) rotate(-90) scale(0.1 -0.1)">
      <defs>
       <path id="DejaVuSans-72" d="M 2631 2963 
Q 2534 3019 2420 3045 
Q 2306 3072 2169 3072 
Q 1681 3072 1420 2755 
Q 1159 2438 1159 1844 
L 1159 0 
L 581 0 
L 581 3500 
L 1159 3500 
L 1159 2956 
Q 1341 3275 1631 3429 
Q 1922 3584 2338 3584 
Q 2397 3584 2469 3576 
Q 2541 3569 2628 3553 
L 2631 2963 
z
" transform="scale(0.015625)"/>
       <path id="DejaVuSans-67" d="M 2906 1791 
Q 2906 2416 2648 2759 
Q 2391 3103 1925 3103 
Q 1463 3103 1205 2759 
Q 947 2416 947 1791 
Q 947 1169 1205 825 
Q 1463 481 1925 481 
Q 2391 481 2648 825 
Q 2906 1169 2906 1791 
z
M 3481 434 
Q 3481 -459 3084 -895 
Q 2688 -1331 1869 -1331 
Q 1566 -1331 1297 -1286 
Q 1028 -1241 775 -1147 
L 775 -588 
Q 1028 -725 1275 -790 
Q 1522 -856 1778 -856 
Q 2344 -856 2625 -561 
Q 2906 -266 2906 331 
L 2906 616 
Q 2728 306 2450 153 
Q 2172 0 1784 0 
Q 1141 0 747 490 
Q 353 981 353 1791 
Q 353 2603 747 3093 
Q 1141 3584 1784 3584 
Q 2172 3584 2450 3431 
Q 2728 3278 2906 2969 
L 2906 3500 
L 3481 3500 
L 3481 434 
z
" transform="scale(0.015625)"/>
       <path id="DejaVuSans-68" d="M 3513 2113 
L 3513 0 
L 2938 0 
L 2938 2094 
Q 2938 2591 2744 2837 
Q 2550 3084 2163 3084 
Q 1697 3084 1428 2787 
Q 1159 2491 1159 1978 
L 1159 0 
L 581 0 
L 581 4863 
L 1159 4863 
L 1159 2956 
Q 1366 3272 1645 3428 
Q 1925 3584 2291 3584 
Q 2894 3584 3203 3211 
Q 3513 2838 3513 2113 
z
" transform="scale(0.015625)"/>
       <path id="DejaVuSans-77" d="M 269 3500 
L 844 3500 
L 1563 769 
L 2278 3500 
L 2956 3500 
L 3675 769 
L 4391 3500 
L 4966 3500 
L 4050 0 
L 3372 0 
L 2619 2869 
L 1863 0 
L 1184 0 
L 269 3500 
z
" transform="scale(0.015625)"/>
       <path id="DejaVuSans-6c" d="M 603 4863 
L 1178 4863 
L 1178 0 
L 603 0 
L 603 4863 
z
" transform="scale(0.015625)"/>
       <path id="DejaVuSans-61" d="M 2194 1759 
Q 1497 1759 1228 1600 
Q 959 1441 959 1056 
Q 959 750 1161 570 
Q 1363 391 1709 391 
Q 2188 391 2477 730 
Q 2766 1069 2766 1631 
L 2766 1759 
L 2194 1759 
z
M 3341 1997 
L 3341 0 
L 2766 0 
L 2766 531 
Q 2569 213 2275 61 
Q 1981 -91 1556 -91 
Q 1019 -91 701 211 
Q 384 513 384 1019 
Q 384 1609 779 1909 
Q 1175 2209 1959 2209 
L 2766 2209 
L 2766 2266 
Q 2766 2663 2505 2880 
Q 2244 3097 1772 3097 
Q 1472 3097 1187 3025 
Q 903 2953 641 2809 
L 641 3341 
Q 956 3463 1253 3523 
Q 1550 3584 1831 3584 
Q 2591 3584 2966 3190 
Q 3341 2797 3341 1997 
z
" transform="scale(0.015625)"/>
       <path id="DejaVuSans-64" d="M 2906 2969 
L 2906 4863 
L 3481 4863 
L 3481 0 
L 2906 0 
L 2906 525 
Q 2725 213 2448 61 
Q 2172 -91 1784 -91 
Q 1150 -91 751 415 
Q 353 922 353 1747 
Q 353 2572 751 3078 
Q 1150 3584 1784 3584 
Q 2172 3584 2448 3432 
Q 2725 3281 2906 2969 
z
M 947 1747 
Q 947 1113 1208 752 
Q 1469 391 1925 391 
Q 2381 391 2643 752 
Q 2906 1113 2906 1747 
Q 2906 2381 2643 2742 
Q 2381 3103 1925 3103 
Q 1469 3103 1208 2742 
Q 947 2381 947 1747 
z
" transform="scale(0.015625)"/>
      </defs>
      <use xlink:href="#DejaVuSans-72"/>
      <use xlink:href="#DejaVuSans-69" transform="translate(41.113281 0)"/>
      <use xlink:href="#DejaVuSans-67" transform="translate(68.896484 0)"/>
      <use xlink:href="#DejaVuSans-68" transform="translate(132.373047 0)"/>
      <use xlink:href="#DejaVuSans-74" transform="translate(195.751953 0)"/>
      <use xlink:href="#DejaVuSans-20" transform="translate(234.960938 0)"/>
      <use xlink:href="#DejaVuSans-77" transform="translate(266.748047 0)"/>
      <use xlink:href="#DejaVuSans-68" transform="translate(348.535156 0)"/>
      <use xlink:href="#DejaVuSans-65" transform="translate(411.914062 0)"/>
      <use xlink:href="#DejaVuSans-65" transform="translate(473.4375 0)"/>
      <use xlink:href="#DejaVuSans-6c" transform="translate(534.960938 0)"/>
      <use xlink:href="#DejaVuSans-20" transform="translate(562.744141 0)"/>
      <use xlink:href="#DejaVuSans-74" transform="translate(594.53125 0)"/>
      <use xlink:href="#DejaVuSans-68" transform="translate(633.740234 0)"/>
      <use xlink:href="#DejaVuSans-65" transform="translate(697.119141 0)"/>
      <use xlink:href="#DejaVuSans-74" transform="translate(758.642578 0)"/>
      <use xlink:href="#DejaVuSans-61" transform="translate(797.851562 0)"/>
      <use xlink:href="#DejaVuSans-2c" transform="translate(859.130859 0)"/>
      <use xlink:href="#DejaVuSans-20" transform="translate(890.917969 0)"/>
      <use xlink:href="#DejaVuSans-72" transform="translate(922.705078 0)"/>
      <use xlink:href="#DejaVuSans-74" transform="translate(963.818359 0)"/>
      <use xlink:href="#DejaVuSans-68" transform="translate(1003.027344 0)"/>
      <use xlink:href="#DejaVuSans-65" transform="translate(1066.40625 0)"/>
      <use xlink:href="#DejaVuSans-74" transform="translate(1127.929688 0)"/>
      <use xlink:href="#DejaVuSans-61" transform="translate(1167.138672 0)"/>
      <use xlink:href="#DejaVuSans-20" transform="translate(1228.417969 0)"/>
      <use xlink:href="#DejaVuSans-28" transform="translate(1260.205078 0)"/>
      <use xlink:href="#DejaVuSans-72" transform="translate(1299.21875 0)"/>
      <use xlink:href="#DejaVuSans-61" transform="translate(1340.332031 0)"/>
      <use xlink:href="#DejaVuSans-64" transform="translate(1401.611328 0)"/>
      <use xlink:href="#DejaVuSans-29" transform="translate(1465.087891 0)"/>
     </g>
    </g>
   </g>
   <g id="line2d_17">
    <path d="M 59.02767 282.622568 
L 62.927375 281.88985 
L 66.070073 280.524332 
L 70.108974 278.159655 
L 74.113214 275.495224 
L 77.234342 273.430299 
L 81.272874 270.932396 
L 84.433824 269.067295 
L 88.455395 266.702624 
L 92.49282 264.204721 
L 95.646396 262.173092 
L 99.684744 259.475364 
L 102.845879 257.343823 
L 106.884042 254.579479 
L 110.921468 251.84844 
L 114.075228 249.683594 
L 118.11376 246.952554 
L 121.275448 244.821013 
L 125.31398 242.056677 
L 129.351775 239.325637 
L 132.506088 237.160791 
L 136.544436 234.396448 
L 139.706677 232.231602 
L 143.728985 229.467258 
L 147.766779 226.702915 
L 150.92054 224.538069 
L 154.958703 221.740421 
L 158.121129 219.575575 
L 162.160029 216.777928 
L 166.198008 213.98028 
L 169.352506 211.78213 
L 173.390485 208.984497 
L 176.536502 206.786363 
L 180.575034 204.022011 
L 184.613934 201.25766 
L 187.768432 199.059525 
L 191.7747 196.295174 
L 194.936757 194.130328 
L 198.960171 191.365977 
L 202.998334 188.601626 
L 206.152832 186.403491 
L 210.191733 183.605851 
L 213.354527 181.40764 
L 217.393428 178.643289 
L 221.431591 175.845649 
L 224.570602 173.647514 
L 228.609503 170.849874 
L 231.771007 168.685028 
L 235.810829 165.854099 
L 239.848623 163.056383 
L 243.003121 160.858248 
L 247.025982 158.093897 
L 250.217353 155.895762 
L 254.284831 153.098122 
L 258.353045 150.300482 
L 261.536304 148.102271 
L 265.604703 145.304631 
L 268.796812 143.073207 
L 272.849171 140.242202 
L 276.916833 137.377984 
L 280.100461 135.146484 
L 284.168122 132.315555 
L 287.35894 130.084131 
L 291.426418 127.253126 
L 294.531874 125.08828 
L 298.678445 122.190773 
L 302.745737 119.326479 
L 305.936556 117.095056 
L 310.003848 114.26405 
L 313.108936 112.13257 
L 317.241679 109.234987 
L 320.346767 107.070141 
L 324.485594 104.172558 
L 328.553071 101.341629 
L 331.658344 99.176783 
L 335.789611 96.312565 
L 338.879213 94.147719 
L 343.033342 91.250136 
L 346.138799 89.052001 
L 350.193739 86.220996 
L 354.340125 83.323489 
L 357.445028 81.158643 
L 361.599342 78.227771 
L 364.691893 76.062925 
L 368.759555 73.23192 
L 371.943551 71.000496 
L 376.011582 68.136202 
L 380.165342 65.238696 
L 383.256603 63.07385 
L 387.325002 60.242921 
L 390.495724 58.011421 
L 394.563754 55.180492 
L 397.754941 52.915703 
L 401.82334 50.084774 
L 405.890264 47.253769 
L 409.074445 45.055634 
L 413.142476 42.191416 
L 416.333847 39.959916 
L 420.401693 37.128987 
L 423.507703 34.930852 
" clip-path="url(#p7e07560868)" style="fill: none; stroke: #1f77b4; stroke-width: 1.5; stroke-linecap: square"/>
   </g>
   <g id="line2d_18">
    <path d="M 59.027855 283.088842 
L 62.943046 282.38943 
L 66.088326 281.023912 
L 70.111555 278.859065 
L 74.116348 276.660915 
L 77.221805 275.028951 
L 81.243744 272.964025 
L 85.367084 270.865788 
L 88.426633 269.300439 
L 92.465165 267.135593 
L 95.619663 265.403709 
L 99.659117 263.072342 
L 103.78301 260.707664 
L 106.858415 258.909171 
L 110.897316 256.577804 
L 114.018628 254.746007 
L 118.05716 252.414633 
L 122.181606 250.049955 
L 125.25738 248.284774 
L 129.296465 245.953399 
L 133.397865 243.555417 
L 136.473455 241.790236 
L 140.598454 239.392253 
L 143.674413 237.593768 
L 147.697826 235.262394 
L 151.814898 232.864411 
L 154.858223 231.09923 
L 158.967736 228.701248 
L 162.043326 226.936059 
L 166.066924 224.571381 
L 170.184364 222.140094 
L 173.212387 220.341609 
L 177.337571 217.87701 
L 180.413714 216.045213 
L 184.452614 213.613927 
L 188.569317 211.082689 
L 191.645275 209.250961 
L 195.771012 206.786363 
L 198.847708 204.954558 
L 202.886793 202.556537 
L 207.004049 200.125228 
L 210.064336 198.293423 
L 214.189704 195.828901 
L 218.195972 193.43088 
L 221.223626 191.599076 
L 225.341988 189.134477 
L 228.386051 187.302673 
L 232.495748 184.804785 
L 236.534465 182.340187 
L 239.610791 180.475093 
L 243.713114 178.043784 
L 246.819124 176.211979 
L 250.974728 173.714092 
L 255.044049 171.249493 
L 258.149874 169.351111 
L 262.297919 166.853224 
L 265.403929 164.98813 
L 269.545337 162.490243 
L 272.651162 160.625073 
L 276.720852 158.19384 
L 280.867975 155.729241 
L 283.973063 153.897437 
L 288.128483 151.399549 
L 291.234124 149.534456 
L 295.287221 147.103146 
L 298.471955 145.204764 
L 302.540907 142.740166 
L 306.681762 140.208913 
L 309.787219 138.34382 
L 313.856724 135.879221 
L 317.040721 133.94755 
L 321.095661 131.51624 
L 324.286663 129.617858 
L 328.355247 127.153259 
L 332.423277 124.688661 
L 335.606905 122.790202 
L 339.675857 120.325604 
L 342.867228 118.427222 
L 346.920325 115.995912 
L 350.026151 114.130819 
L 354.173643 111.599642 
L 358.228399 109.168333 
L 361.41977 107.303239 
L 365.473235 104.87193 
L 368.579061 103.006836 
L 372.726553 100.508949 
L 375.832194 98.643855 
L 379.987429 96.145968 
L 384.057487 93.681369 
L 387.168844 91.816276 
L 391.316152 89.318389 
L 394.421424 87.420006 
L 398.576475 84.922043 
L 401.6823 83.056949 
L 405.751253 80.592351 
L 409.89856 78.094463 
L 413.003833 76.22937 
L 417.159437 73.731483 
L 420.265262 71.8331 
L 424.334214 69.368502 
L 427.51858 67.436754 
" clip-path="url(#p7e07560868)" style="fill: none; stroke: #ff7f0e; stroke-width: 1.5; stroke-linecap: square"/>
   </g>
   <g id="line2d_19">
    <path d="M 59.030252 284.254528 
L 61.972545 283.821559 
L 66.04629 282.222904 
L 69.12188 280.724164 
L 73.143266 278.859065 
L 77.227151 277.193797 
L 80.270108 275.99481 
L 84.394186 274.296237 
L 88.415203 272.431136 
L 91.490977 270.999012 
L 95.607864 269.033991 
L 98.683453 267.535251 
L 102.807347 265.536933 
L 106.84385 263.605224 
L 109.918887 262.106484 
L 114.035221 260.14147 
L 117.110257 258.676034 
L 121.234151 256.711021 
L 125.271761 254.746007 
L 128.347166 253.247267 
L 132.4635 251.24895 
L 135.538905 249.75021 
L 139.663167 247.751892 
L 143.700408 245.753574 
L 146.759773 244.254834 
L 150.877029 242.223213 
L 153.937132 240.724473 
L 158.061394 238.659539 
L 162.099188 236.694526 
L 165.174778 235.195793 
L 169.291665 233.164164 
L 172.36707 231.63212 
L 176.475661 229.600498 
L 180.513456 227.60218 
L 183.589229 226.070136 
L 187.706301 224.038507 
L 191.744095 222.040189 
L 194.906152 220.441536 
L 198.945237 218.443219 
L 202.020642 216.911167 
L 206.138083 214.846241 
L 210.127205 212.847924 
L 213.289077 211.315864 
L 217.327609 209.317539 
L 220.404305 207.785487 
L 224.506074 205.720584 
L 228.527644 203.722259 
L 231.673661 202.156918 
L 235.712193 200.158593 
L 238.772112 198.626541 
L 242.889736 196.594927 
L 246.927715 194.563313 
L 250.118902 192.931318 
L 254.187485 190.899704 
L 257.293127 189.334363 
L 261.426607 187.26946 
L 265.494453 185.23777 
L 268.686193 183.63914 
L 272.754407 181.607526 
L 275.859495 180.042185 
L 279.976936 177.977206 
L 283.083499 176.411865 
L 287.225644 174.346962 
L 291.293859 172.315348 
L 294.399131 170.750007 
L 298.546439 168.685028 
L 301.652449 167.119687 
L 305.791828 165.088073 
L 308.882167 163.556021 
L 312.950751 161.524407 
L 317.097136 159.459504 
L 320.201671 157.894163 
L 324.356538 155.795895 
L 327.461995 154.230554 
L 331.517304 152.232229 
L 334.672355 150.666888 
L 338.740938 148.601909 
L 342.895068 146.503717 
L 345.999971 144.9383 
L 350.068739 142.906686 
L 353.25292 141.308057 
L 357.320766 139.276442 
L 360.512506 137.677813 
L 364.581642 135.646122 
L 368.649304 133.614508 
L 371.832747 131.98259 
L 375.901331 129.984265 
L 379.092333 128.385635 
L 383.160179 126.320656 
L 386.265636 124.755315 
L 390.413128 122.657047 
L 394.467331 120.625433 
L 397.644875 119.026803 
L 401.699631 116.995189 
L 404.80435 115.496426 
L 408.951473 113.431523 
L 412.056377 111.899471 
L 416.21069 109.801203 
L 420.278536 107.769589 
L 423.369797 106.204248 
L 427.517289 104.10598 
" clip-path="url(#p7e07560868)" style="fill: none; stroke: #2ca02c; stroke-width: 1.5; stroke-linecap: square"/>
   </g>
   <g id="line2d_20">
    <path d="M 59.030252 285.286994 
L 62.934196 284.720803 
L 66.00997 283.754949 
L 70.127226 282.289514 
L 73.203184 281.257049 
L 77.328737 279.924836 
L 81.365609 278.592625 
L 84.441199 277.560158 
L 88.541862 276.094722 
L 91.601043 274.995647 
L 95.725858 273.430299 
L 99.746691 271.898247 
L 102.82099 270.732563 
L 106.937508 269.167215 
L 110.958341 267.635171 
L 114.119292 266.402871 
L 118.15727 264.870827 
L 121.232307 263.671832 
L 125.349747 262.106484 
L 129.386804 260.574439 
L 132.548308 259.34214 
L 136.586656 257.810096 
L 139.661692 256.611101 
L 143.778395 255.012448 
L 147.816374 253.447092 
L 150.978431 252.214801 
L 155.017147 250.61614 
L 158.092183 249.383841 
L 162.210177 247.751877 
L 166.247418 246.186528 
L 169.409106 244.920925 
L 173.448007 243.322272 
L 176.522674 242.123277 
L 180.639746 240.524625 
L 184.676803 238.925965 
L 187.822267 237.660361 
L 191.84439 236.061709 
L 194.920164 234.829409 
L 199.03742 233.230749 
L 203.075215 231.598793 
L 206.220679 230.366493 
L 210.242802 228.767833 
L 213.318391 227.50223 
L 217.435463 225.903577 
L 221.472889 224.27162 
L 224.634208 223.006017 
L 228.67274 221.37406 
L 231.74833 220.175073 
L 235.865217 218.509804 
L 239.903011 216.911144 
L 243.048475 215.645548 
L 247.087007 214.013592 
L 250.192464 212.781292 
L 254.339772 211.149343 
L 258.406696 209.550637 
L 261.598251 208.318338 
L 265.667019 206.653131 
L 268.772476 205.420831 
L 272.91923 203.755548 
L 276.024503 202.48996 
L 280.179369 200.824676 
L 284.246662 199.159392 
L 287.35175 197.927093 
L 291.499242 196.261809 
L 294.604146 195.02951 
L 298.758644 193.364302 
L 301.864654 192.132003 
L 305.91941 190.466719 
L 310.065427 188.801436 
L 313.171068 187.569136 
L 317.310263 185.903853 
L 320.402261 184.671553 
L 324.471029 183.039635 
L 327.641751 181.774047 
L 331.71015 180.142052 
L 335.864648 178.476768 
L 338.954618 177.21118 
L 343.023017 175.61255 
L 346.191158 174.313597 
L 350.246836 172.714967 
L 353.438576 171.449379 
L 357.507344 169.784095 
L 361.575743 168.152177 
L 364.746834 166.886513 
L 368.815049 165.221305 
L 372.006789 163.989006 
L 376.075188 162.3903 
L 380.142481 160.758381 
L 383.326293 159.492793 
L 387.394692 157.860798 
L 390.586063 156.561921 
L 394.653909 154.929926 
L 397.75955 153.697627 
L 401.906858 152.032343 
L 405.012683 150.80012 
L 409.167919 149.134837 
L 413.235027 147.469553 
L 416.3403 146.237254 
L 420.487792 144.538681 
L 423.593433 143.306382 
" clip-path="url(#p7e07560868)" style="fill: none; stroke: #d62728; stroke-width: 1.5; stroke-linecap: square"/>
   </g>
   <g id="line2d_21">
    <path d="M 59.029883 286.452681 
L 61.989138 286.219543 
L 65.990981 285.320299 
L 69.128517 284.520971 
L 73.166127 283.555117 
L 77.288914 282.589263 
L 80.396767 281.82324 
L 84.467195 280.724164 
L 87.637179 279.824924 
L 91.674421 278.692537 
L 95.797208 277.560158 
L 98.871875 276.660915 
L 102.893261 275.528536 
L 106.047206 274.629286 
L 110.085185 273.496907 
L 114.207603 272.297919 
L 117.282824 271.431981 
L 121.320434 270.26629 
L 124.480278 269.367047 
L 128.517704 268.201364 
L 132.624267 267.002369 
L 135.699119 266.103126 
L 139.736913 264.937443 
L 142.890121 264.004889 
L 146.928099 262.839205 
L 151.051071 261.64021 
L 154.126291 260.740968 
L 158.164639 259.508668 
L 161.318399 258.576122 
L 165.356563 257.410438 
L 169.479718 256.178139 
L 172.55457 255.278897 
L 176.592549 254.079902 
L 179.745941 253.147355 
L 183.783551 251.94836 
L 187.906891 250.71606 
L 190.982112 249.816818 
L 195.004419 248.584519 
L 198.14214 247.651972 
L 202.163895 246.486281 
L 206.287972 245.287294 
L 209.363377 244.388043 
L 213.40154 243.189056 
L 216.555485 242.256502 
L 220.577424 241.057514 
L 224.701133 239.791911 
L 227.776538 238.859356 
L 231.79903 237.660361 
L 235.914996 236.42807 
L 238.973992 235.528819 
L 243.099729 234.263216 
L 246.174765 233.330669 
L 250.243533 232.131674 
L 253.428267 231.199127 
L 257.496482 229.966828 
L 261.650242 228.701225 
L 264.755515 227.768678 
L 268.823176 226.569691 
L 272.00662 225.603832 
L 276.075019 224.371533 
L 279.26639 223.405674 
L 283.335158 222.206687 
L 287.403188 220.974388 
L 290.586447 220.041841 
L 294.654662 218.809542 
L 297.845849 217.843683 
L 301.901342 216.611384 
L 305.96882 215.412396 
L 309.152447 214.479842 
L 313.208125 213.247543 
L 316.370367 212.281692 
L 320.438766 211.0494 
L 323.544222 210.116854 
L 327.691161 208.917843 
L 331.758823 207.685544 
L 334.950747 206.719709 
L 339.019146 205.487409 
L 342.124419 204.554863 
L 346.255687 203.289274 
L 349.347685 202.356728 
L 353.502182 201.091063 
L 357.570766 199.892129 
L 360.644327 198.992871 
L 364.791266 197.760572 
L 367.883264 196.828025 
L 372.0385 195.629015 
L 375.143956 194.696468 
L 379.212724 193.43088 
L 383.32998 192.198581 
L 386.435621 191.266034 
L 390.591041 190.033735 
L 393.696313 189.067899 
L 397.765266 187.8356 
L 400.949631 186.869688 
L 405.018952 185.637389 
L 409.173265 184.405166 
L 412.278722 183.472543 
L 416.347674 182.240244 
L 419.532039 181.274408 
L 423.600807 180.042109 
L 426.792363 179.076273 
" clip-path="url(#p7e07560868)" style="fill: none; stroke: #9467bd; stroke-width: 1.5; stroke-linecap: square"/>
   </g>
   <g id="line2d_22">
    <path d="M 59.030067 287.185398 
L 62.028407 286.985566 
L 66.047397 286.452681 
L 70.162993 285.919795 
L 73.237477 285.520131 
L 77.362107 284.854024 
L 80.469776 284.254528 
L 84.524717 283.521812 
L 88.672946 282.789094 
L 91.780984 282.222904 
L 95.938063 281.456881 
L 99.029508 280.89069 
L 103.100119 280.157973 
L 107.215716 279.425259 
L 110.290384 278.859065 
L 114.414277 278.09304 
L 117.489129 277.49355 
L 121.527108 276.760828 
L 125.643257 275.99481 
L 128.71811 275.428616 
L 132.842556 274.629286 
L 135.885881 274.029796 
L 139.924597 273.297074 
L 144.040563 272.531056 
L 147.083704 271.931558 
L 151.207597 271.165532 
L 154.266409 270.599347 
L 158.304204 269.833321 
L 162.419616 269.033998 
L 165.494837 268.467805 
L 169.618914 267.668475 
L 172.693951 267.068985 
L 176.731376 266.269655 
L 180.846973 265.470325 
L 183.922563 264.870827 
L 188.04664 264.038193 
L 191.105821 263.438695 
L 195.143984 262.639373 
L 199.243541 261.840043 
L 202.318762 261.207241 
L 206.443024 260.407911 
L 209.518798 259.808413 
L 213.557145 259.009091 
L 217.673664 258.209761 
L 220.749253 257.576959 
L 224.872962 256.777629 
L 228.893979 255.978299 
L 231.968831 255.345505 
L 236.085165 254.546175 
L 239.160017 253.913373 
L 243.284648 253.114043 
L 246.389736 252.481249 
L 250.457397 251.681919 
L 254.589218 250.882589 
L 257.6932 250.283091 
L 261.831658 249.417153 
L 264.936562 248.817663 
L 269.003486 247.985029 
L 273.14895 247.152394 
L 276.253669 246.552897 
L 280.407245 245.720263 
L 283.512149 245.087461 
L 287.579811 244.288131 
L 290.763807 243.655337 
L 294.831838 242.856007 
L 298.007353 242.223205 
L 302.075752 241.423875 
L 306.142676 240.591241 
L 309.325751 239.925135 
L 313.378479 239.125812 
L 316.555654 238.493011 
L 320.623685 237.693681 
L 324.690977 236.861046 
L 327.874974 236.228245 
L 331.943373 235.428922 
L 335.118889 234.79612 
L 339.186182 233.963486 
L 342.291454 233.330685 
L 346.437656 232.49805 
L 350.489093 231.69872 
L 353.686548 231.032614 
L 357.754579 230.233292 
L 360.859298 229.60049 
L 365.005684 228.767856 
L 368.097866 228.168358 
L 372.236693 227.335724 
L 376.303617 226.536402 
L 379.408521 225.9036 
L 383.554906 225.070973 
L 386.659626 224.471476 
L 390.813755 223.638842 
L 393.919396 223.039344 
L 397.987242 222.206717 
L 402.119616 221.407387 
L 405.22452 220.80789 
L 409.379017 219.975256 
L 412.484474 219.30915 
L 416.552136 218.50982 
L 419.736132 217.877018 
L 423.804347 217.044391 
" clip-path="url(#p7e07560868)" style="fill: none; stroke: #8c564b; stroke-width: 1.5; stroke-linecap: square"/>
   </g>
   <g id="line2d_23">
    <path d="M 59.030436 281.490186 
L 62.949499 281.390271 
L 65.988215 281.223744 
L 70.018266 281.057217 
L 74.00241 280.857385 
L 77.111185 280.624247 
L 81.097173 280.291195 
L 84.152298 280.058061 
L 88.216457 279.758308 
L 92.216272 279.458563 
L 95.325784 279.192115 
L 99.295916 278.89237 
L 103.296285 278.592625 
L 106.413541 278.359488 
L 110.414831 277.993127 
L 114.501298 277.66007 
L 117.540567 277.39363 
L 121.54241 277.027269 
L 125.606937 276.69422 
L 128.629614 276.427779 
L 132.717556 276.061418 
L 135.757563 275.794977 
L 139.75959 275.428616 
L 143.839789 275.028951 
L 146.879242 274.76251 
L 154.968843 273.96318 
L 158.007559 273.663435 
L 162.087942 273.26377 
L 166.089601 272.897409 
L 169.214969 272.597664 
L 173.216812 272.197999 
L 177.20114 271.831638 
L 180.318765 271.498589 
L 184.32024 271.132228 
L 187.445608 270.832483 
L 191.396197 270.432818 
L 195.397856 270.066457 
L 198.498703 269.733408 
L 202.500915 269.367047 
L 206.587751 268.934078 
L 209.626283 268.667637 
L 213.596046 268.267972 
L 217.675876 267.835003 
L 220.714961 267.535251 
L 224.802903 267.135586 
L 228.787969 266.735921 
L 231.827422 266.402871 
L 235.907805 266.036511 
L 239.908542 265.636845 
L 243.033726 265.3371 
L 247.035569 264.937435 
L 250.105075 264.63769 
L 254.20205 264.204721 
L 258.233207 263.805056 
L 261.388627 263.505304 
L 265.420522 263.072334 
L 269.451126 262.672669 
L 272.598987 262.372924 
L 276.631803 261.973259 
L 279.787408 261.64021 
L 283.819671 261.240545 
L 287.851013 260.84088 
L 290.998505 260.541135 
L 295.030215 260.108166 
L 298.185635 259.808413 
L 302.217898 259.408748 
L 306.232831 258.975779 
L 309.380692 258.676034 
L 313.412771 258.276369 
L 316.568191 257.94332 
L 320.599533 257.576959 
L 324.631059 257.177294 
L 327.778551 256.844245 
L 331.81063 256.44458 
L 334.965312 256.144827 
L 338.997022 255.711858 
L 343.013983 255.345497 
L 346.161844 255.012448 
L 350.194292 254.612783 
L 353.333119 254.313031 
L 357.332934 253.913366 
L 361.364276 253.513701 
L 364.512505 253.213956 
L 368.544769 252.780986 
L 372.662025 252.381321 
L 375.730977 252.048265 
L 379.762872 251.6486 
L 382.911286 251.348855 
L 386.943549 250.94919 
L 391.060805 250.549524 
L 394.13031 250.216468 
L 398.162205 249.816803 
L 401.309697 249.483754 
L 405.342145 249.084089 
L 409.459585 248.684423 
L 412.529275 248.384671 
L 416.547711 247.951702 
L 419.695203 247.651957 
L 423.727282 247.252292 
" clip-path="url(#p7e07560868)" style="fill: none; stroke: #e377c2; stroke-width: 1.5; stroke-linecap: square"/>
   </g>
   <g id="patch_3">
    <path d="M 40.603125 299.798125 
L 40.603125 22.318125 
" style="fill: none; stroke: #000000; stroke-width: 0.8; stroke-linejoin: miter; stroke-linecap: square"/>
   </g>
   <g id="patch_4">
    <path d="M 445.943125 299.798125 
L 445.943125 22.318125 
" style="fill: none; stroke: #000000; stroke-width: 0.8; stroke-linejoin: miter; stroke-linecap: square"/>
   </g>
   <g id="patch_5">
    <path d="M 40.603125 299.798125 
L 445.943125 299.798125 
" style="fill: none; stroke: #000000; stroke-width: 0.8; stroke-linejoin: miter; stroke-linecap: square"/>
   </g>
   <g id="patch_6">
    <path d="M 40.603125 22.318125 
L 445.943125 22.318125 
" style="fill: none; stroke: #000000; stroke-width: 0.8; stroke-linejoin: miter; stroke-linecap: square"/>
   </g>
   <g id="text_20">
    <!-- right theta vs. time -->
    <g transform="translate(185.440625 16.318125) scale(0.12 -0.12)">
     <defs>
      <path id="DejaVuSans-76" d="M 191 3500 
L 800 3500 
L 1894 563 
L 2988 3500 
L 3597 3500 
L 2284 0 
L 1503 0 
L 191 3500 
z
" transform="scale(0.015625)"/>
     </defs>
     <use xlink:href="#DejaVuSans-72"/>
     <use xlink:href="#DejaVuSans-69" transform="translate(41.113281 0)"/>
     <use xlink:href="#DejaVuSans-67" transform="translate(68.896484 0)"/>
     <use xlink:href="#DejaVuSans-68" transform="translate(132.373047 0)"/>
     <use xlink:href="#DejaVuSans-74" transform="translate(195.751953 0)"/>
     <use xlink:href="#DejaVuSans-20" transform="translate(234.960938 0)"/>
     <use xlink:href="#DejaVuSans-74" transform="translate(266.748047 0)"/>
     <use xlink:href="#DejaVuSans-68" transform="translate(305.957031 0)"/>
     <use xlink:href="#DejaVuSans-65" transform="translate(369.335938 0)"/>
     <use xlink:href="#DejaVuSans-74" transform="translate(430.859375 0)"/>
     <use xlink:href="#DejaVuSans-61" transform="translate(470.068359 0)"/>
     <use xlink:href="#DejaVuSans-20" transform="translate(531.347656 0)"/>
     <use xlink:href="#DejaVuSans-76" transform="translate(563.134766 0)"/>
     <use xlink:href="#DejaVuSans-73" transform="translate(622.314453 0)"/>
     <use xlink:href="#DejaVuSans-2e" transform="translate(674.414062 0)"/>
     <use xlink:href="#DejaVuSans-20" transform="translate(706.201172 0)"/>
     <use xlink:href="#DejaVuSans-74" transform="translate(737.988281 0)"/>
     <use xlink:href="#DejaVuSans-69" transform="translate(777.197266 0)"/>
     <use xlink:href="#DejaVuSans-6d" transform="translate(804.980469 0)"/>
     <use xlink:href="#DejaVuSans-65" transform="translate(902.392578 0)"/>
    </g>
   </g>
   <g id="legend_1">
    <g id="patch_7">
     <path d="M 47.603125 133.065 
L 164.128125 133.065 
Q 166.128125 133.065 166.128125 131.065 
L 166.128125 29.318125 
Q 166.128125 27.318125 164.128125 27.318125 
L 47.603125 27.318125 
Q 45.603125 27.318125 45.603125 29.318125 
L 45.603125 131.065 
Q 45.603125 133.065 47.603125 133.065 
z
" style="fill: #ffffff; opacity: 0.8; stroke: #cccccc; stroke-linejoin: miter"/>
    </g>
    <g id="line2d_24">
     <path d="M 49.603125 35.416563 
L 59.603125 35.416563 
L 69.603125 35.416563 
" style="fill: none; stroke: #1f77b4; stroke-width: 1.5; stroke-linecap: square"/>
    </g>
    <g id="text_21">
     <!-- Ref Speed = 595 -->
     <g transform="translate(77.603125 38.916563) scale(0.1 -0.1)">
      <defs>
       <path id="DejaVuSans-52" d="M 2841 2188 
Q 3044 2119 3236 1894 
Q 3428 1669 3622 1275 
L 4263 0 
L 3584 0 
L 2988 1197 
Q 2756 1666 2539 1819 
Q 2322 1972 1947 1972 
L 1259 1972 
L 1259 0 
L 628 0 
L 628 4666 
L 2053 4666 
Q 2853 4666 3247 4331 
Q 3641 3997 3641 3322 
Q 3641 2881 3436 2590 
Q 3231 2300 2841 2188 
z
M 1259 4147 
L 1259 2491 
L 2053 2491 
Q 2509 2491 2742 2702 
Q 2975 2913 2975 3322 
Q 2975 3731 2742 3939 
Q 2509 4147 2053 4147 
L 1259 4147 
z
" transform="scale(0.015625)"/>
       <path id="DejaVuSans-66" d="M 2375 4863 
L 2375 4384 
L 1825 4384 
Q 1516 4384 1395 4259 
Q 1275 4134 1275 3809 
L 1275 3500 
L 2222 3500 
L 2222 3053 
L 1275 3053 
L 1275 0 
L 697 0 
L 697 3053 
L 147 3053 
L 147 3500 
L 697 3500 
L 697 3744 
Q 697 4328 969 4595 
Q 1241 4863 1831 4863 
L 2375 4863 
z
" transform="scale(0.015625)"/>
       <path id="DejaVuSans-53" d="M 3425 4513 
L 3425 3897 
Q 3066 4069 2747 4153 
Q 2428 4238 2131 4238 
Q 1616 4238 1336 4038 
Q 1056 3838 1056 3469 
Q 1056 3159 1242 3001 
Q 1428 2844 1947 2747 
L 2328 2669 
Q 3034 2534 3370 2195 
Q 3706 1856 3706 1288 
Q 3706 609 3251 259 
Q 2797 -91 1919 -91 
Q 1588 -91 1214 -16 
Q 841 59 441 206 
L 441 856 
Q 825 641 1194 531 
Q 1563 422 1919 422 
Q 2459 422 2753 634 
Q 3047 847 3047 1241 
Q 3047 1584 2836 1778 
Q 2625 1972 2144 2069 
L 1759 2144 
Q 1053 2284 737 2584 
Q 422 2884 422 3419 
Q 422 4038 858 4394 
Q 1294 4750 2059 4750 
Q 2388 4750 2728 4690 
Q 3069 4631 3425 4513 
z
" transform="scale(0.015625)"/>
       <path id="DejaVuSans-70" d="M 1159 525 
L 1159 -1331 
L 581 -1331 
L 581 3500 
L 1159 3500 
L 1159 2969 
Q 1341 3281 1617 3432 
Q 1894 3584 2278 3584 
Q 2916 3584 3314 3078 
Q 3713 2572 3713 1747 
Q 3713 922 3314 415 
Q 2916 -91 2278 -91 
Q 1894 -91 1617 61 
Q 1341 213 1159 525 
z
M 3116 1747 
Q 3116 2381 2855 2742 
Q 2594 3103 2138 3103 
Q 1681 3103 1420 2742 
Q 1159 2381 1159 1747 
Q 1159 1113 1420 752 
Q 1681 391 2138 391 
Q 2594 391 2855 752 
Q 3116 1113 3116 1747 
z
" transform="scale(0.015625)"/>
       <path id="DejaVuSans-3d" d="M 678 2906 
L 4684 2906 
L 4684 2381 
L 678 2381 
L 678 2906 
z
M 678 1631 
L 4684 1631 
L 4684 1100 
L 678 1100 
L 678 1631 
z
" transform="scale(0.015625)"/>
       <path id="DejaVuSans-39" d="M 703 97 
L 703 672 
Q 941 559 1184 500 
Q 1428 441 1663 441 
Q 2288 441 2617 861 
Q 2947 1281 2994 2138 
Q 2813 1869 2534 1725 
Q 2256 1581 1919 1581 
Q 1219 1581 811 2004 
Q 403 2428 403 3163 
Q 403 3881 828 4315 
Q 1253 4750 1959 4750 
Q 2769 4750 3195 4129 
Q 3622 3509 3622 2328 
Q 3622 1225 3098 567 
Q 2575 -91 1691 -91 
Q 1453 -91 1209 -44 
Q 966 3 703 97 
z
M 1959 2075 
Q 2384 2075 2632 2365 
Q 2881 2656 2881 3163 
Q 2881 3666 2632 3958 
Q 2384 4250 1959 4250 
Q 1534 4250 1286 3958 
Q 1038 3666 1038 3163 
Q 1038 2656 1286 2365 
Q 1534 2075 1959 2075 
z
" transform="scale(0.015625)"/>
      </defs>
      <use xlink:href="#DejaVuSans-52"/>
      <use xlink:href="#DejaVuSans-65" transform="translate(64.982422 0)"/>
      <use xlink:href="#DejaVuSans-66" transform="translate(126.505859 0)"/>
      <use xlink:href="#DejaVuSans-20" transform="translate(161.710938 0)"/>
      <use xlink:href="#DejaVuSans-53" transform="translate(193.498047 0)"/>
      <use xlink:href="#DejaVuSans-70" transform="translate(256.974609 0)"/>
      <use xlink:href="#DejaVuSans-65" transform="translate(320.451172 0)"/>
      <use xlink:href="#DejaVuSans-65" transform="translate(381.974609 0)"/>
      <use xlink:href="#DejaVuSans-64" transform="translate(443.498047 0)"/>
      <use xlink:href="#DejaVuSans-20" transform="translate(506.974609 0)"/>
      <use xlink:href="#DejaVuSans-3d" transform="translate(538.761719 0)"/>
      <use xlink:href="#DejaVuSans-20" transform="translate(622.550781 0)"/>
      <use xlink:href="#DejaVuSans-35" transform="translate(654.337891 0)"/>
      <use xlink:href="#DejaVuSans-39" transform="translate(717.960938 0)"/>
      <use xlink:href="#DejaVuSans-35" transform="translate(781.583984 0)"/>
     </g>
    </g>
    <g id="line2d_25">
     <path d="M 49.603125 50.094688 
L 59.603125 50.094688 
L 69.603125 50.094688 
" style="fill: none; stroke: #ff7f0e; stroke-width: 1.5; stroke-linecap: square"/>
    </g>
    <g id="text_22">
     <!-- Ref Speed = 510 -->
     <g transform="translate(77.603125 53.594688) scale(0.1 -0.1)">
      <use xlink:href="#DejaVuSans-52"/>
      <use xlink:href="#DejaVuSans-65" transform="translate(64.982422 0)"/>
      <use xlink:href="#DejaVuSans-66" transform="translate(126.505859 0)"/>
      <use xlink:href="#DejaVuSans-20" transform="translate(161.710938 0)"/>
      <use xlink:href="#DejaVuSans-53" transform="translate(193.498047 0)"/>
      <use xlink:href="#DejaVuSans-70" transform="translate(256.974609 0)"/>
      <use xlink:href="#DejaVuSans-65" transform="translate(320.451172 0)"/>
      <use xlink:href="#DejaVuSans-65" transform="translate(381.974609 0)"/>
      <use xlink:href="#DejaVuSans-64" transform="translate(443.498047 0)"/>
      <use xlink:href="#DejaVuSans-20" transform="translate(506.974609 0)"/>
      <use xlink:href="#DejaVuSans-3d" transform="translate(538.761719 0)"/>
      <use xlink:href="#DejaVuSans-20" transform="translate(622.550781 0)"/>
      <use xlink:href="#DejaVuSans-35" transform="translate(654.337891 0)"/>
      <use xlink:href="#DejaVuSans-31" transform="translate(717.960938 0)"/>
      <use xlink:href="#DejaVuSans-30" transform="translate(781.583984 0)"/>
     </g>
    </g>
    <g id="line2d_26">
     <path d="M 49.603125 64.772813 
L 59.603125 64.772813 
L 69.603125 64.772813 
" style="fill: none; stroke: #2ca02c; stroke-width: 1.5; stroke-linecap: square"/>
    </g>
    <g id="text_23">
     <!-- Ref Speed = 425 -->
     <g transform="translate(77.603125 68.272813) scale(0.1 -0.1)">
      <defs>
       <path id="DejaVuSans-34" d="M 2419 4116 
L 825 1625 
L 2419 1625 
L 2419 4116 
z
M 2253 4666 
L 3047 4666 
L 3047 1625 
L 3713 1625 
L 3713 1100 
L 3047 1100 
L 3047 0 
L 2419 0 
L 2419 1100 
L 313 1100 
L 313 1709 
L 2253 4666 
z
" transform="scale(0.015625)"/>
      </defs>
      <use xlink:href="#DejaVuSans-52"/>
      <use xlink:href="#DejaVuSans-65" transform="translate(64.982422 0)"/>
      <use xlink:href="#DejaVuSans-66" transform="translate(126.505859 0)"/>
      <use xlink:href="#DejaVuSans-20" transform="translate(161.710938 0)"/>
      <use xlink:href="#DejaVuSans-53" transform="translate(193.498047 0)"/>
      <use xlink:href="#DejaVuSans-70" transform="translate(256.974609 0)"/>
      <use xlink:href="#DejaVuSans-65" transform="translate(320.451172 0)"/>
      <use xlink:href="#DejaVuSans-65" transform="translate(381.974609 0)"/>
      <use xlink:href="#DejaVuSans-64" transform="translate(443.498047 0)"/>
      <use xlink:href="#DejaVuSans-20" transform="translate(506.974609 0)"/>
      <use xlink:href="#DejaVuSans-3d" transform="translate(538.761719 0)"/>
      <use xlink:href="#DejaVuSans-20" transform="translate(622.550781 0)"/>
      <use xlink:href="#DejaVuSans-34" transform="translate(654.337891 0)"/>
      <use xlink:href="#DejaVuSans-32" transform="translate(717.960938 0)"/>
      <use xlink:href="#DejaVuSans-35" transform="translate(781.583984 0)"/>
     </g>
    </g>
    <g id="line2d_27">
     <path d="M 49.603125 79.450938 
L 59.603125 79.450938 
L 69.603125 79.450938 
" style="fill: none; stroke: #d62728; stroke-width: 1.5; stroke-linecap: square"/>
    </g>
    <g id="text_24">
     <!-- Ref Speed = 340 -->
     <g transform="translate(77.603125 82.950938) scale(0.1 -0.1)">
      <use xlink:href="#DejaVuSans-52"/>
      <use xlink:href="#DejaVuSans-65" transform="translate(64.982422 0)"/>
      <use xlink:href="#DejaVuSans-66" transform="translate(126.505859 0)"/>
      <use xlink:href="#DejaVuSans-20" transform="translate(161.710938 0)"/>
      <use xlink:href="#DejaVuSans-53" transform="translate(193.498047 0)"/>
      <use xlink:href="#DejaVuSans-70" transform="translate(256.974609 0)"/>
      <use xlink:href="#DejaVuSans-65" transform="translate(320.451172 0)"/>
      <use xlink:href="#DejaVuSans-65" transform="translate(381.974609 0)"/>
      <use xlink:href="#DejaVuSans-64" transform="translate(443.498047 0)"/>
      <use xlink:href="#DejaVuSans-20" transform="translate(506.974609 0)"/>
      <use xlink:href="#DejaVuSans-3d" transform="translate(538.761719 0)"/>
      <use xlink:href="#DejaVuSans-20" transform="translate(622.550781 0)"/>
      <use xlink:href="#DejaVuSans-33" transform="translate(654.337891 0)"/>
      <use xlink:href="#DejaVuSans-34" transform="translate(717.960938 0)"/>
      <use xlink:href="#DejaVuSans-30" transform="translate(781.583984 0)"/>
     </g>
    </g>
    <g id="line2d_28">
     <path d="M 49.603125 94.129063 
L 59.603125 94.129063 
L 69.603125 94.129063 
" style="fill: none; stroke: #9467bd; stroke-width: 1.5; stroke-linecap: square"/>
    </g>
    <g id="text_25">
     <!-- Ref Speed = 255 -->
     <g transform="translate(77.603125 97.629063) scale(0.1 -0.1)">
      <use xlink:href="#DejaVuSans-52"/>
      <use xlink:href="#DejaVuSans-65" transform="translate(64.982422 0)"/>
      <use xlink:href="#DejaVuSans-66" transform="translate(126.505859 0)"/>
      <use xlink:href="#DejaVuSans-20" transform="translate(161.710938 0)"/>
      <use xlink:href="#DejaVuSans-53" transform="translate(193.498047 0)"/>
      <use xlink:href="#DejaVuSans-70" transform="translate(256.974609 0)"/>
      <use xlink:href="#DejaVuSans-65" transform="translate(320.451172 0)"/>
      <use xlink:href="#DejaVuSans-65" transform="translate(381.974609 0)"/>
      <use xlink:href="#DejaVuSans-64" transform="translate(443.498047 0)"/>
      <use xlink:href="#DejaVuSans-20" transform="translate(506.974609 0)"/>
      <use xlink:href="#DejaVuSans-3d" transform="translate(538.761719 0)"/>
      <use xlink:href="#DejaVuSans-20" transform="translate(622.550781 0)"/>
      <use xlink:href="#DejaVuSans-32" transform="translate(654.337891 0)"/>
      <use xlink:href="#DejaVuSans-35" transform="translate(717.960938 0)"/>
      <use xlink:href="#DejaVuSans-35" transform="translate(781.583984 0)"/>
     </g>
    </g>
    <g id="line2d_29">
     <path d="M 49.603125 108.807188 
L 59.603125 108.807188 
L 69.603125 108.807188 
" style="fill: none; stroke: #8c564b; stroke-width: 1.5; stroke-linecap: square"/>
    </g>
    <g id="text_26">
     <!-- Ref Speed = 170 -->
     <g transform="translate(77.603125 112.307188) scale(0.1 -0.1)">
      <use xlink:href="#DejaVuSans-52"/>
      <use xlink:href="#DejaVuSans-65" transform="translate(64.982422 0)"/>
      <use xlink:href="#DejaVuSans-66" transform="translate(126.505859 0)"/>
      <use xlink:href="#DejaVuSans-20" transform="translate(161.710938 0)"/>
      <use xlink:href="#DejaVuSans-53" transform="translate(193.498047 0)"/>
      <use xlink:href="#DejaVuSans-70" transform="translate(256.974609 0)"/>
      <use xlink:href="#DejaVuSans-65" transform="translate(320.451172 0)"/>
      <use xlink:href="#DejaVuSans-65" transform="translate(381.974609 0)"/>
      <use xlink:href="#DejaVuSans-64" transform="translate(443.498047 0)"/>
      <use xlink:href="#DejaVuSans-20" transform="translate(506.974609 0)"/>
      <use xlink:href="#DejaVuSans-3d" transform="translate(538.761719 0)"/>
      <use xlink:href="#DejaVuSans-20" transform="translate(622.550781 0)"/>
      <use xlink:href="#DejaVuSans-31" transform="translate(654.337891 0)"/>
      <use xlink:href="#DejaVuSans-37" transform="translate(717.960938 0)"/>
      <use xlink:href="#DejaVuSans-30" transform="translate(781.583984 0)"/>
     </g>
    </g>
    <g id="line2d_30">
     <path d="M 49.603125 123.485313 
L 59.603125 123.485313 
L 69.603125 123.485313 
" style="fill: none; stroke: #e377c2; stroke-width: 1.5; stroke-linecap: square"/>
    </g>
    <g id="text_27">
     <!-- Ref Speed = 85 -->
     <g transform="translate(77.603125 126.985313) scale(0.1 -0.1)">
      <defs>
       <path id="DejaVuSans-38" d="M 2034 2216 
Q 1584 2216 1326 1975 
Q 1069 1734 1069 1313 
Q 1069 891 1326 650 
Q 1584 409 2034 409 
Q 2484 409 2743 651 
Q 3003 894 3003 1313 
Q 3003 1734 2745 1975 
Q 2488 2216 2034 2216 
z
M 1403 2484 
Q 997 2584 770 2862 
Q 544 3141 544 3541 
Q 544 4100 942 4425 
Q 1341 4750 2034 4750 
Q 2731 4750 3128 4425 
Q 3525 4100 3525 3541 
Q 3525 3141 3298 2862 
Q 3072 2584 2669 2484 
Q 3125 2378 3379 2068 
Q 3634 1759 3634 1313 
Q 3634 634 3220 271 
Q 2806 -91 2034 -91 
Q 1263 -91 848 271 
Q 434 634 434 1313 
Q 434 1759 690 2068 
Q 947 2378 1403 2484 
z
M 1172 3481 
Q 1172 3119 1398 2916 
Q 1625 2713 2034 2713 
Q 2441 2713 2670 2916 
Q 2900 3119 2900 3481 
Q 2900 3844 2670 4047 
Q 2441 4250 2034 4250 
Q 1625 4250 1398 4047 
Q 1172 3844 1172 3481 
z
" transform="scale(0.015625)"/>
      </defs>
      <use xlink:href="#DejaVuSans-52"/>
      <use xlink:href="#DejaVuSans-65" transform="translate(64.982422 0)"/>
      <use xlink:href="#DejaVuSans-66" transform="translate(126.505859 0)"/>
      <use xlink:href="#DejaVuSans-20" transform="translate(161.710938 0)"/>
      <use xlink:href="#DejaVuSans-53" transform="translate(193.498047 0)"/>
      <use xlink:href="#DejaVuSans-70" transform="translate(256.974609 0)"/>
      <use xlink:href="#DejaVuSans-65" transform="translate(320.451172 0)"/>
      <use xlink:href="#DejaVuSans-65" transform="translate(381.974609 0)"/>
      <use xlink:href="#DejaVuSans-64" transform="translate(443.498047 0)"/>
      <use xlink:href="#DejaVuSans-20" transform="translate(506.974609 0)"/>
      <use xlink:href="#DejaVuSans-3d" transform="translate(538.761719 0)"/>
      <use xlink:href="#DejaVuSans-20" transform="translate(622.550781 0)"/>
      <use xlink:href="#DejaVuSans-38" transform="translate(654.337891 0)"/>
      <use xlink:href="#DejaVuSans-35" transform="translate(717.960938 0)"/>
     </g>
    </g>
   </g>
  </g>
 </g>
 <defs>
  <clipPath id="p7e07560868">
   <rect x="40.603125" y="22.318125" width="405.34" height="277.48"/>
  </clipPath>
 </defs>
</svg>
