<?xml version="1.0" encoding="utf-8" standalone="no"?>
<!DOCTYPE svg PUBLIC "-//W3C//DTD SVG 1.1//EN"
  "http://www.w3.org/Graphics/SVG/1.1/DTD/svg11.dtd">
<svg xmlns:xlink="http://www.w3.org/1999/xlink" width="453.143125pt" height="337.354375pt" viewBox="0 0 453.143125 337.354375" xmlns="http://www.w3.org/2000/svg" version="1.1">
 <metadata>
  <rdf:RDF xmlns:dc="http://purl.org/dc/elements/1.1/" xmlns:cc="http://creativecommons.org/ns#" xmlns:rdf="http://www.w3.org/1999/02/22-rdf-syntax-ns#">
   <cc:Work>
    <dc:type rdf:resource="http://purl.org/dc/dcmitype/StillImage"/>
    <dc:date>2025-10-29T22:56:46.543615</dc:date>
    <dc:format>image/svg+xml</dc:format>
    <dc:creator>
     <cc:Agent>
      <dc:title>Matplotlib v3.10.6, https://matplotlib.org/</dc:title>
     </cc:Agent>
    </dc:creator>
   </cc:Work>
  </rdf:RDF>
 </metadata>
 <defs>
  <style type="text/css">*{stroke-linejoin: round; stroke-linecap: butt}</style>
 </defs>
 <g id="figure_1">
  <g id="patch_1">
   <path d="M 0 337.354375 
L 453.143125 337.354375 
L 453.143125 0 
L 0 0 
z
" style="fill: #ffffff"/>
  </g>
  <g id="axes_1">
   <g id="patch_2">
    <path d="M 40.603125 299.798125 
L 445.943125 299.798125 
L 445.943125 22.318125 
L 40.603125 22.318125 
z
" style="fill: #ffffff"/>
   </g>
   <g id="matplotlib.axis_1">
    <g id="xtick_1">
     <g id="line2d_1">
      <defs>
       <path id="m022c1eeefa" d="M 0 0 
L 0 3.5 
" style="stroke: #000000; stroke-width: 0.8"/>
      </defs>
      <g>
       <use xlink:href="#m022c1eeefa" x="59.02767" y="299.798125" style="stroke: #000000; stroke-width: 0.8"/>
      </g>
     </g>
     <g id="text_1">
      <!-- 0 -->
      <g transform="translate(55.84642 314.396563) scale(0.1 -0.1)">
       <defs>
        <path id="DejaVuSans-30" d="M 2034 4250 
Q 1547 4250 1301 3770 
Q 1056 3291 1056 2328 
Q 1056 1369 1301 889 
Q 1547 409 2034 409 
Q 2525 409 2770 889 
Q 3016 1369 3016 2328 
Q 3016 3291 2770 3770 
Q 2525 4250 2034 4250 
z
M 2034 4750 
Q 2819 4750 3233 4129 
Q 3647 3509 3647 2328 
Q 3647 1150 3233 529 
Q 2819 -91 2034 -91 
Q 1250 -91 836 529 
Q 422 1150 422 2328 
Q 422 3509 836 4129 
Q 1250 4750 2034 4750 
z
" transform="scale(0.015625)"/>
       </defs>
       <use xlink:href="#DejaVuSans-30"/>
      </g>
     </g>
    </g>
    <g id="xtick_2">
     <g id="line2d_2">
      <g>
       <use xlink:href="#m022c1eeefa" x="114.798785" y="299.798125" style="stroke: #000000; stroke-width: 0.8"/>
      </g>
     </g>
     <g id="text_2">
      <!-- 5 -->
      <g transform="translate(111.617535 314.396563) scale(0.1 -0.1)">
       <defs>
        <path id="DejaVuSans-35" d="M 691 4666 
L 3169 4666 
L 3169 4134 
L 1269 4134 
L 1269 2991 
Q 1406 3038 1543 3061 
Q 1681 3084 1819 3084 
Q 2600 3084 3056 2656 
Q 3513 2228 3513 1497 
Q 3513 744 3044 326 
Q 2575 -91 1722 -91 
Q 1428 -91 1123 -41 
Q 819 9 494 109 
L 494 744 
Q 775 591 1075 516 
Q 1375 441 1709 441 
Q 2250 441 2565 725 
Q 2881 1009 2881 1497 
Q 2881 1984 2565 2268 
Q 2250 2553 1709 2553 
Q 1456 2553 1204 2497 
Q 953 2441 691 2322 
L 691 4666 
z
" transform="scale(0.015625)"/>
       </defs>
       <use xlink:href="#DejaVuSans-35"/>
      </g>
     </g>
    </g>
    <g id="xtick_3">
     <g id="line2d_3">
      <g>
       <use xlink:href="#m022c1eeefa" x="170.5699" y="299.798125" style="stroke: #000000; stroke-width: 0.8"/>
      </g>
     </g>
     <g id="text_3">
      <!-- 10 -->
      <g transform="translate(164.2074 314.396563) scale(0.1 -0.1)">
       <defs>
        <path id="DejaVuSans-31" d="M 794 531 
L 1825 531 
L 1825 4091 
L 703 3866 
L 703 4441 
L 1819 4666 
L 2450 4666 
L 2450 531 
L 3481 531 
L 3481 0 
L 794 0 
L 794 531 
z
" transform="scale(0.015625)"/>
       </defs>
       <use xlink:href="#DejaVuSans-31"/>
       <use xlink:href="#DejaVuSans-30" transform="translate(63.623047 0)"/>
      </g>
     </g>
    </g>
    <g id="xtick_4">
     <g id="line2d_4">
      <g>
       <use xlink:href="#m022c1eeefa" x="226.341015" y="299.798125" style="stroke: #000000; stroke-width: 0.8"/>
      </g>
     </g>
     <g id="text_4">
      <!-- 15 -->
      <g transform="translate(219.978515 314.396563) scale(0.1 -0.1)">
       <use xlink:href="#DejaVuSans-31"/>
       <use xlink:href="#DejaVuSans-35" transform="translate(63.623047 0)"/>
      </g>
     </g>
    </g>
    <g id="xtick_5">
     <g id="line2d_5">
      <g>
       <use xlink:href="#m022c1eeefa" x="282.112129" y="299.798125" style="stroke: #000000; stroke-width: 0.8"/>
      </g>
     </g>
     <g id="text_5">
      <!-- 20 -->
      <g transform="translate(275.749629 314.396563) scale(0.1 -0.1)">
       <defs>
        <path id="DejaVuSans-32" d="M 1228 531 
L 3431 531 
L 3431 0 
L 469 0 
L 469 531 
Q 828 903 1448 1529 
Q 2069 2156 2228 2338 
Q 2531 2678 2651 2914 
Q 2772 3150 2772 3378 
Q 2772 3750 2511 3984 
Q 2250 4219 1831 4219 
Q 1534 4219 1204 4116 
Q 875 4013 500 3803 
L 500 4441 
Q 881 4594 1212 4672 
Q 1544 4750 1819 4750 
Q 2544 4750 2975 4387 
Q 3406 4025 3406 3419 
Q 3406 3131 3298 2873 
Q 3191 2616 2906 2266 
Q 2828 2175 2409 1742 
Q 1991 1309 1228 531 
z
" transform="scale(0.015625)"/>
       </defs>
       <use xlink:href="#DejaVuSans-32"/>
       <use xlink:href="#DejaVuSans-30" transform="translate(63.623047 0)"/>
      </g>
     </g>
    </g>
    <g id="xtick_6">
     <g id="line2d_6">
      <g>
       <use xlink:href="#m022c1eeefa" x="337.883244" y="299.798125" style="stroke: #000000; stroke-width: 0.8"/>
      </g>
     </g>
     <g id="text_6">
      <!-- 25 -->
      <g transform="translate(331.520744 314.396563) scale(0.1 -0.1)">
       <use xlink:href="#DejaVuSans-32"/>
       <use xlink:href="#DejaVuSans-35" transform="translate(63.623047 0)"/>
      </g>
     </g>
    </g>
    <g id="xtick_7">
     <g id="line2d_7">
      <g>
       <use xlink:href="#m022c1eeefa" x="393.654359" y="299.798125" style="stroke: #000000; stroke-width: 0.8"/>
      </g>
     </g>
     <g id="text_7">
      <!-- 30 -->
      <g transform="translate(387.291859 314.396563) scale(0.1 -0.1)">
       <defs>
        <path id="DejaVuSans-33" d="M 2597 2516 
Q 3050 2419 3304 2112 
Q 3559 1806 3559 1356 
Q 3559 666 3084 287 
Q 2609 -91 1734 -91 
Q 1441 -91 1130 -33 
Q 819 25 488 141 
L 488 750 
Q 750 597 1062 519 
Q 1375 441 1716 441 
Q 2309 441 2620 675 
Q 2931 909 2931 1356 
Q 2931 1769 2642 2001 
Q 2353 2234 1838 2234 
L 1294 2234 
L 1294 2753 
L 1863 2753 
Q 2328 2753 2575 2939 
Q 2822 3125 2822 3475 
Q 2822 3834 2567 4026 
Q 2313 4219 1838 4219 
Q 1578 4219 1281 4162 
Q 984 4106 628 3988 
L 628 4550 
Q 988 4650 1302 4700 
Q 1616 4750 1894 4750 
Q 2613 4750 3031 4423 
Q 3450 4097 3450 3541 
Q 3450 3153 3228 2886 
Q 3006 2619 2597 2516 
z
" transform="scale(0.015625)"/>
       </defs>
       <use xlink:href="#DejaVuSans-33"/>
       <use xlink:href="#DejaVuSans-30" transform="translate(63.623047 0)"/>
      </g>
     </g>
    </g>
    <g id="text_8">
     <!-- Left Position, (rad) -->
     <g transform="translate(197.43875 328.074688) scale(0.1 -0.1)">
      <defs>
       <path id="DejaVuSans-4c" d="M 628 4666 
L 1259 4666 
L 1259 531 
L 3531 531 
L 3531 0 
L 628 0 
L 628 4666 
z
" transform="scale(0.015625)"/>
       <path id="DejaVuSans-65" d="M 3597 1894 
L 3597 1613 
L 953 1613 
Q 991 1019 1311 708 
Q 1631 397 2203 397 
Q 2534 397 2845 478 
Q 3156 559 3463 722 
L 3463 178 
Q 3153 47 2828 -22 
Q 2503 -91 2169 -91 
Q 1331 -91 842 396 
Q 353 884 353 1716 
Q 353 2575 817 3079 
Q 1281 3584 2069 3584 
Q 2775 3584 3186 3129 
Q 3597 2675 3597 1894 
z
M 3022 2063 
Q 3016 2534 2758 2815 
Q 2500 3097 2075 3097 
Q 1594 3097 1305 2825 
Q 1016 2553 972 2059 
L 3022 2063 
z
" transform="scale(0.015625)"/>
       <path id="DejaVuSans-66" d="M 2375 4863 
L 2375 4384 
L 1825 4384 
Q 1516 4384 1395 4259 
Q 1275 4134 1275 3809 
L 1275 3500 
L 2222 3500 
L 2222 3053 
L 1275 3053 
L 1275 0 
L 697 0 
L 697 3053 
L 147 3053 
L 147 3500 
L 697 3500 
L 697 3744 
Q 697 4328 969 4595 
Q 1241 4863 1831 4863 
L 2375 4863 
z
" transform="scale(0.015625)"/>
       <path id="DejaVuSans-74" d="M 1172 4494 
L 1172 3500 
L 2356 3500 
L 2356 3053 
L 1172 3053 
L 1172 1153 
Q 1172 725 1289 603 
Q 1406 481 1766 481 
L 2356 481 
L 2356 0 
L 1766 0 
Q 1100 0 847 248 
Q 594 497 594 1153 
L 594 3053 
L 172 3053 
L 172 3500 
L 594 3500 
L 594 4494 
L 1172 4494 
z
" transform="scale(0.015625)"/>
       <path id="DejaVuSans-20" transform="scale(0.015625)"/>
       <path id="DejaVuSans-50" d="M 1259 4147 
L 1259 2394 
L 2053 2394 
Q 2494 2394 2734 2622 
Q 2975 2850 2975 3272 
Q 2975 3691 2734 3919 
Q 2494 4147 2053 4147 
L 1259 4147 
z
M 628 4666 
L 2053 4666 
Q 2838 4666 3239 4311 
Q 3641 3956 3641 3272 
Q 3641 2581 3239 2228 
Q 2838 1875 2053 1875 
L 1259 1875 
L 1259 0 
L 628 0 
L 628 4666 
z
" transform="scale(0.015625)"/>
       <path id="DejaVuSans-6f" d="M 1959 3097 
Q 1497 3097 1228 2736 
Q 959 2375 959 1747 
Q 959 1119 1226 758 
Q 1494 397 1959 397 
Q 2419 397 2687 759 
Q 2956 1122 2956 1747 
Q 2956 2369 2687 2733 
Q 2419 3097 1959 3097 
z
M 1959 3584 
Q 2709 3584 3137 3096 
Q 3566 2609 3566 1747 
Q 3566 888 3137 398 
Q 2709 -91 1959 -91 
Q 1206 -91 779 398 
Q 353 888 353 1747 
Q 353 2609 779 3096 
Q 1206 3584 1959 3584 
z
" transform="scale(0.015625)"/>
       <path id="DejaVuSans-73" d="M 2834 3397 
L 2834 2853 
Q 2591 2978 2328 3040 
Q 2066 3103 1784 3103 
Q 1356 3103 1142 2972 
Q 928 2841 928 2578 
Q 928 2378 1081 2264 
Q 1234 2150 1697 2047 
L 1894 2003 
Q 2506 1872 2764 1633 
Q 3022 1394 3022 966 
Q 3022 478 2636 193 
Q 2250 -91 1575 -91 
Q 1294 -91 989 -36 
Q 684 19 347 128 
L 347 722 
Q 666 556 975 473 
Q 1284 391 1588 391 
Q 1994 391 2212 530 
Q 2431 669 2431 922 
Q 2431 1156 2273 1281 
Q 2116 1406 1581 1522 
L 1381 1569 
Q 847 1681 609 1914 
Q 372 2147 372 2553 
Q 372 3047 722 3315 
Q 1072 3584 1716 3584 
Q 2034 3584 2315 3537 
Q 2597 3491 2834 3397 
z
" transform="scale(0.015625)"/>
       <path id="DejaVuSans-69" d="M 603 3500 
L 1178 3500 
L 1178 0 
L 603 0 
L 603 3500 
z
M 603 4863 
L 1178 4863 
L 1178 4134 
L 603 4134 
L 603 4863 
z
" transform="scale(0.015625)"/>
       <path id="DejaVuSans-6e" d="M 3513 2113 
L 3513 0 
L 2938 0 
L 2938 2094 
Q 2938 2591 2744 2837 
Q 2550 3084 2163 3084 
Q 1697 3084 1428 2787 
Q 1159 2491 1159 1978 
L 1159 0 
L 581 0 
L 581 3500 
L 1159 3500 
L 1159 2956 
Q 1366 3272 1645 3428 
Q 1925 3584 2291 3584 
Q 2894 3584 3203 3211 
Q 3513 2838 3513 2113 
z
" transform="scale(0.015625)"/>
       <path id="DejaVuSans-2c" d="M 750 794 
L 1409 794 
L 1409 256 
L 897 -744 
L 494 -744 
L 750 256 
L 750 794 
z
" transform="scale(0.015625)"/>
       <path id="DejaVuSans-28" d="M 1984 4856 
Q 1566 4138 1362 3434 
Q 1159 2731 1159 2009 
Q 1159 1288 1364 580 
Q 1569 -128 1984 -844 
L 1484 -844 
Q 1016 -109 783 600 
Q 550 1309 550 2009 
Q 550 2706 781 3412 
Q 1013 4119 1484 4856 
L 1984 4856 
z
" transform="scale(0.015625)"/>
       <path id="DejaVuSans-72" d="M 2631 2963 
Q 2534 3019 2420 3045 
Q 2306 3072 2169 3072 
Q 1681 3072 1420 2755 
Q 1159 2438 1159 1844 
L 1159 0 
L 581 0 
L 581 3500 
L 1159 3500 
L 1159 2956 
Q 1341 3275 1631 3429 
Q 1922 3584 2338 3584 
Q 2397 3584 2469 3576 
Q 2541 3569 2628 3553 
L 2631 2963 
z
" transform="scale(0.015625)"/>
       <path id="DejaVuSans-61" d="M 2194 1759 
Q 1497 1759 1228 1600 
Q 959 1441 959 1056 
Q 959 750 1161 570 
Q 1363 391 1709 391 
Q 2188 391 2477 730 
Q 2766 1069 2766 1631 
L 2766 1759 
L 2194 1759 
z
M 3341 1997 
L 3341 0 
L 2766 0 
L 2766 531 
Q 2569 213 2275 61 
Q 1981 -91 1556 -91 
Q 1019 -91 701 211 
Q 384 513 384 1019 
Q 384 1609 779 1909 
Q 1175 2209 1959 2209 
L 2766 2209 
L 2766 2266 
Q 2766 2663 2505 2880 
Q 2244 3097 1772 3097 
Q 1472 3097 1187 3025 
Q 903 2953 641 2809 
L 641 3341 
Q 956 3463 1253 3523 
Q 1550 3584 1831 3584 
Q 2591 3584 2966 3190 
Q 3341 2797 3341 1997 
z
" transform="scale(0.015625)"/>
       <path id="DejaVuSans-64" d="M 2906 2969 
L 2906 4863 
L 3481 4863 
L 3481 0 
L 2906 0 
L 2906 525 
Q 2725 213 2448 61 
Q 2172 -91 1784 -91 
Q 1150 -91 751 415 
Q 353 922 353 1747 
Q 353 2572 751 3078 
Q 1150 3584 1784 3584 
Q 2172 3584 2448 3432 
Q 2725 3281 2906 2969 
z
M 947 1747 
Q 947 1113 1208 752 
Q 1469 391 1925 391 
Q 2381 391 2643 752 
Q 2906 1113 2906 1747 
Q 2906 2381 2643 2742 
Q 2381 3103 1925 3103 
Q 1469 3103 1208 2742 
Q 947 2381 947 1747 
z
" transform="scale(0.015625)"/>
       <path id="DejaVuSans-29" d="M 513 4856 
L 1013 4856 
Q 1481 4119 1714 3412 
Q 1947 2706 1947 2009 
Q 1947 1309 1714 600 
Q 1481 -109 1013 -844 
L 513 -844 
Q 928 -128 1133 580 
Q 1338 1288 1338 2009 
Q 1338 2731 1133 3434 
Q 928 4138 513 4856 
z
" transform="scale(0.015625)"/>
      </defs>
      <use xlink:href="#DejaVuSans-4c"/>
      <use xlink:href="#DejaVuSans-65" transform="translate(53.962891 0)"/>
      <use xlink:href="#DejaVuSans-66" transform="translate(115.486328 0)"/>
      <use xlink:href="#DejaVuSans-74" transform="translate(148.941406 0)"/>
      <use xlink:href="#DejaVuSans-20" transform="translate(188.150391 0)"/>
      <use xlink:href="#DejaVuSans-50" transform="translate(219.9375 0)"/>
      <use xlink:href="#DejaVuSans-6f" transform="translate(276.615234 0)"/>
      <use xlink:href="#DejaVuSans-73" transform="translate(337.796875 0)"/>
      <use xlink:href="#DejaVuSans-69" transform="translate(389.896484 0)"/>
      <use xlink:href="#DejaVuSans-74" transform="translate(417.679688 0)"/>
      <use xlink:href="#DejaVuSans-69" transform="translate(456.888672 0)"/>
      <use xlink:href="#DejaVuSans-6f" transform="translate(484.671875 0)"/>
      <use xlink:href="#DejaVuSans-6e" transform="translate(545.853516 0)"/>
      <use xlink:href="#DejaVuSans-2c" transform="translate(609.232422 0)"/>
      <use xlink:href="#DejaVuSans-20" transform="translate(641.019531 0)"/>
      <use xlink:href="#DejaVuSans-28" transform="translate(672.806641 0)"/>
      <use xlink:href="#DejaVuSans-72" transform="translate(711.820312 0)"/>
      <use xlink:href="#DejaVuSans-61" transform="translate(752.933594 0)"/>
      <use xlink:href="#DejaVuSans-64" transform="translate(814.212891 0)"/>
      <use xlink:href="#DejaVuSans-29" transform="translate(877.689453 0)"/>
     </g>
    </g>
   </g>
   <g id="matplotlib.axis_2">
    <g id="ytick_1">
     <g id="line2d_8">
      <defs>
       <path id="m291296fec1" d="M 0 0 
L -3.5 0 
" style="stroke: #000000; stroke-width: 0.8"/>
      </defs>
      <g>
       <use xlink:href="#m291296fec1" x="40.603125" y="287.185398" style="stroke: #000000; stroke-width: 0.8"/>
      </g>
     </g>
     <g id="text_9">
      <!-- 0 -->
      <g transform="translate(27.240625 290.984616) scale(0.1 -0.1)">
       <use xlink:href="#DejaVuSans-30"/>
      </g>
     </g>
    </g>
    <g id="ytick_2">
     <g id="line2d_9">
      <g>
       <use xlink:href="#m291296fec1" x="40.603125" y="248.587797" style="stroke: #000000; stroke-width: 0.8"/>
      </g>
     </g>
     <g id="text_10">
      <!-- 5 -->
      <g transform="translate(27.240625 252.387015) scale(0.1 -0.1)">
       <use xlink:href="#DejaVuSans-35"/>
      </g>
     </g>
    </g>
    <g id="ytick_3">
     <g id="line2d_10">
      <g>
       <use xlink:href="#m291296fec1" x="40.603125" y="209.990195" style="stroke: #000000; stroke-width: 0.8"/>
      </g>
     </g>
     <g id="text_11">
      <!-- 10 -->
      <g transform="translate(20.878125 213.789414) scale(0.1 -0.1)">
       <use xlink:href="#DejaVuSans-31"/>
       <use xlink:href="#DejaVuSans-30" transform="translate(63.623047 0)"/>
      </g>
     </g>
    </g>
    <g id="ytick_4">
     <g id="line2d_11">
      <g>
       <use xlink:href="#m291296fec1" x="40.603125" y="171.392594" style="stroke: #000000; stroke-width: 0.8"/>
      </g>
     </g>
     <g id="text_12">
      <!-- 15 -->
      <g transform="translate(20.878125 175.191813) scale(0.1 -0.1)">
       <use xlink:href="#DejaVuSans-31"/>
       <use xlink:href="#DejaVuSans-35" transform="translate(63.623047 0)"/>
      </g>
     </g>
    </g>
    <g id="ytick_5">
     <g id="line2d_12">
      <g>
       <use xlink:href="#m291296fec1" x="40.603125" y="132.794993" style="stroke: #000000; stroke-width: 0.8"/>
      </g>
     </g>
     <g id="text_13">
      <!-- 20 -->
      <g transform="translate(20.878125 136.594212) scale(0.1 -0.1)">
       <use xlink:href="#DejaVuSans-32"/>
       <use xlink:href="#DejaVuSans-30" transform="translate(63.623047 0)"/>
      </g>
     </g>
    </g>
    <g id="ytick_6">
     <g id="line2d_13">
      <g>
       <use xlink:href="#m291296fec1" x="40.603125" y="94.197392" style="stroke: #000000; stroke-width: 0.8"/>
      </g>
     </g>
     <g id="text_14">
      <!-- 25 -->
      <g transform="translate(20.878125 97.99661) scale(0.1 -0.1)">
       <use xlink:href="#DejaVuSans-32"/>
       <use xlink:href="#DejaVuSans-35" transform="translate(63.623047 0)"/>
      </g>
     </g>
    </g>
    <g id="ytick_7">
     <g id="line2d_14">
      <g>
       <use xlink:href="#m291296fec1" x="40.603125" y="55.599791" style="stroke: #000000; stroke-width: 0.8"/>
      </g>
     </g>
     <g id="text_15">
      <!-- 30 -->
      <g transform="translate(20.878125 59.399009) scale(0.1 -0.1)">
       <use xlink:href="#DejaVuSans-33"/>
       <use xlink:href="#DejaVuSans-30" transform="translate(63.623047 0)"/>
      </g>
     </g>
    </g>
    <g id="text_16">
     <!-- Right Position, (rad) -->
     <g transform="translate(14.798438 210.651094) rotate(-90) scale(0.1 -0.1)">
      <defs>
       <path id="DejaVuSans-52" d="M 2841 2188 
Q 3044 2119 3236 1894 
Q 3428 1669 3622 1275 
L 4263 0 
L 3584 0 
L 2988 1197 
Q 2756 1666 2539 1819 
Q 2322 1972 1947 1972 
L 1259 1972 
L 1259 0 
L 628 0 
L 628 4666 
L 2053 4666 
Q 2853 4666 3247 4331 
Q 3641 3997 3641 3322 
Q 3641 2881 3436 2590 
Q 3231 2300 2841 2188 
z
M 1259 4147 
L 1259 2491 
L 2053 2491 
Q 2509 2491 2742 2702 
Q 2975 2913 2975 3322 
Q 2975 3731 2742 3939 
Q 2509 4147 2053 4147 
L 1259 4147 
z
" transform="scale(0.015625)"/>
       <path id="DejaVuSans-67" d="M 2906 1791 
Q 2906 2416 2648 2759 
Q 2391 3103 1925 3103 
Q 1463 3103 1205 2759 
Q 947 2416 947 1791 
Q 947 1169 1205 825 
Q 1463 481 1925 481 
Q 2391 481 2648 825 
Q 2906 1169 2906 1791 
z
M 3481 434 
Q 3481 -459 3084 -895 
Q 2688 -1331 1869 -1331 
Q 1566 -1331 1297 -1286 
Q 1028 -1241 775 -1147 
L 775 -588 
Q 1028 -725 1275 -790 
Q 1522 -856 1778 -856 
Q 2344 -856 2625 -561 
Q 2906 -266 2906 331 
L 2906 616 
Q 2728 306 2450 153 
Q 2172 0 1784 0 
Q 1141 0 747 490 
Q 353 981 353 1791 
Q 353 2603 747 3093 
Q 1141 3584 1784 3584 
Q 2172 3584 2450 3431 
Q 2728 3278 2906 2969 
L 2906 3500 
L 3481 3500 
L 3481 434 
z
" transform="scale(0.015625)"/>
       <path id="DejaVuSans-68" d="M 3513 2113 
L 3513 0 
L 2938 0 
L 2938 2094 
Q 2938 2591 2744 2837 
Q 2550 3084 2163 3084 
Q 1697 3084 1428 2787 
Q 1159 2491 1159 1978 
L 1159 0 
L 581 0 
L 581 4863 
L 1159 4863 
L 1159 2956 
Q 1366 3272 1645 3428 
Q 1925 3584 2291 3584 
Q 2894 3584 3203 3211 
Q 3513 2838 3513 2113 
z
" transform="scale(0.015625)"/>
      </defs>
      <use xlink:href="#DejaVuSans-52"/>
      <use xlink:href="#DejaVuSans-69" transform="translate(69.482422 0)"/>
      <use xlink:href="#DejaVuSans-67" transform="translate(97.265625 0)"/>
      <use xlink:href="#DejaVuSans-68" transform="translate(160.742188 0)"/>
      <use xlink:href="#DejaVuSans-74" transform="translate(224.121094 0)"/>
      <use xlink:href="#DejaVuSans-20" transform="translate(263.330078 0)"/>
      <use xlink:href="#DejaVuSans-50" transform="translate(295.117188 0)"/>
      <use xlink:href="#DejaVuSans-6f" transform="translate(351.794922 0)"/>
      <use xlink:href="#DejaVuSans-73" transform="translate(412.976562 0)"/>
      <use xlink:href="#DejaVuSans-69" transform="translate(465.076172 0)"/>
      <use xlink:href="#DejaVuSans-74" transform="translate(492.859375 0)"/>
      <use xlink:href="#DejaVuSans-69" transform="translate(532.068359 0)"/>
      <use xlink:href="#DejaVuSans-6f" transform="translate(559.851562 0)"/>
      <use xlink:href="#DejaVuSans-6e" transform="translate(621.033203 0)"/>
      <use xlink:href="#DejaVuSans-2c" transform="translate(684.412109 0)"/>
      <use xlink:href="#DejaVuSans-20" transform="translate(716.199219 0)"/>
      <use xlink:href="#DejaVuSans-28" transform="translate(747.986328 0)"/>
      <use xlink:href="#DejaVuSans-72" transform="translate(787 0)"/>
      <use xlink:href="#DejaVuSans-61" transform="translate(828.113281 0)"/>
      <use xlink:href="#DejaVuSans-64" transform="translate(889.392578 0)"/>
      <use xlink:href="#DejaVuSans-29" transform="translate(952.869141 0)"/>
     </g>
    </g>
   </g>
   <g id="line2d_15">
    <path d="M 68.147285 281.683994 
L 69.073876 281.076478 
L 71.414736 279.591436 
L 74.24328 277.971394 
L 76.779215 276.452601 
L 79.168851 274.866302 
L 81.753552 273.111253 
L 84.484563 271.288705 
L 87.459405 269.297401 
L 90.483025 267.272347 
L 93.750476 265.078537 
L 97.115471 262.817219 
L 100.529232 260.522159 
L 103.894216 258.159592 
L 107.454276 255.729526 
L 111.014347 253.29946 
L 114.525641 250.903143 
L 118.183233 248.439327 
L 121.743293 245.975511 
L 125.449663 243.444188 
L 129.156032 240.879114 
L 132.764859 238.415298 
L 136.373696 235.917725 
L 140.128832 233.386409 
L 143.883968 230.821336 
L 147.639104 228.290013 
L 151.24793 225.792447 
L 154.9543 223.193624 
L 158.66067 220.662301 
L 162.513338 217.995986 
L 166.219708 215.464663 
L 170.121143 212.83209 
L 173.876235 210.267017 
L 177.533927 207.735709 
L 181.386596 205.103121 
L 185.141665 202.504268 
L 188.94559 199.871757 
L 192.603171 197.340449 
L 196.45584 194.674127 
L 200.162165 192.109007 
L 203.96609 189.476419 
L 207.818758 186.843909 
L 211.476339 184.312524 
L 215.329008 181.680013 
L 219.084189 179.114893 
L 222.888113 175.807311 
L 226.594439 173.950998 
L 230.349619 171.352221 
L 234.153544 168.719633 
L 237.957357 166.087045 
L 241.810026 163.488191 
L 245.565206 160.889415 
L 249.369131 158.256827 
L 253.1242 155.657973 
L 256.879381 153.059197 
L 260.634561 150.460343 
L 264.438486 147.794021 
L 268.144811 145.195167 
L 271.851137 142.630125 
L 275.752549 139.963803 
L 279.556474 137.29748 
L 283.262799 134.732438 
L 287.115468 132.09985 
L 290.870648 129.534808 
L 294.674573 126.935954 
L 298.527241 124.269632 
L 302.37991 121.670778 
L 306.135091 119.105736 
L 309.938904 116.473148 
L 313.742829 113.874294 
L 317.741841 111.207972 
L 321.448166 108.64293 
L 325.203346 106.010342 
L 328.909672 103.411565 
L 332.76234 100.745243 
L 336.566265 98.078921 
L 340.321446 95.480067 
L 344.076515 92.915025 
L 347.880439 90.316171 
L 351.63562 87.717318 
L 355.488289 85.050995 
L 359.292213 82.485953 
L 363.096026 79.819631 
L 366.899951 77.08584 
L 370.606276 74.419518 
L 374.410201 71.719461 
L 378.165382 69.086873 
L 382.066794 66.386817 
L 385.821975 63.754229 
L 389.577044 61.087906 
L 393.478568 58.421584 
L 397.282381 55.82273 
L 400.988818 53.223877 
L 404.743887 50.6251 
L 408.645411 47.958778 
L 412.40048 45.359924 
L 416.106917 42.794882 
L 419.959586 40.162294 
L 423.665911 37.597252 
L 427.51858 34.930852 
" clip-path="url(#pcc05e31384)" style="fill: none; stroke: #1f77b4; stroke-width: 1.5; stroke-linecap: square"/>
   </g>
   <g id="line2d_16">
    <path d="M 66.830549 282.730274 
L 67.708372 282.089006 
L 70.000469 280.570214 
L 72.682704 278.781419 
L 75.07234 277.161369 
L 77.413198 275.541327 
L 79.754068 273.955028 
L 82.143693 272.16623 
L 84.679628 270.343682 
L 87.508183 268.419877 
L 90.385493 266.394823 
L 93.311569 264.336012 
L 96.335189 262.209708 
L 99.358797 260.117147 
L 102.284885 258.092093 
L 105.35726 255.965782 
L 108.478412 253.805721 
L 111.599564 251.645661 
L 114.81826 249.451842 
L 117.84188 247.325531 
L 121.011799 245.165471 
L 124.181717 242.97166 
L 127.400402 240.77785 
L 130.619087 238.55029 
L 133.88655 236.288972 
L 137.154001 234.061412 
L 140.372697 231.800102 
L 143.591382 229.538784 
L 146.7613 227.344974 
L 150.028751 225.083664 
L 153.247436 222.822346 
L 156.417355 220.594786 
L 159.684817 218.333476 
L 162.854736 216.139666 
L 166.170953 213.844598 
L 169.292106 211.650788 
L 172.608334 209.355728 
L 175.729509 206.554391 
L 179.094515 204.900561 
L 182.459409 202.639282 
L 185.53184 200.411737 
L 188.653015 198.251661 
L 191.920421 195.990382 
L 195.236683 193.661557 
L 198.455346 191.434013 
L 201.722752 189.138922 
L 204.892671 186.945112 
L 208.160189 184.683755 
L 211.427595 182.388742 
L 214.743857 180.127386 
L 218.011264 177.899841 
L 221.278782 175.672296 
L 224.546189 173.411017 
L 227.716107 171.183395 
L 231.032369 168.888382 
L 234.202288 166.694571 
L 237.51855 164.399481 
L 240.688468 162.20567 
L 243.907131 159.978126 
L 247.125794 157.750504 
L 250.442056 155.45549 
L 253.709462 153.227945 
L 256.97698 151.034135 
L 260.293131 148.739044 
L 263.414305 146.5115 
L 266.681712 144.250143 
L 269.94923 142.022599 
L 273.26538 139.727508 
L 276.484155 137.499963 
L 279.702817 135.238684 
L 283.019079 132.977328 
L 286.237742 130.716049 
L 289.505148 128.454693 
L 292.772666 126.159679 
L 295.942585 123.999603 
L 299.258735 121.738324 
L 302.574997 119.409499 
L 305.744916 117.215689 
L 309.061067 114.920598 
L 312.279841 112.693053 
L 315.498503 110.431697 
L 318.76591 108.170418 
L 321.935828 105.976608 
L 325.25209 103.681517 
L 328.470753 101.453972 
L 331.640672 99.226428 
L 334.859334 96.391357 
L 338.175596 94.703792 
L 341.491858 92.442513 
L 344.710521 90.248703 
L 347.977927 87.987346 
L 351.245445 85.759802 
L 354.512852 83.464711 
L 357.731626 81.203432 
L 360.950289 78.975887 
L 364.266439 76.714531 
L 367.485213 74.453252 
L 370.703876 72.191896 
L 373.971282 69.964351 
L 377.287544 67.66926 
" clip-path="url(#pcc05e31384)" style="fill: none; stroke: #ff7f0e; stroke-width: 1.5; stroke-linecap: square"/>
   </g>
   <g id="line2d_17">
    <path d="M 65.123669 283.776553 
L 65.952724 283.169036 
L 68.098517 281.582742 
L 70.780752 279.658937 
L 73.511764 277.768888 
L 75.998932 276.047589 
L 78.437335 274.39379 
L 80.924492 272.638742 
L 83.362894 270.883693 
L 85.947596 269.027396 
L 88.62984 267.13734 
L 91.409618 265.179786 
L 94.091851 263.323481 
L 96.871629 261.399684 
L 99.651406 259.475879 
L 102.284874 257.619573 
L 105.015885 255.695776 
L 107.746896 253.839471 
L 110.429129 251.949424 
L 113.111374 250.093118 
L 115.842374 248.203063 
L 118.573385 246.346766 
L 121.304385 244.456711 
L 124.035396 242.566663 
L 126.766408 240.676608 
L 129.497407 238.786553 
L 132.228419 236.862756 
L 134.81312 235.040201 
L 137.544131 233.150153 
L 140.177598 231.260098 
L 142.908609 229.370043 
L 145.639609 227.547495 
L 148.321854 225.65744 
L 151.101631 223.733643 
L 153.832643 221.843588 
L 156.61242 219.919783 
L 159.245887 218.097235 
L 161.928132 216.27468 
L 164.659143 214.384633 
L 167.390154 212.46082 
L 170.072399 210.638272 
L 172.852165 208.748202 
L 175.534421 206.891889 
L 178.216677 205.069387 
L 180.898933 203.213074 
L 183.629933 201.323027 
L 186.360933 199.466714 
L 189.043189 197.576666 
L 191.774189 195.652808 
L 194.40759 193.830306 
L 197.138701 191.973993 
L 199.967189 190.0164 
L 202.600701 188.160164 
L 205.282957 186.303851 
L 208.062701 184.379992 
L 210.744957 182.523679 
L 213.475957 180.667443 
L 216.206957 178.777319 
L 218.840469 176.887271 
L 221.620213 174.96349 
L 224.302469 173.140911 
L 227.082213 171.217129 
L 229.715725 169.360816 
L 232.446725 167.470769 
L 235.080125 165.648268 
L 237.811237 163.791954 
L 240.590981 161.868096 
L 243.273237 160.011783 
L 245.955493 158.155547 
L 248.686492 156.265499 
L 251.319893 153.936675 
L 254.002149 152.586608 
L 256.733149 150.730295 
L 259.512893 148.806513 
L 262.146405 146.9502 
L 264.877405 145.026418 
L 267.559661 143.170105 
L 270.241917 141.313792 
L 273.021661 139.356199 
L 275.703917 137.499886 
L 278.434917 135.643573 
L 281.165917 133.719791 
L 283.799429 131.89729 
L 286.579172 130.007243 
L 289.212573 128.184664 
L 291.943573 126.294617 
L 294.674684 124.404569 
L 297.405684 122.514522 
L 300.039085 120.658209 
L 302.818829 118.734427 
L 305.501085 116.911848 
L 308.183341 115.055535 
L 310.914341 113.165488 
L 313.596597 111.309175 
L 316.278853 109.486674 
L 319.009853 107.63036 
L 321.740853 105.706579 
L 324.423109 103.850266 
L 327.154108 101.993953 
L 329.836364 100.103905 
" clip-path="url(#pcc05e31384)" style="fill: none; stroke: #2ca02c; stroke-width: 1.5; stroke-linecap: square"/>
   </g>
   <g id="line2d_18">
    <path d="M 63.660629 284.856583 
L 64.39215 284.316568 
L 66.245333 282.96653 
L 68.391125 281.51524 
L 70.536921 280.198953 
L 72.585171 278.950167 
L 74.633421 277.600131 
L 76.730448 276.115088 
L 78.925008 274.630046 
L 81.265878 273.010004 
L 83.460427 271.457462 
L 85.654998 269.972419 
L 87.849558 268.453627 
L 90.092884 266.901085 
L 92.33621 265.348542 
L 94.579536 263.795992 
L 96.72533 262.310957 
L 98.968656 260.792165 
L 101.11445 259.307122 
L 103.357776 257.75458 
L 105.50357 256.235788 
L 107.649352 254.784495 
L 109.892678 253.265702 
L 112.038472 251.814417 
L 114.184266 250.363124 
L 116.378825 248.844332 
L 118.475842 247.359297 
L 120.670402 245.874254 
L 122.864961 244.321712 
L 125.108288 242.76917 
L 127.205304 241.284127 
L 129.351098 239.765334 
L 131.496891 238.24655 
L 133.691451 236.761507 
L 135.886 235.276464 
L 138.08056 233.757672 
L 140.27512 232.238879 
L 142.420913 230.753844 
L 144.664239 229.235052 
L 146.761256 227.750009 
L 148.907049 226.231217 
L 151.101609 224.746174 
L 153.296169 223.261131 
L 155.393196 221.776089 
L 157.636523 220.223539 
L 159.73355 218.772253 
L 161.92811 217.219704 
L 164.073904 215.734661 
L 166.268463 214.215868 
L 168.463012 212.764583 
L 170.608828 211.245791 
L 172.705822 209.794505 
L 174.851671 208.309424 
L 177.095009 206.756874 
L 179.240747 205.305604 
L 181.337741 203.8206 
L 183.532334 202.369253 
L 185.678183 200.816781 
L 187.872665 199.331699 
L 190.067258 197.812884 
L 192.212996 196.32788 
L 194.456334 194.77533 
L 196.602183 193.290248 
L 198.747921 191.805244 
L 200.89377 190.320163 
L 203.088364 188.801425 
L 205.282846 187.316343 
L 207.477439 185.763793 
L 209.623177 184.244978 
L 211.81777 182.759974 
L 213.96362 181.241158 
L 216.060613 179.72242 
L 218.255207 178.203604 
L 220.449689 176.347291 
L 222.644282 175.267253 
L 224.790131 173.782249 
L 226.887125 172.297168 
L 229.081607 170.778352 
L 231.276201 169.293348 
L 233.519538 167.740798 
L 235.616532 166.289528 
L 237.762381 164.804447 
L 239.956975 163.285631 
L 242.102712 161.766893 
L 244.199706 160.315546 
L 246.3943 158.796807 
L 248.637637 157.244257 
L 250.734631 155.79291 
L 252.977968 154.274172 
L 255.123818 152.822825 
L 257.269555 151.337821 
L 259.415405 149.85274 
L 261.609887 148.334001 
L 263.80448 146.815186 
L 265.950329 145.330181 
L 268.096067 143.777632 
L 270.241917 142.258816 
L 272.436399 140.773735 
L 274.582248 139.322465 
L 276.776841 137.803649 
" clip-path="url(#pcc05e31384)" style="fill: none; stroke: #d62728; stroke-width: 1.5; stroke-linecap: square"/>
   </g>
   <g id="line2d_19">
    <path d="M 61.563605 285.936613 
L 62.100053 285.531602 
L 63.514326 284.586576 
L 65.026133 283.574048 
L 66.53794 282.629021 
L 67.952212 281.751497 
L 69.512788 280.671467 
L 71.219671 279.557687 
L 72.975312 278.376406 
L 74.633432 277.228869 
L 76.291541 276.081339 
L 77.94965 274.933809 
L 79.656536 273.786279 
L 81.314644 272.638742 
L 82.972753 271.491212 
L 84.630862 270.309932 
L 86.288982 269.196144 
L 87.94709 268.048614 
L 89.556433 266.934834 
L 91.263308 265.787304 
L 92.872661 264.673524 
L 94.482004 263.559744 
L 96.140113 262.445956 
L 97.749455 261.298427 
L 99.358797 260.184647 
L 101.016917 259.070866 
L 102.675026 257.923337 
L 104.235602 256.809549 
L 105.893711 255.662019 
L 107.503053 254.278233 
L 109.161173 253.434459 
L 110.770504 252.320679 
L 112.379847 251.173141 
L 114.037956 250.059361 
L 115.647298 248.945589 
L 117.25664 247.831808 
L 118.914749 246.684271 
L 120.524092 245.604241 
L 122.133434 244.456711 
L 123.742777 243.309181 
L 125.352119 242.195401 
L 128.61957 239.967848 
L 130.228913 238.887818 
L 131.887021 237.774038 
L 133.496364 236.626508 
L 135.105706 235.546478 
L 136.715037 234.398948 
L 138.32438 233.251418 
L 139.933722 232.137638 
L 141.591842 230.956351 
L 143.249951 229.842578 
L 144.90806 228.728798 
L 146.517402 227.58126 
L 148.126744 226.46748 
L 149.736087 225.3537 
L 151.394196 224.20617 
L 152.954772 223.09239 
L 154.661658 221.944861 
L 156.222223 220.831073 
L 157.880332 219.717293 
L 159.53844 218.569763 
L 161.147794 217.455983 
L 162.757136 216.375952 
L 164.415245 215.228422 
L 165.975821 214.080893 
L 167.63393 212.933363 
L 169.194506 211.853332 
L 170.852659 210.705803 
L 172.510735 209.592022 
L 174.120066 208.444516 
L 175.729397 207.330743 
L 177.387472 206.216894 
L 178.996915 205.069387 
L 180.703734 203.92188 
L 182.264322 202.808108 
L 183.873653 201.660524 
L 185.580584 200.546752 
L 187.189915 199.129216 
L 188.750502 198.319207 
L 190.359834 197.205435 
L 191.969165 196.125397 
L 193.62724 194.97789 
L 195.236572 193.796572 
L 196.846014 192.716534 
L 198.455346 191.602761 
L 200.064677 190.488989 
L 201.722752 189.375217 
L 203.332083 188.261444 
L 204.99027 187.11386 
L 206.599602 186.000088 
L 208.208933 184.886316 
L 209.818264 183.738809 
L 211.427595 182.625036 
L 213.085782 181.477453 
L 214.695113 180.36368 
L 216.401933 179.216173 
L 217.96252 178.102401 
L 219.620595 176.954817 
L 221.230038 175.807311 
" clip-path="url(#pcc05e31384)" style="fill: none; stroke: #9467bd; stroke-width: 1.5; stroke-linecap: square"/>
   </g>
   <g id="line2d_20">
    <path d="M 59.905494 286.746636 
L 60.295638 286.510379 
L 61.22223 285.936613 
L 62.148822 285.295345 
L 63.026646 284.721579 
L 64.050773 284.080311 
L 65.172437 283.33779 
L 66.391637 282.527768 
L 67.464533 281.751497 
L 68.586197 281.008976 
L 69.707861 280.266456 
L 70.82953 279.523935 
L 71.902421 278.781411 
L 72.975312 278.005144 
L 74.096981 277.262618 
L 75.218639 276.520101 
L 76.291541 275.777583 
L 77.364432 275.035058 
L 78.486101 274.258791 
L 79.607758 273.516273 
L 80.680661 272.773748 
L 81.753552 272.031231 
L 82.826443 271.322455 
L 83.899346 270.546188 
L 84.972237 269.803671 
L 86.045139 269.061145 
L 87.166797 268.284878 
L 88.288454 267.542353 
L 89.361357 266.799835 
L 90.483014 266.023568 
L 91.50715 265.314793 
L 92.628808 264.538525 
L 93.652933 263.627251 
L 94.774601 263.087232 
L 95.896259 262.344715 
L 96.920384 261.602197 
L 98.042053 260.859672 
L 99.114944 260.083405 
L 100.187846 259.374637 
L 101.260737 258.632112 
L 102.333629 257.889595 
L 103.406531 257.11332 
L 104.430656 256.370802 
L 105.552325 255.594527 
L 106.625216 254.85201 
L 107.746885 254.075735 
L 108.819787 253.366967 
L 109.941445 252.590692 
L 111.014347 251.814417 
L 112.136016 251.0719 
L 113.208907 250.329374 
L 114.281809 249.586849 
L 115.3547 248.810582 
L 116.476369 248.034307 
L 117.549272 247.291782 
L 118.573397 246.549264 
L 119.695065 245.806739 
L 120.816734 245.097971 
L 121.889625 244.321696 
L 122.962527 243.612921 
L 124.035419 242.836654 
L 125.108321 242.094128 
L 126.22999 241.317853 
L 127.302881 240.541586 
L 128.375783 239.832811 
L 129.448686 239.056543 
L 130.570343 238.314018 
L 131.594479 237.571493 
L 132.716137 236.828976 
L 133.740273 236.08645 
L 134.861942 235.343933 
L 135.934833 234.567658 
L 137.007735 233.825133 
L 138.080627 233.082615 
L 139.202295 232.34009 
L 140.275198 231.597572 
L 141.348089 230.821298 
L 142.469758 230.078772 
L 143.493883 229.336255 
L 144.615551 228.59373 
L 145.688454 227.817455 
L 146.761345 226.872431 
L 147.834247 226.33242 
L 148.907138 225.589894 
L 149.980041 224.847369 
L 151.052932 224.071102 
L 152.17459 223.328585 
L 153.247492 222.586059 
L 154.320394 221.843534 
L 155.442052 221.101017 
L 156.514954 220.324749 
L 157.636612 219.582224 
L 158.709503 218.839699 
L 159.782405 218.097181 
L 160.855308 217.320914 
L 161.928199 216.612146 
L 163.001102 215.869621 
L 164.122759 215.093354 
L 165.195661 214.350829 
L 166.219786 213.642061 
" clip-path="url(#pcc05e31384)" style="fill: none; stroke: #8c564b; stroke-width: 1.5; stroke-linecap: square"/>
   </g>
   <g id="line2d_21">
    <path d="M 69.659091 280.603965 
L 69.805394 280.502712 
L 70.293079 280.266455 
L 70.68322 280.030198 
L 71.073361 279.793942 
L 71.561046 279.523934 
L 72.146252 279.186423 
L 72.73147 278.815168 
L 73.267921 278.443906 
L 73.804372 278.106393 
L 74.389579 277.735138 
L 74.92603 277.363875 
L 75.511247 276.992613 
L 76.047698 276.655108 
L 76.632905 276.283845 
L 77.169356 275.912582 
L 77.705807 275.575077 
L 78.242247 275.203815 
L 78.778698 274.832552 
L 79.31515 274.461297 
L 79.851601 274.090034 
L 80.436807 273.718772 
L 80.973258 273.347517 
L 81.558476 272.976254 
L 82.094927 272.638749 
L 82.631367 272.267487 
L 83.167818 271.896224 
L 83.704269 271.491212 
L 84.240721 271.119949 
L 84.825938 270.748694 
L 85.362389 270.377432 
L 85.898829 270.006169 
L 86.435281 269.634906 
L 87.020498 269.263644 
L 87.508183 268.892389 
L 88.044623 268.521126 
L 88.62984 268.149864 
L 89.166292 267.778601 
L 89.751509 267.407346 
L 90.28796 267.036084 
L 90.824411 266.664821 
L 91.312085 266.293558 
L 91.897303 265.922296 
L 92.48252 265.551041 
L 92.970194 265.179778 
L 93.506645 264.808516 
L 94.091863 264.437253 
L 94.628314 263.897242 
L 95.213531 263.627236 
L 95.749971 263.255973 
L 96.237656 262.884711 
L 96.822874 262.479698 
L 97.359325 262.074686 
L 97.895765 261.703424 
L 98.432216 261.365918 
L 99.017434 260.960906 
L 99.553885 260.589643 
L 100.090336 260.218381 
L 100.626787 259.813368 
L 101.163227 259.475863 
L 101.748445 259.070851 
L 102.284896 258.699588 
L 102.821347 258.328333 
L 103.357798 257.957071 
L 103.943005 257.585808 
L 104.43069 257.214546 
L 105.015907 256.809533 
L 105.552358 256.438271 
L 106.088798 256.100766 
L 106.625249 255.729503 
L 107.161701 255.324491 
L 107.698152 254.953228 
L 108.283369 254.581965 
L 108.819821 254.176961 
L 109.356261 253.805698 
L 109.843945 253.468185 
L 110.429163 253.096923 
L 110.965614 252.69191 
L 111.502065 252.354405 
L 111.989739 251.983143 
L 112.574957 251.57813 
L 113.160174 251.206868 
L 113.647859 250.835605 
L 114.18431 250.46435 
L 114.72075 250.059338 
L 115.305968 249.688075 
L 115.842419 249.316813 
L 116.37887 248.9118 
L 116.915321 248.574287 
L 117.500539 248.169283 
L 118.036979 247.79802 
L 118.57343 247.460507 
L 119.061115 247.055495 
L 119.597566 246.71799 
L 120.182784 246.312977 
L 120.719224 245.941715 
L 121.255675 245.570452 
L 121.792126 245.232939 
L 122.377343 244.861684 
L 122.865017 244.456672 
" clip-path="url(#pcc05e31384)" style="fill: none; stroke: #e377c2; stroke-width: 1.5; stroke-linecap: square"/>
   </g>
   <g id="line2d_22">
    <path d="M 59.02767 287.185398 
L 423.519679 34.930852 
L 423.519679 34.930852 
" clip-path="url(#pcc05e31384)" style="fill: none; stroke: #7f7f7f; stroke-width: 1.5; stroke-linecap: square"/>
   </g>
   <g id="patch_3">
    <path d="M 40.603125 299.798125 
L 40.603125 22.318125 
" style="fill: none; stroke: #000000; stroke-width: 0.8; stroke-linejoin: miter; stroke-linecap: square"/>
   </g>
   <g id="patch_4">
    <path d="M 445.943125 299.798125 
L 445.943125 22.318125 
" style="fill: none; stroke: #000000; stroke-width: 0.8; stroke-linejoin: miter; stroke-linecap: square"/>
   </g>
   <g id="patch_5">
    <path d="M 40.603125 299.798125 
L 445.943125 299.798125 
" style="fill: none; stroke: #000000; stroke-width: 0.8; stroke-linejoin: miter; stroke-linecap: square"/>
   </g>
   <g id="patch_6">
    <path d="M 40.603125 22.318125 
L 445.943125 22.318125 
" style="fill: none; stroke: #000000; stroke-width: 0.8; stroke-linejoin: miter; stroke-linecap: square"/>
   </g>
   <g id="text_17">
    <!-- Right Position vs. Left position -->
    <g transform="translate(152.850313 16.318125) scale(0.12 -0.12)">
     <defs>
      <path id="DejaVuSans-76" d="M 191 3500 
L 800 3500 
L 1894 563 
L 2988 3500 
L 3597 3500 
L 2284 0 
L 1503 0 
L 191 3500 
z
" transform="scale(0.015625)"/>
      <path id="DejaVuSans-2e" d="M 684 794 
L 1344 794 
L 1344 0 
L 684 0 
L 684 794 
z
" transform="scale(0.015625)"/>
      <path id="DejaVuSans-70" d="M 1159 525 
L 1159 -1331 
L 581 -1331 
L 581 3500 
L 1159 3500 
L 1159 2969 
Q 1341 3281 1617 3432 
Q 1894 3584 2278 3584 
Q 2916 3584 3314 3078 
Q 3713 2572 3713 1747 
Q 3713 922 3314 415 
Q 2916 -91 2278 -91 
Q 1894 -91 1617 61 
Q 1341 213 1159 525 
z
M 3116 1747 
Q 3116 2381 2855 2742 
Q 2594 3103 2138 3103 
Q 1681 3103 1420 2742 
Q 1159 2381 1159 1747 
Q 1159 1113 1420 752 
Q 1681 391 2138 391 
Q 2594 391 2855 752 
Q 3116 1113 3116 1747 
z
" transform="scale(0.015625)"/>
     </defs>
     <use xlink:href="#DejaVuSans-52"/>
     <use xlink:href="#DejaVuSans-69" transform="translate(69.482422 0)"/>
     <use xlink:href="#DejaVuSans-67" transform="translate(97.265625 0)"/>
     <use xlink:href="#DejaVuSans-68" transform="translate(160.742188 0)"/>
     <use xlink:href="#DejaVuSans-74" transform="translate(224.121094 0)"/>
     <use xlink:href="#DejaVuSans-20" transform="translate(263.330078 0)"/>
     <use xlink:href="#DejaVuSans-50" transform="translate(295.117188 0)"/>
     <use xlink:href="#DejaVuSans-6f" transform="translate(351.794922 0)"/>
     <use xlink:href="#DejaVuSans-73" transform="translate(412.976562 0)"/>
     <use xlink:href="#DejaVuSans-69" transform="translate(465.076172 0)"/>
     <use xlink:href="#DejaVuSans-74" transform="translate(492.859375 0)"/>
     <use xlink:href="#DejaVuSans-69" transform="translate(532.068359 0)"/>
     <use xlink:href="#DejaVuSans-6f" transform="translate(559.851562 0)"/>
     <use xlink:href="#DejaVuSans-6e" transform="translate(621.033203 0)"/>
     <use xlink:href="#DejaVuSans-20" transform="translate(684.412109 0)"/>
     <use xlink:href="#DejaVuSans-76" transform="translate(716.199219 0)"/>
     <use xlink:href="#DejaVuSans-73" transform="translate(775.378906 0)"/>
     <use xlink:href="#DejaVuSans-2e" transform="translate(827.478516 0)"/>
     <use xlink:href="#DejaVuSans-20" transform="translate(859.265625 0)"/>
     <use xlink:href="#DejaVuSans-4c" transform="translate(891.052734 0)"/>
     <use xlink:href="#DejaVuSans-65" transform="translate(945.015625 0)"/>
     <use xlink:href="#DejaVuSans-66" transform="translate(1006.539062 0)"/>
     <use xlink:href="#DejaVuSans-74" transform="translate(1039.994141 0)"/>
     <use xlink:href="#DejaVuSans-20" transform="translate(1079.203125 0)"/>
     <use xlink:href="#DejaVuSans-70" transform="translate(1110.990234 0)"/>
     <use xlink:href="#DejaVuSans-6f" transform="translate(1174.466797 0)"/>
     <use xlink:href="#DejaVuSans-73" transform="translate(1235.648438 0)"/>
     <use xlink:href="#DejaVuSans-69" transform="translate(1287.748047 0)"/>
     <use xlink:href="#DejaVuSans-74" transform="translate(1315.53125 0)"/>
     <use xlink:href="#DejaVuSans-69" transform="translate(1354.740234 0)"/>
     <use xlink:href="#DejaVuSans-6f" transform="translate(1382.523438 0)"/>
     <use xlink:href="#DejaVuSans-6e" transform="translate(1443.705078 0)"/>
    </g>
   </g>
   <g id="legend_1">
    <g id="patch_7">
     <path d="M 322.418125 294.798125 
L 438.943125 294.798125 
Q 440.943125 294.798125 440.943125 292.798125 
L 440.943125 176.373125 
Q 440.943125 174.373125 438.943125 174.373125 
L 322.418125 174.373125 
Q 320.418125 174.373125 320.418125 176.373125 
L 320.418125 292.798125 
Q 320.418125 294.798125 322.418125 294.798125 
z
" style="fill: #ffffff; opacity: 0.8; stroke: #cccccc; stroke-linejoin: miter"/>
    </g>
    <g id="line2d_23">
     <path d="M 324.418125 182.471563 
L 334.418125 182.471563 
L 344.418125 182.471563 
" style="fill: none; stroke: #1f77b4; stroke-width: 1.5; stroke-linecap: square"/>
    </g>
    <g id="text_18">
     <!-- Ref Speed = 595 -->
     <g transform="translate(352.418125 185.971563) scale(0.1 -0.1)">
      <defs>
       <path id="DejaVuSans-53" d="M 3425 4513 
L 3425 3897 
Q 3066 4069 2747 4153 
Q 2428 4238 2131 4238 
Q 1616 4238 1336 4038 
Q 1056 3838 1056 3469 
Q 1056 3159 1242 3001 
Q 1428 2844 1947 2747 
L 2328 2669 
Q 3034 2534 3370 2195 
Q 3706 1856 3706 1288 
Q 3706 609 3251 259 
Q 2797 -91 1919 -91 
Q 1588 -91 1214 -16 
Q 841 59 441 206 
L 441 856 
Q 825 641 1194 531 
Q 1563 422 1919 422 
Q 2459 422 2753 634 
Q 3047 847 3047 1241 
Q 3047 1584 2836 1778 
Q 2625 1972 2144 2069 
L 1759 2144 
Q 1053 2284 737 2584 
Q 422 2884 422 3419 
Q 422 4038 858 4394 
Q 1294 4750 2059 4750 
Q 2388 4750 2728 4690 
Q 3069 4631 3425 4513 
z
" transform="scale(0.015625)"/>
       <path id="DejaVuSans-3d" d="M 678 2906 
L 4684 2906 
L 4684 2381 
L 678 2381 
L 678 2906 
z
M 678 1631 
L 4684 1631 
L 4684 1100 
L 678 1100 
L 678 1631 
z
" transform="scale(0.015625)"/>
       <path id="DejaVuSans-39" d="M 703 97 
L 703 672 
Q 941 559 1184 500 
Q 1428 441 1663 441 
Q 2288 441 2617 861 
Q 2947 1281 2994 2138 
Q 2813 1869 2534 1725 
Q 2256 1581 1919 1581 
Q 1219 1581 811 2004 
Q 403 2428 403 3163 
Q 403 3881 828 4315 
Q 1253 4750 1959 4750 
Q 2769 4750 3195 4129 
Q 3622 3509 3622 2328 
Q 3622 1225 3098 567 
Q 2575 -91 1691 -91 
Q 1453 -91 1209 -44 
Q 966 3 703 97 
z
M 1959 2075 
Q 2384 2075 2632 2365 
Q 2881 2656 2881 3163 
Q 2881 3666 2632 3958 
Q 2384 4250 1959 4250 
Q 1534 4250 1286 3958 
Q 1038 3666 1038 3163 
Q 1038 2656 1286 2365 
Q 1534 2075 1959 2075 
z
" transform="scale(0.015625)"/>
      </defs>
      <use xlink:href="#DejaVuSans-52"/>
      <use xlink:href="#DejaVuSans-65" transform="translate(64.982422 0)"/>
      <use xlink:href="#DejaVuSans-66" transform="translate(126.505859 0)"/>
      <use xlink:href="#DejaVuSans-20" transform="translate(161.710938 0)"/>
      <use xlink:href="#DejaVuSans-53" transform="translate(193.498047 0)"/>
      <use xlink:href="#DejaVuSans-70" transform="translate(256.974609 0)"/>
      <use xlink:href="#DejaVuSans-65" transform="translate(320.451172 0)"/>
      <use xlink:href="#DejaVuSans-65" transform="translate(381.974609 0)"/>
      <use xlink:href="#DejaVuSans-64" transform="translate(443.498047 0)"/>
      <use xlink:href="#DejaVuSans-20" transform="translate(506.974609 0)"/>
      <use xlink:href="#DejaVuSans-3d" transform="translate(538.761719 0)"/>
      <use xlink:href="#DejaVuSans-20" transform="translate(622.550781 0)"/>
      <use xlink:href="#DejaVuSans-35" transform="translate(654.337891 0)"/>
      <use xlink:href="#DejaVuSans-39" transform="translate(717.960938 0)"/>
      <use xlink:href="#DejaVuSans-35" transform="translate(781.583984 0)"/>
     </g>
    </g>
    <g id="line2d_24">
     <path d="M 324.418125 197.149688 
L 334.418125 197.149688 
L 344.418125 197.149688 
" style="fill: none; stroke: #ff7f0e; stroke-width: 1.5; stroke-linecap: square"/>
    </g>
    <g id="text_19">
     <!-- Ref Speed = 510 -->
     <g transform="translate(352.418125 200.649688) scale(0.1 -0.1)">
      <use xlink:href="#DejaVuSans-52"/>
      <use xlink:href="#DejaVuSans-65" transform="translate(64.982422 0)"/>
      <use xlink:href="#DejaVuSans-66" transform="translate(126.505859 0)"/>
      <use xlink:href="#DejaVuSans-20" transform="translate(161.710938 0)"/>
      <use xlink:href="#DejaVuSans-53" transform="translate(193.498047 0)"/>
      <use xlink:href="#DejaVuSans-70" transform="translate(256.974609 0)"/>
      <use xlink:href="#DejaVuSans-65" transform="translate(320.451172 0)"/>
      <use xlink:href="#DejaVuSans-65" transform="translate(381.974609 0)"/>
      <use xlink:href="#DejaVuSans-64" transform="translate(443.498047 0)"/>
      <use xlink:href="#DejaVuSans-20" transform="translate(506.974609 0)"/>
      <use xlink:href="#DejaVuSans-3d" transform="translate(538.761719 0)"/>
      <use xlink:href="#DejaVuSans-20" transform="translate(622.550781 0)"/>
      <use xlink:href="#DejaVuSans-35" transform="translate(654.337891 0)"/>
      <use xlink:href="#DejaVuSans-31" transform="translate(717.960938 0)"/>
      <use xlink:href="#DejaVuSans-30" transform="translate(781.583984 0)"/>
     </g>
    </g>
    <g id="line2d_25">
     <path d="M 324.418125 211.827813 
L 334.418125 211.827813 
L 344.418125 211.827813 
" style="fill: none; stroke: #2ca02c; stroke-width: 1.5; stroke-linecap: square"/>
    </g>
    <g id="text_20">
     <!-- Ref Speed = 425 -->
     <g transform="translate(352.418125 215.327813) scale(0.1 -0.1)">
      <defs>
       <path id="DejaVuSans-34" d="M 2419 4116 
L 825 1625 
L 2419 1625 
L 2419 4116 
z
M 2253 4666 
L 3047 4666 
L 3047 1625 
L 3713 1625 
L 3713 1100 
L 3047 1100 
L 3047 0 
L 2419 0 
L 2419 1100 
L 313 1100 
L 313 1709 
L 2253 4666 
z
" transform="scale(0.015625)"/>
      </defs>
      <use xlink:href="#DejaVuSans-52"/>
      <use xlink:href="#DejaVuSans-65" transform="translate(64.982422 0)"/>
      <use xlink:href="#DejaVuSans-66" transform="translate(126.505859 0)"/>
      <use xlink:href="#DejaVuSans-20" transform="translate(161.710938 0)"/>
      <use xlink:href="#DejaVuSans-53" transform="translate(193.498047 0)"/>
      <use xlink:href="#DejaVuSans-70" transform="translate(256.974609 0)"/>
      <use xlink:href="#DejaVuSans-65" transform="translate(320.451172 0)"/>
      <use xlink:href="#DejaVuSans-65" transform="translate(381.974609 0)"/>
      <use xlink:href="#DejaVuSans-64" transform="translate(443.498047 0)"/>
      <use xlink:href="#DejaVuSans-20" transform="translate(506.974609 0)"/>
      <use xlink:href="#DejaVuSans-3d" transform="translate(538.761719 0)"/>
      <use xlink:href="#DejaVuSans-20" transform="translate(622.550781 0)"/>
      <use xlink:href="#DejaVuSans-34" transform="translate(654.337891 0)"/>
      <use xlink:href="#DejaVuSans-32" transform="translate(717.960938 0)"/>
      <use xlink:href="#DejaVuSans-35" transform="translate(781.583984 0)"/>
     </g>
    </g>
    <g id="line2d_26">
     <path d="M 324.418125 226.505938 
L 334.418125 226.505938 
L 344.418125 226.505938 
" style="fill: none; stroke: #d62728; stroke-width: 1.5; stroke-linecap: square"/>
    </g>
    <g id="text_21">
     <!-- Ref Speed = 340 -->
     <g transform="translate(352.418125 230.005938) scale(0.1 -0.1)">
      <use xlink:href="#DejaVuSans-52"/>
      <use xlink:href="#DejaVuSans-65" transform="translate(64.982422 0)"/>
      <use xlink:href="#DejaVuSans-66" transform="translate(126.505859 0)"/>
      <use xlink:href="#DejaVuSans-20" transform="translate(161.710938 0)"/>
      <use xlink:href="#DejaVuSans-53" transform="translate(193.498047 0)"/>
      <use xlink:href="#DejaVuSans-70" transform="translate(256.974609 0)"/>
      <use xlink:href="#DejaVuSans-65" transform="translate(320.451172 0)"/>
      <use xlink:href="#DejaVuSans-65" transform="translate(381.974609 0)"/>
      <use xlink:href="#DejaVuSans-64" transform="translate(443.498047 0)"/>
      <use xlink:href="#DejaVuSans-20" transform="translate(506.974609 0)"/>
      <use xlink:href="#DejaVuSans-3d" transform="translate(538.761719 0)"/>
      <use xlink:href="#DejaVuSans-20" transform="translate(622.550781 0)"/>
      <use xlink:href="#DejaVuSans-33" transform="translate(654.337891 0)"/>
      <use xlink:href="#DejaVuSans-34" transform="translate(717.960938 0)"/>
      <use xlink:href="#DejaVuSans-30" transform="translate(781.583984 0)"/>
     </g>
    </g>
    <g id="line2d_27">
     <path d="M 324.418125 241.184063 
L 334.418125 241.184063 
L 344.418125 241.184063 
" style="fill: none; stroke: #9467bd; stroke-width: 1.5; stroke-linecap: square"/>
    </g>
    <g id="text_22">
     <!-- Ref Speed = 255 -->
     <g transform="translate(352.418125 244.684063) scale(0.1 -0.1)">
      <use xlink:href="#DejaVuSans-52"/>
      <use xlink:href="#DejaVuSans-65" transform="translate(64.982422 0)"/>
      <use xlink:href="#DejaVuSans-66" transform="translate(126.505859 0)"/>
      <use xlink:href="#DejaVuSans-20" transform="translate(161.710938 0)"/>
      <use xlink:href="#DejaVuSans-53" transform="translate(193.498047 0)"/>
      <use xlink:href="#DejaVuSans-70" transform="translate(256.974609 0)"/>
      <use xlink:href="#DejaVuSans-65" transform="translate(320.451172 0)"/>
      <use xlink:href="#DejaVuSans-65" transform="translate(381.974609 0)"/>
      <use xlink:href="#DejaVuSans-64" transform="translate(443.498047 0)"/>
      <use xlink:href="#DejaVuSans-20" transform="translate(506.974609 0)"/>
      <use xlink:href="#DejaVuSans-3d" transform="translate(538.761719 0)"/>
      <use xlink:href="#DejaVuSans-20" transform="translate(622.550781 0)"/>
      <use xlink:href="#DejaVuSans-32" transform="translate(654.337891 0)"/>
      <use xlink:href="#DejaVuSans-35" transform="translate(717.960938 0)"/>
      <use xlink:href="#DejaVuSans-35" transform="translate(781.583984 0)"/>
     </g>
    </g>
    <g id="line2d_28">
     <path d="M 324.418125 255.862188 
L 334.418125 255.862188 
L 344.418125 255.862188 
" style="fill: none; stroke: #8c564b; stroke-width: 1.5; stroke-linecap: square"/>
    </g>
    <g id="text_23">
     <!-- Ref Speed = 170 -->
     <g transform="translate(352.418125 259.362188) scale(0.1 -0.1)">
      <defs>
       <path id="DejaVuSans-37" d="M 525 4666 
L 3525 4666 
L 3525 4397 
L 1831 0 
L 1172 0 
L 2766 4134 
L 525 4134 
L 525 4666 
z
" transform="scale(0.015625)"/>
      </defs>
      <use xlink:href="#DejaVuSans-52"/>
      <use xlink:href="#DejaVuSans-65" transform="translate(64.982422 0)"/>
      <use xlink:href="#DejaVuSans-66" transform="translate(126.505859 0)"/>
      <use xlink:href="#DejaVuSans-20" transform="translate(161.710938 0)"/>
      <use xlink:href="#DejaVuSans-53" transform="translate(193.498047 0)"/>
      <use xlink:href="#DejaVuSans-70" transform="translate(256.974609 0)"/>
      <use xlink:href="#DejaVuSans-65" transform="translate(320.451172 0)"/>
      <use xlink:href="#DejaVuSans-65" transform="translate(381.974609 0)"/>
      <use xlink:href="#DejaVuSans-64" transform="translate(443.498047 0)"/>
      <use xlink:href="#DejaVuSans-20" transform="translate(506.974609 0)"/>
      <use xlink:href="#DejaVuSans-3d" transform="translate(538.761719 0)"/>
      <use xlink:href="#DejaVuSans-20" transform="translate(622.550781 0)"/>
      <use xlink:href="#DejaVuSans-31" transform="translate(654.337891 0)"/>
      <use xlink:href="#DejaVuSans-37" transform="translate(717.960938 0)"/>
      <use xlink:href="#DejaVuSans-30" transform="translate(781.583984 0)"/>
     </g>
    </g>
    <g id="line2d_29">
     <path d="M 324.418125 270.540313 
L 334.418125 270.540313 
L 344.418125 270.540313 
" style="fill: none; stroke: #e377c2; stroke-width: 1.5; stroke-linecap: square"/>
    </g>
    <g id="text_24">
     <!-- Ref Speed = 85 -->
     <g transform="translate(352.418125 274.040313) scale(0.1 -0.1)">
      <defs>
       <path id="DejaVuSans-38" d="M 2034 2216 
Q 1584 2216 1326 1975 
Q 1069 1734 1069 1313 
Q 1069 891 1326 650 
Q 1584 409 2034 409 
Q 2484 409 2743 651 
Q 3003 894 3003 1313 
Q 3003 1734 2745 1975 
Q 2488 2216 2034 2216 
z
M 1403 2484 
Q 997 2584 770 2862 
Q 544 3141 544 3541 
Q 544 4100 942 4425 
Q 1341 4750 2034 4750 
Q 2731 4750 3128 4425 
Q 3525 4100 3525 3541 
Q 3525 3141 3298 2862 
Q 3072 2584 2669 2484 
Q 3125 2378 3379 2068 
Q 3634 1759 3634 1313 
Q 3634 634 3220 271 
Q 2806 -91 2034 -91 
Q 1263 -91 848 271 
Q 434 634 434 1313 
Q 434 1759 690 2068 
Q 947 2378 1403 2484 
z
M 1172 3481 
Q 1172 3119 1398 2916 
Q 1625 2713 2034 2713 
Q 2441 2713 2670 2916 
Q 2900 3119 2900 3481 
Q 2900 3844 2670 4047 
Q 2441 4250 2034 4250 
Q 1625 4250 1398 4047 
Q 1172 3844 1172 3481 
z
" transform="scale(0.015625)"/>
      </defs>
      <use xlink:href="#DejaVuSans-52"/>
      <use xlink:href="#DejaVuSans-65" transform="translate(64.982422 0)"/>
      <use xlink:href="#DejaVuSans-66" transform="translate(126.505859 0)"/>
      <use xlink:href="#DejaVuSans-20" transform="translate(161.710938 0)"/>
      <use xlink:href="#DejaVuSans-53" transform="translate(193.498047 0)"/>
      <use xlink:href="#DejaVuSans-70" transform="translate(256.974609 0)"/>
      <use xlink:href="#DejaVuSans-65" transform="translate(320.451172 0)"/>
      <use xlink:href="#DejaVuSans-65" transform="translate(381.974609 0)"/>
      <use xlink:href="#DejaVuSans-64" transform="translate(443.498047 0)"/>
      <use xlink:href="#DejaVuSans-20" transform="translate(506.974609 0)"/>
      <use xlink:href="#DejaVuSans-3d" transform="translate(538.761719 0)"/>
      <use xlink:href="#DejaVuSans-20" transform="translate(622.550781 0)"/>
      <use xlink:href="#DejaVuSans-38" transform="translate(654.337891 0)"/>
      <use xlink:href="#DejaVuSans-35" transform="translate(717.960938 0)"/>
     </g>
    </g>
    <g id="line2d_30">
     <path d="M 324.418125 285.218438 
L 334.418125 285.218438 
L 344.418125 285.218438 
" style="fill: none; stroke: #7f7f7f; stroke-width: 1.5; stroke-linecap: square"/>
    </g>
    <g id="text_25">
     <!-- y = x -->
     <g transform="translate(352.418125 288.718438) scale(0.1 -0.1)">
      <defs>
       <path id="DejaVuSans-79" d="M 2059 -325 
Q 1816 -950 1584 -1140 
Q 1353 -1331 966 -1331 
L 506 -1331 
L 506 -850 
L 844 -850 
Q 1081 -850 1212 -737 
Q 1344 -625 1503 -206 
L 1606 56 
L 191 3500 
L 800 3500 
L 1894 763 
L 2988 3500 
L 3597 3500 
L 2059 -325 
z
" transform="scale(0.015625)"/>
       <path id="DejaVuSans-78" d="M 3513 3500 
L 2247 1797 
L 3578 0 
L 2900 0 
L 1881 1375 
L 863 0 
L 184 0 
L 1544 1831 
L 300 3500 
L 978 3500 
L 1906 2253 
L 2834 3500 
L 3513 3500 
z
" transform="scale(0.015625)"/>
      </defs>
      <use xlink:href="#DejaVuSans-79"/>
      <use xlink:href="#DejaVuSans-20" transform="translate(59.179688 0)"/>
      <use xlink:href="#DejaVuSans-3d" transform="translate(90.966797 0)"/>
      <use xlink:href="#DejaVuSans-20" transform="translate(174.755859 0)"/>
      <use xlink:href="#DejaVuSans-78" transform="translate(206.542969 0)"/>
     </g>
    </g>
   </g>
  </g>
 </g>
 <defs>
  <clipPath id="pcc05e31384">
   <rect x="40.603125" y="22.318125" width="405.34" height="277.48"/>
  </clipPath>
 </defs>
</svg>
