<?xml version="1.0" encoding="utf-8" standalone="no"?>
<!DOCTYPE svg PUBLIC "-//W3C//DTD SVG 1.1//EN"
  "http://www.w3.org/Graphics/SVG/1.1/DTD/svg11.dtd">
<svg xmlns:xlink="http://www.w3.org/1999/xlink" width="450.447187pt" height="334.991875pt" viewBox="0 0 450.447187 334.991875" xmlns="http://www.w3.org/2000/svg" version="1.1">
 <metadata>
  <rdf:RDF xmlns:dc="http://purl.org/dc/elements/1.1/" xmlns:cc="http://creativecommons.org/ns#" xmlns:rdf="http://www.w3.org/1999/02/22-rdf-syntax-ns#">
   <cc:Work>
    <dc:type rdf:resource="http://purl.org/dc/dcmitype/StillImage"/>
    <dc:date>2025-12-08T16:22:37.336093</dc:date>
    <dc:format>image/svg+xml</dc:format>
    <dc:creator>
     <cc:Agent>
      <dc:title>Matplotlib v3.10.6, https://matplotlib.org/</dc:title>
     </cc:Agent>
    </dc:creator>
   </cc:Work>
  </rdf:RDF>
 </metadata>
 <defs>
  <style type="text/css">*{stroke-linejoin: round; stroke-linecap: butt}</style>
 </defs>
 <g id="figure_1">
  <g id="patch_1">
   <path d="M 0 334.991875 
L 450.447187 334.991875 
L 450.447187 0 
L 0 0 
z
" style="fill: #ffffff"/>
  </g>
  <g id="axes_1">
   <g id="patch_2">
    <path d="M 55.367188 297.435625 
L 443.247187 297.435625 
L 443.247187 22.318125 
L 55.367188 22.318125 
z
" style="fill: #ffffff"/>
   </g>
   <g id="matplotlib.axis_1">
    <g id="xtick_1">
     <g id="line2d_1">
      <path d="M 71.729679 297.435625 
L 71.729679 22.318125 
" clip-path="url(#p465d1ced38)" style="fill: none; stroke: #b0b0b0; stroke-width: 0.8; stroke-linecap: square"/>
     </g>
     <g id="line2d_2">
      <defs>
       <path id="m847c0008e7" d="M 0 0 
L 0 3.5 
" style="stroke: #000000; stroke-width: 0.8"/>
      </defs>
      <g>
       <use xlink:href="#m847c0008e7" x="71.729679" y="297.435625" style="stroke: #000000; stroke-width: 0.8"/>
      </g>
     </g>
     <g id="text_1">
      <!-- 0 -->
      <g transform="translate(68.548429 312.034062) scale(0.1 -0.1)">
       <defs>
        <path id="DejaVuSans-30" d="M 2034 4250 
Q 1547 4250 1301 3770 
Q 1056 3291 1056 2328 
Q 1056 1369 1301 889 
Q 1547 409 2034 409 
Q 2525 409 2770 889 
Q 3016 1369 3016 2328 
Q 3016 3291 2770 3770 
Q 2525 4250 2034 4250 
z
M 2034 4750 
Q 2819 4750 3233 4129 
Q 3647 3509 3647 2328 
Q 3647 1150 3233 529 
Q 2819 -91 2034 -91 
Q 1250 -91 836 529 
Q 422 1150 422 2328 
Q 422 3509 836 4129 
Q 1250 4750 2034 4750 
z
" transform="scale(0.015625)"/>
       </defs>
       <use xlink:href="#DejaVuSans-30"/>
      </g>
     </g>
    </g>
    <g id="xtick_2">
     <g id="line2d_3">
      <path d="M 155.845187 297.435625 
L 155.845187 22.318125 
" clip-path="url(#p465d1ced38)" style="fill: none; stroke: #b0b0b0; stroke-width: 0.8; stroke-linecap: square"/>
     </g>
     <g id="line2d_4">
      <g>
       <use xlink:href="#m847c0008e7" x="155.845187" y="297.435625" style="stroke: #000000; stroke-width: 0.8"/>
      </g>
     </g>
     <g id="text_2">
      <!-- 200 -->
      <g transform="translate(146.301437 312.034062) scale(0.1 -0.1)">
       <defs>
        <path id="DejaVuSans-32" d="M 1228 531 
L 3431 531 
L 3431 0 
L 469 0 
L 469 531 
Q 828 903 1448 1529 
Q 2069 2156 2228 2338 
Q 2531 2678 2651 2914 
Q 2772 3150 2772 3378 
Q 2772 3750 2511 3984 
Q 2250 4219 1831 4219 
Q 1534 4219 1204 4116 
Q 875 4013 500 3803 
L 500 4441 
Q 881 4594 1212 4672 
Q 1544 4750 1819 4750 
Q 2544 4750 2975 4387 
Q 3406 4025 3406 3419 
Q 3406 3131 3298 2873 
Q 3191 2616 2906 2266 
Q 2828 2175 2409 1742 
Q 1991 1309 1228 531 
z
" transform="scale(0.015625)"/>
       </defs>
       <use xlink:href="#DejaVuSans-32"/>
       <use xlink:href="#DejaVuSans-30" transform="translate(63.623047 0)"/>
       <use xlink:href="#DejaVuSans-30" transform="translate(127.246094 0)"/>
      </g>
     </g>
    </g>
    <g id="xtick_3">
     <g id="line2d_5">
      <path d="M 239.960694 297.435625 
L 239.960694 22.318125 
" clip-path="url(#p465d1ced38)" style="fill: none; stroke: #b0b0b0; stroke-width: 0.8; stroke-linecap: square"/>
     </g>
     <g id="line2d_6">
      <g>
       <use xlink:href="#m847c0008e7" x="239.960694" y="297.435625" style="stroke: #000000; stroke-width: 0.8"/>
      </g>
     </g>
     <g id="text_3">
      <!-- 400 -->
      <g transform="translate(230.416944 312.034062) scale(0.1 -0.1)">
       <defs>
        <path id="DejaVuSans-34" d="M 2419 4116 
L 825 1625 
L 2419 1625 
L 2419 4116 
z
M 2253 4666 
L 3047 4666 
L 3047 1625 
L 3713 1625 
L 3713 1100 
L 3047 1100 
L 3047 0 
L 2419 0 
L 2419 1100 
L 313 1100 
L 313 1709 
L 2253 4666 
z
" transform="scale(0.015625)"/>
       </defs>
       <use xlink:href="#DejaVuSans-34"/>
       <use xlink:href="#DejaVuSans-30" transform="translate(63.623047 0)"/>
       <use xlink:href="#DejaVuSans-30" transform="translate(127.246094 0)"/>
      </g>
     </g>
    </g>
    <g id="xtick_4">
     <g id="line2d_7">
      <path d="M 324.076202 297.435625 
L 324.076202 22.318125 
" clip-path="url(#p465d1ced38)" style="fill: none; stroke: #b0b0b0; stroke-width: 0.8; stroke-linecap: square"/>
     </g>
     <g id="line2d_8">
      <g>
       <use xlink:href="#m847c0008e7" x="324.076202" y="297.435625" style="stroke: #000000; stroke-width: 0.8"/>
      </g>
     </g>
     <g id="text_4">
      <!-- 600 -->
      <g transform="translate(314.532452 312.034062) scale(0.1 -0.1)">
       <defs>
        <path id="DejaVuSans-36" d="M 2113 2584 
Q 1688 2584 1439 2293 
Q 1191 2003 1191 1497 
Q 1191 994 1439 701 
Q 1688 409 2113 409 
Q 2538 409 2786 701 
Q 3034 994 3034 1497 
Q 3034 2003 2786 2293 
Q 2538 2584 2113 2584 
z
M 3366 4563 
L 3366 3988 
Q 3128 4100 2886 4159 
Q 2644 4219 2406 4219 
Q 1781 4219 1451 3797 
Q 1122 3375 1075 2522 
Q 1259 2794 1537 2939 
Q 1816 3084 2150 3084 
Q 2853 3084 3261 2657 
Q 3669 2231 3669 1497 
Q 3669 778 3244 343 
Q 2819 -91 2113 -91 
Q 1303 -91 875 529 
Q 447 1150 447 2328 
Q 447 3434 972 4092 
Q 1497 4750 2381 4750 
Q 2619 4750 2861 4703 
Q 3103 4656 3366 4563 
z
" transform="scale(0.015625)"/>
       </defs>
       <use xlink:href="#DejaVuSans-36"/>
       <use xlink:href="#DejaVuSans-30" transform="translate(63.623047 0)"/>
       <use xlink:href="#DejaVuSans-30" transform="translate(127.246094 0)"/>
      </g>
     </g>
    </g>
    <g id="xtick_5">
     <g id="line2d_9">
      <path d="M 408.191709 297.435625 
L 408.191709 22.318125 
" clip-path="url(#p465d1ced38)" style="fill: none; stroke: #b0b0b0; stroke-width: 0.8; stroke-linecap: square"/>
     </g>
     <g id="line2d_10">
      <g>
       <use xlink:href="#m847c0008e7" x="408.191709" y="297.435625" style="stroke: #000000; stroke-width: 0.8"/>
      </g>
     </g>
     <g id="text_5">
      <!-- 800 -->
      <g transform="translate(398.647959 312.034062) scale(0.1 -0.1)">
       <defs>
        <path id="DejaVuSans-38" d="M 2034 2216 
Q 1584 2216 1326 1975 
Q 1069 1734 1069 1313 
Q 1069 891 1326 650 
Q 1584 409 2034 409 
Q 2484 409 2743 651 
Q 3003 894 3003 1313 
Q 3003 1734 2745 1975 
Q 2488 2216 2034 2216 
z
M 1403 2484 
Q 997 2584 770 2862 
Q 544 3141 544 3541 
Q 544 4100 942 4425 
Q 1341 4750 2034 4750 
Q 2731 4750 3128 4425 
Q 3525 4100 3525 3541 
Q 3525 3141 3298 2862 
Q 3072 2584 2669 2484 
Q 3125 2378 3379 2068 
Q 3634 1759 3634 1313 
Q 3634 634 3220 271 
Q 2806 -91 2034 -91 
Q 1263 -91 848 271 
Q 434 634 434 1313 
Q 434 1759 690 2068 
Q 947 2378 1403 2484 
z
M 1172 3481 
Q 1172 3119 1398 2916 
Q 1625 2713 2034 2713 
Q 2441 2713 2670 2916 
Q 2900 3119 2900 3481 
Q 2900 3844 2670 4047 
Q 2441 4250 2034 4250 
Q 1625 4250 1398 4047 
Q 1172 3844 1172 3481 
z
" transform="scale(0.015625)"/>
       </defs>
       <use xlink:href="#DejaVuSans-38"/>
       <use xlink:href="#DejaVuSans-30" transform="translate(63.623047 0)"/>
       <use xlink:href="#DejaVuSans-30" transform="translate(127.246094 0)"/>
      </g>
     </g>
    </g>
    <g id="text_6">
     <!-- x, $x$, [-] -->
     <g transform="translate(231.307187 325.712187) scale(0.1 -0.1)">
      <defs>
       <path id="DejaVuSans-78" d="M 3513 3500 
L 2247 1797 
L 3578 0 
L 2900 0 
L 1881 1375 
L 863 0 
L 184 0 
L 1544 1831 
L 300 3500 
L 978 3500 
L 1906 2253 
L 2834 3500 
L 3513 3500 
z
" transform="scale(0.015625)"/>
       <path id="DejaVuSans-2c" d="M 750 794 
L 1409 794 
L 1409 256 
L 897 -744 
L 494 -744 
L 750 256 
L 750 794 
z
" transform="scale(0.015625)"/>
       <path id="DejaVuSans-20" transform="scale(0.015625)"/>
       <path id="DejaVuSans-Oblique-78" d="M 3841 3500 
L 2234 1784 
L 3219 0 
L 2559 0 
L 1819 1388 
L 531 0 
L -166 0 
L 1556 1844 
L 641 3500 
L 1300 3500 
L 1972 2234 
L 3144 3500 
L 3841 3500 
z
" transform="scale(0.015625)"/>
       <path id="DejaVuSans-5b" d="M 550 4863 
L 1875 4863 
L 1875 4416 
L 1125 4416 
L 1125 -397 
L 1875 -397 
L 1875 -844 
L 550 -844 
L 550 4863 
z
" transform="scale(0.015625)"/>
       <path id="DejaVuSans-2d" d="M 313 2009 
L 1997 2009 
L 1997 1497 
L 313 1497 
L 313 2009 
z
" transform="scale(0.015625)"/>
       <path id="DejaVuSans-5d" d="M 1947 4863 
L 1947 -844 
L 622 -844 
L 622 -397 
L 1369 -397 
L 1369 4416 
L 622 4416 
L 622 4863 
L 1947 4863 
z
" transform="scale(0.015625)"/>
      </defs>
      <use xlink:href="#DejaVuSans-78" transform="translate(0 0.015625)"/>
      <use xlink:href="#DejaVuSans-2c" transform="translate(59.179688 0.015625)"/>
      <use xlink:href="#DejaVuSans-20" transform="translate(90.966797 0.015625)"/>
      <use xlink:href="#DejaVuSans-Oblique-78" transform="translate(122.753906 0.015625)"/>
      <use xlink:href="#DejaVuSans-2c" transform="translate(181.933594 0.015625)"/>
      <use xlink:href="#DejaVuSans-20" transform="translate(213.720703 0.015625)"/>
      <use xlink:href="#DejaVuSans-5b" transform="translate(245.507812 0.015625)"/>
      <use xlink:href="#DejaVuSans-2d" transform="translate(284.521484 0.015625)"/>
      <use xlink:href="#DejaVuSans-5d" transform="translate(320.605469 0.015625)"/>
     </g>
    </g>
   </g>
   <g id="matplotlib.axis_2">
    <g id="ytick_1">
     <g id="line2d_11">
      <path d="M 55.367188 257.107288 
L 443.247187 257.107288 
" clip-path="url(#p465d1ced38)" style="fill: none; stroke: #b0b0b0; stroke-width: 0.8; stroke-linecap: square"/>
     </g>
     <g id="line2d_12">
      <defs>
       <path id="m3ae1cd47a9" d="M 0 0 
L -3.5 0 
" style="stroke: #000000; stroke-width: 0.8"/>
      </defs>
      <g>
       <use xlink:href="#m3ae1cd47a9" x="55.367188" y="257.107288" style="stroke: #000000; stroke-width: 0.8"/>
      </g>
     </g>
     <g id="text_7">
      <!-- −250 -->
      <g transform="translate(20.9 260.906506) scale(0.1 -0.1)">
       <defs>
        <path id="DejaVuSans-2212" d="M 678 2272 
L 4684 2272 
L 4684 1741 
L 678 1741 
L 678 2272 
z
" transform="scale(0.015625)"/>
        <path id="DejaVuSans-35" d="M 691 4666 
L 3169 4666 
L 3169 4134 
L 1269 4134 
L 1269 2991 
Q 1406 3038 1543 3061 
Q 1681 3084 1819 3084 
Q 2600 3084 3056 2656 
Q 3513 2228 3513 1497 
Q 3513 744 3044 326 
Q 2575 -91 1722 -91 
Q 1428 -91 1123 -41 
Q 819 9 494 109 
L 494 744 
Q 775 591 1075 516 
Q 1375 441 1709 441 
Q 2250 441 2565 725 
Q 2881 1009 2881 1497 
Q 2881 1984 2565 2268 
Q 2250 2553 1709 2553 
Q 1456 2553 1204 2497 
Q 953 2441 691 2322 
L 691 4666 
z
" transform="scale(0.015625)"/>
       </defs>
       <use xlink:href="#DejaVuSans-2212"/>
       <use xlink:href="#DejaVuSans-32" transform="translate(83.789062 0)"/>
       <use xlink:href="#DejaVuSans-35" transform="translate(147.412109 0)"/>
       <use xlink:href="#DejaVuSans-30" transform="translate(211.035156 0)"/>
      </g>
     </g>
    </g>
    <g id="ytick_2">
     <g id="line2d_13">
      <path d="M 55.367188 214.512376 
L 443.247187 214.512376 
" clip-path="url(#p465d1ced38)" style="fill: none; stroke: #b0b0b0; stroke-width: 0.8; stroke-linecap: square"/>
     </g>
     <g id="line2d_14">
      <g>
       <use xlink:href="#m3ae1cd47a9" x="55.367188" y="214.512376" style="stroke: #000000; stroke-width: 0.8"/>
      </g>
     </g>
     <g id="text_8">
      <!-- −200 -->
      <g transform="translate(20.9 218.311595) scale(0.1 -0.1)">
       <use xlink:href="#DejaVuSans-2212"/>
       <use xlink:href="#DejaVuSans-32" transform="translate(83.789062 0)"/>
       <use xlink:href="#DejaVuSans-30" transform="translate(147.412109 0)"/>
       <use xlink:href="#DejaVuSans-30" transform="translate(211.035156 0)"/>
      </g>
     </g>
    </g>
    <g id="ytick_3">
     <g id="line2d_15">
      <path d="M 55.367188 171.917464 
L 443.247187 171.917464 
" clip-path="url(#p465d1ced38)" style="fill: none; stroke: #b0b0b0; stroke-width: 0.8; stroke-linecap: square"/>
     </g>
     <g id="line2d_16">
      <g>
       <use xlink:href="#m3ae1cd47a9" x="55.367188" y="171.917464" style="stroke: #000000; stroke-width: 0.8"/>
      </g>
     </g>
     <g id="text_9">
      <!-- −150 -->
      <g transform="translate(20.9 175.716683) scale(0.1 -0.1)">
       <defs>
        <path id="DejaVuSans-31" d="M 794 531 
L 1825 531 
L 1825 4091 
L 703 3866 
L 703 4441 
L 1819 4666 
L 2450 4666 
L 2450 531 
L 3481 531 
L 3481 0 
L 794 0 
L 794 531 
z
" transform="scale(0.015625)"/>
       </defs>
       <use xlink:href="#DejaVuSans-2212"/>
       <use xlink:href="#DejaVuSans-31" transform="translate(83.789062 0)"/>
       <use xlink:href="#DejaVuSans-35" transform="translate(147.412109 0)"/>
       <use xlink:href="#DejaVuSans-30" transform="translate(211.035156 0)"/>
      </g>
     </g>
    </g>
    <g id="ytick_4">
     <g id="line2d_17">
      <path d="M 55.367188 129.322552 
L 443.247187 129.322552 
" clip-path="url(#p465d1ced38)" style="fill: none; stroke: #b0b0b0; stroke-width: 0.8; stroke-linecap: square"/>
     </g>
     <g id="line2d_18">
      <g>
       <use xlink:href="#m3ae1cd47a9" x="55.367188" y="129.322552" style="stroke: #000000; stroke-width: 0.8"/>
      </g>
     </g>
     <g id="text_10">
      <!-- −100 -->
      <g transform="translate(20.9 133.121771) scale(0.1 -0.1)">
       <use xlink:href="#DejaVuSans-2212"/>
       <use xlink:href="#DejaVuSans-31" transform="translate(83.789062 0)"/>
       <use xlink:href="#DejaVuSans-30" transform="translate(147.412109 0)"/>
       <use xlink:href="#DejaVuSans-30" transform="translate(211.035156 0)"/>
      </g>
     </g>
    </g>
    <g id="ytick_5">
     <g id="line2d_19">
      <path d="M 55.367188 86.727641 
L 443.247187 86.727641 
" clip-path="url(#p465d1ced38)" style="fill: none; stroke: #b0b0b0; stroke-width: 0.8; stroke-linecap: square"/>
     </g>
     <g id="line2d_20">
      <g>
       <use xlink:href="#m3ae1cd47a9" x="55.367188" y="86.727641" style="stroke: #000000; stroke-width: 0.8"/>
      </g>
     </g>
     <g id="text_11">
      <!-- −50 -->
      <g transform="translate(27.2625 90.526859) scale(0.1 -0.1)">
       <use xlink:href="#DejaVuSans-2212"/>
       <use xlink:href="#DejaVuSans-35" transform="translate(83.789062 0)"/>
       <use xlink:href="#DejaVuSans-30" transform="translate(147.412109 0)"/>
      </g>
     </g>
    </g>
    <g id="ytick_6">
     <g id="line2d_21">
      <path d="M 55.367188 44.132729 
L 443.247187 44.132729 
" clip-path="url(#p465d1ced38)" style="fill: none; stroke: #b0b0b0; stroke-width: 0.8; stroke-linecap: square"/>
     </g>
     <g id="line2d_22">
      <g>
       <use xlink:href="#m3ae1cd47a9" x="55.367188" y="44.132729" style="stroke: #000000; stroke-width: 0.8"/>
      </g>
     </g>
     <g id="text_12">
      <!-- 0 -->
      <g transform="translate(42.004688 47.931947) scale(0.1 -0.1)">
       <use xlink:href="#DejaVuSans-30"/>
      </g>
     </g>
    </g>
    <g id="text_13">
     <!-- y, $y$, [-] -->
     <g transform="translate(14.8 177.876875) rotate(-90) scale(0.1 -0.1)">
      <defs>
       <path id="DejaVuSans-79" d="M 2059 -325 
Q 1816 -950 1584 -1140 
Q 1353 -1331 966 -1331 
L 506 -1331 
L 506 -850 
L 844 -850 
Q 1081 -850 1212 -737 
Q 1344 -625 1503 -206 
L 1606 56 
L 191 3500 
L 800 3500 
L 1894 763 
L 2988 3500 
L 3597 3500 
L 2059 -325 
z
" transform="scale(0.015625)"/>
       <path id="DejaVuSans-Oblique-79" d="M 1588 -325 
Q 1188 -997 936 -1164 
Q 684 -1331 294 -1331 
L -159 -1331 
L -63 -850 
L 269 -850 
Q 509 -850 678 -719 
Q 847 -588 1056 -206 
L 1234 128 
L 459 3500 
L 1069 3500 
L 1650 819 
L 3256 3500 
L 3859 3500 
L 1588 -325 
z
" transform="scale(0.015625)"/>
      </defs>
      <use xlink:href="#DejaVuSans-79" transform="translate(0 0.015625)"/>
      <use xlink:href="#DejaVuSans-2c" transform="translate(59.179688 0.015625)"/>
      <use xlink:href="#DejaVuSans-20" transform="translate(90.966797 0.015625)"/>
      <use xlink:href="#DejaVuSans-Oblique-79" transform="translate(122.753906 0.015625)"/>
      <use xlink:href="#DejaVuSans-2c" transform="translate(181.933594 0.015625)"/>
      <use xlink:href="#DejaVuSans-20" transform="translate(213.720703 0.015625)"/>
      <use xlink:href="#DejaVuSans-5b" transform="translate(245.507812 0.015625)"/>
      <use xlink:href="#DejaVuSans-2d" transform="translate(284.521484 0.015625)"/>
      <use xlink:href="#DejaVuSans-5d" transform="translate(320.605469 0.015625)"/>
     </g>
    </g>
   </g>
   <g id="line2d_23">
    <path d="M 72.998097 44.130254 
L 75.977445 44.185122 
L 85.438068 44.796924 
L 102.530545 45.771493 
L 105.853154 45.819888 
L 109.22484 45.541451 
L 112.433358 45.027847 
L 117.735016 43.858627 
L 127.739504 41.635026 
L 142.30137 38.448085 
L 149.010129 37.029044 
L 153.971093 36.18024 
L 158.894879 35.526018 
L 163.703468 35.124254 
L 170.520146 34.842335 
L 175.532421 34.886251 
L 180.509956 35.253436 
L 185.457084 35.843926 
L 190.516253 36.727401 
L 195.439954 37.866387 
L 226.964007 45.889064 
L 233.451836 47.769696 
L 237.906299 48.764353 
L 241.367358 49.261309 
L 244.643404 49.465551 
L 254.359334 49.435721 
L 266.151529 50.019422 
L 272.770999 50.037664 
L 279.379997 50.0814 
L 287.62992 50.286079 
L 292.592146 50.186224 
L 297.417894 49.873581 
L 309.17556 49.001595 
L 314.218579 48.876915 
L 320.910472 48.739013 
L 325.997694 48.440574 
L 331.043531 47.935832 
L 344.244409 46.330752 
L 350.618345 45.751614 
L 353.505021 45.620638 
L 355.75999 45.666991 
L 358.299815 45.91373 
L 363.165267 46.770241 
L 367.987104 47.966447 
L 372.874678 49.531796 
L 377.550448 51.435763 
L 382.123388 53.725861 
L 386.604473 56.418924 
L 390.95661 59.499797 
L 395.210331 62.964936 
L 399.380021 66.766106 
L 403.461263 70.921069 
L 407.335539 75.291435 
L 411.208764 80.132406 
L 414.35296 84.528218 
L 417.349238 89.420959 
L 418.458259 91.51898 
L 419.45263 93.65428 
L 420.437875 96.135689 
L 421.423709 99.106719 
L 422.322147 102.346735 
L 423.095084 105.676396 
L 424.246752 112.192957 
L 425.014895 118.808194 
L 425.502007 125.449227 
L 425.616278 128.7722 
L 425.579814 132.195324 
L 425.151877 139.015962 
L 423.801192 155.026622 
L 423.110646 161.179798 
L 420.368859 181.148548 
L 418.981163 193.439906 
L 417.952557 200.016816 
L 416.101048 209.614983 
L 413.990842 219.06952 
L 411.74908 228.233049 
L 410.148194 234.233309 
L 408.371338 240.134238 
L 404.847697 251.570971 
L 403.158826 257.239076 
L 402.227962 259.902621 
L 401.177191 262.490603 
L 399.984307 265.019207 
L 398.701461 267.340971 
L 397.356454 269.408698 
L 395.886493 271.230994 
L 394.288341 272.760747 
L 392.614316 273.961413 
L 390.949923 274.827453 
L 389.271229 275.416199 
L 387.576386 275.746395 
L 385.89845 275.830648 
L 384.246379 275.682929 
L 382.615506 275.296848 
L 380.984506 274.601529 
L 379.358091 273.48665 
L 377.833034 272.004177 
L 375.216159 268.744218 
L 372.71591 265.041953 
L 370.262302 260.994329 
L 369.116144 258.784335 
L 367.993497 256.338109 
L 366.895243 253.624557 
L 365.890357 250.719158 
L 365.035911 247.657351 
L 364.361515 244.446461 
L 363.877767 241.053265 
L 363.595223 237.481938 
L 363.521075 234.019994 
L 363.716938 228.179464 
L 364.005749 225.208214 
L 364.500306 221.930961 
L 365.805358 215.704267 
L 367.297693 210.204412 
L 368.218632 207.541548 
L 369.341616 204.883115 
L 370.640822 202.377852 
L 372.022966 200.19137 
L 373.468659 198.315661 
L 374.989384 196.70881 
L 376.633001 195.315445 
L 378.357411 194.180632 
L 380.09776 193.323196 
L 381.796683 192.713833 
L 383.451446 192.340872 
L 385.117395 192.225611 
L 386.791252 192.407065 
L 388.436341 192.873394 
L 390.022549 193.588648 
L 391.607117 194.566371 
L 393.152067 195.768741 
L 396.074912 198.515772 
L 397.498189 200.037688 
L 398.886599 201.706982 
L 400.225676 203.572128 
L 401.513022 205.648034 
L 402.760917 207.998336 
L 403.934118 210.574391 
L 405.048691 213.407294 
L 406.071998 216.397116 
L 407.743079 222.207743 
L 409.147766 228.119406 
L 409.724966 231.188284 
L 410.113496 234.206133 
L 410.301873 237.213164 
L 410.299433 240.350535 
L 410.108028 243.645336 
L 409.735817 247.080957 
L 408.639582 253.944956 
L 405.809305 268.018656 
L 405.157957 270.387103 
L 404.385398 272.623933 
L 403.519429 274.690467 
L 402.560638 276.673686 
L 401.467515 278.66994 
L 400.21655 280.651455 
L 398.975509 282.311634 
L 397.86918 283.50787 
L 396.82598 284.303969 
L 395.719734 284.779754 
L 394.489798 284.930284 
L 393.17095 284.693116 
L 391.707214 283.979055 
L 390.208108 282.848841 
L 387.560572 280.253363 
L 386.417232 278.87661 
L 385.256817 277.207656 
L 384.109481 275.229293 
L 383.02233 272.948335 
L 382.040787 270.386763 
L 381.190505 267.528133 
L 380.491337 264.38514 
L 379.992658 261.207815 
L 379.717558 258.275666 
L 379.646565 255.691092 
L 379.850713 251.047054 
L 380.360033 246.154858 
L 380.757184 243.709058 
L 381.250816 241.38738 
L 381.861705 239.134109 
L 382.610038 236.923774 
L 383.57968 234.653976 
L 384.793088 232.406158 
L 386.197438 230.323692 
L 387.649272 228.584201 
L 389.096101 227.233346 
L 390.602357 226.245826 
L 392.213464 225.634248 
L 393.926434 225.45782 
L 395.711828 225.764418 
L 397.530447 226.571592 
L 399.292204 227.750363 
L 402.227415 230.229898 
L 404.367103 232.47465 
L 405.931441 234.167202 
L 405.398822 233.498547 
L 404.307381 232.205365 
L 405.947003 234.179299 
L 405.539884 233.543527 
L 407.074445 235.187009 
L 408.073316 236.063016 
L 407.72512 235.797394 
L 405.813764 234.652698 
L 410.394862 237.558609 
L 413.427983 240.257252 
L 413.534011 240.35982 
L 412.811837 239.794075 
L 413.412759 240.149401 
L 413.999338 240.500639 
L 412.282541 239.567044 
L 408.336093 237.426394 
L 405.050121 235.486536 
L 409.68825 238.217552 
L 408.984077 237.881904 
L 408.595085 237.711098 
L 411.026612 238.685329 
L 410.533232 238.509838 
L 414.539948 239.727627 
L 415.110041 239.895791 
L 415.110041 239.895791 
" clip-path="url(#p465d1ced38)" style="fill: none; stroke: #1f77b4; stroke-width: 1.5; stroke-linecap: square"/>
   </g>
   <g id="patch_3">
    <path d="M 55.367188 297.435625 
L 55.367188 22.318125 
" style="fill: none; stroke: #000000; stroke-width: 0.8; stroke-linejoin: miter; stroke-linecap: square"/>
   </g>
   <g id="patch_4">
    <path d="M 443.247187 297.435625 
L 443.247187 22.318125 
" style="fill: none; stroke: #000000; stroke-width: 0.8; stroke-linejoin: miter; stroke-linecap: square"/>
   </g>
   <g id="patch_5">
    <path d="M 55.367188 297.435625 
L 443.247187 297.435625 
" style="fill: none; stroke: #000000; stroke-width: 0.8; stroke-linejoin: miter; stroke-linecap: square"/>
   </g>
   <g id="patch_6">
    <path d="M 55.367188 22.318125 
L 443.247187 22.318125 
" style="fill: none; stroke: #000000; stroke-width: 0.8; stroke-linejoin: miter; stroke-linecap: square"/>
   </g>
   <g id="text_14">
    <!-- y vs x -->
    <g transform="translate(231.714063 16.318125) scale(0.12 -0.12)">
     <defs>
      <path id="DejaVuSans-76" d="M 191 3500 
L 800 3500 
L 1894 563 
L 2988 3500 
L 3597 3500 
L 2284 0 
L 1503 0 
L 191 3500 
z
" transform="scale(0.015625)"/>
      <path id="DejaVuSans-73" d="M 2834 3397 
L 2834 2853 
Q 2591 2978 2328 3040 
Q 2066 3103 1784 3103 
Q 1356 3103 1142 2972 
Q 928 2841 928 2578 
Q 928 2378 1081 2264 
Q 1234 2150 1697 2047 
L 1894 2003 
Q 2506 1872 2764 1633 
Q 3022 1394 3022 966 
Q 3022 478 2636 193 
Q 2250 -91 1575 -91 
Q 1294 -91 989 -36 
Q 684 19 347 128 
L 347 722 
Q 666 556 975 473 
Q 1284 391 1588 391 
Q 1994 391 2212 530 
Q 2431 669 2431 922 
Q 2431 1156 2273 1281 
Q 2116 1406 1581 1522 
L 1381 1569 
Q 847 1681 609 1914 
Q 372 2147 372 2553 
Q 372 3047 722 3315 
Q 1072 3584 1716 3584 
Q 2034 3584 2315 3537 
Q 2597 3491 2834 3397 
z
" transform="scale(0.015625)"/>
     </defs>
     <use xlink:href="#DejaVuSans-79"/>
     <use xlink:href="#DejaVuSans-20" transform="translate(59.179688 0)"/>
     <use xlink:href="#DejaVuSans-76" transform="translate(90.966797 0)"/>
     <use xlink:href="#DejaVuSans-73" transform="translate(150.146484 0)"/>
     <use xlink:href="#DejaVuSans-20" transform="translate(202.246094 0)"/>
     <use xlink:href="#DejaVuSans-78" transform="translate(234.033203 0)"/>
    </g>
   </g>
   <g id="legend_1">
    <g id="patch_7">
     <path d="M 374.925313 44.99625 
L 436.247187 44.99625 
Q 438.247187 44.99625 438.247187 42.99625 
L 438.247187 29.318125 
Q 438.247187 27.318125 436.247187 27.318125 
L 374.925313 27.318125 
Q 372.925313 27.318125 372.925313 29.318125 
L 372.925313 42.99625 
Q 372.925313 44.99625 374.925313 44.99625 
z
" style="fill: #ffffff; opacity: 0.8; stroke: #cccccc; stroke-linejoin: miter"/>
    </g>
    <g id="line2d_24">
     <path d="M 376.925313 35.416562 
L 386.925313 35.416562 
L 396.925313 35.416562 
" style="fill: none; stroke: #1f77b4; stroke-width: 1.5; stroke-linecap: square"/>
    </g>
    <g id="text_15">
     <!-- y vs x -->
     <g transform="translate(404.925313 38.916562) scale(0.1 -0.1)">
      <use xlink:href="#DejaVuSans-79"/>
      <use xlink:href="#DejaVuSans-20" transform="translate(59.179688 0)"/>
      <use xlink:href="#DejaVuSans-76" transform="translate(90.966797 0)"/>
      <use xlink:href="#DejaVuSans-73" transform="translate(150.146484 0)"/>
      <use xlink:href="#DejaVuSans-20" transform="translate(202.246094 0)"/>
      <use xlink:href="#DejaVuSans-78" transform="translate(234.033203 0)"/>
     </g>
    </g>
   </g>
  </g>
 </g>
 <defs>
  <clipPath id="p465d1ced38">
   <rect x="55.367188" y="22.318125" width="387.88" height="275.1175"/>
  </clipPath>
 </defs>
</svg>
