<?xml version="1.0" encoding="utf-8" standalone="no"?>
<!DOCTYPE svg PUBLIC "-//W3C//DTD SVG 1.1//EN"
  "http://www.w3.org/Graphics/SVG/1.1/DTD/svg11.dtd">
<svg xmlns:xlink="http://www.w3.org/1999/xlink" width="453.115625pt" height="337.354375pt" viewBox="0 0 453.115625 337.354375" xmlns="http://www.w3.org/2000/svg" version="1.1">
 <metadata>
  <rdf:RDF xmlns:dc="http://purl.org/dc/elements/1.1/" xmlns:cc="http://creativecommons.org/ns#" xmlns:rdf="http://www.w3.org/1999/02/22-rdf-syntax-ns#">
   <cc:Work>
    <dc:type rdf:resource="http://purl.org/dc/dcmitype/StillImage"/>
    <dc:date>2025-10-29T21:37:17.247484</dc:date>
    <dc:format>image/svg+xml</dc:format>
    <dc:creator>
     <cc:Agent>
      <dc:title>Matplotlib v3.10.6, https://matplotlib.org/</dc:title>
     </cc:Agent>
    </dc:creator>
   </cc:Work>
  </rdf:RDF>
 </metadata>
 <defs>
  <style type="text/css">*{stroke-linejoin: round; stroke-linecap: butt}</style>
 </defs>
 <g id="figure_1">
  <g id="patch_1">
   <path d="M 0 337.354375 
L 453.115625 337.354375 
L 453.115625 0 
L 0 0 
z
" style="fill: #ffffff"/>
  </g>
  <g id="axes_1">
   <g id="patch_2">
    <path d="M 46.965625 299.798125 
L 445.915625 299.798125 
L 445.915625 22.318125 
L 46.965625 22.318125 
z
" style="fill: #ffffff"/>
   </g>
   <g id="matplotlib.axis_1">
    <g id="xtick_1">
     <g id="line2d_1">
      <defs>
       <path id="m62ce6c9cc2" d="M 0 0 
L 0 3.5 
" style="stroke: #000000; stroke-width: 0.8"/>
      </defs>
      <g>
       <use xlink:href="#m62ce6c9cc2" x="64.896141" y="299.798125" style="stroke: #000000; stroke-width: 0.8"/>
      </g>
     </g>
     <g id="text_1">
      <!-- 0.00 -->
      <g transform="translate(53.763329 314.396563) scale(0.1 -0.1)">
       <defs>
        <path id="DejaVuSans-30" d="M 2034 4250 
Q 1547 4250 1301 3770 
Q 1056 3291 1056 2328 
Q 1056 1369 1301 889 
Q 1547 409 2034 409 
Q 2525 409 2770 889 
Q 3016 1369 3016 2328 
Q 3016 3291 2770 3770 
Q 2525 4250 2034 4250 
z
M 2034 4750 
Q 2819 4750 3233 4129 
Q 3647 3509 3647 2328 
Q 3647 1150 3233 529 
Q 2819 -91 2034 -91 
Q 1250 -91 836 529 
Q 422 1150 422 2328 
Q 422 3509 836 4129 
Q 1250 4750 2034 4750 
z
" transform="scale(0.015625)"/>
        <path id="DejaVuSans-2e" d="M 684 794 
L 1344 794 
L 1344 0 
L 684 0 
L 684 794 
z
" transform="scale(0.015625)"/>
       </defs>
       <use xlink:href="#DejaVuSans-30"/>
       <use xlink:href="#DejaVuSans-2e" transform="translate(63.623047 0)"/>
       <use xlink:href="#DejaVuSans-30" transform="translate(95.410156 0)"/>
       <use xlink:href="#DejaVuSans-30" transform="translate(159.033203 0)"/>
      </g>
     </g>
    </g>
    <g id="xtick_2">
     <g id="line2d_2">
      <g>
       <use xlink:href="#m62ce6c9cc2" x="110.255863" y="299.798125" style="stroke: #000000; stroke-width: 0.8"/>
      </g>
     </g>
     <g id="text_2">
      <!-- 0.25 -->
      <g transform="translate(99.123051 314.396563) scale(0.1 -0.1)">
       <defs>
        <path id="DejaVuSans-32" d="M 1228 531 
L 3431 531 
L 3431 0 
L 469 0 
L 469 531 
Q 828 903 1448 1529 
Q 2069 2156 2228 2338 
Q 2531 2678 2651 2914 
Q 2772 3150 2772 3378 
Q 2772 3750 2511 3984 
Q 2250 4219 1831 4219 
Q 1534 4219 1204 4116 
Q 875 4013 500 3803 
L 500 4441 
Q 881 4594 1212 4672 
Q 1544 4750 1819 4750 
Q 2544 4750 2975 4387 
Q 3406 4025 3406 3419 
Q 3406 3131 3298 2873 
Q 3191 2616 2906 2266 
Q 2828 2175 2409 1742 
Q 1991 1309 1228 531 
z
" transform="scale(0.015625)"/>
        <path id="DejaVuSans-35" d="M 691 4666 
L 3169 4666 
L 3169 4134 
L 1269 4134 
L 1269 2991 
Q 1406 3038 1543 3061 
Q 1681 3084 1819 3084 
Q 2600 3084 3056 2656 
Q 3513 2228 3513 1497 
Q 3513 744 3044 326 
Q 2575 -91 1722 -91 
Q 1428 -91 1123 -41 
Q 819 9 494 109 
L 494 744 
Q 775 591 1075 516 
Q 1375 441 1709 441 
Q 2250 441 2565 725 
Q 2881 1009 2881 1497 
Q 2881 1984 2565 2268 
Q 2250 2553 1709 2553 
Q 1456 2553 1204 2497 
Q 953 2441 691 2322 
L 691 4666 
z
" transform="scale(0.015625)"/>
       </defs>
       <use xlink:href="#DejaVuSans-30"/>
       <use xlink:href="#DejaVuSans-2e" transform="translate(63.623047 0)"/>
       <use xlink:href="#DejaVuSans-32" transform="translate(95.410156 0)"/>
       <use xlink:href="#DejaVuSans-35" transform="translate(159.033203 0)"/>
      </g>
     </g>
    </g>
    <g id="xtick_3">
     <g id="line2d_3">
      <g>
       <use xlink:href="#m62ce6c9cc2" x="155.615585" y="299.798125" style="stroke: #000000; stroke-width: 0.8"/>
      </g>
     </g>
     <g id="text_3">
      <!-- 0.50 -->
      <g transform="translate(144.482772 314.396563) scale(0.1 -0.1)">
       <use xlink:href="#DejaVuSans-30"/>
       <use xlink:href="#DejaVuSans-2e" transform="translate(63.623047 0)"/>
       <use xlink:href="#DejaVuSans-35" transform="translate(95.410156 0)"/>
       <use xlink:href="#DejaVuSans-30" transform="translate(159.033203 0)"/>
      </g>
     </g>
    </g>
    <g id="xtick_4">
     <g id="line2d_4">
      <g>
       <use xlink:href="#m62ce6c9cc2" x="200.975306" y="299.798125" style="stroke: #000000; stroke-width: 0.8"/>
      </g>
     </g>
     <g id="text_4">
      <!-- 0.75 -->
      <g transform="translate(189.842494 314.396563) scale(0.1 -0.1)">
       <defs>
        <path id="DejaVuSans-37" d="M 525 4666 
L 3525 4666 
L 3525 4397 
L 1831 0 
L 1172 0 
L 2766 4134 
L 525 4134 
L 525 4666 
z
" transform="scale(0.015625)"/>
       </defs>
       <use xlink:href="#DejaVuSans-30"/>
       <use xlink:href="#DejaVuSans-2e" transform="translate(63.623047 0)"/>
       <use xlink:href="#DejaVuSans-37" transform="translate(95.410156 0)"/>
       <use xlink:href="#DejaVuSans-35" transform="translate(159.033203 0)"/>
      </g>
     </g>
    </g>
    <g id="xtick_5">
     <g id="line2d_5">
      <g>
       <use xlink:href="#m62ce6c9cc2" x="246.335028" y="299.798125" style="stroke: #000000; stroke-width: 0.8"/>
      </g>
     </g>
     <g id="text_5">
      <!-- 1.00 -->
      <g transform="translate(235.202215 314.396563) scale(0.1 -0.1)">
       <defs>
        <path id="DejaVuSans-31" d="M 794 531 
L 1825 531 
L 1825 4091 
L 703 3866 
L 703 4441 
L 1819 4666 
L 2450 4666 
L 2450 531 
L 3481 531 
L 3481 0 
L 794 0 
L 794 531 
z
" transform="scale(0.015625)"/>
       </defs>
       <use xlink:href="#DejaVuSans-31"/>
       <use xlink:href="#DejaVuSans-2e" transform="translate(63.623047 0)"/>
       <use xlink:href="#DejaVuSans-30" transform="translate(95.410156 0)"/>
       <use xlink:href="#DejaVuSans-30" transform="translate(159.033203 0)"/>
      </g>
     </g>
    </g>
    <g id="xtick_6">
     <g id="line2d_6">
      <g>
       <use xlink:href="#m62ce6c9cc2" x="291.694749" y="299.798125" style="stroke: #000000; stroke-width: 0.8"/>
      </g>
     </g>
     <g id="text_6">
      <!-- 1.25 -->
      <g transform="translate(280.561937 314.396563) scale(0.1 -0.1)">
       <use xlink:href="#DejaVuSans-31"/>
       <use xlink:href="#DejaVuSans-2e" transform="translate(63.623047 0)"/>
       <use xlink:href="#DejaVuSans-32" transform="translate(95.410156 0)"/>
       <use xlink:href="#DejaVuSans-35" transform="translate(159.033203 0)"/>
      </g>
     </g>
    </g>
    <g id="xtick_7">
     <g id="line2d_7">
      <g>
       <use xlink:href="#m62ce6c9cc2" x="337.054471" y="299.798125" style="stroke: #000000; stroke-width: 0.8"/>
      </g>
     </g>
     <g id="text_7">
      <!-- 1.50 -->
      <g transform="translate(325.921658 314.396563) scale(0.1 -0.1)">
       <use xlink:href="#DejaVuSans-31"/>
       <use xlink:href="#DejaVuSans-2e" transform="translate(63.623047 0)"/>
       <use xlink:href="#DejaVuSans-35" transform="translate(95.410156 0)"/>
       <use xlink:href="#DejaVuSans-30" transform="translate(159.033203 0)"/>
      </g>
     </g>
    </g>
    <g id="xtick_8">
     <g id="line2d_8">
      <g>
       <use xlink:href="#m62ce6c9cc2" x="382.414192" y="299.798125" style="stroke: #000000; stroke-width: 0.8"/>
      </g>
     </g>
     <g id="text_8">
      <!-- 1.75 -->
      <g transform="translate(371.28138 314.396563) scale(0.1 -0.1)">
       <use xlink:href="#DejaVuSans-31"/>
       <use xlink:href="#DejaVuSans-2e" transform="translate(63.623047 0)"/>
       <use xlink:href="#DejaVuSans-37" transform="translate(95.410156 0)"/>
       <use xlink:href="#DejaVuSans-35" transform="translate(159.033203 0)"/>
      </g>
     </g>
    </g>
    <g id="xtick_9">
     <g id="line2d_9">
      <g>
       <use xlink:href="#m62ce6c9cc2" x="427.773914" y="299.798125" style="stroke: #000000; stroke-width: 0.8"/>
      </g>
     </g>
     <g id="text_9">
      <!-- 2.00 -->
      <g transform="translate(416.641101 314.396563) scale(0.1 -0.1)">
       <use xlink:href="#DejaVuSans-32"/>
       <use xlink:href="#DejaVuSans-2e" transform="translate(63.623047 0)"/>
       <use xlink:href="#DejaVuSans-30" transform="translate(95.410156 0)"/>
       <use xlink:href="#DejaVuSans-30" transform="translate(159.033203 0)"/>
      </g>
     </g>
    </g>
    <g id="text_10">
     <!-- time, t (us) -->
     <g transform="translate(218.742188 328.074688) scale(0.1 -0.1)">
      <defs>
       <path id="DejaVuSans-74" d="M 1172 4494 
L 1172 3500 
L 2356 3500 
L 2356 3053 
L 1172 3053 
L 1172 1153 
Q 1172 725 1289 603 
Q 1406 481 1766 481 
L 2356 481 
L 2356 0 
L 1766 0 
Q 1100 0 847 248 
Q 594 497 594 1153 
L 594 3053 
L 172 3053 
L 172 3500 
L 594 3500 
L 594 4494 
L 1172 4494 
z
" transform="scale(0.015625)"/>
       <path id="DejaVuSans-69" d="M 603 3500 
L 1178 3500 
L 1178 0 
L 603 0 
L 603 3500 
z
M 603 4863 
L 1178 4863 
L 1178 4134 
L 603 4134 
L 603 4863 
z
" transform="scale(0.015625)"/>
       <path id="DejaVuSans-6d" d="M 3328 2828 
Q 3544 3216 3844 3400 
Q 4144 3584 4550 3584 
Q 5097 3584 5394 3201 
Q 5691 2819 5691 2113 
L 5691 0 
L 5113 0 
L 5113 2094 
Q 5113 2597 4934 2840 
Q 4756 3084 4391 3084 
Q 3944 3084 3684 2787 
Q 3425 2491 3425 1978 
L 3425 0 
L 2847 0 
L 2847 2094 
Q 2847 2600 2669 2842 
Q 2491 3084 2119 3084 
Q 1678 3084 1418 2786 
Q 1159 2488 1159 1978 
L 1159 0 
L 581 0 
L 581 3500 
L 1159 3500 
L 1159 2956 
Q 1356 3278 1631 3431 
Q 1906 3584 2284 3584 
Q 2666 3584 2933 3390 
Q 3200 3197 3328 2828 
z
" transform="scale(0.015625)"/>
       <path id="DejaVuSans-65" d="M 3597 1894 
L 3597 1613 
L 953 1613 
Q 991 1019 1311 708 
Q 1631 397 2203 397 
Q 2534 397 2845 478 
Q 3156 559 3463 722 
L 3463 178 
Q 3153 47 2828 -22 
Q 2503 -91 2169 -91 
Q 1331 -91 842 396 
Q 353 884 353 1716 
Q 353 2575 817 3079 
Q 1281 3584 2069 3584 
Q 2775 3584 3186 3129 
Q 3597 2675 3597 1894 
z
M 3022 2063 
Q 3016 2534 2758 2815 
Q 2500 3097 2075 3097 
Q 1594 3097 1305 2825 
Q 1016 2553 972 2059 
L 3022 2063 
z
" transform="scale(0.015625)"/>
       <path id="DejaVuSans-2c" d="M 750 794 
L 1409 794 
L 1409 256 
L 897 -744 
L 494 -744 
L 750 256 
L 750 794 
z
" transform="scale(0.015625)"/>
       <path id="DejaVuSans-20" transform="scale(0.015625)"/>
       <path id="DejaVuSans-28" d="M 1984 4856 
Q 1566 4138 1362 3434 
Q 1159 2731 1159 2009 
Q 1159 1288 1364 580 
Q 1569 -128 1984 -844 
L 1484 -844 
Q 1016 -109 783 600 
Q 550 1309 550 2009 
Q 550 2706 781 3412 
Q 1013 4119 1484 4856 
L 1984 4856 
z
" transform="scale(0.015625)"/>
       <path id="DejaVuSans-75" d="M 544 1381 
L 544 3500 
L 1119 3500 
L 1119 1403 
Q 1119 906 1312 657 
Q 1506 409 1894 409 
Q 2359 409 2629 706 
Q 2900 1003 2900 1516 
L 2900 3500 
L 3475 3500 
L 3475 0 
L 2900 0 
L 2900 538 
Q 2691 219 2414 64 
Q 2138 -91 1772 -91 
Q 1169 -91 856 284 
Q 544 659 544 1381 
z
M 1991 3584 
L 1991 3584 
z
" transform="scale(0.015625)"/>
       <path id="DejaVuSans-73" d="M 2834 3397 
L 2834 2853 
Q 2591 2978 2328 3040 
Q 2066 3103 1784 3103 
Q 1356 3103 1142 2972 
Q 928 2841 928 2578 
Q 928 2378 1081 2264 
Q 1234 2150 1697 2047 
L 1894 2003 
Q 2506 1872 2764 1633 
Q 3022 1394 3022 966 
Q 3022 478 2636 193 
Q 2250 -91 1575 -91 
Q 1294 -91 989 -36 
Q 684 19 347 128 
L 347 722 
Q 666 556 975 473 
Q 1284 391 1588 391 
Q 1994 391 2212 530 
Q 2431 669 2431 922 
Q 2431 1156 2273 1281 
Q 2116 1406 1581 1522 
L 1381 1569 
Q 847 1681 609 1914 
Q 372 2147 372 2553 
Q 372 3047 722 3315 
Q 1072 3584 1716 3584 
Q 2034 3584 2315 3537 
Q 2597 3491 2834 3397 
z
" transform="scale(0.015625)"/>
       <path id="DejaVuSans-29" d="M 513 4856 
L 1013 4856 
Q 1481 4119 1714 3412 
Q 1947 2706 1947 2009 
Q 1947 1309 1714 600 
Q 1481 -109 1013 -844 
L 513 -844 
Q 928 -128 1133 580 
Q 1338 1288 1338 2009 
Q 1338 2731 1133 3434 
Q 928 4138 513 4856 
z
" transform="scale(0.015625)"/>
      </defs>
      <use xlink:href="#DejaVuSans-74"/>
      <use xlink:href="#DejaVuSans-69" transform="translate(39.208984 0)"/>
      <use xlink:href="#DejaVuSans-6d" transform="translate(66.992188 0)"/>
      <use xlink:href="#DejaVuSans-65" transform="translate(164.404297 0)"/>
      <use xlink:href="#DejaVuSans-2c" transform="translate(225.927734 0)"/>
      <use xlink:href="#DejaVuSans-20" transform="translate(257.714844 0)"/>
      <use xlink:href="#DejaVuSans-74" transform="translate(289.501953 0)"/>
      <use xlink:href="#DejaVuSans-20" transform="translate(328.710938 0)"/>
      <use xlink:href="#DejaVuSans-28" transform="translate(360.498047 0)"/>
      <use xlink:href="#DejaVuSans-75" transform="translate(399.511719 0)"/>
      <use xlink:href="#DejaVuSans-73" transform="translate(462.890625 0)"/>
      <use xlink:href="#DejaVuSans-29" transform="translate(514.990234 0)"/>
     </g>
    </g>
    <g id="text_11">
     <!-- 1e6 -->
     <g transform="translate(427.0375 327.074688) scale(0.1 -0.1)">
      <defs>
       <path id="DejaVuSans-36" d="M 2113 2584 
Q 1688 2584 1439 2293 
Q 1191 2003 1191 1497 
Q 1191 994 1439 701 
Q 1688 409 2113 409 
Q 2538 409 2786 701 
Q 3034 994 3034 1497 
Q 3034 2003 2786 2293 
Q 2538 2584 2113 2584 
z
M 3366 4563 
L 3366 3988 
Q 3128 4100 2886 4159 
Q 2644 4219 2406 4219 
Q 1781 4219 1451 3797 
Q 1122 3375 1075 2522 
Q 1259 2794 1537 2939 
Q 1816 3084 2150 3084 
Q 2853 3084 3261 2657 
Q 3669 2231 3669 1497 
Q 3669 778 3244 343 
Q 2819 -91 2113 -91 
Q 1303 -91 875 529 
Q 447 1150 447 2328 
Q 447 3434 972 4092 
Q 1497 4750 2381 4750 
Q 2619 4750 2861 4703 
Q 3103 4656 3366 4563 
z
" transform="scale(0.015625)"/>
      </defs>
      <use xlink:href="#DejaVuSans-31"/>
      <use xlink:href="#DejaVuSans-65" transform="translate(63.623047 0)"/>
      <use xlink:href="#DejaVuSans-36" transform="translate(125.146484 0)"/>
     </g>
    </g>
   </g>
   <g id="matplotlib.axis_2">
    <g id="ytick_1">
     <g id="line2d_10">
      <defs>
       <path id="mca238581d6" d="M 0 0 
L -3.5 0 
" style="stroke: #000000; stroke-width: 0.8"/>
      </defs>
      <g>
       <use xlink:href="#mca238581d6" x="46.965625" y="287.185398" style="stroke: #000000; stroke-width: 0.8"/>
      </g>
     </g>
     <g id="text_12">
      <!-- 0 -->
      <g transform="translate(33.603125 290.984616) scale(0.1 -0.1)">
       <use xlink:href="#DejaVuSans-30"/>
      </g>
     </g>
    </g>
    <g id="ytick_2">
     <g id="line2d_11">
      <g>
       <use xlink:href="#mca238581d6" x="46.965625" y="247.144994" style="stroke: #000000; stroke-width: 0.8"/>
      </g>
     </g>
     <g id="text_13">
      <!-- 100 -->
      <g transform="translate(20.878125 250.944212) scale(0.1 -0.1)">
       <use xlink:href="#DejaVuSans-31"/>
       <use xlink:href="#DejaVuSans-30" transform="translate(63.623047 0)"/>
       <use xlink:href="#DejaVuSans-30" transform="translate(127.246094 0)"/>
      </g>
     </g>
    </g>
    <g id="ytick_3">
     <g id="line2d_12">
      <g>
       <use xlink:href="#mca238581d6" x="46.965625" y="207.10459" style="stroke: #000000; stroke-width: 0.8"/>
      </g>
     </g>
     <g id="text_14">
      <!-- 200 -->
      <g transform="translate(20.878125 210.903808) scale(0.1 -0.1)">
       <use xlink:href="#DejaVuSans-32"/>
       <use xlink:href="#DejaVuSans-30" transform="translate(63.623047 0)"/>
       <use xlink:href="#DejaVuSans-30" transform="translate(127.246094 0)"/>
      </g>
     </g>
    </g>
    <g id="ytick_4">
     <g id="line2d_13">
      <g>
       <use xlink:href="#mca238581d6" x="46.965625" y="167.064186" style="stroke: #000000; stroke-width: 0.8"/>
      </g>
     </g>
     <g id="text_15">
      <!-- 300 -->
      <g transform="translate(20.878125 170.863404) scale(0.1 -0.1)">
       <defs>
        <path id="DejaVuSans-33" d="M 2597 2516 
Q 3050 2419 3304 2112 
Q 3559 1806 3559 1356 
Q 3559 666 3084 287 
Q 2609 -91 1734 -91 
Q 1441 -91 1130 -33 
Q 819 25 488 141 
L 488 750 
Q 750 597 1062 519 
Q 1375 441 1716 441 
Q 2309 441 2620 675 
Q 2931 909 2931 1356 
Q 2931 1769 2642 2001 
Q 2353 2234 1838 2234 
L 1294 2234 
L 1294 2753 
L 1863 2753 
Q 2328 2753 2575 2939 
Q 2822 3125 2822 3475 
Q 2822 3834 2567 4026 
Q 2313 4219 1838 4219 
Q 1578 4219 1281 4162 
Q 984 4106 628 3988 
L 628 4550 
Q 988 4650 1302 4700 
Q 1616 4750 1894 4750 
Q 2613 4750 3031 4423 
Q 3450 4097 3450 3541 
Q 3450 3153 3228 2886 
Q 3006 2619 2597 2516 
z
" transform="scale(0.015625)"/>
       </defs>
       <use xlink:href="#DejaVuSans-33"/>
       <use xlink:href="#DejaVuSans-30" transform="translate(63.623047 0)"/>
       <use xlink:href="#DejaVuSans-30" transform="translate(127.246094 0)"/>
      </g>
     </g>
    </g>
    <g id="ytick_5">
     <g id="line2d_14">
      <g>
       <use xlink:href="#mca238581d6" x="46.965625" y="127.023782" style="stroke: #000000; stroke-width: 0.8"/>
      </g>
     </g>
     <g id="text_16">
      <!-- 400 -->
      <g transform="translate(20.878125 130.823) scale(0.1 -0.1)">
       <defs>
        <path id="DejaVuSans-34" d="M 2419 4116 
L 825 1625 
L 2419 1625 
L 2419 4116 
z
M 2253 4666 
L 3047 4666 
L 3047 1625 
L 3713 1625 
L 3713 1100 
L 3047 1100 
L 3047 0 
L 2419 0 
L 2419 1100 
L 313 1100 
L 313 1709 
L 2253 4666 
z
" transform="scale(0.015625)"/>
       </defs>
       <use xlink:href="#DejaVuSans-34"/>
       <use xlink:href="#DejaVuSans-30" transform="translate(63.623047 0)"/>
       <use xlink:href="#DejaVuSans-30" transform="translate(127.246094 0)"/>
      </g>
     </g>
    </g>
    <g id="ytick_6">
     <g id="line2d_15">
      <g>
       <use xlink:href="#mca238581d6" x="46.965625" y="86.983378" style="stroke: #000000; stroke-width: 0.8"/>
      </g>
     </g>
     <g id="text_17">
      <!-- 500 -->
      <g transform="translate(20.878125 90.782596) scale(0.1 -0.1)">
       <use xlink:href="#DejaVuSans-35"/>
       <use xlink:href="#DejaVuSans-30" transform="translate(63.623047 0)"/>
       <use xlink:href="#DejaVuSans-30" transform="translate(127.246094 0)"/>
      </g>
     </g>
    </g>
    <g id="ytick_7">
     <g id="line2d_16">
      <g>
       <use xlink:href="#mca238581d6" x="46.965625" y="46.942973" style="stroke: #000000; stroke-width: 0.8"/>
      </g>
     </g>
     <g id="text_18">
      <!-- 600 -->
      <g transform="translate(20.878125 50.742192) scale(0.1 -0.1)">
       <use xlink:href="#DejaVuSans-36"/>
       <use xlink:href="#DejaVuSans-30" transform="translate(63.623047 0)"/>
       <use xlink:href="#DejaVuSans-30" transform="translate(127.246094 0)"/>
      </g>
     </g>
    </g>
    <g id="text_19">
     <!-- left wheel velocity, lv (mm/s) -->
     <g transform="translate(14.798438 233.72375) rotate(-90) scale(0.1 -0.1)">
      <defs>
       <path id="DejaVuSans-6c" d="M 603 4863 
L 1178 4863 
L 1178 0 
L 603 0 
L 603 4863 
z
" transform="scale(0.015625)"/>
       <path id="DejaVuSans-66" d="M 2375 4863 
L 2375 4384 
L 1825 4384 
Q 1516 4384 1395 4259 
Q 1275 4134 1275 3809 
L 1275 3500 
L 2222 3500 
L 2222 3053 
L 1275 3053 
L 1275 0 
L 697 0 
L 697 3053 
L 147 3053 
L 147 3500 
L 697 3500 
L 697 3744 
Q 697 4328 969 4595 
Q 1241 4863 1831 4863 
L 2375 4863 
z
" transform="scale(0.015625)"/>
       <path id="DejaVuSans-77" d="M 269 3500 
L 844 3500 
L 1563 769 
L 2278 3500 
L 2956 3500 
L 3675 769 
L 4391 3500 
L 4966 3500 
L 4050 0 
L 3372 0 
L 2619 2869 
L 1863 0 
L 1184 0 
L 269 3500 
z
" transform="scale(0.015625)"/>
       <path id="DejaVuSans-68" d="M 3513 2113 
L 3513 0 
L 2938 0 
L 2938 2094 
Q 2938 2591 2744 2837 
Q 2550 3084 2163 3084 
Q 1697 3084 1428 2787 
Q 1159 2491 1159 1978 
L 1159 0 
L 581 0 
L 581 4863 
L 1159 4863 
L 1159 2956 
Q 1366 3272 1645 3428 
Q 1925 3584 2291 3584 
Q 2894 3584 3203 3211 
Q 3513 2838 3513 2113 
z
" transform="scale(0.015625)"/>
       <path id="DejaVuSans-76" d="M 191 3500 
L 800 3500 
L 1894 563 
L 2988 3500 
L 3597 3500 
L 2284 0 
L 1503 0 
L 191 3500 
z
" transform="scale(0.015625)"/>
       <path id="DejaVuSans-6f" d="M 1959 3097 
Q 1497 3097 1228 2736 
Q 959 2375 959 1747 
Q 959 1119 1226 758 
Q 1494 397 1959 397 
Q 2419 397 2687 759 
Q 2956 1122 2956 1747 
Q 2956 2369 2687 2733 
Q 2419 3097 1959 3097 
z
M 1959 3584 
Q 2709 3584 3137 3096 
Q 3566 2609 3566 1747 
Q 3566 888 3137 398 
Q 2709 -91 1959 -91 
Q 1206 -91 779 398 
Q 353 888 353 1747 
Q 353 2609 779 3096 
Q 1206 3584 1959 3584 
z
" transform="scale(0.015625)"/>
       <path id="DejaVuSans-63" d="M 3122 3366 
L 3122 2828 
Q 2878 2963 2633 3030 
Q 2388 3097 2138 3097 
Q 1578 3097 1268 2742 
Q 959 2388 959 1747 
Q 959 1106 1268 751 
Q 1578 397 2138 397 
Q 2388 397 2633 464 
Q 2878 531 3122 666 
L 3122 134 
Q 2881 22 2623 -34 
Q 2366 -91 2075 -91 
Q 1284 -91 818 406 
Q 353 903 353 1747 
Q 353 2603 823 3093 
Q 1294 3584 2113 3584 
Q 2378 3584 2631 3529 
Q 2884 3475 3122 3366 
z
" transform="scale(0.015625)"/>
       <path id="DejaVuSans-79" d="M 2059 -325 
Q 1816 -950 1584 -1140 
Q 1353 -1331 966 -1331 
L 506 -1331 
L 506 -850 
L 844 -850 
Q 1081 -850 1212 -737 
Q 1344 -625 1503 -206 
L 1606 56 
L 191 3500 
L 800 3500 
L 1894 763 
L 2988 3500 
L 3597 3500 
L 2059 -325 
z
" transform="scale(0.015625)"/>
       <path id="DejaVuSans-2f" d="M 1625 4666 
L 2156 4666 
L 531 -594 
L 0 -594 
L 1625 4666 
z
" transform="scale(0.015625)"/>
      </defs>
      <use xlink:href="#DejaVuSans-6c"/>
      <use xlink:href="#DejaVuSans-65" transform="translate(27.783203 0)"/>
      <use xlink:href="#DejaVuSans-66" transform="translate(89.306641 0)"/>
      <use xlink:href="#DejaVuSans-74" transform="translate(122.761719 0)"/>
      <use xlink:href="#DejaVuSans-20" transform="translate(161.970703 0)"/>
      <use xlink:href="#DejaVuSans-77" transform="translate(193.757812 0)"/>
      <use xlink:href="#DejaVuSans-68" transform="translate(275.544922 0)"/>
      <use xlink:href="#DejaVuSans-65" transform="translate(338.923828 0)"/>
      <use xlink:href="#DejaVuSans-65" transform="translate(400.447266 0)"/>
      <use xlink:href="#DejaVuSans-6c" transform="translate(461.970703 0)"/>
      <use xlink:href="#DejaVuSans-20" transform="translate(489.753906 0)"/>
      <use xlink:href="#DejaVuSans-76" transform="translate(521.541016 0)"/>
      <use xlink:href="#DejaVuSans-65" transform="translate(580.720703 0)"/>
      <use xlink:href="#DejaVuSans-6c" transform="translate(642.244141 0)"/>
      <use xlink:href="#DejaVuSans-6f" transform="translate(670.027344 0)"/>
      <use xlink:href="#DejaVuSans-63" transform="translate(731.208984 0)"/>
      <use xlink:href="#DejaVuSans-69" transform="translate(786.189453 0)"/>
      <use xlink:href="#DejaVuSans-74" transform="translate(813.972656 0)"/>
      <use xlink:href="#DejaVuSans-79" transform="translate(853.181641 0)"/>
      <use xlink:href="#DejaVuSans-2c" transform="translate(912.361328 0)"/>
      <use xlink:href="#DejaVuSans-20" transform="translate(944.148438 0)"/>
      <use xlink:href="#DejaVuSans-6c" transform="translate(975.935547 0)"/>
      <use xlink:href="#DejaVuSans-76" transform="translate(1003.71875 0)"/>
      <use xlink:href="#DejaVuSans-20" transform="translate(1062.898438 0)"/>
      <use xlink:href="#DejaVuSans-28" transform="translate(1094.685547 0)"/>
      <use xlink:href="#DejaVuSans-6d" transform="translate(1133.699219 0)"/>
      <use xlink:href="#DejaVuSans-6d" transform="translate(1231.111328 0)"/>
      <use xlink:href="#DejaVuSans-2f" transform="translate(1328.523438 0)"/>
      <use xlink:href="#DejaVuSans-73" transform="translate(1362.214844 0)"/>
      <use xlink:href="#DejaVuSans-29" transform="translate(1414.314453 0)"/>
     </g>
    </g>
   </g>
   <g id="line2d_17">
    <path d="M 65.099716 287.185398 
L 68.731941 225.92358 
L 72.31427 135.031862 
L 76.054452 94.19065 
L 79.665085 65.761963 
L 83.23671 60.156307 
L 86.887623 58.955095 
L 90.505696 56.953074 
L 94.176567 51.347418 
L 97.731318 46.542569 
L 101.440836 47.743782 
L 105.056732 44.540549 
L 108.634162 41.737721 
L 112.376884 37.733681 
L 116.003121 38.934893 
L 119.573657 35.331256 
L 123.207152 39.735701 
L 126.800549 36.932872 
L 130.441121 40.136105 
L 134.084413 37.333277 
L 137.672367 36.532468 
L 141.307314 39.735701 
L 145.037879 40.136105 
L 148.574123 42.138125 
L 152.233745 41.337317 
L 155.853814 38.534489 
L 159.42308 34.930852 
L 163.1052 39.735701 
L 166.683357 41.737721 
L 170.374549 37.333277 
L 173.961777 39.335297 
L 177.599264 39.735701 
L 181.200282 37.333277 
L 184.847385 40.536509 
L 188.498661 37.733681 
L 192.120181 41.737721 
L 195.791597 42.138125 
L 199.442873 39.335297 
L 203.057499 42.538529 
L 206.674846 41.337317 
L 210.237035 44.140145 
L 213.98139 43.739741 
L 217.54993 38.134085 
L 221.180522 42.538529 
L 224.81438 39.735701 
L 228.408503 40.136105 
L 232.049437 40.136105 
L 235.650273 40.536509 
L 239.281228 39.335297 
L 242.931778 40.936913 
L 246.542412 40.936913 
L 250.215098 39.335297 
L 253.861113 40.536509 
L 258.352269 41.737721 
L 261.02305 36.132064 
L 264.734382 41.737721 
L 268.255567 40.936913 
L 271.982866 42.938933 
L 275.522013 45.341357 
L 279.188711 44.940953 
L 282.806784 41.737721 
L 286.483099 42.538529 
L 290.12113 42.938933 
L 293.695476 41.737721 
L 297.397736 38.134085 
L 300.958293 43.739741 
L 304.692668 40.136105 
L 308.297314 40.536509 
L 311.947139 43.739741 
L 315.479936 41.737721 
L 319.213404 43.339337 
L 322.753095 39.335297 
L 326.374071 41.737721 
L 330.041313 41.737721 
L 333.710733 44.940953 
L 337.341325 42.538529 
L 340.897528 43.739741 
L 344.53447 45.741761 
L 348.201713 44.940953 
L 351.84047 42.938933 
L 355.487573 40.536509 
L 359.049762 40.536509 
L 362.637172 42.938933 
L 366.271393 42.538529 
L 369.914142 43.339337 
L 373.508627 43.339337 
L 377.156819 43.739741 
L 380.782694 45.341357 
L 384.426531 43.339337 
L 388.10466 42.538529 
L 391.74378 42.938933 
L 395.319577 44.940953 
L 398.978655 41.337317 
L 402.619771 43.339337 
L 406.250907 45.341357 
L 409.84249 46.142165 
L 413.493766 46.942973 
L 417.104763 44.140145 
L 420.762752 44.140145 
L 424.423826 44.540549 
" clip-path="url(#p547ebac7c6)" style="fill: none; stroke: #1f77b4; stroke-width: 1.5; stroke-linecap: square"/>
   </g>
   <g id="line2d_18">
    <path d="M 65.099716 287.185398 
L 68.643943 227.525196 
L 72.296126 144.241155 
L 75.904039 105.401963 
L 79.543884 91.788226 
L 83.166312 84.981357 
L 86.7813 87.383782 
L 90.399554 90.587014 
L 94.098004 86.182569 
L 97.722609 81.778125 
L 101.30766 76.572872 
L 104.937889 72.969236 
L 108.572292 70.166408 
L 112.166414 70.967216 
L 115.80626 73.770044 
L 119.527753 69.3656 
L 123.159434 72.969236 
L 126.690234 70.166408 
L 130.422069 69.766004 
L 133.959765 70.566812 
L 137.578019 72.168428 
L 141.250161 69.3656 
L 144.851904 71.36762 
L 148.415908 72.168428 
L 152.029445 72.168428 
L 155.727351 74.170448 
L 159.359576 72.969236 
L 162.984362 72.568832 
L 166.587194 71.36762 
L 170.220145 73.36964 
L 173.830234 71.768024 
L 177.481692 71.36762 
L 181.155285 72.568832 
L 184.811097 74.570852 
L 188.427356 72.168428 
L 191.987912 74.971256 
L 195.714123 72.568832 
L 199.323668 74.971256 
L 202.909263 70.566812 
L 206.525703 72.168428 
L 210.23885 74.971256 
L 213.860733 75.772064 
L 217.502393 70.566812 
L 221.105043 74.570852 
L 224.752872 74.170448 
L 228.36151 74.971256 
L 232.015871 77.373681 
L 235.553748 76.973277 
L 239.172909 75.37166 
L 242.74163 69.3656 
L 246.41976 78.975297 
L 250.056702 79.375701 
L 253.702354 76.973277 
L 257.311899 74.570852 
L 260.961542 74.170448 
L 264.588324 75.772064 
L 268.263187 78.574893 
L 271.821204 78.174489 
L 275.464315 73.770044 
L 279.150246 76.572872 
L 282.691207 76.973277 
L 286.332686 76.572872 
L 289.978337 76.973277 
L 293.704366 75.37166 
L 297.220652 75.37166 
L 300.94033 75.37166 
L 304.598138 77.774085 
L 308.126036 79.375701 
L 311.747919 75.772064 
L 315.415162 78.174489 
L 319.043032 78.975297 
L 322.71717 75.772064 
L 326.274642 78.174489 
L 329.912129 79.375701 
L 333.59552 76.172468 
L 337.240083 79.776105 
L 340.8108 75.772064 
L 344.34777 76.572872 
L 348.056743 77.774085 
L 351.694593 79.375701 
L 355.298513 77.774085 
L 358.952148 77.373681 
L 362.615944 78.174489 
L 366.244177 78.975297 
L 369.799109 77.774085 
L 373.435689 76.572872 
L 377.122346 79.375701 
L 380.700865 79.375701 
L 384.362483 77.774085 
L 388.004869 79.776105 
L 391.608063 77.774085 
L 395.257344 80.176509 
L 398.909527 77.373681 
L 402.521794 78.174489 
L 406.188674 78.174489 
L 409.808198 78.574893 
L 413.353332 77.373681 
L 417.022027 81.377721 
L 420.651349 78.975297 
L 424.326212 78.574893 
" clip-path="url(#p547ebac7c6)" style="fill: none; stroke: #ff7f0e; stroke-width: 1.5; stroke-linecap: square"/>
   </g>
   <g id="line2d_19">
    <path d="M 65.102075 287.185398 
L 68.660998 227.9256 
L 72.289232 149.446408 
L 75.964276 127.023782 
L 79.579991 130.627418 
L 83.242334 126.623378 
L 86.862222 121.418125 
L 90.426951 119.015701 
L 94.053189 121.818529 
L 97.682511 119.015701 
L 101.392392 110.607216 
L 105.011916 109.406004 
L 108.608398 108.204792 
L 112.234635 106.603176 
L 115.88065 110.607216 
L 119.487111 108.605196 
L 123.140564 107.804388 
L 126.754282 109.0056 
L 130.413723 108.204792 
L 134.989612 105.401963 
L 137.59834 107.403984 
L 141.202987 111.808428 
L 144.890913 106.603176 
L 148.494471 111.408024 
L 152.107282 109.0056 
L 155.701768 107.804388 
L 159.345242 107.403984 
L 163.06982 108.204792 
L 166.600983 111.00762 
L 170.264779 111.408024 
L 173.893556 109.806408 
L 177.587652 105.802367 
L 181.159095 111.00762 
L 184.776079 109.0056 
L 188.396511 112.208832 
L 192.098227 110.206812 
L 195.72519 109.406004 
L 199.312237 107.804388 
L 202.945369 113.00964 
L 206.567071 112.609236 
L 210.284754 111.00762 
L 213.808116 110.607216 
L 217.532512 111.408024 
L 221.062768 107.804388 
L 224.700255 110.206812 
L 228.434086 111.808428 
L 231.974321 111.408024 
L 236.518277 112.208832 
L 239.249658 104.601155 
L 242.8387 111.00762 
L 246.408692 109.806408 
L 250.058154 113.810448 
L 253.675319 115.412064 
L 257.343106 108.605196 
L 261.017788 111.808428 
L 264.652735 109.806408 
L 268.213654 109.406004 
L 271.866563 111.00762 
L 275.568279 113.410044 
L 279.172381 114.611256 
L 282.773943 111.408024 
L 286.421954 110.607216 
L 290.029503 111.808428 
L 293.684045 111.00762 
L 297.341127 114.210852 
L 300.958656 112.208832 
L 304.606666 113.810448 
L 308.231089 112.609236 
L 311.88799 111.00762 
L 315.440926 109.0056 
L 319.061176 112.208832 
L 322.74112 115.01166 
L 326.381328 110.206812 
L 329.947147 112.609236 
L 333.636888 112.609236 
L 337.255686 109.0056 
L 340.767255 110.206812 
L 344.480401 113.810448 
L 348.123694 113.410044 
L 351.653769 114.210852 
L 355.392499 115.01166 
L 358.941262 111.808428 
L 362.572398 113.00964 
L 366.250528 112.208832 
L 369.916137 114.611256 
L 373.44966 111.00762 
L 377.151557 116.212872 
L 380.731528 116.613277 
L 384.375909 113.410044 
L 388.010493 116.212872 
L 391.618587 115.01166 
L 395.272222 113.810448 
L 398.874328 111.408024 
L 402.534313 111.408024 
L 406.197927 114.210852 
L 409.821987 115.412064 
L 413.492677 114.611256 
L 417.123088 113.00964 
L 420.680198 115.412064 
L 424.360867 115.412064 
" clip-path="url(#p547ebac7c6)" style="fill: none; stroke: #2ca02c; stroke-width: 1.5; stroke-linecap: square"/>
   </g>
   <g id="line2d_20">
    <path d="M 65.102437 287.185398 
L 68.665353 237.134893 
L 72.295219 171.068226 
L 75.989678 157.854893 
L 79.603759 149.046004 
L 83.267192 153.850852 
L 86.888167 152.249236 
L 90.453804 159.456509 
L 94.201243 162.659741 
L 97.816413 152.249236 
L 101.408177 145.041963 
L 105.044757 143.840751 
L 108.64269 145.442367 
L 112.286708 143.840751 
L 115.933993 141.037923 
L 119.541542 145.442367 
L 123.195721 144.241155 
L 126.810528 145.842771 
L 130.470876 141.438327 
L 134.934092 175.072266 
L 137.654405 87.383782 
L 141.258688 142.639539 
L 144.948067 151.848832 
L 148.55235 145.442367 
L 152.167157 145.842771 
L 155.764002 148.245196 
L 159.408383 147.043984 
L 163.013937 145.442367 
L 166.666301 141.438327 
L 170.317215 144.241155 
L 173.947262 146.64358 
L 177.540115 145.041963 
L 181.232578 145.842771 
L 184.850651 145.842771 
L 188.471808 143.039943 
L 192.173887 143.039943 
L 195.785247 145.842771 
L 199.373201 145.041963 
L 203.007603 146.64358 
L 206.645453 146.64358 
L 210.243023 148.245196 
L 213.886679 147.043984 
L 217.490418 145.442367 
L 221.141331 144.241155 
L 224.795873 147.444388 
L 228.410317 145.842771 
L 232.070302 144.641559 
L 235.662611 145.041963 
L 239.265443 148.6456 
L 242.872266 145.442367 
L 246.548581 145.442367 
L 250.183346 149.846812 
L 253.802689 146.243176 
L 257.352541 146.64358 
L 261.013615 150.64762 
L 264.649469 146.64358 
L 268.331408 148.6456 
L 271.985224 144.241155 
L 275.567917 147.844792 
L 279.190707 149.446408 
L 282.792632 145.442367 
L 286.440823 147.043984 
L 290.049461 148.6456 
L 293.704185 147.444388 
L 297.362718 147.444388 
L 300.952487 145.041963 
L 304.617008 147.844792 
L 308.210224 145.041963 
L 311.881821 148.245196 
L 315.556503 148.245196 
L 319.191631 149.846812 
L 322.752369 149.846812 
L 326.393303 147.043984 
L 330.080504 148.6456 
L 333.651584 147.444388 
L 337.188735 145.842771 
L 340.818965 149.846812 
L 344.520318 146.243176 
L 348.166514 150.247216 
L 351.699673 149.046004 
L 355.320286 149.446408 
L 358.990251 148.245196 
L 362.607416 145.842771 
L 366.286815 148.245196 
L 369.852634 150.247216 
L 373.508809 147.844792 
L 377.198731 148.6456 
L 380.79739 151.448428 
L 384.43016 146.64358 
L 388.078896 150.247216 
L 391.688259 148.6456 
L 395.342439 150.64762 
L 398.95779 149.046004 
L 402.590196 149.846812 
L 406.239114 147.043984 
L 409.864444 146.243176 
L 413.535497 148.245196 
L 417.167541 149.846812 
L 420.725194 149.846812 
L 424.406045 148.6456 
" clip-path="url(#p547ebac7c6)" style="fill: none; stroke: #d62728; stroke-width: 1.5; stroke-linecap: square"/>
   </g>
   <g id="line2d_21">
    <path d="M 65.1028 287.185398 
L 68.617453 249.147014 
L 72.205226 197.494893 
L 75.796627 191.488832 
L 79.437561 198.696105 
L 83.160143 191.889236 
L 86.690399 189.887216 
L 90.363448 187.484792 
L 94.006378 180.677923 
L 97.680334 178.275499 
L 101.249418 178.275499 
L 104.864588 179.877115 
L 108.603681 180.277519 
L 112.182925 181.879135 
L 115.807711 177.074287 
L 119.48203 178.275499 
L 123.11353 180.277519 
L 126.748295 180.277519 
L 130.343869 182.279539 
L 133.985166 177.474691 
L 137.58818 179.476711 
L 141.237279 180.677923 
L 144.857892 183.080347 
L 148.470158 179.476711 
L 152.128148 181.078327 
L 155.747491 179.877115 
L 159.295709 177.875095 
L 162.898541 182.679943 
L 170.184946 179.877115 
L 173.766368 181.879135 
L 177.401496 180.277519 
L 181.043156 180.677923 
L 184.766826 179.877115 
L 188.296175 180.277519 
L 192.030006 183.080347 
L 195.667311 180.677923 
L 199.220973 181.078327 
L 202.91144 181.879135 
L 206.527336 179.877115 
L 210.208005 181.478731 
L 213.830251 179.877115 
L 217.455582 179.877115 
L 221.041721 185.082367 
L 224.674309 180.277519 
L 228.266618 182.279539 
L 231.905556 183.480751 
L 235.530886 183.080347 
L 239.132992 182.279539 
L 242.78191 183.881155 
L 246.391274 182.679943 
L 250.075209 178.675903 
L 253.749528 184.681963 
L 257.38393 180.277519 
L 260.918722 180.277519 
L 264.508128 185.082367 
L 268.146703 180.277519 
L 271.794351 183.881155 
L 275.408976 179.877115 
L 279.060071 183.881155 
L 282.689393 183.080347 
L 286.365708 181.478731 
L 289.912656 180.677923 
L 293.547422 183.480751 
L 297.247142 182.279539 
L 300.806066 183.881155 
L 304.448814 184.281559 
L 308.09501 183.881155 
L 311.702015 185.482771 
L 315.354561 183.881155 
L 318.967735 182.679943 
L 322.626269 183.881155 
L 326.288976 181.078327 
L 329.911947 183.080347 
L 333.581005 181.478731 
L 337.210508 183.080347 
L 340.750018 183.881155 
L 344.429054 184.681963 
L 348.068355 183.480751 
L 351.633629 184.281559 
L 355.2791 180.677923 
L 359.874039 184.681963 
L 362.533208 181.478731 
L 366.12352 182.279539 
L 369.764273 183.480751 
L 373.370552 185.482771 
L 377.030356 184.281559 
L 380.681814 187.084388 
L 384.312043 180.277519 
L 387.988539 184.681963 
L 391.507002 186.28358 
L 395.188215 184.681963 
L 398.768912 185.082367 
L 402.449763 187.084388 
L 406.093781 184.281559 
L 409.698246 182.679943 
L 413.348071 180.677923 
L 417.00098 183.881155 
L 420.586212 185.082367 
L 424.24656 184.281559 
" clip-path="url(#p547ebac7c6)" style="fill: none; stroke: #9467bd; stroke-width: 1.5; stroke-linecap: square"/>
   </g>
   <g id="line2d_22">
    <path d="M 65.102256 287.185398 
L 68.682952 262.360347 
L 72.269636 222.319943 
L 75.905853 223.120751 
L 79.572733 232.730448 
L 83.186088 229.126812 
L 86.792005 219.517115 
L 90.395744 213.511054 
L 94.046113 214.311862 
L 97.699203 217.515095 
L 101.313103 216.714287 
L 104.972907 214.311862 
L 108.576465 216.313883 
L 112.20996 217.114691 
L 115.853616 217.114691 
L 119.450823 216.313883 
L 123.094841 217.114691 
L 126.699488 216.313883 
L 130.35022 214.311862 
L 134.004399 217.515095 
L 137.602332 216.313883 
L 141.263406 217.515095 
L 145.802099 216.714287 
L 148.444031 212.309842 
L 152.04777 219.517115 
L 155.720819 214.712266 
L 159.340888 216.714287 
L 163.04841 218.315903 
L 166.66993 216.714287 
L 170.298164 217.114691 
L 173.886662 216.313883 
L 177.539389 217.515095 
L 181.161454 216.714287 
L 184.817629 217.515095 
L 188.37619 215.513074 
L 192.068471 218.315903 
L 195.686 216.714287 
L 199.368665 217.915499 
L 202.992544 216.714287 
L 206.620051 216.714287 
L 210.192401 219.116711 
L 213.826078 217.114691 
L 217.420745 219.517115 
L 221.061861 214.311862 
L 224.68955 219.917519 
L 228.414309 215.913479 
L 231.928961 217.915499 
L 235.659708 215.913479 
L 239.197222 218.315903 
L 242.857207 217.515095 
L 246.473465 216.714287 
L 250.103332 217.114691 
L 253.695459 219.116711 
L 257.338389 217.114691 
L 260.988213 217.515095 
L 264.605742 216.714287 
L 268.274436 217.515095 
L 271.90648 217.114691 
L 275.464678 218.716307 
L 279.133191 217.515095 
L 282.786644 217.515095 
L 286.367885 215.913479 
L 290.08593 218.716307 
L 293.609655 217.915499 
L 297.24188 217.114691 
L 300.970631 218.716307 
L 304.504334 218.315903 
L 308.238528 215.913479 
L 311.778401 218.315903 
L 315.442559 217.515095 
L 319.067164 216.714287 
L 322.737672 217.915499 
L 326.368446 217.114691 
L 329.909589 218.315903 
L 333.590621 217.915499 
L 337.231374 220.317923 
L 340.797736 215.513074 
L 344.445384 220.317923 
L 348.082689 217.114691 
L 351.71183 217.114691 
L 355.305045 219.116711 
L 358.948882 217.114691 
L 362.54355 219.517115 
L 366.207527 217.515095 
L 369.878035 217.915499 
L 373.509897 217.114691 
L 377.052854 218.315903 
L 380.695059 220.317923 
L 384.392965 218.315903 
L 387.96223 218.716307 
L 391.681002 218.716307 
L 395.326109 217.114691 
L 398.9313 219.517115 
L 402.58312 217.515095 
L 406.117913 215.11267 
L 409.732175 219.517115 
L 413.380548 220.317923 
L 417.00225 216.714287 
L 420.670581 217.515095 
L 424.341271 220.718327 
" clip-path="url(#p547ebac7c6)" style="fill: none; stroke: #8c564b; stroke-width: 1.5; stroke-linecap: square"/>
   </g>
   <g id="line2d_23">
    <path d="M 65.101893 287.185398 
L 68.616909 277.976105 
L 72.201415 256.354287 
L 75.867207 257.155095 
L 79.441734 268.766812 
L 83.098091 259.957923 
L 86.711446 253.551458 
L 90.312101 250.348226 
L 93.99404 251.149034 
L 97.585078 253.151054 
L 101.273187 251.149034 
L 104.886723 253.551458 
L 108.487741 250.348226 
L 112.185284 254.352266 
L 115.808437 250.74863 
L 119.392218 253.151054 
L 123.028072 250.74863 
L 126.596068 253.151054 
L 130.247525 253.951862 
L 133.82931 249.947822 
L 137.497642 253.951862 
L 141.098115 253.551458 
L 144.706027 250.348226 
L 148.400667 251.149034 
L 152.000052 253.551458 
L 155.66675 253.951862 
L 159.301697 250.74863 
L 162.940635 253.951862 
L 166.595903 250.74863 
L 170.177325 253.151054 
L 173.839125 251.149034 
L 177.425627 250.348226 
L 181.016121 253.151054 
L 184.656148 250.74863 
L 188.373287 251.549438 
L 191.930578 253.151054 
L 195.534498 253.551458 
L 199.261253 251.549438 
L 202.828523 249.947822 
L 206.442241 253.551458 
L 210.121096 251.149034 
L 213.741165 253.551458 
L 217.364318 253.551458 
L 221.864909 250.348226 
L 224.58486 250.74863 
L 228.2316 253.951862 
L 231.807035 253.151054 
L 235.511291 251.549438 
L 239.061868 252.75065 
L 242.783543 254.352266 
L 246.348635 253.151054 
L 249.975417 250.74863 
L 253.620706 250.74863 
L 257.222994 253.551458 
L 260.872274 253.951862 
L 264.517563 250.74863 
L 268.127108 253.551458 
L 271.739556 253.551458 
L 275.415508 251.149034 
L 279.033944 253.551458 
L 282.733664 251.149034 
L 286.358994 253.551458 
L 289.987228 250.74863 
L 293.57627 253.151054 
L 297.197065 250.348226 
L 300.776128 256.354287 
L 304.418151 250.74863 
L 308.063621 250.74863 
L 311.75935 254.352266 
L 315.393934 253.551458 
L 319.005837 250.348226 
L 323.584629 260.758731 
L 326.221118 241.138933 
L 329.794919 249.947822 
L 333.40138 256.754691 
L 337.09348 254.352266 
L 340.718266 253.551458 
L 344.351398 253.551458 
L 347.917942 253.151054 
L 351.560147 250.74863 
L 355.283998 251.549438 
L 358.824778 252.75065 
L 362.491114 253.951862 
L 366.155272 251.149034 
L 369.764817 253.551458 
L 373.454559 251.149034 
L 377.06991 253.551458 
L 380.688527 250.348226 
L 384.267046 253.151054 
L 387.891832 253.551458 
L 391.598084 251.549438 
L 395.230128 250.74863 
L 398.865256 253.551458 
L 402.460649 250.348226 
L 406.086705 253.551458 
L 409.688993 253.551458 
L 413.337003 253.951862 
L 416.988461 250.74863 
L 420.600909 253.551458 
L 424.107578 252.350246 
L 427.781534 251.149034 
" clip-path="url(#p547ebac7c6)" style="fill: none; stroke: #e377c2; stroke-width: 1.5; stroke-linecap: square"/>
   </g>
   <g id="patch_3">
    <path d="M 46.965625 299.798125 
L 46.965625 22.318125 
" style="fill: none; stroke: #000000; stroke-width: 0.8; stroke-linejoin: miter; stroke-linecap: square"/>
   </g>
   <g id="patch_4">
    <path d="M 445.915625 299.798125 
L 445.915625 22.318125 
" style="fill: none; stroke: #000000; stroke-width: 0.8; stroke-linejoin: miter; stroke-linecap: square"/>
   </g>
   <g id="patch_5">
    <path d="M 46.965625 299.798125 
L 445.915625 299.798125 
" style="fill: none; stroke: #000000; stroke-width: 0.8; stroke-linejoin: miter; stroke-linecap: square"/>
   </g>
   <g id="patch_6">
    <path d="M 46.965625 22.318125 
L 445.915625 22.318125 
" style="fill: none; stroke: #000000; stroke-width: 0.8; stroke-linejoin: miter; stroke-linecap: square"/>
   </g>
   <g id="text_20">
    <!-- left velocity vs. time -->
    <g transform="translate(185.412188 16.318125) scale(0.12 -0.12)">
     <use xlink:href="#DejaVuSans-6c"/>
     <use xlink:href="#DejaVuSans-65" transform="translate(27.783203 0)"/>
     <use xlink:href="#DejaVuSans-66" transform="translate(89.306641 0)"/>
     <use xlink:href="#DejaVuSans-74" transform="translate(122.761719 0)"/>
     <use xlink:href="#DejaVuSans-20" transform="translate(161.970703 0)"/>
     <use xlink:href="#DejaVuSans-76" transform="translate(193.757812 0)"/>
     <use xlink:href="#DejaVuSans-65" transform="translate(252.9375 0)"/>
     <use xlink:href="#DejaVuSans-6c" transform="translate(314.460938 0)"/>
     <use xlink:href="#DejaVuSans-6f" transform="translate(342.244141 0)"/>
     <use xlink:href="#DejaVuSans-63" transform="translate(403.425781 0)"/>
     <use xlink:href="#DejaVuSans-69" transform="translate(458.40625 0)"/>
     <use xlink:href="#DejaVuSans-74" transform="translate(486.189453 0)"/>
     <use xlink:href="#DejaVuSans-79" transform="translate(525.398438 0)"/>
     <use xlink:href="#DejaVuSans-20" transform="translate(584.578125 0)"/>
     <use xlink:href="#DejaVuSans-76" transform="translate(616.365234 0)"/>
     <use xlink:href="#DejaVuSans-73" transform="translate(675.544922 0)"/>
     <use xlink:href="#DejaVuSans-2e" transform="translate(727.644531 0)"/>
     <use xlink:href="#DejaVuSans-20" transform="translate(759.431641 0)"/>
     <use xlink:href="#DejaVuSans-74" transform="translate(791.21875 0)"/>
     <use xlink:href="#DejaVuSans-69" transform="translate(830.427734 0)"/>
     <use xlink:href="#DejaVuSans-6d" transform="translate(858.210938 0)"/>
     <use xlink:href="#DejaVuSans-65" transform="translate(955.623047 0)"/>
    </g>
   </g>
   <g id="legend_1">
    <g id="patch_7">
     <path d="M 322.390625 294.798125 
L 438.915625 294.798125 
Q 440.915625 294.798125 440.915625 292.798125 
L 440.915625 191.05125 
Q 440.915625 189.05125 438.915625 189.05125 
L 322.390625 189.05125 
Q 320.390625 189.05125 320.390625 191.05125 
L 320.390625 292.798125 
Q 320.390625 294.798125 322.390625 294.798125 
z
" style="fill: #ffffff; opacity: 0.8; stroke: #cccccc; stroke-linejoin: miter"/>
    </g>
    <g id="line2d_24">
     <path d="M 324.390625 197.149688 
L 334.390625 197.149688 
L 344.390625 197.149688 
" style="fill: none; stroke: #1f77b4; stroke-width: 1.5; stroke-linecap: square"/>
    </g>
    <g id="text_21">
     <!-- Ref Speed = 595 -->
     <g transform="translate(352.390625 200.649688) scale(0.1 -0.1)">
      <defs>
       <path id="DejaVuSans-52" d="M 2841 2188 
Q 3044 2119 3236 1894 
Q 3428 1669 3622 1275 
L 4263 0 
L 3584 0 
L 2988 1197 
Q 2756 1666 2539 1819 
Q 2322 1972 1947 1972 
L 1259 1972 
L 1259 0 
L 628 0 
L 628 4666 
L 2053 4666 
Q 2853 4666 3247 4331 
Q 3641 3997 3641 3322 
Q 3641 2881 3436 2590 
Q 3231 2300 2841 2188 
z
M 1259 4147 
L 1259 2491 
L 2053 2491 
Q 2509 2491 2742 2702 
Q 2975 2913 2975 3322 
Q 2975 3731 2742 3939 
Q 2509 4147 2053 4147 
L 1259 4147 
z
" transform="scale(0.015625)"/>
       <path id="DejaVuSans-53" d="M 3425 4513 
L 3425 3897 
Q 3066 4069 2747 4153 
Q 2428 4238 2131 4238 
Q 1616 4238 1336 4038 
Q 1056 3838 1056 3469 
Q 1056 3159 1242 3001 
Q 1428 2844 1947 2747 
L 2328 2669 
Q 3034 2534 3370 2195 
Q 3706 1856 3706 1288 
Q 3706 609 3251 259 
Q 2797 -91 1919 -91 
Q 1588 -91 1214 -16 
Q 841 59 441 206 
L 441 856 
Q 825 641 1194 531 
Q 1563 422 1919 422 
Q 2459 422 2753 634 
Q 3047 847 3047 1241 
Q 3047 1584 2836 1778 
Q 2625 1972 2144 2069 
L 1759 2144 
Q 1053 2284 737 2584 
Q 422 2884 422 3419 
Q 422 4038 858 4394 
Q 1294 4750 2059 4750 
Q 2388 4750 2728 4690 
Q 3069 4631 3425 4513 
z
" transform="scale(0.015625)"/>
       <path id="DejaVuSans-70" d="M 1159 525 
L 1159 -1331 
L 581 -1331 
L 581 3500 
L 1159 3500 
L 1159 2969 
Q 1341 3281 1617 3432 
Q 1894 3584 2278 3584 
Q 2916 3584 3314 3078 
Q 3713 2572 3713 1747 
Q 3713 922 3314 415 
Q 2916 -91 2278 -91 
Q 1894 -91 1617 61 
Q 1341 213 1159 525 
z
M 3116 1747 
Q 3116 2381 2855 2742 
Q 2594 3103 2138 3103 
Q 1681 3103 1420 2742 
Q 1159 2381 1159 1747 
Q 1159 1113 1420 752 
Q 1681 391 2138 391 
Q 2594 391 2855 752 
Q 3116 1113 3116 1747 
z
" transform="scale(0.015625)"/>
       <path id="DejaVuSans-64" d="M 2906 2969 
L 2906 4863 
L 3481 4863 
L 3481 0 
L 2906 0 
L 2906 525 
Q 2725 213 2448 61 
Q 2172 -91 1784 -91 
Q 1150 -91 751 415 
Q 353 922 353 1747 
Q 353 2572 751 3078 
Q 1150 3584 1784 3584 
Q 2172 3584 2448 3432 
Q 2725 3281 2906 2969 
z
M 947 1747 
Q 947 1113 1208 752 
Q 1469 391 1925 391 
Q 2381 391 2643 752 
Q 2906 1113 2906 1747 
Q 2906 2381 2643 2742 
Q 2381 3103 1925 3103 
Q 1469 3103 1208 2742 
Q 947 2381 947 1747 
z
" transform="scale(0.015625)"/>
       <path id="DejaVuSans-3d" d="M 678 2906 
L 4684 2906 
L 4684 2381 
L 678 2381 
L 678 2906 
z
M 678 1631 
L 4684 1631 
L 4684 1100 
L 678 1100 
L 678 1631 
z
" transform="scale(0.015625)"/>
       <path id="DejaVuSans-39" d="M 703 97 
L 703 672 
Q 941 559 1184 500 
Q 1428 441 1663 441 
Q 2288 441 2617 861 
Q 2947 1281 2994 2138 
Q 2813 1869 2534 1725 
Q 2256 1581 1919 1581 
Q 1219 1581 811 2004 
Q 403 2428 403 3163 
Q 403 3881 828 4315 
Q 1253 4750 1959 4750 
Q 2769 4750 3195 4129 
Q 3622 3509 3622 2328 
Q 3622 1225 3098 567 
Q 2575 -91 1691 -91 
Q 1453 -91 1209 -44 
Q 966 3 703 97 
z
M 1959 2075 
Q 2384 2075 2632 2365 
Q 2881 2656 2881 3163 
Q 2881 3666 2632 3958 
Q 2384 4250 1959 4250 
Q 1534 4250 1286 3958 
Q 1038 3666 1038 3163 
Q 1038 2656 1286 2365 
Q 1534 2075 1959 2075 
z
" transform="scale(0.015625)"/>
      </defs>
      <use xlink:href="#DejaVuSans-52"/>
      <use xlink:href="#DejaVuSans-65" transform="translate(64.982422 0)"/>
      <use xlink:href="#DejaVuSans-66" transform="translate(126.505859 0)"/>
      <use xlink:href="#DejaVuSans-20" transform="translate(161.710938 0)"/>
      <use xlink:href="#DejaVuSans-53" transform="translate(193.498047 0)"/>
      <use xlink:href="#DejaVuSans-70" transform="translate(256.974609 0)"/>
      <use xlink:href="#DejaVuSans-65" transform="translate(320.451172 0)"/>
      <use xlink:href="#DejaVuSans-65" transform="translate(381.974609 0)"/>
      <use xlink:href="#DejaVuSans-64" transform="translate(443.498047 0)"/>
      <use xlink:href="#DejaVuSans-20" transform="translate(506.974609 0)"/>
      <use xlink:href="#DejaVuSans-3d" transform="translate(538.761719 0)"/>
      <use xlink:href="#DejaVuSans-20" transform="translate(622.550781 0)"/>
      <use xlink:href="#DejaVuSans-35" transform="translate(654.337891 0)"/>
      <use xlink:href="#DejaVuSans-39" transform="translate(717.960938 0)"/>
      <use xlink:href="#DejaVuSans-35" transform="translate(781.583984 0)"/>
     </g>
    </g>
    <g id="line2d_25">
     <path d="M 324.390625 211.827813 
L 334.390625 211.827813 
L 344.390625 211.827813 
" style="fill: none; stroke: #ff7f0e; stroke-width: 1.5; stroke-linecap: square"/>
    </g>
    <g id="text_22">
     <!-- Ref Speed = 510 -->
     <g transform="translate(352.390625 215.327813) scale(0.1 -0.1)">
      <use xlink:href="#DejaVuSans-52"/>
      <use xlink:href="#DejaVuSans-65" transform="translate(64.982422 0)"/>
      <use xlink:href="#DejaVuSans-66" transform="translate(126.505859 0)"/>
      <use xlink:href="#DejaVuSans-20" transform="translate(161.710938 0)"/>
      <use xlink:href="#DejaVuSans-53" transform="translate(193.498047 0)"/>
      <use xlink:href="#DejaVuSans-70" transform="translate(256.974609 0)"/>
      <use xlink:href="#DejaVuSans-65" transform="translate(320.451172 0)"/>
      <use xlink:href="#DejaVuSans-65" transform="translate(381.974609 0)"/>
      <use xlink:href="#DejaVuSans-64" transform="translate(443.498047 0)"/>
      <use xlink:href="#DejaVuSans-20" transform="translate(506.974609 0)"/>
      <use xlink:href="#DejaVuSans-3d" transform="translate(538.761719 0)"/>
      <use xlink:href="#DejaVuSans-20" transform="translate(622.550781 0)"/>
      <use xlink:href="#DejaVuSans-35" transform="translate(654.337891 0)"/>
      <use xlink:href="#DejaVuSans-31" transform="translate(717.960938 0)"/>
      <use xlink:href="#DejaVuSans-30" transform="translate(781.583984 0)"/>
     </g>
    </g>
    <g id="line2d_26">
     <path d="M 324.390625 226.505938 
L 334.390625 226.505938 
L 344.390625 226.505938 
" style="fill: none; stroke: #2ca02c; stroke-width: 1.5; stroke-linecap: square"/>
    </g>
    <g id="text_23">
     <!-- Ref Speed = 425 -->
     <g transform="translate(352.390625 230.005938) scale(0.1 -0.1)">
      <use xlink:href="#DejaVuSans-52"/>
      <use xlink:href="#DejaVuSans-65" transform="translate(64.982422 0)"/>
      <use xlink:href="#DejaVuSans-66" transform="translate(126.505859 0)"/>
      <use xlink:href="#DejaVuSans-20" transform="translate(161.710938 0)"/>
      <use xlink:href="#DejaVuSans-53" transform="translate(193.498047 0)"/>
      <use xlink:href="#DejaVuSans-70" transform="translate(256.974609 0)"/>
      <use xlink:href="#DejaVuSans-65" transform="translate(320.451172 0)"/>
      <use xlink:href="#DejaVuSans-65" transform="translate(381.974609 0)"/>
      <use xlink:href="#DejaVuSans-64" transform="translate(443.498047 0)"/>
      <use xlink:href="#DejaVuSans-20" transform="translate(506.974609 0)"/>
      <use xlink:href="#DejaVuSans-3d" transform="translate(538.761719 0)"/>
      <use xlink:href="#DejaVuSans-20" transform="translate(622.550781 0)"/>
      <use xlink:href="#DejaVuSans-34" transform="translate(654.337891 0)"/>
      <use xlink:href="#DejaVuSans-32" transform="translate(717.960938 0)"/>
      <use xlink:href="#DejaVuSans-35" transform="translate(781.583984 0)"/>
     </g>
    </g>
    <g id="line2d_27">
     <path d="M 324.390625 241.184063 
L 334.390625 241.184063 
L 344.390625 241.184063 
" style="fill: none; stroke: #d62728; stroke-width: 1.5; stroke-linecap: square"/>
    </g>
    <g id="text_24">
     <!-- Ref Speed = 340 -->
     <g transform="translate(352.390625 244.684063) scale(0.1 -0.1)">
      <use xlink:href="#DejaVuSans-52"/>
      <use xlink:href="#DejaVuSans-65" transform="translate(64.982422 0)"/>
      <use xlink:href="#DejaVuSans-66" transform="translate(126.505859 0)"/>
      <use xlink:href="#DejaVuSans-20" transform="translate(161.710938 0)"/>
      <use xlink:href="#DejaVuSans-53" transform="translate(193.498047 0)"/>
      <use xlink:href="#DejaVuSans-70" transform="translate(256.974609 0)"/>
      <use xlink:href="#DejaVuSans-65" transform="translate(320.451172 0)"/>
      <use xlink:href="#DejaVuSans-65" transform="translate(381.974609 0)"/>
      <use xlink:href="#DejaVuSans-64" transform="translate(443.498047 0)"/>
      <use xlink:href="#DejaVuSans-20" transform="translate(506.974609 0)"/>
      <use xlink:href="#DejaVuSans-3d" transform="translate(538.761719 0)"/>
      <use xlink:href="#DejaVuSans-20" transform="translate(622.550781 0)"/>
      <use xlink:href="#DejaVuSans-33" transform="translate(654.337891 0)"/>
      <use xlink:href="#DejaVuSans-34" transform="translate(717.960938 0)"/>
      <use xlink:href="#DejaVuSans-30" transform="translate(781.583984 0)"/>
     </g>
    </g>
    <g id="line2d_28">
     <path d="M 324.390625 255.862188 
L 334.390625 255.862188 
L 344.390625 255.862188 
" style="fill: none; stroke: #9467bd; stroke-width: 1.5; stroke-linecap: square"/>
    </g>
    <g id="text_25">
     <!-- Ref Speed = 255 -->
     <g transform="translate(352.390625 259.362188) scale(0.1 -0.1)">
      <use xlink:href="#DejaVuSans-52"/>
      <use xlink:href="#DejaVuSans-65" transform="translate(64.982422 0)"/>
      <use xlink:href="#DejaVuSans-66" transform="translate(126.505859 0)"/>
      <use xlink:href="#DejaVuSans-20" transform="translate(161.710938 0)"/>
      <use xlink:href="#DejaVuSans-53" transform="translate(193.498047 0)"/>
      <use xlink:href="#DejaVuSans-70" transform="translate(256.974609 0)"/>
      <use xlink:href="#DejaVuSans-65" transform="translate(320.451172 0)"/>
      <use xlink:href="#DejaVuSans-65" transform="translate(381.974609 0)"/>
      <use xlink:href="#DejaVuSans-64" transform="translate(443.498047 0)"/>
      <use xlink:href="#DejaVuSans-20" transform="translate(506.974609 0)"/>
      <use xlink:href="#DejaVuSans-3d" transform="translate(538.761719 0)"/>
      <use xlink:href="#DejaVuSans-20" transform="translate(622.550781 0)"/>
      <use xlink:href="#DejaVuSans-32" transform="translate(654.337891 0)"/>
      <use xlink:href="#DejaVuSans-35" transform="translate(717.960938 0)"/>
      <use xlink:href="#DejaVuSans-35" transform="translate(781.583984 0)"/>
     </g>
    </g>
    <g id="line2d_29">
     <path d="M 324.390625 270.540313 
L 334.390625 270.540313 
L 344.390625 270.540313 
" style="fill: none; stroke: #8c564b; stroke-width: 1.5; stroke-linecap: square"/>
    </g>
    <g id="text_26">
     <!-- Ref Speed = 170 -->
     <g transform="translate(352.390625 274.040313) scale(0.1 -0.1)">
      <use xlink:href="#DejaVuSans-52"/>
      <use xlink:href="#DejaVuSans-65" transform="translate(64.982422 0)"/>
      <use xlink:href="#DejaVuSans-66" transform="translate(126.505859 0)"/>
      <use xlink:href="#DejaVuSans-20" transform="translate(161.710938 0)"/>
      <use xlink:href="#DejaVuSans-53" transform="translate(193.498047 0)"/>
      <use xlink:href="#DejaVuSans-70" transform="translate(256.974609 0)"/>
      <use xlink:href="#DejaVuSans-65" transform="translate(320.451172 0)"/>
      <use xlink:href="#DejaVuSans-65" transform="translate(381.974609 0)"/>
      <use xlink:href="#DejaVuSans-64" transform="translate(443.498047 0)"/>
      <use xlink:href="#DejaVuSans-20" transform="translate(506.974609 0)"/>
      <use xlink:href="#DejaVuSans-3d" transform="translate(538.761719 0)"/>
      <use xlink:href="#DejaVuSans-20" transform="translate(622.550781 0)"/>
      <use xlink:href="#DejaVuSans-31" transform="translate(654.337891 0)"/>
      <use xlink:href="#DejaVuSans-37" transform="translate(717.960938 0)"/>
      <use xlink:href="#DejaVuSans-30" transform="translate(781.583984 0)"/>
     </g>
    </g>
    <g id="line2d_30">
     <path d="M 324.390625 285.218438 
L 334.390625 285.218438 
L 344.390625 285.218438 
" style="fill: none; stroke: #e377c2; stroke-width: 1.5; stroke-linecap: square"/>
    </g>
    <g id="text_27">
     <!-- Ref Speed = 85 -->
     <g transform="translate(352.390625 288.718438) scale(0.1 -0.1)">
      <defs>
       <path id="DejaVuSans-38" d="M 2034 2216 
Q 1584 2216 1326 1975 
Q 1069 1734 1069 1313 
Q 1069 891 1326 650 
Q 1584 409 2034 409 
Q 2484 409 2743 651 
Q 3003 894 3003 1313 
Q 3003 1734 2745 1975 
Q 2488 2216 2034 2216 
z
M 1403 2484 
Q 997 2584 770 2862 
Q 544 3141 544 3541 
Q 544 4100 942 4425 
Q 1341 4750 2034 4750 
Q 2731 4750 3128 4425 
Q 3525 4100 3525 3541 
Q 3525 3141 3298 2862 
Q 3072 2584 2669 2484 
Q 3125 2378 3379 2068 
Q 3634 1759 3634 1313 
Q 3634 634 3220 271 
Q 2806 -91 2034 -91 
Q 1263 -91 848 271 
Q 434 634 434 1313 
Q 434 1759 690 2068 
Q 947 2378 1403 2484 
z
M 1172 3481 
Q 1172 3119 1398 2916 
Q 1625 2713 2034 2713 
Q 2441 2713 2670 2916 
Q 2900 3119 2900 3481 
Q 2900 3844 2670 4047 
Q 2441 4250 2034 4250 
Q 1625 4250 1398 4047 
Q 1172 3844 1172 3481 
z
" transform="scale(0.015625)"/>
      </defs>
      <use xlink:href="#DejaVuSans-52"/>
      <use xlink:href="#DejaVuSans-65" transform="translate(64.982422 0)"/>
      <use xlink:href="#DejaVuSans-66" transform="translate(126.505859 0)"/>
      <use xlink:href="#DejaVuSans-20" transform="translate(161.710938 0)"/>
      <use xlink:href="#DejaVuSans-53" transform="translate(193.498047 0)"/>
      <use xlink:href="#DejaVuSans-70" transform="translate(256.974609 0)"/>
      <use xlink:href="#DejaVuSans-65" transform="translate(320.451172 0)"/>
      <use xlink:href="#DejaVuSans-65" transform="translate(381.974609 0)"/>
      <use xlink:href="#DejaVuSans-64" transform="translate(443.498047 0)"/>
      <use xlink:href="#DejaVuSans-20" transform="translate(506.974609 0)"/>
      <use xlink:href="#DejaVuSans-3d" transform="translate(538.761719 0)"/>
      <use xlink:href="#DejaVuSans-20" transform="translate(622.550781 0)"/>
      <use xlink:href="#DejaVuSans-38" transform="translate(654.337891 0)"/>
      <use xlink:href="#DejaVuSans-35" transform="translate(717.960938 0)"/>
     </g>
    </g>
   </g>
  </g>
 </g>
 <defs>
  <clipPath id="p547ebac7c6">
   <rect x="46.965625" y="22.318125" width="398.95" height="277.48"/>
  </clipPath>
 </defs>
</svg>
