<?xml version="1.0" encoding="utf-8" standalone="no"?>
<!DOCTYPE svg PUBLIC "-//W3C//DTD SVG 1.1//EN"
  "http://www.w3.org/Graphics/SVG/1.1/DTD/svg11.dtd">
<svg xmlns:xlink="http://www.w3.org/1999/xlink" width="453.143125pt" height="337.354375pt" viewBox="0 0 453.143125 337.354375" xmlns="http://www.w3.org/2000/svg" version="1.1">
 <metadata>
  <rdf:RDF xmlns:dc="http://purl.org/dc/elements/1.1/" xmlns:cc="http://creativecommons.org/ns#" xmlns:rdf="http://www.w3.org/1999/02/22-rdf-syntax-ns#">
   <cc:Work>
    <dc:type rdf:resource="http://purl.org/dc/dcmitype/StillImage"/>
    <dc:date>2025-10-29T21:37:17.642406</dc:date>
    <dc:format>image/svg+xml</dc:format>
    <dc:creator>
     <cc:Agent>
      <dc:title>Matplotlib v3.10.6, https://matplotlib.org/</dc:title>
     </cc:Agent>
    </dc:creator>
   </cc:Work>
  </rdf:RDF>
 </metadata>
 <defs>
  <style type="text/css">*{stroke-linejoin: round; stroke-linecap: butt}</style>
 </defs>
 <g id="figure_1">
  <g id="patch_1">
   <path d="M 0 337.354375 
L 453.143125 337.354375 
L 453.143125 0 
L 0 0 
z
" style="fill: #ffffff"/>
  </g>
  <g id="axes_1">
   <g id="patch_2">
    <path d="M 40.603125 299.798125 
L 445.943125 299.798125 
L 445.943125 22.318125 
L 40.603125 22.318125 
z
" style="fill: #ffffff"/>
   </g>
   <g id="matplotlib.axis_1">
    <g id="xtick_1">
     <g id="line2d_1">
      <defs>
       <path id="m23fa48a713" d="M 0 0 
L 0 3.5 
" style="stroke: #000000; stroke-width: 0.8"/>
      </defs>
      <g>
       <use xlink:href="#m23fa48a713" x="59.02767" y="299.798125" style="stroke: #000000; stroke-width: 0.8"/>
      </g>
     </g>
     <g id="text_1">
      <!-- 0 -->
      <g transform="translate(55.84642 314.396563) scale(0.1 -0.1)">
       <defs>
        <path id="DejaVuSans-30" d="M 2034 4250 
Q 1547 4250 1301 3770 
Q 1056 3291 1056 2328 
Q 1056 1369 1301 889 
Q 1547 409 2034 409 
Q 2525 409 2770 889 
Q 3016 1369 3016 2328 
Q 3016 3291 2770 3770 
Q 2525 4250 2034 4250 
z
M 2034 4750 
Q 2819 4750 3233 4129 
Q 3647 3509 3647 2328 
Q 3647 1150 3233 529 
Q 2819 -91 2034 -91 
Q 1250 -91 836 529 
Q 422 1150 422 2328 
Q 422 3509 836 4129 
Q 1250 4750 2034 4750 
z
" transform="scale(0.015625)"/>
       </defs>
       <use xlink:href="#DejaVuSans-30"/>
      </g>
     </g>
    </g>
    <g id="xtick_2">
     <g id="line2d_2">
      <g>
       <use xlink:href="#m23fa48a713" x="111.881884" y="299.798125" style="stroke: #000000; stroke-width: 0.8"/>
      </g>
     </g>
     <g id="text_2">
      <!-- 5 -->
      <g transform="translate(108.700634 314.396563) scale(0.1 -0.1)">
       <defs>
        <path id="DejaVuSans-35" d="M 691 4666 
L 3169 4666 
L 3169 4134 
L 1269 4134 
L 1269 2991 
Q 1406 3038 1543 3061 
Q 1681 3084 1819 3084 
Q 2600 3084 3056 2656 
Q 3513 2228 3513 1497 
Q 3513 744 3044 326 
Q 2575 -91 1722 -91 
Q 1428 -91 1123 -41 
Q 819 9 494 109 
L 494 744 
Q 775 591 1075 516 
Q 1375 441 1709 441 
Q 2250 441 2565 725 
Q 2881 1009 2881 1497 
Q 2881 1984 2565 2268 
Q 2250 2553 1709 2553 
Q 1456 2553 1204 2497 
Q 953 2441 691 2322 
L 691 4666 
z
" transform="scale(0.015625)"/>
       </defs>
       <use xlink:href="#DejaVuSans-35"/>
      </g>
     </g>
    </g>
    <g id="xtick_3">
     <g id="line2d_3">
      <g>
       <use xlink:href="#m23fa48a713" x="164.736098" y="299.798125" style="stroke: #000000; stroke-width: 0.8"/>
      </g>
     </g>
     <g id="text_3">
      <!-- 10 -->
      <g transform="translate(158.373598 314.396563) scale(0.1 -0.1)">
       <defs>
        <path id="DejaVuSans-31" d="M 794 531 
L 1825 531 
L 1825 4091 
L 703 3866 
L 703 4441 
L 1819 4666 
L 2450 4666 
L 2450 531 
L 3481 531 
L 3481 0 
L 794 0 
L 794 531 
z
" transform="scale(0.015625)"/>
       </defs>
       <use xlink:href="#DejaVuSans-31"/>
       <use xlink:href="#DejaVuSans-30" transform="translate(63.623047 0)"/>
      </g>
     </g>
    </g>
    <g id="xtick_4">
     <g id="line2d_4">
      <g>
       <use xlink:href="#m23fa48a713" x="217.590311" y="299.798125" style="stroke: #000000; stroke-width: 0.8"/>
      </g>
     </g>
     <g id="text_4">
      <!-- 15 -->
      <g transform="translate(211.227811 314.396563) scale(0.1 -0.1)">
       <use xlink:href="#DejaVuSans-31"/>
       <use xlink:href="#DejaVuSans-35" transform="translate(63.623047 0)"/>
      </g>
     </g>
    </g>
    <g id="xtick_5">
     <g id="line2d_5">
      <g>
       <use xlink:href="#m23fa48a713" x="270.444525" y="299.798125" style="stroke: #000000; stroke-width: 0.8"/>
      </g>
     </g>
     <g id="text_5">
      <!-- 20 -->
      <g transform="translate(264.082025 314.396563) scale(0.1 -0.1)">
       <defs>
        <path id="DejaVuSans-32" d="M 1228 531 
L 3431 531 
L 3431 0 
L 469 0 
L 469 531 
Q 828 903 1448 1529 
Q 2069 2156 2228 2338 
Q 2531 2678 2651 2914 
Q 2772 3150 2772 3378 
Q 2772 3750 2511 3984 
Q 2250 4219 1831 4219 
Q 1534 4219 1204 4116 
Q 875 4013 500 3803 
L 500 4441 
Q 881 4594 1212 4672 
Q 1544 4750 1819 4750 
Q 2544 4750 2975 4387 
Q 3406 4025 3406 3419 
Q 3406 3131 3298 2873 
Q 3191 2616 2906 2266 
Q 2828 2175 2409 1742 
Q 1991 1309 1228 531 
z
" transform="scale(0.015625)"/>
       </defs>
       <use xlink:href="#DejaVuSans-32"/>
       <use xlink:href="#DejaVuSans-30" transform="translate(63.623047 0)"/>
      </g>
     </g>
    </g>
    <g id="xtick_6">
     <g id="line2d_6">
      <g>
       <use xlink:href="#m23fa48a713" x="323.298738" y="299.798125" style="stroke: #000000; stroke-width: 0.8"/>
      </g>
     </g>
     <g id="text_6">
      <!-- 25 -->
      <g transform="translate(316.936238 314.396563) scale(0.1 -0.1)">
       <use xlink:href="#DejaVuSans-32"/>
       <use xlink:href="#DejaVuSans-35" transform="translate(63.623047 0)"/>
      </g>
     </g>
    </g>
    <g id="xtick_7">
     <g id="line2d_7">
      <g>
       <use xlink:href="#m23fa48a713" x="376.152952" y="299.798125" style="stroke: #000000; stroke-width: 0.8"/>
      </g>
     </g>
     <g id="text_7">
      <!-- 30 -->
      <g transform="translate(369.790452 314.396563) scale(0.1 -0.1)">
       <defs>
        <path id="DejaVuSans-33" d="M 2597 2516 
Q 3050 2419 3304 2112 
Q 3559 1806 3559 1356 
Q 3559 666 3084 287 
Q 2609 -91 1734 -91 
Q 1441 -91 1130 -33 
Q 819 25 488 141 
L 488 750 
Q 750 597 1062 519 
Q 1375 441 1716 441 
Q 2309 441 2620 675 
Q 2931 909 2931 1356 
Q 2931 1769 2642 2001 
Q 2353 2234 1838 2234 
L 1294 2234 
L 1294 2753 
L 1863 2753 
Q 2328 2753 2575 2939 
Q 2822 3125 2822 3475 
Q 2822 3834 2567 4026 
Q 2313 4219 1838 4219 
Q 1578 4219 1281 4162 
Q 984 4106 628 3988 
L 628 4550 
Q 988 4650 1302 4700 
Q 1616 4750 1894 4750 
Q 2613 4750 3031 4423 
Q 3450 4097 3450 3541 
Q 3450 3153 3228 2886 
Q 3006 2619 2597 2516 
z
" transform="scale(0.015625)"/>
       </defs>
       <use xlink:href="#DejaVuSans-33"/>
       <use xlink:href="#DejaVuSans-30" transform="translate(63.623047 0)"/>
      </g>
     </g>
    </g>
    <g id="xtick_8">
     <g id="line2d_8">
      <g>
       <use xlink:href="#m23fa48a713" x="429.007166" y="299.798125" style="stroke: #000000; stroke-width: 0.8"/>
      </g>
     </g>
     <g id="text_8">
      <!-- 35 -->
      <g transform="translate(422.644666 314.396563) scale(0.1 -0.1)">
       <use xlink:href="#DejaVuSans-33"/>
       <use xlink:href="#DejaVuSans-35" transform="translate(63.623047 0)"/>
      </g>
     </g>
    </g>
    <g id="text_9">
     <!-- Left Position, (rad) -->
     <g transform="translate(197.43875 328.074688) scale(0.1 -0.1)">
      <defs>
       <path id="DejaVuSans-4c" d="M 628 4666 
L 1259 4666 
L 1259 531 
L 3531 531 
L 3531 0 
L 628 0 
L 628 4666 
z
" transform="scale(0.015625)"/>
       <path id="DejaVuSans-65" d="M 3597 1894 
L 3597 1613 
L 953 1613 
Q 991 1019 1311 708 
Q 1631 397 2203 397 
Q 2534 397 2845 478 
Q 3156 559 3463 722 
L 3463 178 
Q 3153 47 2828 -22 
Q 2503 -91 2169 -91 
Q 1331 -91 842 396 
Q 353 884 353 1716 
Q 353 2575 817 3079 
Q 1281 3584 2069 3584 
Q 2775 3584 3186 3129 
Q 3597 2675 3597 1894 
z
M 3022 2063 
Q 3016 2534 2758 2815 
Q 2500 3097 2075 3097 
Q 1594 3097 1305 2825 
Q 1016 2553 972 2059 
L 3022 2063 
z
" transform="scale(0.015625)"/>
       <path id="DejaVuSans-66" d="M 2375 4863 
L 2375 4384 
L 1825 4384 
Q 1516 4384 1395 4259 
Q 1275 4134 1275 3809 
L 1275 3500 
L 2222 3500 
L 2222 3053 
L 1275 3053 
L 1275 0 
L 697 0 
L 697 3053 
L 147 3053 
L 147 3500 
L 697 3500 
L 697 3744 
Q 697 4328 969 4595 
Q 1241 4863 1831 4863 
L 2375 4863 
z
" transform="scale(0.015625)"/>
       <path id="DejaVuSans-74" d="M 1172 4494 
L 1172 3500 
L 2356 3500 
L 2356 3053 
L 1172 3053 
L 1172 1153 
Q 1172 725 1289 603 
Q 1406 481 1766 481 
L 2356 481 
L 2356 0 
L 1766 0 
Q 1100 0 847 248 
Q 594 497 594 1153 
L 594 3053 
L 172 3053 
L 172 3500 
L 594 3500 
L 594 4494 
L 1172 4494 
z
" transform="scale(0.015625)"/>
       <path id="DejaVuSans-20" transform="scale(0.015625)"/>
       <path id="DejaVuSans-50" d="M 1259 4147 
L 1259 2394 
L 2053 2394 
Q 2494 2394 2734 2622 
Q 2975 2850 2975 3272 
Q 2975 3691 2734 3919 
Q 2494 4147 2053 4147 
L 1259 4147 
z
M 628 4666 
L 2053 4666 
Q 2838 4666 3239 4311 
Q 3641 3956 3641 3272 
Q 3641 2581 3239 2228 
Q 2838 1875 2053 1875 
L 1259 1875 
L 1259 0 
L 628 0 
L 628 4666 
z
" transform="scale(0.015625)"/>
       <path id="DejaVuSans-6f" d="M 1959 3097 
Q 1497 3097 1228 2736 
Q 959 2375 959 1747 
Q 959 1119 1226 758 
Q 1494 397 1959 397 
Q 2419 397 2687 759 
Q 2956 1122 2956 1747 
Q 2956 2369 2687 2733 
Q 2419 3097 1959 3097 
z
M 1959 3584 
Q 2709 3584 3137 3096 
Q 3566 2609 3566 1747 
Q 3566 888 3137 398 
Q 2709 -91 1959 -91 
Q 1206 -91 779 398 
Q 353 888 353 1747 
Q 353 2609 779 3096 
Q 1206 3584 1959 3584 
z
" transform="scale(0.015625)"/>
       <path id="DejaVuSans-73" d="M 2834 3397 
L 2834 2853 
Q 2591 2978 2328 3040 
Q 2066 3103 1784 3103 
Q 1356 3103 1142 2972 
Q 928 2841 928 2578 
Q 928 2378 1081 2264 
Q 1234 2150 1697 2047 
L 1894 2003 
Q 2506 1872 2764 1633 
Q 3022 1394 3022 966 
Q 3022 478 2636 193 
Q 2250 -91 1575 -91 
Q 1294 -91 989 -36 
Q 684 19 347 128 
L 347 722 
Q 666 556 975 473 
Q 1284 391 1588 391 
Q 1994 391 2212 530 
Q 2431 669 2431 922 
Q 2431 1156 2273 1281 
Q 2116 1406 1581 1522 
L 1381 1569 
Q 847 1681 609 1914 
Q 372 2147 372 2553 
Q 372 3047 722 3315 
Q 1072 3584 1716 3584 
Q 2034 3584 2315 3537 
Q 2597 3491 2834 3397 
z
" transform="scale(0.015625)"/>
       <path id="DejaVuSans-69" d="M 603 3500 
L 1178 3500 
L 1178 0 
L 603 0 
L 603 3500 
z
M 603 4863 
L 1178 4863 
L 1178 4134 
L 603 4134 
L 603 4863 
z
" transform="scale(0.015625)"/>
       <path id="DejaVuSans-6e" d="M 3513 2113 
L 3513 0 
L 2938 0 
L 2938 2094 
Q 2938 2591 2744 2837 
Q 2550 3084 2163 3084 
Q 1697 3084 1428 2787 
Q 1159 2491 1159 1978 
L 1159 0 
L 581 0 
L 581 3500 
L 1159 3500 
L 1159 2956 
Q 1366 3272 1645 3428 
Q 1925 3584 2291 3584 
Q 2894 3584 3203 3211 
Q 3513 2838 3513 2113 
z
" transform="scale(0.015625)"/>
       <path id="DejaVuSans-2c" d="M 750 794 
L 1409 794 
L 1409 256 
L 897 -744 
L 494 -744 
L 750 256 
L 750 794 
z
" transform="scale(0.015625)"/>
       <path id="DejaVuSans-28" d="M 1984 4856 
Q 1566 4138 1362 3434 
Q 1159 2731 1159 2009 
Q 1159 1288 1364 580 
Q 1569 -128 1984 -844 
L 1484 -844 
Q 1016 -109 783 600 
Q 550 1309 550 2009 
Q 550 2706 781 3412 
Q 1013 4119 1484 4856 
L 1984 4856 
z
" transform="scale(0.015625)"/>
       <path id="DejaVuSans-72" d="M 2631 2963 
Q 2534 3019 2420 3045 
Q 2306 3072 2169 3072 
Q 1681 3072 1420 2755 
Q 1159 2438 1159 1844 
L 1159 0 
L 581 0 
L 581 3500 
L 1159 3500 
L 1159 2956 
Q 1341 3275 1631 3429 
Q 1922 3584 2338 3584 
Q 2397 3584 2469 3576 
Q 2541 3569 2628 3553 
L 2631 2963 
z
" transform="scale(0.015625)"/>
       <path id="DejaVuSans-61" d="M 2194 1759 
Q 1497 1759 1228 1600 
Q 959 1441 959 1056 
Q 959 750 1161 570 
Q 1363 391 1709 391 
Q 2188 391 2477 730 
Q 2766 1069 2766 1631 
L 2766 1759 
L 2194 1759 
z
M 3341 1997 
L 3341 0 
L 2766 0 
L 2766 531 
Q 2569 213 2275 61 
Q 1981 -91 1556 -91 
Q 1019 -91 701 211 
Q 384 513 384 1019 
Q 384 1609 779 1909 
Q 1175 2209 1959 2209 
L 2766 2209 
L 2766 2266 
Q 2766 2663 2505 2880 
Q 2244 3097 1772 3097 
Q 1472 3097 1187 3025 
Q 903 2953 641 2809 
L 641 3341 
Q 956 3463 1253 3523 
Q 1550 3584 1831 3584 
Q 2591 3584 2966 3190 
Q 3341 2797 3341 1997 
z
" transform="scale(0.015625)"/>
       <path id="DejaVuSans-64" d="M 2906 2969 
L 2906 4863 
L 3481 4863 
L 3481 0 
L 2906 0 
L 2906 525 
Q 2725 213 2448 61 
Q 2172 -91 1784 -91 
Q 1150 -91 751 415 
Q 353 922 353 1747 
Q 353 2572 751 3078 
Q 1150 3584 1784 3584 
Q 2172 3584 2448 3432 
Q 2725 3281 2906 2969 
z
M 947 1747 
Q 947 1113 1208 752 
Q 1469 391 1925 391 
Q 2381 391 2643 752 
Q 2906 1113 2906 1747 
Q 2906 2381 2643 2742 
Q 2381 3103 1925 3103 
Q 1469 3103 1208 2742 
Q 947 2381 947 1747 
z
" transform="scale(0.015625)"/>
       <path id="DejaVuSans-29" d="M 513 4856 
L 1013 4856 
Q 1481 4119 1714 3412 
Q 1947 2706 1947 2009 
Q 1947 1309 1714 600 
Q 1481 -109 1013 -844 
L 513 -844 
Q 928 -128 1133 580 
Q 1338 1288 1338 2009 
Q 1338 2731 1133 3434 
Q 928 4138 513 4856 
z
" transform="scale(0.015625)"/>
      </defs>
      <use xlink:href="#DejaVuSans-4c"/>
      <use xlink:href="#DejaVuSans-65" transform="translate(53.962891 0)"/>
      <use xlink:href="#DejaVuSans-66" transform="translate(115.486328 0)"/>
      <use xlink:href="#DejaVuSans-74" transform="translate(148.941406 0)"/>
      <use xlink:href="#DejaVuSans-20" transform="translate(188.150391 0)"/>
      <use xlink:href="#DejaVuSans-50" transform="translate(219.9375 0)"/>
      <use xlink:href="#DejaVuSans-6f" transform="translate(276.615234 0)"/>
      <use xlink:href="#DejaVuSans-73" transform="translate(337.796875 0)"/>
      <use xlink:href="#DejaVuSans-69" transform="translate(389.896484 0)"/>
      <use xlink:href="#DejaVuSans-74" transform="translate(417.679688 0)"/>
      <use xlink:href="#DejaVuSans-69" transform="translate(456.888672 0)"/>
      <use xlink:href="#DejaVuSans-6f" transform="translate(484.671875 0)"/>
      <use xlink:href="#DejaVuSans-6e" transform="translate(545.853516 0)"/>
      <use xlink:href="#DejaVuSans-2c" transform="translate(609.232422 0)"/>
      <use xlink:href="#DejaVuSans-20" transform="translate(641.019531 0)"/>
      <use xlink:href="#DejaVuSans-28" transform="translate(672.806641 0)"/>
      <use xlink:href="#DejaVuSans-72" transform="translate(711.820312 0)"/>
      <use xlink:href="#DejaVuSans-61" transform="translate(752.933594 0)"/>
      <use xlink:href="#DejaVuSans-64" transform="translate(814.212891 0)"/>
      <use xlink:href="#DejaVuSans-29" transform="translate(877.689453 0)"/>
     </g>
    </g>
   </g>
   <g id="matplotlib.axis_2">
    <g id="ytick_1">
     <g id="line2d_9">
      <defs>
       <path id="mbbf4e00398" d="M 0 0 
L -3.5 0 
" style="stroke: #000000; stroke-width: 0.8"/>
      </defs>
      <g>
       <use xlink:href="#mbbf4e00398" x="40.603125" y="287.185398" style="stroke: #000000; stroke-width: 0.8"/>
      </g>
     </g>
     <g id="text_10">
      <!-- 0 -->
      <g transform="translate(27.240625 290.984616) scale(0.1 -0.1)">
       <use xlink:href="#DejaVuSans-30"/>
      </g>
     </g>
    </g>
    <g id="ytick_2">
     <g id="line2d_10">
      <g>
       <use xlink:href="#mbbf4e00398" x="40.603125" y="250.16299" style="stroke: #000000; stroke-width: 0.8"/>
      </g>
     </g>
     <g id="text_11">
      <!-- 5 -->
      <g transform="translate(27.240625 253.962209) scale(0.1 -0.1)">
       <use xlink:href="#DejaVuSans-35"/>
      </g>
     </g>
    </g>
    <g id="ytick_3">
     <g id="line2d_11">
      <g>
       <use xlink:href="#mbbf4e00398" x="40.603125" y="213.140582" style="stroke: #000000; stroke-width: 0.8"/>
      </g>
     </g>
     <g id="text_12">
      <!-- 10 -->
      <g transform="translate(20.878125 216.939801) scale(0.1 -0.1)">
       <use xlink:href="#DejaVuSans-31"/>
       <use xlink:href="#DejaVuSans-30" transform="translate(63.623047 0)"/>
      </g>
     </g>
    </g>
    <g id="ytick_4">
     <g id="line2d_12">
      <g>
       <use xlink:href="#mbbf4e00398" x="40.603125" y="176.118174" style="stroke: #000000; stroke-width: 0.8"/>
      </g>
     </g>
     <g id="text_13">
      <!-- 15 -->
      <g transform="translate(20.878125 179.917393) scale(0.1 -0.1)">
       <use xlink:href="#DejaVuSans-31"/>
       <use xlink:href="#DejaVuSans-35" transform="translate(63.623047 0)"/>
      </g>
     </g>
    </g>
    <g id="ytick_5">
     <g id="line2d_13">
      <g>
       <use xlink:href="#mbbf4e00398" x="40.603125" y="139.095766" style="stroke: #000000; stroke-width: 0.8"/>
      </g>
     </g>
     <g id="text_14">
      <!-- 20 -->
      <g transform="translate(20.878125 142.894985) scale(0.1 -0.1)">
       <use xlink:href="#DejaVuSans-32"/>
       <use xlink:href="#DejaVuSans-30" transform="translate(63.623047 0)"/>
      </g>
     </g>
    </g>
    <g id="ytick_6">
     <g id="line2d_14">
      <g>
       <use xlink:href="#mbbf4e00398" x="40.603125" y="102.073358" style="stroke: #000000; stroke-width: 0.8"/>
      </g>
     </g>
     <g id="text_15">
      <!-- 25 -->
      <g transform="translate(20.878125 105.872577) scale(0.1 -0.1)">
       <use xlink:href="#DejaVuSans-32"/>
       <use xlink:href="#DejaVuSans-35" transform="translate(63.623047 0)"/>
      </g>
     </g>
    </g>
    <g id="ytick_7">
     <g id="line2d_15">
      <g>
       <use xlink:href="#mbbf4e00398" x="40.603125" y="65.050951" style="stroke: #000000; stroke-width: 0.8"/>
      </g>
     </g>
     <g id="text_16">
      <!-- 30 -->
      <g transform="translate(20.878125 68.850169) scale(0.1 -0.1)">
       <use xlink:href="#DejaVuSans-33"/>
       <use xlink:href="#DejaVuSans-30" transform="translate(63.623047 0)"/>
      </g>
     </g>
    </g>
    <g id="ytick_8">
     <g id="line2d_16">
      <g>
       <use xlink:href="#mbbf4e00398" x="40.603125" y="28.028543" style="stroke: #000000; stroke-width: 0.8"/>
      </g>
     </g>
     <g id="text_17">
      <!-- 35 -->
      <g transform="translate(20.878125 31.827761) scale(0.1 -0.1)">
       <use xlink:href="#DejaVuSans-33"/>
       <use xlink:href="#DejaVuSans-35" transform="translate(63.623047 0)"/>
      </g>
     </g>
    </g>
    <g id="text_18">
     <!-- Right Position, (rad) -->
     <g transform="translate(14.798438 210.651094) rotate(-90) scale(0.1 -0.1)">
      <defs>
       <path id="DejaVuSans-52" d="M 2841 2188 
Q 3044 2119 3236 1894 
Q 3428 1669 3622 1275 
L 4263 0 
L 3584 0 
L 2988 1197 
Q 2756 1666 2539 1819 
Q 2322 1972 1947 1972 
L 1259 1972 
L 1259 0 
L 628 0 
L 628 4666 
L 2053 4666 
Q 2853 4666 3247 4331 
Q 3641 3997 3641 3322 
Q 3641 2881 3436 2590 
Q 3231 2300 2841 2188 
z
M 1259 4147 
L 1259 2491 
L 2053 2491 
Q 2509 2491 2742 2702 
Q 2975 2913 2975 3322 
Q 2975 3731 2742 3939 
Q 2509 4147 2053 4147 
L 1259 4147 
z
" transform="scale(0.015625)"/>
       <path id="DejaVuSans-67" d="M 2906 1791 
Q 2906 2416 2648 2759 
Q 2391 3103 1925 3103 
Q 1463 3103 1205 2759 
Q 947 2416 947 1791 
Q 947 1169 1205 825 
Q 1463 481 1925 481 
Q 2391 481 2648 825 
Q 2906 1169 2906 1791 
z
M 3481 434 
Q 3481 -459 3084 -895 
Q 2688 -1331 1869 -1331 
Q 1566 -1331 1297 -1286 
Q 1028 -1241 775 -1147 
L 775 -588 
Q 1028 -725 1275 -790 
Q 1522 -856 1778 -856 
Q 2344 -856 2625 -561 
Q 2906 -266 2906 331 
L 2906 616 
Q 2728 306 2450 153 
Q 2172 0 1784 0 
Q 1141 0 747 490 
Q 353 981 353 1791 
Q 353 2603 747 3093 
Q 1141 3584 1784 3584 
Q 2172 3584 2450 3431 
Q 2728 3278 2906 2969 
L 2906 3500 
L 3481 3500 
L 3481 434 
z
" transform="scale(0.015625)"/>
       <path id="DejaVuSans-68" d="M 3513 2113 
L 3513 0 
L 2938 0 
L 2938 2094 
Q 2938 2591 2744 2837 
Q 2550 3084 2163 3084 
Q 1697 3084 1428 2787 
Q 1159 2491 1159 1978 
L 1159 0 
L 581 0 
L 581 4863 
L 1159 4863 
L 1159 2956 
Q 1366 3272 1645 3428 
Q 1925 3584 2291 3584 
Q 2894 3584 3203 3211 
Q 3513 2838 3513 2113 
z
" transform="scale(0.015625)"/>
      </defs>
      <use xlink:href="#DejaVuSans-52"/>
      <use xlink:href="#DejaVuSans-69" transform="translate(69.482422 0)"/>
      <use xlink:href="#DejaVuSans-67" transform="translate(97.265625 0)"/>
      <use xlink:href="#DejaVuSans-68" transform="translate(160.742188 0)"/>
      <use xlink:href="#DejaVuSans-74" transform="translate(224.121094 0)"/>
      <use xlink:href="#DejaVuSans-20" transform="translate(263.330078 0)"/>
      <use xlink:href="#DejaVuSans-50" transform="translate(295.117188 0)"/>
      <use xlink:href="#DejaVuSans-6f" transform="translate(351.794922 0)"/>
      <use xlink:href="#DejaVuSans-73" transform="translate(412.976562 0)"/>
      <use xlink:href="#DejaVuSans-69" transform="translate(465.076172 0)"/>
      <use xlink:href="#DejaVuSans-74" transform="translate(492.859375 0)"/>
      <use xlink:href="#DejaVuSans-69" transform="translate(532.068359 0)"/>
      <use xlink:href="#DejaVuSans-6f" transform="translate(559.851562 0)"/>
      <use xlink:href="#DejaVuSans-6e" transform="translate(621.033203 0)"/>
      <use xlink:href="#DejaVuSans-2c" transform="translate(684.412109 0)"/>
      <use xlink:href="#DejaVuSans-20" transform="translate(716.199219 0)"/>
      <use xlink:href="#DejaVuSans-28" transform="translate(747.986328 0)"/>
      <use xlink:href="#DejaVuSans-72" transform="translate(787 0)"/>
      <use xlink:href="#DejaVuSans-61" transform="translate(828.113281 0)"/>
      <use xlink:href="#DejaVuSans-64" transform="translate(889.392578 0)"/>
      <use xlink:href="#DejaVuSans-29" transform="translate(952.869141 0)"/>
     </g>
    </g>
   </g>
   <g id="line2d_17">
    <path d="M 66.607317 282.232246 
L 67.531665 281.617149 
L 69.796315 280.030846 
L 72.800443 277.79707 
L 76.128091 275.369052 
L 79.501966 273.005786 
L 82.968261 270.64252 
L 86.434568 268.214501 
L 90.039521 265.754118 
L 93.598258 263.423217 
L 97.295643 260.995206 
L 100.946823 258.534815 
L 104.597992 256.042052 
L 108.48024 253.355047 
L 112.223851 250.797539 
L 115.967462 248.272396 
L 119.711062 245.714888 
L 123.454674 243.189753 
L 127.198274 240.632245 
L 130.988101 238.074729 
L 134.731712 235.549594 
L 138.475312 232.992086 
L 142.311355 230.369826 
L 145.916308 227.877063 
L 149.659909 225.319562 
L 153.403509 222.114577 
L 157.147121 220.269284 
L 160.936937 217.647031 
L 164.588106 215.154268 
L 168.424159 212.564365 
L 172.121523 210.039215 
L 175.865187 207.449349 
L 179.608745 204.956631 
L 183.352303 202.399123 
L 187.142162 199.809183 
L 190.839525 197.284107 
L 194.583189 194.694167 
L 198.326747 192.136659 
L 202.024111 189.611583 
L 205.72158 187.086433 
L 209.326449 184.59364 
L 213.116308 181.971417 
L 216.813671 179.510982 
L 220.511141 176.953474 
L 224.254699 174.428397 
L 227.952063 171.935605 
L 231.695727 169.378097 
L 235.39309 166.852946 
L 239.136649 164.327796 
L 242.880312 161.770288 
L 246.577676 159.245212 
L 250.367535 156.687704 
L 254.111093 154.130196 
L 257.762262 150.989955 
L 261.505926 149.112253 
L 265.295679 146.522387 
L 268.900653 144.062026 
L 272.690512 141.472161 
L 276.249292 138.979368 
L 279.946655 136.42186 
L 283.644019 133.89671 
L 287.387577 131.306844 
L 291.085047 128.781694 
L 294.736216 126.256543 
L 298.572163 123.666678 
L 302.177138 121.173959 
L 306.013191 118.551662 
L 309.710554 116.026512 
L 313.407918 113.469004 
L 317.012893 111.008642 
L 320.802751 108.386345 
L 324.45392 105.925984 
L 328.151284 103.400834 
L 331.894842 100.843326 
L 335.592311 98.25346 
L 339.289675 95.72831 
L 342.89465 93.235591 
L 346.545819 90.710441 
L 350.243182 88.152933 
L 353.940546 85.627783 
L 357.684104 83.070275 
L 361.335273 80.545124 
L 364.986442 78.052406 
L 368.683806 75.494898 
L 372.381275 72.93739 
L 376.032444 70.444597 
L 379.729808 67.887089 
L 383.380977 65.361939 
L 387.078341 62.836788 
L 390.821899 60.27928 
L 394.519368 57.721773 
L 398.124237 55.229054 
L 401.867901 52.671546 
L 405.565265 50.146396 
L 409.216434 47.621245 
L 412.821408 45.128526 
L 416.472577 42.603376 
L 420.123747 40.045868 
L 423.821216 37.48836 
L 427.51858 34.930852 
" clip-path="url(#p1e042a93fd)" style="fill: none; stroke: #1f77b4; stroke-width: 1.5; stroke-linecap: square"/>
   </g>
   <g id="line2d_18">
    <path d="M 66.422449 282.91209 
L 67.300578 282.296993 
L 69.472793 280.71069 
L 72.199617 278.703527 
L 75.157529 276.664 
L 78.207873 274.624465 
L 81.212 272.552558 
L 84.169912 270.448278 
L 87.266472 268.311626 
L 90.363042 266.239719 
L 93.505816 264.167811 
L 96.741033 261.966407 
L 100.022466 259.700266 
L 103.257683 257.466489 
L 106.4929 255.20034 
L 109.866764 252.869446 
L 113.101981 250.603297 
L 116.290972 248.401901 
L 119.664847 246.071007 
L 122.853837 243.869603 
L 126.089054 241.635833 
L 129.416703 239.337312 
L 132.65192 237.103535 
L 135.840921 234.902139 
L 139.076127 232.668362 
L 142.35756 230.369841 
L 145.592777 228.136064 
L 148.827994 225.869915 
L 152.063211 223.636138 
L 155.298439 221.402369 
L 158.533656 219.13622 
L 161.815088 216.902444 
L 165.096563 214.668667 
L 168.33177 212.402503 
L 171.566976 210.168719 
L 174.709688 207.999724 
L 178.037389 205.701225 
L 181.226401 203.467441 
L 184.461607 201.266015 
L 187.696814 199.032231 
L 190.978215 196.766089 
L 194.167227 194.532305 
L 197.448733 192.298521 
L 200.637639 190.064811 
L 203.872951 187.831027 
L 207.061858 185.629601 
L 210.250869 183.395817 
L 213.347492 181.226822 
L 216.536504 178.993038 
L 219.77171 176.823969 
L 222.960722 174.557828 
L 226.103434 172.356475 
L 229.292446 170.122691 
L 232.481457 167.953623 
L 235.716664 165.719839 
L 238.905676 163.518486 
L 242.094687 161.284702 
L 245.19131 159.148065 
L 248.426517 156.914281 
L 251.661723 154.680497 
L 254.75824 152.511428 
L 257.947252 150.310076 
L 261.136264 148.108649 
L 264.417665 145.81015 
L 267.514287 143.673439 
L 270.795688 141.439729 
L 273.9847 139.205945 
L 277.035022 137.069234 
L 280.224034 134.867881 
L 283.413046 132.634097 
L 286.555863 130.432671 
L 289.79107 128.198887 
L 292.887692 126.06225 
L 296.030404 123.860823 
L 299.26561 121.659471 
L 302.408428 119.458044 
L 305.551139 117.321407 
L 308.647762 115.184696 
L 311.882968 112.950986 
L 315.025785 110.781917 
L 318.168497 108.612922 
L 321.357509 106.379138 
L 324.546521 104.145354 
L 327.689338 101.943928 
L 330.785855 99.774933 
L 333.974867 97.573507 
L 337.163879 95.37208 
L 340.260501 93.203086 
L 343.449513 91.001659 
L 346.592225 88.767875 
L 349.735042 86.631238 
L 352.877753 84.462243 
L 356.066765 82.228459 
L 359.209582 80.05939 
L 362.398594 77.890396 
L 365.541412 75.721327 
L 368.637929 73.617121 
L 371.780746 71.383337 
L 374.923457 69.214268 
L 378.112469 67.012916 
" clip-path="url(#p1e042a93fd)" style="fill: none; stroke: #ff7f0e; stroke-width: 1.5; stroke-linecap: square"/>
   </g>
   <g id="line2d_19">
    <path d="M 64.80484 283.850923 
L 65.68297 283.300573 
L 67.762751 281.908511 
L 70.212267 280.16034 
L 72.569353 278.444541 
L 75.018871 276.696372 
L 77.514616 275.012948 
L 80.010349 273.329525 
L 82.506094 271.581356 
L 85.048043 269.768435 
L 87.774866 267.858398 
L 90.455473 266.013105 
L 93.13608 264.135439 
L 95.862903 262.257774 
L 98.543521 260.380108 
L 101.224117 258.502443 
L 103.95094 256.624777 
L 106.631547 254.747119 
L 109.35837 252.837081 
L 112.131409 250.473808 
L 114.7658 249.114123 
L 117.400192 247.236457 
L 120.17323 245.32642 
L 122.807622 243.448754 
L 125.488229 241.571089 
L 128.168825 239.693431 
L 130.895648 237.815765 
L 133.668687 235.873355 
L 136.256863 234.060434 
L 138.93747 232.182769 
L 141.618077 230.305103 
L 144.391115 228.395065 
L 147.025507 226.549772 
L 149.706114 224.672107 
L 152.340505 222.794441 
L 155.067339 220.884404 
L 157.747946 219.03911 
L 160.428543 217.22619 
L 163.062945 215.380897 
L 165.697304 213.535604 
L 168.424159 211.625551 
L 171.012324 209.812638 
L 173.739179 207.902578 
L 176.373538 206.089664 
L 179.054198 204.212036 
L 181.780947 202.301976 
L 184.369112 200.489063 
L 187.003578 198.125774 
L 189.776627 196.733732 
L 192.410987 194.888461 
L 195.045346 193.075548 
L 197.679812 191.230203 
L 200.267977 189.384932 
L 202.994726 187.507229 
L 205.675386 185.661959 
L 208.35594 183.816688 
L 210.990406 182.003774 
L 213.67096 180.158429 
L 216.35162 178.313159 
L 218.939785 176.467888 
L 221.574145 174.622543 
L 224.254805 172.744914 
L 226.889164 170.964359 
L 229.569824 169.151445 
L 232.204184 167.306175 
L 234.838544 165.460904 
L 237.472904 163.615559 
L 240.107263 161.770288 
L 242.787923 159.925017 
L 245.422283 158.144462 
L 248.056643 156.299191 
L 250.691108 154.421488 
L 253.371662 152.576217 
L 255.959828 150.763304 
L 258.640488 148.885602 
L 261.321042 147.072688 
L 263.909313 145.292133 
L 266.589867 143.446862 
L 269.224227 141.601591 
L 271.766197 139.788678 
L 274.446857 137.910975 
L 277.035022 136.130419 
L 279.669382 134.285149 
L 282.350042 132.439878 
L 284.984402 130.562175 
L 287.572567 128.78162 
L 290.206927 126.936349 
L 292.748897 125.155793 
L 295.383257 123.34288 
L 297.971422 121.529967 
L 300.559587 119.717053 
L 303.194053 117.871782 
L 305.828412 116.058869 
L 308.508967 114.213598 
L 311.143432 112.368253 
L 313.731597 110.55534 
L 316.365957 108.677712 
L 319.000317 106.832367 
L 321.542287 105.051885 
L 324.176647 103.20654 
" clip-path="url(#p1e042a93fd)" style="fill: none; stroke: #2ca02c; stroke-width: 1.5; stroke-linecap: square"/>
   </g>
   <g id="line2d_20">
    <path d="M 63.187233 284.91925 
L 63.926711 284.433647 
L 65.68297 283.268199 
L 67.670316 281.876137 
L 69.750099 280.484075 
L 71.783665 279.124383 
L 73.817231 277.764698 
L 75.712139 276.437385 
L 77.653263 275.012948 
L 79.686829 273.588511 
L 81.812826 272.099329 
L 83.98505 270.577775 
L 86.111047 269.088586 
L 88.28326 267.567031 
L 90.501689 266.077849 
L 92.627697 264.588667 
L 94.79991 263.034733 
L 96.925907 261.545551 
L 99.144346 260.056369 
L 101.224128 258.211076 
L 103.488772 257.078006 
L 105.660985 255.653568 
L 107.740767 254.132014 
L 109.866764 252.675205 
L 111.992762 251.218395 
L 114.072543 249.729213 
L 116.198541 248.240031 
L 118.324538 246.750849 
L 120.542967 245.261667 
L 122.71518 243.772485 
L 124.841177 242.283303 
L 126.967174 240.826501 
L 129.139387 239.304947 
L 131.265385 237.815765 
L 133.437598 236.326583 
L 135.656026 234.805029 
L 137.782024 233.348219 
L 139.908021 231.89141 
L 142.034018 230.4346 
L 144.160016 228.977791 
L 146.239797 227.488609 
L 148.365795 225.999419 
L 150.491803 224.542617 
L 152.664016 223.053428 
L 154.790013 221.564246 
L 156.91601 220.075057 
L 159.088234 218.585875 
L 161.214231 217.096693 
L 163.294013 215.639883 
L 165.420031 214.150694 
L 167.592234 212.661512 
L 169.672047 211.172323 
L 171.798055 209.715491 
L 173.877762 208.291091 
L 175.957576 206.834259 
L 178.083584 205.377427 
L 180.209592 203.85588 
L 182.381794 202.366691 
L 184.461607 200.909933 
L 186.541315 199.420744 
L 188.667323 197.963912 
L 190.793331 196.474723 
L 192.873144 195.017891 
L 194.999152 193.528776 
L 197.12516 192.039587 
L 199.251168 190.550397 
L 201.377176 189.061208 
L 203.503183 187.604376 
L 205.629086 186.115187 
L 207.755093 184.658355 
L 209.834907 183.169166 
L 211.868525 181.744766 
L 213.994533 180.255576 
L 216.120541 178.766387 
L 218.200249 177.341987 
L 220.280062 175.885155 
L 222.359875 174.428323 
L 224.532078 172.939134 
L 226.611786 171.449945 
L 228.645404 170.025545 
L 230.725218 168.568713 
L 232.85112 167.079523 
L 234.977128 165.622766 
L 237.103136 164.165934 
L 239.136754 162.74146 
L 241.262656 161.284702 
L 243.388664 159.795513 
L 245.422283 158.338681 
L 247.548291 156.881849 
L 249.627999 155.360302 
L 251.707812 153.903545 
L 253.787625 152.446713 
L 255.867333 150.989881 
L 257.947146 149.533123 
L 260.073154 148.043934 
L 262.199162 146.554745 
L 264.32517 145.097913 
L 266.404877 143.608724 
L 268.438496 142.151966 
L 270.564504 140.695134 
" clip-path="url(#p1e042a93fd)" style="fill: none; stroke: #d62728; stroke-width: 1.5; stroke-linecap: square"/>
   </g>
   <g id="line2d_21">
    <path d="M 61.246103 286.052324 
L 61.800712 285.663841 
L 63.141016 284.757382 
L 64.573754 283.753803 
L 65.914058 282.81497 
L 67.393013 281.876137 
L 68.825752 280.904931 
L 70.350925 279.804231 
L 71.968528 278.671155 
L 73.632357 277.538084 
L 75.249961 276.469758 
L 76.867574 275.369052 
L 78.531393 274.203609 
L 80.102781 273.135283 
L 81.76661 272.002205 
L 83.430429 270.869134 
L 85.048043 269.736063 
L 86.665646 268.602985 
L 88.237034 267.534659 
L 89.900863 266.401588 
L 91.518466 265.300882 
L 93.13608 264.200184 
L 94.707468 263.099485 
L 96.325071 261.998787 
L 97.942685 260.865709 
L 99.560288 259.76501 
L 101.177902 258.696684 
L 102.749289 257.595979 
L 105.984506 255.394582 
L 107.555894 254.261504 
L 109.173507 253.160805 
L 110.791111 252.060107 
L 112.45494 250.927036 
L 114.026338 249.85871 
L 115.643941 248.725632 
L 117.261555 247.624933 
L 118.832943 246.524235 
L 120.450556 245.423537 
L 122.06816 244.290458 
L 123.685773 243.18976 
L 125.303376 242.089062 
L 126.92099 241.020736 
L 128.446162 239.95241 
L 130.063776 238.884084 
L 131.635163 237.815758 
L 133.206551 236.747432 
L 134.777938 235.646733 
L 136.349326 234.513655 
L 137.920713 233.412957 
L 139.492101 232.312258 
L 141.15593 231.21156 
L 142.727328 230.078482 
L 144.344931 229.010156 
L 145.916319 227.909457 
L 147.441501 226.841131 
L 149.059104 225.837543 
L 150.630492 224.769217 
L 152.248106 223.636138 
L 153.819493 222.53544 
L 155.390881 221.434742 
L 157.008494 220.334043 
L 158.579882 219.265717 
L 160.151269 218.197391 
L 161.768873 217.031941 
L 163.294055 215.995994 
L 164.865485 214.895289 
L 166.436841 213.79459 
L 167.962002 212.69387 
L 169.533357 211.625551 
L 171.104819 210.492517 
L 172.676175 209.391767 
L 174.293725 208.258733 
L 175.865187 207.190415 
L 177.482737 206.057307 
L 179.054198 204.988988 
L 180.57936 203.92067 
L 182.150715 202.787562 
L 183.722071 201.686886 
L 185.247338 200.618567 
L 186.864888 199.517817 
L 188.436244 198.125774 
L 190.007706 197.348822 
L 191.579061 196.248146 
L 193.150417 195.147396 
L 194.675578 194.079077 
L 196.24704 193.010758 
L 197.772201 191.910082 
L 199.389751 190.841764 
L 200.961213 189.741013 
L 202.440179 188.672695 
L 204.011535 187.572019 
L 205.536696 186.471342 
L 207.061858 185.370592 
L 208.633319 184.269916 
L 210.204675 183.16924 
L 211.822225 182.100921 
L 213.393687 180.967813 
L 214.918848 179.899495 
L 216.490204 178.798819 
" clip-path="url(#p1e042a93fd)" style="fill: none; stroke: #9467bd; stroke-width: 1.5; stroke-linecap: square"/>
   </g>
   <g id="line2d_22">
    <path d="M 59.767148 286.861662 
L 60.136887 286.5703 
L 61.107452 285.987577 
L 62.078016 285.437226 
L 62.909929 284.822129 
L 63.788058 284.174659 
L 64.80484 283.494815 
L 65.914058 282.750223 
L 67.023274 282.005631 
L 68.086273 281.293413 
L 69.149272 280.581195 
L 70.258493 279.836604 
L 71.321487 279.124383 
L 72.38449 278.412168 
L 73.447484 277.667573 
L 74.510488 276.955359 
L 75.573492 276.243144 
L 76.636485 275.530921 
L 77.745705 274.818707 
L 78.808698 274.106492 
L 79.871702 273.394269 
L 80.934706 272.649682 
L 81.997699 271.743218 
L 83.106919 271.225245 
L 84.123697 270.51303 
L 85.232916 269.800808 
L 86.29591 269.056221 
L 87.358903 268.343998 
L 88.421907 267.599411 
L 89.4849 266.887196 
L 90.547904 266.174974 
L 91.610898 265.462759 
L 92.673902 264.782917 
L 93.736895 264.038322 
L 94.799899 263.358479 
L 95.862892 262.646265 
L 96.925896 261.934042 
L 97.98889 261.221827 
L 99.051894 260.541985 
L 100.114887 259.829763 
L 101.131665 259.117548 
L 102.194669 258.405333 
L 103.211457 257.660738 
L 104.320666 256.948523 
L 105.337454 256.236301 
L 106.446674 255.491706 
L 107.463451 254.811864 
L 108.572671 254.067269 
L 109.589459 253.355047 
L 110.652463 252.642832 
L 111.715457 251.93061 
L 112.778461 251.186023 
L 113.795249 250.506173 
L 114.858242 249.793958 
L 115.921246 249.081736 
L 116.98425 248.337141 
L 118.047243 247.624926 
L 119.110247 246.912704 
L 120.127036 246.232861 
L 121.190029 245.488267 
L 122.253033 244.743672 
L 123.316037 244.06383 
L 124.379041 243.319235 
L 125.395819 242.607013 
L 126.458822 241.894798 
L 127.521826 241.182575 
L 128.538604 240.470361 
L 129.647824 239.725766 
L 130.664612 239.045916 
L 131.727605 238.333701 
L 132.790609 237.589106 
L 133.853613 236.876884 
L 134.916607 236.164669 
L 135.933395 235.452447 
L 136.996399 234.740232 
L 138.013176 233.995638 
L 139.07618 233.283415 
L 140.092969 232.5712 
L 141.155962 231.858978 
L 142.218966 231.146763 
L 143.235754 230.434541 
L 144.298747 229.722319 
L 145.315536 229.010104 
L 146.378529 228.297882 
L 147.441522 227.585667 
L 148.504526 226.873452 
L 149.521304 226.16123 
L 150.538092 225.449007 
L 151.601086 224.70442 
L 152.617874 223.992205 
L 153.680867 223.24761 
L 154.743861 222.535396 
L 155.760649 221.823173 
L 156.823642 221.078586 
L 157.886636 220.398744 
L 158.903424 219.686521 
L 159.920201 218.974306 
L 160.983205 218.262084 
L 162.046199 217.549869 
L 163.062976 216.837647 
" clip-path="url(#p1e042a93fd)" style="fill: none; stroke: #8c564b; stroke-width: 1.5; stroke-linecap: square"/>
   </g>
   <g id="line2d_23">
    <path d="M 68.733315 280.937305 
L 68.871968 280.807811 
L 69.334142 280.581196 
L 69.796315 280.354582 
L 70.07362 280.16034 
L 70.489572 279.901352 
L 70.997966 279.609991 
L 71.552576 279.286252 
L 72.107186 278.994893 
L 72.61558 278.638782 
L 73.170179 278.347423 
L 73.678573 278.023685 
L 74.233183 277.699953 
L 74.741577 277.343842 
L 75.296176 277.052483 
L 75.80457 276.728744 
L 76.35918 276.405006 
L 76.867574 276.081274 
L 77.375958 275.757536 
L 77.930568 275.433804 
L 78.438962 275.110066 
L 78.947345 274.786334 
L 79.501955 274.462595 
L 80.056565 274.138857 
L 80.564959 273.815125 
L 81.073353 273.491387 
L 81.627963 273.167655 
L 82.136357 272.843917 
L 82.690967 272.520185 
L 83.199351 272.196446 
L 83.75396 271.872715 
L 84.30857 271.548976 
L 84.816964 271.257617 
L 85.371574 270.933886 
L 85.926184 270.577775 
L 86.434578 270.286416 
L 86.942962 269.962677 
L 87.497571 269.638946 
L 88.052181 269.315207 
L 88.560575 268.991476 
L 89.115185 268.667737 
L 89.623579 268.344006 
L 90.131963 268.020267 
L 90.686573 267.631791 
L 91.241183 267.372797 
L 91.749577 267.049066 
L 92.257971 266.692954 
L 92.812581 266.336843 
L 93.320975 266.013112 
L 93.829358 265.657001 
L 94.337752 265.333269 
L 94.892362 264.977158 
L 95.446972 264.65342 
L 95.955366 264.329688 
L 96.46376 263.973577 
L 97.01837 263.617466 
L 97.526754 263.293735 
L 98.035148 262.970003 
L 98.589758 262.58152 
L 99.098152 262.257781 
L 99.652762 261.93405 
L 100.161156 261.577939 
L 100.715755 261.221827 
L 101.224149 260.898096 
L 101.778759 260.574357 
L 102.240937 260.218246 
L 102.795547 259.894515 
L 103.350157 259.538404 
L 103.85854 259.214672 
L 104.366935 258.826189 
L 104.921544 258.50245 
L 105.429938 258.049222 
L 105.938333 257.822608 
L 106.492942 257.466497 
L 106.95511 257.142765 
L 107.463504 256.754282 
L 107.971898 256.430543 
L 108.480293 256.074432 
L 108.988687 255.718328 
L 109.543286 255.394589 
L 110.097896 255.038478 
L 110.60629 254.714739 
L 111.114684 254.358636 
L 111.669294 254.002525 
L 112.177688 253.646413 
L 112.732298 253.290302 
L 113.240681 252.966571 
L 113.795291 252.61046 
L 114.303685 252.254349 
L 114.812079 251.93061 
L 115.366689 251.574499 
L 115.921299 251.218395 
L 116.429693 250.894656 
L 116.984292 250.538545 
L 117.492687 250.182434 
L 118.001081 249.82633 
L 118.509475 249.502592 
L 119.064085 249.14648 
L 119.572479 248.790369 
L 120.080862 248.466638 
L 120.635472 248.110527 
" clip-path="url(#p1e042a93fd)" style="fill: none; stroke: #e377c2; stroke-width: 1.5; stroke-linecap: square"/>
   </g>
   <g id="line2d_24">
    <path d="M 59.02767 287.185398 
L 419.153237 34.930852 
L 419.153237 34.930852 
" clip-path="url(#p1e042a93fd)" style="fill: none; stroke: #7f7f7f; stroke-width: 1.5; stroke-linecap: square"/>
   </g>
   <g id="patch_3">
    <path d="M 40.603125 299.798125 
L 40.603125 22.318125 
" style="fill: none; stroke: #000000; stroke-width: 0.8; stroke-linejoin: miter; stroke-linecap: square"/>
   </g>
   <g id="patch_4">
    <path d="M 445.943125 299.798125 
L 445.943125 22.318125 
" style="fill: none; stroke: #000000; stroke-width: 0.8; stroke-linejoin: miter; stroke-linecap: square"/>
   </g>
   <g id="patch_5">
    <path d="M 40.603125 299.798125 
L 445.943125 299.798125 
" style="fill: none; stroke: #000000; stroke-width: 0.8; stroke-linejoin: miter; stroke-linecap: square"/>
   </g>
   <g id="patch_6">
    <path d="M 40.603125 22.318125 
L 445.943125 22.318125 
" style="fill: none; stroke: #000000; stroke-width: 0.8; stroke-linejoin: miter; stroke-linecap: square"/>
   </g>
   <g id="text_19">
    <!-- Right Position vs. Left position -->
    <g transform="translate(152.850313 16.318125) scale(0.12 -0.12)">
     <defs>
      <path id="DejaVuSans-76" d="M 191 3500 
L 800 3500 
L 1894 563 
L 2988 3500 
L 3597 3500 
L 2284 0 
L 1503 0 
L 191 3500 
z
" transform="scale(0.015625)"/>
      <path id="DejaVuSans-2e" d="M 684 794 
L 1344 794 
L 1344 0 
L 684 0 
L 684 794 
z
" transform="scale(0.015625)"/>
      <path id="DejaVuSans-70" d="M 1159 525 
L 1159 -1331 
L 581 -1331 
L 581 3500 
L 1159 3500 
L 1159 2969 
Q 1341 3281 1617 3432 
Q 1894 3584 2278 3584 
Q 2916 3584 3314 3078 
Q 3713 2572 3713 1747 
Q 3713 922 3314 415 
Q 2916 -91 2278 -91 
Q 1894 -91 1617 61 
Q 1341 213 1159 525 
z
M 3116 1747 
Q 3116 2381 2855 2742 
Q 2594 3103 2138 3103 
Q 1681 3103 1420 2742 
Q 1159 2381 1159 1747 
Q 1159 1113 1420 752 
Q 1681 391 2138 391 
Q 2594 391 2855 752 
Q 3116 1113 3116 1747 
z
" transform="scale(0.015625)"/>
     </defs>
     <use xlink:href="#DejaVuSans-52"/>
     <use xlink:href="#DejaVuSans-69" transform="translate(69.482422 0)"/>
     <use xlink:href="#DejaVuSans-67" transform="translate(97.265625 0)"/>
     <use xlink:href="#DejaVuSans-68" transform="translate(160.742188 0)"/>
     <use xlink:href="#DejaVuSans-74" transform="translate(224.121094 0)"/>
     <use xlink:href="#DejaVuSans-20" transform="translate(263.330078 0)"/>
     <use xlink:href="#DejaVuSans-50" transform="translate(295.117188 0)"/>
     <use xlink:href="#DejaVuSans-6f" transform="translate(351.794922 0)"/>
     <use xlink:href="#DejaVuSans-73" transform="translate(412.976562 0)"/>
     <use xlink:href="#DejaVuSans-69" transform="translate(465.076172 0)"/>
     <use xlink:href="#DejaVuSans-74" transform="translate(492.859375 0)"/>
     <use xlink:href="#DejaVuSans-69" transform="translate(532.068359 0)"/>
     <use xlink:href="#DejaVuSans-6f" transform="translate(559.851562 0)"/>
     <use xlink:href="#DejaVuSans-6e" transform="translate(621.033203 0)"/>
     <use xlink:href="#DejaVuSans-20" transform="translate(684.412109 0)"/>
     <use xlink:href="#DejaVuSans-76" transform="translate(716.199219 0)"/>
     <use xlink:href="#DejaVuSans-73" transform="translate(775.378906 0)"/>
     <use xlink:href="#DejaVuSans-2e" transform="translate(827.478516 0)"/>
     <use xlink:href="#DejaVuSans-20" transform="translate(859.265625 0)"/>
     <use xlink:href="#DejaVuSans-4c" transform="translate(891.052734 0)"/>
     <use xlink:href="#DejaVuSans-65" transform="translate(945.015625 0)"/>
     <use xlink:href="#DejaVuSans-66" transform="translate(1006.539062 0)"/>
     <use xlink:href="#DejaVuSans-74" transform="translate(1039.994141 0)"/>
     <use xlink:href="#DejaVuSans-20" transform="translate(1079.203125 0)"/>
     <use xlink:href="#DejaVuSans-70" transform="translate(1110.990234 0)"/>
     <use xlink:href="#DejaVuSans-6f" transform="translate(1174.466797 0)"/>
     <use xlink:href="#DejaVuSans-73" transform="translate(1235.648438 0)"/>
     <use xlink:href="#DejaVuSans-69" transform="translate(1287.748047 0)"/>
     <use xlink:href="#DejaVuSans-74" transform="translate(1315.53125 0)"/>
     <use xlink:href="#DejaVuSans-69" transform="translate(1354.740234 0)"/>
     <use xlink:href="#DejaVuSans-6f" transform="translate(1382.523438 0)"/>
     <use xlink:href="#DejaVuSans-6e" transform="translate(1443.705078 0)"/>
    </g>
   </g>
   <g id="legend_1">
    <g id="patch_7">
     <path d="M 322.418125 294.798125 
L 438.943125 294.798125 
Q 440.943125 294.798125 440.943125 292.798125 
L 440.943125 176.373125 
Q 440.943125 174.373125 438.943125 174.373125 
L 322.418125 174.373125 
Q 320.418125 174.373125 320.418125 176.373125 
L 320.418125 292.798125 
Q 320.418125 294.798125 322.418125 294.798125 
z
" style="fill: #ffffff; opacity: 0.8; stroke: #cccccc; stroke-linejoin: miter"/>
    </g>
    <g id="line2d_25">
     <path d="M 324.418125 182.471563 
L 334.418125 182.471563 
L 344.418125 182.471563 
" style="fill: none; stroke: #1f77b4; stroke-width: 1.5; stroke-linecap: square"/>
    </g>
    <g id="text_20">
     <!-- Ref Speed = 595 -->
     <g transform="translate(352.418125 185.971563) scale(0.1 -0.1)">
      <defs>
       <path id="DejaVuSans-53" d="M 3425 4513 
L 3425 3897 
Q 3066 4069 2747 4153 
Q 2428 4238 2131 4238 
Q 1616 4238 1336 4038 
Q 1056 3838 1056 3469 
Q 1056 3159 1242 3001 
Q 1428 2844 1947 2747 
L 2328 2669 
Q 3034 2534 3370 2195 
Q 3706 1856 3706 1288 
Q 3706 609 3251 259 
Q 2797 -91 1919 -91 
Q 1588 -91 1214 -16 
Q 841 59 441 206 
L 441 856 
Q 825 641 1194 531 
Q 1563 422 1919 422 
Q 2459 422 2753 634 
Q 3047 847 3047 1241 
Q 3047 1584 2836 1778 
Q 2625 1972 2144 2069 
L 1759 2144 
Q 1053 2284 737 2584 
Q 422 2884 422 3419 
Q 422 4038 858 4394 
Q 1294 4750 2059 4750 
Q 2388 4750 2728 4690 
Q 3069 4631 3425 4513 
z
" transform="scale(0.015625)"/>
       <path id="DejaVuSans-3d" d="M 678 2906 
L 4684 2906 
L 4684 2381 
L 678 2381 
L 678 2906 
z
M 678 1631 
L 4684 1631 
L 4684 1100 
L 678 1100 
L 678 1631 
z
" transform="scale(0.015625)"/>
       <path id="DejaVuSans-39" d="M 703 97 
L 703 672 
Q 941 559 1184 500 
Q 1428 441 1663 441 
Q 2288 441 2617 861 
Q 2947 1281 2994 2138 
Q 2813 1869 2534 1725 
Q 2256 1581 1919 1581 
Q 1219 1581 811 2004 
Q 403 2428 403 3163 
Q 403 3881 828 4315 
Q 1253 4750 1959 4750 
Q 2769 4750 3195 4129 
Q 3622 3509 3622 2328 
Q 3622 1225 3098 567 
Q 2575 -91 1691 -91 
Q 1453 -91 1209 -44 
Q 966 3 703 97 
z
M 1959 2075 
Q 2384 2075 2632 2365 
Q 2881 2656 2881 3163 
Q 2881 3666 2632 3958 
Q 2384 4250 1959 4250 
Q 1534 4250 1286 3958 
Q 1038 3666 1038 3163 
Q 1038 2656 1286 2365 
Q 1534 2075 1959 2075 
z
" transform="scale(0.015625)"/>
      </defs>
      <use xlink:href="#DejaVuSans-52"/>
      <use xlink:href="#DejaVuSans-65" transform="translate(64.982422 0)"/>
      <use xlink:href="#DejaVuSans-66" transform="translate(126.505859 0)"/>
      <use xlink:href="#DejaVuSans-20" transform="translate(161.710938 0)"/>
      <use xlink:href="#DejaVuSans-53" transform="translate(193.498047 0)"/>
      <use xlink:href="#DejaVuSans-70" transform="translate(256.974609 0)"/>
      <use xlink:href="#DejaVuSans-65" transform="translate(320.451172 0)"/>
      <use xlink:href="#DejaVuSans-65" transform="translate(381.974609 0)"/>
      <use xlink:href="#DejaVuSans-64" transform="translate(443.498047 0)"/>
      <use xlink:href="#DejaVuSans-20" transform="translate(506.974609 0)"/>
      <use xlink:href="#DejaVuSans-3d" transform="translate(538.761719 0)"/>
      <use xlink:href="#DejaVuSans-20" transform="translate(622.550781 0)"/>
      <use xlink:href="#DejaVuSans-35" transform="translate(654.337891 0)"/>
      <use xlink:href="#DejaVuSans-39" transform="translate(717.960938 0)"/>
      <use xlink:href="#DejaVuSans-35" transform="translate(781.583984 0)"/>
     </g>
    </g>
    <g id="line2d_26">
     <path d="M 324.418125 197.149688 
L 334.418125 197.149688 
L 344.418125 197.149688 
" style="fill: none; stroke: #ff7f0e; stroke-width: 1.5; stroke-linecap: square"/>
    </g>
    <g id="text_21">
     <!-- Ref Speed = 510 -->
     <g transform="translate(352.418125 200.649688) scale(0.1 -0.1)">
      <use xlink:href="#DejaVuSans-52"/>
      <use xlink:href="#DejaVuSans-65" transform="translate(64.982422 0)"/>
      <use xlink:href="#DejaVuSans-66" transform="translate(126.505859 0)"/>
      <use xlink:href="#DejaVuSans-20" transform="translate(161.710938 0)"/>
      <use xlink:href="#DejaVuSans-53" transform="translate(193.498047 0)"/>
      <use xlink:href="#DejaVuSans-70" transform="translate(256.974609 0)"/>
      <use xlink:href="#DejaVuSans-65" transform="translate(320.451172 0)"/>
      <use xlink:href="#DejaVuSans-65" transform="translate(381.974609 0)"/>
      <use xlink:href="#DejaVuSans-64" transform="translate(443.498047 0)"/>
      <use xlink:href="#DejaVuSans-20" transform="translate(506.974609 0)"/>
      <use xlink:href="#DejaVuSans-3d" transform="translate(538.761719 0)"/>
      <use xlink:href="#DejaVuSans-20" transform="translate(622.550781 0)"/>
      <use xlink:href="#DejaVuSans-35" transform="translate(654.337891 0)"/>
      <use xlink:href="#DejaVuSans-31" transform="translate(717.960938 0)"/>
      <use xlink:href="#DejaVuSans-30" transform="translate(781.583984 0)"/>
     </g>
    </g>
    <g id="line2d_27">
     <path d="M 324.418125 211.827813 
L 334.418125 211.827813 
L 344.418125 211.827813 
" style="fill: none; stroke: #2ca02c; stroke-width: 1.5; stroke-linecap: square"/>
    </g>
    <g id="text_22">
     <!-- Ref Speed = 425 -->
     <g transform="translate(352.418125 215.327813) scale(0.1 -0.1)">
      <defs>
       <path id="DejaVuSans-34" d="M 2419 4116 
L 825 1625 
L 2419 1625 
L 2419 4116 
z
M 2253 4666 
L 3047 4666 
L 3047 1625 
L 3713 1625 
L 3713 1100 
L 3047 1100 
L 3047 0 
L 2419 0 
L 2419 1100 
L 313 1100 
L 313 1709 
L 2253 4666 
z
" transform="scale(0.015625)"/>
      </defs>
      <use xlink:href="#DejaVuSans-52"/>
      <use xlink:href="#DejaVuSans-65" transform="translate(64.982422 0)"/>
      <use xlink:href="#DejaVuSans-66" transform="translate(126.505859 0)"/>
      <use xlink:href="#DejaVuSans-20" transform="translate(161.710938 0)"/>
      <use xlink:href="#DejaVuSans-53" transform="translate(193.498047 0)"/>
      <use xlink:href="#DejaVuSans-70" transform="translate(256.974609 0)"/>
      <use xlink:href="#DejaVuSans-65" transform="translate(320.451172 0)"/>
      <use xlink:href="#DejaVuSans-65" transform="translate(381.974609 0)"/>
      <use xlink:href="#DejaVuSans-64" transform="translate(443.498047 0)"/>
      <use xlink:href="#DejaVuSans-20" transform="translate(506.974609 0)"/>
      <use xlink:href="#DejaVuSans-3d" transform="translate(538.761719 0)"/>
      <use xlink:href="#DejaVuSans-20" transform="translate(622.550781 0)"/>
      <use xlink:href="#DejaVuSans-34" transform="translate(654.337891 0)"/>
      <use xlink:href="#DejaVuSans-32" transform="translate(717.960938 0)"/>
      <use xlink:href="#DejaVuSans-35" transform="translate(781.583984 0)"/>
     </g>
    </g>
    <g id="line2d_28">
     <path d="M 324.418125 226.505938 
L 334.418125 226.505938 
L 344.418125 226.505938 
" style="fill: none; stroke: #d62728; stroke-width: 1.5; stroke-linecap: square"/>
    </g>
    <g id="text_23">
     <!-- Ref Speed = 340 -->
     <g transform="translate(352.418125 230.005938) scale(0.1 -0.1)">
      <use xlink:href="#DejaVuSans-52"/>
      <use xlink:href="#DejaVuSans-65" transform="translate(64.982422 0)"/>
      <use xlink:href="#DejaVuSans-66" transform="translate(126.505859 0)"/>
      <use xlink:href="#DejaVuSans-20" transform="translate(161.710938 0)"/>
      <use xlink:href="#DejaVuSans-53" transform="translate(193.498047 0)"/>
      <use xlink:href="#DejaVuSans-70" transform="translate(256.974609 0)"/>
      <use xlink:href="#DejaVuSans-65" transform="translate(320.451172 0)"/>
      <use xlink:href="#DejaVuSans-65" transform="translate(381.974609 0)"/>
      <use xlink:href="#DejaVuSans-64" transform="translate(443.498047 0)"/>
      <use xlink:href="#DejaVuSans-20" transform="translate(506.974609 0)"/>
      <use xlink:href="#DejaVuSans-3d" transform="translate(538.761719 0)"/>
      <use xlink:href="#DejaVuSans-20" transform="translate(622.550781 0)"/>
      <use xlink:href="#DejaVuSans-33" transform="translate(654.337891 0)"/>
      <use xlink:href="#DejaVuSans-34" transform="translate(717.960938 0)"/>
      <use xlink:href="#DejaVuSans-30" transform="translate(781.583984 0)"/>
     </g>
    </g>
    <g id="line2d_29">
     <path d="M 324.418125 241.184063 
L 334.418125 241.184063 
L 344.418125 241.184063 
" style="fill: none; stroke: #9467bd; stroke-width: 1.5; stroke-linecap: square"/>
    </g>
    <g id="text_24">
     <!-- Ref Speed = 255 -->
     <g transform="translate(352.418125 244.684063) scale(0.1 -0.1)">
      <use xlink:href="#DejaVuSans-52"/>
      <use xlink:href="#DejaVuSans-65" transform="translate(64.982422 0)"/>
      <use xlink:href="#DejaVuSans-66" transform="translate(126.505859 0)"/>
      <use xlink:href="#DejaVuSans-20" transform="translate(161.710938 0)"/>
      <use xlink:href="#DejaVuSans-53" transform="translate(193.498047 0)"/>
      <use xlink:href="#DejaVuSans-70" transform="translate(256.974609 0)"/>
      <use xlink:href="#DejaVuSans-65" transform="translate(320.451172 0)"/>
      <use xlink:href="#DejaVuSans-65" transform="translate(381.974609 0)"/>
      <use xlink:href="#DejaVuSans-64" transform="translate(443.498047 0)"/>
      <use xlink:href="#DejaVuSans-20" transform="translate(506.974609 0)"/>
      <use xlink:href="#DejaVuSans-3d" transform="translate(538.761719 0)"/>
      <use xlink:href="#DejaVuSans-20" transform="translate(622.550781 0)"/>
      <use xlink:href="#DejaVuSans-32" transform="translate(654.337891 0)"/>
      <use xlink:href="#DejaVuSans-35" transform="translate(717.960938 0)"/>
      <use xlink:href="#DejaVuSans-35" transform="translate(781.583984 0)"/>
     </g>
    </g>
    <g id="line2d_30">
     <path d="M 324.418125 255.862188 
L 334.418125 255.862188 
L 344.418125 255.862188 
" style="fill: none; stroke: #8c564b; stroke-width: 1.5; stroke-linecap: square"/>
    </g>
    <g id="text_25">
     <!-- Ref Speed = 170 -->
     <g transform="translate(352.418125 259.362188) scale(0.1 -0.1)">
      <defs>
       <path id="DejaVuSans-37" d="M 525 4666 
L 3525 4666 
L 3525 4397 
L 1831 0 
L 1172 0 
L 2766 4134 
L 525 4134 
L 525 4666 
z
" transform="scale(0.015625)"/>
      </defs>
      <use xlink:href="#DejaVuSans-52"/>
      <use xlink:href="#DejaVuSans-65" transform="translate(64.982422 0)"/>
      <use xlink:href="#DejaVuSans-66" transform="translate(126.505859 0)"/>
      <use xlink:href="#DejaVuSans-20" transform="translate(161.710938 0)"/>
      <use xlink:href="#DejaVuSans-53" transform="translate(193.498047 0)"/>
      <use xlink:href="#DejaVuSans-70" transform="translate(256.974609 0)"/>
      <use xlink:href="#DejaVuSans-65" transform="translate(320.451172 0)"/>
      <use xlink:href="#DejaVuSans-65" transform="translate(381.974609 0)"/>
      <use xlink:href="#DejaVuSans-64" transform="translate(443.498047 0)"/>
      <use xlink:href="#DejaVuSans-20" transform="translate(506.974609 0)"/>
      <use xlink:href="#DejaVuSans-3d" transform="translate(538.761719 0)"/>
      <use xlink:href="#DejaVuSans-20" transform="translate(622.550781 0)"/>
      <use xlink:href="#DejaVuSans-31" transform="translate(654.337891 0)"/>
      <use xlink:href="#DejaVuSans-37" transform="translate(717.960938 0)"/>
      <use xlink:href="#DejaVuSans-30" transform="translate(781.583984 0)"/>
     </g>
    </g>
    <g id="line2d_31">
     <path d="M 324.418125 270.540313 
L 334.418125 270.540313 
L 344.418125 270.540313 
" style="fill: none; stroke: #e377c2; stroke-width: 1.5; stroke-linecap: square"/>
    </g>
    <g id="text_26">
     <!-- Ref Speed = 85 -->
     <g transform="translate(352.418125 274.040313) scale(0.1 -0.1)">
      <defs>
       <path id="DejaVuSans-38" d="M 2034 2216 
Q 1584 2216 1326 1975 
Q 1069 1734 1069 1313 
Q 1069 891 1326 650 
Q 1584 409 2034 409 
Q 2484 409 2743 651 
Q 3003 894 3003 1313 
Q 3003 1734 2745 1975 
Q 2488 2216 2034 2216 
z
M 1403 2484 
Q 997 2584 770 2862 
Q 544 3141 544 3541 
Q 544 4100 942 4425 
Q 1341 4750 2034 4750 
Q 2731 4750 3128 4425 
Q 3525 4100 3525 3541 
Q 3525 3141 3298 2862 
Q 3072 2584 2669 2484 
Q 3125 2378 3379 2068 
Q 3634 1759 3634 1313 
Q 3634 634 3220 271 
Q 2806 -91 2034 -91 
Q 1263 -91 848 271 
Q 434 634 434 1313 
Q 434 1759 690 2068 
Q 947 2378 1403 2484 
z
M 1172 3481 
Q 1172 3119 1398 2916 
Q 1625 2713 2034 2713 
Q 2441 2713 2670 2916 
Q 2900 3119 2900 3481 
Q 2900 3844 2670 4047 
Q 2441 4250 2034 4250 
Q 1625 4250 1398 4047 
Q 1172 3844 1172 3481 
z
" transform="scale(0.015625)"/>
      </defs>
      <use xlink:href="#DejaVuSans-52"/>
      <use xlink:href="#DejaVuSans-65" transform="translate(64.982422 0)"/>
      <use xlink:href="#DejaVuSans-66" transform="translate(126.505859 0)"/>
      <use xlink:href="#DejaVuSans-20" transform="translate(161.710938 0)"/>
      <use xlink:href="#DejaVuSans-53" transform="translate(193.498047 0)"/>
      <use xlink:href="#DejaVuSans-70" transform="translate(256.974609 0)"/>
      <use xlink:href="#DejaVuSans-65" transform="translate(320.451172 0)"/>
      <use xlink:href="#DejaVuSans-65" transform="translate(381.974609 0)"/>
      <use xlink:href="#DejaVuSans-64" transform="translate(443.498047 0)"/>
      <use xlink:href="#DejaVuSans-20" transform="translate(506.974609 0)"/>
      <use xlink:href="#DejaVuSans-3d" transform="translate(538.761719 0)"/>
      <use xlink:href="#DejaVuSans-20" transform="translate(622.550781 0)"/>
      <use xlink:href="#DejaVuSans-38" transform="translate(654.337891 0)"/>
      <use xlink:href="#DejaVuSans-35" transform="translate(717.960938 0)"/>
     </g>
    </g>
    <g id="line2d_32">
     <path d="M 324.418125 285.218438 
L 334.418125 285.218438 
L 344.418125 285.218438 
" style="fill: none; stroke: #7f7f7f; stroke-width: 1.5; stroke-linecap: square"/>
    </g>
    <g id="text_27">
     <!-- y = x -->
     <g transform="translate(352.418125 288.718438) scale(0.1 -0.1)">
      <defs>
       <path id="DejaVuSans-79" d="M 2059 -325 
Q 1816 -950 1584 -1140 
Q 1353 -1331 966 -1331 
L 506 -1331 
L 506 -850 
L 844 -850 
Q 1081 -850 1212 -737 
Q 1344 -625 1503 -206 
L 1606 56 
L 191 3500 
L 800 3500 
L 1894 763 
L 2988 3500 
L 3597 3500 
L 2059 -325 
z
" transform="scale(0.015625)"/>
       <path id="DejaVuSans-78" d="M 3513 3500 
L 2247 1797 
L 3578 0 
L 2900 0 
L 1881 1375 
L 863 0 
L 184 0 
L 1544 1831 
L 300 3500 
L 978 3500 
L 1906 2253 
L 2834 3500 
L 3513 3500 
z
" transform="scale(0.015625)"/>
      </defs>
      <use xlink:href="#DejaVuSans-79"/>
      <use xlink:href="#DejaVuSans-20" transform="translate(59.179688 0)"/>
      <use xlink:href="#DejaVuSans-3d" transform="translate(90.966797 0)"/>
      <use xlink:href="#DejaVuSans-20" transform="translate(174.755859 0)"/>
      <use xlink:href="#DejaVuSans-78" transform="translate(206.542969 0)"/>
     </g>
    </g>
   </g>
  </g>
 </g>
 <defs>
  <clipPath id="p1e042a93fd">
   <rect x="40.603125" y="22.318125" width="405.34" height="277.48"/>
  </clipPath>
 </defs>
</svg>
