<?xml version="1.0" encoding="utf-8" standalone="no"?>
<!DOCTYPE svg PUBLIC "-//W3C//DTD SVG 1.1//EN"
  "http://www.w3.org/Graphics/SVG/1.1/DTD/svg11.dtd">
<svg xmlns:xlink="http://www.w3.org/1999/xlink" width="453.143125pt" height="337.354375pt" viewBox="0 0 453.143125 337.354375" xmlns="http://www.w3.org/2000/svg" version="1.1">
 <metadata>
  <rdf:RDF xmlns:dc="http://purl.org/dc/elements/1.1/" xmlns:cc="http://creativecommons.org/ns#" xmlns:rdf="http://www.w3.org/1999/02/22-rdf-syntax-ns#">
   <cc:Work>
    <dc:type rdf:resource="http://purl.org/dc/dcmitype/StillImage"/>
    <dc:date>2025-10-29T21:37:17.061370</dc:date>
    <dc:format>image/svg+xml</dc:format>
    <dc:creator>
     <cc:Agent>
      <dc:title>Matplotlib v3.10.6, https://matplotlib.org/</dc:title>
     </cc:Agent>
    </dc:creator>
   </cc:Work>
  </rdf:RDF>
 </metadata>
 <defs>
  <style type="text/css">*{stroke-linejoin: round; stroke-linecap: butt}</style>
 </defs>
 <g id="figure_1">
  <g id="patch_1">
   <path d="M 0 337.354375 
L 453.143125 337.354375 
L 453.143125 0 
L 0 0 
z
" style="fill: #ffffff"/>
  </g>
  <g id="axes_1">
   <g id="patch_2">
    <path d="M 40.603125 299.798125 
L 445.943125 299.798125 
L 445.943125 22.318125 
L 40.603125 22.318125 
z
" style="fill: #ffffff"/>
   </g>
   <g id="matplotlib.axis_1">
    <g id="xtick_1">
     <g id="line2d_1">
      <defs>
       <path id="mb5f1cb26f7" d="M 0 0 
L 0 3.5 
" style="stroke: #000000; stroke-width: 0.8"/>
      </defs>
      <g>
       <use xlink:href="#mb5f1cb26f7" x="58.821356" y="299.798125" style="stroke: #000000; stroke-width: 0.8"/>
      </g>
     </g>
     <g id="text_1">
      <!-- 0.00 -->
      <g transform="translate(47.688543 314.396563) scale(0.1 -0.1)">
       <defs>
        <path id="DejaVuSans-30" d="M 2034 4250 
Q 1547 4250 1301 3770 
Q 1056 3291 1056 2328 
Q 1056 1369 1301 889 
Q 1547 409 2034 409 
Q 2525 409 2770 889 
Q 3016 1369 3016 2328 
Q 3016 3291 2770 3770 
Q 2525 4250 2034 4250 
z
M 2034 4750 
Q 2819 4750 3233 4129 
Q 3647 3509 3647 2328 
Q 3647 1150 3233 529 
Q 2819 -91 2034 -91 
Q 1250 -91 836 529 
Q 422 1150 422 2328 
Q 422 3509 836 4129 
Q 1250 4750 2034 4750 
z
" transform="scale(0.015625)"/>
        <path id="DejaVuSans-2e" d="M 684 794 
L 1344 794 
L 1344 0 
L 684 0 
L 684 794 
z
" transform="scale(0.015625)"/>
       </defs>
       <use xlink:href="#DejaVuSans-30"/>
       <use xlink:href="#DejaVuSans-2e" transform="translate(63.623047 0)"/>
       <use xlink:href="#DejaVuSans-30" transform="translate(95.410156 0)"/>
       <use xlink:href="#DejaVuSans-30" transform="translate(159.033203 0)"/>
      </g>
     </g>
    </g>
    <g id="xtick_2">
     <g id="line2d_2">
      <g>
       <use xlink:href="#mb5f1cb26f7" x="104.914893" y="299.798125" style="stroke: #000000; stroke-width: 0.8"/>
      </g>
     </g>
     <g id="text_2">
      <!-- 0.25 -->
      <g transform="translate(93.78208 314.396563) scale(0.1 -0.1)">
       <defs>
        <path id="DejaVuSans-32" d="M 1228 531 
L 3431 531 
L 3431 0 
L 469 0 
L 469 531 
Q 828 903 1448 1529 
Q 2069 2156 2228 2338 
Q 2531 2678 2651 2914 
Q 2772 3150 2772 3378 
Q 2772 3750 2511 3984 
Q 2250 4219 1831 4219 
Q 1534 4219 1204 4116 
Q 875 4013 500 3803 
L 500 4441 
Q 881 4594 1212 4672 
Q 1544 4750 1819 4750 
Q 2544 4750 2975 4387 
Q 3406 4025 3406 3419 
Q 3406 3131 3298 2873 
Q 3191 2616 2906 2266 
Q 2828 2175 2409 1742 
Q 1991 1309 1228 531 
z
" transform="scale(0.015625)"/>
        <path id="DejaVuSans-35" d="M 691 4666 
L 3169 4666 
L 3169 4134 
L 1269 4134 
L 1269 2991 
Q 1406 3038 1543 3061 
Q 1681 3084 1819 3084 
Q 2600 3084 3056 2656 
Q 3513 2228 3513 1497 
Q 3513 744 3044 326 
Q 2575 -91 1722 -91 
Q 1428 -91 1123 -41 
Q 819 9 494 109 
L 494 744 
Q 775 591 1075 516 
Q 1375 441 1709 441 
Q 2250 441 2565 725 
Q 2881 1009 2881 1497 
Q 2881 1984 2565 2268 
Q 2250 2553 1709 2553 
Q 1456 2553 1204 2497 
Q 953 2441 691 2322 
L 691 4666 
z
" transform="scale(0.015625)"/>
       </defs>
       <use xlink:href="#DejaVuSans-30"/>
       <use xlink:href="#DejaVuSans-2e" transform="translate(63.623047 0)"/>
       <use xlink:href="#DejaVuSans-32" transform="translate(95.410156 0)"/>
       <use xlink:href="#DejaVuSans-35" transform="translate(159.033203 0)"/>
      </g>
     </g>
    </g>
    <g id="xtick_3">
     <g id="line2d_3">
      <g>
       <use xlink:href="#mb5f1cb26f7" x="151.00843" y="299.798125" style="stroke: #000000; stroke-width: 0.8"/>
      </g>
     </g>
     <g id="text_3">
      <!-- 0.50 -->
      <g transform="translate(139.875617 314.396563) scale(0.1 -0.1)">
       <use xlink:href="#DejaVuSans-30"/>
       <use xlink:href="#DejaVuSans-2e" transform="translate(63.623047 0)"/>
       <use xlink:href="#DejaVuSans-35" transform="translate(95.410156 0)"/>
       <use xlink:href="#DejaVuSans-30" transform="translate(159.033203 0)"/>
      </g>
     </g>
    </g>
    <g id="xtick_4">
     <g id="line2d_4">
      <g>
       <use xlink:href="#mb5f1cb26f7" x="197.101967" y="299.798125" style="stroke: #000000; stroke-width: 0.8"/>
      </g>
     </g>
     <g id="text_4">
      <!-- 0.75 -->
      <g transform="translate(185.969154 314.396563) scale(0.1 -0.1)">
       <defs>
        <path id="DejaVuSans-37" d="M 525 4666 
L 3525 4666 
L 3525 4397 
L 1831 0 
L 1172 0 
L 2766 4134 
L 525 4134 
L 525 4666 
z
" transform="scale(0.015625)"/>
       </defs>
       <use xlink:href="#DejaVuSans-30"/>
       <use xlink:href="#DejaVuSans-2e" transform="translate(63.623047 0)"/>
       <use xlink:href="#DejaVuSans-37" transform="translate(95.410156 0)"/>
       <use xlink:href="#DejaVuSans-35" transform="translate(159.033203 0)"/>
      </g>
     </g>
    </g>
    <g id="xtick_5">
     <g id="line2d_5">
      <g>
       <use xlink:href="#mb5f1cb26f7" x="243.195503" y="299.798125" style="stroke: #000000; stroke-width: 0.8"/>
      </g>
     </g>
     <g id="text_5">
      <!-- 1.00 -->
      <g transform="translate(232.062691 314.396563) scale(0.1 -0.1)">
       <defs>
        <path id="DejaVuSans-31" d="M 794 531 
L 1825 531 
L 1825 4091 
L 703 3866 
L 703 4441 
L 1819 4666 
L 2450 4666 
L 2450 531 
L 3481 531 
L 3481 0 
L 794 0 
L 794 531 
z
" transform="scale(0.015625)"/>
       </defs>
       <use xlink:href="#DejaVuSans-31"/>
       <use xlink:href="#DejaVuSans-2e" transform="translate(63.623047 0)"/>
       <use xlink:href="#DejaVuSans-30" transform="translate(95.410156 0)"/>
       <use xlink:href="#DejaVuSans-30" transform="translate(159.033203 0)"/>
      </g>
     </g>
    </g>
    <g id="xtick_6">
     <g id="line2d_6">
      <g>
       <use xlink:href="#mb5f1cb26f7" x="289.28904" y="299.798125" style="stroke: #000000; stroke-width: 0.8"/>
      </g>
     </g>
     <g id="text_6">
      <!-- 1.25 -->
      <g transform="translate(278.156228 314.396563) scale(0.1 -0.1)">
       <use xlink:href="#DejaVuSans-31"/>
       <use xlink:href="#DejaVuSans-2e" transform="translate(63.623047 0)"/>
       <use xlink:href="#DejaVuSans-32" transform="translate(95.410156 0)"/>
       <use xlink:href="#DejaVuSans-35" transform="translate(159.033203 0)"/>
      </g>
     </g>
    </g>
    <g id="xtick_7">
     <g id="line2d_7">
      <g>
       <use xlink:href="#mb5f1cb26f7" x="335.382577" y="299.798125" style="stroke: #000000; stroke-width: 0.8"/>
      </g>
     </g>
     <g id="text_7">
      <!-- 1.50 -->
      <g transform="translate(324.249765 314.396563) scale(0.1 -0.1)">
       <use xlink:href="#DejaVuSans-31"/>
       <use xlink:href="#DejaVuSans-2e" transform="translate(63.623047 0)"/>
       <use xlink:href="#DejaVuSans-35" transform="translate(95.410156 0)"/>
       <use xlink:href="#DejaVuSans-30" transform="translate(159.033203 0)"/>
      </g>
     </g>
    </g>
    <g id="xtick_8">
     <g id="line2d_8">
      <g>
       <use xlink:href="#mb5f1cb26f7" x="381.476114" y="299.798125" style="stroke: #000000; stroke-width: 0.8"/>
      </g>
     </g>
     <g id="text_8">
      <!-- 1.75 -->
      <g transform="translate(370.343302 314.396563) scale(0.1 -0.1)">
       <use xlink:href="#DejaVuSans-31"/>
       <use xlink:href="#DejaVuSans-2e" transform="translate(63.623047 0)"/>
       <use xlink:href="#DejaVuSans-37" transform="translate(95.410156 0)"/>
       <use xlink:href="#DejaVuSans-35" transform="translate(159.033203 0)"/>
      </g>
     </g>
    </g>
    <g id="xtick_9">
     <g id="line2d_9">
      <g>
       <use xlink:href="#mb5f1cb26f7" x="427.569651" y="299.798125" style="stroke: #000000; stroke-width: 0.8"/>
      </g>
     </g>
     <g id="text_9">
      <!-- 2.00 -->
      <g transform="translate(416.436839 314.396563) scale(0.1 -0.1)">
       <use xlink:href="#DejaVuSans-32"/>
       <use xlink:href="#DejaVuSans-2e" transform="translate(63.623047 0)"/>
       <use xlink:href="#DejaVuSans-30" transform="translate(95.410156 0)"/>
       <use xlink:href="#DejaVuSans-30" transform="translate(159.033203 0)"/>
      </g>
     </g>
    </g>
    <g id="text_10">
     <!-- time, t (us) -->
     <g transform="translate(215.574687 328.074688) scale(0.1 -0.1)">
      <defs>
       <path id="DejaVuSans-74" d="M 1172 4494 
L 1172 3500 
L 2356 3500 
L 2356 3053 
L 1172 3053 
L 1172 1153 
Q 1172 725 1289 603 
Q 1406 481 1766 481 
L 2356 481 
L 2356 0 
L 1766 0 
Q 1100 0 847 248 
Q 594 497 594 1153 
L 594 3053 
L 172 3053 
L 172 3500 
L 594 3500 
L 594 4494 
L 1172 4494 
z
" transform="scale(0.015625)"/>
       <path id="DejaVuSans-69" d="M 603 3500 
L 1178 3500 
L 1178 0 
L 603 0 
L 603 3500 
z
M 603 4863 
L 1178 4863 
L 1178 4134 
L 603 4134 
L 603 4863 
z
" transform="scale(0.015625)"/>
       <path id="DejaVuSans-6d" d="M 3328 2828 
Q 3544 3216 3844 3400 
Q 4144 3584 4550 3584 
Q 5097 3584 5394 3201 
Q 5691 2819 5691 2113 
L 5691 0 
L 5113 0 
L 5113 2094 
Q 5113 2597 4934 2840 
Q 4756 3084 4391 3084 
Q 3944 3084 3684 2787 
Q 3425 2491 3425 1978 
L 3425 0 
L 2847 0 
L 2847 2094 
Q 2847 2600 2669 2842 
Q 2491 3084 2119 3084 
Q 1678 3084 1418 2786 
Q 1159 2488 1159 1978 
L 1159 0 
L 581 0 
L 581 3500 
L 1159 3500 
L 1159 2956 
Q 1356 3278 1631 3431 
Q 1906 3584 2284 3584 
Q 2666 3584 2933 3390 
Q 3200 3197 3328 2828 
z
" transform="scale(0.015625)"/>
       <path id="DejaVuSans-65" d="M 3597 1894 
L 3597 1613 
L 953 1613 
Q 991 1019 1311 708 
Q 1631 397 2203 397 
Q 2534 397 2845 478 
Q 3156 559 3463 722 
L 3463 178 
Q 3153 47 2828 -22 
Q 2503 -91 2169 -91 
Q 1331 -91 842 396 
Q 353 884 353 1716 
Q 353 2575 817 3079 
Q 1281 3584 2069 3584 
Q 2775 3584 3186 3129 
Q 3597 2675 3597 1894 
z
M 3022 2063 
Q 3016 2534 2758 2815 
Q 2500 3097 2075 3097 
Q 1594 3097 1305 2825 
Q 1016 2553 972 2059 
L 3022 2063 
z
" transform="scale(0.015625)"/>
       <path id="DejaVuSans-2c" d="M 750 794 
L 1409 794 
L 1409 256 
L 897 -744 
L 494 -744 
L 750 256 
L 750 794 
z
" transform="scale(0.015625)"/>
       <path id="DejaVuSans-20" transform="scale(0.015625)"/>
       <path id="DejaVuSans-28" d="M 1984 4856 
Q 1566 4138 1362 3434 
Q 1159 2731 1159 2009 
Q 1159 1288 1364 580 
Q 1569 -128 1984 -844 
L 1484 -844 
Q 1016 -109 783 600 
Q 550 1309 550 2009 
Q 550 2706 781 3412 
Q 1013 4119 1484 4856 
L 1984 4856 
z
" transform="scale(0.015625)"/>
       <path id="DejaVuSans-75" d="M 544 1381 
L 544 3500 
L 1119 3500 
L 1119 1403 
Q 1119 906 1312 657 
Q 1506 409 1894 409 
Q 2359 409 2629 706 
Q 2900 1003 2900 1516 
L 2900 3500 
L 3475 3500 
L 3475 0 
L 2900 0 
L 2900 538 
Q 2691 219 2414 64 
Q 2138 -91 1772 -91 
Q 1169 -91 856 284 
Q 544 659 544 1381 
z
M 1991 3584 
L 1991 3584 
z
" transform="scale(0.015625)"/>
       <path id="DejaVuSans-73" d="M 2834 3397 
L 2834 2853 
Q 2591 2978 2328 3040 
Q 2066 3103 1784 3103 
Q 1356 3103 1142 2972 
Q 928 2841 928 2578 
Q 928 2378 1081 2264 
Q 1234 2150 1697 2047 
L 1894 2003 
Q 2506 1872 2764 1633 
Q 3022 1394 3022 966 
Q 3022 478 2636 193 
Q 2250 -91 1575 -91 
Q 1294 -91 989 -36 
Q 684 19 347 128 
L 347 722 
Q 666 556 975 473 
Q 1284 391 1588 391 
Q 1994 391 2212 530 
Q 2431 669 2431 922 
Q 2431 1156 2273 1281 
Q 2116 1406 1581 1522 
L 1381 1569 
Q 847 1681 609 1914 
Q 372 2147 372 2553 
Q 372 3047 722 3315 
Q 1072 3584 1716 3584 
Q 2034 3584 2315 3537 
Q 2597 3491 2834 3397 
z
" transform="scale(0.015625)"/>
       <path id="DejaVuSans-29" d="M 513 4856 
L 1013 4856 
Q 1481 4119 1714 3412 
Q 1947 2706 1947 2009 
Q 1947 1309 1714 600 
Q 1481 -109 1013 -844 
L 513 -844 
Q 928 -128 1133 580 
Q 1338 1288 1338 2009 
Q 1338 2731 1133 3434 
Q 928 4138 513 4856 
z
" transform="scale(0.015625)"/>
      </defs>
      <use xlink:href="#DejaVuSans-74"/>
      <use xlink:href="#DejaVuSans-69" transform="translate(39.208984 0)"/>
      <use xlink:href="#DejaVuSans-6d" transform="translate(66.992188 0)"/>
      <use xlink:href="#DejaVuSans-65" transform="translate(164.404297 0)"/>
      <use xlink:href="#DejaVuSans-2c" transform="translate(225.927734 0)"/>
      <use xlink:href="#DejaVuSans-20" transform="translate(257.714844 0)"/>
      <use xlink:href="#DejaVuSans-74" transform="translate(289.501953 0)"/>
      <use xlink:href="#DejaVuSans-20" transform="translate(328.710938 0)"/>
      <use xlink:href="#DejaVuSans-28" transform="translate(360.498047 0)"/>
      <use xlink:href="#DejaVuSans-75" transform="translate(399.511719 0)"/>
      <use xlink:href="#DejaVuSans-73" transform="translate(462.890625 0)"/>
      <use xlink:href="#DejaVuSans-29" transform="translate(514.990234 0)"/>
     </g>
    </g>
    <g id="text_11">
     <!-- 1e6 -->
     <g transform="translate(427.065 327.074688) scale(0.1 -0.1)">
      <defs>
       <path id="DejaVuSans-36" d="M 2113 2584 
Q 1688 2584 1439 2293 
Q 1191 2003 1191 1497 
Q 1191 994 1439 701 
Q 1688 409 2113 409 
Q 2538 409 2786 701 
Q 3034 994 3034 1497 
Q 3034 2003 2786 2293 
Q 2538 2584 2113 2584 
z
M 3366 4563 
L 3366 3988 
Q 3128 4100 2886 4159 
Q 2644 4219 2406 4219 
Q 1781 4219 1451 3797 
Q 1122 3375 1075 2522 
Q 1259 2794 1537 2939 
Q 1816 3084 2150 3084 
Q 2853 3084 3261 2657 
Q 3669 2231 3669 1497 
Q 3669 778 3244 343 
Q 2819 -91 2113 -91 
Q 1303 -91 875 529 
Q 447 1150 447 2328 
Q 447 3434 972 4092 
Q 1497 4750 2381 4750 
Q 2619 4750 2861 4703 
Q 3103 4656 3366 4563 
z
" transform="scale(0.015625)"/>
      </defs>
      <use xlink:href="#DejaVuSans-31"/>
      <use xlink:href="#DejaVuSans-65" transform="translate(63.623047 0)"/>
      <use xlink:href="#DejaVuSans-36" transform="translate(125.146484 0)"/>
     </g>
    </g>
   </g>
   <g id="matplotlib.axis_2">
    <g id="ytick_1">
     <g id="line2d_10">
      <defs>
       <path id="mefada8c1e0" d="M 0 0 
L -3.5 0 
" style="stroke: #000000; stroke-width: 0.8"/>
      </defs>
      <g>
       <use xlink:href="#mefada8c1e0" x="40.603125" y="287.509549" style="stroke: #000000; stroke-width: 0.8"/>
      </g>
     </g>
     <g id="text_12">
      <!-- 0 -->
      <g transform="translate(27.240625 291.308768) scale(0.1 -0.1)">
       <use xlink:href="#DejaVuSans-30"/>
      </g>
     </g>
    </g>
    <g id="ytick_2">
     <g id="line2d_11">
      <g>
       <use xlink:href="#mefada8c1e0" x="40.603125" y="250.439567" style="stroke: #000000; stroke-width: 0.8"/>
      </g>
     </g>
     <g id="text_13">
      <!-- 5 -->
      <g transform="translate(27.240625 254.238786) scale(0.1 -0.1)">
       <use xlink:href="#DejaVuSans-35"/>
      </g>
     </g>
    </g>
    <g id="ytick_3">
     <g id="line2d_12">
      <g>
       <use xlink:href="#mefada8c1e0" x="40.603125" y="213.369585" style="stroke: #000000; stroke-width: 0.8"/>
      </g>
     </g>
     <g id="text_14">
      <!-- 10 -->
      <g transform="translate(20.878125 217.168803) scale(0.1 -0.1)">
       <use xlink:href="#DejaVuSans-31"/>
       <use xlink:href="#DejaVuSans-30" transform="translate(63.623047 0)"/>
      </g>
     </g>
    </g>
    <g id="ytick_4">
     <g id="line2d_13">
      <g>
       <use xlink:href="#mefada8c1e0" x="40.603125" y="176.299602" style="stroke: #000000; stroke-width: 0.8"/>
      </g>
     </g>
     <g id="text_15">
      <!-- 15 -->
      <g transform="translate(20.878125 180.098821) scale(0.1 -0.1)">
       <use xlink:href="#DejaVuSans-31"/>
       <use xlink:href="#DejaVuSans-35" transform="translate(63.623047 0)"/>
      </g>
     </g>
    </g>
    <g id="ytick_5">
     <g id="line2d_14">
      <g>
       <use xlink:href="#mefada8c1e0" x="40.603125" y="139.22962" style="stroke: #000000; stroke-width: 0.8"/>
      </g>
     </g>
     <g id="text_16">
      <!-- 20 -->
      <g transform="translate(20.878125 143.028839) scale(0.1 -0.1)">
       <use xlink:href="#DejaVuSans-32"/>
       <use xlink:href="#DejaVuSans-30" transform="translate(63.623047 0)"/>
      </g>
     </g>
    </g>
    <g id="ytick_6">
     <g id="line2d_15">
      <g>
       <use xlink:href="#mefada8c1e0" x="40.603125" y="102.159638" style="stroke: #000000; stroke-width: 0.8"/>
      </g>
     </g>
     <g id="text_17">
      <!-- 25 -->
      <g transform="translate(20.878125 105.958856) scale(0.1 -0.1)">
       <use xlink:href="#DejaVuSans-32"/>
       <use xlink:href="#DejaVuSans-35" transform="translate(63.623047 0)"/>
      </g>
     </g>
    </g>
    <g id="ytick_7">
     <g id="line2d_16">
      <g>
       <use xlink:href="#mefada8c1e0" x="40.603125" y="65.089655" style="stroke: #000000; stroke-width: 0.8"/>
      </g>
     </g>
     <g id="text_18">
      <!-- 30 -->
      <g transform="translate(20.878125 68.888874) scale(0.1 -0.1)">
       <defs>
        <path id="DejaVuSans-33" d="M 2597 2516 
Q 3050 2419 3304 2112 
Q 3559 1806 3559 1356 
Q 3559 666 3084 287 
Q 2609 -91 1734 -91 
Q 1441 -91 1130 -33 
Q 819 25 488 141 
L 488 750 
Q 750 597 1062 519 
Q 1375 441 1716 441 
Q 2309 441 2620 675 
Q 2931 909 2931 1356 
Q 2931 1769 2642 2001 
Q 2353 2234 1838 2234 
L 1294 2234 
L 1294 2753 
L 1863 2753 
Q 2328 2753 2575 2939 
Q 2822 3125 2822 3475 
Q 2822 3834 2567 4026 
Q 2313 4219 1838 4219 
Q 1578 4219 1281 4162 
Q 984 4106 628 3988 
L 628 4550 
Q 988 4650 1302 4700 
Q 1616 4750 1894 4750 
Q 2613 4750 3031 4423 
Q 3450 4097 3450 3541 
Q 3450 3153 3228 2886 
Q 3006 2619 2597 2516 
z
" transform="scale(0.015625)"/>
       </defs>
       <use xlink:href="#DejaVuSans-33"/>
       <use xlink:href="#DejaVuSans-30" transform="translate(63.623047 0)"/>
      </g>
     </g>
    </g>
    <g id="ytick_8">
     <g id="line2d_17">
      <g>
       <use xlink:href="#mefada8c1e0" x="40.603125" y="28.019673" style="stroke: #000000; stroke-width: 0.8"/>
      </g>
     </g>
     <g id="text_19">
      <!-- 35 -->
      <g transform="translate(20.878125 31.818892) scale(0.1 -0.1)">
       <use xlink:href="#DejaVuSans-33"/>
       <use xlink:href="#DejaVuSans-35" transform="translate(63.623047 0)"/>
      </g>
     </g>
    </g>
    <g id="text_20">
     <!-- right wheel theta, rtheta (rad) -->
     <g transform="translate(14.798438 236.26125) rotate(-90) scale(0.1 -0.1)">
      <defs>
       <path id="DejaVuSans-72" d="M 2631 2963 
Q 2534 3019 2420 3045 
Q 2306 3072 2169 3072 
Q 1681 3072 1420 2755 
Q 1159 2438 1159 1844 
L 1159 0 
L 581 0 
L 581 3500 
L 1159 3500 
L 1159 2956 
Q 1341 3275 1631 3429 
Q 1922 3584 2338 3584 
Q 2397 3584 2469 3576 
Q 2541 3569 2628 3553 
L 2631 2963 
z
" transform="scale(0.015625)"/>
       <path id="DejaVuSans-67" d="M 2906 1791 
Q 2906 2416 2648 2759 
Q 2391 3103 1925 3103 
Q 1463 3103 1205 2759 
Q 947 2416 947 1791 
Q 947 1169 1205 825 
Q 1463 481 1925 481 
Q 2391 481 2648 825 
Q 2906 1169 2906 1791 
z
M 3481 434 
Q 3481 -459 3084 -895 
Q 2688 -1331 1869 -1331 
Q 1566 -1331 1297 -1286 
Q 1028 -1241 775 -1147 
L 775 -588 
Q 1028 -725 1275 -790 
Q 1522 -856 1778 -856 
Q 2344 -856 2625 -561 
Q 2906 -266 2906 331 
L 2906 616 
Q 2728 306 2450 153 
Q 2172 0 1784 0 
Q 1141 0 747 490 
Q 353 981 353 1791 
Q 353 2603 747 3093 
Q 1141 3584 1784 3584 
Q 2172 3584 2450 3431 
Q 2728 3278 2906 2969 
L 2906 3500 
L 3481 3500 
L 3481 434 
z
" transform="scale(0.015625)"/>
       <path id="DejaVuSans-68" d="M 3513 2113 
L 3513 0 
L 2938 0 
L 2938 2094 
Q 2938 2591 2744 2837 
Q 2550 3084 2163 3084 
Q 1697 3084 1428 2787 
Q 1159 2491 1159 1978 
L 1159 0 
L 581 0 
L 581 4863 
L 1159 4863 
L 1159 2956 
Q 1366 3272 1645 3428 
Q 1925 3584 2291 3584 
Q 2894 3584 3203 3211 
Q 3513 2838 3513 2113 
z
" transform="scale(0.015625)"/>
       <path id="DejaVuSans-77" d="M 269 3500 
L 844 3500 
L 1563 769 
L 2278 3500 
L 2956 3500 
L 3675 769 
L 4391 3500 
L 4966 3500 
L 4050 0 
L 3372 0 
L 2619 2869 
L 1863 0 
L 1184 0 
L 269 3500 
z
" transform="scale(0.015625)"/>
       <path id="DejaVuSans-6c" d="M 603 4863 
L 1178 4863 
L 1178 0 
L 603 0 
L 603 4863 
z
" transform="scale(0.015625)"/>
       <path id="DejaVuSans-61" d="M 2194 1759 
Q 1497 1759 1228 1600 
Q 959 1441 959 1056 
Q 959 750 1161 570 
Q 1363 391 1709 391 
Q 2188 391 2477 730 
Q 2766 1069 2766 1631 
L 2766 1759 
L 2194 1759 
z
M 3341 1997 
L 3341 0 
L 2766 0 
L 2766 531 
Q 2569 213 2275 61 
Q 1981 -91 1556 -91 
Q 1019 -91 701 211 
Q 384 513 384 1019 
Q 384 1609 779 1909 
Q 1175 2209 1959 2209 
L 2766 2209 
L 2766 2266 
Q 2766 2663 2505 2880 
Q 2244 3097 1772 3097 
Q 1472 3097 1187 3025 
Q 903 2953 641 2809 
L 641 3341 
Q 956 3463 1253 3523 
Q 1550 3584 1831 3584 
Q 2591 3584 2966 3190 
Q 3341 2797 3341 1997 
z
" transform="scale(0.015625)"/>
       <path id="DejaVuSans-64" d="M 2906 2969 
L 2906 4863 
L 3481 4863 
L 3481 0 
L 2906 0 
L 2906 525 
Q 2725 213 2448 61 
Q 2172 -91 1784 -91 
Q 1150 -91 751 415 
Q 353 922 353 1747 
Q 353 2572 751 3078 
Q 1150 3584 1784 3584 
Q 2172 3584 2448 3432 
Q 2725 3281 2906 2969 
z
M 947 1747 
Q 947 1113 1208 752 
Q 1469 391 1925 391 
Q 2381 391 2643 752 
Q 2906 1113 2906 1747 
Q 2906 2381 2643 2742 
Q 2381 3103 1925 3103 
Q 1469 3103 1208 2742 
Q 947 2381 947 1747 
z
" transform="scale(0.015625)"/>
      </defs>
      <use xlink:href="#DejaVuSans-72"/>
      <use xlink:href="#DejaVuSans-69" transform="translate(41.113281 0)"/>
      <use xlink:href="#DejaVuSans-67" transform="translate(68.896484 0)"/>
      <use xlink:href="#DejaVuSans-68" transform="translate(132.373047 0)"/>
      <use xlink:href="#DejaVuSans-74" transform="translate(195.751953 0)"/>
      <use xlink:href="#DejaVuSans-20" transform="translate(234.960938 0)"/>
      <use xlink:href="#DejaVuSans-77" transform="translate(266.748047 0)"/>
      <use xlink:href="#DejaVuSans-68" transform="translate(348.535156 0)"/>
      <use xlink:href="#DejaVuSans-65" transform="translate(411.914062 0)"/>
      <use xlink:href="#DejaVuSans-65" transform="translate(473.4375 0)"/>
      <use xlink:href="#DejaVuSans-6c" transform="translate(534.960938 0)"/>
      <use xlink:href="#DejaVuSans-20" transform="translate(562.744141 0)"/>
      <use xlink:href="#DejaVuSans-74" transform="translate(594.53125 0)"/>
      <use xlink:href="#DejaVuSans-68" transform="translate(633.740234 0)"/>
      <use xlink:href="#DejaVuSans-65" transform="translate(697.119141 0)"/>
      <use xlink:href="#DejaVuSans-74" transform="translate(758.642578 0)"/>
      <use xlink:href="#DejaVuSans-61" transform="translate(797.851562 0)"/>
      <use xlink:href="#DejaVuSans-2c" transform="translate(859.130859 0)"/>
      <use xlink:href="#DejaVuSans-20" transform="translate(890.917969 0)"/>
      <use xlink:href="#DejaVuSans-72" transform="translate(922.705078 0)"/>
      <use xlink:href="#DejaVuSans-74" transform="translate(963.818359 0)"/>
      <use xlink:href="#DejaVuSans-68" transform="translate(1003.027344 0)"/>
      <use xlink:href="#DejaVuSans-65" transform="translate(1066.40625 0)"/>
      <use xlink:href="#DejaVuSans-74" transform="translate(1127.929688 0)"/>
      <use xlink:href="#DejaVuSans-61" transform="translate(1167.138672 0)"/>
      <use xlink:href="#DejaVuSans-20" transform="translate(1228.417969 0)"/>
      <use xlink:href="#DejaVuSans-28" transform="translate(1260.205078 0)"/>
      <use xlink:href="#DejaVuSans-72" transform="translate(1299.21875 0)"/>
      <use xlink:href="#DejaVuSans-61" transform="translate(1340.332031 0)"/>
      <use xlink:href="#DejaVuSans-64" transform="translate(1401.611328 0)"/>
      <use xlink:href="#DejaVuSans-29" transform="translate(1465.087891 0)"/>
     </g>
    </g>
   </g>
   <g id="line2d_18">
    <path d="M 59.028961 282.550033 
L 62.707963 281.934145 
L 66.353962 280.345803 
L 70.157232 278.109158 
L 73.827936 275.678019 
L 77.459185 273.311716 
L 81.170452 270.945413 
L 84.85222 268.514275 
L 88.583768 266.05073 
L 92.235114 263.716833 
L 95.986575 261.285702 
L 99.662258 258.82215 
L 103.298669 256.326184 
L 107.102861 253.635726 
L 110.788684 251.074932 
L 114.418458 248.546544 
L 118.111657 245.985749 
L 121.764662 243.457369 
L 125.465051 240.896575 
L 129.16839 238.335773 
L 132.816048 235.807392 
L 136.510537 233.246598 
L 140.302192 230.620968 
L 143.896934 228.125002 
L 147.616683 225.564215 
L 152.178099 222.355111 
L 154.86314 220.507447 
L 158.605751 217.881824 
L 162.244559 215.385858 
L 165.996942 212.792627 
L 169.646628 210.264232 
L 173.345173 207.671039 
L 177.005922 205.175117 
L 180.71387 202.614322 
L 184.424953 200.021055 
L 188.110961 197.492734 
L 191.842878 194.899466 
L 195.573136 192.338671 
L 199.24716 189.81035 
L 202.924133 187.281955 
L 206.545426 184.785959 
L 210.351277 182.160366 
L 213.97847 179.69677 
L 217.668903 177.135975 
L 221.362839 174.607654 
L 225.016397 172.111658 
L 228.717155 169.550864 
L 232.377535 167.022468 
L 236.068336 164.494073 
L 239.779051 161.933279 
L 243.449202 159.404958 
L 247.182226 156.844163 
L 250.887777 154.283369 
L 255.394066 151.139093 
L 258.105656 149.258978 
L 261.879058 146.665784 
L 265.46071 144.202262 
L 269.250889 141.609068 
L 272.850426 139.113072 
L 276.579209 136.552278 
L 280.256551 134.023882 
L 283.994184 131.430689 
L 287.694942 128.902294 
L 291.330431 126.373898 
L 295.09277 123.780705 
L 298.731394 121.284783 
L 302.52692 118.659116 
L 306.190987 116.130721 
L 309.900964 113.569926 
L 313.492204 111.106404 
L 317.286808 108.480737 
L 320.885238 106.017214 
L 324.565899 103.488819 
L 328.293207 100.928025 
L 332.02328 98.334831 
L 335.713713 95.806436 
L 339.328737 93.310514 
L 343.025439 90.782119 
L 346.752931 88.221324 
L 350.451661 85.692929 
L 354.159056 83.132135 
L 357.717477 80.60374 
L 361.36366 78.107818 
L 365.059256 75.547023 
L 368.76407 72.986229 
L 372.420209 70.490233 
L 376.130001 67.929438 
L 379.816931 65.401043 
L 383.520639 62.872648 
L 387.259378 60.311854 
L 390.96198 57.751059 
L 394.597838 55.255137 
L 398.317586 52.694343 
L 402.037335 50.165948 
L 405.728321 47.637553 
L 409.379298 45.141631 
L 413.090749 42.613235 
L 416.76127 40.052441 
L 420.479175 37.491647 
L 424.200767 34.930852 
" clip-path="url(#pe561065a5a)" style="fill: none; stroke: #1f77b4; stroke-width: 1.5; stroke-linecap: square"/>
   </g>
   <g id="line2d_19">
    <path d="M 59.02767 283.23075 
L 62.619463 282.614863 
L 66.33534 281.026521 
L 70.003832 279.016779 
L 73.703853 276.974631 
L 77.404795 274.932475 
L 81.079556 272.857906 
L 84.757452 270.750922 
L 88.51684 268.611524 
L 92.20082 266.536955 
L 95.84516 264.462385 
L 99.535224 262.258152 
L 103.229344 259.989098 
L 106.882902 257.752451 
L 110.582738 255.48339 
L 114.365358 253.149501 
L 118.057082 250.88044 
L 121.646293 248.676215 
L 125.439423 246.342325 
L 129.035641 244.138092 
L 132.713905 241.901453 
L 136.382028 239.599978 
L 140.044252 237.363331 
L 143.668495 235.159105 
L 147.343072 232.922458 
L 151.105042 230.620983 
L 154.798425 228.384336 
L 158.483879 226.115275 
L 162.146103 223.878628 
L 165.839302 221.641988 
L 169.512403 219.372927 
L 173.224961 217.13628 
L 176.959275 214.899633 
L 180.694142 212.630557 
L 184.369825 210.393903 
L 187.989459 208.222121 
L 191.776688 205.920668 
L 195.445549 203.684014 
L 199.090626 201.479758 
L 202.766862 199.243104 
L 206.540817 196.97405 
L 210.2224 194.737396 
L 213.924079 192.500741 
L 217.586119 190.264161 
L 221.294252 188.027507 
L 224.962191 185.823251 
L 228.676777 183.586597 
L 232.273179 181.414815 
L 235.952365 179.178161 
L 239.513736 177.006304 
L 243.255425 174.737251 
L 246.953786 172.53307 
L 250.66155 170.296415 
L 254.333177 168.124559 
L 258.04426 165.887905 
L 261.731743 163.683723 
L 265.466979 161.447069 
L 269.084215 159.307686 
L 272.790689 157.071032 
L 276.538093 154.834377 
L 280.156804 152.662521 
L 283.858853 150.45834 
L 287.56422 148.254085 
L 291.351265 145.952632 
L 294.925911 143.813175 
L 298.706503 141.576595 
L 302.424408 139.33994 
L 306.010854 137.200483 
L 309.692437 134.996302 
L 313.419744 132.759648 
L 317.107596 130.555392 
L 320.842279 128.318738 
L 324.458778 126.179355 
L 328.156033 123.9751 
L 331.900118 121.770919 
L 335.604564 119.566663 
L 340.168008 117.427281 
L 342.766946 115.287824 
L 346.537582 113.051243 
L 350.236312 110.879387 
L 353.90167 108.707605 
L 357.617546 106.470951 
L 361.343748 104.234296 
L 365.032153 102.030041 
L 368.64607 99.858259 
L 372.342772 97.654004 
L 376.093311 95.449748 
L 379.732488 93.277966 
L 383.473071 91.073711 
L 387.175304 88.837057 
L 390.838265 86.697674 
L 394.547319 84.525892 
L 398.259693 82.289237 
L 401.933717 80.117381 
L 405.658812 77.945599 
L 409.337998 75.773743 
L 412.941959 73.666834 
L 416.670742 71.430179 
L 420.359885 69.258323 
L 424.095489 67.054142 
" clip-path="url(#pe561065a5a)" style="fill: none; stroke: #ff7f0e; stroke-width: 1.5; stroke-linecap: square"/>
   </g>
   <g id="line2d_20">
    <path d="M 59.029883 284.17079 
L 62.638638 283.619732 
L 66.327043 282.225882 
L 70.099707 280.475464 
L 73.756215 278.75746 
L 77.478913 277.007045 
L 81.158468 275.321458 
L 84.782342 273.635871 
L 88.468166 271.885456 
L 92.157492 270.070206 
L 95.928128 268.157714 
L 99.607314 266.310049 
L 103.263085 264.429971 
L 106.949093 262.549893 
L 110.655013 260.669814 
L 114.321293 258.789736 
L 118.034773 256.909658 
L 121.708243 255.029587 
L 125.427807 253.117095 
L 130.02702 250.750784 
L 132.669471 249.389352 
L 136.332985 247.509274 
L 140.083893 245.596781 
L 143.747038 243.716703 
L 147.422721 241.836625 
L 151.077386 239.956554 
L 154.781462 238.076476 
L 158.567585 236.131569 
L 162.156981 234.316319 
L 165.885948 232.436241 
L 169.575091 230.556163 
L 173.348308 228.64367 
L 176.979003 226.796006 
L 180.655608 224.915928 
L 184.335901 223.035849 
L 188.098239 221.123357 
L 191.784801 219.275693 
L 195.431352 217.460442 
L 199.124551 215.612778 
L 202.805581 213.765114 
L 206.584513 211.852607 
L 210.166166 210.037364 
L 213.951736 208.124849 
L 217.540578 206.309606 
L 221.237833 204.429565 
L 225.032991 202.517051 
L 228.631605 200.701808 
L 233.191178 198.335483 
L 235.964349 196.941651 
L 239.613851 195.094009 
L 243.243994 193.278766 
L 246.955814 191.43105 
L 250.634632 189.583408 
L 254.364152 187.703293 
L 258.099019 185.855651 
L 261.794246 184.008009 
L 265.417566 182.192766 
L 269.131784 180.345049 
L 272.894491 178.497407 
L 276.576996 176.649765 
L 280.238113 174.802049 
L 283.945878 172.922008 
L 287.613448 171.139164 
L 291.327665 169.323921 
L 295.044833 167.476279 
L 298.721991 165.628637 
L 302.430492 163.780921 
L 306.114656 161.933279 
L 309.831455 160.085637 
L 313.44316 158.302793 
L 317.123268 156.455151 
L 320.863482 154.575036 
L 324.563871 152.727394 
L 328.188667 150.912151 
L 331.93939 149.032035 
L 335.553677 147.216792 
L 339.124082 145.433949 
L 342.900064 143.586307 
L 346.604879 141.738665 
L 350.196303 139.923422 
L 353.997729 138.043306 
L 357.605931 136.260463 
L 361.297101 134.412821 
L 365.03584 132.565179 
L 368.765545 130.685063 
L 372.358444 128.902219 
L 376.121336 127.054577 
L 379.779319 125.271734 
L 383.484133 123.456491 
L 387.178254 121.641248 
L 390.846008 119.826005 
L 394.559673 117.978363 
L 398.221343 116.16312 
L 401.94146 114.315478 
L 405.665081 112.467762 
L 409.34906 110.652519 
L 413.08024 108.772478 
L 416.770489 106.924761 
L 420.38625 105.141992 
L 424.12757 103.294276 
" clip-path="url(#pe561065a5a)" style="fill: none; stroke: #2ca02c; stroke-width: 1.5; stroke-linecap: square"/>
   </g>
   <g id="line2d_21">
    <path d="M 59.033386 285.24049 
L 62.643616 284.754262 
L 66.332943 283.587317 
L 70.106713 282.193466 
L 73.780368 280.799615 
L 77.503988 279.438176 
L 81.184649 278.076744 
L 84.809445 276.747726 
L 88.618431 275.321458 
L 92.293192 273.89519 
L 95.944169 272.404095 
L 99.64087 270.880585 
L 103.298116 269.389482 
L 107.002008 267.865973 
L 110.709403 266.374877 
L 114.376421 264.883782 
L 118.090822 263.327851 
L 121.765215 261.836755 
L 125.485885 260.34566 
L 129.961936 258.497995 
L 132.725152 257.363468 
L 136.389957 255.937201 
L 140.142339 254.413691 
L 143.807697 252.95501 
L 147.484118 251.496328 
L 151.140995 250.005233 
L 154.845809 248.514137 
L 158.510798 247.023042 
L 162.227043 245.531946 
L 165.939232 244.04085 
L 169.629481 242.549755 
L 173.30037 241.091081 
L 177.05349 239.567571 
L 180.730833 238.076476 
L 184.412231 236.58538 
L 188.175123 235.061871 
L 191.845828 233.603189 
L 195.492933 232.144507 
L 199.187238 230.685826 
L 202.884862 229.227144 
L 206.541923 227.736049 
L 210.245631 226.244946 
L 213.909145 224.786272 
L 217.619859 223.295169 
L 221.33463 221.804073 
L 225.008653 220.31297 
L 228.729323 218.821875 
L 232.31706 217.330779 
L 235.980206 215.872097 
L 239.648145 214.380995 
L 243.386146 212.889899 
L 247.08377 211.398796 
L 250.763878 209.940092 
L 254.373186 208.513862 
L 258.094963 207.055158 
L 261.791111 205.596454 
L 265.536856 204.072952 
L 269.251996 202.581849 
L 272.893938 201.123219 
L 276.595802 199.632116 
L 280.25692 198.173413 
L 283.965237 196.68231 
L 287.633361 195.223606 
L 291.348131 193.732577 
L 295.066773 192.241474 
L 298.716091 190.750371 
L 302.440633 189.259268 
L 306.093269 187.800564 
L 309.825186 186.309461 
L 313.560422 184.850757 
L 317.255464 183.359655 
L 320.874913 181.933424 
L 324.575855 180.442321 
L 328.323813 178.951218 
L 331.953956 177.524988 
L 335.483614 176.066284 
L 339.176629 174.60758 
L 342.940442 173.116477 
L 346.648575 171.625374 
L 350.242581 170.199144 
L 353.924163 168.74044 
L 357.655896 167.249337 
L 361.332501 165.790707 
L 365.072531 164.332003 
L 368.70083 162.905699 
L 372.41855 161.447069 
L 376.187895 159.955966 
L 379.846247 158.497262 
L 383.538708 157.038558 
L 387.247394 155.515056 
L 390.916255 154.056427 
L 394.630841 152.597723 
L 398.305602 151.139019 
L 401.997879 149.680389 
L 405.706933 148.189286 
L 409.39202 146.698183 
L 413.123568 145.23948 
L 416.815292 143.748377 
L 420.43179 142.289747 
L 424.173295 140.831043 
" clip-path="url(#pe561065a5a)" style="fill: none; stroke: #d62728; stroke-width: 1.5; stroke-linecap: square"/>
   </g>
   <g id="line2d_22">
    <path d="M 59.029883 286.375019 
L 62.590516 285.986037 
L 66.240756 285.078414 
L 69.892101 284.073544 
L 73.593781 283.133505 
L 77.377876 282.193466 
L 80.966535 281.221012 
L 84.703983 280.118897 
L 88.407875 278.984365 
L 92.16118 277.849838 
L 95.789294 276.78014 
L 99.46424 275.678019 
L 103.264744 274.511078 
L 106.90263 273.44138 
L 110.587348 272.306845 
L 114.32203 271.172319 
L 118.013385 270.037792 
L 121.708059 268.903258 
L 125.363092 267.833559 
L 129.064587 266.699032 
L 132.726811 265.596912 
L 136.436234 264.494799 
L 140.116342 263.392686 
L 143.788154 262.290573 
L 147.506611 261.156039 
L 152.11615 260.053926 
L 154.729653 258.984227 
L 158.391508 257.882107 
L 165.801874 255.677882 
L 169.444369 254.543347 
L 173.140702 253.441235 
L 176.843488 252.339122 
L 180.628321 251.204595 
L 184.216242 250.134896 
L 188.015087 249.000362 
L 191.713263 247.898249 
L 195.344881 246.796136 
L 199.095973 245.694023 
L 202.771472 244.559489 
L 206.512607 243.457376 
L 210.194928 242.355264 
L 213.87983 241.285565 
L 217.525091 240.215866 
L 221.217368 239.146167 
L 224.869266 238.076468 
L 228.567996 237.006769 
L 232.253082 235.904657 
L 235.914937 234.770122 
L 239.623807 233.66801 
L 243.292669 232.565897 
L 247.036939 231.463784 
L 250.771806 230.32925 
L 255.400519 229.259551 
L 257.996876 228.157438 
L 261.645824 227.087739 
L 265.346582 226.082861 
L 269.055084 225.013162 
L 272.732058 223.878628 
L 276.444615 222.776515 
L 280.134495 221.674402 
L 283.87139 220.57229 
L 287.477011 219.502591 
L 291.176294 218.432892 
L 294.936974 217.265944 
L 298.573754 216.228666 
L 302.27654 215.126546 
L 305.982644 214.024433 
L 309.649293 212.922298 
L 313.362035 211.852607 
L 317.034584 210.718117 
L 320.753411 209.615952 
L 324.476109 208.481463 
L 328.158798 207.411771 
L 331.888318 206.277207 
L 335.57783 205.207516 
L 339.175707 204.137824 
L 342.915368 203.003261 
L 346.61465 201.90117 
L 350.238893 200.831479 
L 353.944813 199.729314 
L 358.558223 198.335483 
L 361.255433 197.557532 
L 364.905672 196.455441 
L 368.608642 195.353277 
L 372.274554 194.283585 
L 375.998174 193.213894 
L 379.710916 192.111803 
L 383.401349 191.042112 
L 387.138613 189.939947 
L 390.714918 188.870256 
L 394.461585 187.768165 
L 398.101869 186.666075 
L 401.862179 185.56391 
L 405.565703 184.461819 
L 409.229955 183.359729 
L 412.939747 182.290037 
L 416.652858 181.155473 
L 420.297382 180.085782 
L 424.017683 178.983691 
" clip-path="url(#pe561065a5a)" style="fill: none; stroke: #9467bd; stroke-width: 1.5; stroke-linecap: square"/>
   </g>
   <g id="line2d_23">
    <path d="M 59.030436 287.185398 
L 62.656707 286.893661 
L 66.303074 286.310189 
L 70.00291 285.759131 
L 73.730587 285.143244 
L 77.404242 284.494941 
L 81.088406 283.814224 
L 84.751736 283.068675 
L 88.462081 282.323126 
L 92.175377 281.609993 
L 95.848847 280.89686 
L 99.568596 280.151312 
L 103.231925 279.438176 
L 106.931577 278.725046 
L 110.628832 277.979494 
L 114.285524 277.266364 
L 117.989417 276.553234 
L 121.653668 275.840097 
L 125.364567 275.126967 
L 129.078784 274.413836 
L 132.736398 273.700699 
L 136.457253 272.955155 
L 141.011663 272.047526 
L 143.693385 271.528887 
L 147.357637 270.815757 
L 151.094164 270.10262 
L 154.773165 269.357076 
L 158.545092 268.643938 
L 162.227781 267.898394 
L 165.916001 267.185264 
L 169.564766 266.472127 
L 173.276955 265.758997 
L 176.964253 265.07828 
L 180.68013 264.332729 
L 184.315988 263.652013 
L 188.068924 262.938883 
L 191.745898 262.225745 
L 195.48943 261.512615 
L 199.172857 260.831899 
L 202.860156 260.118762 
L 206.491589 259.405632 
L 210.184787 258.692501 
L 213.839267 257.94695 
L 217.540394 257.23382 
L 221.227877 256.520682 
L 225.013816 255.775131 
L 228.586618 255.094415 
L 232.378457 254.348863 
L 235.97449 253.635726 
L 239.694792 252.922596 
L 243.30834 252.209458 
L 246.997667 251.463914 
L 250.650672 250.783191 
L 254.354933 250.070061 
L 258.067675 249.356923 
L 261.746124 248.611372 
L 265.47675 247.898242 
L 269.168105 247.185104 
L 272.785526 246.504388 
L 276.517996 245.758837 
L 280.232214 245.013285 
L 283.873234 244.332569 
L 287.671157 243.587018 
L 291.253178 242.87388 
L 294.945455 242.16075 
L 298.735081 241.447612 
L 302.327611 240.734482 
L 306.122769 239.988931 
L 309.721568 239.308207 
L 313.445741 238.595077 
L 317.129905 237.849526 
L 320.860901 237.136388 
L 324.551702 236.423258 
L 328.151608 235.710121 
L 331.892928 234.996991 
L 335.593501 234.251439 
L 339.219035 233.538302 
L 342.926983 232.825172 
L 346.558601 232.112034 
L 350.25014 231.398904 
L 353.904067 230.685767 
L 357.609618 229.972629 
L 361.267786 229.259499 
L 364.992328 228.546362 
L 368.723692 227.833231 
L 372.415416 227.120101 
L 376.017164 226.406964 
L 379.723085 225.693826 
L 383.482658 224.948282 
L 387.111326 224.235152 
L 390.909986 223.489601 
L 394.615169 222.776471 
L 398.27979 222.063333 
L 401.991794 221.317789 
L 405.584878 220.637073 
L 409.258901 219.923936 
L 412.967403 219.210805 
L 416.648802 218.497668 
L 420.3774 217.784538 
L 424.108764 217.0714 
" clip-path="url(#pe561065a5a)" style="fill: none; stroke: #8c564b; stroke-width: 1.5; stroke-linecap: square"/>
   </g>
   <g id="line2d_24">
    <path d="M 59.030067 281.253428 
L 62.589041 281.123767 
L 66.232643 280.896861 
L 69.959029 280.669956 
L 73.592306 280.475464 
L 77.308736 280.216143 
L 80.981838 279.924408 
L 84.642033 279.600253 
L 88.384275 279.30852 
L 92.034699 278.951951 
L 95.783394 278.660218 
L 99.45668 278.336063 
L 103.116876 278.011916 
L 106.875343 277.655347 
L 110.558217 277.363614 
L 115.13973 277.039459 
L 117.834542 276.715304 
L 121.461551 276.391157 
L 125.174108 276.067002 
L 128.816604 275.742855 
L 132.548152 275.4187 
L 136.209823 275.094553 
L 139.877394 274.770398 
L 143.632911 274.446243 
L 147.292184 274.122096 
L 151.022626 273.797941 
L 154.718775 273.473794 
L 158.436311 273.149639 
L 162.152187 272.825492 
L 165.792471 272.501337 
L 169.514432 272.177189 
L 173.16043 271.853035 
L 176.810117 271.561301 
L 180.510137 271.237154 
L 184.288332 270.880585 
L 187.904647 270.588852 
L 191.567608 270.264697 
L 195.355575 269.94055 
L 198.981845 269.616395 
L 202.655132 269.292248 
L 206.394424 268.968093 
L 210.073978 268.643946 
L 213.757036 268.319791 
L 218.281025 267.930816 
L 221.035575 267.671489 
L 224.742048 267.347341 
L 228.378091 266.990773 
L 232.143748 266.634204 
L 235.755822 266.310057 
L 239.540102 265.953488 
L 243.164713 265.629341 
L 246.851827 265.272772 
L 250.557194 264.948617 
L 254.223106 264.62447 
L 257.933082 264.267901 
L 261.656887 263.911332 
L 265.326301 263.587185 
L 268.998112 263.263038 
L 272.734454 262.874055 
L 276.412719 262.5499 
L 280.173214 262.225753 
L 283.858116 261.869184 
L 287.546152 261.512615 
L 291.194547 261.188468 
L 294.875024 260.864313 
L 298.513279 260.507744 
L 302.215696 260.183597 
L 305.920695 259.827028 
L 309.677318 259.502881 
L 313.371623 259.113898 
L 317.043434 258.789743 
L 321.637669 258.335933 
L 324.314597 258.109027 
L 327.948796 257.752459 
L 331.61692 257.428311 
L 335.371699 257.039329 
L 339.058076 256.715174 
L 342.751828 256.358605 
L 346.377177 256.002044 
L 350.079963 255.677889 
L 353.868298 255.32132 
L 357.468941 254.997165 
L 361.19588 254.640604 
L 364.939044 254.284035 
L 368.608274 253.927467 
L 372.358628 253.570898 
L 376.033758 253.246751 
L 379.711838 252.890182 
L 383.34954 252.533613 
L 387.034073 252.209458 
L 390.801206 251.85289 
L 394.493113 251.496328 
L 398.188156 251.172173 
L 401.843004 250.815605 
L 405.528644 250.459036 
L 409.19013 250.102475 
L 412.898263 249.77832 
L 416.610083 249.421751 
L 420.282263 249.065182 
L 423.783159 248.741035 
L 427.51858 248.384466 
" clip-path="url(#pe561065a5a)" style="fill: none; stroke: #e377c2; stroke-width: 1.5; stroke-linecap: square"/>
   </g>
   <g id="patch_3">
    <path d="M 40.603125 299.798125 
L 40.603125 22.318125 
" style="fill: none; stroke: #000000; stroke-width: 0.8; stroke-linejoin: miter; stroke-linecap: square"/>
   </g>
   <g id="patch_4">
    <path d="M 445.943125 299.798125 
L 445.943125 22.318125 
" style="fill: none; stroke: #000000; stroke-width: 0.8; stroke-linejoin: miter; stroke-linecap: square"/>
   </g>
   <g id="patch_5">
    <path d="M 40.603125 299.798125 
L 445.943125 299.798125 
" style="fill: none; stroke: #000000; stroke-width: 0.8; stroke-linejoin: miter; stroke-linecap: square"/>
   </g>
   <g id="patch_6">
    <path d="M 40.603125 22.318125 
L 445.943125 22.318125 
" style="fill: none; stroke: #000000; stroke-width: 0.8; stroke-linejoin: miter; stroke-linecap: square"/>
   </g>
   <g id="text_21">
    <!-- right theta vs. time -->
    <g transform="translate(185.440625 16.318125) scale(0.12 -0.12)">
     <defs>
      <path id="DejaVuSans-76" d="M 191 3500 
L 800 3500 
L 1894 563 
L 2988 3500 
L 3597 3500 
L 2284 0 
L 1503 0 
L 191 3500 
z
" transform="scale(0.015625)"/>
     </defs>
     <use xlink:href="#DejaVuSans-72"/>
     <use xlink:href="#DejaVuSans-69" transform="translate(41.113281 0)"/>
     <use xlink:href="#DejaVuSans-67" transform="translate(68.896484 0)"/>
     <use xlink:href="#DejaVuSans-68" transform="translate(132.373047 0)"/>
     <use xlink:href="#DejaVuSans-74" transform="translate(195.751953 0)"/>
     <use xlink:href="#DejaVuSans-20" transform="translate(234.960938 0)"/>
     <use xlink:href="#DejaVuSans-74" transform="translate(266.748047 0)"/>
     <use xlink:href="#DejaVuSans-68" transform="translate(305.957031 0)"/>
     <use xlink:href="#DejaVuSans-65" transform="translate(369.335938 0)"/>
     <use xlink:href="#DejaVuSans-74" transform="translate(430.859375 0)"/>
     <use xlink:href="#DejaVuSans-61" transform="translate(470.068359 0)"/>
     <use xlink:href="#DejaVuSans-20" transform="translate(531.347656 0)"/>
     <use xlink:href="#DejaVuSans-76" transform="translate(563.134766 0)"/>
     <use xlink:href="#DejaVuSans-73" transform="translate(622.314453 0)"/>
     <use xlink:href="#DejaVuSans-2e" transform="translate(674.414062 0)"/>
     <use xlink:href="#DejaVuSans-20" transform="translate(706.201172 0)"/>
     <use xlink:href="#DejaVuSans-74" transform="translate(737.988281 0)"/>
     <use xlink:href="#DejaVuSans-69" transform="translate(777.197266 0)"/>
     <use xlink:href="#DejaVuSans-6d" transform="translate(804.980469 0)"/>
     <use xlink:href="#DejaVuSans-65" transform="translate(902.392578 0)"/>
    </g>
   </g>
   <g id="legend_1">
    <g id="patch_7">
     <path d="M 47.603125 133.065 
L 164.128125 133.065 
Q 166.128125 133.065 166.128125 131.065 
L 166.128125 29.318125 
Q 166.128125 27.318125 164.128125 27.318125 
L 47.603125 27.318125 
Q 45.603125 27.318125 45.603125 29.318125 
L 45.603125 131.065 
Q 45.603125 133.065 47.603125 133.065 
z
" style="fill: #ffffff; opacity: 0.8; stroke: #cccccc; stroke-linejoin: miter"/>
    </g>
    <g id="line2d_25">
     <path d="M 49.603125 35.416563 
L 59.603125 35.416563 
L 69.603125 35.416563 
" style="fill: none; stroke: #1f77b4; stroke-width: 1.5; stroke-linecap: square"/>
    </g>
    <g id="text_22">
     <!-- Ref Speed = 595 -->
     <g transform="translate(77.603125 38.916563) scale(0.1 -0.1)">
      <defs>
       <path id="DejaVuSans-52" d="M 2841 2188 
Q 3044 2119 3236 1894 
Q 3428 1669 3622 1275 
L 4263 0 
L 3584 0 
L 2988 1197 
Q 2756 1666 2539 1819 
Q 2322 1972 1947 1972 
L 1259 1972 
L 1259 0 
L 628 0 
L 628 4666 
L 2053 4666 
Q 2853 4666 3247 4331 
Q 3641 3997 3641 3322 
Q 3641 2881 3436 2590 
Q 3231 2300 2841 2188 
z
M 1259 4147 
L 1259 2491 
L 2053 2491 
Q 2509 2491 2742 2702 
Q 2975 2913 2975 3322 
Q 2975 3731 2742 3939 
Q 2509 4147 2053 4147 
L 1259 4147 
z
" transform="scale(0.015625)"/>
       <path id="DejaVuSans-66" d="M 2375 4863 
L 2375 4384 
L 1825 4384 
Q 1516 4384 1395 4259 
Q 1275 4134 1275 3809 
L 1275 3500 
L 2222 3500 
L 2222 3053 
L 1275 3053 
L 1275 0 
L 697 0 
L 697 3053 
L 147 3053 
L 147 3500 
L 697 3500 
L 697 3744 
Q 697 4328 969 4595 
Q 1241 4863 1831 4863 
L 2375 4863 
z
" transform="scale(0.015625)"/>
       <path id="DejaVuSans-53" d="M 3425 4513 
L 3425 3897 
Q 3066 4069 2747 4153 
Q 2428 4238 2131 4238 
Q 1616 4238 1336 4038 
Q 1056 3838 1056 3469 
Q 1056 3159 1242 3001 
Q 1428 2844 1947 2747 
L 2328 2669 
Q 3034 2534 3370 2195 
Q 3706 1856 3706 1288 
Q 3706 609 3251 259 
Q 2797 -91 1919 -91 
Q 1588 -91 1214 -16 
Q 841 59 441 206 
L 441 856 
Q 825 641 1194 531 
Q 1563 422 1919 422 
Q 2459 422 2753 634 
Q 3047 847 3047 1241 
Q 3047 1584 2836 1778 
Q 2625 1972 2144 2069 
L 1759 2144 
Q 1053 2284 737 2584 
Q 422 2884 422 3419 
Q 422 4038 858 4394 
Q 1294 4750 2059 4750 
Q 2388 4750 2728 4690 
Q 3069 4631 3425 4513 
z
" transform="scale(0.015625)"/>
       <path id="DejaVuSans-70" d="M 1159 525 
L 1159 -1331 
L 581 -1331 
L 581 3500 
L 1159 3500 
L 1159 2969 
Q 1341 3281 1617 3432 
Q 1894 3584 2278 3584 
Q 2916 3584 3314 3078 
Q 3713 2572 3713 1747 
Q 3713 922 3314 415 
Q 2916 -91 2278 -91 
Q 1894 -91 1617 61 
Q 1341 213 1159 525 
z
M 3116 1747 
Q 3116 2381 2855 2742 
Q 2594 3103 2138 3103 
Q 1681 3103 1420 2742 
Q 1159 2381 1159 1747 
Q 1159 1113 1420 752 
Q 1681 391 2138 391 
Q 2594 391 2855 752 
Q 3116 1113 3116 1747 
z
" transform="scale(0.015625)"/>
       <path id="DejaVuSans-3d" d="M 678 2906 
L 4684 2906 
L 4684 2381 
L 678 2381 
L 678 2906 
z
M 678 1631 
L 4684 1631 
L 4684 1100 
L 678 1100 
L 678 1631 
z
" transform="scale(0.015625)"/>
       <path id="DejaVuSans-39" d="M 703 97 
L 703 672 
Q 941 559 1184 500 
Q 1428 441 1663 441 
Q 2288 441 2617 861 
Q 2947 1281 2994 2138 
Q 2813 1869 2534 1725 
Q 2256 1581 1919 1581 
Q 1219 1581 811 2004 
Q 403 2428 403 3163 
Q 403 3881 828 4315 
Q 1253 4750 1959 4750 
Q 2769 4750 3195 4129 
Q 3622 3509 3622 2328 
Q 3622 1225 3098 567 
Q 2575 -91 1691 -91 
Q 1453 -91 1209 -44 
Q 966 3 703 97 
z
M 1959 2075 
Q 2384 2075 2632 2365 
Q 2881 2656 2881 3163 
Q 2881 3666 2632 3958 
Q 2384 4250 1959 4250 
Q 1534 4250 1286 3958 
Q 1038 3666 1038 3163 
Q 1038 2656 1286 2365 
Q 1534 2075 1959 2075 
z
" transform="scale(0.015625)"/>
      </defs>
      <use xlink:href="#DejaVuSans-52"/>
      <use xlink:href="#DejaVuSans-65" transform="translate(64.982422 0)"/>
      <use xlink:href="#DejaVuSans-66" transform="translate(126.505859 0)"/>
      <use xlink:href="#DejaVuSans-20" transform="translate(161.710938 0)"/>
      <use xlink:href="#DejaVuSans-53" transform="translate(193.498047 0)"/>
      <use xlink:href="#DejaVuSans-70" transform="translate(256.974609 0)"/>
      <use xlink:href="#DejaVuSans-65" transform="translate(320.451172 0)"/>
      <use xlink:href="#DejaVuSans-65" transform="translate(381.974609 0)"/>
      <use xlink:href="#DejaVuSans-64" transform="translate(443.498047 0)"/>
      <use xlink:href="#DejaVuSans-20" transform="translate(506.974609 0)"/>
      <use xlink:href="#DejaVuSans-3d" transform="translate(538.761719 0)"/>
      <use xlink:href="#DejaVuSans-20" transform="translate(622.550781 0)"/>
      <use xlink:href="#DejaVuSans-35" transform="translate(654.337891 0)"/>
      <use xlink:href="#DejaVuSans-39" transform="translate(717.960938 0)"/>
      <use xlink:href="#DejaVuSans-35" transform="translate(781.583984 0)"/>
     </g>
    </g>
    <g id="line2d_26">
     <path d="M 49.603125 50.094688 
L 59.603125 50.094688 
L 69.603125 50.094688 
" style="fill: none; stroke: #ff7f0e; stroke-width: 1.5; stroke-linecap: square"/>
    </g>
    <g id="text_23">
     <!-- Ref Speed = 510 -->
     <g transform="translate(77.603125 53.594688) scale(0.1 -0.1)">
      <use xlink:href="#DejaVuSans-52"/>
      <use xlink:href="#DejaVuSans-65" transform="translate(64.982422 0)"/>
      <use xlink:href="#DejaVuSans-66" transform="translate(126.505859 0)"/>
      <use xlink:href="#DejaVuSans-20" transform="translate(161.710938 0)"/>
      <use xlink:href="#DejaVuSans-53" transform="translate(193.498047 0)"/>
      <use xlink:href="#DejaVuSans-70" transform="translate(256.974609 0)"/>
      <use xlink:href="#DejaVuSans-65" transform="translate(320.451172 0)"/>
      <use xlink:href="#DejaVuSans-65" transform="translate(381.974609 0)"/>
      <use xlink:href="#DejaVuSans-64" transform="translate(443.498047 0)"/>
      <use xlink:href="#DejaVuSans-20" transform="translate(506.974609 0)"/>
      <use xlink:href="#DejaVuSans-3d" transform="translate(538.761719 0)"/>
      <use xlink:href="#DejaVuSans-20" transform="translate(622.550781 0)"/>
      <use xlink:href="#DejaVuSans-35" transform="translate(654.337891 0)"/>
      <use xlink:href="#DejaVuSans-31" transform="translate(717.960938 0)"/>
      <use xlink:href="#DejaVuSans-30" transform="translate(781.583984 0)"/>
     </g>
    </g>
    <g id="line2d_27">
     <path d="M 49.603125 64.772813 
L 59.603125 64.772813 
L 69.603125 64.772813 
" style="fill: none; stroke: #2ca02c; stroke-width: 1.5; stroke-linecap: square"/>
    </g>
    <g id="text_24">
     <!-- Ref Speed = 425 -->
     <g transform="translate(77.603125 68.272813) scale(0.1 -0.1)">
      <defs>
       <path id="DejaVuSans-34" d="M 2419 4116 
L 825 1625 
L 2419 1625 
L 2419 4116 
z
M 2253 4666 
L 3047 4666 
L 3047 1625 
L 3713 1625 
L 3713 1100 
L 3047 1100 
L 3047 0 
L 2419 0 
L 2419 1100 
L 313 1100 
L 313 1709 
L 2253 4666 
z
" transform="scale(0.015625)"/>
      </defs>
      <use xlink:href="#DejaVuSans-52"/>
      <use xlink:href="#DejaVuSans-65" transform="translate(64.982422 0)"/>
      <use xlink:href="#DejaVuSans-66" transform="translate(126.505859 0)"/>
      <use xlink:href="#DejaVuSans-20" transform="translate(161.710938 0)"/>
      <use xlink:href="#DejaVuSans-53" transform="translate(193.498047 0)"/>
      <use xlink:href="#DejaVuSans-70" transform="translate(256.974609 0)"/>
      <use xlink:href="#DejaVuSans-65" transform="translate(320.451172 0)"/>
      <use xlink:href="#DejaVuSans-65" transform="translate(381.974609 0)"/>
      <use xlink:href="#DejaVuSans-64" transform="translate(443.498047 0)"/>
      <use xlink:href="#DejaVuSans-20" transform="translate(506.974609 0)"/>
      <use xlink:href="#DejaVuSans-3d" transform="translate(538.761719 0)"/>
      <use xlink:href="#DejaVuSans-20" transform="translate(622.550781 0)"/>
      <use xlink:href="#DejaVuSans-34" transform="translate(654.337891 0)"/>
      <use xlink:href="#DejaVuSans-32" transform="translate(717.960938 0)"/>
      <use xlink:href="#DejaVuSans-35" transform="translate(781.583984 0)"/>
     </g>
    </g>
    <g id="line2d_28">
     <path d="M 49.603125 79.450938 
L 59.603125 79.450938 
L 69.603125 79.450938 
" style="fill: none; stroke: #d62728; stroke-width: 1.5; stroke-linecap: square"/>
    </g>
    <g id="text_25">
     <!-- Ref Speed = 340 -->
     <g transform="translate(77.603125 82.950938) scale(0.1 -0.1)">
      <use xlink:href="#DejaVuSans-52"/>
      <use xlink:href="#DejaVuSans-65" transform="translate(64.982422 0)"/>
      <use xlink:href="#DejaVuSans-66" transform="translate(126.505859 0)"/>
      <use xlink:href="#DejaVuSans-20" transform="translate(161.710938 0)"/>
      <use xlink:href="#DejaVuSans-53" transform="translate(193.498047 0)"/>
      <use xlink:href="#DejaVuSans-70" transform="translate(256.974609 0)"/>
      <use xlink:href="#DejaVuSans-65" transform="translate(320.451172 0)"/>
      <use xlink:href="#DejaVuSans-65" transform="translate(381.974609 0)"/>
      <use xlink:href="#DejaVuSans-64" transform="translate(443.498047 0)"/>
      <use xlink:href="#DejaVuSans-20" transform="translate(506.974609 0)"/>
      <use xlink:href="#DejaVuSans-3d" transform="translate(538.761719 0)"/>
      <use xlink:href="#DejaVuSans-20" transform="translate(622.550781 0)"/>
      <use xlink:href="#DejaVuSans-33" transform="translate(654.337891 0)"/>
      <use xlink:href="#DejaVuSans-34" transform="translate(717.960938 0)"/>
      <use xlink:href="#DejaVuSans-30" transform="translate(781.583984 0)"/>
     </g>
    </g>
    <g id="line2d_29">
     <path d="M 49.603125 94.129063 
L 59.603125 94.129063 
L 69.603125 94.129063 
" style="fill: none; stroke: #9467bd; stroke-width: 1.5; stroke-linecap: square"/>
    </g>
    <g id="text_26">
     <!-- Ref Speed = 255 -->
     <g transform="translate(77.603125 97.629063) scale(0.1 -0.1)">
      <use xlink:href="#DejaVuSans-52"/>
      <use xlink:href="#DejaVuSans-65" transform="translate(64.982422 0)"/>
      <use xlink:href="#DejaVuSans-66" transform="translate(126.505859 0)"/>
      <use xlink:href="#DejaVuSans-20" transform="translate(161.710938 0)"/>
      <use xlink:href="#DejaVuSans-53" transform="translate(193.498047 0)"/>
      <use xlink:href="#DejaVuSans-70" transform="translate(256.974609 0)"/>
      <use xlink:href="#DejaVuSans-65" transform="translate(320.451172 0)"/>
      <use xlink:href="#DejaVuSans-65" transform="translate(381.974609 0)"/>
      <use xlink:href="#DejaVuSans-64" transform="translate(443.498047 0)"/>
      <use xlink:href="#DejaVuSans-20" transform="translate(506.974609 0)"/>
      <use xlink:href="#DejaVuSans-3d" transform="translate(538.761719 0)"/>
      <use xlink:href="#DejaVuSans-20" transform="translate(622.550781 0)"/>
      <use xlink:href="#DejaVuSans-32" transform="translate(654.337891 0)"/>
      <use xlink:href="#DejaVuSans-35" transform="translate(717.960938 0)"/>
      <use xlink:href="#DejaVuSans-35" transform="translate(781.583984 0)"/>
     </g>
    </g>
    <g id="line2d_30">
     <path d="M 49.603125 108.807188 
L 59.603125 108.807188 
L 69.603125 108.807188 
" style="fill: none; stroke: #8c564b; stroke-width: 1.5; stroke-linecap: square"/>
    </g>
    <g id="text_27">
     <!-- Ref Speed = 170 -->
     <g transform="translate(77.603125 112.307188) scale(0.1 -0.1)">
      <use xlink:href="#DejaVuSans-52"/>
      <use xlink:href="#DejaVuSans-65" transform="translate(64.982422 0)"/>
      <use xlink:href="#DejaVuSans-66" transform="translate(126.505859 0)"/>
      <use xlink:href="#DejaVuSans-20" transform="translate(161.710938 0)"/>
      <use xlink:href="#DejaVuSans-53" transform="translate(193.498047 0)"/>
      <use xlink:href="#DejaVuSans-70" transform="translate(256.974609 0)"/>
      <use xlink:href="#DejaVuSans-65" transform="translate(320.451172 0)"/>
      <use xlink:href="#DejaVuSans-65" transform="translate(381.974609 0)"/>
      <use xlink:href="#DejaVuSans-64" transform="translate(443.498047 0)"/>
      <use xlink:href="#DejaVuSans-20" transform="translate(506.974609 0)"/>
      <use xlink:href="#DejaVuSans-3d" transform="translate(538.761719 0)"/>
      <use xlink:href="#DejaVuSans-20" transform="translate(622.550781 0)"/>
      <use xlink:href="#DejaVuSans-31" transform="translate(654.337891 0)"/>
      <use xlink:href="#DejaVuSans-37" transform="translate(717.960938 0)"/>
      <use xlink:href="#DejaVuSans-30" transform="translate(781.583984 0)"/>
     </g>
    </g>
    <g id="line2d_31">
     <path d="M 49.603125 123.485313 
L 59.603125 123.485313 
L 69.603125 123.485313 
" style="fill: none; stroke: #e377c2; stroke-width: 1.5; stroke-linecap: square"/>
    </g>
    <g id="text_28">
     <!-- Ref Speed = 85 -->
     <g transform="translate(77.603125 126.985313) scale(0.1 -0.1)">
      <defs>
       <path id="DejaVuSans-38" d="M 2034 2216 
Q 1584 2216 1326 1975 
Q 1069 1734 1069 1313 
Q 1069 891 1326 650 
Q 1584 409 2034 409 
Q 2484 409 2743 651 
Q 3003 894 3003 1313 
Q 3003 1734 2745 1975 
Q 2488 2216 2034 2216 
z
M 1403 2484 
Q 997 2584 770 2862 
Q 544 3141 544 3541 
Q 544 4100 942 4425 
Q 1341 4750 2034 4750 
Q 2731 4750 3128 4425 
Q 3525 4100 3525 3541 
Q 3525 3141 3298 2862 
Q 3072 2584 2669 2484 
Q 3125 2378 3379 2068 
Q 3634 1759 3634 1313 
Q 3634 634 3220 271 
Q 2806 -91 2034 -91 
Q 1263 -91 848 271 
Q 434 634 434 1313 
Q 434 1759 690 2068 
Q 947 2378 1403 2484 
z
M 1172 3481 
Q 1172 3119 1398 2916 
Q 1625 2713 2034 2713 
Q 2441 2713 2670 2916 
Q 2900 3119 2900 3481 
Q 2900 3844 2670 4047 
Q 2441 4250 2034 4250 
Q 1625 4250 1398 4047 
Q 1172 3844 1172 3481 
z
" transform="scale(0.015625)"/>
      </defs>
      <use xlink:href="#DejaVuSans-52"/>
      <use xlink:href="#DejaVuSans-65" transform="translate(64.982422 0)"/>
      <use xlink:href="#DejaVuSans-66" transform="translate(126.505859 0)"/>
      <use xlink:href="#DejaVuSans-20" transform="translate(161.710938 0)"/>
      <use xlink:href="#DejaVuSans-53" transform="translate(193.498047 0)"/>
      <use xlink:href="#DejaVuSans-70" transform="translate(256.974609 0)"/>
      <use xlink:href="#DejaVuSans-65" transform="translate(320.451172 0)"/>
      <use xlink:href="#DejaVuSans-65" transform="translate(381.974609 0)"/>
      <use xlink:href="#DejaVuSans-64" transform="translate(443.498047 0)"/>
      <use xlink:href="#DejaVuSans-20" transform="translate(506.974609 0)"/>
      <use xlink:href="#DejaVuSans-3d" transform="translate(538.761719 0)"/>
      <use xlink:href="#DejaVuSans-20" transform="translate(622.550781 0)"/>
      <use xlink:href="#DejaVuSans-38" transform="translate(654.337891 0)"/>
      <use xlink:href="#DejaVuSans-35" transform="translate(717.960938 0)"/>
     </g>
    </g>
   </g>
  </g>
 </g>
 <defs>
  <clipPath id="pe561065a5a">
   <rect x="40.603125" y="22.318125" width="405.34" height="277.48"/>
  </clipPath>
 </defs>
</svg>
