<?xml version="1.0" encoding="utf-8" standalone="no"?>
<!DOCTYPE svg PUBLIC "-//W3C//DTD SVG 1.1//EN"
  "http://www.w3.org/Graphics/SVG/1.1/DTD/svg11.dtd">
<svg xmlns:xlink="http://www.w3.org/1999/xlink" width="453.143125pt" height="337.354375pt" viewBox="0 0 453.143125 337.354375" xmlns="http://www.w3.org/2000/svg" version="1.1">
 <metadata>
  <rdf:RDF xmlns:dc="http://purl.org/dc/elements/1.1/" xmlns:cc="http://creativecommons.org/ns#" xmlns:rdf="http://www.w3.org/1999/02/22-rdf-syntax-ns#">
   <cc:Work>
    <dc:type rdf:resource="http://purl.org/dc/dcmitype/StillImage"/>
    <dc:date>2025-10-29T21:22:02.664095</dc:date>
    <dc:format>image/svg+xml</dc:format>
    <dc:creator>
     <cc:Agent>
      <dc:title>Matplotlib v3.10.6, https://matplotlib.org/</dc:title>
     </cc:Agent>
    </dc:creator>
   </cc:Work>
  </rdf:RDF>
 </metadata>
 <defs>
  <style type="text/css">*{stroke-linejoin: round; stroke-linecap: butt}</style>
 </defs>
 <g id="figure_1">
  <g id="patch_1">
   <path d="M 0 337.354375 
L 453.143125 337.354375 
L 453.143125 0 
L 0 0 
z
" style="fill: #ffffff"/>
  </g>
  <g id="axes_1">
   <g id="patch_2">
    <path d="M 40.603125 299.798125 
L 445.943125 299.798125 
L 445.943125 22.318125 
L 40.603125 22.318125 
z
" style="fill: #ffffff"/>
   </g>
   <g id="matplotlib.axis_1">
    <g id="xtick_1">
     <g id="line2d_1">
      <defs>
       <path id="md68ba66195" d="M 0 0 
L 0 3.5 
" style="stroke: #000000; stroke-width: 0.8"/>
      </defs>
      <g>
       <use xlink:href="#md68ba66195" x="59.02767" y="299.798125" style="stroke: #000000; stroke-width: 0.8"/>
      </g>
     </g>
     <g id="text_1">
      <!-- 0 -->
      <g transform="translate(55.84642 314.396563) scale(0.1 -0.1)">
       <defs>
        <path id="DejaVuSans-30" d="M 2034 4250 
Q 1547 4250 1301 3770 
Q 1056 3291 1056 2328 
Q 1056 1369 1301 889 
Q 1547 409 2034 409 
Q 2525 409 2770 889 
Q 3016 1369 3016 2328 
Q 3016 3291 2770 3770 
Q 2525 4250 2034 4250 
z
M 2034 4750 
Q 2819 4750 3233 4129 
Q 3647 3509 3647 2328 
Q 3647 1150 3233 529 
Q 2819 -91 2034 -91 
Q 1250 -91 836 529 
Q 422 1150 422 2328 
Q 422 3509 836 4129 
Q 1250 4750 2034 4750 
z
" transform="scale(0.015625)"/>
       </defs>
       <use xlink:href="#DejaVuSans-30"/>
      </g>
     </g>
    </g>
    <g id="xtick_2">
     <g id="line2d_2">
      <g>
       <use xlink:href="#md68ba66195" x="111.703498" y="299.798125" style="stroke: #000000; stroke-width: 0.8"/>
      </g>
     </g>
     <g id="text_2">
      <!-- 5 -->
      <g transform="translate(108.522248 314.396563) scale(0.1 -0.1)">
       <defs>
        <path id="DejaVuSans-35" d="M 691 4666 
L 3169 4666 
L 3169 4134 
L 1269 4134 
L 1269 2991 
Q 1406 3038 1543 3061 
Q 1681 3084 1819 3084 
Q 2600 3084 3056 2656 
Q 3513 2228 3513 1497 
Q 3513 744 3044 326 
Q 2575 -91 1722 -91 
Q 1428 -91 1123 -41 
Q 819 9 494 109 
L 494 744 
Q 775 591 1075 516 
Q 1375 441 1709 441 
Q 2250 441 2565 725 
Q 2881 1009 2881 1497 
Q 2881 1984 2565 2268 
Q 2250 2553 1709 2553 
Q 1456 2553 1204 2497 
Q 953 2441 691 2322 
L 691 4666 
z
" transform="scale(0.015625)"/>
       </defs>
       <use xlink:href="#DejaVuSans-35"/>
      </g>
     </g>
    </g>
    <g id="xtick_3">
     <g id="line2d_3">
      <g>
       <use xlink:href="#md68ba66195" x="164.379326" y="299.798125" style="stroke: #000000; stroke-width: 0.8"/>
      </g>
     </g>
     <g id="text_3">
      <!-- 10 -->
      <g transform="translate(158.016826 314.396563) scale(0.1 -0.1)">
       <defs>
        <path id="DejaVuSans-31" d="M 794 531 
L 1825 531 
L 1825 4091 
L 703 3866 
L 703 4441 
L 1819 4666 
L 2450 4666 
L 2450 531 
L 3481 531 
L 3481 0 
L 794 0 
L 794 531 
z
" transform="scale(0.015625)"/>
       </defs>
       <use xlink:href="#DejaVuSans-31"/>
       <use xlink:href="#DejaVuSans-30" transform="translate(63.623047 0)"/>
      </g>
     </g>
    </g>
    <g id="xtick_4">
     <g id="line2d_4">
      <g>
       <use xlink:href="#md68ba66195" x="217.055154" y="299.798125" style="stroke: #000000; stroke-width: 0.8"/>
      </g>
     </g>
     <g id="text_4">
      <!-- 15 -->
      <g transform="translate(210.692654 314.396563) scale(0.1 -0.1)">
       <use xlink:href="#DejaVuSans-31"/>
       <use xlink:href="#DejaVuSans-35" transform="translate(63.623047 0)"/>
      </g>
     </g>
    </g>
    <g id="xtick_5">
     <g id="line2d_5">
      <g>
       <use xlink:href="#md68ba66195" x="269.730982" y="299.798125" style="stroke: #000000; stroke-width: 0.8"/>
      </g>
     </g>
     <g id="text_5">
      <!-- 20 -->
      <g transform="translate(263.368482 314.396563) scale(0.1 -0.1)">
       <defs>
        <path id="DejaVuSans-32" d="M 1228 531 
L 3431 531 
L 3431 0 
L 469 0 
L 469 531 
Q 828 903 1448 1529 
Q 2069 2156 2228 2338 
Q 2531 2678 2651 2914 
Q 2772 3150 2772 3378 
Q 2772 3750 2511 3984 
Q 2250 4219 1831 4219 
Q 1534 4219 1204 4116 
Q 875 4013 500 3803 
L 500 4441 
Q 881 4594 1212 4672 
Q 1544 4750 1819 4750 
Q 2544 4750 2975 4387 
Q 3406 4025 3406 3419 
Q 3406 3131 3298 2873 
Q 3191 2616 2906 2266 
Q 2828 2175 2409 1742 
Q 1991 1309 1228 531 
z
" transform="scale(0.015625)"/>
       </defs>
       <use xlink:href="#DejaVuSans-32"/>
       <use xlink:href="#DejaVuSans-30" transform="translate(63.623047 0)"/>
      </g>
     </g>
    </g>
    <g id="xtick_6">
     <g id="line2d_6">
      <g>
       <use xlink:href="#md68ba66195" x="322.40681" y="299.798125" style="stroke: #000000; stroke-width: 0.8"/>
      </g>
     </g>
     <g id="text_6">
      <!-- 25 -->
      <g transform="translate(316.04431 314.396563) scale(0.1 -0.1)">
       <use xlink:href="#DejaVuSans-32"/>
       <use xlink:href="#DejaVuSans-35" transform="translate(63.623047 0)"/>
      </g>
     </g>
    </g>
    <g id="xtick_7">
     <g id="line2d_7">
      <g>
       <use xlink:href="#md68ba66195" x="375.082637" y="299.798125" style="stroke: #000000; stroke-width: 0.8"/>
      </g>
     </g>
     <g id="text_7">
      <!-- 30 -->
      <g transform="translate(368.720137 314.396563) scale(0.1 -0.1)">
       <defs>
        <path id="DejaVuSans-33" d="M 2597 2516 
Q 3050 2419 3304 2112 
Q 3559 1806 3559 1356 
Q 3559 666 3084 287 
Q 2609 -91 1734 -91 
Q 1441 -91 1130 -33 
Q 819 25 488 141 
L 488 750 
Q 750 597 1062 519 
Q 1375 441 1716 441 
Q 2309 441 2620 675 
Q 2931 909 2931 1356 
Q 2931 1769 2642 2001 
Q 2353 2234 1838 2234 
L 1294 2234 
L 1294 2753 
L 1863 2753 
Q 2328 2753 2575 2939 
Q 2822 3125 2822 3475 
Q 2822 3834 2567 4026 
Q 2313 4219 1838 4219 
Q 1578 4219 1281 4162 
Q 984 4106 628 3988 
L 628 4550 
Q 988 4650 1302 4700 
Q 1616 4750 1894 4750 
Q 2613 4750 3031 4423 
Q 3450 4097 3450 3541 
Q 3450 3153 3228 2886 
Q 3006 2619 2597 2516 
z
" transform="scale(0.015625)"/>
       </defs>
       <use xlink:href="#DejaVuSans-33"/>
       <use xlink:href="#DejaVuSans-30" transform="translate(63.623047 0)"/>
      </g>
     </g>
    </g>
    <g id="xtick_8">
     <g id="line2d_8">
      <g>
       <use xlink:href="#md68ba66195" x="427.758465" y="299.798125" style="stroke: #000000; stroke-width: 0.8"/>
      </g>
     </g>
     <g id="text_8">
      <!-- 35 -->
      <g transform="translate(421.395965 314.396563) scale(0.1 -0.1)">
       <use xlink:href="#DejaVuSans-33"/>
       <use xlink:href="#DejaVuSans-35" transform="translate(63.623047 0)"/>
      </g>
     </g>
    </g>
    <g id="text_9">
     <!-- Left Position, (rad) -->
     <g transform="translate(197.43875 328.074688) scale(0.1 -0.1)">
      <defs>
       <path id="DejaVuSans-4c" d="M 628 4666 
L 1259 4666 
L 1259 531 
L 3531 531 
L 3531 0 
L 628 0 
L 628 4666 
z
" transform="scale(0.015625)"/>
       <path id="DejaVuSans-65" d="M 3597 1894 
L 3597 1613 
L 953 1613 
Q 991 1019 1311 708 
Q 1631 397 2203 397 
Q 2534 397 2845 478 
Q 3156 559 3463 722 
L 3463 178 
Q 3153 47 2828 -22 
Q 2503 -91 2169 -91 
Q 1331 -91 842 396 
Q 353 884 353 1716 
Q 353 2575 817 3079 
Q 1281 3584 2069 3584 
Q 2775 3584 3186 3129 
Q 3597 2675 3597 1894 
z
M 3022 2063 
Q 3016 2534 2758 2815 
Q 2500 3097 2075 3097 
Q 1594 3097 1305 2825 
Q 1016 2553 972 2059 
L 3022 2063 
z
" transform="scale(0.015625)"/>
       <path id="DejaVuSans-66" d="M 2375 4863 
L 2375 4384 
L 1825 4384 
Q 1516 4384 1395 4259 
Q 1275 4134 1275 3809 
L 1275 3500 
L 2222 3500 
L 2222 3053 
L 1275 3053 
L 1275 0 
L 697 0 
L 697 3053 
L 147 3053 
L 147 3500 
L 697 3500 
L 697 3744 
Q 697 4328 969 4595 
Q 1241 4863 1831 4863 
L 2375 4863 
z
" transform="scale(0.015625)"/>
       <path id="DejaVuSans-74" d="M 1172 4494 
L 1172 3500 
L 2356 3500 
L 2356 3053 
L 1172 3053 
L 1172 1153 
Q 1172 725 1289 603 
Q 1406 481 1766 481 
L 2356 481 
L 2356 0 
L 1766 0 
Q 1100 0 847 248 
Q 594 497 594 1153 
L 594 3053 
L 172 3053 
L 172 3500 
L 594 3500 
L 594 4494 
L 1172 4494 
z
" transform="scale(0.015625)"/>
       <path id="DejaVuSans-20" transform="scale(0.015625)"/>
       <path id="DejaVuSans-50" d="M 1259 4147 
L 1259 2394 
L 2053 2394 
Q 2494 2394 2734 2622 
Q 2975 2850 2975 3272 
Q 2975 3691 2734 3919 
Q 2494 4147 2053 4147 
L 1259 4147 
z
M 628 4666 
L 2053 4666 
Q 2838 4666 3239 4311 
Q 3641 3956 3641 3272 
Q 3641 2581 3239 2228 
Q 2838 1875 2053 1875 
L 1259 1875 
L 1259 0 
L 628 0 
L 628 4666 
z
" transform="scale(0.015625)"/>
       <path id="DejaVuSans-6f" d="M 1959 3097 
Q 1497 3097 1228 2736 
Q 959 2375 959 1747 
Q 959 1119 1226 758 
Q 1494 397 1959 397 
Q 2419 397 2687 759 
Q 2956 1122 2956 1747 
Q 2956 2369 2687 2733 
Q 2419 3097 1959 3097 
z
M 1959 3584 
Q 2709 3584 3137 3096 
Q 3566 2609 3566 1747 
Q 3566 888 3137 398 
Q 2709 -91 1959 -91 
Q 1206 -91 779 398 
Q 353 888 353 1747 
Q 353 2609 779 3096 
Q 1206 3584 1959 3584 
z
" transform="scale(0.015625)"/>
       <path id="DejaVuSans-73" d="M 2834 3397 
L 2834 2853 
Q 2591 2978 2328 3040 
Q 2066 3103 1784 3103 
Q 1356 3103 1142 2972 
Q 928 2841 928 2578 
Q 928 2378 1081 2264 
Q 1234 2150 1697 2047 
L 1894 2003 
Q 2506 1872 2764 1633 
Q 3022 1394 3022 966 
Q 3022 478 2636 193 
Q 2250 -91 1575 -91 
Q 1294 -91 989 -36 
Q 684 19 347 128 
L 347 722 
Q 666 556 975 473 
Q 1284 391 1588 391 
Q 1994 391 2212 530 
Q 2431 669 2431 922 
Q 2431 1156 2273 1281 
Q 2116 1406 1581 1522 
L 1381 1569 
Q 847 1681 609 1914 
Q 372 2147 372 2553 
Q 372 3047 722 3315 
Q 1072 3584 1716 3584 
Q 2034 3584 2315 3537 
Q 2597 3491 2834 3397 
z
" transform="scale(0.015625)"/>
       <path id="DejaVuSans-69" d="M 603 3500 
L 1178 3500 
L 1178 0 
L 603 0 
L 603 3500 
z
M 603 4863 
L 1178 4863 
L 1178 4134 
L 603 4134 
L 603 4863 
z
" transform="scale(0.015625)"/>
       <path id="DejaVuSans-6e" d="M 3513 2113 
L 3513 0 
L 2938 0 
L 2938 2094 
Q 2938 2591 2744 2837 
Q 2550 3084 2163 3084 
Q 1697 3084 1428 2787 
Q 1159 2491 1159 1978 
L 1159 0 
L 581 0 
L 581 3500 
L 1159 3500 
L 1159 2956 
Q 1366 3272 1645 3428 
Q 1925 3584 2291 3584 
Q 2894 3584 3203 3211 
Q 3513 2838 3513 2113 
z
" transform="scale(0.015625)"/>
       <path id="DejaVuSans-2c" d="M 750 794 
L 1409 794 
L 1409 256 
L 897 -744 
L 494 -744 
L 750 256 
L 750 794 
z
" transform="scale(0.015625)"/>
       <path id="DejaVuSans-28" d="M 1984 4856 
Q 1566 4138 1362 3434 
Q 1159 2731 1159 2009 
Q 1159 1288 1364 580 
Q 1569 -128 1984 -844 
L 1484 -844 
Q 1016 -109 783 600 
Q 550 1309 550 2009 
Q 550 2706 781 3412 
Q 1013 4119 1484 4856 
L 1984 4856 
z
" transform="scale(0.015625)"/>
       <path id="DejaVuSans-72" d="M 2631 2963 
Q 2534 3019 2420 3045 
Q 2306 3072 2169 3072 
Q 1681 3072 1420 2755 
Q 1159 2438 1159 1844 
L 1159 0 
L 581 0 
L 581 3500 
L 1159 3500 
L 1159 2956 
Q 1341 3275 1631 3429 
Q 1922 3584 2338 3584 
Q 2397 3584 2469 3576 
Q 2541 3569 2628 3553 
L 2631 2963 
z
" transform="scale(0.015625)"/>
       <path id="DejaVuSans-61" d="M 2194 1759 
Q 1497 1759 1228 1600 
Q 959 1441 959 1056 
Q 959 750 1161 570 
Q 1363 391 1709 391 
Q 2188 391 2477 730 
Q 2766 1069 2766 1631 
L 2766 1759 
L 2194 1759 
z
M 3341 1997 
L 3341 0 
L 2766 0 
L 2766 531 
Q 2569 213 2275 61 
Q 1981 -91 1556 -91 
Q 1019 -91 701 211 
Q 384 513 384 1019 
Q 384 1609 779 1909 
Q 1175 2209 1959 2209 
L 2766 2209 
L 2766 2266 
Q 2766 2663 2505 2880 
Q 2244 3097 1772 3097 
Q 1472 3097 1187 3025 
Q 903 2953 641 2809 
L 641 3341 
Q 956 3463 1253 3523 
Q 1550 3584 1831 3584 
Q 2591 3584 2966 3190 
Q 3341 2797 3341 1997 
z
" transform="scale(0.015625)"/>
       <path id="DejaVuSans-64" d="M 2906 2969 
L 2906 4863 
L 3481 4863 
L 3481 0 
L 2906 0 
L 2906 525 
Q 2725 213 2448 61 
Q 2172 -91 1784 -91 
Q 1150 -91 751 415 
Q 353 922 353 1747 
Q 353 2572 751 3078 
Q 1150 3584 1784 3584 
Q 2172 3584 2448 3432 
Q 2725 3281 2906 2969 
z
M 947 1747 
Q 947 1113 1208 752 
Q 1469 391 1925 391 
Q 2381 391 2643 752 
Q 2906 1113 2906 1747 
Q 2906 2381 2643 2742 
Q 2381 3103 1925 3103 
Q 1469 3103 1208 2742 
Q 947 2381 947 1747 
z
" transform="scale(0.015625)"/>
       <path id="DejaVuSans-29" d="M 513 4856 
L 1013 4856 
Q 1481 4119 1714 3412 
Q 1947 2706 1947 2009 
Q 1947 1309 1714 600 
Q 1481 -109 1013 -844 
L 513 -844 
Q 928 -128 1133 580 
Q 1338 1288 1338 2009 
Q 1338 2731 1133 3434 
Q 928 4138 513 4856 
z
" transform="scale(0.015625)"/>
      </defs>
      <use xlink:href="#DejaVuSans-4c"/>
      <use xlink:href="#DejaVuSans-65" transform="translate(53.962891 0)"/>
      <use xlink:href="#DejaVuSans-66" transform="translate(115.486328 0)"/>
      <use xlink:href="#DejaVuSans-74" transform="translate(148.941406 0)"/>
      <use xlink:href="#DejaVuSans-20" transform="translate(188.150391 0)"/>
      <use xlink:href="#DejaVuSans-50" transform="translate(219.9375 0)"/>
      <use xlink:href="#DejaVuSans-6f" transform="translate(276.615234 0)"/>
      <use xlink:href="#DejaVuSans-73" transform="translate(337.796875 0)"/>
      <use xlink:href="#DejaVuSans-69" transform="translate(389.896484 0)"/>
      <use xlink:href="#DejaVuSans-74" transform="translate(417.679688 0)"/>
      <use xlink:href="#DejaVuSans-69" transform="translate(456.888672 0)"/>
      <use xlink:href="#DejaVuSans-6f" transform="translate(484.671875 0)"/>
      <use xlink:href="#DejaVuSans-6e" transform="translate(545.853516 0)"/>
      <use xlink:href="#DejaVuSans-2c" transform="translate(609.232422 0)"/>
      <use xlink:href="#DejaVuSans-20" transform="translate(641.019531 0)"/>
      <use xlink:href="#DejaVuSans-28" transform="translate(672.806641 0)"/>
      <use xlink:href="#DejaVuSans-72" transform="translate(711.820312 0)"/>
      <use xlink:href="#DejaVuSans-61" transform="translate(752.933594 0)"/>
      <use xlink:href="#DejaVuSans-64" transform="translate(814.212891 0)"/>
      <use xlink:href="#DejaVuSans-29" transform="translate(877.689453 0)"/>
     </g>
    </g>
   </g>
   <g id="matplotlib.axis_2">
    <g id="ytick_1">
     <g id="line2d_9">
      <defs>
       <path id="m07c2e30de9" d="M 0 0 
L -3.5 0 
" style="stroke: #000000; stroke-width: 0.8"/>
      </defs>
      <g>
       <use xlink:href="#m07c2e30de9" x="40.603125" y="287.185398" style="stroke: #000000; stroke-width: 0.8"/>
      </g>
     </g>
     <g id="text_10">
      <!-- 0 -->
      <g transform="translate(27.240625 290.984616) scale(0.1 -0.1)">
       <use xlink:href="#DejaVuSans-30"/>
      </g>
     </g>
    </g>
    <g id="ytick_2">
     <g id="line2d_10">
      <g>
       <use xlink:href="#m07c2e30de9" x="40.603125" y="250.394344" style="stroke: #000000; stroke-width: 0.8"/>
      </g>
     </g>
     <g id="text_11">
      <!-- 5 -->
      <g transform="translate(27.240625 254.193563) scale(0.1 -0.1)">
       <use xlink:href="#DejaVuSans-35"/>
      </g>
     </g>
    </g>
    <g id="ytick_3">
     <g id="line2d_11">
      <g>
       <use xlink:href="#m07c2e30de9" x="40.603125" y="213.603291" style="stroke: #000000; stroke-width: 0.8"/>
      </g>
     </g>
     <g id="text_12">
      <!-- 10 -->
      <g transform="translate(20.878125 217.40251) scale(0.1 -0.1)">
       <use xlink:href="#DejaVuSans-31"/>
       <use xlink:href="#DejaVuSans-30" transform="translate(63.623047 0)"/>
      </g>
     </g>
    </g>
    <g id="ytick_4">
     <g id="line2d_12">
      <g>
       <use xlink:href="#m07c2e30de9" x="40.603125" y="176.812238" style="stroke: #000000; stroke-width: 0.8"/>
      </g>
     </g>
     <g id="text_13">
      <!-- 15 -->
      <g transform="translate(20.878125 180.611457) scale(0.1 -0.1)">
       <use xlink:href="#DejaVuSans-31"/>
       <use xlink:href="#DejaVuSans-35" transform="translate(63.623047 0)"/>
      </g>
     </g>
    </g>
    <g id="ytick_5">
     <g id="line2d_13">
      <g>
       <use xlink:href="#m07c2e30de9" x="40.603125" y="140.021185" style="stroke: #000000; stroke-width: 0.8"/>
      </g>
     </g>
     <g id="text_14">
      <!-- 20 -->
      <g transform="translate(20.878125 143.820403) scale(0.1 -0.1)">
       <use xlink:href="#DejaVuSans-32"/>
       <use xlink:href="#DejaVuSans-30" transform="translate(63.623047 0)"/>
      </g>
     </g>
    </g>
    <g id="ytick_6">
     <g id="line2d_14">
      <g>
       <use xlink:href="#m07c2e30de9" x="40.603125" y="103.230131" style="stroke: #000000; stroke-width: 0.8"/>
      </g>
     </g>
     <g id="text_15">
      <!-- 25 -->
      <g transform="translate(20.878125 107.02935) scale(0.1 -0.1)">
       <use xlink:href="#DejaVuSans-32"/>
       <use xlink:href="#DejaVuSans-35" transform="translate(63.623047 0)"/>
      </g>
     </g>
    </g>
    <g id="ytick_7">
     <g id="line2d_15">
      <g>
       <use xlink:href="#m07c2e30de9" x="40.603125" y="66.439078" style="stroke: #000000; stroke-width: 0.8"/>
      </g>
     </g>
     <g id="text_16">
      <!-- 30 -->
      <g transform="translate(20.878125 70.238297) scale(0.1 -0.1)">
       <use xlink:href="#DejaVuSans-33"/>
       <use xlink:href="#DejaVuSans-30" transform="translate(63.623047 0)"/>
      </g>
     </g>
    </g>
    <g id="ytick_8">
     <g id="line2d_16">
      <g>
       <use xlink:href="#m07c2e30de9" x="40.603125" y="29.648025" style="stroke: #000000; stroke-width: 0.8"/>
      </g>
     </g>
     <g id="text_17">
      <!-- 35 -->
      <g transform="translate(20.878125 33.447244) scale(0.1 -0.1)">
       <use xlink:href="#DejaVuSans-33"/>
       <use xlink:href="#DejaVuSans-35" transform="translate(63.623047 0)"/>
      </g>
     </g>
    </g>
    <g id="text_18">
     <!-- Right Position, (rad) -->
     <g transform="translate(14.798438 210.651094) rotate(-90) scale(0.1 -0.1)">
      <defs>
       <path id="DejaVuSans-52" d="M 2841 2188 
Q 3044 2119 3236 1894 
Q 3428 1669 3622 1275 
L 4263 0 
L 3584 0 
L 2988 1197 
Q 2756 1666 2539 1819 
Q 2322 1972 1947 1972 
L 1259 1972 
L 1259 0 
L 628 0 
L 628 4666 
L 2053 4666 
Q 2853 4666 3247 4331 
Q 3641 3997 3641 3322 
Q 3641 2881 3436 2590 
Q 3231 2300 2841 2188 
z
M 1259 4147 
L 1259 2491 
L 2053 2491 
Q 2509 2491 2742 2702 
Q 2975 2913 2975 3322 
Q 2975 3731 2742 3939 
Q 2509 4147 2053 4147 
L 1259 4147 
z
" transform="scale(0.015625)"/>
       <path id="DejaVuSans-67" d="M 2906 1791 
Q 2906 2416 2648 2759 
Q 2391 3103 1925 3103 
Q 1463 3103 1205 2759 
Q 947 2416 947 1791 
Q 947 1169 1205 825 
Q 1463 481 1925 481 
Q 2391 481 2648 825 
Q 2906 1169 2906 1791 
z
M 3481 434 
Q 3481 -459 3084 -895 
Q 2688 -1331 1869 -1331 
Q 1566 -1331 1297 -1286 
Q 1028 -1241 775 -1147 
L 775 -588 
Q 1028 -725 1275 -790 
Q 1522 -856 1778 -856 
Q 2344 -856 2625 -561 
Q 2906 -266 2906 331 
L 2906 616 
Q 2728 306 2450 153 
Q 2172 0 1784 0 
Q 1141 0 747 490 
Q 353 981 353 1791 
Q 353 2603 747 3093 
Q 1141 3584 1784 3584 
Q 2172 3584 2450 3431 
Q 2728 3278 2906 2969 
L 2906 3500 
L 3481 3500 
L 3481 434 
z
" transform="scale(0.015625)"/>
       <path id="DejaVuSans-68" d="M 3513 2113 
L 3513 0 
L 2938 0 
L 2938 2094 
Q 2938 2591 2744 2837 
Q 2550 3084 2163 3084 
Q 1697 3084 1428 2787 
Q 1159 2491 1159 1978 
L 1159 0 
L 581 0 
L 581 4863 
L 1159 4863 
L 1159 2956 
Q 1366 3272 1645 3428 
Q 1925 3584 2291 3584 
Q 2894 3584 3203 3211 
Q 3513 2838 3513 2113 
z
" transform="scale(0.015625)"/>
      </defs>
      <use xlink:href="#DejaVuSans-52"/>
      <use xlink:href="#DejaVuSans-69" transform="translate(69.482422 0)"/>
      <use xlink:href="#DejaVuSans-67" transform="translate(97.265625 0)"/>
      <use xlink:href="#DejaVuSans-68" transform="translate(160.742188 0)"/>
      <use xlink:href="#DejaVuSans-74" transform="translate(224.121094 0)"/>
      <use xlink:href="#DejaVuSans-20" transform="translate(263.330078 0)"/>
      <use xlink:href="#DejaVuSans-50" transform="translate(295.117188 0)"/>
      <use xlink:href="#DejaVuSans-6f" transform="translate(351.794922 0)"/>
      <use xlink:href="#DejaVuSans-73" transform="translate(412.976562 0)"/>
      <use xlink:href="#DejaVuSans-69" transform="translate(465.076172 0)"/>
      <use xlink:href="#DejaVuSans-74" transform="translate(492.859375 0)"/>
      <use xlink:href="#DejaVuSans-69" transform="translate(532.068359 0)"/>
      <use xlink:href="#DejaVuSans-6f" transform="translate(559.851562 0)"/>
      <use xlink:href="#DejaVuSans-6e" transform="translate(621.033203 0)"/>
      <use xlink:href="#DejaVuSans-2c" transform="translate(684.412109 0)"/>
      <use xlink:href="#DejaVuSans-20" transform="translate(716.199219 0)"/>
      <use xlink:href="#DejaVuSans-28" transform="translate(747.986328 0)"/>
      <use xlink:href="#DejaVuSans-72" transform="translate(787 0)"/>
      <use xlink:href="#DejaVuSans-61" transform="translate(828.113281 0)"/>
      <use xlink:href="#DejaVuSans-64" transform="translate(889.392578 0)"/>
      <use xlink:href="#DejaVuSans-29" transform="translate(952.869141 0)"/>
     </g>
    </g>
   </g>
   <g id="line2d_17">
    <path d="M 67.595086 281.941486 
L 68.470251 281.330233 
L 70.819386 279.75384 
L 73.813375 277.53403 
L 77.037662 275.121185 
L 80.35409 272.708339 
L 83.762627 270.327671 
L 87.355414 267.882655 
L 90.99427 265.373299 
L 94.540987 263.089142 
L 98.271963 260.611963 
L 101.864749 258.166947 
L 105.595726 255.561074 
L 109.326691 252.987378 
L 113.103727 250.413674 
L 116.880753 247.807808 
L 120.611729 245.234105 
L 124.296635 242.660409 
L 127.981551 240.086705 
L 131.758587 237.480839 
L 135.581672 234.842796 
L 139.312648 232.23693 
L 142.951495 229.759744 
L 146.774601 227.1217 
L 150.413447 224.612344 
L 154.190473 222.038641 
L 157.875389 219.497115 
L 161.698485 216.859079 
L 165.337289 214.381893 
L 169.022279 211.840338 
L 172.799241 209.234501 
L 176.53027 206.692975 
L 180.123078 204.21576 
L 183.946078 201.642078 
L 187.677107 199.100552 
L 191.361992 196.559026 
L 195.093021 194.0175 
L 198.869983 191.443819 
L 202.554868 188.902293 
L 206.331936 186.360767 
L 210.062965 183.819241 
L 213.793888 180.634313 
L 217.524812 178.768345 
L 221.163658 176.291203 
L 225.032803 173.685293 
L 228.671649 171.175922 
L 232.356639 168.666625 
L 236.041524 166.125099 
L 239.726409 163.647884 
L 243.457332 161.074203 
L 247.096179 158.564832 
L 250.827207 155.991151 
L 254.604275 153.417469 
L 258.243016 150.940254 
L 261.974045 148.366573 
L 265.65893 145.857202 
L 269.389958 143.315676 
L 273.120882 140.741995 
L 276.851911 138.232624 
L 280.582834 135.658943 
L 284.221681 133.149573 
L 287.906565 130.608047 
L 291.499373 128.130905 
L 295.230402 125.589379 
L 298.961325 123.047853 
L 302.64621 120.506327 
L 306.239018 118.029112 
L 309.970047 115.487586 
L 313.654932 112.94606 
L 317.293778 109.825443 
L 321.116884 107.927319 
L 324.847807 105.385793 
L 328.394576 102.844267 
L 332.079461 100.334896 
L 335.810385 97.793444 
L 339.495375 95.251918 
L 343.134221 92.774703 
L 346.865145 90.233177 
L 350.503991 87.723806 
L 354.096798 85.246591 
L 357.781683 82.705065 
L 361.466568 80.195768 
L 365.151453 77.686398 
L 368.790299 75.177027 
L 372.475184 72.667656 
L 376.067991 70.158286 
L 379.752876 67.648915 
L 383.437867 65.107463 
L 387.122751 62.598092 
L 390.807636 60.056566 
L 394.492521 57.547196 
L 398.223445 55.00567 
L 401.816252 52.528455 
L 405.501137 49.986929 
L 409.232166 47.413247 
L 412.917051 44.903877 
L 416.509858 42.426735 
L 420.148704 39.981675 
L 423.879628 37.440149 
L 427.51858 34.930852 
" clip-path="url(#p702efd1296)" style="fill: none; stroke: #1f77b4; stroke-width: 1.5; stroke-linecap: square"/>
   </g>
   <g id="line2d_18">
    <path d="M 65.844754 282.970966 
L 66.627797 282.456226 
L 68.838743 280.879836 
L 71.556363 278.885218 
L 74.504292 276.826259 
L 77.360102 274.831646 
L 80.30802 272.708339 
L 83.302009 270.713727 
L 86.388128 268.719107 
L 89.612425 266.531467 
L 92.744593 264.343819 
L 96.014951 262.059662 
L 99.285309 259.775504 
L 102.509607 257.491346 
L 105.779964 255.142848 
L 109.050312 252.85869 
L 112.27461 250.574532 
L 115.498908 248.290382 
L 118.815325 245.974054 
L 122.085683 243.722066 
L 125.263921 241.470078 
L 128.488208 239.218091 
L 131.712506 236.966103 
L 135.028924 234.649775 
L 138.299281 232.365625 
L 141.47752 230.113637 
L 144.747877 227.829472 
L 148.018225 225.577484 
L 151.242533 223.389836 
L 154.466831 221.137849 
L 157.691129 218.885861 
L 160.961487 216.633866 
L 164.139725 214.510573 
L 167.410083 212.258578 
L 170.588331 210.038753 
L 173.76658 207.818928 
L 176.990867 205.599103 
L 180.215155 203.379352 
L 183.53152 201.095143 
L 186.755912 198.843162 
L 189.934056 196.623337 
L 193.204487 194.403512 
L 196.336592 192.248072 
L 199.560985 190.028247 
L 202.87735 187.776266 
L 206.055598 185.556441 
L 209.233847 183.336616 
L 212.458134 181.14902 
L 215.728461 178.89704 
L 218.906709 176.70937 
L 222.084958 174.521701 
L 225.309245 172.301876 
L 228.533533 170.082124 
L 231.711782 167.894455 
L 234.843992 165.739014 
L 238.02224 163.551344 
L 241.246528 161.331519 
L 244.470815 159.079539 
L 247.695103 156.891869 
L 250.827313 154.736429 
L 253.959418 152.580914 
L 257.091628 150.393318 
L 260.407992 148.109109 
L 263.586241 145.953668 
L 266.810529 143.733843 
L 269.988777 141.546174 
L 273.074949 139.422889 
L 276.299236 137.203064 
L 279.523524 135.015468 
L 282.701772 132.827798 
L 285.7418 130.704513 
L 288.966087 128.484688 
L 292.098297 126.329173 
L 295.230507 124.173733 
L 298.408756 121.953908 
L 301.540861 119.766238 
L 304.673071 117.578642 
L 307.943397 115.326662 
L 311.075607 113.171148 
L 314.161673 111.047862 
L 317.293883 108.860193 
L 320.472132 106.672597 
L 323.696419 104.452772 
L 326.874668 102.265102 
L 330.006773 100.109661 
L 333.185021 97.921992 
L 336.36327 95.734322 
L 339.449442 93.611037 
L 342.673729 91.455596 
L 345.805834 89.267927 
L 348.892005 87.144641 
L 352.024215 84.956972 
L 355.15632 82.769376 
L 358.28853 80.613862 
L 361.466779 78.426266 
L 364.598883 76.238596 
L 367.685055 74.115311 
L 370.863304 71.895486 
L 373.995408 69.707816 
L 377.127618 67.584531 
L 380.259828 65.429017 
" clip-path="url(#p702efd1296)" style="fill: none; stroke: #ff7f0e; stroke-width: 1.5; stroke-linecap: square"/>
   </g>
   <g id="line2d_19">
    <path d="M 64.831403 284.09696 
L 65.798692 283.453535 
L 68.147822 281.812802 
L 70.174518 280.429439 
L 72.892138 278.56351 
L 75.655828 276.697578 
L 77.68252 275.314213 
L 80.40015 273.38394 
L 83.11777 271.453661 
L 85.190532 269.973785 
L 88.092401 267.979166 
L 90.99426 265.952383 
L 93.297331 264.343819 
L 96.199201 262.28486 
L 99.147119 260.258077 
L 101.404131 258.681684 
L 104.306 256.622724 
L 107.299989 254.563764 
L 109.510941 253.019541 
L 112.412799 250.992758 
L 115.360739 248.933791 
L 117.525621 247.389575 
L 120.47355 245.330615 
L 123.421478 243.271655 
L 125.63242 241.727439 
L 128.580349 239.668472 
L 131.482218 237.64169 
L 133.73923 236.065296 
L 136.641099 234.070677 
L 139.542968 232.076057 
L 141.799969 230.499663 
L 144.701839 228.505044 
L 147.603708 226.478261 
L 149.814649 224.966208 
L 152.670459 222.939426 
L 155.572328 220.880466 
L 157.73721 219.36842 
L 160.731198 217.34163 
L 163.586997 215.31484 
L 165.751847 213.802794 
L 168.653759 211.743871 
L 171.509526 209.749208 
L 173.76658 208.205014 
L 176.622347 206.210423 
L 179.524259 204.247915 
L 181.735169 202.703721 
L 184.590936 200.709131 
L 187.492847 198.650156 
L 189.657718 197.105962 
L 192.55963 195.111298 
L 195.507474 193.084553 
L 197.71849 191.572441 
L 200.66644 189.51354 
L 202.87735 188.001501 
L 205.779261 186.006837 
L 208.727106 183.980092 
L 210.891977 182.468053 
L 213.793888 180.441234 
L 216.695799 178.446644 
L 218.906709 176.902376 
L 221.808621 174.87563 
L 224.710427 172.880967 
L 226.967481 171.304617 
L 229.823248 169.309954 
L 231.988119 167.765759 
L 234.89003 165.739014 
L 237.791836 163.74435 
L 240.04889 162.168001 
L 242.904658 160.173337 
L 245.76053 158.178747 
L 247.97144 156.634479 
L 250.873351 154.639889 
L 253.1303 153.063466 
L 256.032211 151.068876 
L 258.934017 149.074286 
L 261.145033 147.497863 
L 264.0008 145.535428 
L 266.94875 143.508609 
L 269.113621 141.99657 
L 272.015532 140.034135 
L 274.917338 138.007316 
L 277.082315 136.527506 
L 279.984121 134.500687 
L 282.148992 132.988648 
L 284.958826 130.993985 
L 287.860632 128.967239 
L 290.071542 127.4552 
L 293.019492 125.396226 
L 295.875365 123.433791 
L 298.040236 121.953908 
L 300.942042 119.927089 
L 303.107018 118.41505 
L 306.008824 116.356076 
L 308.864697 114.425796 
L 311.029568 112.881602 
L 313.931374 110.887012 
L 316.787247 108.924577 
L 318.998157 107.380309 
L 321.854029 105.385719 
L 324.709797 103.391056 
" clip-path="url(#p702efd1296)" style="fill: none; stroke: #2ca02c; stroke-width: 1.5; stroke-linecap: square"/>
   </g>
   <g id="line2d_20">
    <path d="M 62.988949 285.029925 
L 63.864114 284.483014 
L 65.338079 283.485706 
L 67.456902 281.973657 
L 69.529664 280.493781 
L 71.141815 279.303444 
L 73.260637 277.823568 
L 75.471578 276.311522 
L 77.129792 275.185525 
L 79.386794 273.641309 
L 81.735925 271.968405 
L 83.532318 270.713727 
L 85.973579 269.072993 
L 88.27664 267.432259 
L 90.026974 266.177581 
L 92.376105 264.536847 
L 94.725236 262.928284 
L 96.521629 261.673606 
L 98.870761 260.032872 
L 101.219892 258.392138 
L 103.062345 257.13746 
L 105.365416 255.528897 
L 107.714547 253.855993 
L 109.464881 252.601315 
L 111.814012 250.960581 
L 114.163143 249.319847 
L 115.867417 248.097339 
L 118.262608 246.456605 
L 120.611739 244.815872 
L 122.316013 243.593364 
L 124.665144 241.95263 
L 127.014275 240.344066 
L 128.810669 239.089388 
L 131.11374 237.448654 
L 133.462871 235.840091 
L 135.305335 234.617583 
L 137.608406 233.009019 
L 139.957538 231.303945 
L 141.707871 230.081437 
L 144.010932 228.472874 
L 146.406133 226.86431 
L 148.156456 225.641802 
L 150.551647 224.001076 
L 152.854719 222.424689 
L 154.605052 221.234352 
L 156.908124 219.593618 
L 159.165125 217.985054 
L 160.915448 216.730376 
L 163.218519 215.121813 
L 165.521549 213.513227 
L 167.364044 212.258578 
L 169.621098 210.65 
L 171.970124 208.977111 
L 173.76658 207.754617 
L 176.069673 206.146039 
L 178.418804 204.505305 
L 180.123078 203.282812 
L 182.472209 201.642078 
L 184.222521 200.419585 
L 186.525614 198.843162 
L 188.87464 197.170273 
L 190.625057 195.94778 
L 192.974189 194.339201 
L 195.231137 192.730623 
L 196.981449 191.50813 
L 199.284542 189.867396 
L 201.633673 188.258818 
L 203.430024 187.004169 
L 205.733117 185.395591 
L 207.483429 184.173098 
L 209.786522 182.532364 
L 212.135653 180.923785 
L 213.932109 179.701292 
L 216.189058 178.092714 
L 218.492151 176.516364 
L 220.288502 175.293871 
L 222.545555 173.717448 
L 224.295868 172.4628 
L 226.59896 170.854221 
L 228.901948 169.245643 
L 230.652365 168.02315 
L 232.955353 166.414571 
L 235.258445 164.773837 
L 237.008758 163.551344 
L 239.265811 161.974995 
L 241.614943 160.366416 
L 243.319216 159.143923 
L 245.668348 157.503189 
L 247.372621 156.312852 
L 249.675608 154.704273 
L 251.978701 153.095695 
L 253.729013 151.873202 
L 256.032106 150.264623 
L 258.289055 148.688274 
L 259.993328 147.497936 
L 262.296421 145.889358 
L 264.553475 144.313008 
L 266.349826 143.058286 
L 268.652918 141.481937 
L 270.357192 140.259444 
" clip-path="url(#p702efd1296)" style="fill: none; stroke: #d62728; stroke-width: 1.5; stroke-linecap: square"/>
   </g>
   <g id="line2d_21">
    <path d="M 61.238616 285.995062 
L 61.883476 285.512494 
L 63.35744 284.483014 
L 64.555036 283.678734 
L 66.028999 282.681424 
L 67.549024 281.651945 
L 68.838743 280.751151 
L 70.635137 279.496472 
L 72.38547 278.273964 
L 73.721245 277.341002 
L 75.517638 276.118494 
L 77.267972 274.895987 
L 78.603757 273.963017 
L 80.35408 272.772687 
L 82.104413 271.550179 
L 83.486258 270.617209 
L 85.190532 269.394701 
L 86.986925 268.172193 
L 88.3227 267.239231 
L 90.026974 266.016723 
L 91.823367 264.826386 
L 93.159142 263.893423 
L 94.955535 262.638745 
L 96.659809 261.448408 
L 97.995594 260.547616 
L 99.791987 259.292938 
L 101.49625 258.1026 
L 102.832036 257.169638 
L 104.582369 255.9793 
L 106.332702 254.788962 
L 107.668477 253.856 
L 109.418811 252.697832 
L 111.169144 251.507495 
L 112.45887 250.606702 
L 114.117073 249.448535 
L 115.867407 248.226027 
L 117.203192 247.325235 
L 118.907466 246.102727 
L 120.657799 244.912389 
L 122.362073 243.722052 
L 123.697847 242.789082 
L 125.402121 241.598752 
L 126.737896 240.665782 
L 128.44217 239.443274 
L 130.146443 238.285106 
L 131.482218 237.352144 
L 133.186492 236.161806 
L 134.890766 234.971469 
L 136.134421 234.070677 
L 137.884754 232.912509 
L 139.589028 231.690001 
L 140.878743 230.789209 
L 142.629076 229.566701 
L 144.33335 228.376363 
L 145.623065 227.475571 
L 147.419458 226.253063 
L 149.123732 225.062726 
L 150.459517 224.129756 
L 152.163791 222.939426 
L 153.868065 221.749088 
L 155.20385 220.783948 
L 156.908124 219.593611 
L 158.289958 218.692818 
L 159.948162 217.502481 
L 161.652435 216.312143 
L 162.988221 215.347011 
L 164.738575 214.188843 
L 166.442849 212.966365 
L 167.732564 212.065572 
L 169.482876 210.875235 
L 171.18715 209.652741 
L 172.476865 208.784105 
L 174.227177 207.593767 
L 175.516892 206.692975 
L 177.221166 205.534792 
L 178.92544 204.312299 
L 180.169116 203.411507 
L 181.919429 202.189014 
L 183.623702 200.998676 
L 184.913417 200.13004 
L 186.66373 198.907546 
L 188.368003 197.717209 
L 189.703757 196.784188 
L 191.408031 195.59385 
L 192.697746 194.725287 
L 194.448164 193.502794 
L 196.152437 192.312456 
L 197.488191 191.379435 
L 199.146426 190.221326 
L 200.8507 189.030988 
L 202.186453 188.097967 
L 203.844688 186.907629 
L 205.180442 186.006837 
L 206.884716 184.8165 
L 208.58899 183.626162 
L 209.924743 182.72537 
L 211.582978 181.567261 
L 213.333291 180.344694 
L 214.623006 179.443902 
L 216.327279 178.253564 
" clip-path="url(#p702efd1296)" style="fill: none; stroke: #9467bd; stroke-width: 1.5; stroke-linecap: square"/>
   </g>
   <g id="line2d_22">
    <path d="M 59.67253 286.799343 
L 59.948898 286.606316 
L 60.916186 285.962891 
L 61.883476 285.319466 
L 62.574396 284.836898 
L 63.587746 284.12913 
L 64.693219 283.35702 
L 65.660509 282.713596 
L 66.904166 281.909315 
L 68.055701 281.105034 
L 68.976927 280.49378 
L 70.174518 279.6895 
L 71.095755 279.078246 
L 72.24728 278.273964 
L 73.398816 277.501853 
L 74.320043 276.922776 
L 75.471578 276.182835 
L 76.669174 275.410723 
L 77.544341 274.831646 
L 78.695876 274.059535 
L 79.847412 273.255253 
L 80.998948 272.483141 
L 81.920174 271.904057 
L 83.07171 271.131953 
L 83.946877 270.520699 
L 85.098413 269.748587 
L 86.249948 268.976475 
L 87.125115 268.365221 
L 88.276651 267.593117 
L 89.428187 266.821005 
L 90.303353 266.209751 
L 91.454889 265.46981 
L 92.652484 264.665528 
L 93.527651 264.054274 
L 94.633117 263.282169 
L 95.830712 262.510058 
L 96.705879 261.898804 
L 97.857415 261.094522 
L 99.00895 260.32241 
L 99.838057 259.711156 
L 100.989593 258.939052 
L 102.095069 258.16694 
L 103.016296 257.587856 
L 104.167831 256.783574 
L 105.319367 256.011463 
L 106.194523 255.400216 
L 107.392129 254.628104 
L 108.543665 253.823823 
L 109.418821 253.244739 
L 110.570357 252.472627 
L 111.721893 251.668352 
L 112.597059 251.057099 
L 113.748595 250.284987 
L 114.900131 249.512875 
L 115.729227 248.901621 
L 116.880763 248.097339 
L 118.078359 247.325235 
L 118.953525 246.746151 
L 120.059001 245.941869 
L 120.934168 245.362785 
L 122.131764 244.558503 
L 123.23724 243.786399 
L 124.158466 243.142975 
L 125.263931 242.370863 
L 126.369407 241.598752 
L 127.244574 240.987498 
L 128.39611 240.215386 
L 129.271277 239.604139 
L 130.422812 238.832028 
L 131.574348 238.027746 
L 132.449504 237.416492 
L 133.60104 236.64438 
L 134.752576 235.840098 
L 135.627743 235.228852 
L 136.779278 234.45674 
L 137.930814 233.684628 
L 138.805981 233.073374 
L 139.911457 232.301262 
L 140.786613 231.722186 
L 141.938149 230.917904 
L 143.089684 230.145792 
L 143.964851 229.566708 
L 145.116376 228.794597 
L 146.267912 228.022492 
L 147.143079 227.411238 
L 148.294604 226.639134 
L 149.123711 226.09222 
L 150.275247 225.320109 
L 151.380723 224.515834 
L 152.20983 223.93675 
L 153.361355 223.132468 
L 154.512891 222.328194 
L 155.388047 221.74911 
L 156.493523 220.944828 
L 157.645059 220.172716 
L 158.520215 219.561462 
L 159.671751 218.789358 
L 160.500858 218.178104 
L 161.652383 217.405992 
L 162.803919 216.633881 
L 163.679085 216.022627 
" clip-path="url(#p702efd1296)" style="fill: none; stroke: #8c564b; stroke-width: 1.5; stroke-linecap: square"/>
   </g>
   <g id="line2d_23">
    <path d="M 68.792682 281.233719 
L 69.06905 281.137205 
L 69.575721 280.847664 
L 69.94422 280.654637 
L 70.312708 280.429439 
L 70.819376 280.139898 
L 71.372114 279.818188 
L 71.832732 279.560812 
L 72.43153 279.206934 
L 73.030328 278.853048 
L 73.444876 278.56351 
L 74.043674 278.209624 
L 74.642471 277.887909 
L 75.10309 277.59837 
L 75.655828 277.276655 
L 76.254626 276.922776 
L 76.807364 276.53672 
L 77.221912 276.279352 
L 77.82071 275.925466 
L 78.373448 275.603751 
L 78.834056 275.346383 
L 79.386794 274.992504 
L 79.939532 274.638618 
L 80.35408 274.349073 
L 80.906818 274.027365 
L 81.459556 273.673479 
L 82.058354 273.3196 
L 82.472912 273.062225 
L 83.02565 272.708346 
L 83.578388 272.354461 
L 84.038996 272.064922 
L 84.591734 271.711037 
L 85.144472 271.389321 
L 85.559021 271.099783 
L 86.111759 270.745897 
L 86.710556 270.392018 
L 87.263294 270.038133 
L 87.677843 269.748587 
L 88.230581 269.394709 
L 88.829378 269.040823 
L 89.243937 268.783455 
L 89.796664 268.429569 
L 90.395462 268.043513 
L 90.810021 267.753975 
L 91.362759 267.432259 
L 91.915497 267.046203 
L 92.514295 266.692317 
L 92.928843 266.434949 
L 93.481581 266.048893 
L 94.034319 265.695015 
L 94.494927 265.405469 
L 95.047665 265.051584 
L 95.600403 264.665535 
L 96.014951 264.40816 
L 96.613749 264.022104 
L 97.166487 263.668225 
L 97.581046 263.37868 
L 98.179843 263.024794 
L 98.732581 262.638745 
L 99.14713 262.38137 
L 99.745927 261.995314 
L 100.298665 261.641436 
L 100.713214 261.35189 
L 101.312011 260.998012 
L 101.864749 260.644126 
L 102.279298 260.32241 
L 102.832036 260.000702 
L 103.384774 259.614646 
L 103.845392 259.325108 
L 104.39813 258.971222 
L 104.950868 258.617336 
L 105.365416 258.327798 
L 105.964214 257.941742 
L 106.563012 257.587856 
L 106.977571 257.298318 
L 107.530309 256.912262 
L 108.083046 256.558376 
L 108.497595 256.268831 
L 109.050333 255.914952 
L 109.603071 255.561067 
L 110.063689 255.271521 
L 110.616427 254.885465 
L 111.123105 254.531587 
L 111.583713 254.209871 
L 112.136451 253.855985 
L 112.735249 253.502099 
L 113.149808 253.212561 
L 113.656486 252.826505 
L 114.255284 252.47262 
L 114.808022 252.086564 
L 115.26863 251.797025 
L 115.821368 251.41097 
L 116.374106 251.057084 
L 116.788665 250.767538 
L 117.341403 250.381482 
L 117.755951 250.091944 
L 118.354749 249.738058 
L 118.907487 249.384173 
L 119.460225 248.998117 
L 119.874783 248.708578 
" clip-path="url(#p702efd1296)" style="fill: none; stroke: #e377c2; stroke-width: 1.5; stroke-linecap: square"/>
   </g>
   <g id="line2d_24">
    <path d="M 59.02767 287.185398 
L 420.194743 34.930852 
L 420.194743 34.930852 
" clip-path="url(#p702efd1296)" style="fill: none; stroke: #7f7f7f; stroke-width: 1.5; stroke-linecap: square"/>
   </g>
   <g id="patch_3">
    <path d="M 40.603125 299.798125 
L 40.603125 22.318125 
" style="fill: none; stroke: #000000; stroke-width: 0.8; stroke-linejoin: miter; stroke-linecap: square"/>
   </g>
   <g id="patch_4">
    <path d="M 445.943125 299.798125 
L 445.943125 22.318125 
" style="fill: none; stroke: #000000; stroke-width: 0.8; stroke-linejoin: miter; stroke-linecap: square"/>
   </g>
   <g id="patch_5">
    <path d="M 40.603125 299.798125 
L 445.943125 299.798125 
" style="fill: none; stroke: #000000; stroke-width: 0.8; stroke-linejoin: miter; stroke-linecap: square"/>
   </g>
   <g id="patch_6">
    <path d="M 40.603125 22.318125 
L 445.943125 22.318125 
" style="fill: none; stroke: #000000; stroke-width: 0.8; stroke-linejoin: miter; stroke-linecap: square"/>
   </g>
   <g id="text_19">
    <!-- Right Position vs. Left position -->
    <g transform="translate(152.850313 16.318125) scale(0.12 -0.12)">
     <defs>
      <path id="DejaVuSans-76" d="M 191 3500 
L 800 3500 
L 1894 563 
L 2988 3500 
L 3597 3500 
L 2284 0 
L 1503 0 
L 191 3500 
z
" transform="scale(0.015625)"/>
      <path id="DejaVuSans-2e" d="M 684 794 
L 1344 794 
L 1344 0 
L 684 0 
L 684 794 
z
" transform="scale(0.015625)"/>
      <path id="DejaVuSans-70" d="M 1159 525 
L 1159 -1331 
L 581 -1331 
L 581 3500 
L 1159 3500 
L 1159 2969 
Q 1341 3281 1617 3432 
Q 1894 3584 2278 3584 
Q 2916 3584 3314 3078 
Q 3713 2572 3713 1747 
Q 3713 922 3314 415 
Q 2916 -91 2278 -91 
Q 1894 -91 1617 61 
Q 1341 213 1159 525 
z
M 3116 1747 
Q 3116 2381 2855 2742 
Q 2594 3103 2138 3103 
Q 1681 3103 1420 2742 
Q 1159 2381 1159 1747 
Q 1159 1113 1420 752 
Q 1681 391 2138 391 
Q 2594 391 2855 752 
Q 3116 1113 3116 1747 
z
" transform="scale(0.015625)"/>
     </defs>
     <use xlink:href="#DejaVuSans-52"/>
     <use xlink:href="#DejaVuSans-69" transform="translate(69.482422 0)"/>
     <use xlink:href="#DejaVuSans-67" transform="translate(97.265625 0)"/>
     <use xlink:href="#DejaVuSans-68" transform="translate(160.742188 0)"/>
     <use xlink:href="#DejaVuSans-74" transform="translate(224.121094 0)"/>
     <use xlink:href="#DejaVuSans-20" transform="translate(263.330078 0)"/>
     <use xlink:href="#DejaVuSans-50" transform="translate(295.117188 0)"/>
     <use xlink:href="#DejaVuSans-6f" transform="translate(351.794922 0)"/>
     <use xlink:href="#DejaVuSans-73" transform="translate(412.976562 0)"/>
     <use xlink:href="#DejaVuSans-69" transform="translate(465.076172 0)"/>
     <use xlink:href="#DejaVuSans-74" transform="translate(492.859375 0)"/>
     <use xlink:href="#DejaVuSans-69" transform="translate(532.068359 0)"/>
     <use xlink:href="#DejaVuSans-6f" transform="translate(559.851562 0)"/>
     <use xlink:href="#DejaVuSans-6e" transform="translate(621.033203 0)"/>
     <use xlink:href="#DejaVuSans-20" transform="translate(684.412109 0)"/>
     <use xlink:href="#DejaVuSans-76" transform="translate(716.199219 0)"/>
     <use xlink:href="#DejaVuSans-73" transform="translate(775.378906 0)"/>
     <use xlink:href="#DejaVuSans-2e" transform="translate(827.478516 0)"/>
     <use xlink:href="#DejaVuSans-20" transform="translate(859.265625 0)"/>
     <use xlink:href="#DejaVuSans-4c" transform="translate(891.052734 0)"/>
     <use xlink:href="#DejaVuSans-65" transform="translate(945.015625 0)"/>
     <use xlink:href="#DejaVuSans-66" transform="translate(1006.539062 0)"/>
     <use xlink:href="#DejaVuSans-74" transform="translate(1039.994141 0)"/>
     <use xlink:href="#DejaVuSans-20" transform="translate(1079.203125 0)"/>
     <use xlink:href="#DejaVuSans-70" transform="translate(1110.990234 0)"/>
     <use xlink:href="#DejaVuSans-6f" transform="translate(1174.466797 0)"/>
     <use xlink:href="#DejaVuSans-73" transform="translate(1235.648438 0)"/>
     <use xlink:href="#DejaVuSans-69" transform="translate(1287.748047 0)"/>
     <use xlink:href="#DejaVuSans-74" transform="translate(1315.53125 0)"/>
     <use xlink:href="#DejaVuSans-69" transform="translate(1354.740234 0)"/>
     <use xlink:href="#DejaVuSans-6f" transform="translate(1382.523438 0)"/>
     <use xlink:href="#DejaVuSans-6e" transform="translate(1443.705078 0)"/>
    </g>
   </g>
   <g id="legend_1">
    <g id="patch_7">
     <path d="M 322.418125 294.798125 
L 438.943125 294.798125 
Q 440.943125 294.798125 440.943125 292.798125 
L 440.943125 176.373125 
Q 440.943125 174.373125 438.943125 174.373125 
L 322.418125 174.373125 
Q 320.418125 174.373125 320.418125 176.373125 
L 320.418125 292.798125 
Q 320.418125 294.798125 322.418125 294.798125 
z
" style="fill: #ffffff; opacity: 0.8; stroke: #cccccc; stroke-linejoin: miter"/>
    </g>
    <g id="line2d_25">
     <path d="M 324.418125 182.471563 
L 334.418125 182.471563 
L 344.418125 182.471563 
" style="fill: none; stroke: #1f77b4; stroke-width: 1.5; stroke-linecap: square"/>
    </g>
    <g id="text_20">
     <!-- Ref Speed = 595 -->
     <g transform="translate(352.418125 185.971563) scale(0.1 -0.1)">
      <defs>
       <path id="DejaVuSans-53" d="M 3425 4513 
L 3425 3897 
Q 3066 4069 2747 4153 
Q 2428 4238 2131 4238 
Q 1616 4238 1336 4038 
Q 1056 3838 1056 3469 
Q 1056 3159 1242 3001 
Q 1428 2844 1947 2747 
L 2328 2669 
Q 3034 2534 3370 2195 
Q 3706 1856 3706 1288 
Q 3706 609 3251 259 
Q 2797 -91 1919 -91 
Q 1588 -91 1214 -16 
Q 841 59 441 206 
L 441 856 
Q 825 641 1194 531 
Q 1563 422 1919 422 
Q 2459 422 2753 634 
Q 3047 847 3047 1241 
Q 3047 1584 2836 1778 
Q 2625 1972 2144 2069 
L 1759 2144 
Q 1053 2284 737 2584 
Q 422 2884 422 3419 
Q 422 4038 858 4394 
Q 1294 4750 2059 4750 
Q 2388 4750 2728 4690 
Q 3069 4631 3425 4513 
z
" transform="scale(0.015625)"/>
       <path id="DejaVuSans-3d" d="M 678 2906 
L 4684 2906 
L 4684 2381 
L 678 2381 
L 678 2906 
z
M 678 1631 
L 4684 1631 
L 4684 1100 
L 678 1100 
L 678 1631 
z
" transform="scale(0.015625)"/>
       <path id="DejaVuSans-39" d="M 703 97 
L 703 672 
Q 941 559 1184 500 
Q 1428 441 1663 441 
Q 2288 441 2617 861 
Q 2947 1281 2994 2138 
Q 2813 1869 2534 1725 
Q 2256 1581 1919 1581 
Q 1219 1581 811 2004 
Q 403 2428 403 3163 
Q 403 3881 828 4315 
Q 1253 4750 1959 4750 
Q 2769 4750 3195 4129 
Q 3622 3509 3622 2328 
Q 3622 1225 3098 567 
Q 2575 -91 1691 -91 
Q 1453 -91 1209 -44 
Q 966 3 703 97 
z
M 1959 2075 
Q 2384 2075 2632 2365 
Q 2881 2656 2881 3163 
Q 2881 3666 2632 3958 
Q 2384 4250 1959 4250 
Q 1534 4250 1286 3958 
Q 1038 3666 1038 3163 
Q 1038 2656 1286 2365 
Q 1534 2075 1959 2075 
z
" transform="scale(0.015625)"/>
      </defs>
      <use xlink:href="#DejaVuSans-52"/>
      <use xlink:href="#DejaVuSans-65" transform="translate(64.982422 0)"/>
      <use xlink:href="#DejaVuSans-66" transform="translate(126.505859 0)"/>
      <use xlink:href="#DejaVuSans-20" transform="translate(161.710938 0)"/>
      <use xlink:href="#DejaVuSans-53" transform="translate(193.498047 0)"/>
      <use xlink:href="#DejaVuSans-70" transform="translate(256.974609 0)"/>
      <use xlink:href="#DejaVuSans-65" transform="translate(320.451172 0)"/>
      <use xlink:href="#DejaVuSans-65" transform="translate(381.974609 0)"/>
      <use xlink:href="#DejaVuSans-64" transform="translate(443.498047 0)"/>
      <use xlink:href="#DejaVuSans-20" transform="translate(506.974609 0)"/>
      <use xlink:href="#DejaVuSans-3d" transform="translate(538.761719 0)"/>
      <use xlink:href="#DejaVuSans-20" transform="translate(622.550781 0)"/>
      <use xlink:href="#DejaVuSans-35" transform="translate(654.337891 0)"/>
      <use xlink:href="#DejaVuSans-39" transform="translate(717.960938 0)"/>
      <use xlink:href="#DejaVuSans-35" transform="translate(781.583984 0)"/>
     </g>
    </g>
    <g id="line2d_26">
     <path d="M 324.418125 197.149688 
L 334.418125 197.149688 
L 344.418125 197.149688 
" style="fill: none; stroke: #ff7f0e; stroke-width: 1.5; stroke-linecap: square"/>
    </g>
    <g id="text_21">
     <!-- Ref Speed = 510 -->
     <g transform="translate(352.418125 200.649688) scale(0.1 -0.1)">
      <use xlink:href="#DejaVuSans-52"/>
      <use xlink:href="#DejaVuSans-65" transform="translate(64.982422 0)"/>
      <use xlink:href="#DejaVuSans-66" transform="translate(126.505859 0)"/>
      <use xlink:href="#DejaVuSans-20" transform="translate(161.710938 0)"/>
      <use xlink:href="#DejaVuSans-53" transform="translate(193.498047 0)"/>
      <use xlink:href="#DejaVuSans-70" transform="translate(256.974609 0)"/>
      <use xlink:href="#DejaVuSans-65" transform="translate(320.451172 0)"/>
      <use xlink:href="#DejaVuSans-65" transform="translate(381.974609 0)"/>
      <use xlink:href="#DejaVuSans-64" transform="translate(443.498047 0)"/>
      <use xlink:href="#DejaVuSans-20" transform="translate(506.974609 0)"/>
      <use xlink:href="#DejaVuSans-3d" transform="translate(538.761719 0)"/>
      <use xlink:href="#DejaVuSans-20" transform="translate(622.550781 0)"/>
      <use xlink:href="#DejaVuSans-35" transform="translate(654.337891 0)"/>
      <use xlink:href="#DejaVuSans-31" transform="translate(717.960938 0)"/>
      <use xlink:href="#DejaVuSans-30" transform="translate(781.583984 0)"/>
     </g>
    </g>
    <g id="line2d_27">
     <path d="M 324.418125 211.827813 
L 334.418125 211.827813 
L 344.418125 211.827813 
" style="fill: none; stroke: #2ca02c; stroke-width: 1.5; stroke-linecap: square"/>
    </g>
    <g id="text_22">
     <!-- Ref Speed = 425 -->
     <g transform="translate(352.418125 215.327813) scale(0.1 -0.1)">
      <defs>
       <path id="DejaVuSans-34" d="M 2419 4116 
L 825 1625 
L 2419 1625 
L 2419 4116 
z
M 2253 4666 
L 3047 4666 
L 3047 1625 
L 3713 1625 
L 3713 1100 
L 3047 1100 
L 3047 0 
L 2419 0 
L 2419 1100 
L 313 1100 
L 313 1709 
L 2253 4666 
z
" transform="scale(0.015625)"/>
      </defs>
      <use xlink:href="#DejaVuSans-52"/>
      <use xlink:href="#DejaVuSans-65" transform="translate(64.982422 0)"/>
      <use xlink:href="#DejaVuSans-66" transform="translate(126.505859 0)"/>
      <use xlink:href="#DejaVuSans-20" transform="translate(161.710938 0)"/>
      <use xlink:href="#DejaVuSans-53" transform="translate(193.498047 0)"/>
      <use xlink:href="#DejaVuSans-70" transform="translate(256.974609 0)"/>
      <use xlink:href="#DejaVuSans-65" transform="translate(320.451172 0)"/>
      <use xlink:href="#DejaVuSans-65" transform="translate(381.974609 0)"/>
      <use xlink:href="#DejaVuSans-64" transform="translate(443.498047 0)"/>
      <use xlink:href="#DejaVuSans-20" transform="translate(506.974609 0)"/>
      <use xlink:href="#DejaVuSans-3d" transform="translate(538.761719 0)"/>
      <use xlink:href="#DejaVuSans-20" transform="translate(622.550781 0)"/>
      <use xlink:href="#DejaVuSans-34" transform="translate(654.337891 0)"/>
      <use xlink:href="#DejaVuSans-32" transform="translate(717.960938 0)"/>
      <use xlink:href="#DejaVuSans-35" transform="translate(781.583984 0)"/>
     </g>
    </g>
    <g id="line2d_28">
     <path d="M 324.418125 226.505938 
L 334.418125 226.505938 
L 344.418125 226.505938 
" style="fill: none; stroke: #d62728; stroke-width: 1.5; stroke-linecap: square"/>
    </g>
    <g id="text_23">
     <!-- Ref Speed = 340 -->
     <g transform="translate(352.418125 230.005938) scale(0.1 -0.1)">
      <use xlink:href="#DejaVuSans-52"/>
      <use xlink:href="#DejaVuSans-65" transform="translate(64.982422 0)"/>
      <use xlink:href="#DejaVuSans-66" transform="translate(126.505859 0)"/>
      <use xlink:href="#DejaVuSans-20" transform="translate(161.710938 0)"/>
      <use xlink:href="#DejaVuSans-53" transform="translate(193.498047 0)"/>
      <use xlink:href="#DejaVuSans-70" transform="translate(256.974609 0)"/>
      <use xlink:href="#DejaVuSans-65" transform="translate(320.451172 0)"/>
      <use xlink:href="#DejaVuSans-65" transform="translate(381.974609 0)"/>
      <use xlink:href="#DejaVuSans-64" transform="translate(443.498047 0)"/>
      <use xlink:href="#DejaVuSans-20" transform="translate(506.974609 0)"/>
      <use xlink:href="#DejaVuSans-3d" transform="translate(538.761719 0)"/>
      <use xlink:href="#DejaVuSans-20" transform="translate(622.550781 0)"/>
      <use xlink:href="#DejaVuSans-33" transform="translate(654.337891 0)"/>
      <use xlink:href="#DejaVuSans-34" transform="translate(717.960938 0)"/>
      <use xlink:href="#DejaVuSans-30" transform="translate(781.583984 0)"/>
     </g>
    </g>
    <g id="line2d_29">
     <path d="M 324.418125 241.184063 
L 334.418125 241.184063 
L 344.418125 241.184063 
" style="fill: none; stroke: #9467bd; stroke-width: 1.5; stroke-linecap: square"/>
    </g>
    <g id="text_24">
     <!-- Ref Speed = 255 -->
     <g transform="translate(352.418125 244.684063) scale(0.1 -0.1)">
      <use xlink:href="#DejaVuSans-52"/>
      <use xlink:href="#DejaVuSans-65" transform="translate(64.982422 0)"/>
      <use xlink:href="#DejaVuSans-66" transform="translate(126.505859 0)"/>
      <use xlink:href="#DejaVuSans-20" transform="translate(161.710938 0)"/>
      <use xlink:href="#DejaVuSans-53" transform="translate(193.498047 0)"/>
      <use xlink:href="#DejaVuSans-70" transform="translate(256.974609 0)"/>
      <use xlink:href="#DejaVuSans-65" transform="translate(320.451172 0)"/>
      <use xlink:href="#DejaVuSans-65" transform="translate(381.974609 0)"/>
      <use xlink:href="#DejaVuSans-64" transform="translate(443.498047 0)"/>
      <use xlink:href="#DejaVuSans-20" transform="translate(506.974609 0)"/>
      <use xlink:href="#DejaVuSans-3d" transform="translate(538.761719 0)"/>
      <use xlink:href="#DejaVuSans-20" transform="translate(622.550781 0)"/>
      <use xlink:href="#DejaVuSans-32" transform="translate(654.337891 0)"/>
      <use xlink:href="#DejaVuSans-35" transform="translate(717.960938 0)"/>
      <use xlink:href="#DejaVuSans-35" transform="translate(781.583984 0)"/>
     </g>
    </g>
    <g id="line2d_30">
     <path d="M 324.418125 255.862188 
L 334.418125 255.862188 
L 344.418125 255.862188 
" style="fill: none; stroke: #8c564b; stroke-width: 1.5; stroke-linecap: square"/>
    </g>
    <g id="text_25">
     <!-- Ref Speed = 170 -->
     <g transform="translate(352.418125 259.362188) scale(0.1 -0.1)">
      <defs>
       <path id="DejaVuSans-37" d="M 525 4666 
L 3525 4666 
L 3525 4397 
L 1831 0 
L 1172 0 
L 2766 4134 
L 525 4134 
L 525 4666 
z
" transform="scale(0.015625)"/>
      </defs>
      <use xlink:href="#DejaVuSans-52"/>
      <use xlink:href="#DejaVuSans-65" transform="translate(64.982422 0)"/>
      <use xlink:href="#DejaVuSans-66" transform="translate(126.505859 0)"/>
      <use xlink:href="#DejaVuSans-20" transform="translate(161.710938 0)"/>
      <use xlink:href="#DejaVuSans-53" transform="translate(193.498047 0)"/>
      <use xlink:href="#DejaVuSans-70" transform="translate(256.974609 0)"/>
      <use xlink:href="#DejaVuSans-65" transform="translate(320.451172 0)"/>
      <use xlink:href="#DejaVuSans-65" transform="translate(381.974609 0)"/>
      <use xlink:href="#DejaVuSans-64" transform="translate(443.498047 0)"/>
      <use xlink:href="#DejaVuSans-20" transform="translate(506.974609 0)"/>
      <use xlink:href="#DejaVuSans-3d" transform="translate(538.761719 0)"/>
      <use xlink:href="#DejaVuSans-20" transform="translate(622.550781 0)"/>
      <use xlink:href="#DejaVuSans-31" transform="translate(654.337891 0)"/>
      <use xlink:href="#DejaVuSans-37" transform="translate(717.960938 0)"/>
      <use xlink:href="#DejaVuSans-30" transform="translate(781.583984 0)"/>
     </g>
    </g>
    <g id="line2d_31">
     <path d="M 324.418125 270.540313 
L 334.418125 270.540313 
L 344.418125 270.540313 
" style="fill: none; stroke: #e377c2; stroke-width: 1.5; stroke-linecap: square"/>
    </g>
    <g id="text_26">
     <!-- Ref Speed = 85 -->
     <g transform="translate(352.418125 274.040313) scale(0.1 -0.1)">
      <defs>
       <path id="DejaVuSans-38" d="M 2034 2216 
Q 1584 2216 1326 1975 
Q 1069 1734 1069 1313 
Q 1069 891 1326 650 
Q 1584 409 2034 409 
Q 2484 409 2743 651 
Q 3003 894 3003 1313 
Q 3003 1734 2745 1975 
Q 2488 2216 2034 2216 
z
M 1403 2484 
Q 997 2584 770 2862 
Q 544 3141 544 3541 
Q 544 4100 942 4425 
Q 1341 4750 2034 4750 
Q 2731 4750 3128 4425 
Q 3525 4100 3525 3541 
Q 3525 3141 3298 2862 
Q 3072 2584 2669 2484 
Q 3125 2378 3379 2068 
Q 3634 1759 3634 1313 
Q 3634 634 3220 271 
Q 2806 -91 2034 -91 
Q 1263 -91 848 271 
Q 434 634 434 1313 
Q 434 1759 690 2068 
Q 947 2378 1403 2484 
z
M 1172 3481 
Q 1172 3119 1398 2916 
Q 1625 2713 2034 2713 
Q 2441 2713 2670 2916 
Q 2900 3119 2900 3481 
Q 2900 3844 2670 4047 
Q 2441 4250 2034 4250 
Q 1625 4250 1398 4047 
Q 1172 3844 1172 3481 
z
" transform="scale(0.015625)"/>
      </defs>
      <use xlink:href="#DejaVuSans-52"/>
      <use xlink:href="#DejaVuSans-65" transform="translate(64.982422 0)"/>
      <use xlink:href="#DejaVuSans-66" transform="translate(126.505859 0)"/>
      <use xlink:href="#DejaVuSans-20" transform="translate(161.710938 0)"/>
      <use xlink:href="#DejaVuSans-53" transform="translate(193.498047 0)"/>
      <use xlink:href="#DejaVuSans-70" transform="translate(256.974609 0)"/>
      <use xlink:href="#DejaVuSans-65" transform="translate(320.451172 0)"/>
      <use xlink:href="#DejaVuSans-65" transform="translate(381.974609 0)"/>
      <use xlink:href="#DejaVuSans-64" transform="translate(443.498047 0)"/>
      <use xlink:href="#DejaVuSans-20" transform="translate(506.974609 0)"/>
      <use xlink:href="#DejaVuSans-3d" transform="translate(538.761719 0)"/>
      <use xlink:href="#DejaVuSans-20" transform="translate(622.550781 0)"/>
      <use xlink:href="#DejaVuSans-38" transform="translate(654.337891 0)"/>
      <use xlink:href="#DejaVuSans-35" transform="translate(717.960938 0)"/>
     </g>
    </g>
    <g id="line2d_32">
     <path d="M 324.418125 285.218438 
L 334.418125 285.218438 
L 344.418125 285.218438 
" style="fill: none; stroke: #7f7f7f; stroke-width: 1.5; stroke-linecap: square"/>
    </g>
    <g id="text_27">
     <!-- y = x -->
     <g transform="translate(352.418125 288.718438) scale(0.1 -0.1)">
      <defs>
       <path id="DejaVuSans-79" d="M 2059 -325 
Q 1816 -950 1584 -1140 
Q 1353 -1331 966 -1331 
L 506 -1331 
L 506 -850 
L 844 -850 
Q 1081 -850 1212 -737 
Q 1344 -625 1503 -206 
L 1606 56 
L 191 3500 
L 800 3500 
L 1894 763 
L 2988 3500 
L 3597 3500 
L 2059 -325 
z
" transform="scale(0.015625)"/>
       <path id="DejaVuSans-78" d="M 3513 3500 
L 2247 1797 
L 3578 0 
L 2900 0 
L 1881 1375 
L 863 0 
L 184 0 
L 1544 1831 
L 300 3500 
L 978 3500 
L 1906 2253 
L 2834 3500 
L 3513 3500 
z
" transform="scale(0.015625)"/>
      </defs>
      <use xlink:href="#DejaVuSans-79"/>
      <use xlink:href="#DejaVuSans-20" transform="translate(59.179688 0)"/>
      <use xlink:href="#DejaVuSans-3d" transform="translate(90.966797 0)"/>
      <use xlink:href="#DejaVuSans-20" transform="translate(174.755859 0)"/>
      <use xlink:href="#DejaVuSans-78" transform="translate(206.542969 0)"/>
     </g>
    </g>
   </g>
  </g>
 </g>
 <defs>
  <clipPath id="p702efd1296">
   <rect x="40.603125" y="22.318125" width="405.34" height="277.48"/>
  </clipPath>
 </defs>
</svg>
