<?xml version="1.0" encoding="utf-8" standalone="no"?>
<!DOCTYPE svg PUBLIC "-//W3C//DTD SVG 1.1//EN"
  "http://www.w3.org/Graphics/SVG/1.1/DTD/svg11.dtd">
<svg xmlns:xlink="http://www.w3.org/1999/xlink" width="453.115625pt" height="337.354375pt" viewBox="0 0 453.115625 337.354375" xmlns="http://www.w3.org/2000/svg" version="1.1">
 <metadata>
  <rdf:RDF xmlns:dc="http://purl.org/dc/elements/1.1/" xmlns:cc="http://creativecommons.org/ns#" xmlns:rdf="http://www.w3.org/1999/02/22-rdf-syntax-ns#">
   <cc:Work>
    <dc:type rdf:resource="http://purl.org/dc/dcmitype/StillImage"/>
    <dc:date>2025-10-29T21:18:59.393884</dc:date>
    <dc:format>image/svg+xml</dc:format>
    <dc:creator>
     <cc:Agent>
      <dc:title>Matplotlib v3.10.6, https://matplotlib.org/</dc:title>
     </cc:Agent>
    </dc:creator>
   </cc:Work>
  </rdf:RDF>
 </metadata>
 <defs>
  <style type="text/css">*{stroke-linejoin: round; stroke-linecap: butt}</style>
 </defs>
 <g id="figure_1">
  <g id="patch_1">
   <path d="M 0 337.354375 
L 453.115625 337.354375 
L 453.115625 0 
L 0 0 
z
" style="fill: #ffffff"/>
  </g>
  <g id="axes_1">
   <g id="patch_2">
    <path d="M 46.965625 299.798125 
L 445.915625 299.798125 
L 445.915625 22.318125 
L 46.965625 22.318125 
z
" style="fill: #ffffff"/>
   </g>
   <g id="matplotlib.axis_1">
    <g id="xtick_1">
     <g id="line2d_1">
      <defs>
       <path id="mb9dc4675c7" d="M 0 0 
L 0 3.5 
" style="stroke: #000000; stroke-width: 0.8"/>
      </defs>
      <g>
       <use xlink:href="#mb9dc4675c7" x="64.89192" y="299.798125" style="stroke: #000000; stroke-width: 0.8"/>
      </g>
     </g>
     <g id="text_1">
      <!-- 0.00 -->
      <g transform="translate(53.759107 314.396563) scale(0.1 -0.1)">
       <defs>
        <path id="DejaVuSans-30" d="M 2034 4250 
Q 1547 4250 1301 3770 
Q 1056 3291 1056 2328 
Q 1056 1369 1301 889 
Q 1547 409 2034 409 
Q 2525 409 2770 889 
Q 3016 1369 3016 2328 
Q 3016 3291 2770 3770 
Q 2525 4250 2034 4250 
z
M 2034 4750 
Q 2819 4750 3233 4129 
Q 3647 3509 3647 2328 
Q 3647 1150 3233 529 
Q 2819 -91 2034 -91 
Q 1250 -91 836 529 
Q 422 1150 422 2328 
Q 422 3509 836 4129 
Q 1250 4750 2034 4750 
z
" transform="scale(0.015625)"/>
        <path id="DejaVuSans-2e" d="M 684 794 
L 1344 794 
L 1344 0 
L 684 0 
L 684 794 
z
" transform="scale(0.015625)"/>
       </defs>
       <use xlink:href="#DejaVuSans-30"/>
       <use xlink:href="#DejaVuSans-2e" transform="translate(63.623047 0)"/>
       <use xlink:href="#DejaVuSans-30" transform="translate(95.410156 0)"/>
       <use xlink:href="#DejaVuSans-30" transform="translate(159.033203 0)"/>
      </g>
     </g>
    </g>
    <g id="xtick_2">
     <g id="line2d_2">
      <g>
       <use xlink:href="#mb9dc4675c7" x="110.301915" y="299.798125" style="stroke: #000000; stroke-width: 0.8"/>
      </g>
     </g>
     <g id="text_2">
      <!-- 0.25 -->
      <g transform="translate(99.169102 314.396563) scale(0.1 -0.1)">
       <defs>
        <path id="DejaVuSans-32" d="M 1228 531 
L 3431 531 
L 3431 0 
L 469 0 
L 469 531 
Q 828 903 1448 1529 
Q 2069 2156 2228 2338 
Q 2531 2678 2651 2914 
Q 2772 3150 2772 3378 
Q 2772 3750 2511 3984 
Q 2250 4219 1831 4219 
Q 1534 4219 1204 4116 
Q 875 4013 500 3803 
L 500 4441 
Q 881 4594 1212 4672 
Q 1544 4750 1819 4750 
Q 2544 4750 2975 4387 
Q 3406 4025 3406 3419 
Q 3406 3131 3298 2873 
Q 3191 2616 2906 2266 
Q 2828 2175 2409 1742 
Q 1991 1309 1228 531 
z
" transform="scale(0.015625)"/>
        <path id="DejaVuSans-35" d="M 691 4666 
L 3169 4666 
L 3169 4134 
L 1269 4134 
L 1269 2991 
Q 1406 3038 1543 3061 
Q 1681 3084 1819 3084 
Q 2600 3084 3056 2656 
Q 3513 2228 3513 1497 
Q 3513 744 3044 326 
Q 2575 -91 1722 -91 
Q 1428 -91 1123 -41 
Q 819 9 494 109 
L 494 744 
Q 775 591 1075 516 
Q 1375 441 1709 441 
Q 2250 441 2565 725 
Q 2881 1009 2881 1497 
Q 2881 1984 2565 2268 
Q 2250 2553 1709 2553 
Q 1456 2553 1204 2497 
Q 953 2441 691 2322 
L 691 4666 
z
" transform="scale(0.015625)"/>
       </defs>
       <use xlink:href="#DejaVuSans-30"/>
       <use xlink:href="#DejaVuSans-2e" transform="translate(63.623047 0)"/>
       <use xlink:href="#DejaVuSans-32" transform="translate(95.410156 0)"/>
       <use xlink:href="#DejaVuSans-35" transform="translate(159.033203 0)"/>
      </g>
     </g>
    </g>
    <g id="xtick_3">
     <g id="line2d_3">
      <g>
       <use xlink:href="#mb9dc4675c7" x="155.711909" y="299.798125" style="stroke: #000000; stroke-width: 0.8"/>
      </g>
     </g>
     <g id="text_3">
      <!-- 0.50 -->
      <g transform="translate(144.579097 314.396563) scale(0.1 -0.1)">
       <use xlink:href="#DejaVuSans-30"/>
       <use xlink:href="#DejaVuSans-2e" transform="translate(63.623047 0)"/>
       <use xlink:href="#DejaVuSans-35" transform="translate(95.410156 0)"/>
       <use xlink:href="#DejaVuSans-30" transform="translate(159.033203 0)"/>
      </g>
     </g>
    </g>
    <g id="xtick_4">
     <g id="line2d_4">
      <g>
       <use xlink:href="#mb9dc4675c7" x="201.121904" y="299.798125" style="stroke: #000000; stroke-width: 0.8"/>
      </g>
     </g>
     <g id="text_4">
      <!-- 0.75 -->
      <g transform="translate(189.989092 314.396563) scale(0.1 -0.1)">
       <defs>
        <path id="DejaVuSans-37" d="M 525 4666 
L 3525 4666 
L 3525 4397 
L 1831 0 
L 1172 0 
L 2766 4134 
L 525 4134 
L 525 4666 
z
" transform="scale(0.015625)"/>
       </defs>
       <use xlink:href="#DejaVuSans-30"/>
       <use xlink:href="#DejaVuSans-2e" transform="translate(63.623047 0)"/>
       <use xlink:href="#DejaVuSans-37" transform="translate(95.410156 0)"/>
       <use xlink:href="#DejaVuSans-35" transform="translate(159.033203 0)"/>
      </g>
     </g>
    </g>
    <g id="xtick_5">
     <g id="line2d_5">
      <g>
       <use xlink:href="#mb9dc4675c7" x="246.531899" y="299.798125" style="stroke: #000000; stroke-width: 0.8"/>
      </g>
     </g>
     <g id="text_5">
      <!-- 1.00 -->
      <g transform="translate(235.399087 314.396563) scale(0.1 -0.1)">
       <defs>
        <path id="DejaVuSans-31" d="M 794 531 
L 1825 531 
L 1825 4091 
L 703 3866 
L 703 4441 
L 1819 4666 
L 2450 4666 
L 2450 531 
L 3481 531 
L 3481 0 
L 794 0 
L 794 531 
z
" transform="scale(0.015625)"/>
       </defs>
       <use xlink:href="#DejaVuSans-31"/>
       <use xlink:href="#DejaVuSans-2e" transform="translate(63.623047 0)"/>
       <use xlink:href="#DejaVuSans-30" transform="translate(95.410156 0)"/>
       <use xlink:href="#DejaVuSans-30" transform="translate(159.033203 0)"/>
      </g>
     </g>
    </g>
    <g id="xtick_6">
     <g id="line2d_6">
      <g>
       <use xlink:href="#mb9dc4675c7" x="291.941894" y="299.798125" style="stroke: #000000; stroke-width: 0.8"/>
      </g>
     </g>
     <g id="text_6">
      <!-- 1.25 -->
      <g transform="translate(280.809081 314.396563) scale(0.1 -0.1)">
       <use xlink:href="#DejaVuSans-31"/>
       <use xlink:href="#DejaVuSans-2e" transform="translate(63.623047 0)"/>
       <use xlink:href="#DejaVuSans-32" transform="translate(95.410156 0)"/>
       <use xlink:href="#DejaVuSans-35" transform="translate(159.033203 0)"/>
      </g>
     </g>
    </g>
    <g id="xtick_7">
     <g id="line2d_7">
      <g>
       <use xlink:href="#mb9dc4675c7" x="337.351889" y="299.798125" style="stroke: #000000; stroke-width: 0.8"/>
      </g>
     </g>
     <g id="text_7">
      <!-- 1.50 -->
      <g transform="translate(326.219076 314.396563) scale(0.1 -0.1)">
       <use xlink:href="#DejaVuSans-31"/>
       <use xlink:href="#DejaVuSans-2e" transform="translate(63.623047 0)"/>
       <use xlink:href="#DejaVuSans-35" transform="translate(95.410156 0)"/>
       <use xlink:href="#DejaVuSans-30" transform="translate(159.033203 0)"/>
      </g>
     </g>
    </g>
    <g id="xtick_8">
     <g id="line2d_8">
      <g>
       <use xlink:href="#mb9dc4675c7" x="382.761884" y="299.798125" style="stroke: #000000; stroke-width: 0.8"/>
      </g>
     </g>
     <g id="text_8">
      <!-- 1.75 -->
      <g transform="translate(371.629071 314.396563) scale(0.1 -0.1)">
       <use xlink:href="#DejaVuSans-31"/>
       <use xlink:href="#DejaVuSans-2e" transform="translate(63.623047 0)"/>
       <use xlink:href="#DejaVuSans-37" transform="translate(95.410156 0)"/>
       <use xlink:href="#DejaVuSans-35" transform="translate(159.033203 0)"/>
      </g>
     </g>
    </g>
    <g id="xtick_9">
     <g id="line2d_9">
      <g>
       <use xlink:href="#mb9dc4675c7" x="428.171878" y="299.798125" style="stroke: #000000; stroke-width: 0.8"/>
      </g>
     </g>
     <g id="text_9">
      <!-- 2.00 -->
      <g transform="translate(417.039066 314.396563) scale(0.1 -0.1)">
       <use xlink:href="#DejaVuSans-32"/>
       <use xlink:href="#DejaVuSans-2e" transform="translate(63.623047 0)"/>
       <use xlink:href="#DejaVuSans-30" transform="translate(95.410156 0)"/>
       <use xlink:href="#DejaVuSans-30" transform="translate(159.033203 0)"/>
      </g>
     </g>
    </g>
    <g id="text_10">
     <!-- time, t (us) -->
     <g transform="translate(218.742188 328.074688) scale(0.1 -0.1)">
      <defs>
       <path id="DejaVuSans-74" d="M 1172 4494 
L 1172 3500 
L 2356 3500 
L 2356 3053 
L 1172 3053 
L 1172 1153 
Q 1172 725 1289 603 
Q 1406 481 1766 481 
L 2356 481 
L 2356 0 
L 1766 0 
Q 1100 0 847 248 
Q 594 497 594 1153 
L 594 3053 
L 172 3053 
L 172 3500 
L 594 3500 
L 594 4494 
L 1172 4494 
z
" transform="scale(0.015625)"/>
       <path id="DejaVuSans-69" d="M 603 3500 
L 1178 3500 
L 1178 0 
L 603 0 
L 603 3500 
z
M 603 4863 
L 1178 4863 
L 1178 4134 
L 603 4134 
L 603 4863 
z
" transform="scale(0.015625)"/>
       <path id="DejaVuSans-6d" d="M 3328 2828 
Q 3544 3216 3844 3400 
Q 4144 3584 4550 3584 
Q 5097 3584 5394 3201 
Q 5691 2819 5691 2113 
L 5691 0 
L 5113 0 
L 5113 2094 
Q 5113 2597 4934 2840 
Q 4756 3084 4391 3084 
Q 3944 3084 3684 2787 
Q 3425 2491 3425 1978 
L 3425 0 
L 2847 0 
L 2847 2094 
Q 2847 2600 2669 2842 
Q 2491 3084 2119 3084 
Q 1678 3084 1418 2786 
Q 1159 2488 1159 1978 
L 1159 0 
L 581 0 
L 581 3500 
L 1159 3500 
L 1159 2956 
Q 1356 3278 1631 3431 
Q 1906 3584 2284 3584 
Q 2666 3584 2933 3390 
Q 3200 3197 3328 2828 
z
" transform="scale(0.015625)"/>
       <path id="DejaVuSans-65" d="M 3597 1894 
L 3597 1613 
L 953 1613 
Q 991 1019 1311 708 
Q 1631 397 2203 397 
Q 2534 397 2845 478 
Q 3156 559 3463 722 
L 3463 178 
Q 3153 47 2828 -22 
Q 2503 -91 2169 -91 
Q 1331 -91 842 396 
Q 353 884 353 1716 
Q 353 2575 817 3079 
Q 1281 3584 2069 3584 
Q 2775 3584 3186 3129 
Q 3597 2675 3597 1894 
z
M 3022 2063 
Q 3016 2534 2758 2815 
Q 2500 3097 2075 3097 
Q 1594 3097 1305 2825 
Q 1016 2553 972 2059 
L 3022 2063 
z
" transform="scale(0.015625)"/>
       <path id="DejaVuSans-2c" d="M 750 794 
L 1409 794 
L 1409 256 
L 897 -744 
L 494 -744 
L 750 256 
L 750 794 
z
" transform="scale(0.015625)"/>
       <path id="DejaVuSans-20" transform="scale(0.015625)"/>
       <path id="DejaVuSans-28" d="M 1984 4856 
Q 1566 4138 1362 3434 
Q 1159 2731 1159 2009 
Q 1159 1288 1364 580 
Q 1569 -128 1984 -844 
L 1484 -844 
Q 1016 -109 783 600 
Q 550 1309 550 2009 
Q 550 2706 781 3412 
Q 1013 4119 1484 4856 
L 1984 4856 
z
" transform="scale(0.015625)"/>
       <path id="DejaVuSans-75" d="M 544 1381 
L 544 3500 
L 1119 3500 
L 1119 1403 
Q 1119 906 1312 657 
Q 1506 409 1894 409 
Q 2359 409 2629 706 
Q 2900 1003 2900 1516 
L 2900 3500 
L 3475 3500 
L 3475 0 
L 2900 0 
L 2900 538 
Q 2691 219 2414 64 
Q 2138 -91 1772 -91 
Q 1169 -91 856 284 
Q 544 659 544 1381 
z
M 1991 3584 
L 1991 3584 
z
" transform="scale(0.015625)"/>
       <path id="DejaVuSans-73" d="M 2834 3397 
L 2834 2853 
Q 2591 2978 2328 3040 
Q 2066 3103 1784 3103 
Q 1356 3103 1142 2972 
Q 928 2841 928 2578 
Q 928 2378 1081 2264 
Q 1234 2150 1697 2047 
L 1894 2003 
Q 2506 1872 2764 1633 
Q 3022 1394 3022 966 
Q 3022 478 2636 193 
Q 2250 -91 1575 -91 
Q 1294 -91 989 -36 
Q 684 19 347 128 
L 347 722 
Q 666 556 975 473 
Q 1284 391 1588 391 
Q 1994 391 2212 530 
Q 2431 669 2431 922 
Q 2431 1156 2273 1281 
Q 2116 1406 1581 1522 
L 1381 1569 
Q 847 1681 609 1914 
Q 372 2147 372 2553 
Q 372 3047 722 3315 
Q 1072 3584 1716 3584 
Q 2034 3584 2315 3537 
Q 2597 3491 2834 3397 
z
" transform="scale(0.015625)"/>
       <path id="DejaVuSans-29" d="M 513 4856 
L 1013 4856 
Q 1481 4119 1714 3412 
Q 1947 2706 1947 2009 
Q 1947 1309 1714 600 
Q 1481 -109 1013 -844 
L 513 -844 
Q 928 -128 1133 580 
Q 1338 1288 1338 2009 
Q 1338 2731 1133 3434 
Q 928 4138 513 4856 
z
" transform="scale(0.015625)"/>
      </defs>
      <use xlink:href="#DejaVuSans-74"/>
      <use xlink:href="#DejaVuSans-69" transform="translate(39.208984 0)"/>
      <use xlink:href="#DejaVuSans-6d" transform="translate(66.992188 0)"/>
      <use xlink:href="#DejaVuSans-65" transform="translate(164.404297 0)"/>
      <use xlink:href="#DejaVuSans-2c" transform="translate(225.927734 0)"/>
      <use xlink:href="#DejaVuSans-20" transform="translate(257.714844 0)"/>
      <use xlink:href="#DejaVuSans-74" transform="translate(289.501953 0)"/>
      <use xlink:href="#DejaVuSans-20" transform="translate(328.710938 0)"/>
      <use xlink:href="#DejaVuSans-28" transform="translate(360.498047 0)"/>
      <use xlink:href="#DejaVuSans-75" transform="translate(399.511719 0)"/>
      <use xlink:href="#DejaVuSans-73" transform="translate(462.890625 0)"/>
      <use xlink:href="#DejaVuSans-29" transform="translate(514.990234 0)"/>
     </g>
    </g>
    <g id="text_11">
     <!-- 1e6 -->
     <g transform="translate(427.0375 327.074688) scale(0.1 -0.1)">
      <defs>
       <path id="DejaVuSans-36" d="M 2113 2584 
Q 1688 2584 1439 2293 
Q 1191 2003 1191 1497 
Q 1191 994 1439 701 
Q 1688 409 2113 409 
Q 2538 409 2786 701 
Q 3034 994 3034 1497 
Q 3034 2003 2786 2293 
Q 2538 2584 2113 2584 
z
M 3366 4563 
L 3366 3988 
Q 3128 4100 2886 4159 
Q 2644 4219 2406 4219 
Q 1781 4219 1451 3797 
Q 1122 3375 1075 2522 
Q 1259 2794 1537 2939 
Q 1816 3084 2150 3084 
Q 2853 3084 3261 2657 
Q 3669 2231 3669 1497 
Q 3669 778 3244 343 
Q 2819 -91 2113 -91 
Q 1303 -91 875 529 
Q 447 1150 447 2328 
Q 447 3434 972 4092 
Q 1497 4750 2381 4750 
Q 2619 4750 2861 4703 
Q 3103 4656 3366 4563 
z
" transform="scale(0.015625)"/>
      </defs>
      <use xlink:href="#DejaVuSans-31"/>
      <use xlink:href="#DejaVuSans-65" transform="translate(63.623047 0)"/>
      <use xlink:href="#DejaVuSans-36" transform="translate(125.146484 0)"/>
     </g>
    </g>
   </g>
   <g id="matplotlib.axis_2">
    <g id="ytick_1">
     <g id="line2d_10">
      <defs>
       <path id="m178f9f565e" d="M 0 0 
L -3.5 0 
" style="stroke: #000000; stroke-width: 0.8"/>
      </defs>
      <g>
       <use xlink:href="#m178f9f565e" x="46.965625" y="287.185398" style="stroke: #000000; stroke-width: 0.8"/>
      </g>
     </g>
     <g id="text_12">
      <!-- 0 -->
      <g transform="translate(33.603125 290.984616) scale(0.1 -0.1)">
       <use xlink:href="#DejaVuSans-30"/>
      </g>
     </g>
    </g>
    <g id="ytick_2">
     <g id="line2d_11">
      <g>
       <use xlink:href="#m178f9f565e" x="46.965625" y="247.708943" style="stroke: #000000; stroke-width: 0.8"/>
      </g>
     </g>
     <g id="text_13">
      <!-- 100 -->
      <g transform="translate(20.878125 251.508162) scale(0.1 -0.1)">
       <use xlink:href="#DejaVuSans-31"/>
       <use xlink:href="#DejaVuSans-30" transform="translate(63.623047 0)"/>
       <use xlink:href="#DejaVuSans-30" transform="translate(127.246094 0)"/>
      </g>
     </g>
    </g>
    <g id="ytick_3">
     <g id="line2d_12">
      <g>
       <use xlink:href="#m178f9f565e" x="46.965625" y="208.232488" style="stroke: #000000; stroke-width: 0.8"/>
      </g>
     </g>
     <g id="text_14">
      <!-- 200 -->
      <g transform="translate(20.878125 212.031707) scale(0.1 -0.1)">
       <use xlink:href="#DejaVuSans-32"/>
       <use xlink:href="#DejaVuSans-30" transform="translate(63.623047 0)"/>
       <use xlink:href="#DejaVuSans-30" transform="translate(127.246094 0)"/>
      </g>
     </g>
    </g>
    <g id="ytick_4">
     <g id="line2d_13">
      <g>
       <use xlink:href="#m178f9f565e" x="46.965625" y="168.756034" style="stroke: #000000; stroke-width: 0.8"/>
      </g>
     </g>
     <g id="text_15">
      <!-- 300 -->
      <g transform="translate(20.878125 172.555252) scale(0.1 -0.1)">
       <defs>
        <path id="DejaVuSans-33" d="M 2597 2516 
Q 3050 2419 3304 2112 
Q 3559 1806 3559 1356 
Q 3559 666 3084 287 
Q 2609 -91 1734 -91 
Q 1441 -91 1130 -33 
Q 819 25 488 141 
L 488 750 
Q 750 597 1062 519 
Q 1375 441 1716 441 
Q 2309 441 2620 675 
Q 2931 909 2931 1356 
Q 2931 1769 2642 2001 
Q 2353 2234 1838 2234 
L 1294 2234 
L 1294 2753 
L 1863 2753 
Q 2328 2753 2575 2939 
Q 2822 3125 2822 3475 
Q 2822 3834 2567 4026 
Q 2313 4219 1838 4219 
Q 1578 4219 1281 4162 
Q 984 4106 628 3988 
L 628 4550 
Q 988 4650 1302 4700 
Q 1616 4750 1894 4750 
Q 2613 4750 3031 4423 
Q 3450 4097 3450 3541 
Q 3450 3153 3228 2886 
Q 3006 2619 2597 2516 
z
" transform="scale(0.015625)"/>
       </defs>
       <use xlink:href="#DejaVuSans-33"/>
       <use xlink:href="#DejaVuSans-30" transform="translate(63.623047 0)"/>
       <use xlink:href="#DejaVuSans-30" transform="translate(127.246094 0)"/>
      </g>
     </g>
    </g>
    <g id="ytick_5">
     <g id="line2d_14">
      <g>
       <use xlink:href="#m178f9f565e" x="46.965625" y="129.279579" style="stroke: #000000; stroke-width: 0.8"/>
      </g>
     </g>
     <g id="text_16">
      <!-- 400 -->
      <g transform="translate(20.878125 133.078798) scale(0.1 -0.1)">
       <defs>
        <path id="DejaVuSans-34" d="M 2419 4116 
L 825 1625 
L 2419 1625 
L 2419 4116 
z
M 2253 4666 
L 3047 4666 
L 3047 1625 
L 3713 1625 
L 3713 1100 
L 3047 1100 
L 3047 0 
L 2419 0 
L 2419 1100 
L 313 1100 
L 313 1709 
L 2253 4666 
z
" transform="scale(0.015625)"/>
       </defs>
       <use xlink:href="#DejaVuSans-34"/>
       <use xlink:href="#DejaVuSans-30" transform="translate(63.623047 0)"/>
       <use xlink:href="#DejaVuSans-30" transform="translate(127.246094 0)"/>
      </g>
     </g>
    </g>
    <g id="ytick_6">
     <g id="line2d_15">
      <g>
       <use xlink:href="#m178f9f565e" x="46.965625" y="89.803124" style="stroke: #000000; stroke-width: 0.8"/>
      </g>
     </g>
     <g id="text_17">
      <!-- 500 -->
      <g transform="translate(20.878125 93.602343) scale(0.1 -0.1)">
       <use xlink:href="#DejaVuSans-35"/>
       <use xlink:href="#DejaVuSans-30" transform="translate(63.623047 0)"/>
       <use xlink:href="#DejaVuSans-30" transform="translate(127.246094 0)"/>
      </g>
     </g>
    </g>
    <g id="ytick_7">
     <g id="line2d_16">
      <g>
       <use xlink:href="#m178f9f565e" x="46.965625" y="50.32667" style="stroke: #000000; stroke-width: 0.8"/>
      </g>
     </g>
     <g id="text_18">
      <!-- 600 -->
      <g transform="translate(20.878125 54.125888) scale(0.1 -0.1)">
       <use xlink:href="#DejaVuSans-36"/>
       <use xlink:href="#DejaVuSans-30" transform="translate(63.623047 0)"/>
       <use xlink:href="#DejaVuSans-30" transform="translate(127.246094 0)"/>
      </g>
     </g>
    </g>
    <g id="text_19">
     <!-- left wheel velocity, lv (mm/s) -->
     <g transform="translate(14.798438 233.72375) rotate(-90) scale(0.1 -0.1)">
      <defs>
       <path id="DejaVuSans-6c" d="M 603 4863 
L 1178 4863 
L 1178 0 
L 603 0 
L 603 4863 
z
" transform="scale(0.015625)"/>
       <path id="DejaVuSans-66" d="M 2375 4863 
L 2375 4384 
L 1825 4384 
Q 1516 4384 1395 4259 
Q 1275 4134 1275 3809 
L 1275 3500 
L 2222 3500 
L 2222 3053 
L 1275 3053 
L 1275 0 
L 697 0 
L 697 3053 
L 147 3053 
L 147 3500 
L 697 3500 
L 697 3744 
Q 697 4328 969 4595 
Q 1241 4863 1831 4863 
L 2375 4863 
z
" transform="scale(0.015625)"/>
       <path id="DejaVuSans-77" d="M 269 3500 
L 844 3500 
L 1563 769 
L 2278 3500 
L 2956 3500 
L 3675 769 
L 4391 3500 
L 4966 3500 
L 4050 0 
L 3372 0 
L 2619 2869 
L 1863 0 
L 1184 0 
L 269 3500 
z
" transform="scale(0.015625)"/>
       <path id="DejaVuSans-68" d="M 3513 2113 
L 3513 0 
L 2938 0 
L 2938 2094 
Q 2938 2591 2744 2837 
Q 2550 3084 2163 3084 
Q 1697 3084 1428 2787 
Q 1159 2491 1159 1978 
L 1159 0 
L 581 0 
L 581 4863 
L 1159 4863 
L 1159 2956 
Q 1366 3272 1645 3428 
Q 1925 3584 2291 3584 
Q 2894 3584 3203 3211 
Q 3513 2838 3513 2113 
z
" transform="scale(0.015625)"/>
       <path id="DejaVuSans-76" d="M 191 3500 
L 800 3500 
L 1894 563 
L 2988 3500 
L 3597 3500 
L 2284 0 
L 1503 0 
L 191 3500 
z
" transform="scale(0.015625)"/>
       <path id="DejaVuSans-6f" d="M 1959 3097 
Q 1497 3097 1228 2736 
Q 959 2375 959 1747 
Q 959 1119 1226 758 
Q 1494 397 1959 397 
Q 2419 397 2687 759 
Q 2956 1122 2956 1747 
Q 2956 2369 2687 2733 
Q 2419 3097 1959 3097 
z
M 1959 3584 
Q 2709 3584 3137 3096 
Q 3566 2609 3566 1747 
Q 3566 888 3137 398 
Q 2709 -91 1959 -91 
Q 1206 -91 779 398 
Q 353 888 353 1747 
Q 353 2609 779 3096 
Q 1206 3584 1959 3584 
z
" transform="scale(0.015625)"/>
       <path id="DejaVuSans-63" d="M 3122 3366 
L 3122 2828 
Q 2878 2963 2633 3030 
Q 2388 3097 2138 3097 
Q 1578 3097 1268 2742 
Q 959 2388 959 1747 
Q 959 1106 1268 751 
Q 1578 397 2138 397 
Q 2388 397 2633 464 
Q 2878 531 3122 666 
L 3122 134 
Q 2881 22 2623 -34 
Q 2366 -91 2075 -91 
Q 1284 -91 818 406 
Q 353 903 353 1747 
Q 353 2603 823 3093 
Q 1294 3584 2113 3584 
Q 2378 3584 2631 3529 
Q 2884 3475 3122 3366 
z
" transform="scale(0.015625)"/>
       <path id="DejaVuSans-79" d="M 2059 -325 
Q 1816 -950 1584 -1140 
Q 1353 -1331 966 -1331 
L 506 -1331 
L 506 -850 
L 844 -850 
Q 1081 -850 1212 -737 
Q 1344 -625 1503 -206 
L 1606 56 
L 191 3500 
L 800 3500 
L 1894 763 
L 2988 3500 
L 3597 3500 
L 2059 -325 
z
" transform="scale(0.015625)"/>
       <path id="DejaVuSans-2f" d="M 1625 4666 
L 2156 4666 
L 531 -594 
L 0 -594 
L 1625 4666 
z
" transform="scale(0.015625)"/>
      </defs>
      <use xlink:href="#DejaVuSans-6c"/>
      <use xlink:href="#DejaVuSans-65" transform="translate(27.783203 0)"/>
      <use xlink:href="#DejaVuSans-66" transform="translate(89.306641 0)"/>
      <use xlink:href="#DejaVuSans-74" transform="translate(122.761719 0)"/>
      <use xlink:href="#DejaVuSans-20" transform="translate(161.970703 0)"/>
      <use xlink:href="#DejaVuSans-77" transform="translate(193.757812 0)"/>
      <use xlink:href="#DejaVuSans-68" transform="translate(275.544922 0)"/>
      <use xlink:href="#DejaVuSans-65" transform="translate(338.923828 0)"/>
      <use xlink:href="#DejaVuSans-65" transform="translate(400.447266 0)"/>
      <use xlink:href="#DejaVuSans-6c" transform="translate(461.970703 0)"/>
      <use xlink:href="#DejaVuSans-20" transform="translate(489.753906 0)"/>
      <use xlink:href="#DejaVuSans-76" transform="translate(521.541016 0)"/>
      <use xlink:href="#DejaVuSans-65" transform="translate(580.720703 0)"/>
      <use xlink:href="#DejaVuSans-6c" transform="translate(642.244141 0)"/>
      <use xlink:href="#DejaVuSans-6f" transform="translate(670.027344 0)"/>
      <use xlink:href="#DejaVuSans-63" transform="translate(731.208984 0)"/>
      <use xlink:href="#DejaVuSans-69" transform="translate(786.189453 0)"/>
      <use xlink:href="#DejaVuSans-74" transform="translate(813.972656 0)"/>
      <use xlink:href="#DejaVuSans-79" transform="translate(853.181641 0)"/>
      <use xlink:href="#DejaVuSans-2c" transform="translate(912.361328 0)"/>
      <use xlink:href="#DejaVuSans-20" transform="translate(944.148438 0)"/>
      <use xlink:href="#DejaVuSans-6c" transform="translate(975.935547 0)"/>
      <use xlink:href="#DejaVuSans-76" transform="translate(1003.71875 0)"/>
      <use xlink:href="#DejaVuSans-20" transform="translate(1062.898438 0)"/>
      <use xlink:href="#DejaVuSans-28" transform="translate(1094.685547 0)"/>
      <use xlink:href="#DejaVuSans-6d" transform="translate(1133.699219 0)"/>
      <use xlink:href="#DejaVuSans-6d" transform="translate(1231.111328 0)"/>
      <use xlink:href="#DejaVuSans-2f" transform="translate(1328.523438 0)"/>
      <use xlink:href="#DejaVuSans-73" transform="translate(1362.214844 0)"/>
      <use xlink:href="#DejaVuSans-29" transform="translate(1414.314453 0)"/>
     </g>
    </g>
   </g>
   <g id="line2d_17">
    <path d="M 65.100624 287.185398 
L 68.911794 224.02307 
L 71.970066 136.780105 
L 75.875144 93.356005 
L 79.749162 63.748664 
L 83.714726 52.300492 
L 86.675094 50.32667 
L 90.682254 51.905728 
L 94.603316 49.537141 
L 97.578761 47.563318 
L 101.577928 45.98426 
L 105.497356 43.615672 
L 108.556899 43.615672 
L 112.478325 38.483733 
L 116.399205 35.325617 
L 119.451847 35.720381 
L 123.373817 35.720381 
L 126.434088 36.50991 
L 130.35406 35.325617 
L 134.228986 38.088969 
L 138.227245 34.930852 
L 141.203234 36.50991 
L 145.211302 38.088969 
L 149.101304 39.273262 
L 152.077112 40.457556 
L 156.059932 39.273262 
L 159.979904 40.85232 
L 163.039993 43.615672 
L 166.961418 44.010437 
L 170.882844 41.247085 
L 173.920409 41.64185 
L 177.84238 41.247085 
L 181.846996 40.85232 
L 184.822441 44.010437 
L 188.744048 41.247085 
L 192.743034 40.457556 
L 195.718841 44.010437 
L 199.725638 43.615672 
L 203.645973 44.010437 
L 206.606523 42.826143 
L 210.605509 40.457556 
L 214.526935 44.010437 
L 217.587568 40.062791 
L 221.509357 46.773789 
L 225.430056 46.773789 
L 228.482879 46.773789 
L 232.40485 44.010437 
L 235.46621 43.615672 
L 239.387999 44.010437 
L 243.309606 44.010437 
L 246.362792 43.220908 
L 250.282401 44.010437 
L 254.316989 45.19473 
L 257.305693 45.19473 
L 261.255999 45.589495 
L 265.283866 44.799966 
L 268.288191 46.379024 
L 272.323323 45.19473 
L 276.272358 48.352847 
L 279.276138 42.826143 
L 283.304005 47.563318 
L 286.293617 48.747611 
L 290.316943 47.563318 
L 294.25181 44.799966 
L 297.255408 46.379024 
L 301.283456 44.799966 
L 305.217415 47.563318 
L 308.306021 49.537141 
L 312.256328 48.352847 
L 316.19065 44.799966 
L 319.272535 48.747611 
L 323.222841 48.352847 
L 326.311992 49.537141 
L 330.249039 47.563318 
L 334.199527 48.352847 
L 337.281412 45.19473 
L 341.232082 45.589495 
L 345.253046 49.931905 
L 348.257371 46.379024 
L 352.207314 48.352847 
L 355.289927 48.747611 
L 359.241686 48.747611 
L 363.277908 50.721434 
L 366.282596 46.379024 
L 370.233266 48.352847 
L 374.260224 47.563318 
L 377.265095 49.931905 
L 381.300953 47.958082 
L 385.251804 51.116199 
L 388.256311 46.379024 
L 392.284904 50.32667 
L 395.289593 49.931905 
L 399.325452 47.958082 
L 403.276303 45.589495 
L 406.280265 49.931905 
L 410.295053 49.537141 
L 414.251172 48.747611 
L 417.340505 49.537141 
L 421.291538 48.352847 
L 425.242934 48.352847 
" clip-path="url(#p86bf16a9d5)" style="fill: none; stroke: #1f77b4; stroke-width: 1.5; stroke-linecap: square"/>
   </g>
   <g id="line2d_18">
    <path d="M 65.099716 287.185398 
L 67.965632 237.445065 
L 71.887239 150.2021 
L 75.884953 103.619883 
L 78.812445 92.566476 
L 82.787454 88.618831 
L 86.676729 92.566476 
L 89.635826 83.486892 
L 93.619009 77.960188 
L 97.538981 77.565423 
L 100.598889 75.986365 
L 104.520132 72.03872 
L 108.441195 68.880603 
L 111.494018 64.538193 
L 115.399277 68.091074 
L 119.403894 68.091074 
L 122.379157 66.117251 
L 126.28478 70.854426 
L 130.283765 70.459661 
L 133.259392 70.064897 
L 137.265461 70.854426 
L 141.185797 68.880603 
L 144.161242 70.064897 
L 148.160227 70.459661 
L 152.080926 74.802072 
L 155.141197 72.433484 
L 159.062622 74.802072 
L 162.982776 74.802072 
L 166.019797 74.407307 
L 169.942675 74.802072 
L 173.948563 73.617778 
L 176.908024 75.986365 
L 180.830176 74.802072 
L 184.812087 72.433484 
L 187.771729 75.986365 
L 191.763449 78.354952 
L 195.684875 74.802072 
L 198.661046 73.617778 
L 202.66094 75.986365 
L 206.581275 74.802072 
L 209.641546 75.986365 
L 213.564243 77.565423 
L 217.486032 77.565423 
L 220.538855 75.196836 
L 224.461007 77.565423 
L 228.46635 76.38113 
L 231.426537 79.934011 
L 235.34887 77.565423 
L 239.347493 78.749717 
L 242.322756 80.72354 
L 246.329734 79.144482 
L 250.250069 77.565423 
L 253.254576 79.144482 
L 257.282806 80.328775 
L 260.288585 79.144482 
L 264.325896 80.72354 
L 268.276929 79.144482 
L 271.281254 83.092127 
L 275.310211 83.092127 
L 279.258882 78.749717 
L 282.348397 77.960188 
L 286.299611 81.907833 
L 289.305208 83.092127 
L 293.334891 80.328775 
L 297.285016 81.907833 
L 300.373985 77.960188 
L 304.309034 83.881656 
L 308.258432 81.907833 
L 311.324151 83.486892 
L 315.275002 81.907833 
L 318.364517 81.513069 
L 322.303016 81.118304 
L 326.253504 84.671185 
L 329.334663 84.276421 
L 333.285333 81.907833 
L 337.319557 83.486892 
L 340.3237 83.092127 
L 344.274188 81.907833 
L 348.301873 83.092127 
L 351.30638 83.092127 
L 355.328253 82.697362 
L 358.332215 79.144482 
L 362.283429 84.671185 
L 366.311477 80.328775 
L 369.315439 82.697362 
L 373.351116 83.486892 
L 377.300514 84.671185 
L 380.291761 81.907833 
L 384.31981 83.092127 
L 388.270479 84.671185 
L 391.358904 81.513069 
L 395.296314 83.881656 
L 398.300639 82.697362 
L 402.32905 83.092127 
L 406.279538 81.907833 
L 409.368144 81.513069 
L 413.319359 84.671185 
L 417.268394 84.671185 
L 420.350279 81.118304 
L 424.301494 84.671185 
L 427.391553 85.06595 
" clip-path="url(#p86bf16a9d5)" style="fill: none; stroke: #ff7f0e; stroke-width: 1.5; stroke-linecap: square"/>
   </g>
   <g id="line2d_19">
    <path d="M 65.102985 287.185398 
L 68.917788 226.786422 
L 71.97715 150.991629 
L 75.882592 124.542404 
L 79.787488 118.620936 
L 82.807979 120.199994 
L 86.695983 123.752875 
L 90.7006 117.436643 
L 93.675499 117.831407 
L 97.595108 113.883762 
L 101.593367 111.515174 
L 104.568085 106.778 
L 108.573247 106.383235 
L 112.492311 108.357058 
L 115.467211 106.778 
L 119.449304 108.357058 
L 123.339306 109.541352 
L 126.399394 111.909939 
L 130.319549 105.593706 
L 134.239884 108.357058 
L 137.292344 107.567529 
L 141.212316 108.357058 
L 145.218205 109.146587 
L 148.193831 106.778 
L 152.113985 111.12041 
L 156.111517 108.751823 
L 159.086962 110.330881 
L 163.09285 109.146587 
L 167.014457 111.12041 
L 169.989538 110.330881 
L 173.988161 111.909939 
L 177.908133 111.12041 
L 180.967859 111.515174 
L 184.888013 108.357058 
L 188.793636 110.330881 
L 191.846095 111.12041 
L 195.766613 113.883762 
L 199.740351 113.488997 
L 202.715069 110.330881 
L 206.636312 113.883762 
L 210.634935 111.909939 
L 213.594395 113.094233 
L 217.600465 111.909939 
L 221.520982 113.883762 
L 224.495882 110.330881 
L 228.493959 114.673291 
L 232.415385 111.12041 
L 235.475474 115.46282 
L 239.38037 113.094233 
L 243.301069 111.12041 
L 246.353529 111.12041 
L 250.274773 113.883762 
L 253.364832 113.488997 
L 257.317318 115.068055 
L 261.267624 115.068055 
L 264.34951 113.094233 
L 268.300542 115.068055 
L 272.33513 115.857584 
L 275.339637 112.304703 
L 279.291033 115.068055 
L 283.305821 117.831407 
L 286.294525 115.068055 
L 290.331292 116.252349 
L 293.335799 115.857584 
L 297.28665 115.068055 
L 301.315062 115.857584 
L 304.319024 119.410465 
L 308.339988 115.46282 
L 312.289386 112.304703 
L 315.293893 119.410465 
L 319.322123 115.857584 
L 323.259896 114.673291 
L 326.348865 113.488997 
L 330.299717 115.068055 
L 333.303679 115.857584 
L 337.332272 115.857584 
L 341.28276 117.831407 
L 344.371547 117.041878 
L 348.322943 117.831407 
L 352.273068 115.068055 
L 355.338969 115.46282 
L 359.290547 117.831407 
L 362.380425 117.041878 
L 366.332366 117.831407 
L 370.267051 117.436643 
L 373.348028 116.647113 
L 377.29888 117.831407 
L 381.333285 115.857584 
L 384.323806 118.620936 
L 388.274112 117.831407 
L 391.356906 120.199994 
L 395.308665 117.831407 
L 399.343797 115.857584 
L 402.332138 118.620936 
L 406.283171 117.831407 
L 410.310129 118.226172 
L 413.283031 113.883762 
L 417.319253 119.015701 
L 421.269378 117.831407 
L 424.273884 119.410465 
" clip-path="url(#p86bf16a9d5)" style="fill: none; stroke: #2ca02c; stroke-width: 1.5; stroke-linecap: square"/>
   </g>
   <g id="line2d_20">
    <path d="M 65.103167 287.185398 
L 68.903984 232.313126 
L 71.948633 168.361269 
L 75.870058 152.965452 
L 79.775863 155.334039 
L 83.757956 155.334039 
L 86.733946 154.54451 
L 90.741287 156.123568 
L 94.646728 155.334039 
L 97.621628 147.438748 
L 101.620977 141.912044 
L 105.540404 141.912044 
L 108.599766 140.332986 
L 112.505571 141.122515 
L 116.411375 141.122515 
L 119.46329 143.491103 
L 123.368731 141.122515 
L 127.35809 144.280632 
L 130.33299 143.491103 
L 134.255505 144.675396 
L 138.254128 144.675396 
L 141.228846 143.491103 
L 145.235279 142.306809 
L 149.155614 144.675396 
L 152.131059 143.491103 
L 156.130408 147.438748 
L 160.051107 144.675396 
L 163.111014 147.438748 
L 167.03244 147.438748 
L 170.952049 144.675396 
L 174.00469 147.438748 
L 177.926842 144.675396 
L 180.987657 143.885867 
L 184.910173 147.438748 
L 188.831235 144.675396 
L 191.883877 143.491103 
L 195.788773 147.043984 
L 199.794116 147.833513 
L 202.769742 147.438748 
L 206.659017 146.254454 
L 210.65764 147.438748 
L 213.632539 147.438748 
L 217.638428 147.833513 
L 221.558582 147.438748 
L 224.534026 147.438748 
L 228.532104 150.2021 
L 232.453711 147.438748 
L 235.513436 150.991629 
L 239.434135 147.438748 
L 243.354108 147.438748 
L 246.406931 147.438748 
L 250.312009 149.807335 
L 254.347322 148.623042 
L 257.351284 148.623042 
L 261.302317 148.623042 
L 265.329276 150.991629 
L 268.289644 150.2021 
L 272.326048 148.623042 
L 276.27708 151.386394 
L 279.281042 145.070161 
L 283.296194 150.596865 
L 286.270912 150.991629 
L 290.307316 148.623042 
L 294.258167 151.386394 
L 297.262674 148.623042 
L 301.276191 150.596865 
L 305.226497 151.386394 
L 308.31583 149.017806 
L 312.267771 148.623042 
L 316.189923 150.2021 
L 319.271627 152.175923 
L 323.223205 151.386394 
L 326.312356 149.017806 
L 330.263752 154.149745 
L 334.215511 151.386394 
L 337.296852 148.623042 
L 341.248066 151.386394 
L 345.283017 151.386394 
L 348.287887 152.175923 
L 352.239101 148.623042 
L 355.321714 152.175923 
L 359.21335 152.175923 
L 363.248846 151.386394 
L 366.254079 152.175923 
L 370.205475 151.386394 
L 374.232433 150.991629 
L 377.236395 155.728804 
L 381.272799 151.386394 
L 385.222924 151.386394 
L 388.227794 152.175923 
L 392.256205 150.991629 
L 396.192707 153.754981 
L 399.282403 152.570687 
L 403.220176 153.754981 
L 406.225773 152.175923 
L 410.255274 153.754981 
L 414.206125 148.623042 
L 417.295095 152.570687 
L 421.246491 148.623042 
L 425.195889 151.386394 
" clip-path="url(#p86bf16a9d5)" style="fill: none; stroke: #d62728; stroke-width: 1.5; stroke-linecap: square"/>
   </g>
   <g id="line2d_21">
    <path d="M 65.102441 287.185398 
L 68.916698 246.919414 
L 72.838124 189.28379 
L 75.889312 190.468084 
L 79.809466 194.810494 
L 82.86901 197.573846 
L 86.791344 186.520438 
L 90.728754 178.625147 
L 93.780669 175.861796 
L 97.669036 180.204206 
L 101.673834 177.835618 
L 104.632931 179.809441 
L 108.536011 177.835618 
L 112.53427 177.440854 
L 116.422274 180.204206 
L 119.481999 176.25656 
L 123.404696 178.230383 
L 127.325758 180.993735 
L 130.378037 179.414676 
L 134.283115 180.59897 
L 137.341932 176.25656 
L 141.261541 180.993735 
L 145.182966 180.993735 
L 148.235426 175.861796 
L 152.123975 182.967557 
L 156.12841 180.59897 
L 159.103128 184.151851 
L 163.0231 180.993735 
L 167.021904 180.204206 
L 170.910998 180.204206 
L 173.971813 183.362322 
L 177.895055 178.230383 
L 181.816481 183.757086 
L 184.868941 179.414676 
L 188.790911 183.757086 
L 191.850092 183.362322 
L 195.754806 183.362322 
L 199.64499 180.204206 
L 202.697631 183.362322 
L 206.618148 183.757086 
L 210.622765 180.59897 
L 213.597483 184.151851 
L 217.517274 183.757086 
L 221.515896 182.967557 
L 224.491159 184.151851 
L 228.496684 183.362322 
L 232.416656 183.757086 
L 235.391556 184.151851 
L 239.388544 185.730909 
L 243.310332 183.757086 
L 246.370058 183.362322 
L 250.274591 183.362322 
L 254.210003 184.151851 
L 257.291707 184.151851 
L 261.241831 184.546616 
L 265.277145 184.151851 
L 268.281107 184.94138 
L 272.23214 184.546616 
L 276.258916 183.757086 
L 279.262515 184.94138 
L 283.282934 186.520438 
L 286.287986 181.388499 
L 290.239382 184.546616 
L 294.267249 183.757086 
L 297.258133 184.546616 
L 301.28055 183.757086 
L 305.229222 187.309967 
L 308.23391 188.889026 
L 312.262322 183.757086 
L 316.212628 184.546616 
L 319.301416 184.546616 
L 323.251722 184.546616 
L 326.242061 184.546616 
L 330.270473 186.520438 
L 334.220779 184.546616 
L 337.309022 184.546616 
L 341.243889 186.915203 
L 345.193287 184.546616 
L 348.274264 187.704732 
L 352.225115 184.546616 
L 355.314085 184.546616 
L 359.252766 184.151851 
L 363.203072 187.309967 
L 366.284413 187.704732 
L 370.235446 187.309967 
L 374.270033 184.151851 
L 377.273995 188.889026 
L 381.225573 187.309967 
L 385.253802 186.520438 
L 388.257764 184.94138 
L 392.293986 186.915203 
L 395.297767 184.94138 
L 399.248981 187.309967 
L 403.277029 186.520438 
L 406.26537 184.546616 
L 410.301047 186.915203 
L 414.250082 184.546616 
L 417.254044 188.889026 
L 421.282456 186.520438 
L 425.204244 183.757086 
" clip-path="url(#p86bf16a9d5)" style="fill: none; stroke: #9467bd; stroke-width: 1.5; stroke-linecap: square"/>
   </g>
   <g id="line2d_22">
    <path d="M 65.102259 287.185398 
L 68.954843 255.998999 
L 71.894323 220.075425 
L 75.893308 224.417835 
L 79.814734 234.286948 
L 82.874459 226.391658 
L 86.794977 214.548721 
L 90.731842 212.180134 
L 93.816815 212.574898 
L 97.753498 214.943486 
L 100.846827 212.969663 
L 104.803128 215.33825 
L 108.723463 214.548721 
L 111.776105 219.285896 
L 115.69644 217.312073 
L 119.700694 213.364427 
L 122.675048 217.312073 
L 126.595566 217.312073 
L 130.578385 212.969663 
L 133.553648 217.312073 
L 137.559355 216.127779 
L 141.478601 211.785369 
L 144.437334 216.917308 
L 148.419064 218.496367 
L 152.339945 220.075425 
L 155.399125 215.733015 
L 159.319461 214.548721 
L 163.222904 216.917308 
L 166.275364 215.33825 
L 170.1957 217.312073 
L 174.201588 218.891131 
L 177.16014 213.364427 
L 181.080294 217.312073 
L 185.077827 218.891131 
L 188.03656 216.917308 
L 192.041358 216.127779 
L 195.962602 220.075425 
L 198.921336 213.364427 
L 202.919232 221.654483 
L 206.839931 217.312073 
L 209.899475 219.285896 
L 213.78875 216.917308 
L 217.710175 217.312073 
L 220.762454 219.285896 
L 224.682608 220.075425 
L 228.67124 218.496367 
L 231.645776 220.864954 
L 235.56593 217.312073 
L 239.549295 218.496367 
L 242.524013 220.864954 
L 246.529356 216.127779 
L 250.44951 217.312073 
L 253.437669 217.706837 
L 257.451731 218.891131 
L 261.402401 218.101602 
L 264.491552 220.075425 
L 268.442585 218.101602 
L 272.360741 220.075425 
L 275.442263 216.127779 
L 279.393114 220.864954 
L 282.48281 216.522544 
L 286.435115 220.864954 
L 290.385603 218.101602 
L 293.467125 219.68066 
L 297.417794 220.864954 
L 301.438395 219.285896 
L 304.442539 218.101602 
L 308.378677 217.706837 
L 312.406544 219.285896 
L 315.410506 218.101602 
L 319.446728 219.285896 
L 322.45069 218.101602 
L 326.401723 220.864954 
L 330.400708 218.891131 
L 333.404307 218.101602 
L 337.440529 222.049247 
L 341.389382 217.706837 
L 344.394071 218.101602 
L 348.422301 222.049247 
L 352.342091 220.075425 
L 355.430879 216.522544 
L 359.38173 220.864954 
L 362.372251 221.259718 
L 366.400662 219.285896 
L 370.335529 217.706837 
L 373.423772 220.075425 
L 377.374079 220.864954 
L 381.323477 218.101602 
L 384.40518 223.233541 
L 388.356032 218.101602 
L 391.445728 220.075425 
L 395.382229 220.470189 
L 399.332536 218.101602 
L 402.414421 219.68066 
L 406.365454 220.864954 
L 410.39986 216.522544 
L 413.390925 221.259718 
L 417.34214 220.864954 
L 421.370733 219.285896 
L 424.374695 218.101602 
" clip-path="url(#p86bf16a9d5)" style="fill: none; stroke: #8c564b; stroke-width: 1.5; stroke-linecap: square"/>
   </g>
   <g id="line2d_23">
    <path d="M 65.102259 287.185398 
L 67.957276 275.737226 
L 71.8431 253.630411 
L 75.805031 262.315231 
L 79.673055 261.920467 
L 82.66521 257.972821 
L 86.534687 247.708943 
L 90.437222 250.867059 
L 93.454443 247.314178 
L 97.356797 250.867059 
L 101.32563 251.261824 
L 105.209819 250.472295 
L 108.148573 250.07753 
L 112.111957 251.261824 
L 115.997055 247.708943 
L 119.038798 251.261824 
L 122.924077 253.630411 
L 126.808266 253.630411 
L 129.825306 254.814705 
L 133.712038 250.867059 
L 137.682143 254.025176 
L 141.551802 250.472295 
L 144.476205 249.682766 
L 148.425058 254.025176 
L 152.310156 250.472295 
L 155.334462 254.814705 
L 159.218651 250.472295 
L 163.086493 253.235647 
L 166.103896 250.867059 
L 169.988085 253.630411 
L 173.958372 254.025176 
L 177.827122 250.472295 
L 180.767691 250.07753 
L 184.732347 251.261824 
L 188.617445 253.630411 
L 191.641387 254.814705 
L 195.527938 250.867059 
L 199.411582 250.472295 
L 202.428804 254.814705 
L 206.314628 253.630411 
L 210.269839 251.261824 
L 214.154754 253.630411 
L 217.080066 249.682766 
L 221.04454 254.025176 
L 224.930546 253.630411 
L 227.95467 251.261824 
L 231.839586 253.630411 
L 235.723957 253.630411 
L 238.740997 254.814705 
L 242.62555 253.630411 
L 246.581124 251.261824 
L 250.495465 253.630411 
L 253.465824 254.025176 
L 257.459724 254.41994 
L 261.374792 250.867059 
L 264.429068 255.209469 
L 268.344863 250.867059 
L 272.242312 253.630411 
L 275.275881 251.261824 
L 279.191131 253.630411 
L 283.191933 254.41994 
L 286.160657 254.025176 
L 290.076451 253.630411 
L 294.067627 251.656589 
L 297.037077 254.025176 
L 301.037698 251.656589 
L 304.952584 250.867059 
L 307.905324 254.025176 
L 311.898497 254.41994 
L 315.81193 250.867059 
L 318.865843 255.209469 
L 322.780911 253.630411 
L 326.696161 250.867059 
L 329.742263 251.261824 
L 333.657876 253.630411 
L 337.657407 254.41994 
L 340.627039 254.025176 
L 344.542107 253.630411 
L 348.534554 251.656589 
L 351.503096 254.025176 
L 355.504262 251.656589 
L 359.417877 253.630411 
L 362.373704 254.025176 
L 366.366514 251.656589 
L 370.281401 253.630411 
L 373.335132 251.656589 
L 377.235306 253.630411 
L 381.149284 253.630411 
L 384.195931 254.814705 
L 388.111181 250.867059 
L 392.11162 254.41994 
L 398.982334 253.630411 
L 402.974054 254.41994 
L 405.950407 254.025176 
L 409.951027 251.656589 
L 413.850656 256.393763 
L 416.819743 250.472295 
L 420.812916 254.41994 
L 424.727258 253.630411 
L 427.781534 255.209469 
" clip-path="url(#p86bf16a9d5)" style="fill: none; stroke: #e377c2; stroke-width: 1.5; stroke-linecap: square"/>
   </g>
   <g id="patch_3">
    <path d="M 46.965625 299.798125 
L 46.965625 22.318125 
" style="fill: none; stroke: #000000; stroke-width: 0.8; stroke-linejoin: miter; stroke-linecap: square"/>
   </g>
   <g id="patch_4">
    <path d="M 445.915625 299.798125 
L 445.915625 22.318125 
" style="fill: none; stroke: #000000; stroke-width: 0.8; stroke-linejoin: miter; stroke-linecap: square"/>
   </g>
   <g id="patch_5">
    <path d="M 46.965625 299.798125 
L 445.915625 299.798125 
" style="fill: none; stroke: #000000; stroke-width: 0.8; stroke-linejoin: miter; stroke-linecap: square"/>
   </g>
   <g id="patch_6">
    <path d="M 46.965625 22.318125 
L 445.915625 22.318125 
" style="fill: none; stroke: #000000; stroke-width: 0.8; stroke-linejoin: miter; stroke-linecap: square"/>
   </g>
   <g id="text_20">
    <!-- left velocity vs. time -->
    <g transform="translate(185.412188 16.318125) scale(0.12 -0.12)">
     <use xlink:href="#DejaVuSans-6c"/>
     <use xlink:href="#DejaVuSans-65" transform="translate(27.783203 0)"/>
     <use xlink:href="#DejaVuSans-66" transform="translate(89.306641 0)"/>
     <use xlink:href="#DejaVuSans-74" transform="translate(122.761719 0)"/>
     <use xlink:href="#DejaVuSans-20" transform="translate(161.970703 0)"/>
     <use xlink:href="#DejaVuSans-76" transform="translate(193.757812 0)"/>
     <use xlink:href="#DejaVuSans-65" transform="translate(252.9375 0)"/>
     <use xlink:href="#DejaVuSans-6c" transform="translate(314.460938 0)"/>
     <use xlink:href="#DejaVuSans-6f" transform="translate(342.244141 0)"/>
     <use xlink:href="#DejaVuSans-63" transform="translate(403.425781 0)"/>
     <use xlink:href="#DejaVuSans-69" transform="translate(458.40625 0)"/>
     <use xlink:href="#DejaVuSans-74" transform="translate(486.189453 0)"/>
     <use xlink:href="#DejaVuSans-79" transform="translate(525.398438 0)"/>
     <use xlink:href="#DejaVuSans-20" transform="translate(584.578125 0)"/>
     <use xlink:href="#DejaVuSans-76" transform="translate(616.365234 0)"/>
     <use xlink:href="#DejaVuSans-73" transform="translate(675.544922 0)"/>
     <use xlink:href="#DejaVuSans-2e" transform="translate(727.644531 0)"/>
     <use xlink:href="#DejaVuSans-20" transform="translate(759.431641 0)"/>
     <use xlink:href="#DejaVuSans-74" transform="translate(791.21875 0)"/>
     <use xlink:href="#DejaVuSans-69" transform="translate(830.427734 0)"/>
     <use xlink:href="#DejaVuSans-6d" transform="translate(858.210938 0)"/>
     <use xlink:href="#DejaVuSans-65" transform="translate(955.623047 0)"/>
    </g>
   </g>
   <g id="legend_1">
    <g id="patch_7">
     <path d="M 322.390625 294.798125 
L 438.915625 294.798125 
Q 440.915625 294.798125 440.915625 292.798125 
L 440.915625 191.05125 
Q 440.915625 189.05125 438.915625 189.05125 
L 322.390625 189.05125 
Q 320.390625 189.05125 320.390625 191.05125 
L 320.390625 292.798125 
Q 320.390625 294.798125 322.390625 294.798125 
z
" style="fill: #ffffff; opacity: 0.8; stroke: #cccccc; stroke-linejoin: miter"/>
    </g>
    <g id="line2d_24">
     <path d="M 324.390625 197.149688 
L 334.390625 197.149688 
L 344.390625 197.149688 
" style="fill: none; stroke: #1f77b4; stroke-width: 1.5; stroke-linecap: square"/>
    </g>
    <g id="text_21">
     <!-- Ref Speed = 595 -->
     <g transform="translate(352.390625 200.649688) scale(0.1 -0.1)">
      <defs>
       <path id="DejaVuSans-52" d="M 2841 2188 
Q 3044 2119 3236 1894 
Q 3428 1669 3622 1275 
L 4263 0 
L 3584 0 
L 2988 1197 
Q 2756 1666 2539 1819 
Q 2322 1972 1947 1972 
L 1259 1972 
L 1259 0 
L 628 0 
L 628 4666 
L 2053 4666 
Q 2853 4666 3247 4331 
Q 3641 3997 3641 3322 
Q 3641 2881 3436 2590 
Q 3231 2300 2841 2188 
z
M 1259 4147 
L 1259 2491 
L 2053 2491 
Q 2509 2491 2742 2702 
Q 2975 2913 2975 3322 
Q 2975 3731 2742 3939 
Q 2509 4147 2053 4147 
L 1259 4147 
z
" transform="scale(0.015625)"/>
       <path id="DejaVuSans-53" d="M 3425 4513 
L 3425 3897 
Q 3066 4069 2747 4153 
Q 2428 4238 2131 4238 
Q 1616 4238 1336 4038 
Q 1056 3838 1056 3469 
Q 1056 3159 1242 3001 
Q 1428 2844 1947 2747 
L 2328 2669 
Q 3034 2534 3370 2195 
Q 3706 1856 3706 1288 
Q 3706 609 3251 259 
Q 2797 -91 1919 -91 
Q 1588 -91 1214 -16 
Q 841 59 441 206 
L 441 856 
Q 825 641 1194 531 
Q 1563 422 1919 422 
Q 2459 422 2753 634 
Q 3047 847 3047 1241 
Q 3047 1584 2836 1778 
Q 2625 1972 2144 2069 
L 1759 2144 
Q 1053 2284 737 2584 
Q 422 2884 422 3419 
Q 422 4038 858 4394 
Q 1294 4750 2059 4750 
Q 2388 4750 2728 4690 
Q 3069 4631 3425 4513 
z
" transform="scale(0.015625)"/>
       <path id="DejaVuSans-70" d="M 1159 525 
L 1159 -1331 
L 581 -1331 
L 581 3500 
L 1159 3500 
L 1159 2969 
Q 1341 3281 1617 3432 
Q 1894 3584 2278 3584 
Q 2916 3584 3314 3078 
Q 3713 2572 3713 1747 
Q 3713 922 3314 415 
Q 2916 -91 2278 -91 
Q 1894 -91 1617 61 
Q 1341 213 1159 525 
z
M 3116 1747 
Q 3116 2381 2855 2742 
Q 2594 3103 2138 3103 
Q 1681 3103 1420 2742 
Q 1159 2381 1159 1747 
Q 1159 1113 1420 752 
Q 1681 391 2138 391 
Q 2594 391 2855 752 
Q 3116 1113 3116 1747 
z
" transform="scale(0.015625)"/>
       <path id="DejaVuSans-64" d="M 2906 2969 
L 2906 4863 
L 3481 4863 
L 3481 0 
L 2906 0 
L 2906 525 
Q 2725 213 2448 61 
Q 2172 -91 1784 -91 
Q 1150 -91 751 415 
Q 353 922 353 1747 
Q 353 2572 751 3078 
Q 1150 3584 1784 3584 
Q 2172 3584 2448 3432 
Q 2725 3281 2906 2969 
z
M 947 1747 
Q 947 1113 1208 752 
Q 1469 391 1925 391 
Q 2381 391 2643 752 
Q 2906 1113 2906 1747 
Q 2906 2381 2643 2742 
Q 2381 3103 1925 3103 
Q 1469 3103 1208 2742 
Q 947 2381 947 1747 
z
" transform="scale(0.015625)"/>
       <path id="DejaVuSans-3d" d="M 678 2906 
L 4684 2906 
L 4684 2381 
L 678 2381 
L 678 2906 
z
M 678 1631 
L 4684 1631 
L 4684 1100 
L 678 1100 
L 678 1631 
z
" transform="scale(0.015625)"/>
       <path id="DejaVuSans-39" d="M 703 97 
L 703 672 
Q 941 559 1184 500 
Q 1428 441 1663 441 
Q 2288 441 2617 861 
Q 2947 1281 2994 2138 
Q 2813 1869 2534 1725 
Q 2256 1581 1919 1581 
Q 1219 1581 811 2004 
Q 403 2428 403 3163 
Q 403 3881 828 4315 
Q 1253 4750 1959 4750 
Q 2769 4750 3195 4129 
Q 3622 3509 3622 2328 
Q 3622 1225 3098 567 
Q 2575 -91 1691 -91 
Q 1453 -91 1209 -44 
Q 966 3 703 97 
z
M 1959 2075 
Q 2384 2075 2632 2365 
Q 2881 2656 2881 3163 
Q 2881 3666 2632 3958 
Q 2384 4250 1959 4250 
Q 1534 4250 1286 3958 
Q 1038 3666 1038 3163 
Q 1038 2656 1286 2365 
Q 1534 2075 1959 2075 
z
" transform="scale(0.015625)"/>
      </defs>
      <use xlink:href="#DejaVuSans-52"/>
      <use xlink:href="#DejaVuSans-65" transform="translate(64.982422 0)"/>
      <use xlink:href="#DejaVuSans-66" transform="translate(126.505859 0)"/>
      <use xlink:href="#DejaVuSans-20" transform="translate(161.710938 0)"/>
      <use xlink:href="#DejaVuSans-53" transform="translate(193.498047 0)"/>
      <use xlink:href="#DejaVuSans-70" transform="translate(256.974609 0)"/>
      <use xlink:href="#DejaVuSans-65" transform="translate(320.451172 0)"/>
      <use xlink:href="#DejaVuSans-65" transform="translate(381.974609 0)"/>
      <use xlink:href="#DejaVuSans-64" transform="translate(443.498047 0)"/>
      <use xlink:href="#DejaVuSans-20" transform="translate(506.974609 0)"/>
      <use xlink:href="#DejaVuSans-3d" transform="translate(538.761719 0)"/>
      <use xlink:href="#DejaVuSans-20" transform="translate(622.550781 0)"/>
      <use xlink:href="#DejaVuSans-35" transform="translate(654.337891 0)"/>
      <use xlink:href="#DejaVuSans-39" transform="translate(717.960938 0)"/>
      <use xlink:href="#DejaVuSans-35" transform="translate(781.583984 0)"/>
     </g>
    </g>
    <g id="line2d_25">
     <path d="M 324.390625 211.827813 
L 334.390625 211.827813 
L 344.390625 211.827813 
" style="fill: none; stroke: #ff7f0e; stroke-width: 1.5; stroke-linecap: square"/>
    </g>
    <g id="text_22">
     <!-- Ref Speed = 510 -->
     <g transform="translate(352.390625 215.327813) scale(0.1 -0.1)">
      <use xlink:href="#DejaVuSans-52"/>
      <use xlink:href="#DejaVuSans-65" transform="translate(64.982422 0)"/>
      <use xlink:href="#DejaVuSans-66" transform="translate(126.505859 0)"/>
      <use xlink:href="#DejaVuSans-20" transform="translate(161.710938 0)"/>
      <use xlink:href="#DejaVuSans-53" transform="translate(193.498047 0)"/>
      <use xlink:href="#DejaVuSans-70" transform="translate(256.974609 0)"/>
      <use xlink:href="#DejaVuSans-65" transform="translate(320.451172 0)"/>
      <use xlink:href="#DejaVuSans-65" transform="translate(381.974609 0)"/>
      <use xlink:href="#DejaVuSans-64" transform="translate(443.498047 0)"/>
      <use xlink:href="#DejaVuSans-20" transform="translate(506.974609 0)"/>
      <use xlink:href="#DejaVuSans-3d" transform="translate(538.761719 0)"/>
      <use xlink:href="#DejaVuSans-20" transform="translate(622.550781 0)"/>
      <use xlink:href="#DejaVuSans-35" transform="translate(654.337891 0)"/>
      <use xlink:href="#DejaVuSans-31" transform="translate(717.960938 0)"/>
      <use xlink:href="#DejaVuSans-30" transform="translate(781.583984 0)"/>
     </g>
    </g>
    <g id="line2d_26">
     <path d="M 324.390625 226.505938 
L 334.390625 226.505938 
L 344.390625 226.505938 
" style="fill: none; stroke: #2ca02c; stroke-width: 1.5; stroke-linecap: square"/>
    </g>
    <g id="text_23">
     <!-- Ref Speed = 425 -->
     <g transform="translate(352.390625 230.005938) scale(0.1 -0.1)">
      <use xlink:href="#DejaVuSans-52"/>
      <use xlink:href="#DejaVuSans-65" transform="translate(64.982422 0)"/>
      <use xlink:href="#DejaVuSans-66" transform="translate(126.505859 0)"/>
      <use xlink:href="#DejaVuSans-20" transform="translate(161.710938 0)"/>
      <use xlink:href="#DejaVuSans-53" transform="translate(193.498047 0)"/>
      <use xlink:href="#DejaVuSans-70" transform="translate(256.974609 0)"/>
      <use xlink:href="#DejaVuSans-65" transform="translate(320.451172 0)"/>
      <use xlink:href="#DejaVuSans-65" transform="translate(381.974609 0)"/>
      <use xlink:href="#DejaVuSans-64" transform="translate(443.498047 0)"/>
      <use xlink:href="#DejaVuSans-20" transform="translate(506.974609 0)"/>
      <use xlink:href="#DejaVuSans-3d" transform="translate(538.761719 0)"/>
      <use xlink:href="#DejaVuSans-20" transform="translate(622.550781 0)"/>
      <use xlink:href="#DejaVuSans-34" transform="translate(654.337891 0)"/>
      <use xlink:href="#DejaVuSans-32" transform="translate(717.960938 0)"/>
      <use xlink:href="#DejaVuSans-35" transform="translate(781.583984 0)"/>
     </g>
    </g>
    <g id="line2d_27">
     <path d="M 324.390625 241.184063 
L 334.390625 241.184063 
L 344.390625 241.184063 
" style="fill: none; stroke: #d62728; stroke-width: 1.5; stroke-linecap: square"/>
    </g>
    <g id="text_24">
     <!-- Ref Speed = 340 -->
     <g transform="translate(352.390625 244.684063) scale(0.1 -0.1)">
      <use xlink:href="#DejaVuSans-52"/>
      <use xlink:href="#DejaVuSans-65" transform="translate(64.982422 0)"/>
      <use xlink:href="#DejaVuSans-66" transform="translate(126.505859 0)"/>
      <use xlink:href="#DejaVuSans-20" transform="translate(161.710938 0)"/>
      <use xlink:href="#DejaVuSans-53" transform="translate(193.498047 0)"/>
      <use xlink:href="#DejaVuSans-70" transform="translate(256.974609 0)"/>
      <use xlink:href="#DejaVuSans-65" transform="translate(320.451172 0)"/>
      <use xlink:href="#DejaVuSans-65" transform="translate(381.974609 0)"/>
      <use xlink:href="#DejaVuSans-64" transform="translate(443.498047 0)"/>
      <use xlink:href="#DejaVuSans-20" transform="translate(506.974609 0)"/>
      <use xlink:href="#DejaVuSans-3d" transform="translate(538.761719 0)"/>
      <use xlink:href="#DejaVuSans-20" transform="translate(622.550781 0)"/>
      <use xlink:href="#DejaVuSans-33" transform="translate(654.337891 0)"/>
      <use xlink:href="#DejaVuSans-34" transform="translate(717.960938 0)"/>
      <use xlink:href="#DejaVuSans-30" transform="translate(781.583984 0)"/>
     </g>
    </g>
    <g id="line2d_28">
     <path d="M 324.390625 255.862188 
L 334.390625 255.862188 
L 344.390625 255.862188 
" style="fill: none; stroke: #9467bd; stroke-width: 1.5; stroke-linecap: square"/>
    </g>
    <g id="text_25">
     <!-- Ref Speed = 255 -->
     <g transform="translate(352.390625 259.362188) scale(0.1 -0.1)">
      <use xlink:href="#DejaVuSans-52"/>
      <use xlink:href="#DejaVuSans-65" transform="translate(64.982422 0)"/>
      <use xlink:href="#DejaVuSans-66" transform="translate(126.505859 0)"/>
      <use xlink:href="#DejaVuSans-20" transform="translate(161.710938 0)"/>
      <use xlink:href="#DejaVuSans-53" transform="translate(193.498047 0)"/>
      <use xlink:href="#DejaVuSans-70" transform="translate(256.974609 0)"/>
      <use xlink:href="#DejaVuSans-65" transform="translate(320.451172 0)"/>
      <use xlink:href="#DejaVuSans-65" transform="translate(381.974609 0)"/>
      <use xlink:href="#DejaVuSans-64" transform="translate(443.498047 0)"/>
      <use xlink:href="#DejaVuSans-20" transform="translate(506.974609 0)"/>
      <use xlink:href="#DejaVuSans-3d" transform="translate(538.761719 0)"/>
      <use xlink:href="#DejaVuSans-20" transform="translate(622.550781 0)"/>
      <use xlink:href="#DejaVuSans-32" transform="translate(654.337891 0)"/>
      <use xlink:href="#DejaVuSans-35" transform="translate(717.960938 0)"/>
      <use xlink:href="#DejaVuSans-35" transform="translate(781.583984 0)"/>
     </g>
    </g>
    <g id="line2d_29">
     <path d="M 324.390625 270.540313 
L 334.390625 270.540313 
L 344.390625 270.540313 
" style="fill: none; stroke: #8c564b; stroke-width: 1.5; stroke-linecap: square"/>
    </g>
    <g id="text_26">
     <!-- Ref Speed = 170 -->
     <g transform="translate(352.390625 274.040313) scale(0.1 -0.1)">
      <use xlink:href="#DejaVuSans-52"/>
      <use xlink:href="#DejaVuSans-65" transform="translate(64.982422 0)"/>
      <use xlink:href="#DejaVuSans-66" transform="translate(126.505859 0)"/>
      <use xlink:href="#DejaVuSans-20" transform="translate(161.710938 0)"/>
      <use xlink:href="#DejaVuSans-53" transform="translate(193.498047 0)"/>
      <use xlink:href="#DejaVuSans-70" transform="translate(256.974609 0)"/>
      <use xlink:href="#DejaVuSans-65" transform="translate(320.451172 0)"/>
      <use xlink:href="#DejaVuSans-65" transform="translate(381.974609 0)"/>
      <use xlink:href="#DejaVuSans-64" transform="translate(443.498047 0)"/>
      <use xlink:href="#DejaVuSans-20" transform="translate(506.974609 0)"/>
      <use xlink:href="#DejaVuSans-3d" transform="translate(538.761719 0)"/>
      <use xlink:href="#DejaVuSans-20" transform="translate(622.550781 0)"/>
      <use xlink:href="#DejaVuSans-31" transform="translate(654.337891 0)"/>
      <use xlink:href="#DejaVuSans-37" transform="translate(717.960938 0)"/>
      <use xlink:href="#DejaVuSans-30" transform="translate(781.583984 0)"/>
     </g>
    </g>
    <g id="line2d_30">
     <path d="M 324.390625 285.218438 
L 334.390625 285.218438 
L 344.390625 285.218438 
" style="fill: none; stroke: #e377c2; stroke-width: 1.5; stroke-linecap: square"/>
    </g>
    <g id="text_27">
     <!-- Ref Speed = 85 -->
     <g transform="translate(352.390625 288.718438) scale(0.1 -0.1)">
      <defs>
       <path id="DejaVuSans-38" d="M 2034 2216 
Q 1584 2216 1326 1975 
Q 1069 1734 1069 1313 
Q 1069 891 1326 650 
Q 1584 409 2034 409 
Q 2484 409 2743 651 
Q 3003 894 3003 1313 
Q 3003 1734 2745 1975 
Q 2488 2216 2034 2216 
z
M 1403 2484 
Q 997 2584 770 2862 
Q 544 3141 544 3541 
Q 544 4100 942 4425 
Q 1341 4750 2034 4750 
Q 2731 4750 3128 4425 
Q 3525 4100 3525 3541 
Q 3525 3141 3298 2862 
Q 3072 2584 2669 2484 
Q 3125 2378 3379 2068 
Q 3634 1759 3634 1313 
Q 3634 634 3220 271 
Q 2806 -91 2034 -91 
Q 1263 -91 848 271 
Q 434 634 434 1313 
Q 434 1759 690 2068 
Q 947 2378 1403 2484 
z
M 1172 3481 
Q 1172 3119 1398 2916 
Q 1625 2713 2034 2713 
Q 2441 2713 2670 2916 
Q 2900 3119 2900 3481 
Q 2900 3844 2670 4047 
Q 2441 4250 2034 4250 
Q 1625 4250 1398 4047 
Q 1172 3844 1172 3481 
z
" transform="scale(0.015625)"/>
      </defs>
      <use xlink:href="#DejaVuSans-52"/>
      <use xlink:href="#DejaVuSans-65" transform="translate(64.982422 0)"/>
      <use xlink:href="#DejaVuSans-66" transform="translate(126.505859 0)"/>
      <use xlink:href="#DejaVuSans-20" transform="translate(161.710938 0)"/>
      <use xlink:href="#DejaVuSans-53" transform="translate(193.498047 0)"/>
      <use xlink:href="#DejaVuSans-70" transform="translate(256.974609 0)"/>
      <use xlink:href="#DejaVuSans-65" transform="translate(320.451172 0)"/>
      <use xlink:href="#DejaVuSans-65" transform="translate(381.974609 0)"/>
      <use xlink:href="#DejaVuSans-64" transform="translate(443.498047 0)"/>
      <use xlink:href="#DejaVuSans-20" transform="translate(506.974609 0)"/>
      <use xlink:href="#DejaVuSans-3d" transform="translate(538.761719 0)"/>
      <use xlink:href="#DejaVuSans-20" transform="translate(622.550781 0)"/>
      <use xlink:href="#DejaVuSans-38" transform="translate(654.337891 0)"/>
      <use xlink:href="#DejaVuSans-35" transform="translate(717.960938 0)"/>
     </g>
    </g>
   </g>
  </g>
 </g>
 <defs>
  <clipPath id="p86bf16a9d5">
   <rect x="46.965625" y="22.318125" width="398.95" height="277.48"/>
  </clipPath>
 </defs>
</svg>
