<?xml version="1.0" encoding="utf-8" standalone="no"?>
<!DOCTYPE svg PUBLIC "-//W3C//DTD SVG 1.1//EN"
  "http://www.w3.org/Graphics/SVG/1.1/DTD/svg11.dtd">
<svg xmlns:xlink="http://www.w3.org/1999/xlink" width="453.115625pt" height="337.354375pt" viewBox="0 0 453.115625 337.354375" xmlns="http://www.w3.org/2000/svg" version="1.1">
 <metadata>
  <rdf:RDF xmlns:dc="http://purl.org/dc/elements/1.1/" xmlns:cc="http://creativecommons.org/ns#" xmlns:rdf="http://www.w3.org/1999/02/22-rdf-syntax-ns#">
   <cc:Work>
    <dc:type rdf:resource="http://purl.org/dc/dcmitype/StillImage"/>
    <dc:date>2025-10-29T21:18:59.594119</dc:date>
    <dc:format>image/svg+xml</dc:format>
    <dc:creator>
     <cc:Agent>
      <dc:title>Matplotlib v3.10.6, https://matplotlib.org/</dc:title>
     </cc:Agent>
    </dc:creator>
   </cc:Work>
  </rdf:RDF>
 </metadata>
 <defs>
  <style type="text/css">*{stroke-linejoin: round; stroke-linecap: butt}</style>
 </defs>
 <g id="figure_1">
  <g id="patch_1">
   <path d="M 0 337.354375 
L 453.115625 337.354375 
L 453.115625 0 
L 0 0 
z
" style="fill: #ffffff"/>
  </g>
  <g id="axes_1">
   <g id="patch_2">
    <path d="M 46.965625 299.798125 
L 445.915625 299.798125 
L 445.915625 22.318125 
L 46.965625 22.318125 
z
" style="fill: #ffffff"/>
   </g>
   <g id="matplotlib.axis_1">
    <g id="xtick_1">
     <g id="line2d_1">
      <defs>
       <path id="m2d532066ff" d="M 0 0 
L 0 3.5 
" style="stroke: #000000; stroke-width: 0.8"/>
      </defs>
      <g>
       <use xlink:href="#m2d532066ff" x="64.894454" y="299.798125" style="stroke: #000000; stroke-width: 0.8"/>
      </g>
     </g>
     <g id="text_1">
      <!-- 0.00 -->
      <g transform="translate(53.761642 314.396563) scale(0.1 -0.1)">
       <defs>
        <path id="DejaVuSans-30" d="M 2034 4250 
Q 1547 4250 1301 3770 
Q 1056 3291 1056 2328 
Q 1056 1369 1301 889 
Q 1547 409 2034 409 
Q 2525 409 2770 889 
Q 3016 1369 3016 2328 
Q 3016 3291 2770 3770 
Q 2525 4250 2034 4250 
z
M 2034 4750 
Q 2819 4750 3233 4129 
Q 3647 3509 3647 2328 
Q 3647 1150 3233 529 
Q 2819 -91 2034 -91 
Q 1250 -91 836 529 
Q 422 1150 422 2328 
Q 422 3509 836 4129 
Q 1250 4750 2034 4750 
z
" transform="scale(0.015625)"/>
        <path id="DejaVuSans-2e" d="M 684 794 
L 1344 794 
L 1344 0 
L 684 0 
L 684 794 
z
" transform="scale(0.015625)"/>
       </defs>
       <use xlink:href="#DejaVuSans-30"/>
       <use xlink:href="#DejaVuSans-2e" transform="translate(63.623047 0)"/>
       <use xlink:href="#DejaVuSans-30" transform="translate(95.410156 0)"/>
       <use xlink:href="#DejaVuSans-30" transform="translate(159.033203 0)"/>
      </g>
     </g>
    </g>
    <g id="xtick_2">
     <g id="line2d_2">
      <g>
       <use xlink:href="#m2d532066ff" x="110.306337" y="299.798125" style="stroke: #000000; stroke-width: 0.8"/>
      </g>
     </g>
     <g id="text_2">
      <!-- 0.25 -->
      <g transform="translate(99.173524 314.396563) scale(0.1 -0.1)">
       <defs>
        <path id="DejaVuSans-32" d="M 1228 531 
L 3431 531 
L 3431 0 
L 469 0 
L 469 531 
Q 828 903 1448 1529 
Q 2069 2156 2228 2338 
Q 2531 2678 2651 2914 
Q 2772 3150 2772 3378 
Q 2772 3750 2511 3984 
Q 2250 4219 1831 4219 
Q 1534 4219 1204 4116 
Q 875 4013 500 3803 
L 500 4441 
Q 881 4594 1212 4672 
Q 1544 4750 1819 4750 
Q 2544 4750 2975 4387 
Q 3406 4025 3406 3419 
Q 3406 3131 3298 2873 
Q 3191 2616 2906 2266 
Q 2828 2175 2409 1742 
Q 1991 1309 1228 531 
z
" transform="scale(0.015625)"/>
        <path id="DejaVuSans-35" d="M 691 4666 
L 3169 4666 
L 3169 4134 
L 1269 4134 
L 1269 2991 
Q 1406 3038 1543 3061 
Q 1681 3084 1819 3084 
Q 2600 3084 3056 2656 
Q 3513 2228 3513 1497 
Q 3513 744 3044 326 
Q 2575 -91 1722 -91 
Q 1428 -91 1123 -41 
Q 819 9 494 109 
L 494 744 
Q 775 591 1075 516 
Q 1375 441 1709 441 
Q 2250 441 2565 725 
Q 2881 1009 2881 1497 
Q 2881 1984 2565 2268 
Q 2250 2553 1709 2553 
Q 1456 2553 1204 2497 
Q 953 2441 691 2322 
L 691 4666 
z
" transform="scale(0.015625)"/>
       </defs>
       <use xlink:href="#DejaVuSans-30"/>
       <use xlink:href="#DejaVuSans-2e" transform="translate(63.623047 0)"/>
       <use xlink:href="#DejaVuSans-32" transform="translate(95.410156 0)"/>
       <use xlink:href="#DejaVuSans-35" transform="translate(159.033203 0)"/>
      </g>
     </g>
    </g>
    <g id="xtick_3">
     <g id="line2d_3">
      <g>
       <use xlink:href="#m2d532066ff" x="155.718219" y="299.798125" style="stroke: #000000; stroke-width: 0.8"/>
      </g>
     </g>
     <g id="text_3">
      <!-- 0.50 -->
      <g transform="translate(144.585407 314.396563) scale(0.1 -0.1)">
       <use xlink:href="#DejaVuSans-30"/>
       <use xlink:href="#DejaVuSans-2e" transform="translate(63.623047 0)"/>
       <use xlink:href="#DejaVuSans-35" transform="translate(95.410156 0)"/>
       <use xlink:href="#DejaVuSans-30" transform="translate(159.033203 0)"/>
      </g>
     </g>
    </g>
    <g id="xtick_4">
     <g id="line2d_4">
      <g>
       <use xlink:href="#m2d532066ff" x="201.130102" y="299.798125" style="stroke: #000000; stroke-width: 0.8"/>
      </g>
     </g>
     <g id="text_4">
      <!-- 0.75 -->
      <g transform="translate(189.997289 314.396563) scale(0.1 -0.1)">
       <defs>
        <path id="DejaVuSans-37" d="M 525 4666 
L 3525 4666 
L 3525 4397 
L 1831 0 
L 1172 0 
L 2766 4134 
L 525 4134 
L 525 4666 
z
" transform="scale(0.015625)"/>
       </defs>
       <use xlink:href="#DejaVuSans-30"/>
       <use xlink:href="#DejaVuSans-2e" transform="translate(63.623047 0)"/>
       <use xlink:href="#DejaVuSans-37" transform="translate(95.410156 0)"/>
       <use xlink:href="#DejaVuSans-35" transform="translate(159.033203 0)"/>
      </g>
     </g>
    </g>
    <g id="xtick_5">
     <g id="line2d_5">
      <g>
       <use xlink:href="#m2d532066ff" x="246.541984" y="299.798125" style="stroke: #000000; stroke-width: 0.8"/>
      </g>
     </g>
     <g id="text_5">
      <!-- 1.00 -->
      <g transform="translate(235.409172 314.396563) scale(0.1 -0.1)">
       <defs>
        <path id="DejaVuSans-31" d="M 794 531 
L 1825 531 
L 1825 4091 
L 703 3866 
L 703 4441 
L 1819 4666 
L 2450 4666 
L 2450 531 
L 3481 531 
L 3481 0 
L 794 0 
L 794 531 
z
" transform="scale(0.015625)"/>
       </defs>
       <use xlink:href="#DejaVuSans-31"/>
       <use xlink:href="#DejaVuSans-2e" transform="translate(63.623047 0)"/>
       <use xlink:href="#DejaVuSans-30" transform="translate(95.410156 0)"/>
       <use xlink:href="#DejaVuSans-30" transform="translate(159.033203 0)"/>
      </g>
     </g>
    </g>
    <g id="xtick_6">
     <g id="line2d_6">
      <g>
       <use xlink:href="#m2d532066ff" x="291.953867" y="299.798125" style="stroke: #000000; stroke-width: 0.8"/>
      </g>
     </g>
     <g id="text_6">
      <!-- 1.25 -->
      <g transform="translate(280.821054 314.396563) scale(0.1 -0.1)">
       <use xlink:href="#DejaVuSans-31"/>
       <use xlink:href="#DejaVuSans-2e" transform="translate(63.623047 0)"/>
       <use xlink:href="#DejaVuSans-32" transform="translate(95.410156 0)"/>
       <use xlink:href="#DejaVuSans-35" transform="translate(159.033203 0)"/>
      </g>
     </g>
    </g>
    <g id="xtick_7">
     <g id="line2d_7">
      <g>
       <use xlink:href="#m2d532066ff" x="337.365749" y="299.798125" style="stroke: #000000; stroke-width: 0.8"/>
      </g>
     </g>
     <g id="text_7">
      <!-- 1.50 -->
      <g transform="translate(326.232937 314.396563) scale(0.1 -0.1)">
       <use xlink:href="#DejaVuSans-31"/>
       <use xlink:href="#DejaVuSans-2e" transform="translate(63.623047 0)"/>
       <use xlink:href="#DejaVuSans-35" transform="translate(95.410156 0)"/>
       <use xlink:href="#DejaVuSans-30" transform="translate(159.033203 0)"/>
      </g>
     </g>
    </g>
    <g id="xtick_8">
     <g id="line2d_8">
      <g>
       <use xlink:href="#m2d532066ff" x="382.777632" y="299.798125" style="stroke: #000000; stroke-width: 0.8"/>
      </g>
     </g>
     <g id="text_8">
      <!-- 1.75 -->
      <g transform="translate(371.644819 314.396563) scale(0.1 -0.1)">
       <use xlink:href="#DejaVuSans-31"/>
       <use xlink:href="#DejaVuSans-2e" transform="translate(63.623047 0)"/>
       <use xlink:href="#DejaVuSans-37" transform="translate(95.410156 0)"/>
       <use xlink:href="#DejaVuSans-35" transform="translate(159.033203 0)"/>
      </g>
     </g>
    </g>
    <g id="xtick_9">
     <g id="line2d_9">
      <g>
       <use xlink:href="#m2d532066ff" x="428.189514" y="299.798125" style="stroke: #000000; stroke-width: 0.8"/>
      </g>
     </g>
     <g id="text_9">
      <!-- 2.00 -->
      <g transform="translate(417.056702 314.396563) scale(0.1 -0.1)">
       <use xlink:href="#DejaVuSans-32"/>
       <use xlink:href="#DejaVuSans-2e" transform="translate(63.623047 0)"/>
       <use xlink:href="#DejaVuSans-30" transform="translate(95.410156 0)"/>
       <use xlink:href="#DejaVuSans-30" transform="translate(159.033203 0)"/>
      </g>
     </g>
    </g>
    <g id="text_10">
     <!-- time, t (us) -->
     <g transform="translate(218.742188 328.074688) scale(0.1 -0.1)">
      <defs>
       <path id="DejaVuSans-74" d="M 1172 4494 
L 1172 3500 
L 2356 3500 
L 2356 3053 
L 1172 3053 
L 1172 1153 
Q 1172 725 1289 603 
Q 1406 481 1766 481 
L 2356 481 
L 2356 0 
L 1766 0 
Q 1100 0 847 248 
Q 594 497 594 1153 
L 594 3053 
L 172 3053 
L 172 3500 
L 594 3500 
L 594 4494 
L 1172 4494 
z
" transform="scale(0.015625)"/>
       <path id="DejaVuSans-69" d="M 603 3500 
L 1178 3500 
L 1178 0 
L 603 0 
L 603 3500 
z
M 603 4863 
L 1178 4863 
L 1178 4134 
L 603 4134 
L 603 4863 
z
" transform="scale(0.015625)"/>
       <path id="DejaVuSans-6d" d="M 3328 2828 
Q 3544 3216 3844 3400 
Q 4144 3584 4550 3584 
Q 5097 3584 5394 3201 
Q 5691 2819 5691 2113 
L 5691 0 
L 5113 0 
L 5113 2094 
Q 5113 2597 4934 2840 
Q 4756 3084 4391 3084 
Q 3944 3084 3684 2787 
Q 3425 2491 3425 1978 
L 3425 0 
L 2847 0 
L 2847 2094 
Q 2847 2600 2669 2842 
Q 2491 3084 2119 3084 
Q 1678 3084 1418 2786 
Q 1159 2488 1159 1978 
L 1159 0 
L 581 0 
L 581 3500 
L 1159 3500 
L 1159 2956 
Q 1356 3278 1631 3431 
Q 1906 3584 2284 3584 
Q 2666 3584 2933 3390 
Q 3200 3197 3328 2828 
z
" transform="scale(0.015625)"/>
       <path id="DejaVuSans-65" d="M 3597 1894 
L 3597 1613 
L 953 1613 
Q 991 1019 1311 708 
Q 1631 397 2203 397 
Q 2534 397 2845 478 
Q 3156 559 3463 722 
L 3463 178 
Q 3153 47 2828 -22 
Q 2503 -91 2169 -91 
Q 1331 -91 842 396 
Q 353 884 353 1716 
Q 353 2575 817 3079 
Q 1281 3584 2069 3584 
Q 2775 3584 3186 3129 
Q 3597 2675 3597 1894 
z
M 3022 2063 
Q 3016 2534 2758 2815 
Q 2500 3097 2075 3097 
Q 1594 3097 1305 2825 
Q 1016 2553 972 2059 
L 3022 2063 
z
" transform="scale(0.015625)"/>
       <path id="DejaVuSans-2c" d="M 750 794 
L 1409 794 
L 1409 256 
L 897 -744 
L 494 -744 
L 750 256 
L 750 794 
z
" transform="scale(0.015625)"/>
       <path id="DejaVuSans-20" transform="scale(0.015625)"/>
       <path id="DejaVuSans-28" d="M 1984 4856 
Q 1566 4138 1362 3434 
Q 1159 2731 1159 2009 
Q 1159 1288 1364 580 
Q 1569 -128 1984 -844 
L 1484 -844 
Q 1016 -109 783 600 
Q 550 1309 550 2009 
Q 550 2706 781 3412 
Q 1013 4119 1484 4856 
L 1984 4856 
z
" transform="scale(0.015625)"/>
       <path id="DejaVuSans-75" d="M 544 1381 
L 544 3500 
L 1119 3500 
L 1119 1403 
Q 1119 906 1312 657 
Q 1506 409 1894 409 
Q 2359 409 2629 706 
Q 2900 1003 2900 1516 
L 2900 3500 
L 3475 3500 
L 3475 0 
L 2900 0 
L 2900 538 
Q 2691 219 2414 64 
Q 2138 -91 1772 -91 
Q 1169 -91 856 284 
Q 544 659 544 1381 
z
M 1991 3584 
L 1991 3584 
z
" transform="scale(0.015625)"/>
       <path id="DejaVuSans-73" d="M 2834 3397 
L 2834 2853 
Q 2591 2978 2328 3040 
Q 2066 3103 1784 3103 
Q 1356 3103 1142 2972 
Q 928 2841 928 2578 
Q 928 2378 1081 2264 
Q 1234 2150 1697 2047 
L 1894 2003 
Q 2506 1872 2764 1633 
Q 3022 1394 3022 966 
Q 3022 478 2636 193 
Q 2250 -91 1575 -91 
Q 1294 -91 989 -36 
Q 684 19 347 128 
L 347 722 
Q 666 556 975 473 
Q 1284 391 1588 391 
Q 1994 391 2212 530 
Q 2431 669 2431 922 
Q 2431 1156 2273 1281 
Q 2116 1406 1581 1522 
L 1381 1569 
Q 847 1681 609 1914 
Q 372 2147 372 2553 
Q 372 3047 722 3315 
Q 1072 3584 1716 3584 
Q 2034 3584 2315 3537 
Q 2597 3491 2834 3397 
z
" transform="scale(0.015625)"/>
       <path id="DejaVuSans-29" d="M 513 4856 
L 1013 4856 
Q 1481 4119 1714 3412 
Q 1947 2706 1947 2009 
Q 1947 1309 1714 600 
Q 1481 -109 1013 -844 
L 513 -844 
Q 928 -128 1133 580 
Q 1338 1288 1338 2009 
Q 1338 2731 1133 3434 
Q 928 4138 513 4856 
z
" transform="scale(0.015625)"/>
      </defs>
      <use xlink:href="#DejaVuSans-74"/>
      <use xlink:href="#DejaVuSans-69" transform="translate(39.208984 0)"/>
      <use xlink:href="#DejaVuSans-6d" transform="translate(66.992188 0)"/>
      <use xlink:href="#DejaVuSans-65" transform="translate(164.404297 0)"/>
      <use xlink:href="#DejaVuSans-2c" transform="translate(225.927734 0)"/>
      <use xlink:href="#DejaVuSans-20" transform="translate(257.714844 0)"/>
      <use xlink:href="#DejaVuSans-74" transform="translate(289.501953 0)"/>
      <use xlink:href="#DejaVuSans-20" transform="translate(328.710938 0)"/>
      <use xlink:href="#DejaVuSans-28" transform="translate(360.498047 0)"/>
      <use xlink:href="#DejaVuSans-75" transform="translate(399.511719 0)"/>
      <use xlink:href="#DejaVuSans-73" transform="translate(462.890625 0)"/>
      <use xlink:href="#DejaVuSans-29" transform="translate(514.990234 0)"/>
     </g>
    </g>
    <g id="text_11">
     <!-- 1e6 -->
     <g transform="translate(427.0375 327.074688) scale(0.1 -0.1)">
      <defs>
       <path id="DejaVuSans-36" d="M 2113 2584 
Q 1688 2584 1439 2293 
Q 1191 2003 1191 1497 
Q 1191 994 1439 701 
Q 1688 409 2113 409 
Q 2538 409 2786 701 
Q 3034 994 3034 1497 
Q 3034 2003 2786 2293 
Q 2538 2584 2113 2584 
z
M 3366 4563 
L 3366 3988 
Q 3128 4100 2886 4159 
Q 2644 4219 2406 4219 
Q 1781 4219 1451 3797 
Q 1122 3375 1075 2522 
Q 1259 2794 1537 2939 
Q 1816 3084 2150 3084 
Q 2853 3084 3261 2657 
Q 3669 2231 3669 1497 
Q 3669 778 3244 343 
Q 2819 -91 2113 -91 
Q 1303 -91 875 529 
Q 447 1150 447 2328 
Q 447 3434 972 4092 
Q 1497 4750 2381 4750 
Q 2619 4750 2861 4703 
Q 3103 4656 3366 4563 
z
" transform="scale(0.015625)"/>
      </defs>
      <use xlink:href="#DejaVuSans-31"/>
      <use xlink:href="#DejaVuSans-65" transform="translate(63.623047 0)"/>
      <use xlink:href="#DejaVuSans-36" transform="translate(125.146484 0)"/>
     </g>
    </g>
   </g>
   <g id="matplotlib.axis_2">
    <g id="ytick_1">
     <g id="line2d_10">
      <defs>
       <path id="md20b54b2b2" d="M 0 0 
L -3.5 0 
" style="stroke: #000000; stroke-width: 0.8"/>
      </defs>
      <g>
       <use xlink:href="#md20b54b2b2" x="46.965625" y="287.185398" style="stroke: #000000; stroke-width: 0.8"/>
      </g>
     </g>
     <g id="text_12">
      <!-- 0 -->
      <g transform="translate(33.603125 290.984616) scale(0.1 -0.1)">
       <use xlink:href="#DejaVuSans-30"/>
      </g>
     </g>
    </g>
    <g id="ytick_2">
     <g id="line2d_11">
      <g>
       <use xlink:href="#md20b54b2b2" x="46.965625" y="247.208449" style="stroke: #000000; stroke-width: 0.8"/>
      </g>
     </g>
     <g id="text_13">
      <!-- 100 -->
      <g transform="translate(20.878125 251.007668) scale(0.1 -0.1)">
       <use xlink:href="#DejaVuSans-31"/>
       <use xlink:href="#DejaVuSans-30" transform="translate(63.623047 0)"/>
       <use xlink:href="#DejaVuSans-30" transform="translate(127.246094 0)"/>
      </g>
     </g>
    </g>
    <g id="ytick_3">
     <g id="line2d_12">
      <g>
       <use xlink:href="#md20b54b2b2" x="46.965625" y="207.231501" style="stroke: #000000; stroke-width: 0.8"/>
      </g>
     </g>
     <g id="text_14">
      <!-- 200 -->
      <g transform="translate(20.878125 211.030719) scale(0.1 -0.1)">
       <use xlink:href="#DejaVuSans-32"/>
       <use xlink:href="#DejaVuSans-30" transform="translate(63.623047 0)"/>
       <use xlink:href="#DejaVuSans-30" transform="translate(127.246094 0)"/>
      </g>
     </g>
    </g>
    <g id="ytick_4">
     <g id="line2d_13">
      <g>
       <use xlink:href="#md20b54b2b2" x="46.965625" y="167.254552" style="stroke: #000000; stroke-width: 0.8"/>
      </g>
     </g>
     <g id="text_15">
      <!-- 300 -->
      <g transform="translate(20.878125 171.053771) scale(0.1 -0.1)">
       <defs>
        <path id="DejaVuSans-33" d="M 2597 2516 
Q 3050 2419 3304 2112 
Q 3559 1806 3559 1356 
Q 3559 666 3084 287 
Q 2609 -91 1734 -91 
Q 1441 -91 1130 -33 
Q 819 25 488 141 
L 488 750 
Q 750 597 1062 519 
Q 1375 441 1716 441 
Q 2309 441 2620 675 
Q 2931 909 2931 1356 
Q 2931 1769 2642 2001 
Q 2353 2234 1838 2234 
L 1294 2234 
L 1294 2753 
L 1863 2753 
Q 2328 2753 2575 2939 
Q 2822 3125 2822 3475 
Q 2822 3834 2567 4026 
Q 2313 4219 1838 4219 
Q 1578 4219 1281 4162 
Q 984 4106 628 3988 
L 628 4550 
Q 988 4650 1302 4700 
Q 1616 4750 1894 4750 
Q 2613 4750 3031 4423 
Q 3450 4097 3450 3541 
Q 3450 3153 3228 2886 
Q 3006 2619 2597 2516 
z
" transform="scale(0.015625)"/>
       </defs>
       <use xlink:href="#DejaVuSans-33"/>
       <use xlink:href="#DejaVuSans-30" transform="translate(63.623047 0)"/>
       <use xlink:href="#DejaVuSans-30" transform="translate(127.246094 0)"/>
      </g>
     </g>
    </g>
    <g id="ytick_5">
     <g id="line2d_14">
      <g>
       <use xlink:href="#md20b54b2b2" x="46.965625" y="127.277603" style="stroke: #000000; stroke-width: 0.8"/>
      </g>
     </g>
     <g id="text_16">
      <!-- 400 -->
      <g transform="translate(20.878125 131.076822) scale(0.1 -0.1)">
       <defs>
        <path id="DejaVuSans-34" d="M 2419 4116 
L 825 1625 
L 2419 1625 
L 2419 4116 
z
M 2253 4666 
L 3047 4666 
L 3047 1625 
L 3713 1625 
L 3713 1100 
L 3047 1100 
L 3047 0 
L 2419 0 
L 2419 1100 
L 313 1100 
L 313 1709 
L 2253 4666 
z
" transform="scale(0.015625)"/>
       </defs>
       <use xlink:href="#DejaVuSans-34"/>
       <use xlink:href="#DejaVuSans-30" transform="translate(63.623047 0)"/>
       <use xlink:href="#DejaVuSans-30" transform="translate(127.246094 0)"/>
      </g>
     </g>
    </g>
    <g id="ytick_6">
     <g id="line2d_15">
      <g>
       <use xlink:href="#md20b54b2b2" x="46.965625" y="87.300655" style="stroke: #000000; stroke-width: 0.8"/>
      </g>
     </g>
     <g id="text_17">
      <!-- 500 -->
      <g transform="translate(20.878125 91.099874) scale(0.1 -0.1)">
       <use xlink:href="#DejaVuSans-35"/>
       <use xlink:href="#DejaVuSans-30" transform="translate(63.623047 0)"/>
       <use xlink:href="#DejaVuSans-30" transform="translate(127.246094 0)"/>
      </g>
     </g>
    </g>
    <g id="ytick_7">
     <g id="line2d_16">
      <g>
       <use xlink:href="#md20b54b2b2" x="46.965625" y="47.323706" style="stroke: #000000; stroke-width: 0.8"/>
      </g>
     </g>
     <g id="text_18">
      <!-- 600 -->
      <g transform="translate(20.878125 51.122925) scale(0.1 -0.1)">
       <use xlink:href="#DejaVuSans-36"/>
       <use xlink:href="#DejaVuSans-30" transform="translate(63.623047 0)"/>
       <use xlink:href="#DejaVuSans-30" transform="translate(127.246094 0)"/>
      </g>
     </g>
    </g>
    <g id="text_19">
     <!-- right wheel velocity, rv (mm/s) -->
     <g transform="translate(14.798438 238.039375) rotate(-90) scale(0.1 -0.1)">
      <defs>
       <path id="DejaVuSans-72" d="M 2631 2963 
Q 2534 3019 2420 3045 
Q 2306 3072 2169 3072 
Q 1681 3072 1420 2755 
Q 1159 2438 1159 1844 
L 1159 0 
L 581 0 
L 581 3500 
L 1159 3500 
L 1159 2956 
Q 1341 3275 1631 3429 
Q 1922 3584 2338 3584 
Q 2397 3584 2469 3576 
Q 2541 3569 2628 3553 
L 2631 2963 
z
" transform="scale(0.015625)"/>
       <path id="DejaVuSans-67" d="M 2906 1791 
Q 2906 2416 2648 2759 
Q 2391 3103 1925 3103 
Q 1463 3103 1205 2759 
Q 947 2416 947 1791 
Q 947 1169 1205 825 
Q 1463 481 1925 481 
Q 2391 481 2648 825 
Q 2906 1169 2906 1791 
z
M 3481 434 
Q 3481 -459 3084 -895 
Q 2688 -1331 1869 -1331 
Q 1566 -1331 1297 -1286 
Q 1028 -1241 775 -1147 
L 775 -588 
Q 1028 -725 1275 -790 
Q 1522 -856 1778 -856 
Q 2344 -856 2625 -561 
Q 2906 -266 2906 331 
L 2906 616 
Q 2728 306 2450 153 
Q 2172 0 1784 0 
Q 1141 0 747 490 
Q 353 981 353 1791 
Q 353 2603 747 3093 
Q 1141 3584 1784 3584 
Q 2172 3584 2450 3431 
Q 2728 3278 2906 2969 
L 2906 3500 
L 3481 3500 
L 3481 434 
z
" transform="scale(0.015625)"/>
       <path id="DejaVuSans-68" d="M 3513 2113 
L 3513 0 
L 2938 0 
L 2938 2094 
Q 2938 2591 2744 2837 
Q 2550 3084 2163 3084 
Q 1697 3084 1428 2787 
Q 1159 2491 1159 1978 
L 1159 0 
L 581 0 
L 581 4863 
L 1159 4863 
L 1159 2956 
Q 1366 3272 1645 3428 
Q 1925 3584 2291 3584 
Q 2894 3584 3203 3211 
Q 3513 2838 3513 2113 
z
" transform="scale(0.015625)"/>
       <path id="DejaVuSans-77" d="M 269 3500 
L 844 3500 
L 1563 769 
L 2278 3500 
L 2956 3500 
L 3675 769 
L 4391 3500 
L 4966 3500 
L 4050 0 
L 3372 0 
L 2619 2869 
L 1863 0 
L 1184 0 
L 269 3500 
z
" transform="scale(0.015625)"/>
       <path id="DejaVuSans-6c" d="M 603 4863 
L 1178 4863 
L 1178 0 
L 603 0 
L 603 4863 
z
" transform="scale(0.015625)"/>
       <path id="DejaVuSans-76" d="M 191 3500 
L 800 3500 
L 1894 563 
L 2988 3500 
L 3597 3500 
L 2284 0 
L 1503 0 
L 191 3500 
z
" transform="scale(0.015625)"/>
       <path id="DejaVuSans-6f" d="M 1959 3097 
Q 1497 3097 1228 2736 
Q 959 2375 959 1747 
Q 959 1119 1226 758 
Q 1494 397 1959 397 
Q 2419 397 2687 759 
Q 2956 1122 2956 1747 
Q 2956 2369 2687 2733 
Q 2419 3097 1959 3097 
z
M 1959 3584 
Q 2709 3584 3137 3096 
Q 3566 2609 3566 1747 
Q 3566 888 3137 398 
Q 2709 -91 1959 -91 
Q 1206 -91 779 398 
Q 353 888 353 1747 
Q 353 2609 779 3096 
Q 1206 3584 1959 3584 
z
" transform="scale(0.015625)"/>
       <path id="DejaVuSans-63" d="M 3122 3366 
L 3122 2828 
Q 2878 2963 2633 3030 
Q 2388 3097 2138 3097 
Q 1578 3097 1268 2742 
Q 959 2388 959 1747 
Q 959 1106 1268 751 
Q 1578 397 2138 397 
Q 2388 397 2633 464 
Q 2878 531 3122 666 
L 3122 134 
Q 2881 22 2623 -34 
Q 2366 -91 2075 -91 
Q 1284 -91 818 406 
Q 353 903 353 1747 
Q 353 2603 823 3093 
Q 1294 3584 2113 3584 
Q 2378 3584 2631 3529 
Q 2884 3475 3122 3366 
z
" transform="scale(0.015625)"/>
       <path id="DejaVuSans-79" d="M 2059 -325 
Q 1816 -950 1584 -1140 
Q 1353 -1331 966 -1331 
L 506 -1331 
L 506 -850 
L 844 -850 
Q 1081 -850 1212 -737 
Q 1344 -625 1503 -206 
L 1606 56 
L 191 3500 
L 800 3500 
L 1894 763 
L 2988 3500 
L 3597 3500 
L 2059 -325 
z
" transform="scale(0.015625)"/>
       <path id="DejaVuSans-2f" d="M 1625 4666 
L 2156 4666 
L 531 -594 
L 0 -594 
L 1625 4666 
z
" transform="scale(0.015625)"/>
      </defs>
      <use xlink:href="#DejaVuSans-72"/>
      <use xlink:href="#DejaVuSans-69" transform="translate(41.113281 0)"/>
      <use xlink:href="#DejaVuSans-67" transform="translate(68.896484 0)"/>
      <use xlink:href="#DejaVuSans-68" transform="translate(132.373047 0)"/>
      <use xlink:href="#DejaVuSans-74" transform="translate(195.751953 0)"/>
      <use xlink:href="#DejaVuSans-20" transform="translate(234.960938 0)"/>
      <use xlink:href="#DejaVuSans-77" transform="translate(266.748047 0)"/>
      <use xlink:href="#DejaVuSans-68" transform="translate(348.535156 0)"/>
      <use xlink:href="#DejaVuSans-65" transform="translate(411.914062 0)"/>
      <use xlink:href="#DejaVuSans-65" transform="translate(473.4375 0)"/>
      <use xlink:href="#DejaVuSans-6c" transform="translate(534.960938 0)"/>
      <use xlink:href="#DejaVuSans-20" transform="translate(562.744141 0)"/>
      <use xlink:href="#DejaVuSans-76" transform="translate(594.53125 0)"/>
      <use xlink:href="#DejaVuSans-65" transform="translate(653.710938 0)"/>
      <use xlink:href="#DejaVuSans-6c" transform="translate(715.234375 0)"/>
      <use xlink:href="#DejaVuSans-6f" transform="translate(743.017578 0)"/>
      <use xlink:href="#DejaVuSans-63" transform="translate(804.199219 0)"/>
      <use xlink:href="#DejaVuSans-69" transform="translate(859.179688 0)"/>
      <use xlink:href="#DejaVuSans-74" transform="translate(886.962891 0)"/>
      <use xlink:href="#DejaVuSans-79" transform="translate(926.171875 0)"/>
      <use xlink:href="#DejaVuSans-2c" transform="translate(985.351562 0)"/>
      <use xlink:href="#DejaVuSans-20" transform="translate(1017.138672 0)"/>
      <use xlink:href="#DejaVuSans-72" transform="translate(1048.925781 0)"/>
      <use xlink:href="#DejaVuSans-76" transform="translate(1090.039062 0)"/>
      <use xlink:href="#DejaVuSans-20" transform="translate(1149.21875 0)"/>
      <use xlink:href="#DejaVuSans-28" transform="translate(1181.005859 0)"/>
      <use xlink:href="#DejaVuSans-6d" transform="translate(1220.019531 0)"/>
      <use xlink:href="#DejaVuSans-6d" transform="translate(1317.431641 0)"/>
      <use xlink:href="#DejaVuSans-2f" transform="translate(1414.84375 0)"/>
      <use xlink:href="#DejaVuSans-73" transform="translate(1448.535156 0)"/>
      <use xlink:href="#DejaVuSans-29" transform="translate(1500.634766 0)"/>
     </g>
    </g>
   </g>
   <g id="line2d_17">
    <path d="M 65.099716 287.185398 
L 68.896513 225.620897 
L 71.956729 138.471149 
L 75.860879 82.503421 
L 79.735421 54.919327 
L 83.700968 46.524167 
L 86.662549 47.323706 
L 90.668422 43.326011 
L 94.590556 49.322554 
L 97.566669 55.718866 
L 101.564731 51.321401 
L 105.485048 46.524167 
L 108.545264 36.9297 
L 112.465763 38.129008 
L 116.387351 35.330622 
L 119.440664 36.130161 
L 123.361526 34.930852 
L 126.423014 36.9297 
L 130.342059 34.930852 
L 134.217509 34.930852 
L 138.215753 37.329469 
L 141.193138 40.927395 
L 145.199919 37.729239 
L 149.090809 38.928547 
L 152.067286 40.927395 
L 156.048999 38.928547 
L 159.969861 40.927395 
L 163.030622 36.9297 
L 166.951121 40.927395 
L 170.873254 43.725781 
L 173.911491 42.526473 
L 177.832535 40.927395 
L 181.837499 43.326011 
L 184.813976 44.925089 
L 188.734474 40.927395 
L 192.734353 42.926242 
L 195.710829 44.925089 
L 199.716702 43.326011 
L 203.637564 40.927395 
L 206.598782 47.323706 
L 210.596663 45.724628 
L 214.518796 40.927395 
L 217.580647 40.527625 
L 221.501146 46.524167 
L 225.422371 43.725781 
L 228.476593 43.725781 
L 232.397273 46.524167 
L 235.459669 47.723476 
L 239.380712 43.725781 
L 243.302664 43.725781 
L 246.356885 47.323706 
L 250.275749 46.524167 
L 254.310504 44.925089 
L 257.300241 45.724628 
L 261.24944 42.526473 
L 265.277837 44.52532 
L 268.283196 46.923937 
L 272.317224 44.925089 
L 276.266786 45.324859 
L 279.271418 46.923937 
L 283.298362 44.52532 
L 286.28937 45.724628 
L 290.31141 49.722323 
L 294.246985 47.323706 
L 297.251617 43.326011 
L 301.278743 50.122093 
L 305.213047 50.122093 
L 308.30269 46.524167 
L 312.251888 45.324859 
L 316.187101 50.122093 
L 319.269841 49.322554 
L 323.218858 48.123245 
L 326.309591 46.524167 
L 330.245348 50.122093 
L 334.196545 48.523015 
L 337.279467 45.724628 
L 341.228847 50.921632 
L 345.250705 46.923937 
L 348.2557 46.923937 
L 352.204536 50.921632 
L 355.288366 49.722323 
L 359.239382 48.123245 
L 363.275953 50.521862 
L 366.281675 50.921632 
L 370.231055 48.123245 
L 374.258726 50.122093 
L 377.264811 47.323706 
L 381.299566 50.521862 
L 385.250763 51.321401 
L 388.256303 46.923937 
L 392.283792 50.122093 
L 395.289695 50.921632 
L 399.32445 50.521862 
L 403.276011 51.321401 
L 406.281369 50.921632 
L 410.294871 52.12094 
L 414.251336 51.321401 
L 417.341887 50.122093 
L 421.291631 50.921632 
L 425.243736 51.321401 
" clip-path="url(#pf6c479e606)" style="fill: none; stroke: #1f77b4; stroke-width: 1.5; stroke-linecap: square"/>
   </g>
   <g id="line2d_18">
    <path d="M 65.099898 287.185398 
L 67.954125 236.414673 
L 71.874079 142.868613 
L 75.872323 95.695814 
L 78.800844 86.101346 
L 82.774566 88.899733 
L 86.664729 84.502268 
L 89.625039 92.097889 
L 93.606934 92.097889 
L 97.527251 83.30296 
L 100.588376 73.308723 
L 104.508693 63.314486 
L 108.430099 66.512642 
L 111.483958 65.313333 
L 115.387926 65.313333 
L 119.393618 68.11172 
L 122.369549 66.912411 
L 126.274063 68.11172 
L 130.273397 67.71195 
L 133.250236 67.312181 
L 137.255201 68.11172 
L 141.175881 66.512642 
L 144.152539 70.910106 
L 148.150238 67.71195 
L 152.071463 69.311028 
L 155.132951 69.710798 
L 159.053086 72.109414 
L 162.973948 72.109414 
L 166.012003 71.709645 
L 169.933592 69.311028 
L 173.940191 70.910106 
L 176.900864 73.308723 
L 180.821726 72.109414 
L 184.80453 75.30757 
L 187.76484 73.308723 
L 191.755273 72.908953 
L 195.677406 72.109414 
L 198.654791 74.508031 
L 202.653216 73.308723 
L 206.57426 74.907801 
L 209.635566 69.710798 
L 213.556791 74.907801 
L 217.479651 74.907801 
L 220.533328 76.506879 
L 224.45419 74.907801 
L 228.460244 76.506879 
L 231.421462 77.306418 
L 235.342324 77.706187 
L 239.341658 76.107109 
L 242.318134 74.508031 
L 246.323826 76.506879 
L 250.244869 77.706187 
L 253.250409 76.506879 
L 257.277717 80.504574 
L 260.28471 80.504574 
L 264.320736 78.105957 
L 268.272478 79.305265 
L 271.2782 76.506879 
L 275.305507 80.504574 
L 279.25507 76.506879 
L 282.345621 78.905496 
L 286.295365 76.506879 
L 289.30254 80.504574 
L 293.330937 80.504574 
L 297.281589 82.103652 
L 300.371777 78.905496 
L 304.305717 84.102499 
L 308.255461 76.506879 
L 311.322398 80.904343 
L 315.272142 79.305265 
L 318.363056 82.503421 
L 322.30063 78.505726 
L 326.251282 79.305265 
L 329.333659 85.301807 
L 333.283039 82.103652 
L 337.317794 80.904343 
L 340.322971 80.504574 
L 344.272533 82.103652 
L 348.300931 80.504574 
L 351.306471 80.504574 
L 355.326876 80.104804 
L 358.332416 80.504574 
L 362.282523 79.305265 
L 366.31092 80.504574 
L 369.316097 80.504574 
L 373.35067 83.70273 
L 377.300596 82.103652 
L 380.292875 83.30296 
L 384.319819 80.504574 
L 388.270835 82.103652 
L 391.360659 82.503421 
L 395.296416 81.304113 
L 398.302501 80.504574 
L 402.329627 83.30296 
L 406.280824 82.103652 
L 409.370467 82.503421 
L 413.320574 82.103652 
L 417.269955 84.902038 
L 420.353058 85.701577 
L 424.302984 82.103652 
L 427.394625 82.503421 
" clip-path="url(#pf6c479e606)" style="fill: none; stroke: #ff7f0e; stroke-width: 1.5; stroke-linecap: square"/>
   </g>
   <g id="line2d_19">
    <path d="M 65.102077 287.185398 
L 68.902144 222.822511 
L 71.961633 149.264925 
L 75.865602 125.278756 
L 79.771205 119.681983 
L 82.792912 118.082905 
L 86.679624 118.882444 
L 90.684771 118.082905 
L 93.660702 115.684288 
L 97.579203 111.686594 
L 101.578173 106.88936 
L 104.553741 104.490743 
L 108.557616 104.090973 
L 112.477388 103.291434 
L 115.453138 104.490743 
L 119.434125 106.089821 
L 123.324834 104.490743 
L 126.385958 105.690051 
L 130.305003 106.089821 
L 134.225683 106.089821 
L 137.279542 105.290282 
L 141.198224 106.089821 
L 145.204642 106.88936 
L 148.1813 108.088668 
L 152.100345 102.891665 
L 156.098408 106.88936 
L 159.074884 108.088668 
L 163.079485 106.88936 
L 167.001982 108.888207 
L 169.977914 108.088668 
L 173.975068 109.287977 
L 177.89593 108.888207 
L 180.956872 109.687746 
L 184.875554 108.888207 
L 188.782066 110.887055 
L 191.835379 108.888207 
L 195.754606 111.686594 
L 199.728873 111.286824 
L 202.704986 112.086363 
L 206.624758 114.48498 
L 210.62391 109.687746 
L 213.584583 110.887055 
L 217.589366 112.486132 
L 221.51041 108.888207 
L 224.486523 108.088668 
L 228.483313 112.086363 
L 232.405265 111.686594 
L 235.466934 109.687746 
L 239.370177 108.088668 
L 243.291583 114.48498 
L 246.345442 109.287977 
L 250.26485 111.686594 
L 253.356673 114.884749 
L 257.30787 110.087516 
L 261.259067 112.885902 
L 264.342171 114.48498 
L 268.291733 112.885902 
L 272.327033 114.08521 
L 275.332391 113.685441 
L 279.282317 112.885902 
L 283.297817 112.885902 
L 286.287735 112.885902 
L 290.323399 114.08521 
L 293.32912 117.283366 
L 297.279046 112.885902 
L 301.307806 116.483827 
L 304.313346 113.685441 
L 308.332661 116.084058 
L 312.28295 112.885902 
L 315.288309 113.685441 
L 319.315253 113.685441 
L 323.253371 115.284519 
L 326.343741 114.884749 
L 330.293484 112.885902 
L 333.299024 113.685441 
L 337.32615 113.685441 
L 341.277166 118.482675 
L 344.367535 114.884749 
L 348.317461 112.885902 
L 352.268294 112.885902 
L 355.335413 113.685441 
L 359.285338 115.684288 
L 362.376979 114.884749 
L 366.32745 112.885902 
L 370.263025 115.284519 
L 373.345039 114.48498 
L 377.29442 115.684288 
L 381.329901 116.483827 
L 384.320909 116.483827 
L 388.270108 115.684288 
L 391.354483 118.082905 
L 395.305135 112.885902 
L 399.340617 116.483827 
L 402.330354 116.483827 
L 406.279916 115.684288 
L 410.307587 116.483827 
L 413.281702 115.684288 
L 417.316457 113.685441 
L 421.267109 112.885902 
L 424.27283 117.283366 
" clip-path="url(#pf6c479e606)" style="fill: none; stroke: #2ca02c; stroke-width: 1.5; stroke-linecap: square"/>
   </g>
   <g id="line2d_20">
    <path d="M 65.102077 287.185398 
L 68.888338 234.415826 
L 71.933114 166.854783 
L 75.85325 151.263773 
L 79.759761 150.864003 
L 83.741657 153.26262 
L 86.719042 152.862851 
L 90.725096 154.062159 
L 94.631245 153.66239 
L 97.607176 149.264925 
L 101.605238 140.070227 
L 105.525374 137.271841 
L 108.586135 138.471149 
L 112.490467 139.270688 
L 116.396797 139.270688 
L 119.449747 141.669305 
L 123.353897 139.270688 
L 127.343604 139.670458 
L 130.319898 141.669305 
L 134.241124 142.868613 
L 138.240276 140.070227 
L 141.216207 145.667 
L 145.221535 143.268383 
L 149.142579 142.868613 
L 152.118873 145.667 
L 156.116936 142.868613 
L 160.038161 142.868613 
L 163.099285 145.667 
L 167.01942 145.667 
L 170.939556 140.070227 
L 173.993777 145.667 
L 177.914276 142.868613 
L 180.976672 145.667 
L 184.897897 142.868613 
L 188.819667 142.868613 
L 191.873344 145.667 
L 195.777312 144.867461 
L 199.783185 143.268383 
L 202.75948 145.667 
L 206.647827 147.266078 
L 210.647161 148.465386 
L 213.623092 145.667 
L 217.627694 146.066769 
L 221.548556 145.667 
L 224.52485 145.667 
L 228.521641 148.465386 
L 232.443956 148.465386 
L 235.504899 145.667 
L 239.423944 145.667 
L 243.344988 145.667 
L 246.398846 149.264925 
L 250.30227 148.065617 
L 254.338296 146.866308 
L 257.343836 146.866308 
L 261.293217 149.664695 
L 265.321069 149.264925 
L 268.282287 148.465386 
L 272.317406 146.866308 
L 276.268966 146.866308 
L 279.274143 150.464234 
L 283.288008 146.066769 
L 286.264303 149.264925 
L 290.299421 146.866308 
L 294.250982 146.866308 
L 297.256522 146.866308 
L 301.268752 151.663542 
L 305.219586 146.866308 
L 308.310137 147.266078 
L 312.260608 149.664695 
L 316.183649 148.465386 
L 319.266389 150.464234 
L 323.216497 149.664695 
L 326.307411 150.864003 
L 330.257518 146.866308 
L 334.209805 149.664695 
L 337.292545 146.866308 
L 341.242289 152.463081 
L 345.277952 149.664695 
L 348.283856 146.866308 
L 352.233781 152.463081 
L 355.317975 146.866308 
L 359.20832 150.464234 
L 363.24471 149.664695 
L 366.250795 146.866308 
L 370.200902 152.463081 
L 374.228391 152.063312 
L 377.233749 154.461928 
L 381.268686 152.463081 
L 385.219701 149.664695 
L 388.225423 146.866308 
L 392.252549 152.063312 
L 396.189759 149.264925 
L 399.28031 150.864003 
L 403.217157 149.264925 
L 406.22415 150.464234 
L 410.252366 149.264925 
L 414.203926 152.463081 
L 417.293932 147.266078 
L 421.244039 149.664695 
L 425.19451 152.463081 
" clip-path="url(#pf6c479e606)" style="fill: none; stroke: #d62728; stroke-width: 1.5; stroke-linecap: square"/>
   </g>
   <g id="line2d_21">
    <path d="M 65.101351 287.185398 
L 68.902689 246.40891 
L 72.821734 202.434267 
L 75.874866 192.839799 
L 79.793366 190.840952 
L 82.85449 189.241874 
L 86.775352 188.042565 
L 90.713471 180.047176 
L 93.766603 178.048328 
L 97.654041 176.049481 
L 101.659188 176.44925 
L 104.619316 178.448098 
L 108.521105 179.247637 
L 112.520075 176.049481 
L 116.407877 178.847867 
L 119.469365 178.448098 
L 123.390408 179.647406 
L 127.311997 176.84902 
L 130.365673 182.046023 
L 134.269097 179.247637 
L 137.329676 174.850172 
L 141.248359 179.647406 
L 145.169947 182.445792 
L 148.223805 178.048328 
L 152.110699 178.847867 
L 156.116027 182.046023 
L 159.091777 182.845562 
L 163.010459 179.647406 
L 167.009793 181.646254 
L 170.898685 181.646254 
L 173.961444 182.046023 
L 177.882851 179.647406 
L 181.805166 179.647406 
L 184.858843 182.046023 
L 188.779341 182.445792 
L 191.840102 182.046023 
L 195.744071 182.046023 
L 199.634234 181.646254 
L 202.688093 182.046023 
L 206.60732 179.647406 
L 210.612648 184.844409 
L 213.588398 179.247637 
L 217.50708 182.445792 
L 221.506232 184.44464 
L 224.482527 182.845562 
L 228.486946 187.642796 
L 232.407445 182.445792 
L 235.383377 182.845562 
L 239.379077 184.44464 
L 243.301392 182.445792 
L 246.362335 182.046023 
L 250.265577 184.844409 
L 254.201697 182.845562 
L 257.284256 182.845562 
L 261.233455 183.245331 
L 265.2693 182.845562 
L 268.274476 184.04487 
L 272.22422 183.245331 
L 276.251346 182.445792 
L 279.25616 183.645101 
L 283.275111 182.445792 
L 286.282104 184.04487 
L 290.23203 183.245331 
L 294.260609 182.445792 
L 297.252707 183.245331 
L 301.273838 185.244179 
L 305.222856 183.245331 
L 308.228941 184.04487 
L 312.255885 185.244179 
L 316.206718 186.043718 
L 319.296725 186.843257 
L 323.246105 180.446945 
L 326.237658 183.245331 
L 330.264784 182.445792 
L 334.215618 186.043718 
L 337.305079 183.245331 
L 341.238838 182.845562 
L 345.188582 186.043718 
L 348.270777 186.443487 
L 352.220158 183.245331 
L 355.310891 183.245331 
L 359.248282 185.643948 
L 363.199298 183.245331 
L 366.281675 186.443487 
L 370.231419 186.043718 
L 374.266537 185.643948 
L 377.271714 187.642796 
L 381.222184 186.043718 
L 385.250945 185.244179 
L 388.25594 184.04487 
L 392.29124 185.643948 
L 395.296235 187.642796 
L 399.245979 183.245331 
L 403.274739 185.244179 
L 406.264476 183.245331 
L 410.298686 185.643948 
L 414.24843 183.245331 
L 417.253425 187.642796 
L 421.280551 182.445792 
L 425.203047 185.244179 
" clip-path="url(#pf6c479e606)" style="fill: none; stroke: #9467bd; stroke-width: 1.5; stroke-linecap: square"/>
   </g>
   <g id="line2d_22">
    <path d="M 65.101714 287.185398 
L 68.941198 258.401995 
L 71.879528 230.8179 
L 75.877227 228.819053 
L 79.799179 228.019514 
L 82.860303 222.022972 
L 86.779349 216.426199 
L 90.717104 216.825968 
L 93.803114 215.22689 
L 97.738326 216.825968 
L 100.833236 219.224585 
L 104.788066 214.427351 
L 108.709473 216.426199 
L 111.762968 218.425046 
L 115.682014 216.426199 
L 119.686797 218.025277 
L 122.662547 216.426199 
L 126.581592 216.426199 
L 130.565122 220.423894 
L 133.541417 216.426199 
L 137.545837 218.025277 
L 141.465791 216.426199 
L 144.425556 219.624355 
L 148.405998 217.625507 
L 152.327586 219.224585 
L 155.387984 214.827121 
L 159.306848 219.224585 
L 163.21118 216.426199 
L 166.264493 218.425046 
L 170.183539 216.426199 
L 174.189957 218.025277 
L 177.149721 219.624355 
L 181.068767 216.426199 
L 185.066647 218.025277 
L 188.026594 216.026429 
L 192.030287 218.025277 
L 195.952057 219.224585 
L 198.911822 219.624355 
L 202.908613 220.823663 
L 206.829656 219.224585 
L 209.890781 222.022972 
L 213.778401 218.824816 
L 217.700716 216.426199 
L 220.754029 218.425046 
L 224.672712 222.022972 
L 228.661873 217.625507 
L 231.637623 216.426199 
L 235.556487 219.224585 
L 239.54038 217.625507 
L 242.516312 220.024124 
L 246.52055 215.22689 
L 250.441049 219.224585 
L 253.430422 220.423894 
L 257.443198 218.025277 
L 261.394576 217.225738 
L 264.484764 222.822511 
L 268.434508 217.225738 
L 272.353553 216.426199 
L 275.43593 218.824816 
L 279.385311 220.024124 
L 282.47677 219.224585 
L 286.427786 217.225738 
L 290.378983 217.225738 
L 293.461723 222.422741 
L 297.410922 220.024124 
L 301.432417 218.425046 
L 304.437412 217.225738 
L 308.372261 219.624355 
L 312.400658 218.425046 
L 315.405835 217.225738 
L 319.440953 221.223433 
L 322.446129 220.823663 
L 326.396237 217.225738 
L 330.39557 220.823663 
L 333.400565 220.823663 
L 337.43532 218.425046 
L 341.384701 220.024124 
L 344.390423 217.225738 
L 348.417548 221.223433 
L 352.337865 216.426199 
L 355.427872 222.822511 
L 359.377797 217.225738 
L 362.369532 216.825968 
L 366.396658 218.425046 
L 370.332051 219.624355 
L 373.421513 222.822511 
L 377.370712 217.225738 
L 381.320637 220.024124 
L 384.403196 222.422741 
L 388.35294 217.225738 
L 391.444217 219.224585 
L 395.379248 216.825968 
L 399.330445 220.024124 
L 402.413548 222.422741 
L 406.363111 217.225738 
L 410.398229 218.425046 
L 413.390509 220.423894 
L 417.340434 220.024124 
L 421.369376 221.223433 
L 424.374553 220.823663 
" clip-path="url(#pf6c479e606)" style="fill: none; stroke: #8c564b; stroke-width: 1.5; stroke-linecap: square"/>
   </g>
   <g id="line2d_23">
    <path d="M 65.101532 287.185398 
L 67.942863 279.589777 
L 71.827032 261.600151 
L 75.789673 261.99992 
L 79.657494 267.196923 
L 82.651045 261.600151 
L 86.519229 252.805222 
L 90.422653 256.003378 
L 93.440909 254.4043 
L 97.341971 256.003378 
L 101.311151 253.604761 
L 105.19532 256.003378 
L 108.135467 253.204991 
L 112.097563 256.403147 
L 115.983549 256.003378 
L 119.026145 258.002225 
L 122.910132 256.003378 
L 126.795028 258.801764 
L 129.813283 254.4043 
L 133.698542 256.003378 
L 137.669721 256.802917 
L 141.538813 252.805222 
L 144.46461 253.204991 
L 148.412174 256.403147 
L 152.297796 256.003378 
L 155.323318 254.4043 
L 159.206215 256.003378 
L 163.074944 252.805222 
L 166.0932 258.002225 
L 169.976279 253.204991 
L 173.947094 253.604761 
L 177.815641 255.603608 
L 180.757605 253.204991 
L 184.721335 253.604761 
L 188.606594 256.003378 
L 191.631934 254.4043 
L 195.51683 253.204991 
L 199.401362 256.003378 
L 202.419618 254.4043 
L 206.304332 256.003378 
L 210.259888 253.604761 
L 214.144784 256.003378 
L 217.071489 253.204991 
L 221.035038 253.604761 
L 224.921205 256.003378 
L 227.946908 254.4043 
L 231.830169 256.003378 
L 235.715065 256.003378 
L 238.733502 254.4043 
L 242.616763 256.003378 
L 246.572683 253.604761 
L 250.487005 256.003378 
L 253.458759 257.602456 
L 257.451372 254.00453 
L 261.367511 253.204991 
L 264.422641 254.804069 
L 268.336963 256.003378 
L 272.234938 253.204991 
L 275.269723 254.4043 
L 279.183864 256.003378 
L 283.185014 251.206144 
L 286.154951 253.604761 
L 290.069637 253.204991 
L 294.061523 254.00453 
L 297.031824 253.604761 
L 301.030976 254.00453 
L 304.946751 253.204991 
L 307.900704 253.604761 
L 311.892408 251.206144 
L 315.806367 256.003378 
L 318.861679 251.206144 
L 322.775456 253.204991 
L 326.691232 256.003378 
L 329.73837 254.4043 
L 333.652874 253.204991 
L 337.653116 254.00453 
L 340.623416 253.604761 
L 344.537557 256.003378 
L 348.530533 251.206144 
L 351.500289 253.604761 
L 355.499986 251.206144 
L 359.414308 256.003378 
L 362.371348 249.607066 
L 366.363053 254.00453 
L 370.278102 256.003378 
L 373.33305 251.206144 
L 377.231933 253.204991 
L 381.146437 253.204991 
L 384.194301 254.4043 
L 388.108442 253.204991 
L 392.109229 254.00453 
L 398.979683 256.003378 
L 402.974113 254.00453 
L 405.950044 253.604761 
L 409.949196 254.00453 
L 413.849169 253.204991 
L 416.819287 253.604761 
L 420.811537 251.206144 
L 424.726223 256.003378 
L 427.781534 254.804069 
" clip-path="url(#pf6c479e606)" style="fill: none; stroke: #e377c2; stroke-width: 1.5; stroke-linecap: square"/>
   </g>
   <g id="patch_3">
    <path d="M 46.965625 299.798125 
L 46.965625 22.318125 
" style="fill: none; stroke: #000000; stroke-width: 0.8; stroke-linejoin: miter; stroke-linecap: square"/>
   </g>
   <g id="patch_4">
    <path d="M 445.915625 299.798125 
L 445.915625 22.318125 
" style="fill: none; stroke: #000000; stroke-width: 0.8; stroke-linejoin: miter; stroke-linecap: square"/>
   </g>
   <g id="patch_5">
    <path d="M 46.965625 299.798125 
L 445.915625 299.798125 
" style="fill: none; stroke: #000000; stroke-width: 0.8; stroke-linejoin: miter; stroke-linecap: square"/>
   </g>
   <g id="patch_6">
    <path d="M 46.965625 22.318125 
L 445.915625 22.318125 
" style="fill: none; stroke: #000000; stroke-width: 0.8; stroke-linejoin: miter; stroke-linecap: square"/>
   </g>
   <g id="text_20">
    <!-- right velocity vs. time -->
    <g transform="translate(181.033125 16.318125) scale(0.12 -0.12)">
     <use xlink:href="#DejaVuSans-72"/>
     <use xlink:href="#DejaVuSans-69" transform="translate(41.113281 0)"/>
     <use xlink:href="#DejaVuSans-67" transform="translate(68.896484 0)"/>
     <use xlink:href="#DejaVuSans-68" transform="translate(132.373047 0)"/>
     <use xlink:href="#DejaVuSans-74" transform="translate(195.751953 0)"/>
     <use xlink:href="#DejaVuSans-20" transform="translate(234.960938 0)"/>
     <use xlink:href="#DejaVuSans-76" transform="translate(266.748047 0)"/>
     <use xlink:href="#DejaVuSans-65" transform="translate(325.927734 0)"/>
     <use xlink:href="#DejaVuSans-6c" transform="translate(387.451172 0)"/>
     <use xlink:href="#DejaVuSans-6f" transform="translate(415.234375 0)"/>
     <use xlink:href="#DejaVuSans-63" transform="translate(476.416016 0)"/>
     <use xlink:href="#DejaVuSans-69" transform="translate(531.396484 0)"/>
     <use xlink:href="#DejaVuSans-74" transform="translate(559.179688 0)"/>
     <use xlink:href="#DejaVuSans-79" transform="translate(598.388672 0)"/>
     <use xlink:href="#DejaVuSans-20" transform="translate(657.568359 0)"/>
     <use xlink:href="#DejaVuSans-76" transform="translate(689.355469 0)"/>
     <use xlink:href="#DejaVuSans-73" transform="translate(748.535156 0)"/>
     <use xlink:href="#DejaVuSans-2e" transform="translate(800.634766 0)"/>
     <use xlink:href="#DejaVuSans-20" transform="translate(832.421875 0)"/>
     <use xlink:href="#DejaVuSans-74" transform="translate(864.208984 0)"/>
     <use xlink:href="#DejaVuSans-69" transform="translate(903.417969 0)"/>
     <use xlink:href="#DejaVuSans-6d" transform="translate(931.201172 0)"/>
     <use xlink:href="#DejaVuSans-65" transform="translate(1028.613281 0)"/>
    </g>
   </g>
   <g id="legend_1">
    <g id="patch_7">
     <path d="M 322.390625 294.798125 
L 438.915625 294.798125 
Q 440.915625 294.798125 440.915625 292.798125 
L 440.915625 191.05125 
Q 440.915625 189.05125 438.915625 189.05125 
L 322.390625 189.05125 
Q 320.390625 189.05125 320.390625 191.05125 
L 320.390625 292.798125 
Q 320.390625 294.798125 322.390625 294.798125 
z
" style="fill: #ffffff; opacity: 0.8; stroke: #cccccc; stroke-linejoin: miter"/>
    </g>
    <g id="line2d_24">
     <path d="M 324.390625 197.149688 
L 334.390625 197.149688 
L 344.390625 197.149688 
" style="fill: none; stroke: #1f77b4; stroke-width: 1.5; stroke-linecap: square"/>
    </g>
    <g id="text_21">
     <!-- Ref Speed = 595 -->
     <g transform="translate(352.390625 200.649688) scale(0.1 -0.1)">
      <defs>
       <path id="DejaVuSans-52" d="M 2841 2188 
Q 3044 2119 3236 1894 
Q 3428 1669 3622 1275 
L 4263 0 
L 3584 0 
L 2988 1197 
Q 2756 1666 2539 1819 
Q 2322 1972 1947 1972 
L 1259 1972 
L 1259 0 
L 628 0 
L 628 4666 
L 2053 4666 
Q 2853 4666 3247 4331 
Q 3641 3997 3641 3322 
Q 3641 2881 3436 2590 
Q 3231 2300 2841 2188 
z
M 1259 4147 
L 1259 2491 
L 2053 2491 
Q 2509 2491 2742 2702 
Q 2975 2913 2975 3322 
Q 2975 3731 2742 3939 
Q 2509 4147 2053 4147 
L 1259 4147 
z
" transform="scale(0.015625)"/>
       <path id="DejaVuSans-66" d="M 2375 4863 
L 2375 4384 
L 1825 4384 
Q 1516 4384 1395 4259 
Q 1275 4134 1275 3809 
L 1275 3500 
L 2222 3500 
L 2222 3053 
L 1275 3053 
L 1275 0 
L 697 0 
L 697 3053 
L 147 3053 
L 147 3500 
L 697 3500 
L 697 3744 
Q 697 4328 969 4595 
Q 1241 4863 1831 4863 
L 2375 4863 
z
" transform="scale(0.015625)"/>
       <path id="DejaVuSans-53" d="M 3425 4513 
L 3425 3897 
Q 3066 4069 2747 4153 
Q 2428 4238 2131 4238 
Q 1616 4238 1336 4038 
Q 1056 3838 1056 3469 
Q 1056 3159 1242 3001 
Q 1428 2844 1947 2747 
L 2328 2669 
Q 3034 2534 3370 2195 
Q 3706 1856 3706 1288 
Q 3706 609 3251 259 
Q 2797 -91 1919 -91 
Q 1588 -91 1214 -16 
Q 841 59 441 206 
L 441 856 
Q 825 641 1194 531 
Q 1563 422 1919 422 
Q 2459 422 2753 634 
Q 3047 847 3047 1241 
Q 3047 1584 2836 1778 
Q 2625 1972 2144 2069 
L 1759 2144 
Q 1053 2284 737 2584 
Q 422 2884 422 3419 
Q 422 4038 858 4394 
Q 1294 4750 2059 4750 
Q 2388 4750 2728 4690 
Q 3069 4631 3425 4513 
z
" transform="scale(0.015625)"/>
       <path id="DejaVuSans-70" d="M 1159 525 
L 1159 -1331 
L 581 -1331 
L 581 3500 
L 1159 3500 
L 1159 2969 
Q 1341 3281 1617 3432 
Q 1894 3584 2278 3584 
Q 2916 3584 3314 3078 
Q 3713 2572 3713 1747 
Q 3713 922 3314 415 
Q 2916 -91 2278 -91 
Q 1894 -91 1617 61 
Q 1341 213 1159 525 
z
M 3116 1747 
Q 3116 2381 2855 2742 
Q 2594 3103 2138 3103 
Q 1681 3103 1420 2742 
Q 1159 2381 1159 1747 
Q 1159 1113 1420 752 
Q 1681 391 2138 391 
Q 2594 391 2855 752 
Q 3116 1113 3116 1747 
z
" transform="scale(0.015625)"/>
       <path id="DejaVuSans-64" d="M 2906 2969 
L 2906 4863 
L 3481 4863 
L 3481 0 
L 2906 0 
L 2906 525 
Q 2725 213 2448 61 
Q 2172 -91 1784 -91 
Q 1150 -91 751 415 
Q 353 922 353 1747 
Q 353 2572 751 3078 
Q 1150 3584 1784 3584 
Q 2172 3584 2448 3432 
Q 2725 3281 2906 2969 
z
M 947 1747 
Q 947 1113 1208 752 
Q 1469 391 1925 391 
Q 2381 391 2643 752 
Q 2906 1113 2906 1747 
Q 2906 2381 2643 2742 
Q 2381 3103 1925 3103 
Q 1469 3103 1208 2742 
Q 947 2381 947 1747 
z
" transform="scale(0.015625)"/>
       <path id="DejaVuSans-3d" d="M 678 2906 
L 4684 2906 
L 4684 2381 
L 678 2381 
L 678 2906 
z
M 678 1631 
L 4684 1631 
L 4684 1100 
L 678 1100 
L 678 1631 
z
" transform="scale(0.015625)"/>
       <path id="DejaVuSans-39" d="M 703 97 
L 703 672 
Q 941 559 1184 500 
Q 1428 441 1663 441 
Q 2288 441 2617 861 
Q 2947 1281 2994 2138 
Q 2813 1869 2534 1725 
Q 2256 1581 1919 1581 
Q 1219 1581 811 2004 
Q 403 2428 403 3163 
Q 403 3881 828 4315 
Q 1253 4750 1959 4750 
Q 2769 4750 3195 4129 
Q 3622 3509 3622 2328 
Q 3622 1225 3098 567 
Q 2575 -91 1691 -91 
Q 1453 -91 1209 -44 
Q 966 3 703 97 
z
M 1959 2075 
Q 2384 2075 2632 2365 
Q 2881 2656 2881 3163 
Q 2881 3666 2632 3958 
Q 2384 4250 1959 4250 
Q 1534 4250 1286 3958 
Q 1038 3666 1038 3163 
Q 1038 2656 1286 2365 
Q 1534 2075 1959 2075 
z
" transform="scale(0.015625)"/>
      </defs>
      <use xlink:href="#DejaVuSans-52"/>
      <use xlink:href="#DejaVuSans-65" transform="translate(64.982422 0)"/>
      <use xlink:href="#DejaVuSans-66" transform="translate(126.505859 0)"/>
      <use xlink:href="#DejaVuSans-20" transform="translate(161.710938 0)"/>
      <use xlink:href="#DejaVuSans-53" transform="translate(193.498047 0)"/>
      <use xlink:href="#DejaVuSans-70" transform="translate(256.974609 0)"/>
      <use xlink:href="#DejaVuSans-65" transform="translate(320.451172 0)"/>
      <use xlink:href="#DejaVuSans-65" transform="translate(381.974609 0)"/>
      <use xlink:href="#DejaVuSans-64" transform="translate(443.498047 0)"/>
      <use xlink:href="#DejaVuSans-20" transform="translate(506.974609 0)"/>
      <use xlink:href="#DejaVuSans-3d" transform="translate(538.761719 0)"/>
      <use xlink:href="#DejaVuSans-20" transform="translate(622.550781 0)"/>
      <use xlink:href="#DejaVuSans-35" transform="translate(654.337891 0)"/>
      <use xlink:href="#DejaVuSans-39" transform="translate(717.960938 0)"/>
      <use xlink:href="#DejaVuSans-35" transform="translate(781.583984 0)"/>
     </g>
    </g>
    <g id="line2d_25">
     <path d="M 324.390625 211.827813 
L 334.390625 211.827813 
L 344.390625 211.827813 
" style="fill: none; stroke: #ff7f0e; stroke-width: 1.5; stroke-linecap: square"/>
    </g>
    <g id="text_22">
     <!-- Ref Speed = 510 -->
     <g transform="translate(352.390625 215.327813) scale(0.1 -0.1)">
      <use xlink:href="#DejaVuSans-52"/>
      <use xlink:href="#DejaVuSans-65" transform="translate(64.982422 0)"/>
      <use xlink:href="#DejaVuSans-66" transform="translate(126.505859 0)"/>
      <use xlink:href="#DejaVuSans-20" transform="translate(161.710938 0)"/>
      <use xlink:href="#DejaVuSans-53" transform="translate(193.498047 0)"/>
      <use xlink:href="#DejaVuSans-70" transform="translate(256.974609 0)"/>
      <use xlink:href="#DejaVuSans-65" transform="translate(320.451172 0)"/>
      <use xlink:href="#DejaVuSans-65" transform="translate(381.974609 0)"/>
      <use xlink:href="#DejaVuSans-64" transform="translate(443.498047 0)"/>
      <use xlink:href="#DejaVuSans-20" transform="translate(506.974609 0)"/>
      <use xlink:href="#DejaVuSans-3d" transform="translate(538.761719 0)"/>
      <use xlink:href="#DejaVuSans-20" transform="translate(622.550781 0)"/>
      <use xlink:href="#DejaVuSans-35" transform="translate(654.337891 0)"/>
      <use xlink:href="#DejaVuSans-31" transform="translate(717.960938 0)"/>
      <use xlink:href="#DejaVuSans-30" transform="translate(781.583984 0)"/>
     </g>
    </g>
    <g id="line2d_26">
     <path d="M 324.390625 226.505938 
L 334.390625 226.505938 
L 344.390625 226.505938 
" style="fill: none; stroke: #2ca02c; stroke-width: 1.5; stroke-linecap: square"/>
    </g>
    <g id="text_23">
     <!-- Ref Speed = 425 -->
     <g transform="translate(352.390625 230.005938) scale(0.1 -0.1)">
      <use xlink:href="#DejaVuSans-52"/>
      <use xlink:href="#DejaVuSans-65" transform="translate(64.982422 0)"/>
      <use xlink:href="#DejaVuSans-66" transform="translate(126.505859 0)"/>
      <use xlink:href="#DejaVuSans-20" transform="translate(161.710938 0)"/>
      <use xlink:href="#DejaVuSans-53" transform="translate(193.498047 0)"/>
      <use xlink:href="#DejaVuSans-70" transform="translate(256.974609 0)"/>
      <use xlink:href="#DejaVuSans-65" transform="translate(320.451172 0)"/>
      <use xlink:href="#DejaVuSans-65" transform="translate(381.974609 0)"/>
      <use xlink:href="#DejaVuSans-64" transform="translate(443.498047 0)"/>
      <use xlink:href="#DejaVuSans-20" transform="translate(506.974609 0)"/>
      <use xlink:href="#DejaVuSans-3d" transform="translate(538.761719 0)"/>
      <use xlink:href="#DejaVuSans-20" transform="translate(622.550781 0)"/>
      <use xlink:href="#DejaVuSans-34" transform="translate(654.337891 0)"/>
      <use xlink:href="#DejaVuSans-32" transform="translate(717.960938 0)"/>
      <use xlink:href="#DejaVuSans-35" transform="translate(781.583984 0)"/>
     </g>
    </g>
    <g id="line2d_27">
     <path d="M 324.390625 241.184063 
L 334.390625 241.184063 
L 344.390625 241.184063 
" style="fill: none; stroke: #d62728; stroke-width: 1.5; stroke-linecap: square"/>
    </g>
    <g id="text_24">
     <!-- Ref Speed = 340 -->
     <g transform="translate(352.390625 244.684063) scale(0.1 -0.1)">
      <use xlink:href="#DejaVuSans-52"/>
      <use xlink:href="#DejaVuSans-65" transform="translate(64.982422 0)"/>
      <use xlink:href="#DejaVuSans-66" transform="translate(126.505859 0)"/>
      <use xlink:href="#DejaVuSans-20" transform="translate(161.710938 0)"/>
      <use xlink:href="#DejaVuSans-53" transform="translate(193.498047 0)"/>
      <use xlink:href="#DejaVuSans-70" transform="translate(256.974609 0)"/>
      <use xlink:href="#DejaVuSans-65" transform="translate(320.451172 0)"/>
      <use xlink:href="#DejaVuSans-65" transform="translate(381.974609 0)"/>
      <use xlink:href="#DejaVuSans-64" transform="translate(443.498047 0)"/>
      <use xlink:href="#DejaVuSans-20" transform="translate(506.974609 0)"/>
      <use xlink:href="#DejaVuSans-3d" transform="translate(538.761719 0)"/>
      <use xlink:href="#DejaVuSans-20" transform="translate(622.550781 0)"/>
      <use xlink:href="#DejaVuSans-33" transform="translate(654.337891 0)"/>
      <use xlink:href="#DejaVuSans-34" transform="translate(717.960938 0)"/>
      <use xlink:href="#DejaVuSans-30" transform="translate(781.583984 0)"/>
     </g>
    </g>
    <g id="line2d_28">
     <path d="M 324.390625 255.862188 
L 334.390625 255.862188 
L 344.390625 255.862188 
" style="fill: none; stroke: #9467bd; stroke-width: 1.5; stroke-linecap: square"/>
    </g>
    <g id="text_25">
     <!-- Ref Speed = 255 -->
     <g transform="translate(352.390625 259.362188) scale(0.1 -0.1)">
      <use xlink:href="#DejaVuSans-52"/>
      <use xlink:href="#DejaVuSans-65" transform="translate(64.982422 0)"/>
      <use xlink:href="#DejaVuSans-66" transform="translate(126.505859 0)"/>
      <use xlink:href="#DejaVuSans-20" transform="translate(161.710938 0)"/>
      <use xlink:href="#DejaVuSans-53" transform="translate(193.498047 0)"/>
      <use xlink:href="#DejaVuSans-70" transform="translate(256.974609 0)"/>
      <use xlink:href="#DejaVuSans-65" transform="translate(320.451172 0)"/>
      <use xlink:href="#DejaVuSans-65" transform="translate(381.974609 0)"/>
      <use xlink:href="#DejaVuSans-64" transform="translate(443.498047 0)"/>
      <use xlink:href="#DejaVuSans-20" transform="translate(506.974609 0)"/>
      <use xlink:href="#DejaVuSans-3d" transform="translate(538.761719 0)"/>
      <use xlink:href="#DejaVuSans-20" transform="translate(622.550781 0)"/>
      <use xlink:href="#DejaVuSans-32" transform="translate(654.337891 0)"/>
      <use xlink:href="#DejaVuSans-35" transform="translate(717.960938 0)"/>
      <use xlink:href="#DejaVuSans-35" transform="translate(781.583984 0)"/>
     </g>
    </g>
    <g id="line2d_29">
     <path d="M 324.390625 270.540313 
L 334.390625 270.540313 
L 344.390625 270.540313 
" style="fill: none; stroke: #8c564b; stroke-width: 1.5; stroke-linecap: square"/>
    </g>
    <g id="text_26">
     <!-- Ref Speed = 170 -->
     <g transform="translate(352.390625 274.040313) scale(0.1 -0.1)">
      <use xlink:href="#DejaVuSans-52"/>
      <use xlink:href="#DejaVuSans-65" transform="translate(64.982422 0)"/>
      <use xlink:href="#DejaVuSans-66" transform="translate(126.505859 0)"/>
      <use xlink:href="#DejaVuSans-20" transform="translate(161.710938 0)"/>
      <use xlink:href="#DejaVuSans-53" transform="translate(193.498047 0)"/>
      <use xlink:href="#DejaVuSans-70" transform="translate(256.974609 0)"/>
      <use xlink:href="#DejaVuSans-65" transform="translate(320.451172 0)"/>
      <use xlink:href="#DejaVuSans-65" transform="translate(381.974609 0)"/>
      <use xlink:href="#DejaVuSans-64" transform="translate(443.498047 0)"/>
      <use xlink:href="#DejaVuSans-20" transform="translate(506.974609 0)"/>
      <use xlink:href="#DejaVuSans-3d" transform="translate(538.761719 0)"/>
      <use xlink:href="#DejaVuSans-20" transform="translate(622.550781 0)"/>
      <use xlink:href="#DejaVuSans-31" transform="translate(654.337891 0)"/>
      <use xlink:href="#DejaVuSans-37" transform="translate(717.960938 0)"/>
      <use xlink:href="#DejaVuSans-30" transform="translate(781.583984 0)"/>
     </g>
    </g>
    <g id="line2d_30">
     <path d="M 324.390625 285.218438 
L 334.390625 285.218438 
L 344.390625 285.218438 
" style="fill: none; stroke: #e377c2; stroke-width: 1.5; stroke-linecap: square"/>
    </g>
    <g id="text_27">
     <!-- Ref Speed = 85 -->
     <g transform="translate(352.390625 288.718438) scale(0.1 -0.1)">
      <defs>
       <path id="DejaVuSans-38" d="M 2034 2216 
Q 1584 2216 1326 1975 
Q 1069 1734 1069 1313 
Q 1069 891 1326 650 
Q 1584 409 2034 409 
Q 2484 409 2743 651 
Q 3003 894 3003 1313 
Q 3003 1734 2745 1975 
Q 2488 2216 2034 2216 
z
M 1403 2484 
Q 997 2584 770 2862 
Q 544 3141 544 3541 
Q 544 4100 942 4425 
Q 1341 4750 2034 4750 
Q 2731 4750 3128 4425 
Q 3525 4100 3525 3541 
Q 3525 3141 3298 2862 
Q 3072 2584 2669 2484 
Q 3125 2378 3379 2068 
Q 3634 1759 3634 1313 
Q 3634 634 3220 271 
Q 2806 -91 2034 -91 
Q 1263 -91 848 271 
Q 434 634 434 1313 
Q 434 1759 690 2068 
Q 947 2378 1403 2484 
z
M 1172 3481 
Q 1172 3119 1398 2916 
Q 1625 2713 2034 2713 
Q 2441 2713 2670 2916 
Q 2900 3119 2900 3481 
Q 2900 3844 2670 4047 
Q 2441 4250 2034 4250 
Q 1625 4250 1398 4047 
Q 1172 3844 1172 3481 
z
" transform="scale(0.015625)"/>
      </defs>
      <use xlink:href="#DejaVuSans-52"/>
      <use xlink:href="#DejaVuSans-65" transform="translate(64.982422 0)"/>
      <use xlink:href="#DejaVuSans-66" transform="translate(126.505859 0)"/>
      <use xlink:href="#DejaVuSans-20" transform="translate(161.710938 0)"/>
      <use xlink:href="#DejaVuSans-53" transform="translate(193.498047 0)"/>
      <use xlink:href="#DejaVuSans-70" transform="translate(256.974609 0)"/>
      <use xlink:href="#DejaVuSans-65" transform="translate(320.451172 0)"/>
      <use xlink:href="#DejaVuSans-65" transform="translate(381.974609 0)"/>
      <use xlink:href="#DejaVuSans-64" transform="translate(443.498047 0)"/>
      <use xlink:href="#DejaVuSans-20" transform="translate(506.974609 0)"/>
      <use xlink:href="#DejaVuSans-3d" transform="translate(538.761719 0)"/>
      <use xlink:href="#DejaVuSans-20" transform="translate(622.550781 0)"/>
      <use xlink:href="#DejaVuSans-38" transform="translate(654.337891 0)"/>
      <use xlink:href="#DejaVuSans-35" transform="translate(717.960938 0)"/>
     </g>
    </g>
   </g>
  </g>
 </g>
 <defs>
  <clipPath id="pf6c479e606">
   <rect x="46.965625" y="22.318125" width="398.95" height="277.48"/>
  </clipPath>
 </defs>
</svg>
