<?xml version="1.0" encoding="utf-8" standalone="no"?>
<!DOCTYPE svg PUBLIC "-//W3C//DTD SVG 1.1//EN"
  "http://www.w3.org/Graphics/SVG/1.1/DTD/svg11.dtd">
<svg xmlns:xlink="http://www.w3.org/1999/xlink" width="452.920804pt" height="337.354375pt" viewBox="0 0 452.920804 337.354375" xmlns="http://www.w3.org/2000/svg" version="1.1">
 <metadata>
  <rdf:RDF xmlns:dc="http://purl.org/dc/elements/1.1/" xmlns:cc="http://creativecommons.org/ns#" xmlns:rdf="http://www.w3.org/1999/02/22-rdf-syntax-ns#">
   <cc:Work>
    <dc:type rdf:resource="http://purl.org/dc/dcmitype/StillImage"/>
    <dc:date>2025-10-29T23:01:22.200861</dc:date>
    <dc:format>image/svg+xml</dc:format>
    <dc:creator>
     <cc:Agent>
      <dc:title>Matplotlib v3.10.6, https://matplotlib.org/</dc:title>
     </cc:Agent>
    </dc:creator>
   </cc:Work>
  </rdf:RDF>
 </metadata>
 <defs>
  <style type="text/css">*{stroke-linejoin: round; stroke-linecap: butt}</style>
 </defs>
 <g id="figure_1">
  <g id="patch_1">
   <path d="M 0 337.354375 
L 452.920804 337.354375 
L 452.920804 0 
L 0 0 
z
" style="fill: #ffffff"/>
  </g>
  <g id="axes_1">
   <g id="patch_2">
    <path d="M 40.603125 299.798125 
L 441.354385 299.798125 
L 441.354385 22.318125 
L 40.603125 22.318125 
z
" style="fill: #ffffff"/>
   </g>
   <g id="matplotlib.axis_1">
    <g id="xtick_1">
     <g id="line2d_1">
      <defs>
       <path id="mcb6e2a2c33" d="M 0 0 
L 0 3.5 
" style="stroke: #000000; stroke-width: 0.8"/>
      </defs>
      <g>
       <use xlink:href="#mcb6e2a2c33" x="58.819091" y="299.798125" style="stroke: #000000; stroke-width: 0.8"/>
      </g>
     </g>
     <g id="text_1">
      <!-- 0 -->
      <g transform="translate(55.637841 314.396563) scale(0.1 -0.1)">
       <defs>
        <path id="DejaVuSans-30" d="M 2034 4250 
Q 1547 4250 1301 3770 
Q 1056 3291 1056 2328 
Q 1056 1369 1301 889 
Q 1547 409 2034 409 
Q 2525 409 2770 889 
Q 3016 1369 3016 2328 
Q 3016 3291 2770 3770 
Q 2525 4250 2034 4250 
z
M 2034 4750 
Q 2819 4750 3233 4129 
Q 3647 3509 3647 2328 
Q 3647 1150 3233 529 
Q 2819 -91 2034 -91 
Q 1250 -91 836 529 
Q 422 1150 422 2328 
Q 422 3509 836 4129 
Q 1250 4750 2034 4750 
z
" transform="scale(0.015625)"/>
       </defs>
       <use xlink:href="#DejaVuSans-30"/>
      </g>
     </g>
    </g>
    <g id="xtick_2">
     <g id="line2d_2">
      <g>
       <use xlink:href="#mcb6e2a2c33" x="113.181836" y="299.798125" style="stroke: #000000; stroke-width: 0.8"/>
      </g>
     </g>
     <g id="text_2">
      <!-- 5 -->
      <g transform="translate(110.000586 314.396563) scale(0.1 -0.1)">
       <defs>
        <path id="DejaVuSans-35" d="M 691 4666 
L 3169 4666 
L 3169 4134 
L 1269 4134 
L 1269 2991 
Q 1406 3038 1543 3061 
Q 1681 3084 1819 3084 
Q 2600 3084 3056 2656 
Q 3513 2228 3513 1497 
Q 3513 744 3044 326 
Q 2575 -91 1722 -91 
Q 1428 -91 1123 -41 
Q 819 9 494 109 
L 494 744 
Q 775 591 1075 516 
Q 1375 441 1709 441 
Q 2250 441 2565 725 
Q 2881 1009 2881 1497 
Q 2881 1984 2565 2268 
Q 2250 2553 1709 2553 
Q 1456 2553 1204 2497 
Q 953 2441 691 2322 
L 691 4666 
z
" transform="scale(0.015625)"/>
       </defs>
       <use xlink:href="#DejaVuSans-35"/>
      </g>
     </g>
    </g>
    <g id="xtick_3">
     <g id="line2d_3">
      <g>
       <use xlink:href="#mcb6e2a2c33" x="167.544581" y="299.798125" style="stroke: #000000; stroke-width: 0.8"/>
      </g>
     </g>
     <g id="text_3">
      <!-- 10 -->
      <g transform="translate(161.182081 314.396563) scale(0.1 -0.1)">
       <defs>
        <path id="DejaVuSans-31" d="M 794 531 
L 1825 531 
L 1825 4091 
L 703 3866 
L 703 4441 
L 1819 4666 
L 2450 4666 
L 2450 531 
L 3481 531 
L 3481 0 
L 794 0 
L 794 531 
z
" transform="scale(0.015625)"/>
       </defs>
       <use xlink:href="#DejaVuSans-31"/>
       <use xlink:href="#DejaVuSans-30" transform="translate(63.623047 0)"/>
      </g>
     </g>
    </g>
    <g id="xtick_4">
     <g id="line2d_4">
      <g>
       <use xlink:href="#mcb6e2a2c33" x="221.907326" y="299.798125" style="stroke: #000000; stroke-width: 0.8"/>
      </g>
     </g>
     <g id="text_4">
      <!-- 15 -->
      <g transform="translate(215.544826 314.396563) scale(0.1 -0.1)">
       <use xlink:href="#DejaVuSans-31"/>
       <use xlink:href="#DejaVuSans-35" transform="translate(63.623047 0)"/>
      </g>
     </g>
    </g>
    <g id="xtick_5">
     <g id="line2d_5">
      <g>
       <use xlink:href="#mcb6e2a2c33" x="276.27007" y="299.798125" style="stroke: #000000; stroke-width: 0.8"/>
      </g>
     </g>
     <g id="text_5">
      <!-- 20 -->
      <g transform="translate(269.90757 314.396563) scale(0.1 -0.1)">
       <defs>
        <path id="DejaVuSans-32" d="M 1228 531 
L 3431 531 
L 3431 0 
L 469 0 
L 469 531 
Q 828 903 1448 1529 
Q 2069 2156 2228 2338 
Q 2531 2678 2651 2914 
Q 2772 3150 2772 3378 
Q 2772 3750 2511 3984 
Q 2250 4219 1831 4219 
Q 1534 4219 1204 4116 
Q 875 4013 500 3803 
L 500 4441 
Q 881 4594 1212 4672 
Q 1544 4750 1819 4750 
Q 2544 4750 2975 4387 
Q 3406 4025 3406 3419 
Q 3406 3131 3298 2873 
Q 3191 2616 2906 2266 
Q 2828 2175 2409 1742 
Q 1991 1309 1228 531 
z
" transform="scale(0.015625)"/>
       </defs>
       <use xlink:href="#DejaVuSans-32"/>
       <use xlink:href="#DejaVuSans-30" transform="translate(63.623047 0)"/>
      </g>
     </g>
    </g>
    <g id="xtick_6">
     <g id="line2d_6">
      <g>
       <use xlink:href="#mcb6e2a2c33" x="330.632815" y="299.798125" style="stroke: #000000; stroke-width: 0.8"/>
      </g>
     </g>
     <g id="text_6">
      <!-- 25 -->
      <g transform="translate(324.270315 314.396563) scale(0.1 -0.1)">
       <use xlink:href="#DejaVuSans-32"/>
       <use xlink:href="#DejaVuSans-35" transform="translate(63.623047 0)"/>
      </g>
     </g>
    </g>
    <g id="xtick_7">
     <g id="line2d_7">
      <g>
       <use xlink:href="#mcb6e2a2c33" x="384.99556" y="299.798125" style="stroke: #000000; stroke-width: 0.8"/>
      </g>
     </g>
     <g id="text_7">
      <!-- 30 -->
      <g transform="translate(378.63306 314.396563) scale(0.1 -0.1)">
       <defs>
        <path id="DejaVuSans-33" d="M 2597 2516 
Q 3050 2419 3304 2112 
Q 3559 1806 3559 1356 
Q 3559 666 3084 287 
Q 2609 -91 1734 -91 
Q 1441 -91 1130 -33 
Q 819 25 488 141 
L 488 750 
Q 750 597 1062 519 
Q 1375 441 1716 441 
Q 2309 441 2620 675 
Q 2931 909 2931 1356 
Q 2931 1769 2642 2001 
Q 2353 2234 1838 2234 
L 1294 2234 
L 1294 2753 
L 1863 2753 
Q 2328 2753 2575 2939 
Q 2822 3125 2822 3475 
Q 2822 3834 2567 4026 
Q 2313 4219 1838 4219 
Q 1578 4219 1281 4162 
Q 984 4106 628 3988 
L 628 4550 
Q 988 4650 1302 4700 
Q 1616 4750 1894 4750 
Q 2613 4750 3031 4423 
Q 3450 4097 3450 3541 
Q 3450 3153 3228 2886 
Q 3006 2619 2597 2516 
z
" transform="scale(0.015625)"/>
       </defs>
       <use xlink:href="#DejaVuSans-33"/>
       <use xlink:href="#DejaVuSans-30" transform="translate(63.623047 0)"/>
      </g>
     </g>
    </g>
    <g id="xtick_8">
     <g id="line2d_8">
      <g>
       <use xlink:href="#mcb6e2a2c33" x="439.358304" y="299.798125" style="stroke: #000000; stroke-width: 0.8"/>
      </g>
     </g>
     <g id="text_8">
      <!-- 35 -->
      <g transform="translate(432.995804 314.396563) scale(0.1 -0.1)">
       <use xlink:href="#DejaVuSans-33"/>
       <use xlink:href="#DejaVuSans-35" transform="translate(63.623047 0)"/>
      </g>
     </g>
    </g>
    <g id="text_9">
     <!-- Left Position, (rad) -->
     <g transform="translate(195.14438 328.074688) scale(0.1 -0.1)">
      <defs>
       <path id="DejaVuSans-4c" d="M 628 4666 
L 1259 4666 
L 1259 531 
L 3531 531 
L 3531 0 
L 628 0 
L 628 4666 
z
" transform="scale(0.015625)"/>
       <path id="DejaVuSans-65" d="M 3597 1894 
L 3597 1613 
L 953 1613 
Q 991 1019 1311 708 
Q 1631 397 2203 397 
Q 2534 397 2845 478 
Q 3156 559 3463 722 
L 3463 178 
Q 3153 47 2828 -22 
Q 2503 -91 2169 -91 
Q 1331 -91 842 396 
Q 353 884 353 1716 
Q 353 2575 817 3079 
Q 1281 3584 2069 3584 
Q 2775 3584 3186 3129 
Q 3597 2675 3597 1894 
z
M 3022 2063 
Q 3016 2534 2758 2815 
Q 2500 3097 2075 3097 
Q 1594 3097 1305 2825 
Q 1016 2553 972 2059 
L 3022 2063 
z
" transform="scale(0.015625)"/>
       <path id="DejaVuSans-66" d="M 2375 4863 
L 2375 4384 
L 1825 4384 
Q 1516 4384 1395 4259 
Q 1275 4134 1275 3809 
L 1275 3500 
L 2222 3500 
L 2222 3053 
L 1275 3053 
L 1275 0 
L 697 0 
L 697 3053 
L 147 3053 
L 147 3500 
L 697 3500 
L 697 3744 
Q 697 4328 969 4595 
Q 1241 4863 1831 4863 
L 2375 4863 
z
" transform="scale(0.015625)"/>
       <path id="DejaVuSans-74" d="M 1172 4494 
L 1172 3500 
L 2356 3500 
L 2356 3053 
L 1172 3053 
L 1172 1153 
Q 1172 725 1289 603 
Q 1406 481 1766 481 
L 2356 481 
L 2356 0 
L 1766 0 
Q 1100 0 847 248 
Q 594 497 594 1153 
L 594 3053 
L 172 3053 
L 172 3500 
L 594 3500 
L 594 4494 
L 1172 4494 
z
" transform="scale(0.015625)"/>
       <path id="DejaVuSans-20" transform="scale(0.015625)"/>
       <path id="DejaVuSans-50" d="M 1259 4147 
L 1259 2394 
L 2053 2394 
Q 2494 2394 2734 2622 
Q 2975 2850 2975 3272 
Q 2975 3691 2734 3919 
Q 2494 4147 2053 4147 
L 1259 4147 
z
M 628 4666 
L 2053 4666 
Q 2838 4666 3239 4311 
Q 3641 3956 3641 3272 
Q 3641 2581 3239 2228 
Q 2838 1875 2053 1875 
L 1259 1875 
L 1259 0 
L 628 0 
L 628 4666 
z
" transform="scale(0.015625)"/>
       <path id="DejaVuSans-6f" d="M 1959 3097 
Q 1497 3097 1228 2736 
Q 959 2375 959 1747 
Q 959 1119 1226 758 
Q 1494 397 1959 397 
Q 2419 397 2687 759 
Q 2956 1122 2956 1747 
Q 2956 2369 2687 2733 
Q 2419 3097 1959 3097 
z
M 1959 3584 
Q 2709 3584 3137 3096 
Q 3566 2609 3566 1747 
Q 3566 888 3137 398 
Q 2709 -91 1959 -91 
Q 1206 -91 779 398 
Q 353 888 353 1747 
Q 353 2609 779 3096 
Q 1206 3584 1959 3584 
z
" transform="scale(0.015625)"/>
       <path id="DejaVuSans-73" d="M 2834 3397 
L 2834 2853 
Q 2591 2978 2328 3040 
Q 2066 3103 1784 3103 
Q 1356 3103 1142 2972 
Q 928 2841 928 2578 
Q 928 2378 1081 2264 
Q 1234 2150 1697 2047 
L 1894 2003 
Q 2506 1872 2764 1633 
Q 3022 1394 3022 966 
Q 3022 478 2636 193 
Q 2250 -91 1575 -91 
Q 1294 -91 989 -36 
Q 684 19 347 128 
L 347 722 
Q 666 556 975 473 
Q 1284 391 1588 391 
Q 1994 391 2212 530 
Q 2431 669 2431 922 
Q 2431 1156 2273 1281 
Q 2116 1406 1581 1522 
L 1381 1569 
Q 847 1681 609 1914 
Q 372 2147 372 2553 
Q 372 3047 722 3315 
Q 1072 3584 1716 3584 
Q 2034 3584 2315 3537 
Q 2597 3491 2834 3397 
z
" transform="scale(0.015625)"/>
       <path id="DejaVuSans-69" d="M 603 3500 
L 1178 3500 
L 1178 0 
L 603 0 
L 603 3500 
z
M 603 4863 
L 1178 4863 
L 1178 4134 
L 603 4134 
L 603 4863 
z
" transform="scale(0.015625)"/>
       <path id="DejaVuSans-6e" d="M 3513 2113 
L 3513 0 
L 2938 0 
L 2938 2094 
Q 2938 2591 2744 2837 
Q 2550 3084 2163 3084 
Q 1697 3084 1428 2787 
Q 1159 2491 1159 1978 
L 1159 0 
L 581 0 
L 581 3500 
L 1159 3500 
L 1159 2956 
Q 1366 3272 1645 3428 
Q 1925 3584 2291 3584 
Q 2894 3584 3203 3211 
Q 3513 2838 3513 2113 
z
" transform="scale(0.015625)"/>
       <path id="DejaVuSans-2c" d="M 750 794 
L 1409 794 
L 1409 256 
L 897 -744 
L 494 -744 
L 750 256 
L 750 794 
z
" transform="scale(0.015625)"/>
       <path id="DejaVuSans-28" d="M 1984 4856 
Q 1566 4138 1362 3434 
Q 1159 2731 1159 2009 
Q 1159 1288 1364 580 
Q 1569 -128 1984 -844 
L 1484 -844 
Q 1016 -109 783 600 
Q 550 1309 550 2009 
Q 550 2706 781 3412 
Q 1013 4119 1484 4856 
L 1984 4856 
z
" transform="scale(0.015625)"/>
       <path id="DejaVuSans-72" d="M 2631 2963 
Q 2534 3019 2420 3045 
Q 2306 3072 2169 3072 
Q 1681 3072 1420 2755 
Q 1159 2438 1159 1844 
L 1159 0 
L 581 0 
L 581 3500 
L 1159 3500 
L 1159 2956 
Q 1341 3275 1631 3429 
Q 1922 3584 2338 3584 
Q 2397 3584 2469 3576 
Q 2541 3569 2628 3553 
L 2631 2963 
z
" transform="scale(0.015625)"/>
       <path id="DejaVuSans-61" d="M 2194 1759 
Q 1497 1759 1228 1600 
Q 959 1441 959 1056 
Q 959 750 1161 570 
Q 1363 391 1709 391 
Q 2188 391 2477 730 
Q 2766 1069 2766 1631 
L 2766 1759 
L 2194 1759 
z
M 3341 1997 
L 3341 0 
L 2766 0 
L 2766 531 
Q 2569 213 2275 61 
Q 1981 -91 1556 -91 
Q 1019 -91 701 211 
Q 384 513 384 1019 
Q 384 1609 779 1909 
Q 1175 2209 1959 2209 
L 2766 2209 
L 2766 2266 
Q 2766 2663 2505 2880 
Q 2244 3097 1772 3097 
Q 1472 3097 1187 3025 
Q 903 2953 641 2809 
L 641 3341 
Q 956 3463 1253 3523 
Q 1550 3584 1831 3584 
Q 2591 3584 2966 3190 
Q 3341 2797 3341 1997 
z
" transform="scale(0.015625)"/>
       <path id="DejaVuSans-64" d="M 2906 2969 
L 2906 4863 
L 3481 4863 
L 3481 0 
L 2906 0 
L 2906 525 
Q 2725 213 2448 61 
Q 2172 -91 1784 -91 
Q 1150 -91 751 415 
Q 353 922 353 1747 
Q 353 2572 751 3078 
Q 1150 3584 1784 3584 
Q 2172 3584 2448 3432 
Q 2725 3281 2906 2969 
z
M 947 1747 
Q 947 1113 1208 752 
Q 1469 391 1925 391 
Q 2381 391 2643 752 
Q 2906 1113 2906 1747 
Q 2906 2381 2643 2742 
Q 2381 3103 1925 3103 
Q 1469 3103 1208 2742 
Q 947 2381 947 1747 
z
" transform="scale(0.015625)"/>
       <path id="DejaVuSans-29" d="M 513 4856 
L 1013 4856 
Q 1481 4119 1714 3412 
Q 1947 2706 1947 2009 
Q 1947 1309 1714 600 
Q 1481 -109 1013 -844 
L 513 -844 
Q 928 -128 1133 580 
Q 1338 1288 1338 2009 
Q 1338 2731 1133 3434 
Q 928 4138 513 4856 
z
" transform="scale(0.015625)"/>
      </defs>
      <use xlink:href="#DejaVuSans-4c"/>
      <use xlink:href="#DejaVuSans-65" transform="translate(53.962891 0)"/>
      <use xlink:href="#DejaVuSans-66" transform="translate(115.486328 0)"/>
      <use xlink:href="#DejaVuSans-74" transform="translate(148.941406 0)"/>
      <use xlink:href="#DejaVuSans-20" transform="translate(188.150391 0)"/>
      <use xlink:href="#DejaVuSans-50" transform="translate(219.9375 0)"/>
      <use xlink:href="#DejaVuSans-6f" transform="translate(276.615234 0)"/>
      <use xlink:href="#DejaVuSans-73" transform="translate(337.796875 0)"/>
      <use xlink:href="#DejaVuSans-69" transform="translate(389.896484 0)"/>
      <use xlink:href="#DejaVuSans-74" transform="translate(417.679688 0)"/>
      <use xlink:href="#DejaVuSans-69" transform="translate(456.888672 0)"/>
      <use xlink:href="#DejaVuSans-6f" transform="translate(484.671875 0)"/>
      <use xlink:href="#DejaVuSans-6e" transform="translate(545.853516 0)"/>
      <use xlink:href="#DejaVuSans-2c" transform="translate(609.232422 0)"/>
      <use xlink:href="#DejaVuSans-20" transform="translate(641.019531 0)"/>
      <use xlink:href="#DejaVuSans-28" transform="translate(672.806641 0)"/>
      <use xlink:href="#DejaVuSans-72" transform="translate(711.820312 0)"/>
      <use xlink:href="#DejaVuSans-61" transform="translate(752.933594 0)"/>
      <use xlink:href="#DejaVuSans-64" transform="translate(814.212891 0)"/>
      <use xlink:href="#DejaVuSans-29" transform="translate(877.689453 0)"/>
     </g>
    </g>
   </g>
   <g id="matplotlib.axis_2">
    <g id="ytick_1">
     <g id="line2d_9">
      <defs>
       <path id="m47d2a5778c" d="M 0 0 
L -3.5 0 
" style="stroke: #000000; stroke-width: 0.8"/>
      </defs>
      <g>
       <use xlink:href="#m47d2a5778c" x="40.603125" y="287.185398" style="stroke: #000000; stroke-width: 0.8"/>
      </g>
     </g>
     <g id="text_10">
      <!-- 0 -->
      <g transform="translate(27.240625 290.984616) scale(0.1 -0.1)">
       <use xlink:href="#DejaVuSans-30"/>
      </g>
     </g>
    </g>
    <g id="ytick_2">
     <g id="line2d_10">
      <g>
       <use xlink:href="#m47d2a5778c" x="40.603125" y="249.490558" style="stroke: #000000; stroke-width: 0.8"/>
      </g>
     </g>
     <g id="text_11">
      <!-- 5 -->
      <g transform="translate(27.240625 253.289777) scale(0.1 -0.1)">
       <use xlink:href="#DejaVuSans-35"/>
      </g>
     </g>
    </g>
    <g id="ytick_3">
     <g id="line2d_11">
      <g>
       <use xlink:href="#m47d2a5778c" x="40.603125" y="211.795718" style="stroke: #000000; stroke-width: 0.8"/>
      </g>
     </g>
     <g id="text_12">
      <!-- 10 -->
      <g transform="translate(20.878125 215.594937) scale(0.1 -0.1)">
       <use xlink:href="#DejaVuSans-31"/>
       <use xlink:href="#DejaVuSans-30" transform="translate(63.623047 0)"/>
      </g>
     </g>
    </g>
    <g id="ytick_4">
     <g id="line2d_12">
      <g>
       <use xlink:href="#m47d2a5778c" x="40.603125" y="174.100879" style="stroke: #000000; stroke-width: 0.8"/>
      </g>
     </g>
     <g id="text_13">
      <!-- 15 -->
      <g transform="translate(20.878125 177.900098) scale(0.1 -0.1)">
       <use xlink:href="#DejaVuSans-31"/>
       <use xlink:href="#DejaVuSans-35" transform="translate(63.623047 0)"/>
      </g>
     </g>
    </g>
    <g id="ytick_5">
     <g id="line2d_13">
      <g>
       <use xlink:href="#m47d2a5778c" x="40.603125" y="136.406039" style="stroke: #000000; stroke-width: 0.8"/>
      </g>
     </g>
     <g id="text_14">
      <!-- 20 -->
      <g transform="translate(20.878125 140.205258) scale(0.1 -0.1)">
       <use xlink:href="#DejaVuSans-32"/>
       <use xlink:href="#DejaVuSans-30" transform="translate(63.623047 0)"/>
      </g>
     </g>
    </g>
    <g id="ytick_6">
     <g id="line2d_14">
      <g>
       <use xlink:href="#m47d2a5778c" x="40.603125" y="98.711199" style="stroke: #000000; stroke-width: 0.8"/>
      </g>
     </g>
     <g id="text_15">
      <!-- 25 -->
      <g transform="translate(20.878125 102.510418) scale(0.1 -0.1)">
       <use xlink:href="#DejaVuSans-32"/>
       <use xlink:href="#DejaVuSans-35" transform="translate(63.623047 0)"/>
      </g>
     </g>
    </g>
    <g id="ytick_7">
     <g id="line2d_15">
      <g>
       <use xlink:href="#m47d2a5778c" x="40.603125" y="61.01636" style="stroke: #000000; stroke-width: 0.8"/>
      </g>
     </g>
     <g id="text_16">
      <!-- 30 -->
      <g transform="translate(20.878125 64.815579) scale(0.1 -0.1)">
       <use xlink:href="#DejaVuSans-33"/>
       <use xlink:href="#DejaVuSans-30" transform="translate(63.623047 0)"/>
      </g>
     </g>
    </g>
    <g id="ytick_8">
     <g id="line2d_16">
      <g>
       <use xlink:href="#m47d2a5778c" x="40.603125" y="23.32152" style="stroke: #000000; stroke-width: 0.8"/>
      </g>
     </g>
     <g id="text_17">
      <!-- 35 -->
      <g transform="translate(20.878125 27.120739) scale(0.1 -0.1)">
       <use xlink:href="#DejaVuSans-33"/>
       <use xlink:href="#DejaVuSans-35" transform="translate(63.623047 0)"/>
      </g>
     </g>
    </g>
    <g id="text_18">
     <!-- Right Position, (rad) -->
     <g transform="translate(14.798438 210.651094) rotate(-90) scale(0.1 -0.1)">
      <defs>
       <path id="DejaVuSans-52" d="M 2841 2188 
Q 3044 2119 3236 1894 
Q 3428 1669 3622 1275 
L 4263 0 
L 3584 0 
L 2988 1197 
Q 2756 1666 2539 1819 
Q 2322 1972 1947 1972 
L 1259 1972 
L 1259 0 
L 628 0 
L 628 4666 
L 2053 4666 
Q 2853 4666 3247 4331 
Q 3641 3997 3641 3322 
Q 3641 2881 3436 2590 
Q 3231 2300 2841 2188 
z
M 1259 4147 
L 1259 2491 
L 2053 2491 
Q 2509 2491 2742 2702 
Q 2975 2913 2975 3322 
Q 2975 3731 2742 3939 
Q 2509 4147 2053 4147 
L 1259 4147 
z
" transform="scale(0.015625)"/>
       <path id="DejaVuSans-67" d="M 2906 1791 
Q 2906 2416 2648 2759 
Q 2391 3103 1925 3103 
Q 1463 3103 1205 2759 
Q 947 2416 947 1791 
Q 947 1169 1205 825 
Q 1463 481 1925 481 
Q 2391 481 2648 825 
Q 2906 1169 2906 1791 
z
M 3481 434 
Q 3481 -459 3084 -895 
Q 2688 -1331 1869 -1331 
Q 1566 -1331 1297 -1286 
Q 1028 -1241 775 -1147 
L 775 -588 
Q 1028 -725 1275 -790 
Q 1522 -856 1778 -856 
Q 2344 -856 2625 -561 
Q 2906 -266 2906 331 
L 2906 616 
Q 2728 306 2450 153 
Q 2172 0 1784 0 
Q 1141 0 747 490 
Q 353 981 353 1791 
Q 353 2603 747 3093 
Q 1141 3584 1784 3584 
Q 2172 3584 2450 3431 
Q 2728 3278 2906 2969 
L 2906 3500 
L 3481 3500 
L 3481 434 
z
" transform="scale(0.015625)"/>
       <path id="DejaVuSans-68" d="M 3513 2113 
L 3513 0 
L 2938 0 
L 2938 2094 
Q 2938 2591 2744 2837 
Q 2550 3084 2163 3084 
Q 1697 3084 1428 2787 
Q 1159 2491 1159 1978 
L 1159 0 
L 581 0 
L 581 4863 
L 1159 4863 
L 1159 2956 
Q 1366 3272 1645 3428 
Q 1925 3584 2291 3584 
Q 2894 3584 3203 3211 
Q 3513 2838 3513 2113 
z
" transform="scale(0.015625)"/>
      </defs>
      <use xlink:href="#DejaVuSans-52"/>
      <use xlink:href="#DejaVuSans-69" transform="translate(69.482422 0)"/>
      <use xlink:href="#DejaVuSans-67" transform="translate(97.265625 0)"/>
      <use xlink:href="#DejaVuSans-68" transform="translate(160.742188 0)"/>
      <use xlink:href="#DejaVuSans-74" transform="translate(224.121094 0)"/>
      <use xlink:href="#DejaVuSans-20" transform="translate(263.330078 0)"/>
      <use xlink:href="#DejaVuSans-50" transform="translate(295.117188 0)"/>
      <use xlink:href="#DejaVuSans-6f" transform="translate(351.794922 0)"/>
      <use xlink:href="#DejaVuSans-73" transform="translate(412.976562 0)"/>
      <use xlink:href="#DejaVuSans-69" transform="translate(465.076172 0)"/>
      <use xlink:href="#DejaVuSans-74" transform="translate(492.859375 0)"/>
      <use xlink:href="#DejaVuSans-69" transform="translate(532.068359 0)"/>
      <use xlink:href="#DejaVuSans-6f" transform="translate(559.851562 0)"/>
      <use xlink:href="#DejaVuSans-6e" transform="translate(621.033203 0)"/>
      <use xlink:href="#DejaVuSans-2c" transform="translate(684.412109 0)"/>
      <use xlink:href="#DejaVuSans-20" transform="translate(716.199219 0)"/>
      <use xlink:href="#DejaVuSans-28" transform="translate(747.986328 0)"/>
      <use xlink:href="#DejaVuSans-72" transform="translate(787 0)"/>
      <use xlink:href="#DejaVuSans-61" transform="translate(828.113281 0)"/>
      <use xlink:href="#DejaVuSans-64" transform="translate(889.392578 0)"/>
      <use xlink:href="#DejaVuSans-29" transform="translate(952.869141 0)"/>
     </g>
    </g>
   </g>
   <g id="line2d_17">
    <path d="M 67.99363 281.614898 
L 68.94436 280.955667 
L 71.226105 279.373512 
L 73.935685 277.329901 
L 76.645266 275.319243 
L 79.259777 273.407474 
L 81.921812 271.462744 
L 84.964147 269.320245 
L 88.101562 267.144785 
L 91.429106 264.837477 
L 94.899275 262.365359 
L 98.321899 259.959169 
L 101.887128 257.487051 
L 105.547437 254.98198 
L 109.207745 252.443934 
L 112.9156 249.938855 
L 116.528363 247.466745 
L 120.188683 244.895746 
L 123.848992 242.324746 
L 127.60437 239.720779 
L 131.312214 237.182741 
L 134.972523 234.677662 
L 138.680377 232.073703 
L 142.340686 229.568624 
L 146.048519 227.063546 
L 149.708827 224.525507 
L 153.369136 221.954508 
L 157.029434 219.383501 
L 160.642208 216.878423 
L 164.492656 214.274471 
L 168.200522 211.736462 
L 171.860765 209.231338 
L 175.616144 206.693345 
L 179.228983 204.188221 
L 182.936848 201.650228 
L 186.73974 199.013248 
L 190.35247 196.475254 
L 194.060336 193.90424 
L 197.815714 191.30028 
L 201.571093 188.696321 
L 205.231445 186.125306 
L 208.844175 183.620258 
L 212.504528 181.049244 
L 216.212284 178.445284 
L 219.92015 175.940236 
L 223.628015 173.336277 
L 227.288367 170.831153 
L 230.996124 168.227193 
L 234.703989 165.029917 
L 238.506881 163.151131 
L 242.167233 160.580117 
L 245.779964 158.075068 
L 249.440316 155.504054 
L 253.053047 152.93304 
L 256.855938 150.296135 
L 260.468777 147.791087 
L 264.129021 145.220073 
L 267.931912 142.616113 
L 271.639778 140.078044 
L 275.204995 137.572996 
L 278.912861 135.001982 
L 282.715752 132.430968 
L 286.328591 129.925919 
L 290.131483 127.289014 
L 293.839348 124.750945 
L 297.594727 122.114041 
L 301.302483 119.576047 
L 305.057862 116.972088 
L 308.718214 114.401073 
L 312.330945 111.863004 
L 316.03881 109.259045 
L 319.699162 106.688031 
L 323.359515 104.150037 
L 327.162406 101.579023 
L 330.727624 99.10692 
L 334.435489 96.535906 
L 338.190867 93.899001 
L 341.756085 91.393877 
L 345.511463 88.789918 
L 349.171707 86.284869 
L 352.927085 83.647965 
L 356.634951 81.044005 
L 360.295303 78.505936 
L 363.955655 75.901977 
L 367.711034 73.298017 
L 371.323764 70.792969 
L 375.126656 68.156064 
L 378.739386 65.651016 
L 382.494765 63.047056 
L 386.107604 60.508987 
L 389.815361 57.937973 
L 393.523226 55.399904 
L 397.278604 52.795945 
L 400.938957 50.257951 
L 404.646822 47.719882 
L 408.402201 45.082977 
L 412.109957 42.511963 
L 415.770309 39.347632 
L 419.525688 37.435901 
L 423.138418 34.930852 
" clip-path="url(#p4cf6ac0e53)" style="fill: none; stroke: #1f77b4; stroke-width: 1.5; stroke-linecap: square"/>
   </g>
   <g id="line2d_18">
    <path d="M 66.519999 282.801514 
L 67.375656 282.208206 
L 69.657406 280.691975 
L 72.414518 278.78021 
L 75.076564 276.868441 
L 77.500925 275.022592 
L 79.925286 273.209704 
L 82.587321 271.264975 
L 85.344436 269.221364 
L 88.149097 267.177746 
L 91.048817 265.068207 
L 94.043617 262.991636 
L 97.181021 260.783208 
L 100.365971 258.014439 
L 103.598445 256.366361 
L 106.735861 254.157941 
L 109.873265 251.91656 
L 113.058204 249.708133 
L 116.290689 247.466752 
L 119.380559 245.324245 
L 122.517963 243.082865 
L 125.607844 240.940366 
L 128.792783 238.731938 
L 132.025257 236.556479 
L 135.210207 234.348058 
L 138.347612 232.139631 
L 141.580097 229.931211 
L 144.765036 227.722783 
L 147.997521 225.514363 
L 151.134925 223.338911 
L 154.272319 221.130484 
L 157.504793 218.889096 
L 160.547128 216.746596 
L 163.779602 214.505208 
L 166.917006 212.329749 
L 170.149535 210.121314 
L 173.286918 207.945869 
L 176.471813 205.737479 
L 179.609196 203.59498 
L 182.746687 201.386515 
L 185.931583 199.21107 
L 189.116479 197.002605 
L 192.25397 194.794215 
L 195.391353 192.61877 
L 198.576249 190.37736 
L 201.713632 188.201915 
L 204.993662 185.993525 
L 208.083532 183.850951 
L 211.316049 181.57667 
L 214.405919 179.434171 
L 217.590815 177.258651 
L 220.823332 175.017316 
L 223.960715 172.80885 
L 227.098098 170.633406 
L 230.235589 168.457961 
L 233.467998 166.216551 
L 236.653003 164.041106 
L 239.885411 161.832716 
L 243.022903 159.624251 
L 246.160286 157.448806 
L 249.345181 155.240341 
L 252.482673 153.064897 
L 255.715082 150.823561 
L 258.900086 148.648041 
L 261.989956 146.505542 
L 265.127338 144.297152 
L 268.264721 142.121708 
L 271.449726 139.880297 
L 274.587108 137.704853 
L 277.867139 135.496387 
L 281.004522 133.320943 
L 284.141904 131.145498 
L 287.279396 128.969978 
L 290.464292 126.761588 
L 293.649296 124.520178 
L 296.834192 122.278843 
L 299.971575 120.070377 
L 303.204092 117.861987 
L 306.341475 115.719488 
L 309.478858 113.511098 
L 312.711375 111.302633 
L 315.848758 109.127188 
L 319.033762 106.885778 
L 322.171145 104.710333 
L 325.308528 102.534889 
L 328.541045 100.326423 
L 331.678428 98.118033 
L 334.815919 95.382217 
L 337.90568 93.80009 
L 341.090685 91.591624 
L 344.275581 89.41618 
L 347.460585 87.27368 
L 350.692994 85.03227 
L 353.782864 82.856825 
L 356.920355 80.681381 
L 360.152764 78.43997 
L 363.337768 76.23158 
L 366.427638 74.023115 
L 369.612534 71.748759 
L 372.749917 69.573315 
" clip-path="url(#p4cf6ac0e53)" style="fill: none; stroke: #ff7f0e; stroke-width: 1.5; stroke-linecap: square"/>
   </g>
   <g id="line2d_19">
    <path d="M 64.808686 283.955168 
L 65.616807 283.427783 
L 67.851021 281.878591 
L 70.417992 280.032745 
L 72.937422 278.219861 
L 75.171633 276.604743 
L 77.35832 275.022592 
L 79.735136 273.374514 
L 82.254577 271.561626 
L 84.916612 269.649864 
L 87.626192 267.771055 
L 90.335773 265.859286 
L 92.950273 263.980477 
L 95.659854 262.068708 
L 98.369434 260.189907 
L 100.983934 258.409979 
L 103.693515 256.531178 
L 106.308026 254.685329 
L 108.970061 252.80652 
L 111.584572 250.99364 
L 114.246607 248.686331 
L 116.908652 247.334911 
L 122.137663 243.709142 
L 124.799709 241.863294 
L 127.414209 240.017445 
L 130.076255 238.138644 
L 132.690755 236.358716 
L 135.352801 234.512875 
L 137.967301 232.699987 
L 140.629347 230.854139 
L 143.291392 228.975338 
L 145.858358 227.19541 
L 148.520404 225.382529 
L 151.182438 223.503721 
L 153.844484 221.657872 
L 156.411449 219.844984 
L 159.12103 217.966175 
L 161.783076 216.120327 
L 164.350041 214.340407 
L 167.012087 212.527519 
L 169.7217 210.64874 
L 172.336222 208.835844 
L 174.998257 206.990003 
L 177.612779 205.177108 
L 180.227192 203.397157 
L 182.841714 201.584262 
L 185.503748 199.738421 
L 188.165892 197.89258 
L 190.827927 196.046739 
L 193.394827 194.266789 
L 196.151997 192.388003 
L 198.766519 190.542162 
L 201.333419 188.762211 
L 203.995453 186.949316 
L 206.70511 185.103475 
L 209.27201 183.257634 
L 211.981667 181.411793 
L 214.548567 179.631918 
L 217.210602 177.753056 
L 219.872637 175.907215 
L 222.487159 174.061375 
L 225.10168 172.248479 
L 227.763715 170.402638 
L 230.42575 168.589742 
L 233.135407 166.743902 
L 235.702307 164.898061 
L 238.316829 163.085165 
L 240.978864 161.206379 
L 243.640899 159.393483 
L 246.302933 157.613608 
L 248.869942 155.800713 
L 251.531977 153.954872 
L 254.194012 152.108955 
L 256.760912 150.32908 
L 259.422947 148.48324 
L 262.085091 146.637399 
L 264.699504 144.824503 
L 267.40916 142.945717 
L 270.023682 141.132821 
L 272.685717 139.319926 
L 275.300239 137.50703 
L 278.009787 135.628244 
L 280.624309 133.782403 
L 283.23883 131.969507 
L 285.853244 130.123666 
L 288.467765 128.343716 
L 291.1298 126.53082 
L 293.791835 124.652034 
L 296.406357 122.839139 
L 299.116014 120.960352 
L 301.730427 119.147457 
L 304.344949 117.301616 
L 307.006984 115.455775 
L 309.621505 113.181419 
L 312.188514 111.89595 
L 314.850549 110.050109 
L 317.465071 108.270158 
L 320.127106 106.424318 
L 322.789141 104.545531 
" clip-path="url(#p4cf6ac0e53)" style="fill: none; stroke: #2ca02c; stroke-width: 1.5; stroke-linecap: square"/>
   </g>
   <g id="line2d_20">
    <path d="M 63.525201 284.812168 
L 64.238248 284.251821 
L 66.09217 282.867437 
L 68.373921 281.318245 
L 70.703211 279.867937 
L 72.842353 278.549472 
L 74.886414 277.165092 
L 77.07309 275.615902 
L 79.354846 274.066704 
L 81.684127 272.484554 
L 83.918349 270.902403 
L 86.15256 269.320245 
L 88.386771 267.804015 
L 90.620993 266.287786 
L 92.760134 264.771556 
L 94.94681 263.288287 
L 97.085952 261.739089 
L 99.272628 260.25582 
L 101.364234 258.805511 
L 103.503376 257.289281 
L 105.594971 255.83898 
L 107.781648 254.388671 
L 109.968324 252.905401 
L 112.012396 251.488053 
L 114.151537 250.004791 
L 116.243133 248.554482 
L 118.287205 247.104173 
L 120.331276 245.653872 
L 122.422872 244.203563 
L 124.562013 242.720293 
L 126.701155 241.269985 
L 128.792761 239.819683 
L 130.931892 238.303453 
L 133.071033 236.853144 
L 135.16264 235.402835 
L 137.254247 233.952534 
L 139.393377 232.436304 
L 141.484984 231.018956 
L 143.624125 229.568647 
L 145.715732 228.118345 
L 147.854873 226.635069 
L 150.041549 225.151799 
L 152.133167 223.70149 
L 154.224773 222.218221 
L 156.363915 220.701991 
L 158.407976 219.284643 
L 160.547117 217.768413 
L 162.638724 216.351064 
L 164.825411 214.472256 
L 166.869472 213.417486 
L 169.00857 211.934224 
L 171.10023 210.483938 
L 175.283444 207.58332 
L 177.422618 206.100028 
L 179.51417 204.682702 
L 181.653344 203.166465 
L 183.744896 201.716118 
L 185.836557 200.265847 
L 187.928109 198.782555 
L 190.01977 197.299263 
L 192.111323 195.848992 
L 194.202984 194.3657 
L 196.389671 192.882483 
L 198.528845 191.432137 
L 200.66791 189.948845 
L 202.807084 188.465628 
L 204.851123 187.015282 
L 207.03781 185.53199 
L 209.176984 184.081718 
L 211.221023 182.664392 
L 213.40771 181.214046 
L 215.499371 179.79672 
L 217.590924 178.346373 
L 219.730098 176.863157 
L 221.82165 175.379865 
L 223.865798 173.929518 
L 226.004863 172.446301 
L 228.096524 170.96301 
L 230.283211 169.479718 
L 232.32725 168.029446 
L 234.466424 166.546154 
L 236.60549 165.062862 
L 238.744664 163.579646 
L 240.836325 162.129299 
L 242.927877 160.646083 
L 244.971916 159.261702 
L 247.158603 157.77841 
L 249.250264 156.328063 
L 251.389438 154.811902 
L 253.48099 153.3945 
L 255.572651 151.944229 
L 257.711716 150.427992 
L 259.755864 148.977645 
L 261.847417 147.527374 
L 264.034104 146.044082 
L 266.125656 144.56079 
L 268.312343 143.077573 
L 270.404004 141.660172 
L 272.543178 140.176955 
" clip-path="url(#p4cf6ac0e53)" style="fill: none; stroke: #d62728; stroke-width: 1.5; stroke-linecap: square"/>
   </g>
   <g id="line2d_21">
    <path d="M 61.100841 285.965821 
L 61.67128 285.537321 
L 63.192447 284.482552 
L 64.903759 283.394821 
L 66.472462 282.340052 
L 67.898557 281.318245 
L 69.46726 280.263475 
L 71.273651 279.076861 
L 72.984957 277.890242 
L 74.64874 276.703631 
L 76.360046 275.549981 
L 78.071364 274.396323 
L 79.735136 273.275632 
L 81.398907 272.121974 
L 83.015155 271.001284 
L 84.631392 269.880594 
L 86.295164 268.759904 
L 87.863866 267.639206 
L 89.432579 266.518516 
L 91.048817 265.430786 
L 92.617519 264.507866 
L 94.186221 263.420136 
L 95.754923 262.299438 
L 97.371171 261.211708 
L 98.939873 260.123978 
L 100.461041 259.069209 
L 102.077278 257.948519 
L 103.693526 256.794861 
L 105.262217 255.67417 
L 106.878465 254.586441 
L 108.447167 253.46575 
L 110.063404 252.312092 
L 111.679641 251.191402 
L 113.200809 250.136633 
L 114.769511 249.015942 
L 116.338213 247.928213 
L 117.95445 246.807522 
L 119.570687 245.686832 
L 121.139389 244.599102 
L 122.708092 243.511372 
L 124.324329 242.390682 
L 125.893031 241.302952 
L 127.461733 240.248183 
L 129.030435 239.160453 
L 130.646672 238.072723 
L 132.215375 236.984993 
L 133.831623 235.897264 
L 135.400325 234.776573 
L 136.969016 233.655883 
L 138.585253 232.535193 
L 140.153955 231.447463 
L 141.722658 230.326765 
L 143.338895 229.206075 
L 144.955132 228.085385 
L 146.476299 227.030623 
L 148.045012 225.942886 
L 149.661249 224.855156 
L 151.229951 223.701498 
L 152.751119 222.613768 
L 154.414891 221.526031 
L 155.983604 220.471269 
L 157.599841 219.317611 
L 159.121008 218.229881 
L 160.737245 217.142143 
L 162.353482 216.054414 
L 163.922185 214.966676 
L 165.538422 213.878946 
L 167.107124 212.791217 
L 168.67587 211.703517 
L 170.244561 210.615719 
L 171.860765 209.495052 
L 173.429457 208.407329 
L 174.998148 207.319607 
L 176.566948 206.165919 
L 178.088018 205.078196 
L 179.751844 203.957529 
L 181.320535 202.869807 
L 182.93674 201.749064 
L 184.50554 200.694287 
L 186.121744 199.573619 
L 187.737949 198.452951 
L 189.30664 197.332284 
L 190.875331 196.277507 
L 192.444131 195.156764 
L 194.012823 194.069042 
L 195.581514 192.948374 
L 197.197718 191.893597 
L 198.76641 190.805875 
L 200.382723 189.652186 
L 201.998927 188.564464 
L 203.520106 187.476742 
L 205.13631 186.059416 
L 206.705001 185.268352 
L 208.273693 184.18063 
L 209.842493 183.125853 
L 211.458697 182.00511 
L 212.979876 180.917387 
L 214.59608 179.79672 
L 216.164771 178.708998 
L 217.733463 177.621275 
" clip-path="url(#p4cf6ac0e53)" style="fill: none; stroke: #9467bd; stroke-width: 1.5; stroke-linecap: square"/>
   </g>
   <g id="line2d_22">
    <path d="M 59.627211 286.822821 
L 60.055039 286.59209 
L 61.053306 285.965821 
L 62.146644 285.30659 
L 63.097373 284.680321 
L 64.048104 283.988129 
L 65.188979 283.197051 
L 66.377391 282.405976 
L 67.518265 281.614898 
L 68.659141 280.856783 
L 69.800018 280.098668 
L 70.940896 279.307591 
L 72.034229 278.549472 
L 73.175107 277.791361 
L 74.26844 277.033243 
L 75.314249 276.275132 
L 76.407581 275.517013 
L 77.500925 274.791862 
L 78.546723 274.066704 
L 79.544997 273.374514 
L 80.54326 272.649363 
L 81.636592 271.891244 
L 82.682401 271.166094 
L 83.728199 270.440935 
L 84.821531 269.715785 
L 85.86734 268.990634 
L 87.008219 268.034746 
L 88.054016 267.507365 
L 89.099814 266.782214 
L 90.145623 266.057056 
L 91.191421 265.298945 
L 92.237219 264.573786 
L 93.283027 263.848636 
L 94.328825 263.123485 
L 95.374623 262.398327 
L 96.420432 261.673176 
L 97.513765 260.915057 
L 98.559573 260.189907 
L 99.605371 259.464756 
L 100.651169 258.739598 
L 101.744513 258.014447 
L 102.837856 257.256336 
L 103.883654 256.531178 
L 104.881928 255.773059 
L 105.927726 255.047908 
L 107.021069 254.32275 
L 108.066867 253.564631 
L 109.112676 252.872441 
L 110.158485 252.147283 
L 111.251817 251.389172 
L 112.297626 250.631053 
L 113.343435 249.905895 
L 114.389233 249.213705 
L 115.435041 248.488546 
L 116.528374 247.763396 
L 117.526648 247.038237 
L 118.619991 246.280119 
L 119.665789 245.554968 
L 120.711598 244.82981 
L 121.804942 244.038731 
L 122.850739 243.34654 
L 123.944083 242.588422 
L 124.942346 241.896232 
L 126.03569 241.138113 
L 127.081498 240.412955 
L 128.127296 239.687804 
L 129.173105 238.962646 
L 130.218903 238.237495 
L 131.312246 237.512337 
L 132.358055 236.787178 
L 133.451388 236.062028 
L 134.497196 235.33687 
L 135.49546 234.644679 
L 136.588803 233.919521 
L 137.634612 233.161402 
L 138.68041 232.205522 
L 139.773753 231.678141 
L 140.819562 230.952982 
L 141.86536 230.194864 
L 142.958703 229.436753 
L 144.004512 228.711594 
L 145.05031 227.986436 
L 146.143643 227.228325 
L 147.141906 226.536135 
L 148.187714 225.778024 
L 149.233523 225.052865 
L 150.326856 224.294754 
L 151.372654 223.569596 
L 152.465997 222.844445 
L 153.46426 222.119287 
L 154.557593 221.394129 
L 155.603391 220.636018 
L 156.6492 219.910867 
L 157.695008 219.185709 
L 158.788341 218.427598 
L 159.834139 217.702439 
L 160.879947 217.010249 
L 161.925756 216.285098 
L 162.971554 215.52698 
L 164.017363 214.801829 
" clip-path="url(#p4cf6ac0e53)" style="fill: none; stroke: #8c564b; stroke-width: 1.5; stroke-linecap: square"/>
   </g>
   <g id="line2d_23">
    <path d="M 69.372186 280.889744 
L 69.609869 280.757898 
L 70.037703 280.494206 
L 70.465527 280.230514 
L 70.893351 279.999782 
L 71.46379 279.703129 
L 72.034229 279.274631 
L 72.652203 278.879091 
L 73.222642 278.483552 
L 73.745546 278.120972 
L 74.36352 277.758401 
L 74.933959 277.395822 
L 75.456853 277.033243 
L 76.027292 276.670671 
L 76.550196 276.275132 
L 77.025555 275.912552 
L 77.548459 275.582941 
L 78.118899 275.187402 
L 78.689338 274.791862 
L 79.259777 274.462243 
L 79.78267 274.099672 
L 80.25804 273.704132 
L 80.780944 273.341553 
L 81.351384 272.978974 
L 81.874277 272.583435 
L 82.444716 272.220863 
L 82.967621 271.858284 
L 83.53806 271.495705 
L 84.060964 271.133126 
L 84.583868 270.737594 
L 85.106762 270.375015 
L 85.629666 270.045396 
L 86.152571 269.583936 
L 86.72301 269.320245 
L 87.245914 268.924706 
L 87.768808 268.562126 
L 88.291712 268.232515 
L 88.814616 267.836976 
L 89.337521 267.474397 
L 89.860425 267.144785 
L 90.430864 266.749246 
L 90.953758 266.386667 
L 91.476662 266.024088 
L 91.999567 265.661509 
L 92.570006 265.265969 
L 93.09291 264.903398 
L 93.615804 264.540818 
L 94.138708 264.178239 
L 94.709147 263.81566 
L 95.184517 263.453081 
L 95.754945 263.090509 
L 96.277849 262.72793 
L 96.800754 262.332391 
L 97.323658 261.969812 
L 97.846562 261.607233 
L 98.417002 261.244661 
L 98.89236 260.882082 
L 99.462799 260.519503 
L 99.985704 260.156924 
L 100.508608 259.794344 
L 101.031502 259.398805 
L 101.506871 259.036233 
L 102.029776 258.673654 
L 102.600204 258.344036 
L 103.170643 257.948504 
L 103.646013 257.585924 
L 104.168917 257.190385 
L 104.691811 256.860766 
L 105.26225 256.465227 
L 105.785154 256.102655 
L 106.308058 255.740076 
L 106.878498 255.377497 
L 107.353867 255.014918 
L 107.876761 254.685307 
L 108.4472 254.289767 
L 108.970104 253.927188 
L 109.445474 253.564609 
L 110.015913 253.20203 
L 110.586352 252.80649 
L 111.061711 252.443919 
L 111.584615 252.048379 
L 112.155054 251.65284 
L 112.677959 251.389142 
L 113.200863 251.02657 
L 113.723757 250.631031 
L 114.246661 250.268451 
L 114.769565 249.905872 
L 115.29247 249.543293 
L 115.815363 249.180714 
L 116.338268 248.785175 
L 116.908707 248.422603 
L 117.431611 248.060024 
L 117.954515 247.697445 
L 118.47742 247.334866 
L 119.000313 246.939326 
L 119.523218 246.609715 
L 120.093657 246.214175 
L 120.616561 245.851596 
L 121.139466 245.521978 
L 121.662359 245.126438 
" clip-path="url(#p4cf6ac0e53)" style="fill: none; stroke: #e377c2; stroke-width: 1.5; stroke-linecap: square"/>
   </g>
   <g id="line2d_24">
    <path d="M 58.819091 287.185398 
L 422.615558 34.930852 
L 422.615558 34.930852 
" clip-path="url(#p4cf6ac0e53)" style="fill: none; stroke: #7f7f7f; stroke-width: 1.5; stroke-linecap: square"/>
   </g>
   <g id="patch_3">
    <path d="M 40.603125 299.798125 
L 40.603125 22.318125 
" style="fill: none; stroke: #000000; stroke-width: 0.8; stroke-linejoin: miter; stroke-linecap: square"/>
   </g>
   <g id="patch_4">
    <path d="M 441.354385 299.798125 
L 441.354385 22.318125 
" style="fill: none; stroke: #000000; stroke-width: 0.8; stroke-linejoin: miter; stroke-linecap: square"/>
   </g>
   <g id="patch_5">
    <path d="M 40.603125 299.798125 
L 441.354385 299.798125 
" style="fill: none; stroke: #000000; stroke-width: 0.8; stroke-linejoin: miter; stroke-linecap: square"/>
   </g>
   <g id="patch_6">
    <path d="M 40.603125 22.318125 
L 441.354385 22.318125 
" style="fill: none; stroke: #000000; stroke-width: 0.8; stroke-linejoin: miter; stroke-linecap: square"/>
   </g>
   <g id="text_19">
    <!-- Right Position vs. Left position -->
    <g transform="translate(150.555942 16.318125) scale(0.12 -0.12)">
     <defs>
      <path id="DejaVuSans-76" d="M 191 3500 
L 800 3500 
L 1894 563 
L 2988 3500 
L 3597 3500 
L 2284 0 
L 1503 0 
L 191 3500 
z
" transform="scale(0.015625)"/>
      <path id="DejaVuSans-2e" d="M 684 794 
L 1344 794 
L 1344 0 
L 684 0 
L 684 794 
z
" transform="scale(0.015625)"/>
      <path id="DejaVuSans-70" d="M 1159 525 
L 1159 -1331 
L 581 -1331 
L 581 3500 
L 1159 3500 
L 1159 2969 
Q 1341 3281 1617 3432 
Q 1894 3584 2278 3584 
Q 2916 3584 3314 3078 
Q 3713 2572 3713 1747 
Q 3713 922 3314 415 
Q 2916 -91 2278 -91 
Q 1894 -91 1617 61 
Q 1341 213 1159 525 
z
M 3116 1747 
Q 3116 2381 2855 2742 
Q 2594 3103 2138 3103 
Q 1681 3103 1420 2742 
Q 1159 2381 1159 1747 
Q 1159 1113 1420 752 
Q 1681 391 2138 391 
Q 2594 391 2855 752 
Q 3116 1113 3116 1747 
z
" transform="scale(0.015625)"/>
     </defs>
     <use xlink:href="#DejaVuSans-52"/>
     <use xlink:href="#DejaVuSans-69" transform="translate(69.482422 0)"/>
     <use xlink:href="#DejaVuSans-67" transform="translate(97.265625 0)"/>
     <use xlink:href="#DejaVuSans-68" transform="translate(160.742188 0)"/>
     <use xlink:href="#DejaVuSans-74" transform="translate(224.121094 0)"/>
     <use xlink:href="#DejaVuSans-20" transform="translate(263.330078 0)"/>
     <use xlink:href="#DejaVuSans-50" transform="translate(295.117188 0)"/>
     <use xlink:href="#DejaVuSans-6f" transform="translate(351.794922 0)"/>
     <use xlink:href="#DejaVuSans-73" transform="translate(412.976562 0)"/>
     <use xlink:href="#DejaVuSans-69" transform="translate(465.076172 0)"/>
     <use xlink:href="#DejaVuSans-74" transform="translate(492.859375 0)"/>
     <use xlink:href="#DejaVuSans-69" transform="translate(532.068359 0)"/>
     <use xlink:href="#DejaVuSans-6f" transform="translate(559.851562 0)"/>
     <use xlink:href="#DejaVuSans-6e" transform="translate(621.033203 0)"/>
     <use xlink:href="#DejaVuSans-20" transform="translate(684.412109 0)"/>
     <use xlink:href="#DejaVuSans-76" transform="translate(716.199219 0)"/>
     <use xlink:href="#DejaVuSans-73" transform="translate(775.378906 0)"/>
     <use xlink:href="#DejaVuSans-2e" transform="translate(827.478516 0)"/>
     <use xlink:href="#DejaVuSans-20" transform="translate(859.265625 0)"/>
     <use xlink:href="#DejaVuSans-4c" transform="translate(891.052734 0)"/>
     <use xlink:href="#DejaVuSans-65" transform="translate(945.015625 0)"/>
     <use xlink:href="#DejaVuSans-66" transform="translate(1006.539062 0)"/>
     <use xlink:href="#DejaVuSans-74" transform="translate(1039.994141 0)"/>
     <use xlink:href="#DejaVuSans-20" transform="translate(1079.203125 0)"/>
     <use xlink:href="#DejaVuSans-70" transform="translate(1110.990234 0)"/>
     <use xlink:href="#DejaVuSans-6f" transform="translate(1174.466797 0)"/>
     <use xlink:href="#DejaVuSans-73" transform="translate(1235.648438 0)"/>
     <use xlink:href="#DejaVuSans-69" transform="translate(1287.748047 0)"/>
     <use xlink:href="#DejaVuSans-74" transform="translate(1315.53125 0)"/>
     <use xlink:href="#DejaVuSans-69" transform="translate(1354.740234 0)"/>
     <use xlink:href="#DejaVuSans-6f" transform="translate(1382.523438 0)"/>
     <use xlink:href="#DejaVuSans-6e" transform="translate(1443.705078 0)"/>
    </g>
   </g>
   <g id="legend_1">
    <g id="patch_7">
     <path d="M 317.829385 294.798125 
L 434.354385 294.798125 
Q 436.354385 294.798125 436.354385 292.798125 
L 436.354385 176.373125 
Q 436.354385 174.373125 434.354385 174.373125 
L 317.829385 174.373125 
Q 315.829385 174.373125 315.829385 176.373125 
L 315.829385 292.798125 
Q 315.829385 294.798125 317.829385 294.798125 
z
" style="fill: #ffffff; opacity: 0.8; stroke: #cccccc; stroke-linejoin: miter"/>
    </g>
    <g id="line2d_25">
     <path d="M 319.829385 182.471563 
L 329.829385 182.471563 
L 339.829385 182.471563 
" style="fill: none; stroke: #1f77b4; stroke-width: 1.5; stroke-linecap: square"/>
    </g>
    <g id="text_20">
     <!-- Ref Speed = 595 -->
     <g transform="translate(347.829385 185.971563) scale(0.1 -0.1)">
      <defs>
       <path id="DejaVuSans-53" d="M 3425 4513 
L 3425 3897 
Q 3066 4069 2747 4153 
Q 2428 4238 2131 4238 
Q 1616 4238 1336 4038 
Q 1056 3838 1056 3469 
Q 1056 3159 1242 3001 
Q 1428 2844 1947 2747 
L 2328 2669 
Q 3034 2534 3370 2195 
Q 3706 1856 3706 1288 
Q 3706 609 3251 259 
Q 2797 -91 1919 -91 
Q 1588 -91 1214 -16 
Q 841 59 441 206 
L 441 856 
Q 825 641 1194 531 
Q 1563 422 1919 422 
Q 2459 422 2753 634 
Q 3047 847 3047 1241 
Q 3047 1584 2836 1778 
Q 2625 1972 2144 2069 
L 1759 2144 
Q 1053 2284 737 2584 
Q 422 2884 422 3419 
Q 422 4038 858 4394 
Q 1294 4750 2059 4750 
Q 2388 4750 2728 4690 
Q 3069 4631 3425 4513 
z
" transform="scale(0.015625)"/>
       <path id="DejaVuSans-3d" d="M 678 2906 
L 4684 2906 
L 4684 2381 
L 678 2381 
L 678 2906 
z
M 678 1631 
L 4684 1631 
L 4684 1100 
L 678 1100 
L 678 1631 
z
" transform="scale(0.015625)"/>
       <path id="DejaVuSans-39" d="M 703 97 
L 703 672 
Q 941 559 1184 500 
Q 1428 441 1663 441 
Q 2288 441 2617 861 
Q 2947 1281 2994 2138 
Q 2813 1869 2534 1725 
Q 2256 1581 1919 1581 
Q 1219 1581 811 2004 
Q 403 2428 403 3163 
Q 403 3881 828 4315 
Q 1253 4750 1959 4750 
Q 2769 4750 3195 4129 
Q 3622 3509 3622 2328 
Q 3622 1225 3098 567 
Q 2575 -91 1691 -91 
Q 1453 -91 1209 -44 
Q 966 3 703 97 
z
M 1959 2075 
Q 2384 2075 2632 2365 
Q 2881 2656 2881 3163 
Q 2881 3666 2632 3958 
Q 2384 4250 1959 4250 
Q 1534 4250 1286 3958 
Q 1038 3666 1038 3163 
Q 1038 2656 1286 2365 
Q 1534 2075 1959 2075 
z
" transform="scale(0.015625)"/>
      </defs>
      <use xlink:href="#DejaVuSans-52"/>
      <use xlink:href="#DejaVuSans-65" transform="translate(64.982422 0)"/>
      <use xlink:href="#DejaVuSans-66" transform="translate(126.505859 0)"/>
      <use xlink:href="#DejaVuSans-20" transform="translate(161.710938 0)"/>
      <use xlink:href="#DejaVuSans-53" transform="translate(193.498047 0)"/>
      <use xlink:href="#DejaVuSans-70" transform="translate(256.974609 0)"/>
      <use xlink:href="#DejaVuSans-65" transform="translate(320.451172 0)"/>
      <use xlink:href="#DejaVuSans-65" transform="translate(381.974609 0)"/>
      <use xlink:href="#DejaVuSans-64" transform="translate(443.498047 0)"/>
      <use xlink:href="#DejaVuSans-20" transform="translate(506.974609 0)"/>
      <use xlink:href="#DejaVuSans-3d" transform="translate(538.761719 0)"/>
      <use xlink:href="#DejaVuSans-20" transform="translate(622.550781 0)"/>
      <use xlink:href="#DejaVuSans-35" transform="translate(654.337891 0)"/>
      <use xlink:href="#DejaVuSans-39" transform="translate(717.960938 0)"/>
      <use xlink:href="#DejaVuSans-35" transform="translate(781.583984 0)"/>
     </g>
    </g>
    <g id="line2d_26">
     <path d="M 319.829385 197.149688 
L 329.829385 197.149688 
L 339.829385 197.149688 
" style="fill: none; stroke: #ff7f0e; stroke-width: 1.5; stroke-linecap: square"/>
    </g>
    <g id="text_21">
     <!-- Ref Speed = 510 -->
     <g transform="translate(347.829385 200.649688) scale(0.1 -0.1)">
      <use xlink:href="#DejaVuSans-52"/>
      <use xlink:href="#DejaVuSans-65" transform="translate(64.982422 0)"/>
      <use xlink:href="#DejaVuSans-66" transform="translate(126.505859 0)"/>
      <use xlink:href="#DejaVuSans-20" transform="translate(161.710938 0)"/>
      <use xlink:href="#DejaVuSans-53" transform="translate(193.498047 0)"/>
      <use xlink:href="#DejaVuSans-70" transform="translate(256.974609 0)"/>
      <use xlink:href="#DejaVuSans-65" transform="translate(320.451172 0)"/>
      <use xlink:href="#DejaVuSans-65" transform="translate(381.974609 0)"/>
      <use xlink:href="#DejaVuSans-64" transform="translate(443.498047 0)"/>
      <use xlink:href="#DejaVuSans-20" transform="translate(506.974609 0)"/>
      <use xlink:href="#DejaVuSans-3d" transform="translate(538.761719 0)"/>
      <use xlink:href="#DejaVuSans-20" transform="translate(622.550781 0)"/>
      <use xlink:href="#DejaVuSans-35" transform="translate(654.337891 0)"/>
      <use xlink:href="#DejaVuSans-31" transform="translate(717.960938 0)"/>
      <use xlink:href="#DejaVuSans-30" transform="translate(781.583984 0)"/>
     </g>
    </g>
    <g id="line2d_27">
     <path d="M 319.829385 211.827813 
L 329.829385 211.827813 
L 339.829385 211.827813 
" style="fill: none; stroke: #2ca02c; stroke-width: 1.5; stroke-linecap: square"/>
    </g>
    <g id="text_22">
     <!-- Ref Speed = 425 -->
     <g transform="translate(347.829385 215.327813) scale(0.1 -0.1)">
      <defs>
       <path id="DejaVuSans-34" d="M 2419 4116 
L 825 1625 
L 2419 1625 
L 2419 4116 
z
M 2253 4666 
L 3047 4666 
L 3047 1625 
L 3713 1625 
L 3713 1100 
L 3047 1100 
L 3047 0 
L 2419 0 
L 2419 1100 
L 313 1100 
L 313 1709 
L 2253 4666 
z
" transform="scale(0.015625)"/>
      </defs>
      <use xlink:href="#DejaVuSans-52"/>
      <use xlink:href="#DejaVuSans-65" transform="translate(64.982422 0)"/>
      <use xlink:href="#DejaVuSans-66" transform="translate(126.505859 0)"/>
      <use xlink:href="#DejaVuSans-20" transform="translate(161.710938 0)"/>
      <use xlink:href="#DejaVuSans-53" transform="translate(193.498047 0)"/>
      <use xlink:href="#DejaVuSans-70" transform="translate(256.974609 0)"/>
      <use xlink:href="#DejaVuSans-65" transform="translate(320.451172 0)"/>
      <use xlink:href="#DejaVuSans-65" transform="translate(381.974609 0)"/>
      <use xlink:href="#DejaVuSans-64" transform="translate(443.498047 0)"/>
      <use xlink:href="#DejaVuSans-20" transform="translate(506.974609 0)"/>
      <use xlink:href="#DejaVuSans-3d" transform="translate(538.761719 0)"/>
      <use xlink:href="#DejaVuSans-20" transform="translate(622.550781 0)"/>
      <use xlink:href="#DejaVuSans-34" transform="translate(654.337891 0)"/>
      <use xlink:href="#DejaVuSans-32" transform="translate(717.960938 0)"/>
      <use xlink:href="#DejaVuSans-35" transform="translate(781.583984 0)"/>
     </g>
    </g>
    <g id="line2d_28">
     <path d="M 319.829385 226.505938 
L 329.829385 226.505938 
L 339.829385 226.505938 
" style="fill: none; stroke: #d62728; stroke-width: 1.5; stroke-linecap: square"/>
    </g>
    <g id="text_23">
     <!-- Ref Speed = 340 -->
     <g transform="translate(347.829385 230.005938) scale(0.1 -0.1)">
      <use xlink:href="#DejaVuSans-52"/>
      <use xlink:href="#DejaVuSans-65" transform="translate(64.982422 0)"/>
      <use xlink:href="#DejaVuSans-66" transform="translate(126.505859 0)"/>
      <use xlink:href="#DejaVuSans-20" transform="translate(161.710938 0)"/>
      <use xlink:href="#DejaVuSans-53" transform="translate(193.498047 0)"/>
      <use xlink:href="#DejaVuSans-70" transform="translate(256.974609 0)"/>
      <use xlink:href="#DejaVuSans-65" transform="translate(320.451172 0)"/>
      <use xlink:href="#DejaVuSans-65" transform="translate(381.974609 0)"/>
      <use xlink:href="#DejaVuSans-64" transform="translate(443.498047 0)"/>
      <use xlink:href="#DejaVuSans-20" transform="translate(506.974609 0)"/>
      <use xlink:href="#DejaVuSans-3d" transform="translate(538.761719 0)"/>
      <use xlink:href="#DejaVuSans-20" transform="translate(622.550781 0)"/>
      <use xlink:href="#DejaVuSans-33" transform="translate(654.337891 0)"/>
      <use xlink:href="#DejaVuSans-34" transform="translate(717.960938 0)"/>
      <use xlink:href="#DejaVuSans-30" transform="translate(781.583984 0)"/>
     </g>
    </g>
    <g id="line2d_29">
     <path d="M 319.829385 241.184063 
L 329.829385 241.184063 
L 339.829385 241.184063 
" style="fill: none; stroke: #9467bd; stroke-width: 1.5; stroke-linecap: square"/>
    </g>
    <g id="text_24">
     <!-- Ref Speed = 255 -->
     <g transform="translate(347.829385 244.684063) scale(0.1 -0.1)">
      <use xlink:href="#DejaVuSans-52"/>
      <use xlink:href="#DejaVuSans-65" transform="translate(64.982422 0)"/>
      <use xlink:href="#DejaVuSans-66" transform="translate(126.505859 0)"/>
      <use xlink:href="#DejaVuSans-20" transform="translate(161.710938 0)"/>
      <use xlink:href="#DejaVuSans-53" transform="translate(193.498047 0)"/>
      <use xlink:href="#DejaVuSans-70" transform="translate(256.974609 0)"/>
      <use xlink:href="#DejaVuSans-65" transform="translate(320.451172 0)"/>
      <use xlink:href="#DejaVuSans-65" transform="translate(381.974609 0)"/>
      <use xlink:href="#DejaVuSans-64" transform="translate(443.498047 0)"/>
      <use xlink:href="#DejaVuSans-20" transform="translate(506.974609 0)"/>
      <use xlink:href="#DejaVuSans-3d" transform="translate(538.761719 0)"/>
      <use xlink:href="#DejaVuSans-20" transform="translate(622.550781 0)"/>
      <use xlink:href="#DejaVuSans-32" transform="translate(654.337891 0)"/>
      <use xlink:href="#DejaVuSans-35" transform="translate(717.960938 0)"/>
      <use xlink:href="#DejaVuSans-35" transform="translate(781.583984 0)"/>
     </g>
    </g>
    <g id="line2d_30">
     <path d="M 319.829385 255.862188 
L 329.829385 255.862188 
L 339.829385 255.862188 
" style="fill: none; stroke: #8c564b; stroke-width: 1.5; stroke-linecap: square"/>
    </g>
    <g id="text_25">
     <!-- Ref Speed = 170 -->
     <g transform="translate(347.829385 259.362188) scale(0.1 -0.1)">
      <defs>
       <path id="DejaVuSans-37" d="M 525 4666 
L 3525 4666 
L 3525 4397 
L 1831 0 
L 1172 0 
L 2766 4134 
L 525 4134 
L 525 4666 
z
" transform="scale(0.015625)"/>
      </defs>
      <use xlink:href="#DejaVuSans-52"/>
      <use xlink:href="#DejaVuSans-65" transform="translate(64.982422 0)"/>
      <use xlink:href="#DejaVuSans-66" transform="translate(126.505859 0)"/>
      <use xlink:href="#DejaVuSans-20" transform="translate(161.710938 0)"/>
      <use xlink:href="#DejaVuSans-53" transform="translate(193.498047 0)"/>
      <use xlink:href="#DejaVuSans-70" transform="translate(256.974609 0)"/>
      <use xlink:href="#DejaVuSans-65" transform="translate(320.451172 0)"/>
      <use xlink:href="#DejaVuSans-65" transform="translate(381.974609 0)"/>
      <use xlink:href="#DejaVuSans-64" transform="translate(443.498047 0)"/>
      <use xlink:href="#DejaVuSans-20" transform="translate(506.974609 0)"/>
      <use xlink:href="#DejaVuSans-3d" transform="translate(538.761719 0)"/>
      <use xlink:href="#DejaVuSans-20" transform="translate(622.550781 0)"/>
      <use xlink:href="#DejaVuSans-31" transform="translate(654.337891 0)"/>
      <use xlink:href="#DejaVuSans-37" transform="translate(717.960938 0)"/>
      <use xlink:href="#DejaVuSans-30" transform="translate(781.583984 0)"/>
     </g>
    </g>
    <g id="line2d_31">
     <path d="M 319.829385 270.540313 
L 329.829385 270.540313 
L 339.829385 270.540313 
" style="fill: none; stroke: #e377c2; stroke-width: 1.5; stroke-linecap: square"/>
    </g>
    <g id="text_26">
     <!-- Ref Speed = 85 -->
     <g transform="translate(347.829385 274.040313) scale(0.1 -0.1)">
      <defs>
       <path id="DejaVuSans-38" d="M 2034 2216 
Q 1584 2216 1326 1975 
Q 1069 1734 1069 1313 
Q 1069 891 1326 650 
Q 1584 409 2034 409 
Q 2484 409 2743 651 
Q 3003 894 3003 1313 
Q 3003 1734 2745 1975 
Q 2488 2216 2034 2216 
z
M 1403 2484 
Q 997 2584 770 2862 
Q 544 3141 544 3541 
Q 544 4100 942 4425 
Q 1341 4750 2034 4750 
Q 2731 4750 3128 4425 
Q 3525 4100 3525 3541 
Q 3525 3141 3298 2862 
Q 3072 2584 2669 2484 
Q 3125 2378 3379 2068 
Q 3634 1759 3634 1313 
Q 3634 634 3220 271 
Q 2806 -91 2034 -91 
Q 1263 -91 848 271 
Q 434 634 434 1313 
Q 434 1759 690 2068 
Q 947 2378 1403 2484 
z
M 1172 3481 
Q 1172 3119 1398 2916 
Q 1625 2713 2034 2713 
Q 2441 2713 2670 2916 
Q 2900 3119 2900 3481 
Q 2900 3844 2670 4047 
Q 2441 4250 2034 4250 
Q 1625 4250 1398 4047 
Q 1172 3844 1172 3481 
z
" transform="scale(0.015625)"/>
      </defs>
      <use xlink:href="#DejaVuSans-52"/>
      <use xlink:href="#DejaVuSans-65" transform="translate(64.982422 0)"/>
      <use xlink:href="#DejaVuSans-66" transform="translate(126.505859 0)"/>
      <use xlink:href="#DejaVuSans-20" transform="translate(161.710938 0)"/>
      <use xlink:href="#DejaVuSans-53" transform="translate(193.498047 0)"/>
      <use xlink:href="#DejaVuSans-70" transform="translate(256.974609 0)"/>
      <use xlink:href="#DejaVuSans-65" transform="translate(320.451172 0)"/>
      <use xlink:href="#DejaVuSans-65" transform="translate(381.974609 0)"/>
      <use xlink:href="#DejaVuSans-64" transform="translate(443.498047 0)"/>
      <use xlink:href="#DejaVuSans-20" transform="translate(506.974609 0)"/>
      <use xlink:href="#DejaVuSans-3d" transform="translate(538.761719 0)"/>
      <use xlink:href="#DejaVuSans-20" transform="translate(622.550781 0)"/>
      <use xlink:href="#DejaVuSans-38" transform="translate(654.337891 0)"/>
      <use xlink:href="#DejaVuSans-35" transform="translate(717.960938 0)"/>
     </g>
    </g>
    <g id="line2d_32">
     <path d="M 319.829385 285.218438 
L 329.829385 285.218438 
L 339.829385 285.218438 
" style="fill: none; stroke: #7f7f7f; stroke-width: 1.5; stroke-linecap: square"/>
    </g>
    <g id="text_27">
     <!-- y = x -->
     <g transform="translate(347.829385 288.718438) scale(0.1 -0.1)">
      <defs>
       <path id="DejaVuSans-79" d="M 2059 -325 
Q 1816 -950 1584 -1140 
Q 1353 -1331 966 -1331 
L 506 -1331 
L 506 -850 
L 844 -850 
Q 1081 -850 1212 -737 
Q 1344 -625 1503 -206 
L 1606 56 
L 191 3500 
L 800 3500 
L 1894 763 
L 2988 3500 
L 3597 3500 
L 2059 -325 
z
" transform="scale(0.015625)"/>
       <path id="DejaVuSans-78" d="M 3513 3500 
L 2247 1797 
L 3578 0 
L 2900 0 
L 1881 1375 
L 863 0 
L 184 0 
L 1544 1831 
L 300 3500 
L 978 3500 
L 1906 2253 
L 2834 3500 
L 3513 3500 
z
" transform="scale(0.015625)"/>
      </defs>
      <use xlink:href="#DejaVuSans-79"/>
      <use xlink:href="#DejaVuSans-20" transform="translate(59.179688 0)"/>
      <use xlink:href="#DejaVuSans-3d" transform="translate(90.966797 0)"/>
      <use xlink:href="#DejaVuSans-20" transform="translate(174.755859 0)"/>
      <use xlink:href="#DejaVuSans-78" transform="translate(206.542969 0)"/>
     </g>
    </g>
   </g>
  </g>
 </g>
 <defs>
  <clipPath id="p4cf6ac0e53">
   <rect x="40.603125" y="22.318125" width="400.75126" height="277.48"/>
  </clipPath>
 </defs>
</svg>
