<?xml version="1.0" encoding="utf-8" standalone="no"?>
<!DOCTYPE svg PUBLIC "-//W3C//DTD SVG 1.1//EN"
  "http://www.w3.org/Graphics/SVG/1.1/DTD/svg11.dtd">
<svg xmlns:xlink="http://www.w3.org/1999/xlink" width="453.160625pt" height="337.354375pt" viewBox="0 0 453.160625 337.354375" xmlns="http://www.w3.org/2000/svg" version="1.1">
 <metadata>
  <rdf:RDF xmlns:dc="http://purl.org/dc/elements/1.1/" xmlns:cc="http://creativecommons.org/ns#" xmlns:rdf="http://www.w3.org/1999/02/22-rdf-syntax-ns#">
   <cc:Work>
    <dc:type rdf:resource="http://purl.org/dc/dcmitype/StillImage"/>
    <dc:date>2025-10-28T18:39:43.599740</dc:date>
    <dc:format>image/svg+xml</dc:format>
    <dc:creator>
     <cc:Agent>
      <dc:title>Matplotlib v3.10.6, https://matplotlib.org/</dc:title>
     </cc:Agent>
    </dc:creator>
   </cc:Work>
  </rdf:RDF>
 </metadata>
 <defs>
  <style type="text/css">*{stroke-linejoin: round; stroke-linecap: butt}</style>
 </defs>
 <g id="figure_1">
  <g id="patch_1">
   <path d="M 0 337.354375 
L 453.160625 337.354375 
L 453.160625 0 
L 0 0 
z
" style="fill: #ffffff"/>
  </g>
  <g id="axes_1">
   <g id="patch_2">
    <path d="M 46.965625 299.798125 
L 445.960625 299.798125 
L 445.960625 22.318125 
L 46.965625 22.318125 
z
" style="fill: #ffffff"/>
   </g>
   <g id="matplotlib.axis_1">
    <g id="xtick_1">
     <g id="line2d_1">
      <defs>
       <path id="mc2b5224df6" d="M 0 0 
L 0 3.5 
" style="stroke: #000000; stroke-width: 0.8"/>
      </defs>
      <g>
       <use xlink:href="#mc2b5224df6" x="64.91238" y="299.798125" style="stroke: #000000; stroke-width: 0.8"/>
      </g>
     </g>
     <g id="text_1">
      <!-- 0.00 -->
      <g transform="translate(53.779568 314.396563) scale(0.1 -0.1)">
       <defs>
        <path id="DejaVuSans-30" d="M 2034 4250 
Q 1547 4250 1301 3770 
Q 1056 3291 1056 2328 
Q 1056 1369 1301 889 
Q 1547 409 2034 409 
Q 2525 409 2770 889 
Q 3016 1369 3016 2328 
Q 3016 3291 2770 3770 
Q 2525 4250 2034 4250 
z
M 2034 4750 
Q 2819 4750 3233 4129 
Q 3647 3509 3647 2328 
Q 3647 1150 3233 529 
Q 2819 -91 2034 -91 
Q 1250 -91 836 529 
Q 422 1150 422 2328 
Q 422 3509 836 4129 
Q 1250 4750 2034 4750 
z
" transform="scale(0.015625)"/>
        <path id="DejaVuSans-2e" d="M 684 794 
L 1344 794 
L 1344 0 
L 684 0 
L 684 794 
z
" transform="scale(0.015625)"/>
       </defs>
       <use xlink:href="#DejaVuSans-30"/>
       <use xlink:href="#DejaVuSans-2e" transform="translate(63.623047 0)"/>
       <use xlink:href="#DejaVuSans-30" transform="translate(95.410156 0)"/>
       <use xlink:href="#DejaVuSans-30" transform="translate(159.033203 0)"/>
      </g>
     </g>
    </g>
    <g id="xtick_2">
     <g id="line2d_2">
      <g>
       <use xlink:href="#mc2b5224df6" x="110.305718" y="299.798125" style="stroke: #000000; stroke-width: 0.8"/>
      </g>
     </g>
     <g id="text_2">
      <!-- 0.25 -->
      <g transform="translate(99.172905 314.396563) scale(0.1 -0.1)">
       <defs>
        <path id="DejaVuSans-32" d="M 1228 531 
L 3431 531 
L 3431 0 
L 469 0 
L 469 531 
Q 828 903 1448 1529 
Q 2069 2156 2228 2338 
Q 2531 2678 2651 2914 
Q 2772 3150 2772 3378 
Q 2772 3750 2511 3984 
Q 2250 4219 1831 4219 
Q 1534 4219 1204 4116 
Q 875 4013 500 3803 
L 500 4441 
Q 881 4594 1212 4672 
Q 1544 4750 1819 4750 
Q 2544 4750 2975 4387 
Q 3406 4025 3406 3419 
Q 3406 3131 3298 2873 
Q 3191 2616 2906 2266 
Q 2828 2175 2409 1742 
Q 1991 1309 1228 531 
z
" transform="scale(0.015625)"/>
        <path id="DejaVuSans-35" d="M 691 4666 
L 3169 4666 
L 3169 4134 
L 1269 4134 
L 1269 2991 
Q 1406 3038 1543 3061 
Q 1681 3084 1819 3084 
Q 2600 3084 3056 2656 
Q 3513 2228 3513 1497 
Q 3513 744 3044 326 
Q 2575 -91 1722 -91 
Q 1428 -91 1123 -41 
Q 819 9 494 109 
L 494 744 
Q 775 591 1075 516 
Q 1375 441 1709 441 
Q 2250 441 2565 725 
Q 2881 1009 2881 1497 
Q 2881 1984 2565 2268 
Q 2250 2553 1709 2553 
Q 1456 2553 1204 2497 
Q 953 2441 691 2322 
L 691 4666 
z
" transform="scale(0.015625)"/>
       </defs>
       <use xlink:href="#DejaVuSans-30"/>
       <use xlink:href="#DejaVuSans-2e" transform="translate(63.623047 0)"/>
       <use xlink:href="#DejaVuSans-32" transform="translate(95.410156 0)"/>
       <use xlink:href="#DejaVuSans-35" transform="translate(159.033203 0)"/>
      </g>
     </g>
    </g>
    <g id="xtick_3">
     <g id="line2d_3">
      <g>
       <use xlink:href="#mc2b5224df6" x="155.699056" y="299.798125" style="stroke: #000000; stroke-width: 0.8"/>
      </g>
     </g>
     <g id="text_3">
      <!-- 0.50 -->
      <g transform="translate(144.566243 314.396563) scale(0.1 -0.1)">
       <use xlink:href="#DejaVuSans-30"/>
       <use xlink:href="#DejaVuSans-2e" transform="translate(63.623047 0)"/>
       <use xlink:href="#DejaVuSans-35" transform="translate(95.410156 0)"/>
       <use xlink:href="#DejaVuSans-30" transform="translate(159.033203 0)"/>
      </g>
     </g>
    </g>
    <g id="xtick_4">
     <g id="line2d_4">
      <g>
       <use xlink:href="#mc2b5224df6" x="201.092393" y="299.798125" style="stroke: #000000; stroke-width: 0.8"/>
      </g>
     </g>
     <g id="text_4">
      <!-- 0.75 -->
      <g transform="translate(189.959581 314.396563) scale(0.1 -0.1)">
       <defs>
        <path id="DejaVuSans-37" d="M 525 4666 
L 3525 4666 
L 3525 4397 
L 1831 0 
L 1172 0 
L 2766 4134 
L 525 4134 
L 525 4666 
z
" transform="scale(0.015625)"/>
       </defs>
       <use xlink:href="#DejaVuSans-30"/>
       <use xlink:href="#DejaVuSans-2e" transform="translate(63.623047 0)"/>
       <use xlink:href="#DejaVuSans-37" transform="translate(95.410156 0)"/>
       <use xlink:href="#DejaVuSans-35" transform="translate(159.033203 0)"/>
      </g>
     </g>
    </g>
    <g id="xtick_5">
     <g id="line2d_5">
      <g>
       <use xlink:href="#mc2b5224df6" x="246.485731" y="299.798125" style="stroke: #000000; stroke-width: 0.8"/>
      </g>
     </g>
     <g id="text_5">
      <!-- 1.00 -->
      <g transform="translate(235.352918 314.396563) scale(0.1 -0.1)">
       <defs>
        <path id="DejaVuSans-31" d="M 794 531 
L 1825 531 
L 1825 4091 
L 703 3866 
L 703 4441 
L 1819 4666 
L 2450 4666 
L 2450 531 
L 3481 531 
L 3481 0 
L 794 0 
L 794 531 
z
" transform="scale(0.015625)"/>
       </defs>
       <use xlink:href="#DejaVuSans-31"/>
       <use xlink:href="#DejaVuSans-2e" transform="translate(63.623047 0)"/>
       <use xlink:href="#DejaVuSans-30" transform="translate(95.410156 0)"/>
       <use xlink:href="#DejaVuSans-30" transform="translate(159.033203 0)"/>
      </g>
     </g>
    </g>
    <g id="xtick_6">
     <g id="line2d_6">
      <g>
       <use xlink:href="#mc2b5224df6" x="291.879069" y="299.798125" style="stroke: #000000; stroke-width: 0.8"/>
      </g>
     </g>
     <g id="text_6">
      <!-- 1.25 -->
      <g transform="translate(280.746256 314.396563) scale(0.1 -0.1)">
       <use xlink:href="#DejaVuSans-31"/>
       <use xlink:href="#DejaVuSans-2e" transform="translate(63.623047 0)"/>
       <use xlink:href="#DejaVuSans-32" transform="translate(95.410156 0)"/>
       <use xlink:href="#DejaVuSans-35" transform="translate(159.033203 0)"/>
      </g>
     </g>
    </g>
    <g id="xtick_7">
     <g id="line2d_7">
      <g>
       <use xlink:href="#mc2b5224df6" x="337.272406" y="299.798125" style="stroke: #000000; stroke-width: 0.8"/>
      </g>
     </g>
     <g id="text_7">
      <!-- 1.50 -->
      <g transform="translate(326.139594 314.396563) scale(0.1 -0.1)">
       <use xlink:href="#DejaVuSans-31"/>
       <use xlink:href="#DejaVuSans-2e" transform="translate(63.623047 0)"/>
       <use xlink:href="#DejaVuSans-35" transform="translate(95.410156 0)"/>
       <use xlink:href="#DejaVuSans-30" transform="translate(159.033203 0)"/>
      </g>
     </g>
    </g>
    <g id="xtick_8">
     <g id="line2d_8">
      <g>
       <use xlink:href="#mc2b5224df6" x="382.665744" y="299.798125" style="stroke: #000000; stroke-width: 0.8"/>
      </g>
     </g>
     <g id="text_8">
      <!-- 1.75 -->
      <g transform="translate(371.532931 314.396563) scale(0.1 -0.1)">
       <use xlink:href="#DejaVuSans-31"/>
       <use xlink:href="#DejaVuSans-2e" transform="translate(63.623047 0)"/>
       <use xlink:href="#DejaVuSans-37" transform="translate(95.410156 0)"/>
       <use xlink:href="#DejaVuSans-35" transform="translate(159.033203 0)"/>
      </g>
     </g>
    </g>
    <g id="xtick_9">
     <g id="line2d_9">
      <g>
       <use xlink:href="#mc2b5224df6" x="428.059081" y="299.798125" style="stroke: #000000; stroke-width: 0.8"/>
      </g>
     </g>
     <g id="text_9">
      <!-- 2.00 -->
      <g transform="translate(416.926269 314.396563) scale(0.1 -0.1)">
       <use xlink:href="#DejaVuSans-32"/>
       <use xlink:href="#DejaVuSans-2e" transform="translate(63.623047 0)"/>
       <use xlink:href="#DejaVuSans-30" transform="translate(95.410156 0)"/>
       <use xlink:href="#DejaVuSans-30" transform="translate(159.033203 0)"/>
      </g>
     </g>
    </g>
    <g id="text_10">
     <!-- time, t (us) -->
     <g transform="translate(218.764688 328.074688) scale(0.1 -0.1)">
      <defs>
       <path id="DejaVuSans-74" d="M 1172 4494 
L 1172 3500 
L 2356 3500 
L 2356 3053 
L 1172 3053 
L 1172 1153 
Q 1172 725 1289 603 
Q 1406 481 1766 481 
L 2356 481 
L 2356 0 
L 1766 0 
Q 1100 0 847 248 
Q 594 497 594 1153 
L 594 3053 
L 172 3053 
L 172 3500 
L 594 3500 
L 594 4494 
L 1172 4494 
z
" transform="scale(0.015625)"/>
       <path id="DejaVuSans-69" d="M 603 3500 
L 1178 3500 
L 1178 0 
L 603 0 
L 603 3500 
z
M 603 4863 
L 1178 4863 
L 1178 4134 
L 603 4134 
L 603 4863 
z
" transform="scale(0.015625)"/>
       <path id="DejaVuSans-6d" d="M 3328 2828 
Q 3544 3216 3844 3400 
Q 4144 3584 4550 3584 
Q 5097 3584 5394 3201 
Q 5691 2819 5691 2113 
L 5691 0 
L 5113 0 
L 5113 2094 
Q 5113 2597 4934 2840 
Q 4756 3084 4391 3084 
Q 3944 3084 3684 2787 
Q 3425 2491 3425 1978 
L 3425 0 
L 2847 0 
L 2847 2094 
Q 2847 2600 2669 2842 
Q 2491 3084 2119 3084 
Q 1678 3084 1418 2786 
Q 1159 2488 1159 1978 
L 1159 0 
L 581 0 
L 581 3500 
L 1159 3500 
L 1159 2956 
Q 1356 3278 1631 3431 
Q 1906 3584 2284 3584 
Q 2666 3584 2933 3390 
Q 3200 3197 3328 2828 
z
" transform="scale(0.015625)"/>
       <path id="DejaVuSans-65" d="M 3597 1894 
L 3597 1613 
L 953 1613 
Q 991 1019 1311 708 
Q 1631 397 2203 397 
Q 2534 397 2845 478 
Q 3156 559 3463 722 
L 3463 178 
Q 3153 47 2828 -22 
Q 2503 -91 2169 -91 
Q 1331 -91 842 396 
Q 353 884 353 1716 
Q 353 2575 817 3079 
Q 1281 3584 2069 3584 
Q 2775 3584 3186 3129 
Q 3597 2675 3597 1894 
z
M 3022 2063 
Q 3016 2534 2758 2815 
Q 2500 3097 2075 3097 
Q 1594 3097 1305 2825 
Q 1016 2553 972 2059 
L 3022 2063 
z
" transform="scale(0.015625)"/>
       <path id="DejaVuSans-2c" d="M 750 794 
L 1409 794 
L 1409 256 
L 897 -744 
L 494 -744 
L 750 256 
L 750 794 
z
" transform="scale(0.015625)"/>
       <path id="DejaVuSans-20" transform="scale(0.015625)"/>
       <path id="DejaVuSans-28" d="M 1984 4856 
Q 1566 4138 1362 3434 
Q 1159 2731 1159 2009 
Q 1159 1288 1364 580 
Q 1569 -128 1984 -844 
L 1484 -844 
Q 1016 -109 783 600 
Q 550 1309 550 2009 
Q 550 2706 781 3412 
Q 1013 4119 1484 4856 
L 1984 4856 
z
" transform="scale(0.015625)"/>
       <path id="DejaVuSans-75" d="M 544 1381 
L 544 3500 
L 1119 3500 
L 1119 1403 
Q 1119 906 1312 657 
Q 1506 409 1894 409 
Q 2359 409 2629 706 
Q 2900 1003 2900 1516 
L 2900 3500 
L 3475 3500 
L 3475 0 
L 2900 0 
L 2900 538 
Q 2691 219 2414 64 
Q 2138 -91 1772 -91 
Q 1169 -91 856 284 
Q 544 659 544 1381 
z
M 1991 3584 
L 1991 3584 
z
" transform="scale(0.015625)"/>
       <path id="DejaVuSans-73" d="M 2834 3397 
L 2834 2853 
Q 2591 2978 2328 3040 
Q 2066 3103 1784 3103 
Q 1356 3103 1142 2972 
Q 928 2841 928 2578 
Q 928 2378 1081 2264 
Q 1234 2150 1697 2047 
L 1894 2003 
Q 2506 1872 2764 1633 
Q 3022 1394 3022 966 
Q 3022 478 2636 193 
Q 2250 -91 1575 -91 
Q 1294 -91 989 -36 
Q 684 19 347 128 
L 347 722 
Q 666 556 975 473 
Q 1284 391 1588 391 
Q 1994 391 2212 530 
Q 2431 669 2431 922 
Q 2431 1156 2273 1281 
Q 2116 1406 1581 1522 
L 1381 1569 
Q 847 1681 609 1914 
Q 372 2147 372 2553 
Q 372 3047 722 3315 
Q 1072 3584 1716 3584 
Q 2034 3584 2315 3537 
Q 2597 3491 2834 3397 
z
" transform="scale(0.015625)"/>
       <path id="DejaVuSans-29" d="M 513 4856 
L 1013 4856 
Q 1481 4119 1714 3412 
Q 1947 2706 1947 2009 
Q 1947 1309 1714 600 
Q 1481 -109 1013 -844 
L 513 -844 
Q 928 -128 1133 580 
Q 1338 1288 1338 2009 
Q 1338 2731 1133 3434 
Q 928 4138 513 4856 
z
" transform="scale(0.015625)"/>
      </defs>
      <use xlink:href="#DejaVuSans-74"/>
      <use xlink:href="#DejaVuSans-69" transform="translate(39.208984 0)"/>
      <use xlink:href="#DejaVuSans-6d" transform="translate(66.992188 0)"/>
      <use xlink:href="#DejaVuSans-65" transform="translate(164.404297 0)"/>
      <use xlink:href="#DejaVuSans-2c" transform="translate(225.927734 0)"/>
      <use xlink:href="#DejaVuSans-20" transform="translate(257.714844 0)"/>
      <use xlink:href="#DejaVuSans-74" transform="translate(289.501953 0)"/>
      <use xlink:href="#DejaVuSans-20" transform="translate(328.710938 0)"/>
      <use xlink:href="#DejaVuSans-28" transform="translate(360.498047 0)"/>
      <use xlink:href="#DejaVuSans-75" transform="translate(399.511719 0)"/>
      <use xlink:href="#DejaVuSans-73" transform="translate(462.890625 0)"/>
      <use xlink:href="#DejaVuSans-29" transform="translate(514.990234 0)"/>
     </g>
    </g>
    <g id="text_11">
     <!-- 1e6 -->
     <g transform="translate(427.0825 327.074688) scale(0.1 -0.1)">
      <defs>
       <path id="DejaVuSans-36" d="M 2113 2584 
Q 1688 2584 1439 2293 
Q 1191 2003 1191 1497 
Q 1191 994 1439 701 
Q 1688 409 2113 409 
Q 2538 409 2786 701 
Q 3034 994 3034 1497 
Q 3034 2003 2786 2293 
Q 2538 2584 2113 2584 
z
M 3366 4563 
L 3366 3988 
Q 3128 4100 2886 4159 
Q 2644 4219 2406 4219 
Q 1781 4219 1451 3797 
Q 1122 3375 1075 2522 
Q 1259 2794 1537 2939 
Q 1816 3084 2150 3084 
Q 2853 3084 3261 2657 
Q 3669 2231 3669 1497 
Q 3669 778 3244 343 
Q 2819 -91 2113 -91 
Q 1303 -91 875 529 
Q 447 1150 447 2328 
Q 447 3434 972 4092 
Q 1497 4750 2381 4750 
Q 2619 4750 2861 4703 
Q 3103 4656 3366 4563 
z
" transform="scale(0.015625)"/>
      </defs>
      <use xlink:href="#DejaVuSans-31"/>
      <use xlink:href="#DejaVuSans-65" transform="translate(63.623047 0)"/>
      <use xlink:href="#DejaVuSans-36" transform="translate(125.146484 0)"/>
     </g>
    </g>
   </g>
   <g id="matplotlib.axis_2">
    <g id="ytick_1">
     <g id="line2d_10">
      <defs>
       <path id="m6ec89b7f48" d="M 0 0 
L -3.5 0 
" style="stroke: #000000; stroke-width: 0.8"/>
      </defs>
      <g>
       <use xlink:href="#m6ec89b7f48" x="46.965625" y="287.185398" style="stroke: #000000; stroke-width: 0.8"/>
      </g>
     </g>
     <g id="text_12">
      <!-- 0 -->
      <g transform="translate(33.603125 290.984616) scale(0.1 -0.1)">
       <use xlink:href="#DejaVuSans-30"/>
      </g>
     </g>
    </g>
    <g id="ytick_2">
     <g id="line2d_11">
      <g>
       <use xlink:href="#m6ec89b7f48" x="46.965625" y="227.691401" style="stroke: #000000; stroke-width: 0.8"/>
      </g>
     </g>
     <g id="text_13">
      <!-- 200 -->
      <g transform="translate(20.878125 231.49062) scale(0.1 -0.1)">
       <use xlink:href="#DejaVuSans-32"/>
       <use xlink:href="#DejaVuSans-30" transform="translate(63.623047 0)"/>
       <use xlink:href="#DejaVuSans-30" transform="translate(127.246094 0)"/>
      </g>
     </g>
    </g>
    <g id="ytick_3">
     <g id="line2d_12">
      <g>
       <use xlink:href="#m6ec89b7f48" x="46.965625" y="168.197405" style="stroke: #000000; stroke-width: 0.8"/>
      </g>
     </g>
     <g id="text_14">
      <!-- 400 -->
      <g transform="translate(20.878125 171.996623) scale(0.1 -0.1)">
       <defs>
        <path id="DejaVuSans-34" d="M 2419 4116 
L 825 1625 
L 2419 1625 
L 2419 4116 
z
M 2253 4666 
L 3047 4666 
L 3047 1625 
L 3713 1625 
L 3713 1100 
L 3047 1100 
L 3047 0 
L 2419 0 
L 2419 1100 
L 313 1100 
L 313 1709 
L 2253 4666 
z
" transform="scale(0.015625)"/>
       </defs>
       <use xlink:href="#DejaVuSans-34"/>
       <use xlink:href="#DejaVuSans-30" transform="translate(63.623047 0)"/>
       <use xlink:href="#DejaVuSans-30" transform="translate(127.246094 0)"/>
      </g>
     </g>
    </g>
    <g id="ytick_4">
     <g id="line2d_13">
      <g>
       <use xlink:href="#m6ec89b7f48" x="46.965625" y="108.703408" style="stroke: #000000; stroke-width: 0.8"/>
      </g>
     </g>
     <g id="text_15">
      <!-- 600 -->
      <g transform="translate(20.878125 112.502627) scale(0.1 -0.1)">
       <use xlink:href="#DejaVuSans-36"/>
       <use xlink:href="#DejaVuSans-30" transform="translate(63.623047 0)"/>
       <use xlink:href="#DejaVuSans-30" transform="translate(127.246094 0)"/>
      </g>
     </g>
    </g>
    <g id="ytick_5">
     <g id="line2d_14">
      <g>
       <use xlink:href="#m6ec89b7f48" x="46.965625" y="49.209411" style="stroke: #000000; stroke-width: 0.8"/>
      </g>
     </g>
     <g id="text_16">
      <!-- 800 -->
      <g transform="translate(20.878125 53.00863) scale(0.1 -0.1)">
       <defs>
        <path id="DejaVuSans-38" d="M 2034 2216 
Q 1584 2216 1326 1975 
Q 1069 1734 1069 1313 
Q 1069 891 1326 650 
Q 1584 409 2034 409 
Q 2484 409 2743 651 
Q 3003 894 3003 1313 
Q 3003 1734 2745 1975 
Q 2488 2216 2034 2216 
z
M 1403 2484 
Q 997 2584 770 2862 
Q 544 3141 544 3541 
Q 544 4100 942 4425 
Q 1341 4750 2034 4750 
Q 2731 4750 3128 4425 
Q 3525 4100 3525 3541 
Q 3525 3141 3298 2862 
Q 3072 2584 2669 2484 
Q 3125 2378 3379 2068 
Q 3634 1759 3634 1313 
Q 3634 634 3220 271 
Q 2806 -91 2034 -91 
Q 1263 -91 848 271 
Q 434 634 434 1313 
Q 434 1759 690 2068 
Q 947 2378 1403 2484 
z
M 1172 3481 
Q 1172 3119 1398 2916 
Q 1625 2713 2034 2713 
Q 2441 2713 2670 2916 
Q 2900 3119 2900 3481 
Q 2900 3844 2670 4047 
Q 2441 4250 2034 4250 
Q 1625 4250 1398 4047 
Q 1172 3844 1172 3481 
z
" transform="scale(0.015625)"/>
       </defs>
       <use xlink:href="#DejaVuSans-38"/>
       <use xlink:href="#DejaVuSans-30" transform="translate(63.623047 0)"/>
       <use xlink:href="#DejaVuSans-30" transform="translate(127.246094 0)"/>
      </g>
     </g>
    </g>
    <g id="text_17">
     <!-- left wheel velocity, lv (mm/s) -->
     <g transform="translate(14.798438 233.72375) rotate(-90) scale(0.1 -0.1)">
      <defs>
       <path id="DejaVuSans-6c" d="M 603 4863 
L 1178 4863 
L 1178 0 
L 603 0 
L 603 4863 
z
" transform="scale(0.015625)"/>
       <path id="DejaVuSans-66" d="M 2375 4863 
L 2375 4384 
L 1825 4384 
Q 1516 4384 1395 4259 
Q 1275 4134 1275 3809 
L 1275 3500 
L 2222 3500 
L 2222 3053 
L 1275 3053 
L 1275 0 
L 697 0 
L 697 3053 
L 147 3053 
L 147 3500 
L 697 3500 
L 697 3744 
Q 697 4328 969 4595 
Q 1241 4863 1831 4863 
L 2375 4863 
z
" transform="scale(0.015625)"/>
       <path id="DejaVuSans-77" d="M 269 3500 
L 844 3500 
L 1563 769 
L 2278 3500 
L 2956 3500 
L 3675 769 
L 4391 3500 
L 4966 3500 
L 4050 0 
L 3372 0 
L 2619 2869 
L 1863 0 
L 1184 0 
L 269 3500 
z
" transform="scale(0.015625)"/>
       <path id="DejaVuSans-68" d="M 3513 2113 
L 3513 0 
L 2938 0 
L 2938 2094 
Q 2938 2591 2744 2837 
Q 2550 3084 2163 3084 
Q 1697 3084 1428 2787 
Q 1159 2491 1159 1978 
L 1159 0 
L 581 0 
L 581 4863 
L 1159 4863 
L 1159 2956 
Q 1366 3272 1645 3428 
Q 1925 3584 2291 3584 
Q 2894 3584 3203 3211 
Q 3513 2838 3513 2113 
z
" transform="scale(0.015625)"/>
       <path id="DejaVuSans-76" d="M 191 3500 
L 800 3500 
L 1894 563 
L 2988 3500 
L 3597 3500 
L 2284 0 
L 1503 0 
L 191 3500 
z
" transform="scale(0.015625)"/>
       <path id="DejaVuSans-6f" d="M 1959 3097 
Q 1497 3097 1228 2736 
Q 959 2375 959 1747 
Q 959 1119 1226 758 
Q 1494 397 1959 397 
Q 2419 397 2687 759 
Q 2956 1122 2956 1747 
Q 2956 2369 2687 2733 
Q 2419 3097 1959 3097 
z
M 1959 3584 
Q 2709 3584 3137 3096 
Q 3566 2609 3566 1747 
Q 3566 888 3137 398 
Q 2709 -91 1959 -91 
Q 1206 -91 779 398 
Q 353 888 353 1747 
Q 353 2609 779 3096 
Q 1206 3584 1959 3584 
z
" transform="scale(0.015625)"/>
       <path id="DejaVuSans-63" d="M 3122 3366 
L 3122 2828 
Q 2878 2963 2633 3030 
Q 2388 3097 2138 3097 
Q 1578 3097 1268 2742 
Q 959 2388 959 1747 
Q 959 1106 1268 751 
Q 1578 397 2138 397 
Q 2388 397 2633 464 
Q 2878 531 3122 666 
L 3122 134 
Q 2881 22 2623 -34 
Q 2366 -91 2075 -91 
Q 1284 -91 818 406 
Q 353 903 353 1747 
Q 353 2603 823 3093 
Q 1294 3584 2113 3584 
Q 2378 3584 2631 3529 
Q 2884 3475 3122 3366 
z
" transform="scale(0.015625)"/>
       <path id="DejaVuSans-79" d="M 2059 -325 
Q 1816 -950 1584 -1140 
Q 1353 -1331 966 -1331 
L 506 -1331 
L 506 -850 
L 844 -850 
Q 1081 -850 1212 -737 
Q 1344 -625 1503 -206 
L 1606 56 
L 191 3500 
L 800 3500 
L 1894 763 
L 2988 3500 
L 3597 3500 
L 2059 -325 
z
" transform="scale(0.015625)"/>
       <path id="DejaVuSans-2f" d="M 1625 4666 
L 2156 4666 
L 531 -594 
L 0 -594 
L 1625 4666 
z
" transform="scale(0.015625)"/>
      </defs>
      <use xlink:href="#DejaVuSans-6c"/>
      <use xlink:href="#DejaVuSans-65" transform="translate(27.783203 0)"/>
      <use xlink:href="#DejaVuSans-66" transform="translate(89.306641 0)"/>
      <use xlink:href="#DejaVuSans-74" transform="translate(122.761719 0)"/>
      <use xlink:href="#DejaVuSans-20" transform="translate(161.970703 0)"/>
      <use xlink:href="#DejaVuSans-77" transform="translate(193.757812 0)"/>
      <use xlink:href="#DejaVuSans-68" transform="translate(275.544922 0)"/>
      <use xlink:href="#DejaVuSans-65" transform="translate(338.923828 0)"/>
      <use xlink:href="#DejaVuSans-65" transform="translate(400.447266 0)"/>
      <use xlink:href="#DejaVuSans-6c" transform="translate(461.970703 0)"/>
      <use xlink:href="#DejaVuSans-20" transform="translate(489.753906 0)"/>
      <use xlink:href="#DejaVuSans-76" transform="translate(521.541016 0)"/>
      <use xlink:href="#DejaVuSans-65" transform="translate(580.720703 0)"/>
      <use xlink:href="#DejaVuSans-6c" transform="translate(642.244141 0)"/>
      <use xlink:href="#DejaVuSans-6f" transform="translate(670.027344 0)"/>
      <use xlink:href="#DejaVuSans-63" transform="translate(731.208984 0)"/>
      <use xlink:href="#DejaVuSans-69" transform="translate(786.189453 0)"/>
      <use xlink:href="#DejaVuSans-74" transform="translate(813.972656 0)"/>
      <use xlink:href="#DejaVuSans-79" transform="translate(853.181641 0)"/>
      <use xlink:href="#DejaVuSans-2c" transform="translate(912.361328 0)"/>
      <use xlink:href="#DejaVuSans-20" transform="translate(944.148438 0)"/>
      <use xlink:href="#DejaVuSans-6c" transform="translate(975.935547 0)"/>
      <use xlink:href="#DejaVuSans-76" transform="translate(1003.71875 0)"/>
      <use xlink:href="#DejaVuSans-20" transform="translate(1062.898438 0)"/>
      <use xlink:href="#DejaVuSans-28" transform="translate(1094.685547 0)"/>
      <use xlink:href="#DejaVuSans-6d" transform="translate(1133.699219 0)"/>
      <use xlink:href="#DejaVuSans-6d" transform="translate(1231.111328 0)"/>
      <use xlink:href="#DejaVuSans-2f" transform="translate(1328.523438 0)"/>
      <use xlink:href="#DejaVuSans-73" transform="translate(1362.214844 0)"/>
      <use xlink:href="#DejaVuSans-29" transform="translate(1414.314453 0)"/>
     </g>
    </g>
   </g>
   <g id="line2d_15">
    <path d="M 65.107935 287.185398 
L 68.759012 241.96996 
L 72.770512 184.260784 
L 76.669981 151.539086 
L 79.608564 129.823777 
L 83.584657 116.735098 
L 87.46724 110.785698 
L 90.488803 101.266658 
L 94.386093 92.342559 
L 98.268676 80.74123 
L 101.26736 77.76653 
L 105.164105 70.92472 
L 109.14728 69.43737 
L 113.02841 63.785441 
L 115.965722 62.298091 
L 119.908951 56.646161 
L 123.7899 53.076521 
L 126.81128 52.184111 
L 130.707118 51.886641 
L 134.604772 49.804351 
L 137.619616 46.234712 
L 141.514545 43.260012 
L 145.496812 42.367602 
L 149.393013 41.475192 
L 152.330688 42.665072 
L 156.304421 37.608082 
L 160.20153 39.095432 
L 163.222366 41.177722 
L 167.102225 38.203022 
L 170.998971 37.013142 
L 174.013815 37.905552 
L 177.908926 39.095432 
L 181.891011 38.203022 
L 184.826508 39.690372 
L 188.721438 37.013142 
L 192.694989 37.608082 
L 196.5901 34.930852 
L 199.611299 35.525792 
L 203.506048 37.013142 
L 207.401704 39.095432 
L 210.414914 40.582782 
L 214.309662 39.095432 
L 218.289387 38.203022 
L 221.223975 39.690372 
L 225.118361 37.013142 
L 229.090822 37.608082 
L 232.025048 36.715672 
L 236.003865 37.905552 
L 239.897523 36.715672 
L 243.791546 39.095432 
L 246.804211 37.608082 
L 250.727103 36.715672 
L 253.775538 40.582782 
L 257.684267 39.987842 
L 261.606978 38.797962 
L 265.606494 39.392902 
L 268.570679 39.095432 
L 272.562024 36.715672 
L 276.483646 38.797962 
L 279.448739 36.418202 
L 283.447165 37.310612 
L 287.354987 39.987842 
L 290.402696 37.905552 
L 294.323772 36.418202 
L 298.245393 36.418202 
L 301.286929 37.310612 
L 305.207097 38.500492 
L 309.197898 38.797962 
L 312.161356 39.095432 
L 316.082615 38.500492 
L 320.067786 38.500492 
L 323.029974 39.095432 
L 327.034937 39.690372 
L 330.954925 38.500492 
L 337.900468 40.285312 
L 341.820637 36.418202 
L 344.868164 37.905552 
L 348.771446 37.608082 
L 352.678542 37.608082 
L 355.718443 37.310612 
L 359.636977 40.582782 
L 363.629594 40.880252 
L 366.591781 39.095432 
L 370.510134 38.500492 
L 374.50729 37.013142 
L 377.468207 36.120732 
L 381.47317 37.608082 
L 385.391886 38.500492 
L 388.353529 39.095432 
L 392.348687 39.095432 
L 396.267403 40.582782 
L 399.31366 37.608082 
L 403.230923 38.500492 
L 407.149821 38.500492 
L 410.18954 39.987842 
L 414.106259 38.203022 
L 418.109043 37.608082 
L 421.070142 39.095432 
L 424.987223 36.120732 
" clip-path="url(#pb3f7ea5887)" style="fill: none; stroke: #1f77b4; stroke-width: 1.5; stroke-linecap: square"/>
   </g>
   <g id="line2d_16">
    <path d="M 65.102851 287.185398 
L 68.794237 244.64719 
L 71.739175 194.672233 
L 75.499741 159.868245 
L 79.277919 129.823777 
L 83.1349 109.298348 
L 86.94667 96.507139 
L 89.928467 87.880509 
L 93.740781 92.342559 
L 97.554911 87.880509 
L 101.445846 92.045089 
L 104.341941 87.583039 
L 108.239413 83.715929 
L 112.052998 83.715929 
L 115.865857 79.25388 
L 118.840029 75.98171 
L 122.637091 76.27918 
L 126.534744 73.00701 
L 130.346877 72.70954 
L 134.159372 72.70954 
L 137.132636 70.62725 
L 140.911904 70.92472 
L 144.809739 68.84243 
L 148.62169 66.1652 
L 151.518148 67.65255 
L 155.40763 68.54496 
L 159.219944 68.24749 
L 163.117053 68.84243 
L 166.013148 64.677851 
L 169.824554 68.24749 
L 173.714037 66.1652 
L 177.525625 64.082911 
L 180.507241 65.570261 
L 184.318647 66.1652 
L 188.130235 66.1652 
L 192.019354 66.1652 
L 195.830216 66.1652 
L 198.779149 65.86773 
L 202.558053 66.46267 
L 206.369096 66.1652 
L 210.257308 64.082911 
L 214.067625 63.785441 
L 217.04797 65.570261 
L 220.841763 64.975321 
L 224.652625 63.785441 
L 228.539929 64.082911 
L 231.419319 63.487971 
L 235.298634 65.570261 
L 239.108043 63.785441 
L 242.918178 63.785441 
L 245.890352 62.000621 
L 249.699398 59.620861 
L 253.622835 59.918331 
L 257.461295 63.487971 
L 260.384808 64.082911 
L 264.28464 60.513271 
L 268.122919 59.025921 
L 272.045811 64.082911 
L 274.968779 61.108211 
L 278.793077 60.513271 
L 282.708343 59.323391 
L 286.546259 63.487971 
L 289.554385 64.677851 
L 293.391211 63.190501 
L 297.228583 61.108211 
L 301.128233 62.595561 
L 304.048841 63.785441 
L 311.806381 61.108211 
L 315.64121 61.108211 
L 318.63953 61.405681 
L 322.460197 60.215801 
L 326.382 59.620861 
L 330.204482 64.677851 
L 333.126723 61.108211 
L 337.040174 59.323391 
L 340.847222 59.323391 
L 344.767754 59.620861 
L 347.687998 63.785441 
L 351.523554 61.108211 
L 355.437367 56.943631 
L 359.273104 61.108211 
L 362.280685 59.323391 
L 366.115333 61.108211 
L 369.95107 61.108211 
L 372.950843 61.405681 
L 376.785672 58.728451 
L 380.690589 58.728451 
L 384.525055 61.108211 
L 388.36061 59.025921 
L 391.360747 58.728451 
L 395.165616 63.487971 
L 399.083061 63.785441 
L 402.00494 64.082911 
L 405.823427 57.836041 
L 409.735607 56.943631 
L 413.568439 58.728451 
L 416.575656 59.323391 
L 420.408488 58.728451 
L 424.239868 58.728451 
" clip-path="url(#pb3f7ea5887)" style="fill: none; stroke: #ff7f0e; stroke-width: 1.5; stroke-linecap: square"/>
   </g>
   <g id="line2d_17">
    <path d="M 67.899444 251.78647 
L 71.806357 194.374763 
L 75.596701 158.678365 
L 79.390313 128.336427 
L 83.244752 120.007267 
L 86.146476 119.412327 
L 90.05575 116.140158 
L 93.864433 117.924977 
L 97.68982 118.817387 
L 100.669257 112.570518 
L 104.4941 110.190758 
L 108.403737 109.595818 
L 112.22749 112.273048 
L 115.130122 105.133768 
L 119.030681 98.589429 
L 122.854615 97.102079 
L 126.764253 97.102079 
L 129.665976 96.507139 
L 133.489367 97.102079 
L 137.391196 98.886899 
L 141.198426 96.209669 
L 144.184945 96.507139 
L 148.007608 92.640029 
L 151.83118 95.019789 
L 155.732647 92.342559 
L 158.634007 90.855209 
L 162.541647 90.557739 
L 166.364493 88.475449 
L 170.187883 90.557739 
L 173.152068 92.045089 
L 176.974731 90.557739 
L 180.882553 88.475449 
L 184.689783 87.583039 
L 188.512265 90.557739 
L 191.491339 90.260269 
L 195.312732 90.557739 
L 199.219827 88.475449 
L 203.041583 90.557739 
L 205.92751 89.665329 
L 209.810638 89.367859 
L 213.63203 88.475449 
L 217.539307 86.393159 
L 220.440305 85.203279 
L 224.245719 89.665329 
L 228.14537 88.177979 
L 231.965855 84.013399 
L 234.951829 87.880509 
L 238.772495 86.095689 
L 242.594069 86.095689 
L 246.460492 86.393159 
L 250.280977 86.095689 
L 253.295639 87.285569 
L 257.144087 87.583039 
L 260.993805 89.665329 
L 264.001204 89.367859 
L 267.848743 87.583039 
L 271.78253 85.500749 
L 275.599747 86.095689 
L 278.499473 84.905809 
L 282.424726 85.203279 
L 286.273173 85.500749 
L 290.206415 85.500749 
L 293.119396 85.798219 
L 296.967843 87.583039 
L 300.894549 85.203279 
L 304.741906 85.500749 
L 307.742587 83.418459 
L 311.589037 87.583039 
L 315.436577 89.665329 
L 318.443068 86.690629 
L 322.289336 87.583039 
L 326.222215 85.500749 
L 330.041066 86.095689 
L 332.969662 84.013399 
L 336.880571 86.393159 
L 340.727202 85.500749 
L 344.659718 85.500749 
L 347.587588 86.988099 
L 351.433856 85.203279 
L 355.358564 85.203279 
L 359.191941 84.608339 
L 362.204424 84.310869 
L 366.034533 84.608339 
L 369.867001 84.608339 
L 373.774823 88.475449 
L 376.702693 86.988099 
L 380.633393 87.583039 
L 384.464228 84.608339 
L 387.391917 86.988099 
L 391.314264 84.905809 
L 395.159443 85.203279 
L 399.090324 85.500749 
L 401.988417 87.880509 
L 405.833232 85.203279 
L 409.756851 85.203279 
L 413.601848 85.203279 
L 416.613787 84.310869 
L 420.457876 85.203279 
L 424.302874 85.203279 
" clip-path="url(#pb3f7ea5887)" style="fill: none; stroke: #2ca02c; stroke-width: 1.5; stroke-linecap: square"/>
   </g>
   <g id="line2d_18">
    <path d="M 65.101943 287.185398 
L 67.888912 254.4637 
L 71.724286 192.589943 
L 75.622303 160.165715 
L 79.426809 148.266916 
L 82.388089 144.994746 
L 86.191869 143.804866 
L 90.027606 142.912456 
L 93.941238 143.804866 
L 96.848954 139.640286 
L 100.770212 131.311127 
L 104.58997 129.526307 
L 108.425163 125.659197 
L 111.410047 126.849077 
L 115.228716 122.684497 
L 119.148703 125.064257 
L 122.983351 123.576907 
L 126.803473 120.602207 
L 129.788539 121.197147 
L 133.623186 123.576907 
L 137.543355 120.602207 
L 140.450526 119.709797 
L 144.269195 120.602207 
L 148.181011 118.222447 
L 152.015114 119.114857 
L 155.00708 118.817387 
L 158.841001 119.114857 
L 162.675648 117.032568 
L 166.587828 118.222447 
L 169.494454 119.709797 
L 173.413352 118.519917 
L 177.24691 114.950278 
L 181.081013 114.950278 
L 184.066079 115.545218 
L 187.884021 114.057868 
L 191.787667 115.842688 
L 195.62068 114.950278 
L 198.528214 114.057868 
L 202.439123 114.057868 
L 206.272136 114.950278 
L 210.191397 112.273048 
L 213.066429 114.950278 
L 216.899624 112.570518 
L 220.794736 113.165458 
L 224.627749 114.950278 
L 227.605008 112.570518 
L 231.436932 114.652808 
L 235.253785 114.057868 
L 239.163604 114.057868 
L 242.995891 114.652808 
L 245.987857 113.165458 
L 249.818873 110.488228 
L 253.649163 112.570518 
L 256.662917 111.975578 
L 260.510093 113.165458 
L 264.455864 111.380638 
L 268.31575 111.678108 
L 271.251428 112.867988 
L 275.176318 112.570518 
L 279.036567 111.678108 
L 282.056313 109.298348 
L 285.902582 111.083168 
L 289.763013 111.678108 
L 293.684271 110.190758 
L 296.618496 109.893288 
L 300.561725 111.380638 
L 304.407993 113.165458 
L 308.267334 113.760398 
L 311.278728 111.678108 
L 315.136436 111.678108 
L 319.080754 109.298348 
L 322.014253 112.570518 
L 325.840911 112.273048 
L 329.77724 110.785698 
L 333.635129 107.513528 
L 336.640531 111.380638 
L 340.497694 111.678108 
L 344.32417 110.190758 
L 348.25941 110.785698 
L 351.192001 109.893288 
L 355.119069 110.488228 
L 358.976595 111.678108 
L 362.834302 109.595818 
L 365.845696 114.355338 
L 369.701407 111.678108 
L 373.644635 111.083168 
L 376.577589 112.570518 
L 380.433481 109.298348 
L 384.367994 110.785698 
L 388.223886 111.678108 
L 391.242179 111.975578 
L 395.09789 109.298348 
L 398.941434 108.703408 
L 401.951194 111.678108 
L 405.777126 112.273048 
L 409.718176 109.000878 
L 413.573523 109.298348 
L 416.506477 109.893288 
L 420.438993 110.785698 
L 424.29434 111.678108 
L 427.311725 109.298348 
" clip-path="url(#pb3f7ea5887)" style="fill: none; stroke: #d62728; stroke-width: 1.5; stroke-linecap: square"/>
   </g>
   <g id="line2d_19">
    <path d="M 65.101761 287.185398 
L 68.842172 242.86237 
L 72.671191 185.748134 
L 75.663157 165.817645 
L 79.477287 172.361984 
L 83.377301 172.956924 
L 87.224477 169.089815 
L 90.138003 168.197405 
L 94.062529 163.140415 
L 97.893545 157.785955 
L 101.825335 154.811255 
L 104.722701 150.349206 
L 108.568606 151.836556 
L 112.492587 152.431495 
L 116.338493 149.754266 
L 119.320653 148.861856 
L 123.165832 149.754266 
L 126.980143 148.564386 
L 130.903762 146.184626 
L 133.81638 148.266916 
L 137.747443 144.399806 
L 141.56121 146.482096 
L 145.406207 147.671976 
L 148.396539 143.507396 
L 152.241899 143.209926 
L 156.156984 143.804866 
L 160.002162 143.209926 
L 162.914781 139.937756 
L 166.82115 143.507396 
L 170.650713 140.532696 
L 173.648852 141.127636 
L 177.49276 141.127636 
L 181.337213 139.045346 
L 185.259197 139.937756 
L 188.171452 142.614986 
L 192.100699 139.937756 
L 195.945152 134.583297 
L 199.789604 141.127636 
L 202.779754 140.830166 
L 206.623662 139.045346 
L 210.538384 137.260526 
L 214.366131 138.450406 
L 217.247156 138.152936 
L 221.167869 139.640286 
L 224.996162 138.450406 
L 228.924683 137.855466 
L 231.81987 139.045346 
L 235.663414 136.665586 
L 239.584491 135.475706 
L 243.410968 138.450406 
L 246.407473 138.450406 
L 250.249928 136.665586 
L 254.122343 137.855466 
L 258.071745 136.665586 
L 261.012688 138.450406 
L 264.95628 136.368116 
L 268.812353 137.260526 
L 271.753115 135.475706 
L 275.701972 136.665586 
L 279.572935 135.773176 
L 282.597765 136.963056 
L 286.468364 137.855466 
L 290.338963 135.773176 
L 294.273658 136.070646 
L 297.184642 136.963056 
L 301.140036 136.963056 
L 305.010453 135.773176 
L 308.881052 137.855466 
L 311.898801 139.342816 
L 315.767948 133.393417 
L 319.723705 136.963056 
L 322.663014 138.450406 
L 326.519632 135.178236 
L 330.465948 136.368116 
L 334.334186 135.773176 
L 337.35829 134.285827 
L 341.225803 137.855466 
L 345.094586 135.773176 
L 348.110519 133.988357 
L 351.978213 137.855466 
L 355.93161 134.583297 
L 358.869648 135.475706 
L 362.737342 135.475706 
L 366.68275 136.368116 
L 370.550807 135.773176 
L 373.574548 136.963056 
L 377.441697 133.393417 
L 381.309209 137.855466 
L 384.324779 136.665586 
L 388.191384 137.557996 
L 392.14351 134.583297 
L 396.010114 135.475706 
L 398.948516 135.475706 
L 402.89247 136.368116 
L 406.75853 135.475706 
L 409.78209 136.963056 
L 413.632897 134.880767 
L 417.499865 135.475706 
L 421.430746 136.070646 
L 424.339551 136.665586 
" clip-path="url(#pb3f7ea5887)" style="fill: none; stroke: #9467bd; stroke-width: 1.5; stroke-linecap: square"/>
   </g>
   <g id="line2d_20">
    <path d="M 65.101761 287.185398 
L 67.917601 251.78647 
L 71.777487 193.184883 
L 75.714542 178.013914 
L 79.57225 188.722833 
L 82.543334 192.887413 
L 86.369629 190.210183 
L 90.2277 190.805123 
L 94.147687 183.963314 
L 97.067023 179.798734 
L 101.008981 176.229094 
L 104.86687 171.767044 
L 108.724214 173.849334 
L 111.719993 176.824034 
L 115.576792 171.469574 
L 119.519113 169.982224 
L 122.43736 174.146804 
L 126.293978 173.849334 
L 130.229035 169.684755 
L 134.085653 171.767044 
L 137.089603 169.089815 
L 140.946039 169.387285 
L 144.802657 167.304995 
L 147.799162 168.792345 
L 151.654872 167.304995 
L 155.596467 169.982224 
L 159.43638 166.710055 
L 162.354082 165.520175 
L 166.286779 169.684755 
L 170.142308 167.304995 
L 174.082994 163.735355 
L 176.9849 161.950535 
L 180.839702 165.222705 
L 184.772399 167.602465 
L 188.611404 164.627765 
L 191.614264 163.437885 
L 195.453088 164.627765 
L 199.308254 162.842945 
L 202.303487 163.140415 
L 206.157563 162.842945 
L 210.097342 163.437885 
L 213.951418 165.222705 
L 216.852597 164.925235 
L 220.784568 161.058125 
L 224.638825 160.760655 
L 228.561718 165.222705 
L 231.478512 162.545475 
L 235.332951 162.842945 
L 239.264377 163.140415 
L 243.101022 162.545475 
L 246.103156 163.437885 
L 249.955779 160.760655 
L 253.83927 161.653065 
L 256.862829 161.653065 
L 260.744686 163.735355 
L 264.712245 162.248005 
L 267.657365 161.058125 
L 271.539403 159.570775 
L 275.499155 161.950535 
L 279.381193 161.653065 
L 282.412016 161.950535 
L 286.292964 161.653065 
L 290.175547 163.735355 
L 293.198744 158.975835 
L 297.066801 158.975835 
L 301.033634 162.248005 
L 303.978209 163.735355 
L 307.858976 161.653065 
L 311.818909 159.868245 
L 315.700584 161.653065 
L 318.730136 161.950535 
L 322.60945 159.570775 
L 326.490581 161.653065 
L 329.513051 164.330295 
L 333.379837 161.355595 
L 337.345217 162.248005 
L 340.289974 161.058125 
L 344.16947 159.570775 
L 348.127224 161.950535 
L 352.006176 161.653065 
L 355.03609 159.273305 
L 358.915223 161.653065 
L 362.781646 163.437885 
L 365.802845 158.678365 
L 369.681433 161.653065 
L 373.630109 159.570775 
L 376.573595 161.058125 
L 380.450912 163.735355 
L 384.407214 159.868245 
L 388.285257 159.570775 
L 391.301191 158.380895 
L 395.178327 163.735355 
L 399.056007 159.570775 
L 402.063951 161.058125 
L 405.941087 161.653065 
L 409.903925 160.165715 
L 413.781424 161.653065 
L 416.72491 161.058125 
L 420.679396 159.868245 
L 424.556531 163.735355 
L 427.584812 161.653065 
" clip-path="url(#pb3f7ea5887)" style="fill: none; stroke: #8c564b; stroke-width: 1.5; stroke-linecap: square"/>
   </g>
   <g id="line2d_21">
    <path d="M 65.104122 287.185398 
L 68.871224 245.5396 
L 72.741279 199.729223 
L 76.689228 201.514043 
L 79.61383 211.033082 
L 83.568497 214.305252 
L 87.437281 214.602722 
L 90.36152 211.033082 
L 94.307835 203.596333 
L 98.176618 199.729223 
L 102.114581 199.134283 
L 105.038457 196.754523 
L 108.89108 197.349463 
L 112.804712 196.457053 
L 116.671861 197.646933 
L 119.68035 196.754523 
L 123.547136 197.646933 
L 127.415556 197.646933 
L 130.416964 193.779823 
L 134.283568 193.184883 
L 138.236965 193.184883 
L 142.088499 192.887413 
L 145.012375 191.102593 
L 148.957056 194.969703 
L 152.82366 193.184883 
L 155.83233 191.102593 
L 159.698209 191.102593 
L 163.566084 191.102593 
L 167.510402 190.805123 
L 174.385314 191.102593 
L 178.251737 189.020303 
L 181.175431 191.102593 
L 185.119204 188.722833 
L 192.921411 189.020303 
L 195.844197 188.425363 
L 199.69446 188.425363 
L 203.638052 188.722833 
L 206.560475 188.425363 
L 210.511148 189.020303 
L 214.360503 190.805123 
L 218.226381 184.855724 
L 221.211084 190.507653 
L 225.076054 186.938014 
L 229.026364 186.938014 
L 232.891879 186.938014 
L 254.40015 185.450664 
L 257.428794 186.343074 
L 269.193657 187.532953 
L 261.321181 187.532953 
L 265.299998 187.532953 
L 269.193657 187.532953 
L 272.14604 189.317773 
L 276.116323 187.532953 
L 280.010163 185.450664 
L 283.046978 183.963314 
L 286.938639 187.532953 
L 290.832117 187.532953 
L 293.860578 189.020303 
L 297.753148 185.450664 
L 301.68639 186.343074 
L 304.637502 189.317773 
L 308.529526 187.532953 
L 312.499991 185.450664 
L 316.391471 185.450664 
L 319.412488 186.045604 
L 323.303242 187.532953 
L 327.195448 185.450664 
L 330.223547 186.343074 
L 334.100138 187.235483 
L 338.077321 185.450664 
L 341.013543 186.045604 
L 352.750445 187.532953 
L 355.785807 186.640544 
L 359.676923 185.450664 
L 363.567677 187.532953 
L 366.595594 186.343074 
L 370.485259 185.450664 
L 374.4461 187.235483 
L 377.395214 183.665844 
L 381.284515 187.532953 
L 385.238093 186.938014 
L 388.187934 189.317773 
L 392.162756 187.532953 
L 396.052057 185.450664 
L 399.940814 185.450664 
L 402.953116 185.748134 
L 406.840783 187.532953 
L 410.815605 183.368374 
L 413.765264 189.317773 
L 417.654384 187.532953 
L 421.620672 183.070904 
L 424.553989 186.045604 
" clip-path="url(#pb3f7ea5887)" style="fill: none; stroke: #e377c2; stroke-width: 1.5; stroke-linecap: square"/>
   </g>
   <g id="line2d_22">
    <path d="M 65.105393 287.185398 
L 68.867774 252.08394 
L 71.8828 218.767302 
L 75.762477 231.855981 
L 79.643426 236.318031 
L 83.585384 230.666101 
L 86.54739 225.906581 
L 90.513496 224.716701 
L 94.425131 226.204051 
L 97.354636 219.659712 
L 101.311119 220.552122 
L 105.19007 223.526821 
L 108.188028 218.469832 
L 112.06589 223.526821 
L 115.944842 221.147062 
L 119.901143 218.469832 
L 122.830466 219.659712 
L 126.777871 220.254652 
L 130.656459 214.900192 
L 133.585237 216.685012 
L 137.524653 218.172362 
L 141.402878 216.982482 
L 145.366987 216.387542 
L 148.295765 216.685012 
L 156.129021 216.387542 
L 159.05671 214.007782 
L 163.019185 216.387542 
L 166.896684 214.900192 
L 170.77382 214.900192 
L 173.780856 215.792602 
L 177.626035 212.222962 
L 181.571805 216.090072 
L 184.499313 214.007782 
L 188.375722 212.817902 
L 192.329845 214.305252 
L 196.206436 214.900192 
L 199.22019 213.412842 
L 203.096055 212.817902 
L 206.973191 212.817902 
L 209.978411 215.792602 
L 213.854095 212.817902 
L 217.814936 214.305252 
L 221.67464 210.140672 
L 224.602874 214.007782 
L 228.555544 211.925492 
L 232.414886 212.520432 
L 235.427188 213.115372 
L 239.302144 212.817902 
L 243.177101 212.817902 
L 246.181959 213.115372 
L 250.056371 212.520432 
L 254.045356 210.735612 
L 257.949364 213.115372 
L 260.906286 211.925492 
L 264.887645 214.602722 
L 268.761876 210.438142 
L 271.803411 211.330552 
L 275.705967 213.115372 
L 279.61052 211.033082 
L 282.643522 213.710312 
L 286.546622 213.115372 
L 290.535063 208.653322 
L 293.491077 214.602722 
L 297.378199 210.735612 
L 301.331051 209.843202 
L 304.273265 211.628022 
L 312.163354 213.115372 
L 316.052655 210.735612 
L 319.086746 211.033082 
L 322.988939 211.033082 
L 326.977016 212.817902 
L 329.932303 211.925492 
L 333.820334 210.735612 
L 337.787167 212.222962 
L 340.726658 214.305252 
L 344.713464 210.735612 
L 348.615293 211.033082 
L 351.571489 211.925492 
L 355.535054 212.222962 
L 359.43652 211.033082 
L 362.477329 211.330552 
L 366.364088 210.735612 
L 370.252663 212.817902 
L 373.285483 211.033082 
L 377.185678 213.115372 
L 381.171577 210.735612 
L 385.072317 211.033082 
L 388.027605 211.925492 
L 392.004969 212.520432 
L 395.904983 211.033082 
L 398.945429 214.007782 
L 402.844898 211.033082 
L 406.745638 211.033082 
L 409.761753 210.735612 
L 413.660678 211.033082 
L 417.646213 212.520432 
L 420.60023 211.925492 
L 424.499881 211.033082 
" clip-path="url(#pb3f7ea5887)" style="fill: none; stroke: #7f7f7f; stroke-width: 1.5; stroke-linecap: square"/>
   </g>
   <g id="line2d_23">
    <path d="M 68.929691 261.305509 
L 71.82978 241.67249 
L 75.800063 252.08394 
L 79.676473 259.520689 
L 82.646105 248.5143 
L 86.536859 238.400321 
L 90.461203 245.24213 
L 94.462535 248.21683 
L 97.43017 245.5396 
L 101.438947 241.96996 
L 105.361476 245.24213 
L 108.328566 245.5396 
L 112.312467 243.75478 
L 116.202131 242.5649 
L 119.221514 240.78008 
L 123.110634 242.5649 
L 127.000843 240.48261 
L 130.014053 240.78008 
L 133.90408 242.86237 
L 137.879629 239.5902 
L 140.813491 239.5902 
L 144.686995 242.5649 
L 148.654191 239.29273 
L 152.543492 240.48261 
L 155.547442 240.48261 
L 159.435654 240.48261 
L 163.324773 238.400321 
L 166.336712 240.78008 
L 170.224561 238.400321 
L 174.198293 237.507911 
L 177.132155 239.5902 
L 181.020549 238.400321 
L 184.986837 239.29273 
L 188.875594 238.400321 
L 191.894795 238.102851 
L 195.782644 238.400321 
L 199.671037 238.400321 
L 202.683521 237.805381 
L 206.57028 238.400321 
L 210.543286 237.507911 
L 213.476967 239.5902 
L 217.364634 238.400321 
L 221.330014 237.210441 
L 225.217318 238.400321 
L 228.235793 238.102851 
L 232.122916 238.400321 
L 236.01022 236.318031 
L 239.021977 235.128151 
L 242.907828 240.48261 
L 246.879745 237.507911 
L 249.841388 234.235741 
L 253.757017 238.697791 
L 257.75036 239.5902 
L 260.712366 237.210441 
L 264.712245 235.723091 
L 268.627875 236.615501 
L 271.589881 239.88767 
L 275.581589 235.425621 
L 279.496311 236.615501 
L 282.513515 238.102851 
L 286.396643 238.400321 
L 290.296475 236.318031 
L 293.335468 235.723091 
L 297.248556 236.615501 
L 301.247709 237.805381 
L 304.209533 237.210441 
L 308.123528 236.615501 
L 312.115055 237.507911 
L 315.076153 234.235741 
L 319.074943 239.88767 
L 322.989302 236.615501 
L 326.889497 234.235741 
L 329.911967 238.102851 
L 333.825055 238.697791 
L 336.872037 235.723091 
L 340.784398 236.615501 
L 344.697485 236.615501 
L 347.73557 238.400321 
L 351.647387 236.615501 
L 355.64545 235.723091 
L 359.55763 238.697791 
L 362.505292 236.912971 
L 366.479569 235.425621 
L 370.39193 238.697791 
L 373.437823 235.723091 
L 377.348731 236.615501 
L 381.260911 236.615501 
L 384.298996 238.400321 
L 388.210086 236.615501 
L 392.206879 235.723091 
L 395.167069 237.210441 
L 399.078159 238.697791 
L 403.054071 235.425621 
L 406.013535 237.210441 
L 410.009238 237.805381 
L 413.920328 236.615501 
L 416.880518 234.235741 
L 420.868958 237.507911 
L 424.779867 238.697791 
L 427.824489 235.723091 
" clip-path="url(#pb3f7ea5887)" style="fill: none; stroke: #bcbd22; stroke-width: 1.5; stroke-linecap: square"/>
   </g>
   <g id="line2d_24">
    <path d="M 65.108298 287.185398 
L 68.764459 278.261298 
L 71.714481 262.197919 
L 75.696385 270.824549 
L 79.598759 278.856238 
L 82.589454 270.824549 
L 86.440806 261.602979 
L 90.339549 268.147319 
L 94.300753 268.444789 
L 97.238973 267.552379 
L 101.22233 264.577679 
L 105.120528 266.065029 
L 108.058021 267.552379 
L 112.033752 266.659969 
L 115.931224 266.065029 
L 118.890688 264.875149 
L 122.78707 263.982739 
L 126.685632 266.065029 
L 130.660817 262.495389 
L 133.599218 264.875149 
L 137.581848 264.577679 
L 141.479683 263.982739 
L 144.417177 264.875149 
L 148.391273 264.577679 
L 152.288927 263.982739 
L 155.311215 262.792859 
L 159.207416 261.900449 
L 163.072386 263.685269 
L 166.054365 265.172619 
L 169.917883 261.602979 
L 173.836054 263.982739 
L 177.699391 263.685269 
L 180.604564 261.602979 
L 184.545432 264.280209 
L 188.377719 263.685269 
L 192.326758 262.197919 
L 195.230842 261.602979 
L 199.095086 263.685269 
L 203.037044 262.197919 
L 206.900198 263.685269 
L 209.889441 265.172619 
L 213.75205 261.602979 
L 217.600134 261.602979 
L 220.583021 262.495389 
L 228.393036 262.197919 
L 232.256009 263.685269 
L 235.160275 261.602979 
L 239.099872 262.197919 
L 242.961755 263.685269 
L 245.949545 262.495389 
L 249.810884 261.602979 
L 253.688564 261.900449 
L 257.657576 264.280209 
L 260.576004 261.900449 
L 264.551916 260.413099 
L 268.426691 263.982739 
L 272.318898 263.982739 
L 275.31395 259.818159 
L 279.205249 261.900449 
L 283.180797 264.577679 
L 286.113388 261.900449 
L 290.003416 261.900449 
L 293.971157 262.197919 
L 296.902658 261.900449 
L 300.877481 260.413099 
L 304.76769 263.982739 
L 307.699736 264.875149 
L 311.666751 260.115629 
L 315.556597 261.900449 
L 319.517438 264.280209 
L 322.448576 259.223219 
L 326.337696 261.900449 
L 330.305074 262.197919 
L 333.236757 264.875149 
L 337.21049 260.413099 
L 341.099428 261.900449 
L 344.031474 261.900449 
L 347.997218 262.197919 
L 351.886337 259.818159 
L 354.902634 262.792859 
L 358.761067 263.685269 
L 362.649642 261.900449 
L 366.602131 260.115629 
L 369.533088 261.900449 
L 373.489753 262.197919 
L 377.378146 261.900449 
L 381.267266 261.900449 
L 384.277026 262.495389 
L 388.164148 261.900449 
L 392.136791 262.495389 
L 395.067567 264.875149 
L 398.953781 259.818159 
L 402.918254 262.197919 
L 405.848484 261.900449 
L 409.804241 262.197919 
L 413.691364 259.818159 
L 417.577941 263.982739 
L 420.585522 262.495389 
L 424.472281 261.900449 
" clip-path="url(#pb3f7ea5887)" style="fill: none; stroke: #17becf; stroke-width: 1.5; stroke-linecap: square"/>
   </g>
   <g id="patch_3">
    <path d="M 46.965625 299.798125 
L 46.965625 22.318125 
" style="fill: none; stroke: #000000; stroke-width: 0.8; stroke-linejoin: miter; stroke-linecap: square"/>
   </g>
   <g id="patch_4">
    <path d="M 445.960625 299.798125 
L 445.960625 22.318125 
" style="fill: none; stroke: #000000; stroke-width: 0.8; stroke-linejoin: miter; stroke-linecap: square"/>
   </g>
   <g id="patch_5">
    <path d="M 46.965625 299.798125 
L 445.960625 299.798125 
" style="fill: none; stroke: #000000; stroke-width: 0.8; stroke-linejoin: miter; stroke-linecap: square"/>
   </g>
   <g id="patch_6">
    <path d="M 46.965625 22.318125 
L 445.960625 22.318125 
" style="fill: none; stroke: #000000; stroke-width: 0.8; stroke-linejoin: miter; stroke-linecap: square"/>
   </g>
   <g id="text_18">
    <!-- left velocity vs. time -->
    <g transform="translate(185.434688 16.318125) scale(0.12 -0.12)">
     <use xlink:href="#DejaVuSans-6c"/>
     <use xlink:href="#DejaVuSans-65" transform="translate(27.783203 0)"/>
     <use xlink:href="#DejaVuSans-66" transform="translate(89.306641 0)"/>
     <use xlink:href="#DejaVuSans-74" transform="translate(122.761719 0)"/>
     <use xlink:href="#DejaVuSans-20" transform="translate(161.970703 0)"/>
     <use xlink:href="#DejaVuSans-76" transform="translate(193.757812 0)"/>
     <use xlink:href="#DejaVuSans-65" transform="translate(252.9375 0)"/>
     <use xlink:href="#DejaVuSans-6c" transform="translate(314.460938 0)"/>
     <use xlink:href="#DejaVuSans-6f" transform="translate(342.244141 0)"/>
     <use xlink:href="#DejaVuSans-63" transform="translate(403.425781 0)"/>
     <use xlink:href="#DejaVuSans-69" transform="translate(458.40625 0)"/>
     <use xlink:href="#DejaVuSans-74" transform="translate(486.189453 0)"/>
     <use xlink:href="#DejaVuSans-79" transform="translate(525.398438 0)"/>
     <use xlink:href="#DejaVuSans-20" transform="translate(584.578125 0)"/>
     <use xlink:href="#DejaVuSans-76" transform="translate(616.365234 0)"/>
     <use xlink:href="#DejaVuSans-73" transform="translate(675.544922 0)"/>
     <use xlink:href="#DejaVuSans-2e" transform="translate(727.644531 0)"/>
     <use xlink:href="#DejaVuSans-20" transform="translate(759.431641 0)"/>
     <use xlink:href="#DejaVuSans-74" transform="translate(791.21875 0)"/>
     <use xlink:href="#DejaVuSans-69" transform="translate(830.427734 0)"/>
     <use xlink:href="#DejaVuSans-6d" transform="translate(858.210938 0)"/>
     <use xlink:href="#DejaVuSans-65" transform="translate(955.623047 0)"/>
    </g>
   </g>
   <g id="legend_1">
    <g id="patch_7">
     <path d="M 322.435625 294.798125 
L 438.960625 294.798125 
Q 440.960625 294.798125 440.960625 292.798125 
L 440.960625 147.016875 
Q 440.960625 145.016875 438.960625 145.016875 
L 322.435625 145.016875 
Q 320.435625 145.016875 320.435625 147.016875 
L 320.435625 292.798125 
Q 320.435625 294.798125 322.435625 294.798125 
z
" style="fill: #ffffff; opacity: 0.8; stroke: #cccccc; stroke-linejoin: miter"/>
    </g>
    <g id="line2d_25">
     <path d="M 324.435625 153.115313 
L 334.435625 153.115313 
L 344.435625 153.115313 
" style="fill: none; stroke: #1f77b4; stroke-width: 1.5; stroke-linecap: square"/>
    </g>
    <g id="text_19">
     <!-- Ref Speed = 850 -->
     <g transform="translate(352.435625 156.615313) scale(0.1 -0.1)">
      <defs>
       <path id="DejaVuSans-52" d="M 2841 2188 
Q 3044 2119 3236 1894 
Q 3428 1669 3622 1275 
L 4263 0 
L 3584 0 
L 2988 1197 
Q 2756 1666 2539 1819 
Q 2322 1972 1947 1972 
L 1259 1972 
L 1259 0 
L 628 0 
L 628 4666 
L 2053 4666 
Q 2853 4666 3247 4331 
Q 3641 3997 3641 3322 
Q 3641 2881 3436 2590 
Q 3231 2300 2841 2188 
z
M 1259 4147 
L 1259 2491 
L 2053 2491 
Q 2509 2491 2742 2702 
Q 2975 2913 2975 3322 
Q 2975 3731 2742 3939 
Q 2509 4147 2053 4147 
L 1259 4147 
z
" transform="scale(0.015625)"/>
       <path id="DejaVuSans-53" d="M 3425 4513 
L 3425 3897 
Q 3066 4069 2747 4153 
Q 2428 4238 2131 4238 
Q 1616 4238 1336 4038 
Q 1056 3838 1056 3469 
Q 1056 3159 1242 3001 
Q 1428 2844 1947 2747 
L 2328 2669 
Q 3034 2534 3370 2195 
Q 3706 1856 3706 1288 
Q 3706 609 3251 259 
Q 2797 -91 1919 -91 
Q 1588 -91 1214 -16 
Q 841 59 441 206 
L 441 856 
Q 825 641 1194 531 
Q 1563 422 1919 422 
Q 2459 422 2753 634 
Q 3047 847 3047 1241 
Q 3047 1584 2836 1778 
Q 2625 1972 2144 2069 
L 1759 2144 
Q 1053 2284 737 2584 
Q 422 2884 422 3419 
Q 422 4038 858 4394 
Q 1294 4750 2059 4750 
Q 2388 4750 2728 4690 
Q 3069 4631 3425 4513 
z
" transform="scale(0.015625)"/>
       <path id="DejaVuSans-70" d="M 1159 525 
L 1159 -1331 
L 581 -1331 
L 581 3500 
L 1159 3500 
L 1159 2969 
Q 1341 3281 1617 3432 
Q 1894 3584 2278 3584 
Q 2916 3584 3314 3078 
Q 3713 2572 3713 1747 
Q 3713 922 3314 415 
Q 2916 -91 2278 -91 
Q 1894 -91 1617 61 
Q 1341 213 1159 525 
z
M 3116 1747 
Q 3116 2381 2855 2742 
Q 2594 3103 2138 3103 
Q 1681 3103 1420 2742 
Q 1159 2381 1159 1747 
Q 1159 1113 1420 752 
Q 1681 391 2138 391 
Q 2594 391 2855 752 
Q 3116 1113 3116 1747 
z
" transform="scale(0.015625)"/>
       <path id="DejaVuSans-64" d="M 2906 2969 
L 2906 4863 
L 3481 4863 
L 3481 0 
L 2906 0 
L 2906 525 
Q 2725 213 2448 61 
Q 2172 -91 1784 -91 
Q 1150 -91 751 415 
Q 353 922 353 1747 
Q 353 2572 751 3078 
Q 1150 3584 1784 3584 
Q 2172 3584 2448 3432 
Q 2725 3281 2906 2969 
z
M 947 1747 
Q 947 1113 1208 752 
Q 1469 391 1925 391 
Q 2381 391 2643 752 
Q 2906 1113 2906 1747 
Q 2906 2381 2643 2742 
Q 2381 3103 1925 3103 
Q 1469 3103 1208 2742 
Q 947 2381 947 1747 
z
" transform="scale(0.015625)"/>
       <path id="DejaVuSans-3d" d="M 678 2906 
L 4684 2906 
L 4684 2381 
L 678 2381 
L 678 2906 
z
M 678 1631 
L 4684 1631 
L 4684 1100 
L 678 1100 
L 678 1631 
z
" transform="scale(0.015625)"/>
      </defs>
      <use xlink:href="#DejaVuSans-52"/>
      <use xlink:href="#DejaVuSans-65" transform="translate(64.982422 0)"/>
      <use xlink:href="#DejaVuSans-66" transform="translate(126.505859 0)"/>
      <use xlink:href="#DejaVuSans-20" transform="translate(161.710938 0)"/>
      <use xlink:href="#DejaVuSans-53" transform="translate(193.498047 0)"/>
      <use xlink:href="#DejaVuSans-70" transform="translate(256.974609 0)"/>
      <use xlink:href="#DejaVuSans-65" transform="translate(320.451172 0)"/>
      <use xlink:href="#DejaVuSans-65" transform="translate(381.974609 0)"/>
      <use xlink:href="#DejaVuSans-64" transform="translate(443.498047 0)"/>
      <use xlink:href="#DejaVuSans-20" transform="translate(506.974609 0)"/>
      <use xlink:href="#DejaVuSans-3d" transform="translate(538.761719 0)"/>
      <use xlink:href="#DejaVuSans-20" transform="translate(622.550781 0)"/>
      <use xlink:href="#DejaVuSans-38" transform="translate(654.337891 0)"/>
      <use xlink:href="#DejaVuSans-35" transform="translate(717.960938 0)"/>
      <use xlink:href="#DejaVuSans-30" transform="translate(781.583984 0)"/>
     </g>
    </g>
    <g id="line2d_26">
     <path d="M 324.435625 167.793438 
L 334.435625 167.793438 
L 344.435625 167.793438 
" style="fill: none; stroke: #ff7f0e; stroke-width: 1.5; stroke-linecap: square"/>
    </g>
    <g id="text_20">
     <!-- Ref Speed = 765 -->
     <g transform="translate(352.435625 171.293438) scale(0.1 -0.1)">
      <use xlink:href="#DejaVuSans-52"/>
      <use xlink:href="#DejaVuSans-65" transform="translate(64.982422 0)"/>
      <use xlink:href="#DejaVuSans-66" transform="translate(126.505859 0)"/>
      <use xlink:href="#DejaVuSans-20" transform="translate(161.710938 0)"/>
      <use xlink:href="#DejaVuSans-53" transform="translate(193.498047 0)"/>
      <use xlink:href="#DejaVuSans-70" transform="translate(256.974609 0)"/>
      <use xlink:href="#DejaVuSans-65" transform="translate(320.451172 0)"/>
      <use xlink:href="#DejaVuSans-65" transform="translate(381.974609 0)"/>
      <use xlink:href="#DejaVuSans-64" transform="translate(443.498047 0)"/>
      <use xlink:href="#DejaVuSans-20" transform="translate(506.974609 0)"/>
      <use xlink:href="#DejaVuSans-3d" transform="translate(538.761719 0)"/>
      <use xlink:href="#DejaVuSans-20" transform="translate(622.550781 0)"/>
      <use xlink:href="#DejaVuSans-37" transform="translate(654.337891 0)"/>
      <use xlink:href="#DejaVuSans-36" transform="translate(717.960938 0)"/>
      <use xlink:href="#DejaVuSans-35" transform="translate(781.583984 0)"/>
     </g>
    </g>
    <g id="line2d_27">
     <path d="M 324.435625 182.471563 
L 334.435625 182.471563 
L 344.435625 182.471563 
" style="fill: none; stroke: #2ca02c; stroke-width: 1.5; stroke-linecap: square"/>
    </g>
    <g id="text_21">
     <!-- Ref Speed = 680 -->
     <g transform="translate(352.435625 185.971563) scale(0.1 -0.1)">
      <use xlink:href="#DejaVuSans-52"/>
      <use xlink:href="#DejaVuSans-65" transform="translate(64.982422 0)"/>
      <use xlink:href="#DejaVuSans-66" transform="translate(126.505859 0)"/>
      <use xlink:href="#DejaVuSans-20" transform="translate(161.710938 0)"/>
      <use xlink:href="#DejaVuSans-53" transform="translate(193.498047 0)"/>
      <use xlink:href="#DejaVuSans-70" transform="translate(256.974609 0)"/>
      <use xlink:href="#DejaVuSans-65" transform="translate(320.451172 0)"/>
      <use xlink:href="#DejaVuSans-65" transform="translate(381.974609 0)"/>
      <use xlink:href="#DejaVuSans-64" transform="translate(443.498047 0)"/>
      <use xlink:href="#DejaVuSans-20" transform="translate(506.974609 0)"/>
      <use xlink:href="#DejaVuSans-3d" transform="translate(538.761719 0)"/>
      <use xlink:href="#DejaVuSans-20" transform="translate(622.550781 0)"/>
      <use xlink:href="#DejaVuSans-36" transform="translate(654.337891 0)"/>
      <use xlink:href="#DejaVuSans-38" transform="translate(717.960938 0)"/>
      <use xlink:href="#DejaVuSans-30" transform="translate(781.583984 0)"/>
     </g>
    </g>
    <g id="line2d_28">
     <path d="M 324.435625 197.149688 
L 334.435625 197.149688 
L 344.435625 197.149688 
" style="fill: none; stroke: #d62728; stroke-width: 1.5; stroke-linecap: square"/>
    </g>
    <g id="text_22">
     <!-- Ref Speed = 595 -->
     <g transform="translate(352.435625 200.649688) scale(0.1 -0.1)">
      <defs>
       <path id="DejaVuSans-39" d="M 703 97 
L 703 672 
Q 941 559 1184 500 
Q 1428 441 1663 441 
Q 2288 441 2617 861 
Q 2947 1281 2994 2138 
Q 2813 1869 2534 1725 
Q 2256 1581 1919 1581 
Q 1219 1581 811 2004 
Q 403 2428 403 3163 
Q 403 3881 828 4315 
Q 1253 4750 1959 4750 
Q 2769 4750 3195 4129 
Q 3622 3509 3622 2328 
Q 3622 1225 3098 567 
Q 2575 -91 1691 -91 
Q 1453 -91 1209 -44 
Q 966 3 703 97 
z
M 1959 2075 
Q 2384 2075 2632 2365 
Q 2881 2656 2881 3163 
Q 2881 3666 2632 3958 
Q 2384 4250 1959 4250 
Q 1534 4250 1286 3958 
Q 1038 3666 1038 3163 
Q 1038 2656 1286 2365 
Q 1534 2075 1959 2075 
z
" transform="scale(0.015625)"/>
      </defs>
      <use xlink:href="#DejaVuSans-52"/>
      <use xlink:href="#DejaVuSans-65" transform="translate(64.982422 0)"/>
      <use xlink:href="#DejaVuSans-66" transform="translate(126.505859 0)"/>
      <use xlink:href="#DejaVuSans-20" transform="translate(161.710938 0)"/>
      <use xlink:href="#DejaVuSans-53" transform="translate(193.498047 0)"/>
      <use xlink:href="#DejaVuSans-70" transform="translate(256.974609 0)"/>
      <use xlink:href="#DejaVuSans-65" transform="translate(320.451172 0)"/>
      <use xlink:href="#DejaVuSans-65" transform="translate(381.974609 0)"/>
      <use xlink:href="#DejaVuSans-64" transform="translate(443.498047 0)"/>
      <use xlink:href="#DejaVuSans-20" transform="translate(506.974609 0)"/>
      <use xlink:href="#DejaVuSans-3d" transform="translate(538.761719 0)"/>
      <use xlink:href="#DejaVuSans-20" transform="translate(622.550781 0)"/>
      <use xlink:href="#DejaVuSans-35" transform="translate(654.337891 0)"/>
      <use xlink:href="#DejaVuSans-39" transform="translate(717.960938 0)"/>
      <use xlink:href="#DejaVuSans-35" transform="translate(781.583984 0)"/>
     </g>
    </g>
    <g id="line2d_29">
     <path d="M 324.435625 211.827813 
L 334.435625 211.827813 
L 344.435625 211.827813 
" style="fill: none; stroke: #9467bd; stroke-width: 1.5; stroke-linecap: square"/>
    </g>
    <g id="text_23">
     <!-- Ref Speed = 510 -->
     <g transform="translate(352.435625 215.327813) scale(0.1 -0.1)">
      <use xlink:href="#DejaVuSans-52"/>
      <use xlink:href="#DejaVuSans-65" transform="translate(64.982422 0)"/>
      <use xlink:href="#DejaVuSans-66" transform="translate(126.505859 0)"/>
      <use xlink:href="#DejaVuSans-20" transform="translate(161.710938 0)"/>
      <use xlink:href="#DejaVuSans-53" transform="translate(193.498047 0)"/>
      <use xlink:href="#DejaVuSans-70" transform="translate(256.974609 0)"/>
      <use xlink:href="#DejaVuSans-65" transform="translate(320.451172 0)"/>
      <use xlink:href="#DejaVuSans-65" transform="translate(381.974609 0)"/>
      <use xlink:href="#DejaVuSans-64" transform="translate(443.498047 0)"/>
      <use xlink:href="#DejaVuSans-20" transform="translate(506.974609 0)"/>
      <use xlink:href="#DejaVuSans-3d" transform="translate(538.761719 0)"/>
      <use xlink:href="#DejaVuSans-20" transform="translate(622.550781 0)"/>
      <use xlink:href="#DejaVuSans-35" transform="translate(654.337891 0)"/>
      <use xlink:href="#DejaVuSans-31" transform="translate(717.960938 0)"/>
      <use xlink:href="#DejaVuSans-30" transform="translate(781.583984 0)"/>
     </g>
    </g>
    <g id="line2d_30">
     <path d="M 324.435625 226.505938 
L 334.435625 226.505938 
L 344.435625 226.505938 
" style="fill: none; stroke: #8c564b; stroke-width: 1.5; stroke-linecap: square"/>
    </g>
    <g id="text_24">
     <!-- Ref Speed = 425 -->
     <g transform="translate(352.435625 230.005938) scale(0.1 -0.1)">
      <use xlink:href="#DejaVuSans-52"/>
      <use xlink:href="#DejaVuSans-65" transform="translate(64.982422 0)"/>
      <use xlink:href="#DejaVuSans-66" transform="translate(126.505859 0)"/>
      <use xlink:href="#DejaVuSans-20" transform="translate(161.710938 0)"/>
      <use xlink:href="#DejaVuSans-53" transform="translate(193.498047 0)"/>
      <use xlink:href="#DejaVuSans-70" transform="translate(256.974609 0)"/>
      <use xlink:href="#DejaVuSans-65" transform="translate(320.451172 0)"/>
      <use xlink:href="#DejaVuSans-65" transform="translate(381.974609 0)"/>
      <use xlink:href="#DejaVuSans-64" transform="translate(443.498047 0)"/>
      <use xlink:href="#DejaVuSans-20" transform="translate(506.974609 0)"/>
      <use xlink:href="#DejaVuSans-3d" transform="translate(538.761719 0)"/>
      <use xlink:href="#DejaVuSans-20" transform="translate(622.550781 0)"/>
      <use xlink:href="#DejaVuSans-34" transform="translate(654.337891 0)"/>
      <use xlink:href="#DejaVuSans-32" transform="translate(717.960938 0)"/>
      <use xlink:href="#DejaVuSans-35" transform="translate(781.583984 0)"/>
     </g>
    </g>
    <g id="line2d_31">
     <path d="M 324.435625 241.184063 
L 334.435625 241.184063 
L 344.435625 241.184063 
" style="fill: none; stroke: #e377c2; stroke-width: 1.5; stroke-linecap: square"/>
    </g>
    <g id="text_25">
     <!-- Ref Speed = 340 -->
     <g transform="translate(352.435625 244.684063) scale(0.1 -0.1)">
      <defs>
       <path id="DejaVuSans-33" d="M 2597 2516 
Q 3050 2419 3304 2112 
Q 3559 1806 3559 1356 
Q 3559 666 3084 287 
Q 2609 -91 1734 -91 
Q 1441 -91 1130 -33 
Q 819 25 488 141 
L 488 750 
Q 750 597 1062 519 
Q 1375 441 1716 441 
Q 2309 441 2620 675 
Q 2931 909 2931 1356 
Q 2931 1769 2642 2001 
Q 2353 2234 1838 2234 
L 1294 2234 
L 1294 2753 
L 1863 2753 
Q 2328 2753 2575 2939 
Q 2822 3125 2822 3475 
Q 2822 3834 2567 4026 
Q 2313 4219 1838 4219 
Q 1578 4219 1281 4162 
Q 984 4106 628 3988 
L 628 4550 
Q 988 4650 1302 4700 
Q 1616 4750 1894 4750 
Q 2613 4750 3031 4423 
Q 3450 4097 3450 3541 
Q 3450 3153 3228 2886 
Q 3006 2619 2597 2516 
z
" transform="scale(0.015625)"/>
      </defs>
      <use xlink:href="#DejaVuSans-52"/>
      <use xlink:href="#DejaVuSans-65" transform="translate(64.982422 0)"/>
      <use xlink:href="#DejaVuSans-66" transform="translate(126.505859 0)"/>
      <use xlink:href="#DejaVuSans-20" transform="translate(161.710938 0)"/>
      <use xlink:href="#DejaVuSans-53" transform="translate(193.498047 0)"/>
      <use xlink:href="#DejaVuSans-70" transform="translate(256.974609 0)"/>
      <use xlink:href="#DejaVuSans-65" transform="translate(320.451172 0)"/>
      <use xlink:href="#DejaVuSans-65" transform="translate(381.974609 0)"/>
      <use xlink:href="#DejaVuSans-64" transform="translate(443.498047 0)"/>
      <use xlink:href="#DejaVuSans-20" transform="translate(506.974609 0)"/>
      <use xlink:href="#DejaVuSans-3d" transform="translate(538.761719 0)"/>
      <use xlink:href="#DejaVuSans-20" transform="translate(622.550781 0)"/>
      <use xlink:href="#DejaVuSans-33" transform="translate(654.337891 0)"/>
      <use xlink:href="#DejaVuSans-34" transform="translate(717.960938 0)"/>
      <use xlink:href="#DejaVuSans-30" transform="translate(781.583984 0)"/>
     </g>
    </g>
    <g id="line2d_32">
     <path d="M 324.435625 255.862188 
L 334.435625 255.862188 
L 344.435625 255.862188 
" style="fill: none; stroke: #7f7f7f; stroke-width: 1.5; stroke-linecap: square"/>
    </g>
    <g id="text_26">
     <!-- Ref Speed = 255 -->
     <g transform="translate(352.435625 259.362188) scale(0.1 -0.1)">
      <use xlink:href="#DejaVuSans-52"/>
      <use xlink:href="#DejaVuSans-65" transform="translate(64.982422 0)"/>
      <use xlink:href="#DejaVuSans-66" transform="translate(126.505859 0)"/>
      <use xlink:href="#DejaVuSans-20" transform="translate(161.710938 0)"/>
      <use xlink:href="#DejaVuSans-53" transform="translate(193.498047 0)"/>
      <use xlink:href="#DejaVuSans-70" transform="translate(256.974609 0)"/>
      <use xlink:href="#DejaVuSans-65" transform="translate(320.451172 0)"/>
      <use xlink:href="#DejaVuSans-65" transform="translate(381.974609 0)"/>
      <use xlink:href="#DejaVuSans-64" transform="translate(443.498047 0)"/>
      <use xlink:href="#DejaVuSans-20" transform="translate(506.974609 0)"/>
      <use xlink:href="#DejaVuSans-3d" transform="translate(538.761719 0)"/>
      <use xlink:href="#DejaVuSans-20" transform="translate(622.550781 0)"/>
      <use xlink:href="#DejaVuSans-32" transform="translate(654.337891 0)"/>
      <use xlink:href="#DejaVuSans-35" transform="translate(717.960938 0)"/>
      <use xlink:href="#DejaVuSans-35" transform="translate(781.583984 0)"/>
     </g>
    </g>
    <g id="line2d_33">
     <path d="M 324.435625 270.540313 
L 334.435625 270.540313 
L 344.435625 270.540313 
" style="fill: none; stroke: #bcbd22; stroke-width: 1.5; stroke-linecap: square"/>
    </g>
    <g id="text_27">
     <!-- Ref Speed = 170 -->
     <g transform="translate(352.435625 274.040313) scale(0.1 -0.1)">
      <use xlink:href="#DejaVuSans-52"/>
      <use xlink:href="#DejaVuSans-65" transform="translate(64.982422 0)"/>
      <use xlink:href="#DejaVuSans-66" transform="translate(126.505859 0)"/>
      <use xlink:href="#DejaVuSans-20" transform="translate(161.710938 0)"/>
      <use xlink:href="#DejaVuSans-53" transform="translate(193.498047 0)"/>
      <use xlink:href="#DejaVuSans-70" transform="translate(256.974609 0)"/>
      <use xlink:href="#DejaVuSans-65" transform="translate(320.451172 0)"/>
      <use xlink:href="#DejaVuSans-65" transform="translate(381.974609 0)"/>
      <use xlink:href="#DejaVuSans-64" transform="translate(443.498047 0)"/>
      <use xlink:href="#DejaVuSans-20" transform="translate(506.974609 0)"/>
      <use xlink:href="#DejaVuSans-3d" transform="translate(538.761719 0)"/>
      <use xlink:href="#DejaVuSans-20" transform="translate(622.550781 0)"/>
      <use xlink:href="#DejaVuSans-31" transform="translate(654.337891 0)"/>
      <use xlink:href="#DejaVuSans-37" transform="translate(717.960938 0)"/>
      <use xlink:href="#DejaVuSans-30" transform="translate(781.583984 0)"/>
     </g>
    </g>
    <g id="line2d_34">
     <path d="M 324.435625 285.218438 
L 334.435625 285.218438 
L 344.435625 285.218438 
" style="fill: none; stroke: #17becf; stroke-width: 1.5; stroke-linecap: square"/>
    </g>
    <g id="text_28">
     <!-- Ref Speed = 85 -->
     <g transform="translate(352.435625 288.718438) scale(0.1 -0.1)">
      <use xlink:href="#DejaVuSans-52"/>
      <use xlink:href="#DejaVuSans-65" transform="translate(64.982422 0)"/>
      <use xlink:href="#DejaVuSans-66" transform="translate(126.505859 0)"/>
      <use xlink:href="#DejaVuSans-20" transform="translate(161.710938 0)"/>
      <use xlink:href="#DejaVuSans-53" transform="translate(193.498047 0)"/>
      <use xlink:href="#DejaVuSans-70" transform="translate(256.974609 0)"/>
      <use xlink:href="#DejaVuSans-65" transform="translate(320.451172 0)"/>
      <use xlink:href="#DejaVuSans-65" transform="translate(381.974609 0)"/>
      <use xlink:href="#DejaVuSans-64" transform="translate(443.498047 0)"/>
      <use xlink:href="#DejaVuSans-20" transform="translate(506.974609 0)"/>
      <use xlink:href="#DejaVuSans-3d" transform="translate(538.761719 0)"/>
      <use xlink:href="#DejaVuSans-20" transform="translate(622.550781 0)"/>
      <use xlink:href="#DejaVuSans-38" transform="translate(654.337891 0)"/>
      <use xlink:href="#DejaVuSans-35" transform="translate(717.960938 0)"/>
     </g>
    </g>
   </g>
  </g>
 </g>
 <defs>
  <clipPath id="pb3f7ea5887">
   <rect x="46.965625" y="22.318125" width="398.995" height="277.48"/>
  </clipPath>
 </defs>
</svg>
