<?xml version="1.0" encoding="utf-8" standalone="no"?>
<!DOCTYPE svg PUBLIC "-//W3C//DTD SVG 1.1//EN"
  "http://www.w3.org/Graphics/SVG/1.1/DTD/svg11.dtd">
<svg xmlns:xlink="http://www.w3.org/1999/xlink" width="453.143125pt" height="337.354375pt" viewBox="0 0 453.143125 337.354375" xmlns="http://www.w3.org/2000/svg" version="1.1">
 <metadata>
  <rdf:RDF xmlns:dc="http://purl.org/dc/elements/1.1/" xmlns:cc="http://creativecommons.org/ns#" xmlns:rdf="http://www.w3.org/1999/02/22-rdf-syntax-ns#">
   <cc:Work>
    <dc:type rdf:resource="http://purl.org/dc/dcmitype/StillImage"/>
    <dc:date>2025-10-28T18:39:43.310191</dc:date>
    <dc:format>image/svg+xml</dc:format>
    <dc:creator>
     <cc:Agent>
      <dc:title>Matplotlib v3.10.6, https://matplotlib.org/</dc:title>
     </cc:Agent>
    </dc:creator>
   </cc:Work>
  </rdf:RDF>
 </metadata>
 <defs>
  <style type="text/css">*{stroke-linejoin: round; stroke-linecap: butt}</style>
 </defs>
 <g id="figure_1">
  <g id="patch_1">
   <path d="M 0 337.354375 
L 453.143125 337.354375 
L 453.143125 0 
L 0 0 
z
" style="fill: #ffffff"/>
  </g>
  <g id="axes_1">
   <g id="patch_2">
    <path d="M 40.603125 299.798125 
L 445.943125 299.798125 
L 445.943125 22.318125 
L 40.603125 22.318125 
z
" style="fill: #ffffff"/>
   </g>
   <g id="matplotlib.axis_1">
    <g id="xtick_1">
     <g id="line2d_1">
      <defs>
       <path id="mcaf6318fbb" d="M 0 0 
L 0 3.5 
" style="stroke: #000000; stroke-width: 0.8"/>
      </defs>
      <g>
       <use xlink:href="#mcaf6318fbb" x="58.837669" y="299.798125" style="stroke: #000000; stroke-width: 0.8"/>
      </g>
     </g>
     <g id="text_1">
      <!-- 0.00 -->
      <g transform="translate(47.704856 314.396563) scale(0.1 -0.1)">
       <defs>
        <path id="DejaVuSans-30" d="M 2034 4250 
Q 1547 4250 1301 3770 
Q 1056 3291 1056 2328 
Q 1056 1369 1301 889 
Q 1547 409 2034 409 
Q 2525 409 2770 889 
Q 3016 1369 3016 2328 
Q 3016 3291 2770 3770 
Q 2525 4250 2034 4250 
z
M 2034 4750 
Q 2819 4750 3233 4129 
Q 3647 3509 3647 2328 
Q 3647 1150 3233 529 
Q 2819 -91 2034 -91 
Q 1250 -91 836 529 
Q 422 1150 422 2328 
Q 422 3509 836 4129 
Q 1250 4750 2034 4750 
z
" transform="scale(0.015625)"/>
        <path id="DejaVuSans-2e" d="M 684 794 
L 1344 794 
L 1344 0 
L 684 0 
L 684 794 
z
" transform="scale(0.015625)"/>
       </defs>
       <use xlink:href="#DejaVuSans-30"/>
       <use xlink:href="#DejaVuSans-2e" transform="translate(63.623047 0)"/>
       <use xlink:href="#DejaVuSans-30" transform="translate(95.410156 0)"/>
       <use xlink:href="#DejaVuSans-30" transform="translate(159.033203 0)"/>
      </g>
     </g>
    </g>
    <g id="xtick_2">
     <g id="line2d_2">
      <g>
       <use xlink:href="#mcaf6318fbb" x="104.954626" y="299.798125" style="stroke: #000000; stroke-width: 0.8"/>
      </g>
     </g>
     <g id="text_2">
      <!-- 0.25 -->
      <g transform="translate(93.821814 314.396563) scale(0.1 -0.1)">
       <defs>
        <path id="DejaVuSans-32" d="M 1228 531 
L 3431 531 
L 3431 0 
L 469 0 
L 469 531 
Q 828 903 1448 1529 
Q 2069 2156 2228 2338 
Q 2531 2678 2651 2914 
Q 2772 3150 2772 3378 
Q 2772 3750 2511 3984 
Q 2250 4219 1831 4219 
Q 1534 4219 1204 4116 
Q 875 4013 500 3803 
L 500 4441 
Q 881 4594 1212 4672 
Q 1544 4750 1819 4750 
Q 2544 4750 2975 4387 
Q 3406 4025 3406 3419 
Q 3406 3131 3298 2873 
Q 3191 2616 2906 2266 
Q 2828 2175 2409 1742 
Q 1991 1309 1228 531 
z
" transform="scale(0.015625)"/>
        <path id="DejaVuSans-35" d="M 691 4666 
L 3169 4666 
L 3169 4134 
L 1269 4134 
L 1269 2991 
Q 1406 3038 1543 3061 
Q 1681 3084 1819 3084 
Q 2600 3084 3056 2656 
Q 3513 2228 3513 1497 
Q 3513 744 3044 326 
Q 2575 -91 1722 -91 
Q 1428 -91 1123 -41 
Q 819 9 494 109 
L 494 744 
Q 775 591 1075 516 
Q 1375 441 1709 441 
Q 2250 441 2565 725 
Q 2881 1009 2881 1497 
Q 2881 1984 2565 2268 
Q 2250 2553 1709 2553 
Q 1456 2553 1204 2497 
Q 953 2441 691 2322 
L 691 4666 
z
" transform="scale(0.015625)"/>
       </defs>
       <use xlink:href="#DejaVuSans-30"/>
       <use xlink:href="#DejaVuSans-2e" transform="translate(63.623047 0)"/>
       <use xlink:href="#DejaVuSans-32" transform="translate(95.410156 0)"/>
       <use xlink:href="#DejaVuSans-35" transform="translate(159.033203 0)"/>
      </g>
     </g>
    </g>
    <g id="xtick_3">
     <g id="line2d_3">
      <g>
       <use xlink:href="#mcaf6318fbb" x="151.071584" y="299.798125" style="stroke: #000000; stroke-width: 0.8"/>
      </g>
     </g>
     <g id="text_3">
      <!-- 0.50 -->
      <g transform="translate(139.938771 314.396563) scale(0.1 -0.1)">
       <use xlink:href="#DejaVuSans-30"/>
       <use xlink:href="#DejaVuSans-2e" transform="translate(63.623047 0)"/>
       <use xlink:href="#DejaVuSans-35" transform="translate(95.410156 0)"/>
       <use xlink:href="#DejaVuSans-30" transform="translate(159.033203 0)"/>
      </g>
     </g>
    </g>
    <g id="xtick_4">
     <g id="line2d_4">
      <g>
       <use xlink:href="#mcaf6318fbb" x="197.188541" y="299.798125" style="stroke: #000000; stroke-width: 0.8"/>
      </g>
     </g>
     <g id="text_4">
      <!-- 0.75 -->
      <g transform="translate(186.055729 314.396563) scale(0.1 -0.1)">
       <defs>
        <path id="DejaVuSans-37" d="M 525 4666 
L 3525 4666 
L 3525 4397 
L 1831 0 
L 1172 0 
L 2766 4134 
L 525 4134 
L 525 4666 
z
" transform="scale(0.015625)"/>
       </defs>
       <use xlink:href="#DejaVuSans-30"/>
       <use xlink:href="#DejaVuSans-2e" transform="translate(63.623047 0)"/>
       <use xlink:href="#DejaVuSans-37" transform="translate(95.410156 0)"/>
       <use xlink:href="#DejaVuSans-35" transform="translate(159.033203 0)"/>
      </g>
     </g>
    </g>
    <g id="xtick_5">
     <g id="line2d_5">
      <g>
       <use xlink:href="#mcaf6318fbb" x="243.305499" y="299.798125" style="stroke: #000000; stroke-width: 0.8"/>
      </g>
     </g>
     <g id="text_5">
      <!-- 1.00 -->
      <g transform="translate(232.172687 314.396563) scale(0.1 -0.1)">
       <defs>
        <path id="DejaVuSans-31" d="M 794 531 
L 1825 531 
L 1825 4091 
L 703 3866 
L 703 4441 
L 1819 4666 
L 2450 4666 
L 2450 531 
L 3481 531 
L 3481 0 
L 794 0 
L 794 531 
z
" transform="scale(0.015625)"/>
       </defs>
       <use xlink:href="#DejaVuSans-31"/>
       <use xlink:href="#DejaVuSans-2e" transform="translate(63.623047 0)"/>
       <use xlink:href="#DejaVuSans-30" transform="translate(95.410156 0)"/>
       <use xlink:href="#DejaVuSans-30" transform="translate(159.033203 0)"/>
      </g>
     </g>
    </g>
    <g id="xtick_6">
     <g id="line2d_6">
      <g>
       <use xlink:href="#mcaf6318fbb" x="289.422457" y="299.798125" style="stroke: #000000; stroke-width: 0.8"/>
      </g>
     </g>
     <g id="text_6">
      <!-- 1.25 -->
      <g transform="translate(278.289644 314.396563) scale(0.1 -0.1)">
       <use xlink:href="#DejaVuSans-31"/>
       <use xlink:href="#DejaVuSans-2e" transform="translate(63.623047 0)"/>
       <use xlink:href="#DejaVuSans-32" transform="translate(95.410156 0)"/>
       <use xlink:href="#DejaVuSans-35" transform="translate(159.033203 0)"/>
      </g>
     </g>
    </g>
    <g id="xtick_7">
     <g id="line2d_7">
      <g>
       <use xlink:href="#mcaf6318fbb" x="335.539414" y="299.798125" style="stroke: #000000; stroke-width: 0.8"/>
      </g>
     </g>
     <g id="text_7">
      <!-- 1.50 -->
      <g transform="translate(324.406602 314.396563) scale(0.1 -0.1)">
       <use xlink:href="#DejaVuSans-31"/>
       <use xlink:href="#DejaVuSans-2e" transform="translate(63.623047 0)"/>
       <use xlink:href="#DejaVuSans-35" transform="translate(95.410156 0)"/>
       <use xlink:href="#DejaVuSans-30" transform="translate(159.033203 0)"/>
      </g>
     </g>
    </g>
    <g id="xtick_8">
     <g id="line2d_8">
      <g>
       <use xlink:href="#mcaf6318fbb" x="381.656372" y="299.798125" style="stroke: #000000; stroke-width: 0.8"/>
      </g>
     </g>
     <g id="text_8">
      <!-- 1.75 -->
      <g transform="translate(370.523559 314.396563) scale(0.1 -0.1)">
       <use xlink:href="#DejaVuSans-31"/>
       <use xlink:href="#DejaVuSans-2e" transform="translate(63.623047 0)"/>
       <use xlink:href="#DejaVuSans-37" transform="translate(95.410156 0)"/>
       <use xlink:href="#DejaVuSans-35" transform="translate(159.033203 0)"/>
      </g>
     </g>
    </g>
    <g id="xtick_9">
     <g id="line2d_9">
      <g>
       <use xlink:href="#mcaf6318fbb" x="427.77333" y="299.798125" style="stroke: #000000; stroke-width: 0.8"/>
      </g>
     </g>
     <g id="text_9">
      <!-- 2.00 -->
      <g transform="translate(416.640517 314.396563) scale(0.1 -0.1)">
       <use xlink:href="#DejaVuSans-32"/>
       <use xlink:href="#DejaVuSans-2e" transform="translate(63.623047 0)"/>
       <use xlink:href="#DejaVuSans-30" transform="translate(95.410156 0)"/>
       <use xlink:href="#DejaVuSans-30" transform="translate(159.033203 0)"/>
      </g>
     </g>
    </g>
    <g id="text_10">
     <!-- time, t (us) -->
     <g transform="translate(215.574687 328.074688) scale(0.1 -0.1)">
      <defs>
       <path id="DejaVuSans-74" d="M 1172 4494 
L 1172 3500 
L 2356 3500 
L 2356 3053 
L 1172 3053 
L 1172 1153 
Q 1172 725 1289 603 
Q 1406 481 1766 481 
L 2356 481 
L 2356 0 
L 1766 0 
Q 1100 0 847 248 
Q 594 497 594 1153 
L 594 3053 
L 172 3053 
L 172 3500 
L 594 3500 
L 594 4494 
L 1172 4494 
z
" transform="scale(0.015625)"/>
       <path id="DejaVuSans-69" d="M 603 3500 
L 1178 3500 
L 1178 0 
L 603 0 
L 603 3500 
z
M 603 4863 
L 1178 4863 
L 1178 4134 
L 603 4134 
L 603 4863 
z
" transform="scale(0.015625)"/>
       <path id="DejaVuSans-6d" d="M 3328 2828 
Q 3544 3216 3844 3400 
Q 4144 3584 4550 3584 
Q 5097 3584 5394 3201 
Q 5691 2819 5691 2113 
L 5691 0 
L 5113 0 
L 5113 2094 
Q 5113 2597 4934 2840 
Q 4756 3084 4391 3084 
Q 3944 3084 3684 2787 
Q 3425 2491 3425 1978 
L 3425 0 
L 2847 0 
L 2847 2094 
Q 2847 2600 2669 2842 
Q 2491 3084 2119 3084 
Q 1678 3084 1418 2786 
Q 1159 2488 1159 1978 
L 1159 0 
L 581 0 
L 581 3500 
L 1159 3500 
L 1159 2956 
Q 1356 3278 1631 3431 
Q 1906 3584 2284 3584 
Q 2666 3584 2933 3390 
Q 3200 3197 3328 2828 
z
" transform="scale(0.015625)"/>
       <path id="DejaVuSans-65" d="M 3597 1894 
L 3597 1613 
L 953 1613 
Q 991 1019 1311 708 
Q 1631 397 2203 397 
Q 2534 397 2845 478 
Q 3156 559 3463 722 
L 3463 178 
Q 3153 47 2828 -22 
Q 2503 -91 2169 -91 
Q 1331 -91 842 396 
Q 353 884 353 1716 
Q 353 2575 817 3079 
Q 1281 3584 2069 3584 
Q 2775 3584 3186 3129 
Q 3597 2675 3597 1894 
z
M 3022 2063 
Q 3016 2534 2758 2815 
Q 2500 3097 2075 3097 
Q 1594 3097 1305 2825 
Q 1016 2553 972 2059 
L 3022 2063 
z
" transform="scale(0.015625)"/>
       <path id="DejaVuSans-2c" d="M 750 794 
L 1409 794 
L 1409 256 
L 897 -744 
L 494 -744 
L 750 256 
L 750 794 
z
" transform="scale(0.015625)"/>
       <path id="DejaVuSans-20" transform="scale(0.015625)"/>
       <path id="DejaVuSans-28" d="M 1984 4856 
Q 1566 4138 1362 3434 
Q 1159 2731 1159 2009 
Q 1159 1288 1364 580 
Q 1569 -128 1984 -844 
L 1484 -844 
Q 1016 -109 783 600 
Q 550 1309 550 2009 
Q 550 2706 781 3412 
Q 1013 4119 1484 4856 
L 1984 4856 
z
" transform="scale(0.015625)"/>
       <path id="DejaVuSans-75" d="M 544 1381 
L 544 3500 
L 1119 3500 
L 1119 1403 
Q 1119 906 1312 657 
Q 1506 409 1894 409 
Q 2359 409 2629 706 
Q 2900 1003 2900 1516 
L 2900 3500 
L 3475 3500 
L 3475 0 
L 2900 0 
L 2900 538 
Q 2691 219 2414 64 
Q 2138 -91 1772 -91 
Q 1169 -91 856 284 
Q 544 659 544 1381 
z
M 1991 3584 
L 1991 3584 
z
" transform="scale(0.015625)"/>
       <path id="DejaVuSans-73" d="M 2834 3397 
L 2834 2853 
Q 2591 2978 2328 3040 
Q 2066 3103 1784 3103 
Q 1356 3103 1142 2972 
Q 928 2841 928 2578 
Q 928 2378 1081 2264 
Q 1234 2150 1697 2047 
L 1894 2003 
Q 2506 1872 2764 1633 
Q 3022 1394 3022 966 
Q 3022 478 2636 193 
Q 2250 -91 1575 -91 
Q 1294 -91 989 -36 
Q 684 19 347 128 
L 347 722 
Q 666 556 975 473 
Q 1284 391 1588 391 
Q 1994 391 2212 530 
Q 2431 669 2431 922 
Q 2431 1156 2273 1281 
Q 2116 1406 1581 1522 
L 1381 1569 
Q 847 1681 609 1914 
Q 372 2147 372 2553 
Q 372 3047 722 3315 
Q 1072 3584 1716 3584 
Q 2034 3584 2315 3537 
Q 2597 3491 2834 3397 
z
" transform="scale(0.015625)"/>
       <path id="DejaVuSans-29" d="M 513 4856 
L 1013 4856 
Q 1481 4119 1714 3412 
Q 1947 2706 1947 2009 
Q 1947 1309 1714 600 
Q 1481 -109 1013 -844 
L 513 -844 
Q 928 -128 1133 580 
Q 1338 1288 1338 2009 
Q 1338 2731 1133 3434 
Q 928 4138 513 4856 
z
" transform="scale(0.015625)"/>
      </defs>
      <use xlink:href="#DejaVuSans-74"/>
      <use xlink:href="#DejaVuSans-69" transform="translate(39.208984 0)"/>
      <use xlink:href="#DejaVuSans-6d" transform="translate(66.992188 0)"/>
      <use xlink:href="#DejaVuSans-65" transform="translate(164.404297 0)"/>
      <use xlink:href="#DejaVuSans-2c" transform="translate(225.927734 0)"/>
      <use xlink:href="#DejaVuSans-20" transform="translate(257.714844 0)"/>
      <use xlink:href="#DejaVuSans-74" transform="translate(289.501953 0)"/>
      <use xlink:href="#DejaVuSans-20" transform="translate(328.710938 0)"/>
      <use xlink:href="#DejaVuSans-28" transform="translate(360.498047 0)"/>
      <use xlink:href="#DejaVuSans-75" transform="translate(399.511719 0)"/>
      <use xlink:href="#DejaVuSans-73" transform="translate(462.890625 0)"/>
      <use xlink:href="#DejaVuSans-29" transform="translate(514.990234 0)"/>
     </g>
    </g>
    <g id="text_11">
     <!-- 1e6 -->
     <g transform="translate(427.065 327.074688) scale(0.1 -0.1)">
      <defs>
       <path id="DejaVuSans-36" d="M 2113 2584 
Q 1688 2584 1439 2293 
Q 1191 2003 1191 1497 
Q 1191 994 1439 701 
Q 1688 409 2113 409 
Q 2538 409 2786 701 
Q 3034 994 3034 1497 
Q 3034 2003 2786 2293 
Q 2538 2584 2113 2584 
z
M 3366 4563 
L 3366 3988 
Q 3128 4100 2886 4159 
Q 2644 4219 2406 4219 
Q 1781 4219 1451 3797 
Q 1122 3375 1075 2522 
Q 1259 2794 1537 2939 
Q 1816 3084 2150 3084 
Q 2853 3084 3261 2657 
Q 3669 2231 3669 1497 
Q 3669 778 3244 343 
Q 2819 -91 2113 -91 
Q 1303 -91 875 529 
Q 447 1150 447 2328 
Q 447 3434 972 4092 
Q 1497 4750 2381 4750 
Q 2619 4750 2861 4703 
Q 3103 4656 3366 4563 
z
" transform="scale(0.015625)"/>
      </defs>
      <use xlink:href="#DejaVuSans-31"/>
      <use xlink:href="#DejaVuSans-65" transform="translate(63.623047 0)"/>
      <use xlink:href="#DejaVuSans-36" transform="translate(125.146484 0)"/>
     </g>
    </g>
   </g>
   <g id="matplotlib.axis_2">
    <g id="ytick_1">
     <g id="line2d_10">
      <defs>
       <path id="mb2fd0bcbca" d="M 0 0 
L -3.5 0 
" style="stroke: #000000; stroke-width: 0.8"/>
      </defs>
      <g>
       <use xlink:href="#mb2fd0bcbca" x="40.603125" y="287.185398" style="stroke: #000000; stroke-width: 0.8"/>
      </g>
     </g>
     <g id="text_12">
      <!-- 0 -->
      <g transform="translate(27.240625 290.984616) scale(0.1 -0.1)">
       <use xlink:href="#DejaVuSans-30"/>
      </g>
     </g>
    </g>
    <g id="ytick_2">
     <g id="line2d_11">
      <g>
       <use xlink:href="#mb2fd0bcbca" x="40.603125" y="228.046735" style="stroke: #000000; stroke-width: 0.8"/>
      </g>
     </g>
     <g id="text_13">
      <!-- 10 -->
      <g transform="translate(20.878125 231.845954) scale(0.1 -0.1)">
       <use xlink:href="#DejaVuSans-31"/>
       <use xlink:href="#DejaVuSans-30" transform="translate(63.623047 0)"/>
      </g>
     </g>
    </g>
    <g id="ytick_3">
     <g id="line2d_12">
      <g>
       <use xlink:href="#mb2fd0bcbca" x="40.603125" y="168.908073" style="stroke: #000000; stroke-width: 0.8"/>
      </g>
     </g>
     <g id="text_14">
      <!-- 20 -->
      <g transform="translate(20.878125 172.707292) scale(0.1 -0.1)">
       <use xlink:href="#DejaVuSans-32"/>
       <use xlink:href="#DejaVuSans-30" transform="translate(63.623047 0)"/>
      </g>
     </g>
    </g>
    <g id="ytick_4">
     <g id="line2d_13">
      <g>
       <use xlink:href="#mb2fd0bcbca" x="40.603125" y="109.76941" style="stroke: #000000; stroke-width: 0.8"/>
      </g>
     </g>
     <g id="text_15">
      <!-- 30 -->
      <g transform="translate(20.878125 113.568629) scale(0.1 -0.1)">
       <defs>
        <path id="DejaVuSans-33" d="M 2597 2516 
Q 3050 2419 3304 2112 
Q 3559 1806 3559 1356 
Q 3559 666 3084 287 
Q 2609 -91 1734 -91 
Q 1441 -91 1130 -33 
Q 819 25 488 141 
L 488 750 
Q 750 597 1062 519 
Q 1375 441 1716 441 
Q 2309 441 2620 675 
Q 2931 909 2931 1356 
Q 2931 1769 2642 2001 
Q 2353 2234 1838 2234 
L 1294 2234 
L 1294 2753 
L 1863 2753 
Q 2328 2753 2575 2939 
Q 2822 3125 2822 3475 
Q 2822 3834 2567 4026 
Q 2313 4219 1838 4219 
Q 1578 4219 1281 4162 
Q 984 4106 628 3988 
L 628 4550 
Q 988 4650 1302 4700 
Q 1616 4750 1894 4750 
Q 2613 4750 3031 4423 
Q 3450 4097 3450 3541 
Q 3450 3153 3228 2886 
Q 3006 2619 2597 2516 
z
" transform="scale(0.015625)"/>
       </defs>
       <use xlink:href="#DejaVuSans-33"/>
       <use xlink:href="#DejaVuSans-30" transform="translate(63.623047 0)"/>
      </g>
     </g>
    </g>
    <g id="ytick_5">
     <g id="line2d_14">
      <g>
       <use xlink:href="#mb2fd0bcbca" x="40.603125" y="50.630748" style="stroke: #000000; stroke-width: 0.8"/>
      </g>
     </g>
     <g id="text_16">
      <!-- 40 -->
      <g transform="translate(20.878125 54.429967) scale(0.1 -0.1)">
       <defs>
        <path id="DejaVuSans-34" d="M 2419 4116 
L 825 1625 
L 2419 1625 
L 2419 4116 
z
M 2253 4666 
L 3047 4666 
L 3047 1625 
L 3713 1625 
L 3713 1100 
L 3047 1100 
L 3047 0 
L 2419 0 
L 2419 1100 
L 313 1100 
L 313 1709 
L 2253 4666 
z
" transform="scale(0.015625)"/>
       </defs>
       <use xlink:href="#DejaVuSans-34"/>
       <use xlink:href="#DejaVuSans-30" transform="translate(63.623047 0)"/>
      </g>
     </g>
    </g>
    <g id="text_17">
     <!-- right wheel theta, rtheta (rad) -->
     <g transform="translate(14.798438 236.26125) rotate(-90) scale(0.1 -0.1)">
      <defs>
       <path id="DejaVuSans-72" d="M 2631 2963 
Q 2534 3019 2420 3045 
Q 2306 3072 2169 3072 
Q 1681 3072 1420 2755 
Q 1159 2438 1159 1844 
L 1159 0 
L 581 0 
L 581 3500 
L 1159 3500 
L 1159 2956 
Q 1341 3275 1631 3429 
Q 1922 3584 2338 3584 
Q 2397 3584 2469 3576 
Q 2541 3569 2628 3553 
L 2631 2963 
z
" transform="scale(0.015625)"/>
       <path id="DejaVuSans-67" d="M 2906 1791 
Q 2906 2416 2648 2759 
Q 2391 3103 1925 3103 
Q 1463 3103 1205 2759 
Q 947 2416 947 1791 
Q 947 1169 1205 825 
Q 1463 481 1925 481 
Q 2391 481 2648 825 
Q 2906 1169 2906 1791 
z
M 3481 434 
Q 3481 -459 3084 -895 
Q 2688 -1331 1869 -1331 
Q 1566 -1331 1297 -1286 
Q 1028 -1241 775 -1147 
L 775 -588 
Q 1028 -725 1275 -790 
Q 1522 -856 1778 -856 
Q 2344 -856 2625 -561 
Q 2906 -266 2906 331 
L 2906 616 
Q 2728 306 2450 153 
Q 2172 0 1784 0 
Q 1141 0 747 490 
Q 353 981 353 1791 
Q 353 2603 747 3093 
Q 1141 3584 1784 3584 
Q 2172 3584 2450 3431 
Q 2728 3278 2906 2969 
L 2906 3500 
L 3481 3500 
L 3481 434 
z
" transform="scale(0.015625)"/>
       <path id="DejaVuSans-68" d="M 3513 2113 
L 3513 0 
L 2938 0 
L 2938 2094 
Q 2938 2591 2744 2837 
Q 2550 3084 2163 3084 
Q 1697 3084 1428 2787 
Q 1159 2491 1159 1978 
L 1159 0 
L 581 0 
L 581 4863 
L 1159 4863 
L 1159 2956 
Q 1366 3272 1645 3428 
Q 1925 3584 2291 3584 
Q 2894 3584 3203 3211 
Q 3513 2838 3513 2113 
z
" transform="scale(0.015625)"/>
       <path id="DejaVuSans-77" d="M 269 3500 
L 844 3500 
L 1563 769 
L 2278 3500 
L 2956 3500 
L 3675 769 
L 4391 3500 
L 4966 3500 
L 4050 0 
L 3372 0 
L 2619 2869 
L 1863 0 
L 1184 0 
L 269 3500 
z
" transform="scale(0.015625)"/>
       <path id="DejaVuSans-6c" d="M 603 4863 
L 1178 4863 
L 1178 0 
L 603 0 
L 603 4863 
z
" transform="scale(0.015625)"/>
       <path id="DejaVuSans-61" d="M 2194 1759 
Q 1497 1759 1228 1600 
Q 959 1441 959 1056 
Q 959 750 1161 570 
Q 1363 391 1709 391 
Q 2188 391 2477 730 
Q 2766 1069 2766 1631 
L 2766 1759 
L 2194 1759 
z
M 3341 1997 
L 3341 0 
L 2766 0 
L 2766 531 
Q 2569 213 2275 61 
Q 1981 -91 1556 -91 
Q 1019 -91 701 211 
Q 384 513 384 1019 
Q 384 1609 779 1909 
Q 1175 2209 1959 2209 
L 2766 2209 
L 2766 2266 
Q 2766 2663 2505 2880 
Q 2244 3097 1772 3097 
Q 1472 3097 1187 3025 
Q 903 2953 641 2809 
L 641 3341 
Q 956 3463 1253 3523 
Q 1550 3584 1831 3584 
Q 2591 3584 2966 3190 
Q 3341 2797 3341 1997 
z
" transform="scale(0.015625)"/>
       <path id="DejaVuSans-64" d="M 2906 2969 
L 2906 4863 
L 3481 4863 
L 3481 0 
L 2906 0 
L 2906 525 
Q 2725 213 2448 61 
Q 2172 -91 1784 -91 
Q 1150 -91 751 415 
Q 353 922 353 1747 
Q 353 2572 751 3078 
Q 1150 3584 1784 3584 
Q 2172 3584 2448 3432 
Q 2725 3281 2906 2969 
z
M 947 1747 
Q 947 1113 1208 752 
Q 1469 391 1925 391 
Q 2381 391 2643 752 
Q 2906 1113 2906 1747 
Q 2906 2381 2643 2742 
Q 2381 3103 1925 3103 
Q 1469 3103 1208 2742 
Q 947 2381 947 1747 
z
" transform="scale(0.015625)"/>
      </defs>
      <use xlink:href="#DejaVuSans-72"/>
      <use xlink:href="#DejaVuSans-69" transform="translate(41.113281 0)"/>
      <use xlink:href="#DejaVuSans-67" transform="translate(68.896484 0)"/>
      <use xlink:href="#DejaVuSans-68" transform="translate(132.373047 0)"/>
      <use xlink:href="#DejaVuSans-74" transform="translate(195.751953 0)"/>
      <use xlink:href="#DejaVuSans-20" transform="translate(234.960938 0)"/>
      <use xlink:href="#DejaVuSans-77" transform="translate(266.748047 0)"/>
      <use xlink:href="#DejaVuSans-68" transform="translate(348.535156 0)"/>
      <use xlink:href="#DejaVuSans-65" transform="translate(411.914062 0)"/>
      <use xlink:href="#DejaVuSans-65" transform="translate(473.4375 0)"/>
      <use xlink:href="#DejaVuSans-6c" transform="translate(534.960938 0)"/>
      <use xlink:href="#DejaVuSans-20" transform="translate(562.744141 0)"/>
      <use xlink:href="#DejaVuSans-74" transform="translate(594.53125 0)"/>
      <use xlink:href="#DejaVuSans-68" transform="translate(633.740234 0)"/>
      <use xlink:href="#DejaVuSans-65" transform="translate(697.119141 0)"/>
      <use xlink:href="#DejaVuSans-74" transform="translate(758.642578 0)"/>
      <use xlink:href="#DejaVuSans-61" transform="translate(797.851562 0)"/>
      <use xlink:href="#DejaVuSans-2c" transform="translate(859.130859 0)"/>
      <use xlink:href="#DejaVuSans-20" transform="translate(890.917969 0)"/>
      <use xlink:href="#DejaVuSans-72" transform="translate(922.705078 0)"/>
      <use xlink:href="#DejaVuSans-74" transform="translate(963.818359 0)"/>
      <use xlink:href="#DejaVuSans-68" transform="translate(1003.027344 0)"/>
      <use xlink:href="#DejaVuSans-65" transform="translate(1066.40625 0)"/>
      <use xlink:href="#DejaVuSans-74" transform="translate(1127.929688 0)"/>
      <use xlink:href="#DejaVuSans-61" transform="translate(1167.138672 0)"/>
      <use xlink:href="#DejaVuSans-20" transform="translate(1228.417969 0)"/>
      <use xlink:href="#DejaVuSans-28" transform="translate(1260.205078 0)"/>
      <use xlink:href="#DejaVuSans-72" transform="translate(1299.21875 0)"/>
      <use xlink:href="#DejaVuSans-61" transform="translate(1340.332031 0)"/>
      <use xlink:href="#DejaVuSans-64" transform="translate(1401.611328 0)"/>
      <use xlink:href="#DejaVuSans-29" transform="translate(1465.087891 0)"/>
     </g>
    </g>
   </g>
   <g id="line2d_15">
    <path d="M 59.029515 287.185398 
L 62.724959 286.719984 
L 66.791921 285.40131 
L 70.754475 283.591367 
L 73.739718 282.065843 
L 77.778641 279.868053 
L 81.722932 277.566837 
L 84.793215 275.705182 
L 88.752448 273.300545 
L 92.696739 270.870046 
L 95.743779 268.982535 
L 99.702089 266.526181 
L 103.748576 263.914689 
L 107.692313 261.277347 
L 110.676449 259.234692 
L 114.681984 256.468067 
L 118.624799 253.753147 
L 121.694713 251.60707 
L 125.65247 248.8663 
L 129.612072 246.022103 
L 132.675345 243.824315 
L 136.631995 240.954263 
L 140.677559 238.006638 
L 144.636608 235.136586 
L 147.621113 232.964653 
L 151.658192 230.042884 
L 155.616687 227.147 
L 158.686231 224.923327 
L 162.627571 222.053268 
L 166.586435 219.18321 
L 169.649708 216.933693 
L 173.606912 214.063635 
L 177.651922 211.141889 
L 180.634767 208.969963 
L 184.591418 206.099905 
L 188.628312 203.152256 
L 192.585331 200.256354 
L 195.655429 198.03274 
L 199.611895 195.136838 
L 203.569284 192.240877 
L 206.631634 190.017264 
L 210.587547 187.147205 
L 214.630528 184.225459 
L 217.612635 182.053474 
L 221.569101 179.209318 
L 225.604151 176.33926 
L 228.586073 174.167333 
L 232.627763 171.271372 
L 236.583122 168.401314 
L 240.53922 165.557158 
L 243.600648 163.333485 
L 247.585706 160.463427 
L 250.683106 158.239813 
L 254.653776 155.369754 
L 258.63865 152.499696 
L 262.702845 149.577891 
L 265.714098 147.431868 
L 269.768332 144.535906 
L 273.752468 141.717594 
L 276.765381 139.597355 
L 280.827178 136.727296 
L 284.797295 133.908984 
L 287.894141 131.711214 
L 291.87717 128.866999 
L 295.861306 126.048628 
L 298.951696 123.850858 
L 302.934356 121.05839 
L 306.989144 118.214175 
L 309.999474 116.093935 
L 313.983057 113.301467 
L 318.031388 110.431408 
L 321.04135 108.311169 
L 325.109788 105.467013 
L 329.092079 102.648642 
L 336.148527 97.684247 
L 340.131003 94.840032 
L 343.227665 92.642262 
L 347.19317 89.798047 
L 351.161995 86.979676 
L 354.251093 84.80775 
L 358.231725 81.963535 
L 362.287619 79.067633 
L 365.29758 76.921609 
L 369.278212 74.103238 
L 373.338718 71.207336 
L 376.347757 69.061253 
L 380.415641 66.165351 
L 384.397011 63.34698 
L 387.406788 61.226799 
L 391.46508 58.330838 
L 395.445711 55.512526 
L 398.541266 53.314756 
L 402.520606 50.496385 
L 406.501791 47.678014 
L 409.590336 45.506087 
L 413.569307 42.687775 
L 417.635716 39.817717 
L 420.64457 37.723321 
L 424.623726 34.930852 
" clip-path="url(#p8b22a106e9)" style="fill: none; stroke: #1f77b4; stroke-width: 1.5; stroke-linecap: square"/>
   </g>
   <g id="line2d_16">
    <path d="M 59.028408 281.290152 
L 62.762591 280.798883 
L 65.754659 279.868053 
L 69.575172 278.264957 
L 73.41321 276.429157 
L 77.331675 274.360652 
L 81.206607 272.162865 
L 84.236306 270.378775 
L 88.109208 268.07756 
L 91.983771 265.77635 
L 95.936732 263.397563 
L 98.879547 261.587618 
L 102.83878 259.157125 
L 106.712974 256.778344 
L 110.586614 254.399556 
L 113.608934 252.512045 
L 117.465788 250.029836 
L 121.425574 247.444205 
L 125.298476 244.93614 
L 129.171747 242.40222 
L 132.192962 240.385426 
L 136.032291 237.825644 
L 139.991893 235.214152 
L 143.86461 232.654376 
L 146.807794 230.689293 
L 150.758911 228.026096 
L 154.631629 225.414592 
L 158.59123 222.7514 
L 161.534046 220.760438 
L 165.405657 218.174837 
L 169.356958 215.511645 
L 173.229306 212.925985 
L 176.25919 210.909179 
L 180.130617 208.323577 
L 184.00315 205.68623 
L 187.954266 202.997135 
L 191.825877 200.359788 
L 194.822373 198.317138 
L 198.660779 195.705693 
L 202.532575 193.042443 
L 206.483138 190.353408 
L 210.354011 187.690216 
L 213.382234 185.595821 
L 217.236136 182.932629 
L 221.107563 180.269438 
L 225.056835 177.580344 
L 227.982863 175.563538 
L 231.923465 172.822816 
L 235.7936 170.133722 
L 239.664289 167.444687 
L 242.684396 165.376194 
L 246.553793 162.687099 
L 250.539774 159.920475 
L 254.439424 157.205596 
L 257.410094 155.137044 
L 261.371541 152.370419 
L 265.270822 149.65554 
L 269.256249 146.837169 
L 272.226366 144.768676 
L 276.111258 142.079641 
L 280.089122 139.33886 
L 283.98785 136.623922 
L 287.044482 134.477839 
L 290.941918 131.788804 
L 294.838248 129.125613 
L 298.800063 126.410675 
L 301.767782 124.368026 
L 309.648616 118.912366 
L 313.544208 116.223272 
L 316.593277 114.103091 
L 320.47448 111.36231 
L 324.458616 108.569842 
L 328.342033 105.854904 
L 331.311596 103.786411 
L 335.286878 101.019786 
L 339.15443 98.330692 
L 343.135062 95.589911 
L 346.104994 93.521418 
L 350.001508 90.780636 
L 353.977158 87.988168 
L 357.874041 85.247386 
L 360.930304 83.101363 
L 364.825527 80.360581 
L 368.722226 77.645644 
L 371.770741 75.525463 
L 375.665964 72.784682 
L 379.632944 69.992214 
L 383.52872 67.277276 
L 387.425234 64.562338 
L 390.47375 62.416314 
L 394.336691 59.72722 
L 398.318613 56.934752 
L 401.288176 54.866259 
L 405.166797 52.151321 
L 409.140787 49.333009 
L 413.035272 46.618071 
L 416.090613 44.471988 
L 419.981777 41.782953 
L 423.876447 39.068016 
" clip-path="url(#p8b22a106e9)" style="fill: none; stroke: #ff7f0e; stroke-width: 1.5; stroke-linecap: square"/>
   </g>
   <g id="line2d_17">
    <path d="M 61.853718 281.677998 
L 65.821805 280.540317 
L 69.675154 278.963083 
L 73.52924 277.075572 
L 77.445123 275.084634 
L 80.393657 273.636677 
L 84.364696 271.671594 
L 88.234278 269.680655 
L 92.120461 267.61215 
L 95.148132 265.9832 
L 99.033209 263.914695 
L 103.00517 261.768618 
L 106.890063 259.596685 
L 109.839334 257.916024 
L 113.802257 255.666519 
L 117.68678 253.442876 
L 121.658373 251.14166 
L 124.607091 249.435143 
L 128.490877 247.185645 
L 132.454721 244.832712 
L 136.323012 242.557358 
L 139.357323 240.799124 
L 143.24074 238.52377 
L 147.124895 236.222555 
L 151.088555 233.869623 
L 154.03672 232.13725 
L 158.006283 229.784324 
L 161.8897 227.457241 
L 165.774408 225.156037 
L 168.786583 223.346099 
L 172.669446 220.993149 
L 176.639379 218.562668 
L 180.5073 216.235621 
L 184.390717 213.908514 
L 187.418018 212.072732 
L 191.299775 209.719782 
L 195.269154 207.315145 
L 199.151648 204.93641 
L 202.084318 203.152315 
L 206.028793 200.747678 
L 209.911472 198.394728 
L 213.880482 195.964247 
L 216.828462 194.180152 
L 220.69417 191.801359 
L 224.655617 189.396722 
L 228.537005 187.017928 
L 231.571316 185.156302 
L 235.452335 182.777508 
L 239.334645 180.398715 
L 243.262703 177.994078 
L 247.14409 175.615284 
L 250.207363 173.753658 
L 254.11679 171.348962 
L 258.028061 168.970228 
L 261.083586 167.082699 
L 264.992091 164.652218 
L 268.988586 162.195835 
L 272.866469 159.842944 
L 275.813158 158.033005 
L 279.800615 155.576622 
L 283.71041 153.146141 
L 287.706168 150.689816 
L 290.666139 148.879819 
L 294.575381 146.449338 
L 298.564498 143.967111 
L 302.473187 141.562474 
L 305.522256 139.700848 
L 309.429653 137.29621 
L 313.338342 134.891573 
L 316.393314 133.004045 
L 320.300527 130.599407 
L 324.2961 128.11718 
L 328.175643 125.738387 
L 331.151478 123.928448 
L 335.124362 121.472124 
L 339.032128 119.015799 
L 343.027517 116.533572 
L 346.002614 114.671887 
L 349.909643 112.26725 
L 353.896731 109.785082 
L 357.7914 107.328699 
L 360.852643 105.467073 
L 364.74307 103.062435 
L 368.636633 100.631896 
L 372.606749 98.175571 
L 375.581846 96.339789 
L 379.574837 93.857562 
L 383.46637 91.427022 
L 386.441283 89.59124 
L 390.425788 87.134856 
L 394.332079 84.730278 
L 398.325807 82.248051 
L 401.270836 80.412209 
L 405.176205 78.007572 
L 409.162186 75.525404 
L 413.068477 73.094864 
L 416.128982 71.181492 
L 420.034351 68.776914 
L 423.940088 66.372277 
" clip-path="url(#p8b22a106e9)" style="fill: none; stroke: #2ca02c; stroke-width: 1.5; stroke-linecap: square"/>
   </g>
   <g id="line2d_18">
    <path d="M 59.02767 282.763964 
L 61.844863 282.5054 
L 65.743037 281.393578 
L 69.703377 279.764631 
L 73.568532 278.083963 
L 76.577755 276.817006 
L 80.441434 275.213911 
L 84.338317 273.533249 
L 88.314521 271.697449 
L 91.269142 270.35292 
L 95.252356 268.465409 
L 99.132821 266.603748 
L 103.028967 264.690381 
L 106.062171 263.190713 
L 109.940976 261.251486 
L 113.923452 259.260547 
L 117.819413 257.321319 
L 121.700247 255.356236 
L 124.733636 253.830713 
L 128.628859 251.839775 
L 132.611335 249.797125 
L 135.565587 248.271602 
L 139.444392 246.254802 
L 143.418567 244.212153 
L 147.31379 242.195359 
L 150.354004 240.618125 
L 154.248673 238.575475 
L 158.144449 236.532826 
L 162.118993 234.490176 
L 165.072877 232.938798 
L 169.053323 230.870293 
L 172.947808 228.827644 
L 176.843216 226.759109 
L 179.876605 225.156037 
L 183.754856 223.113388 
L 187.720361 221.019051 
L 191.614662 218.950499 
L 194.569283 217.373271 
L 198.541982 215.227188 
L 202.435729 213.158695 
L 206.417467 211.038456 
L 209.339253 209.487131 
L 213.232816 207.418578 
L 217.190019 205.298398 
L 221.084135 203.204002 
L 224.109408 201.600931 
L 228.001863 199.532438 
L 231.879377 197.463886 
L 235.851523 195.317803 
L 239.744901 193.223466 
L 242.7853 191.594551 
L 246.676649 189.500155 
L 250.567998 187.405818 
L 253.630533 185.751 
L 257.538668 183.630761 
L 261.547338 181.458835 
L 265.468387 179.312752 
L 268.451416 177.735524 
L 272.438504 175.563597 
L 276.36029 173.417514 
L 279.429096 171.711009 
L 283.335756 169.590769 
L 287.257542 167.496433 
L 291.241494 165.324447 
L 294.222863 163.695532 
L 298.228582 161.523605 
L 302.136164 159.455053 
L 306.056843 157.334873 
L 309.11698 155.654211 
L 313.03563 153.533972 
L 317.042641 151.387889 
L 320.023825 149.758974 
L 323.910747 147.638735 
L 327.909825 145.440964 
L 331.829213 143.320725 
L 334.883262 141.665907 
L 338.80099 139.545727 
L 342.688465 137.425488 
L 346.686436 135.227717 
L 349.666514 133.598743 
L 353.655631 131.45266 
L 357.574466 129.306577 
L 361.493854 127.186397 
L 364.553622 125.531579 
L 368.470611 123.437183 
L 372.47633 121.265257 
L 375.456777 119.636341 
L 379.373583 117.516102 
L 383.370632 115.344175 
L 387.28799 113.223936 
L 390.355137 111.543274 
L 394.271758 109.397192 
L 398.176389 107.277011 
L 401.23505 105.622193 
L 405.121049 103.527798 
L 409.124923 101.355871 
L 413.041729 99.183945 
L 416.022175 97.580873 
L 420.016826 95.408946 
L 423.933447 93.262863 
L 426.999856 91.582202 
" clip-path="url(#p8b22a106e9)" style="fill: none; stroke: #d62728; stroke-width: 1.5; stroke-linecap: square"/>
   </g>
   <g id="line2d_19">
    <path d="M 59.02767 283.694792 
L 62.813135 283.203522 
L 66.705222 281.962417 
L 69.74562 280.798883 
L 73.619998 279.376782 
L 77.581998 278.058108 
L 81.490687 276.687723 
L 84.451211 275.60176 
L 88.437746 274.076237 
L 92.329832 272.498997 
L 96.324114 270.870046 
L 99.268405 269.6548 
L 103.174881 268.025849 
L 107.161415 266.319332 
L 111.068628 264.664526 
L 114.099066 263.397569 
L 118.005172 261.742762 
L 121.880288 260.087956 
L 125.866268 258.381433 
L 128.82587 257.088615 
L 132.81923 255.356242 
L 136.693423 253.701436 
L 140.599714 251.994919 
L 143.638822 250.65039 
L 147.544559 248.918011 
L 151.52187 247.159783 
L 155.428714 245.427405 
L 158.388131 244.082876 
L 162.356219 242.324642 
L 166.246645 240.592269 
L 169.293501 239.221884 
L 173.197947 237.437801 
L 177.1035 235.679567 
L 181.088374 233.869617 
L 184.047607 232.550949 
L 188.038753 230.741004 
L 191.944306 228.931053 
L 195.850412 227.146941 
L 198.888597 225.750736 
L 202.793228 223.992484 
L 206.77017 222.182545 
L 210.658936 220.39845 
L 213.586625 219.079776 
L 217.56947 217.269838 
L 221.458605 215.485742 
L 225.449567 213.64996 
L 228.391459 212.305443 
L 232.295906 210.495504 
L 236.279304 208.659662 
L 240.166779 206.849724 
L 243.211789 205.453519 
L 247.115129 203.643521 
L 251.048905 201.833582 
L 255.061634 199.971956 
L 258.049828 198.601536 
L 262.055547 196.73991 
L 265.973091 194.929971 
L 268.961469 193.533708 
L 272.972722 191.672022 
L 276.905023 189.83624 
L 279.97918 188.414133 
L 283.910742 186.604194 
L 287.842859 184.794255 
L 291.840461 182.932629 
L 294.798218 181.562209 
L 298.816297 179.726427 
L 302.748228 177.916488 
L 306.680898 176.080646 
L 309.747122 174.658598 
L 313.677394 172.822757 
L 317.696026 170.935228 
L 320.682929 169.564867 
L 324.600656 167.729084 
L 328.609511 165.867399 
L 332.539783 164.005773 
L 335.612279 162.583666 
L 339.541259 160.747884 
L 343.471347 158.937945 
L 346.536095 157.489994 
L 350.464891 155.654152 
L 354.481125 153.766624 
L 357.466736 152.396263 
L 361.395532 150.56048 
L 365.403649 148.698795 
L 369.333368 146.863013 
L 372.406048 145.440905 
L 376.334291 143.630967 
L 380.263271 141.821028 
L 383.327835 140.39892 
L 387.25534 138.563138 
L 391.270466 136.675609 
L 395.198524 134.813924 
L 398.184321 133.443563 
L 402.190593 131.581937 
L 406.118467 129.746096 
L 409.190778 128.298145 
L 413.102603 126.488206 
L 417.031583 124.652424 
L 421.02439 122.790738 
L 423.980302 121.420377 
" clip-path="url(#p8b22a106e9)" style="fill: none; stroke: #9467bd; stroke-width: 1.5; stroke-linecap: square"/>
   </g>
   <g id="line2d_20">
    <path d="M 59.02767 284.548051 
L 61.876407 284.263631 
L 65.797271 283.177665 
L 69.797271 281.833135 
L 73.71629 280.61789 
L 76.73566 279.764625 
L 80.622213 278.652806 
L 84.541601 277.385843 
L 88.524261 276.06717 
L 91.490504 275.058773 
L 95.495116 273.714243 
L 99.414319 272.343858 
L 103.333523 270.973474 
L 106.377242 269.887505 
L 110.29497 268.51712 
L 114.300135 267.095018 
L 117.265456 266.060766 
L 121.182999 264.664526 
L 125.180786 263.242424 
L 129.098698 261.846184 
L 132.151087 260.734359 
L 136.068631 259.312264 
L 139.986543 257.890162 
L 143.031553 256.752482 
L 146.948174 255.304531 
L 150.952418 253.830719 
L 154.853543 252.382762 
L 157.818495 251.270943 
L 161.813515 249.797131 
L 165.73032 248.323319 
L 169.733641 246.823651 
L 172.682544 245.711832 
L 176.598242 244.263875 
L 180.593631 242.738352 
L 184.49365 241.264546 
L 187.545117 240.126866 
L 191.444582 238.627198 
L 195.361203 237.12753 
L 198.404738 235.98985 
L 202.319699 234.490182 
L 206.322097 232.964659 
L 210.237796 231.490841 
L 213.185776 230.353161 
L 217.179874 228.827638 
L 221.095388 227.327964 
L 225.081184 225.828326 
L 228.045213 224.71646 
L 231.960174 223.190978 
L 235.953903 221.639593 
L 239.852077 220.16574 
L 242.902621 218.976343 
L 246.816291 217.476705 
L 250.76132 215.951164 
L 253.833816 214.761767 
L 257.777 213.262129 
L 261.807623 211.710744 
L 264.800429 210.521347 
L 268.743613 209.02165 
L 272.766487 207.470325 
L 276.71041 205.91894 
L 279.790284 204.755387 
L 283.732547 203.229846 
L 287.676838 201.678462 
L 290.749334 200.489065 
L 294.67813 198.989427 
L 298.708014 197.412198 
L 301.700267 196.222802 
L 305.642529 194.723104 
L 309.665403 193.17172 
L 313.608772 191.646238 
L 316.687355 190.430938 
L 320.627773 188.9313 
L 324.570773 187.431603 
L 327.642531 186.216363 
L 331.570036 184.716724 
L 335.598629 183.139437 
L 338.590881 181.950099 
L 342.531667 180.424558 
L 346.552328 178.873174 
L 350.493115 177.347633 
L 353.572067 176.132393 
L 357.5123 174.606852 
L 361.440358 173.08137 
L 364.510456 171.891973 
L 368.45032 170.366432 
L 372.461942 168.815048 
L 375.452903 167.651494 
L 379.39166 166.126013 
L 383.410661 164.548785 
L 387.350525 162.9974 
L 390.415274 161.782101 
L 394.353477 160.256619 
L 398.293341 158.731078 
L 401.349604 157.567525 
L 405.287992 156.041984 
L 409.314003 154.464756 
L 413.253498 152.939274 
L 416.244275 151.801564 
L 420.261431 150.224336 
L 424.200003 148.698795 
L 427.277296 147.509398 
" clip-path="url(#p8b22a106e9)" style="fill: none; stroke: #8c564b; stroke-width: 1.5; stroke-linecap: square"/>
   </g>
   <g id="line2d_21">
    <path d="M 59.030253 285.375454 
L 62.842465 284.858327 
L 66.774397 283.824074 
L 70.784728 282.738108 
L 73.756873 282.065843 
L 77.773845 281.212582 
L 81.703932 280.281757 
L 84.676262 279.557776 
L 88.684564 278.523523 
L 92.614835 277.463416 
L 96.615573 276.377446 
L 99.586612 275.550043 
L 103.500282 274.46408 
L 107.475933 273.378111 
L 111.404728 272.266292 
L 114.461914 271.413034 
L 118.389787 270.327064 
L 122.31969 269.215246 
L 125.369681 268.361981 
L 129.297555 267.224307 
L 133.313604 266.060772 
L 137.226535 264.948947 
L 140.198128 264.095689 
L 144.204769 262.932153 
L 148.13338 261.794473 
L 151.190197 260.889504 
L 155.117332 259.751824 
L 159.046497 258.588288 
L 163.053507 257.373042 
L 170.038566 255.304537 
L 173.96644 254.115146 
L 176.937479 253.236032 
L 180.943566 252.020786 
L 188.86978 249.642004 
L 191.839897 248.76289 
L 195.750984 247.5735 
L 199.757256 246.332398 
L 202.727373 245.453284 
L 206.740101 244.238038 
L 210.650819 243.022791 
L 214.578139 241.8334 
L 217.610975 240.928425 
L 221.537188 239.713179 
L 225.550286 238.472071 
L 229.477975 237.28268 
L 251.328558 230.585889 
L 254.406404 229.629203 
L 266.35789 225.983446 
L 258.360103 228.439806 
L 262.402162 227.172843 
L 266.35789 225.983446 
L 269.357891 225.052604 
L 273.391464 223.81152 
L 277.346824 222.59628 
L 280.432786 221.639593 
L 284.385932 220.398509 
L 288.341106 219.183269 
L 291.418952 218.226583 
L 295.372836 216.98544 
L 299.368593 215.770199 
L 302.367671 214.839357 
L 306.321001 213.624117 
L 310.354759 212.357189 
L 314.308274 211.141949 
L 317.377819 210.185262 
L 321.330226 208.944119 
L 325.284294 207.728879 
L 328.361771 206.772193 
L 332.299052 205.556952 
L 336.339451 204.289966 
L 339.323403 203.385026 
L 351.246666 199.635871 
L 354.331337 198.679185 
L 358.283744 197.463945 
L 362.236337 196.248645 
L 365.313445 195.266116 
L 369.264377 194.050875 
L 373.287989 192.783948 
L 376.284853 191.853105 
L 380.235785 190.637865 
L 384.252572 189.396722 
L 387.249806 188.465938 
L 391.287253 187.224795 
L 395.238554 185.983711 
L 399.18967 184.768471 
L 402.250361 183.811785 
L 406.199817 182.570641 
L 410.237449 181.303714 
L 413.234866 180.372871 
L 417.18543 179.131787 
L 421.21476 177.890644 
L 424.195761 176.959802 
" clip-path="url(#p8b22a106e9)" style="fill: none; stroke: #e377c2; stroke-width: 1.5; stroke-linecap: square"/>
   </g>
   <g id="line2d_22">
    <path d="M 59.030622 286.177001 
L 62.838591 285.763299 
L 65.900388 285.142747 
L 69.841544 284.444626 
L 73.78399 283.84993 
L 77.789156 283.151809 
L 80.798933 282.531257 
L 84.827895 281.781423 
L 88.801516 281.031588 
L 91.778274 280.411034 
L 95.797459 279.583631 
L 99.738245 278.782089 
L 102.784547 278.161536 
L 106.723673 277.385843 
L 110.664275 276.584302 
L 114.683644 275.731037 
L 117.660217 275.084628 
L 121.670179 274.257225 
L 125.610412 273.403966 
L 128.586616 272.783418 
L 132.588092 271.904299 
L 136.528693 271.025185 
L 140.555626 270.171926 
L 143.53183 269.525517 
L 151.489035 267.793144 
L 154.463947 267.12088 
L 158.48922 266.215904 
L 162.428346 265.362646 
L 166.367287 264.483532 
L 169.422997 263.785412 
L 173.328919 262.932153 
L 177.337405 262.027178 
L 180.312133 261.329058 
L 184.250152 260.475799 
L 188.266939 259.544969 
L 192.205328 258.665855 
L 195.267678 257.99359 
L 199.205144 257.114476 
L 203.143716 256.209501 
L 206.197581 255.537236 
L 210.134678 254.632267 
L 214.158475 253.701436 
L 218.079708 252.796461 
L 221.054989 252.124196 
L 225.070485 251.193371 
L 228.991164 250.288396 
L 232.051855 249.56442 
L 235.988214 248.685306 
L 239.924757 247.780331 
L 242.978069 247.056356 
L 246.91369 246.15138 
L 250.966264 245.246405 
L 254.932506 244.31558 
L 257.937303 243.591599 
L 261.981391 242.686629 
L 265.917197 241.781654 
L 269.007955 241.031823 
L 272.972353 240.152709 
L 276.938965 239.221879 
L 280.021054 238.497903 
L 283.985821 237.567078 
L 288.037841 236.636247 
L 291.041346 235.963983 
L 294.990249 235.033158 
L 299.005745 234.076472 
L 301.9956 233.378358 
L 310.010727 231.516702 
L 313.962028 230.585877 
L 317.045223 229.861896 
L 321.008883 228.956927 
L 325.060719 228.000252 
L 328.063671 227.30212 
L 332.013127 226.371278 
L 336.043012 225.440494 
L 339.030099 224.742362 
L 343.079721 223.785676 
L 347.043935 222.880677 
L 350.047625 222.182545 
L 354.074004 221.251762 
L 358.037664 220.32092 
L 361.127316 219.622788 
L 365.07585 218.692004 
L 369.026044 217.787005 
L 372.107764 217.088873 
L 376.069764 216.132187 
L 380.119202 215.175501 
L 384.082308 214.270561 
L 387.085076 213.572429 
L 391.12529 212.615743 
L 395.08729 211.684901 
L 398.176942 210.960925 
L 402.13802 210.055985 
L 406.100758 209.099299 
L 409.16606 208.401167 
L 413.126215 207.470325 
L 417.175099 206.513639 
L 420.176944 205.815507 
L 424.138207 204.884723 
" clip-path="url(#p8b22a106e9)" style="fill: none; stroke: #7f7f7f; stroke-width: 1.5; stroke-linecap: square"/>
   </g>
   <g id="line2d_23">
    <path d="M 62.901864 286.564846 
L 65.848553 286.151144 
L 69.881389 285.711587 
L 73.819592 285.375454 
L 76.837486 284.987609 
L 80.789525 284.418769 
L 84.776797 283.901642 
L 88.841546 283.384516 
L 91.857041 282.970814 
L 95.929169 282.427831 
L 99.914043 281.910705 
L 102.929169 281.497003 
L 106.976209 280.954022 
L 110.92751 280.411034 
L 113.995764 279.997336 
L 117.946142 279.428499 
L 121.898365 278.859656 
L 124.960347 278.445957 
L 128.911832 277.877114 
L 132.950755 277.308277 
L 135.93194 276.894573 
L 139.866639 276.325736 
L 143.897077 275.756899 
L 147.848193 275.188056 
L 150.900767 274.722646 
L 154.850407 274.179659 
L 158.801524 273.584966 
L 161.861845 273.119551 
L 165.811301 272.524852 
L 169.848195 271.93016 
L 172.829564 271.4906 
L 176.77939 270.895907 
L 180.809089 270.275354 
L 184.759652 269.680661 
L 187.827537 269.241101 
L 191.777178 268.620547 
L 195.727003 268.025855 
L 198.788247 267.56044 
L 202.736411 266.965741 
L 206.772568 266.345193 
L 209.753752 265.905633 
L 213.70284 265.28508 
L 217.731432 264.664532 
L 221.68052 264.069833 
L 224.747851 263.604418 
L 228.696385 263.009719 
L 232.645472 262.389172 
L 235.705978 261.897901 
L 239.653036 261.329058 
L 243.68827 260.708504 
L 246.697863 260.217239 
L 250.675542 259.622541 
L 254.732359 259.027842 
L 257.742136 258.562433 
L 261.805593 257.916024 
L 265.783089 257.321325 
L 268.79305 256.85591 
L 272.847838 256.235362 
L 276.824964 255.614808 
L 279.890819 255.149393 
L 283.835295 254.554694 
L 287.797295 253.934147 
L 290.885102 253.442876 
L 294.860199 252.822322 
L 298.922919 252.201768 
L 301.932696 251.736353 
L 305.908531 251.115805 
L 309.963688 250.495251 
L 312.972911 250.029836 
L 317.034339 249.409282 
L 321.011097 248.788728 
L 324.97365 248.194036 
L 328.044855 247.72862 
L 332.020137 247.082211 
L 335.115876 246.59094 
L 339.090051 245.996248 
L 343.065333 245.349839 
L 346.152402 244.884423 
L 350.126208 244.263869 
L 354.187821 243.61746 
L 358.162734 243.022768 
L 361.157753 242.557352 
L 365.194647 241.910943 
L 369.169376 241.316245 
L 372.264561 240.850835 
L 376.237445 240.230281 
L 380.21162 239.609734 
L 383.299058 239.170174 
L 387.271573 238.52377 
L 391.332079 237.903216 
L 394.340196 237.463657 
L 398.313079 236.843103 
L 402.352371 236.196699 
L 405.359381 235.731284 
L 409.418227 235.084875 
L 413.391849 234.490182 
L 416.399781 234.050628 
L 420.451432 233.378358 
L 424.424316 232.75781 
L 427.51858 232.266539 
" clip-path="url(#p8b22a106e9)" style="fill: none; stroke: #bcbd22; stroke-width: 1.5; stroke-linecap: square"/>
   </g>
   <g id="line2d_24">
    <path d="M 59.03136 287.185398 
L 62.73326 287.056116 
L 65.722377 286.849265 
L 69.767203 286.694127 
L 73.731601 286.538989 
L 76.770709 286.357995 
L 80.682902 286.099432 
L 84.643796 285.866724 
L 88.668515 285.608161 
L 91.653758 285.427167 
L 95.70006 285.168603 
L 99.660584 284.91004 
L 102.645273 284.729046 
L 106.683828 284.444626 
L 110.643245 284.186062 
L 113.65044 283.979212 
L 117.608566 283.694792 
L 121.56909 283.410372 
L 125.608751 283.125953 
L 128.593625 282.893246 
L 132.639189 282.634682 
L 136.59916 282.350263 
L 139.584034 282.143412 
L 143.620928 281.858992 
L 147.58053 281.574573 
L 150.651551 281.341866 
L 154.609308 281.031588 
L 158.53589 280.773028 
L 161.565959 280.540317 
L 165.490512 280.23004 
L 169.470959 279.945625 
L 173.39625 279.661203 
L 176.348288 279.454354 
L 180.351609 279.144077 
L 184.244618 278.8338 
L 188.256609 278.523523 
L 191.207725 278.316674 
L 195.133016 278.006397 
L 199.137629 277.69612 
L 203.062366 277.411699 
L 206.099998 277.178994 
L 210.023629 276.868717 
L 213.933055 276.584296 
L 216.963862 276.351591 
L 224.897823 275.731037 
L 228.822376 275.446616 
L 231.773677 275.239766 
L 235.775522 274.903634 
L 239.698784 274.619213 
L 242.73494 274.386508 
L 246.657095 274.076231 
L 250.59659 273.765954 
L 254.628872 273.455677 
L 257.594562 273.222972 
L 261.633116 272.912696 
L 265.569659 272.602419 
L 269.52465 272.317997 
L 272.567631 272.059437 
L 276.520039 271.775015 
L 280.559515 271.464739 
L 283.538855 271.206178 
L 287.490525 270.921757 
L 291.521516 270.61148 
L 294.500303 270.378775 
L 298.537935 270.068498 
L 302.489973 269.758222 
L 305.469682 269.525517 
L 309.499198 269.21524 
L 313.450867 268.904963 
L 317.474849 268.620541 
L 320.453451 268.387837 
L 324.404014 268.051704 
L 328.434451 267.741428 
L 331.413607 267.534572 
L 335.450132 267.19844 
L 339.401064 266.888169 
L 342.380588 266.655458 
L 346.409181 266.345181 
L 350.359744 266.034905 
L 353.425046 265.8022 
L 357.344065 265.491923 
L 361.294813 265.181646 
L 365.310309 264.871369 
L 368.288542 264.638664 
L 372.307911 264.328387 
L 376.257921 264.018111 
L 380.20996 263.707834 
L 383.267514 263.449274 
L 387.216048 263.164852 
L 391.25202 262.854575 
L 394.229884 262.621864 
L 398.177495 262.285732 
L 402.205166 262.001311 
L 405.182661 261.768606 
L 409.201293 261.458329 
L 413.150011 261.148052 
L 417.09873 260.837775 
L 420.154808 260.605071 
L 424.102973 260.294794 
" clip-path="url(#p8b22a106e9)" style="fill: none; stroke: #17becf; stroke-width: 1.5; stroke-linecap: square"/>
   </g>
   <g id="patch_3">
    <path d="M 40.603125 299.798125 
L 40.603125 22.318125 
" style="fill: none; stroke: #000000; stroke-width: 0.8; stroke-linejoin: miter; stroke-linecap: square"/>
   </g>
   <g id="patch_4">
    <path d="M 445.943125 299.798125 
L 445.943125 22.318125 
" style="fill: none; stroke: #000000; stroke-width: 0.8; stroke-linejoin: miter; stroke-linecap: square"/>
   </g>
   <g id="patch_5">
    <path d="M 40.603125 299.798125 
L 445.943125 299.798125 
" style="fill: none; stroke: #000000; stroke-width: 0.8; stroke-linejoin: miter; stroke-linecap: square"/>
   </g>
   <g id="patch_6">
    <path d="M 40.603125 22.318125 
L 445.943125 22.318125 
" style="fill: none; stroke: #000000; stroke-width: 0.8; stroke-linejoin: miter; stroke-linecap: square"/>
   </g>
   <g id="text_18">
    <!-- right theta vs. time -->
    <g transform="translate(185.440625 16.318125) scale(0.12 -0.12)">
     <defs>
      <path id="DejaVuSans-76" d="M 191 3500 
L 800 3500 
L 1894 563 
L 2988 3500 
L 3597 3500 
L 2284 0 
L 1503 0 
L 191 3500 
z
" transform="scale(0.015625)"/>
     </defs>
     <use xlink:href="#DejaVuSans-72"/>
     <use xlink:href="#DejaVuSans-69" transform="translate(41.113281 0)"/>
     <use xlink:href="#DejaVuSans-67" transform="translate(68.896484 0)"/>
     <use xlink:href="#DejaVuSans-68" transform="translate(132.373047 0)"/>
     <use xlink:href="#DejaVuSans-74" transform="translate(195.751953 0)"/>
     <use xlink:href="#DejaVuSans-20" transform="translate(234.960938 0)"/>
     <use xlink:href="#DejaVuSans-74" transform="translate(266.748047 0)"/>
     <use xlink:href="#DejaVuSans-68" transform="translate(305.957031 0)"/>
     <use xlink:href="#DejaVuSans-65" transform="translate(369.335938 0)"/>
     <use xlink:href="#DejaVuSans-74" transform="translate(430.859375 0)"/>
     <use xlink:href="#DejaVuSans-61" transform="translate(470.068359 0)"/>
     <use xlink:href="#DejaVuSans-20" transform="translate(531.347656 0)"/>
     <use xlink:href="#DejaVuSans-76" transform="translate(563.134766 0)"/>
     <use xlink:href="#DejaVuSans-73" transform="translate(622.314453 0)"/>
     <use xlink:href="#DejaVuSans-2e" transform="translate(674.414062 0)"/>
     <use xlink:href="#DejaVuSans-20" transform="translate(706.201172 0)"/>
     <use xlink:href="#DejaVuSans-74" transform="translate(737.988281 0)"/>
     <use xlink:href="#DejaVuSans-69" transform="translate(777.197266 0)"/>
     <use xlink:href="#DejaVuSans-6d" transform="translate(804.980469 0)"/>
     <use xlink:href="#DejaVuSans-65" transform="translate(902.392578 0)"/>
    </g>
   </g>
   <g id="legend_1">
    <g id="patch_7">
     <path d="M 47.603125 177.099375 
L 164.128125 177.099375 
Q 166.128125 177.099375 166.128125 175.099375 
L 166.128125 29.318125 
Q 166.128125 27.318125 164.128125 27.318125 
L 47.603125 27.318125 
Q 45.603125 27.318125 45.603125 29.318125 
L 45.603125 175.099375 
Q 45.603125 177.099375 47.603125 177.099375 
z
" style="fill: #ffffff; opacity: 0.8; stroke: #cccccc; stroke-linejoin: miter"/>
    </g>
    <g id="line2d_25">
     <path d="M 49.603125 35.416562 
L 59.603125 35.416562 
L 69.603125 35.416562 
" style="fill: none; stroke: #1f77b4; stroke-width: 1.5; stroke-linecap: square"/>
    </g>
    <g id="text_19">
     <!-- Ref Speed = 850 -->
     <g transform="translate(77.603125 38.916562) scale(0.1 -0.1)">
      <defs>
       <path id="DejaVuSans-52" d="M 2841 2188 
Q 3044 2119 3236 1894 
Q 3428 1669 3622 1275 
L 4263 0 
L 3584 0 
L 2988 1197 
Q 2756 1666 2539 1819 
Q 2322 1972 1947 1972 
L 1259 1972 
L 1259 0 
L 628 0 
L 628 4666 
L 2053 4666 
Q 2853 4666 3247 4331 
Q 3641 3997 3641 3322 
Q 3641 2881 3436 2590 
Q 3231 2300 2841 2188 
z
M 1259 4147 
L 1259 2491 
L 2053 2491 
Q 2509 2491 2742 2702 
Q 2975 2913 2975 3322 
Q 2975 3731 2742 3939 
Q 2509 4147 2053 4147 
L 1259 4147 
z
" transform="scale(0.015625)"/>
       <path id="DejaVuSans-66" d="M 2375 4863 
L 2375 4384 
L 1825 4384 
Q 1516 4384 1395 4259 
Q 1275 4134 1275 3809 
L 1275 3500 
L 2222 3500 
L 2222 3053 
L 1275 3053 
L 1275 0 
L 697 0 
L 697 3053 
L 147 3053 
L 147 3500 
L 697 3500 
L 697 3744 
Q 697 4328 969 4595 
Q 1241 4863 1831 4863 
L 2375 4863 
z
" transform="scale(0.015625)"/>
       <path id="DejaVuSans-53" d="M 3425 4513 
L 3425 3897 
Q 3066 4069 2747 4153 
Q 2428 4238 2131 4238 
Q 1616 4238 1336 4038 
Q 1056 3838 1056 3469 
Q 1056 3159 1242 3001 
Q 1428 2844 1947 2747 
L 2328 2669 
Q 3034 2534 3370 2195 
Q 3706 1856 3706 1288 
Q 3706 609 3251 259 
Q 2797 -91 1919 -91 
Q 1588 -91 1214 -16 
Q 841 59 441 206 
L 441 856 
Q 825 641 1194 531 
Q 1563 422 1919 422 
Q 2459 422 2753 634 
Q 3047 847 3047 1241 
Q 3047 1584 2836 1778 
Q 2625 1972 2144 2069 
L 1759 2144 
Q 1053 2284 737 2584 
Q 422 2884 422 3419 
Q 422 4038 858 4394 
Q 1294 4750 2059 4750 
Q 2388 4750 2728 4690 
Q 3069 4631 3425 4513 
z
" transform="scale(0.015625)"/>
       <path id="DejaVuSans-70" d="M 1159 525 
L 1159 -1331 
L 581 -1331 
L 581 3500 
L 1159 3500 
L 1159 2969 
Q 1341 3281 1617 3432 
Q 1894 3584 2278 3584 
Q 2916 3584 3314 3078 
Q 3713 2572 3713 1747 
Q 3713 922 3314 415 
Q 2916 -91 2278 -91 
Q 1894 -91 1617 61 
Q 1341 213 1159 525 
z
M 3116 1747 
Q 3116 2381 2855 2742 
Q 2594 3103 2138 3103 
Q 1681 3103 1420 2742 
Q 1159 2381 1159 1747 
Q 1159 1113 1420 752 
Q 1681 391 2138 391 
Q 2594 391 2855 752 
Q 3116 1113 3116 1747 
z
" transform="scale(0.015625)"/>
       <path id="DejaVuSans-3d" d="M 678 2906 
L 4684 2906 
L 4684 2381 
L 678 2381 
L 678 2906 
z
M 678 1631 
L 4684 1631 
L 4684 1100 
L 678 1100 
L 678 1631 
z
" transform="scale(0.015625)"/>
       <path id="DejaVuSans-38" d="M 2034 2216 
Q 1584 2216 1326 1975 
Q 1069 1734 1069 1313 
Q 1069 891 1326 650 
Q 1584 409 2034 409 
Q 2484 409 2743 651 
Q 3003 894 3003 1313 
Q 3003 1734 2745 1975 
Q 2488 2216 2034 2216 
z
M 1403 2484 
Q 997 2584 770 2862 
Q 544 3141 544 3541 
Q 544 4100 942 4425 
Q 1341 4750 2034 4750 
Q 2731 4750 3128 4425 
Q 3525 4100 3525 3541 
Q 3525 3141 3298 2862 
Q 3072 2584 2669 2484 
Q 3125 2378 3379 2068 
Q 3634 1759 3634 1313 
Q 3634 634 3220 271 
Q 2806 -91 2034 -91 
Q 1263 -91 848 271 
Q 434 634 434 1313 
Q 434 1759 690 2068 
Q 947 2378 1403 2484 
z
M 1172 3481 
Q 1172 3119 1398 2916 
Q 1625 2713 2034 2713 
Q 2441 2713 2670 2916 
Q 2900 3119 2900 3481 
Q 2900 3844 2670 4047 
Q 2441 4250 2034 4250 
Q 1625 4250 1398 4047 
Q 1172 3844 1172 3481 
z
" transform="scale(0.015625)"/>
      </defs>
      <use xlink:href="#DejaVuSans-52"/>
      <use xlink:href="#DejaVuSans-65" transform="translate(64.982422 0)"/>
      <use xlink:href="#DejaVuSans-66" transform="translate(126.505859 0)"/>
      <use xlink:href="#DejaVuSans-20" transform="translate(161.710938 0)"/>
      <use xlink:href="#DejaVuSans-53" transform="translate(193.498047 0)"/>
      <use xlink:href="#DejaVuSans-70" transform="translate(256.974609 0)"/>
      <use xlink:href="#DejaVuSans-65" transform="translate(320.451172 0)"/>
      <use xlink:href="#DejaVuSans-65" transform="translate(381.974609 0)"/>
      <use xlink:href="#DejaVuSans-64" transform="translate(443.498047 0)"/>
      <use xlink:href="#DejaVuSans-20" transform="translate(506.974609 0)"/>
      <use xlink:href="#DejaVuSans-3d" transform="translate(538.761719 0)"/>
      <use xlink:href="#DejaVuSans-20" transform="translate(622.550781 0)"/>
      <use xlink:href="#DejaVuSans-38" transform="translate(654.337891 0)"/>
      <use xlink:href="#DejaVuSans-35" transform="translate(717.960938 0)"/>
      <use xlink:href="#DejaVuSans-30" transform="translate(781.583984 0)"/>
     </g>
    </g>
    <g id="line2d_26">
     <path d="M 49.603125 50.094688 
L 59.603125 50.094688 
L 69.603125 50.094688 
" style="fill: none; stroke: #ff7f0e; stroke-width: 1.5; stroke-linecap: square"/>
    </g>
    <g id="text_20">
     <!-- Ref Speed = 765 -->
     <g transform="translate(77.603125 53.594688) scale(0.1 -0.1)">
      <use xlink:href="#DejaVuSans-52"/>
      <use xlink:href="#DejaVuSans-65" transform="translate(64.982422 0)"/>
      <use xlink:href="#DejaVuSans-66" transform="translate(126.505859 0)"/>
      <use xlink:href="#DejaVuSans-20" transform="translate(161.710938 0)"/>
      <use xlink:href="#DejaVuSans-53" transform="translate(193.498047 0)"/>
      <use xlink:href="#DejaVuSans-70" transform="translate(256.974609 0)"/>
      <use xlink:href="#DejaVuSans-65" transform="translate(320.451172 0)"/>
      <use xlink:href="#DejaVuSans-65" transform="translate(381.974609 0)"/>
      <use xlink:href="#DejaVuSans-64" transform="translate(443.498047 0)"/>
      <use xlink:href="#DejaVuSans-20" transform="translate(506.974609 0)"/>
      <use xlink:href="#DejaVuSans-3d" transform="translate(538.761719 0)"/>
      <use xlink:href="#DejaVuSans-20" transform="translate(622.550781 0)"/>
      <use xlink:href="#DejaVuSans-37" transform="translate(654.337891 0)"/>
      <use xlink:href="#DejaVuSans-36" transform="translate(717.960938 0)"/>
      <use xlink:href="#DejaVuSans-35" transform="translate(781.583984 0)"/>
     </g>
    </g>
    <g id="line2d_27">
     <path d="M 49.603125 64.772813 
L 59.603125 64.772813 
L 69.603125 64.772813 
" style="fill: none; stroke: #2ca02c; stroke-width: 1.5; stroke-linecap: square"/>
    </g>
    <g id="text_21">
     <!-- Ref Speed = 680 -->
     <g transform="translate(77.603125 68.272813) scale(0.1 -0.1)">
      <use xlink:href="#DejaVuSans-52"/>
      <use xlink:href="#DejaVuSans-65" transform="translate(64.982422 0)"/>
      <use xlink:href="#DejaVuSans-66" transform="translate(126.505859 0)"/>
      <use xlink:href="#DejaVuSans-20" transform="translate(161.710938 0)"/>
      <use xlink:href="#DejaVuSans-53" transform="translate(193.498047 0)"/>
      <use xlink:href="#DejaVuSans-70" transform="translate(256.974609 0)"/>
      <use xlink:href="#DejaVuSans-65" transform="translate(320.451172 0)"/>
      <use xlink:href="#DejaVuSans-65" transform="translate(381.974609 0)"/>
      <use xlink:href="#DejaVuSans-64" transform="translate(443.498047 0)"/>
      <use xlink:href="#DejaVuSans-20" transform="translate(506.974609 0)"/>
      <use xlink:href="#DejaVuSans-3d" transform="translate(538.761719 0)"/>
      <use xlink:href="#DejaVuSans-20" transform="translate(622.550781 0)"/>
      <use xlink:href="#DejaVuSans-36" transform="translate(654.337891 0)"/>
      <use xlink:href="#DejaVuSans-38" transform="translate(717.960938 0)"/>
      <use xlink:href="#DejaVuSans-30" transform="translate(781.583984 0)"/>
     </g>
    </g>
    <g id="line2d_28">
     <path d="M 49.603125 79.450938 
L 59.603125 79.450938 
L 69.603125 79.450938 
" style="fill: none; stroke: #d62728; stroke-width: 1.5; stroke-linecap: square"/>
    </g>
    <g id="text_22">
     <!-- Ref Speed = 595 -->
     <g transform="translate(77.603125 82.950938) scale(0.1 -0.1)">
      <defs>
       <path id="DejaVuSans-39" d="M 703 97 
L 703 672 
Q 941 559 1184 500 
Q 1428 441 1663 441 
Q 2288 441 2617 861 
Q 2947 1281 2994 2138 
Q 2813 1869 2534 1725 
Q 2256 1581 1919 1581 
Q 1219 1581 811 2004 
Q 403 2428 403 3163 
Q 403 3881 828 4315 
Q 1253 4750 1959 4750 
Q 2769 4750 3195 4129 
Q 3622 3509 3622 2328 
Q 3622 1225 3098 567 
Q 2575 -91 1691 -91 
Q 1453 -91 1209 -44 
Q 966 3 703 97 
z
M 1959 2075 
Q 2384 2075 2632 2365 
Q 2881 2656 2881 3163 
Q 2881 3666 2632 3958 
Q 2384 4250 1959 4250 
Q 1534 4250 1286 3958 
Q 1038 3666 1038 3163 
Q 1038 2656 1286 2365 
Q 1534 2075 1959 2075 
z
" transform="scale(0.015625)"/>
      </defs>
      <use xlink:href="#DejaVuSans-52"/>
      <use xlink:href="#DejaVuSans-65" transform="translate(64.982422 0)"/>
      <use xlink:href="#DejaVuSans-66" transform="translate(126.505859 0)"/>
      <use xlink:href="#DejaVuSans-20" transform="translate(161.710938 0)"/>
      <use xlink:href="#DejaVuSans-53" transform="translate(193.498047 0)"/>
      <use xlink:href="#DejaVuSans-70" transform="translate(256.974609 0)"/>
      <use xlink:href="#DejaVuSans-65" transform="translate(320.451172 0)"/>
      <use xlink:href="#DejaVuSans-65" transform="translate(381.974609 0)"/>
      <use xlink:href="#DejaVuSans-64" transform="translate(443.498047 0)"/>
      <use xlink:href="#DejaVuSans-20" transform="translate(506.974609 0)"/>
      <use xlink:href="#DejaVuSans-3d" transform="translate(538.761719 0)"/>
      <use xlink:href="#DejaVuSans-20" transform="translate(622.550781 0)"/>
      <use xlink:href="#DejaVuSans-35" transform="translate(654.337891 0)"/>
      <use xlink:href="#DejaVuSans-39" transform="translate(717.960938 0)"/>
      <use xlink:href="#DejaVuSans-35" transform="translate(781.583984 0)"/>
     </g>
    </g>
    <g id="line2d_29">
     <path d="M 49.603125 94.129063 
L 59.603125 94.129063 
L 69.603125 94.129063 
" style="fill: none; stroke: #9467bd; stroke-width: 1.5; stroke-linecap: square"/>
    </g>
    <g id="text_23">
     <!-- Ref Speed = 510 -->
     <g transform="translate(77.603125 97.629063) scale(0.1 -0.1)">
      <use xlink:href="#DejaVuSans-52"/>
      <use xlink:href="#DejaVuSans-65" transform="translate(64.982422 0)"/>
      <use xlink:href="#DejaVuSans-66" transform="translate(126.505859 0)"/>
      <use xlink:href="#DejaVuSans-20" transform="translate(161.710938 0)"/>
      <use xlink:href="#DejaVuSans-53" transform="translate(193.498047 0)"/>
      <use xlink:href="#DejaVuSans-70" transform="translate(256.974609 0)"/>
      <use xlink:href="#DejaVuSans-65" transform="translate(320.451172 0)"/>
      <use xlink:href="#DejaVuSans-65" transform="translate(381.974609 0)"/>
      <use xlink:href="#DejaVuSans-64" transform="translate(443.498047 0)"/>
      <use xlink:href="#DejaVuSans-20" transform="translate(506.974609 0)"/>
      <use xlink:href="#DejaVuSans-3d" transform="translate(538.761719 0)"/>
      <use xlink:href="#DejaVuSans-20" transform="translate(622.550781 0)"/>
      <use xlink:href="#DejaVuSans-35" transform="translate(654.337891 0)"/>
      <use xlink:href="#DejaVuSans-31" transform="translate(717.960938 0)"/>
      <use xlink:href="#DejaVuSans-30" transform="translate(781.583984 0)"/>
     </g>
    </g>
    <g id="line2d_30">
     <path d="M 49.603125 108.807187 
L 59.603125 108.807187 
L 69.603125 108.807187 
" style="fill: none; stroke: #8c564b; stroke-width: 1.5; stroke-linecap: square"/>
    </g>
    <g id="text_24">
     <!-- Ref Speed = 425 -->
     <g transform="translate(77.603125 112.307187) scale(0.1 -0.1)">
      <use xlink:href="#DejaVuSans-52"/>
      <use xlink:href="#DejaVuSans-65" transform="translate(64.982422 0)"/>
      <use xlink:href="#DejaVuSans-66" transform="translate(126.505859 0)"/>
      <use xlink:href="#DejaVuSans-20" transform="translate(161.710938 0)"/>
      <use xlink:href="#DejaVuSans-53" transform="translate(193.498047 0)"/>
      <use xlink:href="#DejaVuSans-70" transform="translate(256.974609 0)"/>
      <use xlink:href="#DejaVuSans-65" transform="translate(320.451172 0)"/>
      <use xlink:href="#DejaVuSans-65" transform="translate(381.974609 0)"/>
      <use xlink:href="#DejaVuSans-64" transform="translate(443.498047 0)"/>
      <use xlink:href="#DejaVuSans-20" transform="translate(506.974609 0)"/>
      <use xlink:href="#DejaVuSans-3d" transform="translate(538.761719 0)"/>
      <use xlink:href="#DejaVuSans-20" transform="translate(622.550781 0)"/>
      <use xlink:href="#DejaVuSans-34" transform="translate(654.337891 0)"/>
      <use xlink:href="#DejaVuSans-32" transform="translate(717.960938 0)"/>
      <use xlink:href="#DejaVuSans-35" transform="translate(781.583984 0)"/>
     </g>
    </g>
    <g id="line2d_31">
     <path d="M 49.603125 123.485313 
L 59.603125 123.485313 
L 69.603125 123.485313 
" style="fill: none; stroke: #e377c2; stroke-width: 1.5; stroke-linecap: square"/>
    </g>
    <g id="text_25">
     <!-- Ref Speed = 340 -->
     <g transform="translate(77.603125 126.985313) scale(0.1 -0.1)">
      <use xlink:href="#DejaVuSans-52"/>
      <use xlink:href="#DejaVuSans-65" transform="translate(64.982422 0)"/>
      <use xlink:href="#DejaVuSans-66" transform="translate(126.505859 0)"/>
      <use xlink:href="#DejaVuSans-20" transform="translate(161.710938 0)"/>
      <use xlink:href="#DejaVuSans-53" transform="translate(193.498047 0)"/>
      <use xlink:href="#DejaVuSans-70" transform="translate(256.974609 0)"/>
      <use xlink:href="#DejaVuSans-65" transform="translate(320.451172 0)"/>
      <use xlink:href="#DejaVuSans-65" transform="translate(381.974609 0)"/>
      <use xlink:href="#DejaVuSans-64" transform="translate(443.498047 0)"/>
      <use xlink:href="#DejaVuSans-20" transform="translate(506.974609 0)"/>
      <use xlink:href="#DejaVuSans-3d" transform="translate(538.761719 0)"/>
      <use xlink:href="#DejaVuSans-20" transform="translate(622.550781 0)"/>
      <use xlink:href="#DejaVuSans-33" transform="translate(654.337891 0)"/>
      <use xlink:href="#DejaVuSans-34" transform="translate(717.960938 0)"/>
      <use xlink:href="#DejaVuSans-30" transform="translate(781.583984 0)"/>
     </g>
    </g>
    <g id="line2d_32">
     <path d="M 49.603125 138.163437 
L 59.603125 138.163437 
L 69.603125 138.163437 
" style="fill: none; stroke: #7f7f7f; stroke-width: 1.5; stroke-linecap: square"/>
    </g>
    <g id="text_26">
     <!-- Ref Speed = 255 -->
     <g transform="translate(77.603125 141.663437) scale(0.1 -0.1)">
      <use xlink:href="#DejaVuSans-52"/>
      <use xlink:href="#DejaVuSans-65" transform="translate(64.982422 0)"/>
      <use xlink:href="#DejaVuSans-66" transform="translate(126.505859 0)"/>
      <use xlink:href="#DejaVuSans-20" transform="translate(161.710938 0)"/>
      <use xlink:href="#DejaVuSans-53" transform="translate(193.498047 0)"/>
      <use xlink:href="#DejaVuSans-70" transform="translate(256.974609 0)"/>
      <use xlink:href="#DejaVuSans-65" transform="translate(320.451172 0)"/>
      <use xlink:href="#DejaVuSans-65" transform="translate(381.974609 0)"/>
      <use xlink:href="#DejaVuSans-64" transform="translate(443.498047 0)"/>
      <use xlink:href="#DejaVuSans-20" transform="translate(506.974609 0)"/>
      <use xlink:href="#DejaVuSans-3d" transform="translate(538.761719 0)"/>
      <use xlink:href="#DejaVuSans-20" transform="translate(622.550781 0)"/>
      <use xlink:href="#DejaVuSans-32" transform="translate(654.337891 0)"/>
      <use xlink:href="#DejaVuSans-35" transform="translate(717.960938 0)"/>
      <use xlink:href="#DejaVuSans-35" transform="translate(781.583984 0)"/>
     </g>
    </g>
    <g id="line2d_33">
     <path d="M 49.603125 152.841563 
L 59.603125 152.841563 
L 69.603125 152.841563 
" style="fill: none; stroke: #bcbd22; stroke-width: 1.5; stroke-linecap: square"/>
    </g>
    <g id="text_27">
     <!-- Ref Speed = 170 -->
     <g transform="translate(77.603125 156.341563) scale(0.1 -0.1)">
      <use xlink:href="#DejaVuSans-52"/>
      <use xlink:href="#DejaVuSans-65" transform="translate(64.982422 0)"/>
      <use xlink:href="#DejaVuSans-66" transform="translate(126.505859 0)"/>
      <use xlink:href="#DejaVuSans-20" transform="translate(161.710938 0)"/>
      <use xlink:href="#DejaVuSans-53" transform="translate(193.498047 0)"/>
      <use xlink:href="#DejaVuSans-70" transform="translate(256.974609 0)"/>
      <use xlink:href="#DejaVuSans-65" transform="translate(320.451172 0)"/>
      <use xlink:href="#DejaVuSans-65" transform="translate(381.974609 0)"/>
      <use xlink:href="#DejaVuSans-64" transform="translate(443.498047 0)"/>
      <use xlink:href="#DejaVuSans-20" transform="translate(506.974609 0)"/>
      <use xlink:href="#DejaVuSans-3d" transform="translate(538.761719 0)"/>
      <use xlink:href="#DejaVuSans-20" transform="translate(622.550781 0)"/>
      <use xlink:href="#DejaVuSans-31" transform="translate(654.337891 0)"/>
      <use xlink:href="#DejaVuSans-37" transform="translate(717.960938 0)"/>
      <use xlink:href="#DejaVuSans-30" transform="translate(781.583984 0)"/>
     </g>
    </g>
    <g id="line2d_34">
     <path d="M 49.603125 167.519687 
L 59.603125 167.519687 
L 69.603125 167.519687 
" style="fill: none; stroke: #17becf; stroke-width: 1.5; stroke-linecap: square"/>
    </g>
    <g id="text_28">
     <!-- Ref Speed = 85 -->
     <g transform="translate(77.603125 171.019687) scale(0.1 -0.1)">
      <use xlink:href="#DejaVuSans-52"/>
      <use xlink:href="#DejaVuSans-65" transform="translate(64.982422 0)"/>
      <use xlink:href="#DejaVuSans-66" transform="translate(126.505859 0)"/>
      <use xlink:href="#DejaVuSans-20" transform="translate(161.710938 0)"/>
      <use xlink:href="#DejaVuSans-53" transform="translate(193.498047 0)"/>
      <use xlink:href="#DejaVuSans-70" transform="translate(256.974609 0)"/>
      <use xlink:href="#DejaVuSans-65" transform="translate(320.451172 0)"/>
      <use xlink:href="#DejaVuSans-65" transform="translate(381.974609 0)"/>
      <use xlink:href="#DejaVuSans-64" transform="translate(443.498047 0)"/>
      <use xlink:href="#DejaVuSans-20" transform="translate(506.974609 0)"/>
      <use xlink:href="#DejaVuSans-3d" transform="translate(538.761719 0)"/>
      <use xlink:href="#DejaVuSans-20" transform="translate(622.550781 0)"/>
      <use xlink:href="#DejaVuSans-38" transform="translate(654.337891 0)"/>
      <use xlink:href="#DejaVuSans-35" transform="translate(717.960938 0)"/>
     </g>
    </g>
   </g>
  </g>
 </g>
 <defs>
  <clipPath id="p8b22a106e9">
   <rect x="40.603125" y="22.318125" width="405.34" height="277.48"/>
  </clipPath>
 </defs>
</svg>
